<?xml version="1.0" standalone="no"?>
 <!DOCTYPE svg PUBLIC "-//W3C//DTD SVG 1.1//EN" 
 "http://www.w3.org/Graphics/SVG/1.1/DTD/svg11.dtd"> 
<svg xmlns="http://www.w3.org/2000/svg" version="1.1" 
    width="29.7002cm" height="21.0007cm" viewBox="0 0 116930 82680 ">
<title>SVG Picture created as i2c_hub-F_Cu.svg date 2014/12/12 17:22:40 </title>
  <desc>Picture generated by PCBNEW </desc>
<g style="fill:#000000; fill-opacity:1;stroke:#000000; stroke-opacity:1;
stroke-linecap:round; stroke-linejoin:round; "
 transform="translate(0 0) scale(1 1)">
</g>
<g style="fill:#000000; fill-opacity:0.0; 
stroke:#000000; stroke-width:39.3701; stroke-opacity:1; 
stroke-linecap:round; stroke-linejoin:round;">
</g>
<g style="fill:#000000; fill-opacity:0.0; 
stroke:#000000; stroke-width:59.0551; stroke-opacity:1; 
stroke-linecap:round; stroke-linejoin:round;">
<rect x="69685.9" y="65357.2" width="42519.7" height="12598.4" rx="0" />
</g>
<g style="fill:#000000; fill-opacity:0.0; 
stroke:#000000; stroke-width:39.3701; stroke-opacity:1; 
stroke-linecap:round; stroke-linejoin:round;">
</g>
<g style="fill:#000000; fill-opacity:0.0; 
stroke:#000000; stroke-width:59.0551; stroke-opacity:1; 
stroke-linecap:round; stroke-linejoin:round;">
<rect x="3937.01" y="3937.01" width="109056" height="74806" rx="0" />
</g>
<g style="fill:#000000; fill-opacity:0.0; 
stroke:#000000; stroke-width:39.3701; stroke-opacity:1; 
stroke-linecap:round; stroke-linejoin:round;">
</g>
<g style="fill:#000000; fill-opacity:0.0; 
stroke:#000000; stroke-width:59.0551; stroke-opacity:1; 
stroke-linecap:round; stroke-linejoin:round;">
<rect x="4724.41" y="4724.41" width="107481" height="73231.2" rx="0" />
</g>
<g style="fill:#000000; fill-opacity:0.0; 
stroke:#000000; stroke-width:39.3701; stroke-opacity:1; 
stroke-linecap:round; stroke-linejoin:round;">
</g>
<g style="fill:#000000; fill-opacity:0.0; 
stroke:#000000; stroke-width:59.0551; stroke-opacity:1; 
stroke-linecap:round; stroke-linejoin:round;">
<path d="M23622 4724
L23622 3937
" />
</g>
<g style="fill:#000000; fill-opacity:0.0; 
stroke:#000000; stroke-width:39.3701; stroke-opacity:1; 
stroke-linecap:round; stroke-linejoin:round;">
</g>
<g style="fill:#000000; fill-opacity:0.0; 
stroke:#000000; stroke-width:59.0551; stroke-opacity:1; 
stroke-linecap:round; stroke-linejoin:round;">
<path d="M43307 4724
L43307 3937
" />
</g>
<g style="fill:#000000; fill-opacity:0.0; 
stroke:#000000; stroke-width:39.3701; stroke-opacity:1; 
stroke-linecap:round; stroke-linejoin:round;">
</g>
<g style="fill:#000000; fill-opacity:0.0; 
stroke:#000000; stroke-width:59.0551; stroke-opacity:1; 
stroke-linecap:round; stroke-linejoin:round;">
<path d="M62992 4724
L62992 3937
" />
</g>
<g style="fill:#000000; fill-opacity:0.0; 
stroke:#000000; stroke-width:39.3701; stroke-opacity:1; 
stroke-linecap:round; stroke-linejoin:round;">
</g>
<g style="fill:#000000; fill-opacity:0.0; 
stroke:#000000; stroke-width:59.0551; stroke-opacity:1; 
stroke-linecap:round; stroke-linejoin:round;">
<path d="M82677 4724
L82677 3937
" />
</g>
<g style="fill:#000000; fill-opacity:0.0; 
stroke:#000000; stroke-width:39.3701; stroke-opacity:1; 
stroke-linecap:round; stroke-linejoin:round;">
</g>
<g style="fill:#000000; fill-opacity:0.0; 
stroke:#000000; stroke-width:59.0551; stroke-opacity:1; 
stroke-linecap:round; stroke-linejoin:round;">
<path d="M102362 4724
L102362 3937
" />
</g>
<g style="fill:#000000; fill-opacity:0.0; 
stroke:#000000; stroke-width:39.3701; stroke-opacity:1; 
stroke-linecap:round; stroke-linejoin:round;">
</g>
<g style="fill:#000000; fill-opacity:0.0; 
stroke:#000000; stroke-width:59.0551; stroke-opacity:1; 
stroke-linecap:round; stroke-linejoin:round;">
<path d="M14169 4562
L13877 4562
" />
<path d="M14023 4562
L14023 4050
L13974 4123
L13925 4172
L13877 4196
" />
</g>
<g style="fill:#000000; fill-opacity:0.0; 
stroke:#000000; stroke-width:39.3701; stroke-opacity:1; 
stroke-linecap:round; stroke-linejoin:round;">
</g>
<g style="fill:#000000; fill-opacity:0.0; 
stroke:#000000; stroke-width:59.0551; stroke-opacity:1; 
stroke-linecap:round; stroke-linejoin:round;">
<path d="M33562 4099
L33586 4074
L33635 4050
L33757 4050
L33805 4074
L33830 4099
L33854 4147
L33854 4196
L33830 4269
L33537 4562
L33854 4562
" />
</g>
<g style="fill:#000000; fill-opacity:0.0; 
stroke:#000000; stroke-width:39.3701; stroke-opacity:1; 
stroke-linecap:round; stroke-linejoin:round;">
</g>
<g style="fill:#000000; fill-opacity:0.0; 
stroke:#000000; stroke-width:59.0551; stroke-opacity:1; 
stroke-linecap:round; stroke-linejoin:round;">
<path d="M53222 4050
L53539 4050
L53368 4245
L53442 4245
L53490 4269
L53515 4294
L53539 4342
L53539 4464
L53515 4513
L53490 4537
L53442 4562
L53295 4562
L53247 4537
L53222 4513
" />
</g>
<g style="fill:#000000; fill-opacity:0.0; 
stroke:#000000; stroke-width:39.3701; stroke-opacity:1; 
stroke-linecap:round; stroke-linejoin:round;">
</g>
<g style="fill:#000000; fill-opacity:0.0; 
stroke:#000000; stroke-width:59.0551; stroke-opacity:1; 
stroke-linecap:round; stroke-linejoin:round;">
<path d="M73175 4221
L73175 4562
" />
<path d="M73053 4026
L72932 4391
L73248 4391
" />
</g>
<g style="fill:#000000; fill-opacity:0.0; 
stroke:#000000; stroke-width:39.3701; stroke-opacity:1; 
stroke-linecap:round; stroke-linejoin:round;">
</g>
<g style="fill:#000000; fill-opacity:0.0; 
stroke:#000000; stroke-width:59.0551; stroke-opacity:1; 
stroke-linecap:round; stroke-linejoin:round;">
<path d="M92885 4050
L92641 4050
L92617 4294
L92641 4269
L92690 4245
L92812 4245
L92860 4269
L92885 4294
L92909 4342
L92909 4464
L92885 4513
L92860 4537
L92812 4562
L92690 4562
L92641 4537
L92617 4513
" />
</g>
<g style="fill:#000000; fill-opacity:0.0; 
stroke:#000000; stroke-width:39.3701; stroke-opacity:1; 
stroke-linecap:round; stroke-linejoin:round;">
</g>
<g style="fill:#000000; fill-opacity:0.0; 
stroke:#000000; stroke-width:59.0551; stroke-opacity:1; 
stroke-linecap:round; stroke-linejoin:round;">
<path d="M112545 4050
L112448 4050
L112399 4074
L112375 4099
L112326 4172
L112302 4269
L112302 4464
L112326 4513
L112350 4537
L112399 4562
L112497 4562
L112545 4537
L112570 4513
L112594 4464
L112594 4342
L112570 4294
L112545 4269
L112497 4245
L112399 4245
L112350 4269
L112326 4294
L112302 4342
" />
</g>
<g style="fill:#000000; fill-opacity:0.0; 
stroke:#000000; stroke-width:39.3701; stroke-opacity:1; 
stroke-linecap:round; stroke-linejoin:round;">
</g>
<g style="fill:#000000; fill-opacity:0.0; 
stroke:#000000; stroke-width:59.0551; stroke-opacity:1; 
stroke-linecap:round; stroke-linejoin:round;">
<path d="M23622 77955
L23622 78742
" />
</g>
<g style="fill:#000000; fill-opacity:0.0; 
stroke:#000000; stroke-width:39.3701; stroke-opacity:1; 
stroke-linecap:round; stroke-linejoin:round;">
</g>
<g style="fill:#000000; fill-opacity:0.0; 
stroke:#000000; stroke-width:59.0551; stroke-opacity:1; 
stroke-linecap:round; stroke-linejoin:round;">
<path d="M43307 77955
L43307 78742
" />
</g>
<g style="fill:#000000; fill-opacity:0.0; 
stroke:#000000; stroke-width:39.3701; stroke-opacity:1; 
stroke-linecap:round; stroke-linejoin:round;">
</g>
<g style="fill:#000000; fill-opacity:0.0; 
stroke:#000000; stroke-width:59.0551; stroke-opacity:1; 
stroke-linecap:round; stroke-linejoin:round;">
<path d="M62992 77955
L62992 78742
" />
</g>
<g style="fill:#000000; fill-opacity:0.0; 
stroke:#000000; stroke-width:39.3701; stroke-opacity:1; 
stroke-linecap:round; stroke-linejoin:round;">
</g>
<g style="fill:#000000; fill-opacity:0.0; 
stroke:#000000; stroke-width:59.0551; stroke-opacity:1; 
stroke-linecap:round; stroke-linejoin:round;">
<path d="M82677 77955
L82677 78742
" />
</g>
<g style="fill:#000000; fill-opacity:0.0; 
stroke:#000000; stroke-width:39.3701; stroke-opacity:1; 
stroke-linecap:round; stroke-linejoin:round;">
</g>
<g style="fill:#000000; fill-opacity:0.0; 
stroke:#000000; stroke-width:59.0551; stroke-opacity:1; 
stroke-linecap:round; stroke-linejoin:round;">
<path d="M102362 77955
L102362 78742
" />
</g>
<g style="fill:#000000; fill-opacity:0.0; 
stroke:#000000; stroke-width:39.3701; stroke-opacity:1; 
stroke-linecap:round; stroke-linejoin:round;">
</g>
<g style="fill:#000000; fill-opacity:0.0; 
stroke:#000000; stroke-width:59.0551; stroke-opacity:1; 
stroke-linecap:round; stroke-linejoin:round;">
<path d="M14169 78580
L13877 78580
" />
<path d="M14023 78580
L14023 78069
L13974 78142
L13925 78190
L13877 78215
" />
</g>
<g style="fill:#000000; fill-opacity:0.0; 
stroke:#000000; stroke-width:39.3701; stroke-opacity:1; 
stroke-linecap:round; stroke-linejoin:round;">
</g>
<g style="fill:#000000; fill-opacity:0.0; 
stroke:#000000; stroke-width:59.0551; stroke-opacity:1; 
stroke-linecap:round; stroke-linejoin:round;">
<path d="M33562 78117
L33586 78093
L33635 78069
L33757 78069
L33805 78093
L33830 78117
L33854 78166
L33854 78215
L33830 78288
L33537 78580
L33854 78580
" />
</g>
<g style="fill:#000000; fill-opacity:0.0; 
stroke:#000000; stroke-width:39.3701; stroke-opacity:1; 
stroke-linecap:round; stroke-linejoin:round;">
</g>
<g style="fill:#000000; fill-opacity:0.0; 
stroke:#000000; stroke-width:59.0551; stroke-opacity:1; 
stroke-linecap:round; stroke-linejoin:round;">
<path d="M53222 78069
L53539 78069
L53368 78263
L53442 78263
L53490 78288
L53515 78312
L53539 78361
L53539 78483
L53515 78532
L53490 78556
L53442 78580
L53295 78580
L53247 78556
L53222 78532
" />
</g>
<g style="fill:#000000; fill-opacity:0.0; 
stroke:#000000; stroke-width:39.3701; stroke-opacity:1; 
stroke-linecap:round; stroke-linejoin:round;">
</g>
<g style="fill:#000000; fill-opacity:0.0; 
stroke:#000000; stroke-width:59.0551; stroke-opacity:1; 
stroke-linecap:round; stroke-linejoin:round;">
<path d="M73175 78239
L73175 78580
" />
<path d="M73053 78044
L72932 78410
L73248 78410
" />
</g>
<g style="fill:#000000; fill-opacity:0.0; 
stroke:#000000; stroke-width:39.3701; stroke-opacity:1; 
stroke-linecap:round; stroke-linejoin:round;">
</g>
<g style="fill:#000000; fill-opacity:0.0; 
stroke:#000000; stroke-width:59.0551; stroke-opacity:1; 
stroke-linecap:round; stroke-linejoin:round;">
<path d="M92885 78069
L92641 78069
L92617 78312
L92641 78288
L92690 78263
L92812 78263
L92860 78288
L92885 78312
L92909 78361
L92909 78483
L92885 78532
L92860 78556
L92812 78580
L92690 78580
L92641 78556
L92617 78532
" />
</g>
<g style="fill:#000000; fill-opacity:0.0; 
stroke:#000000; stroke-width:39.3701; stroke-opacity:1; 
stroke-linecap:round; stroke-linejoin:round;">
</g>
<g style="fill:#000000; fill-opacity:0.0; 
stroke:#000000; stroke-width:59.0551; stroke-opacity:1; 
stroke-linecap:round; stroke-linejoin:round;">
<path d="M112545 78069
L112448 78069
L112399 78093
L112375 78117
L112326 78190
L112302 78288
L112302 78483
L112326 78532
L112350 78556
L112399 78580
L112497 78580
L112545 78556
L112570 78532
L112594 78483
L112594 78361
L112570 78312
L112545 78288
L112497 78263
L112399 78263
L112350 78288
L112326 78312
L112302 78361
" />
</g>
<g style="fill:#000000; fill-opacity:0.0; 
stroke:#000000; stroke-width:39.3701; stroke-opacity:1; 
stroke-linecap:round; stroke-linejoin:round;">
</g>
<g style="fill:#000000; fill-opacity:0.0; 
stroke:#000000; stroke-width:59.0551; stroke-opacity:1; 
stroke-linecap:round; stroke-linejoin:round;">
<path d="M3937 23622
L4724 23622
" />
</g>
<g style="fill:#000000; fill-opacity:0.0; 
stroke:#000000; stroke-width:39.3701; stroke-opacity:1; 
stroke-linecap:round; stroke-linejoin:round;">
</g>
<g style="fill:#000000; fill-opacity:0.0; 
stroke:#000000; stroke-width:59.0551; stroke-opacity:1; 
stroke-linecap:round; stroke-linejoin:round;">
<path d="M3937 43307
L4724 43307
" />
</g>
<g style="fill:#000000; fill-opacity:0.0; 
stroke:#000000; stroke-width:39.3701; stroke-opacity:1; 
stroke-linecap:round; stroke-linejoin:round;">
</g>
<g style="fill:#000000; fill-opacity:0.0; 
stroke:#000000; stroke-width:59.0551; stroke-opacity:1; 
stroke-linecap:round; stroke-linejoin:round;">
<path d="M3937 62992
L4724 62992
" />
</g>
<g style="fill:#000000; fill-opacity:0.0; 
stroke:#000000; stroke-width:39.3701; stroke-opacity:1; 
stroke-linecap:round; stroke-linejoin:round;">
</g>
<g style="fill:#000000; fill-opacity:0.0; 
stroke:#000000; stroke-width:59.0551; stroke-opacity:1; 
stroke-linecap:round; stroke-linejoin:round;">
<path d="M4208 13864
L4452 13864
" />
<path d="M4160 14011
L4330 13499
L4501 14011
" />
</g>
<g style="fill:#000000; fill-opacity:0.0; 
stroke:#000000; stroke-width:39.3701; stroke-opacity:1; 
stroke-linecap:round; stroke-linejoin:round;">
</g>
<g style="fill:#000000; fill-opacity:0.0; 
stroke:#000000; stroke-width:59.0551; stroke-opacity:1; 
stroke-linecap:round; stroke-linejoin:round;">
<path d="M4367 33428
L4440 33452
L4464 33476
L4489 33525
L4489 33598
L4464 33647
L4440 33671
L4391 33696
L4196 33696
L4196 33184
L4367 33184
L4416 33208
L4440 33233
L4464 33281
L4464 33330
L4440 33379
L4416 33403
L4367 33428
L4196 33428
" />
</g>
<g style="fill:#000000; fill-opacity:0.0; 
stroke:#000000; stroke-width:39.3701; stroke-opacity:1; 
stroke-linecap:round; stroke-linejoin:round;">
</g>
<g style="fill:#000000; fill-opacity:0.0; 
stroke:#000000; stroke-width:59.0551; stroke-opacity:1; 
stroke-linecap:round; stroke-linejoin:round;">
<path d="M4489 53332
L4464 53356
L4391 53381
L4342 53381
L4269 53356
L4221 53308
L4196 53259
L4172 53161
L4172 53088
L4196 52991
L4221 52942
L4269 52893
L4342 52869
L4391 52869
L4464 52893
L4489 52918
" />
</g>
<g style="fill:#000000; fill-opacity:0.0; 
stroke:#000000; stroke-width:39.3701; stroke-opacity:1; 
stroke-linecap:round; stroke-linejoin:round;">
</g>
<g style="fill:#000000; fill-opacity:0.0; 
stroke:#000000; stroke-width:59.0551; stroke-opacity:1; 
stroke-linecap:round; stroke-linejoin:round;">
<path d="M4196 73066
L4196 72554
L4318 72554
L4391 72578
L4440 72627
L4464 72676
L4489 72773
L4489 72846
L4464 72944
L4440 72993
L4391 73041
L4318 73066
L4196 73066
" />
</g>
<g style="fill:#000000; fill-opacity:0.0; 
stroke:#000000; stroke-width:39.3701; stroke-opacity:1; 
stroke-linecap:round; stroke-linejoin:round;">
</g>
<g style="fill:#000000; fill-opacity:0.0; 
stroke:#000000; stroke-width:59.0551; stroke-opacity:1; 
stroke-linecap:round; stroke-linejoin:round;">
<path d="M112992 23622
L112205 23622
" />
</g>
<g style="fill:#000000; fill-opacity:0.0; 
stroke:#000000; stroke-width:39.3701; stroke-opacity:1; 
stroke-linecap:round; stroke-linejoin:round;">
</g>
<g style="fill:#000000; fill-opacity:0.0; 
stroke:#000000; stroke-width:59.0551; stroke-opacity:1; 
stroke-linecap:round; stroke-linejoin:round;">
<path d="M112992 43307
L112205 43307
" />
</g>
<g style="fill:#000000; fill-opacity:0.0; 
stroke:#000000; stroke-width:39.3701; stroke-opacity:1; 
stroke-linecap:round; stroke-linejoin:round;">
</g>
<g style="fill:#000000; fill-opacity:0.0; 
stroke:#000000; stroke-width:59.0551; stroke-opacity:1; 
stroke-linecap:round; stroke-linejoin:round;">
<path d="M112992 62992
L112205 62992
" />
</g>
<g style="fill:#000000; fill-opacity:0.0; 
stroke:#000000; stroke-width:39.3701; stroke-opacity:1; 
stroke-linecap:round; stroke-linejoin:round;">
</g>
<g style="fill:#000000; fill-opacity:0.0; 
stroke:#000000; stroke-width:59.0551; stroke-opacity:1; 
stroke-linecap:round; stroke-linejoin:round;">
<path d="M112477 13864
L112721 13864
" />
<path d="M112428 14011
L112599 13499
L112769 14011
" />
</g>
<g style="fill:#000000; fill-opacity:0.0; 
stroke:#000000; stroke-width:39.3701; stroke-opacity:1; 
stroke-linecap:round; stroke-linejoin:round;">
</g>
<g style="fill:#000000; fill-opacity:0.0; 
stroke:#000000; stroke-width:59.0551; stroke-opacity:1; 
stroke-linecap:round; stroke-linejoin:round;">
<path d="M112635 33428
L112708 33452
L112733 33476
L112757 33525
L112757 33598
L112733 33647
L112708 33671
L112660 33696
L112465 33696
L112465 33184
L112635 33184
L112684 33208
L112708 33233
L112733 33281
L112733 33330
L112708 33379
L112684 33403
L112635 33428
L112465 33428
" />
</g>
<g style="fill:#000000; fill-opacity:0.0; 
stroke:#000000; stroke-width:39.3701; stroke-opacity:1; 
stroke-linecap:round; stroke-linejoin:round;">
</g>
<g style="fill:#000000; fill-opacity:0.0; 
stroke:#000000; stroke-width:59.0551; stroke-opacity:1; 
stroke-linecap:round; stroke-linejoin:round;">
<path d="M112757 53332
L112733 53356
L112660 53381
L112611 53381
L112538 53356
L112489 53308
L112465 53259
L112440 53161
L112440 53088
L112465 52991
L112489 52942
L112538 52893
L112611 52869
L112660 52869
L112733 52893
L112757 52918
" />
</g>
<g style="fill:#000000; fill-opacity:0.0; 
stroke:#000000; stroke-width:39.3701; stroke-opacity:1; 
stroke-linecap:round; stroke-linejoin:round;">
</g>
<g style="fill:#000000; fill-opacity:0.0; 
stroke:#000000; stroke-width:59.0551; stroke-opacity:1; 
stroke-linecap:round; stroke-linejoin:round;">
<path d="M112465 73066
L112465 72554
L112587 72554
L112660 72578
L112708 72627
L112733 72676
L112757 72773
L112757 72846
L112733 72944
L112708 72993
L112660 73041
L112587 73066
L112465 73066
" />
</g>
<g style="fill:#000000; fill-opacity:0.0; 
stroke:#000000; stroke-width:39.3701; stroke-opacity:1; 
stroke-linecap:round; stroke-linejoin:round;">
</g>
<g style="fill:#000000; fill-opacity:0.0; 
stroke:#000000; stroke-width:59.0551; stroke-opacity:1; 
stroke-linecap:round; stroke-linejoin:round;">
<path d="M78881 76293
L78881 75703
L79022 75703
L79106 75731
L79162 75787
L79190 75843
L79219 75956
L79219 76040
L79190 76153
L79162 76209
L79106 76265
L79022 76293
L78881 76293
" />
<path d="M79725 76293
L79725 75984
L79697 75928
L79640 75899
L79528 75899
L79472 75928
" />
<path d="M79725 76265
L79669 76293
L79528 76293
L79472 76265
L79444 76209
L79444 76153
L79472 76096
L79528 76068
L79669 76068
L79725 76040
" />
<path d="M79922 75899
L80147 75899
" />
<path d="M80006 75703
L80006 76209
L80034 76265
L80090 76293
L80147 76293
" />
<path d="M80568 76265
L80512 76293
L80400 76293
L80343 76265
L80315 76209
L80315 75984
L80343 75928
L80400 75899
L80512 75899
L80568 75928
L80597 75984
L80597 76040
L80315 76096
" />
<path d="M80850 76237
L80878 76265
L80850 76293
L80822 76265
L80850 76237
L80850 76293
" />
<path d="M80850 75928
L80878 75956
L80850 75984
L80822 75956
L80850 75928
L80850 75984
" />
</g>
<g style="fill:#000000; fill-opacity:0.0; 
stroke:#000000; stroke-width:39.3701; stroke-opacity:1; 
stroke-linecap:round; stroke-linejoin:round;">
</g>
<g style="fill:#000000; fill-opacity:0.0; 
stroke:#000000; stroke-width:59.0551; stroke-opacity:1; 
stroke-linecap:round; stroke-linejoin:round;">
<path d="M69685 76577
L112205 76577
" />
</g>
<g style="fill:#000000; fill-opacity:0.0; 
stroke:#000000; stroke-width:39.3701; stroke-opacity:1; 
stroke-linecap:round; stroke-linejoin:round;">
</g>
<g style="fill:#000000; fill-opacity:0.0; 
stroke:#000000; stroke-width:59.0551; stroke-opacity:1; 
stroke-linecap:round; stroke-linejoin:round;">
<path d="M70220 77395
L70220 76805
" />
<path d="M70557 77395
L70304 77058
" />
<path d="M70557 76805
L70220 77142
" />
<path d="M70810 77395
L70810 77002
" />
<path d="M70810 76805
L70782 76833
L70810 76861
L70838 76833
L70810 76805
L70810 76861
" />
<path d="M71429 77339
L71401 77367
L71316 77395
L71260 77395
L71176 77367
L71120 77311
L71091 77255
L71063 77142
L71063 77058
L71091 76946
L71120 76889
L71176 76833
L71260 76805
L71316 76805
L71401 76833
L71429 76861
" />
<path d="M71935 77395
L71935 77086
L71907 77030
L71851 77002
L71738 77002
L71682 77030
" />
<path d="M71935 77367
L71879 77395
L71738 77395
L71682 77367
L71654 77311
L71654 77255
L71682 77199
L71738 77171
L71879 77171
L71935 77142
" />
<path d="M72469 77395
L72469 76805
" />
<path d="M72469 77367
L72413 77395
L72301 77395
L72244 77367
L72216 77339
L72188 77283
L72188 77114
L72216 77058
L72244 77030
L72301 77002
L72413 77002
L72469 77030
" />
<path d="M73201 77086
L73397 77086
" />
<path d="M73482 77395
L73201 77395
L73201 76805
L73482 76805
" />
<path d="M73735 77339
L73763 77367
L73735 77395
L73707 77367
L73735 77339
L73735 77395
" />
<path d="M74016 77395
L74016 76805
L74157 76805
L74241 76833
L74297 76889
L74325 76946
L74354 77058
L74354 77142
L74325 77255
L74297 77311
L74241 77367
L74157 77395
L74016 77395
" />
<path d="M74607 77339
L74635 77367
L74607 77395
L74579 77367
L74607 77339
L74607 77395
" />
<path d="M74860 77227
L75141 77227
" />
<path d="M74804 77395
L75000 76805
L75197 77395
" />
<path d="M75394 77339
L75422 77367
L75394 77395
L75366 77367
L75394 77339
L75394 77395
" />
<path d="M76575 77395
L76575 76805
" />
<path d="M76631 77171
L76800 77395
" />
<path d="M76800 77002
L76575 77227
" />
<path d="M77053 77395
L77053 77002
" />
<path d="M77053 76805
L77025 76833
L77053 76861
L77081 76833
L77053 76805
L77053 76861
" />
<path d="M77588 77367
L77531 77395
L77419 77395
L77363 77367
L77334 77339
L77306 77283
L77306 77114
L77334 77058
L77363 77030
L77419 77002
L77531 77002
L77588 77030
" />
<path d="M78094 77395
L78094 77086
L78066 77030
L78009 77002
L77897 77002
L77841 77030
" />
<path d="M78094 77367
L78037 77395
L77897 77395
L77841 77367
L77813 77311
L77813 77255
L77841 77199
L77897 77171
L78037 77171
L78094 77142
" />
<path d="M78628 77395
L78628 76805
" />
<path d="M78628 77367
L78572 77395
L78459 77395
L78403 77367
L78375 77339
L78347 77283
L78347 77114
L78375 77058
L78403 77030
L78459 77002
L78572 77002
L78628 77030
" />
<path d="M79528 77620
L79500 77592
L79444 77508
L79415 77452
L79387 77367
L79359 77227
L79359 77114
L79387 76974
L79415 76889
L79444 76833
L79500 76749
L79528 76721
" />
<path d="M79725 76861
L79753 76833
L79809 76805
L79950 76805
L80006 76833
L80034 76861
L80062 76917
L80062 76974
L80034 77058
L79697 77395
L80062 77395
" />
<path d="M80428 76805
L80484 76805
L80540 76833
L80568 76861
L80597 76917
L80625 77030
L80625 77171
L80597 77283
L80568 77339
L80540 77367
L80484 77395
L80428 77395
L80372 77367
L80343 77339
L80315 77283
L80287 77171
L80287 77030
L80315 76917
L80343 76861
L80372 76833
L80428 76805
" />
<path d="M81187 77395
L80850 77395
" />
<path d="M81018 77395
L81018 76805
L80962 76889
L80906 76946
L80850 76974
" />
<path d="M81693 77002
L81693 77395
" />
<path d="M81553 76777
L81412 77199
L81778 77199
" />
<path d="M82003 77171
L82453 77171
" />
<path d="M83043 77395
L82706 77395
" />
<path d="M82874 77395
L82874 76805
L82818 76889
L82762 76946
L82706 76974
" />
<path d="M83268 76861
L83296 76833
L83352 76805
L83493 76805
L83549 76833
L83577 76861
L83606 76917
L83606 76974
L83577 77058
L83240 77395
L83606 77395
" />
<path d="M83859 77171
L84309 77171
" />
<path d="M84702 76805
L84759 76805
L84815 76833
L84843 76861
L84871 76917
L84899 77030
L84899 77171
L84871 77283
L84843 77339
L84815 77367
L84759 77395
L84702 77395
L84646 77367
L84618 77339
L84590 77283
L84562 77171
L84562 77030
L84590 76917
L84618 76861
L84646 76833
L84702 76805
" />
<path d="M85096 76805
L85462 76805
L85265 77030
L85349 77030
L85405 77058
L85433 77086
L85462 77142
L85462 77283
L85433 77339
L85405 77367
L85349 77395
L85180 77395
L85124 77367
L85096 77339
" />
<path d="M86361 77086
L86446 77114
L86474 77142
L86502 77199
L86502 77283
L86474 77339
L86446 77367
L86390 77395
L86165 77395
L86165 76805
L86361 76805
L86418 76833
L86446 76861
L86474 76917
L86474 76974
L86446 77030
L86418 77058
L86361 77086
L86165 77086
" />
<path d="M86699 76805
L87093 76805
L86699 77395
L87093 77395
" />
<path d="M87655 77395
L87458 77114
" />
<path d="M87318 77395
L87318 76805
L87543 76805
L87599 76833
L87627 76861
L87655 76917
L87655 77002
L87627 77058
L87599 77086
L87543 77114
L87318 77114
" />
<path d="M88639 76805
L88358 76805
L88330 77086
L88358 77058
L88414 77030
L88555 77030
L88611 77058
L88639 77086
L88667 77142
L88667 77283
L88639 77339
L88611 77367
L88555 77395
L88414 77395
L88358 77367
L88330 77339
" />
<path d="M88864 76805
L89230 76805
L89033 77030
L89117 77030
L89174 77058
L89202 77086
L89230 77142
L89230 77283
L89202 77339
L89174 77367
L89117 77395
L88949 77395
L88892 77367
L88864 77339
" />
<path d="M89792 77395
L89455 77395
" />
<path d="M89624 77395
L89624 76805
L89567 76889
L89511 76946
L89455 76974
" />
<path d="M90355 77395
L90017 77395
" />
<path d="M90186 77395
L90186 76805
L90130 76889
L90073 76946
L90017 76974
" />
<path d="M90552 77620
L90580 77592
L90636 77508
L90664 77452
L90692 77367
L90720 77227
L90720 77114
L90692 76974
L90664 76889
L90636 76833
L90580 76749
L90552 76721
" />
<path d="M91001 77171
L91451 77171
" />
<path d="M91733 77002
L91733 77592
" />
<path d="M91733 77030
L91789 77002
L91901 77002
L91958 77030
L91986 77058
L92014 77114
L92014 77283
L91986 77339
L91958 77367
L91901 77395
L91789 77395
L91733 77367
" />
<path d="M92267 77395
L92267 77002
" />
<path d="M92267 77114
L92295 77058
L92323 77030
L92379 77002
L92436 77002
" />
<path d="M92717 77395
L92661 77367
L92633 77339
L92604 77283
L92604 77114
L92633 77058
L92661 77030
L92717 77002
L92801 77002
L92858 77030
L92886 77058
L92914 77114
L92914 77283
L92886 77339
L92858 77367
L92801 77395
L92717 77395
" />
<path d="M93420 77395
L93420 76805
" />
<path d="M93420 77367
L93364 77395
L93251 77395
L93195 77367
L93167 77339
L93139 77283
L93139 77114
L93167 77058
L93195 77030
L93251 77002
L93364 77002
L93420 77030
" />
<path d="M93954 77002
L93954 77395
" />
<path d="M93701 77002
L93701 77311
L93729 77367
L93786 77395
L93870 77395
L93926 77367
L93954 77339
" />
<path d="M94489 77367
L94432 77395
L94320 77395
L94264 77367
L94235 77339
L94207 77283
L94207 77114
L94235 77058
L94264 77030
L94320 77002
L94432 77002
L94489 77030
" />
<path d="M94657 77002
L94882 77002
" />
<path d="M94742 76805
L94742 77311
L94770 77367
L94826 77395
L94882 77395
" />
</g>
<g style="fill:#000000; fill-opacity:0.0; 
stroke:#000000; stroke-width:39.3701; stroke-opacity:1; 
stroke-linecap:round; stroke-linejoin:round;">
</g>
<g style="fill:#000000; fill-opacity:0.0; 
stroke:#000000; stroke-width:59.0551; stroke-opacity:1; 
stroke-linecap:round; stroke-linejoin:round;">
<path d="M69685 75396
L112205 75396
" />
</g>
<g style="fill:#000000; fill-opacity:0.0; 
stroke:#000000; stroke-width:39.3701; stroke-opacity:1; 
stroke-linecap:round; stroke-linejoin:round;">
</g>
<g style="fill:#000000; fill-opacity:0.0; 
stroke:#000000; stroke-width:118.11; stroke-opacity:1; 
stroke-linecap:round; stroke-linejoin:round;">
<path d="M104022 76293
L103825 76012
" />
<path d="M103684 76293
L103684 75703
L103909 75703
L103965 75731
L103994 75759
L104022 75815
L104022 75899
L103994 75956
L103965 75984
L103909 76012
L103684 76012
" />
<path d="M104500 76265
L104444 76293
L104331 76293
L104275 76265
L104247 76209
L104247 75984
L104275 75928
L104331 75899
L104444 75899
L104500 75928
L104528 75984
L104528 76040
L104247 76096
" />
<path d="M104725 75899
L104865 76293
L105006 75899
" />
<path d="M105231 76237
L105259 76265
L105231 76293
L105203 76265
L105231 76237
L105231 76293
" />
<path d="M105231 75928
L105259 75956
L105231 75984
L105203 75956
L105231 75928
L105231 75984
" />
</g>
<g style="fill:#000000; fill-opacity:0.0; 
stroke:#000000; stroke-width:39.3701; stroke-opacity:1; 
stroke-linecap:round; stroke-linejoin:round;">
</g>
<g style="fill:#000000; fill-opacity:0.0; 
stroke:#000000; stroke-width:59.0551; stroke-opacity:1; 
stroke-linecap:round; stroke-linejoin:round;">
<path d="M70192 76265
L70276 76293
L70417 76293
L70473 76265
L70501 76237
L70529 76181
L70529 76124
L70501 76068
L70473 76040
L70417 76012
L70304 75984
L70248 75956
L70220 75928
L70192 75871
L70192 75815
L70220 75759
L70248 75731
L70304 75703
L70445 75703
L70529 75731
" />
<path d="M70782 76293
L70782 75899
" />
<path d="M70782 75703
L70754 75731
L70782 75759
L70810 75731
L70782 75703
L70782 75759
" />
<path d="M71007 75899
L71316 75899
L71007 76293
L71316 76293
" />
<path d="M71766 76265
L71710 76293
L71598 76293
L71541 76265
L71513 76209
L71513 75984
L71541 75928
L71598 75899
L71710 75899
L71766 75928
L71795 75984
L71795 76040
L71513 76096
" />
<path d="M72048 76237
L72076 76265
L72048 76293
L72019 76265
L72048 76237
L72048 76293
" />
<path d="M72048 75928
L72076 75956
L72048 75984
L72019 75956
L72048 75928
L72048 75984
" />
<path d="M72751 76124
L73032 76124
" />
<path d="M72694 76293
L72891 75703
L73088 76293
" />
<path d="M73538 75899
L73538 76293
" />
<path d="M73397 75674
L73257 76096
L73622 76096
" />
</g>
<g style="fill:#000000; fill-opacity:0.0; 
stroke:#000000; stroke-width:39.3701; stroke-opacity:1; 
stroke-linecap:round; stroke-linejoin:round;">
</g>
<g style="fill:#000000; fill-opacity:0.0; 
stroke:#000000; stroke-width:59.0551; stroke-opacity:1; 
stroke-linecap:round; stroke-linejoin:round;">
<path d="M103684 77395
L103684 76805
" />
<path d="M104219 77395
L104219 76805
" />
<path d="M104219 77367
L104162 77395
L104050 77395
L103994 77367
L103965 77339
L103937 77283
L103937 77114
L103965 77058
L103994 77030
L104050 77002
L104162 77002
L104219 77030
" />
<path d="M104500 77339
L104528 77367
L104500 77395
L104472 77367
L104500 77339
L104500 77395
" />
<path d="M104500 77030
L104528 77058
L104500 77086
L104472 77058
L104500 77030
L104500 77086
" />
<path d="M105540 77395
L105203 77395
" />
<path d="M105372 77395
L105372 76805
L105315 76889
L105259 76946
L105203 76974
" />
<path d="M106215 76777
L105709 77536
" />
<path d="M106721 77395
L106384 77395
" />
<path d="M106553 77395
L106553 76805
L106496 76889
L106440 76946
L106384 76974
" />
</g>
<g style="fill:#000000; fill-opacity:0.0; 
stroke:#000000; stroke-width:39.3701; stroke-opacity:1; 
stroke-linecap:round; stroke-linejoin:round;">
</g>
<g style="fill:#000000; fill-opacity:0.0; 
stroke:#000000; stroke-width:59.0551; stroke-opacity:1; 
stroke-linecap:round; stroke-linejoin:round;">
<path d="M69685 73821
L112205 73821
" />
</g>
<g style="fill:#000000; fill-opacity:0.0; 
stroke:#000000; stroke-width:39.3701; stroke-opacity:1; 
stroke-linecap:round; stroke-linejoin:round;">
</g>
<g style="fill:#000000; fill-opacity:0.0; 
stroke:#000000; stroke-width:157.48; stroke-opacity:1; 
stroke-linecap:round; stroke-linejoin:round;">
<path d="M70257 74099
L70707 74099
" />
<path d="M70384 74886
L70482 74099
" />
<path d="M70871 74886
L70937 74361
" />
<path d="M70970 74099
L70927 74136
L70960 74174
L71002 74136
L70970 74099
L70960 74174
" />
<path d="M71199 74361
L71499 74361
" />
<path d="M71345 74099
L71260 74774
L71288 74849
L71359 74886
L71434 74886
" />
<path d="M71809 74886
L71738 74849
L71710 74774
L71795 74099
" />
<path d="M72413 74849
L72334 74886
L72184 74886
L72113 74849
L72085 74774
L72123 74474
L72169 74399
L72249 74361
L72399 74361
L72469 74399
L72498 74474
L72488 74549
L72104 74624
" />
<path d="M72793 74811
L72826 74849
L72783 74886
L72751 74849
L72793 74811
L72783 74886
" />
<path d="M72844 74399
L72877 74436
L72835 74474
L72802 74436
L72844 74399
L72835 74474
" />
</g>
<g style="fill:#000000; fill-opacity:0.0; 
stroke:#000000; stroke-width:39.3701; stroke-opacity:1; 
stroke-linecap:round; stroke-linejoin:round;">
</g>
<g style="fill:#000000; fill-opacity:0.0; 
stroke:#000000; stroke-width:59.0551; stroke-opacity:1; 
stroke-linecap:round; stroke-linejoin:round;">
<path d="M70417 73070
L70220 73070
" />
<path d="M70220 73380
L70220 72789
L70501 72789
" />
<path d="M70726 73380
L70726 72986
" />
<path d="M70726 72789
L70698 72817
L70726 72845
L70754 72817
L70726 72789
L70726 72845
" />
<path d="M71091 73380
L71035 73352
L71007 73295
L71007 72789
" />
<path d="M71541 73352
L71485 73380
L71373 73380
L71316 73352
L71288 73295
L71288 73070
L71316 73014
L71373 72986
L71485 72986
L71541 73014
L71570 73070
L71570 73127
L71288 73183
" />
<path d="M71823 73323
L71851 73352
L71823 73380
L71795 73352
L71823 73323
L71823 73380
" />
<path d="M71823 73014
L71851 73042
L71823 73070
L71795 73042
L71823 73014
L71823 73070
" />
<path d="M72554 73380
L72554 72986
" />
<path d="M72554 72789
L72526 72817
L72554 72845
L72582 72817
L72554 72789
L72554 72845
" />
<path d="M72807 72845
L72835 72817
L72891 72789
L73032 72789
L73088 72817
L73116 72845
L73144 72902
L73144 72958
L73116 73042
L72779 73380
L73144 73380
" />
<path d="M73651 73352
L73594 73380
L73482 73380
L73426 73352
L73397 73323
L73369 73267
L73369 73099
L73397 73042
L73426 73014
L73482 72986
L73594 72986
L73651 73014
" />
<path d="M73763 73436
L74213 73436
" />
<path d="M74354 73380
L74354 72789
" />
<path d="M74607 73380
L74607 73070
L74579 73014
L74522 72986
L74438 72986
L74382 73014
L74354 73042
" />
<path d="M75141 72986
L75141 73380
" />
<path d="M74888 72986
L74888 73295
L74916 73352
L74972 73380
L75057 73380
L75113 73352
L75141 73323
" />
<path d="M75422 73380
L75422 72789
" />
<path d="M75422 73014
L75478 72986
L75591 72986
L75647 73014
L75675 73042
L75703 73099
L75703 73267
L75675 73323
L75647 73352
L75591 73380
L75478 73380
L75422 73352
" />
<path d="M75956 73323
L75985 73352
L75956 73380
L75928 73352
L75956 73323
L75956 73380
" />
<path d="M76238 73380
L76238 72789
" />
<path d="M76294 73155
L76463 73380
" />
<path d="M76463 72986
L76238 73211
" />
<path d="M76716 73380
L76716 72986
" />
<path d="M76716 72789
L76688 72817
L76716 72845
L76744 72817
L76716 72789
L76716 72845
" />
<path d="M77250 73352
L77194 73380
L77081 73380
L77025 73352
L76997 73323
L76969 73267
L76969 73099
L76997 73042
L77025 73014
L77081 72986
L77194 72986
L77250 73014
" />
<path d="M77756 73380
L77756 73070
L77728 73014
L77672 72986
L77559 72986
L77503 73014
" />
<path d="M77756 73352
L77700 73380
L77559 73380
L77503 73352
L77475 73295
L77475 73239
L77503 73183
L77559 73155
L77700 73155
L77756 73127
" />
<path d="M78291 73380
L78291 72789
" />
<path d="M78291 73352
L78234 73380
L78122 73380
L78066 73352
L78037 73323
L78009 73267
L78009 73099
L78037 73042
L78066 73014
L78122 72986
L78234 72986
L78291 73014
" />
<path d="M78431 73436
L78881 73436
" />
<path d="M79022 72986
L79022 73577
" />
<path d="M79022 73014
L79078 72986
L79190 72986
L79247 73014
L79275 73042
L79303 73099
L79303 73267
L79275 73323
L79247 73352
L79190 73380
L79078 73380
L79022 73352
" />
<path d="M79809 73352
L79753 73380
L79640 73380
L79584 73352
L79556 73323
L79528 73267
L79528 73099
L79556 73042
L79584 73014
L79640 72986
L79753 72986
L79809 73014
" />
<path d="M80062 73380
L80062 72789
" />
<path d="M80062 73014
L80118 72986
L80231 72986
L80287 73014
L80315 73042
L80343 73099
L80343 73267
L80315 73323
L80287 73352
L80231 73380
L80118 73380
L80062 73352
" />
</g>
<g style="fill:#000000; fill-opacity:0.0; 
stroke:#000000; stroke-width:39.3701; stroke-opacity:1; 
stroke-linecap:round; stroke-linejoin:round;">
</g>
<g style="fill:#000000; fill-opacity:0.0; 
stroke:#000000; stroke-width:59.0551; stroke-opacity:1; 
stroke-linecap:round; stroke-linejoin:round;">
<path d="M69685 71459
L112205 71459
" />
</g>
<g style="fill:#000000; fill-opacity:0.0; 
stroke:#000000; stroke-width:39.3701; stroke-opacity:1; 
stroke-linecap:round; stroke-linejoin:round;">
</g>
<g style="fill:#000000; fill-opacity:0.0; 
stroke:#000000; stroke-width:59.0551; stroke-opacity:1; 
stroke-linecap:round; stroke-linejoin:round;">
<path d="M70192 72289
L70276 72317
L70417 72317
L70473 72289
L70501 72260
L70529 72204
L70529 72148
L70501 72092
L70473 72064
L70417 72036
L70304 72007
L70248 71979
L70220 71951
L70192 71895
L70192 71839
L70220 71782
L70248 71754
L70304 71726
L70445 71726
L70529 71754
" />
<path d="M70782 72317
L70782 71726
" />
<path d="M71035 72317
L71035 72007
L71007 71951
L70951 71923
L70867 71923
L70810 71951
L70782 71979
" />
<path d="M71541 72289
L71485 72317
L71373 72317
L71316 72289
L71288 72232
L71288 72007
L71316 71951
L71373 71923
L71485 71923
L71541 71951
L71570 72007
L71570 72064
L71288 72120
" />
<path d="M72048 72289
L71991 72317
L71879 72317
L71823 72289
L71795 72232
L71795 72007
L71823 71951
L71879 71923
L71991 71923
L72048 71951
L72076 72007
L72076 72064
L71795 72120
" />
<path d="M72244 71923
L72469 71923
" />
<path d="M72329 71726
L72329 72232
L72357 72289
L72413 72317
L72469 72317
" />
<path d="M72666 72260
L72694 72289
L72666 72317
L72638 72289
L72666 72260
L72666 72317
" />
<path d="M72666 71951
L72694 71979
L72666 72007
L72638 71979
L72666 71951
L72666 72007
" />
</g>
<g style="fill:#000000; fill-opacity:0.0; 
stroke:#000000; stroke-width:39.3701; stroke-opacity:1; 
stroke-linecap:round; stroke-linejoin:round;">
</g>
<g style="fill:#000000; fill-opacity:0.0; 
stroke:#000000; stroke-width:59.0551; stroke-opacity:1; 
stroke-linecap:round; stroke-linejoin:round;">
<path d="M77559 75396
L77559 76577
" />
</g>
<g style="fill:#000000; fill-opacity:0.0; 
stroke:#000000; stroke-width:39.3701; stroke-opacity:1; 
stroke-linecap:round; stroke-linejoin:round;">
</g>
<g style="fill:#000000; fill-opacity:0.0; 
stroke:#000000; stroke-width:59.0551; stroke-opacity:1; 
stroke-linecap:round; stroke-linejoin:round;">
<path d="M102756 75396
L102756 77955
" />
</g>
<g style="fill:#840000; fill-opacity:0.0; 
stroke:#840000; stroke-width:39.3701; stroke-opacity:1; 
stroke-linecap:round; stroke-linejoin:round;">
</g>
<g style="fill:#840000; fill-opacity:1.0; 
stroke:#840000; stroke-width:39.3701; stroke-opacity:1; 
stroke-linecap:round; stroke-linejoin:round;">
<polyline style="fill-rule:evenodd;"
points="29795,44661
29204,44661
29204,43913
29795,43913
29795,44661
" /> 
<polyline style="fill-rule:evenodd;"
points="29795,43086
29204,43086
29204,42338
29795,42338
29795,43086
" /> 
<polyline style="fill-rule:evenodd;"
points="52795,44661
52204,44661
52204,43913
52795,43913
52795,44661
" /> 
<polyline style="fill-rule:evenodd;"
points="52795,43086
52204,43086
52204,42338
52795,42338
52795,43086
" /> 
<polyline style="fill-rule:evenodd;"
points="24204,42338
24795,42338
24795,43086
24204,43086
24204,42338
" /> 
<polyline style="fill-rule:evenodd;"
points="24204,43913
24795,43913
24795,44661
24204,44661
24204,43913
" /> 
<polyline style="fill-rule:evenodd;"
points="57795,44661
57204,44661
57204,43913
57795,43913
57795,44661
" /> 
<polyline style="fill-rule:evenodd;"
points="57795,43086
57204,43086
57204,42338
57795,42338
57795,43086
" /> 
<circle cx="29338" cy="41500" r="698.815" /> 
<circle cx="24665" cy="41500" r="698.815" /> 
<polyline style="fill-rule:evenodd;"
points="24974,39275
24974,38724
25525,38724
25525,39275
24974,39275
" /> 
<circle cx="25750" cy="38000" r="275.815" /> 
<circle cx="26250" cy="39000" r="275.815" /> 
<circle cx="26750" cy="38000" r="275.815" /> 
<circle cx="27250" cy="39000" r="275.815" /> 
<circle cx="27750" cy="38000" r="275.815" /> 
<circle cx="28250" cy="39000" r="275.815" /> 
<circle cx="28750" cy="38000" r="275.815" /> 
<circle cx="36338" cy="41500" r="698.815" /> 
<circle cx="31665" cy="41500" r="698.815" /> 
<polyline style="fill-rule:evenodd;"
points="31974,39275
31974,38724
32525,38724
32525,39275
31974,39275
" /> 
<circle cx="32750" cy="38000" r="275.815" /> 
<circle cx="33250" cy="39000" r="275.815" /> 
<circle cx="33750" cy="38000" r="275.815" /> 
<circle cx="34250" cy="39000" r="275.815" /> 
<circle cx="34750" cy="38000" r="275.815" /> 
<circle cx="35250" cy="39000" r="275.815" /> 
<circle cx="35750" cy="38000" r="275.815" /> 
<circle cx="43338" cy="41500" r="698.815" /> 
<circle cx="38665" cy="41500" r="698.815" /> 
<polyline style="fill-rule:evenodd;"
points="38974,39275
38974,38724
39525,38724
39525,39275
38974,39275
" /> 
<circle cx="39750" cy="38000" r="275.815" /> 
<circle cx="40250" cy="39000" r="275.815" /> 
<circle cx="40750" cy="38000" r="275.815" /> 
<circle cx="41250" cy="39000" r="275.815" /> 
<circle cx="41750" cy="38000" r="275.815" /> 
<circle cx="42250" cy="39000" r="275.815" /> 
<circle cx="42750" cy="38000" r="275.815" /> 
<circle cx="50338" cy="41500" r="698.815" /> 
<circle cx="45665" cy="41500" r="698.815" /> 
<polyline style="fill-rule:evenodd;"
points="45974,39275
45974,38724
46525,38724
46525,39275
45974,39275
" /> 
<circle cx="46750" cy="38000" r="275.815" /> 
<circle cx="47250" cy="39000" r="275.815" /> 
<circle cx="47750" cy="38000" r="275.815" /> 
<circle cx="48250" cy="39000" r="275.815" /> 
<circle cx="48750" cy="38000" r="275.815" /> 
<circle cx="49250" cy="39000" r="275.815" /> 
<circle cx="49750" cy="38000" r="275.815" /> 
<circle cx="57338" cy="41500" r="698.815" /> 
<circle cx="52665" cy="41500" r="698.815" /> 
<polyline style="fill-rule:evenodd;"
points="52974,39275
52974,38724
53525,38724
53525,39275
52974,39275
" /> 
<circle cx="53750" cy="38000" r="275.815" /> 
<circle cx="54250" cy="39000" r="275.815" /> 
<circle cx="54750" cy="38000" r="275.815" /> 
<circle cx="55250" cy="39000" r="275.815" /> 
<circle cx="55750" cy="38000" r="275.815" /> 
<circle cx="56250" cy="39000" r="275.815" /> 
<circle cx="56750" cy="38000" r="275.815" /> 
<circle cx="59500" cy="43750" r="280.315" /> 
<circle cx="59500" cy="43000" r="280.315" /> 
<circle cx="61500" cy="42250" r="280.315" /> 
<polyline style="fill-rule:evenodd;"
points="59880,41320
59119,41320
59119,40679
59880,40679
59880,41320
" /> 
</g>
<g style="fill:#840000; fill-opacity:1.0; 
stroke:#840000; stroke-width:680; stroke-opacity:1; 
stroke-linecap:round; stroke-linejoin:round;">
</g>
<g style="fill:#840000; fill-opacity:0.0; 
stroke:#840000; stroke-width:680; stroke-opacity:1; 
stroke-linecap:round; stroke-linejoin:round;">
<path d="M59440 40000
L59560 40000
" />
<path d="M59440 39000
L59560 39000
" />
<path d="M59440 38000
L59560 38000
" />
</g>
<g style="fill:#840000; fill-opacity:0.0; 
stroke:#840000; stroke-width:39.3701; stroke-opacity:1; 
stroke-linecap:round; stroke-linejoin:round;">
</g>
<g style="fill:#840000; fill-opacity:1.0; 
stroke:#840000; stroke-width:39.3701; stroke-opacity:1; 
stroke-linecap:round; stroke-linejoin:round;">
<circle cx="52500" cy="40000" r="280.315" /> 
<circle cx="61500" cy="43000" r="280.315" /> 
<circle cx="63500" cy="42250" r="280.315" /> 
<polyline style="fill-rule:evenodd;"
points="61880,41320
61119,41320
61119,40679
61880,40679
61880,41320
" /> 
</g>
<g style="fill:#840000; fill-opacity:1.0; 
stroke:#840000; stroke-width:680; stroke-opacity:1; 
stroke-linecap:round; stroke-linejoin:round;">
</g>
<g style="fill:#840000; fill-opacity:0.0; 
stroke:#840000; stroke-width:680; stroke-opacity:1; 
stroke-linecap:round; stroke-linejoin:round;">
<path d="M61440 40000
L61560 40000
" />
<path d="M61440 39000
L61560 39000
" />
<path d="M61440 38000
L61560 38000
" />
</g>
<g style="fill:#840000; fill-opacity:0.0; 
stroke:#840000; stroke-width:39.3701; stroke-opacity:1; 
stroke-linecap:round; stroke-linejoin:round;">
</g>
<g style="fill:#840000; fill-opacity:1.0; 
stroke:#840000; stroke-width:39.3701; stroke-opacity:1; 
stroke-linecap:round; stroke-linejoin:round;">
<circle cx="45500" cy="40000" r="280.315" /> 
<circle cx="63500" cy="43000" r="280.315" /> 
<circle cx="65500" cy="42250" r="280.315" /> 
<polyline style="fill-rule:evenodd;"
points="63880,41320
63119,41320
63119,40679
63880,40679
63880,41320
" /> 
</g>
<g style="fill:#840000; fill-opacity:1.0; 
stroke:#840000; stroke-width:680; stroke-opacity:1; 
stroke-linecap:round; stroke-linejoin:round;">
</g>
<g style="fill:#840000; fill-opacity:0.0; 
stroke:#840000; stroke-width:680; stroke-opacity:1; 
stroke-linecap:round; stroke-linejoin:round;">
<path d="M63440 40000
L63560 40000
" />
<path d="M63440 39000
L63560 39000
" />
<path d="M63440 38000
L63560 38000
" />
</g>
<g style="fill:#840000; fill-opacity:0.0; 
stroke:#840000; stroke-width:39.3701; stroke-opacity:1; 
stroke-linecap:round; stroke-linejoin:round;">
</g>
<g style="fill:#840000; fill-opacity:1.0; 
stroke:#840000; stroke-width:39.3701; stroke-opacity:1; 
stroke-linecap:round; stroke-linejoin:round;">
<circle cx="38500" cy="40000" r="280.315" /> 
<circle cx="65500" cy="43000" r="280.315" /> 
<circle cx="67500" cy="42250" r="280.315" /> 
<polyline style="fill-rule:evenodd;"
points="65880,41320
65119,41320
65119,40679
65880,40679
65880,41320
" /> 
</g>
<g style="fill:#840000; fill-opacity:1.0; 
stroke:#840000; stroke-width:680; stroke-opacity:1; 
stroke-linecap:round; stroke-linejoin:round;">
</g>
<g style="fill:#840000; fill-opacity:0.0; 
stroke:#840000; stroke-width:680; stroke-opacity:1; 
stroke-linecap:round; stroke-linejoin:round;">
<path d="M65440 40000
L65560 40000
" />
<path d="M65440 39000
L65560 39000
" />
<path d="M65440 38000
L65560 38000
" />
</g>
<g style="fill:#840000; fill-opacity:0.0; 
stroke:#840000; stroke-width:39.3701; stroke-opacity:1; 
stroke-linecap:round; stroke-linejoin:round;">
</g>
<g style="fill:#840000; fill-opacity:1.0; 
stroke:#840000; stroke-width:39.3701; stroke-opacity:1; 
stroke-linecap:round; stroke-linejoin:round;">
<circle cx="31500" cy="40000" r="280.315" /> 
<circle cx="67500" cy="43000" r="280.315" /> 
<circle cx="20500" cy="42250" r="280.315" /> 
<polyline style="fill-rule:evenodd;"
points="67880,41320
67119,41320
67119,40679
67880,40679
67880,41320
" /> 
</g>
<g style="fill:#840000; fill-opacity:1.0; 
stroke:#840000; stroke-width:680; stroke-opacity:1; 
stroke-linecap:round; stroke-linejoin:round;">
</g>
<g style="fill:#840000; fill-opacity:0.0; 
stroke:#840000; stroke-width:680; stroke-opacity:1; 
stroke-linecap:round; stroke-linejoin:round;">
<path d="M67440 40000
L67560 40000
" />
<path d="M67440 39000
L67560 39000
" />
<path d="M67440 38000
L67560 38000
" />
</g>
<g style="fill:#840000; fill-opacity:0.0; 
stroke:#840000; stroke-width:39.3701; stroke-opacity:1; 
stroke-linecap:round; stroke-linejoin:round;">
</g>
<g style="fill:#840000; fill-opacity:1.0; 
stroke:#840000; stroke-width:39.3701; stroke-opacity:1; 
stroke-linecap:round; stroke-linejoin:round;">
<circle cx="24500" cy="40000" r="280.315" /> 
<circle cx="25250" cy="40000" r="280.315" /> 
<circle cx="54000" cy="40000" r="280.315" /> 
<circle cx="67500" cy="43750" r="280.315" /> 
<circle cx="32250" cy="40000" r="280.315" /> 
<circle cx="47000" cy="40000" r="280.315" /> 
<circle cx="65500" cy="43750" r="280.315" /> 
<circle cx="39250" cy="40000" r="280.315" /> 
<circle cx="33000" cy="40000" r="280.315" /> 
<circle cx="61500" cy="43750" r="280.315" /> 
<circle cx="46250" cy="40000" r="280.315" /> 
<circle cx="22500" cy="42250" r="280.315" /> 
<circle cx="63500" cy="43750" r="280.315" /> 
<circle cx="53250" cy="40000" r="280.315" /> 
<circle cx="40000" cy="40000" r="280.315" /> 
<circle cx="20500" cy="43750" r="280.315" /> 
<circle cx="22500" cy="43000" r="280.315" /> 
<circle cx="26000" cy="40000" r="280.315" /> 
<polyline style="fill-rule:evenodd;"
points="22880,41320
22119,41320
22119,40679
22880,40679
22880,41320
" /> 
</g>
<g style="fill:#840000; fill-opacity:1.0; 
stroke:#840000; stroke-width:680; stroke-opacity:1; 
stroke-linecap:round; stroke-linejoin:round;">
</g>
<g style="fill:#840000; fill-opacity:0.0; 
stroke:#840000; stroke-width:680; stroke-opacity:1; 
stroke-linecap:round; stroke-linejoin:round;">
<path d="M22440 40000
L22560 40000
" />
<path d="M22440 39000
L22560 39000
" />
<path d="M22440 38000
L22560 38000
" />
</g>
<g style="fill:#840000; fill-opacity:0.0; 
stroke:#840000; stroke-width:39.3701; stroke-opacity:1; 
stroke-linecap:round; stroke-linejoin:round;">
</g>
<g style="fill:#840000; fill-opacity:1.0; 
stroke:#840000; stroke-width:39.3701; stroke-opacity:1; 
stroke-linecap:round; stroke-linejoin:round;">
<circle cx="16500" cy="43750" r="280.315" /> 
<circle cx="20500" cy="43000" r="280.315" /> 
<circle cx="59500" cy="42250" r="280.315" /> 
<polyline style="fill-rule:evenodd;"
points="20880,41320
20119,41320
20119,40679
20880,40679
20880,41320
" /> 
</g>
<g style="fill:#840000; fill-opacity:1.0; 
stroke:#840000; stroke-width:680; stroke-opacity:1; 
stroke-linecap:round; stroke-linejoin:round;">
</g>
<g style="fill:#840000; fill-opacity:0.0; 
stroke:#840000; stroke-width:680; stroke-opacity:1; 
stroke-linecap:round; stroke-linejoin:round;">
<path d="M20440 40000
L20560 40000
" />
<path d="M20440 39000
L20560 39000
" />
<path d="M20440 38000
L20560 38000
" />
</g>
<g style="fill:#840000; fill-opacity:0.0; 
stroke:#840000; stroke-width:39.3701; stroke-opacity:1; 
stroke-linecap:round; stroke-linejoin:round;">
</g>
<g style="fill:#840000; fill-opacity:1.0; 
stroke:#840000; stroke-width:39.3701; stroke-opacity:1; 
stroke-linecap:round; stroke-linejoin:round;">
<circle cx="22500" cy="43750" r="280.315" /> 
<circle cx="18500" cy="43000" r="280.315" /> 
<circle cx="18500" cy="42250" r="280.315" /> 
<polyline style="fill-rule:evenodd;"
points="18880,41320
18119,41320
18119,40679
18880,40679
18880,41320
" /> 
</g>
<g style="fill:#840000; fill-opacity:1.0; 
stroke:#840000; stroke-width:680; stroke-opacity:1; 
stroke-linecap:round; stroke-linejoin:round;">
</g>
<g style="fill:#840000; fill-opacity:0.0; 
stroke:#840000; stroke-width:680; stroke-opacity:1; 
stroke-linecap:round; stroke-linejoin:round;">
<path d="M18440 40000
L18560 40000
" />
<path d="M18440 39000
L18560 39000
" />
<path d="M18440 38000
L18560 38000
" />
</g>
<g style="fill:#840000; fill-opacity:0.0; 
stroke:#840000; stroke-width:39.3701; stroke-opacity:1; 
stroke-linecap:round; stroke-linejoin:round;">
</g>
<g style="fill:#840000; fill-opacity:1.0; 
stroke:#840000; stroke-width:39.3701; stroke-opacity:1; 
stroke-linecap:round; stroke-linejoin:round;">
<circle cx="18500" cy="43750" r="280.315" /> 
<circle cx="16500" cy="43000" r="280.315" /> 
<circle cx="16500" cy="42250" r="280.315" /> 
<polyline style="fill-rule:evenodd;"
points="16880,41320
16119,41320
16119,40679
16880,40679
16880,41320
" /> 
</g>
<g style="fill:#840000; fill-opacity:1.0; 
stroke:#840000; stroke-width:680; stroke-opacity:1; 
stroke-linecap:round; stroke-linejoin:round;">
</g>
<g style="fill:#840000; fill-opacity:0.0; 
stroke:#840000; stroke-width:680; stroke-opacity:1; 
stroke-linecap:round; stroke-linejoin:round;">
<path d="M16440 40000
L16560 40000
" />
<path d="M16440 39000
L16560 39000
" />
<path d="M16440 38000
L16560 38000
" />
</g>
<g style="fill:#840000; fill-opacity:0.0; 
stroke:#840000; stroke-width:39.3701; stroke-opacity:1; 
stroke-linecap:round; stroke-linejoin:round;">
</g>
<g style="fill:#840000; fill-opacity:1.0; 
stroke:#840000; stroke-width:39.3701; stroke-opacity:1; 
stroke-linecap:round; stroke-linejoin:round;">
<circle cx="14500" cy="43750" r="280.315" /> 
<circle cx="14500" cy="43000" r="280.315" /> 
<circle cx="14500" cy="42250" r="280.315" /> 
<polyline style="fill-rule:evenodd;"
points="14880,41320
14119,41320
14119,40679
14880,40679
14880,41320
" /> 
</g>
<g style="fill:#840000; fill-opacity:1.0; 
stroke:#840000; stroke-width:680; stroke-opacity:1; 
stroke-linecap:round; stroke-linejoin:round;">
</g>
<g style="fill:#840000; fill-opacity:0.0; 
stroke:#840000; stroke-width:680; stroke-opacity:1; 
stroke-linecap:round; stroke-linejoin:round;">
<path d="M14440 40000
L14560 40000
" />
<path d="M14440 39000
L14560 39000
" />
<path d="M14440 38000
L14560 38000
" />
</g>
<g style="fill:#840000; fill-opacity:0.0; 
stroke:#840000; stroke-width:39.3701; stroke-opacity:1; 
stroke-linecap:round; stroke-linejoin:round;">
</g>
<g style="fill:#840000; fill-opacity:1.0; 
stroke:#840000; stroke-width:39.3701; stroke-opacity:1; 
stroke-linecap:round; stroke-linejoin:round;">
<polyline style="fill-rule:evenodd;"
points="54299,41580
54299,40819
55700,40819
55700,41580
54299,41580
" /> 
<polyline style="fill-rule:evenodd;"
points="54819,44180
54819,43419
55180,43419
55180,44180
54819,44180
" /> 
<polyline style="fill-rule:evenodd;"
points="55719,44180
55719,43419
56080,43419
56080,44180
55719,44180
" /> 
<polyline style="fill-rule:evenodd;"
points="53919,44180
53919,43419
54280,43419
54280,44180
53919,44180
" /> 
<polyline style="fill-rule:evenodd;"
points="26299,41580
26299,40819
27700,40819
27700,41580
26299,41580
" /> 
<polyline style="fill-rule:evenodd;"
points="26819,44180
26819,43419
27180,43419
27180,44180
26819,44180
" /> 
<polyline style="fill-rule:evenodd;"
points="27719,44180
27719,43419
28080,43419
28080,44180
27719,44180
" /> 
<polyline style="fill-rule:evenodd;"
points="25919,44180
25919,43419
26280,43419
26280,44180
25919,44180
" /> 
</g>
<g style="fill:#C1C1C1; fill-opacity:1.0; 
stroke:#C1C1C1; stroke-width:39.3701; stroke-opacity:1; 
stroke-linecap:round; stroke-linejoin:round;">
<circle cx="41000.5" cy="44831.3" r="155.315" /> 
<circle cx="44399" cy="39947.9" r="155.315" /> 
<circle cx="37916.6" cy="40112.9" r="155.315" /> 
<circle cx="22007.8" cy="42596.4" r="155.315" /> 
<circle cx="19777.4" cy="42960.9" r="155.315" /> 
<circle cx="17911.6" cy="42425" r="155.315" /> 
<circle cx="17145.7" cy="42484.1" r="155.315" /> 
</g>
<g style="fill:#840000; fill-opacity:1.0; 
stroke:#840000; stroke-width:100; stroke-opacity:1; 
stroke-linecap:round; stroke-linejoin:round;">
</g>
<g style="fill:#840000; fill-opacity:0.0; 
stroke:#840000; stroke-width:100; stroke-opacity:1; 
stroke-linecap:round; stroke-linejoin:round;">
<path d="M16500 43750
L18500 43750
" />
<path d="M18500 43750
L20500 43750
" />
<path d="M63500 43750
L65500 43750
" />
<path d="M65500 43750
L67500 43750
" />
<path d="M57500 44287
L57732 44287
" />
<path d="M57732 44287
L57965 44287
" />
<path d="M29500 44287
L29034 44287
" />
<path d="M20500 43750
L22500 43750
" />
<path d="M28491 44831
L29034 44287
" />
<path d="M23581 44831
L28491 44831
" />
<path d="M22500 43750
L23581 44831
" />
<path d="M57188 44831
L41000 44831
" />
<path d="M57732 44287
L57188 44831
" />
<path d="M30508 44831
L29965 44287
" />
<path d="M41000 44831
L30508 44831
" />
<path d="M29500 44287
L29965 44287
" />
<path d="M58502 43750
L59500 43750
" />
<path d="M57965 44287
L58502 43750
" />
<path d="M14500 43750
L14627 43750
" />
<path d="M14627 43750
L16500 43750
" />
<path d="M51049 40000
L52500 40000
" />
<path d="M49595 38545
L51049 40000
" />
<path d="M45893 38545
L49595 38545
" />
<path d="M45447 38991
L45893 38545
" />
<path d="M45447 39947
L45447 38991
" />
<path d="M45447 39947
L45500 40000
" />
<path d="M23990 40509
L24500 40000
" />
<path d="M14012 40509
L23990 40509
" />
<path d="M13844 40678
L14012 40509
" />
<path d="M13844 42980
L13844 40678
" />
<path d="M14613 43750
L13844 42980
" />
<path d="M14627 43750
L14613 43750
" />
<path d="M45447 39947
L44399 39947
" />
<path d="M38387 40112
L37916 40112
" />
<path d="M38500 40000
L38387 40112
" />
<path d="M24500 38943
L24500 40000
" />
<path d="M24908 38534
L24500 38943
" />
<path d="M26425 38534
L24908 38534
" />
<path d="M26750 38858
L26425 38534
" />
<path d="M26750 39154
L26750 38858
" />
<path d="M27595 40000
L26750 39154
" />
<path d="M31500 40000
L27595 40000
" />
<path d="M59500 43750
L61500 43750
" />
<path d="M61500 43750
L63500 43750
" />
<path d="M57500 42712
L52500 42712
" />
<path d="M24500 44287
L24965 44287
" />
<path d="M52500 42712
L29500 42712
" />
<path d="M25027 44350
L24965 44287
" />
<path d="M28406 44350
L25027 44350
" />
<path d="M29500 43256
L28406 44350
" />
<path d="M29500 42712
L29500 43256
" />
<path d="M53027 44350
L52965 44287
" />
<path d="M54100 44350
L53027 44350
" />
<path d="M54100 43800
L54100 44350
" />
<path d="M52500 44287
L52965 44287
" />
<path d="M14500 42250
L16500 42250
" />
<path d="M18500 42250
L20500 42250
" />
<path d="M20500 42250
L22500 42250
" />
<path d="M54100 43800
L54100 43249
" />
<path d="M16650 42099
L16500 42250
" />
<path d="M18349 42099
L16650 42099
" />
<path d="M18500 42250
L18349 42099
" />
<path d="M46549 40450
L47000 40000
" />
<path d="M40450 40450
L46549 40450
" />
<path d="M40000 40000
L40450 40450
" />
<path d="M23572 42250
L22500 42250
" />
<path d="M24034 42712
L23572 42250
" />
<path d="M24500 42712
L24034 42712
" />
<path d="M64069 41680
L63500 42250
" />
<path d="M64930 41680
L64069 41680
" />
<path d="M64930 41680
L65500 42250
" />
<path d="M26100 43800
L26100 43249
" />
<path d="M24500 42712
L24965 42712
" />
<path d="M33450 40450
L33000 40000
" />
<path d="M39549 40450
L33450 40450
" />
<path d="M40000 40000
L39549 40450
" />
<path d="M25502 43249
L24965 42712
" />
<path d="M26100 43249
L25502 43249
" />
<path d="M26068 40790
L26429 40429
" />
<path d="M26068 41608
L26068 40790
" />
<path d="M24965 42712
L26068 41608
" />
<path d="M26453 40453
L26429 40429
" />
<path d="M32546 40453
L26453 40453
" />
<path d="M33000 40000
L32546 40453
" />
<path d="M26429 40429
L26000 40000
" />
<path d="M53545 40454
L54000 40000
" />
<path d="M47454 40454
L53545 40454
" />
<path d="M47000 40000
L47454 40454
" />
<path d="M59193 42250
L59040 42097
" />
<path d="M59500 42250
L59193 42250
" />
<path d="M56666 43249
L54100 43249
" />
<path d="M56694 43277
L56666 43249
" />
<path d="M57861 43277
L56694 43277
" />
<path d="M59040 42097
L57861 43277
" />
<path d="M58927 41984
L59040 42097
" />
<path d="M58927 40500
L58927 41984
" />
<path d="M58427 40000
L58927 40500
" />
<path d="M54000 40000
L58427 40000
" />
<path d="M64930 41680
L64930 40509
" />
<path d="M66740 41490
L67500 42250
" />
<path d="M66740 41490
L66740 41490
" />
<path d="M66740 41283
L66740 41490
" />
<path d="M65966 40509
L66740 41283
" />
<path d="M64930 40509
L65966 40509
" />
<path d="M64930 40509
L64930 40509
" />
<path d="M62181 40509
L62072 40619
" />
<path d="M64930 40509
L62181 40509
" />
<path d="M64930 40509
L64930 40509
" />
<path d="M61952 40500
L62072 40619
" />
<path d="M58927 40500
L61952 40500
" />
<path d="M62072 41677
L61500 42250
" />
<path d="M62072 40619
L62072 41677
" />
<path d="M25250 40000
L25250 39000
" />
<path d="M14500 40000
L16500 40000
" />
<path d="M16500 40000
L18500 40000
" />
<path d="M18500 40000
L20500 40000
" />
<path d="M20500 40000
L22500 40000
" />
<path d="M67500 40000
L65500 40000
" />
<path d="M65500 40000
L63500 40000
" />
<path d="M63500 40000
L61500 40000
" />
<path d="M47304 37554
L47750 38000
" />
<path d="M41195 37554
L47304 37554
" />
<path d="M40750 38000
L41195 37554
" />
<path d="M48195 37554
L47750 38000
" />
<path d="M54304 37554
L48195 37554
" />
<path d="M54750 38000
L54304 37554
" />
<path d="M61500 40000
L59500 40000
" />
<path d="M55046 39796
L54250 39000
" />
<path d="M58746 39796
L55046 39796
" />
<path d="M58949 40000
L58746 39796
" />
<path d="M59500 40000
L58949 40000
" />
<path d="M40304 37554
L40750 38000
" />
<path d="M34195 37554
L40304 37554
" />
<path d="M33750 38000
L34195 37554
" />
<path d="M14500 39000
L16500 39000
" />
<path d="M16500 39000
L18500 39000
" />
<path d="M67500 39000
L65500 39000
" />
<path d="M65500 39000
L63500 39000
" />
<path d="M63500 39000
L61500 39000
" />
<path d="M61500 39000
L59500 39000
" />
<path d="M18500 39000
L20500 39000
" />
<path d="M14500 38000
L16500 38000
" />
<path d="M16500 38000
L18500 38000
" />
<path d="M18500 38000
L20500 38000
" />
<path d="M67500 38000
L65500 38000
" />
<path d="M65500 38000
L63500 38000
" />
<path d="M63500 38000
L61500 38000
" />
<path d="M61500 38000
L59500 38000
" />
<path d="M56250 38445
L56250 39000
" />
<path d="M50195 38445
L49750 38000
" />
<path d="M56250 38445
L50195 38445
" />
<path d="M59500 38000
L58949 38000
" />
<path d="M56304 38445
L56750 38000
" />
<path d="M56250 38445
L56304 38445
" />
<path d="M56750 38000
L58949 38000
" />
<path d="M28250 39000
L28750 38500
" />
<path d="M28750 38500
L28750 38000
" />
<path d="M34750 38500
L35250 39000
" />
<path d="M28750 38500
L34750 38500
" />
<path d="M35803 38053
L35803 38445
" />
<path d="M35750 38000
L35803 38053
" />
<path d="M35803 38446
L35250 39000
" />
<path d="M35803 38445
L35803 38446
" />
<path d="M42250 38445
L42250 39000
" />
<path d="M35803 38445
L42250 38445
" />
<path d="M42304 38445
L42750 38000
" />
<path d="M42250 38445
L42304 38445
" />
<path d="M20500 38000
L22500 38000
" />
<path d="M28095 39000
L28250 39000
" />
<path d="M27250 38154
L28095 39000
" />
<path d="M27250 37841
L27250 38154
" />
<path d="M26960 37551
L27250 37841
" />
<path d="M22948 37551
L26960 37551
" />
<path d="M22500 38000
L22948 37551
" />
<path d="M32250 40000
L32250 39000
" />
<path d="M39250 40000
L39250 39000
" />
<path d="M46250 40000
L46250 39000
" />
<path d="M53250 40000
L53250 39000
" />
<path d="M59954 42545
L59500 43000
" />
<path d="M59954 41944
L59954 42545
" />
<path d="M59500 41490
L59954 41944
" />
<path d="M59500 41000
L59500 41490
" />
<path d="M61043 42543
L61500 43000
" />
<path d="M61043 41946
L61043 42543
" />
<path d="M61500 41490
L61043 41946
" />
<path d="M61500 41000
L61500 41490
" />
<path d="M63046 42546
L63500 43000
" />
<path d="M63046 41943
L63046 42546
" />
<path d="M63500 41490
L63046 41943
" />
<path d="M63500 41000
L63500 41490
" />
<path d="M65953 42546
L65500 43000
" />
<path d="M65953 41943
L65953 42546
" />
<path d="M65500 41490
L65953 41943
" />
<path d="M65500 41000
L65500 41490
" />
<path d="M67950 42549
L67500 43000
" />
<path d="M67950 41940
L67950 42549
" />
<path d="M67500 41490
L67950 41940
" />
<path d="M67500 41000
L67500 41490
" />
<path d="M22007 42596
L22007 42596
" />
<path d="M22096 42596
L22007 42596
" />
<path d="M22500 43000
L22096 42596
" />
<path d="M20460 42960
L20500 43000
" />
<path d="M19777 42960
L20460 42960
" />
<path d="M18486 43000
L18500 43000
" />
<path d="M17911 42425
L18486 43000
" />
<path d="M16629 43000
L16500 43000
" />
<path d="M17145 42484
L16629 43000
" />
<path d="M14049 42549
L14500 43000
" />
<path d="M14049 41940
L14049 42549
" />
<path d="M14500 41490
L14049 41940
" />
<path d="M14500 41000
L14500 41490
" />
</g>
<g style="fill:#FFFFFF; fill-opacity:0.0; 
stroke:#FFFFFF; stroke-width:39.3701; stroke-opacity:1; 
stroke-linecap:round; stroke-linejoin:round;">
</g>
<g style="fill:#FFFFFF; fill-opacity:1.0; 
stroke:#FFFFFF; stroke-width:39.3701; stroke-opacity:1; 
stroke-linecap:round; stroke-linejoin:round;">
<circle cx="41000.5" cy="44831.3" r="105.315" /> 
<circle cx="44399" cy="39947.9" r="105.315" /> 
<circle cx="37916.6" cy="40112.9" r="105.315" /> 
<circle cx="22007.8" cy="42596.4" r="105.315" /> 
<circle cx="19777.4" cy="42960.9" r="105.315" /> 
<circle cx="17911.6" cy="42425" r="105.315" /> 
<circle cx="17145.7" cy="42484.1" r="105.315" /> 
<circle cx="29338" cy="41500" r="620.315" /> 
<circle cx="24665" cy="41500" r="620.315" /> 
<circle cx="25250" cy="39000" r="157.315" /> 
<circle cx="25750" cy="38000" r="157.315" /> 
<circle cx="26250" cy="39000" r="157.315" /> 
<circle cx="26750" cy="38000" r="157.315" /> 
<circle cx="27250" cy="39000" r="157.315" /> 
<circle cx="27750" cy="38000" r="157.315" /> 
<circle cx="28250" cy="39000" r="157.315" /> 
<circle cx="28750" cy="38000" r="157.315" /> 
<circle cx="36338" cy="41500" r="620.315" /> 
<circle cx="31665" cy="41500" r="620.315" /> 
<circle cx="32250" cy="39000" r="157.315" /> 
<circle cx="32750" cy="38000" r="157.315" /> 
<circle cx="33250" cy="39000" r="157.315" /> 
<circle cx="33750" cy="38000" r="157.315" /> 
<circle cx="34250" cy="39000" r="157.315" /> 
<circle cx="34750" cy="38000" r="157.315" /> 
<circle cx="35250" cy="39000" r="157.315" /> 
<circle cx="35750" cy="38000" r="157.315" /> 
<circle cx="43338" cy="41500" r="620.315" /> 
<circle cx="38665" cy="41500" r="620.315" /> 
<circle cx="39250" cy="39000" r="157.315" /> 
<circle cx="39750" cy="38000" r="157.315" /> 
<circle cx="40250" cy="39000" r="157.315" /> 
<circle cx="40750" cy="38000" r="157.315" /> 
<circle cx="41250" cy="39000" r="157.315" /> 
<circle cx="41750" cy="38000" r="157.315" /> 
<circle cx="42250" cy="39000" r="157.315" /> 
<circle cx="42750" cy="38000" r="157.315" /> 
<circle cx="50338" cy="41500" r="620.315" /> 
<circle cx="45665" cy="41500" r="620.315" /> 
<circle cx="46250" cy="39000" r="157.315" /> 
<circle cx="46750" cy="38000" r="157.315" /> 
<circle cx="47250" cy="39000" r="157.315" /> 
<circle cx="47750" cy="38000" r="157.315" /> 
<circle cx="48250" cy="39000" r="157.315" /> 
<circle cx="48750" cy="38000" r="157.315" /> 
<circle cx="49250" cy="39000" r="157.315" /> 
<circle cx="49750" cy="38000" r="157.315" /> 
<circle cx="57338" cy="41500" r="620.315" /> 
<circle cx="52665" cy="41500" r="620.315" /> 
<circle cx="53250" cy="39000" r="157.315" /> 
<circle cx="53750" cy="38000" r="157.315" /> 
<circle cx="54250" cy="39000" r="157.315" /> 
<circle cx="54750" cy="38000" r="157.315" /> 
<circle cx="55250" cy="39000" r="157.315" /> 
<circle cx="55750" cy="38000" r="157.315" /> 
<circle cx="56250" cy="39000" r="157.315" /> 
<circle cx="56750" cy="38000" r="157.315" /> 
<circle cx="59500" cy="41000" r="180.315" /> 
<circle cx="59500" cy="40000" r="180.315" /> 
<circle cx="59500" cy="39000" r="180.315" /> 
<circle cx="59500" cy="38000" r="180.315" /> 
<circle cx="61500" cy="41000" r="180.315" /> 
<circle cx="61500" cy="40000" r="180.315" /> 
<circle cx="61500" cy="39000" r="180.315" /> 
<circle cx="61500" cy="38000" r="180.315" /> 
<circle cx="63500" cy="41000" r="180.315" /> 
<circle cx="63500" cy="40000" r="180.315" /> 
<circle cx="63500" cy="39000" r="180.315" /> 
<circle cx="63500" cy="38000" r="180.315" /> 
<circle cx="65500" cy="41000" r="180.315" /> 
<circle cx="65500" cy="40000" r="180.315" /> 
<circle cx="65500" cy="39000" r="180.315" /> 
<circle cx="65500" cy="38000" r="180.315" /> 
<circle cx="67500" cy="41000" r="180.315" /> 
<circle cx="67500" cy="40000" r="180.315" /> 
<circle cx="67500" cy="39000" r="180.315" /> 
<circle cx="67500" cy="38000" r="180.315" /> 
<circle cx="22500" cy="41000" r="180.315" /> 
<circle cx="22500" cy="40000" r="180.315" /> 
<circle cx="22500" cy="39000" r="180.315" /> 
<circle cx="22500" cy="38000" r="180.315" /> 
<circle cx="20500" cy="41000" r="180.315" /> 
<circle cx="20500" cy="40000" r="180.315" /> 
<circle cx="20500" cy="39000" r="180.315" /> 
<circle cx="20500" cy="38000" r="180.315" /> 
<circle cx="18500" cy="41000" r="180.315" /> 
<circle cx="18500" cy="40000" r="180.315" /> 
<circle cx="18500" cy="39000" r="180.315" /> 
<circle cx="18500" cy="38000" r="180.315" /> 
<circle cx="16500" cy="41000" r="180.315" /> 
<circle cx="16500" cy="40000" r="180.315" /> 
<circle cx="16500" cy="39000" r="180.315" /> 
<circle cx="16500" cy="38000" r="180.315" /> 
<circle cx="14500" cy="41000" r="180.315" /> 
<circle cx="14500" cy="40000" r="180.315" /> 
<circle cx="14500" cy="39000" r="180.315" /> 
<circle cx="14500" cy="38000" r="180.315" /> 
</g> 
</svg>
