<?xml version="1.0" standalone="no"?>
 <!DOCTYPE svg PUBLIC "-//W3C//DTD SVG 1.1//EN" 
 "http://www.w3.org/Graphics/SVG/1.1/DTD/svg11.dtd"> 
<svg xmlns="http://www.w3.org/2000/svg" version="1.1" 
    width="29.7002cm" height="21.0007cm" viewBox="0 0 116930 82680 ">
<title>SVG Picture created as i2c_hub-F_SilkS.svg date 2014/12/12 17:22:40 </title>
  <desc>Picture generated by PCBNEW </desc>
<g style="fill:#000000; fill-opacity:1;stroke:#000000; stroke-opacity:1;
stroke-linecap:round; stroke-linejoin:round; "
 transform="translate(0 0) scale(1 1)">
</g>
<g style="fill:#000000; fill-opacity:0.0; 
stroke:#000000; stroke-width:39.3701; stroke-opacity:1; 
stroke-linecap:round; stroke-linejoin:round;">
</g>
<g style="fill:#000000; fill-opacity:0.0; 
stroke:#000000; stroke-width:59.0551; stroke-opacity:1; 
stroke-linecap:round; stroke-linejoin:round;">
<rect x="69685.9" y="65357.2" width="42519.7" height="12598.4" rx="0" />
</g>
<g style="fill:#000000; fill-opacity:0.0; 
stroke:#000000; stroke-width:39.3701; stroke-opacity:1; 
stroke-linecap:round; stroke-linejoin:round;">
</g>
<g style="fill:#000000; fill-opacity:0.0; 
stroke:#000000; stroke-width:59.0551; stroke-opacity:1; 
stroke-linecap:round; stroke-linejoin:round;">
<rect x="3937.01" y="3937.01" width="109056" height="74806" rx="0" />
</g>
<g style="fill:#000000; fill-opacity:0.0; 
stroke:#000000; stroke-width:39.3701; stroke-opacity:1; 
stroke-linecap:round; stroke-linejoin:round;">
</g>
<g style="fill:#000000; fill-opacity:0.0; 
stroke:#000000; stroke-width:59.0551; stroke-opacity:1; 
stroke-linecap:round; stroke-linejoin:round;">
<rect x="4724.41" y="4724.41" width="107481" height="73231.2" rx="0" />
</g>
<g style="fill:#000000; fill-opacity:0.0; 
stroke:#000000; stroke-width:39.3701; stroke-opacity:1; 
stroke-linecap:round; stroke-linejoin:round;">
</g>
<g style="fill:#000000; fill-opacity:0.0; 
stroke:#000000; stroke-width:59.0551; stroke-opacity:1; 
stroke-linecap:round; stroke-linejoin:round;">
<path d="M23622 4724
L23622 3937
" />
</g>
<g style="fill:#000000; fill-opacity:0.0; 
stroke:#000000; stroke-width:39.3701; stroke-opacity:1; 
stroke-linecap:round; stroke-linejoin:round;">
</g>
<g style="fill:#000000; fill-opacity:0.0; 
stroke:#000000; stroke-width:59.0551; stroke-opacity:1; 
stroke-linecap:round; stroke-linejoin:round;">
<path d="M43307 4724
L43307 3937
" />
</g>
<g style="fill:#000000; fill-opacity:0.0; 
stroke:#000000; stroke-width:39.3701; stroke-opacity:1; 
stroke-linecap:round; stroke-linejoin:round;">
</g>
<g style="fill:#000000; fill-opacity:0.0; 
stroke:#000000; stroke-width:59.0551; stroke-opacity:1; 
stroke-linecap:round; stroke-linejoin:round;">
<path d="M62992 4724
L62992 3937
" />
</g>
<g style="fill:#000000; fill-opacity:0.0; 
stroke:#000000; stroke-width:39.3701; stroke-opacity:1; 
stroke-linecap:round; stroke-linejoin:round;">
</g>
<g style="fill:#000000; fill-opacity:0.0; 
stroke:#000000; stroke-width:59.0551; stroke-opacity:1; 
stroke-linecap:round; stroke-linejoin:round;">
<path d="M82677 4724
L82677 3937
" />
</g>
<g style="fill:#000000; fill-opacity:0.0; 
stroke:#000000; stroke-width:39.3701; stroke-opacity:1; 
stroke-linecap:round; stroke-linejoin:round;">
</g>
<g style="fill:#000000; fill-opacity:0.0; 
stroke:#000000; stroke-width:59.0551; stroke-opacity:1; 
stroke-linecap:round; stroke-linejoin:round;">
<path d="M102362 4724
L102362 3937
" />
</g>
<g style="fill:#000000; fill-opacity:0.0; 
stroke:#000000; stroke-width:39.3701; stroke-opacity:1; 
stroke-linecap:round; stroke-linejoin:round;">
</g>
<g style="fill:#000000; fill-opacity:0.0; 
stroke:#000000; stroke-width:59.0551; stroke-opacity:1; 
stroke-linecap:round; stroke-linejoin:round;">
<path d="M14169 4562
L13877 4562
" />
<path d="M14023 4562
L14023 4050
L13974 4123
L13925 4172
L13877 4196
" />
</g>
<g style="fill:#000000; fill-opacity:0.0; 
stroke:#000000; stroke-width:39.3701; stroke-opacity:1; 
stroke-linecap:round; stroke-linejoin:round;">
</g>
<g style="fill:#000000; fill-opacity:0.0; 
stroke:#000000; stroke-width:59.0551; stroke-opacity:1; 
stroke-linecap:round; stroke-linejoin:round;">
<path d="M33562 4099
L33586 4074
L33635 4050
L33757 4050
L33805 4074
L33830 4099
L33854 4147
L33854 4196
L33830 4269
L33537 4562
L33854 4562
" />
</g>
<g style="fill:#000000; fill-opacity:0.0; 
stroke:#000000; stroke-width:39.3701; stroke-opacity:1; 
stroke-linecap:round; stroke-linejoin:round;">
</g>
<g style="fill:#000000; fill-opacity:0.0; 
stroke:#000000; stroke-width:59.0551; stroke-opacity:1; 
stroke-linecap:round; stroke-linejoin:round;">
<path d="M53222 4050
L53539 4050
L53368 4245
L53442 4245
L53490 4269
L53515 4294
L53539 4342
L53539 4464
L53515 4513
L53490 4537
L53442 4562
L53295 4562
L53247 4537
L53222 4513
" />
</g>
<g style="fill:#000000; fill-opacity:0.0; 
stroke:#000000; stroke-width:39.3701; stroke-opacity:1; 
stroke-linecap:round; stroke-linejoin:round;">
</g>
<g style="fill:#000000; fill-opacity:0.0; 
stroke:#000000; stroke-width:59.0551; stroke-opacity:1; 
stroke-linecap:round; stroke-linejoin:round;">
<path d="M73175 4221
L73175 4562
" />
<path d="M73053 4026
L72932 4391
L73248 4391
" />
</g>
<g style="fill:#000000; fill-opacity:0.0; 
stroke:#000000; stroke-width:39.3701; stroke-opacity:1; 
stroke-linecap:round; stroke-linejoin:round;">
</g>
<g style="fill:#000000; fill-opacity:0.0; 
stroke:#000000; stroke-width:59.0551; stroke-opacity:1; 
stroke-linecap:round; stroke-linejoin:round;">
<path d="M92885 4050
L92641 4050
L92617 4294
L92641 4269
L92690 4245
L92812 4245
L92860 4269
L92885 4294
L92909 4342
L92909 4464
L92885 4513
L92860 4537
L92812 4562
L92690 4562
L92641 4537
L92617 4513
" />
</g>
<g style="fill:#000000; fill-opacity:0.0; 
stroke:#000000; stroke-width:39.3701; stroke-opacity:1; 
stroke-linecap:round; stroke-linejoin:round;">
</g>
<g style="fill:#000000; fill-opacity:0.0; 
stroke:#000000; stroke-width:59.0551; stroke-opacity:1; 
stroke-linecap:round; stroke-linejoin:round;">
<path d="M112545 4050
L112448 4050
L112399 4074
L112375 4099
L112326 4172
L112302 4269
L112302 4464
L112326 4513
L112350 4537
L112399 4562
L112497 4562
L112545 4537
L112570 4513
L112594 4464
L112594 4342
L112570 4294
L112545 4269
L112497 4245
L112399 4245
L112350 4269
L112326 4294
L112302 4342
" />
</g>
<g style="fill:#000000; fill-opacity:0.0; 
stroke:#000000; stroke-width:39.3701; stroke-opacity:1; 
stroke-linecap:round; stroke-linejoin:round;">
</g>
<g style="fill:#000000; fill-opacity:0.0; 
stroke:#000000; stroke-width:59.0551; stroke-opacity:1; 
stroke-linecap:round; stroke-linejoin:round;">
<path d="M23622 77955
L23622 78742
" />
</g>
<g style="fill:#000000; fill-opacity:0.0; 
stroke:#000000; stroke-width:39.3701; stroke-opacity:1; 
stroke-linecap:round; stroke-linejoin:round;">
</g>
<g style="fill:#000000; fill-opacity:0.0; 
stroke:#000000; stroke-width:59.0551; stroke-opacity:1; 
stroke-linecap:round; stroke-linejoin:round;">
<path d="M43307 77955
L43307 78742
" />
</g>
<g style="fill:#000000; fill-opacity:0.0; 
stroke:#000000; stroke-width:39.3701; stroke-opacity:1; 
stroke-linecap:round; stroke-linejoin:round;">
</g>
<g style="fill:#000000; fill-opacity:0.0; 
stroke:#000000; stroke-width:59.0551; stroke-opacity:1; 
stroke-linecap:round; stroke-linejoin:round;">
<path d="M62992 77955
L62992 78742
" />
</g>
<g style="fill:#000000; fill-opacity:0.0; 
stroke:#000000; stroke-width:39.3701; stroke-opacity:1; 
stroke-linecap:round; stroke-linejoin:round;">
</g>
<g style="fill:#000000; fill-opacity:0.0; 
stroke:#000000; stroke-width:59.0551; stroke-opacity:1; 
stroke-linecap:round; stroke-linejoin:round;">
<path d="M82677 77955
L82677 78742
" />
</g>
<g style="fill:#000000; fill-opacity:0.0; 
stroke:#000000; stroke-width:39.3701; stroke-opacity:1; 
stroke-linecap:round; stroke-linejoin:round;">
</g>
<g style="fill:#000000; fill-opacity:0.0; 
stroke:#000000; stroke-width:59.0551; stroke-opacity:1; 
stroke-linecap:round; stroke-linejoin:round;">
<path d="M102362 77955
L102362 78742
" />
</g>
<g style="fill:#000000; fill-opacity:0.0; 
stroke:#000000; stroke-width:39.3701; stroke-opacity:1; 
stroke-linecap:round; stroke-linejoin:round;">
</g>
<g style="fill:#000000; fill-opacity:0.0; 
stroke:#000000; stroke-width:59.0551; stroke-opacity:1; 
stroke-linecap:round; stroke-linejoin:round;">
<path d="M14169 78580
L13877 78580
" />
<path d="M14023 78580
L14023 78069
L13974 78142
L13925 78190
L13877 78215
" />
</g>
<g style="fill:#000000; fill-opacity:0.0; 
stroke:#000000; stroke-width:39.3701; stroke-opacity:1; 
stroke-linecap:round; stroke-linejoin:round;">
</g>
<g style="fill:#000000; fill-opacity:0.0; 
stroke:#000000; stroke-width:59.0551; stroke-opacity:1; 
stroke-linecap:round; stroke-linejoin:round;">
<path d="M33562 78117
L33586 78093
L33635 78069
L33757 78069
L33805 78093
L33830 78117
L33854 78166
L33854 78215
L33830 78288
L33537 78580
L33854 78580
" />
</g>
<g style="fill:#000000; fill-opacity:0.0; 
stroke:#000000; stroke-width:39.3701; stroke-opacity:1; 
stroke-linecap:round; stroke-linejoin:round;">
</g>
<g style="fill:#000000; fill-opacity:0.0; 
stroke:#000000; stroke-width:59.0551; stroke-opacity:1; 
stroke-linecap:round; stroke-linejoin:round;">
<path d="M53222 78069
L53539 78069
L53368 78263
L53442 78263
L53490 78288
L53515 78312
L53539 78361
L53539 78483
L53515 78532
L53490 78556
L53442 78580
L53295 78580
L53247 78556
L53222 78532
" />
</g>
<g style="fill:#000000; fill-opacity:0.0; 
stroke:#000000; stroke-width:39.3701; stroke-opacity:1; 
stroke-linecap:round; stroke-linejoin:round;">
</g>
<g style="fill:#000000; fill-opacity:0.0; 
stroke:#000000; stroke-width:59.0551; stroke-opacity:1; 
stroke-linecap:round; stroke-linejoin:round;">
<path d="M73175 78239
L73175 78580
" />
<path d="M73053 78044
L72932 78410
L73248 78410
" />
</g>
<g style="fill:#000000; fill-opacity:0.0; 
stroke:#000000; stroke-width:39.3701; stroke-opacity:1; 
stroke-linecap:round; stroke-linejoin:round;">
</g>
<g style="fill:#000000; fill-opacity:0.0; 
stroke:#000000; stroke-width:59.0551; stroke-opacity:1; 
stroke-linecap:round; stroke-linejoin:round;">
<path d="M92885 78069
L92641 78069
L92617 78312
L92641 78288
L92690 78263
L92812 78263
L92860 78288
L92885 78312
L92909 78361
L92909 78483
L92885 78532
L92860 78556
L92812 78580
L92690 78580
L92641 78556
L92617 78532
" />
</g>
<g style="fill:#000000; fill-opacity:0.0; 
stroke:#000000; stroke-width:39.3701; stroke-opacity:1; 
stroke-linecap:round; stroke-linejoin:round;">
</g>
<g style="fill:#000000; fill-opacity:0.0; 
stroke:#000000; stroke-width:59.0551; stroke-opacity:1; 
stroke-linecap:round; stroke-linejoin:round;">
<path d="M112545 78069
L112448 78069
L112399 78093
L112375 78117
L112326 78190
L112302 78288
L112302 78483
L112326 78532
L112350 78556
L112399 78580
L112497 78580
L112545 78556
L112570 78532
L112594 78483
L112594 78361
L112570 78312
L112545 78288
L112497 78263
L112399 78263
L112350 78288
L112326 78312
L112302 78361
" />
</g>
<g style="fill:#000000; fill-opacity:0.0; 
stroke:#000000; stroke-width:39.3701; stroke-opacity:1; 
stroke-linecap:round; stroke-linejoin:round;">
</g>
<g style="fill:#000000; fill-opacity:0.0; 
stroke:#000000; stroke-width:59.0551; stroke-opacity:1; 
stroke-linecap:round; stroke-linejoin:round;">
<path d="M3937 23622
L4724 23622
" />
</g>
<g style="fill:#000000; fill-opacity:0.0; 
stroke:#000000; stroke-width:39.3701; stroke-opacity:1; 
stroke-linecap:round; stroke-linejoin:round;">
</g>
<g style="fill:#000000; fill-opacity:0.0; 
stroke:#000000; stroke-width:59.0551; stroke-opacity:1; 
stroke-linecap:round; stroke-linejoin:round;">
<path d="M3937 43307
L4724 43307
" />
</g>
<g style="fill:#000000; fill-opacity:0.0; 
stroke:#000000; stroke-width:39.3701; stroke-opacity:1; 
stroke-linecap:round; stroke-linejoin:round;">
</g>
<g style="fill:#000000; fill-opacity:0.0; 
stroke:#000000; stroke-width:59.0551; stroke-opacity:1; 
stroke-linecap:round; stroke-linejoin:round;">
<path d="M3937 62992
L4724 62992
" />
</g>
<g style="fill:#000000; fill-opacity:0.0; 
stroke:#000000; stroke-width:39.3701; stroke-opacity:1; 
stroke-linecap:round; stroke-linejoin:round;">
</g>
<g style="fill:#000000; fill-opacity:0.0; 
stroke:#000000; stroke-width:59.0551; stroke-opacity:1; 
stroke-linecap:round; stroke-linejoin:round;">
<path d="M4208 13864
L4452 13864
" />
<path d="M4160 14011
L4330 13499
L4501 14011
" />
</g>
<g style="fill:#000000; fill-opacity:0.0; 
stroke:#000000; stroke-width:39.3701; stroke-opacity:1; 
stroke-linecap:round; stroke-linejoin:round;">
</g>
<g style="fill:#000000; fill-opacity:0.0; 
stroke:#000000; stroke-width:59.0551; stroke-opacity:1; 
stroke-linecap:round; stroke-linejoin:round;">
<path d="M4367 33428
L4440 33452
L4464 33476
L4489 33525
L4489 33598
L4464 33647
L4440 33671
L4391 33696
L4196 33696
L4196 33184
L4367 33184
L4416 33208
L4440 33233
L4464 33281
L4464 33330
L4440 33379
L4416 33403
L4367 33428
L4196 33428
" />
</g>
<g style="fill:#000000; fill-opacity:0.0; 
stroke:#000000; stroke-width:39.3701; stroke-opacity:1; 
stroke-linecap:round; stroke-linejoin:round;">
</g>
<g style="fill:#000000; fill-opacity:0.0; 
stroke:#000000; stroke-width:59.0551; stroke-opacity:1; 
stroke-linecap:round; stroke-linejoin:round;">
<path d="M4489 53332
L4464 53356
L4391 53381
L4342 53381
L4269 53356
L4221 53308
L4196 53259
L4172 53161
L4172 53088
L4196 52991
L4221 52942
L4269 52893
L4342 52869
L4391 52869
L4464 52893
L4489 52918
" />
</g>
<g style="fill:#000000; fill-opacity:0.0; 
stroke:#000000; stroke-width:39.3701; stroke-opacity:1; 
stroke-linecap:round; stroke-linejoin:round;">
</g>
<g style="fill:#000000; fill-opacity:0.0; 
stroke:#000000; stroke-width:59.0551; stroke-opacity:1; 
stroke-linecap:round; stroke-linejoin:round;">
<path d="M4196 73066
L4196 72554
L4318 72554
L4391 72578
L4440 72627
L4464 72676
L4489 72773
L4489 72846
L4464 72944
L4440 72993
L4391 73041
L4318 73066
L4196 73066
" />
</g>
<g style="fill:#000000; fill-opacity:0.0; 
stroke:#000000; stroke-width:39.3701; stroke-opacity:1; 
stroke-linecap:round; stroke-linejoin:round;">
</g>
<g style="fill:#000000; fill-opacity:0.0; 
stroke:#000000; stroke-width:59.0551; stroke-opacity:1; 
stroke-linecap:round; stroke-linejoin:round;">
<path d="M112992 23622
L112205 23622
" />
</g>
<g style="fill:#000000; fill-opacity:0.0; 
stroke:#000000; stroke-width:39.3701; stroke-opacity:1; 
stroke-linecap:round; stroke-linejoin:round;">
</g>
<g style="fill:#000000; fill-opacity:0.0; 
stroke:#000000; stroke-width:59.0551; stroke-opacity:1; 
stroke-linecap:round; stroke-linejoin:round;">
<path d="M112992 43307
L112205 43307
" />
</g>
<g style="fill:#000000; fill-opacity:0.0; 
stroke:#000000; stroke-width:39.3701; stroke-opacity:1; 
stroke-linecap:round; stroke-linejoin:round;">
</g>
<g style="fill:#000000; fill-opacity:0.0; 
stroke:#000000; stroke-width:59.0551; stroke-opacity:1; 
stroke-linecap:round; stroke-linejoin:round;">
<path d="M112992 62992
L112205 62992
" />
</g>
<g style="fill:#000000; fill-opacity:0.0; 
stroke:#000000; stroke-width:39.3701; stroke-opacity:1; 
stroke-linecap:round; stroke-linejoin:round;">
</g>
<g style="fill:#000000; fill-opacity:0.0; 
stroke:#000000; stroke-width:59.0551; stroke-opacity:1; 
stroke-linecap:round; stroke-linejoin:round;">
<path d="M112477 13864
L112721 13864
" />
<path d="M112428 14011
L112599 13499
L112769 14011
" />
</g>
<g style="fill:#000000; fill-opacity:0.0; 
stroke:#000000; stroke-width:39.3701; stroke-opacity:1; 
stroke-linecap:round; stroke-linejoin:round;">
</g>
<g style="fill:#000000; fill-opacity:0.0; 
stroke:#000000; stroke-width:59.0551; stroke-opacity:1; 
stroke-linecap:round; stroke-linejoin:round;">
<path d="M112635 33428
L112708 33452
L112733 33476
L112757 33525
L112757 33598
L112733 33647
L112708 33671
L112660 33696
L112465 33696
L112465 33184
L112635 33184
L112684 33208
L112708 33233
L112733 33281
L112733 33330
L112708 33379
L112684 33403
L112635 33428
L112465 33428
" />
</g>
<g style="fill:#000000; fill-opacity:0.0; 
stroke:#000000; stroke-width:39.3701; stroke-opacity:1; 
stroke-linecap:round; stroke-linejoin:round;">
</g>
<g style="fill:#000000; fill-opacity:0.0; 
stroke:#000000; stroke-width:59.0551; stroke-opacity:1; 
stroke-linecap:round; stroke-linejoin:round;">
<path d="M112757 53332
L112733 53356
L112660 53381
L112611 53381
L112538 53356
L112489 53308
L112465 53259
L112440 53161
L112440 53088
L112465 52991
L112489 52942
L112538 52893
L112611 52869
L112660 52869
L112733 52893
L112757 52918
" />
</g>
<g style="fill:#000000; fill-opacity:0.0; 
stroke:#000000; stroke-width:39.3701; stroke-opacity:1; 
stroke-linecap:round; stroke-linejoin:round;">
</g>
<g style="fill:#000000; fill-opacity:0.0; 
stroke:#000000; stroke-width:59.0551; stroke-opacity:1; 
stroke-linecap:round; stroke-linejoin:round;">
<path d="M112465 73066
L112465 72554
L112587 72554
L112660 72578
L112708 72627
L112733 72676
L112757 72773
L112757 72846
L112733 72944
L112708 72993
L112660 73041
L112587 73066
L112465 73066
" />
</g>
<g style="fill:#000000; fill-opacity:0.0; 
stroke:#000000; stroke-width:39.3701; stroke-opacity:1; 
stroke-linecap:round; stroke-linejoin:round;">
</g>
<g style="fill:#000000; fill-opacity:0.0; 
stroke:#000000; stroke-width:59.0551; stroke-opacity:1; 
stroke-linecap:round; stroke-linejoin:round;">
<path d="M78881 76293
L78881 75703
L79022 75703
L79106 75731
L79162 75787
L79190 75843
L79219 75956
L79219 76040
L79190 76153
L79162 76209
L79106 76265
L79022 76293
L78881 76293
" />
<path d="M79725 76293
L79725 75984
L79697 75928
L79640 75899
L79528 75899
L79472 75928
" />
<path d="M79725 76265
L79669 76293
L79528 76293
L79472 76265
L79444 76209
L79444 76153
L79472 76096
L79528 76068
L79669 76068
L79725 76040
" />
<path d="M79922 75899
L80147 75899
" />
<path d="M80006 75703
L80006 76209
L80034 76265
L80090 76293
L80147 76293
" />
<path d="M80568 76265
L80512 76293
L80400 76293
L80343 76265
L80315 76209
L80315 75984
L80343 75928
L80400 75899
L80512 75899
L80568 75928
L80597 75984
L80597 76040
L80315 76096
" />
<path d="M80850 76237
L80878 76265
L80850 76293
L80822 76265
L80850 76237
L80850 76293
" />
<path d="M80850 75928
L80878 75956
L80850 75984
L80822 75956
L80850 75928
L80850 75984
" />
</g>
<g style="fill:#000000; fill-opacity:0.0; 
stroke:#000000; stroke-width:39.3701; stroke-opacity:1; 
stroke-linecap:round; stroke-linejoin:round;">
</g>
<g style="fill:#000000; fill-opacity:0.0; 
stroke:#000000; stroke-width:59.0551; stroke-opacity:1; 
stroke-linecap:round; stroke-linejoin:round;">
<path d="M69685 76577
L112205 76577
" />
</g>
<g style="fill:#000000; fill-opacity:0.0; 
stroke:#000000; stroke-width:39.3701; stroke-opacity:1; 
stroke-linecap:round; stroke-linejoin:round;">
</g>
<g style="fill:#000000; fill-opacity:0.0; 
stroke:#000000; stroke-width:59.0551; stroke-opacity:1; 
stroke-linecap:round; stroke-linejoin:round;">
<path d="M70220 77395
L70220 76805
" />
<path d="M70557 77395
L70304 77058
" />
<path d="M70557 76805
L70220 77142
" />
<path d="M70810 77395
L70810 77002
" />
<path d="M70810 76805
L70782 76833
L70810 76861
L70838 76833
L70810 76805
L70810 76861
" />
<path d="M71429 77339
L71401 77367
L71316 77395
L71260 77395
L71176 77367
L71120 77311
L71091 77255
L71063 77142
L71063 77058
L71091 76946
L71120 76889
L71176 76833
L71260 76805
L71316 76805
L71401 76833
L71429 76861
" />
<path d="M71935 77395
L71935 77086
L71907 77030
L71851 77002
L71738 77002
L71682 77030
" />
<path d="M71935 77367
L71879 77395
L71738 77395
L71682 77367
L71654 77311
L71654 77255
L71682 77199
L71738 77171
L71879 77171
L71935 77142
" />
<path d="M72469 77395
L72469 76805
" />
<path d="M72469 77367
L72413 77395
L72301 77395
L72244 77367
L72216 77339
L72188 77283
L72188 77114
L72216 77058
L72244 77030
L72301 77002
L72413 77002
L72469 77030
" />
<path d="M73201 77086
L73397 77086
" />
<path d="M73482 77395
L73201 77395
L73201 76805
L73482 76805
" />
<path d="M73735 77339
L73763 77367
L73735 77395
L73707 77367
L73735 77339
L73735 77395
" />
<path d="M74016 77395
L74016 76805
L74157 76805
L74241 76833
L74297 76889
L74325 76946
L74354 77058
L74354 77142
L74325 77255
L74297 77311
L74241 77367
L74157 77395
L74016 77395
" />
<path d="M74607 77339
L74635 77367
L74607 77395
L74579 77367
L74607 77339
L74607 77395
" />
<path d="M74860 77227
L75141 77227
" />
<path d="M74804 77395
L75000 76805
L75197 77395
" />
<path d="M75394 77339
L75422 77367
L75394 77395
L75366 77367
L75394 77339
L75394 77395
" />
<path d="M76575 77395
L76575 76805
" />
<path d="M76631 77171
L76800 77395
" />
<path d="M76800 77002
L76575 77227
" />
<path d="M77053 77395
L77053 77002
" />
<path d="M77053 76805
L77025 76833
L77053 76861
L77081 76833
L77053 76805
L77053 76861
" />
<path d="M77588 77367
L77531 77395
L77419 77395
L77363 77367
L77334 77339
L77306 77283
L77306 77114
L77334 77058
L77363 77030
L77419 77002
L77531 77002
L77588 77030
" />
<path d="M78094 77395
L78094 77086
L78066 77030
L78009 77002
L77897 77002
L77841 77030
" />
<path d="M78094 77367
L78037 77395
L77897 77395
L77841 77367
L77813 77311
L77813 77255
L77841 77199
L77897 77171
L78037 77171
L78094 77142
" />
<path d="M78628 77395
L78628 76805
" />
<path d="M78628 77367
L78572 77395
L78459 77395
L78403 77367
L78375 77339
L78347 77283
L78347 77114
L78375 77058
L78403 77030
L78459 77002
L78572 77002
L78628 77030
" />
<path d="M79528 77620
L79500 77592
L79444 77508
L79415 77452
L79387 77367
L79359 77227
L79359 77114
L79387 76974
L79415 76889
L79444 76833
L79500 76749
L79528 76721
" />
<path d="M79725 76861
L79753 76833
L79809 76805
L79950 76805
L80006 76833
L80034 76861
L80062 76917
L80062 76974
L80034 77058
L79697 77395
L80062 77395
" />
<path d="M80428 76805
L80484 76805
L80540 76833
L80568 76861
L80597 76917
L80625 77030
L80625 77171
L80597 77283
L80568 77339
L80540 77367
L80484 77395
L80428 77395
L80372 77367
L80343 77339
L80315 77283
L80287 77171
L80287 77030
L80315 76917
L80343 76861
L80372 76833
L80428 76805
" />
<path d="M81187 77395
L80850 77395
" />
<path d="M81018 77395
L81018 76805
L80962 76889
L80906 76946
L80850 76974
" />
<path d="M81693 77002
L81693 77395
" />
<path d="M81553 76777
L81412 77199
L81778 77199
" />
<path d="M82003 77171
L82453 77171
" />
<path d="M83043 77395
L82706 77395
" />
<path d="M82874 77395
L82874 76805
L82818 76889
L82762 76946
L82706 76974
" />
<path d="M83268 76861
L83296 76833
L83352 76805
L83493 76805
L83549 76833
L83577 76861
L83606 76917
L83606 76974
L83577 77058
L83240 77395
L83606 77395
" />
<path d="M83859 77171
L84309 77171
" />
<path d="M84702 76805
L84759 76805
L84815 76833
L84843 76861
L84871 76917
L84899 77030
L84899 77171
L84871 77283
L84843 77339
L84815 77367
L84759 77395
L84702 77395
L84646 77367
L84618 77339
L84590 77283
L84562 77171
L84562 77030
L84590 76917
L84618 76861
L84646 76833
L84702 76805
" />
<path d="M85096 76805
L85462 76805
L85265 77030
L85349 77030
L85405 77058
L85433 77086
L85462 77142
L85462 77283
L85433 77339
L85405 77367
L85349 77395
L85180 77395
L85124 77367
L85096 77339
" />
<path d="M86361 77086
L86446 77114
L86474 77142
L86502 77199
L86502 77283
L86474 77339
L86446 77367
L86390 77395
L86165 77395
L86165 76805
L86361 76805
L86418 76833
L86446 76861
L86474 76917
L86474 76974
L86446 77030
L86418 77058
L86361 77086
L86165 77086
" />
<path d="M86699 76805
L87093 76805
L86699 77395
L87093 77395
" />
<path d="M87655 77395
L87458 77114
" />
<path d="M87318 77395
L87318 76805
L87543 76805
L87599 76833
L87627 76861
L87655 76917
L87655 77002
L87627 77058
L87599 77086
L87543 77114
L87318 77114
" />
<path d="M88639 76805
L88358 76805
L88330 77086
L88358 77058
L88414 77030
L88555 77030
L88611 77058
L88639 77086
L88667 77142
L88667 77283
L88639 77339
L88611 77367
L88555 77395
L88414 77395
L88358 77367
L88330 77339
" />
<path d="M88864 76805
L89230 76805
L89033 77030
L89117 77030
L89174 77058
L89202 77086
L89230 77142
L89230 77283
L89202 77339
L89174 77367
L89117 77395
L88949 77395
L88892 77367
L88864 77339
" />
<path d="M89792 77395
L89455 77395
" />
<path d="M89624 77395
L89624 76805
L89567 76889
L89511 76946
L89455 76974
" />
<path d="M90355 77395
L90017 77395
" />
<path d="M90186 77395
L90186 76805
L90130 76889
L90073 76946
L90017 76974
" />
<path d="M90552 77620
L90580 77592
L90636 77508
L90664 77452
L90692 77367
L90720 77227
L90720 77114
L90692 76974
L90664 76889
L90636 76833
L90580 76749
L90552 76721
" />
<path d="M91001 77171
L91451 77171
" />
<path d="M91733 77002
L91733 77592
" />
<path d="M91733 77030
L91789 77002
L91901 77002
L91958 77030
L91986 77058
L92014 77114
L92014 77283
L91986 77339
L91958 77367
L91901 77395
L91789 77395
L91733 77367
" />
<path d="M92267 77395
L92267 77002
" />
<path d="M92267 77114
L92295 77058
L92323 77030
L92379 77002
L92436 77002
" />
<path d="M92717 77395
L92661 77367
L92633 77339
L92604 77283
L92604 77114
L92633 77058
L92661 77030
L92717 77002
L92801 77002
L92858 77030
L92886 77058
L92914 77114
L92914 77283
L92886 77339
L92858 77367
L92801 77395
L92717 77395
" />
<path d="M93420 77395
L93420 76805
" />
<path d="M93420 77367
L93364 77395
L93251 77395
L93195 77367
L93167 77339
L93139 77283
L93139 77114
L93167 77058
L93195 77030
L93251 77002
L93364 77002
L93420 77030
" />
<path d="M93954 77002
L93954 77395
" />
<path d="M93701 77002
L93701 77311
L93729 77367
L93786 77395
L93870 77395
L93926 77367
L93954 77339
" />
<path d="M94489 77367
L94432 77395
L94320 77395
L94264 77367
L94235 77339
L94207 77283
L94207 77114
L94235 77058
L94264 77030
L94320 77002
L94432 77002
L94489 77030
" />
<path d="M94657 77002
L94882 77002
" />
<path d="M94742 76805
L94742 77311
L94770 77367
L94826 77395
L94882 77395
" />
</g>
<g style="fill:#000000; fill-opacity:0.0; 
stroke:#000000; stroke-width:39.3701; stroke-opacity:1; 
stroke-linecap:round; stroke-linejoin:round;">
</g>
<g style="fill:#000000; fill-opacity:0.0; 
stroke:#000000; stroke-width:59.0551; stroke-opacity:1; 
stroke-linecap:round; stroke-linejoin:round;">
<path d="M69685 75396
L112205 75396
" />
</g>
<g style="fill:#000000; fill-opacity:0.0; 
stroke:#000000; stroke-width:39.3701; stroke-opacity:1; 
stroke-linecap:round; stroke-linejoin:round;">
</g>
<g style="fill:#000000; fill-opacity:0.0; 
stroke:#000000; stroke-width:118.11; stroke-opacity:1; 
stroke-linecap:round; stroke-linejoin:round;">
<path d="M104022 76293
L103825 76012
" />
<path d="M103684 76293
L103684 75703
L103909 75703
L103965 75731
L103994 75759
L104022 75815
L104022 75899
L103994 75956
L103965 75984
L103909 76012
L103684 76012
" />
<path d="M104500 76265
L104444 76293
L104331 76293
L104275 76265
L104247 76209
L104247 75984
L104275 75928
L104331 75899
L104444 75899
L104500 75928
L104528 75984
L104528 76040
L104247 76096
" />
<path d="M104725 75899
L104865 76293
L105006 75899
" />
<path d="M105231 76237
L105259 76265
L105231 76293
L105203 76265
L105231 76237
L105231 76293
" />
<path d="M105231 75928
L105259 75956
L105231 75984
L105203 75956
L105231 75928
L105231 75984
" />
</g>
<g style="fill:#000000; fill-opacity:0.0; 
stroke:#000000; stroke-width:39.3701; stroke-opacity:1; 
stroke-linecap:round; stroke-linejoin:round;">
</g>
<g style="fill:#000000; fill-opacity:0.0; 
stroke:#000000; stroke-width:59.0551; stroke-opacity:1; 
stroke-linecap:round; stroke-linejoin:round;">
<path d="M70192 76265
L70276 76293
L70417 76293
L70473 76265
L70501 76237
L70529 76181
L70529 76124
L70501 76068
L70473 76040
L70417 76012
L70304 75984
L70248 75956
L70220 75928
L70192 75871
L70192 75815
L70220 75759
L70248 75731
L70304 75703
L70445 75703
L70529 75731
" />
<path d="M70782 76293
L70782 75899
" />
<path d="M70782 75703
L70754 75731
L70782 75759
L70810 75731
L70782 75703
L70782 75759
" />
<path d="M71007 75899
L71316 75899
L71007 76293
L71316 76293
" />
<path d="M71766 76265
L71710 76293
L71598 76293
L71541 76265
L71513 76209
L71513 75984
L71541 75928
L71598 75899
L71710 75899
L71766 75928
L71795 75984
L71795 76040
L71513 76096
" />
<path d="M72048 76237
L72076 76265
L72048 76293
L72019 76265
L72048 76237
L72048 76293
" />
<path d="M72048 75928
L72076 75956
L72048 75984
L72019 75956
L72048 75928
L72048 75984
" />
<path d="M72751 76124
L73032 76124
" />
<path d="M72694 76293
L72891 75703
L73088 76293
" />
<path d="M73538 75899
L73538 76293
" />
<path d="M73397 75674
L73257 76096
L73622 76096
" />
</g>
<g style="fill:#000000; fill-opacity:0.0; 
stroke:#000000; stroke-width:39.3701; stroke-opacity:1; 
stroke-linecap:round; stroke-linejoin:round;">
</g>
<g style="fill:#000000; fill-opacity:0.0; 
stroke:#000000; stroke-width:59.0551; stroke-opacity:1; 
stroke-linecap:round; stroke-linejoin:round;">
<path d="M103684 77395
L103684 76805
" />
<path d="M104219 77395
L104219 76805
" />
<path d="M104219 77367
L104162 77395
L104050 77395
L103994 77367
L103965 77339
L103937 77283
L103937 77114
L103965 77058
L103994 77030
L104050 77002
L104162 77002
L104219 77030
" />
<path d="M104500 77339
L104528 77367
L104500 77395
L104472 77367
L104500 77339
L104500 77395
" />
<path d="M104500 77030
L104528 77058
L104500 77086
L104472 77058
L104500 77030
L104500 77086
" />
<path d="M105540 77395
L105203 77395
" />
<path d="M105372 77395
L105372 76805
L105315 76889
L105259 76946
L105203 76974
" />
<path d="M106215 76777
L105709 77536
" />
<path d="M106721 77395
L106384 77395
" />
<path d="M106553 77395
L106553 76805
L106496 76889
L106440 76946
L106384 76974
" />
</g>
<g style="fill:#000000; fill-opacity:0.0; 
stroke:#000000; stroke-width:39.3701; stroke-opacity:1; 
stroke-linecap:round; stroke-linejoin:round;">
</g>
<g style="fill:#000000; fill-opacity:0.0; 
stroke:#000000; stroke-width:59.0551; stroke-opacity:1; 
stroke-linecap:round; stroke-linejoin:round;">
<path d="M69685 73821
L112205 73821
" />
</g>
<g style="fill:#000000; fill-opacity:0.0; 
stroke:#000000; stroke-width:39.3701; stroke-opacity:1; 
stroke-linecap:round; stroke-linejoin:round;">
</g>
<g style="fill:#000000; fill-opacity:0.0; 
stroke:#000000; stroke-width:157.48; stroke-opacity:1; 
stroke-linecap:round; stroke-linejoin:round;">
<path d="M70257 74099
L70707 74099
" />
<path d="M70384 74886
L70482 74099
" />
<path d="M70871 74886
L70937 74361
" />
<path d="M70970 74099
L70927 74136
L70960 74174
L71002 74136
L70970 74099
L70960 74174
" />
<path d="M71199 74361
L71499 74361
" />
<path d="M71345 74099
L71260 74774
L71288 74849
L71359 74886
L71434 74886
" />
<path d="M71809 74886
L71738 74849
L71710 74774
L71795 74099
" />
<path d="M72413 74849
L72334 74886
L72184 74886
L72113 74849
L72085 74774
L72123 74474
L72169 74399
L72249 74361
L72399 74361
L72469 74399
L72498 74474
L72488 74549
L72104 74624
" />
<path d="M72793 74811
L72826 74849
L72783 74886
L72751 74849
L72793 74811
L72783 74886
" />
<path d="M72844 74399
L72877 74436
L72835 74474
L72802 74436
L72844 74399
L72835 74474
" />
</g>
<g style="fill:#000000; fill-opacity:0.0; 
stroke:#000000; stroke-width:39.3701; stroke-opacity:1; 
stroke-linecap:round; stroke-linejoin:round;">
</g>
<g style="fill:#000000; fill-opacity:0.0; 
stroke:#000000; stroke-width:59.0551; stroke-opacity:1; 
stroke-linecap:round; stroke-linejoin:round;">
<path d="M70417 73070
L70220 73070
" />
<path d="M70220 73380
L70220 72789
L70501 72789
" />
<path d="M70726 73380
L70726 72986
" />
<path d="M70726 72789
L70698 72817
L70726 72845
L70754 72817
L70726 72789
L70726 72845
" />
<path d="M71091 73380
L71035 73352
L71007 73295
L71007 72789
" />
<path d="M71541 73352
L71485 73380
L71373 73380
L71316 73352
L71288 73295
L71288 73070
L71316 73014
L71373 72986
L71485 72986
L71541 73014
L71570 73070
L71570 73127
L71288 73183
" />
<path d="M71823 73323
L71851 73352
L71823 73380
L71795 73352
L71823 73323
L71823 73380
" />
<path d="M71823 73014
L71851 73042
L71823 73070
L71795 73042
L71823 73014
L71823 73070
" />
<path d="M72554 73380
L72554 72986
" />
<path d="M72554 72789
L72526 72817
L72554 72845
L72582 72817
L72554 72789
L72554 72845
" />
<path d="M72807 72845
L72835 72817
L72891 72789
L73032 72789
L73088 72817
L73116 72845
L73144 72902
L73144 72958
L73116 73042
L72779 73380
L73144 73380
" />
<path d="M73651 73352
L73594 73380
L73482 73380
L73426 73352
L73397 73323
L73369 73267
L73369 73099
L73397 73042
L73426 73014
L73482 72986
L73594 72986
L73651 73014
" />
<path d="M73763 73436
L74213 73436
" />
<path d="M74354 73380
L74354 72789
" />
<path d="M74607 73380
L74607 73070
L74579 73014
L74522 72986
L74438 72986
L74382 73014
L74354 73042
" />
<path d="M75141 72986
L75141 73380
" />
<path d="M74888 72986
L74888 73295
L74916 73352
L74972 73380
L75057 73380
L75113 73352
L75141 73323
" />
<path d="M75422 73380
L75422 72789
" />
<path d="M75422 73014
L75478 72986
L75591 72986
L75647 73014
L75675 73042
L75703 73099
L75703 73267
L75675 73323
L75647 73352
L75591 73380
L75478 73380
L75422 73352
" />
<path d="M75956 73323
L75985 73352
L75956 73380
L75928 73352
L75956 73323
L75956 73380
" />
<path d="M76238 73380
L76238 72789
" />
<path d="M76294 73155
L76463 73380
" />
<path d="M76463 72986
L76238 73211
" />
<path d="M76716 73380
L76716 72986
" />
<path d="M76716 72789
L76688 72817
L76716 72845
L76744 72817
L76716 72789
L76716 72845
" />
<path d="M77250 73352
L77194 73380
L77081 73380
L77025 73352
L76997 73323
L76969 73267
L76969 73099
L76997 73042
L77025 73014
L77081 72986
L77194 72986
L77250 73014
" />
<path d="M77756 73380
L77756 73070
L77728 73014
L77672 72986
L77559 72986
L77503 73014
" />
<path d="M77756 73352
L77700 73380
L77559 73380
L77503 73352
L77475 73295
L77475 73239
L77503 73183
L77559 73155
L77700 73155
L77756 73127
" />
<path d="M78291 73380
L78291 72789
" />
<path d="M78291 73352
L78234 73380
L78122 73380
L78066 73352
L78037 73323
L78009 73267
L78009 73099
L78037 73042
L78066 73014
L78122 72986
L78234 72986
L78291 73014
" />
<path d="M78431 73436
L78881 73436
" />
<path d="M79022 72986
L79022 73577
" />
<path d="M79022 73014
L79078 72986
L79190 72986
L79247 73014
L79275 73042
L79303 73099
L79303 73267
L79275 73323
L79247 73352
L79190 73380
L79078 73380
L79022 73352
" />
<path d="M79809 73352
L79753 73380
L79640 73380
L79584 73352
L79556 73323
L79528 73267
L79528 73099
L79556 73042
L79584 73014
L79640 72986
L79753 72986
L79809 73014
" />
<path d="M80062 73380
L80062 72789
" />
<path d="M80062 73014
L80118 72986
L80231 72986
L80287 73014
L80315 73042
L80343 73099
L80343 73267
L80315 73323
L80287 73352
L80231 73380
L80118 73380
L80062 73352
" />
</g>
<g style="fill:#000000; fill-opacity:0.0; 
stroke:#000000; stroke-width:39.3701; stroke-opacity:1; 
stroke-linecap:round; stroke-linejoin:round;">
</g>
<g style="fill:#000000; fill-opacity:0.0; 
stroke:#000000; stroke-width:59.0551; stroke-opacity:1; 
stroke-linecap:round; stroke-linejoin:round;">
<path d="M69685 71459
L112205 71459
" />
</g>
<g style="fill:#000000; fill-opacity:0.0; 
stroke:#000000; stroke-width:39.3701; stroke-opacity:1; 
stroke-linecap:round; stroke-linejoin:round;">
</g>
<g style="fill:#000000; fill-opacity:0.0; 
stroke:#000000; stroke-width:59.0551; stroke-opacity:1; 
stroke-linecap:round; stroke-linejoin:round;">
<path d="M70192 72289
L70276 72317
L70417 72317
L70473 72289
L70501 72260
L70529 72204
L70529 72148
L70501 72092
L70473 72064
L70417 72036
L70304 72007
L70248 71979
L70220 71951
L70192 71895
L70192 71839
L70220 71782
L70248 71754
L70304 71726
L70445 71726
L70529 71754
" />
<path d="M70782 72317
L70782 71726
" />
<path d="M71035 72317
L71035 72007
L71007 71951
L70951 71923
L70867 71923
L70810 71951
L70782 71979
" />
<path d="M71541 72289
L71485 72317
L71373 72317
L71316 72289
L71288 72232
L71288 72007
L71316 71951
L71373 71923
L71485 71923
L71541 71951
L71570 72007
L71570 72064
L71288 72120
" />
<path d="M72048 72289
L71991 72317
L71879 72317
L71823 72289
L71795 72232
L71795 72007
L71823 71951
L71879 71923
L71991 71923
L72048 71951
L72076 72007
L72076 72064
L71795 72120
" />
<path d="M72244 71923
L72469 71923
" />
<path d="M72329 71726
L72329 72232
L72357 72289
L72413 72317
L72469 72317
" />
<path d="M72666 72260
L72694 72289
L72666 72317
L72638 72289
L72666 72260
L72666 72317
" />
<path d="M72666 71951
L72694 71979
L72666 72007
L72638 71979
L72666 71951
L72666 72007
" />
</g>
<g style="fill:#000000; fill-opacity:0.0; 
stroke:#000000; stroke-width:39.3701; stroke-opacity:1; 
stroke-linecap:round; stroke-linejoin:round;">
</g>
<g style="fill:#000000; fill-opacity:0.0; 
stroke:#000000; stroke-width:59.0551; stroke-opacity:1; 
stroke-linecap:round; stroke-linejoin:round;">
<path d="M77559 75396
L77559 76577
" />
</g>
<g style="fill:#000000; fill-opacity:0.0; 
stroke:#000000; stroke-width:39.3701; stroke-opacity:1; 
stroke-linecap:round; stroke-linejoin:round;">
</g>
<g style="fill:#000000; fill-opacity:0.0; 
stroke:#000000; stroke-width:59.0551; stroke-opacity:1; 
stroke-linecap:round; stroke-linejoin:round;">
<path d="M102756 75396
L102756 77955
" />
</g>
<g style="fill:#008484; fill-opacity:0.0; 
stroke:#008484; stroke-width:59.0551; stroke-opacity:1; 
stroke-linecap:round; stroke-linejoin:round;">
<path d="M28735 43565
L28753 43584
L28772 43640
L28772 43678
L28753 43734
L28716 43771
L28678 43790
L28603 43809
L28547 43809
L28472 43790
L28435 43771
L28397 43734
L28378 43678
L28378 43640
L28397 43584
L28416 43565
" />
<path d="M28772 43190
L28772 43415
" />
<path d="M28772 43303
L28378 43303
L28435 43340
L28472 43378
L28491 43415
" />
<path d="M30546 44474
L30564 44493
L30583 44549
L30583 44587
L30564 44643
L30527 44681
L30489 44699
L30414 44718
L30358 44718
L30283 44699
L30246 44681
L30208 44643
L30189 44587
L30189 44549
L30208 44493
L30227 44474
" />
<path d="M30471 44324
L30471 44137
" />
<path d="M30583 44362
L30189 44231
L30583 44099
" />
<path d="M30583 43968
L30189 43968
L30189 43818
L30208 43781
L30227 43762
L30264 43743
L30321 43743
L30358 43762
L30377 43781
L30396 43818
L30396 43968
" />
<path d="M30471 43593
L30471 43406
" />
<path d="M30583 43631
L30189 43500
L30583 43368
" />
<path d="M30583 43237
L30189 43237
L30189 43087
L30208 43050
L30227 43031
L30264 43012
L30321 43012
L30358 43031
L30377 43050
L30396 43087
L30396 43237
" />
<path d="M30189 42768
L30189 42693
L30208 42656
L30246 42618
L30321 42600
L30452 42600
L30527 42618
L30564 42656
L30583 42693
L30583 42768
L30564 42806
L30527 42843
L30452 42862
L30321 42862
L30246 42843
L30208 42806
L30189 42768
" />
<path d="M30583 42243
L30583 42431
L30189 42431
" />
<path d="M51735 43565
L51753 43584
L51772 43640
L51772 43678
L51753 43734
L51716 43771
L51678 43790
L51603 43809
L51547 43809
L51472 43790
L51435 43771
L51397 43734
L51378 43678
L51378 43640
L51397 43584
L51416 43565
" />
<path d="M51416 43415
L51397 43396
L51378 43359
L51378 43265
L51397 43228
L51416 43209
L51453 43190
L51491 43190
L51547 43209
L51772 43434
L51772 43190
" />
<path d="M53546 44474
L53564 44493
L53583 44549
L53583 44587
L53564 44643
L53527 44681
L53489 44699
L53414 44718
L53358 44718
L53283 44699
L53246 44681
L53208 44643
L53189 44587
L53189 44549
L53208 44493
L53227 44474
" />
<path d="M53471 44324
L53471 44137
" />
<path d="M53583 44362
L53189 44231
L53583 44099
" />
<path d="M53583 43968
L53189 43968
L53189 43818
L53208 43781
L53227 43762
L53264 43743
L53321 43743
L53358 43762
L53377 43781
L53396 43818
L53396 43968
" />
<path d="M53471 43593
L53471 43406
" />
<path d="M53583 43631
L53189 43500
L53583 43368
" />
<path d="M53583 43237
L53189 43237
L53189 43087
L53208 43050
L53227 43031
L53264 43012
L53321 43012
L53358 43031
L53377 43050
L53396 43087
L53396 43237
" />
<path d="M53189 42768
L53189 42693
L53208 42656
L53246 42618
L53321 42600
L53452 42600
L53527 42618
L53564 42656
L53583 42693
L53583 42768
L53564 42806
L53527 42843
L53452 42862
L53321 42862
L53246 42843
L53208 42806
L53189 42768
" />
<path d="M53583 42243
L53583 42431
L53189 42431
" />
<path d="M25546 43565
L25564 43584
L25583 43640
L25583 43678
L25564 43734
L25527 43771
L25489 43790
L25414 43809
L25358 43809
L25283 43790
L25246 43771
L25208 43734
L25189 43678
L25189 43640
L25208 43584
L25227 43565
" />
<path d="M25189 43434
L25189 43190
L25339 43321
L25339 43265
L25358 43228
L25377 43209
L25414 43190
L25508 43190
L25546 43209
L25564 43228
L25583 43265
L25583 43378
L25564 43415
L25546 43434
" />
<path d="M23735 44474
L23753 44493
L23772 44549
L23772 44587
L23753 44643
L23716 44681
L23678 44699
L23603 44718
L23547 44718
L23472 44699
L23435 44681
L23397 44643
L23378 44587
L23378 44549
L23397 44493
L23416 44474
" />
<path d="M23660 44324
L23660 44137
" />
<path d="M23772 44362
L23378 44231
L23772 44099
" />
<path d="M23772 43968
L23378 43968
L23378 43818
L23397 43781
L23416 43762
L23453 43743
L23510 43743
L23547 43762
L23566 43781
L23585 43818
L23585 43968
" />
<path d="M23660 43593
L23660 43406
" />
<path d="M23772 43631
L23378 43500
L23772 43368
" />
<path d="M23772 43237
L23378 43237
L23378 43087
L23397 43050
L23416 43031
L23453 43012
L23510 43012
L23547 43031
L23566 43050
L23585 43087
L23585 43237
" />
<path d="M23378 42768
L23378 42693
L23397 42656
L23435 42618
L23510 42600
L23641 42600
L23716 42618
L23753 42656
L23772 42693
L23772 42768
L23753 42806
L23716 42843
L23641 42862
L23510 42862
L23435 42843
L23397 42806
L23378 42768
" />
<path d="M23772 42243
L23772 42431
L23378 42431
" />
<path d="M56735 43565
L56753 43584
L56772 43640
L56772 43678
L56753 43734
L56716 43771
L56678 43790
L56603 43809
L56547 43809
L56472 43790
L56435 43771
L56397 43734
L56378 43678
L56378 43640
L56397 43584
L56416 43565
" />
<path d="M56510 43228
L56772 43228
" />
<path d="M56360 43321
L56641 43415
L56641 43171
" />
<path d="M58546 44474
L58564 44493
L58583 44549
L58583 44587
L58564 44643
L58527 44681
L58489 44699
L58414 44718
L58358 44718
L58283 44699
L58246 44681
L58208 44643
L58189 44587
L58189 44549
L58208 44493
L58227 44474
" />
<path d="M58471 44324
L58471 44137
" />
<path d="M58583 44362
L58189 44231
L58583 44099
" />
<path d="M58583 43968
L58189 43968
L58189 43818
L58208 43781
L58227 43762
L58264 43743
L58321 43743
L58358 43762
L58377 43781
L58396 43818
L58396 43968
" />
<path d="M58471 43593
L58471 43406
" />
<path d="M58583 43631
L58189 43500
L58583 43368
" />
<path d="M58583 43237
L58189 43237
L58189 43087
L58208 43050
L58227 43031
L58264 43012
L58321 43012
L58358 43031
L58377 43050
L58396 43087
L58396 43237
" />
<path d="M58189 42768
L58189 42693
L58208 42656
L58246 42618
L58321 42600
L58452 42600
L58527 42618
L58564 42656
L58583 42693
L58583 42768
L58564 42806
L58527 42843
L58452 42862
L58321 42862
L58246 42843
L58208 42806
L58189 42768
" />
<path d="M58583 42243
L58583 42431
L58189 42431
" />
<path d="M26968 43184
L26968 43465
L26950 43521
L26912 43559
L26856 43578
L26818 43578
" />
<path d="M27362 43578
L27137 43578
" />
<path d="M27249 43578
L27249 43184
L27212 43240
L27174 43278
L27137 43296
" />
<path d="M26652 41638
L26521 41450
" />
<path d="M26427 41638
L26427 41244
L26577 41244
L26615 41263
L26634 41281
L26652 41319
L26652 41375
L26634 41413
L26615 41431
L26577 41450
L26427 41450
" />
<path d="M26934 41244
L26934 41525
L26915 41581
L26877 41619
L26821 41638
L26784 41638
" />
<path d="M27290 41375
L27290 41638
" />
<path d="M27196 41225
L27102 41506
L27346 41506
" />
<path d="M27684 41244
L27496 41244
L27477 41431
L27496 41413
L27534 41394
L27627 41394
L27665 41413
L27684 41431
L27702 41469
L27702 41563
L27684 41600
L27665 41619
L27627 41638
L27534 41638
L27496 41619
L27477 41600
" />
<path d="M33968 43184
L33968 43465
L33950 43521
L33912 43559
L33856 43578
L33818 43578
" />
<path d="M34137 43221
L34156 43203
L34193 43184
L34287 43184
L34324 43203
L34343 43221
L34362 43259
L34362 43296
L34343 43353
L34118 43578
L34362 43578
" />
<path d="M33652 41638
L33521 41450
" />
<path d="M33427 41638
L33427 41244
L33577 41244
L33615 41263
L33634 41281
L33652 41319
L33652 41375
L33634 41413
L33615 41431
L33577 41450
L33427 41450
" />
<path d="M33934 41244
L33934 41525
L33915 41581
L33877 41619
L33821 41638
L33784 41638
" />
<path d="M34290 41375
L34290 41638
" />
<path d="M34196 41225
L34102 41506
L34346 41506
" />
<path d="M34684 41244
L34496 41244
L34477 41431
L34496 41413
L34534 41394
L34627 41394
L34665 41413
L34684 41431
L34702 41469
L34702 41563
L34684 41600
L34665 41619
L34627 41638
L34534 41638
L34496 41619
L34477 41600
" />
<path d="M40968 43184
L40968 43465
L40950 43521
L40912 43559
L40856 43578
L40818 43578
" />
<path d="M41118 43184
L41362 43184
L41231 43334
L41287 43334
L41324 43353
L41343 43371
L41362 43409
L41362 43503
L41343 43540
L41324 43559
L41287 43578
L41174 43578
L41137 43559
L41118 43540
" />
<path d="M40652 41638
L40521 41450
" />
<path d="M40427 41638
L40427 41244
L40577 41244
L40615 41263
L40634 41281
L40652 41319
L40652 41375
L40634 41413
L40615 41431
L40577 41450
L40427 41450
" />
<path d="M40934 41244
L40934 41525
L40915 41581
L40877 41619
L40821 41638
L40784 41638
" />
<path d="M41290 41375
L41290 41638
" />
<path d="M41196 41225
L41102 41506
L41346 41506
" />
<path d="M41684 41244
L41496 41244
L41477 41431
L41496 41413
L41534 41394
L41627 41394
L41665 41413
L41684 41431
L41702 41469
L41702 41563
L41684 41600
L41665 41619
L41627 41638
L41534 41638
L41496 41619
L41477 41600
" />
<path d="M47968 43184
L47968 43465
L47950 43521
L47912 43559
L47856 43578
L47818 43578
" />
<path d="M48324 43315
L48324 43578
" />
<path d="M48231 43165
L48137 43446
L48381 43446
" />
<path d="M47652 41638
L47521 41450
" />
<path d="M47427 41638
L47427 41244
L47577 41244
L47615 41263
L47634 41281
L47652 41319
L47652 41375
L47634 41413
L47615 41431
L47577 41450
L47427 41450
" />
<path d="M47934 41244
L47934 41525
L47915 41581
L47877 41619
L47821 41638
L47784 41638
" />
<path d="M48290 41375
L48290 41638
" />
<path d="M48196 41225
L48102 41506
L48346 41506
" />
<path d="M48684 41244
L48496 41244
L48477 41431
L48496 41413
L48534 41394
L48627 41394
L48665 41413
L48684 41431
L48702 41469
L48702 41563
L48684 41600
L48665 41619
L48627 41638
L48534 41638
L48496 41619
L48477 41600
" />
<path d="M54968 43184
L54968 43465
L54950 43521
L54912 43559
L54856 43578
L54818 43578
" />
<path d="M55343 43184
L55156 43184
L55137 43371
L55156 43353
L55193 43334
L55287 43334
L55324 43353
L55343 43371
L55362 43409
L55362 43503
L55343 43540
L55324 43559
L55287 43578
L55193 43578
L55156 43559
L55137 43540
" />
<path d="M54652 41638
L54521 41450
" />
<path d="M54427 41638
L54427 41244
L54577 41244
L54615 41263
L54634 41281
L54652 41319
L54652 41375
L54634 41413
L54615 41431
L54577 41450
L54427 41450
" />
<path d="M54934 41244
L54934 41525
L54915 41581
L54877 41619
L54821 41638
L54784 41638
" />
<path d="M55290 41375
L55290 41638
" />
<path d="M55196 41225
L55102 41506
L55346 41506
" />
<path d="M55684 41244
L55496 41244
L55477 41431
L55496 41413
L55534 41394
L55627 41394
L55665 41413
L55684 41431
L55702 41469
L55702 41563
L55684 41600
L55665 41619
L55627 41638
L55534 41638
L55496 41619
L55477 41600
" />
<path d="M59209 42928
L59209 42534
L59359 42534
L59396 42553
L59415 42571
L59434 42609
L59434 42665
L59415 42703
L59396 42721
L59359 42740
L59209 42740
" />
<path d="M59809 42928
L59584 42928
" />
<path d="M59696 42928
L59696 42534
L59659 42590
L59621 42628
L59584 42646
" />
<path d="M59209 42178
L59209 41784
L59359 41784
L59396 41803
L59415 41821
L59434 41859
L59434 41915
L59415 41953
L59396 41971
L59359 41990
L59209 41990
" />
<path d="M59584 41821
L59603 41803
L59640 41784
L59734 41784
L59771 41803
L59790 41821
L59809 41859
L59809 41896
L59790 41953
L59565 42178
L59809 42178
" />
<path d="M61209 41428
L61209 41034
L61359 41034
L61396 41053
L61415 41071
L61434 41109
L61434 41165
L61415 41203
L61396 41221
L61359 41240
L61209 41240
" />
<path d="M61565 41034
L61809 41034
L61678 41184
L61734 41184
L61771 41203
L61790 41221
L61809 41259
L61809 41353
L61790 41390
L61771 41409
L61734 41428
L61621 41428
L61584 41409
L61565 41390
" />
<path d="M58778 39790
L58384 39790
L58384 39640
L58403 39603
L58421 39584
L58459 39565
L58515 39565
L58553 39584
L58571 39603
L58590 39640
L58590 39790
" />
<path d="M58515 39228
L58778 39228
" />
<path d="M58365 39321
L58646 39415
L58646 39171
" />
<path d="M52209 39178
L52209 38784
L52359 38784
L52396 38803
L52415 38821
L52434 38859
L52434 38915
L52415 38953
L52396 38971
L52359 38990
L52209 38990
" />
<path d="M52771 38784
L52696 38784
L52659 38803
L52640 38821
L52603 38878
L52584 38953
L52584 39103
L52603 39140
L52621 39159
L52659 39178
L52734 39178
L52771 39159
L52790 39140
L52809 39103
L52809 39009
L52790 38971
L52771 38953
L52734 38934
L52659 38934
L52621 38953
L52603 38971
L52584 39009
" />
<path d="M61209 42178
L61209 41784
L61359 41784
L61396 41803
L61415 41821
L61434 41859
L61434 41915
L61415 41953
L61396 41971
L61359 41990
L61209 41990
" />
<path d="M61565 41784
L61828 41784
L61659 42178
" />
<path d="M63209 41428
L63209 41034
L63359 41034
L63396 41053
L63415 41071
L63434 41109
L63434 41165
L63415 41203
L63396 41221
L63359 41240
L63209 41240
" />
<path d="M63659 41203
L63621 41184
L63603 41165
L63584 41128
L63584 41109
L63603 41071
L63621 41053
L63659 41034
L63734 41034
L63771 41053
L63790 41071
L63809 41109
L63809 41128
L63790 41165
L63771 41184
L63734 41203
L63659 41203
L63621 41221
L63603 41240
L63584 41278
L63584 41353
L63603 41390
L63621 41409
L63659 41428
L63734 41428
L63771 41409
L63790 41390
L63809 41353
L63809 41278
L63790 41240
L63771 41221
L63734 41203
" />
<path d="M60778 39978
L60384 39978
L60384 39828
L60403 39790
L60421 39771
L60459 39753
L60515 39753
L60553 39771
L60571 39790
L60590 39828
L60590 39978
" />
<path d="M60778 39378
L60778 39603
" />
<path d="M60778 39490
L60384 39490
L60440 39528
L60478 39565
L60496 39603
" />
<path d="M60384 39134
L60384 39096
L60403 39059
L60421 39040
L60459 39021
L60534 39003
L60628 39003
L60703 39021
L60740 39040
L60759 39059
L60778 39096
L60778 39134
L60759 39171
L60740 39190
L60703 39209
L60628 39228
L60534 39228
L60459 39209
L60421 39190
L60403 39171
L60384 39134
" />
<path d="M45021 39178
L45021 38784
L45171 38784
L45209 38803
L45228 38821
L45246 38859
L45246 38915
L45228 38953
L45209 38971
L45171 38990
L45021 38990
" />
<path d="M45621 39178
L45396 39178
" />
<path d="M45509 39178
L45509 38784
L45471 38840
L45434 38878
L45396 38896
" />
<path d="M45996 39178
L45771 39178
" />
<path d="M45884 39178
L45884 38784
L45846 38840
L45809 38878
L45771 38896
" />
<path d="M63021 42178
L63021 41784
L63171 41784
L63209 41803
L63228 41821
L63246 41859
L63246 41915
L63228 41953
L63209 41971
L63171 41990
L63021 41990
" />
<path d="M63621 42178
L63396 42178
" />
<path d="M63509 42178
L63509 41784
L63471 41840
L63434 41878
L63396 41896
" />
<path d="M63771 41821
L63790 41803
L63828 41784
L63921 41784
L63959 41803
L63978 41821
L63996 41859
L63996 41896
L63978 41953
L63753 42178
L63996 42178
" />
<path d="M65021 41428
L65021 41034
L65171 41034
L65209 41053
L65228 41071
L65246 41109
L65246 41165
L65228 41203
L65209 41221
L65171 41240
L65021 41240
" />
<path d="M65621 41428
L65396 41428
" />
<path d="M65509 41428
L65509 41034
L65471 41090
L65434 41128
L65396 41146
" />
<path d="M65753 41034
L65996 41034
L65865 41184
L65921 41184
L65959 41203
L65978 41221
L65996 41259
L65996 41353
L65978 41390
L65959 41409
L65921 41428
L65809 41428
L65771 41409
L65753 41390
" />
<path d="M62778 39978
L62384 39978
L62384 39828
L62403 39790
L62421 39771
L62459 39753
L62515 39753
L62553 39771
L62571 39790
L62590 39828
L62590 39978
" />
<path d="M62778 39378
L62778 39603
" />
<path d="M62778 39490
L62384 39490
L62440 39528
L62478 39565
L62496 39603
" />
<path d="M62515 39040
L62778 39040
" />
<path d="M62365 39134
L62646 39228
L62646 38984
" />
<path d="M38021 39178
L38021 38784
L38171 38784
L38209 38803
L38228 38821
L38246 38859
L38246 38915
L38228 38953
L38209 38971
L38171 38990
L38021 38990
" />
<path d="M38621 39178
L38396 39178
" />
<path d="M38509 39178
L38509 38784
L38471 38840
L38434 38878
L38396 38896
" />
<path d="M38978 38784
L38790 38784
L38771 38971
L38790 38953
L38828 38934
L38921 38934
L38959 38953
L38978 38971
L38996 39009
L38996 39103
L38978 39140
L38959 39159
L38921 39178
L38828 39178
L38790 39159
L38771 39140
" />
<path d="M65021 42178
L65021 41784
L65171 41784
L65209 41803
L65228 41821
L65246 41859
L65246 41915
L65228 41953
L65209 41971
L65171 41990
L65021 41990
" />
<path d="M65621 42178
L65396 42178
" />
<path d="M65509 42178
L65509 41784
L65471 41840
L65434 41878
L65396 41896
" />
<path d="M65959 41784
L65884 41784
L65846 41803
L65828 41821
L65790 41878
L65771 41953
L65771 42103
L65790 42140
L65809 42159
L65846 42178
L65921 42178
L65959 42159
L65978 42140
L65996 42103
L65996 42009
L65978 41971
L65959 41953
L65921 41934
L65846 41934
L65809 41953
L65790 41971
L65771 42009
" />
<path d="M67021 41428
L67021 41034
L67171 41034
L67209 41053
L67228 41071
L67246 41109
L67246 41165
L67228 41203
L67209 41221
L67171 41240
L67021 41240
" />
<path d="M67621 41428
L67396 41428
" />
<path d="M67509 41428
L67509 41034
L67471 41090
L67434 41128
L67396 41146
" />
<path d="M67753 41034
L68015 41034
L67846 41428
" />
<path d="M64778 39978
L64384 39978
L64384 39828
L64403 39790
L64421 39771
L64459 39753
L64515 39753
L64553 39771
L64571 39790
L64590 39828
L64590 39978
" />
<path d="M64778 39378
L64778 39603
" />
<path d="M64778 39490
L64384 39490
L64440 39528
L64478 39565
L64496 39603
" />
<path d="M64553 39153
L64534 39190
L64515 39209
L64478 39228
L64459 39228
L64421 39209
L64403 39190
L64384 39153
L64384 39078
L64403 39040
L64421 39021
L64459 39003
L64478 39003
L64515 39021
L64534 39040
L64553 39078
L64553 39153
L64571 39190
L64590 39209
L64628 39228
L64703 39228
L64740 39209
L64759 39190
L64778 39153
L64778 39078
L64759 39040
L64740 39021
L64703 39003
L64628 39003
L64590 39021
L64571 39040
L64553 39078
" />
<path d="M31021 39178
L31021 38784
L31171 38784
L31209 38803
L31228 38821
L31246 38859
L31246 38915
L31228 38953
L31209 38971
L31171 38990
L31021 38990
" />
<path d="M31621 39178
L31396 39178
" />
<path d="M31509 39178
L31509 38784
L31471 38840
L31434 38878
L31396 38896
" />
<path d="M31809 39178
L31884 39178
L31921 39159
L31940 39140
L31978 39084
L31996 39009
L31996 38859
L31978 38821
L31959 38803
L31921 38784
L31846 38784
L31809 38803
L31790 38821
L31771 38859
L31771 38953
L31790 38990
L31809 39009
L31846 39028
L31921 39028
L31959 39009
L31978 38990
L31996 38953
" />
<path d="M67021 42178
L67021 41784
L67171 41784
L67209 41803
L67228 41821
L67246 41859
L67246 41915
L67228 41953
L67209 41971
L67171 41990
L67021 41990
" />
<path d="M67396 41821
L67415 41803
L67453 41784
L67546 41784
L67584 41803
L67603 41821
L67621 41859
L67621 41896
L67603 41953
L67378 42178
L67621 42178
" />
<path d="M67865 41784
L67903 41784
L67940 41803
L67959 41821
L67978 41859
L67996 41934
L67996 42028
L67978 42103
L67959 42140
L67940 42159
L67903 42178
L67865 42178
L67828 42159
L67809 42140
L67790 42103
L67771 42028
L67771 41934
L67790 41859
L67809 41821
L67828 41803
L67865 41784
" />
<path d="M20021 41428
L20021 41034
L20171 41034
L20209 41053
L20228 41071
L20246 41109
L20246 41165
L20228 41203
L20209 41221
L20171 41240
L20021 41240
" />
<path d="M20396 41071
L20415 41053
L20453 41034
L20546 41034
L20584 41053
L20603 41071
L20621 41109
L20621 41146
L20603 41203
L20378 41428
L20621 41428
" />
<path d="M20996 41428
L20771 41428
" />
<path d="M20884 41428
L20884 41034
L20846 41090
L20809 41128
L20771 41146
" />
<path d="M66778 39978
L66384 39978
L66384 39828
L66403 39790
L66421 39771
L66459 39753
L66515 39753
L66553 39771
L66571 39790
L66590 39828
L66590 39978
" />
<path d="M66421 39603
L66403 39584
L66384 39546
L66384 39453
L66403 39415
L66421 39396
L66459 39378
L66496 39378
L66553 39396
L66778 39621
L66778 39378
" />
<path d="M66384 39246
L66384 39003
L66534 39134
L66534 39078
L66553 39040
L66571 39021
L66609 39003
L66703 39003
L66740 39021
L66759 39040
L66778 39078
L66778 39190
L66759 39228
L66740 39246
" />
<path d="M24021 39178
L24021 38784
L24171 38784
L24209 38803
L24228 38821
L24246 38859
L24246 38915
L24228 38953
L24209 38971
L24171 38990
L24021 38990
" />
<path d="M24396 38821
L24415 38803
L24453 38784
L24546 38784
L24584 38803
L24603 38821
L24621 38859
L24621 38896
L24603 38953
L24378 39178
L24621 39178
" />
<path d="M24959 38915
L24959 39178
" />
<path d="M24865 38765
L24771 39046
L25015 39046
" />
<path d="M24771 39178
L24771 38784
L24921 38784
L24959 38803
L24978 38821
L24996 38859
L24996 38915
L24978 38953
L24959 38971
L24921 38990
L24771 38990
" />
<path d="M25146 38821
L25165 38803
L25203 38784
L25296 38784
L25334 38803
L25353 38821
L25371 38859
L25371 38896
L25353 38953
L25128 39178
L25371 39178
" />
<path d="M25728 38784
L25540 38784
L25521 38971
L25540 38953
L25578 38934
L25671 38934
L25709 38953
L25728 38971
L25746 39009
L25746 39103
L25728 39140
L25709 39159
L25671 39178
L25578 39178
L25540 39159
L25521 39140
" />
<path d="M53521 39178
L53521 38784
L53671 38784
L53709 38803
L53728 38821
L53746 38859
L53746 38915
L53728 38953
L53709 38971
L53671 38990
L53521 38990
" />
<path d="M53896 38821
L53915 38803
L53953 38784
L54046 38784
L54084 38803
L54103 38821
L54121 38859
L54121 38896
L54103 38953
L53878 39178
L54121 39178
" />
<path d="M54253 38784
L54515 38784
L54346 39178
" />
<path d="M67021 42928
L67021 42534
L67171 42534
L67209 42553
L67228 42571
L67246 42609
L67246 42665
L67228 42703
L67209 42721
L67171 42740
L67021 42740
" />
<path d="M67396 42571
L67415 42553
L67453 42534
L67546 42534
L67584 42553
L67603 42571
L67621 42609
L67621 42646
L67603 42703
L67378 42928
L67621 42928
" />
<path d="M67846 42703
L67809 42684
L67790 42665
L67771 42628
L67771 42609
L67790 42571
L67809 42553
L67846 42534
L67921 42534
L67959 42553
L67978 42571
L67996 42609
L67996 42628
L67978 42665
L67959 42684
L67921 42703
L67846 42703
L67809 42721
L67790 42740
L67771 42778
L67771 42853
L67790 42890
L67809 42909
L67846 42928
L67921 42928
L67959 42909
L67978 42890
L67996 42853
L67996 42778
L67978 42740
L67959 42721
L67921 42703
" />
<path d="M31771 39178
L31771 38784
L31921 38784
L31959 38803
L31978 38821
L31996 38859
L31996 38915
L31978 38953
L31959 38971
L31921 38990
L31771 38990
" />
<path d="M32146 38821
L32165 38803
L32203 38784
L32296 38784
L32334 38803
L32353 38821
L32371 38859
L32371 38896
L32353 38953
L32128 39178
L32371 39178
" />
<path d="M32559 39178
L32634 39178
L32671 39159
L32690 39140
L32728 39084
L32746 39009
L32746 38859
L32728 38821
L32709 38803
L32671 38784
L32596 38784
L32559 38803
L32540 38821
L32521 38859
L32521 38953
L32540 38990
L32559 39009
L32596 39028
L32671 39028
L32709 39009
L32728 38990
L32746 38953
" />
<path d="M46521 39178
L46521 38784
L46671 38784
L46709 38803
L46728 38821
L46746 38859
L46746 38915
L46728 38953
L46709 38971
L46671 38990
L46521 38990
" />
<path d="M46878 38784
L47121 38784
L46990 38934
L47046 38934
L47084 38953
L47103 38971
L47121 39009
L47121 39103
L47103 39140
L47084 39159
L47046 39178
L46934 39178
L46896 39159
L46878 39140
" />
<path d="M47365 38784
L47403 38784
L47440 38803
L47459 38821
L47478 38859
L47496 38934
L47496 39028
L47478 39103
L47459 39140
L47440 39159
L47403 39178
L47365 39178
L47328 39159
L47309 39140
L47290 39103
L47271 39028
L47271 38934
L47290 38859
L47309 38821
L47328 38803
L47365 38784
" />
<path d="M65021 42928
L65021 42534
L65171 42534
L65209 42553
L65228 42571
L65246 42609
L65246 42665
L65228 42703
L65209 42721
L65171 42740
L65021 42740
" />
<path d="M65378 42534
L65621 42534
L65490 42684
L65546 42684
L65584 42703
L65603 42721
L65621 42759
L65621 42853
L65603 42890
L65584 42909
L65546 42928
L65434 42928
L65396 42909
L65378 42890
" />
<path d="M65996 42928
L65771 42928
" />
<path d="M65884 42928
L65884 42534
L65846 42590
L65809 42628
L65771 42646
" />
<path d="M38771 39178
L38771 38784
L38921 38784
L38959 38803
L38978 38821
L38996 38859
L38996 38915
L38978 38953
L38959 38971
L38921 38990
L38771 38990
" />
<path d="M39128 38784
L39371 38784
L39240 38934
L39296 38934
L39334 38953
L39353 38971
L39371 39009
L39371 39103
L39353 39140
L39334 39159
L39296 39178
L39184 39178
L39146 39159
L39128 39140
" />
<path d="M39521 38821
L39540 38803
L39578 38784
L39671 38784
L39709 38803
L39728 38821
L39746 38859
L39746 38896
L39728 38953
L39503 39178
L39746 39178
" />
<path d="M32521 39178
L32521 38784
L32671 38784
L32709 38803
L32728 38821
L32746 38859
L32746 38915
L32728 38953
L32709 38971
L32671 38990
L32521 38990
" />
<path d="M32878 38784
L33121 38784
L32990 38934
L33046 38934
L33084 38953
L33103 38971
L33121 39009
L33121 39103
L33103 39140
L33084 39159
L33046 39178
L32934 39178
L32896 39159
L32878 39140
" />
<path d="M33253 38784
L33496 38784
L33365 38934
L33421 38934
L33459 38953
L33478 38971
L33496 39009
L33496 39103
L33478 39140
L33459 39159
L33421 39178
L33309 39178
L33271 39159
L33253 39140
" />
<path d="M61021 42928
L61021 42534
L61171 42534
L61209 42553
L61228 42571
L61246 42609
L61246 42665
L61228 42703
L61209 42721
L61171 42740
L61021 42740
" />
<path d="M61378 42534
L61621 42534
L61490 42684
L61546 42684
L61584 42703
L61603 42721
L61621 42759
L61621 42853
L61603 42890
L61584 42909
L61546 42928
L61434 42928
L61396 42909
L61378 42890
" />
<path d="M61959 42665
L61959 42928
" />
<path d="M61865 42515
L61771 42796
L62015 42796
" />
<path d="M45771 39178
L45771 38784
L45921 38784
L45959 38803
L45978 38821
L45996 38859
L45996 38915
L45978 38953
L45959 38971
L45921 38990
L45771 38990
" />
<path d="M46128 38784
L46371 38784
L46240 38934
L46296 38934
L46334 38953
L46353 38971
L46371 39009
L46371 39103
L46353 39140
L46334 39159
L46296 39178
L46184 39178
L46146 39159
L46128 39140
" />
<path d="M46728 38784
L46540 38784
L46521 38971
L46540 38953
L46578 38934
L46671 38934
L46709 38953
L46728 38971
L46746 39009
L46746 39103
L46728 39140
L46709 39159
L46671 39178
L46578 39178
L46540 39159
L46521 39140
" />
<path d="M22021 41428
L22021 41034
L22171 41034
L22209 41053
L22228 41071
L22246 41109
L22246 41165
L22228 41203
L22209 41221
L22171 41240
L22021 41240
" />
<path d="M22378 41034
L22621 41034
L22490 41184
L22546 41184
L22584 41203
L22603 41221
L22621 41259
L22621 41353
L22603 41390
L22584 41409
L22546 41428
L22434 41428
L22396 41409
L22378 41390
" />
<path d="M22959 41034
L22884 41034
L22846 41053
L22828 41071
L22790 41128
L22771 41203
L22771 41353
L22790 41390
L22809 41409
L22846 41428
L22921 41428
L22959 41409
L22978 41390
L22996 41353
L22996 41259
L22978 41221
L22959 41203
L22921 41184
L22846 41184
L22809 41203
L22790 41221
L22771 41259
" />
<path d="M63021 42928
L63021 42534
L63171 42534
L63209 42553
L63228 42571
L63246 42609
L63246 42665
L63228 42703
L63209 42721
L63171 42740
L63021 42740
" />
<path d="M63378 42534
L63621 42534
L63490 42684
L63546 42684
L63584 42703
L63603 42721
L63621 42759
L63621 42853
L63603 42890
L63584 42909
L63546 42928
L63434 42928
L63396 42909
L63378 42890
" />
<path d="M63753 42534
L64015 42534
L63846 42928
" />
<path d="M52771 39178
L52771 38784
L52921 38784
L52959 38803
L52978 38821
L52996 38859
L52996 38915
L52978 38953
L52959 38971
L52921 38990
L52771 38990
" />
<path d="M53128 38784
L53371 38784
L53240 38934
L53296 38934
L53334 38953
L53353 38971
L53371 39009
L53371 39103
L53353 39140
L53334 39159
L53296 39178
L53184 39178
L53146 39159
L53128 39140
" />
<path d="M53596 38953
L53559 38934
L53540 38915
L53521 38878
L53521 38859
L53540 38821
L53559 38803
L53596 38784
L53671 38784
L53709 38803
L53728 38821
L53746 38859
L53746 38878
L53728 38915
L53709 38934
L53671 38953
L53596 38953
L53559 38971
L53540 38990
L53521 39028
L53521 39103
L53540 39140
L53559 39159
L53596 39178
L53671 39178
L53709 39159
L53728 39140
L53746 39103
L53746 39028
L53728 38990
L53709 38971
L53671 38953
" />
<path d="M39521 39178
L39521 38784
L39671 38784
L39709 38803
L39728 38821
L39746 38859
L39746 38915
L39728 38953
L39709 38971
L39671 38990
L39521 38990
" />
<path d="M39878 38784
L40121 38784
L39990 38934
L40046 38934
L40084 38953
L40103 38971
L40121 39009
L40121 39103
L40103 39140
L40084 39159
L40046 39178
L39934 39178
L39896 39159
L39878 39140
" />
<path d="M40309 39178
L40384 39178
L40421 39159
L40440 39140
L40478 39084
L40496 39009
L40496 38859
L40478 38821
L40459 38803
L40421 38784
L40346 38784
L40309 38803
L40290 38821
L40271 38859
L40271 38953
L40290 38990
L40309 39009
L40346 39028
L40421 39028
L40459 39009
L40478 38990
L40496 38953
" />
<path d="M20021 42928
L20021 42534
L20171 42534
L20209 42553
L20228 42571
L20246 42609
L20246 42665
L20228 42703
L20209 42721
L20171 42740
L20021 42740
" />
<path d="M20584 42665
L20584 42928
" />
<path d="M20490 42515
L20396 42796
L20640 42796
" />
<path d="M20771 42571
L20790 42553
L20828 42534
L20921 42534
L20959 42553
L20978 42571
L20996 42609
L20996 42646
L20978 42703
L20753 42928
L20996 42928
" />
<path d="M22021 42178
L22021 41784
L22171 41784
L22209 41803
L22228 41821
L22246 41859
L22246 41915
L22228 41953
L22209 41971
L22171 41990
L22021 41990
" />
<path d="M22584 41915
L22584 42178
" />
<path d="M22490 41765
L22396 42046
L22640 42046
" />
<path d="M22753 41784
L22996 41784
L22865 41934
L22921 41934
L22959 41953
L22978 41971
L22996 42009
L22996 42103
L22978 42140
L22959 42159
L22921 42178
L22809 42178
L22771 42159
L22753 42140
" />
<path d="M25521 39178
L25521 38784
L25671 38784
L25709 38803
L25728 38821
L25746 38859
L25746 38915
L25728 38953
L25709 38971
L25671 38990
L25521 38990
" />
<path d="M26084 38915
L26084 39178
" />
<path d="M25990 38765
L25896 39046
L26140 39046
" />
<path d="M26459 38915
L26459 39178
" />
<path d="M26365 38765
L26271 39046
L26515 39046
" />
<path d="M21778 39978
L21384 39978
L21384 39828
L21403 39790
L21421 39771
L21459 39753
L21515 39753
L21553 39771
L21571 39790
L21590 39828
L21590 39978
" />
<path d="M21515 39415
L21778 39415
" />
<path d="M21365 39509
L21646 39603
L21646 39359
" />
<path d="M21384 39021
L21384 39209
L21571 39228
L21553 39209
L21534 39171
L21534 39078
L21553 39040
L21571 39021
L21609 39003
L21703 39003
L21740 39021
L21759 39040
L21778 39078
L21778 39171
L21759 39209
L21740 39228
" />
<path d="M16021 42928
L16021 42534
L16171 42534
L16209 42553
L16228 42571
L16246 42609
L16246 42665
L16228 42703
L16209 42721
L16171 42740
L16021 42740
" />
<path d="M16584 42665
L16584 42928
" />
<path d="M16490 42515
L16396 42796
L16640 42796
" />
<path d="M16959 42534
L16884 42534
L16846 42553
L16828 42571
L16790 42628
L16771 42703
L16771 42853
L16790 42890
L16809 42909
L16846 42928
L16921 42928
L16959 42909
L16978 42890
L16996 42853
L16996 42759
L16978 42721
L16959 42703
L16921 42684
L16846 42684
L16809 42703
L16790 42721
L16771 42759
" />
<path d="M20021 42178
L20021 41784
L20171 41784
L20209 41803
L20228 41821
L20246 41859
L20246 41915
L20228 41953
L20209 41971
L20171 41990
L20021 41990
" />
<path d="M20584 41915
L20584 42178
" />
<path d="M20490 41765
L20396 42046
L20640 42046
" />
<path d="M20753 41784
L21015 41784
L20846 42178
" />
<path d="M59021 41428
L59021 41034
L59171 41034
L59209 41053
L59228 41071
L59246 41109
L59246 41165
L59228 41203
L59209 41221
L59171 41240
L59021 41240
" />
<path d="M59584 41165
L59584 41428
" />
<path d="M59490 41015
L59396 41296
L59640 41296
" />
<path d="M59846 41203
L59809 41184
L59790 41165
L59771 41128
L59771 41109
L59790 41071
L59809 41053
L59846 41034
L59921 41034
L59959 41053
L59978 41071
L59996 41109
L59996 41128
L59978 41165
L59959 41184
L59921 41203
L59846 41203
L59809 41221
L59790 41240
L59771 41278
L59771 41353
L59790 41390
L59809 41409
L59846 41428
L59921 41428
L59959 41409
L59978 41390
L59996 41353
L59996 41278
L59978 41240
L59959 41221
L59921 41203
" />
<path d="M19778 39978
L19384 39978
L19384 39828
L19403 39790
L19421 39771
L19459 39753
L19515 39753
L19553 39771
L19571 39790
L19590 39828
L19590 39978
" />
<path d="M19515 39415
L19778 39415
" />
<path d="M19365 39509
L19646 39603
L19646 39359
" />
<path d="M19778 39190
L19778 39115
L19759 39078
L19740 39059
L19684 39021
L19609 39003
L19459 39003
L19421 39021
L19403 39040
L19384 39078
L19384 39153
L19403 39190
L19421 39209
L19459 39228
L19553 39228
L19590 39209
L19609 39190
L19628 39153
L19628 39078
L19609 39040
L19590 39021
L19553 39003
" />
<path d="M22021 42928
L22021 42534
L22171 42534
L22209 42553
L22228 42571
L22246 42609
L22246 42665
L22228 42703
L22209 42721
L22171 42740
L22021 42740
" />
<path d="M22603 42534
L22415 42534
L22396 42721
L22415 42703
L22453 42684
L22546 42684
L22584 42703
L22603 42721
L22621 42759
L22621 42853
L22603 42890
L22584 42909
L22546 42928
L22453 42928
L22415 42909
L22396 42890
" />
<path d="M22865 42534
L22903 42534
L22940 42553
L22959 42571
L22978 42609
L22996 42684
L22996 42778
L22978 42853
L22959 42890
L22940 42909
L22903 42928
L22865 42928
L22828 42909
L22809 42890
L22790 42853
L22771 42778
L22771 42684
L22790 42609
L22809 42571
L22828 42553
L22865 42534
" />
<path d="M18021 42178
L18021 41784
L18171 41784
L18209 41803
L18228 41821
L18246 41859
L18246 41915
L18228 41953
L18209 41971
L18171 41990
L18021 41990
" />
<path d="M18603 41784
L18415 41784
L18396 41971
L18415 41953
L18453 41934
L18546 41934
L18584 41953
L18603 41971
L18621 42009
L18621 42103
L18603 42140
L18584 42159
L18546 42178
L18453 42178
L18415 42159
L18396 42140
" />
<path d="M18996 42178
L18771 42178
" />
<path d="M18884 42178
L18884 41784
L18846 41840
L18809 41878
L18771 41896
" />
<path d="M18021 41428
L18021 41034
L18171 41034
L18209 41053
L18228 41071
L18246 41109
L18246 41165
L18228 41203
L18209 41221
L18171 41240
L18021 41240
" />
<path d="M18603 41034
L18415 41034
L18396 41221
L18415 41203
L18453 41184
L18546 41184
L18584 41203
L18603 41221
L18621 41259
L18621 41353
L18603 41390
L18584 41409
L18546 41428
L18453 41428
L18415 41409
L18396 41390
" />
<path d="M18771 41071
L18790 41053
L18828 41034
L18921 41034
L18959 41053
L18978 41071
L18996 41109
L18996 41146
L18978 41203
L18753 41428
L18996 41428
" />
<path d="M17778 39978
L17384 39978
L17384 39828
L17403 39790
L17421 39771
L17459 39753
L17515 39753
L17553 39771
L17571 39790
L17590 39828
L17590 39978
" />
<path d="M17384 39396
L17384 39584
L17571 39603
L17553 39584
L17534 39546
L17534 39453
L17553 39415
L17571 39396
L17609 39378
L17703 39378
L17740 39396
L17759 39415
L17778 39453
L17778 39546
L17759 39584
L17740 39603
" />
<path d="M17384 39246
L17384 39003
L17534 39134
L17534 39078
L17553 39040
L17571 39021
L17609 39003
L17703 39003
L17740 39021
L17759 39040
L17778 39078
L17778 39190
L17759 39228
L17740 39246
" />
<path d="M18021 42928
L18021 42534
L18171 42534
L18209 42553
L18228 42571
L18246 42609
L18246 42665
L18228 42703
L18209 42721
L18171 42740
L18021 42740
" />
<path d="M18603 42534
L18415 42534
L18396 42721
L18415 42703
L18453 42684
L18546 42684
L18584 42703
L18603 42721
L18621 42759
L18621 42853
L18603 42890
L18584 42909
L18546 42928
L18453 42928
L18415 42909
L18396 42890
" />
<path d="M18978 42534
L18790 42534
L18771 42721
L18790 42703
L18828 42684
L18921 42684
L18959 42703
L18978 42721
L18996 42759
L18996 42853
L18978 42890
L18959 42909
L18921 42928
L18828 42928
L18790 42909
L18771 42890
" />
<path d="M16021 42178
L16021 41784
L16171 41784
L16209 41803
L16228 41821
L16246 41859
L16246 41915
L16228 41953
L16209 41971
L16171 41990
L16021 41990
" />
<path d="M16603 41784
L16415 41784
L16396 41971
L16415 41953
L16453 41934
L16546 41934
L16584 41953
L16603 41971
L16621 42009
L16621 42103
L16603 42140
L16584 42159
L16546 42178
L16453 42178
L16415 42159
L16396 42140
" />
<path d="M16959 41784
L16884 41784
L16846 41803
L16828 41821
L16790 41878
L16771 41953
L16771 42103
L16790 42140
L16809 42159
L16846 42178
L16921 42178
L16959 42159
L16978 42140
L16996 42103
L16996 42009
L16978 41971
L16959 41953
L16921 41934
L16846 41934
L16809 41953
L16790 41971
L16771 42009
" />
<path d="M16021 41428
L16021 41034
L16171 41034
L16209 41053
L16228 41071
L16246 41109
L16246 41165
L16228 41203
L16209 41221
L16171 41240
L16021 41240
" />
<path d="M16603 41034
L16415 41034
L16396 41221
L16415 41203
L16453 41184
L16546 41184
L16584 41203
L16603 41221
L16621 41259
L16621 41353
L16603 41390
L16584 41409
L16546 41428
L16453 41428
L16415 41409
L16396 41390
" />
<path d="M16753 41034
L17015 41034
L16846 41428
" />
<path d="M15778 39978
L15384 39978
L15384 39828
L15403 39790
L15421 39771
L15459 39753
L15515 39753
L15553 39771
L15571 39790
L15590 39828
L15590 39978
" />
<path d="M15384 39396
L15384 39584
L15571 39603
L15553 39584
L15534 39546
L15534 39453
L15553 39415
L15571 39396
L15609 39378
L15703 39378
L15740 39396
L15759 39415
L15778 39453
L15778 39546
L15759 39584
L15740 39603
" />
<path d="M15778 39190
L15778 39115
L15759 39078
L15740 39059
L15684 39021
L15609 39003
L15459 39003
L15421 39021
L15403 39040
L15384 39078
L15384 39153
L15403 39190
L15421 39209
L15459 39228
L15553 39228
L15590 39209
L15609 39190
L15628 39153
L15628 39078
L15609 39040
L15590 39021
L15553 39003
" />
<path d="M14021 42928
L14021 42534
L14171 42534
L14209 42553
L14228 42571
L14246 42609
L14246 42665
L14228 42703
L14209 42721
L14171 42740
L14021 42740
" />
<path d="M14584 42534
L14509 42534
L14471 42553
L14453 42571
L14415 42628
L14396 42703
L14396 42853
L14415 42890
L14434 42909
L14471 42928
L14546 42928
L14584 42909
L14603 42890
L14621 42853
L14621 42759
L14603 42721
L14584 42703
L14546 42684
L14471 42684
L14434 42703
L14415 42721
L14396 42759
" />
<path d="M14865 42534
L14903 42534
L14940 42553
L14959 42571
L14978 42609
L14996 42684
L14996 42778
L14978 42853
L14959 42890
L14940 42909
L14903 42928
L14865 42928
L14828 42909
L14809 42890
L14790 42853
L14771 42778
L14771 42684
L14790 42609
L14809 42571
L14828 42553
L14865 42534
" />
<path d="M14021 42178
L14021 41784
L14171 41784
L14209 41803
L14228 41821
L14246 41859
L14246 41915
L14228 41953
L14209 41971
L14171 41990
L14021 41990
" />
<path d="M14584 41784
L14509 41784
L14471 41803
L14453 41821
L14415 41878
L14396 41953
L14396 42103
L14415 42140
L14434 42159
L14471 42178
L14546 42178
L14584 42159
L14603 42140
L14621 42103
L14621 42009
L14603 41971
L14584 41953
L14546 41934
L14471 41934
L14434 41953
L14415 41971
L14396 42009
" />
<path d="M14996 42178
L14771 42178
" />
<path d="M14884 42178
L14884 41784
L14846 41840
L14809 41878
L14771 41896
" />
<path d="M14021 41428
L14021 41034
L14171 41034
L14209 41053
L14228 41071
L14246 41109
L14246 41165
L14228 41203
L14209 41221
L14171 41240
L14021 41240
" />
<path d="M14584 41034
L14509 41034
L14471 41053
L14453 41071
L14415 41128
L14396 41203
L14396 41353
L14415 41390
L14434 41409
L14471 41428
L14546 41428
L14584 41409
L14603 41390
L14621 41353
L14621 41259
L14603 41221
L14584 41203
L14546 41184
L14471 41184
L14434 41203
L14415 41221
L14396 41259
" />
<path d="M14771 41071
L14790 41053
L14828 41034
L14921 41034
L14959 41053
L14978 41071
L14996 41109
L14996 41146
L14978 41203
L14753 41428
L14996 41428
" />
<path d="M13778 39978
L13384 39978
L13384 39828
L13403 39790
L13421 39771
L13459 39753
L13515 39753
L13553 39771
L13571 39790
L13590 39828
L13590 39978
" />
<path d="M13384 39415
L13384 39490
L13403 39528
L13421 39546
L13478 39584
L13553 39603
L13703 39603
L13740 39584
L13759 39565
L13778 39528
L13778 39453
L13759 39415
L13740 39396
L13703 39378
L13609 39378
L13571 39396
L13553 39415
L13534 39453
L13534 39528
L13553 39565
L13571 39584
L13609 39603
" />
<path d="M13384 39246
L13384 39003
L13534 39134
L13534 39078
L13553 39040
L13571 39021
L13609 39003
L13703 39003
L13740 39021
L13759 39040
L13778 39078
L13778 39190
L13759 39228
L13740 39246
" />
<path d="M54700 41984
L54700 42303
L54718 42340
L54737 42359
L54775 42378
L54850 42378
L54887 42359
L54906 42340
L54925 42303
L54925 41984
" />
<path d="M55318 42378
L55093 42378
" />
<path d="M55206 42378
L55206 41984
L55168 42040
L55131 42078
L55093 42096
" />
<path d="M53434 42978
L53247 42978
L53247 42584
" />
<path d="M53565 42978
L53565 42584
L53697 42865
L53828 42584
L53828 42978
" />
<path d="M54221 42978
L53997 42978
" />
<path d="M54109 42978
L54109 42584
L54071 42640
L54034 42678
L53997 42696
" />
<path d="M54596 42978
L54371 42978
" />
<path d="M54484 42978
L54484 42584
L54446 42640
L54409 42678
L54371 42696
" />
<path d="M54971 42978
L54746 42978
" />
<path d="M54859 42978
L54859 42584
L54821 42640
L54784 42678
L54746 42696
" />
<path d="M55103 42584
L55365 42584
L55196 42978
" />
<path d="M55515 42828
L55815 42828
" />
<path d="M55965 42584
L56209 42584
L56077 42734
L56134 42734
L56171 42753
L56190 42771
L56209 42809
L56209 42903
L56190 42940
L56171 42959
L56134 42978
L56021 42978
L55984 42959
L55965 42940
" />
<path d="M56377 42940
L56396 42959
L56377 42978
L56359 42959
L56377 42940
L56377 42978
" />
<path d="M56527 42584
L56771 42584
L56640 42734
L56696 42734
L56734 42753
L56752 42771
L56771 42809
L56771 42903
L56752 42940
L56734 42959
L56696 42978
L56584 42978
L56546 42959
L56527 42940
" />
<path d="M26700 41984
L26700 42303
L26718 42340
L26737 42359
L26775 42378
L26850 42378
L26887 42359
L26906 42340
L26925 42303
L26925 41984
" />
<path d="M27093 42021
L27112 42003
L27149 41984
L27243 41984
L27281 42003
L27299 42021
L27318 42059
L27318 42096
L27299 42153
L27074 42378
L27318 42378
" />
<path d="M25434 42978
L25247 42978
L25247 42584
" />
<path d="M25565 42978
L25565 42584
L25697 42865
L25828 42584
L25828 42978
" />
<path d="M26221 42978
L25997 42978
" />
<path d="M26109 42978
L26109 42584
L26071 42640
L26034 42678
L25997 42696
" />
<path d="M26596 42978
L26371 42978
" />
<path d="M26484 42978
L26484 42584
L26446 42640
L26409 42678
L26371 42696
" />
<path d="M26971 42978
L26746 42978
" />
<path d="M26859 42978
L26859 42584
L26821 42640
L26784 42678
L26746 42696
" />
<path d="M27103 42584
L27365 42584
L27196 42978
" />
<path d="M27515 42828
L27815 42828
" />
<path d="M27965 42584
L28209 42584
L28077 42734
L28134 42734
L28171 42753
L28190 42771
L28209 42809
L28209 42903
L28190 42940
L28171 42959
L28134 42978
L28021 42978
L27984 42959
L27965 42940
" />
<path d="M28377 42940
L28396 42959
L28377 42978
L28359 42959
L28377 42940
L28377 42978
" />
<path d="M28527 42584
L28771 42584
L28640 42734
L28696 42734
L28734 42753
L28752 42771
L28771 42809
L28771 42903
L28752 42940
L28734 42959
L28696 42978
L28584 42978
L28546 42959
L28527 42940
" />
<path d="M29096 43106
L29096 43893
" />
<path d="M29903 43893
L29903 43106
" />
<path d="M52096 43106
L52096 43893
" />
<path d="M52903 43893
L52903 43106
" />
<path d="M24903 43893
L24903 43106
" />
<path d="M24096 43106
L24096 43893
" />
<path d="M57096 43106
L57096 43893
" />
<path d="M57903 43893
L57903 43106
" />
<path d="M24000 44600
L30000 44600
" />
<path d="M30000 44600
L30000 37500
" />
<path d="M30000 37500
L24000 37500
" />
<path d="M24000 37500
L24000 44600
" />
<path d="M31000 44600
L37000 44600
" />
<path d="M37000 44600
L37000 37500
" />
<path d="M37000 37500
L31000 37500
" />
<path d="M31000 37500
L31000 44600
" />
<path d="M38000 44600
L44000 44600
" />
<path d="M44000 44600
L44000 37500
" />
<path d="M44000 37500
L38000 37500
" />
<path d="M38000 37500
L38000 44600
" />
<path d="M45000 44600
L51000 44600
" />
<path d="M51000 44600
L51000 37500
" />
<path d="M51000 37500
L45000 37500
" />
<path d="M45000 37500
L45000 44600
" />
<path d="M52000 44600
L58000 44600
" />
<path d="M58000 44600
L58000 37500
" />
<path d="M58000 37500
L52000 37500
" />
<path d="M52000 37500
L52000 44600
" />
<path d="M60000 40500
L60000 37500
" />
<path d="M59000 40500
L59000 37500
" />
<path d="M59000 41500
L59000 40500
" />
<path d="M60000 37500
L59000 37500
" />
<path d="M59000 40500
L60000 40500
" />
<path d="M59000 41500
L60000 41500
" />
<path d="M60000 41500
L60000 40500
" />
<path d="M62000 40500
L62000 37500
" />
<path d="M61000 40500
L61000 37500
" />
<path d="M61000 41500
L61000 40500
" />
<path d="M62000 37500
L61000 37500
" />
<path d="M61000 40500
L62000 40500
" />
<path d="M61000 41500
L62000 41500
" />
<path d="M62000 41500
L62000 40500
" />
<path d="M64000 40500
L64000 37500
" />
<path d="M63000 40500
L63000 37500
" />
<path d="M63000 41500
L63000 40500
" />
<path d="M64000 37500
L63000 37500
" />
<path d="M63000 40500
L64000 40500
" />
<path d="M63000 41500
L64000 41500
" />
<path d="M64000 41500
L64000 40500
" />
<path d="M66000 40500
L66000 37500
" />
<path d="M65000 40500
L65000 37500
" />
<path d="M65000 41500
L65000 40500
" />
<path d="M66000 37500
L65000 37500
" />
<path d="M65000 40500
L66000 40500
" />
<path d="M65000 41500
L66000 41500
" />
<path d="M66000 41500
L66000 40500
" />
<path d="M68000 40500
L68000 37500
" />
<path d="M67000 40500
L67000 37500
" />
<path d="M67000 41500
L67000 40500
" />
<path d="M68000 37500
L67000 37500
" />
<path d="M67000 40500
L68000 40500
" />
<path d="M67000 41500
L68000 41500
" />
<path d="M68000 41500
L68000 40500
" />
<path d="M23000 40500
L23000 37500
" />
<path d="M22000 40500
L22000 37500
" />
<path d="M22000 41500
L22000 40500
" />
<path d="M23000 37500
L22000 37500
" />
<path d="M22000 40500
L23000 40500
" />
<path d="M22000 41500
L23000 41500
" />
<path d="M23000 41500
L23000 40500
" />
<path d="M21000 40500
L21000 37500
" />
<path d="M20000 40500
L20000 37500
" />
<path d="M20000 41500
L20000 40500
" />
<path d="M21000 37500
L20000 37500
" />
<path d="M20000 40500
L21000 40500
" />
<path d="M20000 41500
L21000 41500
" />
<path d="M21000 41500
L21000 40500
" />
<path d="M19000 40500
L19000 37500
" />
<path d="M18000 40500
L18000 37500
" />
<path d="M18000 41500
L18000 40500
" />
<path d="M19000 37500
L18000 37500
" />
<path d="M18000 40500
L19000 40500
" />
<path d="M18000 41500
L19000 41500
" />
<path d="M19000 41500
L19000 40500
" />
<path d="M17000 40500
L17000 37500
" />
<path d="M16000 40500
L16000 37500
" />
<path d="M16000 41500
L16000 40500
" />
<path d="M17000 37500
L16000 37500
" />
<path d="M16000 40500
L17000 40500
" />
<path d="M16000 41500
L17000 41500
" />
<path d="M17000 41500
L17000 40500
" />
<path d="M15000 40500
L15000 37500
" />
<path d="M14000 40500
L14000 37500
" />
<path d="M14000 41500
L14000 40500
" />
<path d="M15000 37500
L14000 37500
" />
<path d="M14000 40500
L15000 40500
" />
<path d="M14000 41500
L15000 41500
" />
<path d="M15000 41500
L15000 40500
" />
<path d="M53600 43100
L53600 44300
" />
<path d="M53600 44300
L56400 44300
" />
<path d="M56400 44300
L56400 43100
" />
<path d="M53600 41900
L53600 41600
" />
<path d="M53600 41600
L54200 40700
" />
<path d="M54200 40700
L55800 40700
" />
<path d="M55800 40700
L56400 41600
" />
<path d="M56400 41600
L56400 41900
" />
<path d="M25600 43100
L25600 44300
" />
<path d="M25600 44300
L28400 44300
" />
<path d="M28400 44300
L28400 43100
" />
<path d="M25600 41900
L25600 41600
" />
<path d="M25600 41600
L26200 40700
" />
<path d="M26200 40700
L27800 40700
" />
<path d="M27800 40700
L28400 41600
" />
<path d="M28400 41600
L28400 41900
" />
</g>
<g style="fill:#840000; fill-opacity:0.0; 
stroke:#840000; stroke-width:39.3701; stroke-opacity:1; 
stroke-linecap:round; stroke-linejoin:round;">
</g>
<g style="fill:#840000; fill-opacity:1.0; 
stroke:#840000; stroke-width:39.3701; stroke-opacity:1; 
stroke-linecap:round; stroke-linejoin:round;">
<circle cx="29338" cy="41500" r="698.815" /> 
<circle cx="24665" cy="41500" r="698.815" /> 
<polyline style="fill-rule:evenodd;"
points="24974,39275
24974,38724
25525,38724
25525,39275
24974,39275
" /> 
<circle cx="25750" cy="38000" r="275.815" /> 
<circle cx="26250" cy="39000" r="275.815" /> 
<circle cx="26750" cy="38000" r="275.815" /> 
<circle cx="27250" cy="39000" r="275.815" /> 
<circle cx="27750" cy="38000" r="275.815" /> 
<circle cx="28250" cy="39000" r="275.815" /> 
<circle cx="28750" cy="38000" r="275.815" /> 
<circle cx="36338" cy="41500" r="698.815" /> 
<circle cx="31665" cy="41500" r="698.815" /> 
<polyline style="fill-rule:evenodd;"
points="31974,39275
31974,38724
32525,38724
32525,39275
31974,39275
" /> 
<circle cx="32750" cy="38000" r="275.815" /> 
<circle cx="33250" cy="39000" r="275.815" /> 
<circle cx="33750" cy="38000" r="275.815" /> 
<circle cx="34250" cy="39000" r="275.815" /> 
<circle cx="34750" cy="38000" r="275.815" /> 
<circle cx="35250" cy="39000" r="275.815" /> 
<circle cx="35750" cy="38000" r="275.815" /> 
<circle cx="43338" cy="41500" r="698.815" /> 
<circle cx="38665" cy="41500" r="698.815" /> 
<polyline style="fill-rule:evenodd;"
points="38974,39275
38974,38724
39525,38724
39525,39275
38974,39275
" /> 
<circle cx="39750" cy="38000" r="275.815" /> 
<circle cx="40250" cy="39000" r="275.815" /> 
<circle cx="40750" cy="38000" r="275.815" /> 
<circle cx="41250" cy="39000" r="275.815" /> 
<circle cx="41750" cy="38000" r="275.815" /> 
<circle cx="42250" cy="39000" r="275.815" /> 
<circle cx="42750" cy="38000" r="275.815" /> 
<circle cx="50338" cy="41500" r="698.815" /> 
<circle cx="45665" cy="41500" r="698.815" /> 
<polyline style="fill-rule:evenodd;"
points="45974,39275
45974,38724
46525,38724
46525,39275
45974,39275
" /> 
<circle cx="46750" cy="38000" r="275.815" /> 
<circle cx="47250" cy="39000" r="275.815" /> 
<circle cx="47750" cy="38000" r="275.815" /> 
<circle cx="48250" cy="39000" r="275.815" /> 
<circle cx="48750" cy="38000" r="275.815" /> 
<circle cx="49250" cy="39000" r="275.815" /> 
<circle cx="49750" cy="38000" r="275.815" /> 
<circle cx="57338" cy="41500" r="698.815" /> 
<circle cx="52665" cy="41500" r="698.815" /> 
<polyline style="fill-rule:evenodd;"
points="52974,39275
52974,38724
53525,38724
53525,39275
52974,39275
" /> 
<circle cx="53750" cy="38000" r="275.815" /> 
<circle cx="54250" cy="39000" r="275.815" /> 
<circle cx="54750" cy="38000" r="275.815" /> 
<circle cx="55250" cy="39000" r="275.815" /> 
<circle cx="55750" cy="38000" r="275.815" /> 
<circle cx="56250" cy="39000" r="275.815" /> 
<circle cx="56750" cy="38000" r="275.815" /> 
<polyline style="fill-rule:evenodd;"
points="59880,41320
59119,41320
59119,40679
59880,40679
59880,41320
" /> 
</g>
<g style="fill:#840000; fill-opacity:1.0; 
stroke:#840000; stroke-width:680; stroke-opacity:1; 
stroke-linecap:round; stroke-linejoin:round;">
</g>
<g style="fill:#840000; fill-opacity:0.0; 
stroke:#840000; stroke-width:680; stroke-opacity:1; 
stroke-linecap:round; stroke-linejoin:round;">
<path d="M59440 40000
L59560 40000
" />
<path d="M59440 39000
L59560 39000
" />
<path d="M59440 38000
L59560 38000
" />
</g>
<g style="fill:#840000; fill-opacity:0.0; 
stroke:#840000; stroke-width:39.3701; stroke-opacity:1; 
stroke-linecap:round; stroke-linejoin:round;">
</g>
<g style="fill:#840000; fill-opacity:1.0; 
stroke:#840000; stroke-width:39.3701; stroke-opacity:1; 
stroke-linecap:round; stroke-linejoin:round;">
<polyline style="fill-rule:evenodd;"
points="61880,41320
61119,41320
61119,40679
61880,40679
61880,41320
" /> 
</g>
<g style="fill:#840000; fill-opacity:1.0; 
stroke:#840000; stroke-width:680; stroke-opacity:1; 
stroke-linecap:round; stroke-linejoin:round;">
</g>
<g style="fill:#840000; fill-opacity:0.0; 
stroke:#840000; stroke-width:680; stroke-opacity:1; 
stroke-linecap:round; stroke-linejoin:round;">
<path d="M61440 40000
L61560 40000
" />
<path d="M61440 39000
L61560 39000
" />
<path d="M61440 38000
L61560 38000
" />
</g>
<g style="fill:#840000; fill-opacity:0.0; 
stroke:#840000; stroke-width:39.3701; stroke-opacity:1; 
stroke-linecap:round; stroke-linejoin:round;">
</g>
<g style="fill:#840000; fill-opacity:1.0; 
stroke:#840000; stroke-width:39.3701; stroke-opacity:1; 
stroke-linecap:round; stroke-linejoin:round;">
<polyline style="fill-rule:evenodd;"
points="63880,41320
63119,41320
63119,40679
63880,40679
63880,41320
" /> 
</g>
<g style="fill:#840000; fill-opacity:1.0; 
stroke:#840000; stroke-width:680; stroke-opacity:1; 
stroke-linecap:round; stroke-linejoin:round;">
</g>
<g style="fill:#840000; fill-opacity:0.0; 
stroke:#840000; stroke-width:680; stroke-opacity:1; 
stroke-linecap:round; stroke-linejoin:round;">
<path d="M63440 40000
L63560 40000
" />
<path d="M63440 39000
L63560 39000
" />
<path d="M63440 38000
L63560 38000
" />
</g>
<g style="fill:#840000; fill-opacity:0.0; 
stroke:#840000; stroke-width:39.3701; stroke-opacity:1; 
stroke-linecap:round; stroke-linejoin:round;">
</g>
<g style="fill:#840000; fill-opacity:1.0; 
stroke:#840000; stroke-width:39.3701; stroke-opacity:1; 
stroke-linecap:round; stroke-linejoin:round;">
<polyline style="fill-rule:evenodd;"
points="65880,41320
65119,41320
65119,40679
65880,40679
65880,41320
" /> 
</g>
<g style="fill:#840000; fill-opacity:1.0; 
stroke:#840000; stroke-width:680; stroke-opacity:1; 
stroke-linecap:round; stroke-linejoin:round;">
</g>
<g style="fill:#840000; fill-opacity:0.0; 
stroke:#840000; stroke-width:680; stroke-opacity:1; 
stroke-linecap:round; stroke-linejoin:round;">
<path d="M65440 40000
L65560 40000
" />
<path d="M65440 39000
L65560 39000
" />
<path d="M65440 38000
L65560 38000
" />
</g>
<g style="fill:#840000; fill-opacity:0.0; 
stroke:#840000; stroke-width:39.3701; stroke-opacity:1; 
stroke-linecap:round; stroke-linejoin:round;">
</g>
<g style="fill:#840000; fill-opacity:1.0; 
stroke:#840000; stroke-width:39.3701; stroke-opacity:1; 
stroke-linecap:round; stroke-linejoin:round;">
<polyline style="fill-rule:evenodd;"
points="67880,41320
67119,41320
67119,40679
67880,40679
67880,41320
" /> 
</g>
<g style="fill:#840000; fill-opacity:1.0; 
stroke:#840000; stroke-width:680; stroke-opacity:1; 
stroke-linecap:round; stroke-linejoin:round;">
</g>
<g style="fill:#840000; fill-opacity:0.0; 
stroke:#840000; stroke-width:680; stroke-opacity:1; 
stroke-linecap:round; stroke-linejoin:round;">
<path d="M67440 40000
L67560 40000
" />
<path d="M67440 39000
L67560 39000
" />
<path d="M67440 38000
L67560 38000
" />
</g>
<g style="fill:#840000; fill-opacity:0.0; 
stroke:#840000; stroke-width:39.3701; stroke-opacity:1; 
stroke-linecap:round; stroke-linejoin:round;">
</g>
<g style="fill:#840000; fill-opacity:1.0; 
stroke:#840000; stroke-width:39.3701; stroke-opacity:1; 
stroke-linecap:round; stroke-linejoin:round;">
<polyline style="fill-rule:evenodd;"
points="22880,41320
22119,41320
22119,40679
22880,40679
22880,41320
" /> 
</g>
<g style="fill:#840000; fill-opacity:1.0; 
stroke:#840000; stroke-width:680; stroke-opacity:1; 
stroke-linecap:round; stroke-linejoin:round;">
</g>
<g style="fill:#840000; fill-opacity:0.0; 
stroke:#840000; stroke-width:680; stroke-opacity:1; 
stroke-linecap:round; stroke-linejoin:round;">
<path d="M22440 40000
L22560 40000
" />
<path d="M22440 39000
L22560 39000
" />
<path d="M22440 38000
L22560 38000
" />
</g>
<g style="fill:#840000; fill-opacity:0.0; 
stroke:#840000; stroke-width:39.3701; stroke-opacity:1; 
stroke-linecap:round; stroke-linejoin:round;">
</g>
<g style="fill:#840000; fill-opacity:1.0; 
stroke:#840000; stroke-width:39.3701; stroke-opacity:1; 
stroke-linecap:round; stroke-linejoin:round;">
<polyline style="fill-rule:evenodd;"
points="20880,41320
20119,41320
20119,40679
20880,40679
20880,41320
" /> 
</g>
<g style="fill:#840000; fill-opacity:1.0; 
stroke:#840000; stroke-width:680; stroke-opacity:1; 
stroke-linecap:round; stroke-linejoin:round;">
</g>
<g style="fill:#840000; fill-opacity:0.0; 
stroke:#840000; stroke-width:680; stroke-opacity:1; 
stroke-linecap:round; stroke-linejoin:round;">
<path d="M20440 40000
L20560 40000
" />
<path d="M20440 39000
L20560 39000
" />
<path d="M20440 38000
L20560 38000
" />
</g>
<g style="fill:#840000; fill-opacity:0.0; 
stroke:#840000; stroke-width:39.3701; stroke-opacity:1; 
stroke-linecap:round; stroke-linejoin:round;">
</g>
<g style="fill:#840000; fill-opacity:1.0; 
stroke:#840000; stroke-width:39.3701; stroke-opacity:1; 
stroke-linecap:round; stroke-linejoin:round;">
<polyline style="fill-rule:evenodd;"
points="18880,41320
18119,41320
18119,40679
18880,40679
18880,41320
" /> 
</g>
<g style="fill:#840000; fill-opacity:1.0; 
stroke:#840000; stroke-width:680; stroke-opacity:1; 
stroke-linecap:round; stroke-linejoin:round;">
</g>
<g style="fill:#840000; fill-opacity:0.0; 
stroke:#840000; stroke-width:680; stroke-opacity:1; 
stroke-linecap:round; stroke-linejoin:round;">
<path d="M18440 40000
L18560 40000
" />
<path d="M18440 39000
L18560 39000
" />
<path d="M18440 38000
L18560 38000
" />
</g>
<g style="fill:#840000; fill-opacity:0.0; 
stroke:#840000; stroke-width:39.3701; stroke-opacity:1; 
stroke-linecap:round; stroke-linejoin:round;">
</g>
<g style="fill:#840000; fill-opacity:1.0; 
stroke:#840000; stroke-width:39.3701; stroke-opacity:1; 
stroke-linecap:round; stroke-linejoin:round;">
<polyline style="fill-rule:evenodd;"
points="16880,41320
16119,41320
16119,40679
16880,40679
16880,41320
" /> 
</g>
<g style="fill:#840000; fill-opacity:1.0; 
stroke:#840000; stroke-width:680; stroke-opacity:1; 
stroke-linecap:round; stroke-linejoin:round;">
</g>
<g style="fill:#840000; fill-opacity:0.0; 
stroke:#840000; stroke-width:680; stroke-opacity:1; 
stroke-linecap:round; stroke-linejoin:round;">
<path d="M16440 40000
L16560 40000
" />
<path d="M16440 39000
L16560 39000
" />
<path d="M16440 38000
L16560 38000
" />
</g>
<g style="fill:#840000; fill-opacity:0.0; 
stroke:#840000; stroke-width:39.3701; stroke-opacity:1; 
stroke-linecap:round; stroke-linejoin:round;">
</g>
<g style="fill:#840000; fill-opacity:1.0; 
stroke:#840000; stroke-width:39.3701; stroke-opacity:1; 
stroke-linecap:round; stroke-linejoin:round;">
<polyline style="fill-rule:evenodd;"
points="14880,41320
14119,41320
14119,40679
14880,40679
14880,41320
" /> 
</g>
<g style="fill:#840000; fill-opacity:1.0; 
stroke:#840000; stroke-width:680; stroke-opacity:1; 
stroke-linecap:round; stroke-linejoin:round;">
</g>
<g style="fill:#840000; fill-opacity:0.0; 
stroke:#840000; stroke-width:680; stroke-opacity:1; 
stroke-linecap:round; stroke-linejoin:round;">
<path d="M14440 40000
L14560 40000
" />
<path d="M14440 39000
L14560 39000
" />
<path d="M14440 38000
L14560 38000
" />
</g> 
</svg>
