G04 #@! TF.FileFunction,Legend,Top*
%FSLAX46Y46*%
G04 Gerber Fmt 4.6, Leading zero omitted, Abs format (unit mm)*
G04 Created by KiCad (PCBNEW 0.201509251832+6217~30~ubuntu14.04.1-product) date gio 08 ott 2015 22:49:46 CEST*
%MOMM*%
G01*
G04 APERTURE LIST*
%ADD10C,0.100000*%
%ADD11C,0.400000*%
%ADD12C,0.200000*%
%ADD13C,0.127000*%
%ADD14C,0.200660*%
%ADD15C,0.160000*%
G04 APERTURE END LIST*
D10*
D11*
X95925714Y-111212143D02*
X95925714Y-109212143D01*
X95925714Y-109783571D02*
X96068571Y-109497857D01*
X96211428Y-109355000D01*
X96497142Y-109212143D01*
X96782857Y-109212143D01*
X97782857Y-111212143D02*
X97782857Y-109212143D01*
X97782857Y-109497857D02*
X97925714Y-109355000D01*
X98211428Y-109212143D01*
X98640000Y-109212143D01*
X98925714Y-109355000D01*
X99068571Y-109640714D01*
X99068571Y-111212143D01*
X99068571Y-109640714D02*
X99211428Y-109355000D01*
X99497142Y-109212143D01*
X99925714Y-109212143D01*
X100211428Y-109355000D01*
X100354285Y-109640714D01*
X100354285Y-111212143D01*
X103068571Y-111212143D02*
X103068571Y-109640714D01*
X102925714Y-109355000D01*
X102640000Y-109212143D01*
X102068571Y-109212143D01*
X101782857Y-109355000D01*
X103068571Y-111069286D02*
X102782857Y-111212143D01*
X102068571Y-111212143D01*
X101782857Y-111069286D01*
X101640000Y-110783571D01*
X101640000Y-110497857D01*
X101782857Y-110212143D01*
X102068571Y-110069286D01*
X102782857Y-110069286D01*
X103068571Y-109926429D01*
X104497143Y-109212143D02*
X104497143Y-112212143D01*
X104497143Y-109355000D02*
X104782857Y-109212143D01*
X105354286Y-109212143D01*
X105640000Y-109355000D01*
X105782857Y-109497857D01*
X105925714Y-109783571D01*
X105925714Y-110640714D01*
X105782857Y-110926429D01*
X105640000Y-111069286D01*
X105354286Y-111212143D01*
X104782857Y-111212143D01*
X104497143Y-111069286D01*
X107211429Y-110926429D02*
X107354286Y-111069286D01*
X107211429Y-111212143D01*
X107068572Y-111069286D01*
X107211429Y-110926429D01*
X107211429Y-111212143D01*
X109925714Y-111069286D02*
X109640000Y-111212143D01*
X109068571Y-111212143D01*
X108782857Y-111069286D01*
X108640000Y-110926429D01*
X108497143Y-110640714D01*
X108497143Y-109783571D01*
X108640000Y-109497857D01*
X108782857Y-109355000D01*
X109068571Y-109212143D01*
X109640000Y-109212143D01*
X109925714Y-109355000D01*
X112497143Y-111069286D02*
X112211429Y-111212143D01*
X111640000Y-111212143D01*
X111354286Y-111069286D01*
X111211429Y-110926429D01*
X111068572Y-110640714D01*
X111068572Y-109783571D01*
X111211429Y-109497857D01*
X111354286Y-109355000D01*
X111640000Y-109212143D01*
X112211429Y-109212143D01*
X112497143Y-109355000D01*
D12*
X62039524Y-99147381D02*
X61563333Y-99147381D01*
X61515714Y-99623571D01*
X61563333Y-99575952D01*
X61658571Y-99528333D01*
X61896667Y-99528333D01*
X61991905Y-99575952D01*
X62039524Y-99623571D01*
X62087143Y-99718810D01*
X62087143Y-99956905D01*
X62039524Y-100052143D01*
X61991905Y-100099762D01*
X61896667Y-100147381D01*
X61658571Y-100147381D01*
X61563333Y-100099762D01*
X61515714Y-100052143D01*
X62372857Y-99147381D02*
X62706190Y-100147381D01*
X63039524Y-99147381D01*
X79565524Y-99020381D02*
X79089333Y-99020381D01*
X79041714Y-99496571D01*
X79089333Y-99448952D01*
X79184571Y-99401333D01*
X79422667Y-99401333D01*
X79517905Y-99448952D01*
X79565524Y-99496571D01*
X79613143Y-99591810D01*
X79613143Y-99829905D01*
X79565524Y-99925143D01*
X79517905Y-99972762D01*
X79422667Y-100020381D01*
X79184571Y-100020381D01*
X79089333Y-99972762D01*
X79041714Y-99925143D01*
X79898857Y-99020381D02*
X80232190Y-100020381D01*
X80565524Y-99020381D01*
X85375905Y-100290381D02*
X85994953Y-100290381D01*
X85661619Y-100671333D01*
X85804477Y-100671333D01*
X85899715Y-100718952D01*
X85947334Y-100766571D01*
X85994953Y-100861810D01*
X85994953Y-101099905D01*
X85947334Y-101195143D01*
X85899715Y-101242762D01*
X85804477Y-101290381D01*
X85518762Y-101290381D01*
X85423524Y-101242762D01*
X85375905Y-101195143D01*
X86280667Y-100290381D02*
X86614000Y-101290381D01*
X86947334Y-100290381D01*
X87185429Y-100290381D02*
X87804477Y-100290381D01*
X87471143Y-100671333D01*
X87614001Y-100671333D01*
X87709239Y-100718952D01*
X87756858Y-100766571D01*
X87804477Y-100861810D01*
X87804477Y-101099905D01*
X87756858Y-101195143D01*
X87709239Y-101242762D01*
X87614001Y-101290381D01*
X87328286Y-101290381D01*
X87233048Y-101242762D01*
X87185429Y-101195143D01*
X67595905Y-100798381D02*
X68214953Y-100798381D01*
X67881619Y-101179333D01*
X68024477Y-101179333D01*
X68119715Y-101226952D01*
X68167334Y-101274571D01*
X68214953Y-101369810D01*
X68214953Y-101607905D01*
X68167334Y-101703143D01*
X68119715Y-101750762D01*
X68024477Y-101798381D01*
X67738762Y-101798381D01*
X67643524Y-101750762D01*
X67595905Y-101703143D01*
X68500667Y-100798381D02*
X68834000Y-101798381D01*
X69167334Y-100798381D01*
X69405429Y-100798381D02*
X70024477Y-100798381D01*
X69691143Y-101179333D01*
X69834001Y-101179333D01*
X69929239Y-101226952D01*
X69976858Y-101274571D01*
X70024477Y-101369810D01*
X70024477Y-101607905D01*
X69976858Y-101703143D01*
X69929239Y-101750762D01*
X69834001Y-101798381D01*
X69548286Y-101798381D01*
X69453048Y-101750762D01*
X69405429Y-101703143D01*
X97599524Y-99020381D02*
X97123333Y-99020381D01*
X97075714Y-99496571D01*
X97123333Y-99448952D01*
X97218571Y-99401333D01*
X97456667Y-99401333D01*
X97551905Y-99448952D01*
X97599524Y-99496571D01*
X97647143Y-99591810D01*
X97647143Y-99829905D01*
X97599524Y-99925143D01*
X97551905Y-99972762D01*
X97456667Y-100020381D01*
X97218571Y-100020381D01*
X97123333Y-99972762D01*
X97075714Y-99925143D01*
X97932857Y-99020381D02*
X98266190Y-100020381D01*
X98599524Y-99020381D01*
X102901905Y-100544381D02*
X103520953Y-100544381D01*
X103187619Y-100925333D01*
X103330477Y-100925333D01*
X103425715Y-100972952D01*
X103473334Y-101020571D01*
X103520953Y-101115810D01*
X103520953Y-101353905D01*
X103473334Y-101449143D01*
X103425715Y-101496762D01*
X103330477Y-101544381D01*
X103044762Y-101544381D01*
X102949524Y-101496762D01*
X102901905Y-101449143D01*
X103806667Y-100544381D02*
X104140000Y-101544381D01*
X104473334Y-100544381D01*
X104711429Y-100544381D02*
X105330477Y-100544381D01*
X104997143Y-100925333D01*
X105140001Y-100925333D01*
X105235239Y-100972952D01*
X105282858Y-101020571D01*
X105330477Y-101115810D01*
X105330477Y-101353905D01*
X105282858Y-101449143D01*
X105235239Y-101496762D01*
X105140001Y-101544381D01*
X104854286Y-101544381D01*
X104759048Y-101496762D01*
X104711429Y-101449143D01*
X115379524Y-98766381D02*
X114903333Y-98766381D01*
X114855714Y-99242571D01*
X114903333Y-99194952D01*
X114998571Y-99147333D01*
X115236667Y-99147333D01*
X115331905Y-99194952D01*
X115379524Y-99242571D01*
X115427143Y-99337810D01*
X115427143Y-99575905D01*
X115379524Y-99671143D01*
X115331905Y-99718762D01*
X115236667Y-99766381D01*
X114998571Y-99766381D01*
X114903333Y-99718762D01*
X114855714Y-99671143D01*
X115712857Y-98766381D02*
X116046190Y-99766381D01*
X116379524Y-98766381D01*
X121316905Y-100417381D02*
X121935953Y-100417381D01*
X121602619Y-100798333D01*
X121745477Y-100798333D01*
X121840715Y-100845952D01*
X121888334Y-100893571D01*
X121935953Y-100988810D01*
X121935953Y-101226905D01*
X121888334Y-101322143D01*
X121840715Y-101369762D01*
X121745477Y-101417381D01*
X121459762Y-101417381D01*
X121364524Y-101369762D01*
X121316905Y-101322143D01*
X122221667Y-100417381D02*
X122555000Y-101417381D01*
X122888334Y-100417381D01*
X123126429Y-100417381D02*
X123745477Y-100417381D01*
X123412143Y-100798333D01*
X123555001Y-100798333D01*
X123650239Y-100845952D01*
X123697858Y-100893571D01*
X123745477Y-100988810D01*
X123745477Y-101226905D01*
X123697858Y-101322143D01*
X123650239Y-101369762D01*
X123555001Y-101417381D01*
X123269286Y-101417381D01*
X123174048Y-101369762D01*
X123126429Y-101322143D01*
X133210324Y-99071181D02*
X132734133Y-99071181D01*
X132686514Y-99547371D01*
X132734133Y-99499752D01*
X132829371Y-99452133D01*
X133067467Y-99452133D01*
X133162705Y-99499752D01*
X133210324Y-99547371D01*
X133257943Y-99642610D01*
X133257943Y-99880705D01*
X133210324Y-99975943D01*
X133162705Y-100023562D01*
X133067467Y-100071181D01*
X132829371Y-100071181D01*
X132734133Y-100023562D01*
X132686514Y-99975943D01*
X133543657Y-99071181D02*
X133876990Y-100071181D01*
X134210324Y-99071181D01*
X138461905Y-101052381D02*
X139080953Y-101052381D01*
X138747619Y-101433333D01*
X138890477Y-101433333D01*
X138985715Y-101480952D01*
X139033334Y-101528571D01*
X139080953Y-101623810D01*
X139080953Y-101861905D01*
X139033334Y-101957143D01*
X138985715Y-102004762D01*
X138890477Y-102052381D01*
X138604762Y-102052381D01*
X138509524Y-102004762D01*
X138461905Y-101957143D01*
X139366667Y-101052381D02*
X139700000Y-102052381D01*
X140033334Y-101052381D01*
X140271429Y-101052381D02*
X140890477Y-101052381D01*
X140557143Y-101433333D01*
X140700001Y-101433333D01*
X140795239Y-101480952D01*
X140842858Y-101528571D01*
X140890477Y-101623810D01*
X140890477Y-101861905D01*
X140842858Y-101957143D01*
X140795239Y-102004762D01*
X140700001Y-102052381D01*
X140414286Y-102052381D01*
X140319048Y-102004762D01*
X140271429Y-101957143D01*
X153479524Y-110704381D02*
X153003333Y-110704381D01*
X152955714Y-111180571D01*
X153003333Y-111132952D01*
X153098571Y-111085333D01*
X153336667Y-111085333D01*
X153431905Y-111132952D01*
X153479524Y-111180571D01*
X153527143Y-111275810D01*
X153527143Y-111513905D01*
X153479524Y-111609143D01*
X153431905Y-111656762D01*
X153336667Y-111704381D01*
X153098571Y-111704381D01*
X153003333Y-111656762D01*
X152955714Y-111609143D01*
X153812857Y-110704381D02*
X154146190Y-111704381D01*
X154479524Y-110704381D01*
X152336667Y-108926381D02*
X152670000Y-109926381D01*
X153003334Y-108926381D01*
X153908096Y-109831143D02*
X153860477Y-109878762D01*
X153717620Y-109926381D01*
X153622382Y-109926381D01*
X153479524Y-109878762D01*
X153384286Y-109783524D01*
X153336667Y-109688286D01*
X153289048Y-109497810D01*
X153289048Y-109354952D01*
X153336667Y-109164476D01*
X153384286Y-109069238D01*
X153479524Y-108974000D01*
X153622382Y-108926381D01*
X153717620Y-108926381D01*
X153860477Y-108974000D01*
X153908096Y-109021619D01*
X154908096Y-109831143D02*
X154860477Y-109878762D01*
X154717620Y-109926381D01*
X154622382Y-109926381D01*
X154479524Y-109878762D01*
X154384286Y-109783524D01*
X154336667Y-109688286D01*
X154289048Y-109497810D01*
X154289048Y-109354952D01*
X154336667Y-109164476D01*
X154384286Y-109069238D01*
X154479524Y-108974000D01*
X154622382Y-108926381D01*
X154717620Y-108926381D01*
X154860477Y-108974000D01*
X154908096Y-109021619D01*
X152431905Y-106894381D02*
X153050953Y-106894381D01*
X152717619Y-107275333D01*
X152860477Y-107275333D01*
X152955715Y-107322952D01*
X153003334Y-107370571D01*
X153050953Y-107465810D01*
X153050953Y-107703905D01*
X153003334Y-107799143D01*
X152955715Y-107846762D01*
X152860477Y-107894381D01*
X152574762Y-107894381D01*
X152479524Y-107846762D01*
X152431905Y-107799143D01*
X153336667Y-106894381D02*
X153670000Y-107894381D01*
X154003334Y-106894381D01*
X154241429Y-106894381D02*
X154860477Y-106894381D01*
X154527143Y-107275333D01*
X154670001Y-107275333D01*
X154765239Y-107322952D01*
X154812858Y-107370571D01*
X154860477Y-107465810D01*
X154860477Y-107703905D01*
X154812858Y-107799143D01*
X154765239Y-107846762D01*
X154670001Y-107894381D01*
X154384286Y-107894381D01*
X154289048Y-107846762D01*
X154241429Y-107799143D01*
X53276667Y-108672381D02*
X53610000Y-109672381D01*
X53943334Y-108672381D01*
X54848096Y-109577143D02*
X54800477Y-109624762D01*
X54657620Y-109672381D01*
X54562382Y-109672381D01*
X54419524Y-109624762D01*
X54324286Y-109529524D01*
X54276667Y-109434286D01*
X54229048Y-109243810D01*
X54229048Y-109100952D01*
X54276667Y-108910476D01*
X54324286Y-108815238D01*
X54419524Y-108720000D01*
X54562382Y-108672381D01*
X54657620Y-108672381D01*
X54800477Y-108720000D01*
X54848096Y-108767619D01*
X55848096Y-109577143D02*
X55800477Y-109624762D01*
X55657620Y-109672381D01*
X55562382Y-109672381D01*
X55419524Y-109624762D01*
X55324286Y-109529524D01*
X55276667Y-109434286D01*
X55229048Y-109243810D01*
X55229048Y-109100952D01*
X55276667Y-108910476D01*
X55324286Y-108815238D01*
X55419524Y-108720000D01*
X55562382Y-108672381D01*
X55657620Y-108672381D01*
X55800477Y-108720000D01*
X55848096Y-108767619D01*
X169735524Y-110704381D02*
X169259333Y-110704381D01*
X169211714Y-111180571D01*
X169259333Y-111132952D01*
X169354571Y-111085333D01*
X169592667Y-111085333D01*
X169687905Y-111132952D01*
X169735524Y-111180571D01*
X169783143Y-111275810D01*
X169783143Y-111513905D01*
X169735524Y-111609143D01*
X169687905Y-111656762D01*
X169592667Y-111704381D01*
X169354571Y-111704381D01*
X169259333Y-111656762D01*
X169211714Y-111609143D01*
X170068857Y-110704381D02*
X170402190Y-111704381D01*
X170735524Y-110704381D01*
X168687905Y-106640381D02*
X169306953Y-106640381D01*
X168973619Y-107021333D01*
X169116477Y-107021333D01*
X169211715Y-107068952D01*
X169259334Y-107116571D01*
X169306953Y-107211810D01*
X169306953Y-107449905D01*
X169259334Y-107545143D01*
X169211715Y-107592762D01*
X169116477Y-107640381D01*
X168830762Y-107640381D01*
X168735524Y-107592762D01*
X168687905Y-107545143D01*
X169592667Y-106640381D02*
X169926000Y-107640381D01*
X170259334Y-106640381D01*
X170497429Y-106640381D02*
X171116477Y-106640381D01*
X170783143Y-107021333D01*
X170926001Y-107021333D01*
X171021239Y-107068952D01*
X171068858Y-107116571D01*
X171116477Y-107211810D01*
X171116477Y-107449905D01*
X171068858Y-107545143D01*
X171021239Y-107592762D01*
X170926001Y-107640381D01*
X170640286Y-107640381D01*
X170545048Y-107592762D01*
X170497429Y-107545143D01*
X168592667Y-108672381D02*
X168926000Y-109672381D01*
X169259334Y-108672381D01*
X170164096Y-109577143D02*
X170116477Y-109624762D01*
X169973620Y-109672381D01*
X169878382Y-109672381D01*
X169735524Y-109624762D01*
X169640286Y-109529524D01*
X169592667Y-109434286D01*
X169545048Y-109243810D01*
X169545048Y-109100952D01*
X169592667Y-108910476D01*
X169640286Y-108815238D01*
X169735524Y-108720000D01*
X169878382Y-108672381D01*
X169973620Y-108672381D01*
X170116477Y-108720000D01*
X170164096Y-108767619D01*
X171164096Y-109577143D02*
X171116477Y-109624762D01*
X170973620Y-109672381D01*
X170878382Y-109672381D01*
X170735524Y-109624762D01*
X170640286Y-109529524D01*
X170592667Y-109434286D01*
X170545048Y-109243810D01*
X170545048Y-109100952D01*
X170592667Y-108910476D01*
X170640286Y-108815238D01*
X170735524Y-108720000D01*
X170878382Y-108672381D01*
X170973620Y-108672381D01*
X171116477Y-108720000D01*
X171164096Y-108767619D01*
X37020667Y-108672381D02*
X37354000Y-109672381D01*
X37687334Y-108672381D01*
X38592096Y-109577143D02*
X38544477Y-109624762D01*
X38401620Y-109672381D01*
X38306382Y-109672381D01*
X38163524Y-109624762D01*
X38068286Y-109529524D01*
X38020667Y-109434286D01*
X37973048Y-109243810D01*
X37973048Y-109100952D01*
X38020667Y-108910476D01*
X38068286Y-108815238D01*
X38163524Y-108720000D01*
X38306382Y-108672381D01*
X38401620Y-108672381D01*
X38544477Y-108720000D01*
X38592096Y-108767619D01*
X39592096Y-109577143D02*
X39544477Y-109624762D01*
X39401620Y-109672381D01*
X39306382Y-109672381D01*
X39163524Y-109624762D01*
X39068286Y-109529524D01*
X39020667Y-109434286D01*
X38973048Y-109243810D01*
X38973048Y-109100952D01*
X39020667Y-108910476D01*
X39068286Y-108815238D01*
X39163524Y-108720000D01*
X39306382Y-108672381D01*
X39401620Y-108672381D01*
X39544477Y-108720000D01*
X39592096Y-108767619D01*
X53371905Y-106894381D02*
X53990953Y-106894381D01*
X53657619Y-107275333D01*
X53800477Y-107275333D01*
X53895715Y-107322952D01*
X53943334Y-107370571D01*
X53990953Y-107465810D01*
X53990953Y-107703905D01*
X53943334Y-107799143D01*
X53895715Y-107846762D01*
X53800477Y-107894381D01*
X53514762Y-107894381D01*
X53419524Y-107846762D01*
X53371905Y-107799143D01*
X54276667Y-106894381D02*
X54610000Y-107894381D01*
X54943334Y-106894381D01*
X55181429Y-106894381D02*
X55800477Y-106894381D01*
X55467143Y-107275333D01*
X55610001Y-107275333D01*
X55705239Y-107322952D01*
X55752858Y-107370571D01*
X55800477Y-107465810D01*
X55800477Y-107703905D01*
X55752858Y-107799143D01*
X55705239Y-107846762D01*
X55610001Y-107894381D01*
X55324286Y-107894381D01*
X55229048Y-107846762D01*
X55181429Y-107799143D01*
X54419524Y-110704381D02*
X53943333Y-110704381D01*
X53895714Y-111180571D01*
X53943333Y-111132952D01*
X54038571Y-111085333D01*
X54276667Y-111085333D01*
X54371905Y-111132952D01*
X54419524Y-111180571D01*
X54467143Y-111275810D01*
X54467143Y-111513905D01*
X54419524Y-111609143D01*
X54371905Y-111656762D01*
X54276667Y-111704381D01*
X54038571Y-111704381D01*
X53943333Y-111656762D01*
X53895714Y-111609143D01*
X54752857Y-110704381D02*
X55086190Y-111704381D01*
X55419524Y-110704381D01*
X38163524Y-110704381D02*
X37687333Y-110704381D01*
X37639714Y-111180571D01*
X37687333Y-111132952D01*
X37782571Y-111085333D01*
X38020667Y-111085333D01*
X38115905Y-111132952D01*
X38163524Y-111180571D01*
X38211143Y-111275810D01*
X38211143Y-111513905D01*
X38163524Y-111609143D01*
X38115905Y-111656762D01*
X38020667Y-111704381D01*
X37782571Y-111704381D01*
X37687333Y-111656762D01*
X37639714Y-111609143D01*
X38496857Y-110704381D02*
X38830190Y-111704381D01*
X39163524Y-110704381D01*
X37115905Y-106640381D02*
X37734953Y-106640381D01*
X37401619Y-107021333D01*
X37544477Y-107021333D01*
X37639715Y-107068952D01*
X37687334Y-107116571D01*
X37734953Y-107211810D01*
X37734953Y-107449905D01*
X37687334Y-107545143D01*
X37639715Y-107592762D01*
X37544477Y-107640381D01*
X37258762Y-107640381D01*
X37163524Y-107592762D01*
X37115905Y-107545143D01*
X38020667Y-106640381D02*
X38354000Y-107640381D01*
X38687334Y-106640381D01*
X38925429Y-106640381D02*
X39544477Y-106640381D01*
X39211143Y-107021333D01*
X39354001Y-107021333D01*
X39449239Y-107068952D01*
X39496858Y-107116571D01*
X39544477Y-107211810D01*
X39544477Y-107449905D01*
X39496858Y-107545143D01*
X39449239Y-107592762D01*
X39354001Y-107640381D01*
X39068286Y-107640381D01*
X38973048Y-107592762D01*
X38925429Y-107545143D01*
D13*
X75742800Y-109347000D02*
X74117200Y-109347000D01*
X74117200Y-111633000D02*
X75742800Y-111633000D01*
X74117200Y-112090200D02*
X75742800Y-112090200D01*
X75742800Y-112090200D02*
X75742800Y-108889800D01*
X75742800Y-108889800D02*
X74117200Y-108889800D01*
X74117200Y-108889800D02*
X74117200Y-112090200D01*
X134162800Y-109347000D02*
X132537200Y-109347000D01*
X132537200Y-111633000D02*
X134162800Y-111633000D01*
X132537200Y-112090200D02*
X134162800Y-112090200D01*
X134162800Y-112090200D02*
X134162800Y-108889800D01*
X134162800Y-108889800D02*
X132537200Y-108889800D01*
X132537200Y-108889800D02*
X132537200Y-112090200D01*
X61417200Y-111633000D02*
X63042800Y-111633000D01*
X63042800Y-109347000D02*
X61417200Y-109347000D01*
X63042800Y-108889800D02*
X61417200Y-108889800D01*
X61417200Y-108889800D02*
X61417200Y-112090200D01*
X61417200Y-112090200D02*
X63042800Y-112090200D01*
X63042800Y-112090200D02*
X63042800Y-108889800D01*
X146862800Y-109347000D02*
X145237200Y-109347000D01*
X145237200Y-111633000D02*
X146862800Y-111633000D01*
X145237200Y-112090200D02*
X146862800Y-112090200D01*
X146862800Y-112090200D02*
X146862800Y-108889800D01*
X146862800Y-108889800D02*
X145237200Y-108889800D01*
X145237200Y-108889800D02*
X145237200Y-112090200D01*
X138150600Y-104305100D02*
X141249400Y-104305100D01*
X141249400Y-104305100D02*
X141249400Y-106095800D01*
X138150600Y-104305100D02*
X138150600Y-106095800D01*
X141592300Y-111594900D02*
X142405100Y-111594900D01*
X142405100Y-111594900D02*
X142405100Y-109804200D01*
X141592300Y-111594900D02*
X141592300Y-109804200D01*
X139293600Y-111594900D02*
X139293600Y-109804200D01*
X140106400Y-111594900D02*
X140106400Y-109804200D01*
X139293600Y-111594900D02*
X140106400Y-111594900D01*
X136994900Y-111594900D02*
X137807700Y-111594900D01*
X137807700Y-111594900D02*
X137807700Y-109804200D01*
X136994900Y-111594900D02*
X136994900Y-109804200D01*
X143052800Y-109804200D02*
X136347200Y-109804200D01*
X136347200Y-109804200D02*
X136347200Y-106095800D01*
X136347200Y-106095800D02*
X143052800Y-106095800D01*
X143052800Y-106095800D02*
X143052800Y-109804200D01*
X67030600Y-104305100D02*
X70129400Y-104305100D01*
X70129400Y-104305100D02*
X70129400Y-106095800D01*
X67030600Y-104305100D02*
X67030600Y-106095800D01*
X70472300Y-111594900D02*
X71285100Y-111594900D01*
X71285100Y-111594900D02*
X71285100Y-109804200D01*
X70472300Y-111594900D02*
X70472300Y-109804200D01*
X68173600Y-111594900D02*
X68173600Y-109804200D01*
X68986400Y-111594900D02*
X68986400Y-109804200D01*
X68173600Y-111594900D02*
X68986400Y-111594900D01*
X65874900Y-111594900D02*
X66687700Y-111594900D01*
X66687700Y-111594900D02*
X66687700Y-109804200D01*
X65874900Y-111594900D02*
X65874900Y-109804200D01*
X71932800Y-109804200D02*
X65227200Y-109804200D01*
X65227200Y-109804200D02*
X65227200Y-106095800D01*
X65227200Y-106095800D02*
X71932800Y-106095800D01*
X71932800Y-106095800D02*
X71932800Y-109804200D01*
X85509100Y-106743500D02*
X84861400Y-106095800D01*
X85356700Y-106743500D02*
X84861400Y-106248200D01*
X86360000Y-105346500D02*
X86360000Y-104686100D01*
X87312500Y-105346500D02*
X87312500Y-104686100D01*
X85407500Y-105346500D02*
X85407500Y-104686100D01*
X86360000Y-106743500D02*
X86360000Y-107403900D01*
X87312500Y-106743500D02*
X87312500Y-107403900D01*
X85407500Y-106743500D02*
X85407500Y-107403900D01*
X84861400Y-105346500D02*
X87858600Y-105346500D01*
X87858600Y-105346500D02*
X87858600Y-106743500D01*
X87858600Y-106743500D02*
X84861400Y-106743500D01*
X84861400Y-106743500D02*
X84861400Y-105346500D01*
X121069100Y-106743500D02*
X120421400Y-106095800D01*
X120916700Y-106743500D02*
X120421400Y-106248200D01*
X121920000Y-105346500D02*
X121920000Y-104686100D01*
X122872500Y-105346500D02*
X122872500Y-104686100D01*
X120967500Y-105346500D02*
X120967500Y-104686100D01*
X121920000Y-106743500D02*
X121920000Y-107403900D01*
X122872500Y-106743500D02*
X122872500Y-107403900D01*
X120967500Y-106743500D02*
X120967500Y-107403900D01*
X120421400Y-105346500D02*
X123418600Y-105346500D01*
X123418600Y-105346500D02*
X123418600Y-106743500D01*
X123418600Y-106743500D02*
X120421400Y-106743500D01*
X120421400Y-106743500D02*
X120421400Y-105346500D01*
X37503100Y-101282500D02*
X36855400Y-100634800D01*
X37350700Y-101282500D02*
X36855400Y-100787200D01*
X38354000Y-99885500D02*
X38354000Y-99225100D01*
X39306500Y-99885500D02*
X39306500Y-99225100D01*
X37401500Y-99885500D02*
X37401500Y-99225100D01*
X38354000Y-101282500D02*
X38354000Y-101942900D01*
X39306500Y-101282500D02*
X39306500Y-101942900D01*
X37401500Y-101282500D02*
X37401500Y-101942900D01*
X36855400Y-99885500D02*
X39852600Y-99885500D01*
X39852600Y-99885500D02*
X39852600Y-101282500D01*
X39852600Y-101282500D02*
X36855400Y-101282500D01*
X36855400Y-101282500D02*
X36855400Y-99885500D01*
X168821100Y-101282500D02*
X168173400Y-100634800D01*
X168668700Y-101282500D02*
X168173400Y-100787200D01*
X169672000Y-99885500D02*
X169672000Y-99225100D01*
X170624500Y-99885500D02*
X170624500Y-99225100D01*
X168719500Y-99885500D02*
X168719500Y-99225100D01*
X169672000Y-101282500D02*
X169672000Y-101942900D01*
X170624500Y-101282500D02*
X170624500Y-101942900D01*
X168719500Y-101282500D02*
X168719500Y-101942900D01*
X168173400Y-99885500D02*
X171170600Y-99885500D01*
X171170600Y-99885500D02*
X171170600Y-101282500D01*
X171170600Y-101282500D02*
X168173400Y-101282500D01*
X168173400Y-101282500D02*
X168173400Y-99885500D01*
D12*
X72477334Y-113133143D02*
X72429715Y-113180762D01*
X72286858Y-113228381D01*
X72191620Y-113228381D01*
X72048762Y-113180762D01*
X71953524Y-113085524D01*
X71905905Y-112990286D01*
X71858286Y-112799810D01*
X71858286Y-112656952D01*
X71905905Y-112466476D01*
X71953524Y-112371238D01*
X72048762Y-112276000D01*
X72191620Y-112228381D01*
X72286858Y-112228381D01*
X72429715Y-112276000D01*
X72477334Y-112323619D01*
X73429715Y-113228381D02*
X72858286Y-113228381D01*
X73144000Y-113228381D02*
X73144000Y-112228381D01*
X73048762Y-112371238D01*
X72953524Y-112466476D01*
X72858286Y-112514095D01*
X135469334Y-113133143D02*
X135421715Y-113180762D01*
X135278858Y-113228381D01*
X135183620Y-113228381D01*
X135040762Y-113180762D01*
X134945524Y-113085524D01*
X134897905Y-112990286D01*
X134850286Y-112799810D01*
X134850286Y-112656952D01*
X134897905Y-112466476D01*
X134945524Y-112371238D01*
X135040762Y-112276000D01*
X135183620Y-112228381D01*
X135278858Y-112228381D01*
X135421715Y-112276000D01*
X135469334Y-112323619D01*
X135850286Y-112323619D02*
X135897905Y-112276000D01*
X135993143Y-112228381D01*
X136231239Y-112228381D01*
X136326477Y-112276000D01*
X136374096Y-112323619D01*
X136421715Y-112418857D01*
X136421715Y-112514095D01*
X136374096Y-112656952D01*
X135802667Y-113228381D01*
X136421715Y-113228381D01*
X64095334Y-113133143D02*
X64047715Y-113180762D01*
X63904858Y-113228381D01*
X63809620Y-113228381D01*
X63666762Y-113180762D01*
X63571524Y-113085524D01*
X63523905Y-112990286D01*
X63476286Y-112799810D01*
X63476286Y-112656952D01*
X63523905Y-112466476D01*
X63571524Y-112371238D01*
X63666762Y-112276000D01*
X63809620Y-112228381D01*
X63904858Y-112228381D01*
X64047715Y-112276000D01*
X64095334Y-112323619D01*
X64428667Y-112228381D02*
X65047715Y-112228381D01*
X64714381Y-112609333D01*
X64857239Y-112609333D01*
X64952477Y-112656952D01*
X65000096Y-112704571D01*
X65047715Y-112799810D01*
X65047715Y-113037905D01*
X65000096Y-113133143D01*
X64952477Y-113180762D01*
X64857239Y-113228381D01*
X64571524Y-113228381D01*
X64476286Y-113180762D01*
X64428667Y-113133143D01*
X143597334Y-113133143D02*
X143549715Y-113180762D01*
X143406858Y-113228381D01*
X143311620Y-113228381D01*
X143168762Y-113180762D01*
X143073524Y-113085524D01*
X143025905Y-112990286D01*
X142978286Y-112799810D01*
X142978286Y-112656952D01*
X143025905Y-112466476D01*
X143073524Y-112371238D01*
X143168762Y-112276000D01*
X143311620Y-112228381D01*
X143406858Y-112228381D01*
X143549715Y-112276000D01*
X143597334Y-112323619D01*
X144454477Y-112561714D02*
X144454477Y-113228381D01*
X144216381Y-112180762D02*
X143978286Y-112895048D01*
X144597334Y-112895048D01*
D14*
X67817516Y-107401965D02*
X67817516Y-108212104D01*
X67865171Y-108307414D01*
X67912827Y-108355070D01*
X68008137Y-108402725D01*
X68198758Y-108402725D01*
X68294069Y-108355070D01*
X68341724Y-108307414D01*
X68389379Y-108212104D01*
X68389379Y-107401965D01*
X68818276Y-107497275D02*
X68865931Y-107449620D01*
X68961242Y-107401965D01*
X69199518Y-107401965D01*
X69294828Y-107449620D01*
X69342484Y-107497275D01*
X69390139Y-107592586D01*
X69390139Y-107687896D01*
X69342484Y-107830862D01*
X68770621Y-108402725D01*
X69390139Y-108402725D01*
D15*
X85598095Y-102322381D02*
X85598095Y-103131905D01*
X85645714Y-103227143D01*
X85693333Y-103274762D01*
X85788571Y-103322381D01*
X85979048Y-103322381D01*
X86074286Y-103274762D01*
X86121905Y-103227143D01*
X86169524Y-103131905D01*
X86169524Y-102322381D01*
X86550476Y-102322381D02*
X87169524Y-102322381D01*
X86836190Y-102703333D01*
X86979048Y-102703333D01*
X87074286Y-102750952D01*
X87121905Y-102798571D01*
X87169524Y-102893810D01*
X87169524Y-103131905D01*
X87121905Y-103227143D01*
X87074286Y-103274762D01*
X86979048Y-103322381D01*
X86693333Y-103322381D01*
X86598095Y-103274762D01*
X86550476Y-103227143D01*
D12*
X121158095Y-102322381D02*
X121158095Y-103131905D01*
X121205714Y-103227143D01*
X121253333Y-103274762D01*
X121348571Y-103322381D01*
X121539048Y-103322381D01*
X121634286Y-103274762D01*
X121681905Y-103227143D01*
X121729524Y-103131905D01*
X121729524Y-102322381D01*
X122634286Y-102655714D02*
X122634286Y-103322381D01*
X122396190Y-102274762D02*
X122158095Y-102989048D01*
X122777143Y-102989048D01*
X37592095Y-96861381D02*
X37592095Y-97670905D01*
X37639714Y-97766143D01*
X37687333Y-97813762D01*
X37782571Y-97861381D01*
X37973048Y-97861381D01*
X38068286Y-97813762D01*
X38115905Y-97766143D01*
X38163524Y-97670905D01*
X38163524Y-96861381D01*
X39115905Y-96861381D02*
X38639714Y-96861381D01*
X38592095Y-97337571D01*
X38639714Y-97289952D01*
X38734952Y-97242333D01*
X38973048Y-97242333D01*
X39068286Y-97289952D01*
X39115905Y-97337571D01*
X39163524Y-97432810D01*
X39163524Y-97670905D01*
X39115905Y-97766143D01*
X39068286Y-97813762D01*
X38973048Y-97861381D01*
X38734952Y-97861381D01*
X38639714Y-97813762D01*
X38592095Y-97766143D01*
D15*
X168910095Y-96861381D02*
X168910095Y-97670905D01*
X168957714Y-97766143D01*
X169005333Y-97813762D01*
X169100571Y-97861381D01*
X169291048Y-97861381D01*
X169386286Y-97813762D01*
X169433905Y-97766143D01*
X169481524Y-97670905D01*
X169481524Y-96861381D01*
X170386286Y-96861381D02*
X170195809Y-96861381D01*
X170100571Y-96909000D01*
X170052952Y-96956619D01*
X169957714Y-97099476D01*
X169910095Y-97289952D01*
X169910095Y-97670905D01*
X169957714Y-97766143D01*
X170005333Y-97813762D01*
X170100571Y-97861381D01*
X170291048Y-97861381D01*
X170386286Y-97813762D01*
X170433905Y-97766143D01*
X170481524Y-97670905D01*
X170481524Y-97432810D01*
X170433905Y-97337571D01*
X170386286Y-97289952D01*
X170291048Y-97242333D01*
X170100571Y-97242333D01*
X170005333Y-97289952D01*
X169957714Y-97337571D01*
X169910095Y-97432810D01*
M02*
