G04 #@! TF.FileFunction,Soldermask,Top*
%FSLAX46Y46*%
G04 Gerber Fmt 4.6, Leading zero omitted, Abs format (unit mm)*
G04 Created by KiCad (PCBNEW 0.201505071723+5645~23~ubuntu14.04.1-product) date dom 10 mag 2015 16:46:30 CEST*
%MOMM*%
G01*
G04 APERTURE LIST*
%ADD10C,0.100000*%
%ADD11C,1.400000*%
%ADD12C,3.649980*%
%ADD13R,1.501140X1.501140*%
%ADD14C,1.501140*%
%ADD15C,1.524000*%
%ADD16R,1.803400X1.600200*%
%ADD17R,2.199640X1.524000*%
%ADD18O,2.199640X1.524000*%
%ADD19R,1.300480X1.800860*%
%ADD20R,3.799840X1.800860*%
%ADD21R,0.599440X1.000760*%
%ADD22R,1.000760X0.599440*%
G04 APERTURE END LIST*
D10*
D11*
X49530000Y-115250000D03*
X163830000Y-114935000D03*
X148590000Y-115250000D03*
X130810000Y-115250000D03*
X113030000Y-115250000D03*
X95250000Y-115250000D03*
X77470000Y-115250000D03*
X59690000Y-115250000D03*
X49530000Y-110250000D03*
X163830000Y-110490000D03*
X148590000Y-110250000D03*
X130810000Y-110250000D03*
X113030000Y-110250000D03*
X95250000Y-110250000D03*
X77470000Y-110250000D03*
X59690000Y-110250000D03*
X49530000Y-105250000D03*
X163830000Y-105410000D03*
X148590000Y-105250000D03*
X130810000Y-105250000D03*
X113030000Y-105250000D03*
X95250000Y-105250000D03*
X77470000Y-105250000D03*
X59690000Y-105250000D03*
X49530000Y-100250000D03*
X163830000Y-100330000D03*
X148590000Y-100250000D03*
X130810000Y-100250000D03*
X113030000Y-100250000D03*
X95250000Y-100250000D03*
X77470000Y-100250000D03*
X59690000Y-100250000D03*
X49530000Y-95250000D03*
X163830000Y-95250000D03*
X148590000Y-95250000D03*
X130810000Y-95250000D03*
X113030000Y-95250000D03*
X95250000Y-95250000D03*
X77470000Y-95250000D03*
X59690000Y-95250000D03*
D12*
X80421480Y-104775000D03*
X92290900Y-104775000D03*
D13*
X90805000Y-98425000D03*
D14*
X89535000Y-95885000D03*
X88265000Y-98425000D03*
X86995000Y-95885000D03*
X85725000Y-98425000D03*
X84455000Y-95885000D03*
X83185000Y-98425000D03*
X81915000Y-95885000D03*
D15*
X151130000Y-111125000D03*
X151130000Y-109220000D03*
X156210000Y-107315000D03*
X133350000Y-101600000D03*
X156210000Y-109220000D03*
X161290000Y-107315000D03*
X115570000Y-101600000D03*
X161290000Y-109220000D03*
X166370000Y-107315000D03*
X97790000Y-101600000D03*
X166370000Y-109220000D03*
X171450000Y-107315000D03*
X80010000Y-101600000D03*
X171450000Y-109220000D03*
X52070000Y-107315000D03*
X62230000Y-101600000D03*
X64135000Y-101600000D03*
X137160000Y-101600000D03*
X171450000Y-111125000D03*
X81915000Y-101600000D03*
X119380000Y-101600000D03*
X166370000Y-111125000D03*
X99695000Y-101600000D03*
X83820000Y-101600000D03*
X156210000Y-111125000D03*
X117475000Y-101600000D03*
X57150000Y-107315000D03*
X161290000Y-111125000D03*
X135255000Y-101600000D03*
X101600000Y-101600000D03*
X52070000Y-111125000D03*
X57150000Y-109220000D03*
X66040000Y-101600000D03*
X41910000Y-111125000D03*
X52070000Y-109220000D03*
X151130000Y-107315000D03*
X57150000Y-111125000D03*
X46990000Y-109220000D03*
X46990000Y-107315000D03*
X46990000Y-111125000D03*
X41910000Y-109220000D03*
X41910000Y-107315000D03*
X36830000Y-111125000D03*
X36830000Y-109220000D03*
X36830000Y-107315000D03*
D16*
X74930000Y-109093000D03*
X74930000Y-111887000D03*
X133350000Y-109093000D03*
X133350000Y-111887000D03*
X62230000Y-111887000D03*
X62230000Y-109093000D03*
X146050000Y-109093000D03*
X146050000Y-111887000D03*
D17*
X151130000Y-104140000D03*
D18*
X151130000Y-101600000D03*
X151130000Y-99060000D03*
X151130000Y-96520000D03*
D17*
X156210000Y-104140000D03*
D18*
X156210000Y-101600000D03*
X156210000Y-99060000D03*
X156210000Y-96520000D03*
D17*
X161290000Y-104140000D03*
D18*
X161290000Y-101600000D03*
X161290000Y-99060000D03*
X161290000Y-96520000D03*
D17*
X166370000Y-104140000D03*
D18*
X166370000Y-101600000D03*
X166370000Y-99060000D03*
X166370000Y-96520000D03*
D17*
X171450000Y-104140000D03*
D18*
X171450000Y-101600000D03*
X171450000Y-99060000D03*
X171450000Y-96520000D03*
D17*
X57150000Y-104140000D03*
D18*
X57150000Y-101600000D03*
X57150000Y-99060000D03*
X57150000Y-96520000D03*
D17*
X52070000Y-104140000D03*
D18*
X52070000Y-101600000D03*
X52070000Y-99060000D03*
X52070000Y-96520000D03*
D17*
X46990000Y-104140000D03*
D18*
X46990000Y-101600000D03*
X46990000Y-99060000D03*
X46990000Y-96520000D03*
D17*
X41910000Y-104140000D03*
D18*
X41910000Y-101600000D03*
X41910000Y-99060000D03*
X41910000Y-96520000D03*
D17*
X36830000Y-104140000D03*
D18*
X36830000Y-101600000D03*
X36830000Y-99060000D03*
X36830000Y-96520000D03*
D19*
X137398760Y-110949740D03*
X139700000Y-110949740D03*
X142001240Y-110949740D03*
D20*
X139700000Y-104950260D03*
D19*
X66278760Y-110949740D03*
X68580000Y-110949740D03*
X70881240Y-110949740D03*
D20*
X68580000Y-104950260D03*
D21*
X85407500Y-107101640D03*
X87312500Y-107101640D03*
X86360000Y-107101640D03*
X87312500Y-104988360D03*
X85407500Y-104988360D03*
X86360000Y-104988360D03*
X120967500Y-107101640D03*
X122872500Y-107101640D03*
X121920000Y-107101640D03*
X122872500Y-104988360D03*
X120967500Y-104988360D03*
X121920000Y-104988360D03*
D22*
X40426640Y-114617500D03*
X40426640Y-112712500D03*
X40426640Y-113665000D03*
X38313360Y-112712500D03*
X38313360Y-114617500D03*
X38313360Y-113665000D03*
X167853360Y-112712500D03*
X167853360Y-114617500D03*
X167853360Y-113665000D03*
X169966640Y-114617500D03*
X169966640Y-112712500D03*
X169966640Y-113665000D03*
D12*
X62641480Y-104775000D03*
X74510900Y-104775000D03*
D13*
X73025000Y-98425000D03*
D14*
X71755000Y-95885000D03*
X70485000Y-98425000D03*
X69215000Y-95885000D03*
X67945000Y-98425000D03*
X66675000Y-95885000D03*
X65405000Y-98425000D03*
X64135000Y-95885000D03*
D12*
X98201480Y-104775000D03*
X110070900Y-104775000D03*
D13*
X108585000Y-98425000D03*
D14*
X107315000Y-95885000D03*
X106045000Y-98425000D03*
X104775000Y-95885000D03*
X103505000Y-98425000D03*
X102235000Y-95885000D03*
X100965000Y-98425000D03*
X99695000Y-95885000D03*
D12*
X115981480Y-104775000D03*
X127850900Y-104775000D03*
D13*
X126365000Y-98425000D03*
D14*
X125095000Y-95885000D03*
X123825000Y-98425000D03*
X122555000Y-95885000D03*
X121285000Y-98425000D03*
X120015000Y-95885000D03*
X118745000Y-98425000D03*
X117475000Y-95885000D03*
D12*
X133761480Y-104775000D03*
X145630900Y-104775000D03*
D13*
X144145000Y-98425000D03*
D14*
X142875000Y-95885000D03*
X141605000Y-98425000D03*
X140335000Y-95885000D03*
X139065000Y-98425000D03*
X137795000Y-95885000D03*
X136525000Y-98425000D03*
X135255000Y-95885000D03*
M02*
