M48
INCH,TZ
T1C0.025
T2C0.035
T3C0.039
T4C0.039
T5C0.128
%
G90
G05
T1
X21010Y-41894
X28700Y-43900
X28800Y-42500
X29600Y-38800
X32200Y-43000
X33843Y-40617
X34100Y-43600
X45500Y-43300
X47458Y-39589
X49900Y-43200
X54108Y-42404
X56200Y-40200
X56600Y-42800
X56600Y-43900
X57500Y-39200
X62073Y-41873
X66003Y-41800
T2
X25250Y-37750
X25750Y-38750
X26250Y-37750
X26750Y-38750
X27250Y-37750
X27750Y-38750
X28250Y-37750
X28750Y-38750
X32250Y-37750
X32750Y-38750
X33250Y-37750
X33750Y-38750
X34250Y-37750
X34750Y-38750
X35250Y-37750
X35750Y-38750
X39250Y-37750
X39750Y-38750
X40250Y-37750
X40750Y-38750
X41250Y-37750
X41750Y-38750
X42250Y-37750
X42750Y-38750
X46250Y-37750
X46750Y-38750
X47250Y-37750
X47750Y-38750
X48250Y-37750
X48750Y-38750
X49250Y-37750
X49750Y-38750
X53250Y-37750
X53750Y-38750
X54250Y-37750
X54750Y-38750
X55250Y-37750
X55750Y-38750
X56250Y-37750
X56750Y-38750
T3
X17500Y-37100
X17500Y-38600
X17500Y-40500
X17500Y-42300
X17500Y-44300
X19500Y-37100
X19500Y-38600
X19500Y-40500
X19500Y-42300
X19500Y-44300
X23500Y-37100
X23500Y-38600
X23500Y-40500
X23500Y-42300
X23500Y-44300
X30500Y-37100
X30500Y-39219
X30500Y-40500
X30500Y-42300
X30500Y-44300
X37500Y-37100
X37500Y-38600
X37500Y-40500
X37500Y-42300
X37500Y-44300
X44500Y-37100
X44500Y-38600
X44500Y-40500
X44500Y-42300
X44500Y-44300
X51500Y-37100
X51500Y-38600
X51500Y-40500
X51500Y-42300
X51500Y-44300
X58500Y-37100
X58500Y-38600
X58500Y-40500
X58500Y-42300
X58500Y-44300
X62500Y-37100
X62500Y-38600
X62500Y-40500
X62500Y-42300
X62500Y-44300
X64500Y-37100
X64500Y-38600
X64500Y-40500
X64500Y-42300
X64500Y-44300
T4
X13700Y-38000
X13700Y-39000
X13700Y-40000
X13700Y-41000
X16500Y-38000
X16500Y-39000
X16500Y-40000
X16500Y-41000
X18500Y-38000
X18500Y-39000
X18500Y-40000
X18500Y-41000
X20500Y-38000
X20500Y-39000
X20500Y-40000
X20500Y-41000
X22500Y-38000
X22500Y-39000
X22500Y-40000
X22500Y-41000
X59500Y-38000
X59500Y-39000
X59500Y-40000
X59500Y-41000
X61500Y-38000
X61500Y-39000
X61500Y-40000
X61500Y-41000
X63500Y-38000
X63500Y-39000
X63500Y-40000
X63500Y-41000
X65500Y-38000
X65500Y-39000
X65500Y-40000
X65500Y-41000
X68100Y-38000
X68100Y-39000
X68100Y-40000
X68100Y-41000
T5
X24662Y-41250
X29335Y-41250
X31662Y-41250
X36335Y-41250
X38662Y-41250
X43335Y-41250
X45662Y-41250
X50335Y-41250
X52662Y-41250
X57335Y-41250
T0
M30
