M48
INCH,TZ
T1C0.025
T2C0.035
T3C0.039
T4C0.039
T5C0.128
%
G90
G05
T1
X15352Y-43950
X21065Y-42588
X22992Y-42637
X24014Y-40370
X28654Y-43083
X28926Y-40000
X32780Y-42346
X37875Y-40317
X44926Y-40295
X50426Y-39901
X66187Y-42285
X67402Y-45387
T2
X25250Y-37750
X25750Y-38750
X26250Y-37750
X26750Y-38750
X27250Y-37750
X27750Y-38750
X28250Y-37750
X28750Y-38750
X32250Y-37750
X32750Y-38750
X33250Y-37750
X33750Y-38750
X34250Y-37750
X34750Y-38750
X35250Y-37750
X35750Y-38750
X39250Y-37750
X39750Y-38750
X40250Y-37750
X40750Y-38750
X41250Y-37750
X41750Y-38750
X42250Y-37750
X42750Y-38750
X46250Y-37750
X46750Y-38750
X47250Y-37750
X47750Y-38750
X48250Y-37750
X48750Y-38750
X49250Y-37750
X49750Y-38750
X53250Y-37750
X53750Y-38750
X54250Y-37750
X54750Y-38750
X55250Y-37750
X55750Y-38750
X56250Y-37750
X56750Y-38750
T3
X19500Y-37500
X19500Y-39469
X19500Y-41437
X19500Y-43406
X19500Y-45374
X23500Y-37500
X23500Y-39469
X23500Y-41437
X23500Y-43406
X23500Y-45374
X30500Y-37500
X30500Y-39469
X30500Y-41437
X30500Y-43406
X30500Y-45374
X37500Y-37500
X37500Y-39469
X37500Y-41437
X37500Y-43406
X37500Y-45374
X44500Y-37500
X44500Y-39469
X44500Y-41437
X44500Y-43406
X44500Y-45374
X51500Y-37500
X51500Y-39469
X51500Y-41437
X51500Y-43406
X51500Y-45374
X58500Y-37500
X58500Y-39469
X58500Y-41437
X58500Y-43406
X58500Y-45374
X64500Y-37500
X64500Y-39500
X64500Y-41500
X64500Y-43500
X64500Y-45250
T4
X14500Y-38000
X14500Y-39000
X14500Y-40000
X14500Y-41000
X16500Y-38000
X16500Y-39000
X16500Y-40000
X16500Y-41000
X18500Y-38000
X18500Y-39000
X18500Y-40000
X18500Y-41000
X20500Y-38000
X20500Y-39000
X20500Y-40000
X20500Y-41000
X22500Y-38000
X22500Y-39000
X22500Y-40000
X22500Y-41000
X59500Y-38000
X59500Y-39000
X59500Y-40000
X59500Y-41000
X61500Y-38000
X61500Y-39000
X61500Y-40000
X61500Y-41000
X63500Y-38000
X63500Y-39000
X63500Y-40000
X63500Y-41000
X65500Y-38000
X65500Y-39000
X65500Y-40000
X65500Y-41000
X67500Y-38000
X67500Y-39000
X67500Y-40000
X67500Y-41000
T5
X24662Y-41250
X29335Y-41250
X31662Y-41250
X36335Y-41250
X38662Y-41250
X43335Y-41250
X45662Y-41250
X50335Y-41250
X52662Y-41250
X57335Y-41250
T0
M30
