G04 #@! TF.FileFunction,Copper,L2,Bot,Signal*
%FSLAX46Y46*%
G04 Gerber Fmt 4.6, Leading zero omitted, Abs format (unit mm)*
G04 Created by KiCad (PCBNEW 0.201601221446+6507~42~ubuntu14.04.1-product) date Wed 27 Jan 2016 18:37:31 CET*
%MOMM*%
G01*
G04 APERTURE LIST*
%ADD10C,0.100000*%
%ADD11C,3.649980*%
%ADD12R,1.501140X1.501140*%
%ADD13C,1.501140*%
%ADD14C,1.400000*%
%ADD15R,2.199640X1.524000*%
%ADD16O,2.199640X1.524000*%
%ADD17C,1.035000*%
%ADD18C,0.254000*%
G04 APERTURE END LIST*
D10*
D11*
X98201480Y-104775000D03*
X110070900Y-104775000D03*
D12*
X108585000Y-98425000D03*
D13*
X107315000Y-95885000D03*
X106045000Y-98425000D03*
X104775000Y-95885000D03*
X103505000Y-98425000D03*
X102235000Y-95885000D03*
X100965000Y-98425000D03*
X99695000Y-95885000D03*
D11*
X80421480Y-104775000D03*
X92290900Y-104775000D03*
D12*
X90805000Y-98425000D03*
D13*
X89535000Y-95885000D03*
X88265000Y-98425000D03*
X86995000Y-95885000D03*
X85725000Y-98425000D03*
X84455000Y-95885000D03*
X83185000Y-98425000D03*
X81915000Y-95885000D03*
D11*
X133761480Y-104775000D03*
X145630900Y-104775000D03*
D12*
X144145000Y-98425000D03*
D13*
X142875000Y-95885000D03*
X141605000Y-98425000D03*
X140335000Y-95885000D03*
X139065000Y-98425000D03*
X137795000Y-95885000D03*
X136525000Y-98425000D03*
X135255000Y-95885000D03*
D14*
X44450000Y-112522000D03*
X44450000Y-107442000D03*
X44450000Y-102870000D03*
X44450000Y-98044000D03*
X44450000Y-94234000D03*
X163830000Y-112522000D03*
X163830000Y-107442000D03*
X163830000Y-102870000D03*
X163830000Y-98044000D03*
X163830000Y-94234000D03*
X158750000Y-112522000D03*
X158750000Y-107442000D03*
X158750000Y-102870000D03*
X158750000Y-98044000D03*
X158750000Y-94234000D03*
X148590000Y-112522000D03*
X130810000Y-112522000D03*
X113030000Y-112522000D03*
X95250000Y-112522000D03*
X77470000Y-112522000D03*
X59690000Y-112522000D03*
X148590000Y-107442000D03*
X130810000Y-107442000D03*
X113030000Y-107442000D03*
X95250000Y-107442000D03*
X77470000Y-107442000D03*
X59690000Y-107442000D03*
X148590000Y-102870000D03*
X130810000Y-102870000D03*
X113030000Y-102870000D03*
X95250000Y-102870000D03*
X77470000Y-102870000D03*
X59690000Y-102870000D03*
X148590000Y-98044000D03*
X130810000Y-98044000D03*
X113030000Y-98044000D03*
X95250000Y-98044000D03*
X77470000Y-99615000D03*
X59690000Y-98044000D03*
X148590000Y-94234000D03*
X130810000Y-94234000D03*
X113030000Y-94234000D03*
X95250000Y-94234000D03*
X77470000Y-94234000D03*
X59690000Y-94234000D03*
X49530000Y-112522000D03*
X49530000Y-107442000D03*
X49530000Y-102870000D03*
X49530000Y-98044000D03*
D15*
X172974000Y-104140000D03*
D16*
X172974000Y-101600000D03*
X172974000Y-99060000D03*
X172974000Y-96520000D03*
D15*
X166370000Y-104140000D03*
D16*
X166370000Y-101600000D03*
X166370000Y-99060000D03*
X166370000Y-96520000D03*
D15*
X161290000Y-104140000D03*
D16*
X161290000Y-101600000D03*
X161290000Y-99060000D03*
X161290000Y-96520000D03*
D15*
X156210000Y-104140000D03*
D16*
X156210000Y-101600000D03*
X156210000Y-99060000D03*
X156210000Y-96520000D03*
D15*
X151130000Y-104140000D03*
D16*
X151130000Y-101600000D03*
X151130000Y-99060000D03*
X151130000Y-96520000D03*
D15*
X57150000Y-104140000D03*
D16*
X57150000Y-101600000D03*
X57150000Y-99060000D03*
X57150000Y-96520000D03*
D15*
X52070000Y-104140000D03*
D16*
X52070000Y-101600000D03*
X52070000Y-99060000D03*
X52070000Y-96520000D03*
D15*
X46990000Y-104140000D03*
D16*
X46990000Y-101600000D03*
X46990000Y-99060000D03*
X46990000Y-96520000D03*
D15*
X41910000Y-104140000D03*
D16*
X41910000Y-101600000D03*
X41910000Y-99060000D03*
X41910000Y-96520000D03*
D15*
X34798000Y-104140000D03*
D16*
X34798000Y-101600000D03*
X34798000Y-99060000D03*
X34798000Y-96520000D03*
D11*
X62641480Y-104775000D03*
X74510900Y-104775000D03*
D12*
X73025000Y-98425000D03*
D13*
X71755000Y-95885000D03*
X70485000Y-98425000D03*
X69215000Y-95885000D03*
X67945000Y-98425000D03*
X66675000Y-95885000D03*
X65405000Y-98425000D03*
X64135000Y-95885000D03*
D11*
X115981480Y-104775000D03*
X127850900Y-104775000D03*
D12*
X126365000Y-98425000D03*
D13*
X125095000Y-95885000D03*
X123825000Y-98425000D03*
X122555000Y-95885000D03*
X121285000Y-98425000D03*
X120015000Y-95885000D03*
X118745000Y-98425000D03*
X117475000Y-95885000D03*
D14*
X49530000Y-94234000D03*
D17*
X126746000Y-110499520D03*
X73152000Y-111760000D03*
X82764516Y-110796257D03*
X86614000Y-110744000D03*
X115570000Y-109982000D03*
X73152000Y-107950000D03*
X75184000Y-98552000D03*
X53366000Y-106411700D03*
X131773968Y-110267944D03*
X114068443Y-100395918D03*
X118685527Y-103879343D03*
X63610937Y-100158825D03*
X54483000Y-111125000D03*
X70739000Y-112776000D03*
X83701308Y-107458822D03*
X81026000Y-107442000D03*
X96520000Y-100457000D03*
X135249660Y-107286453D03*
X119584047Y-107187449D03*
X149785472Y-108482522D03*
X120724407Y-100412597D03*
X157664800Y-106356900D03*
X167647700Y-106172000D03*
X88030166Y-102668988D03*
D18*
X115570000Y-109982000D02*
X116087520Y-110499520D01*
X116087520Y-110499520D02*
X126014145Y-110499520D01*
X126014145Y-110499520D02*
X126746000Y-110499520D01*
X122555000Y-95885000D02*
X121423429Y-94753429D01*
X121423429Y-94753429D02*
X116931845Y-94753429D01*
X106175381Y-94484619D02*
X104775000Y-95885000D01*
X116931845Y-94753429D02*
X115920543Y-95764731D01*
X115920543Y-95764731D02*
X111196868Y-95764731D01*
X111196868Y-95764731D02*
X109916756Y-94484619D01*
X109916756Y-94484619D02*
X106175381Y-94484619D01*
X73152000Y-107950000D02*
X73152000Y-111760000D01*
X86614000Y-110744000D02*
X82816773Y-110744000D01*
X82816773Y-110744000D02*
X82764516Y-110796257D01*
X73859800Y-95315400D02*
X73859800Y-97072858D01*
X73859800Y-97072858D02*
X75184000Y-98397058D01*
X75184000Y-98397058D02*
X75184000Y-98552000D01*
X156210000Y-96520000D02*
X157691200Y-96520000D01*
X166370000Y-96520000D02*
X161290000Y-96520000D01*
X161290000Y-96520000D02*
X157691200Y-96520000D01*
X51597600Y-96520000D02*
X50588800Y-96520000D01*
X51597600Y-96520000D02*
X52070000Y-96520000D01*
X41910000Y-96520000D02*
X43391200Y-96520000D01*
X50588800Y-96520000D02*
X46990000Y-96520000D01*
X46990000Y-96520000D02*
X43391200Y-96520000D01*
X60290600Y-96520000D02*
X57150000Y-96520000D01*
X60787600Y-97017000D02*
X60290600Y-96520000D01*
X68083000Y-97017000D02*
X60787600Y-97017000D01*
X69215000Y-95885000D02*
X68083000Y-97017000D01*
X88160800Y-97050800D02*
X86995000Y-95885000D01*
X92596400Y-97050800D02*
X88160800Y-97050800D01*
X92700600Y-96946600D02*
X92596400Y-97050800D01*
X98547000Y-96946600D02*
X92700600Y-96946600D01*
X98617400Y-97017000D02*
X98547000Y-96946600D01*
X103643000Y-97017000D02*
X98617400Y-97017000D01*
X104775000Y-95885000D02*
X103643000Y-97017000D01*
X70384600Y-94715400D02*
X69215000Y-95885000D01*
X73259800Y-94715400D02*
X70384600Y-94715400D01*
X73859800Y-95315400D02*
X73259800Y-94715400D01*
X78134400Y-95315400D02*
X73859800Y-95315400D01*
X79254700Y-94195100D02*
X78134400Y-95315400D01*
X85305100Y-94195100D02*
X79254700Y-94195100D01*
X86995000Y-95885000D02*
X85305100Y-94195100D01*
X52237600Y-105283300D02*
X53366000Y-106411700D01*
X52070000Y-105283300D02*
X52237600Y-105283300D01*
X52070000Y-104140000D02*
X52070000Y-105283300D01*
X84433163Y-107458822D02*
X83701308Y-107458822D01*
X96520000Y-100457000D02*
X91626508Y-100457000D01*
X91626508Y-100457000D02*
X84624686Y-107458822D01*
X84624686Y-107458822D02*
X84433163Y-107458822D01*
X130634805Y-109128781D02*
X131256469Y-109750445D01*
X119288781Y-109128781D02*
X130634805Y-109128781D01*
X118685527Y-108525527D02*
X119288781Y-109128781D01*
X131256469Y-109750445D02*
X131773968Y-110267944D01*
X118685527Y-103879343D02*
X118685527Y-108525527D01*
X114800298Y-100395918D02*
X114068443Y-100395918D01*
X115202102Y-100395918D02*
X114800298Y-100395918D01*
X114007361Y-100457000D02*
X114068443Y-100395918D01*
X96520000Y-100457000D02*
X114007361Y-100457000D01*
X118685527Y-103879343D02*
X115202102Y-100395918D01*
X69088000Y-111125000D02*
X64770000Y-111125000D01*
X64770000Y-111125000D02*
X54483000Y-111125000D01*
X63610937Y-100158825D02*
X64847471Y-101395359D01*
X64847471Y-101395359D02*
X64847471Y-111047529D01*
X64847471Y-111047529D02*
X64770000Y-111125000D01*
X70739000Y-112776000D02*
X69088000Y-111125000D01*
X81026000Y-107442000D02*
X83684486Y-107442000D01*
X83684486Y-107442000D02*
X83701308Y-107458822D01*
X135767159Y-107803952D02*
X135249660Y-107286453D01*
X149267973Y-109000021D02*
X136963228Y-109000021D01*
X149785472Y-108482522D02*
X149267973Y-109000021D01*
X134517805Y-107286453D02*
X135249660Y-107286453D01*
X136963228Y-109000021D02*
X135767159Y-107803952D01*
X126608797Y-100412597D02*
X130804423Y-104608223D01*
X130804423Y-105240942D02*
X132849934Y-107286453D01*
X120724407Y-100412597D02*
X126608797Y-100412597D01*
X132849934Y-107286453D02*
X134517805Y-107286453D01*
X130804423Y-104608223D02*
X130804423Y-105240942D01*
X119584047Y-106455594D02*
X119584047Y-107187449D01*
X119584047Y-101552957D02*
X119584047Y-106455594D01*
X120724407Y-100412597D02*
X119584047Y-101552957D01*
X157664800Y-106356900D02*
X155498300Y-108523400D01*
X155498300Y-108523400D02*
X155457422Y-108482522D01*
X155457422Y-108482522D02*
X149785472Y-108482522D01*
X167462800Y-106356900D02*
X167647700Y-106172000D01*
X157664800Y-106356900D02*
X167462800Y-106356900D01*
X87512667Y-102151489D02*
X88030166Y-102668988D01*
X84455000Y-99093822D02*
X87512667Y-102151489D01*
X84455000Y-95885000D02*
X84455000Y-99093822D01*
X151130000Y-101600000D02*
X140635800Y-101600000D01*
X140635800Y-101600000D02*
X137795000Y-98759200D01*
X137795000Y-98759200D02*
X137795000Y-96946466D01*
X137795000Y-96946466D02*
X137795000Y-95885000D01*
X172974000Y-101600000D02*
X166370000Y-101600000D01*
X166370000Y-101600000D02*
X161290000Y-101600000D01*
X46990000Y-101600000D02*
X41910000Y-101600000D01*
X41910000Y-101600000D02*
X34798000Y-101600000D01*
X46990000Y-101600000D02*
X52070000Y-101600000D01*
X161290000Y-101600000D02*
X156210000Y-101600000D01*
X156210000Y-101600000D02*
X151130000Y-101600000D01*
X156210000Y-99060000D02*
X157691200Y-99060000D01*
X157691200Y-99060000D02*
X158011240Y-99380040D01*
X159808800Y-99060000D02*
X161290000Y-99060000D01*
X158011240Y-99380040D02*
X159488760Y-99380040D01*
X159488760Y-99380040D02*
X159808800Y-99060000D01*
X123825000Y-98425000D02*
X122693429Y-97293429D01*
X122693429Y-97293429D02*
X116348936Y-97293429D01*
X107911727Y-96962999D02*
X106397892Y-98476834D01*
X116348936Y-97293429D02*
X116018506Y-96962999D01*
X116018506Y-96962999D02*
X107911727Y-96962999D01*
X106397892Y-98476834D02*
X106096834Y-98476834D01*
X106096834Y-98476834D02*
X106045000Y-98425000D01*
X58503820Y-99060000D02*
X57150000Y-99060000D01*
X69350300Y-99559700D02*
X64341594Y-99559700D01*
X62880280Y-99559700D02*
X59130900Y-99559700D01*
X63179656Y-99260324D02*
X62880280Y-99559700D01*
X64042218Y-99260324D02*
X63179656Y-99260324D01*
X58631200Y-99060000D02*
X58503820Y-99060000D01*
X70485000Y-98425000D02*
X69350300Y-99559700D01*
X64341594Y-99559700D02*
X64042218Y-99260324D01*
X59130900Y-99559700D02*
X58631200Y-99060000D01*
X75999229Y-99556571D02*
X71616571Y-99556571D01*
X84907300Y-94703500D02*
X80852300Y-94703500D01*
X87514431Y-97674431D02*
X87153331Y-97674431D01*
X87153331Y-97674431D02*
X85725000Y-96246100D01*
X80852300Y-94703500D02*
X75999229Y-99556571D01*
X71616571Y-99556571D02*
X71235569Y-99175569D01*
X85725000Y-95521200D02*
X84907300Y-94703500D01*
X88265000Y-98425000D02*
X87514431Y-97674431D01*
X71235569Y-99175569D02*
X70485000Y-98425000D01*
X85725000Y-96246100D02*
X85725000Y-95521200D01*
X46990000Y-99060000D02*
X45508800Y-99060000D01*
X41910000Y-99060000D02*
X34798000Y-99060000D01*
X45384400Y-99184400D02*
X45508800Y-99060000D01*
X43515600Y-99184400D02*
X45384400Y-99184400D01*
X43391200Y-99060000D02*
X43515600Y-99184400D01*
X41910000Y-99060000D02*
X43391200Y-99060000D01*
X89397000Y-99557000D02*
X88265000Y-98425000D01*
X104913000Y-99557000D02*
X89397000Y-99557000D01*
X106045000Y-98425000D02*
X104913000Y-99557000D01*
X125098600Y-97151400D02*
X123825000Y-98425000D01*
X130173400Y-97151400D02*
X125098600Y-97151400D01*
X132578800Y-94746000D02*
X130173400Y-97151400D01*
X138276500Y-94746000D02*
X132578800Y-94746000D01*
X139065000Y-95534500D02*
X138276500Y-94746000D01*
X139065000Y-96266200D02*
X139065000Y-95534500D01*
X141223800Y-98425000D02*
X139065000Y-96266200D01*
X141605000Y-98425000D02*
X141223800Y-98425000D01*
G36*
X174625000Y-113665000D02*
X70940308Y-113665000D01*
X71247295Y-113538156D01*
X71500267Y-113285624D01*
X71637344Y-112955507D01*
X71637535Y-112736081D01*
X76388813Y-112736081D01*
X76553038Y-113133537D01*
X76856863Y-113437893D01*
X77254032Y-113602812D01*
X77684081Y-113603187D01*
X78081537Y-113438962D01*
X78385893Y-113135137D01*
X78550812Y-112737968D01*
X78550813Y-112736081D01*
X94168813Y-112736081D01*
X94333038Y-113133537D01*
X94636863Y-113437893D01*
X95034032Y-113602812D01*
X95464081Y-113603187D01*
X95861537Y-113438962D01*
X96165893Y-113135137D01*
X96330812Y-112737968D01*
X96330813Y-112736081D01*
X111948813Y-112736081D01*
X112113038Y-113133537D01*
X112416863Y-113437893D01*
X112814032Y-113602812D01*
X113244081Y-113603187D01*
X113641537Y-113438962D01*
X113945893Y-113135137D01*
X114110812Y-112737968D01*
X114110813Y-112736081D01*
X129728813Y-112736081D01*
X129893038Y-113133537D01*
X130196863Y-113437893D01*
X130594032Y-113602812D01*
X131024081Y-113603187D01*
X131421537Y-113438962D01*
X131725893Y-113135137D01*
X131890812Y-112737968D01*
X131890813Y-112736081D01*
X147508813Y-112736081D01*
X147673038Y-113133537D01*
X147976863Y-113437893D01*
X148374032Y-113602812D01*
X148804081Y-113603187D01*
X149201537Y-113438962D01*
X149505893Y-113135137D01*
X149670812Y-112737968D01*
X149670813Y-112736081D01*
X157668813Y-112736081D01*
X157833038Y-113133537D01*
X158136863Y-113437893D01*
X158534032Y-113602812D01*
X158964081Y-113603187D01*
X159361537Y-113438962D01*
X159665893Y-113135137D01*
X159830812Y-112737968D01*
X159830813Y-112736081D01*
X162748813Y-112736081D01*
X162913038Y-113133537D01*
X163216863Y-113437893D01*
X163614032Y-113602812D01*
X164044081Y-113603187D01*
X164441537Y-113438962D01*
X164745893Y-113135137D01*
X164910812Y-112737968D01*
X164911187Y-112307919D01*
X164746962Y-111910463D01*
X164443137Y-111606107D01*
X164045968Y-111441188D01*
X163615919Y-111440813D01*
X163218463Y-111605038D01*
X162914107Y-111908863D01*
X162749188Y-112306032D01*
X162748813Y-112736081D01*
X159830813Y-112736081D01*
X159831187Y-112307919D01*
X159666962Y-111910463D01*
X159363137Y-111606107D01*
X158965968Y-111441188D01*
X158535919Y-111440813D01*
X158138463Y-111605038D01*
X157834107Y-111908863D01*
X157669188Y-112306032D01*
X157668813Y-112736081D01*
X149670813Y-112736081D01*
X149671187Y-112307919D01*
X149506962Y-111910463D01*
X149203137Y-111606107D01*
X148805968Y-111441188D01*
X148375919Y-111440813D01*
X147978463Y-111605038D01*
X147674107Y-111908863D01*
X147509188Y-112306032D01*
X147508813Y-112736081D01*
X131890813Y-112736081D01*
X131891187Y-112307919D01*
X131726962Y-111910463D01*
X131423137Y-111606107D01*
X131025968Y-111441188D01*
X130595919Y-111440813D01*
X130198463Y-111605038D01*
X129894107Y-111908863D01*
X129729188Y-112306032D01*
X129728813Y-112736081D01*
X114110813Y-112736081D01*
X114111187Y-112307919D01*
X113946962Y-111910463D01*
X113643137Y-111606107D01*
X113245968Y-111441188D01*
X112815919Y-111440813D01*
X112418463Y-111605038D01*
X112114107Y-111908863D01*
X111949188Y-112306032D01*
X111948813Y-112736081D01*
X96330813Y-112736081D01*
X96331187Y-112307919D01*
X96166962Y-111910463D01*
X95863137Y-111606107D01*
X95465968Y-111441188D01*
X95035919Y-111440813D01*
X94638463Y-111605038D01*
X94334107Y-111908863D01*
X94169188Y-112306032D01*
X94168813Y-112736081D01*
X78550813Y-112736081D01*
X78551187Y-112307919D01*
X78386962Y-111910463D01*
X78083137Y-111606107D01*
X77685968Y-111441188D01*
X77255919Y-111440813D01*
X76858463Y-111605038D01*
X76554107Y-111908863D01*
X76389188Y-112306032D01*
X76388813Y-112736081D01*
X71637535Y-112736081D01*
X71637656Y-112598061D01*
X71501156Y-112267705D01*
X71248624Y-112014733D01*
X70918507Y-111877656D01*
X70561061Y-111877344D01*
X70559436Y-111878015D01*
X69447210Y-110765790D01*
X69282403Y-110655669D01*
X69088000Y-110617000D01*
X65355471Y-110617000D01*
X65355471Y-107656081D01*
X76388813Y-107656081D01*
X76553038Y-108053537D01*
X76856863Y-108357893D01*
X77254032Y-108522812D01*
X77684081Y-108523187D01*
X78081537Y-108358962D01*
X78385893Y-108055137D01*
X78550812Y-107657968D01*
X78551187Y-107227919D01*
X78386962Y-106830463D01*
X78083137Y-106526107D01*
X77685968Y-106361188D01*
X77255919Y-106360813D01*
X76858463Y-106525038D01*
X76554107Y-106828863D01*
X76389188Y-107226032D01*
X76388813Y-107656081D01*
X65355471Y-107656081D01*
X65355471Y-105211873D01*
X72304528Y-105211873D01*
X72639662Y-106022961D01*
X73259675Y-106644057D01*
X74070176Y-106980606D01*
X74947773Y-106981372D01*
X75758861Y-106646238D01*
X76379957Y-106026225D01*
X76716506Y-105215724D01*
X76717272Y-104338127D01*
X76382138Y-103527039D01*
X75939953Y-103084081D01*
X76388813Y-103084081D01*
X76553038Y-103481537D01*
X76856863Y-103785893D01*
X77254032Y-103950812D01*
X77684081Y-103951187D01*
X78081537Y-103786962D01*
X78385893Y-103483137D01*
X78550812Y-103085968D01*
X78551187Y-102655919D01*
X78386962Y-102258463D01*
X78083137Y-101954107D01*
X77685968Y-101789188D01*
X77255919Y-101788813D01*
X76858463Y-101953038D01*
X76554107Y-102256863D01*
X76389188Y-102654032D01*
X76388813Y-103084081D01*
X75939953Y-103084081D01*
X75762125Y-102905943D01*
X74951624Y-102569394D01*
X74074027Y-102568628D01*
X73262939Y-102903762D01*
X72641843Y-103523775D01*
X72305294Y-104334276D01*
X72304528Y-105211873D01*
X65355471Y-105211873D01*
X65355471Y-101395359D01*
X65335362Y-101294262D01*
X65316802Y-101200955D01*
X65206681Y-101036149D01*
X64509159Y-100338627D01*
X64509281Y-100338332D01*
X64509517Y-100067700D01*
X69350300Y-100067700D01*
X69544703Y-100029031D01*
X69709510Y-99918910D01*
X70126879Y-99501541D01*
X70258929Y-99556373D01*
X70709096Y-99556766D01*
X70843013Y-99501433D01*
X71257361Y-99915781D01*
X71422167Y-100025902D01*
X71616571Y-100064571D01*
X75999229Y-100064571D01*
X76193632Y-100025902D01*
X76358439Y-99915781D01*
X76405282Y-99868938D01*
X76553038Y-100226537D01*
X76856863Y-100530893D01*
X77254032Y-100695812D01*
X77684081Y-100696187D01*
X78081537Y-100531962D01*
X78385893Y-100228137D01*
X78550812Y-99830968D01*
X78551187Y-99400919D01*
X78386962Y-99003463D01*
X78083137Y-98699107D01*
X77724169Y-98550051D01*
X80903161Y-95371059D01*
X80783627Y-95658929D01*
X80783234Y-96109096D01*
X80955142Y-96525146D01*
X81273180Y-96843739D01*
X81688929Y-97016373D01*
X82139096Y-97016766D01*
X82555146Y-96844858D01*
X82873739Y-96526820D01*
X83046373Y-96111071D01*
X83046766Y-95660904D01*
X82874858Y-95244854D01*
X82841562Y-95211500D01*
X83527996Y-95211500D01*
X83496261Y-95243180D01*
X83323627Y-95658929D01*
X83323234Y-96109096D01*
X83495142Y-96525146D01*
X83813180Y-96843739D01*
X83947000Y-96899306D01*
X83947000Y-97586651D01*
X83826820Y-97466261D01*
X83411071Y-97293627D01*
X82960904Y-97293234D01*
X82544854Y-97465142D01*
X82226261Y-97783180D01*
X82053627Y-98198929D01*
X82053234Y-98649096D01*
X82225142Y-99065146D01*
X82543180Y-99383739D01*
X82958929Y-99556373D01*
X83409096Y-99556766D01*
X83825146Y-99384858D01*
X83947000Y-99263216D01*
X83947000Y-101661800D01*
X83985669Y-101856203D01*
X84095790Y-102021010D01*
X85061778Y-102986999D01*
X85061656Y-102987293D01*
X85061344Y-103344739D01*
X85197844Y-103675095D01*
X85450376Y-103928067D01*
X85780493Y-104065144D01*
X86137939Y-104065456D01*
X86468295Y-103928956D01*
X86721267Y-103676424D01*
X86858344Y-103346307D01*
X86858656Y-102988861D01*
X86722156Y-102658505D01*
X86469624Y-102405533D01*
X86139507Y-102268456D01*
X85782061Y-102268144D01*
X85780436Y-102268815D01*
X84963000Y-101451380D01*
X84963000Y-99263349D01*
X85083180Y-99383739D01*
X85498929Y-99556373D01*
X85949096Y-99556766D01*
X86365146Y-99384858D01*
X86683739Y-99066820D01*
X86856373Y-98651071D01*
X86856766Y-98200904D01*
X86783101Y-98022621D01*
X86794121Y-98033641D01*
X86958927Y-98143762D01*
X87141458Y-98180069D01*
X87133627Y-98198929D01*
X87133234Y-98649096D01*
X87305142Y-99065146D01*
X87623180Y-99383739D01*
X88038929Y-99556373D01*
X88489096Y-99556766D01*
X88623013Y-99501433D01*
X89037790Y-99916210D01*
X89202597Y-100026331D01*
X89397000Y-100065000D01*
X90392992Y-100065000D01*
X90343920Y-100097789D01*
X83881110Y-106560600D01*
X83880815Y-106560478D01*
X83523369Y-106560166D01*
X83193013Y-106696666D01*
X82955265Y-106934000D01*
X81788278Y-106934000D01*
X81788156Y-106933705D01*
X81550322Y-106695457D01*
X81669441Y-106646238D01*
X82290537Y-106026225D01*
X82627086Y-105215724D01*
X82627852Y-104338127D01*
X82292718Y-103527039D01*
X81672705Y-102905943D01*
X80862204Y-102569394D01*
X79984607Y-102568628D01*
X79173519Y-102903762D01*
X78552423Y-103523775D01*
X78215874Y-104334276D01*
X78215108Y-105211873D01*
X78550242Y-106022961D01*
X79170255Y-106644057D01*
X79980756Y-106980606D01*
X80244610Y-106980836D01*
X80127656Y-107262493D01*
X80127344Y-107619939D01*
X80263844Y-107950295D01*
X80516376Y-108203267D01*
X80846493Y-108340344D01*
X81203939Y-108340656D01*
X81534295Y-108204156D01*
X81787267Y-107951624D01*
X81787941Y-107950000D01*
X82932079Y-107950000D01*
X82939152Y-107967117D01*
X83191684Y-108220089D01*
X83521801Y-108357166D01*
X83879247Y-108357478D01*
X84209603Y-108220978D01*
X84462575Y-107968446D01*
X84592280Y-107656081D01*
X94168813Y-107656081D01*
X94333038Y-108053537D01*
X94636863Y-108357893D01*
X95034032Y-108522812D01*
X95464081Y-108523187D01*
X95861537Y-108358962D01*
X96165893Y-108055137D01*
X96330812Y-107657968D01*
X96330813Y-107656081D01*
X111948813Y-107656081D01*
X112113038Y-108053537D01*
X112416863Y-108357893D01*
X112814032Y-108522812D01*
X113244081Y-108523187D01*
X113641537Y-108358962D01*
X113945893Y-108055137D01*
X114110812Y-107657968D01*
X114111187Y-107227919D01*
X113946962Y-106830463D01*
X113643137Y-106526107D01*
X113245968Y-106361188D01*
X112815919Y-106360813D01*
X112418463Y-106525038D01*
X112114107Y-106828863D01*
X111949188Y-107226032D01*
X111948813Y-107656081D01*
X96330813Y-107656081D01*
X96331187Y-107227919D01*
X96166962Y-106830463D01*
X95863137Y-106526107D01*
X95465968Y-106361188D01*
X95035919Y-106360813D01*
X94638463Y-106525038D01*
X94334107Y-106828863D01*
X94169188Y-107226032D01*
X94168813Y-107656081D01*
X84592280Y-107656081D01*
X84599652Y-107638329D01*
X84599964Y-107280883D01*
X84599292Y-107279258D01*
X86666677Y-105211873D01*
X90084528Y-105211873D01*
X90419662Y-106022961D01*
X91039675Y-106644057D01*
X91850176Y-106980606D01*
X92727773Y-106981372D01*
X93538861Y-106646238D01*
X94159957Y-106026225D01*
X94496506Y-105215724D01*
X94496509Y-105211873D01*
X95995108Y-105211873D01*
X96330242Y-106022961D01*
X96950255Y-106644057D01*
X97760756Y-106980606D01*
X98638353Y-106981372D01*
X99449441Y-106646238D01*
X100070537Y-106026225D01*
X100407086Y-105215724D01*
X100407089Y-105211873D01*
X107864528Y-105211873D01*
X108199662Y-106022961D01*
X108819675Y-106644057D01*
X109630176Y-106980606D01*
X110507773Y-106981372D01*
X111318861Y-106646238D01*
X111939957Y-106026225D01*
X112276506Y-105215724D01*
X112277272Y-104338127D01*
X111942138Y-103527039D01*
X111499953Y-103084081D01*
X111948813Y-103084081D01*
X112113038Y-103481537D01*
X112416863Y-103785893D01*
X112814032Y-103950812D01*
X113244081Y-103951187D01*
X113641537Y-103786962D01*
X113945893Y-103483137D01*
X114110812Y-103085968D01*
X114111187Y-102655919D01*
X113946962Y-102258463D01*
X113643137Y-101954107D01*
X113245968Y-101789188D01*
X112815919Y-101788813D01*
X112418463Y-101953038D01*
X112114107Y-102256863D01*
X111949188Y-102654032D01*
X111948813Y-103084081D01*
X111499953Y-103084081D01*
X111322125Y-102905943D01*
X110511624Y-102569394D01*
X109634027Y-102568628D01*
X108822939Y-102903762D01*
X108201843Y-103523775D01*
X107865294Y-104334276D01*
X107864528Y-105211873D01*
X100407089Y-105211873D01*
X100407852Y-104338127D01*
X100072718Y-103527039D01*
X99452705Y-102905943D01*
X98642204Y-102569394D01*
X97764607Y-102568628D01*
X96953519Y-102903762D01*
X96332423Y-103523775D01*
X95995874Y-104334276D01*
X95995108Y-105211873D01*
X94496509Y-105211873D01*
X94497272Y-104338127D01*
X94162138Y-103527039D01*
X93719953Y-103084081D01*
X94168813Y-103084081D01*
X94333038Y-103481537D01*
X94636863Y-103785893D01*
X95034032Y-103950812D01*
X95464081Y-103951187D01*
X95861537Y-103786962D01*
X96165893Y-103483137D01*
X96330812Y-103085968D01*
X96331187Y-102655919D01*
X96166962Y-102258463D01*
X95863137Y-101954107D01*
X95465968Y-101789188D01*
X95035919Y-101788813D01*
X94638463Y-101953038D01*
X94334107Y-102256863D01*
X94169188Y-102654032D01*
X94168813Y-103084081D01*
X93719953Y-103084081D01*
X93542125Y-102905943D01*
X92731624Y-102569394D01*
X91854027Y-102568628D01*
X91042939Y-102903762D01*
X90421843Y-103523775D01*
X90085294Y-104334276D01*
X90084528Y-105211873D01*
X86666677Y-105211873D01*
X90913551Y-100965000D01*
X95757722Y-100965000D01*
X95757844Y-100965295D01*
X96010376Y-101218267D01*
X96340493Y-101355344D01*
X96697939Y-101355656D01*
X97028295Y-101219156D01*
X97281267Y-100966624D01*
X97281941Y-100965000D01*
X113366968Y-100965000D01*
X113558819Y-101157185D01*
X113888936Y-101294262D01*
X114246382Y-101294574D01*
X114576738Y-101158074D01*
X114829710Y-100905542D01*
X114830384Y-100903918D01*
X114991682Y-100903918D01*
X116823997Y-102736233D01*
X116422204Y-102569394D01*
X115544607Y-102568628D01*
X114733519Y-102903762D01*
X114112423Y-103523775D01*
X113775874Y-104334276D01*
X113775108Y-105211873D01*
X114110242Y-106022961D01*
X114730255Y-106644057D01*
X115540756Y-106980606D01*
X116418353Y-106981372D01*
X117229441Y-106646238D01*
X117850537Y-106026225D01*
X118177527Y-105238745D01*
X118177527Y-108525527D01*
X118216196Y-108719930D01*
X118326317Y-108884737D01*
X118929571Y-109487991D01*
X119094378Y-109598112D01*
X119288781Y-109636781D01*
X130424385Y-109636781D01*
X130875746Y-110088142D01*
X130875624Y-110088437D01*
X130875312Y-110445883D01*
X131011812Y-110776239D01*
X131264344Y-111029211D01*
X131594461Y-111166288D01*
X131951907Y-111166600D01*
X132282263Y-111030100D01*
X132535235Y-110777568D01*
X132672312Y-110447451D01*
X132672624Y-110090005D01*
X132536124Y-109759649D01*
X132283592Y-109506677D01*
X131953475Y-109369600D01*
X131596029Y-109369288D01*
X131594404Y-109369960D01*
X130994015Y-108769571D01*
X130829208Y-108659450D01*
X130634805Y-108620781D01*
X119499201Y-108620781D01*
X119193527Y-108315107D01*
X119193527Y-107998172D01*
X119404540Y-108085793D01*
X119761986Y-108086105D01*
X120092342Y-107949605D01*
X120345314Y-107697073D01*
X120482391Y-107366956D01*
X120482703Y-107009510D01*
X120346203Y-106679154D01*
X120093671Y-106426182D01*
X120092047Y-106425508D01*
X120092047Y-101763377D01*
X120544606Y-101310819D01*
X120544900Y-101310941D01*
X120902346Y-101311253D01*
X121232702Y-101174753D01*
X121485674Y-100922221D01*
X121486348Y-100920597D01*
X126398377Y-100920597D01*
X128046960Y-102569180D01*
X127414027Y-102568628D01*
X126602939Y-102903762D01*
X125981843Y-103523775D01*
X125645294Y-104334276D01*
X125644528Y-105211873D01*
X125979662Y-106022961D01*
X126599675Y-106644057D01*
X127410176Y-106980606D01*
X128287773Y-106981372D01*
X129098861Y-106646238D01*
X129719957Y-106026225D01*
X130056506Y-105215724D01*
X130057062Y-104579282D01*
X130296423Y-104818643D01*
X130296423Y-105413469D01*
X130335092Y-105607872D01*
X130445213Y-105772679D01*
X131039228Y-106366694D01*
X131025968Y-106361188D01*
X130595919Y-106360813D01*
X130198463Y-106525038D01*
X129894107Y-106828863D01*
X129729188Y-107226032D01*
X129728813Y-107656081D01*
X129893038Y-108053537D01*
X130196863Y-108357893D01*
X130594032Y-108522812D01*
X131024081Y-108523187D01*
X131421537Y-108358962D01*
X131725893Y-108055137D01*
X131890812Y-107657968D01*
X131891187Y-107227919D01*
X131884663Y-107212129D01*
X132387822Y-107715288D01*
X132552629Y-107825409D01*
X132713885Y-107857485D01*
X132716731Y-107864373D01*
X132969263Y-108117345D01*
X133299380Y-108254422D01*
X133656826Y-108254734D01*
X133658451Y-108254062D01*
X134763619Y-109359231D01*
X134928426Y-109469352D01*
X134960680Y-109475767D01*
X135122830Y-109508021D01*
X149267973Y-109508021D01*
X149462376Y-109469352D01*
X149599082Y-109378008D01*
X149605965Y-109380866D01*
X149963411Y-109381178D01*
X150293767Y-109244678D01*
X150546739Y-108992146D01*
X150547413Y-108990522D01*
X155300590Y-108990522D01*
X155303896Y-108992731D01*
X155314590Y-108994858D01*
X155498300Y-109031400D01*
X155692703Y-108992731D01*
X155857510Y-108882610D01*
X157484998Y-107255122D01*
X157485293Y-107255244D01*
X157669162Y-107255404D01*
X157668813Y-107656081D01*
X157833038Y-108053537D01*
X158136863Y-108357893D01*
X158534032Y-108522812D01*
X158964081Y-108523187D01*
X159361537Y-108358962D01*
X159665893Y-108055137D01*
X159830812Y-107657968D01*
X159831187Y-107227919D01*
X159681191Y-106864900D01*
X162899143Y-106864900D01*
X162749188Y-107226032D01*
X162748813Y-107656081D01*
X162913038Y-108053537D01*
X163216863Y-108357893D01*
X163614032Y-108522812D01*
X164044081Y-108523187D01*
X164441537Y-108358962D01*
X164745893Y-108055137D01*
X164910812Y-107657968D01*
X164911187Y-107227919D01*
X164761191Y-106864900D01*
X167069828Y-106864900D01*
X167138076Y-106933267D01*
X167468193Y-107070344D01*
X167825639Y-107070656D01*
X168155995Y-106934156D01*
X168408967Y-106681624D01*
X168546044Y-106351507D01*
X168546356Y-105994061D01*
X168409856Y-105663705D01*
X168157324Y-105410733D01*
X167827207Y-105273656D01*
X167555512Y-105273419D01*
X167618479Y-105260894D01*
X167744506Y-105176686D01*
X167828714Y-105050659D01*
X167858284Y-104902000D01*
X167858284Y-103378000D01*
X171485716Y-103378000D01*
X171485716Y-104902000D01*
X171515286Y-105050659D01*
X171599494Y-105176686D01*
X171725521Y-105260894D01*
X171874180Y-105290464D01*
X174073820Y-105290464D01*
X174222479Y-105260894D01*
X174348506Y-105176686D01*
X174432714Y-105050659D01*
X174462284Y-104902000D01*
X174462284Y-103378000D01*
X174432714Y-103229341D01*
X174348506Y-103103314D01*
X174222479Y-103019106D01*
X174073820Y-102989536D01*
X171874180Y-102989536D01*
X171725521Y-103019106D01*
X171599494Y-103103314D01*
X171515286Y-103229341D01*
X171485716Y-103378000D01*
X167858284Y-103378000D01*
X167828714Y-103229341D01*
X167744506Y-103103314D01*
X167618479Y-103019106D01*
X167469820Y-102989536D01*
X165270180Y-102989536D01*
X165121521Y-103019106D01*
X164995494Y-103103314D01*
X164911286Y-103229341D01*
X164881716Y-103378000D01*
X164881716Y-104902000D01*
X164911286Y-105050659D01*
X164995494Y-105176686D01*
X165121521Y-105260894D01*
X165270180Y-105290464D01*
X167428327Y-105290464D01*
X167139405Y-105409844D01*
X166886433Y-105662376D01*
X166808981Y-105848900D01*
X158427078Y-105848900D01*
X158426956Y-105848605D01*
X158174424Y-105595633D01*
X157844307Y-105458556D01*
X157486861Y-105458244D01*
X157156505Y-105594744D01*
X156903533Y-105847276D01*
X156766456Y-106177393D01*
X156766144Y-106534839D01*
X156766816Y-106536464D01*
X155328758Y-107974522D01*
X150547750Y-107974522D01*
X150547628Y-107974227D01*
X150295096Y-107721255D01*
X149964979Y-107584178D01*
X149670877Y-107583921D01*
X149671187Y-107227919D01*
X149506962Y-106830463D01*
X149203137Y-106526107D01*
X148805968Y-106361188D01*
X148375919Y-106360813D01*
X147978463Y-106525038D01*
X147674107Y-106828863D01*
X147509188Y-107226032D01*
X147508813Y-107656081D01*
X147673038Y-108053537D01*
X147976863Y-108357893D01*
X148299879Y-108492021D01*
X135333251Y-108492021D01*
X134377109Y-107535880D01*
X134377231Y-107535585D01*
X134377543Y-107178139D01*
X134281966Y-106946824D01*
X135009441Y-106646238D01*
X135630537Y-106026225D01*
X135967086Y-105215724D01*
X135967089Y-105211873D01*
X143424528Y-105211873D01*
X143759662Y-106022961D01*
X144379675Y-106644057D01*
X145190176Y-106980606D01*
X146067773Y-106981372D01*
X146878861Y-106646238D01*
X147499957Y-106026225D01*
X147836506Y-105215724D01*
X147837272Y-104338127D01*
X147502138Y-103527039D01*
X146882125Y-102905943D01*
X146071624Y-102569394D01*
X145194027Y-102568628D01*
X144382939Y-102903762D01*
X143761843Y-103523775D01*
X143425294Y-104334276D01*
X143424528Y-105211873D01*
X135967089Y-105211873D01*
X135967852Y-104338127D01*
X135632718Y-103527039D01*
X135012705Y-102905943D01*
X134202204Y-102569394D01*
X133324607Y-102568628D01*
X132513519Y-102903762D01*
X131892423Y-103523775D01*
X131555874Y-104334276D01*
X131555108Y-105211873D01*
X131719777Y-105610403D01*
X131312423Y-105203049D01*
X131312423Y-104608223D01*
X131273754Y-104413820D01*
X131273754Y-104413819D01*
X131163633Y-104249013D01*
X130865669Y-103951049D01*
X131024081Y-103951187D01*
X131421537Y-103786962D01*
X131725893Y-103483137D01*
X131890812Y-103085968D01*
X131891187Y-102655919D01*
X131726962Y-102258463D01*
X131423137Y-101954107D01*
X131025968Y-101789188D01*
X130595919Y-101788813D01*
X130198463Y-101953038D01*
X129894107Y-102256863D01*
X129729188Y-102654032D01*
X129729048Y-102814428D01*
X126968007Y-100053387D01*
X126803200Y-99943266D01*
X126608797Y-99904597D01*
X121486685Y-99904597D01*
X121486563Y-99904302D01*
X121234031Y-99651330D01*
X120903914Y-99514253D01*
X120546468Y-99513941D01*
X120216112Y-99650441D01*
X119963140Y-99902973D01*
X119826063Y-100233090D01*
X119825751Y-100590536D01*
X119826422Y-100592161D01*
X119224837Y-101193747D01*
X119114716Y-101358554D01*
X119076047Y-101552957D01*
X119076047Y-103068620D01*
X118865034Y-102980999D01*
X118507588Y-102980687D01*
X118505963Y-102981359D01*
X115561312Y-100036708D01*
X115396505Y-99926587D01*
X115202102Y-99887918D01*
X114830721Y-99887918D01*
X114830599Y-99887623D01*
X114578067Y-99634651D01*
X114247950Y-99497574D01*
X113890504Y-99497262D01*
X113560148Y-99633762D01*
X113307176Y-99886294D01*
X113281138Y-99949000D01*
X105223137Y-99949000D01*
X105272210Y-99916210D01*
X105686879Y-99501541D01*
X105818929Y-99556373D01*
X106269096Y-99556766D01*
X106685146Y-99384858D01*
X107003739Y-99066820D01*
X107176373Y-98651071D01*
X107176578Y-98416568D01*
X107445966Y-98147180D01*
X107445966Y-99175570D01*
X107475536Y-99324229D01*
X107559744Y-99450256D01*
X107685771Y-99534464D01*
X107834430Y-99564034D01*
X109335570Y-99564034D01*
X109484229Y-99534464D01*
X109610256Y-99450256D01*
X109694464Y-99324229D01*
X109724034Y-99175570D01*
X109724034Y-97674430D01*
X109694464Y-97525771D01*
X109657867Y-97470999D01*
X112097441Y-97470999D01*
X111949188Y-97828032D01*
X111948813Y-98258081D01*
X112113038Y-98655537D01*
X112416863Y-98959893D01*
X112814032Y-99124812D01*
X113244081Y-99125187D01*
X113641537Y-98960962D01*
X113945893Y-98657137D01*
X114110812Y-98259968D01*
X114111187Y-97829919D01*
X113962885Y-97470999D01*
X115808086Y-97470999D01*
X115989726Y-97652640D01*
X116154533Y-97762760D01*
X116348936Y-97801429D01*
X117778683Y-97801429D01*
X117613627Y-98198929D01*
X117613234Y-98649096D01*
X117785142Y-99065146D01*
X118103180Y-99383739D01*
X118518929Y-99556373D01*
X118969096Y-99556766D01*
X119385146Y-99384858D01*
X119703739Y-99066820D01*
X119876373Y-98651071D01*
X119876766Y-98200904D01*
X119711707Y-97801429D01*
X120318683Y-97801429D01*
X120153627Y-98198929D01*
X120153234Y-98649096D01*
X120325142Y-99065146D01*
X120643180Y-99383739D01*
X121058929Y-99556373D01*
X121509096Y-99556766D01*
X121925146Y-99384858D01*
X122243739Y-99066820D01*
X122416373Y-98651071D01*
X122416766Y-98200904D01*
X122251707Y-97801429D01*
X122483009Y-97801429D01*
X122748459Y-98066879D01*
X122693627Y-98198929D01*
X122693234Y-98649096D01*
X122865142Y-99065146D01*
X123183180Y-99383739D01*
X123598929Y-99556373D01*
X124049096Y-99556766D01*
X124465146Y-99384858D01*
X124783739Y-99066820D01*
X124956373Y-98651071D01*
X124956766Y-98200904D01*
X124901433Y-98066988D01*
X125225966Y-97742455D01*
X125225966Y-99175570D01*
X125255536Y-99324229D01*
X125339744Y-99450256D01*
X125465771Y-99534464D01*
X125614430Y-99564034D01*
X127115570Y-99564034D01*
X127264229Y-99534464D01*
X127390256Y-99450256D01*
X127474464Y-99324229D01*
X127504034Y-99175570D01*
X127504034Y-97674430D01*
X127501044Y-97659400D01*
X129799210Y-97659400D01*
X129729188Y-97828032D01*
X129728813Y-98258081D01*
X129893038Y-98655537D01*
X130196863Y-98959893D01*
X130594032Y-99124812D01*
X131024081Y-99125187D01*
X131421537Y-98960962D01*
X131725893Y-98657137D01*
X131890812Y-98259968D01*
X131891187Y-97829919D01*
X131726962Y-97432463D01*
X131423137Y-97128107D01*
X131064169Y-96979051D01*
X132789220Y-95254000D01*
X134291768Y-95254000D01*
X134123627Y-95658929D01*
X134123234Y-96109096D01*
X134295142Y-96525146D01*
X134613180Y-96843739D01*
X135028929Y-97016373D01*
X135479096Y-97016766D01*
X135895146Y-96844858D01*
X136213739Y-96526820D01*
X136386373Y-96111071D01*
X136386766Y-95660904D01*
X136218637Y-95254000D01*
X136831768Y-95254000D01*
X136663627Y-95658929D01*
X136663234Y-96109096D01*
X136835142Y-96525146D01*
X137153180Y-96843739D01*
X137287000Y-96899306D01*
X137287000Y-97586651D01*
X137166820Y-97466261D01*
X136751071Y-97293627D01*
X136300904Y-97293234D01*
X135884854Y-97465142D01*
X135566261Y-97783180D01*
X135393627Y-98198929D01*
X135393234Y-98649096D01*
X135565142Y-99065146D01*
X135883180Y-99383739D01*
X136298929Y-99556373D01*
X136749096Y-99556766D01*
X137165146Y-99384858D01*
X137434297Y-99116176D01*
X137435790Y-99118410D01*
X140276590Y-101959210D01*
X140441397Y-102069331D01*
X140635800Y-102108000D01*
X147823230Y-102108000D01*
X147674107Y-102256863D01*
X147509188Y-102654032D01*
X147508813Y-103084081D01*
X147673038Y-103481537D01*
X147976863Y-103785893D01*
X148374032Y-103950812D01*
X148804081Y-103951187D01*
X149201537Y-103786962D01*
X149505893Y-103483137D01*
X149549549Y-103378000D01*
X149641716Y-103378000D01*
X149641716Y-104902000D01*
X149671286Y-105050659D01*
X149755494Y-105176686D01*
X149881521Y-105260894D01*
X150030180Y-105290464D01*
X152229820Y-105290464D01*
X152378479Y-105260894D01*
X152504506Y-105176686D01*
X152588714Y-105050659D01*
X152618284Y-104902000D01*
X152618284Y-103378000D01*
X154721716Y-103378000D01*
X154721716Y-104902000D01*
X154751286Y-105050659D01*
X154835494Y-105176686D01*
X154961521Y-105260894D01*
X155110180Y-105290464D01*
X157309820Y-105290464D01*
X157458479Y-105260894D01*
X157584506Y-105176686D01*
X157668714Y-105050659D01*
X157698284Y-104902000D01*
X157698284Y-103378000D01*
X157668714Y-103229341D01*
X157584506Y-103103314D01*
X157458479Y-103019106D01*
X157309820Y-102989536D01*
X155110180Y-102989536D01*
X154961521Y-103019106D01*
X154835494Y-103103314D01*
X154751286Y-103229341D01*
X154721716Y-103378000D01*
X152618284Y-103378000D01*
X152588714Y-103229341D01*
X152504506Y-103103314D01*
X152378479Y-103019106D01*
X152229820Y-102989536D01*
X150030180Y-102989536D01*
X149881521Y-103019106D01*
X149755494Y-103103314D01*
X149671286Y-103229341D01*
X149641716Y-103378000D01*
X149549549Y-103378000D01*
X149670812Y-103085968D01*
X149671187Y-102655919D01*
X149506962Y-102258463D01*
X149356762Y-102108000D01*
X149754344Y-102108000D01*
X149954946Y-102408223D01*
X150325762Y-102655994D01*
X150763169Y-102743000D01*
X151496831Y-102743000D01*
X151934238Y-102655994D01*
X152305054Y-102408223D01*
X152505656Y-102108000D01*
X154834344Y-102108000D01*
X155034946Y-102408223D01*
X155405762Y-102655994D01*
X155843169Y-102743000D01*
X156576831Y-102743000D01*
X157014238Y-102655994D01*
X157385054Y-102408223D01*
X157585656Y-102108000D01*
X157983230Y-102108000D01*
X157834107Y-102256863D01*
X157669188Y-102654032D01*
X157668813Y-103084081D01*
X157833038Y-103481537D01*
X158136863Y-103785893D01*
X158534032Y-103950812D01*
X158964081Y-103951187D01*
X159361537Y-103786962D01*
X159665893Y-103483137D01*
X159709549Y-103378000D01*
X159801716Y-103378000D01*
X159801716Y-104902000D01*
X159831286Y-105050659D01*
X159915494Y-105176686D01*
X160041521Y-105260894D01*
X160190180Y-105290464D01*
X162389820Y-105290464D01*
X162538479Y-105260894D01*
X162664506Y-105176686D01*
X162748714Y-105050659D01*
X162778284Y-104902000D01*
X162778284Y-103378000D01*
X162748714Y-103229341D01*
X162664506Y-103103314D01*
X162538479Y-103019106D01*
X162389820Y-102989536D01*
X160190180Y-102989536D01*
X160041521Y-103019106D01*
X159915494Y-103103314D01*
X159831286Y-103229341D01*
X159801716Y-103378000D01*
X159709549Y-103378000D01*
X159830812Y-103085968D01*
X159831187Y-102655919D01*
X159666962Y-102258463D01*
X159516762Y-102108000D01*
X159914344Y-102108000D01*
X160114946Y-102408223D01*
X160485762Y-102655994D01*
X160923169Y-102743000D01*
X161656831Y-102743000D01*
X162094238Y-102655994D01*
X162465054Y-102408223D01*
X162665656Y-102108000D01*
X163063230Y-102108000D01*
X162914107Y-102256863D01*
X162749188Y-102654032D01*
X162748813Y-103084081D01*
X162913038Y-103481537D01*
X163216863Y-103785893D01*
X163614032Y-103950812D01*
X164044081Y-103951187D01*
X164441537Y-103786962D01*
X164745893Y-103483137D01*
X164910812Y-103085968D01*
X164911187Y-102655919D01*
X164746962Y-102258463D01*
X164596762Y-102108000D01*
X164994344Y-102108000D01*
X165194946Y-102408223D01*
X165565762Y-102655994D01*
X166003169Y-102743000D01*
X166736831Y-102743000D01*
X167174238Y-102655994D01*
X167545054Y-102408223D01*
X167745656Y-102108000D01*
X171598344Y-102108000D01*
X171798946Y-102408223D01*
X172169762Y-102655994D01*
X172607169Y-102743000D01*
X173340831Y-102743000D01*
X173778238Y-102655994D01*
X174149054Y-102408223D01*
X174396825Y-102037407D01*
X174483831Y-101600000D01*
X174396825Y-101162593D01*
X174149054Y-100791777D01*
X173778238Y-100544006D01*
X173340831Y-100457000D01*
X172607169Y-100457000D01*
X172169762Y-100544006D01*
X171798946Y-100791777D01*
X171598344Y-101092000D01*
X167745656Y-101092000D01*
X167545054Y-100791777D01*
X167174238Y-100544006D01*
X166736831Y-100457000D01*
X166003169Y-100457000D01*
X165565762Y-100544006D01*
X165194946Y-100791777D01*
X164994344Y-101092000D01*
X162665656Y-101092000D01*
X162465054Y-100791777D01*
X162094238Y-100544006D01*
X161656831Y-100457000D01*
X160923169Y-100457000D01*
X160485762Y-100544006D01*
X160114946Y-100791777D01*
X159914344Y-101092000D01*
X157585656Y-101092000D01*
X157385054Y-100791777D01*
X157014238Y-100544006D01*
X156576831Y-100457000D01*
X155843169Y-100457000D01*
X155405762Y-100544006D01*
X155034946Y-100791777D01*
X154834344Y-101092000D01*
X152505656Y-101092000D01*
X152305054Y-100791777D01*
X151934238Y-100544006D01*
X151496831Y-100457000D01*
X150763169Y-100457000D01*
X150325762Y-100544006D01*
X149954946Y-100791777D01*
X149754344Y-101092000D01*
X140846220Y-101092000D01*
X139304586Y-99550366D01*
X139705146Y-99384858D01*
X140023739Y-99066820D01*
X140196373Y-98651071D01*
X140196766Y-98200904D01*
X140137254Y-98056874D01*
X140473458Y-98393078D01*
X140473234Y-98649096D01*
X140645142Y-99065146D01*
X140963180Y-99383739D01*
X141378929Y-99556373D01*
X141829096Y-99556766D01*
X142245146Y-99384858D01*
X142563739Y-99066820D01*
X142736373Y-98651071D01*
X142736766Y-98200904D01*
X142564858Y-97784854D01*
X142454627Y-97674430D01*
X143005966Y-97674430D01*
X143005966Y-99175570D01*
X143035536Y-99324229D01*
X143119744Y-99450256D01*
X143245771Y-99534464D01*
X143394430Y-99564034D01*
X144895570Y-99564034D01*
X145044229Y-99534464D01*
X145170256Y-99450256D01*
X145254464Y-99324229D01*
X145284034Y-99175570D01*
X145284034Y-98258081D01*
X147508813Y-98258081D01*
X147673038Y-98655537D01*
X147976863Y-98959893D01*
X148374032Y-99124812D01*
X148804081Y-99125187D01*
X148961846Y-99060000D01*
X149620169Y-99060000D01*
X149707175Y-99497407D01*
X149954946Y-99868223D01*
X150325762Y-100115994D01*
X150763169Y-100203000D01*
X151496831Y-100203000D01*
X151934238Y-100115994D01*
X152305054Y-99868223D01*
X152552825Y-99497407D01*
X152639831Y-99060000D01*
X154700169Y-99060000D01*
X154787175Y-99497407D01*
X155034946Y-99868223D01*
X155405762Y-100115994D01*
X155843169Y-100203000D01*
X156576831Y-100203000D01*
X157014238Y-100115994D01*
X157385054Y-99868223D01*
X157567139Y-99595714D01*
X157756600Y-99633400D01*
X159743400Y-99633400D01*
X159932861Y-99595714D01*
X160114946Y-99868223D01*
X160485762Y-100115994D01*
X160923169Y-100203000D01*
X161656831Y-100203000D01*
X162094238Y-100115994D01*
X162465054Y-99868223D01*
X162712825Y-99497407D01*
X162799831Y-99060000D01*
X162712825Y-98622593D01*
X162469267Y-98258081D01*
X162748813Y-98258081D01*
X162913038Y-98655537D01*
X163216863Y-98959893D01*
X163614032Y-99124812D01*
X164044081Y-99125187D01*
X164201846Y-99060000D01*
X164860169Y-99060000D01*
X164947175Y-99497407D01*
X165194946Y-99868223D01*
X165565762Y-100115994D01*
X166003169Y-100203000D01*
X166736831Y-100203000D01*
X167174238Y-100115994D01*
X167545054Y-99868223D01*
X167792825Y-99497407D01*
X167879831Y-99060000D01*
X171464169Y-99060000D01*
X171551175Y-99497407D01*
X171798946Y-99868223D01*
X172169762Y-100115994D01*
X172607169Y-100203000D01*
X173340831Y-100203000D01*
X173778238Y-100115994D01*
X174149054Y-99868223D01*
X174396825Y-99497407D01*
X174483831Y-99060000D01*
X174396825Y-98622593D01*
X174149054Y-98251777D01*
X173778238Y-98004006D01*
X173340831Y-97917000D01*
X172607169Y-97917000D01*
X172169762Y-98004006D01*
X171798946Y-98251777D01*
X171551175Y-98622593D01*
X171464169Y-99060000D01*
X167879831Y-99060000D01*
X167792825Y-98622593D01*
X167545054Y-98251777D01*
X167174238Y-98004006D01*
X166736831Y-97917000D01*
X166003169Y-97917000D01*
X165565762Y-98004006D01*
X165194946Y-98251777D01*
X164947175Y-98622593D01*
X164860169Y-99060000D01*
X164201846Y-99060000D01*
X164441537Y-98960962D01*
X164745893Y-98657137D01*
X164910812Y-98259968D01*
X164911187Y-97829919D01*
X164746962Y-97432463D01*
X164443137Y-97128107D01*
X164045968Y-96963188D01*
X163615919Y-96962813D01*
X163218463Y-97127038D01*
X162914107Y-97430863D01*
X162749188Y-97828032D01*
X162748813Y-98258081D01*
X162469267Y-98258081D01*
X162465054Y-98251777D01*
X162094238Y-98004006D01*
X161656831Y-97917000D01*
X160923169Y-97917000D01*
X160485762Y-98004006D01*
X160114946Y-98251777D01*
X159914344Y-98552000D01*
X159808800Y-98552000D01*
X159700614Y-98573519D01*
X159830812Y-98259968D01*
X159831187Y-97829919D01*
X159666962Y-97432463D01*
X159363137Y-97128107D01*
X158965968Y-96963188D01*
X158535919Y-96962813D01*
X158138463Y-97127038D01*
X157834107Y-97430863D01*
X157669188Y-97828032D01*
X157668813Y-98258081D01*
X157799128Y-98573468D01*
X157691200Y-98552000D01*
X157585656Y-98552000D01*
X157385054Y-98251777D01*
X157014238Y-98004006D01*
X156576831Y-97917000D01*
X155843169Y-97917000D01*
X155405762Y-98004006D01*
X155034946Y-98251777D01*
X154787175Y-98622593D01*
X154700169Y-99060000D01*
X152639831Y-99060000D01*
X152552825Y-98622593D01*
X152305054Y-98251777D01*
X151934238Y-98004006D01*
X151496831Y-97917000D01*
X150763169Y-97917000D01*
X150325762Y-98004006D01*
X149954946Y-98251777D01*
X149707175Y-98622593D01*
X149620169Y-99060000D01*
X148961846Y-99060000D01*
X149201537Y-98960962D01*
X149505893Y-98657137D01*
X149670812Y-98259968D01*
X149671187Y-97829919D01*
X149506962Y-97432463D01*
X149203137Y-97128107D01*
X148805968Y-96963188D01*
X148375919Y-96962813D01*
X147978463Y-97127038D01*
X147674107Y-97430863D01*
X147509188Y-97828032D01*
X147508813Y-98258081D01*
X145284034Y-98258081D01*
X145284034Y-97674430D01*
X145254464Y-97525771D01*
X145170256Y-97399744D01*
X145044229Y-97315536D01*
X144895570Y-97285966D01*
X143394430Y-97285966D01*
X143245771Y-97315536D01*
X143119744Y-97399744D01*
X143035536Y-97525771D01*
X143005966Y-97674430D01*
X142454627Y-97674430D01*
X142246820Y-97466261D01*
X141831071Y-97293627D01*
X141380904Y-97293234D01*
X140977243Y-97460023D01*
X139626316Y-96109096D01*
X141743234Y-96109096D01*
X141915142Y-96525146D01*
X142233180Y-96843739D01*
X142648929Y-97016373D01*
X143099096Y-97016766D01*
X143515146Y-96844858D01*
X143833739Y-96526820D01*
X144006373Y-96111071D01*
X144006766Y-95660904D01*
X143834858Y-95244854D01*
X143516820Y-94926261D01*
X143101071Y-94753627D01*
X142650904Y-94753234D01*
X142234854Y-94925142D01*
X141916261Y-95243180D01*
X141743627Y-95658929D01*
X141743234Y-96109096D01*
X139626316Y-96109096D01*
X139573000Y-96055780D01*
X139573000Y-95534500D01*
X139534331Y-95340097D01*
X139534331Y-95340096D01*
X139424210Y-95175289D01*
X138697002Y-94448081D01*
X147508813Y-94448081D01*
X147673038Y-94845537D01*
X147976863Y-95149893D01*
X148374032Y-95314812D01*
X148804081Y-95315187D01*
X149201537Y-95150962D01*
X149505893Y-94847137D01*
X149670812Y-94449968D01*
X149670813Y-94448081D01*
X157668813Y-94448081D01*
X157833038Y-94845537D01*
X158136863Y-95149893D01*
X158534032Y-95314812D01*
X158964081Y-95315187D01*
X159361537Y-95150962D01*
X159665893Y-94847137D01*
X159830812Y-94449968D01*
X159830813Y-94448081D01*
X162748813Y-94448081D01*
X162913038Y-94845537D01*
X163216863Y-95149893D01*
X163614032Y-95314812D01*
X164044081Y-95315187D01*
X164441537Y-95150962D01*
X164745893Y-94847137D01*
X164910812Y-94449968D01*
X164911187Y-94019919D01*
X164746962Y-93622463D01*
X164443137Y-93318107D01*
X164045968Y-93153188D01*
X163615919Y-93152813D01*
X163218463Y-93317038D01*
X162914107Y-93620863D01*
X162749188Y-94018032D01*
X162748813Y-94448081D01*
X159830813Y-94448081D01*
X159831187Y-94019919D01*
X159666962Y-93622463D01*
X159363137Y-93318107D01*
X158965968Y-93153188D01*
X158535919Y-93152813D01*
X158138463Y-93317038D01*
X157834107Y-93620863D01*
X157669188Y-94018032D01*
X157668813Y-94448081D01*
X149670813Y-94448081D01*
X149671187Y-94019919D01*
X149506962Y-93622463D01*
X149203137Y-93318107D01*
X148805968Y-93153188D01*
X148375919Y-93152813D01*
X147978463Y-93317038D01*
X147674107Y-93620863D01*
X147509188Y-94018032D01*
X147508813Y-94448081D01*
X138697002Y-94448081D01*
X138635710Y-94386790D01*
X138470903Y-94276669D01*
X138276500Y-94238000D01*
X132578800Y-94238000D01*
X132416650Y-94270254D01*
X132384396Y-94276669D01*
X132219590Y-94386790D01*
X129962980Y-96643400D01*
X125936956Y-96643400D01*
X126053739Y-96526820D01*
X126226373Y-96111071D01*
X126226766Y-95660904D01*
X126054858Y-95244854D01*
X125736820Y-94926261D01*
X125321071Y-94753627D01*
X124870904Y-94753234D01*
X124454854Y-94925142D01*
X124136261Y-95243180D01*
X123963627Y-95658929D01*
X123963234Y-96109096D01*
X124135142Y-96525146D01*
X124453180Y-96843739D01*
X124618990Y-96912589D01*
X124183121Y-97348459D01*
X124051071Y-97293627D01*
X123600904Y-97293234D01*
X123466987Y-97348567D01*
X123052639Y-96934219D01*
X122887832Y-96824098D01*
X122693429Y-96785429D01*
X120714679Y-96785429D01*
X120973739Y-96526820D01*
X121146373Y-96111071D01*
X121146766Y-95660904D01*
X120974858Y-95244854D01*
X120656820Y-94926261D01*
X120241071Y-94753627D01*
X119790904Y-94753234D01*
X119374854Y-94925142D01*
X119056261Y-95243180D01*
X118883627Y-95658929D01*
X118883234Y-96109096D01*
X119055142Y-96525146D01*
X119314972Y-96785429D01*
X118174679Y-96785429D01*
X118433739Y-96526820D01*
X118606373Y-96111071D01*
X118606766Y-95660904D01*
X118434858Y-95244854D01*
X118116820Y-94926261D01*
X117701071Y-94753627D01*
X117250904Y-94753234D01*
X116834854Y-94925142D01*
X116516261Y-95243180D01*
X116343627Y-95658929D01*
X116343234Y-96109096D01*
X116515142Y-96525146D01*
X116774972Y-96785429D01*
X116559357Y-96785429D01*
X116377716Y-96603789D01*
X116212909Y-96493668D01*
X116018506Y-96454999D01*
X108303562Y-96454999D01*
X108446373Y-96111071D01*
X108446766Y-95660904D01*
X108274858Y-95244854D01*
X107956820Y-94926261D01*
X107541071Y-94753627D01*
X107090904Y-94753234D01*
X106674854Y-94925142D01*
X106356261Y-95243180D01*
X106183627Y-95658929D01*
X106183234Y-96109096D01*
X106355142Y-96525146D01*
X106673180Y-96843739D01*
X107088929Y-97016373D01*
X107139889Y-97016417D01*
X106688431Y-97467875D01*
X106686820Y-97466261D01*
X106271071Y-97293627D01*
X105820904Y-97293234D01*
X105404854Y-97465142D01*
X105086261Y-97783180D01*
X104913627Y-98198929D01*
X104913234Y-98649096D01*
X104968567Y-98783013D01*
X104702580Y-99049000D01*
X104471139Y-99049000D01*
X104636373Y-98651071D01*
X104636766Y-98200904D01*
X104464858Y-97784854D01*
X104146820Y-97466261D01*
X103731071Y-97293627D01*
X103280904Y-97293234D01*
X102864854Y-97465142D01*
X102546261Y-97783180D01*
X102373627Y-98198929D01*
X102373234Y-98649096D01*
X102538471Y-99049000D01*
X101931139Y-99049000D01*
X102096373Y-98651071D01*
X102096766Y-98200904D01*
X101924858Y-97784854D01*
X101606820Y-97466261D01*
X101191071Y-97293627D01*
X100740904Y-97293234D01*
X100324854Y-97465142D01*
X100006261Y-97783180D01*
X99833627Y-98198929D01*
X99833234Y-98649096D01*
X99998471Y-99049000D01*
X95648468Y-99049000D01*
X95861537Y-98960962D01*
X96165893Y-98657137D01*
X96330812Y-98259968D01*
X96331187Y-97829919D01*
X96166962Y-97432463D01*
X95863137Y-97128107D01*
X95465968Y-96963188D01*
X95035919Y-96962813D01*
X94638463Y-97127038D01*
X94334107Y-97430863D01*
X94169188Y-97828032D01*
X94168813Y-98258081D01*
X94333038Y-98655537D01*
X94636863Y-98959893D01*
X94851456Y-99049000D01*
X91944034Y-99049000D01*
X91944034Y-97674430D01*
X91914464Y-97525771D01*
X91830256Y-97399744D01*
X91704229Y-97315536D01*
X91555570Y-97285966D01*
X90054430Y-97285966D01*
X89905771Y-97315536D01*
X89779744Y-97399744D01*
X89695536Y-97525771D01*
X89665966Y-97674430D01*
X89665966Y-99049000D01*
X89607420Y-99049000D01*
X89341541Y-98783121D01*
X89396373Y-98651071D01*
X89396766Y-98200904D01*
X89224858Y-97784854D01*
X88906820Y-97466261D01*
X88491071Y-97293627D01*
X88040904Y-97293234D01*
X87906987Y-97348567D01*
X87873641Y-97315221D01*
X87708834Y-97205100D01*
X87514431Y-97166431D01*
X87363751Y-97166431D01*
X86306416Y-96109096D01*
X88403234Y-96109096D01*
X88575142Y-96525146D01*
X88893180Y-96843739D01*
X89308929Y-97016373D01*
X89759096Y-97016766D01*
X90175146Y-96844858D01*
X90493739Y-96526820D01*
X90666373Y-96111071D01*
X90666374Y-96109096D01*
X98563234Y-96109096D01*
X98735142Y-96525146D01*
X99053180Y-96843739D01*
X99468929Y-97016373D01*
X99919096Y-97016766D01*
X100335146Y-96844858D01*
X100653739Y-96526820D01*
X100826373Y-96111071D01*
X100826374Y-96109096D01*
X101103234Y-96109096D01*
X101275142Y-96525146D01*
X101593180Y-96843739D01*
X102008929Y-97016373D01*
X102459096Y-97016766D01*
X102875146Y-96844858D01*
X103193739Y-96526820D01*
X103366373Y-96111071D01*
X103366766Y-95660904D01*
X103194858Y-95244854D01*
X102876820Y-94926261D01*
X102461071Y-94753627D01*
X102010904Y-94753234D01*
X101594854Y-94925142D01*
X101276261Y-95243180D01*
X101103627Y-95658929D01*
X101103234Y-96109096D01*
X100826374Y-96109096D01*
X100826766Y-95660904D01*
X100654858Y-95244854D01*
X100336820Y-94926261D01*
X99921071Y-94753627D01*
X99470904Y-94753234D01*
X99054854Y-94925142D01*
X98736261Y-95243180D01*
X98563627Y-95658929D01*
X98563234Y-96109096D01*
X90666374Y-96109096D01*
X90666766Y-95660904D01*
X90494858Y-95244854D01*
X90176820Y-94926261D01*
X89761071Y-94753627D01*
X89310904Y-94753234D01*
X88894854Y-94925142D01*
X88576261Y-95243180D01*
X88403627Y-95658929D01*
X88403234Y-96109096D01*
X86306416Y-96109096D01*
X86233000Y-96035680D01*
X86233000Y-95521200D01*
X86194331Y-95326797D01*
X86194331Y-95326796D01*
X86084210Y-95161989D01*
X85370302Y-94448081D01*
X94168813Y-94448081D01*
X94333038Y-94845537D01*
X94636863Y-95149893D01*
X95034032Y-95314812D01*
X95464081Y-95315187D01*
X95861537Y-95150962D01*
X96165893Y-94847137D01*
X96330812Y-94449968D01*
X96330813Y-94448081D01*
X111948813Y-94448081D01*
X112113038Y-94845537D01*
X112416863Y-95149893D01*
X112814032Y-95314812D01*
X113244081Y-95315187D01*
X113641537Y-95150962D01*
X113945893Y-94847137D01*
X114110812Y-94449968D01*
X114110813Y-94448081D01*
X129728813Y-94448081D01*
X129893038Y-94845537D01*
X130196863Y-95149893D01*
X130594032Y-95314812D01*
X131024081Y-95315187D01*
X131421537Y-95150962D01*
X131725893Y-94847137D01*
X131890812Y-94449968D01*
X131891187Y-94019919D01*
X131726962Y-93622463D01*
X131423137Y-93318107D01*
X131025968Y-93153188D01*
X130595919Y-93152813D01*
X130198463Y-93317038D01*
X129894107Y-93620863D01*
X129729188Y-94018032D01*
X129728813Y-94448081D01*
X114110813Y-94448081D01*
X114111187Y-94019919D01*
X113946962Y-93622463D01*
X113643137Y-93318107D01*
X113245968Y-93153188D01*
X112815919Y-93152813D01*
X112418463Y-93317038D01*
X112114107Y-93620863D01*
X111949188Y-94018032D01*
X111948813Y-94448081D01*
X96330813Y-94448081D01*
X96331187Y-94019919D01*
X96166962Y-93622463D01*
X95863137Y-93318107D01*
X95465968Y-93153188D01*
X95035919Y-93152813D01*
X94638463Y-93317038D01*
X94334107Y-93620863D01*
X94169188Y-94018032D01*
X94168813Y-94448081D01*
X85370302Y-94448081D01*
X85266510Y-94344290D01*
X85101703Y-94234169D01*
X84907300Y-94195500D01*
X80852300Y-94195500D01*
X80657897Y-94234169D01*
X80493090Y-94344290D01*
X75788809Y-99048571D01*
X74164034Y-99048571D01*
X74164034Y-97674430D01*
X74134464Y-97525771D01*
X74050256Y-97399744D01*
X73924229Y-97315536D01*
X73775570Y-97285966D01*
X72274430Y-97285966D01*
X72125771Y-97315536D01*
X71999744Y-97399744D01*
X71915536Y-97525771D01*
X71885966Y-97674430D01*
X71885966Y-99048571D01*
X71826991Y-99048571D01*
X71561541Y-98783121D01*
X71616373Y-98651071D01*
X71616766Y-98200904D01*
X71444858Y-97784854D01*
X71126820Y-97466261D01*
X70711071Y-97293627D01*
X70260904Y-97293234D01*
X69844854Y-97465142D01*
X69526261Y-97783180D01*
X69353627Y-98198929D01*
X69353234Y-98649096D01*
X69408567Y-98783013D01*
X69139880Y-99051700D01*
X68910017Y-99051700D01*
X69076373Y-98651071D01*
X69076766Y-98200904D01*
X68904858Y-97784854D01*
X68586820Y-97466261D01*
X68171071Y-97293627D01*
X67720904Y-97293234D01*
X67304854Y-97465142D01*
X66986261Y-97783180D01*
X66813627Y-98198929D01*
X66813234Y-98649096D01*
X66979586Y-99051700D01*
X66370017Y-99051700D01*
X66536373Y-98651071D01*
X66536766Y-98200904D01*
X66364858Y-97784854D01*
X66046820Y-97466261D01*
X65631071Y-97293627D01*
X65180904Y-97293234D01*
X64764854Y-97465142D01*
X64446261Y-97783180D01*
X64273627Y-98198929D01*
X64273234Y-98649096D01*
X64368189Y-98878904D01*
X64236621Y-98790993D01*
X64042218Y-98752324D01*
X63179656Y-98752324D01*
X62985253Y-98790993D01*
X62820446Y-98901113D01*
X62669860Y-99051700D01*
X60081934Y-99051700D01*
X60301537Y-98960962D01*
X60605893Y-98657137D01*
X60770812Y-98259968D01*
X60771187Y-97829919D01*
X60606962Y-97432463D01*
X60303137Y-97128107D01*
X59905968Y-96963188D01*
X59475919Y-96962813D01*
X59078463Y-97127038D01*
X58774107Y-97430863D01*
X58609188Y-97828032D01*
X58608813Y-98258081D01*
X58739128Y-98573468D01*
X58631200Y-98552000D01*
X58525656Y-98552000D01*
X58325054Y-98251777D01*
X57954238Y-98004006D01*
X57516831Y-97917000D01*
X56783169Y-97917000D01*
X56345762Y-98004006D01*
X55974946Y-98251777D01*
X55727175Y-98622593D01*
X55640169Y-99060000D01*
X55727175Y-99497407D01*
X55974946Y-99868223D01*
X56345762Y-100115994D01*
X56783169Y-100203000D01*
X57516831Y-100203000D01*
X57954238Y-100115994D01*
X58325054Y-99868223D01*
X58483649Y-99630869D01*
X58771690Y-99918911D01*
X58936497Y-100029031D01*
X59130900Y-100067700D01*
X62712516Y-100067700D01*
X62712281Y-100336764D01*
X62848781Y-100667120D01*
X63101313Y-100920092D01*
X63431430Y-101057169D01*
X63788876Y-101057481D01*
X63790501Y-101056809D01*
X64339471Y-101605779D01*
X64339471Y-103353489D01*
X63892705Y-102905943D01*
X63082204Y-102569394D01*
X62204607Y-102568628D01*
X61393519Y-102903762D01*
X60772423Y-103523775D01*
X60435874Y-104334276D01*
X60435108Y-105211873D01*
X60770242Y-106022961D01*
X61390255Y-106644057D01*
X62200756Y-106980606D01*
X63078353Y-106981372D01*
X63889441Y-106646238D01*
X64339471Y-106196993D01*
X64339471Y-110617000D01*
X55245278Y-110617000D01*
X55245156Y-110616705D01*
X54992624Y-110363733D01*
X54662507Y-110226656D01*
X54305061Y-110226344D01*
X53974705Y-110362844D01*
X53721733Y-110615376D01*
X53584656Y-110945493D01*
X53584344Y-111302939D01*
X53720844Y-111633295D01*
X53973376Y-111886267D01*
X54303493Y-112023344D01*
X54660939Y-112023656D01*
X54991295Y-111887156D01*
X55244267Y-111634624D01*
X55244941Y-111633000D01*
X59050452Y-111633000D01*
X58774107Y-111908863D01*
X58609188Y-112306032D01*
X58608813Y-112736081D01*
X58773038Y-113133537D01*
X59076863Y-113437893D01*
X59474032Y-113602812D01*
X59904081Y-113603187D01*
X60301537Y-113438962D01*
X60605893Y-113135137D01*
X60770812Y-112737968D01*
X60771187Y-112307919D01*
X60606962Y-111910463D01*
X60329983Y-111633000D01*
X68877580Y-111633000D01*
X69840778Y-112596199D01*
X69840656Y-112596493D01*
X69840344Y-112953939D01*
X69976844Y-113284295D01*
X70229376Y-113537267D01*
X70536990Y-113665000D01*
X32893000Y-113665000D01*
X32893000Y-112736081D01*
X43368813Y-112736081D01*
X43533038Y-113133537D01*
X43836863Y-113437893D01*
X44234032Y-113602812D01*
X44664081Y-113603187D01*
X45061537Y-113438962D01*
X45365893Y-113135137D01*
X45530812Y-112737968D01*
X45530813Y-112736081D01*
X48448813Y-112736081D01*
X48613038Y-113133537D01*
X48916863Y-113437893D01*
X49314032Y-113602812D01*
X49744081Y-113603187D01*
X50141537Y-113438962D01*
X50445893Y-113135137D01*
X50610812Y-112737968D01*
X50611187Y-112307919D01*
X50446962Y-111910463D01*
X50143137Y-111606107D01*
X49745968Y-111441188D01*
X49315919Y-111440813D01*
X48918463Y-111605038D01*
X48614107Y-111908863D01*
X48449188Y-112306032D01*
X48448813Y-112736081D01*
X45530813Y-112736081D01*
X45531187Y-112307919D01*
X45366962Y-111910463D01*
X45063137Y-111606107D01*
X44665968Y-111441188D01*
X44235919Y-111440813D01*
X43838463Y-111605038D01*
X43534107Y-111908863D01*
X43369188Y-112306032D01*
X43368813Y-112736081D01*
X32893000Y-112736081D01*
X32893000Y-107656081D01*
X43368813Y-107656081D01*
X43533038Y-108053537D01*
X43836863Y-108357893D01*
X44234032Y-108522812D01*
X44664081Y-108523187D01*
X45061537Y-108358962D01*
X45365893Y-108055137D01*
X45530812Y-107657968D01*
X45530813Y-107656081D01*
X48448813Y-107656081D01*
X48613038Y-108053537D01*
X48916863Y-108357893D01*
X49314032Y-108522812D01*
X49744081Y-108523187D01*
X50141537Y-108358962D01*
X50445893Y-108055137D01*
X50610812Y-107657968D01*
X50610813Y-107656081D01*
X58608813Y-107656081D01*
X58773038Y-108053537D01*
X59076863Y-108357893D01*
X59474032Y-108522812D01*
X59904081Y-108523187D01*
X60301537Y-108358962D01*
X60605893Y-108055137D01*
X60770812Y-107657968D01*
X60771187Y-107227919D01*
X60606962Y-106830463D01*
X60303137Y-106526107D01*
X59905968Y-106361188D01*
X59475919Y-106360813D01*
X59078463Y-106525038D01*
X58774107Y-106828863D01*
X58609188Y-107226032D01*
X58608813Y-107656081D01*
X50610813Y-107656081D01*
X50611187Y-107227919D01*
X50446962Y-106830463D01*
X50143137Y-106526107D01*
X49745968Y-106361188D01*
X49315919Y-106360813D01*
X48918463Y-106525038D01*
X48614107Y-106828863D01*
X48449188Y-107226032D01*
X48448813Y-107656081D01*
X45530813Y-107656081D01*
X45531187Y-107227919D01*
X45366962Y-106830463D01*
X45063137Y-106526107D01*
X44665968Y-106361188D01*
X44235919Y-106360813D01*
X43838463Y-106525038D01*
X43534107Y-106828863D01*
X43369188Y-107226032D01*
X43368813Y-107656081D01*
X32893000Y-107656081D01*
X32893000Y-103378000D01*
X33309716Y-103378000D01*
X33309716Y-104902000D01*
X33339286Y-105050659D01*
X33423494Y-105176686D01*
X33549521Y-105260894D01*
X33698180Y-105290464D01*
X35897820Y-105290464D01*
X36046479Y-105260894D01*
X36172506Y-105176686D01*
X36256714Y-105050659D01*
X36286284Y-104902000D01*
X36286284Y-103378000D01*
X40421716Y-103378000D01*
X40421716Y-104902000D01*
X40451286Y-105050659D01*
X40535494Y-105176686D01*
X40661521Y-105260894D01*
X40810180Y-105290464D01*
X43009820Y-105290464D01*
X43158479Y-105260894D01*
X43284506Y-105176686D01*
X43368714Y-105050659D01*
X43398284Y-104902000D01*
X43398284Y-103378000D01*
X43368714Y-103229341D01*
X43284506Y-103103314D01*
X43158479Y-103019106D01*
X43009820Y-102989536D01*
X40810180Y-102989536D01*
X40661521Y-103019106D01*
X40535494Y-103103314D01*
X40451286Y-103229341D01*
X40421716Y-103378000D01*
X36286284Y-103378000D01*
X36256714Y-103229341D01*
X36172506Y-103103314D01*
X36046479Y-103019106D01*
X35897820Y-102989536D01*
X33698180Y-102989536D01*
X33549521Y-103019106D01*
X33423494Y-103103314D01*
X33339286Y-103229341D01*
X33309716Y-103378000D01*
X32893000Y-103378000D01*
X32893000Y-101600000D01*
X33288169Y-101600000D01*
X33375175Y-102037407D01*
X33622946Y-102408223D01*
X33993762Y-102655994D01*
X34431169Y-102743000D01*
X35164831Y-102743000D01*
X35602238Y-102655994D01*
X35973054Y-102408223D01*
X36173656Y-102108000D01*
X40534344Y-102108000D01*
X40734946Y-102408223D01*
X41105762Y-102655994D01*
X41543169Y-102743000D01*
X42276831Y-102743000D01*
X42714238Y-102655994D01*
X43085054Y-102408223D01*
X43285656Y-102108000D01*
X43683230Y-102108000D01*
X43534107Y-102256863D01*
X43369188Y-102654032D01*
X43368813Y-103084081D01*
X43533038Y-103481537D01*
X43836863Y-103785893D01*
X44234032Y-103950812D01*
X44664081Y-103951187D01*
X45061537Y-103786962D01*
X45365893Y-103483137D01*
X45409549Y-103378000D01*
X45501716Y-103378000D01*
X45501716Y-104902000D01*
X45531286Y-105050659D01*
X45615494Y-105176686D01*
X45741521Y-105260894D01*
X45890180Y-105290464D01*
X48089820Y-105290464D01*
X48238479Y-105260894D01*
X48364506Y-105176686D01*
X48448714Y-105050659D01*
X48478284Y-104902000D01*
X48478284Y-103378000D01*
X48448714Y-103229341D01*
X48364506Y-103103314D01*
X48238479Y-103019106D01*
X48089820Y-102989536D01*
X45890180Y-102989536D01*
X45741521Y-103019106D01*
X45615494Y-103103314D01*
X45531286Y-103229341D01*
X45501716Y-103378000D01*
X45409549Y-103378000D01*
X45530812Y-103085968D01*
X45531187Y-102655919D01*
X45366962Y-102258463D01*
X45216762Y-102108000D01*
X45614344Y-102108000D01*
X45814946Y-102408223D01*
X46185762Y-102655994D01*
X46623169Y-102743000D01*
X47356831Y-102743000D01*
X47794238Y-102655994D01*
X48165054Y-102408223D01*
X48365656Y-102108000D01*
X48763230Y-102108000D01*
X48614107Y-102256863D01*
X48449188Y-102654032D01*
X48448813Y-103084081D01*
X48613038Y-103481537D01*
X48916863Y-103785893D01*
X49314032Y-103950812D01*
X49744081Y-103951187D01*
X50141537Y-103786962D01*
X50445893Y-103483137D01*
X50489549Y-103378000D01*
X50581716Y-103378000D01*
X50581716Y-104902000D01*
X50611286Y-105050659D01*
X50695494Y-105176686D01*
X50821521Y-105260894D01*
X50970180Y-105290464D01*
X51563425Y-105290464D01*
X51600669Y-105477703D01*
X51710790Y-105642510D01*
X51875597Y-105752631D01*
X52016548Y-105780668D01*
X52467778Y-106231899D01*
X52467656Y-106232193D01*
X52467344Y-106589639D01*
X52603844Y-106919995D01*
X52856376Y-107172967D01*
X53186493Y-107310044D01*
X53543939Y-107310356D01*
X53874295Y-107173856D01*
X54127267Y-106921324D01*
X54264344Y-106591207D01*
X54264656Y-106233761D01*
X54128156Y-105903405D01*
X53875624Y-105650433D01*
X53545507Y-105513356D01*
X53188061Y-105513044D01*
X53186436Y-105513715D01*
X52963184Y-105290464D01*
X53169820Y-105290464D01*
X53318479Y-105260894D01*
X53444506Y-105176686D01*
X53528714Y-105050659D01*
X53558284Y-104902000D01*
X53558284Y-103378000D01*
X55661716Y-103378000D01*
X55661716Y-104902000D01*
X55691286Y-105050659D01*
X55775494Y-105176686D01*
X55901521Y-105260894D01*
X56050180Y-105290464D01*
X58249820Y-105290464D01*
X58398479Y-105260894D01*
X58524506Y-105176686D01*
X58608714Y-105050659D01*
X58638284Y-104902000D01*
X58638284Y-103378000D01*
X58608714Y-103229341D01*
X58524506Y-103103314D01*
X58495722Y-103084081D01*
X58608813Y-103084081D01*
X58773038Y-103481537D01*
X59076863Y-103785893D01*
X59474032Y-103950812D01*
X59904081Y-103951187D01*
X60301537Y-103786962D01*
X60605893Y-103483137D01*
X60770812Y-103085968D01*
X60771187Y-102655919D01*
X60606962Y-102258463D01*
X60303137Y-101954107D01*
X59905968Y-101789188D01*
X59475919Y-101788813D01*
X59078463Y-101953038D01*
X58774107Y-102256863D01*
X58609188Y-102654032D01*
X58608813Y-103084081D01*
X58495722Y-103084081D01*
X58398479Y-103019106D01*
X58249820Y-102989536D01*
X56050180Y-102989536D01*
X55901521Y-103019106D01*
X55775494Y-103103314D01*
X55691286Y-103229341D01*
X55661716Y-103378000D01*
X53558284Y-103378000D01*
X53528714Y-103229341D01*
X53444506Y-103103314D01*
X53318479Y-103019106D01*
X53169820Y-102989536D01*
X50970180Y-102989536D01*
X50821521Y-103019106D01*
X50695494Y-103103314D01*
X50611286Y-103229341D01*
X50581716Y-103378000D01*
X50489549Y-103378000D01*
X50610812Y-103085968D01*
X50611187Y-102655919D01*
X50446962Y-102258463D01*
X50296762Y-102108000D01*
X50694344Y-102108000D01*
X50894946Y-102408223D01*
X51265762Y-102655994D01*
X51703169Y-102743000D01*
X52436831Y-102743000D01*
X52874238Y-102655994D01*
X53245054Y-102408223D01*
X53492825Y-102037407D01*
X53579831Y-101600000D01*
X55640169Y-101600000D01*
X55727175Y-102037407D01*
X55974946Y-102408223D01*
X56345762Y-102655994D01*
X56783169Y-102743000D01*
X57516831Y-102743000D01*
X57954238Y-102655994D01*
X58325054Y-102408223D01*
X58572825Y-102037407D01*
X58659831Y-101600000D01*
X58572825Y-101162593D01*
X58325054Y-100791777D01*
X57954238Y-100544006D01*
X57516831Y-100457000D01*
X56783169Y-100457000D01*
X56345762Y-100544006D01*
X55974946Y-100791777D01*
X55727175Y-101162593D01*
X55640169Y-101600000D01*
X53579831Y-101600000D01*
X53492825Y-101162593D01*
X53245054Y-100791777D01*
X52874238Y-100544006D01*
X52436831Y-100457000D01*
X51703169Y-100457000D01*
X51265762Y-100544006D01*
X50894946Y-100791777D01*
X50694344Y-101092000D01*
X48365656Y-101092000D01*
X48165054Y-100791777D01*
X47794238Y-100544006D01*
X47356831Y-100457000D01*
X46623169Y-100457000D01*
X46185762Y-100544006D01*
X45814946Y-100791777D01*
X45614344Y-101092000D01*
X43285656Y-101092000D01*
X43085054Y-100791777D01*
X42714238Y-100544006D01*
X42276831Y-100457000D01*
X41543169Y-100457000D01*
X41105762Y-100544006D01*
X40734946Y-100791777D01*
X40534344Y-101092000D01*
X36173656Y-101092000D01*
X35973054Y-100791777D01*
X35602238Y-100544006D01*
X35164831Y-100457000D01*
X34431169Y-100457000D01*
X33993762Y-100544006D01*
X33622946Y-100791777D01*
X33375175Y-101162593D01*
X33288169Y-101600000D01*
X32893000Y-101600000D01*
X32893000Y-99060000D01*
X33288169Y-99060000D01*
X33375175Y-99497407D01*
X33622946Y-99868223D01*
X33993762Y-100115994D01*
X34431169Y-100203000D01*
X35164831Y-100203000D01*
X35602238Y-100115994D01*
X35973054Y-99868223D01*
X36173656Y-99568000D01*
X40534344Y-99568000D01*
X40734946Y-99868223D01*
X41105762Y-100115994D01*
X41543169Y-100203000D01*
X42276831Y-100203000D01*
X42714238Y-100115994D01*
X43085054Y-99868223D01*
X43257024Y-99610852D01*
X43321196Y-99653731D01*
X43515600Y-99692400D01*
X45384400Y-99692400D01*
X45578803Y-99653731D01*
X45642976Y-99610852D01*
X45814946Y-99868223D01*
X46185762Y-100115994D01*
X46623169Y-100203000D01*
X47356831Y-100203000D01*
X47794238Y-100115994D01*
X48165054Y-99868223D01*
X48412825Y-99497407D01*
X48499831Y-99060000D01*
X48412825Y-98622593D01*
X48169267Y-98258081D01*
X48448813Y-98258081D01*
X48613038Y-98655537D01*
X48916863Y-98959893D01*
X49314032Y-99124812D01*
X49744081Y-99125187D01*
X49901846Y-99060000D01*
X50560169Y-99060000D01*
X50647175Y-99497407D01*
X50894946Y-99868223D01*
X51265762Y-100115994D01*
X51703169Y-100203000D01*
X52436831Y-100203000D01*
X52874238Y-100115994D01*
X53245054Y-99868223D01*
X53492825Y-99497407D01*
X53579831Y-99060000D01*
X53492825Y-98622593D01*
X53245054Y-98251777D01*
X52874238Y-98004006D01*
X52436831Y-97917000D01*
X51703169Y-97917000D01*
X51265762Y-98004006D01*
X50894946Y-98251777D01*
X50647175Y-98622593D01*
X50560169Y-99060000D01*
X49901846Y-99060000D01*
X50141537Y-98960962D01*
X50445893Y-98657137D01*
X50610812Y-98259968D01*
X50611187Y-97829919D01*
X50446962Y-97432463D01*
X50143137Y-97128107D01*
X49745968Y-96963188D01*
X49315919Y-96962813D01*
X48918463Y-97127038D01*
X48614107Y-97430863D01*
X48449188Y-97828032D01*
X48448813Y-98258081D01*
X48169267Y-98258081D01*
X48165054Y-98251777D01*
X47794238Y-98004006D01*
X47356831Y-97917000D01*
X46623169Y-97917000D01*
X46185762Y-98004006D01*
X45814946Y-98251777D01*
X45614344Y-98552000D01*
X45508800Y-98552000D01*
X45400614Y-98573519D01*
X45530812Y-98259968D01*
X45531187Y-97829919D01*
X45366962Y-97432463D01*
X45063137Y-97128107D01*
X44665968Y-96963188D01*
X44235919Y-96962813D01*
X43838463Y-97127038D01*
X43534107Y-97430863D01*
X43369188Y-97828032D01*
X43368813Y-98258081D01*
X43499128Y-98573468D01*
X43391200Y-98552000D01*
X43285656Y-98552000D01*
X43085054Y-98251777D01*
X42714238Y-98004006D01*
X42276831Y-97917000D01*
X41543169Y-97917000D01*
X41105762Y-98004006D01*
X40734946Y-98251777D01*
X40534344Y-98552000D01*
X36173656Y-98552000D01*
X35973054Y-98251777D01*
X35602238Y-98004006D01*
X35164831Y-97917000D01*
X34431169Y-97917000D01*
X33993762Y-98004006D01*
X33622946Y-98251777D01*
X33375175Y-98622593D01*
X33288169Y-99060000D01*
X32893000Y-99060000D01*
X32893000Y-96109096D01*
X63003234Y-96109096D01*
X63175142Y-96525146D01*
X63493180Y-96843739D01*
X63908929Y-97016373D01*
X64359096Y-97016766D01*
X64775146Y-96844858D01*
X65093739Y-96526820D01*
X65266373Y-96111071D01*
X65266374Y-96109096D01*
X65543234Y-96109096D01*
X65715142Y-96525146D01*
X66033180Y-96843739D01*
X66448929Y-97016373D01*
X66899096Y-97016766D01*
X67315146Y-96844858D01*
X67633739Y-96526820D01*
X67806373Y-96111071D01*
X67806374Y-96109096D01*
X70623234Y-96109096D01*
X70795142Y-96525146D01*
X71113180Y-96843739D01*
X71528929Y-97016373D01*
X71979096Y-97016766D01*
X72395146Y-96844858D01*
X72713739Y-96526820D01*
X72886373Y-96111071D01*
X72886766Y-95660904D01*
X72714858Y-95244854D01*
X72396820Y-94926261D01*
X71981071Y-94753627D01*
X71530904Y-94753234D01*
X71114854Y-94925142D01*
X70796261Y-95243180D01*
X70623627Y-95658929D01*
X70623234Y-96109096D01*
X67806374Y-96109096D01*
X67806766Y-95660904D01*
X67634858Y-95244854D01*
X67316820Y-94926261D01*
X66901071Y-94753627D01*
X66450904Y-94753234D01*
X66034854Y-94925142D01*
X65716261Y-95243180D01*
X65543627Y-95658929D01*
X65543234Y-96109096D01*
X65266374Y-96109096D01*
X65266766Y-95660904D01*
X65094858Y-95244854D01*
X64776820Y-94926261D01*
X64361071Y-94753627D01*
X63910904Y-94753234D01*
X63494854Y-94925142D01*
X63176261Y-95243180D01*
X63003627Y-95658929D01*
X63003234Y-96109096D01*
X32893000Y-96109096D01*
X32893000Y-94448081D01*
X43368813Y-94448081D01*
X43533038Y-94845537D01*
X43836863Y-95149893D01*
X44234032Y-95314812D01*
X44664081Y-95315187D01*
X45061537Y-95150962D01*
X45365893Y-94847137D01*
X45530812Y-94449968D01*
X45530813Y-94448081D01*
X48448813Y-94448081D01*
X48613038Y-94845537D01*
X48916863Y-95149893D01*
X49314032Y-95314812D01*
X49744081Y-95315187D01*
X50141537Y-95150962D01*
X50445893Y-94847137D01*
X50610812Y-94449968D01*
X50610813Y-94448081D01*
X58608813Y-94448081D01*
X58773038Y-94845537D01*
X59076863Y-95149893D01*
X59474032Y-95314812D01*
X59904081Y-95315187D01*
X60301537Y-95150962D01*
X60605893Y-94847137D01*
X60770812Y-94449968D01*
X60770813Y-94448081D01*
X76388813Y-94448081D01*
X76553038Y-94845537D01*
X76856863Y-95149893D01*
X77254032Y-95314812D01*
X77684081Y-95315187D01*
X78081537Y-95150962D01*
X78385893Y-94847137D01*
X78550812Y-94449968D01*
X78551187Y-94019919D01*
X78386962Y-93622463D01*
X78083137Y-93318107D01*
X77685968Y-93153188D01*
X77255919Y-93152813D01*
X76858463Y-93317038D01*
X76554107Y-93620863D01*
X76389188Y-94018032D01*
X76388813Y-94448081D01*
X60770813Y-94448081D01*
X60771187Y-94019919D01*
X60606962Y-93622463D01*
X60303137Y-93318107D01*
X59905968Y-93153188D01*
X59475919Y-93152813D01*
X59078463Y-93317038D01*
X58774107Y-93620863D01*
X58609188Y-94018032D01*
X58608813Y-94448081D01*
X50610813Y-94448081D01*
X50611187Y-94019919D01*
X50446962Y-93622463D01*
X50143137Y-93318107D01*
X49745968Y-93153188D01*
X49315919Y-93152813D01*
X48918463Y-93317038D01*
X48614107Y-93620863D01*
X48449188Y-94018032D01*
X48448813Y-94448081D01*
X45530813Y-94448081D01*
X45531187Y-94019919D01*
X45366962Y-93622463D01*
X45063137Y-93318107D01*
X44665968Y-93153188D01*
X44235919Y-93152813D01*
X43838463Y-93317038D01*
X43534107Y-93620863D01*
X43369188Y-94018032D01*
X43368813Y-94448081D01*
X32893000Y-94448081D01*
X32893000Y-93091000D01*
X174625000Y-93091000D01*
X174625000Y-113665000D01*
X174625000Y-113665000D01*
G37*
X174625000Y-113665000D02*
X70940308Y-113665000D01*
X71247295Y-113538156D01*
X71500267Y-113285624D01*
X71637344Y-112955507D01*
X71637535Y-112736081D01*
X76388813Y-112736081D01*
X76553038Y-113133537D01*
X76856863Y-113437893D01*
X77254032Y-113602812D01*
X77684081Y-113603187D01*
X78081537Y-113438962D01*
X78385893Y-113135137D01*
X78550812Y-112737968D01*
X78550813Y-112736081D01*
X94168813Y-112736081D01*
X94333038Y-113133537D01*
X94636863Y-113437893D01*
X95034032Y-113602812D01*
X95464081Y-113603187D01*
X95861537Y-113438962D01*
X96165893Y-113135137D01*
X96330812Y-112737968D01*
X96330813Y-112736081D01*
X111948813Y-112736081D01*
X112113038Y-113133537D01*
X112416863Y-113437893D01*
X112814032Y-113602812D01*
X113244081Y-113603187D01*
X113641537Y-113438962D01*
X113945893Y-113135137D01*
X114110812Y-112737968D01*
X114110813Y-112736081D01*
X129728813Y-112736081D01*
X129893038Y-113133537D01*
X130196863Y-113437893D01*
X130594032Y-113602812D01*
X131024081Y-113603187D01*
X131421537Y-113438962D01*
X131725893Y-113135137D01*
X131890812Y-112737968D01*
X131890813Y-112736081D01*
X147508813Y-112736081D01*
X147673038Y-113133537D01*
X147976863Y-113437893D01*
X148374032Y-113602812D01*
X148804081Y-113603187D01*
X149201537Y-113438962D01*
X149505893Y-113135137D01*
X149670812Y-112737968D01*
X149670813Y-112736081D01*
X157668813Y-112736081D01*
X157833038Y-113133537D01*
X158136863Y-113437893D01*
X158534032Y-113602812D01*
X158964081Y-113603187D01*
X159361537Y-113438962D01*
X159665893Y-113135137D01*
X159830812Y-112737968D01*
X159830813Y-112736081D01*
X162748813Y-112736081D01*
X162913038Y-113133537D01*
X163216863Y-113437893D01*
X163614032Y-113602812D01*
X164044081Y-113603187D01*
X164441537Y-113438962D01*
X164745893Y-113135137D01*
X164910812Y-112737968D01*
X164911187Y-112307919D01*
X164746962Y-111910463D01*
X164443137Y-111606107D01*
X164045968Y-111441188D01*
X163615919Y-111440813D01*
X163218463Y-111605038D01*
X162914107Y-111908863D01*
X162749188Y-112306032D01*
X162748813Y-112736081D01*
X159830813Y-112736081D01*
X159831187Y-112307919D01*
X159666962Y-111910463D01*
X159363137Y-111606107D01*
X158965968Y-111441188D01*
X158535919Y-111440813D01*
X158138463Y-111605038D01*
X157834107Y-111908863D01*
X157669188Y-112306032D01*
X157668813Y-112736081D01*
X149670813Y-112736081D01*
X149671187Y-112307919D01*
X149506962Y-111910463D01*
X149203137Y-111606107D01*
X148805968Y-111441188D01*
X148375919Y-111440813D01*
X147978463Y-111605038D01*
X147674107Y-111908863D01*
X147509188Y-112306032D01*
X147508813Y-112736081D01*
X131890813Y-112736081D01*
X131891187Y-112307919D01*
X131726962Y-111910463D01*
X131423137Y-111606107D01*
X131025968Y-111441188D01*
X130595919Y-111440813D01*
X130198463Y-111605038D01*
X129894107Y-111908863D01*
X129729188Y-112306032D01*
X129728813Y-112736081D01*
X114110813Y-112736081D01*
X114111187Y-112307919D01*
X113946962Y-111910463D01*
X113643137Y-111606107D01*
X113245968Y-111441188D01*
X112815919Y-111440813D01*
X112418463Y-111605038D01*
X112114107Y-111908863D01*
X111949188Y-112306032D01*
X111948813Y-112736081D01*
X96330813Y-112736081D01*
X96331187Y-112307919D01*
X96166962Y-111910463D01*
X95863137Y-111606107D01*
X95465968Y-111441188D01*
X95035919Y-111440813D01*
X94638463Y-111605038D01*
X94334107Y-111908863D01*
X94169188Y-112306032D01*
X94168813Y-112736081D01*
X78550813Y-112736081D01*
X78551187Y-112307919D01*
X78386962Y-111910463D01*
X78083137Y-111606107D01*
X77685968Y-111441188D01*
X77255919Y-111440813D01*
X76858463Y-111605038D01*
X76554107Y-111908863D01*
X76389188Y-112306032D01*
X76388813Y-112736081D01*
X71637535Y-112736081D01*
X71637656Y-112598061D01*
X71501156Y-112267705D01*
X71248624Y-112014733D01*
X70918507Y-111877656D01*
X70561061Y-111877344D01*
X70559436Y-111878015D01*
X69447210Y-110765790D01*
X69282403Y-110655669D01*
X69088000Y-110617000D01*
X65355471Y-110617000D01*
X65355471Y-107656081D01*
X76388813Y-107656081D01*
X76553038Y-108053537D01*
X76856863Y-108357893D01*
X77254032Y-108522812D01*
X77684081Y-108523187D01*
X78081537Y-108358962D01*
X78385893Y-108055137D01*
X78550812Y-107657968D01*
X78551187Y-107227919D01*
X78386962Y-106830463D01*
X78083137Y-106526107D01*
X77685968Y-106361188D01*
X77255919Y-106360813D01*
X76858463Y-106525038D01*
X76554107Y-106828863D01*
X76389188Y-107226032D01*
X76388813Y-107656081D01*
X65355471Y-107656081D01*
X65355471Y-105211873D01*
X72304528Y-105211873D01*
X72639662Y-106022961D01*
X73259675Y-106644057D01*
X74070176Y-106980606D01*
X74947773Y-106981372D01*
X75758861Y-106646238D01*
X76379957Y-106026225D01*
X76716506Y-105215724D01*
X76717272Y-104338127D01*
X76382138Y-103527039D01*
X75939953Y-103084081D01*
X76388813Y-103084081D01*
X76553038Y-103481537D01*
X76856863Y-103785893D01*
X77254032Y-103950812D01*
X77684081Y-103951187D01*
X78081537Y-103786962D01*
X78385893Y-103483137D01*
X78550812Y-103085968D01*
X78551187Y-102655919D01*
X78386962Y-102258463D01*
X78083137Y-101954107D01*
X77685968Y-101789188D01*
X77255919Y-101788813D01*
X76858463Y-101953038D01*
X76554107Y-102256863D01*
X76389188Y-102654032D01*
X76388813Y-103084081D01*
X75939953Y-103084081D01*
X75762125Y-102905943D01*
X74951624Y-102569394D01*
X74074027Y-102568628D01*
X73262939Y-102903762D01*
X72641843Y-103523775D01*
X72305294Y-104334276D01*
X72304528Y-105211873D01*
X65355471Y-105211873D01*
X65355471Y-101395359D01*
X65335362Y-101294262D01*
X65316802Y-101200955D01*
X65206681Y-101036149D01*
X64509159Y-100338627D01*
X64509281Y-100338332D01*
X64509517Y-100067700D01*
X69350300Y-100067700D01*
X69544703Y-100029031D01*
X69709510Y-99918910D01*
X70126879Y-99501541D01*
X70258929Y-99556373D01*
X70709096Y-99556766D01*
X70843013Y-99501433D01*
X71257361Y-99915781D01*
X71422167Y-100025902D01*
X71616571Y-100064571D01*
X75999229Y-100064571D01*
X76193632Y-100025902D01*
X76358439Y-99915781D01*
X76405282Y-99868938D01*
X76553038Y-100226537D01*
X76856863Y-100530893D01*
X77254032Y-100695812D01*
X77684081Y-100696187D01*
X78081537Y-100531962D01*
X78385893Y-100228137D01*
X78550812Y-99830968D01*
X78551187Y-99400919D01*
X78386962Y-99003463D01*
X78083137Y-98699107D01*
X77724169Y-98550051D01*
X80903161Y-95371059D01*
X80783627Y-95658929D01*
X80783234Y-96109096D01*
X80955142Y-96525146D01*
X81273180Y-96843739D01*
X81688929Y-97016373D01*
X82139096Y-97016766D01*
X82555146Y-96844858D01*
X82873739Y-96526820D01*
X83046373Y-96111071D01*
X83046766Y-95660904D01*
X82874858Y-95244854D01*
X82841562Y-95211500D01*
X83527996Y-95211500D01*
X83496261Y-95243180D01*
X83323627Y-95658929D01*
X83323234Y-96109096D01*
X83495142Y-96525146D01*
X83813180Y-96843739D01*
X83947000Y-96899306D01*
X83947000Y-97586651D01*
X83826820Y-97466261D01*
X83411071Y-97293627D01*
X82960904Y-97293234D01*
X82544854Y-97465142D01*
X82226261Y-97783180D01*
X82053627Y-98198929D01*
X82053234Y-98649096D01*
X82225142Y-99065146D01*
X82543180Y-99383739D01*
X82958929Y-99556373D01*
X83409096Y-99556766D01*
X83825146Y-99384858D01*
X83947000Y-99263216D01*
X83947000Y-101661800D01*
X83985669Y-101856203D01*
X84095790Y-102021010D01*
X85061778Y-102986999D01*
X85061656Y-102987293D01*
X85061344Y-103344739D01*
X85197844Y-103675095D01*
X85450376Y-103928067D01*
X85780493Y-104065144D01*
X86137939Y-104065456D01*
X86468295Y-103928956D01*
X86721267Y-103676424D01*
X86858344Y-103346307D01*
X86858656Y-102988861D01*
X86722156Y-102658505D01*
X86469624Y-102405533D01*
X86139507Y-102268456D01*
X85782061Y-102268144D01*
X85780436Y-102268815D01*
X84963000Y-101451380D01*
X84963000Y-99263349D01*
X85083180Y-99383739D01*
X85498929Y-99556373D01*
X85949096Y-99556766D01*
X86365146Y-99384858D01*
X86683739Y-99066820D01*
X86856373Y-98651071D01*
X86856766Y-98200904D01*
X86783101Y-98022621D01*
X86794121Y-98033641D01*
X86958927Y-98143762D01*
X87141458Y-98180069D01*
X87133627Y-98198929D01*
X87133234Y-98649096D01*
X87305142Y-99065146D01*
X87623180Y-99383739D01*
X88038929Y-99556373D01*
X88489096Y-99556766D01*
X88623013Y-99501433D01*
X89037790Y-99916210D01*
X89202597Y-100026331D01*
X89397000Y-100065000D01*
X90392992Y-100065000D01*
X90343920Y-100097789D01*
X83881110Y-106560600D01*
X83880815Y-106560478D01*
X83523369Y-106560166D01*
X83193013Y-106696666D01*
X82955265Y-106934000D01*
X81788278Y-106934000D01*
X81788156Y-106933705D01*
X81550322Y-106695457D01*
X81669441Y-106646238D01*
X82290537Y-106026225D01*
X82627086Y-105215724D01*
X82627852Y-104338127D01*
X82292718Y-103527039D01*
X81672705Y-102905943D01*
X80862204Y-102569394D01*
X79984607Y-102568628D01*
X79173519Y-102903762D01*
X78552423Y-103523775D01*
X78215874Y-104334276D01*
X78215108Y-105211873D01*
X78550242Y-106022961D01*
X79170255Y-106644057D01*
X79980756Y-106980606D01*
X80244610Y-106980836D01*
X80127656Y-107262493D01*
X80127344Y-107619939D01*
X80263844Y-107950295D01*
X80516376Y-108203267D01*
X80846493Y-108340344D01*
X81203939Y-108340656D01*
X81534295Y-108204156D01*
X81787267Y-107951624D01*
X81787941Y-107950000D01*
X82932079Y-107950000D01*
X82939152Y-107967117D01*
X83191684Y-108220089D01*
X83521801Y-108357166D01*
X83879247Y-108357478D01*
X84209603Y-108220978D01*
X84462575Y-107968446D01*
X84592280Y-107656081D01*
X94168813Y-107656081D01*
X94333038Y-108053537D01*
X94636863Y-108357893D01*
X95034032Y-108522812D01*
X95464081Y-108523187D01*
X95861537Y-108358962D01*
X96165893Y-108055137D01*
X96330812Y-107657968D01*
X96330813Y-107656081D01*
X111948813Y-107656081D01*
X112113038Y-108053537D01*
X112416863Y-108357893D01*
X112814032Y-108522812D01*
X113244081Y-108523187D01*
X113641537Y-108358962D01*
X113945893Y-108055137D01*
X114110812Y-107657968D01*
X114111187Y-107227919D01*
X113946962Y-106830463D01*
X113643137Y-106526107D01*
X113245968Y-106361188D01*
X112815919Y-106360813D01*
X112418463Y-106525038D01*
X112114107Y-106828863D01*
X111949188Y-107226032D01*
X111948813Y-107656081D01*
X96330813Y-107656081D01*
X96331187Y-107227919D01*
X96166962Y-106830463D01*
X95863137Y-106526107D01*
X95465968Y-106361188D01*
X95035919Y-106360813D01*
X94638463Y-106525038D01*
X94334107Y-106828863D01*
X94169188Y-107226032D01*
X94168813Y-107656081D01*
X84592280Y-107656081D01*
X84599652Y-107638329D01*
X84599964Y-107280883D01*
X84599292Y-107279258D01*
X86666677Y-105211873D01*
X90084528Y-105211873D01*
X90419662Y-106022961D01*
X91039675Y-106644057D01*
X91850176Y-106980606D01*
X92727773Y-106981372D01*
X93538861Y-106646238D01*
X94159957Y-106026225D01*
X94496506Y-105215724D01*
X94496509Y-105211873D01*
X95995108Y-105211873D01*
X96330242Y-106022961D01*
X96950255Y-106644057D01*
X97760756Y-106980606D01*
X98638353Y-106981372D01*
X99449441Y-106646238D01*
X100070537Y-106026225D01*
X100407086Y-105215724D01*
X100407089Y-105211873D01*
X107864528Y-105211873D01*
X108199662Y-106022961D01*
X108819675Y-106644057D01*
X109630176Y-106980606D01*
X110507773Y-106981372D01*
X111318861Y-106646238D01*
X111939957Y-106026225D01*
X112276506Y-105215724D01*
X112277272Y-104338127D01*
X111942138Y-103527039D01*
X111499953Y-103084081D01*
X111948813Y-103084081D01*
X112113038Y-103481537D01*
X112416863Y-103785893D01*
X112814032Y-103950812D01*
X113244081Y-103951187D01*
X113641537Y-103786962D01*
X113945893Y-103483137D01*
X114110812Y-103085968D01*
X114111187Y-102655919D01*
X113946962Y-102258463D01*
X113643137Y-101954107D01*
X113245968Y-101789188D01*
X112815919Y-101788813D01*
X112418463Y-101953038D01*
X112114107Y-102256863D01*
X111949188Y-102654032D01*
X111948813Y-103084081D01*
X111499953Y-103084081D01*
X111322125Y-102905943D01*
X110511624Y-102569394D01*
X109634027Y-102568628D01*
X108822939Y-102903762D01*
X108201843Y-103523775D01*
X107865294Y-104334276D01*
X107864528Y-105211873D01*
X100407089Y-105211873D01*
X100407852Y-104338127D01*
X100072718Y-103527039D01*
X99452705Y-102905943D01*
X98642204Y-102569394D01*
X97764607Y-102568628D01*
X96953519Y-102903762D01*
X96332423Y-103523775D01*
X95995874Y-104334276D01*
X95995108Y-105211873D01*
X94496509Y-105211873D01*
X94497272Y-104338127D01*
X94162138Y-103527039D01*
X93719953Y-103084081D01*
X94168813Y-103084081D01*
X94333038Y-103481537D01*
X94636863Y-103785893D01*
X95034032Y-103950812D01*
X95464081Y-103951187D01*
X95861537Y-103786962D01*
X96165893Y-103483137D01*
X96330812Y-103085968D01*
X96331187Y-102655919D01*
X96166962Y-102258463D01*
X95863137Y-101954107D01*
X95465968Y-101789188D01*
X95035919Y-101788813D01*
X94638463Y-101953038D01*
X94334107Y-102256863D01*
X94169188Y-102654032D01*
X94168813Y-103084081D01*
X93719953Y-103084081D01*
X93542125Y-102905943D01*
X92731624Y-102569394D01*
X91854027Y-102568628D01*
X91042939Y-102903762D01*
X90421843Y-103523775D01*
X90085294Y-104334276D01*
X90084528Y-105211873D01*
X86666677Y-105211873D01*
X90913551Y-100965000D01*
X95757722Y-100965000D01*
X95757844Y-100965295D01*
X96010376Y-101218267D01*
X96340493Y-101355344D01*
X96697939Y-101355656D01*
X97028295Y-101219156D01*
X97281267Y-100966624D01*
X97281941Y-100965000D01*
X113366968Y-100965000D01*
X113558819Y-101157185D01*
X113888936Y-101294262D01*
X114246382Y-101294574D01*
X114576738Y-101158074D01*
X114829710Y-100905542D01*
X114830384Y-100903918D01*
X114991682Y-100903918D01*
X116823997Y-102736233D01*
X116422204Y-102569394D01*
X115544607Y-102568628D01*
X114733519Y-102903762D01*
X114112423Y-103523775D01*
X113775874Y-104334276D01*
X113775108Y-105211873D01*
X114110242Y-106022961D01*
X114730255Y-106644057D01*
X115540756Y-106980606D01*
X116418353Y-106981372D01*
X117229441Y-106646238D01*
X117850537Y-106026225D01*
X118177527Y-105238745D01*
X118177527Y-108525527D01*
X118216196Y-108719930D01*
X118326317Y-108884737D01*
X118929571Y-109487991D01*
X119094378Y-109598112D01*
X119288781Y-109636781D01*
X130424385Y-109636781D01*
X130875746Y-110088142D01*
X130875624Y-110088437D01*
X130875312Y-110445883D01*
X131011812Y-110776239D01*
X131264344Y-111029211D01*
X131594461Y-111166288D01*
X131951907Y-111166600D01*
X132282263Y-111030100D01*
X132535235Y-110777568D01*
X132672312Y-110447451D01*
X132672624Y-110090005D01*
X132536124Y-109759649D01*
X132283592Y-109506677D01*
X131953475Y-109369600D01*
X131596029Y-109369288D01*
X131594404Y-109369960D01*
X130994015Y-108769571D01*
X130829208Y-108659450D01*
X130634805Y-108620781D01*
X119499201Y-108620781D01*
X119193527Y-108315107D01*
X119193527Y-107998172D01*
X119404540Y-108085793D01*
X119761986Y-108086105D01*
X120092342Y-107949605D01*
X120345314Y-107697073D01*
X120482391Y-107366956D01*
X120482703Y-107009510D01*
X120346203Y-106679154D01*
X120093671Y-106426182D01*
X120092047Y-106425508D01*
X120092047Y-101763377D01*
X120544606Y-101310819D01*
X120544900Y-101310941D01*
X120902346Y-101311253D01*
X121232702Y-101174753D01*
X121485674Y-100922221D01*
X121486348Y-100920597D01*
X126398377Y-100920597D01*
X128046960Y-102569180D01*
X127414027Y-102568628D01*
X126602939Y-102903762D01*
X125981843Y-103523775D01*
X125645294Y-104334276D01*
X125644528Y-105211873D01*
X125979662Y-106022961D01*
X126599675Y-106644057D01*
X127410176Y-106980606D01*
X128287773Y-106981372D01*
X129098861Y-106646238D01*
X129719957Y-106026225D01*
X130056506Y-105215724D01*
X130057062Y-104579282D01*
X130296423Y-104818643D01*
X130296423Y-105413469D01*
X130335092Y-105607872D01*
X130445213Y-105772679D01*
X131039228Y-106366694D01*
X131025968Y-106361188D01*
X130595919Y-106360813D01*
X130198463Y-106525038D01*
X129894107Y-106828863D01*
X129729188Y-107226032D01*
X129728813Y-107656081D01*
X129893038Y-108053537D01*
X130196863Y-108357893D01*
X130594032Y-108522812D01*
X131024081Y-108523187D01*
X131421537Y-108358962D01*
X131725893Y-108055137D01*
X131890812Y-107657968D01*
X131891187Y-107227919D01*
X131884663Y-107212129D01*
X132387822Y-107715288D01*
X132552629Y-107825409D01*
X132713885Y-107857485D01*
X132716731Y-107864373D01*
X132969263Y-108117345D01*
X133299380Y-108254422D01*
X133656826Y-108254734D01*
X133658451Y-108254062D01*
X134763619Y-109359231D01*
X134928426Y-109469352D01*
X134960680Y-109475767D01*
X135122830Y-109508021D01*
X149267973Y-109508021D01*
X149462376Y-109469352D01*
X149599082Y-109378008D01*
X149605965Y-109380866D01*
X149963411Y-109381178D01*
X150293767Y-109244678D01*
X150546739Y-108992146D01*
X150547413Y-108990522D01*
X155300590Y-108990522D01*
X155303896Y-108992731D01*
X155314590Y-108994858D01*
X155498300Y-109031400D01*
X155692703Y-108992731D01*
X155857510Y-108882610D01*
X157484998Y-107255122D01*
X157485293Y-107255244D01*
X157669162Y-107255404D01*
X157668813Y-107656081D01*
X157833038Y-108053537D01*
X158136863Y-108357893D01*
X158534032Y-108522812D01*
X158964081Y-108523187D01*
X159361537Y-108358962D01*
X159665893Y-108055137D01*
X159830812Y-107657968D01*
X159831187Y-107227919D01*
X159681191Y-106864900D01*
X162899143Y-106864900D01*
X162749188Y-107226032D01*
X162748813Y-107656081D01*
X162913038Y-108053537D01*
X163216863Y-108357893D01*
X163614032Y-108522812D01*
X164044081Y-108523187D01*
X164441537Y-108358962D01*
X164745893Y-108055137D01*
X164910812Y-107657968D01*
X164911187Y-107227919D01*
X164761191Y-106864900D01*
X167069828Y-106864900D01*
X167138076Y-106933267D01*
X167468193Y-107070344D01*
X167825639Y-107070656D01*
X168155995Y-106934156D01*
X168408967Y-106681624D01*
X168546044Y-106351507D01*
X168546356Y-105994061D01*
X168409856Y-105663705D01*
X168157324Y-105410733D01*
X167827207Y-105273656D01*
X167555512Y-105273419D01*
X167618479Y-105260894D01*
X167744506Y-105176686D01*
X167828714Y-105050659D01*
X167858284Y-104902000D01*
X167858284Y-103378000D01*
X171485716Y-103378000D01*
X171485716Y-104902000D01*
X171515286Y-105050659D01*
X171599494Y-105176686D01*
X171725521Y-105260894D01*
X171874180Y-105290464D01*
X174073820Y-105290464D01*
X174222479Y-105260894D01*
X174348506Y-105176686D01*
X174432714Y-105050659D01*
X174462284Y-104902000D01*
X174462284Y-103378000D01*
X174432714Y-103229341D01*
X174348506Y-103103314D01*
X174222479Y-103019106D01*
X174073820Y-102989536D01*
X171874180Y-102989536D01*
X171725521Y-103019106D01*
X171599494Y-103103314D01*
X171515286Y-103229341D01*
X171485716Y-103378000D01*
X167858284Y-103378000D01*
X167828714Y-103229341D01*
X167744506Y-103103314D01*
X167618479Y-103019106D01*
X167469820Y-102989536D01*
X165270180Y-102989536D01*
X165121521Y-103019106D01*
X164995494Y-103103314D01*
X164911286Y-103229341D01*
X164881716Y-103378000D01*
X164881716Y-104902000D01*
X164911286Y-105050659D01*
X164995494Y-105176686D01*
X165121521Y-105260894D01*
X165270180Y-105290464D01*
X167428327Y-105290464D01*
X167139405Y-105409844D01*
X166886433Y-105662376D01*
X166808981Y-105848900D01*
X158427078Y-105848900D01*
X158426956Y-105848605D01*
X158174424Y-105595633D01*
X157844307Y-105458556D01*
X157486861Y-105458244D01*
X157156505Y-105594744D01*
X156903533Y-105847276D01*
X156766456Y-106177393D01*
X156766144Y-106534839D01*
X156766816Y-106536464D01*
X155328758Y-107974522D01*
X150547750Y-107974522D01*
X150547628Y-107974227D01*
X150295096Y-107721255D01*
X149964979Y-107584178D01*
X149670877Y-107583921D01*
X149671187Y-107227919D01*
X149506962Y-106830463D01*
X149203137Y-106526107D01*
X148805968Y-106361188D01*
X148375919Y-106360813D01*
X147978463Y-106525038D01*
X147674107Y-106828863D01*
X147509188Y-107226032D01*
X147508813Y-107656081D01*
X147673038Y-108053537D01*
X147976863Y-108357893D01*
X148299879Y-108492021D01*
X135333251Y-108492021D01*
X134377109Y-107535880D01*
X134377231Y-107535585D01*
X134377543Y-107178139D01*
X134281966Y-106946824D01*
X135009441Y-106646238D01*
X135630537Y-106026225D01*
X135967086Y-105215724D01*
X135967089Y-105211873D01*
X143424528Y-105211873D01*
X143759662Y-106022961D01*
X144379675Y-106644057D01*
X145190176Y-106980606D01*
X146067773Y-106981372D01*
X146878861Y-106646238D01*
X147499957Y-106026225D01*
X147836506Y-105215724D01*
X147837272Y-104338127D01*
X147502138Y-103527039D01*
X146882125Y-102905943D01*
X146071624Y-102569394D01*
X145194027Y-102568628D01*
X144382939Y-102903762D01*
X143761843Y-103523775D01*
X143425294Y-104334276D01*
X143424528Y-105211873D01*
X135967089Y-105211873D01*
X135967852Y-104338127D01*
X135632718Y-103527039D01*
X135012705Y-102905943D01*
X134202204Y-102569394D01*
X133324607Y-102568628D01*
X132513519Y-102903762D01*
X131892423Y-103523775D01*
X131555874Y-104334276D01*
X131555108Y-105211873D01*
X131719777Y-105610403D01*
X131312423Y-105203049D01*
X131312423Y-104608223D01*
X131273754Y-104413820D01*
X131273754Y-104413819D01*
X131163633Y-104249013D01*
X130865669Y-103951049D01*
X131024081Y-103951187D01*
X131421537Y-103786962D01*
X131725893Y-103483137D01*
X131890812Y-103085968D01*
X131891187Y-102655919D01*
X131726962Y-102258463D01*
X131423137Y-101954107D01*
X131025968Y-101789188D01*
X130595919Y-101788813D01*
X130198463Y-101953038D01*
X129894107Y-102256863D01*
X129729188Y-102654032D01*
X129729048Y-102814428D01*
X126968007Y-100053387D01*
X126803200Y-99943266D01*
X126608797Y-99904597D01*
X121486685Y-99904597D01*
X121486563Y-99904302D01*
X121234031Y-99651330D01*
X120903914Y-99514253D01*
X120546468Y-99513941D01*
X120216112Y-99650441D01*
X119963140Y-99902973D01*
X119826063Y-100233090D01*
X119825751Y-100590536D01*
X119826422Y-100592161D01*
X119224837Y-101193747D01*
X119114716Y-101358554D01*
X119076047Y-101552957D01*
X119076047Y-103068620D01*
X118865034Y-102980999D01*
X118507588Y-102980687D01*
X118505963Y-102981359D01*
X115561312Y-100036708D01*
X115396505Y-99926587D01*
X115202102Y-99887918D01*
X114830721Y-99887918D01*
X114830599Y-99887623D01*
X114578067Y-99634651D01*
X114247950Y-99497574D01*
X113890504Y-99497262D01*
X113560148Y-99633762D01*
X113307176Y-99886294D01*
X113281138Y-99949000D01*
X105223137Y-99949000D01*
X105272210Y-99916210D01*
X105686879Y-99501541D01*
X105818929Y-99556373D01*
X106269096Y-99556766D01*
X106685146Y-99384858D01*
X107003739Y-99066820D01*
X107176373Y-98651071D01*
X107176578Y-98416568D01*
X107445966Y-98147180D01*
X107445966Y-99175570D01*
X107475536Y-99324229D01*
X107559744Y-99450256D01*
X107685771Y-99534464D01*
X107834430Y-99564034D01*
X109335570Y-99564034D01*
X109484229Y-99534464D01*
X109610256Y-99450256D01*
X109694464Y-99324229D01*
X109724034Y-99175570D01*
X109724034Y-97674430D01*
X109694464Y-97525771D01*
X109657867Y-97470999D01*
X112097441Y-97470999D01*
X111949188Y-97828032D01*
X111948813Y-98258081D01*
X112113038Y-98655537D01*
X112416863Y-98959893D01*
X112814032Y-99124812D01*
X113244081Y-99125187D01*
X113641537Y-98960962D01*
X113945893Y-98657137D01*
X114110812Y-98259968D01*
X114111187Y-97829919D01*
X113962885Y-97470999D01*
X115808086Y-97470999D01*
X115989726Y-97652640D01*
X116154533Y-97762760D01*
X116348936Y-97801429D01*
X117778683Y-97801429D01*
X117613627Y-98198929D01*
X117613234Y-98649096D01*
X117785142Y-99065146D01*
X118103180Y-99383739D01*
X118518929Y-99556373D01*
X118969096Y-99556766D01*
X119385146Y-99384858D01*
X119703739Y-99066820D01*
X119876373Y-98651071D01*
X119876766Y-98200904D01*
X119711707Y-97801429D01*
X120318683Y-97801429D01*
X120153627Y-98198929D01*
X120153234Y-98649096D01*
X120325142Y-99065146D01*
X120643180Y-99383739D01*
X121058929Y-99556373D01*
X121509096Y-99556766D01*
X121925146Y-99384858D01*
X122243739Y-99066820D01*
X122416373Y-98651071D01*
X122416766Y-98200904D01*
X122251707Y-97801429D01*
X122483009Y-97801429D01*
X122748459Y-98066879D01*
X122693627Y-98198929D01*
X122693234Y-98649096D01*
X122865142Y-99065146D01*
X123183180Y-99383739D01*
X123598929Y-99556373D01*
X124049096Y-99556766D01*
X124465146Y-99384858D01*
X124783739Y-99066820D01*
X124956373Y-98651071D01*
X124956766Y-98200904D01*
X124901433Y-98066988D01*
X125225966Y-97742455D01*
X125225966Y-99175570D01*
X125255536Y-99324229D01*
X125339744Y-99450256D01*
X125465771Y-99534464D01*
X125614430Y-99564034D01*
X127115570Y-99564034D01*
X127264229Y-99534464D01*
X127390256Y-99450256D01*
X127474464Y-99324229D01*
X127504034Y-99175570D01*
X127504034Y-97674430D01*
X127501044Y-97659400D01*
X129799210Y-97659400D01*
X129729188Y-97828032D01*
X129728813Y-98258081D01*
X129893038Y-98655537D01*
X130196863Y-98959893D01*
X130594032Y-99124812D01*
X131024081Y-99125187D01*
X131421537Y-98960962D01*
X131725893Y-98657137D01*
X131890812Y-98259968D01*
X131891187Y-97829919D01*
X131726962Y-97432463D01*
X131423137Y-97128107D01*
X131064169Y-96979051D01*
X132789220Y-95254000D01*
X134291768Y-95254000D01*
X134123627Y-95658929D01*
X134123234Y-96109096D01*
X134295142Y-96525146D01*
X134613180Y-96843739D01*
X135028929Y-97016373D01*
X135479096Y-97016766D01*
X135895146Y-96844858D01*
X136213739Y-96526820D01*
X136386373Y-96111071D01*
X136386766Y-95660904D01*
X136218637Y-95254000D01*
X136831768Y-95254000D01*
X136663627Y-95658929D01*
X136663234Y-96109096D01*
X136835142Y-96525146D01*
X137153180Y-96843739D01*
X137287000Y-96899306D01*
X137287000Y-97586651D01*
X137166820Y-97466261D01*
X136751071Y-97293627D01*
X136300904Y-97293234D01*
X135884854Y-97465142D01*
X135566261Y-97783180D01*
X135393627Y-98198929D01*
X135393234Y-98649096D01*
X135565142Y-99065146D01*
X135883180Y-99383739D01*
X136298929Y-99556373D01*
X136749096Y-99556766D01*
X137165146Y-99384858D01*
X137434297Y-99116176D01*
X137435790Y-99118410D01*
X140276590Y-101959210D01*
X140441397Y-102069331D01*
X140635800Y-102108000D01*
X147823230Y-102108000D01*
X147674107Y-102256863D01*
X147509188Y-102654032D01*
X147508813Y-103084081D01*
X147673038Y-103481537D01*
X147976863Y-103785893D01*
X148374032Y-103950812D01*
X148804081Y-103951187D01*
X149201537Y-103786962D01*
X149505893Y-103483137D01*
X149549549Y-103378000D01*
X149641716Y-103378000D01*
X149641716Y-104902000D01*
X149671286Y-105050659D01*
X149755494Y-105176686D01*
X149881521Y-105260894D01*
X150030180Y-105290464D01*
X152229820Y-105290464D01*
X152378479Y-105260894D01*
X152504506Y-105176686D01*
X152588714Y-105050659D01*
X152618284Y-104902000D01*
X152618284Y-103378000D01*
X154721716Y-103378000D01*
X154721716Y-104902000D01*
X154751286Y-105050659D01*
X154835494Y-105176686D01*
X154961521Y-105260894D01*
X155110180Y-105290464D01*
X157309820Y-105290464D01*
X157458479Y-105260894D01*
X157584506Y-105176686D01*
X157668714Y-105050659D01*
X157698284Y-104902000D01*
X157698284Y-103378000D01*
X157668714Y-103229341D01*
X157584506Y-103103314D01*
X157458479Y-103019106D01*
X157309820Y-102989536D01*
X155110180Y-102989536D01*
X154961521Y-103019106D01*
X154835494Y-103103314D01*
X154751286Y-103229341D01*
X154721716Y-103378000D01*
X152618284Y-103378000D01*
X152588714Y-103229341D01*
X152504506Y-103103314D01*
X152378479Y-103019106D01*
X152229820Y-102989536D01*
X150030180Y-102989536D01*
X149881521Y-103019106D01*
X149755494Y-103103314D01*
X149671286Y-103229341D01*
X149641716Y-103378000D01*
X149549549Y-103378000D01*
X149670812Y-103085968D01*
X149671187Y-102655919D01*
X149506962Y-102258463D01*
X149356762Y-102108000D01*
X149754344Y-102108000D01*
X149954946Y-102408223D01*
X150325762Y-102655994D01*
X150763169Y-102743000D01*
X151496831Y-102743000D01*
X151934238Y-102655994D01*
X152305054Y-102408223D01*
X152505656Y-102108000D01*
X154834344Y-102108000D01*
X155034946Y-102408223D01*
X155405762Y-102655994D01*
X155843169Y-102743000D01*
X156576831Y-102743000D01*
X157014238Y-102655994D01*
X157385054Y-102408223D01*
X157585656Y-102108000D01*
X157983230Y-102108000D01*
X157834107Y-102256863D01*
X157669188Y-102654032D01*
X157668813Y-103084081D01*
X157833038Y-103481537D01*
X158136863Y-103785893D01*
X158534032Y-103950812D01*
X158964081Y-103951187D01*
X159361537Y-103786962D01*
X159665893Y-103483137D01*
X159709549Y-103378000D01*
X159801716Y-103378000D01*
X159801716Y-104902000D01*
X159831286Y-105050659D01*
X159915494Y-105176686D01*
X160041521Y-105260894D01*
X160190180Y-105290464D01*
X162389820Y-105290464D01*
X162538479Y-105260894D01*
X162664506Y-105176686D01*
X162748714Y-105050659D01*
X162778284Y-104902000D01*
X162778284Y-103378000D01*
X162748714Y-103229341D01*
X162664506Y-103103314D01*
X162538479Y-103019106D01*
X162389820Y-102989536D01*
X160190180Y-102989536D01*
X160041521Y-103019106D01*
X159915494Y-103103314D01*
X159831286Y-103229341D01*
X159801716Y-103378000D01*
X159709549Y-103378000D01*
X159830812Y-103085968D01*
X159831187Y-102655919D01*
X159666962Y-102258463D01*
X159516762Y-102108000D01*
X159914344Y-102108000D01*
X160114946Y-102408223D01*
X160485762Y-102655994D01*
X160923169Y-102743000D01*
X161656831Y-102743000D01*
X162094238Y-102655994D01*
X162465054Y-102408223D01*
X162665656Y-102108000D01*
X163063230Y-102108000D01*
X162914107Y-102256863D01*
X162749188Y-102654032D01*
X162748813Y-103084081D01*
X162913038Y-103481537D01*
X163216863Y-103785893D01*
X163614032Y-103950812D01*
X164044081Y-103951187D01*
X164441537Y-103786962D01*
X164745893Y-103483137D01*
X164910812Y-103085968D01*
X164911187Y-102655919D01*
X164746962Y-102258463D01*
X164596762Y-102108000D01*
X164994344Y-102108000D01*
X165194946Y-102408223D01*
X165565762Y-102655994D01*
X166003169Y-102743000D01*
X166736831Y-102743000D01*
X167174238Y-102655994D01*
X167545054Y-102408223D01*
X167745656Y-102108000D01*
X171598344Y-102108000D01*
X171798946Y-102408223D01*
X172169762Y-102655994D01*
X172607169Y-102743000D01*
X173340831Y-102743000D01*
X173778238Y-102655994D01*
X174149054Y-102408223D01*
X174396825Y-102037407D01*
X174483831Y-101600000D01*
X174396825Y-101162593D01*
X174149054Y-100791777D01*
X173778238Y-100544006D01*
X173340831Y-100457000D01*
X172607169Y-100457000D01*
X172169762Y-100544006D01*
X171798946Y-100791777D01*
X171598344Y-101092000D01*
X167745656Y-101092000D01*
X167545054Y-100791777D01*
X167174238Y-100544006D01*
X166736831Y-100457000D01*
X166003169Y-100457000D01*
X165565762Y-100544006D01*
X165194946Y-100791777D01*
X164994344Y-101092000D01*
X162665656Y-101092000D01*
X162465054Y-100791777D01*
X162094238Y-100544006D01*
X161656831Y-100457000D01*
X160923169Y-100457000D01*
X160485762Y-100544006D01*
X160114946Y-100791777D01*
X159914344Y-101092000D01*
X157585656Y-101092000D01*
X157385054Y-100791777D01*
X157014238Y-100544006D01*
X156576831Y-100457000D01*
X155843169Y-100457000D01*
X155405762Y-100544006D01*
X155034946Y-100791777D01*
X154834344Y-101092000D01*
X152505656Y-101092000D01*
X152305054Y-100791777D01*
X151934238Y-100544006D01*
X151496831Y-100457000D01*
X150763169Y-100457000D01*
X150325762Y-100544006D01*
X149954946Y-100791777D01*
X149754344Y-101092000D01*
X140846220Y-101092000D01*
X139304586Y-99550366D01*
X139705146Y-99384858D01*
X140023739Y-99066820D01*
X140196373Y-98651071D01*
X140196766Y-98200904D01*
X140137254Y-98056874D01*
X140473458Y-98393078D01*
X140473234Y-98649096D01*
X140645142Y-99065146D01*
X140963180Y-99383739D01*
X141378929Y-99556373D01*
X141829096Y-99556766D01*
X142245146Y-99384858D01*
X142563739Y-99066820D01*
X142736373Y-98651071D01*
X142736766Y-98200904D01*
X142564858Y-97784854D01*
X142454627Y-97674430D01*
X143005966Y-97674430D01*
X143005966Y-99175570D01*
X143035536Y-99324229D01*
X143119744Y-99450256D01*
X143245771Y-99534464D01*
X143394430Y-99564034D01*
X144895570Y-99564034D01*
X145044229Y-99534464D01*
X145170256Y-99450256D01*
X145254464Y-99324229D01*
X145284034Y-99175570D01*
X145284034Y-98258081D01*
X147508813Y-98258081D01*
X147673038Y-98655537D01*
X147976863Y-98959893D01*
X148374032Y-99124812D01*
X148804081Y-99125187D01*
X148961846Y-99060000D01*
X149620169Y-99060000D01*
X149707175Y-99497407D01*
X149954946Y-99868223D01*
X150325762Y-100115994D01*
X150763169Y-100203000D01*
X151496831Y-100203000D01*
X151934238Y-100115994D01*
X152305054Y-99868223D01*
X152552825Y-99497407D01*
X152639831Y-99060000D01*
X154700169Y-99060000D01*
X154787175Y-99497407D01*
X155034946Y-99868223D01*
X155405762Y-100115994D01*
X155843169Y-100203000D01*
X156576831Y-100203000D01*
X157014238Y-100115994D01*
X157385054Y-99868223D01*
X157567139Y-99595714D01*
X157756600Y-99633400D01*
X159743400Y-99633400D01*
X159932861Y-99595714D01*
X160114946Y-99868223D01*
X160485762Y-100115994D01*
X160923169Y-100203000D01*
X161656831Y-100203000D01*
X162094238Y-100115994D01*
X162465054Y-99868223D01*
X162712825Y-99497407D01*
X162799831Y-99060000D01*
X162712825Y-98622593D01*
X162469267Y-98258081D01*
X162748813Y-98258081D01*
X162913038Y-98655537D01*
X163216863Y-98959893D01*
X163614032Y-99124812D01*
X164044081Y-99125187D01*
X164201846Y-99060000D01*
X164860169Y-99060000D01*
X164947175Y-99497407D01*
X165194946Y-99868223D01*
X165565762Y-100115994D01*
X166003169Y-100203000D01*
X166736831Y-100203000D01*
X167174238Y-100115994D01*
X167545054Y-99868223D01*
X167792825Y-99497407D01*
X167879831Y-99060000D01*
X171464169Y-99060000D01*
X171551175Y-99497407D01*
X171798946Y-99868223D01*
X172169762Y-100115994D01*
X172607169Y-100203000D01*
X173340831Y-100203000D01*
X173778238Y-100115994D01*
X174149054Y-99868223D01*
X174396825Y-99497407D01*
X174483831Y-99060000D01*
X174396825Y-98622593D01*
X174149054Y-98251777D01*
X173778238Y-98004006D01*
X173340831Y-97917000D01*
X172607169Y-97917000D01*
X172169762Y-98004006D01*
X171798946Y-98251777D01*
X171551175Y-98622593D01*
X171464169Y-99060000D01*
X167879831Y-99060000D01*
X167792825Y-98622593D01*
X167545054Y-98251777D01*
X167174238Y-98004006D01*
X166736831Y-97917000D01*
X166003169Y-97917000D01*
X165565762Y-98004006D01*
X165194946Y-98251777D01*
X164947175Y-98622593D01*
X164860169Y-99060000D01*
X164201846Y-99060000D01*
X164441537Y-98960962D01*
X164745893Y-98657137D01*
X164910812Y-98259968D01*
X164911187Y-97829919D01*
X164746962Y-97432463D01*
X164443137Y-97128107D01*
X164045968Y-96963188D01*
X163615919Y-96962813D01*
X163218463Y-97127038D01*
X162914107Y-97430863D01*
X162749188Y-97828032D01*
X162748813Y-98258081D01*
X162469267Y-98258081D01*
X162465054Y-98251777D01*
X162094238Y-98004006D01*
X161656831Y-97917000D01*
X160923169Y-97917000D01*
X160485762Y-98004006D01*
X160114946Y-98251777D01*
X159914344Y-98552000D01*
X159808800Y-98552000D01*
X159700614Y-98573519D01*
X159830812Y-98259968D01*
X159831187Y-97829919D01*
X159666962Y-97432463D01*
X159363137Y-97128107D01*
X158965968Y-96963188D01*
X158535919Y-96962813D01*
X158138463Y-97127038D01*
X157834107Y-97430863D01*
X157669188Y-97828032D01*
X157668813Y-98258081D01*
X157799128Y-98573468D01*
X157691200Y-98552000D01*
X157585656Y-98552000D01*
X157385054Y-98251777D01*
X157014238Y-98004006D01*
X156576831Y-97917000D01*
X155843169Y-97917000D01*
X155405762Y-98004006D01*
X155034946Y-98251777D01*
X154787175Y-98622593D01*
X154700169Y-99060000D01*
X152639831Y-99060000D01*
X152552825Y-98622593D01*
X152305054Y-98251777D01*
X151934238Y-98004006D01*
X151496831Y-97917000D01*
X150763169Y-97917000D01*
X150325762Y-98004006D01*
X149954946Y-98251777D01*
X149707175Y-98622593D01*
X149620169Y-99060000D01*
X148961846Y-99060000D01*
X149201537Y-98960962D01*
X149505893Y-98657137D01*
X149670812Y-98259968D01*
X149671187Y-97829919D01*
X149506962Y-97432463D01*
X149203137Y-97128107D01*
X148805968Y-96963188D01*
X148375919Y-96962813D01*
X147978463Y-97127038D01*
X147674107Y-97430863D01*
X147509188Y-97828032D01*
X147508813Y-98258081D01*
X145284034Y-98258081D01*
X145284034Y-97674430D01*
X145254464Y-97525771D01*
X145170256Y-97399744D01*
X145044229Y-97315536D01*
X144895570Y-97285966D01*
X143394430Y-97285966D01*
X143245771Y-97315536D01*
X143119744Y-97399744D01*
X143035536Y-97525771D01*
X143005966Y-97674430D01*
X142454627Y-97674430D01*
X142246820Y-97466261D01*
X141831071Y-97293627D01*
X141380904Y-97293234D01*
X140977243Y-97460023D01*
X139626316Y-96109096D01*
X141743234Y-96109096D01*
X141915142Y-96525146D01*
X142233180Y-96843739D01*
X142648929Y-97016373D01*
X143099096Y-97016766D01*
X143515146Y-96844858D01*
X143833739Y-96526820D01*
X144006373Y-96111071D01*
X144006766Y-95660904D01*
X143834858Y-95244854D01*
X143516820Y-94926261D01*
X143101071Y-94753627D01*
X142650904Y-94753234D01*
X142234854Y-94925142D01*
X141916261Y-95243180D01*
X141743627Y-95658929D01*
X141743234Y-96109096D01*
X139626316Y-96109096D01*
X139573000Y-96055780D01*
X139573000Y-95534500D01*
X139534331Y-95340097D01*
X139534331Y-95340096D01*
X139424210Y-95175289D01*
X138697002Y-94448081D01*
X147508813Y-94448081D01*
X147673038Y-94845537D01*
X147976863Y-95149893D01*
X148374032Y-95314812D01*
X148804081Y-95315187D01*
X149201537Y-95150962D01*
X149505893Y-94847137D01*
X149670812Y-94449968D01*
X149670813Y-94448081D01*
X157668813Y-94448081D01*
X157833038Y-94845537D01*
X158136863Y-95149893D01*
X158534032Y-95314812D01*
X158964081Y-95315187D01*
X159361537Y-95150962D01*
X159665893Y-94847137D01*
X159830812Y-94449968D01*
X159830813Y-94448081D01*
X162748813Y-94448081D01*
X162913038Y-94845537D01*
X163216863Y-95149893D01*
X163614032Y-95314812D01*
X164044081Y-95315187D01*
X164441537Y-95150962D01*
X164745893Y-94847137D01*
X164910812Y-94449968D01*
X164911187Y-94019919D01*
X164746962Y-93622463D01*
X164443137Y-93318107D01*
X164045968Y-93153188D01*
X163615919Y-93152813D01*
X163218463Y-93317038D01*
X162914107Y-93620863D01*
X162749188Y-94018032D01*
X162748813Y-94448081D01*
X159830813Y-94448081D01*
X159831187Y-94019919D01*
X159666962Y-93622463D01*
X159363137Y-93318107D01*
X158965968Y-93153188D01*
X158535919Y-93152813D01*
X158138463Y-93317038D01*
X157834107Y-93620863D01*
X157669188Y-94018032D01*
X157668813Y-94448081D01*
X149670813Y-94448081D01*
X149671187Y-94019919D01*
X149506962Y-93622463D01*
X149203137Y-93318107D01*
X148805968Y-93153188D01*
X148375919Y-93152813D01*
X147978463Y-93317038D01*
X147674107Y-93620863D01*
X147509188Y-94018032D01*
X147508813Y-94448081D01*
X138697002Y-94448081D01*
X138635710Y-94386790D01*
X138470903Y-94276669D01*
X138276500Y-94238000D01*
X132578800Y-94238000D01*
X132416650Y-94270254D01*
X132384396Y-94276669D01*
X132219590Y-94386790D01*
X129962980Y-96643400D01*
X125936956Y-96643400D01*
X126053739Y-96526820D01*
X126226373Y-96111071D01*
X126226766Y-95660904D01*
X126054858Y-95244854D01*
X125736820Y-94926261D01*
X125321071Y-94753627D01*
X124870904Y-94753234D01*
X124454854Y-94925142D01*
X124136261Y-95243180D01*
X123963627Y-95658929D01*
X123963234Y-96109096D01*
X124135142Y-96525146D01*
X124453180Y-96843739D01*
X124618990Y-96912589D01*
X124183121Y-97348459D01*
X124051071Y-97293627D01*
X123600904Y-97293234D01*
X123466987Y-97348567D01*
X123052639Y-96934219D01*
X122887832Y-96824098D01*
X122693429Y-96785429D01*
X120714679Y-96785429D01*
X120973739Y-96526820D01*
X121146373Y-96111071D01*
X121146766Y-95660904D01*
X120974858Y-95244854D01*
X120656820Y-94926261D01*
X120241071Y-94753627D01*
X119790904Y-94753234D01*
X119374854Y-94925142D01*
X119056261Y-95243180D01*
X118883627Y-95658929D01*
X118883234Y-96109096D01*
X119055142Y-96525146D01*
X119314972Y-96785429D01*
X118174679Y-96785429D01*
X118433739Y-96526820D01*
X118606373Y-96111071D01*
X118606766Y-95660904D01*
X118434858Y-95244854D01*
X118116820Y-94926261D01*
X117701071Y-94753627D01*
X117250904Y-94753234D01*
X116834854Y-94925142D01*
X116516261Y-95243180D01*
X116343627Y-95658929D01*
X116343234Y-96109096D01*
X116515142Y-96525146D01*
X116774972Y-96785429D01*
X116559357Y-96785429D01*
X116377716Y-96603789D01*
X116212909Y-96493668D01*
X116018506Y-96454999D01*
X108303562Y-96454999D01*
X108446373Y-96111071D01*
X108446766Y-95660904D01*
X108274858Y-95244854D01*
X107956820Y-94926261D01*
X107541071Y-94753627D01*
X107090904Y-94753234D01*
X106674854Y-94925142D01*
X106356261Y-95243180D01*
X106183627Y-95658929D01*
X106183234Y-96109096D01*
X106355142Y-96525146D01*
X106673180Y-96843739D01*
X107088929Y-97016373D01*
X107139889Y-97016417D01*
X106688431Y-97467875D01*
X106686820Y-97466261D01*
X106271071Y-97293627D01*
X105820904Y-97293234D01*
X105404854Y-97465142D01*
X105086261Y-97783180D01*
X104913627Y-98198929D01*
X104913234Y-98649096D01*
X104968567Y-98783013D01*
X104702580Y-99049000D01*
X104471139Y-99049000D01*
X104636373Y-98651071D01*
X104636766Y-98200904D01*
X104464858Y-97784854D01*
X104146820Y-97466261D01*
X103731071Y-97293627D01*
X103280904Y-97293234D01*
X102864854Y-97465142D01*
X102546261Y-97783180D01*
X102373627Y-98198929D01*
X102373234Y-98649096D01*
X102538471Y-99049000D01*
X101931139Y-99049000D01*
X102096373Y-98651071D01*
X102096766Y-98200904D01*
X101924858Y-97784854D01*
X101606820Y-97466261D01*
X101191071Y-97293627D01*
X100740904Y-97293234D01*
X100324854Y-97465142D01*
X100006261Y-97783180D01*
X99833627Y-98198929D01*
X99833234Y-98649096D01*
X99998471Y-99049000D01*
X95648468Y-99049000D01*
X95861537Y-98960962D01*
X96165893Y-98657137D01*
X96330812Y-98259968D01*
X96331187Y-97829919D01*
X96166962Y-97432463D01*
X95863137Y-97128107D01*
X95465968Y-96963188D01*
X95035919Y-96962813D01*
X94638463Y-97127038D01*
X94334107Y-97430863D01*
X94169188Y-97828032D01*
X94168813Y-98258081D01*
X94333038Y-98655537D01*
X94636863Y-98959893D01*
X94851456Y-99049000D01*
X91944034Y-99049000D01*
X91944034Y-97674430D01*
X91914464Y-97525771D01*
X91830256Y-97399744D01*
X91704229Y-97315536D01*
X91555570Y-97285966D01*
X90054430Y-97285966D01*
X89905771Y-97315536D01*
X89779744Y-97399744D01*
X89695536Y-97525771D01*
X89665966Y-97674430D01*
X89665966Y-99049000D01*
X89607420Y-99049000D01*
X89341541Y-98783121D01*
X89396373Y-98651071D01*
X89396766Y-98200904D01*
X89224858Y-97784854D01*
X88906820Y-97466261D01*
X88491071Y-97293627D01*
X88040904Y-97293234D01*
X87906987Y-97348567D01*
X87873641Y-97315221D01*
X87708834Y-97205100D01*
X87514431Y-97166431D01*
X87363751Y-97166431D01*
X86306416Y-96109096D01*
X88403234Y-96109096D01*
X88575142Y-96525146D01*
X88893180Y-96843739D01*
X89308929Y-97016373D01*
X89759096Y-97016766D01*
X90175146Y-96844858D01*
X90493739Y-96526820D01*
X90666373Y-96111071D01*
X90666374Y-96109096D01*
X98563234Y-96109096D01*
X98735142Y-96525146D01*
X99053180Y-96843739D01*
X99468929Y-97016373D01*
X99919096Y-97016766D01*
X100335146Y-96844858D01*
X100653739Y-96526820D01*
X100826373Y-96111071D01*
X100826374Y-96109096D01*
X101103234Y-96109096D01*
X101275142Y-96525146D01*
X101593180Y-96843739D01*
X102008929Y-97016373D01*
X102459096Y-97016766D01*
X102875146Y-96844858D01*
X103193739Y-96526820D01*
X103366373Y-96111071D01*
X103366766Y-95660904D01*
X103194858Y-95244854D01*
X102876820Y-94926261D01*
X102461071Y-94753627D01*
X102010904Y-94753234D01*
X101594854Y-94925142D01*
X101276261Y-95243180D01*
X101103627Y-95658929D01*
X101103234Y-96109096D01*
X100826374Y-96109096D01*
X100826766Y-95660904D01*
X100654858Y-95244854D01*
X100336820Y-94926261D01*
X99921071Y-94753627D01*
X99470904Y-94753234D01*
X99054854Y-94925142D01*
X98736261Y-95243180D01*
X98563627Y-95658929D01*
X98563234Y-96109096D01*
X90666374Y-96109096D01*
X90666766Y-95660904D01*
X90494858Y-95244854D01*
X90176820Y-94926261D01*
X89761071Y-94753627D01*
X89310904Y-94753234D01*
X88894854Y-94925142D01*
X88576261Y-95243180D01*
X88403627Y-95658929D01*
X88403234Y-96109096D01*
X86306416Y-96109096D01*
X86233000Y-96035680D01*
X86233000Y-95521200D01*
X86194331Y-95326797D01*
X86194331Y-95326796D01*
X86084210Y-95161989D01*
X85370302Y-94448081D01*
X94168813Y-94448081D01*
X94333038Y-94845537D01*
X94636863Y-95149893D01*
X95034032Y-95314812D01*
X95464081Y-95315187D01*
X95861537Y-95150962D01*
X96165893Y-94847137D01*
X96330812Y-94449968D01*
X96330813Y-94448081D01*
X111948813Y-94448081D01*
X112113038Y-94845537D01*
X112416863Y-95149893D01*
X112814032Y-95314812D01*
X113244081Y-95315187D01*
X113641537Y-95150962D01*
X113945893Y-94847137D01*
X114110812Y-94449968D01*
X114110813Y-94448081D01*
X129728813Y-94448081D01*
X129893038Y-94845537D01*
X130196863Y-95149893D01*
X130594032Y-95314812D01*
X131024081Y-95315187D01*
X131421537Y-95150962D01*
X131725893Y-94847137D01*
X131890812Y-94449968D01*
X131891187Y-94019919D01*
X131726962Y-93622463D01*
X131423137Y-93318107D01*
X131025968Y-93153188D01*
X130595919Y-93152813D01*
X130198463Y-93317038D01*
X129894107Y-93620863D01*
X129729188Y-94018032D01*
X129728813Y-94448081D01*
X114110813Y-94448081D01*
X114111187Y-94019919D01*
X113946962Y-93622463D01*
X113643137Y-93318107D01*
X113245968Y-93153188D01*
X112815919Y-93152813D01*
X112418463Y-93317038D01*
X112114107Y-93620863D01*
X111949188Y-94018032D01*
X111948813Y-94448081D01*
X96330813Y-94448081D01*
X96331187Y-94019919D01*
X96166962Y-93622463D01*
X95863137Y-93318107D01*
X95465968Y-93153188D01*
X95035919Y-93152813D01*
X94638463Y-93317038D01*
X94334107Y-93620863D01*
X94169188Y-94018032D01*
X94168813Y-94448081D01*
X85370302Y-94448081D01*
X85266510Y-94344290D01*
X85101703Y-94234169D01*
X84907300Y-94195500D01*
X80852300Y-94195500D01*
X80657897Y-94234169D01*
X80493090Y-94344290D01*
X75788809Y-99048571D01*
X74164034Y-99048571D01*
X74164034Y-97674430D01*
X74134464Y-97525771D01*
X74050256Y-97399744D01*
X73924229Y-97315536D01*
X73775570Y-97285966D01*
X72274430Y-97285966D01*
X72125771Y-97315536D01*
X71999744Y-97399744D01*
X71915536Y-97525771D01*
X71885966Y-97674430D01*
X71885966Y-99048571D01*
X71826991Y-99048571D01*
X71561541Y-98783121D01*
X71616373Y-98651071D01*
X71616766Y-98200904D01*
X71444858Y-97784854D01*
X71126820Y-97466261D01*
X70711071Y-97293627D01*
X70260904Y-97293234D01*
X69844854Y-97465142D01*
X69526261Y-97783180D01*
X69353627Y-98198929D01*
X69353234Y-98649096D01*
X69408567Y-98783013D01*
X69139880Y-99051700D01*
X68910017Y-99051700D01*
X69076373Y-98651071D01*
X69076766Y-98200904D01*
X68904858Y-97784854D01*
X68586820Y-97466261D01*
X68171071Y-97293627D01*
X67720904Y-97293234D01*
X67304854Y-97465142D01*
X66986261Y-97783180D01*
X66813627Y-98198929D01*
X66813234Y-98649096D01*
X66979586Y-99051700D01*
X66370017Y-99051700D01*
X66536373Y-98651071D01*
X66536766Y-98200904D01*
X66364858Y-97784854D01*
X66046820Y-97466261D01*
X65631071Y-97293627D01*
X65180904Y-97293234D01*
X64764854Y-97465142D01*
X64446261Y-97783180D01*
X64273627Y-98198929D01*
X64273234Y-98649096D01*
X64368189Y-98878904D01*
X64236621Y-98790993D01*
X64042218Y-98752324D01*
X63179656Y-98752324D01*
X62985253Y-98790993D01*
X62820446Y-98901113D01*
X62669860Y-99051700D01*
X60081934Y-99051700D01*
X60301537Y-98960962D01*
X60605893Y-98657137D01*
X60770812Y-98259968D01*
X60771187Y-97829919D01*
X60606962Y-97432463D01*
X60303137Y-97128107D01*
X59905968Y-96963188D01*
X59475919Y-96962813D01*
X59078463Y-97127038D01*
X58774107Y-97430863D01*
X58609188Y-97828032D01*
X58608813Y-98258081D01*
X58739128Y-98573468D01*
X58631200Y-98552000D01*
X58525656Y-98552000D01*
X58325054Y-98251777D01*
X57954238Y-98004006D01*
X57516831Y-97917000D01*
X56783169Y-97917000D01*
X56345762Y-98004006D01*
X55974946Y-98251777D01*
X55727175Y-98622593D01*
X55640169Y-99060000D01*
X55727175Y-99497407D01*
X55974946Y-99868223D01*
X56345762Y-100115994D01*
X56783169Y-100203000D01*
X57516831Y-100203000D01*
X57954238Y-100115994D01*
X58325054Y-99868223D01*
X58483649Y-99630869D01*
X58771690Y-99918911D01*
X58936497Y-100029031D01*
X59130900Y-100067700D01*
X62712516Y-100067700D01*
X62712281Y-100336764D01*
X62848781Y-100667120D01*
X63101313Y-100920092D01*
X63431430Y-101057169D01*
X63788876Y-101057481D01*
X63790501Y-101056809D01*
X64339471Y-101605779D01*
X64339471Y-103353489D01*
X63892705Y-102905943D01*
X63082204Y-102569394D01*
X62204607Y-102568628D01*
X61393519Y-102903762D01*
X60772423Y-103523775D01*
X60435874Y-104334276D01*
X60435108Y-105211873D01*
X60770242Y-106022961D01*
X61390255Y-106644057D01*
X62200756Y-106980606D01*
X63078353Y-106981372D01*
X63889441Y-106646238D01*
X64339471Y-106196993D01*
X64339471Y-110617000D01*
X55245278Y-110617000D01*
X55245156Y-110616705D01*
X54992624Y-110363733D01*
X54662507Y-110226656D01*
X54305061Y-110226344D01*
X53974705Y-110362844D01*
X53721733Y-110615376D01*
X53584656Y-110945493D01*
X53584344Y-111302939D01*
X53720844Y-111633295D01*
X53973376Y-111886267D01*
X54303493Y-112023344D01*
X54660939Y-112023656D01*
X54991295Y-111887156D01*
X55244267Y-111634624D01*
X55244941Y-111633000D01*
X59050452Y-111633000D01*
X58774107Y-111908863D01*
X58609188Y-112306032D01*
X58608813Y-112736081D01*
X58773038Y-113133537D01*
X59076863Y-113437893D01*
X59474032Y-113602812D01*
X59904081Y-113603187D01*
X60301537Y-113438962D01*
X60605893Y-113135137D01*
X60770812Y-112737968D01*
X60771187Y-112307919D01*
X60606962Y-111910463D01*
X60329983Y-111633000D01*
X68877580Y-111633000D01*
X69840778Y-112596199D01*
X69840656Y-112596493D01*
X69840344Y-112953939D01*
X69976844Y-113284295D01*
X70229376Y-113537267D01*
X70536990Y-113665000D01*
X32893000Y-113665000D01*
X32893000Y-112736081D01*
X43368813Y-112736081D01*
X43533038Y-113133537D01*
X43836863Y-113437893D01*
X44234032Y-113602812D01*
X44664081Y-113603187D01*
X45061537Y-113438962D01*
X45365893Y-113135137D01*
X45530812Y-112737968D01*
X45530813Y-112736081D01*
X48448813Y-112736081D01*
X48613038Y-113133537D01*
X48916863Y-113437893D01*
X49314032Y-113602812D01*
X49744081Y-113603187D01*
X50141537Y-113438962D01*
X50445893Y-113135137D01*
X50610812Y-112737968D01*
X50611187Y-112307919D01*
X50446962Y-111910463D01*
X50143137Y-111606107D01*
X49745968Y-111441188D01*
X49315919Y-111440813D01*
X48918463Y-111605038D01*
X48614107Y-111908863D01*
X48449188Y-112306032D01*
X48448813Y-112736081D01*
X45530813Y-112736081D01*
X45531187Y-112307919D01*
X45366962Y-111910463D01*
X45063137Y-111606107D01*
X44665968Y-111441188D01*
X44235919Y-111440813D01*
X43838463Y-111605038D01*
X43534107Y-111908863D01*
X43369188Y-112306032D01*
X43368813Y-112736081D01*
X32893000Y-112736081D01*
X32893000Y-107656081D01*
X43368813Y-107656081D01*
X43533038Y-108053537D01*
X43836863Y-108357893D01*
X44234032Y-108522812D01*
X44664081Y-108523187D01*
X45061537Y-108358962D01*
X45365893Y-108055137D01*
X45530812Y-107657968D01*
X45530813Y-107656081D01*
X48448813Y-107656081D01*
X48613038Y-108053537D01*
X48916863Y-108357893D01*
X49314032Y-108522812D01*
X49744081Y-108523187D01*
X50141537Y-108358962D01*
X50445893Y-108055137D01*
X50610812Y-107657968D01*
X50610813Y-107656081D01*
X58608813Y-107656081D01*
X58773038Y-108053537D01*
X59076863Y-108357893D01*
X59474032Y-108522812D01*
X59904081Y-108523187D01*
X60301537Y-108358962D01*
X60605893Y-108055137D01*
X60770812Y-107657968D01*
X60771187Y-107227919D01*
X60606962Y-106830463D01*
X60303137Y-106526107D01*
X59905968Y-106361188D01*
X59475919Y-106360813D01*
X59078463Y-106525038D01*
X58774107Y-106828863D01*
X58609188Y-107226032D01*
X58608813Y-107656081D01*
X50610813Y-107656081D01*
X50611187Y-107227919D01*
X50446962Y-106830463D01*
X50143137Y-106526107D01*
X49745968Y-106361188D01*
X49315919Y-106360813D01*
X48918463Y-106525038D01*
X48614107Y-106828863D01*
X48449188Y-107226032D01*
X48448813Y-107656081D01*
X45530813Y-107656081D01*
X45531187Y-107227919D01*
X45366962Y-106830463D01*
X45063137Y-106526107D01*
X44665968Y-106361188D01*
X44235919Y-106360813D01*
X43838463Y-106525038D01*
X43534107Y-106828863D01*
X43369188Y-107226032D01*
X43368813Y-107656081D01*
X32893000Y-107656081D01*
X32893000Y-103378000D01*
X33309716Y-103378000D01*
X33309716Y-104902000D01*
X33339286Y-105050659D01*
X33423494Y-105176686D01*
X33549521Y-105260894D01*
X33698180Y-105290464D01*
X35897820Y-105290464D01*
X36046479Y-105260894D01*
X36172506Y-105176686D01*
X36256714Y-105050659D01*
X36286284Y-104902000D01*
X36286284Y-103378000D01*
X40421716Y-103378000D01*
X40421716Y-104902000D01*
X40451286Y-105050659D01*
X40535494Y-105176686D01*
X40661521Y-105260894D01*
X40810180Y-105290464D01*
X43009820Y-105290464D01*
X43158479Y-105260894D01*
X43284506Y-105176686D01*
X43368714Y-105050659D01*
X43398284Y-104902000D01*
X43398284Y-103378000D01*
X43368714Y-103229341D01*
X43284506Y-103103314D01*
X43158479Y-103019106D01*
X43009820Y-102989536D01*
X40810180Y-102989536D01*
X40661521Y-103019106D01*
X40535494Y-103103314D01*
X40451286Y-103229341D01*
X40421716Y-103378000D01*
X36286284Y-103378000D01*
X36256714Y-103229341D01*
X36172506Y-103103314D01*
X36046479Y-103019106D01*
X35897820Y-102989536D01*
X33698180Y-102989536D01*
X33549521Y-103019106D01*
X33423494Y-103103314D01*
X33339286Y-103229341D01*
X33309716Y-103378000D01*
X32893000Y-103378000D01*
X32893000Y-101600000D01*
X33288169Y-101600000D01*
X33375175Y-102037407D01*
X33622946Y-102408223D01*
X33993762Y-102655994D01*
X34431169Y-102743000D01*
X35164831Y-102743000D01*
X35602238Y-102655994D01*
X35973054Y-102408223D01*
X36173656Y-102108000D01*
X40534344Y-102108000D01*
X40734946Y-102408223D01*
X41105762Y-102655994D01*
X41543169Y-102743000D01*
X42276831Y-102743000D01*
X42714238Y-102655994D01*
X43085054Y-102408223D01*
X43285656Y-102108000D01*
X43683230Y-102108000D01*
X43534107Y-102256863D01*
X43369188Y-102654032D01*
X43368813Y-103084081D01*
X43533038Y-103481537D01*
X43836863Y-103785893D01*
X44234032Y-103950812D01*
X44664081Y-103951187D01*
X45061537Y-103786962D01*
X45365893Y-103483137D01*
X45409549Y-103378000D01*
X45501716Y-103378000D01*
X45501716Y-104902000D01*
X45531286Y-105050659D01*
X45615494Y-105176686D01*
X45741521Y-105260894D01*
X45890180Y-105290464D01*
X48089820Y-105290464D01*
X48238479Y-105260894D01*
X48364506Y-105176686D01*
X48448714Y-105050659D01*
X48478284Y-104902000D01*
X48478284Y-103378000D01*
X48448714Y-103229341D01*
X48364506Y-103103314D01*
X48238479Y-103019106D01*
X48089820Y-102989536D01*
X45890180Y-102989536D01*
X45741521Y-103019106D01*
X45615494Y-103103314D01*
X45531286Y-103229341D01*
X45501716Y-103378000D01*
X45409549Y-103378000D01*
X45530812Y-103085968D01*
X45531187Y-102655919D01*
X45366962Y-102258463D01*
X45216762Y-102108000D01*
X45614344Y-102108000D01*
X45814946Y-102408223D01*
X46185762Y-102655994D01*
X46623169Y-102743000D01*
X47356831Y-102743000D01*
X47794238Y-102655994D01*
X48165054Y-102408223D01*
X48365656Y-102108000D01*
X48763230Y-102108000D01*
X48614107Y-102256863D01*
X48449188Y-102654032D01*
X48448813Y-103084081D01*
X48613038Y-103481537D01*
X48916863Y-103785893D01*
X49314032Y-103950812D01*
X49744081Y-103951187D01*
X50141537Y-103786962D01*
X50445893Y-103483137D01*
X50489549Y-103378000D01*
X50581716Y-103378000D01*
X50581716Y-104902000D01*
X50611286Y-105050659D01*
X50695494Y-105176686D01*
X50821521Y-105260894D01*
X50970180Y-105290464D01*
X51563425Y-105290464D01*
X51600669Y-105477703D01*
X51710790Y-105642510D01*
X51875597Y-105752631D01*
X52016548Y-105780668D01*
X52467778Y-106231899D01*
X52467656Y-106232193D01*
X52467344Y-106589639D01*
X52603844Y-106919995D01*
X52856376Y-107172967D01*
X53186493Y-107310044D01*
X53543939Y-107310356D01*
X53874295Y-107173856D01*
X54127267Y-106921324D01*
X54264344Y-106591207D01*
X54264656Y-106233761D01*
X54128156Y-105903405D01*
X53875624Y-105650433D01*
X53545507Y-105513356D01*
X53188061Y-105513044D01*
X53186436Y-105513715D01*
X52963184Y-105290464D01*
X53169820Y-105290464D01*
X53318479Y-105260894D01*
X53444506Y-105176686D01*
X53528714Y-105050659D01*
X53558284Y-104902000D01*
X53558284Y-103378000D01*
X55661716Y-103378000D01*
X55661716Y-104902000D01*
X55691286Y-105050659D01*
X55775494Y-105176686D01*
X55901521Y-105260894D01*
X56050180Y-105290464D01*
X58249820Y-105290464D01*
X58398479Y-105260894D01*
X58524506Y-105176686D01*
X58608714Y-105050659D01*
X58638284Y-104902000D01*
X58638284Y-103378000D01*
X58608714Y-103229341D01*
X58524506Y-103103314D01*
X58495722Y-103084081D01*
X58608813Y-103084081D01*
X58773038Y-103481537D01*
X59076863Y-103785893D01*
X59474032Y-103950812D01*
X59904081Y-103951187D01*
X60301537Y-103786962D01*
X60605893Y-103483137D01*
X60770812Y-103085968D01*
X60771187Y-102655919D01*
X60606962Y-102258463D01*
X60303137Y-101954107D01*
X59905968Y-101789188D01*
X59475919Y-101788813D01*
X59078463Y-101953038D01*
X58774107Y-102256863D01*
X58609188Y-102654032D01*
X58608813Y-103084081D01*
X58495722Y-103084081D01*
X58398479Y-103019106D01*
X58249820Y-102989536D01*
X56050180Y-102989536D01*
X55901521Y-103019106D01*
X55775494Y-103103314D01*
X55691286Y-103229341D01*
X55661716Y-103378000D01*
X53558284Y-103378000D01*
X53528714Y-103229341D01*
X53444506Y-103103314D01*
X53318479Y-103019106D01*
X53169820Y-102989536D01*
X50970180Y-102989536D01*
X50821521Y-103019106D01*
X50695494Y-103103314D01*
X50611286Y-103229341D01*
X50581716Y-103378000D01*
X50489549Y-103378000D01*
X50610812Y-103085968D01*
X50611187Y-102655919D01*
X50446962Y-102258463D01*
X50296762Y-102108000D01*
X50694344Y-102108000D01*
X50894946Y-102408223D01*
X51265762Y-102655994D01*
X51703169Y-102743000D01*
X52436831Y-102743000D01*
X52874238Y-102655994D01*
X53245054Y-102408223D01*
X53492825Y-102037407D01*
X53579831Y-101600000D01*
X55640169Y-101600000D01*
X55727175Y-102037407D01*
X55974946Y-102408223D01*
X56345762Y-102655994D01*
X56783169Y-102743000D01*
X57516831Y-102743000D01*
X57954238Y-102655994D01*
X58325054Y-102408223D01*
X58572825Y-102037407D01*
X58659831Y-101600000D01*
X58572825Y-101162593D01*
X58325054Y-100791777D01*
X57954238Y-100544006D01*
X57516831Y-100457000D01*
X56783169Y-100457000D01*
X56345762Y-100544006D01*
X55974946Y-100791777D01*
X55727175Y-101162593D01*
X55640169Y-101600000D01*
X53579831Y-101600000D01*
X53492825Y-101162593D01*
X53245054Y-100791777D01*
X52874238Y-100544006D01*
X52436831Y-100457000D01*
X51703169Y-100457000D01*
X51265762Y-100544006D01*
X50894946Y-100791777D01*
X50694344Y-101092000D01*
X48365656Y-101092000D01*
X48165054Y-100791777D01*
X47794238Y-100544006D01*
X47356831Y-100457000D01*
X46623169Y-100457000D01*
X46185762Y-100544006D01*
X45814946Y-100791777D01*
X45614344Y-101092000D01*
X43285656Y-101092000D01*
X43085054Y-100791777D01*
X42714238Y-100544006D01*
X42276831Y-100457000D01*
X41543169Y-100457000D01*
X41105762Y-100544006D01*
X40734946Y-100791777D01*
X40534344Y-101092000D01*
X36173656Y-101092000D01*
X35973054Y-100791777D01*
X35602238Y-100544006D01*
X35164831Y-100457000D01*
X34431169Y-100457000D01*
X33993762Y-100544006D01*
X33622946Y-100791777D01*
X33375175Y-101162593D01*
X33288169Y-101600000D01*
X32893000Y-101600000D01*
X32893000Y-99060000D01*
X33288169Y-99060000D01*
X33375175Y-99497407D01*
X33622946Y-99868223D01*
X33993762Y-100115994D01*
X34431169Y-100203000D01*
X35164831Y-100203000D01*
X35602238Y-100115994D01*
X35973054Y-99868223D01*
X36173656Y-99568000D01*
X40534344Y-99568000D01*
X40734946Y-99868223D01*
X41105762Y-100115994D01*
X41543169Y-100203000D01*
X42276831Y-100203000D01*
X42714238Y-100115994D01*
X43085054Y-99868223D01*
X43257024Y-99610852D01*
X43321196Y-99653731D01*
X43515600Y-99692400D01*
X45384400Y-99692400D01*
X45578803Y-99653731D01*
X45642976Y-99610852D01*
X45814946Y-99868223D01*
X46185762Y-100115994D01*
X46623169Y-100203000D01*
X47356831Y-100203000D01*
X47794238Y-100115994D01*
X48165054Y-99868223D01*
X48412825Y-99497407D01*
X48499831Y-99060000D01*
X48412825Y-98622593D01*
X48169267Y-98258081D01*
X48448813Y-98258081D01*
X48613038Y-98655537D01*
X48916863Y-98959893D01*
X49314032Y-99124812D01*
X49744081Y-99125187D01*
X49901846Y-99060000D01*
X50560169Y-99060000D01*
X50647175Y-99497407D01*
X50894946Y-99868223D01*
X51265762Y-100115994D01*
X51703169Y-100203000D01*
X52436831Y-100203000D01*
X52874238Y-100115994D01*
X53245054Y-99868223D01*
X53492825Y-99497407D01*
X53579831Y-99060000D01*
X53492825Y-98622593D01*
X53245054Y-98251777D01*
X52874238Y-98004006D01*
X52436831Y-97917000D01*
X51703169Y-97917000D01*
X51265762Y-98004006D01*
X50894946Y-98251777D01*
X50647175Y-98622593D01*
X50560169Y-99060000D01*
X49901846Y-99060000D01*
X50141537Y-98960962D01*
X50445893Y-98657137D01*
X50610812Y-98259968D01*
X50611187Y-97829919D01*
X50446962Y-97432463D01*
X50143137Y-97128107D01*
X49745968Y-96963188D01*
X49315919Y-96962813D01*
X48918463Y-97127038D01*
X48614107Y-97430863D01*
X48449188Y-97828032D01*
X48448813Y-98258081D01*
X48169267Y-98258081D01*
X48165054Y-98251777D01*
X47794238Y-98004006D01*
X47356831Y-97917000D01*
X46623169Y-97917000D01*
X46185762Y-98004006D01*
X45814946Y-98251777D01*
X45614344Y-98552000D01*
X45508800Y-98552000D01*
X45400614Y-98573519D01*
X45530812Y-98259968D01*
X45531187Y-97829919D01*
X45366962Y-97432463D01*
X45063137Y-97128107D01*
X44665968Y-96963188D01*
X44235919Y-96962813D01*
X43838463Y-97127038D01*
X43534107Y-97430863D01*
X43369188Y-97828032D01*
X43368813Y-98258081D01*
X43499128Y-98573468D01*
X43391200Y-98552000D01*
X43285656Y-98552000D01*
X43085054Y-98251777D01*
X42714238Y-98004006D01*
X42276831Y-97917000D01*
X41543169Y-97917000D01*
X41105762Y-98004006D01*
X40734946Y-98251777D01*
X40534344Y-98552000D01*
X36173656Y-98552000D01*
X35973054Y-98251777D01*
X35602238Y-98004006D01*
X35164831Y-97917000D01*
X34431169Y-97917000D01*
X33993762Y-98004006D01*
X33622946Y-98251777D01*
X33375175Y-98622593D01*
X33288169Y-99060000D01*
X32893000Y-99060000D01*
X32893000Y-96109096D01*
X63003234Y-96109096D01*
X63175142Y-96525146D01*
X63493180Y-96843739D01*
X63908929Y-97016373D01*
X64359096Y-97016766D01*
X64775146Y-96844858D01*
X65093739Y-96526820D01*
X65266373Y-96111071D01*
X65266374Y-96109096D01*
X65543234Y-96109096D01*
X65715142Y-96525146D01*
X66033180Y-96843739D01*
X66448929Y-97016373D01*
X66899096Y-97016766D01*
X67315146Y-96844858D01*
X67633739Y-96526820D01*
X67806373Y-96111071D01*
X67806374Y-96109096D01*
X70623234Y-96109096D01*
X70795142Y-96525146D01*
X71113180Y-96843739D01*
X71528929Y-97016373D01*
X71979096Y-97016766D01*
X72395146Y-96844858D01*
X72713739Y-96526820D01*
X72886373Y-96111071D01*
X72886766Y-95660904D01*
X72714858Y-95244854D01*
X72396820Y-94926261D01*
X71981071Y-94753627D01*
X71530904Y-94753234D01*
X71114854Y-94925142D01*
X70796261Y-95243180D01*
X70623627Y-95658929D01*
X70623234Y-96109096D01*
X67806374Y-96109096D01*
X67806766Y-95660904D01*
X67634858Y-95244854D01*
X67316820Y-94926261D01*
X66901071Y-94753627D01*
X66450904Y-94753234D01*
X66034854Y-94925142D01*
X65716261Y-95243180D01*
X65543627Y-95658929D01*
X65543234Y-96109096D01*
X65266374Y-96109096D01*
X65266766Y-95660904D01*
X65094858Y-95244854D01*
X64776820Y-94926261D01*
X64361071Y-94753627D01*
X63910904Y-94753234D01*
X63494854Y-94925142D01*
X63176261Y-95243180D01*
X63003627Y-95658929D01*
X63003234Y-96109096D01*
X32893000Y-96109096D01*
X32893000Y-94448081D01*
X43368813Y-94448081D01*
X43533038Y-94845537D01*
X43836863Y-95149893D01*
X44234032Y-95314812D01*
X44664081Y-95315187D01*
X45061537Y-95150962D01*
X45365893Y-94847137D01*
X45530812Y-94449968D01*
X45530813Y-94448081D01*
X48448813Y-94448081D01*
X48613038Y-94845537D01*
X48916863Y-95149893D01*
X49314032Y-95314812D01*
X49744081Y-95315187D01*
X50141537Y-95150962D01*
X50445893Y-94847137D01*
X50610812Y-94449968D01*
X50610813Y-94448081D01*
X58608813Y-94448081D01*
X58773038Y-94845537D01*
X59076863Y-95149893D01*
X59474032Y-95314812D01*
X59904081Y-95315187D01*
X60301537Y-95150962D01*
X60605893Y-94847137D01*
X60770812Y-94449968D01*
X60770813Y-94448081D01*
X76388813Y-94448081D01*
X76553038Y-94845537D01*
X76856863Y-95149893D01*
X77254032Y-95314812D01*
X77684081Y-95315187D01*
X78081537Y-95150962D01*
X78385893Y-94847137D01*
X78550812Y-94449968D01*
X78551187Y-94019919D01*
X78386962Y-93622463D01*
X78083137Y-93318107D01*
X77685968Y-93153188D01*
X77255919Y-93152813D01*
X76858463Y-93317038D01*
X76554107Y-93620863D01*
X76389188Y-94018032D01*
X76388813Y-94448081D01*
X60770813Y-94448081D01*
X60771187Y-94019919D01*
X60606962Y-93622463D01*
X60303137Y-93318107D01*
X59905968Y-93153188D01*
X59475919Y-93152813D01*
X59078463Y-93317038D01*
X58774107Y-93620863D01*
X58609188Y-94018032D01*
X58608813Y-94448081D01*
X50610813Y-94448081D01*
X50611187Y-94019919D01*
X50446962Y-93622463D01*
X50143137Y-93318107D01*
X49745968Y-93153188D01*
X49315919Y-93152813D01*
X48918463Y-93317038D01*
X48614107Y-93620863D01*
X48449188Y-94018032D01*
X48448813Y-94448081D01*
X45530813Y-94448081D01*
X45531187Y-94019919D01*
X45366962Y-93622463D01*
X45063137Y-93318107D01*
X44665968Y-93153188D01*
X44235919Y-93152813D01*
X43838463Y-93317038D01*
X43534107Y-93620863D01*
X43369188Y-94018032D01*
X43368813Y-94448081D01*
X32893000Y-94448081D01*
X32893000Y-93091000D01*
X174625000Y-93091000D01*
X174625000Y-113665000D01*
M02*
