G04 #@! TF.FileFunction,Copper,L1,Top,Signal*
%FSLAX46Y46*%
G04 Gerber Fmt 4.6, Leading zero omitted, Abs format (unit mm)*
G04 Created by KiCad (PCBNEW 0.201505071723+5645~23~ubuntu14.04.1-product) date dom 10 mag 2015 16:46:30 CEST*
%MOMM*%
G01*
G04 APERTURE LIST*
%ADD10C,0.100000*%
%ADD11C,1.400000*%
%ADD12C,3.649980*%
%ADD13R,1.501140X1.501140*%
%ADD14C,1.501140*%
%ADD15C,1.524000*%
%ADD16R,1.803400X1.600200*%
%ADD17R,2.199640X1.524000*%
%ADD18O,2.199640X1.524000*%
%ADD19R,1.300480X1.800860*%
%ADD20R,3.799840X1.800860*%
%ADD21R,0.599440X1.000760*%
%ADD22R,1.000760X0.599440*%
%ADD23C,1.035000*%
%ADD24C,0.254000*%
%ADD25C,0.508000*%
G04 APERTURE END LIST*
D10*
D11*
X49530000Y-115250000D03*
X163830000Y-114935000D03*
X148590000Y-115250000D03*
X130810000Y-115250000D03*
X113030000Y-115250000D03*
X95250000Y-115250000D03*
X77470000Y-115250000D03*
X59690000Y-115250000D03*
X49530000Y-110250000D03*
X163830000Y-110490000D03*
X148590000Y-110250000D03*
X130810000Y-110250000D03*
X113030000Y-110250000D03*
X95250000Y-110250000D03*
X77470000Y-110250000D03*
X59690000Y-110250000D03*
X49530000Y-105250000D03*
X163830000Y-105410000D03*
X148590000Y-105250000D03*
X130810000Y-105250000D03*
X113030000Y-105250000D03*
X95250000Y-105250000D03*
X77470000Y-105250000D03*
X59690000Y-105250000D03*
X49530000Y-100250000D03*
X163830000Y-100330000D03*
X148590000Y-100250000D03*
X130810000Y-100250000D03*
X113030000Y-100250000D03*
X95250000Y-100250000D03*
X77470000Y-100250000D03*
X59690000Y-100250000D03*
X49530000Y-95250000D03*
X163830000Y-95250000D03*
X148590000Y-95250000D03*
X130810000Y-95250000D03*
X113030000Y-95250000D03*
X95250000Y-95250000D03*
X77470000Y-95250000D03*
X59690000Y-95250000D03*
D12*
X80421480Y-104775000D03*
X92290900Y-104775000D03*
D13*
X90805000Y-98425000D03*
D14*
X89535000Y-95885000D03*
X88265000Y-98425000D03*
X86995000Y-95885000D03*
X85725000Y-98425000D03*
X84455000Y-95885000D03*
X83185000Y-98425000D03*
X81915000Y-95885000D03*
D15*
X151130000Y-111125000D03*
X151130000Y-109220000D03*
X156210000Y-107315000D03*
X133350000Y-101600000D03*
X156210000Y-109220000D03*
X161290000Y-107315000D03*
X115570000Y-101600000D03*
X161290000Y-109220000D03*
X166370000Y-107315000D03*
X97790000Y-101600000D03*
X166370000Y-109220000D03*
X171450000Y-107315000D03*
X80010000Y-101600000D03*
X171450000Y-109220000D03*
X52070000Y-107315000D03*
X62230000Y-101600000D03*
X64135000Y-101600000D03*
X137160000Y-101600000D03*
X171450000Y-111125000D03*
X81915000Y-101600000D03*
X119380000Y-101600000D03*
X166370000Y-111125000D03*
X99695000Y-101600000D03*
X83820000Y-101600000D03*
X156210000Y-111125000D03*
X117475000Y-101600000D03*
X57150000Y-107315000D03*
X161290000Y-111125000D03*
X135255000Y-101600000D03*
X101600000Y-101600000D03*
X52070000Y-111125000D03*
X57150000Y-109220000D03*
X66040000Y-101600000D03*
X41910000Y-111125000D03*
X52070000Y-109220000D03*
X151130000Y-107315000D03*
X57150000Y-111125000D03*
X46990000Y-109220000D03*
X46990000Y-107315000D03*
X46990000Y-111125000D03*
X41910000Y-109220000D03*
X41910000Y-107315000D03*
X36830000Y-111125000D03*
X36830000Y-109220000D03*
X36830000Y-107315000D03*
D16*
X74930000Y-109093000D03*
X74930000Y-111887000D03*
X133350000Y-109093000D03*
X133350000Y-111887000D03*
X62230000Y-111887000D03*
X62230000Y-109093000D03*
X146050000Y-109093000D03*
X146050000Y-111887000D03*
D17*
X151130000Y-104140000D03*
D18*
X151130000Y-101600000D03*
X151130000Y-99060000D03*
X151130000Y-96520000D03*
D17*
X156210000Y-104140000D03*
D18*
X156210000Y-101600000D03*
X156210000Y-99060000D03*
X156210000Y-96520000D03*
D17*
X161290000Y-104140000D03*
D18*
X161290000Y-101600000D03*
X161290000Y-99060000D03*
X161290000Y-96520000D03*
D17*
X166370000Y-104140000D03*
D18*
X166370000Y-101600000D03*
X166370000Y-99060000D03*
X166370000Y-96520000D03*
D17*
X171450000Y-104140000D03*
D18*
X171450000Y-101600000D03*
X171450000Y-99060000D03*
X171450000Y-96520000D03*
D17*
X57150000Y-104140000D03*
D18*
X57150000Y-101600000D03*
X57150000Y-99060000D03*
X57150000Y-96520000D03*
D17*
X52070000Y-104140000D03*
D18*
X52070000Y-101600000D03*
X52070000Y-99060000D03*
X52070000Y-96520000D03*
D17*
X46990000Y-104140000D03*
D18*
X46990000Y-101600000D03*
X46990000Y-99060000D03*
X46990000Y-96520000D03*
D17*
X41910000Y-104140000D03*
D18*
X41910000Y-101600000D03*
X41910000Y-99060000D03*
X41910000Y-96520000D03*
D17*
X36830000Y-104140000D03*
D18*
X36830000Y-101600000D03*
X36830000Y-99060000D03*
X36830000Y-96520000D03*
D19*
X137398760Y-110949740D03*
X139700000Y-110949740D03*
X142001240Y-110949740D03*
D20*
X139700000Y-104950260D03*
D19*
X66278760Y-110949740D03*
X68580000Y-110949740D03*
X70881240Y-110949740D03*
D20*
X68580000Y-104950260D03*
D21*
X85407500Y-107101640D03*
X87312500Y-107101640D03*
X86360000Y-107101640D03*
X87312500Y-104988360D03*
X85407500Y-104988360D03*
X86360000Y-104988360D03*
X120967500Y-107101640D03*
X122872500Y-107101640D03*
X121920000Y-107101640D03*
X122872500Y-104988360D03*
X120967500Y-104988360D03*
X121920000Y-104988360D03*
D22*
X40426640Y-114617500D03*
X40426640Y-112712500D03*
X40426640Y-113665000D03*
X38313360Y-112712500D03*
X38313360Y-114617500D03*
X38313360Y-113665000D03*
X167853360Y-112712500D03*
X167853360Y-114617500D03*
X167853360Y-113665000D03*
X169966640Y-114617500D03*
X169966640Y-112712500D03*
X169966640Y-113665000D03*
D12*
X62641480Y-104775000D03*
X74510900Y-104775000D03*
D13*
X73025000Y-98425000D03*
D14*
X71755000Y-95885000D03*
X70485000Y-98425000D03*
X69215000Y-95885000D03*
X67945000Y-98425000D03*
X66675000Y-95885000D03*
X65405000Y-98425000D03*
X64135000Y-95885000D03*
D12*
X98201480Y-104775000D03*
X110070900Y-104775000D03*
D13*
X108585000Y-98425000D03*
D14*
X107315000Y-95885000D03*
X106045000Y-98425000D03*
X104775000Y-95885000D03*
X103505000Y-98425000D03*
X102235000Y-95885000D03*
X100965000Y-98425000D03*
X99695000Y-95885000D03*
D12*
X115981480Y-104775000D03*
X127850900Y-104775000D03*
D13*
X126365000Y-98425000D03*
D14*
X125095000Y-95885000D03*
X123825000Y-98425000D03*
X122555000Y-95885000D03*
X121285000Y-98425000D03*
X120015000Y-95885000D03*
X118745000Y-98425000D03*
X117475000Y-95885000D03*
D12*
X133761480Y-104775000D03*
X145630900Y-104775000D03*
D13*
X144145000Y-98425000D03*
D14*
X142875000Y-95885000D03*
X141605000Y-98425000D03*
X140335000Y-95885000D03*
X139065000Y-98425000D03*
X137795000Y-95885000D03*
X136525000Y-98425000D03*
X135255000Y-95885000D03*
D23*
X128081800Y-101349200D03*
X72779900Y-109430600D03*
X114111100Y-102349900D03*
X96203500Y-102405500D03*
X60995900Y-102539400D03*
X73472500Y-101600000D03*
X83261100Y-107559900D03*
X38993700Y-111632400D03*
X171200200Y-115283100D03*
X168113800Y-107404800D03*
X58400900Y-108297300D03*
X53504000Y-108173100D03*
D24*
X142001200Y-110949700D02*
X140969700Y-110949700D01*
X142001200Y-110949700D02*
X143032700Y-110949700D01*
X140969700Y-110949700D02*
X140969700Y-110047100D01*
X140969700Y-110047100D02*
X138795600Y-107873000D01*
X138795600Y-107873000D02*
X127761100Y-107873000D01*
X127761100Y-107873000D02*
X125605800Y-105717700D01*
X125605800Y-105717700D02*
X125605800Y-103825200D01*
X125605800Y-103825200D02*
X128081800Y-101349200D01*
X143032700Y-110949700D02*
X143032700Y-110827300D01*
X143032700Y-110827300D02*
X144767000Y-109093000D01*
X128081800Y-101349200D02*
X128332600Y-101600000D01*
X128332600Y-101600000D02*
X133350000Y-101600000D01*
X72779900Y-109430600D02*
X73309400Y-109430600D01*
X73309400Y-109430600D02*
X73647000Y-109093000D01*
X71921500Y-109667900D02*
X72542600Y-109667900D01*
X72542600Y-109667900D02*
X72779900Y-109430600D01*
X69611500Y-110949700D02*
X69611500Y-110047100D01*
X69611500Y-110047100D02*
X69990700Y-109667900D01*
X69990700Y-109667900D02*
X71921500Y-109667900D01*
X71921500Y-109667900D02*
X71921500Y-112002900D01*
X71921500Y-112002900D02*
X70855900Y-113068500D01*
X70855900Y-113068500D02*
X59093500Y-113068500D01*
X59093500Y-113068500D02*
X57150000Y-111125000D01*
X74930000Y-109093000D02*
X73647000Y-109093000D01*
X114111100Y-102349900D02*
X114861000Y-101600000D01*
X114861000Y-101600000D02*
X115570000Y-101600000D01*
X156210000Y-111125000D02*
X151130000Y-111125000D01*
X161290000Y-111125000D02*
X156210000Y-111125000D01*
X146050000Y-109093000D02*
X149098000Y-109093000D01*
X149098000Y-109093000D02*
X151130000Y-111125000D01*
X68580000Y-110949700D02*
X69611500Y-110949700D01*
X52070000Y-111125000D02*
X57150000Y-111125000D01*
X146050000Y-109093000D02*
X144767000Y-109093000D01*
X96203500Y-102405500D02*
X96984500Y-102405500D01*
X96984500Y-102405500D02*
X97790000Y-101600000D01*
X62230000Y-101600000D02*
X61935300Y-101600000D01*
X61935300Y-101600000D02*
X60995900Y-102539400D01*
X161290000Y-111125000D02*
X161743200Y-111578200D01*
X161743200Y-111578200D02*
X165916800Y-111578200D01*
X165916800Y-111578200D02*
X166370000Y-111125000D01*
X73472500Y-101600000D02*
X80010000Y-101600000D01*
X171450000Y-111125000D02*
X166370000Y-111125000D01*
X46990000Y-111125000D02*
X47213700Y-111348700D01*
X47213700Y-111348700D02*
X51846300Y-111348700D01*
X51846300Y-111348700D02*
X52070000Y-111125000D01*
X46990000Y-111125000D02*
X41910000Y-111125000D01*
X36830000Y-111125000D02*
X37246500Y-110708500D01*
X37246500Y-110708500D02*
X41493500Y-110708500D01*
X41493500Y-110708500D02*
X41910000Y-111125000D01*
X83261100Y-107983300D02*
X86360000Y-107983300D01*
X76213100Y-108062200D02*
X76292000Y-107983300D01*
X76292000Y-107983300D02*
X83261100Y-107983300D01*
X83261100Y-107983300D02*
X83261100Y-107559900D01*
X146050000Y-112231500D02*
X147483500Y-113665000D01*
X147483500Y-113665000D02*
X167853400Y-113665000D01*
X121920000Y-107983300D02*
X86360000Y-107983300D01*
X121920000Y-107856200D02*
X121920000Y-107983300D01*
X121920000Y-107101600D02*
X121920000Y-107856200D01*
X86360000Y-107101600D02*
X86360000Y-107983300D01*
X133350000Y-111887000D02*
X125823700Y-111887000D01*
X125823700Y-111887000D02*
X121920000Y-107983300D01*
X133864400Y-111887000D02*
X133350000Y-111887000D01*
X76213100Y-108062200D02*
X76213100Y-110087000D01*
X76213100Y-110087000D02*
X75594500Y-110705600D01*
X75594500Y-110705600D02*
X74930000Y-110705600D01*
X67310300Y-110949700D02*
X67310300Y-110047100D01*
X67310300Y-110047100D02*
X69445900Y-107911500D01*
X69445900Y-107911500D02*
X76062400Y-107911500D01*
X76062400Y-107911500D02*
X76213100Y-108062200D01*
X133864400Y-111887000D02*
X134633000Y-111887000D01*
X137398800Y-110949700D02*
X138430300Y-110949700D01*
X74930000Y-111887000D02*
X74930000Y-110705600D01*
X40426600Y-113665000D02*
X74333400Y-113665000D01*
X74333400Y-113665000D02*
X74930000Y-113068400D01*
X166370000Y-96520000D02*
X171450000Y-96520000D01*
X138430300Y-110949700D02*
X138430300Y-111852300D01*
X138430300Y-111852300D02*
X138809500Y-112231500D01*
X138809500Y-112231500D02*
X146050000Y-112231500D01*
X137398800Y-110949700D02*
X135570300Y-110949700D01*
X135570300Y-110949700D02*
X134633000Y-111887000D01*
X146050000Y-111887000D02*
X146050000Y-112231500D01*
X74930000Y-111887000D02*
X74930000Y-113068400D01*
X65247300Y-110949700D02*
X63981300Y-109683700D01*
X63981300Y-109683700D02*
X62230000Y-109683700D01*
X66278800Y-110949700D02*
X65247300Y-110949700D01*
X62230000Y-109093000D02*
X62230000Y-109683700D01*
X66278800Y-110949700D02*
X67310300Y-110949700D01*
X156210000Y-96520000D02*
X151130000Y-96520000D01*
X161290000Y-96520000D02*
X156210000Y-96520000D01*
X41910000Y-96520000D02*
X46990000Y-96520000D01*
X36830000Y-96520000D02*
X41910000Y-96520000D01*
X125046500Y-105877400D02*
X120455300Y-105877400D01*
X120455300Y-105877400D02*
X119380000Y-104802100D01*
X119380000Y-104802100D02*
X119380000Y-101600000D01*
X119380000Y-104802100D02*
X117200700Y-106981400D01*
X117200700Y-106981400D02*
X104064000Y-106981400D01*
X104064000Y-106981400D02*
X101600000Y-104517400D01*
X101600000Y-104517400D02*
X101600000Y-101600000D01*
X83820000Y-105870000D02*
X83820200Y-105870200D01*
X83820200Y-105870200D02*
X88499700Y-105870200D01*
X88499700Y-105870200D02*
X89656600Y-107027100D01*
X89656600Y-107027100D02*
X99090300Y-107027100D01*
X99090300Y-107027100D02*
X101600000Y-104517400D01*
X83820000Y-105870000D02*
X83599100Y-105870000D01*
X83599100Y-105870000D02*
X82487700Y-106981400D01*
X82487700Y-106981400D02*
X67224100Y-106981400D01*
X67224100Y-106981400D02*
X66040000Y-105797300D01*
X83820000Y-101600000D02*
X83820000Y-105870000D01*
X134633000Y-109093000D02*
X137843300Y-109093000D01*
X137843300Y-109093000D02*
X139700000Y-110949700D01*
X145286500Y-101600000D02*
X145286500Y-96638500D01*
X145286500Y-96638500D02*
X143370900Y-94722900D01*
X143370900Y-94722900D02*
X133817800Y-94722900D01*
X133817800Y-94722900D02*
X128090300Y-100450400D01*
X128090300Y-100450400D02*
X127709600Y-100450400D01*
X127709600Y-100450400D02*
X125046500Y-103113500D01*
X125046500Y-103113500D02*
X125046500Y-105877400D01*
X133350000Y-109093000D02*
X128262100Y-109093000D01*
X128262100Y-109093000D02*
X125046500Y-105877400D01*
X66040000Y-105797300D02*
X66040000Y-101600000D01*
X60946900Y-108132800D02*
X61633200Y-107446500D01*
X61633200Y-107446500D02*
X63140200Y-107446500D01*
X63140200Y-107446500D02*
X64789400Y-105797300D01*
X64789400Y-105797300D02*
X66040000Y-105797300D01*
X60946900Y-108132800D02*
X60129100Y-107315000D01*
X60129100Y-107315000D02*
X57150000Y-107315000D01*
X62230000Y-110705600D02*
X61565500Y-110705600D01*
X61565500Y-110705600D02*
X60946900Y-110087000D01*
X60946900Y-110087000D02*
X60946900Y-108132800D01*
X62230000Y-111887000D02*
X63513000Y-111887000D01*
X70881200Y-110949700D02*
X69599400Y-112231500D01*
X69599400Y-112231500D02*
X63857500Y-112231500D01*
X63857500Y-112231500D02*
X63513000Y-111887000D01*
X145286500Y-101600000D02*
X146873800Y-101600000D01*
X146873800Y-101600000D02*
X148270400Y-102996600D01*
X148270400Y-102996600D02*
X152399500Y-102996600D01*
X152399500Y-102996600D02*
X152611200Y-103208300D01*
X137160000Y-101600000D02*
X145286500Y-101600000D01*
X133350000Y-109093000D02*
X134633000Y-109093000D01*
X57150000Y-107315000D02*
X54663700Y-107315000D01*
X54663700Y-107315000D02*
X53551200Y-106202500D01*
X167874100Y-106496400D02*
X167188600Y-106496400D01*
X167188600Y-106496400D02*
X166370000Y-107315000D01*
X171450000Y-107315000D02*
X170631400Y-106496400D01*
X170631400Y-106496400D02*
X167874100Y-106496400D01*
X167874100Y-106496400D02*
X167874100Y-103235600D01*
X167874100Y-103235600D02*
X167635100Y-102996600D01*
X167635100Y-102996600D02*
X152822900Y-102996600D01*
X152822900Y-102996600D02*
X152611200Y-103208300D01*
X152611200Y-103208300D02*
X152611200Y-105833800D01*
X166370000Y-107315000D02*
X161290000Y-107315000D01*
X152611200Y-105833800D02*
X151130000Y-107315000D01*
X152611200Y-105833800D02*
X154728800Y-105833800D01*
X154728800Y-105833800D02*
X156210000Y-107315000D01*
X62230000Y-111887000D02*
X62230000Y-110705600D01*
X52070000Y-107315000D02*
X53182500Y-106202500D01*
X53182500Y-106202500D02*
X53551200Y-106202500D01*
X40428800Y-107156300D02*
X40428800Y-103206600D01*
X40428800Y-103206600D02*
X40638800Y-102996600D01*
X40638800Y-102996600D02*
X53339500Y-102996600D01*
X53339500Y-102996600D02*
X53551200Y-103208300D01*
X53551200Y-103208300D02*
X53551200Y-106202500D01*
X46990000Y-107315000D02*
X52070000Y-107315000D01*
X40428800Y-107156300D02*
X41751300Y-107156300D01*
X41751300Y-107156300D02*
X41910000Y-107315000D01*
X36830000Y-107315000D02*
X40270100Y-107315000D01*
X40270100Y-107315000D02*
X40428800Y-107156300D01*
X73025000Y-98425000D02*
X71893100Y-98425000D01*
X64135000Y-101600000D02*
X66178100Y-99556900D01*
X66178100Y-99556900D02*
X70973500Y-99556900D01*
X70973500Y-99556900D02*
X71893100Y-98637300D01*
X71893100Y-98637300D02*
X71893100Y-98425000D01*
X169966600Y-113665000D02*
X170848300Y-113665000D01*
X170848300Y-113665000D02*
X173128700Y-111384600D01*
X173128700Y-111384600D02*
X173128700Y-103316600D01*
X173128700Y-103316600D02*
X171983300Y-102171200D01*
X171983300Y-102171200D02*
X171450000Y-102171200D01*
X123825000Y-98425000D02*
X121920000Y-100330000D01*
X121920000Y-100330000D02*
X121920000Y-104988400D01*
X88265000Y-98425000D02*
X86360000Y-100330000D01*
X86360000Y-100330000D02*
X86360000Y-104988400D01*
X166370000Y-101600000D02*
X167851200Y-101600000D01*
X171450000Y-102171200D02*
X168422400Y-102171200D01*
X168422400Y-102171200D02*
X167851200Y-101600000D01*
X171450000Y-101600000D02*
X171450000Y-102171200D01*
X52070000Y-101600000D02*
X48471200Y-101600000D01*
X57150000Y-101600000D02*
X52070000Y-101600000D01*
X46990000Y-101600000D02*
X48471200Y-101600000D01*
X86995000Y-95885000D02*
X88711400Y-94168600D01*
X88711400Y-94168600D02*
X103058600Y-94168600D01*
X103058600Y-94168600D02*
X104775000Y-95885000D01*
X70717600Y-97387600D02*
X70830200Y-97275000D01*
X70830200Y-97275000D02*
X85605000Y-97275000D01*
X85605000Y-97275000D02*
X86995000Y-95885000D01*
X70717600Y-97387600D02*
X69215000Y-95885000D01*
X70485000Y-98425000D02*
X70717600Y-98192400D01*
X70717600Y-98192400D02*
X70717600Y-97387600D01*
X140335000Y-95885000D02*
X140335000Y-97155000D01*
X140335000Y-97155000D02*
X141605000Y-98425000D01*
X161290000Y-101600000D02*
X156210000Y-101600000D01*
X41910000Y-101600000D02*
X46990000Y-101600000D01*
X38313400Y-113665000D02*
X39195100Y-113665000D01*
X39195100Y-113665000D02*
X39195100Y-111833800D01*
X39195100Y-111833800D02*
X38993700Y-111632400D01*
X128928000Y-98051200D02*
X128928000Y-98051300D01*
X128928000Y-98051300D02*
X129700300Y-98051300D01*
X129700300Y-98051300D02*
X133537100Y-94214500D01*
X133537100Y-94214500D02*
X144803300Y-94214500D01*
X144803300Y-94214500D02*
X149648800Y-99060000D01*
X120015000Y-95885000D02*
X120650000Y-95885000D01*
X120650000Y-95885000D02*
X121787300Y-94747700D01*
X121787300Y-94747700D02*
X125624400Y-94747700D01*
X125624400Y-94747700D02*
X128928000Y-98051200D01*
X128928000Y-98051200D02*
X122872500Y-104106700D01*
X120015000Y-95885000D02*
X120015000Y-97155000D01*
X122872500Y-104988400D02*
X122872500Y-104106700D01*
X156210000Y-99060000D02*
X151130000Y-99060000D01*
X161290000Y-99060000D02*
X156210000Y-99060000D01*
X52070000Y-99060000D02*
X53551200Y-99060000D01*
X57150000Y-98488300D02*
X54122900Y-98488300D01*
X54122900Y-98488300D02*
X53551200Y-99060000D01*
X57150000Y-98488300D02*
X57150000Y-97916700D01*
X57150000Y-99060000D02*
X57150000Y-98488300D01*
X151130000Y-99060000D02*
X149648800Y-99060000D01*
X120015000Y-97155000D02*
X121285000Y-98425000D01*
X104140000Y-97790000D02*
X102235000Y-95885000D01*
X104140000Y-97790000D02*
X103505000Y-98425000D01*
X120015000Y-97155000D02*
X104775000Y-97155000D01*
X104775000Y-97155000D02*
X104140000Y-97790000D01*
X66675000Y-97274400D02*
X66794400Y-97274400D01*
X66794400Y-97274400D02*
X67945000Y-98425000D01*
X57150000Y-97916700D02*
X58293300Y-97916700D01*
X58293300Y-97916700D02*
X58935600Y-97274400D01*
X58935600Y-97274400D02*
X66675000Y-97274400D01*
X66675000Y-97274400D02*
X66675000Y-95885000D01*
X84455000Y-95885000D02*
X82699700Y-94129700D01*
X82699700Y-94129700D02*
X68430300Y-94129700D01*
X68430300Y-94129700D02*
X66675000Y-95885000D01*
X169966600Y-114617500D02*
X170848300Y-114617500D01*
X170848300Y-114617500D02*
X170848300Y-114931200D01*
X170848300Y-114931200D02*
X171200200Y-115283100D01*
X102235000Y-95885000D02*
X101034000Y-97086000D01*
X101034000Y-97086000D02*
X94333200Y-97086000D01*
X94333200Y-97086000D02*
X87312500Y-104106700D01*
X87312500Y-104988400D02*
X87312500Y-104106700D01*
X36830000Y-99060000D02*
X36830000Y-100203300D01*
X36830000Y-100203300D02*
X36258400Y-100203300D01*
X36258400Y-100203300D02*
X35153400Y-101308300D01*
X35153400Y-101308300D02*
X35153400Y-111116600D01*
X35153400Y-111116600D02*
X36749300Y-112712500D01*
X36749300Y-112712500D02*
X38313400Y-112712500D01*
X36830000Y-99060000D02*
X41910000Y-99060000D01*
X41910000Y-99060000D02*
X46990000Y-99060000D01*
X90805000Y-98425000D02*
X90805000Y-97293100D01*
X89535000Y-95885000D02*
X89535000Y-96023100D01*
X89535000Y-96023100D02*
X90805000Y-97293100D01*
X81915000Y-101600000D02*
X83085100Y-100429900D01*
X83085100Y-100429900D02*
X85320900Y-100429900D01*
X85320900Y-100429900D02*
X86857000Y-98893800D01*
X86857000Y-98893800D02*
X86857000Y-98171600D01*
X86857000Y-98171600D02*
X89143600Y-95885000D01*
X89143600Y-95885000D02*
X89535000Y-95885000D01*
X108585000Y-98425000D02*
X107453100Y-98425000D01*
X99695000Y-101600000D02*
X100880700Y-100414300D01*
X100880700Y-100414300D02*
X105676000Y-100414300D01*
X105676000Y-100414300D02*
X107453100Y-98637200D01*
X107453100Y-98637200D02*
X107453100Y-98425000D01*
X117475000Y-101600000D02*
X118645100Y-100429900D01*
X118645100Y-100429900D02*
X120880900Y-100429900D01*
X120880900Y-100429900D02*
X122417000Y-98893800D01*
X122417000Y-98893800D02*
X122417000Y-98205600D01*
X122417000Y-98205600D02*
X124599500Y-96023100D01*
X124599500Y-96023100D02*
X125095000Y-96023100D01*
X125095000Y-96023100D02*
X126365000Y-97293100D01*
X125095000Y-95885000D02*
X125095000Y-96023100D01*
X126365000Y-98425000D02*
X126365000Y-97293100D01*
X142875000Y-95885000D02*
X143013100Y-96023100D01*
X143013100Y-96023100D02*
X143013100Y-98425000D01*
X144145000Y-98425000D02*
X143013100Y-98425000D01*
X135255000Y-101600000D02*
X137298100Y-99556900D01*
X137298100Y-99556900D02*
X142093500Y-99556900D01*
X142093500Y-99556900D02*
X143013100Y-98637300D01*
X143013100Y-98637300D02*
X143013100Y-98425000D01*
X151130000Y-104140000D02*
X151130000Y-105283300D01*
X151130000Y-105283300D02*
X149939300Y-106474000D01*
X149939300Y-106474000D02*
X149939300Y-108029300D01*
X149939300Y-108029300D02*
X151130000Y-109220000D01*
X156210000Y-104140000D02*
X156210000Y-105283300D01*
X156210000Y-105283300D02*
X157370100Y-106443400D01*
X157370100Y-106443400D02*
X157370100Y-108059900D01*
X157370100Y-108059900D02*
X156210000Y-109220000D01*
X161290000Y-104140000D02*
X161290000Y-105283300D01*
X161290000Y-105283300D02*
X160130000Y-106443300D01*
X160130000Y-106443300D02*
X160130000Y-108060000D01*
X160130000Y-108060000D02*
X161290000Y-109220000D01*
X168113800Y-107404800D02*
X168113800Y-107476200D01*
X168113800Y-107476200D02*
X166370000Y-109220000D01*
X171450000Y-104140000D02*
X171450000Y-105283300D01*
X171450000Y-105283300D02*
X172610700Y-106444000D01*
X172610700Y-106444000D02*
X172610700Y-108059300D01*
X172610700Y-108059300D02*
X171450000Y-109220000D01*
X58400900Y-108297300D02*
X57478200Y-109220000D01*
X57478200Y-109220000D02*
X57150000Y-109220000D01*
X53504000Y-108173100D02*
X52457100Y-109220000D01*
X52457100Y-109220000D02*
X52070000Y-109220000D01*
X46990000Y-104140000D02*
X46990000Y-105283300D01*
X46990000Y-105283300D02*
X45830000Y-106443300D01*
X45830000Y-106443300D02*
X45830000Y-108060000D01*
X45830000Y-108060000D02*
X46990000Y-109220000D01*
X41910000Y-104140000D02*
X41910000Y-105283300D01*
X41910000Y-105283300D02*
X43060700Y-106434000D01*
X43060700Y-106434000D02*
X43060700Y-108069300D01*
X43060700Y-108069300D02*
X41910000Y-109220000D01*
X36830000Y-104140000D02*
X36830000Y-105283300D01*
X36830000Y-105283300D02*
X35669300Y-106444000D01*
X35669300Y-106444000D02*
X35669300Y-108059300D01*
X35669300Y-108059300D02*
X36830000Y-109220000D01*
X137795000Y-95885000D02*
X139065000Y-97155000D01*
X139065000Y-97155000D02*
X139065000Y-98425000D01*
D25*
G36*
X65419849Y-98439142D02*
X65419142Y-98439849D01*
X65405000Y-98425707D01*
X64449011Y-99381696D01*
X64498321Y-99673787D01*
X64953517Y-99883456D01*
X64472123Y-100364850D01*
X64388727Y-100330221D01*
X63883490Y-100329780D01*
X63416542Y-100522718D01*
X63182405Y-100756447D01*
X62950337Y-100523974D01*
X62483727Y-100330221D01*
X61978490Y-100329780D01*
X61511542Y-100522718D01*
X61153974Y-100879663D01*
X60960221Y-101346273D01*
X60960074Y-101513867D01*
X60792810Y-101513722D01*
X60415760Y-101669516D01*
X60127030Y-101957742D01*
X59970578Y-102334520D01*
X59970222Y-102742490D01*
X60126016Y-103119540D01*
X60414242Y-103408270D01*
X60643366Y-103503410D01*
X60347825Y-104215150D01*
X59931340Y-104042210D01*
X59450768Y-104041791D01*
X59006617Y-104225310D01*
X58767772Y-104463739D01*
X58767772Y-103378000D01*
X58730190Y-103184301D01*
X58618359Y-103014058D01*
X58449532Y-102900099D01*
X58249820Y-102860048D01*
X57569351Y-102860048D01*
X58005327Y-102773327D01*
X58417345Y-102498026D01*
X58692646Y-102086008D01*
X58789319Y-101600000D01*
X58692646Y-101113992D01*
X58417345Y-100701974D01*
X58005327Y-100426673D01*
X57519319Y-100330000D01*
X58005327Y-100233327D01*
X58417345Y-99958026D01*
X58644236Y-99618457D01*
X58482210Y-100008660D01*
X58481791Y-100489232D01*
X58665310Y-100933383D01*
X59004830Y-101273495D01*
X59448660Y-101457790D01*
X59929232Y-101458209D01*
X60373383Y-101274690D01*
X60713495Y-100935170D01*
X60897790Y-100491340D01*
X60898209Y-100010768D01*
X60714690Y-99566617D01*
X60375170Y-99226505D01*
X59931340Y-99042210D01*
X59450768Y-99041791D01*
X59006617Y-99225310D01*
X58694451Y-99536932D01*
X58789319Y-99060000D01*
X58692646Y-98573992D01*
X58611763Y-98452943D01*
X58742313Y-98365713D01*
X59198626Y-97909400D01*
X63976076Y-97909400D01*
X63904300Y-98065228D01*
X63880854Y-98666907D01*
X64089446Y-99231758D01*
X64156213Y-99331679D01*
X64448304Y-99380989D01*
X65404293Y-98425000D01*
X65390150Y-98410857D01*
X65390857Y-98410150D01*
X65405000Y-98424293D01*
X65419142Y-98410150D01*
X65419849Y-98410857D01*
X65405707Y-98425000D01*
X65419849Y-98439142D01*
X65419849Y-98439142D01*
G37*
X65419849Y-98439142D02*
X65419142Y-98439849D01*
X65405000Y-98425707D01*
X64449011Y-99381696D01*
X64498321Y-99673787D01*
X64953517Y-99883456D01*
X64472123Y-100364850D01*
X64388727Y-100330221D01*
X63883490Y-100329780D01*
X63416542Y-100522718D01*
X63182405Y-100756447D01*
X62950337Y-100523974D01*
X62483727Y-100330221D01*
X61978490Y-100329780D01*
X61511542Y-100522718D01*
X61153974Y-100879663D01*
X60960221Y-101346273D01*
X60960074Y-101513867D01*
X60792810Y-101513722D01*
X60415760Y-101669516D01*
X60127030Y-101957742D01*
X59970578Y-102334520D01*
X59970222Y-102742490D01*
X60126016Y-103119540D01*
X60414242Y-103408270D01*
X60643366Y-103503410D01*
X60347825Y-104215150D01*
X59931340Y-104042210D01*
X59450768Y-104041791D01*
X59006617Y-104225310D01*
X58767772Y-104463739D01*
X58767772Y-103378000D01*
X58730190Y-103184301D01*
X58618359Y-103014058D01*
X58449532Y-102900099D01*
X58249820Y-102860048D01*
X57569351Y-102860048D01*
X58005327Y-102773327D01*
X58417345Y-102498026D01*
X58692646Y-102086008D01*
X58789319Y-101600000D01*
X58692646Y-101113992D01*
X58417345Y-100701974D01*
X58005327Y-100426673D01*
X57519319Y-100330000D01*
X58005327Y-100233327D01*
X58417345Y-99958026D01*
X58644236Y-99618457D01*
X58482210Y-100008660D01*
X58481791Y-100489232D01*
X58665310Y-100933383D01*
X59004830Y-101273495D01*
X59448660Y-101457790D01*
X59929232Y-101458209D01*
X60373383Y-101274690D01*
X60713495Y-100935170D01*
X60897790Y-100491340D01*
X60898209Y-100010768D01*
X60714690Y-99566617D01*
X60375170Y-99226505D01*
X59931340Y-99042210D01*
X59450768Y-99041791D01*
X59006617Y-99225310D01*
X58694451Y-99536932D01*
X58789319Y-99060000D01*
X58692646Y-98573992D01*
X58611763Y-98452943D01*
X58742313Y-98365713D01*
X59198626Y-97909400D01*
X63976076Y-97909400D01*
X63904300Y-98065228D01*
X63880854Y-98666907D01*
X64089446Y-99231758D01*
X64156213Y-99331679D01*
X64448304Y-99380989D01*
X65404293Y-98425000D01*
X65390150Y-98410857D01*
X65390857Y-98410150D01*
X65405000Y-98424293D01*
X65419142Y-98410150D01*
X65419849Y-98410857D01*
X65405707Y-98425000D01*
X65419849Y-98439142D01*
G36*
X68103540Y-93599000D02*
X67981287Y-93680687D01*
X67003378Y-94658595D01*
X66926443Y-94626649D01*
X66425753Y-94626212D01*
X65963009Y-94817414D01*
X65608658Y-95171146D01*
X65543134Y-95328943D01*
X65450554Y-95078242D01*
X65383787Y-94978321D01*
X65091696Y-94929011D01*
X65090989Y-94929718D01*
X65090989Y-94928304D01*
X65041679Y-94636213D01*
X64494772Y-94384300D01*
X63893093Y-94360854D01*
X63328242Y-94569446D01*
X63228321Y-94636213D01*
X63179011Y-94928304D01*
X64135000Y-95884293D01*
X65090989Y-94928304D01*
X65090989Y-94929718D01*
X64135707Y-95885000D01*
X64149849Y-95899142D01*
X64149142Y-95899849D01*
X64135000Y-95885707D01*
X64120857Y-95899849D01*
X64120150Y-95899142D01*
X64134293Y-95885000D01*
X63178304Y-94929011D01*
X62886213Y-94978321D01*
X62634300Y-95525228D01*
X62610854Y-96126907D01*
X62800110Y-96639400D01*
X60898209Y-96639400D01*
X60898209Y-95010768D01*
X60714690Y-94566617D01*
X60375170Y-94226505D01*
X59931340Y-94042210D01*
X59450768Y-94041791D01*
X59006617Y-94225310D01*
X58666505Y-94564830D01*
X58482210Y-95008660D01*
X58481881Y-95385428D01*
X58071874Y-95111275D01*
X57488320Y-94995000D01*
X57150500Y-94995000D01*
X57150500Y-96519500D01*
X58822070Y-96519500D01*
X58993967Y-96280944D01*
X58986761Y-96255394D01*
X59004830Y-96273495D01*
X59448660Y-96457790D01*
X59929232Y-96458209D01*
X60373383Y-96274690D01*
X60713495Y-95935170D01*
X60897790Y-95491340D01*
X60898209Y-95010768D01*
X60898209Y-96639400D01*
X58935600Y-96639400D01*
X58911237Y-96644245D01*
X58822070Y-96520500D01*
X57150500Y-96520500D01*
X57150500Y-96540500D01*
X57149500Y-96540500D01*
X57149500Y-96520500D01*
X57149500Y-96519500D01*
X57149500Y-94995000D01*
X56811680Y-94995000D01*
X56228126Y-95111275D01*
X55733489Y-95442016D01*
X55403073Y-95936870D01*
X55306033Y-96280944D01*
X55477930Y-96519500D01*
X57149500Y-96519500D01*
X57149500Y-96520500D01*
X55477930Y-96520500D01*
X55306033Y-96759056D01*
X55403073Y-97103130D01*
X55733489Y-97597984D01*
X56115324Y-97853300D01*
X54122900Y-97853300D01*
X53879896Y-97901636D01*
X53673887Y-98039287D01*
X53423003Y-98290170D01*
X53337345Y-98161974D01*
X52989092Y-97929279D01*
X52991874Y-97928725D01*
X53486511Y-97597984D01*
X53816927Y-97103130D01*
X53913967Y-96759056D01*
X53913967Y-96280944D01*
X53816927Y-95936870D01*
X53486511Y-95442016D01*
X52991874Y-95111275D01*
X52408320Y-94995000D01*
X52070500Y-94995000D01*
X52070500Y-96519500D01*
X53742070Y-96519500D01*
X53913967Y-96280944D01*
X53913967Y-96759056D01*
X53742070Y-96520500D01*
X52070500Y-96520500D01*
X52070500Y-96540500D01*
X52069500Y-96540500D01*
X52069500Y-96520500D01*
X52069500Y-96519500D01*
X52069500Y-94995000D01*
X51731680Y-94995000D01*
X51148126Y-95111275D01*
X50737882Y-95385586D01*
X50738209Y-95010768D01*
X50554690Y-94566617D01*
X50215170Y-94226505D01*
X49771340Y-94042210D01*
X49290768Y-94041791D01*
X48846617Y-94225310D01*
X48506505Y-94564830D01*
X48322210Y-95008660D01*
X48321881Y-95385428D01*
X47911874Y-95111275D01*
X47328320Y-94995000D01*
X46990500Y-94995000D01*
X46990500Y-96519500D01*
X48662070Y-96519500D01*
X48833967Y-96280944D01*
X48826761Y-96255394D01*
X48844830Y-96273495D01*
X49288660Y-96457790D01*
X49769232Y-96458209D01*
X50213383Y-96274690D01*
X50233445Y-96254662D01*
X50226033Y-96280944D01*
X50397930Y-96519500D01*
X52069500Y-96519500D01*
X52069500Y-96520500D01*
X50397930Y-96520500D01*
X50226033Y-96759056D01*
X50323073Y-97103130D01*
X50653489Y-97597984D01*
X51148126Y-97928725D01*
X51150907Y-97929279D01*
X50802655Y-98161974D01*
X50527354Y-98573992D01*
X50430681Y-99060000D01*
X50525671Y-99537547D01*
X50215170Y-99226505D01*
X49771340Y-99042210D01*
X49290768Y-99041791D01*
X48846617Y-99225310D01*
X48534451Y-99536932D01*
X48629319Y-99060000D01*
X48532646Y-98573992D01*
X48257345Y-98161974D01*
X47909092Y-97929279D01*
X47911874Y-97928725D01*
X48406511Y-97597984D01*
X48736927Y-97103130D01*
X48833967Y-96759056D01*
X48662070Y-96520500D01*
X46990500Y-96520500D01*
X46990500Y-96540500D01*
X46989500Y-96540500D01*
X46989500Y-96520500D01*
X46989500Y-96519500D01*
X46989500Y-94995000D01*
X46651680Y-94995000D01*
X46068126Y-95111275D01*
X45573489Y-95442016D01*
X45243073Y-95936870D01*
X45146033Y-96280944D01*
X45317930Y-96519500D01*
X46989500Y-96519500D01*
X46989500Y-96520500D01*
X45317930Y-96520500D01*
X45146033Y-96759056D01*
X45243073Y-97103130D01*
X45573489Y-97597984D01*
X46068126Y-97928725D01*
X46070907Y-97929279D01*
X45722655Y-98161974D01*
X45546907Y-98425000D01*
X43353092Y-98425000D01*
X43177345Y-98161974D01*
X42829092Y-97929279D01*
X42831874Y-97928725D01*
X43326511Y-97597984D01*
X43656927Y-97103130D01*
X43753967Y-96759056D01*
X43753967Y-96280944D01*
X43656927Y-95936870D01*
X43326511Y-95442016D01*
X42831874Y-95111275D01*
X42248320Y-94995000D01*
X41910500Y-94995000D01*
X41910500Y-96519500D01*
X43582070Y-96519500D01*
X43753967Y-96280944D01*
X43753967Y-96759056D01*
X43582070Y-96520500D01*
X41910500Y-96520500D01*
X41910500Y-96540500D01*
X41909500Y-96540500D01*
X41909500Y-96520500D01*
X41909500Y-96519500D01*
X41909500Y-94995000D01*
X41571680Y-94995000D01*
X40988126Y-95111275D01*
X40493489Y-95442016D01*
X40163073Y-95936870D01*
X40066033Y-96280944D01*
X40237930Y-96519500D01*
X41909500Y-96519500D01*
X41909500Y-96520500D01*
X40237930Y-96520500D01*
X40066033Y-96759056D01*
X40163073Y-97103130D01*
X40493489Y-97597984D01*
X40988126Y-97928725D01*
X40990907Y-97929279D01*
X40642655Y-98161974D01*
X40466907Y-98425000D01*
X38273092Y-98425000D01*
X38097345Y-98161974D01*
X37749092Y-97929279D01*
X37751874Y-97928725D01*
X38246511Y-97597984D01*
X38576927Y-97103130D01*
X38673967Y-96759056D01*
X38673967Y-96280944D01*
X38576927Y-95936870D01*
X38246511Y-95442016D01*
X37751874Y-95111275D01*
X37168320Y-94995000D01*
X36830500Y-94995000D01*
X36830500Y-96519500D01*
X38502070Y-96519500D01*
X38673967Y-96280944D01*
X38673967Y-96759056D01*
X38502070Y-96520500D01*
X36830500Y-96520500D01*
X36830500Y-96540500D01*
X36829500Y-96540500D01*
X36829500Y-96520500D01*
X36809500Y-96520500D01*
X36809500Y-96519500D01*
X36829500Y-96519500D01*
X36829500Y-94995000D01*
X36491680Y-94995000D01*
X35908126Y-95111275D01*
X35413489Y-95442016D01*
X35179000Y-95793203D01*
X35179000Y-93599000D01*
X68103540Y-93599000D01*
X68103540Y-93599000D01*
G37*
X68103540Y-93599000D02*
X67981287Y-93680687D01*
X67003378Y-94658595D01*
X66926443Y-94626649D01*
X66425753Y-94626212D01*
X65963009Y-94817414D01*
X65608658Y-95171146D01*
X65543134Y-95328943D01*
X65450554Y-95078242D01*
X65383787Y-94978321D01*
X65091696Y-94929011D01*
X65090989Y-94929718D01*
X65090989Y-94928304D01*
X65041679Y-94636213D01*
X64494772Y-94384300D01*
X63893093Y-94360854D01*
X63328242Y-94569446D01*
X63228321Y-94636213D01*
X63179011Y-94928304D01*
X64135000Y-95884293D01*
X65090989Y-94928304D01*
X65090989Y-94929718D01*
X64135707Y-95885000D01*
X64149849Y-95899142D01*
X64149142Y-95899849D01*
X64135000Y-95885707D01*
X64120857Y-95899849D01*
X64120150Y-95899142D01*
X64134293Y-95885000D01*
X63178304Y-94929011D01*
X62886213Y-94978321D01*
X62634300Y-95525228D01*
X62610854Y-96126907D01*
X62800110Y-96639400D01*
X60898209Y-96639400D01*
X60898209Y-95010768D01*
X60714690Y-94566617D01*
X60375170Y-94226505D01*
X59931340Y-94042210D01*
X59450768Y-94041791D01*
X59006617Y-94225310D01*
X58666505Y-94564830D01*
X58482210Y-95008660D01*
X58481881Y-95385428D01*
X58071874Y-95111275D01*
X57488320Y-94995000D01*
X57150500Y-94995000D01*
X57150500Y-96519500D01*
X58822070Y-96519500D01*
X58993967Y-96280944D01*
X58986761Y-96255394D01*
X59004830Y-96273495D01*
X59448660Y-96457790D01*
X59929232Y-96458209D01*
X60373383Y-96274690D01*
X60713495Y-95935170D01*
X60897790Y-95491340D01*
X60898209Y-95010768D01*
X60898209Y-96639400D01*
X58935600Y-96639400D01*
X58911237Y-96644245D01*
X58822070Y-96520500D01*
X57150500Y-96520500D01*
X57150500Y-96540500D01*
X57149500Y-96540500D01*
X57149500Y-96520500D01*
X57149500Y-96519500D01*
X57149500Y-94995000D01*
X56811680Y-94995000D01*
X56228126Y-95111275D01*
X55733489Y-95442016D01*
X55403073Y-95936870D01*
X55306033Y-96280944D01*
X55477930Y-96519500D01*
X57149500Y-96519500D01*
X57149500Y-96520500D01*
X55477930Y-96520500D01*
X55306033Y-96759056D01*
X55403073Y-97103130D01*
X55733489Y-97597984D01*
X56115324Y-97853300D01*
X54122900Y-97853300D01*
X53879896Y-97901636D01*
X53673887Y-98039287D01*
X53423003Y-98290170D01*
X53337345Y-98161974D01*
X52989092Y-97929279D01*
X52991874Y-97928725D01*
X53486511Y-97597984D01*
X53816927Y-97103130D01*
X53913967Y-96759056D01*
X53913967Y-96280944D01*
X53816927Y-95936870D01*
X53486511Y-95442016D01*
X52991874Y-95111275D01*
X52408320Y-94995000D01*
X52070500Y-94995000D01*
X52070500Y-96519500D01*
X53742070Y-96519500D01*
X53913967Y-96280944D01*
X53913967Y-96759056D01*
X53742070Y-96520500D01*
X52070500Y-96520500D01*
X52070500Y-96540500D01*
X52069500Y-96540500D01*
X52069500Y-96520500D01*
X52069500Y-96519500D01*
X52069500Y-94995000D01*
X51731680Y-94995000D01*
X51148126Y-95111275D01*
X50737882Y-95385586D01*
X50738209Y-95010768D01*
X50554690Y-94566617D01*
X50215170Y-94226505D01*
X49771340Y-94042210D01*
X49290768Y-94041791D01*
X48846617Y-94225310D01*
X48506505Y-94564830D01*
X48322210Y-95008660D01*
X48321881Y-95385428D01*
X47911874Y-95111275D01*
X47328320Y-94995000D01*
X46990500Y-94995000D01*
X46990500Y-96519500D01*
X48662070Y-96519500D01*
X48833967Y-96280944D01*
X48826761Y-96255394D01*
X48844830Y-96273495D01*
X49288660Y-96457790D01*
X49769232Y-96458209D01*
X50213383Y-96274690D01*
X50233445Y-96254662D01*
X50226033Y-96280944D01*
X50397930Y-96519500D01*
X52069500Y-96519500D01*
X52069500Y-96520500D01*
X50397930Y-96520500D01*
X50226033Y-96759056D01*
X50323073Y-97103130D01*
X50653489Y-97597984D01*
X51148126Y-97928725D01*
X51150907Y-97929279D01*
X50802655Y-98161974D01*
X50527354Y-98573992D01*
X50430681Y-99060000D01*
X50525671Y-99537547D01*
X50215170Y-99226505D01*
X49771340Y-99042210D01*
X49290768Y-99041791D01*
X48846617Y-99225310D01*
X48534451Y-99536932D01*
X48629319Y-99060000D01*
X48532646Y-98573992D01*
X48257345Y-98161974D01*
X47909092Y-97929279D01*
X47911874Y-97928725D01*
X48406511Y-97597984D01*
X48736927Y-97103130D01*
X48833967Y-96759056D01*
X48662070Y-96520500D01*
X46990500Y-96520500D01*
X46990500Y-96540500D01*
X46989500Y-96540500D01*
X46989500Y-96520500D01*
X46989500Y-96519500D01*
X46989500Y-94995000D01*
X46651680Y-94995000D01*
X46068126Y-95111275D01*
X45573489Y-95442016D01*
X45243073Y-95936870D01*
X45146033Y-96280944D01*
X45317930Y-96519500D01*
X46989500Y-96519500D01*
X46989500Y-96520500D01*
X45317930Y-96520500D01*
X45146033Y-96759056D01*
X45243073Y-97103130D01*
X45573489Y-97597984D01*
X46068126Y-97928725D01*
X46070907Y-97929279D01*
X45722655Y-98161974D01*
X45546907Y-98425000D01*
X43353092Y-98425000D01*
X43177345Y-98161974D01*
X42829092Y-97929279D01*
X42831874Y-97928725D01*
X43326511Y-97597984D01*
X43656927Y-97103130D01*
X43753967Y-96759056D01*
X43753967Y-96280944D01*
X43656927Y-95936870D01*
X43326511Y-95442016D01*
X42831874Y-95111275D01*
X42248320Y-94995000D01*
X41910500Y-94995000D01*
X41910500Y-96519500D01*
X43582070Y-96519500D01*
X43753967Y-96280944D01*
X43753967Y-96759056D01*
X43582070Y-96520500D01*
X41910500Y-96520500D01*
X41910500Y-96540500D01*
X41909500Y-96540500D01*
X41909500Y-96520500D01*
X41909500Y-96519500D01*
X41909500Y-94995000D01*
X41571680Y-94995000D01*
X40988126Y-95111275D01*
X40493489Y-95442016D01*
X40163073Y-95936870D01*
X40066033Y-96280944D01*
X40237930Y-96519500D01*
X41909500Y-96519500D01*
X41909500Y-96520500D01*
X40237930Y-96520500D01*
X40066033Y-96759056D01*
X40163073Y-97103130D01*
X40493489Y-97597984D01*
X40988126Y-97928725D01*
X40990907Y-97929279D01*
X40642655Y-98161974D01*
X40466907Y-98425000D01*
X38273092Y-98425000D01*
X38097345Y-98161974D01*
X37749092Y-97929279D01*
X37751874Y-97928725D01*
X38246511Y-97597984D01*
X38576927Y-97103130D01*
X38673967Y-96759056D01*
X38673967Y-96280944D01*
X38576927Y-95936870D01*
X38246511Y-95442016D01*
X37751874Y-95111275D01*
X37168320Y-94995000D01*
X36830500Y-94995000D01*
X36830500Y-96519500D01*
X38502070Y-96519500D01*
X38673967Y-96280944D01*
X38673967Y-96759056D01*
X38502070Y-96520500D01*
X36830500Y-96520500D01*
X36830500Y-96540500D01*
X36829500Y-96540500D01*
X36829500Y-96520500D01*
X36809500Y-96520500D01*
X36809500Y-96519500D01*
X36829500Y-96519500D01*
X36829500Y-94995000D01*
X36491680Y-94995000D01*
X35908126Y-95111275D01*
X35413489Y-95442016D01*
X35179000Y-95793203D01*
X35179000Y-93599000D01*
X68103540Y-93599000D01*
G36*
X81929849Y-95899142D02*
X81929142Y-95899849D01*
X81915000Y-95885707D01*
X81900857Y-95899849D01*
X81900150Y-95899142D01*
X81914293Y-95885000D01*
X80958304Y-94929011D01*
X80666213Y-94978321D01*
X80414300Y-95525228D01*
X80390854Y-96126907D01*
X80580332Y-96640000D01*
X72780123Y-96640000D01*
X72821342Y-96598854D01*
X73013351Y-96136443D01*
X73013788Y-95635753D01*
X72822586Y-95173009D01*
X72468854Y-94818658D01*
X72338908Y-94764700D01*
X76363511Y-94764700D01*
X76262210Y-95008660D01*
X76261791Y-95489232D01*
X76445310Y-95933383D01*
X76784830Y-96273495D01*
X77228660Y-96457790D01*
X77709232Y-96458209D01*
X78153383Y-96274690D01*
X78493495Y-95935170D01*
X78677790Y-95491340D01*
X78678209Y-95010768D01*
X78576536Y-94764700D01*
X80986630Y-94764700D01*
X80959011Y-94928304D01*
X81915000Y-95884293D01*
X81929142Y-95870150D01*
X81929849Y-95870857D01*
X81915707Y-95885000D01*
X81929849Y-95899142D01*
X81929849Y-95899142D01*
G37*
X81929849Y-95899142D02*
X81929142Y-95899849D01*
X81915000Y-95885707D01*
X81900857Y-95899849D01*
X81900150Y-95899142D01*
X81914293Y-95885000D01*
X80958304Y-94929011D01*
X80666213Y-94978321D01*
X80414300Y-95525228D01*
X80390854Y-96126907D01*
X80580332Y-96640000D01*
X72780123Y-96640000D01*
X72821342Y-96598854D01*
X73013351Y-96136443D01*
X73013788Y-95635753D01*
X72822586Y-95173009D01*
X72468854Y-94818658D01*
X72338908Y-94764700D01*
X76363511Y-94764700D01*
X76262210Y-95008660D01*
X76261791Y-95489232D01*
X76445310Y-95933383D01*
X76784830Y-96273495D01*
X77228660Y-96457790D01*
X77709232Y-96458209D01*
X78153383Y-96274690D01*
X78493495Y-95935170D01*
X78677790Y-95491340D01*
X78678209Y-95010768D01*
X78576536Y-94764700D01*
X80986630Y-94764700D01*
X80959011Y-94928304D01*
X81915000Y-95884293D01*
X81929142Y-95870150D01*
X81929849Y-95870857D01*
X81915707Y-95885000D01*
X81929849Y-95899142D01*
G36*
X85258657Y-99594117D02*
X85057874Y-99794900D01*
X83844593Y-99794900D01*
X83991758Y-99740554D01*
X84091679Y-99673787D01*
X84140989Y-99381696D01*
X83185000Y-98425707D01*
X82229011Y-99381696D01*
X82278321Y-99673787D01*
X82762157Y-99896648D01*
X82762157Y-99896649D01*
X82636087Y-99980887D01*
X82252123Y-100364850D01*
X82168727Y-100330221D01*
X81663490Y-100329780D01*
X81196542Y-100522718D01*
X80962405Y-100756447D01*
X80730337Y-100523974D01*
X80263727Y-100330221D01*
X79758490Y-100329780D01*
X79291542Y-100522718D01*
X78933974Y-100879663D01*
X78898539Y-100965000D01*
X78463612Y-100965000D01*
X78493495Y-100935170D01*
X78677790Y-100491340D01*
X78678209Y-100010768D01*
X78494690Y-99566617D01*
X78155170Y-99226505D01*
X77711340Y-99042210D01*
X77230768Y-99041791D01*
X76786617Y-99225310D01*
X76446505Y-99564830D01*
X76262210Y-100008660D01*
X76261791Y-100489232D01*
X76445310Y-100933383D01*
X76476871Y-100965000D01*
X74287619Y-100965000D01*
X74054158Y-100731130D01*
X73677380Y-100574678D01*
X73269410Y-100574322D01*
X72892360Y-100730116D01*
X72603630Y-101018342D01*
X72447178Y-101395120D01*
X72446822Y-101803090D01*
X72602616Y-102180140D01*
X72890842Y-102468870D01*
X73267620Y-102625322D01*
X73603539Y-102625615D01*
X73191094Y-102796034D01*
X72534241Y-103451742D01*
X72178316Y-104308904D01*
X72177506Y-105237024D01*
X72531934Y-106094806D01*
X72783089Y-106346400D01*
X70594556Y-106346400D01*
X70673619Y-106331060D01*
X70843862Y-106219229D01*
X70957821Y-106050402D01*
X70997872Y-105850690D01*
X70997872Y-104049830D01*
X70960290Y-103856131D01*
X70848459Y-103685888D01*
X70679632Y-103571929D01*
X70479920Y-103531878D01*
X66680080Y-103531878D01*
X66675000Y-103532863D01*
X66675000Y-102711765D01*
X66758458Y-102677282D01*
X67116026Y-102320337D01*
X67309779Y-101853727D01*
X67310220Y-101348490D01*
X67117282Y-100881542D01*
X66760337Y-100523974D01*
X66300141Y-100332884D01*
X66441126Y-100191900D01*
X70973500Y-100191900D01*
X71216504Y-100143564D01*
X71422513Y-100005913D01*
X71899160Y-99529265D01*
X71905891Y-99539512D01*
X72074718Y-99653471D01*
X72274430Y-99693522D01*
X73775570Y-99693522D01*
X73969269Y-99655940D01*
X74139512Y-99544109D01*
X74253471Y-99375282D01*
X74293522Y-99175570D01*
X74293522Y-97910000D01*
X81755800Y-97910000D01*
X81684300Y-98065228D01*
X81660854Y-98666907D01*
X81869446Y-99231758D01*
X81936213Y-99331679D01*
X82228304Y-99380989D01*
X83184293Y-98425000D01*
X83170150Y-98410857D01*
X83170857Y-98410150D01*
X83185000Y-98424293D01*
X83199142Y-98410150D01*
X83199849Y-98410857D01*
X83185707Y-98425000D01*
X84141696Y-99380989D01*
X84433787Y-99331679D01*
X84594073Y-98983694D01*
X84657414Y-99136991D01*
X85011146Y-99491342D01*
X85258657Y-99594117D01*
X85258657Y-99594117D01*
G37*
X85258657Y-99594117D02*
X85057874Y-99794900D01*
X83844593Y-99794900D01*
X83991758Y-99740554D01*
X84091679Y-99673787D01*
X84140989Y-99381696D01*
X83185000Y-98425707D01*
X82229011Y-99381696D01*
X82278321Y-99673787D01*
X82762157Y-99896648D01*
X82762157Y-99896649D01*
X82636087Y-99980887D01*
X82252123Y-100364850D01*
X82168727Y-100330221D01*
X81663490Y-100329780D01*
X81196542Y-100522718D01*
X80962405Y-100756447D01*
X80730337Y-100523974D01*
X80263727Y-100330221D01*
X79758490Y-100329780D01*
X79291542Y-100522718D01*
X78933974Y-100879663D01*
X78898539Y-100965000D01*
X78463612Y-100965000D01*
X78493495Y-100935170D01*
X78677790Y-100491340D01*
X78678209Y-100010768D01*
X78494690Y-99566617D01*
X78155170Y-99226505D01*
X77711340Y-99042210D01*
X77230768Y-99041791D01*
X76786617Y-99225310D01*
X76446505Y-99564830D01*
X76262210Y-100008660D01*
X76261791Y-100489232D01*
X76445310Y-100933383D01*
X76476871Y-100965000D01*
X74287619Y-100965000D01*
X74054158Y-100731130D01*
X73677380Y-100574678D01*
X73269410Y-100574322D01*
X72892360Y-100730116D01*
X72603630Y-101018342D01*
X72447178Y-101395120D01*
X72446822Y-101803090D01*
X72602616Y-102180140D01*
X72890842Y-102468870D01*
X73267620Y-102625322D01*
X73603539Y-102625615D01*
X73191094Y-102796034D01*
X72534241Y-103451742D01*
X72178316Y-104308904D01*
X72177506Y-105237024D01*
X72531934Y-106094806D01*
X72783089Y-106346400D01*
X70594556Y-106346400D01*
X70673619Y-106331060D01*
X70843862Y-106219229D01*
X70957821Y-106050402D01*
X70997872Y-105850690D01*
X70997872Y-104049830D01*
X70960290Y-103856131D01*
X70848459Y-103685888D01*
X70679632Y-103571929D01*
X70479920Y-103531878D01*
X66680080Y-103531878D01*
X66675000Y-103532863D01*
X66675000Y-102711765D01*
X66758458Y-102677282D01*
X67116026Y-102320337D01*
X67309779Y-101853727D01*
X67310220Y-101348490D01*
X67117282Y-100881542D01*
X66760337Y-100523974D01*
X66300141Y-100332884D01*
X66441126Y-100191900D01*
X70973500Y-100191900D01*
X71216504Y-100143564D01*
X71422513Y-100005913D01*
X71899160Y-99529265D01*
X71905891Y-99539512D01*
X72074718Y-99653471D01*
X72274430Y-99693522D01*
X73775570Y-99693522D01*
X73969269Y-99655940D01*
X74139512Y-99544109D01*
X74253471Y-99375282D01*
X74293522Y-99175570D01*
X74293522Y-97910000D01*
X81755800Y-97910000D01*
X81684300Y-98065228D01*
X81660854Y-98666907D01*
X81869446Y-99231758D01*
X81936213Y-99331679D01*
X82228304Y-99380989D01*
X83184293Y-98425000D01*
X83170150Y-98410857D01*
X83170857Y-98410150D01*
X83185000Y-98424293D01*
X83199142Y-98410150D01*
X83199849Y-98410857D01*
X83185707Y-98425000D01*
X84141696Y-99380989D01*
X84433787Y-99331679D01*
X84594073Y-98983694D01*
X84657414Y-99136991D01*
X85011146Y-99491342D01*
X85258657Y-99594117D01*
G36*
X99709849Y-95899142D02*
X99709142Y-95899849D01*
X99695000Y-95885707D01*
X99680857Y-95899849D01*
X99680150Y-95899142D01*
X99694293Y-95885000D01*
X99680150Y-95870857D01*
X99680857Y-95870150D01*
X99695000Y-95884293D01*
X99709142Y-95870150D01*
X99709849Y-95870857D01*
X99695707Y-95885000D01*
X99709849Y-95899142D01*
X99709849Y-95899142D01*
G37*
X99709849Y-95899142D02*
X99709142Y-95899849D01*
X99695000Y-95885707D01*
X99680857Y-95899849D01*
X99680150Y-95899142D01*
X99694293Y-95885000D01*
X99680150Y-95870857D01*
X99680857Y-95870150D01*
X99695000Y-95884293D01*
X99709142Y-95870150D01*
X99709849Y-95870857D01*
X99695707Y-95885000D01*
X99709849Y-95899142D01*
G36*
X105592435Y-99599838D02*
X105412973Y-99779300D01*
X101666836Y-99779300D01*
X101771758Y-99740554D01*
X101871679Y-99673787D01*
X101920989Y-99381696D01*
X100965000Y-98425707D01*
X100009011Y-99381696D01*
X100058321Y-99673787D01*
X100537572Y-99894536D01*
X100431687Y-99965287D01*
X100032123Y-100364850D01*
X99948727Y-100330221D01*
X99443490Y-100329780D01*
X98976542Y-100522718D01*
X98742405Y-100756447D01*
X98510337Y-100523974D01*
X98043727Y-100330221D01*
X97538490Y-100329780D01*
X97071542Y-100522718D01*
X96713974Y-100879663D01*
X96520221Y-101346273D01*
X96520150Y-101426589D01*
X96458209Y-101400868D01*
X96458209Y-100010768D01*
X96274690Y-99566617D01*
X95935170Y-99226505D01*
X95491340Y-99042210D01*
X95010768Y-99041791D01*
X94566617Y-99225310D01*
X94226505Y-99564830D01*
X94042210Y-100008660D01*
X94041791Y-100489232D01*
X94225310Y-100933383D01*
X94564830Y-101273495D01*
X95008660Y-101457790D01*
X95489232Y-101458209D01*
X95933383Y-101274690D01*
X96273495Y-100935170D01*
X96457790Y-100491340D01*
X96458209Y-100010768D01*
X96458209Y-101400868D01*
X96408380Y-101380178D01*
X96000410Y-101379822D01*
X95623360Y-101535616D01*
X95334630Y-101823842D01*
X95178178Y-102200620D01*
X95177822Y-102608590D01*
X95333616Y-102985640D01*
X95621842Y-103274370D01*
X95998620Y-103430822D01*
X96245561Y-103431037D01*
X96224821Y-103451742D01*
X95907825Y-104215150D01*
X95491340Y-104042210D01*
X95010768Y-104041791D01*
X94584942Y-104217738D01*
X94269866Y-103455194D01*
X93614158Y-102798341D01*
X92756996Y-102442416D01*
X91828876Y-102441606D01*
X90971094Y-102796034D01*
X90314241Y-103451742D01*
X89958316Y-104308904D01*
X89957506Y-105237024D01*
X90311934Y-106094806D01*
X90608709Y-106392100D01*
X89919626Y-106392100D01*
X88948713Y-105421187D01*
X88742704Y-105283536D01*
X88499700Y-105235200D01*
X88130172Y-105235200D01*
X88130172Y-104487980D01*
X88092590Y-104294281D01*
X88064978Y-104252247D01*
X94596226Y-97721000D01*
X99622856Y-97721000D01*
X99464300Y-98065228D01*
X99440854Y-98666907D01*
X99649446Y-99231758D01*
X99716213Y-99331679D01*
X100008304Y-99380989D01*
X100964293Y-98425000D01*
X100950150Y-98410857D01*
X100950857Y-98410150D01*
X100965000Y-98424293D01*
X101920989Y-97468304D01*
X101871679Y-97176213D01*
X101851231Y-97166794D01*
X101906621Y-97111404D01*
X101983557Y-97143351D01*
X102484247Y-97143788D01*
X102563157Y-97111183D01*
X102804599Y-97352625D01*
X102793009Y-97357414D01*
X102438658Y-97711146D01*
X102373134Y-97868943D01*
X102280554Y-97618242D01*
X102213787Y-97518321D01*
X101921696Y-97469011D01*
X100965707Y-98425000D01*
X101921696Y-99380989D01*
X102213787Y-99331679D01*
X102374073Y-98983694D01*
X102437414Y-99136991D01*
X102791146Y-99491342D01*
X103253557Y-99683351D01*
X103754247Y-99683788D01*
X104216991Y-99492586D01*
X104571342Y-99138854D01*
X104763351Y-98676443D01*
X104763788Y-98175753D01*
X104731183Y-98096842D01*
X104880508Y-97947517D01*
X104786649Y-98173557D01*
X104786212Y-98674247D01*
X104977414Y-99136991D01*
X105331146Y-99491342D01*
X105592435Y-99599838D01*
X105592435Y-99599838D01*
G37*
X105592435Y-99599838D02*
X105412973Y-99779300D01*
X101666836Y-99779300D01*
X101771758Y-99740554D01*
X101871679Y-99673787D01*
X101920989Y-99381696D01*
X100965000Y-98425707D01*
X100009011Y-99381696D01*
X100058321Y-99673787D01*
X100537572Y-99894536D01*
X100431687Y-99965287D01*
X100032123Y-100364850D01*
X99948727Y-100330221D01*
X99443490Y-100329780D01*
X98976542Y-100522718D01*
X98742405Y-100756447D01*
X98510337Y-100523974D01*
X98043727Y-100330221D01*
X97538490Y-100329780D01*
X97071542Y-100522718D01*
X96713974Y-100879663D01*
X96520221Y-101346273D01*
X96520150Y-101426589D01*
X96458209Y-101400868D01*
X96458209Y-100010768D01*
X96274690Y-99566617D01*
X95935170Y-99226505D01*
X95491340Y-99042210D01*
X95010768Y-99041791D01*
X94566617Y-99225310D01*
X94226505Y-99564830D01*
X94042210Y-100008660D01*
X94041791Y-100489232D01*
X94225310Y-100933383D01*
X94564830Y-101273495D01*
X95008660Y-101457790D01*
X95489232Y-101458209D01*
X95933383Y-101274690D01*
X96273495Y-100935170D01*
X96457790Y-100491340D01*
X96458209Y-100010768D01*
X96458209Y-101400868D01*
X96408380Y-101380178D01*
X96000410Y-101379822D01*
X95623360Y-101535616D01*
X95334630Y-101823842D01*
X95178178Y-102200620D01*
X95177822Y-102608590D01*
X95333616Y-102985640D01*
X95621842Y-103274370D01*
X95998620Y-103430822D01*
X96245561Y-103431037D01*
X96224821Y-103451742D01*
X95907825Y-104215150D01*
X95491340Y-104042210D01*
X95010768Y-104041791D01*
X94584942Y-104217738D01*
X94269866Y-103455194D01*
X93614158Y-102798341D01*
X92756996Y-102442416D01*
X91828876Y-102441606D01*
X90971094Y-102796034D01*
X90314241Y-103451742D01*
X89958316Y-104308904D01*
X89957506Y-105237024D01*
X90311934Y-106094806D01*
X90608709Y-106392100D01*
X89919626Y-106392100D01*
X88948713Y-105421187D01*
X88742704Y-105283536D01*
X88499700Y-105235200D01*
X88130172Y-105235200D01*
X88130172Y-104487980D01*
X88092590Y-104294281D01*
X88064978Y-104252247D01*
X94596226Y-97721000D01*
X99622856Y-97721000D01*
X99464300Y-98065228D01*
X99440854Y-98666907D01*
X99649446Y-99231758D01*
X99716213Y-99331679D01*
X100008304Y-99380989D01*
X100964293Y-98425000D01*
X100950150Y-98410857D01*
X100950857Y-98410150D01*
X100965000Y-98424293D01*
X101920989Y-97468304D01*
X101871679Y-97176213D01*
X101851231Y-97166794D01*
X101906621Y-97111404D01*
X101983557Y-97143351D01*
X102484247Y-97143788D01*
X102563157Y-97111183D01*
X102804599Y-97352625D01*
X102793009Y-97357414D01*
X102438658Y-97711146D01*
X102373134Y-97868943D01*
X102280554Y-97618242D01*
X102213787Y-97518321D01*
X101921696Y-97469011D01*
X100965707Y-98425000D01*
X101921696Y-99380989D01*
X102213787Y-99331679D01*
X102374073Y-98983694D01*
X102437414Y-99136991D01*
X102791146Y-99491342D01*
X103253557Y-99683351D01*
X103754247Y-99683788D01*
X104216991Y-99492586D01*
X104571342Y-99138854D01*
X104763351Y-98676443D01*
X104763788Y-98175753D01*
X104731183Y-98096842D01*
X104880508Y-97947517D01*
X104786649Y-98173557D01*
X104786212Y-98674247D01*
X104977414Y-99136991D01*
X105331146Y-99491342D01*
X105592435Y-99599838D01*
G36*
X120818657Y-99594117D02*
X120617874Y-99794900D01*
X119404593Y-99794900D01*
X119551758Y-99740554D01*
X119651679Y-99673787D01*
X119700989Y-99381696D01*
X118745000Y-98425707D01*
X117789011Y-99381696D01*
X117838321Y-99673787D01*
X118322157Y-99896648D01*
X118322157Y-99896649D01*
X118196087Y-99980887D01*
X117812123Y-100364850D01*
X117728727Y-100330221D01*
X117223490Y-100329780D01*
X116756542Y-100522718D01*
X116522405Y-100756447D01*
X116290337Y-100523974D01*
X115823727Y-100330221D01*
X115318490Y-100329780D01*
X114851542Y-100522718D01*
X114493974Y-100879663D01*
X114359527Y-101203446D01*
X114238463Y-101324510D01*
X114238209Y-101324509D01*
X114238209Y-100010768D01*
X114054690Y-99566617D01*
X113715170Y-99226505D01*
X113271340Y-99042210D01*
X112790768Y-99041791D01*
X112346617Y-99225310D01*
X112006505Y-99564830D01*
X111822210Y-100008660D01*
X111821791Y-100489232D01*
X112005310Y-100933383D01*
X112344830Y-101273495D01*
X112788660Y-101457790D01*
X113269232Y-101458209D01*
X113713383Y-101274690D01*
X114053495Y-100935170D01*
X114237790Y-100491340D01*
X114238209Y-100010768D01*
X114238209Y-101324509D01*
X113908010Y-101324222D01*
X113530960Y-101480016D01*
X113242230Y-101768242D01*
X113085778Y-102145020D01*
X113085422Y-102552990D01*
X113241216Y-102930040D01*
X113529442Y-103218770D01*
X113906220Y-103375222D01*
X114081321Y-103375374D01*
X114004821Y-103451742D01*
X113687825Y-104215150D01*
X113271340Y-104042210D01*
X112790768Y-104041791D01*
X112364942Y-104217738D01*
X112049866Y-103455194D01*
X111394158Y-102798341D01*
X110536996Y-102442416D01*
X109608876Y-102441606D01*
X108751094Y-102796034D01*
X108094241Y-103451742D01*
X107738316Y-104308904D01*
X107737506Y-105237024D01*
X108091934Y-106094806D01*
X108343089Y-106346400D01*
X104327026Y-106346400D01*
X102235000Y-104254374D01*
X102235000Y-102711765D01*
X102318458Y-102677282D01*
X102676026Y-102320337D01*
X102869779Y-101853727D01*
X102870220Y-101348490D01*
X102746597Y-101049300D01*
X105676000Y-101049300D01*
X105919004Y-101000964D01*
X106125013Y-100863313D01*
X107459120Y-99529205D01*
X107465891Y-99539512D01*
X107634718Y-99653471D01*
X107834430Y-99693522D01*
X109335570Y-99693522D01*
X109529269Y-99655940D01*
X109699512Y-99544109D01*
X109813471Y-99375282D01*
X109853522Y-99175570D01*
X109853522Y-97790000D01*
X117371073Y-97790000D01*
X117244300Y-98065228D01*
X117220854Y-98666907D01*
X117429446Y-99231758D01*
X117496213Y-99331679D01*
X117788304Y-99380989D01*
X118744293Y-98425000D01*
X118730150Y-98410857D01*
X118730857Y-98410150D01*
X118745000Y-98424293D01*
X118759142Y-98410150D01*
X118759849Y-98410857D01*
X118745707Y-98425000D01*
X119701696Y-99380989D01*
X119993787Y-99331679D01*
X120154073Y-98983694D01*
X120217414Y-99136991D01*
X120571146Y-99491342D01*
X120818657Y-99594117D01*
X120818657Y-99594117D01*
G37*
X120818657Y-99594117D02*
X120617874Y-99794900D01*
X119404593Y-99794900D01*
X119551758Y-99740554D01*
X119651679Y-99673787D01*
X119700989Y-99381696D01*
X118745000Y-98425707D01*
X117789011Y-99381696D01*
X117838321Y-99673787D01*
X118322157Y-99896648D01*
X118322157Y-99896649D01*
X118196087Y-99980887D01*
X117812123Y-100364850D01*
X117728727Y-100330221D01*
X117223490Y-100329780D01*
X116756542Y-100522718D01*
X116522405Y-100756447D01*
X116290337Y-100523974D01*
X115823727Y-100330221D01*
X115318490Y-100329780D01*
X114851542Y-100522718D01*
X114493974Y-100879663D01*
X114359527Y-101203446D01*
X114238463Y-101324510D01*
X114238209Y-101324509D01*
X114238209Y-100010768D01*
X114054690Y-99566617D01*
X113715170Y-99226505D01*
X113271340Y-99042210D01*
X112790768Y-99041791D01*
X112346617Y-99225310D01*
X112006505Y-99564830D01*
X111822210Y-100008660D01*
X111821791Y-100489232D01*
X112005310Y-100933383D01*
X112344830Y-101273495D01*
X112788660Y-101457790D01*
X113269232Y-101458209D01*
X113713383Y-101274690D01*
X114053495Y-100935170D01*
X114237790Y-100491340D01*
X114238209Y-100010768D01*
X114238209Y-101324509D01*
X113908010Y-101324222D01*
X113530960Y-101480016D01*
X113242230Y-101768242D01*
X113085778Y-102145020D01*
X113085422Y-102552990D01*
X113241216Y-102930040D01*
X113529442Y-103218770D01*
X113906220Y-103375222D01*
X114081321Y-103375374D01*
X114004821Y-103451742D01*
X113687825Y-104215150D01*
X113271340Y-104042210D01*
X112790768Y-104041791D01*
X112364942Y-104217738D01*
X112049866Y-103455194D01*
X111394158Y-102798341D01*
X110536996Y-102442416D01*
X109608876Y-102441606D01*
X108751094Y-102796034D01*
X108094241Y-103451742D01*
X107738316Y-104308904D01*
X107737506Y-105237024D01*
X108091934Y-106094806D01*
X108343089Y-106346400D01*
X104327026Y-106346400D01*
X102235000Y-104254374D01*
X102235000Y-102711765D01*
X102318458Y-102677282D01*
X102676026Y-102320337D01*
X102869779Y-101853727D01*
X102870220Y-101348490D01*
X102746597Y-101049300D01*
X105676000Y-101049300D01*
X105919004Y-101000964D01*
X106125013Y-100863313D01*
X107459120Y-99529205D01*
X107465891Y-99539512D01*
X107634718Y-99653471D01*
X107834430Y-99693522D01*
X109335570Y-99693522D01*
X109529269Y-99655940D01*
X109699512Y-99544109D01*
X109813471Y-99375282D01*
X109853522Y-99175570D01*
X109853522Y-97790000D01*
X117371073Y-97790000D01*
X117244300Y-98065228D01*
X117220854Y-98666907D01*
X117429446Y-99231758D01*
X117496213Y-99331679D01*
X117788304Y-99380989D01*
X118744293Y-98425000D01*
X118730150Y-98410857D01*
X118730857Y-98410150D01*
X118745000Y-98424293D01*
X118759142Y-98410150D01*
X118759849Y-98410857D01*
X118745707Y-98425000D01*
X119701696Y-99380989D01*
X119993787Y-99331679D01*
X120154073Y-98983694D01*
X120217414Y-99136991D01*
X120571146Y-99491342D01*
X120818657Y-99594117D01*
G36*
X133439062Y-93599000D02*
X133294096Y-93627836D01*
X133088087Y-93765487D01*
X131966924Y-94886649D01*
X131834690Y-94566617D01*
X131495170Y-94226505D01*
X131051340Y-94042210D01*
X130570768Y-94041791D01*
X130126617Y-94225310D01*
X129786505Y-94564830D01*
X129602210Y-95008660D01*
X129601791Y-95489232D01*
X129785310Y-95933383D01*
X130124830Y-96273495D01*
X130446506Y-96407067D01*
X129437274Y-97416300D01*
X129191120Y-97416300D01*
X126073413Y-94298687D01*
X126073406Y-94298680D01*
X125963057Y-94224949D01*
X125867404Y-94161036D01*
X125867399Y-94161035D01*
X125867395Y-94161032D01*
X125739506Y-94135595D01*
X125624400Y-94112700D01*
X125624390Y-94112700D01*
X121787300Y-94112700D01*
X121544296Y-94161036D01*
X121338287Y-94298687D01*
X120773545Y-94863428D01*
X120728854Y-94818658D01*
X120266443Y-94626649D01*
X119765753Y-94626212D01*
X119303009Y-94817414D01*
X118948658Y-95171146D01*
X118883134Y-95328943D01*
X118790554Y-95078242D01*
X118723787Y-94978321D01*
X118431696Y-94929011D01*
X118430989Y-94929718D01*
X118430989Y-94928304D01*
X118381679Y-94636213D01*
X117834772Y-94384300D01*
X117233093Y-94360854D01*
X116668242Y-94569446D01*
X116568321Y-94636213D01*
X116519011Y-94928304D01*
X117475000Y-95884293D01*
X118430989Y-94928304D01*
X118430989Y-94929718D01*
X117475707Y-95885000D01*
X117489849Y-95899142D01*
X117489142Y-95899849D01*
X117475000Y-95885707D01*
X117460857Y-95899849D01*
X117460150Y-95899142D01*
X117474293Y-95885000D01*
X116518304Y-94929011D01*
X116226213Y-94978321D01*
X115974300Y-95525228D01*
X115950854Y-96126907D01*
X116096018Y-96520000D01*
X114238209Y-96520000D01*
X114238209Y-95010768D01*
X114054690Y-94566617D01*
X113715170Y-94226505D01*
X113271340Y-94042210D01*
X112790768Y-94041791D01*
X112346617Y-94225310D01*
X112006505Y-94564830D01*
X111822210Y-95008660D01*
X111821791Y-95489232D01*
X112005310Y-95933383D01*
X112344830Y-96273495D01*
X112788660Y-96457790D01*
X113269232Y-96458209D01*
X113713383Y-96274690D01*
X114053495Y-95935170D01*
X114237790Y-95491340D01*
X114238209Y-95010768D01*
X114238209Y-96520000D01*
X108414084Y-96520000D01*
X108573351Y-96136443D01*
X108573788Y-95635753D01*
X108382586Y-95173009D01*
X108028854Y-94818658D01*
X107566443Y-94626649D01*
X107065753Y-94626212D01*
X106603009Y-94817414D01*
X106248658Y-95171146D01*
X106056649Y-95633557D01*
X106056212Y-96134247D01*
X106215601Y-96520000D01*
X105874084Y-96520000D01*
X106033351Y-96136443D01*
X106033788Y-95635753D01*
X105842586Y-95173009D01*
X105488854Y-94818658D01*
X105026443Y-94626649D01*
X104525753Y-94626212D01*
X104446842Y-94658816D01*
X103507613Y-93719587D01*
X103327142Y-93599000D01*
X133439062Y-93599000D01*
X133439062Y-93599000D01*
G37*
X133439062Y-93599000D02*
X133294096Y-93627836D01*
X133088087Y-93765487D01*
X131966924Y-94886649D01*
X131834690Y-94566617D01*
X131495170Y-94226505D01*
X131051340Y-94042210D01*
X130570768Y-94041791D01*
X130126617Y-94225310D01*
X129786505Y-94564830D01*
X129602210Y-95008660D01*
X129601791Y-95489232D01*
X129785310Y-95933383D01*
X130124830Y-96273495D01*
X130446506Y-96407067D01*
X129437274Y-97416300D01*
X129191120Y-97416300D01*
X126073413Y-94298687D01*
X126073406Y-94298680D01*
X125963057Y-94224949D01*
X125867404Y-94161036D01*
X125867399Y-94161035D01*
X125867395Y-94161032D01*
X125739506Y-94135595D01*
X125624400Y-94112700D01*
X125624390Y-94112700D01*
X121787300Y-94112700D01*
X121544296Y-94161036D01*
X121338287Y-94298687D01*
X120773545Y-94863428D01*
X120728854Y-94818658D01*
X120266443Y-94626649D01*
X119765753Y-94626212D01*
X119303009Y-94817414D01*
X118948658Y-95171146D01*
X118883134Y-95328943D01*
X118790554Y-95078242D01*
X118723787Y-94978321D01*
X118431696Y-94929011D01*
X118430989Y-94929718D01*
X118430989Y-94928304D01*
X118381679Y-94636213D01*
X117834772Y-94384300D01*
X117233093Y-94360854D01*
X116668242Y-94569446D01*
X116568321Y-94636213D01*
X116519011Y-94928304D01*
X117475000Y-95884293D01*
X118430989Y-94928304D01*
X118430989Y-94929718D01*
X117475707Y-95885000D01*
X117489849Y-95899142D01*
X117489142Y-95899849D01*
X117475000Y-95885707D01*
X117460857Y-95899849D01*
X117460150Y-95899142D01*
X117474293Y-95885000D01*
X116518304Y-94929011D01*
X116226213Y-94978321D01*
X115974300Y-95525228D01*
X115950854Y-96126907D01*
X116096018Y-96520000D01*
X114238209Y-96520000D01*
X114238209Y-95010768D01*
X114054690Y-94566617D01*
X113715170Y-94226505D01*
X113271340Y-94042210D01*
X112790768Y-94041791D01*
X112346617Y-94225310D01*
X112006505Y-94564830D01*
X111822210Y-95008660D01*
X111821791Y-95489232D01*
X112005310Y-95933383D01*
X112344830Y-96273495D01*
X112788660Y-96457790D01*
X113269232Y-96458209D01*
X113713383Y-96274690D01*
X114053495Y-95935170D01*
X114237790Y-95491340D01*
X114238209Y-95010768D01*
X114238209Y-96520000D01*
X108414084Y-96520000D01*
X108573351Y-96136443D01*
X108573788Y-95635753D01*
X108382586Y-95173009D01*
X108028854Y-94818658D01*
X107566443Y-94626649D01*
X107065753Y-94626212D01*
X106603009Y-94817414D01*
X106248658Y-95171146D01*
X106056649Y-95633557D01*
X106056212Y-96134247D01*
X106215601Y-96520000D01*
X105874084Y-96520000D01*
X106033351Y-96136443D01*
X106033788Y-95635753D01*
X105842586Y-95173009D01*
X105488854Y-94818658D01*
X105026443Y-94626649D01*
X104525753Y-94626212D01*
X104446842Y-94658816D01*
X103507613Y-93719587D01*
X103327142Y-93599000D01*
X133439062Y-93599000D01*
G36*
X138364599Y-97352625D02*
X138353009Y-97357414D01*
X137998658Y-97711146D01*
X137933134Y-97868943D01*
X137840554Y-97618242D01*
X137773787Y-97518321D01*
X137481696Y-97469011D01*
X137480989Y-97469718D01*
X136525707Y-98425000D01*
X136539849Y-98439142D01*
X136539142Y-98439849D01*
X136525000Y-98425707D01*
X136524293Y-98426414D01*
X135569011Y-99381696D01*
X135618321Y-99673787D01*
X136073517Y-99883456D01*
X135592123Y-100364850D01*
X135508727Y-100330221D01*
X135003490Y-100329780D01*
X134536542Y-100522718D01*
X134302405Y-100756447D01*
X134070337Y-100523974D01*
X133603727Y-100330221D01*
X133098490Y-100329780D01*
X132631542Y-100522718D01*
X132273974Y-100879663D01*
X132238539Y-100965000D01*
X131803612Y-100965000D01*
X131833495Y-100935170D01*
X132017790Y-100491340D01*
X132018209Y-100010768D01*
X131834690Y-99566617D01*
X131495170Y-99226505D01*
X131051340Y-99042210D01*
X130570768Y-99041791D01*
X130274533Y-99164192D01*
X133747844Y-95690881D01*
X133730854Y-96126907D01*
X133939446Y-96691758D01*
X134006213Y-96791679D01*
X134298304Y-96840989D01*
X135254293Y-95885000D01*
X135240150Y-95870857D01*
X135240857Y-95870150D01*
X135255000Y-95884293D01*
X135269142Y-95870150D01*
X135269849Y-95870857D01*
X135255707Y-95885000D01*
X135269849Y-95899142D01*
X135269142Y-95899849D01*
X135255000Y-95885707D01*
X134299011Y-96841696D01*
X134348321Y-97133787D01*
X134895228Y-97385700D01*
X135496907Y-97409146D01*
X135505326Y-97406036D01*
X135568301Y-97469011D01*
X135276213Y-97518321D01*
X135024300Y-98065228D01*
X135000854Y-98666907D01*
X135209446Y-99231758D01*
X135276213Y-99331679D01*
X135568304Y-99380989D01*
X136524293Y-98425000D01*
X136510150Y-98410857D01*
X136510857Y-98410150D01*
X136525000Y-98424293D01*
X137480989Y-97468304D01*
X137431679Y-97176213D01*
X136884772Y-96924300D01*
X136283093Y-96900854D01*
X136274673Y-96903963D01*
X136211698Y-96840988D01*
X136503787Y-96791679D01*
X136664073Y-96443694D01*
X136727414Y-96596991D01*
X137081146Y-96951342D01*
X137543557Y-97143351D01*
X138044247Y-97143788D01*
X138123157Y-97111183D01*
X138364599Y-97352625D01*
X138364599Y-97352625D01*
G37*
X138364599Y-97352625D02*
X138353009Y-97357414D01*
X137998658Y-97711146D01*
X137933134Y-97868943D01*
X137840554Y-97618242D01*
X137773787Y-97518321D01*
X137481696Y-97469011D01*
X137480989Y-97469718D01*
X136525707Y-98425000D01*
X136539849Y-98439142D01*
X136539142Y-98439849D01*
X136525000Y-98425707D01*
X136524293Y-98426414D01*
X135569011Y-99381696D01*
X135618321Y-99673787D01*
X136073517Y-99883456D01*
X135592123Y-100364850D01*
X135508727Y-100330221D01*
X135003490Y-100329780D01*
X134536542Y-100522718D01*
X134302405Y-100756447D01*
X134070337Y-100523974D01*
X133603727Y-100330221D01*
X133098490Y-100329780D01*
X132631542Y-100522718D01*
X132273974Y-100879663D01*
X132238539Y-100965000D01*
X131803612Y-100965000D01*
X131833495Y-100935170D01*
X132017790Y-100491340D01*
X132018209Y-100010768D01*
X131834690Y-99566617D01*
X131495170Y-99226505D01*
X131051340Y-99042210D01*
X130570768Y-99041791D01*
X130274533Y-99164192D01*
X133747844Y-95690881D01*
X133730854Y-96126907D01*
X133939446Y-96691758D01*
X134006213Y-96791679D01*
X134298304Y-96840989D01*
X135254293Y-95885000D01*
X135240150Y-95870857D01*
X135240857Y-95870150D01*
X135255000Y-95884293D01*
X135269142Y-95870150D01*
X135269849Y-95870857D01*
X135255707Y-95885000D01*
X135269849Y-95899142D01*
X135269142Y-95899849D01*
X135255000Y-95885707D01*
X134299011Y-96841696D01*
X134348321Y-97133787D01*
X134895228Y-97385700D01*
X135496907Y-97409146D01*
X135505326Y-97406036D01*
X135568301Y-97469011D01*
X135276213Y-97518321D01*
X135024300Y-98065228D01*
X135000854Y-98666907D01*
X135209446Y-99231758D01*
X135276213Y-99331679D01*
X135568304Y-99380989D01*
X136524293Y-98425000D01*
X136510150Y-98410857D01*
X136510857Y-98410150D01*
X136525000Y-98424293D01*
X137480989Y-97468304D01*
X137431679Y-97176213D01*
X136884772Y-96924300D01*
X136283093Y-96900854D01*
X136274673Y-96903963D01*
X136211698Y-96840988D01*
X136503787Y-96791679D01*
X136664073Y-96443694D01*
X136727414Y-96596991D01*
X137081146Y-96951342D01*
X137543557Y-97143351D01*
X138044247Y-97143788D01*
X138123157Y-97111183D01*
X138364599Y-97352625D01*
G36*
X170417922Y-115951000D02*
X164522088Y-115951000D01*
X164853495Y-115620170D01*
X165037790Y-115176340D01*
X165038209Y-114695768D01*
X164854690Y-114251617D01*
X164515170Y-113911505D01*
X164071340Y-113727210D01*
X163590768Y-113726791D01*
X163146617Y-113910310D01*
X162806505Y-114249830D01*
X162622210Y-114693660D01*
X162621791Y-115174232D01*
X162805310Y-115618383D01*
X163137348Y-115951000D01*
X149597637Y-115951000D01*
X149613495Y-115935170D01*
X149797790Y-115491340D01*
X149798209Y-115010768D01*
X149614690Y-114566617D01*
X149275170Y-114226505D01*
X148831340Y-114042210D01*
X148350768Y-114041791D01*
X147906617Y-114225310D01*
X147714700Y-114416892D01*
X147714700Y-112838870D01*
X147714700Y-112078250D01*
X147523950Y-111887500D01*
X146050500Y-111887500D01*
X146050500Y-113259350D01*
X146241250Y-113450100D01*
X146799930Y-113450100D01*
X147103470Y-113450100D01*
X147383905Y-113333940D01*
X147598540Y-113119305D01*
X147714700Y-112838870D01*
X147714700Y-114416892D01*
X147566505Y-114564830D01*
X147382210Y-115008660D01*
X147381791Y-115489232D01*
X147565310Y-115933383D01*
X147582896Y-115951000D01*
X146049500Y-115951000D01*
X146049500Y-113259350D01*
X146049500Y-111887500D01*
X144576050Y-111887500D01*
X144385300Y-112078250D01*
X144385300Y-112838870D01*
X144501460Y-113119305D01*
X144716095Y-113333940D01*
X144996530Y-113450100D01*
X145300070Y-113450100D01*
X145858750Y-113450100D01*
X146049500Y-113259350D01*
X146049500Y-115951000D01*
X137398260Y-115951000D01*
X137398260Y-112422420D01*
X137398260Y-110950240D01*
X136176270Y-110950240D01*
X135985520Y-111140990D01*
X135985520Y-111698400D01*
X135985520Y-112001940D01*
X136101680Y-112282375D01*
X136316315Y-112497010D01*
X136596750Y-112613170D01*
X137207510Y-112613170D01*
X137398260Y-112422420D01*
X137398260Y-115951000D01*
X135014700Y-115951000D01*
X135014700Y-112838870D01*
X135014700Y-112078250D01*
X134823950Y-111887500D01*
X133350500Y-111887500D01*
X133350500Y-113259350D01*
X133541250Y-113450100D01*
X134099930Y-113450100D01*
X134403470Y-113450100D01*
X134683905Y-113333940D01*
X134898540Y-113119305D01*
X135014700Y-112838870D01*
X135014700Y-115951000D01*
X133349500Y-115951000D01*
X133349500Y-113259350D01*
X133349500Y-111887500D01*
X131876050Y-111887500D01*
X131685300Y-112078250D01*
X131685300Y-112838870D01*
X131801460Y-113119305D01*
X132016095Y-113333940D01*
X132296530Y-113450100D01*
X132600070Y-113450100D01*
X133158750Y-113450100D01*
X133349500Y-113259350D01*
X133349500Y-115951000D01*
X131817637Y-115951000D01*
X131833495Y-115935170D01*
X132017790Y-115491340D01*
X132018209Y-115010768D01*
X131834690Y-114566617D01*
X131495170Y-114226505D01*
X131051340Y-114042210D01*
X130570768Y-114041791D01*
X130126617Y-114225310D01*
X129786505Y-114564830D01*
X129602210Y-115008660D01*
X129601791Y-115489232D01*
X129785310Y-115933383D01*
X129802896Y-115951000D01*
X114037637Y-115951000D01*
X114053495Y-115935170D01*
X114237790Y-115491340D01*
X114238209Y-115010768D01*
X114238209Y-110010768D01*
X114054690Y-109566617D01*
X113715170Y-109226505D01*
X113271340Y-109042210D01*
X112790768Y-109041791D01*
X112346617Y-109225310D01*
X112006505Y-109564830D01*
X111822210Y-110008660D01*
X111821791Y-110489232D01*
X112005310Y-110933383D01*
X112344830Y-111273495D01*
X112788660Y-111457790D01*
X113269232Y-111458209D01*
X113713383Y-111274690D01*
X114053495Y-110935170D01*
X114237790Y-110491340D01*
X114238209Y-110010768D01*
X114238209Y-115010768D01*
X114054690Y-114566617D01*
X113715170Y-114226505D01*
X113271340Y-114042210D01*
X112790768Y-114041791D01*
X112346617Y-114225310D01*
X112006505Y-114564830D01*
X111822210Y-115008660D01*
X111821791Y-115489232D01*
X112005310Y-115933383D01*
X112022896Y-115951000D01*
X96257637Y-115951000D01*
X96273495Y-115935170D01*
X96457790Y-115491340D01*
X96458209Y-115010768D01*
X96458209Y-110010768D01*
X96274690Y-109566617D01*
X95935170Y-109226505D01*
X95491340Y-109042210D01*
X95010768Y-109041791D01*
X94566617Y-109225310D01*
X94226505Y-109564830D01*
X94042210Y-110008660D01*
X94041791Y-110489232D01*
X94225310Y-110933383D01*
X94564830Y-111273495D01*
X95008660Y-111457790D01*
X95489232Y-111458209D01*
X95933383Y-111274690D01*
X96273495Y-110935170D01*
X96457790Y-110491340D01*
X96458209Y-110010768D01*
X96458209Y-115010768D01*
X96274690Y-114566617D01*
X95935170Y-114226505D01*
X95491340Y-114042210D01*
X95010768Y-114041791D01*
X94566617Y-114225310D01*
X94226505Y-114564830D01*
X94042210Y-115008660D01*
X94041791Y-115489232D01*
X94225310Y-115933383D01*
X94242896Y-115951000D01*
X78477637Y-115951000D01*
X78493495Y-115935170D01*
X78677790Y-115491340D01*
X78678209Y-115010768D01*
X78494690Y-114566617D01*
X78155170Y-114226505D01*
X77711340Y-114042210D01*
X77230768Y-114041791D01*
X76786617Y-114225310D01*
X76594700Y-114416892D01*
X76594700Y-112838870D01*
X76594700Y-112078250D01*
X76403950Y-111887500D01*
X74930500Y-111887500D01*
X74930500Y-113259350D01*
X75121250Y-113450100D01*
X75679930Y-113450100D01*
X75983470Y-113450100D01*
X76263905Y-113333940D01*
X76478540Y-113119305D01*
X76594700Y-112838870D01*
X76594700Y-114416892D01*
X76446505Y-114564830D01*
X76262210Y-115008660D01*
X76261791Y-115489232D01*
X76445310Y-115933383D01*
X76462896Y-115951000D01*
X74929500Y-115951000D01*
X74929500Y-113259350D01*
X74929500Y-111887500D01*
X73456050Y-111887500D01*
X73265300Y-112078250D01*
X73265300Y-112838870D01*
X73381460Y-113119305D01*
X73596095Y-113333940D01*
X73876530Y-113450100D01*
X74180070Y-113450100D01*
X74738750Y-113450100D01*
X74929500Y-113259350D01*
X74929500Y-115951000D01*
X60697637Y-115951000D01*
X60713495Y-115935170D01*
X60897790Y-115491340D01*
X60898209Y-115010768D01*
X60714690Y-114566617D01*
X60375170Y-114226505D01*
X59931340Y-114042210D01*
X59450768Y-114041791D01*
X59006617Y-114225310D01*
X58666505Y-114564830D01*
X58482210Y-115008660D01*
X58481791Y-115489232D01*
X58665310Y-115933383D01*
X58682896Y-115951000D01*
X50537637Y-115951000D01*
X50553495Y-115935170D01*
X50737790Y-115491340D01*
X50738209Y-115010768D01*
X50554690Y-114566617D01*
X50215170Y-114226505D01*
X49771340Y-114042210D01*
X49290768Y-114041791D01*
X48846617Y-114225310D01*
X48506505Y-114564830D01*
X48322210Y-115008660D01*
X48321791Y-115489232D01*
X48505310Y-115933383D01*
X48522896Y-115951000D01*
X35179000Y-115951000D01*
X35179000Y-112040226D01*
X36300287Y-113161513D01*
X36506295Y-113299164D01*
X36506296Y-113299164D01*
X36749300Y-113347500D01*
X37298593Y-113347500D01*
X37295028Y-113365280D01*
X37295028Y-113964720D01*
X37329844Y-114144167D01*
X37295028Y-114317780D01*
X37295028Y-114917220D01*
X37332610Y-115110919D01*
X37444441Y-115281162D01*
X37613268Y-115395121D01*
X37812980Y-115435172D01*
X38813740Y-115435172D01*
X39007439Y-115397590D01*
X39177682Y-115285759D01*
X39291641Y-115116932D01*
X39331692Y-114917220D01*
X39331692Y-114449197D01*
X39408308Y-114525813D01*
X39408308Y-114917220D01*
X39445890Y-115110919D01*
X39557721Y-115281162D01*
X39726548Y-115395121D01*
X39926260Y-115435172D01*
X40927020Y-115435172D01*
X41120719Y-115397590D01*
X41290962Y-115285759D01*
X41404921Y-115116932D01*
X41444972Y-114917220D01*
X41444972Y-114525813D01*
X41573860Y-114396925D01*
X41690020Y-114116490D01*
X41690020Y-113856250D01*
X41499270Y-113665500D01*
X40427140Y-113665500D01*
X40427140Y-113685500D01*
X40426140Y-113685500D01*
X40426140Y-113665500D01*
X40406140Y-113665500D01*
X40406140Y-113664500D01*
X40426140Y-113664500D01*
X40426140Y-113644500D01*
X40427140Y-113644500D01*
X40427140Y-113664500D01*
X41499270Y-113664500D01*
X41690020Y-113473750D01*
X41690020Y-113213510D01*
X41573860Y-112933075D01*
X41444972Y-112804187D01*
X41444972Y-112412780D01*
X41422658Y-112297773D01*
X41656273Y-112394779D01*
X42161510Y-112395220D01*
X42628458Y-112202282D01*
X42986026Y-111845337D01*
X43021460Y-111760000D01*
X45878234Y-111760000D01*
X45912718Y-111843458D01*
X46269663Y-112201026D01*
X46736273Y-112394779D01*
X47241510Y-112395220D01*
X47708458Y-112202282D01*
X47927421Y-111983700D01*
X51132715Y-111983700D01*
X51349663Y-112201026D01*
X51816273Y-112394779D01*
X52321510Y-112395220D01*
X52788458Y-112202282D01*
X53146026Y-111845337D01*
X53181460Y-111760000D01*
X56038234Y-111760000D01*
X56072718Y-111843458D01*
X56429663Y-112201026D01*
X56896273Y-112394779D01*
X57401510Y-112395220D01*
X57486908Y-112359934D01*
X58644487Y-113517513D01*
X58850496Y-113655164D01*
X59093500Y-113703500D01*
X70855900Y-113703500D01*
X71098904Y-113655164D01*
X71304913Y-113517513D01*
X72370513Y-112451913D01*
X72508164Y-112245904D01*
X72556500Y-112002900D01*
X72556500Y-110448231D01*
X72575020Y-110455922D01*
X72982990Y-110456278D01*
X73360040Y-110300484D01*
X73558293Y-110102576D01*
X73659761Y-110257042D01*
X73803576Y-110354118D01*
X73596095Y-110440060D01*
X73381460Y-110654695D01*
X73265300Y-110935130D01*
X73265300Y-111695750D01*
X73456050Y-111886500D01*
X74929500Y-111886500D01*
X74929500Y-111866500D01*
X74930500Y-111866500D01*
X74930500Y-111886500D01*
X76403950Y-111886500D01*
X76594700Y-111695750D01*
X76594700Y-111083033D01*
X76784830Y-111273495D01*
X77228660Y-111457790D01*
X77709232Y-111458209D01*
X78153383Y-111274690D01*
X78493495Y-110935170D01*
X78677790Y-110491340D01*
X78678209Y-110010768D01*
X78494690Y-109566617D01*
X78155170Y-109226505D01*
X77711340Y-109042210D01*
X77230768Y-109041791D01*
X76786617Y-109225310D01*
X76446505Y-109564830D01*
X76349652Y-109798077D01*
X76349652Y-108292900D01*
X76312070Y-108099201D01*
X76200239Y-107928958D01*
X76031412Y-107814999D01*
X75831700Y-107774948D01*
X74028300Y-107774948D01*
X73834601Y-107812530D01*
X73664358Y-107924361D01*
X73550399Y-108093188D01*
X73510348Y-108292900D01*
X73510348Y-108485181D01*
X73403995Y-108506336D01*
X73336601Y-108551367D01*
X72984780Y-108405278D01*
X72576810Y-108404922D01*
X72199760Y-108560716D01*
X71911030Y-108848942D01*
X71834643Y-109032900D01*
X69990700Y-109032900D01*
X69747696Y-109081236D01*
X69541687Y-109218887D01*
X69229216Y-109531358D01*
X67929760Y-109531358D01*
X67736061Y-109568940D01*
X67594427Y-109661978D01*
X67575840Y-109617105D01*
X67361205Y-109402470D01*
X67080770Y-109286310D01*
X66470010Y-109286310D01*
X66279260Y-109477060D01*
X66279260Y-110949240D01*
X66299260Y-110949240D01*
X66299260Y-110950240D01*
X66279260Y-110950240D01*
X66279260Y-110970240D01*
X66278260Y-110970240D01*
X66278260Y-110950240D01*
X66278260Y-110949240D01*
X66278260Y-109477060D01*
X66087510Y-109286310D01*
X65476750Y-109286310D01*
X65196315Y-109402470D01*
X64981680Y-109617105D01*
X64865520Y-109897540D01*
X64865520Y-110201080D01*
X64865520Y-110758490D01*
X65056270Y-110949240D01*
X66278260Y-110949240D01*
X66278260Y-110950240D01*
X65056270Y-110950240D01*
X64865520Y-111140990D01*
X64865520Y-111596500D01*
X64120526Y-111596500D01*
X63962013Y-111437987D01*
X63756004Y-111300336D01*
X63649652Y-111279181D01*
X63649652Y-111086900D01*
X63612070Y-110893201D01*
X63500239Y-110722958D01*
X63356423Y-110625881D01*
X63563905Y-110539940D01*
X63778540Y-110325305D01*
X63894700Y-110044870D01*
X63894700Y-109284250D01*
X63703950Y-109093500D01*
X62230500Y-109093500D01*
X62230500Y-109113500D01*
X62229500Y-109113500D01*
X62229500Y-109093500D01*
X62209500Y-109093500D01*
X62209500Y-109092500D01*
X62229500Y-109092500D01*
X62229500Y-109072500D01*
X62230500Y-109072500D01*
X62230500Y-109092500D01*
X63703950Y-109092500D01*
X63894700Y-108901750D01*
X63894700Y-108141130D01*
X63778540Y-107860695D01*
X63701285Y-107783440D01*
X65052426Y-106432300D01*
X65776974Y-106432300D01*
X66775087Y-107430413D01*
X66981095Y-107568064D01*
X66981096Y-107568064D01*
X67224100Y-107616400D01*
X82487700Y-107616400D01*
X82730704Y-107568064D01*
X82936713Y-107430413D01*
X83861926Y-106505200D01*
X84609092Y-106505200D01*
X84589828Y-106601260D01*
X84589828Y-107602020D01*
X84627410Y-107795719D01*
X84739241Y-107965962D01*
X84908068Y-108079921D01*
X85107780Y-108119972D01*
X85499187Y-108119972D01*
X85628075Y-108248860D01*
X85908510Y-108365020D01*
X86168750Y-108365020D01*
X86359500Y-108174270D01*
X86359500Y-107102140D01*
X86339500Y-107102140D01*
X86339500Y-107101140D01*
X86359500Y-107101140D01*
X86359500Y-107081140D01*
X86360500Y-107081140D01*
X86360500Y-107101140D01*
X86380500Y-107101140D01*
X86380500Y-107102140D01*
X86360500Y-107102140D01*
X86360500Y-108174270D01*
X86551250Y-108365020D01*
X86811490Y-108365020D01*
X87091925Y-108248860D01*
X87220813Y-108119972D01*
X87612220Y-108119972D01*
X87805919Y-108082390D01*
X87976162Y-107970559D01*
X88090121Y-107801732D01*
X88130172Y-107602020D01*
X88130172Y-106601260D01*
X88111534Y-106505200D01*
X88236673Y-106505200D01*
X89207587Y-107476113D01*
X89413596Y-107613764D01*
X89656600Y-107662101D01*
X89656600Y-107662100D01*
X89656605Y-107662100D01*
X99090300Y-107662100D01*
X99333304Y-107613764D01*
X99539313Y-107476113D01*
X101600000Y-105415426D01*
X103614987Y-107430413D01*
X103820996Y-107568064D01*
X104064000Y-107616400D01*
X117200700Y-107616400D01*
X117443704Y-107568064D01*
X117649713Y-107430413D01*
X119380000Y-105700126D01*
X120006287Y-106326413D01*
X120181472Y-106443468D01*
X120149828Y-106601260D01*
X120149828Y-107602020D01*
X120187410Y-107795719D01*
X120299241Y-107965962D01*
X120468068Y-108079921D01*
X120667780Y-108119972D01*
X121059187Y-108119972D01*
X121188075Y-108248860D01*
X121468510Y-108365020D01*
X121728750Y-108365020D01*
X121919500Y-108174270D01*
X121919500Y-107102140D01*
X121899500Y-107102140D01*
X121899500Y-107101140D01*
X121919500Y-107101140D01*
X121919500Y-107081140D01*
X121920500Y-107081140D01*
X121920500Y-107101140D01*
X121940500Y-107101140D01*
X121940500Y-107102140D01*
X121920500Y-107102140D01*
X121920500Y-108174270D01*
X122111250Y-108365020D01*
X122371490Y-108365020D01*
X122651925Y-108248860D01*
X122780813Y-108119972D01*
X123172220Y-108119972D01*
X123365919Y-108082390D01*
X123536162Y-107970559D01*
X123650121Y-107801732D01*
X123690172Y-107602020D01*
X123690172Y-106601260D01*
X123672931Y-106512400D01*
X124783474Y-106512400D01*
X127813087Y-109542013D01*
X128019096Y-109679664D01*
X128262100Y-109728000D01*
X129718750Y-109728000D01*
X129602210Y-110008660D01*
X129601791Y-110489232D01*
X129785310Y-110933383D01*
X130124830Y-111273495D01*
X130568660Y-111457790D01*
X131049232Y-111458209D01*
X131493383Y-111274690D01*
X131685300Y-111083107D01*
X131685300Y-111695750D01*
X131876050Y-111886500D01*
X133349500Y-111886500D01*
X133349500Y-111866500D01*
X133350500Y-111866500D01*
X133350500Y-111886500D01*
X134823950Y-111886500D01*
X135014700Y-111695750D01*
X135014700Y-110935130D01*
X134898540Y-110654695D01*
X134683905Y-110440060D01*
X134475463Y-110353720D01*
X134615642Y-110261639D01*
X134729601Y-110092812D01*
X134769652Y-109893100D01*
X134769652Y-109728000D01*
X136055745Y-109728000D01*
X135985520Y-109897540D01*
X135985520Y-110201080D01*
X135985520Y-110758490D01*
X136176270Y-110949240D01*
X137398260Y-110949240D01*
X137398260Y-110929240D01*
X137399260Y-110929240D01*
X137399260Y-110949240D01*
X137419260Y-110949240D01*
X137419260Y-110950240D01*
X137399260Y-110950240D01*
X137399260Y-112422420D01*
X137590010Y-112613170D01*
X138200770Y-112613170D01*
X138481205Y-112497010D01*
X138695840Y-112282375D01*
X138714742Y-112236739D01*
X138850048Y-112328071D01*
X139049760Y-112368122D01*
X140350240Y-112368122D01*
X140543939Y-112330540D01*
X140714182Y-112218709D01*
X140828141Y-112049882D01*
X140850329Y-111939239D01*
X140870630Y-112043869D01*
X140982461Y-112214112D01*
X141151288Y-112328071D01*
X141351000Y-112368122D01*
X142651480Y-112368122D01*
X142845179Y-112330540D01*
X143015422Y-112218709D01*
X143129381Y-112049882D01*
X143169432Y-111850170D01*
X143169432Y-111557502D01*
X143275704Y-111536364D01*
X143481713Y-111398713D01*
X143619364Y-111192704D01*
X143632782Y-111125243D01*
X144669237Y-110088788D01*
X144779761Y-110257042D01*
X144923576Y-110354118D01*
X144716095Y-110440060D01*
X144501460Y-110654695D01*
X144385300Y-110935130D01*
X144385300Y-111695750D01*
X144576050Y-111886500D01*
X146049500Y-111886500D01*
X146049500Y-111866500D01*
X146050500Y-111866500D01*
X146050500Y-111886500D01*
X147523950Y-111886500D01*
X147714700Y-111695750D01*
X147714700Y-111083033D01*
X147904830Y-111273495D01*
X148348660Y-111457790D01*
X148829232Y-111458209D01*
X149273383Y-111274690D01*
X149613495Y-110935170D01*
X149739262Y-110632288D01*
X149894850Y-110787876D01*
X149860221Y-110871273D01*
X149859780Y-111376510D01*
X150052718Y-111843458D01*
X150409663Y-112201026D01*
X150876273Y-112394779D01*
X151381510Y-112395220D01*
X151848458Y-112202282D01*
X152206026Y-111845337D01*
X152241460Y-111760000D01*
X155098234Y-111760000D01*
X155132718Y-111843458D01*
X155489663Y-112201026D01*
X155956273Y-112394779D01*
X156461510Y-112395220D01*
X156928458Y-112202282D01*
X157286026Y-111845337D01*
X157321460Y-111760000D01*
X160178234Y-111760000D01*
X160212718Y-111843458D01*
X160569663Y-112201026D01*
X161036273Y-112394779D01*
X161541510Y-112395220D01*
X161982034Y-112213200D01*
X165678981Y-112213200D01*
X166116273Y-112394779D01*
X166621510Y-112395220D01*
X166858158Y-112297439D01*
X166835028Y-112412780D01*
X166835028Y-112804187D01*
X166706140Y-112933075D01*
X166589980Y-113213510D01*
X166589980Y-113473750D01*
X166780730Y-113664500D01*
X167852860Y-113664500D01*
X167852860Y-113644500D01*
X167853860Y-113644500D01*
X167853860Y-113664500D01*
X167873860Y-113664500D01*
X167873860Y-113665500D01*
X167853860Y-113665500D01*
X167853860Y-113685500D01*
X167852860Y-113685500D01*
X167852860Y-113665500D01*
X166780730Y-113665500D01*
X166589980Y-113856250D01*
X166589980Y-114116490D01*
X166706140Y-114396925D01*
X166835028Y-114525813D01*
X166835028Y-114917220D01*
X166872610Y-115110919D01*
X166984441Y-115281162D01*
X167153268Y-115395121D01*
X167352980Y-115435172D01*
X168353740Y-115435172D01*
X168547439Y-115397590D01*
X168717682Y-115285759D01*
X168831641Y-115116932D01*
X168871692Y-114917220D01*
X168871692Y-114525813D01*
X168948308Y-114449197D01*
X168948308Y-114917220D01*
X168985890Y-115110919D01*
X169097721Y-115281162D01*
X169266548Y-115395121D01*
X169466260Y-115435172D01*
X170174566Y-115435172D01*
X170174522Y-115486190D01*
X170330316Y-115863240D01*
X170417922Y-115951000D01*
X170417922Y-115951000D01*
G37*
X170417922Y-115951000D02*
X164522088Y-115951000D01*
X164853495Y-115620170D01*
X165037790Y-115176340D01*
X165038209Y-114695768D01*
X164854690Y-114251617D01*
X164515170Y-113911505D01*
X164071340Y-113727210D01*
X163590768Y-113726791D01*
X163146617Y-113910310D01*
X162806505Y-114249830D01*
X162622210Y-114693660D01*
X162621791Y-115174232D01*
X162805310Y-115618383D01*
X163137348Y-115951000D01*
X149597637Y-115951000D01*
X149613495Y-115935170D01*
X149797790Y-115491340D01*
X149798209Y-115010768D01*
X149614690Y-114566617D01*
X149275170Y-114226505D01*
X148831340Y-114042210D01*
X148350768Y-114041791D01*
X147906617Y-114225310D01*
X147714700Y-114416892D01*
X147714700Y-112838870D01*
X147714700Y-112078250D01*
X147523950Y-111887500D01*
X146050500Y-111887500D01*
X146050500Y-113259350D01*
X146241250Y-113450100D01*
X146799930Y-113450100D01*
X147103470Y-113450100D01*
X147383905Y-113333940D01*
X147598540Y-113119305D01*
X147714700Y-112838870D01*
X147714700Y-114416892D01*
X147566505Y-114564830D01*
X147382210Y-115008660D01*
X147381791Y-115489232D01*
X147565310Y-115933383D01*
X147582896Y-115951000D01*
X146049500Y-115951000D01*
X146049500Y-113259350D01*
X146049500Y-111887500D01*
X144576050Y-111887500D01*
X144385300Y-112078250D01*
X144385300Y-112838870D01*
X144501460Y-113119305D01*
X144716095Y-113333940D01*
X144996530Y-113450100D01*
X145300070Y-113450100D01*
X145858750Y-113450100D01*
X146049500Y-113259350D01*
X146049500Y-115951000D01*
X137398260Y-115951000D01*
X137398260Y-112422420D01*
X137398260Y-110950240D01*
X136176270Y-110950240D01*
X135985520Y-111140990D01*
X135985520Y-111698400D01*
X135985520Y-112001940D01*
X136101680Y-112282375D01*
X136316315Y-112497010D01*
X136596750Y-112613170D01*
X137207510Y-112613170D01*
X137398260Y-112422420D01*
X137398260Y-115951000D01*
X135014700Y-115951000D01*
X135014700Y-112838870D01*
X135014700Y-112078250D01*
X134823950Y-111887500D01*
X133350500Y-111887500D01*
X133350500Y-113259350D01*
X133541250Y-113450100D01*
X134099930Y-113450100D01*
X134403470Y-113450100D01*
X134683905Y-113333940D01*
X134898540Y-113119305D01*
X135014700Y-112838870D01*
X135014700Y-115951000D01*
X133349500Y-115951000D01*
X133349500Y-113259350D01*
X133349500Y-111887500D01*
X131876050Y-111887500D01*
X131685300Y-112078250D01*
X131685300Y-112838870D01*
X131801460Y-113119305D01*
X132016095Y-113333940D01*
X132296530Y-113450100D01*
X132600070Y-113450100D01*
X133158750Y-113450100D01*
X133349500Y-113259350D01*
X133349500Y-115951000D01*
X131817637Y-115951000D01*
X131833495Y-115935170D01*
X132017790Y-115491340D01*
X132018209Y-115010768D01*
X131834690Y-114566617D01*
X131495170Y-114226505D01*
X131051340Y-114042210D01*
X130570768Y-114041791D01*
X130126617Y-114225310D01*
X129786505Y-114564830D01*
X129602210Y-115008660D01*
X129601791Y-115489232D01*
X129785310Y-115933383D01*
X129802896Y-115951000D01*
X114037637Y-115951000D01*
X114053495Y-115935170D01*
X114237790Y-115491340D01*
X114238209Y-115010768D01*
X114238209Y-110010768D01*
X114054690Y-109566617D01*
X113715170Y-109226505D01*
X113271340Y-109042210D01*
X112790768Y-109041791D01*
X112346617Y-109225310D01*
X112006505Y-109564830D01*
X111822210Y-110008660D01*
X111821791Y-110489232D01*
X112005310Y-110933383D01*
X112344830Y-111273495D01*
X112788660Y-111457790D01*
X113269232Y-111458209D01*
X113713383Y-111274690D01*
X114053495Y-110935170D01*
X114237790Y-110491340D01*
X114238209Y-110010768D01*
X114238209Y-115010768D01*
X114054690Y-114566617D01*
X113715170Y-114226505D01*
X113271340Y-114042210D01*
X112790768Y-114041791D01*
X112346617Y-114225310D01*
X112006505Y-114564830D01*
X111822210Y-115008660D01*
X111821791Y-115489232D01*
X112005310Y-115933383D01*
X112022896Y-115951000D01*
X96257637Y-115951000D01*
X96273495Y-115935170D01*
X96457790Y-115491340D01*
X96458209Y-115010768D01*
X96458209Y-110010768D01*
X96274690Y-109566617D01*
X95935170Y-109226505D01*
X95491340Y-109042210D01*
X95010768Y-109041791D01*
X94566617Y-109225310D01*
X94226505Y-109564830D01*
X94042210Y-110008660D01*
X94041791Y-110489232D01*
X94225310Y-110933383D01*
X94564830Y-111273495D01*
X95008660Y-111457790D01*
X95489232Y-111458209D01*
X95933383Y-111274690D01*
X96273495Y-110935170D01*
X96457790Y-110491340D01*
X96458209Y-110010768D01*
X96458209Y-115010768D01*
X96274690Y-114566617D01*
X95935170Y-114226505D01*
X95491340Y-114042210D01*
X95010768Y-114041791D01*
X94566617Y-114225310D01*
X94226505Y-114564830D01*
X94042210Y-115008660D01*
X94041791Y-115489232D01*
X94225310Y-115933383D01*
X94242896Y-115951000D01*
X78477637Y-115951000D01*
X78493495Y-115935170D01*
X78677790Y-115491340D01*
X78678209Y-115010768D01*
X78494690Y-114566617D01*
X78155170Y-114226505D01*
X77711340Y-114042210D01*
X77230768Y-114041791D01*
X76786617Y-114225310D01*
X76594700Y-114416892D01*
X76594700Y-112838870D01*
X76594700Y-112078250D01*
X76403950Y-111887500D01*
X74930500Y-111887500D01*
X74930500Y-113259350D01*
X75121250Y-113450100D01*
X75679930Y-113450100D01*
X75983470Y-113450100D01*
X76263905Y-113333940D01*
X76478540Y-113119305D01*
X76594700Y-112838870D01*
X76594700Y-114416892D01*
X76446505Y-114564830D01*
X76262210Y-115008660D01*
X76261791Y-115489232D01*
X76445310Y-115933383D01*
X76462896Y-115951000D01*
X74929500Y-115951000D01*
X74929500Y-113259350D01*
X74929500Y-111887500D01*
X73456050Y-111887500D01*
X73265300Y-112078250D01*
X73265300Y-112838870D01*
X73381460Y-113119305D01*
X73596095Y-113333940D01*
X73876530Y-113450100D01*
X74180070Y-113450100D01*
X74738750Y-113450100D01*
X74929500Y-113259350D01*
X74929500Y-115951000D01*
X60697637Y-115951000D01*
X60713495Y-115935170D01*
X60897790Y-115491340D01*
X60898209Y-115010768D01*
X60714690Y-114566617D01*
X60375170Y-114226505D01*
X59931340Y-114042210D01*
X59450768Y-114041791D01*
X59006617Y-114225310D01*
X58666505Y-114564830D01*
X58482210Y-115008660D01*
X58481791Y-115489232D01*
X58665310Y-115933383D01*
X58682896Y-115951000D01*
X50537637Y-115951000D01*
X50553495Y-115935170D01*
X50737790Y-115491340D01*
X50738209Y-115010768D01*
X50554690Y-114566617D01*
X50215170Y-114226505D01*
X49771340Y-114042210D01*
X49290768Y-114041791D01*
X48846617Y-114225310D01*
X48506505Y-114564830D01*
X48322210Y-115008660D01*
X48321791Y-115489232D01*
X48505310Y-115933383D01*
X48522896Y-115951000D01*
X35179000Y-115951000D01*
X35179000Y-112040226D01*
X36300287Y-113161513D01*
X36506295Y-113299164D01*
X36506296Y-113299164D01*
X36749300Y-113347500D01*
X37298593Y-113347500D01*
X37295028Y-113365280D01*
X37295028Y-113964720D01*
X37329844Y-114144167D01*
X37295028Y-114317780D01*
X37295028Y-114917220D01*
X37332610Y-115110919D01*
X37444441Y-115281162D01*
X37613268Y-115395121D01*
X37812980Y-115435172D01*
X38813740Y-115435172D01*
X39007439Y-115397590D01*
X39177682Y-115285759D01*
X39291641Y-115116932D01*
X39331692Y-114917220D01*
X39331692Y-114449197D01*
X39408308Y-114525813D01*
X39408308Y-114917220D01*
X39445890Y-115110919D01*
X39557721Y-115281162D01*
X39726548Y-115395121D01*
X39926260Y-115435172D01*
X40927020Y-115435172D01*
X41120719Y-115397590D01*
X41290962Y-115285759D01*
X41404921Y-115116932D01*
X41444972Y-114917220D01*
X41444972Y-114525813D01*
X41573860Y-114396925D01*
X41690020Y-114116490D01*
X41690020Y-113856250D01*
X41499270Y-113665500D01*
X40427140Y-113665500D01*
X40427140Y-113685500D01*
X40426140Y-113685500D01*
X40426140Y-113665500D01*
X40406140Y-113665500D01*
X40406140Y-113664500D01*
X40426140Y-113664500D01*
X40426140Y-113644500D01*
X40427140Y-113644500D01*
X40427140Y-113664500D01*
X41499270Y-113664500D01*
X41690020Y-113473750D01*
X41690020Y-113213510D01*
X41573860Y-112933075D01*
X41444972Y-112804187D01*
X41444972Y-112412780D01*
X41422658Y-112297773D01*
X41656273Y-112394779D01*
X42161510Y-112395220D01*
X42628458Y-112202282D01*
X42986026Y-111845337D01*
X43021460Y-111760000D01*
X45878234Y-111760000D01*
X45912718Y-111843458D01*
X46269663Y-112201026D01*
X46736273Y-112394779D01*
X47241510Y-112395220D01*
X47708458Y-112202282D01*
X47927421Y-111983700D01*
X51132715Y-111983700D01*
X51349663Y-112201026D01*
X51816273Y-112394779D01*
X52321510Y-112395220D01*
X52788458Y-112202282D01*
X53146026Y-111845337D01*
X53181460Y-111760000D01*
X56038234Y-111760000D01*
X56072718Y-111843458D01*
X56429663Y-112201026D01*
X56896273Y-112394779D01*
X57401510Y-112395220D01*
X57486908Y-112359934D01*
X58644487Y-113517513D01*
X58850496Y-113655164D01*
X59093500Y-113703500D01*
X70855900Y-113703500D01*
X71098904Y-113655164D01*
X71304913Y-113517513D01*
X72370513Y-112451913D01*
X72508164Y-112245904D01*
X72556500Y-112002900D01*
X72556500Y-110448231D01*
X72575020Y-110455922D01*
X72982990Y-110456278D01*
X73360040Y-110300484D01*
X73558293Y-110102576D01*
X73659761Y-110257042D01*
X73803576Y-110354118D01*
X73596095Y-110440060D01*
X73381460Y-110654695D01*
X73265300Y-110935130D01*
X73265300Y-111695750D01*
X73456050Y-111886500D01*
X74929500Y-111886500D01*
X74929500Y-111866500D01*
X74930500Y-111866500D01*
X74930500Y-111886500D01*
X76403950Y-111886500D01*
X76594700Y-111695750D01*
X76594700Y-111083033D01*
X76784830Y-111273495D01*
X77228660Y-111457790D01*
X77709232Y-111458209D01*
X78153383Y-111274690D01*
X78493495Y-110935170D01*
X78677790Y-110491340D01*
X78678209Y-110010768D01*
X78494690Y-109566617D01*
X78155170Y-109226505D01*
X77711340Y-109042210D01*
X77230768Y-109041791D01*
X76786617Y-109225310D01*
X76446505Y-109564830D01*
X76349652Y-109798077D01*
X76349652Y-108292900D01*
X76312070Y-108099201D01*
X76200239Y-107928958D01*
X76031412Y-107814999D01*
X75831700Y-107774948D01*
X74028300Y-107774948D01*
X73834601Y-107812530D01*
X73664358Y-107924361D01*
X73550399Y-108093188D01*
X73510348Y-108292900D01*
X73510348Y-108485181D01*
X73403995Y-108506336D01*
X73336601Y-108551367D01*
X72984780Y-108405278D01*
X72576810Y-108404922D01*
X72199760Y-108560716D01*
X71911030Y-108848942D01*
X71834643Y-109032900D01*
X69990700Y-109032900D01*
X69747696Y-109081236D01*
X69541687Y-109218887D01*
X69229216Y-109531358D01*
X67929760Y-109531358D01*
X67736061Y-109568940D01*
X67594427Y-109661978D01*
X67575840Y-109617105D01*
X67361205Y-109402470D01*
X67080770Y-109286310D01*
X66470010Y-109286310D01*
X66279260Y-109477060D01*
X66279260Y-110949240D01*
X66299260Y-110949240D01*
X66299260Y-110950240D01*
X66279260Y-110950240D01*
X66279260Y-110970240D01*
X66278260Y-110970240D01*
X66278260Y-110950240D01*
X66278260Y-110949240D01*
X66278260Y-109477060D01*
X66087510Y-109286310D01*
X65476750Y-109286310D01*
X65196315Y-109402470D01*
X64981680Y-109617105D01*
X64865520Y-109897540D01*
X64865520Y-110201080D01*
X64865520Y-110758490D01*
X65056270Y-110949240D01*
X66278260Y-110949240D01*
X66278260Y-110950240D01*
X65056270Y-110950240D01*
X64865520Y-111140990D01*
X64865520Y-111596500D01*
X64120526Y-111596500D01*
X63962013Y-111437987D01*
X63756004Y-111300336D01*
X63649652Y-111279181D01*
X63649652Y-111086900D01*
X63612070Y-110893201D01*
X63500239Y-110722958D01*
X63356423Y-110625881D01*
X63563905Y-110539940D01*
X63778540Y-110325305D01*
X63894700Y-110044870D01*
X63894700Y-109284250D01*
X63703950Y-109093500D01*
X62230500Y-109093500D01*
X62230500Y-109113500D01*
X62229500Y-109113500D01*
X62229500Y-109093500D01*
X62209500Y-109093500D01*
X62209500Y-109092500D01*
X62229500Y-109092500D01*
X62229500Y-109072500D01*
X62230500Y-109072500D01*
X62230500Y-109092500D01*
X63703950Y-109092500D01*
X63894700Y-108901750D01*
X63894700Y-108141130D01*
X63778540Y-107860695D01*
X63701285Y-107783440D01*
X65052426Y-106432300D01*
X65776974Y-106432300D01*
X66775087Y-107430413D01*
X66981095Y-107568064D01*
X66981096Y-107568064D01*
X67224100Y-107616400D01*
X82487700Y-107616400D01*
X82730704Y-107568064D01*
X82936713Y-107430413D01*
X83861926Y-106505200D01*
X84609092Y-106505200D01*
X84589828Y-106601260D01*
X84589828Y-107602020D01*
X84627410Y-107795719D01*
X84739241Y-107965962D01*
X84908068Y-108079921D01*
X85107780Y-108119972D01*
X85499187Y-108119972D01*
X85628075Y-108248860D01*
X85908510Y-108365020D01*
X86168750Y-108365020D01*
X86359500Y-108174270D01*
X86359500Y-107102140D01*
X86339500Y-107102140D01*
X86339500Y-107101140D01*
X86359500Y-107101140D01*
X86359500Y-107081140D01*
X86360500Y-107081140D01*
X86360500Y-107101140D01*
X86380500Y-107101140D01*
X86380500Y-107102140D01*
X86360500Y-107102140D01*
X86360500Y-108174270D01*
X86551250Y-108365020D01*
X86811490Y-108365020D01*
X87091925Y-108248860D01*
X87220813Y-108119972D01*
X87612220Y-108119972D01*
X87805919Y-108082390D01*
X87976162Y-107970559D01*
X88090121Y-107801732D01*
X88130172Y-107602020D01*
X88130172Y-106601260D01*
X88111534Y-106505200D01*
X88236673Y-106505200D01*
X89207587Y-107476113D01*
X89413596Y-107613764D01*
X89656600Y-107662101D01*
X89656600Y-107662100D01*
X89656605Y-107662100D01*
X99090300Y-107662100D01*
X99333304Y-107613764D01*
X99539313Y-107476113D01*
X101600000Y-105415426D01*
X103614987Y-107430413D01*
X103820996Y-107568064D01*
X104064000Y-107616400D01*
X117200700Y-107616400D01*
X117443704Y-107568064D01*
X117649713Y-107430413D01*
X119380000Y-105700126D01*
X120006287Y-106326413D01*
X120181472Y-106443468D01*
X120149828Y-106601260D01*
X120149828Y-107602020D01*
X120187410Y-107795719D01*
X120299241Y-107965962D01*
X120468068Y-108079921D01*
X120667780Y-108119972D01*
X121059187Y-108119972D01*
X121188075Y-108248860D01*
X121468510Y-108365020D01*
X121728750Y-108365020D01*
X121919500Y-108174270D01*
X121919500Y-107102140D01*
X121899500Y-107102140D01*
X121899500Y-107101140D01*
X121919500Y-107101140D01*
X121919500Y-107081140D01*
X121920500Y-107081140D01*
X121920500Y-107101140D01*
X121940500Y-107101140D01*
X121940500Y-107102140D01*
X121920500Y-107102140D01*
X121920500Y-108174270D01*
X122111250Y-108365020D01*
X122371490Y-108365020D01*
X122651925Y-108248860D01*
X122780813Y-108119972D01*
X123172220Y-108119972D01*
X123365919Y-108082390D01*
X123536162Y-107970559D01*
X123650121Y-107801732D01*
X123690172Y-107602020D01*
X123690172Y-106601260D01*
X123672931Y-106512400D01*
X124783474Y-106512400D01*
X127813087Y-109542013D01*
X128019096Y-109679664D01*
X128262100Y-109728000D01*
X129718750Y-109728000D01*
X129602210Y-110008660D01*
X129601791Y-110489232D01*
X129785310Y-110933383D01*
X130124830Y-111273495D01*
X130568660Y-111457790D01*
X131049232Y-111458209D01*
X131493383Y-111274690D01*
X131685300Y-111083107D01*
X131685300Y-111695750D01*
X131876050Y-111886500D01*
X133349500Y-111886500D01*
X133349500Y-111866500D01*
X133350500Y-111866500D01*
X133350500Y-111886500D01*
X134823950Y-111886500D01*
X135014700Y-111695750D01*
X135014700Y-110935130D01*
X134898540Y-110654695D01*
X134683905Y-110440060D01*
X134475463Y-110353720D01*
X134615642Y-110261639D01*
X134729601Y-110092812D01*
X134769652Y-109893100D01*
X134769652Y-109728000D01*
X136055745Y-109728000D01*
X135985520Y-109897540D01*
X135985520Y-110201080D01*
X135985520Y-110758490D01*
X136176270Y-110949240D01*
X137398260Y-110949240D01*
X137398260Y-110929240D01*
X137399260Y-110929240D01*
X137399260Y-110949240D01*
X137419260Y-110949240D01*
X137419260Y-110950240D01*
X137399260Y-110950240D01*
X137399260Y-112422420D01*
X137590010Y-112613170D01*
X138200770Y-112613170D01*
X138481205Y-112497010D01*
X138695840Y-112282375D01*
X138714742Y-112236739D01*
X138850048Y-112328071D01*
X139049760Y-112368122D01*
X140350240Y-112368122D01*
X140543939Y-112330540D01*
X140714182Y-112218709D01*
X140828141Y-112049882D01*
X140850329Y-111939239D01*
X140870630Y-112043869D01*
X140982461Y-112214112D01*
X141151288Y-112328071D01*
X141351000Y-112368122D01*
X142651480Y-112368122D01*
X142845179Y-112330540D01*
X143015422Y-112218709D01*
X143129381Y-112049882D01*
X143169432Y-111850170D01*
X143169432Y-111557502D01*
X143275704Y-111536364D01*
X143481713Y-111398713D01*
X143619364Y-111192704D01*
X143632782Y-111125243D01*
X144669237Y-110088788D01*
X144779761Y-110257042D01*
X144923576Y-110354118D01*
X144716095Y-110440060D01*
X144501460Y-110654695D01*
X144385300Y-110935130D01*
X144385300Y-111695750D01*
X144576050Y-111886500D01*
X146049500Y-111886500D01*
X146049500Y-111866500D01*
X146050500Y-111866500D01*
X146050500Y-111886500D01*
X147523950Y-111886500D01*
X147714700Y-111695750D01*
X147714700Y-111083033D01*
X147904830Y-111273495D01*
X148348660Y-111457790D01*
X148829232Y-111458209D01*
X149273383Y-111274690D01*
X149613495Y-110935170D01*
X149739262Y-110632288D01*
X149894850Y-110787876D01*
X149860221Y-110871273D01*
X149859780Y-111376510D01*
X150052718Y-111843458D01*
X150409663Y-112201026D01*
X150876273Y-112394779D01*
X151381510Y-112395220D01*
X151848458Y-112202282D01*
X152206026Y-111845337D01*
X152241460Y-111760000D01*
X155098234Y-111760000D01*
X155132718Y-111843458D01*
X155489663Y-112201026D01*
X155956273Y-112394779D01*
X156461510Y-112395220D01*
X156928458Y-112202282D01*
X157286026Y-111845337D01*
X157321460Y-111760000D01*
X160178234Y-111760000D01*
X160212718Y-111843458D01*
X160569663Y-112201026D01*
X161036273Y-112394779D01*
X161541510Y-112395220D01*
X161982034Y-112213200D01*
X165678981Y-112213200D01*
X166116273Y-112394779D01*
X166621510Y-112395220D01*
X166858158Y-112297439D01*
X166835028Y-112412780D01*
X166835028Y-112804187D01*
X166706140Y-112933075D01*
X166589980Y-113213510D01*
X166589980Y-113473750D01*
X166780730Y-113664500D01*
X167852860Y-113664500D01*
X167852860Y-113644500D01*
X167853860Y-113644500D01*
X167853860Y-113664500D01*
X167873860Y-113664500D01*
X167873860Y-113665500D01*
X167853860Y-113665500D01*
X167853860Y-113685500D01*
X167852860Y-113685500D01*
X167852860Y-113665500D01*
X166780730Y-113665500D01*
X166589980Y-113856250D01*
X166589980Y-114116490D01*
X166706140Y-114396925D01*
X166835028Y-114525813D01*
X166835028Y-114917220D01*
X166872610Y-115110919D01*
X166984441Y-115281162D01*
X167153268Y-115395121D01*
X167352980Y-115435172D01*
X168353740Y-115435172D01*
X168547439Y-115397590D01*
X168717682Y-115285759D01*
X168831641Y-115116932D01*
X168871692Y-114917220D01*
X168871692Y-114525813D01*
X168948308Y-114449197D01*
X168948308Y-114917220D01*
X168985890Y-115110919D01*
X169097721Y-115281162D01*
X169266548Y-115395121D01*
X169466260Y-115435172D01*
X170174566Y-115435172D01*
X170174522Y-115486190D01*
X170330316Y-115863240D01*
X170417922Y-115951000D01*
G36*
X173101000Y-95793203D02*
X172866511Y-95442016D01*
X172371874Y-95111275D01*
X171788320Y-94995000D01*
X171450500Y-94995000D01*
X171450500Y-96519500D01*
X171470500Y-96519500D01*
X171470500Y-96520500D01*
X171450500Y-96520500D01*
X171450500Y-96540500D01*
X171449500Y-96540500D01*
X171449500Y-96520500D01*
X171449500Y-96519500D01*
X171449500Y-94995000D01*
X171111680Y-94995000D01*
X170528126Y-95111275D01*
X170033489Y-95442016D01*
X169703073Y-95936870D01*
X169606033Y-96280944D01*
X169777930Y-96519500D01*
X171449500Y-96519500D01*
X171449500Y-96520500D01*
X169777930Y-96520500D01*
X169606033Y-96759056D01*
X169703073Y-97103130D01*
X170033489Y-97597984D01*
X170528126Y-97928725D01*
X170530907Y-97929279D01*
X170182655Y-98161974D01*
X169907354Y-98573992D01*
X169810681Y-99060000D01*
X169907354Y-99546008D01*
X170182655Y-99958026D01*
X170594673Y-100233327D01*
X171080681Y-100330000D01*
X170594673Y-100426673D01*
X170182655Y-100701974D01*
X169907354Y-101113992D01*
X169823371Y-101536200D01*
X168685426Y-101536200D01*
X168300213Y-101150987D01*
X168094204Y-101013336D01*
X167851200Y-100965000D01*
X167813092Y-100965000D01*
X167637345Y-100701974D01*
X167225327Y-100426673D01*
X166739319Y-100330000D01*
X167225327Y-100233327D01*
X167637345Y-99958026D01*
X167912646Y-99546008D01*
X168009319Y-99060000D01*
X167912646Y-98573992D01*
X167637345Y-98161974D01*
X167289092Y-97929279D01*
X167291874Y-97928725D01*
X167786511Y-97597984D01*
X168116927Y-97103130D01*
X168213967Y-96759056D01*
X168213967Y-96280944D01*
X168116927Y-95936870D01*
X167786511Y-95442016D01*
X167291874Y-95111275D01*
X166708320Y-94995000D01*
X166370500Y-94995000D01*
X166370500Y-96519500D01*
X168042070Y-96519500D01*
X168213967Y-96280944D01*
X168213967Y-96759056D01*
X168042070Y-96520500D01*
X166370500Y-96520500D01*
X166370500Y-96540500D01*
X166369500Y-96540500D01*
X166369500Y-96520500D01*
X166369500Y-96519500D01*
X166369500Y-94995000D01*
X166031680Y-94995000D01*
X165448126Y-95111275D01*
X165037882Y-95385586D01*
X165038209Y-95010768D01*
X164854690Y-94566617D01*
X164515170Y-94226505D01*
X164071340Y-94042210D01*
X163590768Y-94041791D01*
X163146617Y-94225310D01*
X162806505Y-94564830D01*
X162622210Y-95008660D01*
X162621881Y-95385428D01*
X162211874Y-95111275D01*
X161628320Y-94995000D01*
X161290500Y-94995000D01*
X161290500Y-96519500D01*
X162962070Y-96519500D01*
X163133967Y-96280944D01*
X163126761Y-96255394D01*
X163144830Y-96273495D01*
X163588660Y-96457790D01*
X164069232Y-96458209D01*
X164513383Y-96274690D01*
X164533445Y-96254662D01*
X164526033Y-96280944D01*
X164697930Y-96519500D01*
X166369500Y-96519500D01*
X166369500Y-96520500D01*
X164697930Y-96520500D01*
X164526033Y-96759056D01*
X164623073Y-97103130D01*
X164953489Y-97597984D01*
X165448126Y-97928725D01*
X165450907Y-97929279D01*
X165102655Y-98161974D01*
X164827354Y-98573992D01*
X164730681Y-99060000D01*
X164827354Y-99546008D01*
X165102655Y-99958026D01*
X165514673Y-100233327D01*
X166000681Y-100330000D01*
X165514673Y-100426673D01*
X165102655Y-100701974D01*
X165038209Y-100798424D01*
X165038209Y-100090768D01*
X164854690Y-99646617D01*
X164515170Y-99306505D01*
X164071340Y-99122210D01*
X163590768Y-99121791D01*
X163146617Y-99305310D01*
X162806505Y-99644830D01*
X162622210Y-100088660D01*
X162621791Y-100569232D01*
X162805310Y-101013383D01*
X163144830Y-101353495D01*
X163588660Y-101537790D01*
X164069232Y-101538209D01*
X164513383Y-101354690D01*
X164853495Y-101015170D01*
X165037790Y-100571340D01*
X165038209Y-100090768D01*
X165038209Y-100798424D01*
X164827354Y-101113992D01*
X164730681Y-101600000D01*
X164827354Y-102086008D01*
X165011498Y-102361600D01*
X162648501Y-102361600D01*
X162832646Y-102086008D01*
X162929319Y-101600000D01*
X162832646Y-101113992D01*
X162557345Y-100701974D01*
X162145327Y-100426673D01*
X161659319Y-100330000D01*
X162145327Y-100233327D01*
X162557345Y-99958026D01*
X162832646Y-99546008D01*
X162929319Y-99060000D01*
X162832646Y-98573992D01*
X162557345Y-98161974D01*
X162209092Y-97929279D01*
X162211874Y-97928725D01*
X162706511Y-97597984D01*
X163036927Y-97103130D01*
X163133967Y-96759056D01*
X162962070Y-96520500D01*
X161290500Y-96520500D01*
X161290500Y-96540500D01*
X161289500Y-96540500D01*
X161289500Y-96520500D01*
X161289500Y-96519500D01*
X161289500Y-94995000D01*
X160951680Y-94995000D01*
X160368126Y-95111275D01*
X159873489Y-95442016D01*
X159543073Y-95936870D01*
X159446033Y-96280944D01*
X159617930Y-96519500D01*
X161289500Y-96519500D01*
X161289500Y-96520500D01*
X159617930Y-96520500D01*
X159446033Y-96759056D01*
X159543073Y-97103130D01*
X159873489Y-97597984D01*
X160368126Y-97928725D01*
X160370907Y-97929279D01*
X160022655Y-98161974D01*
X159846907Y-98425000D01*
X157653092Y-98425000D01*
X157477345Y-98161974D01*
X157129092Y-97929279D01*
X157131874Y-97928725D01*
X157626511Y-97597984D01*
X157956927Y-97103130D01*
X158053967Y-96759056D01*
X158053967Y-96280944D01*
X157956927Y-95936870D01*
X157626511Y-95442016D01*
X157131874Y-95111275D01*
X156548320Y-94995000D01*
X156210500Y-94995000D01*
X156210500Y-96519500D01*
X157882070Y-96519500D01*
X158053967Y-96280944D01*
X158053967Y-96759056D01*
X157882070Y-96520500D01*
X156210500Y-96520500D01*
X156210500Y-96540500D01*
X156209500Y-96540500D01*
X156209500Y-96520500D01*
X156209500Y-96519500D01*
X156209500Y-94995000D01*
X155871680Y-94995000D01*
X155288126Y-95111275D01*
X154793489Y-95442016D01*
X154463073Y-95936870D01*
X154366033Y-96280944D01*
X154537930Y-96519500D01*
X156209500Y-96519500D01*
X156209500Y-96520500D01*
X154537930Y-96520500D01*
X154366033Y-96759056D01*
X154463073Y-97103130D01*
X154793489Y-97597984D01*
X155288126Y-97928725D01*
X155290907Y-97929279D01*
X154942655Y-98161974D01*
X154766907Y-98425000D01*
X152573092Y-98425000D01*
X152397345Y-98161974D01*
X152049092Y-97929279D01*
X152051874Y-97928725D01*
X152546511Y-97597984D01*
X152876927Y-97103130D01*
X152973967Y-96759056D01*
X152973967Y-96280944D01*
X152876927Y-95936870D01*
X152546511Y-95442016D01*
X152051874Y-95111275D01*
X151468320Y-94995000D01*
X151130500Y-94995000D01*
X151130500Y-96519500D01*
X152802070Y-96519500D01*
X152973967Y-96280944D01*
X152973967Y-96759056D01*
X152802070Y-96520500D01*
X151130500Y-96520500D01*
X151130500Y-96540500D01*
X151129500Y-96540500D01*
X151129500Y-96520500D01*
X151129500Y-96519500D01*
X151129500Y-94995000D01*
X150791680Y-94995000D01*
X150208126Y-95111275D01*
X149797882Y-95385586D01*
X149798209Y-95010768D01*
X149614690Y-94566617D01*
X149275170Y-94226505D01*
X148831340Y-94042210D01*
X148350768Y-94041791D01*
X147906617Y-94225310D01*
X147566505Y-94564830D01*
X147382210Y-95008660D01*
X147381791Y-95489232D01*
X147565310Y-95933383D01*
X147904830Y-96273495D01*
X148348660Y-96457790D01*
X148829232Y-96458209D01*
X149273383Y-96274690D01*
X149293445Y-96254662D01*
X149286033Y-96280944D01*
X149457930Y-96519500D01*
X151129500Y-96519500D01*
X151129500Y-96520500D01*
X149457930Y-96520500D01*
X149286033Y-96759056D01*
X149383073Y-97103130D01*
X149713489Y-97597984D01*
X150208126Y-97928725D01*
X150210907Y-97929279D01*
X149862655Y-98161974D01*
X149776996Y-98290170D01*
X145252313Y-93765487D01*
X145046304Y-93627836D01*
X144901334Y-93599000D01*
X173101000Y-93599000D01*
X173101000Y-95793203D01*
X173101000Y-95793203D01*
G37*
X173101000Y-95793203D02*
X172866511Y-95442016D01*
X172371874Y-95111275D01*
X171788320Y-94995000D01*
X171450500Y-94995000D01*
X171450500Y-96519500D01*
X171470500Y-96519500D01*
X171470500Y-96520500D01*
X171450500Y-96520500D01*
X171450500Y-96540500D01*
X171449500Y-96540500D01*
X171449500Y-96520500D01*
X171449500Y-96519500D01*
X171449500Y-94995000D01*
X171111680Y-94995000D01*
X170528126Y-95111275D01*
X170033489Y-95442016D01*
X169703073Y-95936870D01*
X169606033Y-96280944D01*
X169777930Y-96519500D01*
X171449500Y-96519500D01*
X171449500Y-96520500D01*
X169777930Y-96520500D01*
X169606033Y-96759056D01*
X169703073Y-97103130D01*
X170033489Y-97597984D01*
X170528126Y-97928725D01*
X170530907Y-97929279D01*
X170182655Y-98161974D01*
X169907354Y-98573992D01*
X169810681Y-99060000D01*
X169907354Y-99546008D01*
X170182655Y-99958026D01*
X170594673Y-100233327D01*
X171080681Y-100330000D01*
X170594673Y-100426673D01*
X170182655Y-100701974D01*
X169907354Y-101113992D01*
X169823371Y-101536200D01*
X168685426Y-101536200D01*
X168300213Y-101150987D01*
X168094204Y-101013336D01*
X167851200Y-100965000D01*
X167813092Y-100965000D01*
X167637345Y-100701974D01*
X167225327Y-100426673D01*
X166739319Y-100330000D01*
X167225327Y-100233327D01*
X167637345Y-99958026D01*
X167912646Y-99546008D01*
X168009319Y-99060000D01*
X167912646Y-98573992D01*
X167637345Y-98161974D01*
X167289092Y-97929279D01*
X167291874Y-97928725D01*
X167786511Y-97597984D01*
X168116927Y-97103130D01*
X168213967Y-96759056D01*
X168213967Y-96280944D01*
X168116927Y-95936870D01*
X167786511Y-95442016D01*
X167291874Y-95111275D01*
X166708320Y-94995000D01*
X166370500Y-94995000D01*
X166370500Y-96519500D01*
X168042070Y-96519500D01*
X168213967Y-96280944D01*
X168213967Y-96759056D01*
X168042070Y-96520500D01*
X166370500Y-96520500D01*
X166370500Y-96540500D01*
X166369500Y-96540500D01*
X166369500Y-96520500D01*
X166369500Y-96519500D01*
X166369500Y-94995000D01*
X166031680Y-94995000D01*
X165448126Y-95111275D01*
X165037882Y-95385586D01*
X165038209Y-95010768D01*
X164854690Y-94566617D01*
X164515170Y-94226505D01*
X164071340Y-94042210D01*
X163590768Y-94041791D01*
X163146617Y-94225310D01*
X162806505Y-94564830D01*
X162622210Y-95008660D01*
X162621881Y-95385428D01*
X162211874Y-95111275D01*
X161628320Y-94995000D01*
X161290500Y-94995000D01*
X161290500Y-96519500D01*
X162962070Y-96519500D01*
X163133967Y-96280944D01*
X163126761Y-96255394D01*
X163144830Y-96273495D01*
X163588660Y-96457790D01*
X164069232Y-96458209D01*
X164513383Y-96274690D01*
X164533445Y-96254662D01*
X164526033Y-96280944D01*
X164697930Y-96519500D01*
X166369500Y-96519500D01*
X166369500Y-96520500D01*
X164697930Y-96520500D01*
X164526033Y-96759056D01*
X164623073Y-97103130D01*
X164953489Y-97597984D01*
X165448126Y-97928725D01*
X165450907Y-97929279D01*
X165102655Y-98161974D01*
X164827354Y-98573992D01*
X164730681Y-99060000D01*
X164827354Y-99546008D01*
X165102655Y-99958026D01*
X165514673Y-100233327D01*
X166000681Y-100330000D01*
X165514673Y-100426673D01*
X165102655Y-100701974D01*
X165038209Y-100798424D01*
X165038209Y-100090768D01*
X164854690Y-99646617D01*
X164515170Y-99306505D01*
X164071340Y-99122210D01*
X163590768Y-99121791D01*
X163146617Y-99305310D01*
X162806505Y-99644830D01*
X162622210Y-100088660D01*
X162621791Y-100569232D01*
X162805310Y-101013383D01*
X163144830Y-101353495D01*
X163588660Y-101537790D01*
X164069232Y-101538209D01*
X164513383Y-101354690D01*
X164853495Y-101015170D01*
X165037790Y-100571340D01*
X165038209Y-100090768D01*
X165038209Y-100798424D01*
X164827354Y-101113992D01*
X164730681Y-101600000D01*
X164827354Y-102086008D01*
X165011498Y-102361600D01*
X162648501Y-102361600D01*
X162832646Y-102086008D01*
X162929319Y-101600000D01*
X162832646Y-101113992D01*
X162557345Y-100701974D01*
X162145327Y-100426673D01*
X161659319Y-100330000D01*
X162145327Y-100233327D01*
X162557345Y-99958026D01*
X162832646Y-99546008D01*
X162929319Y-99060000D01*
X162832646Y-98573992D01*
X162557345Y-98161974D01*
X162209092Y-97929279D01*
X162211874Y-97928725D01*
X162706511Y-97597984D01*
X163036927Y-97103130D01*
X163133967Y-96759056D01*
X162962070Y-96520500D01*
X161290500Y-96520500D01*
X161290500Y-96540500D01*
X161289500Y-96540500D01*
X161289500Y-96520500D01*
X161289500Y-96519500D01*
X161289500Y-94995000D01*
X160951680Y-94995000D01*
X160368126Y-95111275D01*
X159873489Y-95442016D01*
X159543073Y-95936870D01*
X159446033Y-96280944D01*
X159617930Y-96519500D01*
X161289500Y-96519500D01*
X161289500Y-96520500D01*
X159617930Y-96520500D01*
X159446033Y-96759056D01*
X159543073Y-97103130D01*
X159873489Y-97597984D01*
X160368126Y-97928725D01*
X160370907Y-97929279D01*
X160022655Y-98161974D01*
X159846907Y-98425000D01*
X157653092Y-98425000D01*
X157477345Y-98161974D01*
X157129092Y-97929279D01*
X157131874Y-97928725D01*
X157626511Y-97597984D01*
X157956927Y-97103130D01*
X158053967Y-96759056D01*
X158053967Y-96280944D01*
X157956927Y-95936870D01*
X157626511Y-95442016D01*
X157131874Y-95111275D01*
X156548320Y-94995000D01*
X156210500Y-94995000D01*
X156210500Y-96519500D01*
X157882070Y-96519500D01*
X158053967Y-96280944D01*
X158053967Y-96759056D01*
X157882070Y-96520500D01*
X156210500Y-96520500D01*
X156210500Y-96540500D01*
X156209500Y-96540500D01*
X156209500Y-96520500D01*
X156209500Y-96519500D01*
X156209500Y-94995000D01*
X155871680Y-94995000D01*
X155288126Y-95111275D01*
X154793489Y-95442016D01*
X154463073Y-95936870D01*
X154366033Y-96280944D01*
X154537930Y-96519500D01*
X156209500Y-96519500D01*
X156209500Y-96520500D01*
X154537930Y-96520500D01*
X154366033Y-96759056D01*
X154463073Y-97103130D01*
X154793489Y-97597984D01*
X155288126Y-97928725D01*
X155290907Y-97929279D01*
X154942655Y-98161974D01*
X154766907Y-98425000D01*
X152573092Y-98425000D01*
X152397345Y-98161974D01*
X152049092Y-97929279D01*
X152051874Y-97928725D01*
X152546511Y-97597984D01*
X152876927Y-97103130D01*
X152973967Y-96759056D01*
X152973967Y-96280944D01*
X152876927Y-95936870D01*
X152546511Y-95442016D01*
X152051874Y-95111275D01*
X151468320Y-94995000D01*
X151130500Y-94995000D01*
X151130500Y-96519500D01*
X152802070Y-96519500D01*
X152973967Y-96280944D01*
X152973967Y-96759056D01*
X152802070Y-96520500D01*
X151130500Y-96520500D01*
X151130500Y-96540500D01*
X151129500Y-96540500D01*
X151129500Y-96520500D01*
X151129500Y-96519500D01*
X151129500Y-94995000D01*
X150791680Y-94995000D01*
X150208126Y-95111275D01*
X149797882Y-95385586D01*
X149798209Y-95010768D01*
X149614690Y-94566617D01*
X149275170Y-94226505D01*
X148831340Y-94042210D01*
X148350768Y-94041791D01*
X147906617Y-94225310D01*
X147566505Y-94564830D01*
X147382210Y-95008660D01*
X147381791Y-95489232D01*
X147565310Y-95933383D01*
X147904830Y-96273495D01*
X148348660Y-96457790D01*
X148829232Y-96458209D01*
X149273383Y-96274690D01*
X149293445Y-96254662D01*
X149286033Y-96280944D01*
X149457930Y-96519500D01*
X151129500Y-96519500D01*
X151129500Y-96520500D01*
X149457930Y-96520500D01*
X149286033Y-96759056D01*
X149383073Y-97103130D01*
X149713489Y-97597984D01*
X150208126Y-97928725D01*
X150210907Y-97929279D01*
X149862655Y-98161974D01*
X149776996Y-98290170D01*
X145252313Y-93765487D01*
X145046304Y-93627836D01*
X144901334Y-93599000D01*
X173101000Y-93599000D01*
X173101000Y-95793203D01*
M02*
