G04 #@! TF.FileFunction,Legend,Bot*
%FSLAX46Y46*%
G04 Gerber Fmt 4.6, Leading zero omitted, Abs format (unit mm)*
G04 Created by KiCad (PCBNEW 0.201509030901+6151~29~ubuntu14.04.1-product) date dom 13 set 2015 15:09:35 CEST*
%MOMM*%
G01*
G04 APERTURE LIST*
%ADD10C,0.100000*%
%ADD11C,0.160000*%
%ADD12C,0.200000*%
%ADD13C,0.150000*%
%ADD14C,0.304800*%
G04 APERTURE END LIST*
D10*
D11*
X171005333Y-103846381D02*
X170672000Y-104846381D01*
X170338666Y-103846381D01*
X169433904Y-104751143D02*
X169481523Y-104798762D01*
X169624380Y-104846381D01*
X169719618Y-104846381D01*
X169862476Y-104798762D01*
X169957714Y-104703524D01*
X170005333Y-104608286D01*
X170052952Y-104417810D01*
X170052952Y-104274952D01*
X170005333Y-104084476D01*
X169957714Y-103989238D01*
X169862476Y-103894000D01*
X169719618Y-103846381D01*
X169624380Y-103846381D01*
X169481523Y-103894000D01*
X169433904Y-103941619D01*
X168433904Y-104751143D02*
X168481523Y-104798762D01*
X168624380Y-104846381D01*
X168719618Y-104846381D01*
X168862476Y-104798762D01*
X168957714Y-104703524D01*
X169005333Y-104608286D01*
X169052952Y-104417810D01*
X169052952Y-104274952D01*
X169005333Y-104084476D01*
X168957714Y-103989238D01*
X168862476Y-103894000D01*
X168719618Y-103846381D01*
X168624380Y-103846381D01*
X168481523Y-103894000D01*
X168433904Y-103941619D01*
D12*
X39687333Y-103592381D02*
X39354000Y-104592381D01*
X39020666Y-103592381D01*
X38115904Y-104497143D02*
X38163523Y-104544762D01*
X38306380Y-104592381D01*
X38401618Y-104592381D01*
X38544476Y-104544762D01*
X38639714Y-104449524D01*
X38687333Y-104354286D01*
X38734952Y-104163810D01*
X38734952Y-104020952D01*
X38687333Y-103830476D01*
X38639714Y-103735238D01*
X38544476Y-103640000D01*
X38401618Y-103592381D01*
X38306380Y-103592381D01*
X38163523Y-103640000D01*
X38115904Y-103687619D01*
X37115904Y-104497143D02*
X37163523Y-104544762D01*
X37306380Y-104592381D01*
X37401618Y-104592381D01*
X37544476Y-104544762D01*
X37639714Y-104449524D01*
X37687333Y-104354286D01*
X37734952Y-104163810D01*
X37734952Y-104020952D01*
X37687333Y-103830476D01*
X37639714Y-103735238D01*
X37544476Y-103640000D01*
X37401618Y-103592381D01*
X37306380Y-103592381D01*
X37163523Y-103640000D01*
X37115904Y-103687619D01*
X39544476Y-102004762D02*
X39401619Y-102052381D01*
X39163523Y-102052381D01*
X39068285Y-102004762D01*
X39020666Y-101957143D01*
X38973047Y-101861905D01*
X38973047Y-101766667D01*
X39020666Y-101671429D01*
X39068285Y-101623810D01*
X39163523Y-101576190D01*
X39354000Y-101528571D01*
X39449238Y-101480952D01*
X39496857Y-101433333D01*
X39544476Y-101338095D01*
X39544476Y-101242857D01*
X39496857Y-101147619D01*
X39449238Y-101100000D01*
X39354000Y-101052381D01*
X39115904Y-101052381D01*
X38973047Y-101100000D01*
X37973047Y-101957143D02*
X38020666Y-102004762D01*
X38163523Y-102052381D01*
X38258761Y-102052381D01*
X38401619Y-102004762D01*
X38496857Y-101909524D01*
X38544476Y-101814286D01*
X38592095Y-101623810D01*
X38592095Y-101480952D01*
X38544476Y-101290476D01*
X38496857Y-101195238D01*
X38401619Y-101100000D01*
X38258761Y-101052381D01*
X38163523Y-101052381D01*
X38020666Y-101100000D01*
X37973047Y-101147619D01*
X37068285Y-102052381D02*
X37544476Y-102052381D01*
X37544476Y-101052381D01*
X171116476Y-102004762D02*
X170973619Y-102052381D01*
X170735523Y-102052381D01*
X170640285Y-102004762D01*
X170592666Y-101957143D01*
X170545047Y-101861905D01*
X170545047Y-101766667D01*
X170592666Y-101671429D01*
X170640285Y-101623810D01*
X170735523Y-101576190D01*
X170926000Y-101528571D01*
X171021238Y-101480952D01*
X171068857Y-101433333D01*
X171116476Y-101338095D01*
X171116476Y-101242857D01*
X171068857Y-101147619D01*
X171021238Y-101100000D01*
X170926000Y-101052381D01*
X170687904Y-101052381D01*
X170545047Y-101100000D01*
X169545047Y-101957143D02*
X169592666Y-102004762D01*
X169735523Y-102052381D01*
X169830761Y-102052381D01*
X169973619Y-102004762D01*
X170068857Y-101909524D01*
X170116476Y-101814286D01*
X170164095Y-101623810D01*
X170164095Y-101480952D01*
X170116476Y-101290476D01*
X170068857Y-101195238D01*
X169973619Y-101100000D01*
X169830761Y-101052381D01*
X169735523Y-101052381D01*
X169592666Y-101100000D01*
X169545047Y-101147619D01*
X168640285Y-102052381D02*
X169116476Y-102052381D01*
X169116476Y-101052381D01*
X170886286Y-99210762D02*
X170743429Y-99258381D01*
X170505333Y-99258381D01*
X170410095Y-99210762D01*
X170362476Y-99163143D01*
X170314857Y-99067905D01*
X170314857Y-98972667D01*
X170362476Y-98877429D01*
X170410095Y-98829810D01*
X170505333Y-98782190D01*
X170695810Y-98734571D01*
X170791048Y-98686952D01*
X170838667Y-98639333D01*
X170886286Y-98544095D01*
X170886286Y-98448857D01*
X170838667Y-98353619D01*
X170791048Y-98306000D01*
X170695810Y-98258381D01*
X170457714Y-98258381D01*
X170314857Y-98306000D01*
X169886286Y-99258381D02*
X169886286Y-98258381D01*
X169648191Y-98258381D01*
X169505333Y-98306000D01*
X169410095Y-98401238D01*
X169362476Y-98496476D01*
X169314857Y-98686952D01*
X169314857Y-98829810D01*
X169362476Y-99020286D01*
X169410095Y-99115524D01*
X169505333Y-99210762D01*
X169648191Y-99258381D01*
X169886286Y-99258381D01*
X168933905Y-98972667D02*
X168457714Y-98972667D01*
X169029143Y-99258381D02*
X168695810Y-98258381D01*
X168362476Y-99258381D01*
X39822286Y-99464762D02*
X39679429Y-99512381D01*
X39441333Y-99512381D01*
X39346095Y-99464762D01*
X39298476Y-99417143D01*
X39250857Y-99321905D01*
X39250857Y-99226667D01*
X39298476Y-99131429D01*
X39346095Y-99083810D01*
X39441333Y-99036190D01*
X39631810Y-98988571D01*
X39727048Y-98940952D01*
X39774667Y-98893333D01*
X39822286Y-98798095D01*
X39822286Y-98702857D01*
X39774667Y-98607619D01*
X39727048Y-98560000D01*
X39631810Y-98512381D01*
X39393714Y-98512381D01*
X39250857Y-98560000D01*
X38822286Y-99512381D02*
X38822286Y-98512381D01*
X38584191Y-98512381D01*
X38441333Y-98560000D01*
X38346095Y-98655238D01*
X38298476Y-98750476D01*
X38250857Y-98940952D01*
X38250857Y-99083810D01*
X38298476Y-99274286D01*
X38346095Y-99369524D01*
X38441333Y-99464762D01*
X38584191Y-99512381D01*
X38822286Y-99512381D01*
X37869905Y-99226667D02*
X37393714Y-99226667D01*
X37965143Y-99512381D02*
X37631810Y-98512381D01*
X37298476Y-99512381D01*
X170433904Y-95512000D02*
X170529142Y-95464381D01*
X170671999Y-95464381D01*
X170814857Y-95512000D01*
X170910095Y-95607238D01*
X170957714Y-95702476D01*
X171005333Y-95892952D01*
X171005333Y-96035810D01*
X170957714Y-96226286D01*
X170910095Y-96321524D01*
X170814857Y-96416762D01*
X170671999Y-96464381D01*
X170576761Y-96464381D01*
X170433904Y-96416762D01*
X170386285Y-96369143D01*
X170386285Y-96035810D01*
X170576761Y-96035810D01*
X169957714Y-96464381D02*
X169957714Y-95464381D01*
X169386285Y-96464381D01*
X169386285Y-95464381D01*
X168910095Y-96464381D02*
X168910095Y-95464381D01*
X168672000Y-95464381D01*
X168529142Y-95512000D01*
X168433904Y-95607238D01*
X168386285Y-95702476D01*
X168338666Y-95892952D01*
X168338666Y-96035810D01*
X168386285Y-96226286D01*
X168433904Y-96321524D01*
X168529142Y-96416762D01*
X168672000Y-96464381D01*
X168910095Y-96464381D01*
X39369904Y-96020000D02*
X39465142Y-95972381D01*
X39607999Y-95972381D01*
X39750857Y-96020000D01*
X39846095Y-96115238D01*
X39893714Y-96210476D01*
X39941333Y-96400952D01*
X39941333Y-96543810D01*
X39893714Y-96734286D01*
X39846095Y-96829524D01*
X39750857Y-96924762D01*
X39607999Y-96972381D01*
X39512761Y-96972381D01*
X39369904Y-96924762D01*
X39322285Y-96877143D01*
X39322285Y-96543810D01*
X39512761Y-96543810D01*
X38893714Y-96972381D02*
X38893714Y-95972381D01*
X38322285Y-96972381D01*
X38322285Y-95972381D01*
X37846095Y-96972381D02*
X37846095Y-95972381D01*
X37608000Y-95972381D01*
X37465142Y-96020000D01*
X37369904Y-96115238D01*
X37322285Y-96210476D01*
X37274666Y-96400952D01*
X37274666Y-96543810D01*
X37322285Y-96734286D01*
X37369904Y-96829524D01*
X37465142Y-96924762D01*
X37608000Y-96972381D01*
X37846095Y-96972381D01*
D13*
X93980000Y-112649000D02*
X78740000Y-112649000D01*
X78740000Y-112649000D02*
X78740000Y-94615000D01*
X78740000Y-94615000D02*
X93980000Y-94615000D01*
X93980000Y-94615000D02*
X93980000Y-112649000D01*
D14*
X152400000Y-102870000D02*
X149860000Y-102870000D01*
X149860000Y-95250000D02*
X149860000Y-105410000D01*
X152400000Y-105410000D02*
X152400000Y-95250000D01*
X149860000Y-105410000D02*
X152400000Y-105410000D01*
X152400000Y-95250000D02*
X149860000Y-95250000D01*
X157480000Y-102870000D02*
X154940000Y-102870000D01*
X154940000Y-95250000D02*
X154940000Y-105410000D01*
X157480000Y-105410000D02*
X157480000Y-95250000D01*
X154940000Y-105410000D02*
X157480000Y-105410000D01*
X157480000Y-95250000D02*
X154940000Y-95250000D01*
X162560000Y-102870000D02*
X160020000Y-102870000D01*
X160020000Y-95250000D02*
X160020000Y-105410000D01*
X162560000Y-105410000D02*
X162560000Y-95250000D01*
X160020000Y-105410000D02*
X162560000Y-105410000D01*
X162560000Y-95250000D02*
X160020000Y-95250000D01*
X167640000Y-102870000D02*
X165100000Y-102870000D01*
X165100000Y-95250000D02*
X165100000Y-105410000D01*
X167640000Y-105410000D02*
X167640000Y-95250000D01*
X165100000Y-105410000D02*
X167640000Y-105410000D01*
X167640000Y-95250000D02*
X165100000Y-95250000D01*
X174244000Y-102870000D02*
X171704000Y-102870000D01*
X171704000Y-95250000D02*
X171704000Y-105410000D01*
X174244000Y-105410000D02*
X174244000Y-95250000D01*
X171704000Y-105410000D02*
X174244000Y-105410000D01*
X174244000Y-95250000D02*
X171704000Y-95250000D01*
X58420000Y-102870000D02*
X55880000Y-102870000D01*
X55880000Y-95250000D02*
X55880000Y-105410000D01*
X58420000Y-105410000D02*
X58420000Y-95250000D01*
X55880000Y-105410000D02*
X58420000Y-105410000D01*
X58420000Y-95250000D02*
X55880000Y-95250000D01*
X53340000Y-102870000D02*
X50800000Y-102870000D01*
X50800000Y-95250000D02*
X50800000Y-105410000D01*
X53340000Y-105410000D02*
X53340000Y-95250000D01*
X50800000Y-105410000D02*
X53340000Y-105410000D01*
X53340000Y-95250000D02*
X50800000Y-95250000D01*
X48260000Y-102870000D02*
X45720000Y-102870000D01*
X45720000Y-95250000D02*
X45720000Y-105410000D01*
X48260000Y-105410000D02*
X48260000Y-95250000D01*
X45720000Y-105410000D02*
X48260000Y-105410000D01*
X48260000Y-95250000D02*
X45720000Y-95250000D01*
X43180000Y-102870000D02*
X40640000Y-102870000D01*
X40640000Y-95250000D02*
X40640000Y-105410000D01*
X43180000Y-105410000D02*
X43180000Y-95250000D01*
X40640000Y-105410000D02*
X43180000Y-105410000D01*
X43180000Y-95250000D02*
X40640000Y-95250000D01*
X36068000Y-102870000D02*
X33528000Y-102870000D01*
X33528000Y-95250000D02*
X33528000Y-105410000D01*
X36068000Y-105410000D02*
X36068000Y-95250000D01*
X33528000Y-105410000D02*
X36068000Y-105410000D01*
X36068000Y-95250000D02*
X33528000Y-95250000D01*
D13*
X76200000Y-112649000D02*
X60960000Y-112649000D01*
X60960000Y-112649000D02*
X60960000Y-94615000D01*
X60960000Y-94615000D02*
X76200000Y-94615000D01*
X76200000Y-94615000D02*
X76200000Y-112649000D01*
X111760000Y-112649000D02*
X96520000Y-112649000D01*
X96520000Y-112649000D02*
X96520000Y-94615000D01*
X96520000Y-94615000D02*
X111760000Y-94615000D01*
X111760000Y-94615000D02*
X111760000Y-112649000D01*
X129540000Y-112649000D02*
X114300000Y-112649000D01*
X114300000Y-112649000D02*
X114300000Y-94615000D01*
X114300000Y-94615000D02*
X129540000Y-94615000D01*
X129540000Y-94615000D02*
X129540000Y-112649000D01*
X147320000Y-112649000D02*
X132080000Y-112649000D01*
X132080000Y-112649000D02*
X132080000Y-94615000D01*
X132080000Y-94615000D02*
X147320000Y-94615000D01*
X147320000Y-94615000D02*
X147320000Y-112649000D01*
M02*
