G04 #@! TF.FileFunction,Copper,L1,Top,Signal*
%FSLAX46Y46*%
G04 Gerber Fmt 4.6, Leading zero omitted, Abs format (unit mm)*
G04 Created by KiCad (PCBNEW 4.0.6) date 08/13/17 20:11:31*
%MOMM*%
%LPD*%
G01*
G04 APERTURE LIST*
%ADD10C,0.100000*%
%ADD11C,2.100000*%
%ADD12R,2.500000X1.950000*%
%ADD13R,1.000000X1.250000*%
%ADD14R,1.250000X1.000000*%
%ADD15R,1.700000X1.700000*%
%ADD16C,1.700000*%
%ADD17C,0.600000*%
%ADD18C,0.400000*%
%ADD19C,0.250000*%
G04 APERTURE END LIST*
D10*
D11*
X161569400Y-67843400D03*
X161569400Y-70383400D03*
X161569400Y-72923400D03*
X161569400Y-75463400D03*
X161569400Y-78003400D03*
X161569400Y-80543400D03*
X161569400Y-83083400D03*
X161569400Y-85623400D03*
X161569400Y-88163400D03*
X161569400Y-65303400D03*
X159029400Y-65303400D03*
X156489400Y-65303400D03*
X153949400Y-65303400D03*
X151409400Y-65303400D03*
X148869400Y-65303400D03*
X146329400Y-65303400D03*
X143789400Y-65303400D03*
X141249400Y-65303400D03*
X141249400Y-67843400D03*
X141249400Y-70383400D03*
X141249400Y-72923400D03*
X141249400Y-75463400D03*
X141249400Y-78003400D03*
X141249400Y-80543400D03*
X141249400Y-83083400D03*
X141249400Y-85623400D03*
X141249400Y-88163400D03*
D12*
X158421000Y-87890000D03*
X158421000Y-84840000D03*
D13*
X156781000Y-82615000D03*
X158781000Y-82615000D03*
D14*
X158731000Y-78965000D03*
X158731000Y-80965000D03*
D10*
G36*
X149454134Y-68140188D02*
X149843042Y-67751280D01*
X150903702Y-68811940D01*
X150514794Y-69200848D01*
X149454134Y-68140188D01*
X149454134Y-68140188D01*
G37*
G36*
X148888449Y-68705874D02*
X149277357Y-68316966D01*
X150338017Y-69377626D01*
X149949109Y-69766534D01*
X148888449Y-68705874D01*
X148888449Y-68705874D01*
G37*
G36*
X148322764Y-69271559D02*
X148711672Y-68882651D01*
X149772332Y-69943311D01*
X149383424Y-70332219D01*
X148322764Y-69271559D01*
X148322764Y-69271559D01*
G37*
G36*
X147757078Y-69837244D02*
X148145986Y-69448336D01*
X149206646Y-70508996D01*
X148817738Y-70897904D01*
X147757078Y-69837244D01*
X147757078Y-69837244D01*
G37*
G36*
X147191393Y-70402930D02*
X147580301Y-70014022D01*
X148640961Y-71074682D01*
X148252053Y-71463590D01*
X147191393Y-70402930D01*
X147191393Y-70402930D01*
G37*
G36*
X146625707Y-70968615D02*
X147014615Y-70579707D01*
X148075275Y-71640367D01*
X147686367Y-72029275D01*
X146625707Y-70968615D01*
X146625707Y-70968615D01*
G37*
G36*
X146060022Y-71534301D02*
X146448930Y-71145393D01*
X147509590Y-72206053D01*
X147120682Y-72594961D01*
X146060022Y-71534301D01*
X146060022Y-71534301D01*
G37*
G36*
X145494336Y-72099986D02*
X145883244Y-71711078D01*
X146943904Y-72771738D01*
X146554996Y-73160646D01*
X145494336Y-72099986D01*
X145494336Y-72099986D01*
G37*
G36*
X144928651Y-72665672D02*
X145317559Y-72276764D01*
X146378219Y-73337424D01*
X145989311Y-73726332D01*
X144928651Y-72665672D01*
X144928651Y-72665672D01*
G37*
G36*
X144362966Y-73231357D02*
X144751874Y-72842449D01*
X145812534Y-73903109D01*
X145423626Y-74292017D01*
X144362966Y-73231357D01*
X144362966Y-73231357D01*
G37*
G36*
X143797280Y-73797042D02*
X144186188Y-73408134D01*
X145246848Y-74468794D01*
X144857940Y-74857702D01*
X143797280Y-73797042D01*
X143797280Y-73797042D01*
G37*
G36*
X144186188Y-77261866D02*
X143797280Y-76872958D01*
X144857940Y-75812298D01*
X145246848Y-76201206D01*
X144186188Y-77261866D01*
X144186188Y-77261866D01*
G37*
G36*
X144751874Y-77827551D02*
X144362966Y-77438643D01*
X145423626Y-76377983D01*
X145812534Y-76766891D01*
X144751874Y-77827551D01*
X144751874Y-77827551D01*
G37*
G36*
X145317559Y-78393236D02*
X144928651Y-78004328D01*
X145989311Y-76943668D01*
X146378219Y-77332576D01*
X145317559Y-78393236D01*
X145317559Y-78393236D01*
G37*
G36*
X145883244Y-78958922D02*
X145494336Y-78570014D01*
X146554996Y-77509354D01*
X146943904Y-77898262D01*
X145883244Y-78958922D01*
X145883244Y-78958922D01*
G37*
G36*
X146448930Y-79524607D02*
X146060022Y-79135699D01*
X147120682Y-78075039D01*
X147509590Y-78463947D01*
X146448930Y-79524607D01*
X146448930Y-79524607D01*
G37*
G36*
X147014615Y-80090293D02*
X146625707Y-79701385D01*
X147686367Y-78640725D01*
X148075275Y-79029633D01*
X147014615Y-80090293D01*
X147014615Y-80090293D01*
G37*
G36*
X147580301Y-80655978D02*
X147191393Y-80267070D01*
X148252053Y-79206410D01*
X148640961Y-79595318D01*
X147580301Y-80655978D01*
X147580301Y-80655978D01*
G37*
G36*
X148145986Y-81221664D02*
X147757078Y-80832756D01*
X148817738Y-79772096D01*
X149206646Y-80161004D01*
X148145986Y-81221664D01*
X148145986Y-81221664D01*
G37*
G36*
X148711672Y-81787349D02*
X148322764Y-81398441D01*
X149383424Y-80337781D01*
X149772332Y-80726689D01*
X148711672Y-81787349D01*
X148711672Y-81787349D01*
G37*
G36*
X149277357Y-82353034D02*
X148888449Y-81964126D01*
X149949109Y-80903466D01*
X150338017Y-81292374D01*
X149277357Y-82353034D01*
X149277357Y-82353034D01*
G37*
G36*
X149843042Y-82918720D02*
X149454134Y-82529812D01*
X150514794Y-81469152D01*
X150903702Y-81858060D01*
X149843042Y-82918720D01*
X149843042Y-82918720D01*
G37*
G36*
X151858298Y-81858060D02*
X152247206Y-81469152D01*
X153307866Y-82529812D01*
X152918958Y-82918720D01*
X151858298Y-81858060D01*
X151858298Y-81858060D01*
G37*
G36*
X152423983Y-81292374D02*
X152812891Y-80903466D01*
X153873551Y-81964126D01*
X153484643Y-82353034D01*
X152423983Y-81292374D01*
X152423983Y-81292374D01*
G37*
G36*
X152989668Y-80726689D02*
X153378576Y-80337781D01*
X154439236Y-81398441D01*
X154050328Y-81787349D01*
X152989668Y-80726689D01*
X152989668Y-80726689D01*
G37*
G36*
X153555354Y-80161004D02*
X153944262Y-79772096D01*
X155004922Y-80832756D01*
X154616014Y-81221664D01*
X153555354Y-80161004D01*
X153555354Y-80161004D01*
G37*
G36*
X154121039Y-79595318D02*
X154509947Y-79206410D01*
X155570607Y-80267070D01*
X155181699Y-80655978D01*
X154121039Y-79595318D01*
X154121039Y-79595318D01*
G37*
G36*
X154686725Y-79029633D02*
X155075633Y-78640725D01*
X156136293Y-79701385D01*
X155747385Y-80090293D01*
X154686725Y-79029633D01*
X154686725Y-79029633D01*
G37*
G36*
X155252410Y-78463947D02*
X155641318Y-78075039D01*
X156701978Y-79135699D01*
X156313070Y-79524607D01*
X155252410Y-78463947D01*
X155252410Y-78463947D01*
G37*
G36*
X155818096Y-77898262D02*
X156207004Y-77509354D01*
X157267664Y-78570014D01*
X156878756Y-78958922D01*
X155818096Y-77898262D01*
X155818096Y-77898262D01*
G37*
G36*
X156383781Y-77332576D02*
X156772689Y-76943668D01*
X157833349Y-78004328D01*
X157444441Y-78393236D01*
X156383781Y-77332576D01*
X156383781Y-77332576D01*
G37*
G36*
X156949466Y-76766891D02*
X157338374Y-76377983D01*
X158399034Y-77438643D01*
X158010126Y-77827551D01*
X156949466Y-76766891D01*
X156949466Y-76766891D01*
G37*
G36*
X157515152Y-76201206D02*
X157904060Y-75812298D01*
X158964720Y-76872958D01*
X158575812Y-77261866D01*
X157515152Y-76201206D01*
X157515152Y-76201206D01*
G37*
G36*
X157904060Y-74857702D02*
X157515152Y-74468794D01*
X158575812Y-73408134D01*
X158964720Y-73797042D01*
X157904060Y-74857702D01*
X157904060Y-74857702D01*
G37*
G36*
X157338374Y-74292017D02*
X156949466Y-73903109D01*
X158010126Y-72842449D01*
X158399034Y-73231357D01*
X157338374Y-74292017D01*
X157338374Y-74292017D01*
G37*
G36*
X156772689Y-73726332D02*
X156383781Y-73337424D01*
X157444441Y-72276764D01*
X157833349Y-72665672D01*
X156772689Y-73726332D01*
X156772689Y-73726332D01*
G37*
G36*
X156207004Y-73160646D02*
X155818096Y-72771738D01*
X156878756Y-71711078D01*
X157267664Y-72099986D01*
X156207004Y-73160646D01*
X156207004Y-73160646D01*
G37*
G36*
X155641318Y-72594961D02*
X155252410Y-72206053D01*
X156313070Y-71145393D01*
X156701978Y-71534301D01*
X155641318Y-72594961D01*
X155641318Y-72594961D01*
G37*
G36*
X155075633Y-72029275D02*
X154686725Y-71640367D01*
X155747385Y-70579707D01*
X156136293Y-70968615D01*
X155075633Y-72029275D01*
X155075633Y-72029275D01*
G37*
G36*
X154509947Y-71463590D02*
X154121039Y-71074682D01*
X155181699Y-70014022D01*
X155570607Y-70402930D01*
X154509947Y-71463590D01*
X154509947Y-71463590D01*
G37*
G36*
X153944262Y-70897904D02*
X153555354Y-70508996D01*
X154616014Y-69448336D01*
X155004922Y-69837244D01*
X153944262Y-70897904D01*
X153944262Y-70897904D01*
G37*
G36*
X153378576Y-70332219D02*
X152989668Y-69943311D01*
X154050328Y-68882651D01*
X154439236Y-69271559D01*
X153378576Y-70332219D01*
X153378576Y-70332219D01*
G37*
G36*
X152812891Y-69766534D02*
X152423983Y-69377626D01*
X153484643Y-68316966D01*
X153873551Y-68705874D01*
X152812891Y-69766534D01*
X152812891Y-69766534D01*
G37*
G36*
X152247206Y-69200848D02*
X151858298Y-68811940D01*
X152918958Y-67751280D01*
X153307866Y-68140188D01*
X152247206Y-69200848D01*
X152247206Y-69200848D01*
G37*
D15*
X155121000Y-86395000D03*
D16*
X155121000Y-88935000D03*
X152581000Y-86395000D03*
X152581000Y-88935000D03*
X150041000Y-86395000D03*
X150041000Y-88935000D03*
X147501000Y-86395000D03*
X147501000Y-88935000D03*
X144961000Y-86395000D03*
X144961000Y-88935000D03*
D10*
G36*
X145359198Y-67422589D02*
X146773411Y-68836802D01*
X146419858Y-69190355D01*
X145005645Y-67776142D01*
X145359198Y-67422589D01*
X145359198Y-67422589D01*
G37*
G36*
X144510670Y-68271117D02*
X145924883Y-69685330D01*
X145571330Y-70038883D01*
X144157117Y-68624670D01*
X144510670Y-68271117D01*
X144510670Y-68271117D01*
G37*
G36*
X143662142Y-69119645D02*
X145076355Y-70533858D01*
X144722802Y-70887411D01*
X143308589Y-69473198D01*
X143662142Y-69119645D01*
X143662142Y-69119645D01*
G37*
G36*
X145224863Y-81914817D02*
X146108746Y-81030934D01*
X146815853Y-81738041D01*
X145931970Y-82621924D01*
X145224863Y-81914817D01*
X145224863Y-81914817D01*
G37*
G36*
X146639076Y-83329030D02*
X147522959Y-82445147D01*
X148230066Y-83152254D01*
X147346183Y-84036137D01*
X146639076Y-83329030D01*
X146639076Y-83329030D01*
G37*
D17*
X147031000Y-75265000D03*
X146321000Y-74825000D03*
X155341000Y-69085000D03*
X151901000Y-67955000D03*
X158771000Y-72515000D03*
X158941000Y-67865000D03*
X155141000Y-77485000D03*
X155691000Y-76565000D03*
X155861000Y-75645000D03*
X156141000Y-74795000D03*
X152281000Y-78105000D03*
X151541000Y-77765000D03*
X153681000Y-76185000D03*
X152691000Y-75305000D03*
X149381000Y-76205000D03*
X148621000Y-76995000D03*
X148151000Y-77825000D03*
X143141000Y-77045000D03*
X147191000Y-73585000D03*
X146391000Y-84275000D03*
X149151000Y-77785000D03*
X152251000Y-74545000D03*
X148541000Y-72505000D03*
X143641000Y-67615000D03*
X159196000Y-75270000D03*
X152511000Y-78935000D03*
X150831000Y-80605000D03*
X153011000Y-79645000D03*
X151421000Y-81235000D03*
X159211000Y-76325000D03*
X159101000Y-77765000D03*
X156301000Y-84905000D03*
X149101000Y-71585000D03*
X151501000Y-76525000D03*
X145301000Y-80135000D03*
X153391000Y-74435000D03*
D18*
X153148767Y-69041750D02*
X153148767Y-69037233D01*
D19*
X153148767Y-69037233D02*
X153741000Y-68445000D01*
X159931000Y-81445000D02*
X161569400Y-83083400D01*
X159931000Y-74895000D02*
X159931000Y-81445000D01*
X159411000Y-74375000D02*
X159931000Y-74895000D01*
X159411000Y-72125000D02*
X159411000Y-74375000D01*
X155731000Y-68445000D02*
X159411000Y-72125000D01*
X153741000Y-68445000D02*
X155731000Y-68445000D01*
D18*
X147031000Y-77435000D02*
X147031000Y-75265000D01*
X147031000Y-77435000D02*
X146231862Y-78234138D01*
X146219120Y-78234138D02*
X146231862Y-78234138D01*
X145653435Y-77668452D02*
X145667548Y-77668452D01*
X145667548Y-77668452D02*
X146321000Y-77015000D01*
X146321000Y-77015000D02*
X146321000Y-74825000D01*
X152583082Y-68476064D02*
X152609936Y-68476064D01*
D19*
X152609936Y-68476064D02*
X153251000Y-67835000D01*
X160071000Y-73965000D02*
X161569400Y-75463400D01*
X160071000Y-72025000D02*
X160071000Y-73965000D01*
X155881000Y-67835000D02*
X160071000Y-72025000D01*
X153251000Y-67835000D02*
X155881000Y-67835000D01*
D18*
X150178918Y-68476064D02*
X150178918Y-68447082D01*
D19*
X150178918Y-68447082D02*
X151361000Y-67265000D01*
X151361000Y-67265000D02*
X156051000Y-67265000D01*
X156051000Y-67265000D02*
X161874400Y-73088400D01*
X161569400Y-70383400D02*
X159919400Y-70383400D01*
X148821000Y-68249517D02*
X149613233Y-69041750D01*
X148821000Y-67535000D02*
X148821000Y-68249517D01*
X149591000Y-66765000D02*
X148821000Y-67535000D01*
X156301000Y-66765000D02*
X149591000Y-66765000D01*
X159919400Y-70383400D02*
X156301000Y-66765000D01*
D18*
X149613233Y-69041750D02*
X149613233Y-69057233D01*
D19*
X151331000Y-68325000D02*
X151331000Y-68105000D01*
X158771000Y-72515000D02*
X155341000Y-69085000D01*
X149651000Y-70195000D02*
X149063435Y-69607435D01*
X151331000Y-69495000D02*
X151331000Y-68325000D01*
X150631000Y-70195000D02*
X151331000Y-69495000D01*
X149651000Y-70195000D02*
X150631000Y-70195000D01*
X151481000Y-67955000D02*
X151901000Y-67955000D01*
X151331000Y-68105000D02*
X151481000Y-67955000D01*
X158771000Y-72525000D02*
X158771000Y-72515000D01*
X158771000Y-72515000D02*
X158771000Y-72525000D01*
X158941000Y-67865000D02*
X158962600Y-67843400D01*
X158962600Y-67843400D02*
X161569400Y-67843400D01*
X149047548Y-69607435D02*
X149063435Y-69607435D01*
D18*
X156542880Y-78234138D02*
X156542880Y-78206880D01*
D19*
X156542880Y-78206880D02*
X155821000Y-77485000D01*
X155821000Y-77485000D02*
X155141000Y-77485000D01*
X156001000Y-76565000D02*
X157104452Y-77668452D01*
X156001000Y-76565000D02*
X155691000Y-76565000D01*
D18*
X157108565Y-77668452D02*
X157104452Y-77668452D01*
D19*
X157051000Y-76485000D02*
X157668767Y-77102767D01*
X156071000Y-75635000D02*
X155861000Y-75645000D01*
X156921000Y-76485000D02*
X156071000Y-75635000D01*
X157051000Y-76485000D02*
X156921000Y-76485000D01*
D18*
X157674250Y-77102767D02*
X157668767Y-77102767D01*
D19*
X157211000Y-75915000D02*
X156311000Y-75025000D01*
X156311000Y-75025000D02*
X156141000Y-74795000D01*
X157631000Y-75915000D02*
X158239936Y-76523936D01*
X157631000Y-75915000D02*
X157271000Y-75915000D01*
X157271000Y-75915000D02*
X157211000Y-75915000D01*
D18*
X158239936Y-76537082D02*
X158239936Y-76523936D01*
X149675113Y-80435000D02*
X149047548Y-81062565D01*
X149951000Y-80435000D02*
X149675113Y-80435000D01*
X152281000Y-78105000D02*
X149951000Y-80435000D01*
D19*
X149271000Y-79725000D02*
X149581000Y-79725000D01*
X149271000Y-79725000D02*
X148499120Y-80496880D01*
X151541000Y-77765000D02*
X149581000Y-79725000D01*
D18*
X148481862Y-80496880D02*
X148499120Y-80496880D01*
D19*
X155961000Y-73905000D02*
X153681000Y-76185000D01*
X156201000Y-73905000D02*
X155961000Y-73905000D01*
X157104452Y-73001548D02*
X156201000Y-73905000D01*
X157108565Y-73001548D02*
X157104452Y-73001548D01*
D18*
X152691000Y-75305000D02*
X153673742Y-75305000D01*
X153673742Y-75305000D02*
X156542880Y-72435862D01*
X156530138Y-72435862D02*
X156542880Y-72435862D01*
X154847194Y-70738806D02*
X149381000Y-76205000D01*
X154847194Y-70738806D02*
X154845823Y-70738806D01*
X148625988Y-76990012D02*
X148625988Y-75830010D01*
X148621000Y-76995000D02*
X148625988Y-76990012D01*
X154280138Y-70173120D02*
X148625988Y-75830010D01*
X148625988Y-75830010D02*
X148621000Y-75835000D01*
X148151000Y-77825000D02*
X147801000Y-77475000D01*
X150301000Y-72985000D02*
X147811000Y-75475000D01*
X153714452Y-69611548D02*
X150341000Y-72985000D01*
X150341000Y-72985000D02*
X150301000Y-72985000D01*
X147801000Y-75485000D02*
X147811000Y-75475000D01*
X147801000Y-77475000D02*
X147801000Y-75485000D01*
X153714452Y-69607435D02*
X153714452Y-69611548D01*
X142402600Y-85623400D02*
X141249400Y-85623400D01*
X143141000Y-84885000D02*
X142402600Y-85623400D01*
X143141000Y-77045000D02*
X143141000Y-84885000D01*
X148481862Y-70173120D02*
X148489120Y-70173120D01*
X148489120Y-70173120D02*
X149191000Y-70875000D01*
X149191000Y-70875000D02*
X149611000Y-70875000D01*
X149611000Y-70875000D02*
X150121000Y-71385000D01*
X150121000Y-71385000D02*
X150121000Y-72015000D01*
X150121000Y-72015000D02*
X148551000Y-73585000D01*
X148551000Y-73585000D02*
X147191000Y-73585000D01*
X147438107Y-83222107D02*
X147438107Y-81592107D01*
X147171000Y-81325000D02*
X147171000Y-80676371D01*
X147438107Y-81592107D02*
X147171000Y-81325000D01*
X147438107Y-83222107D02*
X147438107Y-83227893D01*
X147438107Y-83227893D02*
X146391000Y-84275000D01*
X151526000Y-75270000D02*
X154391000Y-78135000D01*
X154391000Y-78135000D02*
X154391000Y-78345000D01*
X154391000Y-78345000D02*
X155411509Y-79365509D01*
X149151000Y-77785000D02*
X149151000Y-77645000D01*
X149151000Y-77645000D02*
X151526000Y-75270000D01*
X151526000Y-75270000D02*
X152251000Y-74545000D01*
X149131000Y-77765000D02*
X149131000Y-77725000D01*
X149151000Y-77785000D02*
X149131000Y-77765000D01*
X147171000Y-80676371D02*
X147916177Y-79931194D01*
X155411509Y-79365509D02*
X155421509Y-79365509D01*
X155421509Y-79365509D02*
X157021000Y-80965000D01*
X157021000Y-80965000D02*
X158731000Y-80965000D01*
X158731000Y-80965000D02*
X158781000Y-81015000D01*
X158781000Y-81015000D02*
X158781000Y-82615000D01*
X158781000Y-82615000D02*
X158421000Y-82975000D01*
X158421000Y-82975000D02*
X158421000Y-84840000D01*
X155411509Y-71384491D02*
X152251000Y-74545000D01*
X155411509Y-71384491D02*
X155411509Y-71304491D01*
X147350491Y-71304491D02*
X147350491Y-71314491D01*
X147350491Y-71314491D02*
X148541000Y-72505000D01*
X143691000Y-67805000D02*
X145041000Y-69155000D01*
X143691000Y-67665000D02*
X143691000Y-67805000D01*
X143641000Y-67615000D02*
X143691000Y-67665000D01*
X145889528Y-68306472D02*
X145889528Y-68333528D01*
X145889528Y-68333528D02*
X146801000Y-69245000D01*
X146801000Y-69245000D02*
X146801000Y-69735000D01*
X146801000Y-69735000D02*
X146011000Y-70525000D01*
X146011000Y-70525000D02*
X146011000Y-71096371D01*
X146011000Y-71096371D02*
X146784806Y-71870177D01*
X146219120Y-72435862D02*
X146219120Y-72433120D01*
X146219120Y-72433120D02*
X145231000Y-71445000D01*
X145231000Y-71445000D02*
X145231000Y-71042056D01*
X145231000Y-71042056D02*
X144192472Y-70003528D01*
X145653435Y-73001548D02*
X145653435Y-72997435D01*
X145653435Y-72997435D02*
X142791000Y-70135000D01*
X142791000Y-70135000D02*
X142791000Y-68285000D01*
X142791000Y-68285000D02*
X142349400Y-67843400D01*
X142349400Y-67843400D02*
X141249400Y-67843400D01*
X141249400Y-70383400D02*
X141903917Y-70383400D01*
X141903917Y-70383400D02*
X145087750Y-73567233D01*
X141249400Y-72923400D02*
X143312546Y-72923400D01*
X143312546Y-72923400D02*
X144522064Y-74132918D01*
X141249400Y-75463400D02*
X143448382Y-75463400D01*
X143448382Y-75463400D02*
X144522064Y-76537082D01*
X159196000Y-75270000D02*
X158239936Y-74313936D01*
X158239936Y-74313936D02*
X158239936Y-74132918D01*
X152501000Y-78935000D02*
X152511000Y-78935000D01*
X150831000Y-80605000D02*
X152501000Y-78935000D01*
X159211000Y-76325000D02*
X159201000Y-76325000D01*
X156941000Y-74300483D02*
X157674250Y-73567233D01*
X156941000Y-74685000D02*
X156941000Y-74300483D01*
X157541000Y-75285000D02*
X156941000Y-74685000D01*
X158161000Y-75285000D02*
X157541000Y-75285000D01*
X159201000Y-76325000D02*
X158161000Y-75285000D01*
X151421000Y-81235000D02*
X153011000Y-79645000D01*
X159231000Y-76345000D02*
X159231000Y-76395000D01*
X159211000Y-76325000D02*
X159231000Y-76345000D01*
X158731000Y-78965000D02*
X158731000Y-78135000D01*
X158731000Y-78135000D02*
X159101000Y-77765000D01*
X158731000Y-78965000D02*
X157861000Y-78965000D01*
X156642371Y-79465000D02*
X155977194Y-78799823D01*
X157361000Y-79465000D02*
X156642371Y-79465000D01*
X157861000Y-78965000D02*
X157361000Y-79465000D01*
X144961000Y-86395000D02*
X144961000Y-85225000D01*
X143911000Y-78279517D02*
X145087750Y-77102767D01*
X143911000Y-84175000D02*
X143911000Y-78279517D01*
X144961000Y-85225000D02*
X143911000Y-84175000D01*
X146784806Y-78799823D02*
X146784806Y-78811194D01*
X146784806Y-78811194D02*
X146191000Y-79405000D01*
X146191000Y-79405000D02*
X144931000Y-79405000D01*
X144931000Y-79405000D02*
X144571000Y-79765000D01*
X144571000Y-79765000D02*
X144571000Y-83785000D01*
X144571000Y-83785000D02*
X146231000Y-85445000D01*
X146231000Y-85445000D02*
X146231000Y-87665000D01*
X146231000Y-87665000D02*
X144961000Y-88935000D01*
X144961000Y-88935000D02*
X144961000Y-88925000D01*
X150041000Y-88935000D02*
X150041000Y-88925000D01*
X150041000Y-88925000D02*
X148781000Y-87665000D01*
X148781000Y-87665000D02*
X148781000Y-82460483D01*
X148781000Y-82460483D02*
X149613233Y-81628250D01*
X150178918Y-86257082D02*
X150041000Y-86395000D01*
X150178918Y-82193936D02*
X150178918Y-86257082D01*
X152583082Y-82193936D02*
X152582064Y-82193936D01*
X152582064Y-82193936D02*
X151321000Y-83455000D01*
X151321000Y-83455000D02*
X151321000Y-87675000D01*
X151321000Y-87675000D02*
X152581000Y-88935000D01*
X153148767Y-81628250D02*
X153194250Y-81628250D01*
X153194250Y-81628250D02*
X153861000Y-82295000D01*
X153861000Y-82295000D02*
X153861000Y-83275000D01*
X153861000Y-83275000D02*
X152581000Y-84555000D01*
X152581000Y-84555000D02*
X152581000Y-86395000D01*
X153714452Y-81062565D02*
X153728565Y-81062565D01*
X153728565Y-81062565D02*
X154641000Y-81975000D01*
X154641000Y-81975000D02*
X154641000Y-83665000D01*
X154641000Y-83665000D02*
X153841000Y-84465000D01*
X153841000Y-84465000D02*
X153841000Y-87655000D01*
X153841000Y-87655000D02*
X155121000Y-88935000D01*
X155421000Y-81625000D02*
X155421000Y-84075000D01*
X154292880Y-80496880D02*
X155421000Y-81625000D01*
X155121000Y-84375000D02*
X155121000Y-86395000D01*
X155421000Y-84075000D02*
X155121000Y-84375000D01*
X154280138Y-80496880D02*
X154292880Y-80496880D01*
X148761000Y-71585000D02*
X149101000Y-71585000D01*
X147916177Y-70740177D02*
X148761000Y-71585000D01*
X147350491Y-79365509D02*
X148121000Y-78595000D01*
X149431000Y-78595000D02*
X151501000Y-76525000D01*
X148121000Y-78595000D02*
X149431000Y-78595000D01*
X145861000Y-80695000D02*
X146023893Y-80695000D01*
X145301000Y-80135000D02*
X145861000Y-80695000D01*
X151501000Y-76525000D02*
X151841000Y-76525000D01*
X151841000Y-76525000D02*
X153651000Y-78335000D01*
X153651000Y-78335000D02*
X153651000Y-78736371D01*
X153651000Y-78736371D02*
X154845823Y-79931194D01*
X146023893Y-81807893D02*
X146023893Y-80695000D01*
X146023893Y-80695000D02*
X146023893Y-80692107D01*
X146023893Y-80692107D02*
X147350491Y-79365509D01*
X156771000Y-82065000D02*
X156771000Y-81845000D01*
X156771000Y-81845000D02*
X156301000Y-81375000D01*
X156771000Y-82065000D02*
X156321000Y-82065000D01*
X156771000Y-82065000D02*
X156321000Y-82065000D01*
X156321000Y-82065000D02*
X156301000Y-82085000D01*
X156301000Y-82085000D02*
X156771000Y-82065000D01*
X157266000Y-87480000D02*
X156531000Y-86745000D01*
X156531000Y-86745000D02*
X156531000Y-85135000D01*
X156531000Y-85135000D02*
X156301000Y-84905000D01*
X156301000Y-84905000D02*
X156301000Y-81375000D01*
X156301000Y-81375000D02*
X154857194Y-79931194D01*
X154857194Y-79931194D02*
X154845823Y-79931194D01*
X147916177Y-70738806D02*
X147916177Y-70740177D01*
X153391000Y-74435000D02*
X155955823Y-71870177D01*
X155955823Y-71870177D02*
X155977194Y-71870177D01*
X147916177Y-70738806D02*
X147924806Y-70738806D01*
M02*
