G04 #@! TF.FileFunction,Soldermask,Bot*
%FSLAX46Y46*%
G04 Gerber Fmt 4.6, Leading zero omitted, Abs format (unit mm)*
G04 Created by KiCad (PCBNEW 4.0.6) date 08/13/17 20:11:31*
%MOMM*%
%LPD*%
G01*
G04 APERTURE LIST*
%ADD10C,0.100000*%
%ADD11C,2.500000*%
%ADD12R,2.100000X2.100000*%
%ADD13C,2.100000*%
%ADD14R,1.700000X1.100000*%
%ADD15R,1.670000X1.370000*%
G04 APERTURE END LIST*
D10*
D11*
X161569400Y-67843400D03*
X161569400Y-70383400D03*
X161569400Y-72923400D03*
X161569400Y-75463400D03*
X161569400Y-78003400D03*
X161569400Y-80543400D03*
X161569400Y-83083400D03*
X161569400Y-85623400D03*
X161569400Y-88163400D03*
X161569400Y-65303400D03*
X159029400Y-65303400D03*
X156489400Y-65303400D03*
X153949400Y-65303400D03*
X151409400Y-65303400D03*
X148869400Y-65303400D03*
X146329400Y-65303400D03*
X143789400Y-65303400D03*
X141249400Y-65303400D03*
X141249400Y-67843400D03*
X141249400Y-70383400D03*
X141249400Y-72923400D03*
X141249400Y-75463400D03*
X141249400Y-78003400D03*
X141249400Y-80543400D03*
X141249400Y-83083400D03*
X141249400Y-85623400D03*
X141249400Y-88163400D03*
D12*
X155121000Y-86395000D03*
D13*
X155121000Y-88935000D03*
X152581000Y-86395000D03*
X152581000Y-88935000D03*
X150041000Y-86395000D03*
X150041000Y-88935000D03*
X147501000Y-86395000D03*
X147501000Y-88935000D03*
X144961000Y-86395000D03*
X144961000Y-88935000D03*
D14*
X145081000Y-77045000D03*
X145081000Y-78945000D03*
D15*
X158721000Y-88175000D03*
X158721000Y-86905000D03*
X158721000Y-85635000D03*
M02*
