G04 #@! TF.FileFunction,Paste,Top*
%FSLAX46Y46*%
G04 Gerber Fmt 4.6, Leading zero omitted, Abs format (unit mm)*
G04 Created by KiCad (PCBNEW 4.0.6) date 08/13/17 20:11:31*
%MOMM*%
%LPD*%
G01*
G04 APERTURE LIST*
%ADD10C,0.100000*%
%ADD11R,2.500000X1.950000*%
%ADD12R,1.000000X1.250000*%
%ADD13R,1.250000X1.000000*%
G04 APERTURE END LIST*
D10*
D11*
X158421000Y-87890000D03*
X158421000Y-84840000D03*
D12*
X156781000Y-82615000D03*
X158781000Y-82615000D03*
D13*
X158731000Y-78965000D03*
X158731000Y-80965000D03*
D10*
G36*
X149454134Y-68140188D02*
X149843042Y-67751280D01*
X150903702Y-68811940D01*
X150514794Y-69200848D01*
X149454134Y-68140188D01*
X149454134Y-68140188D01*
G37*
G36*
X148888449Y-68705874D02*
X149277357Y-68316966D01*
X150338017Y-69377626D01*
X149949109Y-69766534D01*
X148888449Y-68705874D01*
X148888449Y-68705874D01*
G37*
G36*
X148322764Y-69271559D02*
X148711672Y-68882651D01*
X149772332Y-69943311D01*
X149383424Y-70332219D01*
X148322764Y-69271559D01*
X148322764Y-69271559D01*
G37*
G36*
X147757078Y-69837244D02*
X148145986Y-69448336D01*
X149206646Y-70508996D01*
X148817738Y-70897904D01*
X147757078Y-69837244D01*
X147757078Y-69837244D01*
G37*
G36*
X147191393Y-70402930D02*
X147580301Y-70014022D01*
X148640961Y-71074682D01*
X148252053Y-71463590D01*
X147191393Y-70402930D01*
X147191393Y-70402930D01*
G37*
G36*
X146625707Y-70968615D02*
X147014615Y-70579707D01*
X148075275Y-71640367D01*
X147686367Y-72029275D01*
X146625707Y-70968615D01*
X146625707Y-70968615D01*
G37*
G36*
X146060022Y-71534301D02*
X146448930Y-71145393D01*
X147509590Y-72206053D01*
X147120682Y-72594961D01*
X146060022Y-71534301D01*
X146060022Y-71534301D01*
G37*
G36*
X145494336Y-72099986D02*
X145883244Y-71711078D01*
X146943904Y-72771738D01*
X146554996Y-73160646D01*
X145494336Y-72099986D01*
X145494336Y-72099986D01*
G37*
G36*
X144928651Y-72665672D02*
X145317559Y-72276764D01*
X146378219Y-73337424D01*
X145989311Y-73726332D01*
X144928651Y-72665672D01*
X144928651Y-72665672D01*
G37*
G36*
X144362966Y-73231357D02*
X144751874Y-72842449D01*
X145812534Y-73903109D01*
X145423626Y-74292017D01*
X144362966Y-73231357D01*
X144362966Y-73231357D01*
G37*
G36*
X143797280Y-73797042D02*
X144186188Y-73408134D01*
X145246848Y-74468794D01*
X144857940Y-74857702D01*
X143797280Y-73797042D01*
X143797280Y-73797042D01*
G37*
G36*
X144186188Y-77261866D02*
X143797280Y-76872958D01*
X144857940Y-75812298D01*
X145246848Y-76201206D01*
X144186188Y-77261866D01*
X144186188Y-77261866D01*
G37*
G36*
X144751874Y-77827551D02*
X144362966Y-77438643D01*
X145423626Y-76377983D01*
X145812534Y-76766891D01*
X144751874Y-77827551D01*
X144751874Y-77827551D01*
G37*
G36*
X145317559Y-78393236D02*
X144928651Y-78004328D01*
X145989311Y-76943668D01*
X146378219Y-77332576D01*
X145317559Y-78393236D01*
X145317559Y-78393236D01*
G37*
G36*
X145883244Y-78958922D02*
X145494336Y-78570014D01*
X146554996Y-77509354D01*
X146943904Y-77898262D01*
X145883244Y-78958922D01*
X145883244Y-78958922D01*
G37*
G36*
X146448930Y-79524607D02*
X146060022Y-79135699D01*
X147120682Y-78075039D01*
X147509590Y-78463947D01*
X146448930Y-79524607D01*
X146448930Y-79524607D01*
G37*
G36*
X147014615Y-80090293D02*
X146625707Y-79701385D01*
X147686367Y-78640725D01*
X148075275Y-79029633D01*
X147014615Y-80090293D01*
X147014615Y-80090293D01*
G37*
G36*
X147580301Y-80655978D02*
X147191393Y-80267070D01*
X148252053Y-79206410D01*
X148640961Y-79595318D01*
X147580301Y-80655978D01*
X147580301Y-80655978D01*
G37*
G36*
X148145986Y-81221664D02*
X147757078Y-80832756D01*
X148817738Y-79772096D01*
X149206646Y-80161004D01*
X148145986Y-81221664D01*
X148145986Y-81221664D01*
G37*
G36*
X148711672Y-81787349D02*
X148322764Y-81398441D01*
X149383424Y-80337781D01*
X149772332Y-80726689D01*
X148711672Y-81787349D01*
X148711672Y-81787349D01*
G37*
G36*
X149277357Y-82353034D02*
X148888449Y-81964126D01*
X149949109Y-80903466D01*
X150338017Y-81292374D01*
X149277357Y-82353034D01*
X149277357Y-82353034D01*
G37*
G36*
X149843042Y-82918720D02*
X149454134Y-82529812D01*
X150514794Y-81469152D01*
X150903702Y-81858060D01*
X149843042Y-82918720D01*
X149843042Y-82918720D01*
G37*
G36*
X151858298Y-81858060D02*
X152247206Y-81469152D01*
X153307866Y-82529812D01*
X152918958Y-82918720D01*
X151858298Y-81858060D01*
X151858298Y-81858060D01*
G37*
G36*
X152423983Y-81292374D02*
X152812891Y-80903466D01*
X153873551Y-81964126D01*
X153484643Y-82353034D01*
X152423983Y-81292374D01*
X152423983Y-81292374D01*
G37*
G36*
X152989668Y-80726689D02*
X153378576Y-80337781D01*
X154439236Y-81398441D01*
X154050328Y-81787349D01*
X152989668Y-80726689D01*
X152989668Y-80726689D01*
G37*
G36*
X153555354Y-80161004D02*
X153944262Y-79772096D01*
X155004922Y-80832756D01*
X154616014Y-81221664D01*
X153555354Y-80161004D01*
X153555354Y-80161004D01*
G37*
G36*
X154121039Y-79595318D02*
X154509947Y-79206410D01*
X155570607Y-80267070D01*
X155181699Y-80655978D01*
X154121039Y-79595318D01*
X154121039Y-79595318D01*
G37*
G36*
X154686725Y-79029633D02*
X155075633Y-78640725D01*
X156136293Y-79701385D01*
X155747385Y-80090293D01*
X154686725Y-79029633D01*
X154686725Y-79029633D01*
G37*
G36*
X155252410Y-78463947D02*
X155641318Y-78075039D01*
X156701978Y-79135699D01*
X156313070Y-79524607D01*
X155252410Y-78463947D01*
X155252410Y-78463947D01*
G37*
G36*
X155818096Y-77898262D02*
X156207004Y-77509354D01*
X157267664Y-78570014D01*
X156878756Y-78958922D01*
X155818096Y-77898262D01*
X155818096Y-77898262D01*
G37*
G36*
X156383781Y-77332576D02*
X156772689Y-76943668D01*
X157833349Y-78004328D01*
X157444441Y-78393236D01*
X156383781Y-77332576D01*
X156383781Y-77332576D01*
G37*
G36*
X156949466Y-76766891D02*
X157338374Y-76377983D01*
X158399034Y-77438643D01*
X158010126Y-77827551D01*
X156949466Y-76766891D01*
X156949466Y-76766891D01*
G37*
G36*
X157515152Y-76201206D02*
X157904060Y-75812298D01*
X158964720Y-76872958D01*
X158575812Y-77261866D01*
X157515152Y-76201206D01*
X157515152Y-76201206D01*
G37*
G36*
X157904060Y-74857702D02*
X157515152Y-74468794D01*
X158575812Y-73408134D01*
X158964720Y-73797042D01*
X157904060Y-74857702D01*
X157904060Y-74857702D01*
G37*
G36*
X157338374Y-74292017D02*
X156949466Y-73903109D01*
X158010126Y-72842449D01*
X158399034Y-73231357D01*
X157338374Y-74292017D01*
X157338374Y-74292017D01*
G37*
G36*
X156772689Y-73726332D02*
X156383781Y-73337424D01*
X157444441Y-72276764D01*
X157833349Y-72665672D01*
X156772689Y-73726332D01*
X156772689Y-73726332D01*
G37*
G36*
X156207004Y-73160646D02*
X155818096Y-72771738D01*
X156878756Y-71711078D01*
X157267664Y-72099986D01*
X156207004Y-73160646D01*
X156207004Y-73160646D01*
G37*
G36*
X155641318Y-72594961D02*
X155252410Y-72206053D01*
X156313070Y-71145393D01*
X156701978Y-71534301D01*
X155641318Y-72594961D01*
X155641318Y-72594961D01*
G37*
G36*
X155075633Y-72029275D02*
X154686725Y-71640367D01*
X155747385Y-70579707D01*
X156136293Y-70968615D01*
X155075633Y-72029275D01*
X155075633Y-72029275D01*
G37*
G36*
X154509947Y-71463590D02*
X154121039Y-71074682D01*
X155181699Y-70014022D01*
X155570607Y-70402930D01*
X154509947Y-71463590D01*
X154509947Y-71463590D01*
G37*
G36*
X153944262Y-70897904D02*
X153555354Y-70508996D01*
X154616014Y-69448336D01*
X155004922Y-69837244D01*
X153944262Y-70897904D01*
X153944262Y-70897904D01*
G37*
G36*
X153378576Y-70332219D02*
X152989668Y-69943311D01*
X154050328Y-68882651D01*
X154439236Y-69271559D01*
X153378576Y-70332219D01*
X153378576Y-70332219D01*
G37*
G36*
X152812891Y-69766534D02*
X152423983Y-69377626D01*
X153484643Y-68316966D01*
X153873551Y-68705874D01*
X152812891Y-69766534D01*
X152812891Y-69766534D01*
G37*
G36*
X152247206Y-69200848D02*
X151858298Y-68811940D01*
X152918958Y-67751280D01*
X153307866Y-68140188D01*
X152247206Y-69200848D01*
X152247206Y-69200848D01*
G37*
G36*
X145359198Y-67422589D02*
X146773411Y-68836802D01*
X146419858Y-69190355D01*
X145005645Y-67776142D01*
X145359198Y-67422589D01*
X145359198Y-67422589D01*
G37*
G36*
X144510670Y-68271117D02*
X145924883Y-69685330D01*
X145571330Y-70038883D01*
X144157117Y-68624670D01*
X144510670Y-68271117D01*
X144510670Y-68271117D01*
G37*
G36*
X143662142Y-69119645D02*
X145076355Y-70533858D01*
X144722802Y-70887411D01*
X143308589Y-69473198D01*
X143662142Y-69119645D01*
X143662142Y-69119645D01*
G37*
G36*
X145224863Y-81914817D02*
X146108746Y-81030934D01*
X146815853Y-81738041D01*
X145931970Y-82621924D01*
X145224863Y-81914817D01*
X145224863Y-81914817D01*
G37*
G36*
X146639076Y-83329030D02*
X147522959Y-82445147D01*
X148230066Y-83152254D01*
X147346183Y-84036137D01*
X146639076Y-83329030D01*
X146639076Y-83329030D01*
G37*
M02*
