G04 #@! TF.FileFunction,Other,Fab,Top*
%FSLAX46Y46*%
G04 Gerber Fmt 4.6, Leading zero omitted, Abs format (unit mm)*
G04 Created by KiCad (PCBNEW 4.0.6) date 08/13/17 20:11:31*
%MOMM*%
%LPD*%
G01*
G04 APERTURE LIST*
%ADD10C,0.100000*%
%ADD11C,0.300000*%
%ADD12C,0.150000*%
%ADD13C,0.120000*%
G04 APERTURE END LIST*
D10*
D11*
X131433971Y-70493715D02*
X131505400Y-70565144D01*
X131576829Y-70708001D01*
X131576829Y-71065144D01*
X131505400Y-71208001D01*
X131433971Y-71279430D01*
X131291114Y-71350858D01*
X131148257Y-71350858D01*
X130933971Y-71279430D01*
X130076829Y-70422287D01*
X130076829Y-71350858D01*
X131576829Y-71850858D02*
X131576829Y-72850858D01*
X130076829Y-72208001D01*
X130148257Y-73493714D02*
X130076829Y-73493714D01*
X129933971Y-73422286D01*
X129862543Y-73350857D01*
X130076829Y-74208000D02*
X130076829Y-74493715D01*
X130148257Y-74636572D01*
X130219686Y-74708000D01*
X130433971Y-74850858D01*
X130719686Y-74922286D01*
X131291114Y-74922286D01*
X131433971Y-74850858D01*
X131505400Y-74779429D01*
X131576829Y-74636572D01*
X131576829Y-74350858D01*
X131505400Y-74208000D01*
X131433971Y-74136572D01*
X131291114Y-74065143D01*
X130933971Y-74065143D01*
X130791114Y-74136572D01*
X130719686Y-74208000D01*
X130648257Y-74350858D01*
X130648257Y-74636572D01*
X130719686Y-74779429D01*
X130791114Y-74850858D01*
X130933971Y-74922286D01*
X131076829Y-76208000D02*
X130076829Y-76208000D01*
X131648257Y-75850857D02*
X130576829Y-75493714D01*
X130576829Y-76422286D01*
X131576829Y-77279428D02*
X131576829Y-77422285D01*
X131505400Y-77565142D01*
X131433971Y-77636571D01*
X131291114Y-77708000D01*
X131005400Y-77779428D01*
X130648257Y-77779428D01*
X130362543Y-77708000D01*
X130219686Y-77636571D01*
X130148257Y-77565142D01*
X130076829Y-77422285D01*
X130076829Y-77279428D01*
X130148257Y-77136571D01*
X130219686Y-77065142D01*
X130362543Y-76993714D01*
X130648257Y-76922285D01*
X131005400Y-76922285D01*
X131291114Y-76993714D01*
X131433971Y-77065142D01*
X131505400Y-77136571D01*
X131576829Y-77279428D01*
X130076829Y-79565142D02*
X131076829Y-79565142D01*
X130933971Y-79565142D02*
X131005400Y-79636570D01*
X131076829Y-79779428D01*
X131076829Y-79993713D01*
X131005400Y-80136570D01*
X130862543Y-80207999D01*
X130076829Y-80207999D01*
X130862543Y-80207999D02*
X131005400Y-80279428D01*
X131076829Y-80422285D01*
X131076829Y-80636570D01*
X131005400Y-80779428D01*
X130862543Y-80850856D01*
X130076829Y-80850856D01*
X130076829Y-81565142D02*
X131076829Y-81565142D01*
X130933971Y-81565142D02*
X131005400Y-81636570D01*
X131076829Y-81779428D01*
X131076829Y-81993713D01*
X131005400Y-82136570D01*
X130862543Y-82207999D01*
X130076829Y-82207999D01*
X130862543Y-82207999D02*
X131005400Y-82279428D01*
X131076829Y-82422285D01*
X131076829Y-82636570D01*
X131005400Y-82779428D01*
X130862543Y-82850856D01*
X130076829Y-82850856D01*
X132105400Y-62738000D02*
X132105400Y-90678000D01*
X134137400Y-62738000D02*
X129405400Y-62738000D01*
X134137400Y-90678000D02*
X129405400Y-90678000D01*
X132105400Y-90678000D02*
X131518979Y-89551496D01*
X132105400Y-90678000D02*
X132691821Y-89551496D01*
X132105400Y-62738000D02*
X131518979Y-63864504D01*
X132105400Y-62738000D02*
X132691821Y-63864504D01*
X144814115Y-95587429D02*
X144885544Y-95516000D01*
X145028401Y-95444571D01*
X145385544Y-95444571D01*
X145528401Y-95516000D01*
X145599830Y-95587429D01*
X145671258Y-95730286D01*
X145671258Y-95873143D01*
X145599830Y-96087429D01*
X144742687Y-96944571D01*
X145671258Y-96944571D01*
X147028401Y-95444571D02*
X146314115Y-95444571D01*
X146242686Y-96158857D01*
X146314115Y-96087429D01*
X146456972Y-96016000D01*
X146814115Y-96016000D01*
X146956972Y-96087429D01*
X147028401Y-96158857D01*
X147099829Y-96301714D01*
X147099829Y-96658857D01*
X147028401Y-96801714D01*
X146956972Y-96873143D01*
X146814115Y-96944571D01*
X146456972Y-96944571D01*
X146314115Y-96873143D01*
X146242686Y-96801714D01*
X147814114Y-96873143D02*
X147814114Y-96944571D01*
X147742686Y-97087429D01*
X147671257Y-97158857D01*
X149171258Y-95444571D02*
X148456972Y-95444571D01*
X148385543Y-96158857D01*
X148456972Y-96087429D01*
X148599829Y-96016000D01*
X148956972Y-96016000D01*
X149099829Y-96087429D01*
X149171258Y-96158857D01*
X149242686Y-96301714D01*
X149242686Y-96658857D01*
X149171258Y-96801714D01*
X149099829Y-96873143D01*
X148956972Y-96944571D01*
X148599829Y-96944571D01*
X148456972Y-96873143D01*
X148385543Y-96801714D01*
X149814114Y-95587429D02*
X149885543Y-95516000D01*
X150028400Y-95444571D01*
X150385543Y-95444571D01*
X150528400Y-95516000D01*
X150599829Y-95587429D01*
X150671257Y-95730286D01*
X150671257Y-95873143D01*
X150599829Y-96087429D01*
X149742686Y-96944571D01*
X150671257Y-96944571D01*
X151171257Y-95444571D02*
X152171257Y-95444571D01*
X151528400Y-96944571D01*
X153885542Y-96944571D02*
X153885542Y-95944571D01*
X153885542Y-96087429D02*
X153956970Y-96016000D01*
X154099828Y-95944571D01*
X154314113Y-95944571D01*
X154456970Y-96016000D01*
X154528399Y-96158857D01*
X154528399Y-96944571D01*
X154528399Y-96158857D02*
X154599828Y-96016000D01*
X154742685Y-95944571D01*
X154956970Y-95944571D01*
X155099828Y-96016000D01*
X155171256Y-96158857D01*
X155171256Y-96944571D01*
X155885542Y-96944571D02*
X155885542Y-95944571D01*
X155885542Y-96087429D02*
X155956970Y-96016000D01*
X156099828Y-95944571D01*
X156314113Y-95944571D01*
X156456970Y-96016000D01*
X156528399Y-96158857D01*
X156528399Y-96944571D01*
X156528399Y-96158857D02*
X156599828Y-96016000D01*
X156742685Y-95944571D01*
X156956970Y-95944571D01*
X157099828Y-96016000D01*
X157171256Y-96158857D01*
X157171256Y-96944571D01*
X164363400Y-94868999D02*
X138836400Y-94868999D01*
X164363400Y-92456000D02*
X164363400Y-97568999D01*
X138836400Y-92456000D02*
X138836400Y-97568999D01*
X138836400Y-94868999D02*
X139962904Y-94282578D01*
X138836400Y-94868999D02*
X139962904Y-95455420D01*
X164363400Y-94868999D02*
X163236896Y-94282578D01*
X164363400Y-94868999D02*
X163236896Y-95455420D01*
D10*
X157021000Y-88115000D02*
X159821000Y-88115000D01*
X159821000Y-88115000D02*
X159821000Y-84615000D01*
X159821000Y-84615000D02*
X157021000Y-84615000D01*
X157021000Y-84615000D02*
X157021000Y-88115000D01*
X157021000Y-87765000D02*
X159821000Y-87765000D01*
X157021000Y-87590000D02*
X159821000Y-87590000D01*
X156781000Y-83235000D02*
X156781000Y-81995000D01*
X158781000Y-83235000D02*
X156781000Y-83235000D01*
X158781000Y-81995000D02*
X158781000Y-83235000D01*
X156781000Y-81995000D02*
X158781000Y-81995000D01*
X158111000Y-78965000D02*
X159351000Y-78965000D01*
X158111000Y-80965000D02*
X158111000Y-78965000D01*
X159351000Y-80965000D02*
X158111000Y-80965000D01*
X159351000Y-78965000D02*
X159351000Y-80965000D01*
D12*
X152088107Y-68971039D02*
X158452068Y-75335000D01*
X158452068Y-75335000D02*
X151381000Y-82406068D01*
X151381000Y-82406068D02*
X144309932Y-75335000D01*
X144309932Y-75335000D02*
X150673893Y-68971039D01*
X150673893Y-68971039D02*
X152088107Y-68971039D01*
D10*
X156391000Y-86395000D02*
X156391000Y-90205000D01*
X156391000Y-90205000D02*
X143691000Y-90205000D01*
X143691000Y-90205000D02*
X143691000Y-85125000D01*
X143691000Y-85125000D02*
X155121000Y-85125000D01*
X155121000Y-85125000D02*
X156391000Y-86395000D01*
X146101660Y-68094340D02*
X145323843Y-68094340D01*
X143598502Y-69833823D02*
X144369249Y-70604569D01*
X144369249Y-70604569D02*
X145444051Y-69529767D01*
X145444051Y-69529767D02*
X146073376Y-68900442D01*
X146073376Y-68900442D02*
X146490569Y-68483249D01*
X146490569Y-68483249D02*
X145712751Y-67705431D01*
X145712751Y-67705431D02*
X143591431Y-69826751D01*
X145581951Y-82264835D02*
X146458764Y-81388023D01*
X146996165Y-83679049D02*
X145581951Y-82264835D01*
X147872977Y-82802236D02*
X146996165Y-83679049D01*
X146458764Y-81388023D02*
X147872977Y-82802236D01*
D12*
X162023381Y-87436428D02*
X162023381Y-88007857D01*
X162023381Y-87722143D02*
X161023381Y-87722143D01*
X161166238Y-87817381D01*
X161261476Y-87912619D01*
X161309095Y-88007857D01*
X161023381Y-86817381D02*
X161023381Y-86722142D01*
X161071000Y-86626904D01*
X161118619Y-86579285D01*
X161213857Y-86531666D01*
X161404333Y-86484047D01*
X161642429Y-86484047D01*
X161832905Y-86531666D01*
X161928143Y-86579285D01*
X161975762Y-86626904D01*
X162023381Y-86722142D01*
X162023381Y-86817381D01*
X161975762Y-86912619D01*
X161928143Y-86960238D01*
X161832905Y-87007857D01*
X161642429Y-87055476D01*
X161404333Y-87055476D01*
X161213857Y-87007857D01*
X161118619Y-86960238D01*
X161071000Y-86912619D01*
X161023381Y-86817381D01*
X161356714Y-85626904D02*
X162023381Y-85626904D01*
X161356714Y-86055476D02*
X161880524Y-86055476D01*
X161975762Y-86007857D01*
X162023381Y-85912619D01*
X162023381Y-85769761D01*
X161975762Y-85674523D01*
X161928143Y-85626904D01*
X161499571Y-84817380D02*
X161499571Y-85150714D01*
X162023381Y-85150714D02*
X161023381Y-85150714D01*
X161023381Y-84674523D01*
D13*
X158706714Y-86498333D02*
X158744810Y-86536428D01*
X158782905Y-86650714D01*
X158782905Y-86726904D01*
X158744810Y-86841190D01*
X158668619Y-86917381D01*
X158592429Y-86955476D01*
X158440048Y-86993571D01*
X158325762Y-86993571D01*
X158173381Y-86955476D01*
X158097190Y-86917381D01*
X158021000Y-86841190D01*
X157982905Y-86726904D01*
X157982905Y-86650714D01*
X158021000Y-86536428D01*
X158059095Y-86498333D01*
X158059095Y-86193571D02*
X158021000Y-86155476D01*
X157982905Y-86079285D01*
X157982905Y-85888809D01*
X158021000Y-85812619D01*
X158059095Y-85774523D01*
X158135286Y-85736428D01*
X158211476Y-85736428D01*
X158325762Y-85774523D01*
X158782905Y-86231666D01*
X158782905Y-85736428D01*
D12*
X156233381Y-84817381D02*
X155661952Y-84817381D01*
X155947666Y-84817381D02*
X155947666Y-83817381D01*
X155852428Y-83960238D01*
X155757190Y-84055476D01*
X155661952Y-84103095D01*
X156852428Y-83817381D02*
X156947667Y-83817381D01*
X157042905Y-83865000D01*
X157090524Y-83912619D01*
X157138143Y-84007857D01*
X157185762Y-84198333D01*
X157185762Y-84436429D01*
X157138143Y-84626905D01*
X157090524Y-84722143D01*
X157042905Y-84769762D01*
X156947667Y-84817381D01*
X156852428Y-84817381D01*
X156757190Y-84769762D01*
X156709571Y-84722143D01*
X156661952Y-84626905D01*
X156614333Y-84436429D01*
X156614333Y-84198333D01*
X156661952Y-84007857D01*
X156709571Y-83912619D01*
X156757190Y-83865000D01*
X156852428Y-83817381D01*
X157804809Y-83817381D02*
X157900048Y-83817381D01*
X157995286Y-83865000D01*
X158042905Y-83912619D01*
X158090524Y-84007857D01*
X158138143Y-84198333D01*
X158138143Y-84436429D01*
X158090524Y-84626905D01*
X158042905Y-84722143D01*
X157995286Y-84769762D01*
X157900048Y-84817381D01*
X157804809Y-84817381D01*
X157709571Y-84769762D01*
X157661952Y-84722143D01*
X157614333Y-84626905D01*
X157566714Y-84436429D01*
X157566714Y-84198333D01*
X157614333Y-84007857D01*
X157661952Y-83912619D01*
X157709571Y-83865000D01*
X157804809Y-83817381D01*
X158566714Y-84150714D02*
X158566714Y-84817381D01*
X158566714Y-84245952D02*
X158614333Y-84198333D01*
X158709571Y-84150714D01*
X158852429Y-84150714D01*
X158947667Y-84198333D01*
X158995286Y-84293571D01*
X158995286Y-84817381D01*
X159804810Y-84293571D02*
X159471476Y-84293571D01*
X159471476Y-84817381D02*
X159471476Y-83817381D01*
X159947667Y-83817381D01*
X154864334Y-82772143D02*
X154816715Y-82819762D01*
X154673858Y-82867381D01*
X154578620Y-82867381D01*
X154435762Y-82819762D01*
X154340524Y-82724524D01*
X154292905Y-82629286D01*
X154245286Y-82438810D01*
X154245286Y-82295952D01*
X154292905Y-82105476D01*
X154340524Y-82010238D01*
X154435762Y-81915000D01*
X154578620Y-81867381D01*
X154673858Y-81867381D01*
X154816715Y-81915000D01*
X154864334Y-81962619D01*
X155197667Y-81867381D02*
X155816715Y-81867381D01*
X155483381Y-82248333D01*
X155626239Y-82248333D01*
X155721477Y-82295952D01*
X155769096Y-82343571D01*
X155816715Y-82438810D01*
X155816715Y-82676905D01*
X155769096Y-82772143D01*
X155721477Y-82819762D01*
X155626239Y-82867381D01*
X155340524Y-82867381D01*
X155245286Y-82819762D01*
X155197667Y-82772143D01*
X157433381Y-81512619D02*
X157433381Y-82084048D01*
X157433381Y-81798334D02*
X156433381Y-81798334D01*
X156576238Y-81893572D01*
X156671476Y-81988810D01*
X156719095Y-82084048D01*
X156433381Y-80893572D02*
X156433381Y-80798333D01*
X156481000Y-80703095D01*
X156528619Y-80655476D01*
X156623857Y-80607857D01*
X156814333Y-80560238D01*
X157052429Y-80560238D01*
X157242905Y-80607857D01*
X157338143Y-80655476D01*
X157385762Y-80703095D01*
X157433381Y-80798333D01*
X157433381Y-80893572D01*
X157385762Y-80988810D01*
X157338143Y-81036429D01*
X157242905Y-81084048D01*
X157052429Y-81131667D01*
X156814333Y-81131667D01*
X156623857Y-81084048D01*
X156528619Y-81036429D01*
X156481000Y-80988810D01*
X156433381Y-80893572D01*
X156433381Y-79941191D02*
X156433381Y-79845952D01*
X156481000Y-79750714D01*
X156528619Y-79703095D01*
X156623857Y-79655476D01*
X156814333Y-79607857D01*
X157052429Y-79607857D01*
X157242905Y-79655476D01*
X157338143Y-79703095D01*
X157385762Y-79750714D01*
X157433381Y-79845952D01*
X157433381Y-79941191D01*
X157385762Y-80036429D01*
X157338143Y-80084048D01*
X157242905Y-80131667D01*
X157052429Y-80179286D01*
X156814333Y-80179286D01*
X156623857Y-80131667D01*
X156528619Y-80084048D01*
X156481000Y-80036429D01*
X156433381Y-79941191D01*
X156766714Y-79179286D02*
X157433381Y-79179286D01*
X156861952Y-79179286D02*
X156814333Y-79131667D01*
X156766714Y-79036429D01*
X156766714Y-78893571D01*
X156814333Y-78798333D01*
X156909571Y-78750714D01*
X157433381Y-78750714D01*
X156909571Y-77941190D02*
X156909571Y-78274524D01*
X157433381Y-78274524D02*
X156433381Y-78274524D01*
X156433381Y-77798333D01*
X156684334Y-80932143D02*
X156636715Y-80979762D01*
X156493858Y-81027381D01*
X156398620Y-81027381D01*
X156255762Y-80979762D01*
X156160524Y-80884524D01*
X156112905Y-80789286D01*
X156065286Y-80598810D01*
X156065286Y-80455952D01*
X156112905Y-80265476D01*
X156160524Y-80170238D01*
X156255762Y-80075000D01*
X156398620Y-80027381D01*
X156493858Y-80027381D01*
X156636715Y-80075000D01*
X156684334Y-80122619D01*
X157541477Y-80360714D02*
X157541477Y-81027381D01*
X157303381Y-79979762D02*
X157065286Y-80694048D01*
X157684334Y-80694048D01*
X141769397Y-76494992D02*
X142106115Y-76831710D01*
X141500024Y-76629679D02*
X142442833Y-76158274D01*
X141971428Y-77101084D01*
X142813222Y-76528664D02*
X143217283Y-76932725D01*
X142308146Y-77437801D02*
X143015252Y-76730694D01*
X142745879Y-77875534D02*
X143452985Y-77168427D01*
X143183612Y-77909206D01*
X143924390Y-77639832D01*
X143217283Y-78346939D01*
X143924390Y-78313266D02*
X144160093Y-78548969D01*
X143890719Y-79020374D02*
X143554001Y-78683656D01*
X144261107Y-77976549D01*
X144597825Y-78313267D01*
X145237589Y-79020374D02*
X145203917Y-78919359D01*
X145102902Y-78818344D01*
X144968214Y-78750999D01*
X144833527Y-78750999D01*
X144732512Y-78784671D01*
X144564154Y-78885686D01*
X144463138Y-78986702D01*
X144362123Y-79155061D01*
X144328451Y-79256076D01*
X144328451Y-79390763D01*
X144395795Y-79525450D01*
X144463138Y-79592794D01*
X144597825Y-79660137D01*
X144665169Y-79660137D01*
X144900871Y-79424435D01*
X144766184Y-79289748D01*
X145069229Y-79794824D02*
X145405947Y-80131542D01*
X144799856Y-79929511D02*
X145742664Y-79458106D01*
X145271260Y-80400916D01*
X146517115Y-80232557D02*
X146382428Y-80097870D01*
X146281413Y-80064198D01*
X146214069Y-80064198D01*
X146045711Y-80097870D01*
X145877352Y-80198885D01*
X145607978Y-80468259D01*
X145574306Y-80569274D01*
X145574306Y-80636618D01*
X145607978Y-80737633D01*
X145742665Y-80872320D01*
X145843680Y-80905992D01*
X145911024Y-80905992D01*
X146012039Y-80872320D01*
X146180397Y-80703962D01*
X146214070Y-80602946D01*
X146214070Y-80535603D01*
X146180398Y-80434587D01*
X146045711Y-80299900D01*
X145944695Y-80266228D01*
X145877352Y-80266228D01*
X145776336Y-80299901D01*
X146954848Y-81141694D02*
X146483444Y-81613099D01*
X147055863Y-80703961D02*
X146382428Y-81040679D01*
X146820161Y-81478412D01*
X147628283Y-81815129D02*
X147156879Y-82286534D01*
X147729298Y-81377396D02*
X147055863Y-81714114D01*
X147493596Y-82151847D01*
X147527268Y-82656923D02*
X148234374Y-81949816D01*
X148503749Y-82219191D01*
X148537421Y-82320206D01*
X148537421Y-82387549D01*
X148503749Y-82488564D01*
X148402734Y-82589579D01*
X148301718Y-82623251D01*
X148234375Y-82623251D01*
X148133360Y-82589579D01*
X147863985Y-82320205D01*
X148402733Y-83128328D02*
X148739451Y-83465046D01*
X148133359Y-83263015D02*
X149076168Y-82791610D01*
X148604764Y-83734419D01*
X149109840Y-83700748D02*
X149648588Y-84239496D01*
X149884290Y-84609885D02*
X150221008Y-84946603D01*
X149614916Y-84744572D02*
X150557725Y-84273167D01*
X150086321Y-85215976D01*
X150370848Y-74964611D02*
X151077955Y-74257504D01*
X151178970Y-75638046D02*
X151111626Y-75638046D01*
X150976939Y-75570703D01*
X150909596Y-75503359D01*
X150842252Y-75368672D01*
X150842252Y-75233985D01*
X150875924Y-75132970D01*
X150976939Y-74964611D01*
X151077955Y-74863595D01*
X151246313Y-74762580D01*
X151347328Y-74728908D01*
X151482015Y-74728908D01*
X151616703Y-74796253D01*
X151684046Y-74863596D01*
X151751390Y-74998283D01*
X151751390Y-75065626D01*
X151785061Y-76378825D02*
X151381000Y-75974763D01*
X151583030Y-76176794D02*
X152290137Y-75469687D01*
X152121778Y-75503359D01*
X151987092Y-75503359D01*
X151886076Y-75469687D01*
X142988143Y-91688809D02*
X143035762Y-91736428D01*
X143083381Y-91879285D01*
X143083381Y-91974523D01*
X143035762Y-92117381D01*
X142940524Y-92212619D01*
X142845286Y-92260238D01*
X142654810Y-92307857D01*
X142511952Y-92307857D01*
X142321476Y-92260238D01*
X142226238Y-92212619D01*
X142131000Y-92117381D01*
X142083381Y-91974523D01*
X142083381Y-91879285D01*
X142131000Y-91736428D01*
X142178619Y-91688809D01*
X142083381Y-91069762D02*
X142083381Y-90879285D01*
X142131000Y-90784047D01*
X142226238Y-90688809D01*
X142416714Y-90641190D01*
X142750048Y-90641190D01*
X142940524Y-90688809D01*
X143035762Y-90784047D01*
X143083381Y-90879285D01*
X143083381Y-91069762D01*
X143035762Y-91165000D01*
X142940524Y-91260238D01*
X142750048Y-91307857D01*
X142416714Y-91307857D01*
X142226238Y-91260238D01*
X142131000Y-91165000D01*
X142083381Y-91069762D01*
X143083381Y-90212619D02*
X142083381Y-90212619D01*
X143083381Y-89641190D01*
X142083381Y-89641190D01*
X143083381Y-89165000D02*
X142083381Y-89165000D01*
X143083381Y-88593571D01*
X142083381Y-88593571D01*
X143178619Y-88355476D02*
X143178619Y-87593571D01*
X142083381Y-87165000D02*
X142083381Y-87069761D01*
X142131000Y-86974523D01*
X142178619Y-86926904D01*
X142273857Y-86879285D01*
X142464333Y-86831666D01*
X142702429Y-86831666D01*
X142892905Y-86879285D01*
X142988143Y-86926904D01*
X143035762Y-86974523D01*
X143083381Y-87069761D01*
X143083381Y-87165000D01*
X143035762Y-87260238D01*
X142988143Y-87307857D01*
X142892905Y-87355476D01*
X142702429Y-87403095D01*
X142464333Y-87403095D01*
X142273857Y-87355476D01*
X142178619Y-87307857D01*
X142131000Y-87260238D01*
X142083381Y-87165000D01*
X142178619Y-86450714D02*
X142131000Y-86403095D01*
X142083381Y-86307857D01*
X142083381Y-86069761D01*
X142131000Y-85974523D01*
X142178619Y-85926904D01*
X142273857Y-85879285D01*
X142369095Y-85879285D01*
X142511952Y-85926904D01*
X143083381Y-86498333D01*
X143083381Y-85879285D01*
X142083381Y-85545952D02*
X143083381Y-84879285D01*
X142083381Y-84879285D02*
X143083381Y-85545952D01*
X142083381Y-84307857D02*
X142083381Y-84212618D01*
X142131000Y-84117380D01*
X142178619Y-84069761D01*
X142273857Y-84022142D01*
X142464333Y-83974523D01*
X142702429Y-83974523D01*
X142892905Y-84022142D01*
X142988143Y-84069761D01*
X143035762Y-84117380D01*
X143083381Y-84212618D01*
X143083381Y-84307857D01*
X143035762Y-84403095D01*
X142988143Y-84450714D01*
X142892905Y-84498333D01*
X142702429Y-84545952D01*
X142464333Y-84545952D01*
X142273857Y-84498333D01*
X142178619Y-84450714D01*
X142131000Y-84403095D01*
X142083381Y-84307857D01*
X142083381Y-83069761D02*
X142083381Y-83545952D01*
X142559571Y-83593571D01*
X142511952Y-83545952D01*
X142464333Y-83450714D01*
X142464333Y-83212618D01*
X142511952Y-83117380D01*
X142559571Y-83069761D01*
X142654810Y-83022142D01*
X142892905Y-83022142D01*
X142988143Y-83069761D01*
X143035762Y-83117380D01*
X143083381Y-83212618D01*
X143083381Y-83450714D01*
X143035762Y-83545952D01*
X142988143Y-83593571D01*
X149302905Y-88117381D02*
X149302905Y-87117381D01*
X149683858Y-87117381D01*
X149779096Y-87165000D01*
X149826715Y-87212619D01*
X149874334Y-87307857D01*
X149874334Y-87450714D01*
X149826715Y-87545952D01*
X149779096Y-87593571D01*
X149683858Y-87641190D01*
X149302905Y-87641190D01*
X150255286Y-87212619D02*
X150302905Y-87165000D01*
X150398143Y-87117381D01*
X150636239Y-87117381D01*
X150731477Y-87165000D01*
X150779096Y-87212619D01*
X150826715Y-87307857D01*
X150826715Y-87403095D01*
X150779096Y-87545952D01*
X150207667Y-88117381D01*
X150826715Y-88117381D01*
X141707497Y-68077504D02*
X141606482Y-68111176D01*
X141539138Y-68111176D01*
X141438123Y-68077504D01*
X141404451Y-68043832D01*
X141370780Y-67942817D01*
X141370780Y-67875474D01*
X141404451Y-67774458D01*
X141539139Y-67639771D01*
X141640154Y-67606099D01*
X141707497Y-67606099D01*
X141808513Y-67639771D01*
X141842184Y-67673443D01*
X141875856Y-67774458D01*
X141875856Y-67841801D01*
X141842184Y-67942816D01*
X141707497Y-68077504D01*
X141673825Y-68178519D01*
X141673825Y-68245863D01*
X141707497Y-68346878D01*
X141842184Y-68481565D01*
X141943199Y-68515237D01*
X142010543Y-68515237D01*
X142111558Y-68481565D01*
X142246246Y-68346878D01*
X142279917Y-68245863D01*
X142279917Y-68178519D01*
X142246246Y-68077504D01*
X142111559Y-67942817D01*
X142010543Y-67909145D01*
X141943199Y-67909145D01*
X141842184Y-67942816D01*
X142683978Y-67909145D02*
X141976871Y-67202039D01*
X142717650Y-67471412D01*
X142448276Y-66730634D01*
X143155383Y-67437741D01*
X143492100Y-67101023D02*
X142784993Y-66393917D01*
X143121710Y-66730634D02*
X143525772Y-66326573D01*
X143896161Y-66696962D02*
X143189054Y-65989855D01*
X143694130Y-65956184D02*
X144064520Y-65585794D01*
X144165535Y-66427588D01*
X144535925Y-66057199D01*
X144793513Y-69378917D02*
X145029215Y-69614619D01*
X144369249Y-69284636D02*
X144793513Y-69378917D01*
X144699232Y-68954653D01*
X145618471Y-69025364D02*
X145335628Y-69308207D01*
X145477049Y-69166785D02*
X144982075Y-68671811D01*
X145005645Y-68789661D01*
X145005645Y-68883942D01*
X144982075Y-68954653D01*
X145183381Y-84737381D02*
X144611952Y-84737381D01*
X144897666Y-84737381D02*
X144897666Y-83737381D01*
X144802428Y-83880238D01*
X144707190Y-83975476D01*
X144611952Y-84023095D01*
X145802428Y-83737381D02*
X145897667Y-83737381D01*
X145992905Y-83785000D01*
X146040524Y-83832619D01*
X146088143Y-83927857D01*
X146135762Y-84118333D01*
X146135762Y-84356429D01*
X146088143Y-84546905D01*
X146040524Y-84642143D01*
X145992905Y-84689762D01*
X145897667Y-84737381D01*
X145802428Y-84737381D01*
X145707190Y-84689762D01*
X145659571Y-84642143D01*
X145611952Y-84546905D01*
X145564333Y-84356429D01*
X145564333Y-84118333D01*
X145611952Y-83927857D01*
X145659571Y-83832619D01*
X145707190Y-83785000D01*
X145802428Y-83737381D01*
X146754809Y-83737381D02*
X146850048Y-83737381D01*
X146945286Y-83785000D01*
X146992905Y-83832619D01*
X147040524Y-83927857D01*
X147088143Y-84118333D01*
X147088143Y-84356429D01*
X147040524Y-84546905D01*
X146992905Y-84642143D01*
X146945286Y-84689762D01*
X146850048Y-84737381D01*
X146754809Y-84737381D01*
X146659571Y-84689762D01*
X146611952Y-84642143D01*
X146564333Y-84546905D01*
X146516714Y-84356429D01*
X146516714Y-84118333D01*
X146564333Y-83927857D01*
X146611952Y-83832619D01*
X146659571Y-83785000D01*
X146754809Y-83737381D01*
X147516714Y-84070714D02*
X147516714Y-84737381D01*
X147516714Y-84165952D02*
X147564333Y-84118333D01*
X147659571Y-84070714D01*
X147802429Y-84070714D01*
X147897667Y-84118333D01*
X147945286Y-84213571D01*
X147945286Y-84737381D01*
X148754810Y-84213571D02*
X148421476Y-84213571D01*
X148421476Y-84737381D02*
X148421476Y-83737381D01*
X148897667Y-83737381D01*
X144814334Y-83872143D02*
X144766715Y-83919762D01*
X144623858Y-83967381D01*
X144528620Y-83967381D01*
X144385762Y-83919762D01*
X144290524Y-83824524D01*
X144242905Y-83729286D01*
X144195286Y-83538810D01*
X144195286Y-83395952D01*
X144242905Y-83205476D01*
X144290524Y-83110238D01*
X144385762Y-83015000D01*
X144528620Y-82967381D01*
X144623858Y-82967381D01*
X144766715Y-83015000D01*
X144814334Y-83062619D01*
X145766715Y-83967381D02*
X145195286Y-83967381D01*
X145481000Y-83967381D02*
X145481000Y-82967381D01*
X145385762Y-83110238D01*
X145290524Y-83205476D01*
X145195286Y-83253095D01*
M02*
