G04 #@! TF.FileFunction,Soldermask,Top*
%FSLAX46Y46*%
G04 Gerber Fmt 4.6, Leading zero omitted, Abs format (unit mm)*
G04 Created by KiCad (PCBNEW 4.0.6) date 08/13/17 20:11:31*
%MOMM*%
%LPD*%
G01*
G04 APERTURE LIST*
%ADD10C,0.100000*%
%ADD11C,2.500000*%
%ADD12R,2.900000X2.350000*%
%ADD13R,1.400000X1.650000*%
%ADD14R,1.650000X1.400000*%
%ADD15R,2.100000X2.100000*%
%ADD16C,2.100000*%
G04 APERTURE END LIST*
D10*
D11*
X161569400Y-67843400D03*
X161569400Y-70383400D03*
X161569400Y-72923400D03*
X161569400Y-75463400D03*
X161569400Y-78003400D03*
X161569400Y-80543400D03*
X161569400Y-83083400D03*
X161569400Y-85623400D03*
X161569400Y-88163400D03*
X161569400Y-65303400D03*
X159029400Y-65303400D03*
X156489400Y-65303400D03*
X153949400Y-65303400D03*
X151409400Y-65303400D03*
X148869400Y-65303400D03*
X146329400Y-65303400D03*
X143789400Y-65303400D03*
X141249400Y-65303400D03*
X141249400Y-67843400D03*
X141249400Y-70383400D03*
X141249400Y-72923400D03*
X141249400Y-75463400D03*
X141249400Y-78003400D03*
X141249400Y-80543400D03*
X141249400Y-83083400D03*
X141249400Y-85623400D03*
X141249400Y-88163400D03*
D12*
X158421000Y-87890000D03*
X158421000Y-84840000D03*
D13*
X156781000Y-82615000D03*
X158781000Y-82615000D03*
D14*
X158731000Y-78965000D03*
X158731000Y-80965000D03*
D10*
G36*
X149171291Y-68140188D02*
X149843042Y-67468437D01*
X151186545Y-68811940D01*
X150514794Y-69483691D01*
X149171291Y-68140188D01*
X149171291Y-68140188D01*
G37*
G36*
X148605606Y-68705874D02*
X149277357Y-68034123D01*
X150620860Y-69377626D01*
X149949109Y-70049377D01*
X148605606Y-68705874D01*
X148605606Y-68705874D01*
G37*
G36*
X148039921Y-69271559D02*
X148711672Y-68599808D01*
X150055175Y-69943311D01*
X149383424Y-70615062D01*
X148039921Y-69271559D01*
X148039921Y-69271559D01*
G37*
G36*
X147474235Y-69837244D02*
X148145986Y-69165493D01*
X149489489Y-70508996D01*
X148817738Y-71180747D01*
X147474235Y-69837244D01*
X147474235Y-69837244D01*
G37*
G36*
X146908550Y-70402930D02*
X147580301Y-69731179D01*
X148923804Y-71074682D01*
X148252053Y-71746433D01*
X146908550Y-70402930D01*
X146908550Y-70402930D01*
G37*
G36*
X146342864Y-70968615D02*
X147014615Y-70296864D01*
X148358118Y-71640367D01*
X147686367Y-72312118D01*
X146342864Y-70968615D01*
X146342864Y-70968615D01*
G37*
G36*
X145777179Y-71534301D02*
X146448930Y-70862550D01*
X147792433Y-72206053D01*
X147120682Y-72877804D01*
X145777179Y-71534301D01*
X145777179Y-71534301D01*
G37*
G36*
X145211493Y-72099986D02*
X145883244Y-71428235D01*
X147226747Y-72771738D01*
X146554996Y-73443489D01*
X145211493Y-72099986D01*
X145211493Y-72099986D01*
G37*
G36*
X144645808Y-72665672D02*
X145317559Y-71993921D01*
X146661062Y-73337424D01*
X145989311Y-74009175D01*
X144645808Y-72665672D01*
X144645808Y-72665672D01*
G37*
G36*
X144080123Y-73231357D02*
X144751874Y-72559606D01*
X146095377Y-73903109D01*
X145423626Y-74574860D01*
X144080123Y-73231357D01*
X144080123Y-73231357D01*
G37*
G36*
X143514437Y-73797042D02*
X144186188Y-73125291D01*
X145529691Y-74468794D01*
X144857940Y-75140545D01*
X143514437Y-73797042D01*
X143514437Y-73797042D01*
G37*
G36*
X144186188Y-77544709D02*
X143514437Y-76872958D01*
X144857940Y-75529455D01*
X145529691Y-76201206D01*
X144186188Y-77544709D01*
X144186188Y-77544709D01*
G37*
G36*
X144751874Y-78110394D02*
X144080123Y-77438643D01*
X145423626Y-76095140D01*
X146095377Y-76766891D01*
X144751874Y-78110394D01*
X144751874Y-78110394D01*
G37*
G36*
X145317559Y-78676079D02*
X144645808Y-78004328D01*
X145989311Y-76660825D01*
X146661062Y-77332576D01*
X145317559Y-78676079D01*
X145317559Y-78676079D01*
G37*
G36*
X145883244Y-79241765D02*
X145211493Y-78570014D01*
X146554996Y-77226511D01*
X147226747Y-77898262D01*
X145883244Y-79241765D01*
X145883244Y-79241765D01*
G37*
G36*
X146448930Y-79807450D02*
X145777179Y-79135699D01*
X147120682Y-77792196D01*
X147792433Y-78463947D01*
X146448930Y-79807450D01*
X146448930Y-79807450D01*
G37*
G36*
X147014615Y-80373136D02*
X146342864Y-79701385D01*
X147686367Y-78357882D01*
X148358118Y-79029633D01*
X147014615Y-80373136D01*
X147014615Y-80373136D01*
G37*
G36*
X147580301Y-80938821D02*
X146908550Y-80267070D01*
X148252053Y-78923567D01*
X148923804Y-79595318D01*
X147580301Y-80938821D01*
X147580301Y-80938821D01*
G37*
G36*
X148145986Y-81504507D02*
X147474235Y-80832756D01*
X148817738Y-79489253D01*
X149489489Y-80161004D01*
X148145986Y-81504507D01*
X148145986Y-81504507D01*
G37*
G36*
X148711672Y-82070192D02*
X148039921Y-81398441D01*
X149383424Y-80054938D01*
X150055175Y-80726689D01*
X148711672Y-82070192D01*
X148711672Y-82070192D01*
G37*
G36*
X149277357Y-82635877D02*
X148605606Y-81964126D01*
X149949109Y-80620623D01*
X150620860Y-81292374D01*
X149277357Y-82635877D01*
X149277357Y-82635877D01*
G37*
G36*
X149843042Y-83201563D02*
X149171291Y-82529812D01*
X150514794Y-81186309D01*
X151186545Y-81858060D01*
X149843042Y-83201563D01*
X149843042Y-83201563D01*
G37*
G36*
X151575455Y-81858060D02*
X152247206Y-81186309D01*
X153590709Y-82529812D01*
X152918958Y-83201563D01*
X151575455Y-81858060D01*
X151575455Y-81858060D01*
G37*
G36*
X152141140Y-81292374D02*
X152812891Y-80620623D01*
X154156394Y-81964126D01*
X153484643Y-82635877D01*
X152141140Y-81292374D01*
X152141140Y-81292374D01*
G37*
G36*
X152706825Y-80726689D02*
X153378576Y-80054938D01*
X154722079Y-81398441D01*
X154050328Y-82070192D01*
X152706825Y-80726689D01*
X152706825Y-80726689D01*
G37*
G36*
X153272511Y-80161004D02*
X153944262Y-79489253D01*
X155287765Y-80832756D01*
X154616014Y-81504507D01*
X153272511Y-80161004D01*
X153272511Y-80161004D01*
G37*
G36*
X153838196Y-79595318D02*
X154509947Y-78923567D01*
X155853450Y-80267070D01*
X155181699Y-80938821D01*
X153838196Y-79595318D01*
X153838196Y-79595318D01*
G37*
G36*
X154403882Y-79029633D02*
X155075633Y-78357882D01*
X156419136Y-79701385D01*
X155747385Y-80373136D01*
X154403882Y-79029633D01*
X154403882Y-79029633D01*
G37*
G36*
X154969567Y-78463947D02*
X155641318Y-77792196D01*
X156984821Y-79135699D01*
X156313070Y-79807450D01*
X154969567Y-78463947D01*
X154969567Y-78463947D01*
G37*
G36*
X155535253Y-77898262D02*
X156207004Y-77226511D01*
X157550507Y-78570014D01*
X156878756Y-79241765D01*
X155535253Y-77898262D01*
X155535253Y-77898262D01*
G37*
G36*
X156100938Y-77332576D02*
X156772689Y-76660825D01*
X158116192Y-78004328D01*
X157444441Y-78676079D01*
X156100938Y-77332576D01*
X156100938Y-77332576D01*
G37*
G36*
X156666623Y-76766891D02*
X157338374Y-76095140D01*
X158681877Y-77438643D01*
X158010126Y-78110394D01*
X156666623Y-76766891D01*
X156666623Y-76766891D01*
G37*
G36*
X157232309Y-76201206D02*
X157904060Y-75529455D01*
X159247563Y-76872958D01*
X158575812Y-77544709D01*
X157232309Y-76201206D01*
X157232309Y-76201206D01*
G37*
G36*
X157904060Y-75140545D02*
X157232309Y-74468794D01*
X158575812Y-73125291D01*
X159247563Y-73797042D01*
X157904060Y-75140545D01*
X157904060Y-75140545D01*
G37*
G36*
X157338374Y-74574860D02*
X156666623Y-73903109D01*
X158010126Y-72559606D01*
X158681877Y-73231357D01*
X157338374Y-74574860D01*
X157338374Y-74574860D01*
G37*
G36*
X156772689Y-74009175D02*
X156100938Y-73337424D01*
X157444441Y-71993921D01*
X158116192Y-72665672D01*
X156772689Y-74009175D01*
X156772689Y-74009175D01*
G37*
G36*
X156207004Y-73443489D02*
X155535253Y-72771738D01*
X156878756Y-71428235D01*
X157550507Y-72099986D01*
X156207004Y-73443489D01*
X156207004Y-73443489D01*
G37*
G36*
X155641318Y-72877804D02*
X154969567Y-72206053D01*
X156313070Y-70862550D01*
X156984821Y-71534301D01*
X155641318Y-72877804D01*
X155641318Y-72877804D01*
G37*
G36*
X155075633Y-72312118D02*
X154403882Y-71640367D01*
X155747385Y-70296864D01*
X156419136Y-70968615D01*
X155075633Y-72312118D01*
X155075633Y-72312118D01*
G37*
G36*
X154509947Y-71746433D02*
X153838196Y-71074682D01*
X155181699Y-69731179D01*
X155853450Y-70402930D01*
X154509947Y-71746433D01*
X154509947Y-71746433D01*
G37*
G36*
X153944262Y-71180747D02*
X153272511Y-70508996D01*
X154616014Y-69165493D01*
X155287765Y-69837244D01*
X153944262Y-71180747D01*
X153944262Y-71180747D01*
G37*
G36*
X153378576Y-70615062D02*
X152706825Y-69943311D01*
X154050328Y-68599808D01*
X154722079Y-69271559D01*
X153378576Y-70615062D01*
X153378576Y-70615062D01*
G37*
G36*
X152812891Y-70049377D02*
X152141140Y-69377626D01*
X153484643Y-68034123D01*
X154156394Y-68705874D01*
X152812891Y-70049377D01*
X152812891Y-70049377D01*
G37*
G36*
X152247206Y-69483691D02*
X151575455Y-68811940D01*
X152918958Y-67468437D01*
X153590709Y-68140188D01*
X152247206Y-69483691D01*
X152247206Y-69483691D01*
G37*
D15*
X155121000Y-86395000D03*
D16*
X155121000Y-88935000D03*
X152581000Y-86395000D03*
X152581000Y-88935000D03*
X150041000Y-86395000D03*
X150041000Y-88935000D03*
X147501000Y-86395000D03*
X147501000Y-88935000D03*
X144961000Y-86395000D03*
X144961000Y-88935000D03*
D10*
G36*
X145359198Y-67139746D02*
X147056254Y-68836802D01*
X146419858Y-69473198D01*
X144722802Y-67776142D01*
X145359198Y-67139746D01*
X145359198Y-67139746D01*
G37*
G36*
X144510670Y-67988274D02*
X146207726Y-69685330D01*
X145571330Y-70321726D01*
X143874274Y-68624670D01*
X144510670Y-67988274D01*
X144510670Y-67988274D01*
G37*
G36*
X143662142Y-68836802D02*
X145359198Y-70533858D01*
X144722802Y-71170254D01*
X143025746Y-69473198D01*
X143662142Y-68836802D01*
X143662142Y-68836802D01*
G37*
G36*
X144942020Y-81914817D02*
X146108746Y-80748091D01*
X147098696Y-81738041D01*
X145931970Y-82904767D01*
X144942020Y-81914817D01*
X144942020Y-81914817D01*
G37*
G36*
X146356233Y-83329030D02*
X147522959Y-82162304D01*
X148512909Y-83152254D01*
X147346183Y-84318980D01*
X146356233Y-83329030D01*
X146356233Y-83329030D01*
G37*
M02*
