M48
;DRILL file {KiCad 4.0.6} date 08/13/17 20:11:33
;FORMAT={-:-/ absolute / inch / decimal}
FMAT,2
INCH,TZ
T1C0.016
T2C0.039
T3C0.059
%
G90
G05
M72
T1
X5.6355Y-3.0333
X5.6552Y-2.662
X5.7205Y-3.1549
X5.7607Y-2.9459
X5.7634Y-3.3179
X5.7886Y-2.9632
X5.7949Y-2.897
X5.8327Y-3.064
X5.8481Y-2.8545
X5.8512Y-3.0313
X5.8701Y-2.8183
X5.8721Y-3.0624
X5.8811Y-3.0002
X5.9382Y-3.1734
X5.9615Y-3.1982
X5.9646Y-3.0128
X5.9662Y-3.0616
X5.9804Y-2.6754
X5.9941Y-2.9348
X5.9953Y-3.075
X6.0044Y-3.1077
X6.0115Y-2.9648
X6.0241Y-3.1356
X6.039Y-2.9305
X6.0504Y-2.9994
X6.1079Y-3.0506
X6.1158Y-2.7199
X6.1296Y-3.0144
X6.1363Y-2.9781
X6.1473Y-2.9447
X6.1536Y-3.3427
X6.2508Y-2.8549
X6.2575Y-2.6719
X6.2638Y-3.0616
X6.2676Y-2.9634
X6.2681Y-3.0049
T2
X5.7071Y-3.4014
X5.7071Y-3.5014
X5.8071Y-3.4014
X5.8071Y-3.5014
X5.9071Y-3.4014
X5.9071Y-3.5014
X6.0071Y-3.4014
X6.0071Y-3.5014
X6.1071Y-3.4014
X6.1071Y-3.5014
T3
X5.561Y-2.571
X5.561Y-2.671
X5.561Y-2.771
X5.561Y-2.871
X5.561Y-2.971
X5.561Y-3.071
X5.561Y-3.171
X5.561Y-3.271
X5.561Y-3.371
X5.561Y-3.471
X5.661Y-2.571
X5.761Y-2.571
X5.861Y-2.571
X5.961Y-2.571
X6.061Y-2.571
X6.161Y-2.571
X6.261Y-2.571
X6.361Y-2.571
X6.361Y-2.671
X6.361Y-2.771
X6.361Y-2.871
X6.361Y-2.971
X6.361Y-3.071
X6.361Y-3.171
X6.361Y-3.271
X6.361Y-3.371
X6.361Y-3.471
T0
M30
