M48
;DRILL file {KiCad 4.0.6} date 05/09/19 17:23:03
;FORMAT={-:-/ absolute / inch / decimal}
FMAT,2
INCH,TZ
T1C0.016
T2C0.020
T3C0.059
%
G90
G05
M72
T1
X6.1678Y-3.2313
T2
X5.8075Y-3.3809
X5.8804Y-3.0994
X5.9729Y-3.1309
X5.9768Y-2.6624
X6.0241Y-2.9341
X6.0339Y-3.501
X6.1225Y-3.1073
X6.1402Y-2.873
X6.152Y-2.7077
T3
X5.5611Y-2.5711
X5.5611Y-2.6711
X5.5611Y-2.7711
X5.5611Y-2.8711
X5.5611Y-2.9711
X5.5611Y-3.0711
X5.5611Y-3.1711
X5.5611Y-3.2711
X5.5611Y-3.3711
X5.5611Y-3.4711
X5.6611Y-2.5711
X5.7611Y-2.5711
X5.8611Y-2.5711
X5.9611Y-2.5711
X6.0611Y-2.5711
X6.1611Y-2.5711
X6.2611Y-2.5711
X6.3611Y-2.5711
X6.3611Y-2.6711
X6.3611Y-2.7711
X6.3611Y-2.8711
X6.3611Y-2.9711
X6.3611Y-3.0711
X6.3611Y-3.1711
X6.3611Y-3.2711
X6.3611Y-3.3711
X6.3611Y-3.4711
T0
M30
