G04 #@! TF.FileFunction,Copper,L2,Bot,Signal*
%FSLAX46Y46*%
G04 Gerber Fmt 4.6, Leading zero omitted, Abs format (unit mm)*
G04 Created by KiCad (PCBNEW 4.0.6) date 05/09/19 17:23:09*
%MOMM*%
%LPD*%
G01*
G04 APERTURE LIST*
%ADD10C,0.100000*%
%ADD11C,2.100000*%
%ADD12R,2.000000X3.800000*%
%ADD13R,2.000000X1.500000*%
%ADD14C,1.000000*%
%ADD15C,0.600000*%
%ADD16C,0.400000*%
%ADD17C,0.750000*%
%ADD18C,0.500000*%
G04 APERTURE END LIST*
D10*
D11*
X161571000Y-67845000D03*
X161571000Y-70385000D03*
X161571000Y-72925000D03*
X161571000Y-75465000D03*
X161571000Y-78005000D03*
X161571000Y-80545000D03*
X161571000Y-83085000D03*
X161571000Y-85625000D03*
X161571000Y-88165000D03*
X161571000Y-65305000D03*
X159031000Y-65305000D03*
X156491000Y-65305000D03*
X153951000Y-65305000D03*
X151411000Y-65305000D03*
X148871000Y-65305000D03*
X146331000Y-65305000D03*
X143791000Y-65305000D03*
X141251000Y-65305000D03*
X141251000Y-67845000D03*
X141251000Y-70385000D03*
X141251000Y-72925000D03*
X141251000Y-75465000D03*
X141251000Y-78005000D03*
X141251000Y-80545000D03*
X141251000Y-83085000D03*
X141251000Y-85625000D03*
X141251000Y-88165000D03*
D12*
X149561000Y-85875000D03*
D13*
X155861000Y-85875000D03*
X155861000Y-88175000D03*
X155861000Y-83575000D03*
D14*
X156261000Y-68775000D03*
X151811000Y-67625000D03*
X153011000Y-74525000D03*
X153261000Y-88925000D03*
X147511000Y-85875000D03*
X149361000Y-78725000D03*
X151711000Y-79525000D03*
X155511000Y-78925000D03*
X155961000Y-72975000D03*
D15*
X156661000Y-82075000D03*
D16*
X158061000Y-70575000D02*
X158061000Y-88175000D01*
X156261000Y-68775000D02*
X158061000Y-70575000D01*
D17*
X155861000Y-88175000D02*
X158061000Y-88175000D01*
X158061000Y-88175000D02*
X161561000Y-88175000D01*
X161561000Y-88175000D02*
X161571000Y-88165000D01*
D16*
X161571000Y-85625000D02*
X160061000Y-85625000D01*
X156961000Y-67625000D02*
X151811000Y-67625000D01*
X159261000Y-69925000D02*
X156961000Y-67625000D01*
X159261000Y-84825000D02*
X159261000Y-69925000D01*
X160061000Y-85625000D02*
X159261000Y-84825000D01*
X141251000Y-72925000D02*
X142161000Y-72925000D01*
D18*
X143741000Y-80545000D02*
X141251000Y-80545000D01*
X145561000Y-78725000D02*
X143741000Y-80545000D01*
X145561000Y-76625000D02*
X145561000Y-78725000D01*
X147661000Y-74525000D02*
X145561000Y-76625000D01*
X153011000Y-74525000D02*
X147661000Y-74525000D01*
X141251000Y-88165000D02*
X146951000Y-88165000D01*
X147711000Y-88925000D02*
X153261000Y-88925000D01*
X146951000Y-88165000D02*
X147711000Y-88925000D01*
X149561000Y-85875000D02*
X147511000Y-85875000D01*
X149561000Y-78925000D02*
X149561000Y-85875000D01*
X149361000Y-78725000D02*
X149561000Y-78925000D01*
D17*
X149561000Y-85875000D02*
X155861000Y-85875000D01*
D18*
X153161000Y-83575000D02*
X155861000Y-83575000D01*
X151711000Y-82125000D02*
X153161000Y-83575000D01*
X151711000Y-79525000D02*
X151711000Y-82125000D01*
D16*
X155511000Y-73425000D02*
X155511000Y-78925000D01*
X155961000Y-72975000D02*
X155511000Y-73425000D01*
D18*
X141251000Y-83085000D02*
X144601000Y-83085000D01*
X155261000Y-82075000D02*
X156661000Y-82075000D01*
X153861000Y-80675000D02*
X155261000Y-82075000D01*
X153861000Y-77875000D02*
X153861000Y-80675000D01*
X153061000Y-77075000D02*
X153861000Y-77875000D01*
X148261000Y-77075000D02*
X153061000Y-77075000D01*
X147361000Y-77975000D02*
X148261000Y-77075000D01*
X147361000Y-80325000D02*
X147361000Y-77975000D01*
X144601000Y-83085000D02*
X147361000Y-80325000D01*
M02*
