M48
INCH,TZ
T1C0.025
T2C0.059
%
G90
G05
T1
X55350Y-43750
X57696Y-39179
X58804Y-37483
X60050Y-36200
X60251Y-43141
T2
X54500Y-36250
X54500Y-37250
X54500Y-38250
X54500Y-39250
X54500Y-40250
X54500Y-41250
X54500Y-42250
X54500Y-43250
X54500Y-44250
X54500Y-45250
X55500Y-45250
X56500Y-45250
X57500Y-45250
X58500Y-45250
X59500Y-45250
X60500Y-45250
X61500Y-45250
X62500Y-36250
X62500Y-37250
X62500Y-38250
X62500Y-39250
X62500Y-40250
X62500Y-41250
X62500Y-42250
X62500Y-43250
X62500Y-44250
X62500Y-45250
T0
M30
