G04 #@! TF.FileFunction,Legend,Bot*
%FSLAX46Y46*%
G04 Gerber Fmt 4.6, Leading zero omitted, Abs format (unit mm)*
G04 Created by KiCad (PCBNEW 0.201505071723+5645~23~ubuntu14.04.1-product) date dom 10 mag 2015 16:48:59 CEST*
%MOMM*%
G01*
G04 APERTURE LIST*
%ADD10C,0.100000*%
%ADD11C,0.300000*%
%ADD12C,0.127000*%
%ADD13C,0.200000*%
G04 APERTURE END LIST*
D10*
D11*
X155618571Y-94952858D02*
X154618571Y-94952858D01*
X154904286Y-94952858D02*
X154761429Y-95024286D01*
X154690000Y-95095715D01*
X154618571Y-95238572D01*
X154618571Y-95381429D01*
X155618571Y-95881429D02*
X154618571Y-95881429D01*
X154761429Y-95881429D02*
X154690000Y-95952857D01*
X154618571Y-96095715D01*
X154618571Y-96310000D01*
X154690000Y-96452857D01*
X154832857Y-96524286D01*
X155618571Y-96524286D01*
X154832857Y-96524286D02*
X154690000Y-96595715D01*
X154618571Y-96738572D01*
X154618571Y-96952857D01*
X154690000Y-97095715D01*
X154832857Y-97167143D01*
X155618571Y-97167143D01*
X155618571Y-98524286D02*
X154832857Y-98524286D01*
X154690000Y-98452857D01*
X154618571Y-98310000D01*
X154618571Y-98024286D01*
X154690000Y-97881429D01*
X155547143Y-98524286D02*
X155618571Y-98381429D01*
X155618571Y-98024286D01*
X155547143Y-97881429D01*
X155404286Y-97810000D01*
X155261429Y-97810000D01*
X155118571Y-97881429D01*
X155047143Y-98024286D01*
X155047143Y-98381429D01*
X154975714Y-98524286D01*
X154618571Y-99238572D02*
X156118571Y-99238572D01*
X154690000Y-99238572D02*
X154618571Y-99381429D01*
X154618571Y-99667143D01*
X154690000Y-99810000D01*
X154761429Y-99881429D01*
X154904286Y-99952858D01*
X155332857Y-99952858D01*
X155475714Y-99881429D01*
X155547143Y-99810000D01*
X155618571Y-99667143D01*
X155618571Y-99381429D01*
X155547143Y-99238572D01*
X155475714Y-100595715D02*
X155547143Y-100667143D01*
X155618571Y-100595715D01*
X155547143Y-100524286D01*
X155475714Y-100595715D01*
X155618571Y-100595715D01*
X155547143Y-101952858D02*
X155618571Y-101810001D01*
X155618571Y-101524287D01*
X155547143Y-101381429D01*
X155475714Y-101310001D01*
X155332857Y-101238572D01*
X154904286Y-101238572D01*
X154761429Y-101310001D01*
X154690000Y-101381429D01*
X154618571Y-101524287D01*
X154618571Y-101810001D01*
X154690000Y-101952858D01*
X155547143Y-103238572D02*
X155618571Y-103095715D01*
X155618571Y-102810001D01*
X155547143Y-102667143D01*
X155475714Y-102595715D01*
X155332857Y-102524286D01*
X154904286Y-102524286D01*
X154761429Y-102595715D01*
X154690000Y-102667143D01*
X154618571Y-102810001D01*
X154618571Y-103095715D01*
X154690000Y-103238572D01*
D12*
X146050000Y-94180660D02*
X145750280Y-93880940D01*
X145750280Y-93880940D02*
X146349720Y-93880940D01*
X146349720Y-93880940D02*
X146050000Y-94180660D01*
X146149060Y-94079060D02*
X145950940Y-94079060D01*
X145849340Y-93980000D02*
X146250660Y-93980000D01*
X146850100Y-94279720D02*
X145249900Y-94279720D01*
X145249900Y-93680280D02*
X146850100Y-93680280D01*
X145249900Y-92979240D02*
X145249900Y-94980760D01*
X145249900Y-94980760D02*
X146850100Y-94980760D01*
X146850100Y-94980760D02*
X146850100Y-92979240D01*
X146850100Y-92979240D02*
X145249900Y-92979240D01*
X144145000Y-107950000D02*
X145415000Y-107950000D01*
X144145000Y-106680000D02*
X145389600Y-106680000D01*
X144145000Y-106299000D02*
X144145000Y-108331000D01*
X144145000Y-108331000D02*
X145415000Y-108331000D01*
X145415000Y-108331000D02*
X145415000Y-106299000D01*
X145415000Y-106299000D02*
X144145000Y-106299000D01*
X147320000Y-100965000D02*
X148590000Y-100965000D01*
X147320000Y-99695000D02*
X148564600Y-99695000D01*
X147320000Y-99314000D02*
X147320000Y-101346000D01*
X147320000Y-101346000D02*
X148590000Y-101346000D01*
X148590000Y-101346000D02*
X148590000Y-99314000D01*
X148590000Y-99314000D02*
X147320000Y-99314000D01*
X144145000Y-100965000D02*
X145415000Y-100965000D01*
X144145000Y-99695000D02*
X145389600Y-99695000D01*
X144145000Y-99314000D02*
X144145000Y-101346000D01*
X144145000Y-101346000D02*
X145415000Y-101346000D01*
X145415000Y-101346000D02*
X145415000Y-99314000D01*
X145415000Y-99314000D02*
X144145000Y-99314000D01*
X147320000Y-107950000D02*
X148590000Y-107950000D01*
X147320000Y-106680000D02*
X148564600Y-106680000D01*
X147320000Y-106299000D02*
X147320000Y-108331000D01*
X147320000Y-108331000D02*
X148590000Y-108331000D01*
X148590000Y-108331000D02*
X148590000Y-106299000D01*
X148590000Y-106299000D02*
X147320000Y-106299000D01*
D13*
X148303241Y-93337143D02*
X148303241Y-92860952D01*
X147303241Y-92860952D01*
X147779431Y-93670476D02*
X147779431Y-94003810D01*
X148303241Y-94146667D02*
X148303241Y-93670476D01*
X147303241Y-93670476D01*
X147303241Y-94146667D01*
X148303241Y-94575238D02*
X147303241Y-94575238D01*
X147303241Y-94813333D01*
X147350860Y-94956191D01*
X147446098Y-95051429D01*
X147541336Y-95099048D01*
X147731812Y-95146667D01*
X147874670Y-95146667D01*
X148065146Y-95099048D01*
X148160384Y-95051429D01*
X148255622Y-94956191D01*
X148303241Y-94813333D01*
X148303241Y-94575238D01*
X145232381Y-110323334D02*
X144756190Y-109990000D01*
X145232381Y-109751905D02*
X144232381Y-109751905D01*
X144232381Y-110132858D01*
X144280000Y-110228096D01*
X144327619Y-110275715D01*
X144422857Y-110323334D01*
X144565714Y-110323334D01*
X144660952Y-110275715D01*
X144708571Y-110228096D01*
X144756190Y-110132858D01*
X144756190Y-109751905D01*
X145232381Y-111275715D02*
X145232381Y-110704286D01*
X145232381Y-110990000D02*
X144232381Y-110990000D01*
X144375238Y-110894762D01*
X144470476Y-110799524D01*
X144518095Y-110704286D01*
X148407381Y-103338334D02*
X147931190Y-103005000D01*
X148407381Y-102766905D02*
X147407381Y-102766905D01*
X147407381Y-103147858D01*
X147455000Y-103243096D01*
X147502619Y-103290715D01*
X147597857Y-103338334D01*
X147740714Y-103338334D01*
X147835952Y-103290715D01*
X147883571Y-103243096D01*
X147931190Y-103147858D01*
X147931190Y-102766905D01*
X147502619Y-103719286D02*
X147455000Y-103766905D01*
X147407381Y-103862143D01*
X147407381Y-104100239D01*
X147455000Y-104195477D01*
X147502619Y-104243096D01*
X147597857Y-104290715D01*
X147693095Y-104290715D01*
X147835952Y-104243096D01*
X148407381Y-103671667D01*
X148407381Y-104290715D01*
X145232381Y-103338334D02*
X144756190Y-103005000D01*
X145232381Y-102766905D02*
X144232381Y-102766905D01*
X144232381Y-103147858D01*
X144280000Y-103243096D01*
X144327619Y-103290715D01*
X144422857Y-103338334D01*
X144565714Y-103338334D01*
X144660952Y-103290715D01*
X144708571Y-103243096D01*
X144756190Y-103147858D01*
X144756190Y-102766905D01*
X144232381Y-103671667D02*
X144232381Y-104290715D01*
X144613333Y-103957381D01*
X144613333Y-104100239D01*
X144660952Y-104195477D01*
X144708571Y-104243096D01*
X144803810Y-104290715D01*
X145041905Y-104290715D01*
X145137143Y-104243096D01*
X145184762Y-104195477D01*
X145232381Y-104100239D01*
X145232381Y-103814524D01*
X145184762Y-103719286D01*
X145137143Y-103671667D01*
X148407381Y-110323334D02*
X147931190Y-109990000D01*
X148407381Y-109751905D02*
X147407381Y-109751905D01*
X147407381Y-110132858D01*
X147455000Y-110228096D01*
X147502619Y-110275715D01*
X147597857Y-110323334D01*
X147740714Y-110323334D01*
X147835952Y-110275715D01*
X147883571Y-110228096D01*
X147931190Y-110132858D01*
X147931190Y-109751905D01*
X147740714Y-111180477D02*
X148407381Y-111180477D01*
X147359762Y-110942381D02*
X148074048Y-110704286D01*
X148074048Y-111323334D01*
M02*
