<?xml version="1.0" standalone="no"?>
 <!DOCTYPE svg PUBLIC "-//W3C//DTD SVG 1.1//EN" 
 "http://www.w3.org/Graphics/SVG/1.1/DTD/svg11.dtd"> 
<svg xmlns="http://www.w3.org/2000/svg" version="1.1" 
    width="29.7002cm" height="21.0007cm" viewBox="0 0 116930 82680 ">
<title>SVG Picture created as micrduino_bt-F_SilkS.svg date 2015/03/23 17:57:14 </title>
  <desc>Picture generated by PCBNEW </desc>
<g style="fill:#000000; fill-opacity:1;stroke:#000000; stroke-opacity:1;
stroke-linecap:round; stroke-linejoin:round; "
 transform="translate(0 0) scale(1 1)">
</g>
<g style="fill:#000000; fill-opacity:0.0; 
stroke:#000000; stroke-width:39.3701; stroke-opacity:1; 
stroke-linecap:round; stroke-linejoin:round;">
</g>
<g style="fill:#000000; fill-opacity:0.0; 
stroke:#000000; stroke-width:59.0551; stroke-opacity:1; 
stroke-linecap:round; stroke-linejoin:round;">
<rect x="69685.9" y="65357.2" width="42519.7" height="12598.4" rx="0" />
</g>
<g style="fill:#000000; fill-opacity:0.0; 
stroke:#000000; stroke-width:39.3701; stroke-opacity:1; 
stroke-linecap:round; stroke-linejoin:round;">
</g>
<g style="fill:#000000; fill-opacity:0.0; 
stroke:#000000; stroke-width:59.0551; stroke-opacity:1; 
stroke-linecap:round; stroke-linejoin:round;">
<rect x="3937.01" y="3937.01" width="109056" height="74806" rx="0" />
</g>
<g style="fill:#000000; fill-opacity:0.0; 
stroke:#000000; stroke-width:39.3701; stroke-opacity:1; 
stroke-linecap:round; stroke-linejoin:round;">
</g>
<g style="fill:#000000; fill-opacity:0.0; 
stroke:#000000; stroke-width:59.0551; stroke-opacity:1; 
stroke-linecap:round; stroke-linejoin:round;">
<rect x="4724.41" y="4724.41" width="107481" height="73231.2" rx="0" />
</g>
<g style="fill:#000000; fill-opacity:0.0; 
stroke:#000000; stroke-width:39.3701; stroke-opacity:1; 
stroke-linecap:round; stroke-linejoin:round;">
</g>
<g style="fill:#000000; fill-opacity:0.0; 
stroke:#000000; stroke-width:59.0551; stroke-opacity:1; 
stroke-linecap:round; stroke-linejoin:round;">
<path d="M23622 4724
L23622 3937
" />
</g>
<g style="fill:#000000; fill-opacity:0.0; 
stroke:#000000; stroke-width:39.3701; stroke-opacity:1; 
stroke-linecap:round; stroke-linejoin:round;">
</g>
<g style="fill:#000000; fill-opacity:0.0; 
stroke:#000000; stroke-width:59.0551; stroke-opacity:1; 
stroke-linecap:round; stroke-linejoin:round;">
<path d="M43307 4724
L43307 3937
" />
</g>
<g style="fill:#000000; fill-opacity:0.0; 
stroke:#000000; stroke-width:39.3701; stroke-opacity:1; 
stroke-linecap:round; stroke-linejoin:round;">
</g>
<g style="fill:#000000; fill-opacity:0.0; 
stroke:#000000; stroke-width:59.0551; stroke-opacity:1; 
stroke-linecap:round; stroke-linejoin:round;">
<path d="M62992 4724
L62992 3937
" />
</g>
<g style="fill:#000000; fill-opacity:0.0; 
stroke:#000000; stroke-width:39.3701; stroke-opacity:1; 
stroke-linecap:round; stroke-linejoin:round;">
</g>
<g style="fill:#000000; fill-opacity:0.0; 
stroke:#000000; stroke-width:59.0551; stroke-opacity:1; 
stroke-linecap:round; stroke-linejoin:round;">
<path d="M82677 4724
L82677 3937
" />
</g>
<g style="fill:#000000; fill-opacity:0.0; 
stroke:#000000; stroke-width:39.3701; stroke-opacity:1; 
stroke-linecap:round; stroke-linejoin:round;">
</g>
<g style="fill:#000000; fill-opacity:0.0; 
stroke:#000000; stroke-width:59.0551; stroke-opacity:1; 
stroke-linecap:round; stroke-linejoin:round;">
<path d="M102362 4724
L102362 3937
" />
</g>
<g style="fill:#000000; fill-opacity:0.0; 
stroke:#000000; stroke-width:39.3701; stroke-opacity:1; 
stroke-linecap:round; stroke-linejoin:round;">
</g>
<g style="fill:#000000; fill-opacity:0.0; 
stroke:#000000; stroke-width:59.0551; stroke-opacity:1; 
stroke-linecap:round; stroke-linejoin:round;">
<path d="M14169 4562
L13877 4562
" />
<path d="M14023 4562
L14023 4050
L13974 4123
L13925 4172
L13877 4196
" />
</g>
<g style="fill:#000000; fill-opacity:0.0; 
stroke:#000000; stroke-width:39.3701; stroke-opacity:1; 
stroke-linecap:round; stroke-linejoin:round;">
</g>
<g style="fill:#000000; fill-opacity:0.0; 
stroke:#000000; stroke-width:59.0551; stroke-opacity:1; 
stroke-linecap:round; stroke-linejoin:round;">
<path d="M33562 4099
L33586 4074
L33635 4050
L33757 4050
L33805 4074
L33830 4099
L33854 4147
L33854 4196
L33830 4269
L33537 4562
L33854 4562
" />
</g>
<g style="fill:#000000; fill-opacity:0.0; 
stroke:#000000; stroke-width:39.3701; stroke-opacity:1; 
stroke-linecap:round; stroke-linejoin:round;">
</g>
<g style="fill:#000000; fill-opacity:0.0; 
stroke:#000000; stroke-width:59.0551; stroke-opacity:1; 
stroke-linecap:round; stroke-linejoin:round;">
<path d="M53222 4050
L53539 4050
L53368 4245
L53442 4245
L53490 4269
L53515 4294
L53539 4342
L53539 4464
L53515 4513
L53490 4537
L53442 4562
L53295 4562
L53247 4537
L53222 4513
" />
</g>
<g style="fill:#000000; fill-opacity:0.0; 
stroke:#000000; stroke-width:39.3701; stroke-opacity:1; 
stroke-linecap:round; stroke-linejoin:round;">
</g>
<g style="fill:#000000; fill-opacity:0.0; 
stroke:#000000; stroke-width:59.0551; stroke-opacity:1; 
stroke-linecap:round; stroke-linejoin:round;">
<path d="M73175 4221
L73175 4562
" />
<path d="M73053 4026
L72932 4391
L73248 4391
" />
</g>
<g style="fill:#000000; fill-opacity:0.0; 
stroke:#000000; stroke-width:39.3701; stroke-opacity:1; 
stroke-linecap:round; stroke-linejoin:round;">
</g>
<g style="fill:#000000; fill-opacity:0.0; 
stroke:#000000; stroke-width:59.0551; stroke-opacity:1; 
stroke-linecap:round; stroke-linejoin:round;">
<path d="M92885 4050
L92641 4050
L92617 4294
L92641 4269
L92690 4245
L92812 4245
L92860 4269
L92885 4294
L92909 4342
L92909 4464
L92885 4513
L92860 4537
L92812 4562
L92690 4562
L92641 4537
L92617 4513
" />
</g>
<g style="fill:#000000; fill-opacity:0.0; 
stroke:#000000; stroke-width:39.3701; stroke-opacity:1; 
stroke-linecap:round; stroke-linejoin:round;">
</g>
<g style="fill:#000000; fill-opacity:0.0; 
stroke:#000000; stroke-width:59.0551; stroke-opacity:1; 
stroke-linecap:round; stroke-linejoin:round;">
<path d="M112545 4050
L112448 4050
L112399 4074
L112375 4099
L112326 4172
L112302 4269
L112302 4464
L112326 4513
L112350 4537
L112399 4562
L112497 4562
L112545 4537
L112570 4513
L112594 4464
L112594 4342
L112570 4294
L112545 4269
L112497 4245
L112399 4245
L112350 4269
L112326 4294
L112302 4342
" />
</g>
<g style="fill:#000000; fill-opacity:0.0; 
stroke:#000000; stroke-width:39.3701; stroke-opacity:1; 
stroke-linecap:round; stroke-linejoin:round;">
</g>
<g style="fill:#000000; fill-opacity:0.0; 
stroke:#000000; stroke-width:59.0551; stroke-opacity:1; 
stroke-linecap:round; stroke-linejoin:round;">
<path d="M23622 77955
L23622 78742
" />
</g>
<g style="fill:#000000; fill-opacity:0.0; 
stroke:#000000; stroke-width:39.3701; stroke-opacity:1; 
stroke-linecap:round; stroke-linejoin:round;">
</g>
<g style="fill:#000000; fill-opacity:0.0; 
stroke:#000000; stroke-width:59.0551; stroke-opacity:1; 
stroke-linecap:round; stroke-linejoin:round;">
<path d="M43307 77955
L43307 78742
" />
</g>
<g style="fill:#000000; fill-opacity:0.0; 
stroke:#000000; stroke-width:39.3701; stroke-opacity:1; 
stroke-linecap:round; stroke-linejoin:round;">
</g>
<g style="fill:#000000; fill-opacity:0.0; 
stroke:#000000; stroke-width:59.0551; stroke-opacity:1; 
stroke-linecap:round; stroke-linejoin:round;">
<path d="M62992 77955
L62992 78742
" />
</g>
<g style="fill:#000000; fill-opacity:0.0; 
stroke:#000000; stroke-width:39.3701; stroke-opacity:1; 
stroke-linecap:round; stroke-linejoin:round;">
</g>
<g style="fill:#000000; fill-opacity:0.0; 
stroke:#000000; stroke-width:59.0551; stroke-opacity:1; 
stroke-linecap:round; stroke-linejoin:round;">
<path d="M82677 77955
L82677 78742
" />
</g>
<g style="fill:#000000; fill-opacity:0.0; 
stroke:#000000; stroke-width:39.3701; stroke-opacity:1; 
stroke-linecap:round; stroke-linejoin:round;">
</g>
<g style="fill:#000000; fill-opacity:0.0; 
stroke:#000000; stroke-width:59.0551; stroke-opacity:1; 
stroke-linecap:round; stroke-linejoin:round;">
<path d="M102362 77955
L102362 78742
" />
</g>
<g style="fill:#000000; fill-opacity:0.0; 
stroke:#000000; stroke-width:39.3701; stroke-opacity:1; 
stroke-linecap:round; stroke-linejoin:round;">
</g>
<g style="fill:#000000; fill-opacity:0.0; 
stroke:#000000; stroke-width:59.0551; stroke-opacity:1; 
stroke-linecap:round; stroke-linejoin:round;">
<path d="M14169 78580
L13877 78580
" />
<path d="M14023 78580
L14023 78069
L13974 78142
L13925 78190
L13877 78215
" />
</g>
<g style="fill:#000000; fill-opacity:0.0; 
stroke:#000000; stroke-width:39.3701; stroke-opacity:1; 
stroke-linecap:round; stroke-linejoin:round;">
</g>
<g style="fill:#000000; fill-opacity:0.0; 
stroke:#000000; stroke-width:59.0551; stroke-opacity:1; 
stroke-linecap:round; stroke-linejoin:round;">
<path d="M33562 78117
L33586 78093
L33635 78069
L33757 78069
L33805 78093
L33830 78117
L33854 78166
L33854 78215
L33830 78288
L33537 78580
L33854 78580
" />
</g>
<g style="fill:#000000; fill-opacity:0.0; 
stroke:#000000; stroke-width:39.3701; stroke-opacity:1; 
stroke-linecap:round; stroke-linejoin:round;">
</g>
<g style="fill:#000000; fill-opacity:0.0; 
stroke:#000000; stroke-width:59.0551; stroke-opacity:1; 
stroke-linecap:round; stroke-linejoin:round;">
<path d="M53222 78069
L53539 78069
L53368 78263
L53442 78263
L53490 78288
L53515 78312
L53539 78361
L53539 78483
L53515 78532
L53490 78556
L53442 78580
L53295 78580
L53247 78556
L53222 78532
" />
</g>
<g style="fill:#000000; fill-opacity:0.0; 
stroke:#000000; stroke-width:39.3701; stroke-opacity:1; 
stroke-linecap:round; stroke-linejoin:round;">
</g>
<g style="fill:#000000; fill-opacity:0.0; 
stroke:#000000; stroke-width:59.0551; stroke-opacity:1; 
stroke-linecap:round; stroke-linejoin:round;">
<path d="M73175 78239
L73175 78580
" />
<path d="M73053 78044
L72932 78410
L73248 78410
" />
</g>
<g style="fill:#000000; fill-opacity:0.0; 
stroke:#000000; stroke-width:39.3701; stroke-opacity:1; 
stroke-linecap:round; stroke-linejoin:round;">
</g>
<g style="fill:#000000; fill-opacity:0.0; 
stroke:#000000; stroke-width:59.0551; stroke-opacity:1; 
stroke-linecap:round; stroke-linejoin:round;">
<path d="M92885 78069
L92641 78069
L92617 78312
L92641 78288
L92690 78263
L92812 78263
L92860 78288
L92885 78312
L92909 78361
L92909 78483
L92885 78532
L92860 78556
L92812 78580
L92690 78580
L92641 78556
L92617 78532
" />
</g>
<g style="fill:#000000; fill-opacity:0.0; 
stroke:#000000; stroke-width:39.3701; stroke-opacity:1; 
stroke-linecap:round; stroke-linejoin:round;">
</g>
<g style="fill:#000000; fill-opacity:0.0; 
stroke:#000000; stroke-width:59.0551; stroke-opacity:1; 
stroke-linecap:round; stroke-linejoin:round;">
<path d="M112545 78069
L112448 78069
L112399 78093
L112375 78117
L112326 78190
L112302 78288
L112302 78483
L112326 78532
L112350 78556
L112399 78580
L112497 78580
L112545 78556
L112570 78532
L112594 78483
L112594 78361
L112570 78312
L112545 78288
L112497 78263
L112399 78263
L112350 78288
L112326 78312
L112302 78361
" />
</g>
<g style="fill:#000000; fill-opacity:0.0; 
stroke:#000000; stroke-width:39.3701; stroke-opacity:1; 
stroke-linecap:round; stroke-linejoin:round;">
</g>
<g style="fill:#000000; fill-opacity:0.0; 
stroke:#000000; stroke-width:59.0551; stroke-opacity:1; 
stroke-linecap:round; stroke-linejoin:round;">
<path d="M3937 23622
L4724 23622
" />
</g>
<g style="fill:#000000; fill-opacity:0.0; 
stroke:#000000; stroke-width:39.3701; stroke-opacity:1; 
stroke-linecap:round; stroke-linejoin:round;">
</g>
<g style="fill:#000000; fill-opacity:0.0; 
stroke:#000000; stroke-width:59.0551; stroke-opacity:1; 
stroke-linecap:round; stroke-linejoin:round;">
<path d="M3937 43307
L4724 43307
" />
</g>
<g style="fill:#000000; fill-opacity:0.0; 
stroke:#000000; stroke-width:39.3701; stroke-opacity:1; 
stroke-linecap:round; stroke-linejoin:round;">
</g>
<g style="fill:#000000; fill-opacity:0.0; 
stroke:#000000; stroke-width:59.0551; stroke-opacity:1; 
stroke-linecap:round; stroke-linejoin:round;">
<path d="M3937 62992
L4724 62992
" />
</g>
<g style="fill:#000000; fill-opacity:0.0; 
stroke:#000000; stroke-width:39.3701; stroke-opacity:1; 
stroke-linecap:round; stroke-linejoin:round;">
</g>
<g style="fill:#000000; fill-opacity:0.0; 
stroke:#000000; stroke-width:59.0551; stroke-opacity:1; 
stroke-linecap:round; stroke-linejoin:round;">
<path d="M4208 13864
L4452 13864
" />
<path d="M4160 14011
L4330 13499
L4501 14011
" />
</g>
<g style="fill:#000000; fill-opacity:0.0; 
stroke:#000000; stroke-width:39.3701; stroke-opacity:1; 
stroke-linecap:round; stroke-linejoin:round;">
</g>
<g style="fill:#000000; fill-opacity:0.0; 
stroke:#000000; stroke-width:59.0551; stroke-opacity:1; 
stroke-linecap:round; stroke-linejoin:round;">
<path d="M4367 33428
L4440 33452
L4464 33476
L4489 33525
L4489 33598
L4464 33647
L4440 33671
L4391 33696
L4196 33696
L4196 33184
L4367 33184
L4416 33208
L4440 33233
L4464 33281
L4464 33330
L4440 33379
L4416 33403
L4367 33428
L4196 33428
" />
</g>
<g style="fill:#000000; fill-opacity:0.0; 
stroke:#000000; stroke-width:39.3701; stroke-opacity:1; 
stroke-linecap:round; stroke-linejoin:round;">
</g>
<g style="fill:#000000; fill-opacity:0.0; 
stroke:#000000; stroke-width:59.0551; stroke-opacity:1; 
stroke-linecap:round; stroke-linejoin:round;">
<path d="M4489 53332
L4464 53356
L4391 53381
L4342 53381
L4269 53356
L4221 53308
L4196 53259
L4172 53161
L4172 53088
L4196 52991
L4221 52942
L4269 52893
L4342 52869
L4391 52869
L4464 52893
L4489 52918
" />
</g>
<g style="fill:#000000; fill-opacity:0.0; 
stroke:#000000; stroke-width:39.3701; stroke-opacity:1; 
stroke-linecap:round; stroke-linejoin:round;">
</g>
<g style="fill:#000000; fill-opacity:0.0; 
stroke:#000000; stroke-width:59.0551; stroke-opacity:1; 
stroke-linecap:round; stroke-linejoin:round;">
<path d="M4196 73066
L4196 72554
L4318 72554
L4391 72578
L4440 72627
L4464 72676
L4489 72773
L4489 72846
L4464 72944
L4440 72993
L4391 73041
L4318 73066
L4196 73066
" />
</g>
<g style="fill:#000000; fill-opacity:0.0; 
stroke:#000000; stroke-width:39.3701; stroke-opacity:1; 
stroke-linecap:round; stroke-linejoin:round;">
</g>
<g style="fill:#000000; fill-opacity:0.0; 
stroke:#000000; stroke-width:59.0551; stroke-opacity:1; 
stroke-linecap:round; stroke-linejoin:round;">
<path d="M112992 23622
L112205 23622
" />
</g>
<g style="fill:#000000; fill-opacity:0.0; 
stroke:#000000; stroke-width:39.3701; stroke-opacity:1; 
stroke-linecap:round; stroke-linejoin:round;">
</g>
<g style="fill:#000000; fill-opacity:0.0; 
stroke:#000000; stroke-width:59.0551; stroke-opacity:1; 
stroke-linecap:round; stroke-linejoin:round;">
<path d="M112992 43307
L112205 43307
" />
</g>
<g style="fill:#000000; fill-opacity:0.0; 
stroke:#000000; stroke-width:39.3701; stroke-opacity:1; 
stroke-linecap:round; stroke-linejoin:round;">
</g>
<g style="fill:#000000; fill-opacity:0.0; 
stroke:#000000; stroke-width:59.0551; stroke-opacity:1; 
stroke-linecap:round; stroke-linejoin:round;">
<path d="M112992 62992
L112205 62992
" />
</g>
<g style="fill:#000000; fill-opacity:0.0; 
stroke:#000000; stroke-width:39.3701; stroke-opacity:1; 
stroke-linecap:round; stroke-linejoin:round;">
</g>
<g style="fill:#000000; fill-opacity:0.0; 
stroke:#000000; stroke-width:59.0551; stroke-opacity:1; 
stroke-linecap:round; stroke-linejoin:round;">
<path d="M112477 13864
L112721 13864
" />
<path d="M112428 14011
L112599 13499
L112769 14011
" />
</g>
<g style="fill:#000000; fill-opacity:0.0; 
stroke:#000000; stroke-width:39.3701; stroke-opacity:1; 
stroke-linecap:round; stroke-linejoin:round;">
</g>
<g style="fill:#000000; fill-opacity:0.0; 
stroke:#000000; stroke-width:59.0551; stroke-opacity:1; 
stroke-linecap:round; stroke-linejoin:round;">
<path d="M112635 33428
L112708 33452
L112733 33476
L112757 33525
L112757 33598
L112733 33647
L112708 33671
L112660 33696
L112465 33696
L112465 33184
L112635 33184
L112684 33208
L112708 33233
L112733 33281
L112733 33330
L112708 33379
L112684 33403
L112635 33428
L112465 33428
" />
</g>
<g style="fill:#000000; fill-opacity:0.0; 
stroke:#000000; stroke-width:39.3701; stroke-opacity:1; 
stroke-linecap:round; stroke-linejoin:round;">
</g>
<g style="fill:#000000; fill-opacity:0.0; 
stroke:#000000; stroke-width:59.0551; stroke-opacity:1; 
stroke-linecap:round; stroke-linejoin:round;">
<path d="M112757 53332
L112733 53356
L112660 53381
L112611 53381
L112538 53356
L112489 53308
L112465 53259
L112440 53161
L112440 53088
L112465 52991
L112489 52942
L112538 52893
L112611 52869
L112660 52869
L112733 52893
L112757 52918
" />
</g>
<g style="fill:#000000; fill-opacity:0.0; 
stroke:#000000; stroke-width:39.3701; stroke-opacity:1; 
stroke-linecap:round; stroke-linejoin:round;">
</g>
<g style="fill:#000000; fill-opacity:0.0; 
stroke:#000000; stroke-width:59.0551; stroke-opacity:1; 
stroke-linecap:round; stroke-linejoin:round;">
<path d="M112465 73066
L112465 72554
L112587 72554
L112660 72578
L112708 72627
L112733 72676
L112757 72773
L112757 72846
L112733 72944
L112708 72993
L112660 73041
L112587 73066
L112465 73066
" />
</g>
<g style="fill:#000000; fill-opacity:0.0; 
stroke:#000000; stroke-width:39.3701; stroke-opacity:1; 
stroke-linecap:round; stroke-linejoin:round;">
</g>
<g style="fill:#000000; fill-opacity:0.0; 
stroke:#000000; stroke-width:59.0551; stroke-opacity:1; 
stroke-linecap:round; stroke-linejoin:round;">
<path d="M78881 76293
L78881 75703
L79022 75703
L79106 75731
L79162 75787
L79190 75843
L79219 75956
L79219 76040
L79190 76153
L79162 76209
L79106 76265
L79022 76293
L78881 76293
" />
<path d="M79725 76293
L79725 75984
L79697 75928
L79640 75899
L79528 75899
L79472 75928
" />
<path d="M79725 76265
L79669 76293
L79528 76293
L79472 76265
L79444 76209
L79444 76153
L79472 76096
L79528 76068
L79669 76068
L79725 76040
" />
<path d="M79922 75899
L80147 75899
" />
<path d="M80006 75703
L80006 76209
L80034 76265
L80090 76293
L80147 76293
" />
<path d="M80568 76265
L80512 76293
L80400 76293
L80343 76265
L80315 76209
L80315 75984
L80343 75928
L80400 75899
L80512 75899
L80568 75928
L80597 75984
L80597 76040
L80315 76096
" />
<path d="M80850 76237
L80878 76265
L80850 76293
L80822 76265
L80850 76237
L80850 76293
" />
<path d="M80850 75928
L80878 75956
L80850 75984
L80822 75956
L80850 75928
L80850 75984
" />
</g>
<g style="fill:#000000; fill-opacity:0.0; 
stroke:#000000; stroke-width:39.3701; stroke-opacity:1; 
stroke-linecap:round; stroke-linejoin:round;">
</g>
<g style="fill:#000000; fill-opacity:0.0; 
stroke:#000000; stroke-width:59.0551; stroke-opacity:1; 
stroke-linecap:round; stroke-linejoin:round;">
<path d="M69685 76577
L112205 76577
" />
</g>
<g style="fill:#000000; fill-opacity:0.0; 
stroke:#000000; stroke-width:39.3701; stroke-opacity:1; 
stroke-linecap:round; stroke-linejoin:round;">
</g>
<g style="fill:#000000; fill-opacity:0.0; 
stroke:#000000; stroke-width:59.0551; stroke-opacity:1; 
stroke-linecap:round; stroke-linejoin:round;">
<path d="M70220 77395
L70220 76805
" />
<path d="M70557 77395
L70304 77058
" />
<path d="M70557 76805
L70220 77142
" />
<path d="M70810 77395
L70810 77002
" />
<path d="M70810 76805
L70782 76833
L70810 76861
L70838 76833
L70810 76805
L70810 76861
" />
<path d="M71429 77339
L71401 77367
L71316 77395
L71260 77395
L71176 77367
L71120 77311
L71091 77255
L71063 77142
L71063 77058
L71091 76946
L71120 76889
L71176 76833
L71260 76805
L71316 76805
L71401 76833
L71429 76861
" />
<path d="M71935 77395
L71935 77086
L71907 77030
L71851 77002
L71738 77002
L71682 77030
" />
<path d="M71935 77367
L71879 77395
L71738 77395
L71682 77367
L71654 77311
L71654 77255
L71682 77199
L71738 77171
L71879 77171
L71935 77142
" />
<path d="M72469 77395
L72469 76805
" />
<path d="M72469 77367
L72413 77395
L72301 77395
L72244 77367
L72216 77339
L72188 77283
L72188 77114
L72216 77058
L72244 77030
L72301 77002
L72413 77002
L72469 77030
" />
<path d="M73201 77086
L73397 77086
" />
<path d="M73482 77395
L73201 77395
L73201 76805
L73482 76805
" />
<path d="M73735 77339
L73763 77367
L73735 77395
L73707 77367
L73735 77339
L73735 77395
" />
<path d="M74016 77395
L74016 76805
L74157 76805
L74241 76833
L74297 76889
L74325 76946
L74354 77058
L74354 77142
L74325 77255
L74297 77311
L74241 77367
L74157 77395
L74016 77395
" />
<path d="M74607 77339
L74635 77367
L74607 77395
L74579 77367
L74607 77339
L74607 77395
" />
<path d="M74860 77227
L75141 77227
" />
<path d="M74804 77395
L75000 76805
L75197 77395
" />
<path d="M75394 77339
L75422 77367
L75394 77395
L75366 77367
L75394 77339
L75394 77395
" />
<path d="M76575 77002
L76575 77592
" />
<path d="M76575 77030
L76631 77002
L76744 77002
L76800 77030
L76828 77058
L76856 77114
L76856 77283
L76828 77339
L76800 77367
L76744 77395
L76631 77395
L76575 77367
" />
<path d="M77363 77367
L77306 77395
L77194 77395
L77138 77367
L77109 77339
L77081 77283
L77081 77114
L77109 77058
L77138 77030
L77194 77002
L77306 77002
L77363 77030
" />
<path d="M77616 77395
L77616 76805
" />
<path d="M77616 77030
L77672 77002
L77784 77002
L77841 77030
L77869 77058
L77897 77114
L77897 77283
L77869 77339
L77841 77367
L77784 77395
L77672 77395
L77616 77367
" />
<path d="M78150 77002
L78150 77395
" />
<path d="M78150 77058
L78178 77030
L78234 77002
L78319 77002
L78375 77030
L78403 77086
L78403 77395
" />
<path d="M78909 77367
L78853 77395
L78741 77395
L78684 77367
L78656 77311
L78656 77086
L78684 77030
L78741 77002
L78853 77002
L78909 77030
L78937 77086
L78937 77142
L78656 77199
" />
<path d="M79134 77002
L79247 77395
L79359 77114
L79472 77395
L79584 77002
" />
<path d="M80428 77620
L80400 77592
L80343 77508
L80315 77452
L80287 77367
L80259 77227
L80259 77114
L80287 76974
L80315 76889
L80343 76833
L80400 76749
L80428 76721
" />
<path d="M80625 76861
L80653 76833
L80709 76805
L80850 76805
L80906 76833
L80934 76861
L80962 76917
L80962 76974
L80934 77058
L80597 77395
L80962 77395
" />
<path d="M81328 76805
L81384 76805
L81440 76833
L81468 76861
L81496 76917
L81525 77030
L81525 77171
L81496 77283
L81468 77339
L81440 77367
L81384 77395
L81328 77395
L81271 77367
L81243 77339
L81215 77283
L81187 77171
L81187 77030
L81215 76917
L81243 76861
L81271 76833
L81328 76805
" />
<path d="M82087 77395
L81750 77395
" />
<path d="M81918 77395
L81918 76805
L81862 76889
L81806 76946
L81750 76974
" />
<path d="M82593 77002
L82593 77395
" />
<path d="M82453 76777
L82312 77199
L82678 77199
" />
<path d="M82903 77171
L83352 77171
" />
<path d="M83943 77395
L83606 77395
" />
<path d="M83774 77395
L83774 76805
L83718 76889
L83662 76946
L83606 76974
" />
<path d="M84168 76861
L84196 76833
L84252 76805
L84393 76805
L84449 76833
L84477 76861
L84505 76917
L84505 76974
L84477 77058
L84140 77395
L84505 77395
" />
<path d="M84759 77171
L85208 77171
" />
<path d="M85602 76805
L85658 76805
L85715 76833
L85743 76861
L85771 76917
L85799 77030
L85799 77171
L85771 77283
L85743 77339
L85715 77367
L85658 77395
L85602 77395
L85546 77367
L85518 77339
L85490 77283
L85462 77171
L85462 77030
L85490 76917
L85518 76861
L85546 76833
L85602 76805
" />
<path d="M85996 76805
L86361 76805
L86165 77030
L86249 77030
L86305 77058
L86333 77086
L86361 77142
L86361 77283
L86333 77339
L86305 77367
L86249 77395
L86080 77395
L86024 77367
L85996 77339
" />
<path d="M87261 77086
L87346 77114
L87374 77142
L87402 77199
L87402 77283
L87374 77339
L87346 77367
L87289 77395
L87064 77395
L87064 76805
L87261 76805
L87318 76833
L87346 76861
L87374 76917
L87374 76974
L87346 77030
L87318 77058
L87261 77086
L87064 77086
" />
<path d="M87599 76805
L87992 76805
L87599 77395
L87992 77395
" />
<path d="M88555 77395
L88358 77114
" />
<path d="M88217 77395
L88217 76805
L88442 76805
L88499 76833
L88527 76861
L88555 76917
L88555 77002
L88527 77058
L88499 77086
L88442 77114
L88217 77114
" />
<path d="M89539 76805
L89258 76805
L89230 77086
L89258 77058
L89314 77030
L89455 77030
L89511 77058
L89539 77086
L89567 77142
L89567 77283
L89539 77339
L89511 77367
L89455 77395
L89314 77395
L89258 77367
L89230 77339
" />
<path d="M89764 76805
L90130 76805
L89933 77030
L90017 77030
L90073 77058
L90102 77086
L90130 77142
L90130 77283
L90102 77339
L90073 77367
L90017 77395
L89849 77395
L89792 77367
L89764 77339
" />
<path d="M90692 77395
L90355 77395
" />
<path d="M90523 77395
L90523 76805
L90467 76889
L90411 76946
L90355 76974
" />
<path d="M91255 77395
L90917 77395
" />
<path d="M91086 77395
L91086 76805
L91030 76889
L90973 76946
L90917 76974
" />
<path d="M91451 77620
L91480 77592
L91536 77508
L91564 77452
L91592 77367
L91620 77227
L91620 77114
L91592 76974
L91564 76889
L91536 76833
L91480 76749
L91451 76721
" />
<path d="M91901 77171
L92351 77171
" />
<path d="M92633 77002
L92633 77592
" />
<path d="M92633 77030
L92689 77002
L92801 77002
L92858 77030
L92886 77058
L92914 77114
L92914 77283
L92886 77339
L92858 77367
L92801 77395
L92689 77395
L92633 77367
" />
<path d="M93167 77395
L93167 77002
" />
<path d="M93167 77114
L93195 77058
L93223 77030
L93279 77002
L93336 77002
" />
<path d="M93617 77395
L93561 77367
L93532 77339
L93504 77283
L93504 77114
L93532 77058
L93561 77030
L93617 77002
L93701 77002
L93757 77030
L93786 77058
L93814 77114
L93814 77283
L93786 77339
L93757 77367
L93701 77395
L93617 77395
" />
<path d="M94320 77395
L94320 76805
" />
<path d="M94320 77367
L94264 77395
L94151 77395
L94095 77367
L94067 77339
L94039 77283
L94039 77114
L94067 77058
L94095 77030
L94151 77002
L94264 77002
L94320 77030
" />
<path d="M94854 77002
L94854 77395
" />
<path d="M94601 77002
L94601 77311
L94629 77367
L94685 77395
L94770 77395
L94826 77367
L94854 77339
" />
<path d="M95388 77367
L95332 77395
L95220 77395
L95163 77367
L95135 77339
L95107 77283
L95107 77114
L95135 77058
L95163 77030
L95220 77002
L95332 77002
L95388 77030
" />
<path d="M95557 77002
L95782 77002
" />
<path d="M95642 76805
L95642 77311
L95670 77367
L95726 77395
L95782 77395
" />
</g>
<g style="fill:#000000; fill-opacity:0.0; 
stroke:#000000; stroke-width:39.3701; stroke-opacity:1; 
stroke-linecap:round; stroke-linejoin:round;">
</g>
<g style="fill:#000000; fill-opacity:0.0; 
stroke:#000000; stroke-width:59.0551; stroke-opacity:1; 
stroke-linecap:round; stroke-linejoin:round;">
<path d="M69685 75396
L112205 75396
" />
</g>
<g style="fill:#000000; fill-opacity:0.0; 
stroke:#000000; stroke-width:39.3701; stroke-opacity:1; 
stroke-linecap:round; stroke-linejoin:round;">
</g>
<g style="fill:#000000; fill-opacity:0.0; 
stroke:#000000; stroke-width:118.11; stroke-opacity:1; 
stroke-linecap:round; stroke-linejoin:round;">
<path d="M104022 76293
L103825 76012
" />
<path d="M103684 76293
L103684 75703
L103909 75703
L103965 75731
L103994 75759
L104022 75815
L104022 75899
L103994 75956
L103965 75984
L103909 76012
L103684 76012
" />
<path d="M104500 76265
L104444 76293
L104331 76293
L104275 76265
L104247 76209
L104247 75984
L104275 75928
L104331 75899
L104444 75899
L104500 75928
L104528 75984
L104528 76040
L104247 76096
" />
<path d="M104725 75899
L104865 76293
L105006 75899
" />
<path d="M105231 76237
L105259 76265
L105231 76293
L105203 76265
L105231 76237
L105231 76293
" />
<path d="M105231 75928
L105259 75956
L105231 75984
L105203 75956
L105231 75928
L105231 75984
" />
</g>
<g style="fill:#000000; fill-opacity:0.0; 
stroke:#000000; stroke-width:39.3701; stroke-opacity:1; 
stroke-linecap:round; stroke-linejoin:round;">
</g>
<g style="fill:#000000; fill-opacity:0.0; 
stroke:#000000; stroke-width:59.0551; stroke-opacity:1; 
stroke-linecap:round; stroke-linejoin:round;">
<path d="M70192 76265
L70276 76293
L70417 76293
L70473 76265
L70501 76237
L70529 76181
L70529 76124
L70501 76068
L70473 76040
L70417 76012
L70304 75984
L70248 75956
L70220 75928
L70192 75871
L70192 75815
L70220 75759
L70248 75731
L70304 75703
L70445 75703
L70529 75731
" />
<path d="M70782 76293
L70782 75899
" />
<path d="M70782 75703
L70754 75731
L70782 75759
L70810 75731
L70782 75703
L70782 75759
" />
<path d="M71007 75899
L71316 75899
L71007 76293
L71316 76293
" />
<path d="M71766 76265
L71710 76293
L71598 76293
L71541 76265
L71513 76209
L71513 75984
L71541 75928
L71598 75899
L71710 75899
L71766 75928
L71795 75984
L71795 76040
L71513 76096
" />
<path d="M72048 76237
L72076 76265
L72048 76293
L72019 76265
L72048 76237
L72048 76293
" />
<path d="M72048 75928
L72076 75956
L72048 75984
L72019 75956
L72048 75928
L72048 75984
" />
<path d="M72751 76124
L73032 76124
" />
<path d="M72694 76293
L72891 75703
L73088 76293
" />
<path d="M73538 75899
L73538 76293
" />
<path d="M73397 75674
L73257 76096
L73622 76096
" />
</g>
<g style="fill:#000000; fill-opacity:0.0; 
stroke:#000000; stroke-width:39.3701; stroke-opacity:1; 
stroke-linecap:round; stroke-linejoin:round;">
</g>
<g style="fill:#000000; fill-opacity:0.0; 
stroke:#000000; stroke-width:59.0551; stroke-opacity:1; 
stroke-linecap:round; stroke-linejoin:round;">
<path d="M103684 77395
L103684 76805
" />
<path d="M104219 77395
L104219 76805
" />
<path d="M104219 77367
L104162 77395
L104050 77395
L103994 77367
L103965 77339
L103937 77283
L103937 77114
L103965 77058
L103994 77030
L104050 77002
L104162 77002
L104219 77030
" />
<path d="M104500 77339
L104528 77367
L104500 77395
L104472 77367
L104500 77339
L104500 77395
" />
<path d="M104500 77030
L104528 77058
L104500 77086
L104472 77058
L104500 77030
L104500 77086
" />
<path d="M105540 77395
L105203 77395
" />
<path d="M105372 77395
L105372 76805
L105315 76889
L105259 76946
L105203 76974
" />
<path d="M106215 76777
L105709 77536
" />
<path d="M106721 77395
L106384 77395
" />
<path d="M106553 77395
L106553 76805
L106496 76889
L106440 76946
L106384 76974
" />
</g>
<g style="fill:#000000; fill-opacity:0.0; 
stroke:#000000; stroke-width:39.3701; stroke-opacity:1; 
stroke-linecap:round; stroke-linejoin:round;">
</g>
<g style="fill:#000000; fill-opacity:0.0; 
stroke:#000000; stroke-width:59.0551; stroke-opacity:1; 
stroke-linecap:round; stroke-linejoin:round;">
<path d="M69685 73821
L112205 73821
" />
</g>
<g style="fill:#000000; fill-opacity:0.0; 
stroke:#000000; stroke-width:39.3701; stroke-opacity:1; 
stroke-linecap:round; stroke-linejoin:round;">
</g>
<g style="fill:#000000; fill-opacity:0.0; 
stroke:#000000; stroke-width:157.48; stroke-opacity:1; 
stroke-linecap:round; stroke-linejoin:round;">
<path d="M70257 74099
L70707 74099
" />
<path d="M70384 74886
L70482 74099
" />
<path d="M70871 74886
L70937 74361
" />
<path d="M70970 74099
L70927 74136
L70960 74174
L71002 74136
L70970 74099
L70960 74174
" />
<path d="M71199 74361
L71499 74361
" />
<path d="M71345 74099
L71260 74774
L71288 74849
L71359 74886
L71434 74886
" />
<path d="M71809 74886
L71738 74849
L71710 74774
L71795 74099
" />
<path d="M72413 74849
L72334 74886
L72184 74886
L72113 74849
L72085 74774
L72123 74474
L72169 74399
L72249 74361
L72399 74361
L72469 74399
L72498 74474
L72488 74549
L72104 74624
" />
<path d="M72793 74811
L72826 74849
L72783 74886
L72751 74849
L72793 74811
L72783 74886
" />
<path d="M72844 74399
L72877 74436
L72835 74474
L72802 74436
L72844 74399
L72835 74474
" />
</g>
<g style="fill:#000000; fill-opacity:0.0; 
stroke:#000000; stroke-width:39.3701; stroke-opacity:1; 
stroke-linecap:round; stroke-linejoin:round;">
</g>
<g style="fill:#000000; fill-opacity:0.0; 
stroke:#000000; stroke-width:59.0551; stroke-opacity:1; 
stroke-linecap:round; stroke-linejoin:round;">
<path d="M70417 73070
L70220 73070
" />
<path d="M70220 73380
L70220 72789
L70501 72789
" />
<path d="M70726 73380
L70726 72986
" />
<path d="M70726 72789
L70698 72817
L70726 72845
L70754 72817
L70726 72789
L70726 72845
" />
<path d="M71091 73380
L71035 73352
L71007 73295
L71007 72789
" />
<path d="M71541 73352
L71485 73380
L71373 73380
L71316 73352
L71288 73295
L71288 73070
L71316 73014
L71373 72986
L71485 72986
L71541 73014
L71570 73070
L71570 73127
L71288 73183
" />
<path d="M71823 73323
L71851 73352
L71823 73380
L71795 73352
L71823 73323
L71823 73380
" />
<path d="M71823 73014
L71851 73042
L71823 73070
L71795 73042
L71823 73014
L71823 73070
" />
<path d="M72554 73380
L72554 72986
" />
<path d="M72554 73042
L72582 73014
L72638 72986
L72723 72986
L72779 73014
L72807 73070
L72807 73380
" />
<path d="M72807 73070
L72835 73014
L72891 72986
L72976 72986
L73032 73014
L73060 73070
L73060 73380
" />
<path d="M73341 73380
L73341 72986
" />
<path d="M73341 72789
L73313 72817
L73341 72845
L73369 72817
L73341 72789
L73341 72845
" />
<path d="M73876 73352
L73819 73380
L73707 73380
L73651 73352
L73622 73323
L73594 73267
L73594 73099
L73622 73042
L73651 73014
L73707 72986
L73819 72986
L73876 73014
" />
<path d="M74129 73380
L74129 72986
" />
<path d="M74129 73099
L74157 73042
L74185 73014
L74241 72986
L74297 72986
" />
<path d="M74747 73380
L74747 72789
" />
<path d="M74747 73352
L74691 73380
L74579 73380
L74522 73352
L74494 73323
L74466 73267
L74466 73099
L74494 73042
L74522 73014
L74579 72986
L74691 72986
L74747 73014
" />
<path d="M75282 72986
L75282 73380
" />
<path d="M75028 72986
L75028 73295
L75057 73352
L75113 73380
L75197 73380
L75253 73352
L75282 73323
" />
<path d="M75563 73380
L75563 72986
" />
<path d="M75563 72789
L75535 72817
L75563 72845
L75591 72817
L75563 72789
L75563 72845
" />
<path d="M75844 72986
L75844 73380
" />
<path d="M75844 73042
L75872 73014
L75928 72986
L76013 72986
L76069 73014
L76097 73070
L76097 73380
" />
<path d="M76463 73380
L76406 73352
L76378 73323
L76350 73267
L76350 73099
L76378 73042
L76406 73014
L76463 72986
L76547 72986
L76603 73014
L76631 73042
L76660 73099
L76660 73267
L76631 73323
L76603 73352
L76547 73380
L76463 73380
" />
<path d="M76772 73436
L77222 73436
" />
<path d="M77363 73380
L77363 72789
" />
<path d="M77363 73014
L77419 72986
L77531 72986
L77588 73014
L77616 73042
L77644 73099
L77644 73267
L77616 73323
L77588 73352
L77531 73380
L77419 73380
L77363 73352
" />
<path d="M77813 72986
L78037 72986
" />
<path d="M77897 72789
L77897 73295
L77925 73352
L77981 73380
L78037 73380
" />
<path d="M78234 73323
L78262 73352
L78234 73380
L78206 73352
L78234 73323
L78234 73380
" />
<path d="M78516 73380
L78516 72789
" />
<path d="M78572 73155
L78741 73380
" />
<path d="M78741 72986
L78516 73211
" />
<path d="M78994 73380
L78994 72986
" />
<path d="M78994 72789
L78965 72817
L78994 72845
L79022 72817
L78994 72789
L78994 72845
" />
<path d="M79528 73352
L79472 73380
L79359 73380
L79303 73352
L79275 73323
L79247 73267
L79247 73099
L79275 73042
L79303 73014
L79359 72986
L79472 72986
L79528 73014
" />
<path d="M80034 73380
L80034 73070
L80006 73014
L79950 72986
L79837 72986
L79781 73014
" />
<path d="M80034 73352
L79978 73380
L79837 73380
L79781 73352
L79753 73295
L79753 73239
L79781 73183
L79837 73155
L79978 73155
L80034 73127
" />
<path d="M80568 73380
L80568 72789
" />
<path d="M80568 73352
L80512 73380
L80400 73380
L80343 73352
L80315 73323
L80287 73267
L80287 73099
L80315 73042
L80343 73014
L80400 72986
L80512 72986
L80568 73014
" />
<path d="M80709 73436
L81159 73436
" />
<path d="M81300 72986
L81300 73577
" />
<path d="M81300 73014
L81356 72986
L81468 72986
L81525 73014
L81553 73042
L81581 73099
L81581 73267
L81553 73323
L81525 73352
L81468 73380
L81356 73380
L81300 73352
" />
<path d="M82087 73352
L82031 73380
L81918 73380
L81862 73352
L81834 73323
L81806 73267
L81806 73099
L81834 73042
L81862 73014
L81918 72986
L82031 72986
L82087 73014
" />
<path d="M82340 73380
L82340 72789
" />
<path d="M82340 73014
L82396 72986
L82509 72986
L82565 73014
L82593 73042
L82621 73099
L82621 73267
L82593 73323
L82565 73352
L82509 73380
L82396 73380
L82340 73352
" />
</g>
<g style="fill:#000000; fill-opacity:0.0; 
stroke:#000000; stroke-width:39.3701; stroke-opacity:1; 
stroke-linecap:round; stroke-linejoin:round;">
</g>
<g style="fill:#000000; fill-opacity:0.0; 
stroke:#000000; stroke-width:59.0551; stroke-opacity:1; 
stroke-linecap:round; stroke-linejoin:round;">
<path d="M69685 71459
L112205 71459
" />
</g>
<g style="fill:#000000; fill-opacity:0.0; 
stroke:#000000; stroke-width:39.3701; stroke-opacity:1; 
stroke-linecap:round; stroke-linejoin:round;">
</g>
<g style="fill:#000000; fill-opacity:0.0; 
stroke:#000000; stroke-width:59.0551; stroke-opacity:1; 
stroke-linecap:round; stroke-linejoin:round;">
<path d="M70192 72289
L70276 72317
L70417 72317
L70473 72289
L70501 72260
L70529 72204
L70529 72148
L70501 72092
L70473 72064
L70417 72036
L70304 72007
L70248 71979
L70220 71951
L70192 71895
L70192 71839
L70220 71782
L70248 71754
L70304 71726
L70445 71726
L70529 71754
" />
<path d="M70782 72317
L70782 71726
" />
<path d="M71035 72317
L71035 72007
L71007 71951
L70951 71923
L70867 71923
L70810 71951
L70782 71979
" />
<path d="M71541 72289
L71485 72317
L71373 72317
L71316 72289
L71288 72232
L71288 72007
L71316 71951
L71373 71923
L71485 71923
L71541 71951
L71570 72007
L71570 72064
L71288 72120
" />
<path d="M72048 72289
L71991 72317
L71879 72317
L71823 72289
L71795 72232
L71795 72007
L71823 71951
L71879 71923
L71991 71923
L72048 71951
L72076 72007
L72076 72064
L71795 72120
" />
<path d="M72244 71923
L72469 71923
" />
<path d="M72329 71726
L72329 72232
L72357 72289
L72413 72317
L72469 72317
" />
<path d="M72666 72260
L72694 72289
L72666 72317
L72638 72289
L72666 72260
L72666 72317
" />
<path d="M72666 71951
L72694 71979
L72666 72007
L72638 71979
L72666 71951
L72666 72007
" />
</g>
<g style="fill:#000000; fill-opacity:0.0; 
stroke:#000000; stroke-width:39.3701; stroke-opacity:1; 
stroke-linecap:round; stroke-linejoin:round;">
</g>
<g style="fill:#000000; fill-opacity:0.0; 
stroke:#000000; stroke-width:59.0551; stroke-opacity:1; 
stroke-linecap:round; stroke-linejoin:round;">
<path d="M77559 75396
L77559 76577
" />
</g>
<g style="fill:#000000; fill-opacity:0.0; 
stroke:#000000; stroke-width:39.3701; stroke-opacity:1; 
stroke-linecap:round; stroke-linejoin:round;">
</g>
<g style="fill:#000000; fill-opacity:0.0; 
stroke:#000000; stroke-width:59.0551; stroke-opacity:1; 
stroke-linecap:round; stroke-linejoin:round;">
<path d="M102756 75396
L102756 77955
" />
</g>
<g style="fill:#C1C100; fill-opacity:0.0; 
stroke:#C1C100; stroke-width:59.0551; stroke-opacity:1; 
stroke-linecap:round; stroke-linejoin:round;">
<path d="M57178 41065
L56990 41196
" />
<path d="M57178 41290
L56784 41290
L56784 41140
L56803 41103
L56821 41084
L56859 41065
L56915 41065
L56953 41084
L56971 41103
L56990 41140
L56990 41290
" />
<path d="M57178 40690
L57178 40915
" />
<path d="M57178 40803
L56784 40803
L56840 40840
L56878 40878
L56896 40915
" />
<path d="M58428 38065
L58240 38196
" />
<path d="M58428 38290
L58034 38290
L58034 38140
L58053 38103
L58071 38084
L58109 38065
L58165 38065
L58203 38084
L58221 38103
L58240 38140
L58240 38290
" />
<path d="M58071 37915
L58053 37896
L58034 37859
L58034 37765
L58053 37728
L58071 37709
L58109 37690
L58146 37690
L58203 37709
L58428 37934
L58428 37690
" />
<path d="M56928 37815
L56740 37946
" />
<path d="M56928 38040
L56534 38040
L56534 37890
L56553 37853
L56571 37834
L56609 37815
L56665 37815
L56703 37834
L56721 37853
L56740 37890
L56740 38040
" />
<path d="M56534 37684
L56534 37440
L56684 37571
L56684 37515
L56703 37478
L56721 37459
L56759 37440
L56853 37440
L56890 37459
L56909 37478
L56928 37515
L56928 37628
L56909 37665
L56890 37684
" />
<path d="M59178 42815
L58990 42946
" />
<path d="M59178 43040
L58784 43040
L58784 42890
L58803 42853
L58821 42834
L58859 42815
L58915 42815
L58953 42834
L58971 42853
L58990 42890
L58990 43040
" />
<path d="M58915 42478
L59178 42478
" />
<path d="M58765 42571
L59046 42665
L59046 42421
" />
<path d="M57178 37290
L56784 37290
L56784 37196
L56803 37140
L56840 37103
L56878 37084
L56953 37065
L57009 37065
L57084 37084
L57121 37103
L57159 37140
L57178 37196
L57178 37290
" />
<path d="M57178 36690
L57178 36915
" />
<path d="M57178 36803
L56784 36803
L56840 36840
L56878 36878
L56896 36915
" />
</g>
<g style="fill:#008484; fill-opacity:0.0; 
stroke:#008484; stroke-width:59.0551; stroke-opacity:1; 
stroke-linecap:round; stroke-linejoin:round;">
<path d="M58050 37926
L58050 38404
L58078 38460
L58106 38489
L58162 38517
L58275 38517
L58331 38489
L58359 38460
L58387 38404
L58387 37926
" />
<path d="M58978 38517
L58640 38517
" />
<path d="M58809 38517
L58809 37926
L58753 38010
L58696 38067
L58640 38095
" />
<path d="M56250 41517
L56250 40926
L56447 41348
L56643 40926
L56643 41517
" />
<path d="M56925 41517
L56925 41123
" />
<path d="M56925 40926
L56897 40954
L56925 40982
L56953 40954
L56925 40926
L56925 40982
" />
<path d="M57459 41489
L57403 41517
L57290 41517
L57234 41489
L57206 41460
L57178 41404
L57178 41235
L57206 41179
L57234 41151
L57290 41123
L57403 41123
L57459 41151
" />
<path d="M57712 41517
L57712 41123
" />
<path d="M57712 41235
L57740 41179
L57768 41151
L57825 41123
L57881 41123
" />
<path d="M58162 41517
L58106 41489
L58078 41460
L58050 41404
L58050 41235
L58078 41179
L58106 41151
L58162 41123
L58246 41123
L58303 41151
L58331 41179
L58359 41235
L58359 41404
L58331 41460
L58303 41489
L58246 41517
L58162 41517
" />
<path d="M58865 41517
L58865 40926
" />
<path d="M58865 41489
L58809 41517
L58696 41517
L58640 41489
L58612 41460
L58584 41404
L58584 41235
L58612 41179
L58640 41151
L58696 41123
L58809 41123
L58865 41151
" />
<path d="M59399 41123
L59399 41517
" />
<path d="M59146 41123
L59146 41432
L59174 41489
L59231 41517
L59315 41517
L59371 41489
L59399 41460
" />
<path d="M59681 41517
L59681 41123
" />
<path d="M59681 40926
L59652 40954
L59681 40982
L59709 40954
L59681 40926
L59681 40982
" />
<path d="M59962 41123
L59962 41517
" />
<path d="M59962 41179
L59990 41151
L60046 41123
L60131 41123
L60187 41151
L60215 41207
L60215 41517
" />
<path d="M60580 41517
L60524 41489
L60496 41460
L60468 41404
L60468 41235
L60496 41179
L60524 41151
L60580 41123
L60665 41123
L60721 41151
L60749 41179
L60777 41235
L60777 41404
L60749 41460
L60721 41489
L60665 41517
L60580 41517
" />
</g>
<g style="fill:#008484; fill-opacity:0.0; 
stroke:#008484; stroke-width:149; stroke-opacity:1; 
stroke-linecap:round; stroke-linejoin:round;">
<path d="M57043 33462
L57043 34564
" />
<path d="M56531 33462
L56531 34564
" />
<path d="M57044 34563
L56532 34563
" />
<path d="M58066 33461
L58066 34563
" />
<path d="M57554 33461
L57554 34563
" />
<path d="M58067 34562
L57555 34562
" />
<path d="M57554 33460
L57042 33460
" />
<path d="M59090 33461
L59090 34563
" />
<path d="M58578 33461
L58578 34563
" />
<path d="M59091 34562
L58579 34562
" />
<path d="M58578 33460
L58066 33460
" />
<path d="M60626 33461
L60626 35154
" />
<path d="M60114 33461
L60114 34563
" />
<path d="M59602 33461
L59602 34563
" />
<path d="M57437 43264
L57437 40941
" />
<path d="M60587 40941
L60587 43264
" />
<path d="M57437 40940
L60587 40940
" />
<path d="M60587 43264
L57437 43264
" />
<path d="M60587 37240
L60587 40390
" />
<path d="M60587 40390
L57437 40390
" />
<path d="M57437 40390
L57437 37240
" />
<path d="M57437 37240
L60587 37240
" />
<path d="M56531 33461
L56374 33461
" />
<path d="M60115 34562
L59603 34562
" />
<path d="M59602 33460
L59090 33460
" />
<path d="M60626 33460
L60114 33460
" />
<path d="M61020 35154
L55980 35154
" />
<path d="M55980 43815
L55980 33185
" />
<path d="M55980 33185
L61020 33185
" />
<path d="M61020 33185
L61020 43815
" />
<path d="M61020 43815
L55980 43815
" />
</g>
<g style="fill:#008484; fill-opacity:0.0; 
stroke:#008484; stroke-width:59.0551; stroke-opacity:1; 
stroke-linecap:round; stroke-linejoin:round;">
<path d="M57344 42013
L57344 42486
" />
<path d="M56655 42486
L56655 42013
" />
<path d="M58594 39263
L58594 39736
" />
<path d="M57905 39736
L57905 39263
" />
<path d="M57344 39263
L57344 39736
" />
<path d="M56655 39736
L56655 39263
" />
<path d="M58594 42013
L58594 42486
" />
<path d="M57905 42486
L57905 42013
" />
<path d="M57618 36804
L57746 36804
" />
<path d="M57746 36804
L57746 36607
" />
<path d="M57618 36607
L57746 36607
" />
<path d="M57618 36804
L57618 36607
" />
<path d="M57373 36804
L57432 36804
" />
<path d="M57432 36804
L57432 36705
" />
<path d="M57373 36705
L57432 36705
" />
<path d="M57373 36804
L57373 36705
" />
<path d="M57568 36804
L57627 36804
" />
<path d="M57627 36804
L57627 36705
" />
<path d="M57568 36705
L57627 36705
" />
<path d="M57568 36804
L57568 36705
" />
<path d="M57422 36804
L57578 36804
" />
<path d="M57578 36804
L57578 36735
" />
<path d="M57422 36735
L57578 36735
" />
<path d="M57422 36804
L57422 36735
" />
<path d="M57618 37393
L57746 37393
" />
<path d="M57746 37393
L57746 37196
" />
<path d="M57618 37196
L57746 37196
" />
<path d="M57618 37393
L57618 37196
" />
<path d="M57254 37393
L57382 37393
" />
<path d="M57382 37393
L57382 37196
" />
<path d="M57254 37196
L57382 37196
" />
<path d="M57254 37393
L57254 37196
" />
<path d="M57568 37295
L57627 37295
" />
<path d="M57627 37295
L57627 37196
" />
<path d="M57568 37196
L57627 37196
" />
<path d="M57568 37295
L57568 37196
" />
<path d="M57373 37295
L57432 37295
" />
<path d="M57432 37295
L57432 37196
" />
<path d="M57373 37196
L57432 37196
" />
<path d="M57373 37295
L57373 37196
" />
<path d="M57422 37265
L57578 37265
" />
<path d="M57578 37265
L57578 37196
" />
<path d="M57422 37196
L57578 37196
" />
<path d="M57422 37265
L57422 37196
" />
<path d="M57461 37000
L57539 37000
" />
<path d="M57539 37000
L57539 36922
" />
<path d="M57461 36922
L57539 36922
" />
<path d="M57461 37000
L57461 36922
" />
<path d="M57264 36804
L57382 36804
" />
<path d="M57382 36804
L57382 36686
" />
<path d="M57264 36686
L57382 36686
" />
<path d="M57264 36804
L57264 36686
" />
<path d="M57254 36636
L57343 36636
" />
<path d="M57343 36636
L57343 36607
" />
<path d="M57254 36607
L57343 36607
" />
<path d="M57254 36636
L57254 36607
" />
<path d="M57726 36794
L57726 37206
" />
<path d="M57274 37196
L57274 36636
" />
<circle cx="57323" cy="36666" r="28.2843" /> 
<path d="M57363 36607 A137 137 0.0 0 0 57637 36607 " />
<path d="M57637 37393 A137 137 0.0 0 0 57363 37393 " />
<path d="M53500 35250
L63500 35250
" />
<path d="M63500 35250
L63500 46250
" />
<path d="M63500 46250
L53500 46250
" />
<path d="M53500 46250
L53500 35250
" />
</g>
<g style="fill:#008400; fill-opacity:0.0; 
stroke:#008400; stroke-width:39.3701; stroke-opacity:1; 
stroke-linecap:round; stroke-linejoin:round;">
</g>
<g style="fill:#008400; fill-opacity:1.0; 
stroke:#008400; stroke-width:39.3701; stroke-opacity:1; 
stroke-linecap:round; stroke-linejoin:round;">
<polyline style="fill-rule:evenodd;"
points="59224,36525
59224,35974
59775,35974
59775,36525
59224,36525
" /> 
<polyline style="fill-rule:evenodd;"
points="59224,37525
59224,36974
59775,36974
59775,37525
59224,37525
" /> 
<polyline style="fill-rule:evenodd;"
points="59224,41775
59224,41224
59775,41224
59775,41775
59224,41775
" /> 
<polyline style="fill-rule:evenodd;"
points="59224,39775
59224,39224
59775,39224
59775,39775
59224,39775
" /> 
<polyline style="fill-rule:evenodd;"
points="59224,40775
59224,40224
59775,40224
59775,40775
59224,40775
" /> 
</g>
<g style="fill:#840000; fill-opacity:1.0; 
stroke:#840000; stroke-width:39.3701; stroke-opacity:1; 
stroke-linecap:round; stroke-linejoin:round;">
<circle cx="54500" cy="36250" r="334.646" /> 
<circle cx="54500" cy="37250" r="334.646" /> 
<circle cx="54500" cy="38250" r="334.646" /> 
<circle cx="54500" cy="39250" r="334.646" /> 
<circle cx="54500" cy="40250" r="334.646" /> 
<circle cx="54500" cy="41250" r="334.646" /> 
<circle cx="54500" cy="42250" r="334.646" /> 
<circle cx="54500" cy="43250" r="334.646" /> 
<circle cx="54500" cy="44250" r="334.646" /> 
<circle cx="54500" cy="45250" r="334.646" /> 
<circle cx="55500" cy="45250" r="334.646" /> 
<circle cx="56500" cy="45250" r="334.646" /> 
<circle cx="57500" cy="45250" r="334.646" /> 
<circle cx="58500" cy="45250" r="334.646" /> 
<circle cx="59500" cy="45250" r="334.646" /> 
<circle cx="60500" cy="45250" r="334.646" /> 
<circle cx="61500" cy="45250" r="334.646" /> 
<circle cx="62500" cy="44250" r="334.646" /> 
<circle cx="62500" cy="43250" r="334.646" /> 
<circle cx="62500" cy="42250" r="334.646" /> 
<circle cx="62500" cy="41250" r="334.646" /> 
<circle cx="62500" cy="40250" r="334.646" /> 
<circle cx="62500" cy="39250" r="334.646" /> 
<circle cx="62500" cy="38250" r="334.646" /> 
<circle cx="62500" cy="37250" r="334.646" /> 
<circle cx="62500" cy="45250" r="334.646" /> 
<circle cx="62500" cy="36250" r="334.646" /> 
</g> 
</svg>
