G04 #@! TF.FileFunction,Legend,Top*
%FSLAX46Y46*%
G04 Gerber Fmt 4.6, Leading zero omitted, Abs format (unit mm)*
G04 Created by KiCad (PCBNEW 0.201512080931+6353~38~ubuntu14.04.1-stable) date Sun 13 Dec 2015 15:09:23 CET*
%MOMM*%
G01*
G04 APERTURE LIST*
%ADD10C,0.100000*%
%ADD11C,0.378460*%
%ADD12C,0.150000*%
G04 APERTURE END LIST*
D10*
D11*
X144889220Y-84993480D02*
X144889220Y-87792560D01*
X143588740Y-84993480D02*
X143588740Y-87792560D01*
X144891760Y-87790020D02*
X143591280Y-87790020D01*
X147487640Y-84990940D02*
X147487640Y-87790020D01*
X146187160Y-84990940D02*
X146187160Y-87790020D01*
X147490180Y-87787480D02*
X146189700Y-87787480D01*
X146187160Y-84988400D02*
X144886680Y-84988400D01*
X150088600Y-84990940D02*
X150088600Y-87790020D01*
X148788120Y-84990940D02*
X148788120Y-87790020D01*
X150091140Y-87787480D02*
X148790660Y-87787480D01*
X148788120Y-84988400D02*
X147487640Y-84988400D01*
X153990040Y-84990940D02*
X153990040Y-89291160D01*
X152689560Y-84990940D02*
X152689560Y-87790020D01*
X151389080Y-84990940D02*
X151389080Y-87790020D01*
X143588740Y-84990940D02*
X143189960Y-84990940D01*
X152692100Y-87787480D02*
X151391620Y-87787480D01*
X151389080Y-84988400D02*
X150088600Y-84988400D01*
X153990040Y-84988400D02*
X152689560Y-84988400D01*
X154990800Y-89291160D02*
X142189200Y-89291160D01*
X142189200Y-111290100D02*
X142189200Y-84289900D01*
X142189200Y-84289900D02*
X154990800Y-84289900D01*
X154990800Y-84289900D02*
X154990800Y-111290100D01*
X154990800Y-111290100D02*
X142189200Y-111290100D01*
D12*
X135890000Y-89535000D02*
X161290000Y-89535000D01*
X161290000Y-89535000D02*
X161290000Y-117475000D01*
X161290000Y-117475000D02*
X135890000Y-117475000D01*
X135890000Y-117475000D02*
X135890000Y-89535000D01*
M02*
