M48
INCH,TZ
T1C0.025
T2C0.059
%
G90
G05
T1
X56565Y-36092
X57625Y-39567
X59988Y-39000
X60288Y-40231
X60448Y-42048
X61059Y-35617
T2
X54500Y-36250
X54500Y-37250
X54500Y-38250
X54500Y-39250
X54500Y-40250
X54500Y-41250
X54500Y-42250
X54500Y-43250
X54500Y-44250
X54500Y-45250
X55500Y-45250
X56500Y-45250
X57500Y-45250
X58500Y-45250
X59500Y-45250
X60500Y-45250
X61500Y-45250
X62500Y-36250
X62500Y-37250
X62500Y-38250
X62500Y-39250
X62500Y-40250
X62500Y-41250
X62500Y-42250
X62500Y-43250
X62500Y-44250
X62500Y-45250
T0
M30
