G04 #@! TF.FileFunction,Copper,L1,Top,Signal*
%FSLAX46Y46*%
G04 Gerber Fmt 4.6, Leading zero omitted, Abs format (unit mm)*
G04 Created by KiCad (PCBNEW 0.201509251832+6217~30~ubuntu14.04.1-product) date lun 05 ott 2015 22:04:54 CEST*
%MOMM*%
G01*
G04 APERTURE LIST*
%ADD10C,0.100000*%
%ADD11R,1.699260X1.198880*%
%ADD12R,1.198880X1.597660*%
%ADD13R,1.198880X1.699260*%
%ADD14C,1.800000*%
%ADD15C,1.035000*%
%ADD16C,0.254000*%
G04 APERTURE END LIST*
D10*
D11*
X142090140Y-106789220D03*
X142090140Y-108290360D03*
X142090140Y-109788960D03*
X142090140Y-105290620D03*
X142090140Y-103789480D03*
X142090140Y-102290880D03*
X142090140Y-100789740D03*
X142090140Y-99291140D03*
X142090140Y-97790000D03*
X142090140Y-96288860D03*
X142090140Y-94790260D03*
X142090140Y-93289120D03*
X142090140Y-91790520D03*
D12*
X143339820Y-111485680D03*
D13*
X144843500Y-111439960D03*
X146342100Y-111439960D03*
X147840700Y-111439960D03*
X149339300Y-111439960D03*
X150837900Y-111439960D03*
X152336500Y-111439960D03*
D12*
X153835100Y-111488220D03*
D11*
X155089860Y-109788960D03*
X155089860Y-108290360D03*
X155089860Y-106786680D03*
X155089860Y-105290620D03*
X155089860Y-103789480D03*
X155089860Y-102290880D03*
X155089860Y-100789740D03*
X155089860Y-99291140D03*
X155089860Y-97790000D03*
X155089860Y-96288860D03*
X155089860Y-94790260D03*
X155089860Y-93289120D03*
X155089860Y-91790520D03*
D14*
X138430000Y-92075000D03*
X138430000Y-94615000D03*
X138430000Y-97155000D03*
X138430000Y-99695000D03*
X138430000Y-102235000D03*
X138430000Y-104775000D03*
X138430000Y-107315000D03*
X138430000Y-109855000D03*
X138430000Y-112395000D03*
X138430000Y-114935000D03*
X140970000Y-114935000D03*
X143510000Y-114935000D03*
X146050000Y-114935000D03*
X148590000Y-114935000D03*
X151130000Y-114935000D03*
X153670000Y-114935000D03*
X156210000Y-114935000D03*
X158750000Y-112395000D03*
X158750000Y-109855000D03*
X158750000Y-107315000D03*
X158750000Y-104775000D03*
X158750000Y-102235000D03*
X158750000Y-99695000D03*
X158750000Y-97155000D03*
X158750000Y-94615000D03*
X158750000Y-114935000D03*
X158750000Y-92075000D03*
D15*
X143829300Y-96176400D03*
X153085600Y-96288900D03*
X153060500Y-92471800D03*
D16*
X156420800Y-94404200D02*
X158750000Y-92075000D01*
X156420800Y-109789000D02*
X156420800Y-94404200D01*
X155755400Y-109789000D02*
X155534300Y-109789000D01*
X155755400Y-109789000D02*
X156420800Y-109789000D01*
X155089900Y-109789000D02*
X155312100Y-109789000D01*
X155312100Y-109789000D02*
X155534300Y-109789000D01*
X154893000Y-110208100D02*
X153835100Y-110208100D01*
X155312100Y-109789000D02*
X154893000Y-110208100D01*
X153835100Y-111488200D02*
X153835100Y-110310700D01*
X153835100Y-110310700D02*
X153835100Y-110208100D01*
X153313400Y-109789000D02*
X142090100Y-109789000D01*
X153835100Y-110310700D02*
X153313400Y-109789000D01*
X142090100Y-93289100D02*
X143421000Y-93289100D01*
X143421000Y-95768100D02*
X143829300Y-96176400D01*
X143421000Y-93289100D02*
X143421000Y-95768100D01*
X140759200Y-96944200D02*
X140759200Y-108290400D01*
X138430000Y-94615000D02*
X140759200Y-96944200D01*
X142090100Y-108290400D02*
X140759200Y-108290400D01*
X155089900Y-106786700D02*
X153759000Y-106786700D01*
X153759000Y-96288900D02*
X153759000Y-106786700D01*
X153085600Y-96288900D02*
X153759000Y-96288900D01*
X153759000Y-96288900D02*
X155089900Y-96288900D01*
X153741800Y-91790500D02*
X155089900Y-91790500D01*
X153060500Y-92471800D02*
X153741800Y-91790500D01*
X142108300Y-90691600D02*
X142090100Y-90709800D01*
X159361300Y-90691600D02*
X142108300Y-90691600D01*
X160135000Y-91465300D02*
X159361300Y-90691600D01*
X160135000Y-105930000D02*
X160135000Y-91465300D01*
X158750000Y-107315000D02*
X160135000Y-105930000D01*
X142090100Y-91790500D02*
X142090100Y-90709800D01*
M02*
