G04 #@! TF.FileFunction,Copper,L2,Bot,Signal*
%FSLAX46Y46*%
G04 Gerber Fmt 4.6, Leading zero omitted, Abs format (unit mm)*
G04 Created by KiCad (PCBNEW 0.201505071723+5645~23~ubuntu14.04.1-product) date dom 10 mag 2015 16:48:59 CEST*
%MOMM*%
G01*
G04 APERTURE LIST*
%ADD10C,0.100000*%
%ADD11R,1.198880X1.198880*%
%ADD12C,1.800000*%
%ADD13R,1.498600X1.300480*%
%ADD14R,1.501140X1.501140*%
%ADD15C,0.889000*%
%ADD16C,0.254000*%
G04 APERTURE END LIST*
D10*
D11*
X146050000Y-92930980D03*
X146050000Y-95029020D03*
D12*
X138430000Y-92075000D03*
X138430000Y-94615000D03*
X138430000Y-97155000D03*
X138430000Y-99695000D03*
X138430000Y-102235000D03*
X138430000Y-104775000D03*
X138430000Y-107315000D03*
X138430000Y-109855000D03*
X138430000Y-112395000D03*
X138430000Y-114935000D03*
X140970000Y-114935000D03*
X143510000Y-114935000D03*
X146050000Y-114935000D03*
X148590000Y-114935000D03*
X151130000Y-114935000D03*
X153670000Y-114935000D03*
X156210000Y-114935000D03*
X158750000Y-112395000D03*
X158750000Y-109855000D03*
X158750000Y-107315000D03*
X158750000Y-104775000D03*
X158750000Y-102235000D03*
X158750000Y-99695000D03*
X158750000Y-97155000D03*
X158750000Y-94615000D03*
X158750000Y-114935000D03*
X158750000Y-92075000D03*
D13*
X144780000Y-108267500D03*
X144780000Y-106362500D03*
X147955000Y-101282500D03*
X147955000Y-99377500D03*
X144780000Y-101282500D03*
X144780000Y-99377500D03*
X147955000Y-108267500D03*
X147955000Y-106362500D03*
D14*
X151130000Y-97155000D03*
X151130000Y-92075000D03*
X151130000Y-94615000D03*
X151130000Y-105410000D03*
X151130000Y-100330000D03*
X151130000Y-102870000D03*
D15*
X146367500Y-100499700D03*
X143675600Y-91672900D03*
X153536900Y-106801100D03*
X153130400Y-102186500D03*
X155089900Y-90467700D03*
X152368700Y-99060700D03*
D16*
X146050000Y-92931000D02*
X146050000Y-93911700D01*
X151130000Y-100330000D02*
X151130000Y-99198100D01*
X151130000Y-99198100D02*
X147030700Y-95098800D01*
X147030700Y-95098800D02*
X147030700Y-94248800D01*
X147030700Y-94248800D02*
X146693600Y-93911700D01*
X146693600Y-93911700D02*
X146050000Y-93911700D01*
X147955000Y-106362500D02*
X147955000Y-105331000D01*
X147955000Y-106362500D02*
X146824400Y-106362500D01*
X146824400Y-106362500D02*
X146824400Y-109079200D01*
X146824400Y-109079200D02*
X147044300Y-109299100D01*
X147044300Y-109299100D02*
X152286400Y-109299100D01*
X152286400Y-109299100D02*
X155915800Y-105669700D01*
X155915800Y-105669700D02*
X155915800Y-94909200D01*
X155915800Y-94909200D02*
X158750000Y-92075000D01*
X149085600Y-99377500D02*
X149085600Y-104200400D01*
X149085600Y-104200400D02*
X147955000Y-105331000D01*
X147955000Y-99377500D02*
X149085600Y-99377500D01*
X147447100Y-99377500D02*
X147955000Y-99377500D01*
X147447100Y-99377500D02*
X146824400Y-99377500D01*
X144780000Y-99377500D02*
X146824400Y-99377500D01*
X144780000Y-108267500D02*
X144780000Y-109299000D01*
X144780000Y-109299000D02*
X145336000Y-109855000D01*
X145336000Y-109855000D02*
X158750000Y-109855000D01*
X147955000Y-101798200D02*
X147666000Y-101798200D01*
X147666000Y-101798200D02*
X146367500Y-100499700D01*
X147955000Y-101798200D02*
X147955000Y-102314000D01*
X147955000Y-101282500D02*
X147955000Y-101798200D01*
X144780000Y-106362500D02*
X144780000Y-105331000D01*
X147955000Y-102314000D02*
X144938000Y-105331000D01*
X144938000Y-105331000D02*
X144780000Y-105331000D01*
X158750000Y-112395000D02*
X146968800Y-112395000D01*
X146968800Y-112395000D02*
X143119200Y-108545400D01*
X143119200Y-108545400D02*
X143119200Y-92229300D01*
X143119200Y-92229300D02*
X143675600Y-91672900D01*
X146050000Y-95029000D02*
X146050000Y-96009700D01*
X144780000Y-101282500D02*
X143649400Y-101282500D01*
X143649400Y-101282500D02*
X143649400Y-98410300D01*
X143649400Y-98410300D02*
X146050000Y-96009700D01*
X147955000Y-108267500D02*
X149085600Y-108267500D01*
X151130000Y-92075000D02*
X149998000Y-93207000D01*
X149998000Y-93207000D02*
X149998000Y-95523400D01*
X149998000Y-95523400D02*
X150221600Y-95747000D01*
X150221600Y-95747000D02*
X151796200Y-95747000D01*
X151796200Y-95747000D02*
X154018500Y-97969300D01*
X154018500Y-97969300D02*
X154018500Y-102474800D01*
X154018500Y-102474800D02*
X152486300Y-104007000D01*
X152486300Y-104007000D02*
X150425600Y-104007000D01*
X150425600Y-104007000D02*
X149085600Y-105347000D01*
X149085600Y-105347000D02*
X149085600Y-108267500D01*
X152261900Y-105410000D02*
X152261900Y-105526100D01*
X152261900Y-105526100D02*
X153536900Y-106801100D01*
X151130000Y-105410000D02*
X152261900Y-105410000D01*
X151130000Y-97155000D02*
X152261900Y-97155000D01*
X152261900Y-97155000D02*
X153204900Y-98098000D01*
X153204900Y-98098000D02*
X153204900Y-102112000D01*
X153204900Y-102112000D02*
X153130400Y-102186500D01*
X151130000Y-94615000D02*
X151130000Y-93483100D01*
X151130000Y-93483100D02*
X152074500Y-93483100D01*
X152074500Y-93483100D02*
X155089900Y-90467700D01*
X151130000Y-102870000D02*
X151130000Y-101738100D01*
X151130000Y-101738100D02*
X151766700Y-101738100D01*
X151766700Y-101738100D02*
X152368700Y-101136100D01*
X152368700Y-101136100D02*
X152368700Y-99060700D01*
G36*
X150014134Y-101599878D02*
X149924503Y-101658757D01*
X149782053Y-101869790D01*
X149731990Y-102119430D01*
X149731990Y-103620570D01*
X149732381Y-103622588D01*
X148546785Y-104808185D01*
X148381604Y-105055395D01*
X148377254Y-105077260D01*
X148240750Y-105077260D01*
X148082000Y-105236010D01*
X148082000Y-106235500D01*
X148102000Y-106235500D01*
X148102000Y-106489500D01*
X148082000Y-106489500D01*
X148082000Y-106509500D01*
X147828000Y-106509500D01*
X147828000Y-106489500D01*
X147828000Y-106235500D01*
X147828000Y-105236010D01*
X147669250Y-105077260D01*
X147332009Y-105077260D01*
X147079390Y-105077260D01*
X146846001Y-105173933D01*
X146667373Y-105352562D01*
X146570700Y-105585951D01*
X146570700Y-106076750D01*
X146729450Y-106235500D01*
X147828000Y-106235500D01*
X147828000Y-106489500D01*
X146729450Y-106489500D01*
X146570700Y-106648250D01*
X146570700Y-107139049D01*
X146643680Y-107315239D01*
X146608323Y-107367620D01*
X146558260Y-107617260D01*
X146558260Y-108917740D01*
X146592264Y-109093000D01*
X146141593Y-109093000D01*
X146176740Y-108917740D01*
X146176740Y-107617260D01*
X146129763Y-107375137D01*
X146090702Y-107315674D01*
X146126677Y-107262380D01*
X146176740Y-107012740D01*
X146176740Y-105712260D01*
X146129763Y-105470137D01*
X146029351Y-105317278D01*
X148493815Y-102852816D01*
X148493815Y-102852815D01*
X148658996Y-102605605D01*
X148664053Y-102580180D01*
X148704300Y-102580180D01*
X148946423Y-102533203D01*
X149159227Y-102393413D01*
X149301677Y-102182380D01*
X149351740Y-101932740D01*
X149351740Y-100632260D01*
X149304763Y-100390137D01*
X149265970Y-100331082D01*
X149339300Y-100154049D01*
X149339300Y-99663250D01*
X149180550Y-99504500D01*
X148082000Y-99504500D01*
X148082000Y-99524500D01*
X147828000Y-99524500D01*
X147828000Y-99504500D01*
X147828000Y-99250500D01*
X147828000Y-98251010D01*
X147669250Y-98092260D01*
X147332009Y-98092260D01*
X147079390Y-98092260D01*
X146846001Y-98188933D01*
X146667373Y-98367562D01*
X146570700Y-98600951D01*
X146570700Y-99091750D01*
X146729450Y-99250500D01*
X147828000Y-99250500D01*
X147828000Y-99504500D01*
X146785733Y-99504500D01*
X146583168Y-99420387D01*
X146164300Y-99420022D01*
X146153716Y-99420013D01*
X145949242Y-99504500D01*
X144907000Y-99504500D01*
X144907000Y-99524500D01*
X144653000Y-99524500D01*
X144653000Y-99504500D01*
X144633000Y-99504500D01*
X144633000Y-99250500D01*
X144653000Y-99250500D01*
X144653000Y-99230500D01*
X144907000Y-99230500D01*
X144907000Y-99250500D01*
X146005550Y-99250500D01*
X146164300Y-99091750D01*
X146164300Y-98600951D01*
X146067627Y-98367562D01*
X145888999Y-98188933D01*
X145655610Y-98092260D01*
X145402991Y-98092260D01*
X145065750Y-98092260D01*
X144907002Y-98251008D01*
X144907002Y-98230328D01*
X146588815Y-96548515D01*
X146753996Y-96301305D01*
X146763449Y-96253779D01*
X146891563Y-96228923D01*
X147007218Y-96152949D01*
X149028496Y-98174227D01*
X148830610Y-98092260D01*
X148577991Y-98092260D01*
X148240750Y-98092260D01*
X148082000Y-98251010D01*
X148082000Y-99250500D01*
X149180550Y-99250500D01*
X149339300Y-99091750D01*
X149339300Y-98600951D01*
X149257331Y-98403062D01*
X149953788Y-99099519D01*
X149924503Y-99118757D01*
X149782053Y-99329790D01*
X149731990Y-99579430D01*
X149731990Y-101080570D01*
X149778967Y-101322693D01*
X149918757Y-101535497D01*
X150014134Y-101599878D01*
X150014134Y-101599878D01*
G37*
X150014134Y-101599878D02*
X149924503Y-101658757D01*
X149782053Y-101869790D01*
X149731990Y-102119430D01*
X149731990Y-103620570D01*
X149732381Y-103622588D01*
X148546785Y-104808185D01*
X148381604Y-105055395D01*
X148377254Y-105077260D01*
X148240750Y-105077260D01*
X148082000Y-105236010D01*
X148082000Y-106235500D01*
X148102000Y-106235500D01*
X148102000Y-106489500D01*
X148082000Y-106489500D01*
X148082000Y-106509500D01*
X147828000Y-106509500D01*
X147828000Y-106489500D01*
X147828000Y-106235500D01*
X147828000Y-105236010D01*
X147669250Y-105077260D01*
X147332009Y-105077260D01*
X147079390Y-105077260D01*
X146846001Y-105173933D01*
X146667373Y-105352562D01*
X146570700Y-105585951D01*
X146570700Y-106076750D01*
X146729450Y-106235500D01*
X147828000Y-106235500D01*
X147828000Y-106489500D01*
X146729450Y-106489500D01*
X146570700Y-106648250D01*
X146570700Y-107139049D01*
X146643680Y-107315239D01*
X146608323Y-107367620D01*
X146558260Y-107617260D01*
X146558260Y-108917740D01*
X146592264Y-109093000D01*
X146141593Y-109093000D01*
X146176740Y-108917740D01*
X146176740Y-107617260D01*
X146129763Y-107375137D01*
X146090702Y-107315674D01*
X146126677Y-107262380D01*
X146176740Y-107012740D01*
X146176740Y-105712260D01*
X146129763Y-105470137D01*
X146029351Y-105317278D01*
X148493815Y-102852816D01*
X148493815Y-102852815D01*
X148658996Y-102605605D01*
X148664053Y-102580180D01*
X148704300Y-102580180D01*
X148946423Y-102533203D01*
X149159227Y-102393413D01*
X149301677Y-102182380D01*
X149351740Y-101932740D01*
X149351740Y-100632260D01*
X149304763Y-100390137D01*
X149265970Y-100331082D01*
X149339300Y-100154049D01*
X149339300Y-99663250D01*
X149180550Y-99504500D01*
X148082000Y-99504500D01*
X148082000Y-99524500D01*
X147828000Y-99524500D01*
X147828000Y-99504500D01*
X147828000Y-99250500D01*
X147828000Y-98251010D01*
X147669250Y-98092260D01*
X147332009Y-98092260D01*
X147079390Y-98092260D01*
X146846001Y-98188933D01*
X146667373Y-98367562D01*
X146570700Y-98600951D01*
X146570700Y-99091750D01*
X146729450Y-99250500D01*
X147828000Y-99250500D01*
X147828000Y-99504500D01*
X146785733Y-99504500D01*
X146583168Y-99420387D01*
X146164300Y-99420022D01*
X146153716Y-99420013D01*
X145949242Y-99504500D01*
X144907000Y-99504500D01*
X144907000Y-99524500D01*
X144653000Y-99524500D01*
X144653000Y-99504500D01*
X144633000Y-99504500D01*
X144633000Y-99250500D01*
X144653000Y-99250500D01*
X144653000Y-99230500D01*
X144907000Y-99230500D01*
X144907000Y-99250500D01*
X146005550Y-99250500D01*
X146164300Y-99091750D01*
X146164300Y-98600951D01*
X146067627Y-98367562D01*
X145888999Y-98188933D01*
X145655610Y-98092260D01*
X145402991Y-98092260D01*
X145065750Y-98092260D01*
X144907002Y-98251008D01*
X144907002Y-98230328D01*
X146588815Y-96548515D01*
X146753996Y-96301305D01*
X146763449Y-96253779D01*
X146891563Y-96228923D01*
X147007218Y-96152949D01*
X149028496Y-98174227D01*
X148830610Y-98092260D01*
X148577991Y-98092260D01*
X148240750Y-98092260D01*
X148082000Y-98251010D01*
X148082000Y-99250500D01*
X149180550Y-99250500D01*
X149339300Y-99091750D01*
X149339300Y-98600951D01*
X149257331Y-98403062D01*
X149953788Y-99099519D01*
X149924503Y-99118757D01*
X149782053Y-99329790D01*
X149731990Y-99579430D01*
X149731990Y-101080570D01*
X149778967Y-101322693D01*
X149918757Y-101535497D01*
X150014134Y-101599878D01*
G36*
X160528000Y-116713000D02*
X160296458Y-116713000D01*
X160296458Y-92315664D01*
X160270839Y-91705540D01*
X160086643Y-91260852D01*
X159830159Y-91174446D01*
X159650554Y-91354051D01*
X159650554Y-90994841D01*
X159564148Y-90738357D01*
X158990664Y-90528542D01*
X158380540Y-90554161D01*
X157935852Y-90738357D01*
X157849446Y-90994841D01*
X158750000Y-91895395D01*
X159650554Y-90994841D01*
X159650554Y-91354051D01*
X158929605Y-92075000D01*
X159830159Y-92975554D01*
X160086643Y-92889148D01*
X160296458Y-92315664D01*
X160296458Y-116713000D01*
X136652000Y-116713000D01*
X136652000Y-90297000D01*
X154010547Y-90297000D01*
X154010397Y-90469571D01*
X152528010Y-91951959D01*
X152528010Y-91324430D01*
X152481033Y-91082307D01*
X152341243Y-90869503D01*
X152130210Y-90727053D01*
X151880570Y-90676990D01*
X150379430Y-90676990D01*
X150137307Y-90723967D01*
X149924503Y-90863757D01*
X149782053Y-91074790D01*
X149731990Y-91324430D01*
X149731990Y-92395379D01*
X149459185Y-92668185D01*
X149294004Y-92915395D01*
X149236000Y-93207000D01*
X149236000Y-95523400D01*
X149294004Y-95815005D01*
X149459185Y-96062215D01*
X149682785Y-96285815D01*
X149747152Y-96328823D01*
X149731990Y-96404430D01*
X149731990Y-96722459D01*
X147792700Y-94783169D01*
X147792700Y-94248800D01*
X147734696Y-93957195D01*
X147569515Y-93709985D01*
X147569515Y-93709984D01*
X147296880Y-93437349D01*
X147296880Y-92331540D01*
X147249903Y-92089417D01*
X147110113Y-91876613D01*
X146899080Y-91734163D01*
X146649440Y-91684100D01*
X145450560Y-91684100D01*
X145208437Y-91731077D01*
X144995633Y-91870867D01*
X144853183Y-92081900D01*
X144803120Y-92331540D01*
X144803120Y-93530420D01*
X144850097Y-93772543D01*
X144987247Y-93981329D01*
X144853183Y-94179940D01*
X144803120Y-94429580D01*
X144803120Y-95628460D01*
X144850097Y-95870583D01*
X144953728Y-96028341D01*
X143881200Y-97100870D01*
X143881200Y-92752579D01*
X143889384Y-92752587D01*
X144286289Y-92588589D01*
X144590222Y-92285186D01*
X144754913Y-91888568D01*
X144755287Y-91459116D01*
X144591289Y-91062211D01*
X144287886Y-90758278D01*
X143891268Y-90593587D01*
X143461816Y-90593213D01*
X143064911Y-90757211D01*
X142760978Y-91060614D01*
X142596287Y-91457232D01*
X142596097Y-91674772D01*
X142580385Y-91690485D01*
X142415204Y-91937695D01*
X142357200Y-92229300D01*
X142357200Y-108545400D01*
X142415204Y-108837005D01*
X142580385Y-109084215D01*
X146429985Y-112933816D01*
X146677195Y-113098996D01*
X146677196Y-113098997D01*
X146968800Y-113157000D01*
X157403980Y-113157000D01*
X157447932Y-113263371D01*
X157849181Y-113665322D01*
X157479677Y-114034181D01*
X157080643Y-113634449D01*
X156516670Y-113400267D01*
X155906009Y-113399735D01*
X155341629Y-113632932D01*
X154939677Y-114034181D01*
X154540643Y-113634449D01*
X153976670Y-113400267D01*
X153366009Y-113399735D01*
X152801629Y-113632932D01*
X152399677Y-114034181D01*
X152000643Y-113634449D01*
X151436670Y-113400267D01*
X150826009Y-113399735D01*
X150261629Y-113632932D01*
X149859677Y-114034181D01*
X149460643Y-113634449D01*
X148896670Y-113400267D01*
X148286009Y-113399735D01*
X147721629Y-113632932D01*
X147319677Y-114034181D01*
X146920643Y-113634449D01*
X146356670Y-113400267D01*
X145746009Y-113399735D01*
X145181629Y-113632932D01*
X144779677Y-114034181D01*
X144380643Y-113634449D01*
X143816670Y-113400267D01*
X143206009Y-113399735D01*
X142641629Y-113632932D01*
X142239677Y-114034181D01*
X141840643Y-113634449D01*
X141276670Y-113400267D01*
X140666009Y-113399735D01*
X140101629Y-113632932D01*
X139699677Y-114034181D01*
X139330818Y-113664677D01*
X139730551Y-113265643D01*
X139964733Y-112701670D01*
X139965265Y-112091009D01*
X139732068Y-111526629D01*
X139330818Y-111124677D01*
X139730551Y-110725643D01*
X139964733Y-110161670D01*
X139965265Y-109551009D01*
X139732068Y-108986629D01*
X139330818Y-108584677D01*
X139730551Y-108185643D01*
X139964733Y-107621670D01*
X139965265Y-107011009D01*
X139732068Y-106446629D01*
X139330818Y-106044677D01*
X139730551Y-105645643D01*
X139964733Y-105081670D01*
X139965265Y-104471009D01*
X139732068Y-103906629D01*
X139330818Y-103504677D01*
X139730551Y-103105643D01*
X139964733Y-102541670D01*
X139965265Y-101931009D01*
X139732068Y-101366629D01*
X139330818Y-100964677D01*
X139730551Y-100565643D01*
X139964733Y-100001670D01*
X139965265Y-99391009D01*
X139732068Y-98826629D01*
X139330818Y-98424677D01*
X139730551Y-98025643D01*
X139964733Y-97461670D01*
X139965265Y-96851009D01*
X139732068Y-96286629D01*
X139330818Y-95884677D01*
X139730551Y-95485643D01*
X139964733Y-94921670D01*
X139965265Y-94311009D01*
X139732068Y-93746629D01*
X139330818Y-93344677D01*
X139730551Y-92945643D01*
X139964733Y-92381670D01*
X139965265Y-91771009D01*
X139732068Y-91206629D01*
X139300643Y-90774449D01*
X138736670Y-90540267D01*
X138126009Y-90539735D01*
X137561629Y-90772932D01*
X137129449Y-91204357D01*
X136895267Y-91768330D01*
X136894735Y-92378991D01*
X137127932Y-92943371D01*
X137529181Y-93345322D01*
X137129449Y-93744357D01*
X136895267Y-94308330D01*
X136894735Y-94918991D01*
X137127932Y-95483371D01*
X137529181Y-95885322D01*
X137129449Y-96284357D01*
X136895267Y-96848330D01*
X136894735Y-97458991D01*
X137127932Y-98023371D01*
X137529181Y-98425322D01*
X137129449Y-98824357D01*
X136895267Y-99388330D01*
X136894735Y-99998991D01*
X137127932Y-100563371D01*
X137529181Y-100965322D01*
X137129449Y-101364357D01*
X136895267Y-101928330D01*
X136894735Y-102538991D01*
X137127932Y-103103371D01*
X137529181Y-103505322D01*
X137129449Y-103904357D01*
X136895267Y-104468330D01*
X136894735Y-105078991D01*
X137127932Y-105643371D01*
X137529181Y-106045322D01*
X137129449Y-106444357D01*
X136895267Y-107008330D01*
X136894735Y-107618991D01*
X137127932Y-108183371D01*
X137529181Y-108585322D01*
X137129449Y-108984357D01*
X136895267Y-109548330D01*
X136894735Y-110158991D01*
X137127932Y-110723371D01*
X137529181Y-111125322D01*
X137129449Y-111524357D01*
X136895267Y-112088330D01*
X136894735Y-112698991D01*
X137127932Y-113263371D01*
X137529181Y-113665322D01*
X137129449Y-114064357D01*
X136895267Y-114628330D01*
X136894735Y-115238991D01*
X137127932Y-115803371D01*
X137559357Y-116235551D01*
X138123330Y-116469733D01*
X138733991Y-116470265D01*
X139298371Y-116237068D01*
X139700322Y-115835818D01*
X140099357Y-116235551D01*
X140663330Y-116469733D01*
X141273991Y-116470265D01*
X141838371Y-116237068D01*
X142240322Y-115835818D01*
X142639357Y-116235551D01*
X143203330Y-116469733D01*
X143813991Y-116470265D01*
X144378371Y-116237068D01*
X144780322Y-115835818D01*
X145179357Y-116235551D01*
X145743330Y-116469733D01*
X146353991Y-116470265D01*
X146918371Y-116237068D01*
X147320322Y-115835818D01*
X147719357Y-116235551D01*
X148283330Y-116469733D01*
X148893991Y-116470265D01*
X149458371Y-116237068D01*
X149860322Y-115835818D01*
X150259357Y-116235551D01*
X150823330Y-116469733D01*
X151433991Y-116470265D01*
X151998371Y-116237068D01*
X152400322Y-115835818D01*
X152799357Y-116235551D01*
X153363330Y-116469733D01*
X153973991Y-116470265D01*
X154538371Y-116237068D01*
X154940322Y-115835818D01*
X155339357Y-116235551D01*
X155903330Y-116469733D01*
X156513991Y-116470265D01*
X157078371Y-116237068D01*
X157480322Y-115835818D01*
X157879357Y-116235551D01*
X158443330Y-116469733D01*
X159053991Y-116470265D01*
X159618371Y-116237068D01*
X160050551Y-115805643D01*
X160284733Y-115241670D01*
X160285265Y-114631009D01*
X160052068Y-114066629D01*
X159650818Y-113664677D01*
X160050551Y-113265643D01*
X160284733Y-112701670D01*
X160285265Y-112091009D01*
X160052068Y-111526629D01*
X159650818Y-111124677D01*
X160050551Y-110725643D01*
X160284733Y-110161670D01*
X160285265Y-109551009D01*
X160052068Y-108986629D01*
X159650818Y-108584677D01*
X160050551Y-108185643D01*
X160284733Y-107621670D01*
X160285265Y-107011009D01*
X160052068Y-106446629D01*
X159650818Y-106044677D01*
X160050551Y-105645643D01*
X160284733Y-105081670D01*
X160285265Y-104471009D01*
X160052068Y-103906629D01*
X159650818Y-103504677D01*
X160050551Y-103105643D01*
X160284733Y-102541670D01*
X160285265Y-101931009D01*
X160052068Y-101366629D01*
X159650818Y-100964677D01*
X160050551Y-100565643D01*
X160284733Y-100001670D01*
X160285265Y-99391009D01*
X160052068Y-98826629D01*
X159650818Y-98424677D01*
X160050551Y-98025643D01*
X160284733Y-97461670D01*
X160285265Y-96851009D01*
X160052068Y-96286629D01*
X159650818Y-95884677D01*
X160050551Y-95485643D01*
X160284733Y-94921670D01*
X160285265Y-94311009D01*
X160052068Y-93746629D01*
X159620643Y-93314449D01*
X159599806Y-93305796D01*
X159650554Y-93155159D01*
X158750000Y-92254605D01*
X158570395Y-92434210D01*
X158570395Y-92075000D01*
X157669841Y-91174446D01*
X157413357Y-91260852D01*
X157203542Y-91834336D01*
X157229161Y-92444460D01*
X157413357Y-92889148D01*
X157669841Y-92975554D01*
X158570395Y-92075000D01*
X158570395Y-92434210D01*
X157849446Y-93155159D01*
X157900035Y-93305326D01*
X157881629Y-93312932D01*
X157449449Y-93744357D01*
X157215267Y-94308330D01*
X157214735Y-94918991D01*
X157447932Y-95483371D01*
X157849181Y-95885322D01*
X157449449Y-96284357D01*
X157215267Y-96848330D01*
X157214735Y-97458991D01*
X157447932Y-98023371D01*
X157849181Y-98425322D01*
X157449449Y-98824357D01*
X157215267Y-99388330D01*
X157214735Y-99998991D01*
X157447932Y-100563371D01*
X157849181Y-100965322D01*
X157449449Y-101364357D01*
X157215267Y-101928330D01*
X157214735Y-102538991D01*
X157447932Y-103103371D01*
X157849181Y-103505322D01*
X157449449Y-103904357D01*
X157215267Y-104468330D01*
X157214735Y-105078991D01*
X157447932Y-105643371D01*
X157849181Y-106045322D01*
X157449449Y-106444357D01*
X157215267Y-107008330D01*
X157214735Y-107618991D01*
X157447932Y-108183371D01*
X157849181Y-108585322D01*
X157449449Y-108984357D01*
X157404336Y-109093000D01*
X149316593Y-109093000D01*
X149339453Y-108979005D01*
X149377205Y-108971496D01*
X149624415Y-108806315D01*
X149789596Y-108559105D01*
X149847600Y-108267500D01*
X149847600Y-106507173D01*
X149918757Y-106615497D01*
X150129790Y-106757947D01*
X150379430Y-106808010D01*
X151880570Y-106808010D01*
X152122693Y-106761033D01*
X152301647Y-106643478D01*
X152457400Y-106799231D01*
X152457213Y-107014884D01*
X152621211Y-107411789D01*
X152924614Y-107715722D01*
X153321232Y-107880413D01*
X153750684Y-107880787D01*
X154147589Y-107716789D01*
X154451522Y-107413386D01*
X154616213Y-107016768D01*
X154616587Y-106587316D01*
X154452589Y-106190411D01*
X154149186Y-105886478D01*
X153752568Y-105721787D01*
X153535028Y-105721597D01*
X152974355Y-105160925D01*
X152965896Y-105118395D01*
X152800715Y-104871185D01*
X152610739Y-104744247D01*
X152777904Y-104710996D01*
X152777905Y-104710996D01*
X153025115Y-104545815D01*
X154557315Y-103013615D01*
X154722496Y-102766405D01*
X154722496Y-102766404D01*
X154780499Y-102474800D01*
X154780500Y-102474800D01*
X154780500Y-97969300D01*
X154722496Y-97677696D01*
X154722496Y-97677695D01*
X154656334Y-97578676D01*
X154557316Y-97430485D01*
X152522061Y-95395231D01*
X152528010Y-95365570D01*
X152528010Y-94078914D01*
X152528010Y-94078913D01*
X152613315Y-94021915D01*
X155088031Y-91547199D01*
X155303684Y-91547387D01*
X155700589Y-91383389D01*
X156004522Y-91079986D01*
X156169213Y-90683368D01*
X156169549Y-90297000D01*
X160528000Y-90297000D01*
X160528000Y-116713000D01*
X160528000Y-116713000D01*
G37*
X160528000Y-116713000D02*
X160296458Y-116713000D01*
X160296458Y-92315664D01*
X160270839Y-91705540D01*
X160086643Y-91260852D01*
X159830159Y-91174446D01*
X159650554Y-91354051D01*
X159650554Y-90994841D01*
X159564148Y-90738357D01*
X158990664Y-90528542D01*
X158380540Y-90554161D01*
X157935852Y-90738357D01*
X157849446Y-90994841D01*
X158750000Y-91895395D01*
X159650554Y-90994841D01*
X159650554Y-91354051D01*
X158929605Y-92075000D01*
X159830159Y-92975554D01*
X160086643Y-92889148D01*
X160296458Y-92315664D01*
X160296458Y-116713000D01*
X136652000Y-116713000D01*
X136652000Y-90297000D01*
X154010547Y-90297000D01*
X154010397Y-90469571D01*
X152528010Y-91951959D01*
X152528010Y-91324430D01*
X152481033Y-91082307D01*
X152341243Y-90869503D01*
X152130210Y-90727053D01*
X151880570Y-90676990D01*
X150379430Y-90676990D01*
X150137307Y-90723967D01*
X149924503Y-90863757D01*
X149782053Y-91074790D01*
X149731990Y-91324430D01*
X149731990Y-92395379D01*
X149459185Y-92668185D01*
X149294004Y-92915395D01*
X149236000Y-93207000D01*
X149236000Y-95523400D01*
X149294004Y-95815005D01*
X149459185Y-96062215D01*
X149682785Y-96285815D01*
X149747152Y-96328823D01*
X149731990Y-96404430D01*
X149731990Y-96722459D01*
X147792700Y-94783169D01*
X147792700Y-94248800D01*
X147734696Y-93957195D01*
X147569515Y-93709985D01*
X147569515Y-93709984D01*
X147296880Y-93437349D01*
X147296880Y-92331540D01*
X147249903Y-92089417D01*
X147110113Y-91876613D01*
X146899080Y-91734163D01*
X146649440Y-91684100D01*
X145450560Y-91684100D01*
X145208437Y-91731077D01*
X144995633Y-91870867D01*
X144853183Y-92081900D01*
X144803120Y-92331540D01*
X144803120Y-93530420D01*
X144850097Y-93772543D01*
X144987247Y-93981329D01*
X144853183Y-94179940D01*
X144803120Y-94429580D01*
X144803120Y-95628460D01*
X144850097Y-95870583D01*
X144953728Y-96028341D01*
X143881200Y-97100870D01*
X143881200Y-92752579D01*
X143889384Y-92752587D01*
X144286289Y-92588589D01*
X144590222Y-92285186D01*
X144754913Y-91888568D01*
X144755287Y-91459116D01*
X144591289Y-91062211D01*
X144287886Y-90758278D01*
X143891268Y-90593587D01*
X143461816Y-90593213D01*
X143064911Y-90757211D01*
X142760978Y-91060614D01*
X142596287Y-91457232D01*
X142596097Y-91674772D01*
X142580385Y-91690485D01*
X142415204Y-91937695D01*
X142357200Y-92229300D01*
X142357200Y-108545400D01*
X142415204Y-108837005D01*
X142580385Y-109084215D01*
X146429985Y-112933816D01*
X146677195Y-113098996D01*
X146677196Y-113098997D01*
X146968800Y-113157000D01*
X157403980Y-113157000D01*
X157447932Y-113263371D01*
X157849181Y-113665322D01*
X157479677Y-114034181D01*
X157080643Y-113634449D01*
X156516670Y-113400267D01*
X155906009Y-113399735D01*
X155341629Y-113632932D01*
X154939677Y-114034181D01*
X154540643Y-113634449D01*
X153976670Y-113400267D01*
X153366009Y-113399735D01*
X152801629Y-113632932D01*
X152399677Y-114034181D01*
X152000643Y-113634449D01*
X151436670Y-113400267D01*
X150826009Y-113399735D01*
X150261629Y-113632932D01*
X149859677Y-114034181D01*
X149460643Y-113634449D01*
X148896670Y-113400267D01*
X148286009Y-113399735D01*
X147721629Y-113632932D01*
X147319677Y-114034181D01*
X146920643Y-113634449D01*
X146356670Y-113400267D01*
X145746009Y-113399735D01*
X145181629Y-113632932D01*
X144779677Y-114034181D01*
X144380643Y-113634449D01*
X143816670Y-113400267D01*
X143206009Y-113399735D01*
X142641629Y-113632932D01*
X142239677Y-114034181D01*
X141840643Y-113634449D01*
X141276670Y-113400267D01*
X140666009Y-113399735D01*
X140101629Y-113632932D01*
X139699677Y-114034181D01*
X139330818Y-113664677D01*
X139730551Y-113265643D01*
X139964733Y-112701670D01*
X139965265Y-112091009D01*
X139732068Y-111526629D01*
X139330818Y-111124677D01*
X139730551Y-110725643D01*
X139964733Y-110161670D01*
X139965265Y-109551009D01*
X139732068Y-108986629D01*
X139330818Y-108584677D01*
X139730551Y-108185643D01*
X139964733Y-107621670D01*
X139965265Y-107011009D01*
X139732068Y-106446629D01*
X139330818Y-106044677D01*
X139730551Y-105645643D01*
X139964733Y-105081670D01*
X139965265Y-104471009D01*
X139732068Y-103906629D01*
X139330818Y-103504677D01*
X139730551Y-103105643D01*
X139964733Y-102541670D01*
X139965265Y-101931009D01*
X139732068Y-101366629D01*
X139330818Y-100964677D01*
X139730551Y-100565643D01*
X139964733Y-100001670D01*
X139965265Y-99391009D01*
X139732068Y-98826629D01*
X139330818Y-98424677D01*
X139730551Y-98025643D01*
X139964733Y-97461670D01*
X139965265Y-96851009D01*
X139732068Y-96286629D01*
X139330818Y-95884677D01*
X139730551Y-95485643D01*
X139964733Y-94921670D01*
X139965265Y-94311009D01*
X139732068Y-93746629D01*
X139330818Y-93344677D01*
X139730551Y-92945643D01*
X139964733Y-92381670D01*
X139965265Y-91771009D01*
X139732068Y-91206629D01*
X139300643Y-90774449D01*
X138736670Y-90540267D01*
X138126009Y-90539735D01*
X137561629Y-90772932D01*
X137129449Y-91204357D01*
X136895267Y-91768330D01*
X136894735Y-92378991D01*
X137127932Y-92943371D01*
X137529181Y-93345322D01*
X137129449Y-93744357D01*
X136895267Y-94308330D01*
X136894735Y-94918991D01*
X137127932Y-95483371D01*
X137529181Y-95885322D01*
X137129449Y-96284357D01*
X136895267Y-96848330D01*
X136894735Y-97458991D01*
X137127932Y-98023371D01*
X137529181Y-98425322D01*
X137129449Y-98824357D01*
X136895267Y-99388330D01*
X136894735Y-99998991D01*
X137127932Y-100563371D01*
X137529181Y-100965322D01*
X137129449Y-101364357D01*
X136895267Y-101928330D01*
X136894735Y-102538991D01*
X137127932Y-103103371D01*
X137529181Y-103505322D01*
X137129449Y-103904357D01*
X136895267Y-104468330D01*
X136894735Y-105078991D01*
X137127932Y-105643371D01*
X137529181Y-106045322D01*
X137129449Y-106444357D01*
X136895267Y-107008330D01*
X136894735Y-107618991D01*
X137127932Y-108183371D01*
X137529181Y-108585322D01*
X137129449Y-108984357D01*
X136895267Y-109548330D01*
X136894735Y-110158991D01*
X137127932Y-110723371D01*
X137529181Y-111125322D01*
X137129449Y-111524357D01*
X136895267Y-112088330D01*
X136894735Y-112698991D01*
X137127932Y-113263371D01*
X137529181Y-113665322D01*
X137129449Y-114064357D01*
X136895267Y-114628330D01*
X136894735Y-115238991D01*
X137127932Y-115803371D01*
X137559357Y-116235551D01*
X138123330Y-116469733D01*
X138733991Y-116470265D01*
X139298371Y-116237068D01*
X139700322Y-115835818D01*
X140099357Y-116235551D01*
X140663330Y-116469733D01*
X141273991Y-116470265D01*
X141838371Y-116237068D01*
X142240322Y-115835818D01*
X142639357Y-116235551D01*
X143203330Y-116469733D01*
X143813991Y-116470265D01*
X144378371Y-116237068D01*
X144780322Y-115835818D01*
X145179357Y-116235551D01*
X145743330Y-116469733D01*
X146353991Y-116470265D01*
X146918371Y-116237068D01*
X147320322Y-115835818D01*
X147719357Y-116235551D01*
X148283330Y-116469733D01*
X148893991Y-116470265D01*
X149458371Y-116237068D01*
X149860322Y-115835818D01*
X150259357Y-116235551D01*
X150823330Y-116469733D01*
X151433991Y-116470265D01*
X151998371Y-116237068D01*
X152400322Y-115835818D01*
X152799357Y-116235551D01*
X153363330Y-116469733D01*
X153973991Y-116470265D01*
X154538371Y-116237068D01*
X154940322Y-115835818D01*
X155339357Y-116235551D01*
X155903330Y-116469733D01*
X156513991Y-116470265D01*
X157078371Y-116237068D01*
X157480322Y-115835818D01*
X157879357Y-116235551D01*
X158443330Y-116469733D01*
X159053991Y-116470265D01*
X159618371Y-116237068D01*
X160050551Y-115805643D01*
X160284733Y-115241670D01*
X160285265Y-114631009D01*
X160052068Y-114066629D01*
X159650818Y-113664677D01*
X160050551Y-113265643D01*
X160284733Y-112701670D01*
X160285265Y-112091009D01*
X160052068Y-111526629D01*
X159650818Y-111124677D01*
X160050551Y-110725643D01*
X160284733Y-110161670D01*
X160285265Y-109551009D01*
X160052068Y-108986629D01*
X159650818Y-108584677D01*
X160050551Y-108185643D01*
X160284733Y-107621670D01*
X160285265Y-107011009D01*
X160052068Y-106446629D01*
X159650818Y-106044677D01*
X160050551Y-105645643D01*
X160284733Y-105081670D01*
X160285265Y-104471009D01*
X160052068Y-103906629D01*
X159650818Y-103504677D01*
X160050551Y-103105643D01*
X160284733Y-102541670D01*
X160285265Y-101931009D01*
X160052068Y-101366629D01*
X159650818Y-100964677D01*
X160050551Y-100565643D01*
X160284733Y-100001670D01*
X160285265Y-99391009D01*
X160052068Y-98826629D01*
X159650818Y-98424677D01*
X160050551Y-98025643D01*
X160284733Y-97461670D01*
X160285265Y-96851009D01*
X160052068Y-96286629D01*
X159650818Y-95884677D01*
X160050551Y-95485643D01*
X160284733Y-94921670D01*
X160285265Y-94311009D01*
X160052068Y-93746629D01*
X159620643Y-93314449D01*
X159599806Y-93305796D01*
X159650554Y-93155159D01*
X158750000Y-92254605D01*
X158570395Y-92434210D01*
X158570395Y-92075000D01*
X157669841Y-91174446D01*
X157413357Y-91260852D01*
X157203542Y-91834336D01*
X157229161Y-92444460D01*
X157413357Y-92889148D01*
X157669841Y-92975554D01*
X158570395Y-92075000D01*
X158570395Y-92434210D01*
X157849446Y-93155159D01*
X157900035Y-93305326D01*
X157881629Y-93312932D01*
X157449449Y-93744357D01*
X157215267Y-94308330D01*
X157214735Y-94918991D01*
X157447932Y-95483371D01*
X157849181Y-95885322D01*
X157449449Y-96284357D01*
X157215267Y-96848330D01*
X157214735Y-97458991D01*
X157447932Y-98023371D01*
X157849181Y-98425322D01*
X157449449Y-98824357D01*
X157215267Y-99388330D01*
X157214735Y-99998991D01*
X157447932Y-100563371D01*
X157849181Y-100965322D01*
X157449449Y-101364357D01*
X157215267Y-101928330D01*
X157214735Y-102538991D01*
X157447932Y-103103371D01*
X157849181Y-103505322D01*
X157449449Y-103904357D01*
X157215267Y-104468330D01*
X157214735Y-105078991D01*
X157447932Y-105643371D01*
X157849181Y-106045322D01*
X157449449Y-106444357D01*
X157215267Y-107008330D01*
X157214735Y-107618991D01*
X157447932Y-108183371D01*
X157849181Y-108585322D01*
X157449449Y-108984357D01*
X157404336Y-109093000D01*
X149316593Y-109093000D01*
X149339453Y-108979005D01*
X149377205Y-108971496D01*
X149624415Y-108806315D01*
X149789596Y-108559105D01*
X149847600Y-108267500D01*
X149847600Y-106507173D01*
X149918757Y-106615497D01*
X150129790Y-106757947D01*
X150379430Y-106808010D01*
X151880570Y-106808010D01*
X152122693Y-106761033D01*
X152301647Y-106643478D01*
X152457400Y-106799231D01*
X152457213Y-107014884D01*
X152621211Y-107411789D01*
X152924614Y-107715722D01*
X153321232Y-107880413D01*
X153750684Y-107880787D01*
X154147589Y-107716789D01*
X154451522Y-107413386D01*
X154616213Y-107016768D01*
X154616587Y-106587316D01*
X154452589Y-106190411D01*
X154149186Y-105886478D01*
X153752568Y-105721787D01*
X153535028Y-105721597D01*
X152974355Y-105160925D01*
X152965896Y-105118395D01*
X152800715Y-104871185D01*
X152610739Y-104744247D01*
X152777904Y-104710996D01*
X152777905Y-104710996D01*
X153025115Y-104545815D01*
X154557315Y-103013615D01*
X154722496Y-102766405D01*
X154722496Y-102766404D01*
X154780499Y-102474800D01*
X154780500Y-102474800D01*
X154780500Y-97969300D01*
X154722496Y-97677696D01*
X154722496Y-97677695D01*
X154656334Y-97578676D01*
X154557316Y-97430485D01*
X152522061Y-95395231D01*
X152528010Y-95365570D01*
X152528010Y-94078914D01*
X152528010Y-94078913D01*
X152613315Y-94021915D01*
X155088031Y-91547199D01*
X155303684Y-91547387D01*
X155700589Y-91383389D01*
X156004522Y-91079986D01*
X156169213Y-90683368D01*
X156169549Y-90297000D01*
X160528000Y-90297000D01*
X160528000Y-116713000D01*
M02*
