G04 #@! TF.FileFunction,Copper,L2,Bot,Signal*
%FSLAX46Y46*%
G04 Gerber Fmt 4.6, Leading zero omitted, Abs format (unit mm)*
G04 Created by KiCad (PCBNEW 0.201509251832+6217~30~ubuntu14.04.1-product) date lun 05 ott 2015 22:04:54 CEST*
%MOMM*%
G01*
G04 APERTURE LIST*
%ADD10C,0.100000*%
%ADD11C,1.800000*%
%ADD12R,1.498600X1.300480*%
%ADD13R,1.501140X1.501140*%
%ADD14R,1.198880X1.198880*%
%ADD15C,1.035000*%
%ADD16C,0.254000*%
%ADD17C,0.508000*%
G04 APERTURE END LIST*
D10*
D11*
X138430000Y-92075000D03*
X138430000Y-94615000D03*
X138430000Y-97155000D03*
X138430000Y-99695000D03*
X138430000Y-102235000D03*
X138430000Y-104775000D03*
X138430000Y-107315000D03*
X138430000Y-109855000D03*
X138430000Y-112395000D03*
X138430000Y-114935000D03*
X140970000Y-114935000D03*
X143510000Y-114935000D03*
X146050000Y-114935000D03*
X148590000Y-114935000D03*
X151130000Y-114935000D03*
X153670000Y-114935000D03*
X156210000Y-114935000D03*
X158750000Y-112395000D03*
X158750000Y-109855000D03*
X158750000Y-107315000D03*
X158750000Y-104775000D03*
X158750000Y-102235000D03*
X158750000Y-99695000D03*
X158750000Y-97155000D03*
X158750000Y-94615000D03*
X158750000Y-114935000D03*
X158750000Y-92075000D03*
D12*
X144780000Y-108267500D03*
X144780000Y-106362500D03*
X147955000Y-101282500D03*
X147955000Y-99377500D03*
X144780000Y-101282500D03*
X144780000Y-99377500D03*
D13*
X151130000Y-94615000D03*
D14*
X146050000Y-92930980D03*
X146050000Y-95029020D03*
D15*
X143829300Y-96176400D03*
X153085600Y-96288900D03*
X153060500Y-92471800D03*
D16*
X144780000Y-99377500D02*
X147955000Y-99377500D01*
X151447500Y-99377500D02*
X158750000Y-92075000D01*
X147955000Y-99377500D02*
X151447500Y-99377500D01*
X144780000Y-106362500D02*
X144780000Y-105231000D01*
X147955000Y-101282500D02*
X147955000Y-102414000D01*
X142936800Y-97068900D02*
X143829300Y-96176400D01*
X142936800Y-101590500D02*
X142936800Y-97068900D01*
X144660200Y-103313900D02*
X142936800Y-101590500D01*
X144780000Y-103313900D02*
X144660200Y-103313900D01*
X145679900Y-102414000D02*
X144780000Y-103313900D01*
X147955000Y-102414000D02*
X145679900Y-102414000D01*
X144780000Y-103313900D02*
X144780000Y-105231000D01*
X150488600Y-96288900D02*
X153085600Y-96288900D01*
X147130700Y-92931000D02*
X150488600Y-96288900D01*
X146050000Y-92931000D02*
X147130700Y-92931000D01*
X152149200Y-93383100D02*
X153060500Y-92471800D01*
X151130000Y-93383100D02*
X152149200Y-93383100D01*
X151130000Y-94615000D02*
X151130000Y-93383100D01*
X144780000Y-101282500D02*
X143549400Y-101282500D01*
X145954200Y-96109700D02*
X146050000Y-96109700D01*
X143549400Y-98514500D02*
X145954200Y-96109700D01*
X143549400Y-101282500D02*
X143549400Y-98514500D01*
X146050000Y-95029000D02*
X146050000Y-96109700D01*
X155257500Y-108267500D02*
X158750000Y-104775000D01*
X144780000Y-108267500D02*
X155257500Y-108267500D01*
D17*
G36*
X157863636Y-90629542D02*
X157753768Y-90702953D01*
X157686278Y-91010571D01*
X158496000Y-91820293D01*
X158496000Y-91821707D01*
X157685571Y-91011278D01*
X157377953Y-91078768D01*
X157101153Y-91679661D01*
X157075375Y-92340741D01*
X157304542Y-92961364D01*
X157377953Y-93071232D01*
X157685571Y-93138722D01*
X158496000Y-92328293D01*
X158496000Y-92329707D01*
X157686278Y-93139429D01*
X157753768Y-93447047D01*
X157775478Y-93457048D01*
X157472326Y-93759672D01*
X157242263Y-94313724D01*
X157241739Y-94913644D01*
X157470835Y-95468097D01*
X157887366Y-95885355D01*
X157472326Y-96299672D01*
X157242263Y-96853724D01*
X157241739Y-97453644D01*
X157470835Y-98008097D01*
X157887366Y-98425355D01*
X157472326Y-98839672D01*
X157242263Y-99393724D01*
X157241739Y-99993644D01*
X157470835Y-100548097D01*
X157887366Y-100965355D01*
X157472326Y-101379672D01*
X157242263Y-101933724D01*
X157241739Y-102533644D01*
X157470835Y-103088097D01*
X157887366Y-103505355D01*
X157472326Y-103919672D01*
X157242263Y-104473724D01*
X157241739Y-105073644D01*
X157291494Y-105194059D01*
X154953054Y-107532500D01*
X146133262Y-107532500D01*
X146106816Y-107391949D01*
X146057949Y-107316007D01*
X146100371Y-107253920D01*
X146149211Y-107012740D01*
X146149211Y-105712260D01*
X146106816Y-105486949D01*
X145973657Y-105280014D01*
X145770480Y-105141189D01*
X145529300Y-105092349D01*
X145515000Y-105092349D01*
X145515000Y-103618346D01*
X145984347Y-103149000D01*
X147955000Y-103149000D01*
X148236272Y-103093051D01*
X148474723Y-102933723D01*
X148634051Y-102695272D01*
X148662420Y-102552651D01*
X148704300Y-102552651D01*
X148929611Y-102510256D01*
X149136546Y-102377097D01*
X149275371Y-102173920D01*
X149324211Y-101932740D01*
X149324211Y-100632260D01*
X149301187Y-100509898D01*
X149351140Y-100459945D01*
X149467300Y-100179510D01*
X149467300Y-99568750D01*
X149276550Y-99378000D01*
X147955500Y-99378000D01*
X147955500Y-99398000D01*
X147954500Y-99398000D01*
X147954500Y-99378000D01*
X146633450Y-99378000D01*
X146442700Y-99568750D01*
X146442700Y-100179510D01*
X146558860Y-100459945D01*
X146610272Y-100511357D01*
X146585789Y-100632260D01*
X146585789Y-101679000D01*
X146149211Y-101679000D01*
X146149211Y-100632260D01*
X146126187Y-100509898D01*
X146176140Y-100459945D01*
X146292300Y-100179510D01*
X146292300Y-99568750D01*
X146101550Y-99378000D01*
X144780500Y-99378000D01*
X144780500Y-99398000D01*
X144779500Y-99398000D01*
X144779500Y-99378000D01*
X144759500Y-99378000D01*
X144759500Y-99377000D01*
X144779500Y-99377000D01*
X144779500Y-99357000D01*
X144780500Y-99357000D01*
X144780500Y-99377000D01*
X146101550Y-99377000D01*
X146292300Y-99186250D01*
X146292300Y-98575490D01*
X146442700Y-98575490D01*
X146442700Y-99186250D01*
X146633450Y-99377000D01*
X147954500Y-99377000D01*
X147954500Y-98155010D01*
X147955500Y-98155010D01*
X147955500Y-99377000D01*
X149276550Y-99377000D01*
X149467300Y-99186250D01*
X149467300Y-98575490D01*
X149351140Y-98295055D01*
X149136505Y-98080420D01*
X148856070Y-97964260D01*
X148146250Y-97964260D01*
X147955500Y-98155010D01*
X147954500Y-98155010D01*
X147763750Y-97964260D01*
X147053930Y-97964260D01*
X146773495Y-98080420D01*
X146558860Y-98295055D01*
X146442700Y-98575490D01*
X146292300Y-98575490D01*
X146176140Y-98295055D01*
X145961505Y-98080420D01*
X145681070Y-97964260D01*
X145139086Y-97964260D01*
X146310455Y-96792892D01*
X146331272Y-96788751D01*
X146569723Y-96629423D01*
X146729051Y-96390972D01*
X146761615Y-96227264D01*
X146874751Y-96205976D01*
X147081686Y-96072817D01*
X147220511Y-95869640D01*
X147269351Y-95628460D01*
X147269351Y-94429580D01*
X147226956Y-94204269D01*
X147093797Y-93997334D01*
X147070921Y-93981704D01*
X147081686Y-93974777D01*
X147103340Y-93943086D01*
X149968877Y-96808624D01*
X150207328Y-96967951D01*
X150488600Y-97023900D01*
X152229008Y-97023900D01*
X152447223Y-97242496D01*
X152860742Y-97414204D01*
X153308494Y-97414595D01*
X153722312Y-97243609D01*
X154039196Y-96927277D01*
X154210904Y-96513758D01*
X154211295Y-96066006D01*
X154040309Y-95652188D01*
X153723977Y-95335304D01*
X153310458Y-95163596D01*
X152862706Y-95163205D01*
X152500481Y-95312873D01*
X152500481Y-94015372D01*
X152668923Y-93902823D01*
X152974521Y-93597225D01*
X153283394Y-93597495D01*
X153697212Y-93426509D01*
X154014096Y-93110177D01*
X154185804Y-92696658D01*
X154186195Y-92248906D01*
X154015209Y-91835088D01*
X153698877Y-91518204D01*
X153285358Y-91346496D01*
X152837606Y-91346105D01*
X152423788Y-91517091D01*
X152106904Y-91833423D01*
X151935196Y-92246942D01*
X151934924Y-92557929D01*
X151844754Y-92648100D01*
X151130000Y-92648100D01*
X150848728Y-92704049D01*
X150610277Y-92863377D01*
X150450949Y-93101828D01*
X150422566Y-93244519D01*
X150379430Y-93244519D01*
X150154119Y-93286914D01*
X149947184Y-93420073D01*
X149808359Y-93623250D01*
X149759519Y-93864430D01*
X149759519Y-94520372D01*
X147650423Y-92411277D01*
X147411972Y-92251949D01*
X147386800Y-92246942D01*
X147248247Y-92219382D01*
X147226956Y-92106229D01*
X147093797Y-91899294D01*
X146890620Y-91760469D01*
X146649440Y-91711629D01*
X145450560Y-91711629D01*
X145225249Y-91754024D01*
X145018314Y-91887183D01*
X144879489Y-92090360D01*
X144830649Y-92331540D01*
X144830649Y-93530420D01*
X144873044Y-93755731D01*
X145006203Y-93962666D01*
X145029079Y-93978296D01*
X145018314Y-93985223D01*
X144879489Y-94188400D01*
X144830649Y-94429580D01*
X144830649Y-95628460D01*
X144838977Y-95672722D01*
X144784009Y-95539688D01*
X144467677Y-95222804D01*
X144054158Y-95051096D01*
X143606406Y-95050705D01*
X143192588Y-95221691D01*
X142875704Y-95538023D01*
X142703996Y-95951542D01*
X142703724Y-96262529D01*
X142417077Y-96549177D01*
X142257749Y-96787628D01*
X142201800Y-97068900D01*
X142201800Y-101590500D01*
X142230533Y-101734949D01*
X142257749Y-101871772D01*
X142417077Y-102110223D01*
X144045000Y-103738147D01*
X144045000Y-105092349D01*
X144030700Y-105092349D01*
X143805389Y-105134744D01*
X143598454Y-105267903D01*
X143459629Y-105471080D01*
X143410789Y-105712260D01*
X143410789Y-107012740D01*
X143453184Y-107238051D01*
X143502051Y-107313993D01*
X143459629Y-107376080D01*
X143410789Y-107617260D01*
X143410789Y-108917740D01*
X143453184Y-109143051D01*
X143586343Y-109349986D01*
X143789520Y-109488811D01*
X144030700Y-109537651D01*
X145529300Y-109537651D01*
X145754611Y-109495256D01*
X145961546Y-109362097D01*
X146100371Y-109158920D01*
X146132047Y-109002500D01*
X155257500Y-109002500D01*
X155538772Y-108946551D01*
X155777223Y-108787223D01*
X157241993Y-107322453D01*
X157241739Y-107613644D01*
X157470835Y-108168097D01*
X157887366Y-108585355D01*
X157472326Y-108999672D01*
X157242263Y-109553724D01*
X157241739Y-110153644D01*
X157470835Y-110708097D01*
X157887366Y-111125355D01*
X157472326Y-111539672D01*
X157242263Y-112093724D01*
X157241739Y-112693644D01*
X157470835Y-113248097D01*
X157887366Y-113665355D01*
X157479645Y-114072366D01*
X157065328Y-113657326D01*
X156511276Y-113427263D01*
X155911356Y-113426739D01*
X155356903Y-113655835D01*
X154939645Y-114072366D01*
X154525328Y-113657326D01*
X153971276Y-113427263D01*
X153371356Y-113426739D01*
X152816903Y-113655835D01*
X152399645Y-114072366D01*
X151985328Y-113657326D01*
X151431276Y-113427263D01*
X150831356Y-113426739D01*
X150276903Y-113655835D01*
X149859645Y-114072366D01*
X149445328Y-113657326D01*
X148891276Y-113427263D01*
X148291356Y-113426739D01*
X147736903Y-113655835D01*
X147319645Y-114072366D01*
X146905328Y-113657326D01*
X146351276Y-113427263D01*
X145751356Y-113426739D01*
X145196903Y-113655835D01*
X144779645Y-114072366D01*
X144365328Y-113657326D01*
X143811276Y-113427263D01*
X143211356Y-113426739D01*
X142656903Y-113655835D01*
X142239645Y-114072366D01*
X141825328Y-113657326D01*
X141271276Y-113427263D01*
X140671356Y-113426739D01*
X140116903Y-113655835D01*
X139699645Y-114072366D01*
X139292634Y-113664645D01*
X139707674Y-113250328D01*
X139937737Y-112696276D01*
X139938261Y-112096356D01*
X139709165Y-111541903D01*
X139292634Y-111124645D01*
X139707674Y-110710328D01*
X139937737Y-110156276D01*
X139938261Y-109556356D01*
X139709165Y-109001903D01*
X139292634Y-108584645D01*
X139707674Y-108170328D01*
X139937737Y-107616276D01*
X139938261Y-107016356D01*
X139709165Y-106461903D01*
X139292634Y-106044645D01*
X139707674Y-105630328D01*
X139937737Y-105076276D01*
X139938261Y-104476356D01*
X139709165Y-103921903D01*
X139292634Y-103504645D01*
X139707674Y-103090328D01*
X139937737Y-102536276D01*
X139938261Y-101936356D01*
X139709165Y-101381903D01*
X139292634Y-100964645D01*
X139707674Y-100550328D01*
X139937737Y-99996276D01*
X139938261Y-99396356D01*
X139709165Y-98841903D01*
X139292634Y-98424645D01*
X139707674Y-98010328D01*
X139937737Y-97456276D01*
X139938261Y-96856356D01*
X139709165Y-96301903D01*
X139292634Y-95884645D01*
X139707674Y-95470328D01*
X139937737Y-94916276D01*
X139938261Y-94316356D01*
X139709165Y-93761903D01*
X139292634Y-93344645D01*
X139707674Y-92930328D01*
X139937737Y-92376276D01*
X139938261Y-91776356D01*
X139709165Y-91221903D01*
X139285328Y-90797326D01*
X138731276Y-90567263D01*
X138684000Y-90567222D01*
X138684000Y-90424000D01*
X158420279Y-90424000D01*
X157863636Y-90629542D01*
X157863636Y-90629542D01*
G37*
X157863636Y-90629542D02*
X157753768Y-90702953D01*
X157686278Y-91010571D01*
X158496000Y-91820293D01*
X158496000Y-91821707D01*
X157685571Y-91011278D01*
X157377953Y-91078768D01*
X157101153Y-91679661D01*
X157075375Y-92340741D01*
X157304542Y-92961364D01*
X157377953Y-93071232D01*
X157685571Y-93138722D01*
X158496000Y-92328293D01*
X158496000Y-92329707D01*
X157686278Y-93139429D01*
X157753768Y-93447047D01*
X157775478Y-93457048D01*
X157472326Y-93759672D01*
X157242263Y-94313724D01*
X157241739Y-94913644D01*
X157470835Y-95468097D01*
X157887366Y-95885355D01*
X157472326Y-96299672D01*
X157242263Y-96853724D01*
X157241739Y-97453644D01*
X157470835Y-98008097D01*
X157887366Y-98425355D01*
X157472326Y-98839672D01*
X157242263Y-99393724D01*
X157241739Y-99993644D01*
X157470835Y-100548097D01*
X157887366Y-100965355D01*
X157472326Y-101379672D01*
X157242263Y-101933724D01*
X157241739Y-102533644D01*
X157470835Y-103088097D01*
X157887366Y-103505355D01*
X157472326Y-103919672D01*
X157242263Y-104473724D01*
X157241739Y-105073644D01*
X157291494Y-105194059D01*
X154953054Y-107532500D01*
X146133262Y-107532500D01*
X146106816Y-107391949D01*
X146057949Y-107316007D01*
X146100371Y-107253920D01*
X146149211Y-107012740D01*
X146149211Y-105712260D01*
X146106816Y-105486949D01*
X145973657Y-105280014D01*
X145770480Y-105141189D01*
X145529300Y-105092349D01*
X145515000Y-105092349D01*
X145515000Y-103618346D01*
X145984347Y-103149000D01*
X147955000Y-103149000D01*
X148236272Y-103093051D01*
X148474723Y-102933723D01*
X148634051Y-102695272D01*
X148662420Y-102552651D01*
X148704300Y-102552651D01*
X148929611Y-102510256D01*
X149136546Y-102377097D01*
X149275371Y-102173920D01*
X149324211Y-101932740D01*
X149324211Y-100632260D01*
X149301187Y-100509898D01*
X149351140Y-100459945D01*
X149467300Y-100179510D01*
X149467300Y-99568750D01*
X149276550Y-99378000D01*
X147955500Y-99378000D01*
X147955500Y-99398000D01*
X147954500Y-99398000D01*
X147954500Y-99378000D01*
X146633450Y-99378000D01*
X146442700Y-99568750D01*
X146442700Y-100179510D01*
X146558860Y-100459945D01*
X146610272Y-100511357D01*
X146585789Y-100632260D01*
X146585789Y-101679000D01*
X146149211Y-101679000D01*
X146149211Y-100632260D01*
X146126187Y-100509898D01*
X146176140Y-100459945D01*
X146292300Y-100179510D01*
X146292300Y-99568750D01*
X146101550Y-99378000D01*
X144780500Y-99378000D01*
X144780500Y-99398000D01*
X144779500Y-99398000D01*
X144779500Y-99378000D01*
X144759500Y-99378000D01*
X144759500Y-99377000D01*
X144779500Y-99377000D01*
X144779500Y-99357000D01*
X144780500Y-99357000D01*
X144780500Y-99377000D01*
X146101550Y-99377000D01*
X146292300Y-99186250D01*
X146292300Y-98575490D01*
X146442700Y-98575490D01*
X146442700Y-99186250D01*
X146633450Y-99377000D01*
X147954500Y-99377000D01*
X147954500Y-98155010D01*
X147955500Y-98155010D01*
X147955500Y-99377000D01*
X149276550Y-99377000D01*
X149467300Y-99186250D01*
X149467300Y-98575490D01*
X149351140Y-98295055D01*
X149136505Y-98080420D01*
X148856070Y-97964260D01*
X148146250Y-97964260D01*
X147955500Y-98155010D01*
X147954500Y-98155010D01*
X147763750Y-97964260D01*
X147053930Y-97964260D01*
X146773495Y-98080420D01*
X146558860Y-98295055D01*
X146442700Y-98575490D01*
X146292300Y-98575490D01*
X146176140Y-98295055D01*
X145961505Y-98080420D01*
X145681070Y-97964260D01*
X145139086Y-97964260D01*
X146310455Y-96792892D01*
X146331272Y-96788751D01*
X146569723Y-96629423D01*
X146729051Y-96390972D01*
X146761615Y-96227264D01*
X146874751Y-96205976D01*
X147081686Y-96072817D01*
X147220511Y-95869640D01*
X147269351Y-95628460D01*
X147269351Y-94429580D01*
X147226956Y-94204269D01*
X147093797Y-93997334D01*
X147070921Y-93981704D01*
X147081686Y-93974777D01*
X147103340Y-93943086D01*
X149968877Y-96808624D01*
X150207328Y-96967951D01*
X150488600Y-97023900D01*
X152229008Y-97023900D01*
X152447223Y-97242496D01*
X152860742Y-97414204D01*
X153308494Y-97414595D01*
X153722312Y-97243609D01*
X154039196Y-96927277D01*
X154210904Y-96513758D01*
X154211295Y-96066006D01*
X154040309Y-95652188D01*
X153723977Y-95335304D01*
X153310458Y-95163596D01*
X152862706Y-95163205D01*
X152500481Y-95312873D01*
X152500481Y-94015372D01*
X152668923Y-93902823D01*
X152974521Y-93597225D01*
X153283394Y-93597495D01*
X153697212Y-93426509D01*
X154014096Y-93110177D01*
X154185804Y-92696658D01*
X154186195Y-92248906D01*
X154015209Y-91835088D01*
X153698877Y-91518204D01*
X153285358Y-91346496D01*
X152837606Y-91346105D01*
X152423788Y-91517091D01*
X152106904Y-91833423D01*
X151935196Y-92246942D01*
X151934924Y-92557929D01*
X151844754Y-92648100D01*
X151130000Y-92648100D01*
X150848728Y-92704049D01*
X150610277Y-92863377D01*
X150450949Y-93101828D01*
X150422566Y-93244519D01*
X150379430Y-93244519D01*
X150154119Y-93286914D01*
X149947184Y-93420073D01*
X149808359Y-93623250D01*
X149759519Y-93864430D01*
X149759519Y-94520372D01*
X147650423Y-92411277D01*
X147411972Y-92251949D01*
X147386800Y-92246942D01*
X147248247Y-92219382D01*
X147226956Y-92106229D01*
X147093797Y-91899294D01*
X146890620Y-91760469D01*
X146649440Y-91711629D01*
X145450560Y-91711629D01*
X145225249Y-91754024D01*
X145018314Y-91887183D01*
X144879489Y-92090360D01*
X144830649Y-92331540D01*
X144830649Y-93530420D01*
X144873044Y-93755731D01*
X145006203Y-93962666D01*
X145029079Y-93978296D01*
X145018314Y-93985223D01*
X144879489Y-94188400D01*
X144830649Y-94429580D01*
X144830649Y-95628460D01*
X144838977Y-95672722D01*
X144784009Y-95539688D01*
X144467677Y-95222804D01*
X144054158Y-95051096D01*
X143606406Y-95050705D01*
X143192588Y-95221691D01*
X142875704Y-95538023D01*
X142703996Y-95951542D01*
X142703724Y-96262529D01*
X142417077Y-96549177D01*
X142257749Y-96787628D01*
X142201800Y-97068900D01*
X142201800Y-101590500D01*
X142230533Y-101734949D01*
X142257749Y-101871772D01*
X142417077Y-102110223D01*
X144045000Y-103738147D01*
X144045000Y-105092349D01*
X144030700Y-105092349D01*
X143805389Y-105134744D01*
X143598454Y-105267903D01*
X143459629Y-105471080D01*
X143410789Y-105712260D01*
X143410789Y-107012740D01*
X143453184Y-107238051D01*
X143502051Y-107313993D01*
X143459629Y-107376080D01*
X143410789Y-107617260D01*
X143410789Y-108917740D01*
X143453184Y-109143051D01*
X143586343Y-109349986D01*
X143789520Y-109488811D01*
X144030700Y-109537651D01*
X145529300Y-109537651D01*
X145754611Y-109495256D01*
X145961546Y-109362097D01*
X146100371Y-109158920D01*
X146132047Y-109002500D01*
X155257500Y-109002500D01*
X155538772Y-108946551D01*
X155777223Y-108787223D01*
X157241993Y-107322453D01*
X157241739Y-107613644D01*
X157470835Y-108168097D01*
X157887366Y-108585355D01*
X157472326Y-108999672D01*
X157242263Y-109553724D01*
X157241739Y-110153644D01*
X157470835Y-110708097D01*
X157887366Y-111125355D01*
X157472326Y-111539672D01*
X157242263Y-112093724D01*
X157241739Y-112693644D01*
X157470835Y-113248097D01*
X157887366Y-113665355D01*
X157479645Y-114072366D01*
X157065328Y-113657326D01*
X156511276Y-113427263D01*
X155911356Y-113426739D01*
X155356903Y-113655835D01*
X154939645Y-114072366D01*
X154525328Y-113657326D01*
X153971276Y-113427263D01*
X153371356Y-113426739D01*
X152816903Y-113655835D01*
X152399645Y-114072366D01*
X151985328Y-113657326D01*
X151431276Y-113427263D01*
X150831356Y-113426739D01*
X150276903Y-113655835D01*
X149859645Y-114072366D01*
X149445328Y-113657326D01*
X148891276Y-113427263D01*
X148291356Y-113426739D01*
X147736903Y-113655835D01*
X147319645Y-114072366D01*
X146905328Y-113657326D01*
X146351276Y-113427263D01*
X145751356Y-113426739D01*
X145196903Y-113655835D01*
X144779645Y-114072366D01*
X144365328Y-113657326D01*
X143811276Y-113427263D01*
X143211356Y-113426739D01*
X142656903Y-113655835D01*
X142239645Y-114072366D01*
X141825328Y-113657326D01*
X141271276Y-113427263D01*
X140671356Y-113426739D01*
X140116903Y-113655835D01*
X139699645Y-114072366D01*
X139292634Y-113664645D01*
X139707674Y-113250328D01*
X139937737Y-112696276D01*
X139938261Y-112096356D01*
X139709165Y-111541903D01*
X139292634Y-111124645D01*
X139707674Y-110710328D01*
X139937737Y-110156276D01*
X139938261Y-109556356D01*
X139709165Y-109001903D01*
X139292634Y-108584645D01*
X139707674Y-108170328D01*
X139937737Y-107616276D01*
X139938261Y-107016356D01*
X139709165Y-106461903D01*
X139292634Y-106044645D01*
X139707674Y-105630328D01*
X139937737Y-105076276D01*
X139938261Y-104476356D01*
X139709165Y-103921903D01*
X139292634Y-103504645D01*
X139707674Y-103090328D01*
X139937737Y-102536276D01*
X139938261Y-101936356D01*
X139709165Y-101381903D01*
X139292634Y-100964645D01*
X139707674Y-100550328D01*
X139937737Y-99996276D01*
X139938261Y-99396356D01*
X139709165Y-98841903D01*
X139292634Y-98424645D01*
X139707674Y-98010328D01*
X139937737Y-97456276D01*
X139938261Y-96856356D01*
X139709165Y-96301903D01*
X139292634Y-95884645D01*
X139707674Y-95470328D01*
X139937737Y-94916276D01*
X139938261Y-94316356D01*
X139709165Y-93761903D01*
X139292634Y-93344645D01*
X139707674Y-92930328D01*
X139937737Y-92376276D01*
X139938261Y-91776356D01*
X139709165Y-91221903D01*
X139285328Y-90797326D01*
X138731276Y-90567263D01*
X138684000Y-90567222D01*
X138684000Y-90424000D01*
X158420279Y-90424000D01*
X157863636Y-90629542D01*
M02*
