G04 #@! TF.FileFunction,Paste,Top*
%FSLAX46Y46*%
G04 Gerber Fmt 4.6, Leading zero omitted, Abs format (unit mm)*
G04 Created by KiCad (PCBNEW (2014-12-03 BZR 5311)-product) date Mon 23 Mar 2015 17:57:30 UTC*
%MOMM*%
G01*
G04 APERTURE LIST*
%ADD10C,0.100000*%
%ADD11R,1.699260X1.198880*%
%ADD12R,1.198880X1.597660*%
%ADD13R,1.198880X1.699260*%
%ADD14R,1.500000X1.500000*%
%ADD15R,1.300000X1.500000*%
%ADD16R,1.198880X1.198880*%
G04 APERTURE END LIST*
D10*
D11*
X142090140Y-106789220D03*
X142090140Y-108290360D03*
X142090140Y-109788960D03*
X142090140Y-105290620D03*
X142090140Y-103789480D03*
X142090140Y-102290880D03*
X142090140Y-100789740D03*
X142090140Y-99291140D03*
X142090140Y-97790000D03*
X142090140Y-96288860D03*
X142090140Y-94790260D03*
X142090140Y-93289120D03*
X142090140Y-91790520D03*
D12*
X143339820Y-111485680D03*
D13*
X144843500Y-111439960D03*
X146342100Y-111439960D03*
X147840700Y-111439960D03*
X149339300Y-111439960D03*
X150837900Y-111439960D03*
X152336500Y-111439960D03*
D12*
X153835100Y-111488220D03*
D11*
X155089860Y-109788960D03*
X155089860Y-108290360D03*
X155089860Y-106786680D03*
X155089860Y-105290620D03*
X155089860Y-103789480D03*
X155089860Y-102290880D03*
X155089860Y-100789740D03*
X155089860Y-99291140D03*
X155089860Y-97790000D03*
X155089860Y-96288860D03*
X155089860Y-94790260D03*
X155089860Y-93289120D03*
X155089860Y-91790520D03*
D14*
X151130000Y-92075000D03*
X151130000Y-94615000D03*
X151130000Y-105410000D03*
X151130000Y-100330000D03*
X151130000Y-102870000D03*
D15*
X144780000Y-108665000D03*
X144780000Y-105965000D03*
X147955000Y-101680000D03*
X147955000Y-98980000D03*
X144780000Y-101680000D03*
X144780000Y-98980000D03*
X147955000Y-108665000D03*
X147955000Y-105965000D03*
D16*
X146050000Y-95029020D03*
X146050000Y-92930980D03*
D14*
X151130000Y-97155000D03*
M02*
