G04 #@! TF.FileFunction,Copper,L1,Top,Signal*
%FSLAX46Y46*%
G04 Gerber Fmt 4.6, Leading zero omitted, Abs format (unit mm)*
G04 Created by KiCad (PCBNEW 4.0.6) date 12/07/17 07:37:44*
%MOMM*%
%LPD*%
G01*
G04 APERTURE LIST*
%ADD10C,0.100000*%
%ADD11C,2.100000*%
%ADD12R,0.650000X0.400000*%
%ADD13R,1.300000X0.700000*%
%ADD14R,0.700000X1.300000*%
%ADD15R,0.650000X1.060000*%
%ADD16R,1.250000X1.000000*%
%ADD17R,1.000000X1.250000*%
%ADD18R,2.000000X1.500000*%
%ADD19R,1.950000X2.500000*%
%ADD20C,1.000000*%
%ADD21C,0.750000*%
%ADD22C,0.500000*%
%ADD23C,1.000000*%
%ADD24C,0.250000*%
%ADD25C,0.400000*%
G04 APERTURE END LIST*
D10*
D11*
X157761000Y-67845000D03*
X155221000Y-67845000D03*
X152681000Y-67845000D03*
X150141000Y-67845000D03*
X147601000Y-67845000D03*
X145061000Y-67845000D03*
D12*
X144401000Y-73505000D03*
X144401000Y-74805000D03*
X146301000Y-74155000D03*
X144401000Y-74155000D03*
X146301000Y-74805000D03*
X146301000Y-73505000D03*
D11*
X161571000Y-67845000D03*
X161571000Y-70385000D03*
X161571000Y-72925000D03*
X161571000Y-75465000D03*
X161571000Y-78005000D03*
X161571000Y-80545000D03*
X161571000Y-83085000D03*
X161571000Y-85625000D03*
X161571000Y-88165000D03*
X161571000Y-65305000D03*
X159031000Y-65305000D03*
X156491000Y-65305000D03*
X153951000Y-65305000D03*
X151411000Y-65305000D03*
X148871000Y-65305000D03*
X146331000Y-65305000D03*
X143791000Y-65305000D03*
X141251000Y-65305000D03*
X141251000Y-67845000D03*
X141251000Y-70385000D03*
X141251000Y-72925000D03*
X141251000Y-75465000D03*
X141251000Y-78005000D03*
X141251000Y-80545000D03*
X141251000Y-83085000D03*
X141251000Y-85625000D03*
X141251000Y-88165000D03*
D13*
X147411000Y-83675000D03*
X147411000Y-85575000D03*
X147411000Y-86925000D03*
X147411000Y-88825000D03*
D14*
X147611000Y-76865000D03*
X149511000Y-76865000D03*
D13*
X151471000Y-72855000D03*
X151471000Y-70955000D03*
X148891000Y-72845000D03*
X148891000Y-70945000D03*
D15*
X149621000Y-88635000D03*
X150571000Y-88635000D03*
X151521000Y-88635000D03*
X151521000Y-86435000D03*
X149621000Y-86435000D03*
D16*
X157761000Y-86865000D03*
X157761000Y-88865000D03*
X155451000Y-86865000D03*
X155451000Y-88865000D03*
D17*
X155441000Y-80025000D03*
X153441000Y-80025000D03*
D14*
X151071000Y-83975000D03*
X149171000Y-83975000D03*
D18*
X154431000Y-85115000D03*
X154431000Y-82315000D03*
D16*
X151351000Y-81525000D03*
X151351000Y-79525000D03*
X149131000Y-81525000D03*
X149131000Y-79525000D03*
D19*
X158536000Y-76975000D03*
X155486000Y-76975000D03*
X158546000Y-72675000D03*
X155496000Y-72675000D03*
D17*
X146331000Y-70925000D03*
X144331000Y-70925000D03*
D20*
X157701000Y-90035000D03*
X152801000Y-77895000D03*
X146461000Y-76865000D03*
X150781000Y-75105000D03*
X152961000Y-70555000D03*
X146421000Y-69405000D03*
X152621000Y-88635000D03*
X154061000Y-86625000D03*
D21*
X157761000Y-86865000D02*
X159301000Y-86865000D01*
X159301000Y-86865000D02*
X160601000Y-88165000D01*
X160601000Y-88165000D02*
X161571000Y-88165000D01*
X155451000Y-86865000D02*
X157761000Y-86865000D01*
D22*
X151521000Y-86435000D02*
X151521000Y-86615000D01*
X151521000Y-86615000D02*
X150611000Y-87525000D01*
X149621000Y-87835000D02*
X149621000Y-88635000D01*
X149931000Y-87525000D02*
X149621000Y-87835000D01*
X150611000Y-87525000D02*
X149931000Y-87525000D01*
D21*
X151521000Y-86435000D02*
X152271000Y-86435000D01*
X154601000Y-87715000D02*
X155451000Y-86865000D01*
X153551000Y-87715000D02*
X154601000Y-87715000D01*
X152271000Y-86435000D02*
X153551000Y-87715000D01*
X160601000Y-88165000D02*
X161571000Y-88165000D01*
X160601000Y-88165000D02*
X161571000Y-88165000D01*
D22*
X157761000Y-89975000D02*
X157761000Y-88865000D01*
X157701000Y-90035000D02*
X157761000Y-89975000D01*
D23*
X151351000Y-79525000D02*
X152941000Y-79525000D01*
X152941000Y-79525000D02*
X153441000Y-80025000D01*
D24*
X153441000Y-78535000D02*
X153441000Y-80025000D01*
D22*
X152801000Y-77895000D02*
X153441000Y-78535000D01*
X153441000Y-80025000D02*
X153441000Y-79015000D01*
X153441000Y-79015000D02*
X155481000Y-76975000D01*
X155481000Y-76975000D02*
X155486000Y-76975000D01*
D23*
X153441000Y-79015000D02*
X155486000Y-76975000D01*
D22*
X153441000Y-80025000D02*
X153271000Y-80025000D01*
D25*
X155451000Y-88865000D02*
X155451000Y-89575000D01*
X155451000Y-89575000D02*
X155031000Y-89995000D01*
X148581000Y-89995000D02*
X147411000Y-88825000D01*
X155031000Y-89995000D02*
X148581000Y-89995000D01*
X147411000Y-88825000D02*
X143691000Y-88825000D01*
X143691000Y-88825000D02*
X143031000Y-88165000D01*
X143031000Y-88165000D02*
X141251000Y-88165000D01*
D23*
X155451000Y-88865000D02*
X157761000Y-88865000D01*
X154821000Y-90025000D02*
X155001000Y-90025000D01*
X150571000Y-90025000D02*
X154821000Y-90025000D01*
X155001000Y-90025000D02*
X155451000Y-89575000D01*
X145631000Y-81135000D02*
X145741000Y-81135000D01*
X145741000Y-81135000D02*
X147351000Y-79525000D01*
X144821000Y-79525000D02*
X144821000Y-87765000D01*
X144151000Y-87295000D02*
X144151000Y-79525000D01*
X144631000Y-87775000D02*
X144151000Y-87295000D01*
X144631000Y-87575000D02*
X144631000Y-87775000D01*
X144821000Y-87765000D02*
X144631000Y-87575000D01*
X143511000Y-79525000D02*
X143511000Y-79525000D01*
X143511000Y-79525000D02*
X143511000Y-87815000D01*
X145631000Y-79525000D02*
X144821000Y-79525000D01*
X144151000Y-79525000D02*
X143511000Y-79525000D01*
X149131000Y-79525000D02*
X147351000Y-79525000D01*
X147351000Y-79525000D02*
X145631000Y-79525000D01*
X145631000Y-88315000D02*
X145631000Y-81135000D01*
X145631000Y-81135000D02*
X145631000Y-79525000D01*
X145591000Y-88355000D02*
X145631000Y-88315000D01*
X144051000Y-88355000D02*
X145591000Y-88355000D01*
X143511000Y-87815000D02*
X144051000Y-88355000D01*
D22*
X150571000Y-88635000D02*
X150571000Y-90025000D01*
D23*
X147411000Y-88825000D02*
X147491000Y-88825000D01*
X147491000Y-88825000D02*
X148691000Y-90025000D01*
X148691000Y-90025000D02*
X150571000Y-90025000D01*
X147411000Y-88825000D02*
X143691000Y-88825000D01*
X143691000Y-88825000D02*
X143031000Y-88165000D01*
X143031000Y-88165000D02*
X141251000Y-88165000D01*
X153391000Y-79525000D02*
X153441000Y-79475000D01*
X153441000Y-79475000D02*
X153441000Y-80025000D01*
X149131000Y-79525000D02*
X151351000Y-79525000D01*
X155496000Y-72675000D02*
X155486000Y-76975000D01*
D22*
X143031000Y-88165000D02*
X143031000Y-81095000D01*
X143031000Y-81095000D02*
X143031000Y-80425000D01*
D21*
X141251000Y-88165000D02*
X143031000Y-88165000D01*
D25*
X144401000Y-74155000D02*
X143031000Y-74155000D01*
D22*
X143031000Y-72425000D02*
X143031000Y-72235000D01*
X143031000Y-74155000D02*
X143031000Y-72425000D01*
X143031000Y-80425000D02*
X143031000Y-74155000D01*
X143031000Y-72235000D02*
X144341000Y-70925000D01*
D23*
X157761000Y-67845000D02*
X157761000Y-67875000D01*
X157761000Y-67875000D02*
X158546000Y-68660000D01*
X158546000Y-68660000D02*
X158546000Y-72675000D01*
D22*
X151071000Y-83975000D02*
X151071000Y-83385000D01*
X151071000Y-83385000D02*
X152141000Y-82315000D01*
D23*
X149131000Y-81525000D02*
X151351000Y-81525000D01*
X151351000Y-81525000D02*
X152141000Y-82315000D01*
X152141000Y-82315000D02*
X154431000Y-82315000D01*
X155441000Y-80025000D02*
X155441000Y-82315000D01*
X155441000Y-82315000D02*
X155441000Y-82335000D01*
X155441000Y-82335000D02*
X155441000Y-82315000D01*
X154431000Y-82315000D02*
X155441000Y-82315000D01*
X155441000Y-82315000D02*
X156521000Y-82315000D01*
X158541000Y-80295000D02*
X158536000Y-76975000D01*
X156521000Y-82315000D02*
X158541000Y-80295000D01*
X158546000Y-72675000D02*
X158536000Y-76975000D01*
X158136000Y-68220000D02*
X157761000Y-67845000D01*
D25*
X144401000Y-74805000D02*
X144401000Y-75855000D01*
X145411000Y-76865000D02*
X146461000Y-76865000D01*
X146461000Y-76865000D02*
X147611000Y-76865000D01*
X144401000Y-75855000D02*
X145411000Y-76865000D01*
D22*
X150786000Y-75100000D02*
X150781000Y-75105000D01*
X151471000Y-72855000D02*
X151471000Y-74415000D01*
X150786000Y-75100000D02*
X151471000Y-74415000D01*
X150781000Y-75105000D02*
X150011000Y-75105000D01*
X150011000Y-75105000D02*
X148431000Y-75105000D01*
D25*
X148431000Y-75105000D02*
X147491000Y-75105000D01*
X147191000Y-74805000D02*
X146301000Y-74805000D01*
X147491000Y-75105000D02*
X147191000Y-74805000D01*
D22*
X152291000Y-71905000D02*
X152291000Y-71885000D01*
X149641000Y-71905000D02*
X152291000Y-71905000D01*
X148891000Y-72655000D02*
X149641000Y-71905000D01*
X152961000Y-71215000D02*
X152961000Y-70555000D01*
X152291000Y-71885000D02*
X152961000Y-71215000D01*
X152961000Y-70555000D02*
X152961000Y-70785000D01*
D25*
X148891000Y-72845000D02*
X148891000Y-73345000D01*
X148081000Y-74155000D02*
X146301000Y-74155000D01*
X148081000Y-74155000D02*
X148891000Y-73345000D01*
D22*
X146341000Y-70925000D02*
X146341000Y-70015000D01*
D25*
X146301000Y-70965000D02*
X146341000Y-70925000D01*
D22*
X146341000Y-70015000D02*
X146076000Y-69750000D01*
X146421000Y-69405000D02*
X146076000Y-69750000D01*
X146076000Y-69770000D02*
X146076000Y-69750000D01*
D25*
X146301000Y-73505000D02*
X146301000Y-70965000D01*
D22*
X145061000Y-68755000D02*
X146076000Y-69770000D01*
X145061000Y-67845000D02*
X145061000Y-68755000D01*
X153041000Y-72215000D02*
X153051000Y-72215000D01*
X151661000Y-76865000D02*
X153041000Y-75485000D01*
X153041000Y-75485000D02*
X153041000Y-72215000D01*
X154101000Y-70595000D02*
X154101000Y-69265000D01*
X152681000Y-67845000D02*
X154101000Y-69265000D01*
X151661000Y-76865000D02*
X149511000Y-76865000D01*
X154101000Y-71165000D02*
X154101000Y-70595000D01*
X153051000Y-72215000D02*
X154101000Y-71165000D01*
X151471000Y-70955000D02*
X151471000Y-69585000D01*
X151471000Y-69585000D02*
X150141000Y-68255000D01*
X150141000Y-67845000D02*
X150141000Y-68255000D01*
X148891000Y-70945000D02*
X148891000Y-69665000D01*
X148891000Y-69665000D02*
X147601000Y-68375000D01*
X147601000Y-67845000D02*
X147601000Y-68375000D01*
D21*
X151941000Y-88635000D02*
X152621000Y-88635000D01*
D22*
X151521000Y-88635000D02*
X151941000Y-88635000D01*
D21*
X154061000Y-85165000D02*
X154061000Y-86625000D01*
X154061000Y-86625000D02*
X154051000Y-86625000D01*
X154431000Y-85115000D02*
X154111000Y-85115000D01*
X154111000Y-85115000D02*
X154061000Y-85165000D01*
D22*
X149621000Y-86435000D02*
X147411000Y-86435000D01*
X147411000Y-86925000D02*
X147411000Y-86435000D01*
X147411000Y-86435000D02*
X147411000Y-85575000D01*
X147411000Y-83675000D02*
X148181000Y-83675000D01*
X148481000Y-83975000D02*
X149171000Y-83975000D01*
X148181000Y-83675000D02*
X148481000Y-83975000D01*
M02*
