G04 #@! TF.FileFunction,Soldermask,Bot*
%FSLAX46Y46*%
G04 Gerber Fmt 4.6, Leading zero omitted, Abs format (unit mm)*
G04 Created by KiCad (PCBNEW 4.0.6) date 12/07/17 07:37:45*
%MOMM*%
%LPD*%
G01*
G04 APERTURE LIST*
%ADD10C,0.100000*%
%ADD11R,2.000000X2.200000*%
%ADD12R,2.600000X3.200000*%
%ADD13C,2.500000*%
G04 APERTURE END LIST*
D10*
D11*
X155331000Y-71945000D03*
X152791000Y-71945000D03*
X150251000Y-71945000D03*
X155331000Y-85045000D03*
X152791000Y-85045000D03*
X150251000Y-85045000D03*
D12*
X158781000Y-75245000D03*
X158781000Y-79245000D03*
X144081000Y-79245000D03*
X144081000Y-75245000D03*
D13*
X157761000Y-67845000D03*
X155221000Y-67845000D03*
X152681000Y-67845000D03*
X150141000Y-67845000D03*
X147601000Y-67845000D03*
X145061000Y-67845000D03*
X161571000Y-67845000D03*
X161571000Y-70385000D03*
X161571000Y-72925000D03*
X161571000Y-75465000D03*
X161571000Y-78005000D03*
X161571000Y-80545000D03*
X161571000Y-83085000D03*
X161571000Y-85625000D03*
X161571000Y-88165000D03*
X161571000Y-65305000D03*
X159031000Y-65305000D03*
X156491000Y-65305000D03*
X153951000Y-65305000D03*
X151411000Y-65305000D03*
X148871000Y-65305000D03*
X146331000Y-65305000D03*
X143791000Y-65305000D03*
X141251000Y-65305000D03*
X141251000Y-67845000D03*
X141251000Y-70385000D03*
X141251000Y-72925000D03*
X141251000Y-75465000D03*
X141251000Y-78005000D03*
X141251000Y-80545000D03*
X141251000Y-83085000D03*
X141251000Y-85625000D03*
X141251000Y-88165000D03*
M02*
