G04 #@! TF.FileFunction,Legend,Bot*
%FSLAX46Y46*%
G04 Gerber Fmt 4.6, Leading zero omitted, Abs format (unit mm)*
G04 Created by KiCad (PCBNEW 4.0.6) date 12/07/17 07:37:45*
%MOMM*%
%LPD*%
G01*
G04 APERTURE LIST*
%ADD10C,0.100000*%
%ADD11C,0.120000*%
%ADD12C,0.150000*%
G04 APERTURE END LIST*
D10*
X147331000Y-94695000D02*
X143531000Y-90885000D01*
X143531000Y-90885000D02*
X143531000Y-70045000D01*
X159331000Y-70045000D02*
X143531000Y-70045000D01*
X159331000Y-94695000D02*
X147331000Y-94695000D01*
X159331000Y-70045000D02*
X159331000Y-94695000D01*
X157081000Y-70885000D02*
X157081000Y-72265000D01*
X157091000Y-72265000D02*
X145781000Y-72265000D01*
X145781000Y-72265000D02*
X145781000Y-70745000D01*
X143281000Y-69695000D02*
X143281000Y-84795000D01*
X143281000Y-84795000D02*
X159581000Y-84795000D01*
X159581000Y-69695000D02*
X159581000Y-84795000D01*
X143281000Y-69695000D02*
X145781000Y-69695000D01*
X145781000Y-69695000D02*
X145781000Y-70755000D01*
X159581000Y-69695000D02*
X157081000Y-69695000D01*
X157081000Y-69695000D02*
X157081000Y-70945000D01*
D11*
X156491000Y-69175000D02*
X143731000Y-69175000D01*
X143731000Y-69175000D02*
X143731000Y-66515000D01*
X143731000Y-66515000D02*
X156491000Y-66515000D01*
X156491000Y-66515000D02*
X156491000Y-69175000D01*
X157761000Y-69175000D02*
X159091000Y-69175000D01*
X159091000Y-69175000D02*
X159091000Y-67845000D01*
D12*
X145171000Y-69265000D02*
X144071000Y-68165000D01*
X145171000Y-69265000D02*
X145171000Y-71065000D01*
X158771000Y-67965000D02*
X157771000Y-68965000D01*
X157771000Y-68965000D02*
X157771000Y-71765000D01*
D11*
X139921000Y-89495000D02*
X139921000Y-63975000D01*
X139921000Y-63975000D02*
X162901000Y-63975000D01*
X162901000Y-89495000D02*
X162901000Y-63975000D01*
X160241000Y-89495000D02*
X160241000Y-66635000D01*
X160241000Y-66635000D02*
X142581000Y-66635000D01*
X142581000Y-89495000D02*
X142581000Y-66635000D01*
X142581000Y-89495000D02*
X142581000Y-82685000D01*
X162901000Y-89495000D02*
X160241000Y-89495000D01*
X139921000Y-89495000D02*
X142581000Y-89495000D01*
X162901000Y-67845000D02*
X162901000Y-66515000D01*
D12*
X153562428Y-89919762D02*
X153419571Y-89967381D01*
X153181475Y-89967381D01*
X153086237Y-89919762D01*
X153038618Y-89872143D01*
X152990999Y-89776905D01*
X152990999Y-89681667D01*
X153038618Y-89586429D01*
X153086237Y-89538810D01*
X153181475Y-89491190D01*
X153371952Y-89443571D01*
X153467190Y-89395952D01*
X153514809Y-89348333D01*
X153562428Y-89253095D01*
X153562428Y-89157857D01*
X153514809Y-89062619D01*
X153467190Y-89015000D01*
X153371952Y-88967381D01*
X153133856Y-88967381D01*
X152990999Y-89015000D01*
X152562428Y-89967381D02*
X152562428Y-88967381D01*
X152086238Y-89967381D02*
X152086238Y-88967381D01*
X151752904Y-89681667D01*
X151419571Y-88967381D01*
X151419571Y-89967381D01*
X150419571Y-89967381D02*
X150991000Y-89967381D01*
X150705286Y-89967381D02*
X150705286Y-88967381D01*
X150800524Y-89110238D01*
X150895762Y-89205476D01*
X150991000Y-89253095D01*
X156589095Y-70457381D02*
X156589095Y-69457381D01*
X156208142Y-69457381D01*
X156112904Y-69505000D01*
X156065285Y-69552619D01*
X156017666Y-69647857D01*
X156017666Y-69790714D01*
X156065285Y-69885952D01*
X156112904Y-69933571D01*
X156208142Y-69981190D01*
X156589095Y-69981190D01*
X155636714Y-69552619D02*
X155589095Y-69505000D01*
X155493857Y-69457381D01*
X155255761Y-69457381D01*
X155160523Y-69505000D01*
X155112904Y-69552619D01*
X155065285Y-69647857D01*
X155065285Y-69743095D01*
X155112904Y-69885952D01*
X155684333Y-70457381D01*
X155065285Y-70457381D01*
X159149095Y-90407381D02*
X159149095Y-89407381D01*
X158768142Y-89407381D01*
X158672904Y-89455000D01*
X158625285Y-89502619D01*
X158577666Y-89597857D01*
X158577666Y-89740714D01*
X158625285Y-89835952D01*
X158672904Y-89883571D01*
X158768142Y-89931190D01*
X159149095Y-89931190D01*
X157625285Y-90407381D02*
X158196714Y-90407381D01*
X157911000Y-90407381D02*
X157911000Y-89407381D01*
X158006238Y-89550238D01*
X158101476Y-89645476D01*
X158196714Y-89693095D01*
X142971000Y-87555477D02*
X142932905Y-87479286D01*
X142932905Y-87365001D01*
X142971000Y-87250715D01*
X143047190Y-87174524D01*
X143123381Y-87136429D01*
X143275762Y-87098334D01*
X143390048Y-87098334D01*
X143542429Y-87136429D01*
X143618619Y-87174524D01*
X143694810Y-87250715D01*
X143732905Y-87365001D01*
X143732905Y-87441191D01*
X143694810Y-87555477D01*
X143656714Y-87593572D01*
X143390048Y-87593572D01*
X143390048Y-87441191D01*
X143732905Y-87936429D02*
X142932905Y-87936429D01*
X143732905Y-88393572D01*
X142932905Y-88393572D01*
X143732905Y-88774524D02*
X142932905Y-88774524D01*
X142932905Y-88965000D01*
X142971000Y-89079286D01*
X143047190Y-89155477D01*
X143123381Y-89193572D01*
X143275762Y-89231667D01*
X143390048Y-89231667D01*
X143542429Y-89193572D01*
X143618619Y-89155477D01*
X143694810Y-89079286D01*
X143732905Y-88965000D01*
X143732905Y-88774524D01*
X143732905Y-85226905D02*
X143351952Y-84960238D01*
X143732905Y-84769762D02*
X142932905Y-84769762D01*
X142932905Y-85074524D01*
X142971000Y-85150715D01*
X143009095Y-85188810D01*
X143085286Y-85226905D01*
X143199571Y-85226905D01*
X143275762Y-85188810D01*
X143313857Y-85150715D01*
X143351952Y-85074524D01*
X143351952Y-84769762D01*
X143694810Y-85531667D02*
X143732905Y-85645953D01*
X143732905Y-85836429D01*
X143694810Y-85912619D01*
X143656714Y-85950715D01*
X143580524Y-85988810D01*
X143504333Y-85988810D01*
X143428143Y-85950715D01*
X143390048Y-85912619D01*
X143351952Y-85836429D01*
X143313857Y-85684048D01*
X143275762Y-85607857D01*
X143237667Y-85569762D01*
X143161476Y-85531667D01*
X143085286Y-85531667D01*
X143009095Y-85569762D01*
X142971000Y-85607857D01*
X142932905Y-85684048D01*
X142932905Y-85874524D01*
X142971000Y-85988810D01*
X142932905Y-86217381D02*
X142932905Y-86674524D01*
X143732905Y-86445953D02*
X142932905Y-86445953D01*
X143732905Y-82474524D02*
X142932905Y-82474524D01*
X142932905Y-82665000D01*
X142971000Y-82779286D01*
X143047190Y-82855477D01*
X143123381Y-82893572D01*
X143275762Y-82931667D01*
X143390048Y-82931667D01*
X143542429Y-82893572D01*
X143618619Y-82855477D01*
X143694810Y-82779286D01*
X143732905Y-82665000D01*
X143732905Y-82474524D01*
X142932905Y-83617381D02*
X142932905Y-83465000D01*
X142971000Y-83388810D01*
X143009095Y-83350715D01*
X143123381Y-83274524D01*
X143275762Y-83236429D01*
X143580524Y-83236429D01*
X143656714Y-83274524D01*
X143694810Y-83312619D01*
X143732905Y-83388810D01*
X143732905Y-83541191D01*
X143694810Y-83617381D01*
X143656714Y-83655477D01*
X143580524Y-83693572D01*
X143390048Y-83693572D01*
X143313857Y-83655477D01*
X143275762Y-83617381D01*
X143237667Y-83541191D01*
X143237667Y-83388810D01*
X143275762Y-83312619D01*
X143313857Y-83274524D01*
X143390048Y-83236429D01*
X143732905Y-79974524D02*
X142932905Y-79974524D01*
X142932905Y-80165000D01*
X142971000Y-80279286D01*
X143047190Y-80355477D01*
X143123381Y-80393572D01*
X143275762Y-80431667D01*
X143390048Y-80431667D01*
X143542429Y-80393572D01*
X143618619Y-80355477D01*
X143694810Y-80279286D01*
X143732905Y-80165000D01*
X143732905Y-79974524D01*
X142932905Y-81155477D02*
X142932905Y-80774524D01*
X143313857Y-80736429D01*
X143275762Y-80774524D01*
X143237667Y-80850715D01*
X143237667Y-81041191D01*
X143275762Y-81117381D01*
X143313857Y-81155477D01*
X143390048Y-81193572D01*
X143580524Y-81193572D01*
X143656714Y-81155477D01*
X143694810Y-81117381D01*
X143732905Y-81041191D01*
X143732905Y-80850715D01*
X143694810Y-80774524D01*
X143656714Y-80736429D01*
X143732905Y-77374524D02*
X142932905Y-77374524D01*
X142932905Y-77565000D01*
X142971000Y-77679286D01*
X143047190Y-77755477D01*
X143123381Y-77793572D01*
X143275762Y-77831667D01*
X143390048Y-77831667D01*
X143542429Y-77793572D01*
X143618619Y-77755477D01*
X143694810Y-77679286D01*
X143732905Y-77565000D01*
X143732905Y-77374524D01*
X143199571Y-78517381D02*
X143732905Y-78517381D01*
X142894810Y-78326905D02*
X143466238Y-78136429D01*
X143466238Y-78631667D01*
X143732905Y-74874524D02*
X142932905Y-74874524D01*
X142932905Y-75065000D01*
X142971000Y-75179286D01*
X143047190Y-75255477D01*
X143123381Y-75293572D01*
X143275762Y-75331667D01*
X143390048Y-75331667D01*
X143542429Y-75293572D01*
X143618619Y-75255477D01*
X143694810Y-75179286D01*
X143732905Y-75065000D01*
X143732905Y-74874524D01*
X142932905Y-75598334D02*
X142932905Y-76093572D01*
X143237667Y-75826905D01*
X143237667Y-75941191D01*
X143275762Y-76017381D01*
X143313857Y-76055477D01*
X143390048Y-76093572D01*
X143580524Y-76093572D01*
X143656714Y-76055477D01*
X143694810Y-76017381D01*
X143732905Y-75941191D01*
X143732905Y-75712619D01*
X143694810Y-75636429D01*
X143656714Y-75598334D01*
X143732905Y-72374524D02*
X142932905Y-72374524D01*
X142932905Y-72565000D01*
X142971000Y-72679286D01*
X143047190Y-72755477D01*
X143123381Y-72793572D01*
X143275762Y-72831667D01*
X143390048Y-72831667D01*
X143542429Y-72793572D01*
X143618619Y-72755477D01*
X143694810Y-72679286D01*
X143732905Y-72565000D01*
X143732905Y-72374524D01*
X143009095Y-73136429D02*
X142971000Y-73174524D01*
X142932905Y-73250715D01*
X142932905Y-73441191D01*
X142971000Y-73517381D01*
X143009095Y-73555477D01*
X143085286Y-73593572D01*
X143161476Y-73593572D01*
X143275762Y-73555477D01*
X143732905Y-73098334D01*
X143732905Y-73593572D01*
X142932905Y-69374523D02*
X142932905Y-69831666D01*
X143732905Y-69603095D02*
X142932905Y-69603095D01*
X142932905Y-70022143D02*
X143732905Y-70555476D01*
X142932905Y-70555476D02*
X143732905Y-70022143D01*
X142932905Y-71012619D02*
X142932905Y-71088810D01*
X142971000Y-71165000D01*
X143009095Y-71203095D01*
X143085286Y-71241191D01*
X143237667Y-71279286D01*
X143428143Y-71279286D01*
X143580524Y-71241191D01*
X143656714Y-71203095D01*
X143694810Y-71165000D01*
X143732905Y-71088810D01*
X143732905Y-71012619D01*
X143694810Y-70936429D01*
X143656714Y-70898333D01*
X143580524Y-70860238D01*
X143428143Y-70822143D01*
X143237667Y-70822143D01*
X143085286Y-70860238D01*
X143009095Y-70898333D01*
X142971000Y-70936429D01*
X142932905Y-71012619D01*
X143732905Y-67350714D02*
X143351952Y-67084047D01*
X143732905Y-66893571D02*
X142932905Y-66893571D01*
X142932905Y-67198333D01*
X142971000Y-67274524D01*
X143009095Y-67312619D01*
X143085286Y-67350714D01*
X143199571Y-67350714D01*
X143275762Y-67312619D01*
X143313857Y-67274524D01*
X143351952Y-67198333D01*
X143351952Y-66893571D01*
X142932905Y-67617381D02*
X143732905Y-68150714D01*
X142932905Y-68150714D02*
X143732905Y-67617381D01*
X142932905Y-68607857D02*
X142932905Y-68684048D01*
X142971000Y-68760238D01*
X143009095Y-68798333D01*
X143085286Y-68836429D01*
X143237667Y-68874524D01*
X143428143Y-68874524D01*
X143580524Y-68836429D01*
X143656714Y-68798333D01*
X143694810Y-68760238D01*
X143732905Y-68684048D01*
X143732905Y-68607857D01*
X143694810Y-68531667D01*
X143656714Y-68493571D01*
X143580524Y-68455476D01*
X143428143Y-68417381D01*
X143237667Y-68417381D01*
X143085286Y-68455476D01*
X143009095Y-68493571D01*
X142971000Y-68531667D01*
X142932905Y-68607857D01*
X157904333Y-67093572D02*
X157904333Y-67474524D01*
X158132905Y-67017381D02*
X157332905Y-67284048D01*
X158132905Y-67550715D01*
X157332905Y-67969762D02*
X157332905Y-68045953D01*
X157371000Y-68122143D01*
X157409095Y-68160238D01*
X157485286Y-68198334D01*
X157637667Y-68236429D01*
X157828143Y-68236429D01*
X157980524Y-68198334D01*
X158056714Y-68160238D01*
X158094810Y-68122143D01*
X158132905Y-68045953D01*
X158132905Y-67969762D01*
X158094810Y-67893572D01*
X158056714Y-67855476D01*
X157980524Y-67817381D01*
X157828143Y-67779286D01*
X157637667Y-67779286D01*
X157485286Y-67817381D01*
X157409095Y-67855476D01*
X157371000Y-67893572D01*
X157332905Y-67969762D01*
X159732905Y-66893571D02*
X158932905Y-66893571D01*
X158932905Y-67084047D01*
X158971000Y-67198333D01*
X159047190Y-67274524D01*
X159123381Y-67312619D01*
X159275762Y-67350714D01*
X159390048Y-67350714D01*
X159542429Y-67312619D01*
X159618619Y-67274524D01*
X159694810Y-67198333D01*
X159732905Y-67084047D01*
X159732905Y-66893571D01*
X159732905Y-68112619D02*
X159732905Y-67655476D01*
X159732905Y-67884047D02*
X158932905Y-67884047D01*
X159047190Y-67807857D01*
X159123381Y-67731666D01*
X159161476Y-67655476D01*
X158932905Y-68379286D02*
X158932905Y-68874524D01*
X159237667Y-68607857D01*
X159237667Y-68722143D01*
X159275762Y-68798333D01*
X159313857Y-68836429D01*
X159390048Y-68874524D01*
X159580524Y-68874524D01*
X159656714Y-68836429D01*
X159694810Y-68798333D01*
X159732905Y-68722143D01*
X159732905Y-68493571D01*
X159694810Y-68417381D01*
X159656714Y-68379286D01*
X159732905Y-69393571D02*
X158932905Y-69393571D01*
X158932905Y-69584047D01*
X158971000Y-69698333D01*
X159047190Y-69774524D01*
X159123381Y-69812619D01*
X159275762Y-69850714D01*
X159390048Y-69850714D01*
X159542429Y-69812619D01*
X159618619Y-69774524D01*
X159694810Y-69698333D01*
X159732905Y-69584047D01*
X159732905Y-69393571D01*
X159732905Y-70612619D02*
X159732905Y-70155476D01*
X159732905Y-70384047D02*
X158932905Y-70384047D01*
X159047190Y-70307857D01*
X159123381Y-70231666D01*
X159161476Y-70155476D01*
X159009095Y-70917381D02*
X158971000Y-70955476D01*
X158932905Y-71031667D01*
X158932905Y-71222143D01*
X158971000Y-71298333D01*
X159009095Y-71336429D01*
X159085286Y-71374524D01*
X159161476Y-71374524D01*
X159275762Y-71336429D01*
X159732905Y-70879286D01*
X159732905Y-71374524D01*
X159732905Y-71993571D02*
X158932905Y-71993571D01*
X158932905Y-72184047D01*
X158971000Y-72298333D01*
X159047190Y-72374524D01*
X159123381Y-72412619D01*
X159275762Y-72450714D01*
X159390048Y-72450714D01*
X159542429Y-72412619D01*
X159618619Y-72374524D01*
X159694810Y-72298333D01*
X159732905Y-72184047D01*
X159732905Y-71993571D01*
X159732905Y-73212619D02*
X159732905Y-72755476D01*
X159732905Y-72984047D02*
X158932905Y-72984047D01*
X159047190Y-72907857D01*
X159123381Y-72831666D01*
X159161476Y-72755476D01*
X159732905Y-73974524D02*
X159732905Y-73517381D01*
X159732905Y-73745952D02*
X158932905Y-73745952D01*
X159047190Y-73669762D01*
X159123381Y-73593571D01*
X159161476Y-73517381D01*
X159732905Y-74493571D02*
X158932905Y-74493571D01*
X158932905Y-74684047D01*
X158971000Y-74798333D01*
X159047190Y-74874524D01*
X159123381Y-74912619D01*
X159275762Y-74950714D01*
X159390048Y-74950714D01*
X159542429Y-74912619D01*
X159618619Y-74874524D01*
X159694810Y-74798333D01*
X159732905Y-74684047D01*
X159732905Y-74493571D01*
X159732905Y-75712619D02*
X159732905Y-75255476D01*
X159732905Y-75484047D02*
X158932905Y-75484047D01*
X159047190Y-75407857D01*
X159123381Y-75331666D01*
X159161476Y-75255476D01*
X158932905Y-76207857D02*
X158932905Y-76284048D01*
X158971000Y-76360238D01*
X159009095Y-76398333D01*
X159085286Y-76436429D01*
X159237667Y-76474524D01*
X159428143Y-76474524D01*
X159580524Y-76436429D01*
X159656714Y-76398333D01*
X159694810Y-76360238D01*
X159732905Y-76284048D01*
X159732905Y-76207857D01*
X159694810Y-76131667D01*
X159656714Y-76093571D01*
X159580524Y-76055476D01*
X159428143Y-76017381D01*
X159237667Y-76017381D01*
X159085286Y-76055476D01*
X159009095Y-76093571D01*
X158971000Y-76131667D01*
X158932905Y-76207857D01*
X159732905Y-77374524D02*
X158932905Y-77374524D01*
X158932905Y-77565000D01*
X158971000Y-77679286D01*
X159047190Y-77755477D01*
X159123381Y-77793572D01*
X159275762Y-77831667D01*
X159390048Y-77831667D01*
X159542429Y-77793572D01*
X159618619Y-77755477D01*
X159694810Y-77679286D01*
X159732905Y-77565000D01*
X159732905Y-77374524D01*
X159732905Y-78212619D02*
X159732905Y-78365000D01*
X159694810Y-78441191D01*
X159656714Y-78479286D01*
X159542429Y-78555477D01*
X159390048Y-78593572D01*
X159085286Y-78593572D01*
X159009095Y-78555477D01*
X158971000Y-78517381D01*
X158932905Y-78441191D01*
X158932905Y-78288810D01*
X158971000Y-78212619D01*
X159009095Y-78174524D01*
X159085286Y-78136429D01*
X159275762Y-78136429D01*
X159351952Y-78174524D01*
X159390048Y-78212619D01*
X159428143Y-78288810D01*
X159428143Y-78441191D01*
X159390048Y-78517381D01*
X159351952Y-78555477D01*
X159275762Y-78593572D01*
X159732905Y-79974524D02*
X158932905Y-79974524D01*
X158932905Y-80165000D01*
X158971000Y-80279286D01*
X159047190Y-80355477D01*
X159123381Y-80393572D01*
X159275762Y-80431667D01*
X159390048Y-80431667D01*
X159542429Y-80393572D01*
X159618619Y-80355477D01*
X159694810Y-80279286D01*
X159732905Y-80165000D01*
X159732905Y-79974524D01*
X159275762Y-80888810D02*
X159237667Y-80812619D01*
X159199571Y-80774524D01*
X159123381Y-80736429D01*
X159085286Y-80736429D01*
X159009095Y-80774524D01*
X158971000Y-80812619D01*
X158932905Y-80888810D01*
X158932905Y-81041191D01*
X158971000Y-81117381D01*
X159009095Y-81155477D01*
X159085286Y-81193572D01*
X159123381Y-81193572D01*
X159199571Y-81155477D01*
X159237667Y-81117381D01*
X159275762Y-81041191D01*
X159275762Y-80888810D01*
X159313857Y-80812619D01*
X159351952Y-80774524D01*
X159428143Y-80736429D01*
X159580524Y-80736429D01*
X159656714Y-80774524D01*
X159694810Y-80812619D01*
X159732905Y-80888810D01*
X159732905Y-81041191D01*
X159694810Y-81117381D01*
X159656714Y-81155477D01*
X159580524Y-81193572D01*
X159428143Y-81193572D01*
X159351952Y-81155477D01*
X159313857Y-81117381D01*
X159275762Y-81041191D01*
X159732905Y-82474524D02*
X158932905Y-82474524D01*
X158932905Y-82665000D01*
X158971000Y-82779286D01*
X159047190Y-82855477D01*
X159123381Y-82893572D01*
X159275762Y-82931667D01*
X159390048Y-82931667D01*
X159542429Y-82893572D01*
X159618619Y-82855477D01*
X159694810Y-82779286D01*
X159732905Y-82665000D01*
X159732905Y-82474524D01*
X158932905Y-83198334D02*
X158932905Y-83731667D01*
X159732905Y-83388810D01*
X158932905Y-84674524D02*
X158932905Y-85169762D01*
X159237667Y-84903095D01*
X159237667Y-85017381D01*
X159275762Y-85093571D01*
X159313857Y-85131667D01*
X159390048Y-85169762D01*
X159580524Y-85169762D01*
X159656714Y-85131667D01*
X159694810Y-85093571D01*
X159732905Y-85017381D01*
X159732905Y-84788809D01*
X159694810Y-84712619D01*
X159656714Y-84674524D01*
X158932905Y-85398333D02*
X159732905Y-85665000D01*
X158932905Y-85931667D01*
X158932905Y-86122143D02*
X158932905Y-86617381D01*
X159237667Y-86350714D01*
X159237667Y-86465000D01*
X159275762Y-86541190D01*
X159313857Y-86579286D01*
X159390048Y-86617381D01*
X159580524Y-86617381D01*
X159656714Y-86579286D01*
X159694810Y-86541190D01*
X159732905Y-86465000D01*
X159732905Y-86236428D01*
X159694810Y-86160238D01*
X159656714Y-86122143D01*
X158932905Y-88012620D02*
X158932905Y-87631667D01*
X159313857Y-87593572D01*
X159275762Y-87631667D01*
X159237667Y-87707858D01*
X159237667Y-87898334D01*
X159275762Y-87974524D01*
X159313857Y-88012620D01*
X159390048Y-88050715D01*
X159580524Y-88050715D01*
X159656714Y-88012620D01*
X159694810Y-87974524D01*
X159732905Y-87898334D01*
X159732905Y-87707858D01*
X159694810Y-87631667D01*
X159656714Y-87593572D01*
X158932905Y-88279286D02*
X159732905Y-88545953D01*
X158932905Y-88812620D01*
M02*
