G04 #@! TF.FileFunction,Other,Fab,Top*
%FSLAX46Y46*%
G04 Gerber Fmt 4.6, Leading zero omitted, Abs format (unit mm)*
G04 Created by KiCad (PCBNEW 4.0.6) date 12/07/17 07:37:45*
%MOMM*%
%LPD*%
G01*
G04 APERTURE LIST*
%ADD10C,0.100000*%
%ADD11C,0.300000*%
%ADD12C,0.150000*%
%ADD13C,0.075000*%
%ADD14C,0.090000*%
%ADD15C,0.120000*%
G04 APERTURE END LIST*
D10*
D11*
X145096715Y-99336429D02*
X145168144Y-99265000D01*
X145311001Y-99193571D01*
X145668144Y-99193571D01*
X145811001Y-99265000D01*
X145882430Y-99336429D01*
X145953858Y-99479286D01*
X145953858Y-99622143D01*
X145882430Y-99836429D01*
X145025287Y-100693571D01*
X145953858Y-100693571D01*
X147311001Y-99193571D02*
X146596715Y-99193571D01*
X146525286Y-99907857D01*
X146596715Y-99836429D01*
X146739572Y-99765000D01*
X147096715Y-99765000D01*
X147239572Y-99836429D01*
X147311001Y-99907857D01*
X147382429Y-100050714D01*
X147382429Y-100407857D01*
X147311001Y-100550714D01*
X147239572Y-100622143D01*
X147096715Y-100693571D01*
X146739572Y-100693571D01*
X146596715Y-100622143D01*
X146525286Y-100550714D01*
X148096714Y-100622143D02*
X148096714Y-100693571D01*
X148025286Y-100836429D01*
X147953857Y-100907857D01*
X149453858Y-99193571D02*
X148739572Y-99193571D01*
X148668143Y-99907857D01*
X148739572Y-99836429D01*
X148882429Y-99765000D01*
X149239572Y-99765000D01*
X149382429Y-99836429D01*
X149453858Y-99907857D01*
X149525286Y-100050714D01*
X149525286Y-100407857D01*
X149453858Y-100550714D01*
X149382429Y-100622143D01*
X149239572Y-100693571D01*
X148882429Y-100693571D01*
X148739572Y-100622143D01*
X148668143Y-100550714D01*
X150096714Y-99336429D02*
X150168143Y-99265000D01*
X150311000Y-99193571D01*
X150668143Y-99193571D01*
X150811000Y-99265000D01*
X150882429Y-99336429D01*
X150953857Y-99479286D01*
X150953857Y-99622143D01*
X150882429Y-99836429D01*
X150025286Y-100693571D01*
X150953857Y-100693571D01*
X151453857Y-99193571D02*
X152453857Y-99193571D01*
X151811000Y-100693571D01*
X154168142Y-100693571D02*
X154168142Y-99693571D01*
X154168142Y-99836429D02*
X154239570Y-99765000D01*
X154382428Y-99693571D01*
X154596713Y-99693571D01*
X154739570Y-99765000D01*
X154810999Y-99907857D01*
X154810999Y-100693571D01*
X154810999Y-99907857D02*
X154882428Y-99765000D01*
X155025285Y-99693571D01*
X155239570Y-99693571D01*
X155382428Y-99765000D01*
X155453856Y-99907857D01*
X155453856Y-100693571D01*
X156168142Y-100693571D02*
X156168142Y-99693571D01*
X156168142Y-99836429D02*
X156239570Y-99765000D01*
X156382428Y-99693571D01*
X156596713Y-99693571D01*
X156739570Y-99765000D01*
X156810999Y-99907857D01*
X156810999Y-100693571D01*
X156810999Y-99907857D02*
X156882428Y-99765000D01*
X157025285Y-99693571D01*
X157239570Y-99693571D01*
X157382428Y-99765000D01*
X157453856Y-99907857D01*
X157453856Y-100693571D01*
X164363400Y-97358999D02*
X138836400Y-97358999D01*
X164363400Y-94946000D02*
X164363400Y-100058999D01*
X138836400Y-94946000D02*
X138836400Y-100058999D01*
X138836400Y-97358999D02*
X139962904Y-96772578D01*
X138836400Y-97358999D02*
X139962904Y-97945420D01*
X164363400Y-97358999D02*
X163236896Y-96772578D01*
X164363400Y-97358999D02*
X163236896Y-97945420D01*
X131433971Y-70493715D02*
X131505400Y-70565144D01*
X131576829Y-70708001D01*
X131576829Y-71065144D01*
X131505400Y-71208001D01*
X131433971Y-71279430D01*
X131291114Y-71350858D01*
X131148257Y-71350858D01*
X130933971Y-71279430D01*
X130076829Y-70422287D01*
X130076829Y-71350858D01*
X131576829Y-71850858D02*
X131576829Y-72850858D01*
X130076829Y-72208001D01*
X130148257Y-73493714D02*
X130076829Y-73493714D01*
X129933971Y-73422286D01*
X129862543Y-73350857D01*
X130076829Y-74208000D02*
X130076829Y-74493715D01*
X130148257Y-74636572D01*
X130219686Y-74708000D01*
X130433971Y-74850858D01*
X130719686Y-74922286D01*
X131291114Y-74922286D01*
X131433971Y-74850858D01*
X131505400Y-74779429D01*
X131576829Y-74636572D01*
X131576829Y-74350858D01*
X131505400Y-74208000D01*
X131433971Y-74136572D01*
X131291114Y-74065143D01*
X130933971Y-74065143D01*
X130791114Y-74136572D01*
X130719686Y-74208000D01*
X130648257Y-74350858D01*
X130648257Y-74636572D01*
X130719686Y-74779429D01*
X130791114Y-74850858D01*
X130933971Y-74922286D01*
X131076829Y-76208000D02*
X130076829Y-76208000D01*
X131648257Y-75850857D02*
X130576829Y-75493714D01*
X130576829Y-76422286D01*
X131576829Y-77279428D02*
X131576829Y-77422285D01*
X131505400Y-77565142D01*
X131433971Y-77636571D01*
X131291114Y-77708000D01*
X131005400Y-77779428D01*
X130648257Y-77779428D01*
X130362543Y-77708000D01*
X130219686Y-77636571D01*
X130148257Y-77565142D01*
X130076829Y-77422285D01*
X130076829Y-77279428D01*
X130148257Y-77136571D01*
X130219686Y-77065142D01*
X130362543Y-76993714D01*
X130648257Y-76922285D01*
X131005400Y-76922285D01*
X131291114Y-76993714D01*
X131433971Y-77065142D01*
X131505400Y-77136571D01*
X131576829Y-77279428D01*
X130076829Y-79565142D02*
X131076829Y-79565142D01*
X130933971Y-79565142D02*
X131005400Y-79636570D01*
X131076829Y-79779428D01*
X131076829Y-79993713D01*
X131005400Y-80136570D01*
X130862543Y-80207999D01*
X130076829Y-80207999D01*
X130862543Y-80207999D02*
X131005400Y-80279428D01*
X131076829Y-80422285D01*
X131076829Y-80636570D01*
X131005400Y-80779428D01*
X130862543Y-80850856D01*
X130076829Y-80850856D01*
X130076829Y-81565142D02*
X131076829Y-81565142D01*
X130933971Y-81565142D02*
X131005400Y-81636570D01*
X131076829Y-81779428D01*
X131076829Y-81993713D01*
X131005400Y-82136570D01*
X130862543Y-82207999D01*
X130076829Y-82207999D01*
X130862543Y-82207999D02*
X131005400Y-82279428D01*
X131076829Y-82422285D01*
X131076829Y-82636570D01*
X131005400Y-82779428D01*
X130862543Y-82850856D01*
X130076829Y-82850856D01*
X132105400Y-62738000D02*
X132105400Y-90678000D01*
X134137400Y-62738000D02*
X129405400Y-62738000D01*
X134137400Y-90678000D02*
X129405400Y-90678000D01*
X132105400Y-90678000D02*
X131518979Y-89551496D01*
X132105400Y-90678000D02*
X132691821Y-89551496D01*
X132105400Y-62738000D02*
X131518979Y-63864504D01*
X132105400Y-62738000D02*
X132691821Y-63864504D01*
D10*
X146026000Y-73055000D02*
X145176000Y-73055000D01*
X144676000Y-73555000D02*
X144676000Y-75255000D01*
X146026000Y-73055000D02*
X146026000Y-75255000D01*
X146026000Y-75255000D02*
X144676000Y-75255000D01*
X145176000Y-73055000D02*
X144676000Y-73555000D01*
X146791000Y-83625000D02*
X148031000Y-83625000D01*
X146791000Y-85625000D02*
X146791000Y-83625000D01*
X148031000Y-85625000D02*
X146791000Y-85625000D01*
X148031000Y-83625000D02*
X148031000Y-85625000D01*
X146791000Y-86875000D02*
X148031000Y-86875000D01*
X146791000Y-88875000D02*
X146791000Y-86875000D01*
X148031000Y-88875000D02*
X146791000Y-88875000D01*
X148031000Y-86875000D02*
X148031000Y-88875000D01*
X147561000Y-77485000D02*
X147561000Y-76245000D01*
X149561000Y-77485000D02*
X147561000Y-77485000D01*
X149561000Y-76245000D02*
X149561000Y-77485000D01*
X147561000Y-76245000D02*
X149561000Y-76245000D01*
X152091000Y-72905000D02*
X150851000Y-72905000D01*
X152091000Y-70905000D02*
X152091000Y-72905000D01*
X150851000Y-70905000D02*
X152091000Y-70905000D01*
X150851000Y-72905000D02*
X150851000Y-70905000D01*
X149511000Y-72895000D02*
X148271000Y-72895000D01*
X149511000Y-70895000D02*
X149511000Y-72895000D01*
X148271000Y-70895000D02*
X149511000Y-70895000D01*
X148271000Y-72895000D02*
X148271000Y-70895000D01*
X149671000Y-88435000D02*
X149021000Y-87785000D01*
X149021000Y-86635000D02*
X149021000Y-87785000D01*
X149671000Y-88435000D02*
X152121000Y-88435000D01*
X152121000Y-86635000D02*
X152121000Y-88435000D01*
X149021000Y-86635000D02*
X152121000Y-86635000D01*
X157141000Y-86865000D02*
X158381000Y-86865000D01*
X157141000Y-88865000D02*
X157141000Y-86865000D01*
X158381000Y-88865000D02*
X157141000Y-88865000D01*
X158381000Y-86865000D02*
X158381000Y-88865000D01*
X154831000Y-86865000D02*
X156071000Y-86865000D01*
X154831000Y-88865000D02*
X154831000Y-86865000D01*
X156071000Y-88865000D02*
X154831000Y-88865000D01*
X156071000Y-86865000D02*
X156071000Y-88865000D01*
X155441000Y-79405000D02*
X155441000Y-80645000D01*
X153441000Y-79405000D02*
X155441000Y-79405000D01*
X153441000Y-80645000D02*
X153441000Y-79405000D01*
X155441000Y-80645000D02*
X153441000Y-80645000D01*
X151121000Y-83355000D02*
X151121000Y-84595000D01*
X149121000Y-83355000D02*
X151121000Y-83355000D01*
X149121000Y-84595000D02*
X149121000Y-83355000D01*
X151121000Y-84595000D02*
X149121000Y-84595000D01*
X155781000Y-85065000D02*
X155781000Y-82365000D01*
X155781000Y-82365000D02*
X153081000Y-82365000D01*
X153081000Y-82365000D02*
X153081000Y-85065000D01*
X153081000Y-85065000D02*
X155781000Y-85065000D01*
X151971000Y-81525000D02*
X150731000Y-81525000D01*
X151971000Y-79525000D02*
X151971000Y-81525000D01*
X150731000Y-79525000D02*
X151971000Y-79525000D01*
X150731000Y-81525000D02*
X150731000Y-79525000D01*
X149751000Y-81525000D02*
X148511000Y-81525000D01*
X149751000Y-79525000D02*
X149751000Y-81525000D01*
X148511000Y-79525000D02*
X149751000Y-79525000D01*
X148511000Y-81525000D02*
X148511000Y-79525000D01*
X158761000Y-78375000D02*
X158761000Y-75575000D01*
X158761000Y-75575000D02*
X155261000Y-75575000D01*
X155261000Y-75575000D02*
X155261000Y-78375000D01*
X155261000Y-78375000D02*
X158761000Y-78375000D01*
X158411000Y-78375000D02*
X158411000Y-75575000D01*
X158236000Y-78375000D02*
X158236000Y-75575000D01*
X158771000Y-74075000D02*
X158771000Y-71275000D01*
X158771000Y-71275000D02*
X155271000Y-71275000D01*
X155271000Y-71275000D02*
X155271000Y-74075000D01*
X155271000Y-74075000D02*
X158771000Y-74075000D01*
X158421000Y-74075000D02*
X158421000Y-71275000D01*
X158246000Y-74075000D02*
X158246000Y-71275000D01*
X146331000Y-70305000D02*
X146331000Y-71545000D01*
X144331000Y-70305000D02*
X146331000Y-70305000D01*
X144331000Y-71545000D02*
X144331000Y-70305000D01*
X146331000Y-71545000D02*
X144331000Y-71545000D01*
D12*
X140208143Y-76083571D02*
X140541477Y-76083571D01*
X140684334Y-76607381D02*
X140208143Y-76607381D01*
X140208143Y-75607381D01*
X140684334Y-75607381D01*
X141065286Y-76559762D02*
X141208143Y-76607381D01*
X141446239Y-76607381D01*
X141541477Y-76559762D01*
X141589096Y-76512143D01*
X141636715Y-76416905D01*
X141636715Y-76321667D01*
X141589096Y-76226429D01*
X141541477Y-76178810D01*
X141446239Y-76131190D01*
X141255762Y-76083571D01*
X141160524Y-76035952D01*
X141112905Y-75988333D01*
X141065286Y-75893095D01*
X141065286Y-75797857D01*
X141112905Y-75702619D01*
X141160524Y-75655000D01*
X141255762Y-75607381D01*
X141493858Y-75607381D01*
X141636715Y-75655000D01*
X142065286Y-76607381D02*
X142065286Y-75607381D01*
X142303381Y-75607381D01*
X142446239Y-75655000D01*
X142541477Y-75750238D01*
X142589096Y-75845476D01*
X142636715Y-76035952D01*
X142636715Y-76178810D01*
X142589096Y-76369286D01*
X142541477Y-76464524D01*
X142446239Y-76559762D01*
X142303381Y-76607381D01*
X142065286Y-76607381D01*
X143017667Y-76321667D02*
X143493858Y-76321667D01*
X142922429Y-76607381D02*
X143255762Y-75607381D01*
X143589096Y-76607381D01*
X144351001Y-75607381D02*
X144160524Y-75607381D01*
X144065286Y-75655000D01*
X144017667Y-75702619D01*
X143922429Y-75845476D01*
X143874810Y-76035952D01*
X143874810Y-76416905D01*
X143922429Y-76512143D01*
X143970048Y-76559762D01*
X144065286Y-76607381D01*
X144255763Y-76607381D01*
X144351001Y-76559762D01*
X144398620Y-76512143D01*
X144446239Y-76416905D01*
X144446239Y-76178810D01*
X144398620Y-76083571D01*
X144351001Y-76035952D01*
X144255763Y-75988333D01*
X144065286Y-75988333D01*
X143970048Y-76035952D01*
X143922429Y-76083571D01*
X143874810Y-76178810D01*
X144731953Y-75607381D02*
X145065286Y-76607381D01*
X145398620Y-75607381D01*
X146255763Y-76607381D02*
X145684334Y-76607381D01*
X145970048Y-76607381D02*
X145970048Y-75607381D01*
X145874810Y-75750238D01*
X145779572Y-75845476D01*
X145684334Y-75893095D01*
X146684334Y-76226429D02*
X147446239Y-76226429D01*
X148398620Y-75607381D02*
X147922429Y-75607381D01*
X147874810Y-76083571D01*
X147922429Y-76035952D01*
X148017667Y-75988333D01*
X148255763Y-75988333D01*
X148351001Y-76035952D01*
X148398620Y-76083571D01*
X148446239Y-76178810D01*
X148446239Y-76416905D01*
X148398620Y-76512143D01*
X148351001Y-76559762D01*
X148255763Y-76607381D01*
X148017667Y-76607381D01*
X147922429Y-76559762D01*
X147874810Y-76512143D01*
X148779572Y-75607381D02*
X149017667Y-76607381D01*
X149208144Y-75893095D01*
X149398620Y-76607381D01*
X149636715Y-75607381D01*
X150446239Y-75607381D02*
X150255762Y-75607381D01*
X150160524Y-75655000D01*
X150112905Y-75702619D01*
X150017667Y-75845476D01*
X149970048Y-76035952D01*
X149970048Y-76416905D01*
X150017667Y-76512143D01*
X150065286Y-76559762D01*
X150160524Y-76607381D01*
X150351001Y-76607381D01*
X150446239Y-76559762D01*
X150493858Y-76512143D01*
X150541477Y-76416905D01*
X150541477Y-76178810D01*
X150493858Y-76083571D01*
X150446239Y-76035952D01*
X150351001Y-75988333D01*
X150160524Y-75988333D01*
X150065286Y-76035952D01*
X150017667Y-76083571D01*
X149970048Y-76178810D01*
D13*
X145077190Y-74535952D02*
X145481952Y-74535952D01*
X145529571Y-74512143D01*
X145553381Y-74488333D01*
X145577190Y-74440714D01*
X145577190Y-74345476D01*
X145553381Y-74297857D01*
X145529571Y-74274048D01*
X145481952Y-74250238D01*
X145077190Y-74250238D01*
X145124810Y-74035952D02*
X145101000Y-74012142D01*
X145077190Y-73964523D01*
X145077190Y-73845476D01*
X145101000Y-73797857D01*
X145124810Y-73774047D01*
X145172429Y-73750238D01*
X145220048Y-73750238D01*
X145291476Y-73774047D01*
X145577190Y-74059761D01*
X145577190Y-73750238D01*
D12*
X146113381Y-85220238D02*
X146113381Y-85791667D01*
X146113381Y-85505953D02*
X145113381Y-85505953D01*
X145256238Y-85601191D01*
X145351476Y-85696429D01*
X145399095Y-85791667D01*
X145113381Y-84601191D02*
X145113381Y-84505952D01*
X145161000Y-84410714D01*
X145208619Y-84363095D01*
X145303857Y-84315476D01*
X145494333Y-84267857D01*
X145732429Y-84267857D01*
X145922905Y-84315476D01*
X146018143Y-84363095D01*
X146065762Y-84410714D01*
X146113381Y-84505952D01*
X146113381Y-84601191D01*
X146065762Y-84696429D01*
X146018143Y-84744048D01*
X145922905Y-84791667D01*
X145732429Y-84839286D01*
X145494333Y-84839286D01*
X145303857Y-84791667D01*
X145208619Y-84744048D01*
X145161000Y-84696429D01*
X145113381Y-84601191D01*
X146113381Y-83839286D02*
X145113381Y-83839286D01*
X145732429Y-83744048D02*
X146113381Y-83458333D01*
X145446714Y-83458333D02*
X145827667Y-83839286D01*
D13*
X147637190Y-84708333D02*
X147399095Y-84875000D01*
X147637190Y-84994047D02*
X147137190Y-84994047D01*
X147137190Y-84803571D01*
X147161000Y-84755952D01*
X147184810Y-84732143D01*
X147232429Y-84708333D01*
X147303857Y-84708333D01*
X147351476Y-84732143D01*
X147375286Y-84755952D01*
X147399095Y-84803571D01*
X147399095Y-84994047D01*
X147184810Y-84517857D02*
X147161000Y-84494047D01*
X147137190Y-84446428D01*
X147137190Y-84327381D01*
X147161000Y-84279762D01*
X147184810Y-84255952D01*
X147232429Y-84232143D01*
X147280048Y-84232143D01*
X147351476Y-84255952D01*
X147637190Y-84541666D01*
X147637190Y-84232143D01*
D12*
X146113381Y-88946428D02*
X146113381Y-89517857D01*
X146113381Y-89232143D02*
X145113381Y-89232143D01*
X145256238Y-89327381D01*
X145351476Y-89422619D01*
X145399095Y-89517857D01*
X145113381Y-88327381D02*
X145113381Y-88232142D01*
X145161000Y-88136904D01*
X145208619Y-88089285D01*
X145303857Y-88041666D01*
X145494333Y-87994047D01*
X145732429Y-87994047D01*
X145922905Y-88041666D01*
X146018143Y-88089285D01*
X146065762Y-88136904D01*
X146113381Y-88232142D01*
X146113381Y-88327381D01*
X146065762Y-88422619D01*
X146018143Y-88470238D01*
X145922905Y-88517857D01*
X145732429Y-88565476D01*
X145494333Y-88565476D01*
X145303857Y-88517857D01*
X145208619Y-88470238D01*
X145161000Y-88422619D01*
X145113381Y-88327381D01*
X145113381Y-87375000D02*
X145113381Y-87279761D01*
X145161000Y-87184523D01*
X145208619Y-87136904D01*
X145303857Y-87089285D01*
X145494333Y-87041666D01*
X145732429Y-87041666D01*
X145922905Y-87089285D01*
X146018143Y-87136904D01*
X146065762Y-87184523D01*
X146113381Y-87279761D01*
X146113381Y-87375000D01*
X146065762Y-87470238D01*
X146018143Y-87517857D01*
X145922905Y-87565476D01*
X145732429Y-87613095D01*
X145494333Y-87613095D01*
X145303857Y-87565476D01*
X145208619Y-87517857D01*
X145161000Y-87470238D01*
X145113381Y-87375000D01*
X146113381Y-86613095D02*
X145113381Y-86613095D01*
X145732429Y-86517857D02*
X146113381Y-86232142D01*
X145446714Y-86232142D02*
X145827667Y-86613095D01*
D13*
X147637190Y-87958333D02*
X147399095Y-88125000D01*
X147637190Y-88244047D02*
X147137190Y-88244047D01*
X147137190Y-88053571D01*
X147161000Y-88005952D01*
X147184810Y-87982143D01*
X147232429Y-87958333D01*
X147303857Y-87958333D01*
X147351476Y-87982143D01*
X147375286Y-88005952D01*
X147399095Y-88053571D01*
X147399095Y-88244047D01*
X147637190Y-87482143D02*
X147637190Y-87767857D01*
X147637190Y-87625000D02*
X147137190Y-87625000D01*
X147208619Y-87672619D01*
X147256238Y-87720238D01*
X147280048Y-87767857D01*
D12*
X148322905Y-78067381D02*
X147846714Y-78067381D01*
X147799095Y-78543571D01*
X147846714Y-78495952D01*
X147941952Y-78448333D01*
X148180048Y-78448333D01*
X148275286Y-78495952D01*
X148322905Y-78543571D01*
X148370524Y-78638810D01*
X148370524Y-78876905D01*
X148322905Y-78972143D01*
X148275286Y-79019762D01*
X148180048Y-79067381D01*
X147941952Y-79067381D01*
X147846714Y-79019762D01*
X147799095Y-78972143D01*
X148989571Y-78067381D02*
X149084810Y-78067381D01*
X149180048Y-78115000D01*
X149227667Y-78162619D01*
X149275286Y-78257857D01*
X149322905Y-78448333D01*
X149322905Y-78686429D01*
X149275286Y-78876905D01*
X149227667Y-78972143D01*
X149180048Y-79019762D01*
X149084810Y-79067381D01*
X148989571Y-79067381D01*
X148894333Y-79019762D01*
X148846714Y-78972143D01*
X148799095Y-78876905D01*
X148751476Y-78686429D01*
X148751476Y-78448333D01*
X148799095Y-78257857D01*
X148846714Y-78162619D01*
X148894333Y-78115000D01*
X148989571Y-78067381D01*
D13*
X148477667Y-77091190D02*
X148311000Y-76853095D01*
X148191953Y-77091190D02*
X148191953Y-76591190D01*
X148382429Y-76591190D01*
X148430048Y-76615000D01*
X148453857Y-76638810D01*
X148477667Y-76686429D01*
X148477667Y-76757857D01*
X148453857Y-76805476D01*
X148430048Y-76829286D01*
X148382429Y-76853095D01*
X148191953Y-76853095D01*
X148906238Y-76757857D02*
X148906238Y-77091190D01*
X148787191Y-76567381D02*
X148668143Y-76924524D01*
X148977667Y-76924524D01*
D12*
X152673381Y-72143095D02*
X152673381Y-72619286D01*
X153149571Y-72666905D01*
X153101952Y-72619286D01*
X153054333Y-72524048D01*
X153054333Y-72285952D01*
X153101952Y-72190714D01*
X153149571Y-72143095D01*
X153244810Y-72095476D01*
X153482905Y-72095476D01*
X153578143Y-72143095D01*
X153625762Y-72190714D01*
X153673381Y-72285952D01*
X153673381Y-72524048D01*
X153625762Y-72619286D01*
X153578143Y-72666905D01*
X152673381Y-71476429D02*
X152673381Y-71381190D01*
X152721000Y-71285952D01*
X152768619Y-71238333D01*
X152863857Y-71190714D01*
X153054333Y-71143095D01*
X153292429Y-71143095D01*
X153482905Y-71190714D01*
X153578143Y-71238333D01*
X153625762Y-71285952D01*
X153673381Y-71381190D01*
X153673381Y-71476429D01*
X153625762Y-71571667D01*
X153578143Y-71619286D01*
X153482905Y-71666905D01*
X153292429Y-71714524D01*
X153054333Y-71714524D01*
X152863857Y-71666905D01*
X152768619Y-71619286D01*
X152721000Y-71571667D01*
X152673381Y-71476429D01*
D13*
X151697190Y-71988333D02*
X151459095Y-72155000D01*
X151697190Y-72274047D02*
X151197190Y-72274047D01*
X151197190Y-72083571D01*
X151221000Y-72035952D01*
X151244810Y-72012143D01*
X151292429Y-71988333D01*
X151363857Y-71988333D01*
X151411476Y-72012143D01*
X151435286Y-72035952D01*
X151459095Y-72083571D01*
X151459095Y-72274047D01*
X151197190Y-71535952D02*
X151197190Y-71774047D01*
X151435286Y-71797857D01*
X151411476Y-71774047D01*
X151387667Y-71726428D01*
X151387667Y-71607381D01*
X151411476Y-71559762D01*
X151435286Y-71535952D01*
X151482905Y-71512143D01*
X151601952Y-71512143D01*
X151649571Y-71535952D01*
X151673381Y-71559762D01*
X151697190Y-71607381D01*
X151697190Y-71726428D01*
X151673381Y-71774047D01*
X151649571Y-71797857D01*
D12*
X150093381Y-72133095D02*
X150093381Y-72609286D01*
X150569571Y-72656905D01*
X150521952Y-72609286D01*
X150474333Y-72514048D01*
X150474333Y-72275952D01*
X150521952Y-72180714D01*
X150569571Y-72133095D01*
X150664810Y-72085476D01*
X150902905Y-72085476D01*
X150998143Y-72133095D01*
X151045762Y-72180714D01*
X151093381Y-72275952D01*
X151093381Y-72514048D01*
X151045762Y-72609286D01*
X150998143Y-72656905D01*
X150093381Y-71466429D02*
X150093381Y-71371190D01*
X150141000Y-71275952D01*
X150188619Y-71228333D01*
X150283857Y-71180714D01*
X150474333Y-71133095D01*
X150712429Y-71133095D01*
X150902905Y-71180714D01*
X150998143Y-71228333D01*
X151045762Y-71275952D01*
X151093381Y-71371190D01*
X151093381Y-71466429D01*
X151045762Y-71561667D01*
X150998143Y-71609286D01*
X150902905Y-71656905D01*
X150712429Y-71704524D01*
X150474333Y-71704524D01*
X150283857Y-71656905D01*
X150188619Y-71609286D01*
X150141000Y-71561667D01*
X150093381Y-71466429D01*
D13*
X149117190Y-71978333D02*
X148879095Y-72145000D01*
X149117190Y-72264047D02*
X148617190Y-72264047D01*
X148617190Y-72073571D01*
X148641000Y-72025952D01*
X148664810Y-72002143D01*
X148712429Y-71978333D01*
X148783857Y-71978333D01*
X148831476Y-72002143D01*
X148855286Y-72025952D01*
X148879095Y-72073571D01*
X148879095Y-72264047D01*
X148617190Y-71549762D02*
X148617190Y-71645000D01*
X148641000Y-71692619D01*
X148664810Y-71716428D01*
X148736238Y-71764047D01*
X148831476Y-71787857D01*
X149021952Y-71787857D01*
X149069571Y-71764047D01*
X149093381Y-71740238D01*
X149117190Y-71692619D01*
X149117190Y-71597381D01*
X149093381Y-71549762D01*
X149069571Y-71525952D01*
X149021952Y-71502143D01*
X148902905Y-71502143D01*
X148855286Y-71525952D01*
X148831476Y-71549762D01*
X148807667Y-71597381D01*
X148807667Y-71692619D01*
X148831476Y-71740238D01*
X148855286Y-71764047D01*
X148902905Y-71787857D01*
D12*
X152923381Y-91035000D02*
X152923381Y-90463571D01*
X153923381Y-90749286D02*
X152923381Y-90749286D01*
X153923381Y-89654047D02*
X153923381Y-90130238D01*
X152923381Y-90130238D01*
X152923381Y-89463571D02*
X153923381Y-89130238D01*
X152923381Y-88796904D01*
X152923381Y-88034999D02*
X152923381Y-88225476D01*
X152971000Y-88320714D01*
X153018619Y-88368333D01*
X153161476Y-88463571D01*
X153351952Y-88511190D01*
X153732905Y-88511190D01*
X153828143Y-88463571D01*
X153875762Y-88415952D01*
X153923381Y-88320714D01*
X153923381Y-88130237D01*
X153875762Y-88034999D01*
X153828143Y-87987380D01*
X153732905Y-87939761D01*
X153494810Y-87939761D01*
X153399571Y-87987380D01*
X153351952Y-88034999D01*
X153304333Y-88130237D01*
X153304333Y-88320714D01*
X153351952Y-88415952D01*
X153399571Y-88463571D01*
X153494810Y-88511190D01*
X153018619Y-87558809D02*
X152971000Y-87511190D01*
X152923381Y-87415952D01*
X152923381Y-87177856D01*
X152971000Y-87082618D01*
X153018619Y-87034999D01*
X153113857Y-86987380D01*
X153209095Y-86987380D01*
X153351952Y-87034999D01*
X153923381Y-87606428D01*
X153923381Y-86987380D01*
X152923381Y-86082618D02*
X152923381Y-86558809D01*
X153399571Y-86606428D01*
X153351952Y-86558809D01*
X153304333Y-86463571D01*
X153304333Y-86225475D01*
X153351952Y-86130237D01*
X153399571Y-86082618D01*
X153494810Y-86034999D01*
X153732905Y-86034999D01*
X153828143Y-86082618D01*
X153875762Y-86130237D01*
X153923381Y-86225475D01*
X153923381Y-86463571D01*
X153875762Y-86558809D01*
X153828143Y-86606428D01*
X152923381Y-85177856D02*
X152923381Y-85368333D01*
X152971000Y-85463571D01*
X153018619Y-85511190D01*
X153161476Y-85606428D01*
X153351952Y-85654047D01*
X153732905Y-85654047D01*
X153828143Y-85606428D01*
X153875762Y-85558809D01*
X153923381Y-85463571D01*
X153923381Y-85273094D01*
X153875762Y-85177856D01*
X153828143Y-85130237D01*
X153732905Y-85082618D01*
X153494810Y-85082618D01*
X153399571Y-85130237D01*
X153351952Y-85177856D01*
X153304333Y-85273094D01*
X153304333Y-85463571D01*
X153351952Y-85558809D01*
X153399571Y-85606428D01*
X153494810Y-85654047D01*
X153923381Y-84606428D02*
X153923381Y-84415952D01*
X153875762Y-84320713D01*
X153828143Y-84273094D01*
X153685286Y-84177856D01*
X153494810Y-84130237D01*
X153113857Y-84130237D01*
X153018619Y-84177856D01*
X152971000Y-84225475D01*
X152923381Y-84320713D01*
X152923381Y-84511190D01*
X152971000Y-84606428D01*
X153018619Y-84654047D01*
X153113857Y-84701666D01*
X153351952Y-84701666D01*
X153447190Y-84654047D01*
X153494810Y-84606428D01*
X153542429Y-84511190D01*
X153542429Y-84320713D01*
X153494810Y-84225475D01*
X153447190Y-84177856D01*
X153351952Y-84130237D01*
D13*
X150190048Y-87261190D02*
X150190048Y-87665952D01*
X150213857Y-87713571D01*
X150237667Y-87737381D01*
X150285286Y-87761190D01*
X150380524Y-87761190D01*
X150428143Y-87737381D01*
X150451952Y-87713571D01*
X150475762Y-87665952D01*
X150475762Y-87261190D01*
X150975762Y-87761190D02*
X150690048Y-87761190D01*
X150832905Y-87761190D02*
X150832905Y-87261190D01*
X150785286Y-87332619D01*
X150737667Y-87380238D01*
X150690048Y-87404048D01*
D12*
X155796714Y-89269761D02*
X156463381Y-89269761D01*
X155415762Y-89507857D02*
X156130048Y-89745952D01*
X156130048Y-89126904D01*
X156415762Y-88698333D02*
X156463381Y-88698333D01*
X156558619Y-88745952D01*
X156606238Y-88793571D01*
X155463381Y-88365000D02*
X155463381Y-87698333D01*
X156463381Y-88126905D01*
X155796714Y-86888809D02*
X156463381Y-86888809D01*
X155796714Y-87317381D02*
X156320524Y-87317381D01*
X156415762Y-87269762D01*
X156463381Y-87174524D01*
X156463381Y-87031666D01*
X156415762Y-86936428D01*
X156368143Y-86888809D01*
X155939571Y-86079285D02*
X155939571Y-86412619D01*
X156463381Y-86412619D02*
X155463381Y-86412619D01*
X155463381Y-85936428D01*
X157574334Y-85782143D02*
X157526715Y-85829762D01*
X157383858Y-85877381D01*
X157288620Y-85877381D01*
X157145762Y-85829762D01*
X157050524Y-85734524D01*
X157002905Y-85639286D01*
X156955286Y-85448810D01*
X156955286Y-85305952D01*
X157002905Y-85115476D01*
X157050524Y-85020238D01*
X157145762Y-84925000D01*
X157288620Y-84877381D01*
X157383858Y-84877381D01*
X157526715Y-84925000D01*
X157574334Y-84972619D01*
X158526715Y-85877381D02*
X157955286Y-85877381D01*
X158241000Y-85877381D02*
X158241000Y-84877381D01*
X158145762Y-85020238D01*
X158050524Y-85115476D01*
X157955286Y-85163095D01*
X154153381Y-89412619D02*
X154153381Y-89984048D01*
X154153381Y-89698334D02*
X153153381Y-89698334D01*
X153296238Y-89793572D01*
X153391476Y-89888810D01*
X153439095Y-89984048D01*
X153153381Y-88793572D02*
X153153381Y-88698333D01*
X153201000Y-88603095D01*
X153248619Y-88555476D01*
X153343857Y-88507857D01*
X153534333Y-88460238D01*
X153772429Y-88460238D01*
X153962905Y-88507857D01*
X154058143Y-88555476D01*
X154105762Y-88603095D01*
X154153381Y-88698333D01*
X154153381Y-88793572D01*
X154105762Y-88888810D01*
X154058143Y-88936429D01*
X153962905Y-88984048D01*
X153772429Y-89031667D01*
X153534333Y-89031667D01*
X153343857Y-88984048D01*
X153248619Y-88936429D01*
X153201000Y-88888810D01*
X153153381Y-88793572D01*
X153153381Y-87841191D02*
X153153381Y-87745952D01*
X153201000Y-87650714D01*
X153248619Y-87603095D01*
X153343857Y-87555476D01*
X153534333Y-87507857D01*
X153772429Y-87507857D01*
X153962905Y-87555476D01*
X154058143Y-87603095D01*
X154105762Y-87650714D01*
X154153381Y-87745952D01*
X154153381Y-87841191D01*
X154105762Y-87936429D01*
X154058143Y-87984048D01*
X153962905Y-88031667D01*
X153772429Y-88079286D01*
X153534333Y-88079286D01*
X153343857Y-88031667D01*
X153248619Y-87984048D01*
X153201000Y-87936429D01*
X153153381Y-87841191D01*
X153486714Y-87079286D02*
X154153381Y-87079286D01*
X153581952Y-87079286D02*
X153534333Y-87031667D01*
X153486714Y-86936429D01*
X153486714Y-86793571D01*
X153534333Y-86698333D01*
X153629571Y-86650714D01*
X154153381Y-86650714D01*
X153629571Y-85841190D02*
X153629571Y-86174524D01*
X154153381Y-86174524D02*
X153153381Y-86174524D01*
X153153381Y-85698333D01*
X153464334Y-90262143D02*
X153416715Y-90309762D01*
X153273858Y-90357381D01*
X153178620Y-90357381D01*
X153035762Y-90309762D01*
X152940524Y-90214524D01*
X152892905Y-90119286D01*
X152845286Y-89928810D01*
X152845286Y-89785952D01*
X152892905Y-89595476D01*
X152940524Y-89500238D01*
X153035762Y-89405000D01*
X153178620Y-89357381D01*
X153273858Y-89357381D01*
X153416715Y-89405000D01*
X153464334Y-89452619D01*
X153845286Y-89452619D02*
X153892905Y-89405000D01*
X153988143Y-89357381D01*
X154226239Y-89357381D01*
X154321477Y-89405000D01*
X154369096Y-89452619D01*
X154416715Y-89547857D01*
X154416715Y-89643095D01*
X154369096Y-89785952D01*
X153797667Y-90357381D01*
X154416715Y-90357381D01*
X153369572Y-78727381D02*
X152798143Y-78727381D01*
X153083857Y-78727381D02*
X153083857Y-77727381D01*
X152988619Y-77870238D01*
X152893381Y-77965476D01*
X152798143Y-78013095D01*
X153988619Y-77727381D02*
X154083858Y-77727381D01*
X154179096Y-77775000D01*
X154226715Y-77822619D01*
X154274334Y-77917857D01*
X154321953Y-78108333D01*
X154321953Y-78346429D01*
X154274334Y-78536905D01*
X154226715Y-78632143D01*
X154179096Y-78679762D01*
X154083858Y-78727381D01*
X153988619Y-78727381D01*
X153893381Y-78679762D01*
X153845762Y-78632143D01*
X153798143Y-78536905D01*
X153750524Y-78346429D01*
X153750524Y-78108333D01*
X153798143Y-77917857D01*
X153845762Y-77822619D01*
X153893381Y-77775000D01*
X153988619Y-77727381D01*
X155179096Y-78060714D02*
X155179096Y-78727381D01*
X154750524Y-78060714D02*
X154750524Y-78584524D01*
X154798143Y-78679762D01*
X154893381Y-78727381D01*
X155036239Y-78727381D01*
X155131477Y-78679762D01*
X155179096Y-78632143D01*
X155988620Y-78203571D02*
X155655286Y-78203571D01*
X155655286Y-78727381D02*
X155655286Y-77727381D01*
X156131477Y-77727381D01*
X156994334Y-80462143D02*
X156946715Y-80509762D01*
X156803858Y-80557381D01*
X156708620Y-80557381D01*
X156565762Y-80509762D01*
X156470524Y-80414524D01*
X156422905Y-80319286D01*
X156375286Y-80128810D01*
X156375286Y-79985952D01*
X156422905Y-79795476D01*
X156470524Y-79700238D01*
X156565762Y-79605000D01*
X156708620Y-79557381D01*
X156803858Y-79557381D01*
X156946715Y-79605000D01*
X156994334Y-79652619D01*
X157327667Y-79557381D02*
X157946715Y-79557381D01*
X157613381Y-79938333D01*
X157756239Y-79938333D01*
X157851477Y-79985952D01*
X157899096Y-80033571D01*
X157946715Y-80128810D01*
X157946715Y-80366905D01*
X157899096Y-80462143D01*
X157851477Y-80509762D01*
X157756239Y-80557381D01*
X157470524Y-80557381D01*
X157375286Y-80509762D01*
X157327667Y-80462143D01*
X149001953Y-81677381D02*
X148525762Y-81677381D01*
X148478143Y-82153571D01*
X148525762Y-82105952D01*
X148621000Y-82058333D01*
X148859096Y-82058333D01*
X148954334Y-82105952D01*
X149001953Y-82153571D01*
X149049572Y-82248810D01*
X149049572Y-82486905D01*
X149001953Y-82582143D01*
X148954334Y-82629762D01*
X148859096Y-82677381D01*
X148621000Y-82677381D01*
X148525762Y-82629762D01*
X148478143Y-82582143D01*
X149906715Y-81677381D02*
X149716238Y-81677381D01*
X149621000Y-81725000D01*
X149573381Y-81772619D01*
X149478143Y-81915476D01*
X149430524Y-82105952D01*
X149430524Y-82486905D01*
X149478143Y-82582143D01*
X149525762Y-82629762D01*
X149621000Y-82677381D01*
X149811477Y-82677381D01*
X149906715Y-82629762D01*
X149954334Y-82582143D01*
X150001953Y-82486905D01*
X150001953Y-82248810D01*
X149954334Y-82153571D01*
X149906715Y-82105952D01*
X149811477Y-82058333D01*
X149621000Y-82058333D01*
X149525762Y-82105952D01*
X149478143Y-82153571D01*
X149430524Y-82248810D01*
X150621000Y-81677381D02*
X150716239Y-81677381D01*
X150811477Y-81725000D01*
X150859096Y-81772619D01*
X150906715Y-81867857D01*
X150954334Y-82058333D01*
X150954334Y-82296429D01*
X150906715Y-82486905D01*
X150859096Y-82582143D01*
X150811477Y-82629762D01*
X150716239Y-82677381D01*
X150621000Y-82677381D01*
X150525762Y-82629762D01*
X150478143Y-82582143D01*
X150430524Y-82486905D01*
X150382905Y-82296429D01*
X150382905Y-82058333D01*
X150430524Y-81867857D01*
X150478143Y-81772619D01*
X150525762Y-81725000D01*
X150621000Y-81677381D01*
X151382905Y-82677381D02*
X151382905Y-81677381D01*
X151478143Y-82296429D02*
X151763858Y-82677381D01*
X151763858Y-82010714D02*
X151382905Y-82391667D01*
D13*
X150037667Y-84201190D02*
X149871000Y-83963095D01*
X149751953Y-84201190D02*
X149751953Y-83701190D01*
X149942429Y-83701190D01*
X149990048Y-83725000D01*
X150013857Y-83748810D01*
X150037667Y-83796429D01*
X150037667Y-83867857D01*
X150013857Y-83915476D01*
X149990048Y-83939286D01*
X149942429Y-83963095D01*
X149751953Y-83963095D01*
X150204334Y-83701190D02*
X150513857Y-83701190D01*
X150347191Y-83891667D01*
X150418619Y-83891667D01*
X150466238Y-83915476D01*
X150490048Y-83939286D01*
X150513857Y-83986905D01*
X150513857Y-84105952D01*
X150490048Y-84153571D01*
X150466238Y-84177381D01*
X150418619Y-84201190D01*
X150275762Y-84201190D01*
X150228143Y-84177381D01*
X150204334Y-84153571D01*
D12*
X157533381Y-84786428D02*
X157533381Y-85357857D01*
X157533381Y-85072143D02*
X156533381Y-85072143D01*
X156676238Y-85167381D01*
X156771476Y-85262619D01*
X156819095Y-85357857D01*
X156866714Y-83167380D02*
X157533381Y-83167380D01*
X156866714Y-83595952D02*
X157390524Y-83595952D01*
X157485762Y-83548333D01*
X157533381Y-83453095D01*
X157533381Y-83310237D01*
X157485762Y-83214999D01*
X157438143Y-83167380D01*
X157533381Y-82691190D02*
X156533381Y-82691190D01*
X157009571Y-82691190D02*
X157009571Y-82119761D01*
X157533381Y-82119761D02*
X156533381Y-82119761D01*
D14*
X154331000Y-83986429D02*
X154045286Y-83986429D01*
X154045286Y-83386429D01*
X154845286Y-83986429D02*
X154502429Y-83986429D01*
X154673857Y-83986429D02*
X154673857Y-83386429D01*
X154616714Y-83472143D01*
X154559572Y-83529286D01*
X154502429Y-83557857D01*
D12*
X153553381Y-81596428D02*
X153553381Y-82167857D01*
X153553381Y-81882143D02*
X152553381Y-81882143D01*
X152696238Y-81977381D01*
X152791476Y-82072619D01*
X152839095Y-82167857D01*
X152553381Y-80977381D02*
X152553381Y-80882142D01*
X152601000Y-80786904D01*
X152648619Y-80739285D01*
X152743857Y-80691666D01*
X152934333Y-80644047D01*
X153172429Y-80644047D01*
X153362905Y-80691666D01*
X153458143Y-80739285D01*
X153505762Y-80786904D01*
X153553381Y-80882142D01*
X153553381Y-80977381D01*
X153505762Y-81072619D01*
X153458143Y-81120238D01*
X153362905Y-81167857D01*
X153172429Y-81215476D01*
X152934333Y-81215476D01*
X152743857Y-81167857D01*
X152648619Y-81120238D01*
X152601000Y-81072619D01*
X152553381Y-80977381D01*
X152886714Y-79786904D02*
X153553381Y-79786904D01*
X152886714Y-80215476D02*
X153410524Y-80215476D01*
X153505762Y-80167857D01*
X153553381Y-80072619D01*
X153553381Y-79929761D01*
X153505762Y-79834523D01*
X153458143Y-79786904D01*
X153029571Y-78977380D02*
X153029571Y-79310714D01*
X153553381Y-79310714D02*
X152553381Y-79310714D01*
X152553381Y-78834523D01*
X151074334Y-78362143D02*
X151026715Y-78409762D01*
X150883858Y-78457381D01*
X150788620Y-78457381D01*
X150645762Y-78409762D01*
X150550524Y-78314524D01*
X150502905Y-78219286D01*
X150455286Y-78028810D01*
X150455286Y-77885952D01*
X150502905Y-77695476D01*
X150550524Y-77600238D01*
X150645762Y-77505000D01*
X150788620Y-77457381D01*
X150883858Y-77457381D01*
X151026715Y-77505000D01*
X151074334Y-77552619D01*
X151931477Y-77790714D02*
X151931477Y-78457381D01*
X151693381Y-77409762D02*
X151455286Y-78124048D01*
X152074334Y-78124048D01*
X151333381Y-82072619D02*
X151333381Y-82644048D01*
X151333381Y-82358334D02*
X150333381Y-82358334D01*
X150476238Y-82453572D01*
X150571476Y-82548810D01*
X150619095Y-82644048D01*
X150333381Y-81453572D02*
X150333381Y-81358333D01*
X150381000Y-81263095D01*
X150428619Y-81215476D01*
X150523857Y-81167857D01*
X150714333Y-81120238D01*
X150952429Y-81120238D01*
X151142905Y-81167857D01*
X151238143Y-81215476D01*
X151285762Y-81263095D01*
X151333381Y-81358333D01*
X151333381Y-81453572D01*
X151285762Y-81548810D01*
X151238143Y-81596429D01*
X151142905Y-81644048D01*
X150952429Y-81691667D01*
X150714333Y-81691667D01*
X150523857Y-81644048D01*
X150428619Y-81596429D01*
X150381000Y-81548810D01*
X150333381Y-81453572D01*
X150333381Y-80501191D02*
X150333381Y-80405952D01*
X150381000Y-80310714D01*
X150428619Y-80263095D01*
X150523857Y-80215476D01*
X150714333Y-80167857D01*
X150952429Y-80167857D01*
X151142905Y-80215476D01*
X151238143Y-80263095D01*
X151285762Y-80310714D01*
X151333381Y-80405952D01*
X151333381Y-80501191D01*
X151285762Y-80596429D01*
X151238143Y-80644048D01*
X151142905Y-80691667D01*
X150952429Y-80739286D01*
X150714333Y-80739286D01*
X150523857Y-80691667D01*
X150428619Y-80644048D01*
X150381000Y-80596429D01*
X150333381Y-80501191D01*
X150666714Y-79739286D02*
X151333381Y-79739286D01*
X150761952Y-79739286D02*
X150714333Y-79691667D01*
X150666714Y-79596429D01*
X150666714Y-79453571D01*
X150714333Y-79358333D01*
X150809571Y-79310714D01*
X151333381Y-79310714D01*
X150809571Y-78501190D02*
X150809571Y-78834524D01*
X151333381Y-78834524D02*
X150333381Y-78834524D01*
X150333381Y-78358333D01*
X146964334Y-80912143D02*
X146916715Y-80959762D01*
X146773858Y-81007381D01*
X146678620Y-81007381D01*
X146535762Y-80959762D01*
X146440524Y-80864524D01*
X146392905Y-80769286D01*
X146345286Y-80578810D01*
X146345286Y-80435952D01*
X146392905Y-80245476D01*
X146440524Y-80150238D01*
X146535762Y-80055000D01*
X146678620Y-80007381D01*
X146773858Y-80007381D01*
X146916715Y-80055000D01*
X146964334Y-80102619D01*
X147869096Y-80007381D02*
X147392905Y-80007381D01*
X147345286Y-80483571D01*
X147392905Y-80435952D01*
X147488143Y-80388333D01*
X147726239Y-80388333D01*
X147821477Y-80435952D01*
X147869096Y-80483571D01*
X147916715Y-80578810D01*
X147916715Y-80816905D01*
X147869096Y-80912143D01*
X147821477Y-80959762D01*
X147726239Y-81007381D01*
X147488143Y-81007381D01*
X147392905Y-80959762D01*
X147345286Y-80912143D01*
X155463381Y-74277381D02*
X154891952Y-74277381D01*
X155177666Y-74277381D02*
X155177666Y-73277381D01*
X155082428Y-73420238D01*
X154987190Y-73515476D01*
X154891952Y-73563095D01*
X156082428Y-73277381D02*
X156177667Y-73277381D01*
X156272905Y-73325000D01*
X156320524Y-73372619D01*
X156368143Y-73467857D01*
X156415762Y-73658333D01*
X156415762Y-73896429D01*
X156368143Y-74086905D01*
X156320524Y-74182143D01*
X156272905Y-74229762D01*
X156177667Y-74277381D01*
X156082428Y-74277381D01*
X155987190Y-74229762D01*
X155939571Y-74182143D01*
X155891952Y-74086905D01*
X155844333Y-73896429D01*
X155844333Y-73658333D01*
X155891952Y-73467857D01*
X155939571Y-73372619D01*
X155987190Y-73325000D01*
X156082428Y-73277381D01*
X157034809Y-73277381D02*
X157130048Y-73277381D01*
X157225286Y-73325000D01*
X157272905Y-73372619D01*
X157320524Y-73467857D01*
X157368143Y-73658333D01*
X157368143Y-73896429D01*
X157320524Y-74086905D01*
X157272905Y-74182143D01*
X157225286Y-74229762D01*
X157130048Y-74277381D01*
X157034809Y-74277381D01*
X156939571Y-74229762D01*
X156891952Y-74182143D01*
X156844333Y-74086905D01*
X156796714Y-73896429D01*
X156796714Y-73658333D01*
X156844333Y-73467857D01*
X156891952Y-73372619D01*
X156939571Y-73325000D01*
X157034809Y-73277381D01*
X158225286Y-73610714D02*
X158225286Y-74277381D01*
X157796714Y-73610714D02*
X157796714Y-74134524D01*
X157844333Y-74229762D01*
X157939571Y-74277381D01*
X158082429Y-74277381D01*
X158177667Y-74229762D01*
X158225286Y-74182143D01*
X159034810Y-73753571D02*
X158701476Y-73753571D01*
X158701476Y-74277381D02*
X158701476Y-73277381D01*
X159177667Y-73277381D01*
D15*
X156877667Y-77260714D02*
X156839572Y-77298810D01*
X156725286Y-77336905D01*
X156649096Y-77336905D01*
X156534810Y-77298810D01*
X156458619Y-77222619D01*
X156420524Y-77146429D01*
X156382429Y-76994048D01*
X156382429Y-76879762D01*
X156420524Y-76727381D01*
X156458619Y-76651190D01*
X156534810Y-76575000D01*
X156649096Y-76536905D01*
X156725286Y-76536905D01*
X156839572Y-76575000D01*
X156877667Y-76613095D01*
X157563381Y-76536905D02*
X157411000Y-76536905D01*
X157334810Y-76575000D01*
X157296715Y-76613095D01*
X157220524Y-76727381D01*
X157182429Y-76879762D01*
X157182429Y-77184524D01*
X157220524Y-77260714D01*
X157258619Y-77298810D01*
X157334810Y-77336905D01*
X157487191Y-77336905D01*
X157563381Y-77298810D01*
X157601477Y-77260714D01*
X157639572Y-77184524D01*
X157639572Y-76994048D01*
X157601477Y-76917857D01*
X157563381Y-76879762D01*
X157487191Y-76841667D01*
X157334810Y-76841667D01*
X157258619Y-76879762D01*
X157220524Y-76917857D01*
X157182429Y-76994048D01*
D12*
X155473381Y-69977381D02*
X154901952Y-69977381D01*
X155187666Y-69977381D02*
X155187666Y-68977381D01*
X155092428Y-69120238D01*
X154997190Y-69215476D01*
X154901952Y-69263095D01*
X156092428Y-68977381D02*
X156187667Y-68977381D01*
X156282905Y-69025000D01*
X156330524Y-69072619D01*
X156378143Y-69167857D01*
X156425762Y-69358333D01*
X156425762Y-69596429D01*
X156378143Y-69786905D01*
X156330524Y-69882143D01*
X156282905Y-69929762D01*
X156187667Y-69977381D01*
X156092428Y-69977381D01*
X155997190Y-69929762D01*
X155949571Y-69882143D01*
X155901952Y-69786905D01*
X155854333Y-69596429D01*
X155854333Y-69358333D01*
X155901952Y-69167857D01*
X155949571Y-69072619D01*
X155997190Y-69025000D01*
X156092428Y-68977381D01*
X157044809Y-68977381D02*
X157140048Y-68977381D01*
X157235286Y-69025000D01*
X157282905Y-69072619D01*
X157330524Y-69167857D01*
X157378143Y-69358333D01*
X157378143Y-69596429D01*
X157330524Y-69786905D01*
X157282905Y-69882143D01*
X157235286Y-69929762D01*
X157140048Y-69977381D01*
X157044809Y-69977381D01*
X156949571Y-69929762D01*
X156901952Y-69882143D01*
X156854333Y-69786905D01*
X156806714Y-69596429D01*
X156806714Y-69358333D01*
X156854333Y-69167857D01*
X156901952Y-69072619D01*
X156949571Y-69025000D01*
X157044809Y-68977381D01*
X158235286Y-69310714D02*
X158235286Y-69977381D01*
X157806714Y-69310714D02*
X157806714Y-69834524D01*
X157854333Y-69929762D01*
X157949571Y-69977381D01*
X158092429Y-69977381D01*
X158187667Y-69929762D01*
X158235286Y-69882143D01*
X159044810Y-69453571D02*
X158711476Y-69453571D01*
X158711476Y-69977381D02*
X158711476Y-68977381D01*
X159187667Y-68977381D01*
D15*
X156887667Y-72960714D02*
X156849572Y-72998810D01*
X156735286Y-73036905D01*
X156659096Y-73036905D01*
X156544810Y-72998810D01*
X156468619Y-72922619D01*
X156430524Y-72846429D01*
X156392429Y-72694048D01*
X156392429Y-72579762D01*
X156430524Y-72427381D01*
X156468619Y-72351190D01*
X156544810Y-72275000D01*
X156659096Y-72236905D01*
X156735286Y-72236905D01*
X156849572Y-72275000D01*
X156887667Y-72313095D01*
X157154334Y-72236905D02*
X157687667Y-72236905D01*
X157344810Y-73036905D01*
D12*
X143783381Y-69627381D02*
X143211952Y-69627381D01*
X143497666Y-69627381D02*
X143497666Y-68627381D01*
X143402428Y-68770238D01*
X143307190Y-68865476D01*
X143211952Y-68913095D01*
X144402428Y-68627381D02*
X144497667Y-68627381D01*
X144592905Y-68675000D01*
X144640524Y-68722619D01*
X144688143Y-68817857D01*
X144735762Y-69008333D01*
X144735762Y-69246429D01*
X144688143Y-69436905D01*
X144640524Y-69532143D01*
X144592905Y-69579762D01*
X144497667Y-69627381D01*
X144402428Y-69627381D01*
X144307190Y-69579762D01*
X144259571Y-69532143D01*
X144211952Y-69436905D01*
X144164333Y-69246429D01*
X144164333Y-69008333D01*
X144211952Y-68817857D01*
X144259571Y-68722619D01*
X144307190Y-68675000D01*
X144402428Y-68627381D01*
X145354809Y-68627381D02*
X145450048Y-68627381D01*
X145545286Y-68675000D01*
X145592905Y-68722619D01*
X145640524Y-68817857D01*
X145688143Y-69008333D01*
X145688143Y-69246429D01*
X145640524Y-69436905D01*
X145592905Y-69532143D01*
X145545286Y-69579762D01*
X145450048Y-69627381D01*
X145354809Y-69627381D01*
X145259571Y-69579762D01*
X145211952Y-69532143D01*
X145164333Y-69436905D01*
X145116714Y-69246429D01*
X145116714Y-69008333D01*
X145164333Y-68817857D01*
X145211952Y-68722619D01*
X145259571Y-68675000D01*
X145354809Y-68627381D01*
X146116714Y-68960714D02*
X146116714Y-69627381D01*
X146116714Y-69055952D02*
X146164333Y-69008333D01*
X146259571Y-68960714D01*
X146402429Y-68960714D01*
X146497667Y-69008333D01*
X146545286Y-69103571D01*
X146545286Y-69627381D01*
X147354810Y-69103571D02*
X147021476Y-69103571D01*
X147021476Y-69627381D02*
X147021476Y-68627381D01*
X147497667Y-68627381D01*
X145214334Y-72675000D02*
X145181000Y-72708333D01*
X145081000Y-72741667D01*
X145014334Y-72741667D01*
X144914334Y-72708333D01*
X144847667Y-72641667D01*
X144814334Y-72575000D01*
X144781000Y-72441667D01*
X144781000Y-72341667D01*
X144814334Y-72208333D01*
X144847667Y-72141667D01*
X144914334Y-72075000D01*
X145014334Y-72041667D01*
X145081000Y-72041667D01*
X145181000Y-72075000D01*
X145214334Y-72108333D01*
X145614334Y-72341667D02*
X145547667Y-72308333D01*
X145514334Y-72275000D01*
X145481000Y-72208333D01*
X145481000Y-72175000D01*
X145514334Y-72108333D01*
X145547667Y-72075000D01*
X145614334Y-72041667D01*
X145747667Y-72041667D01*
X145814334Y-72075000D01*
X145847667Y-72108333D01*
X145881000Y-72175000D01*
X145881000Y-72208333D01*
X145847667Y-72275000D01*
X145814334Y-72308333D01*
X145747667Y-72341667D01*
X145614334Y-72341667D01*
X145547667Y-72375000D01*
X145514334Y-72408333D01*
X145481000Y-72475000D01*
X145481000Y-72608333D01*
X145514334Y-72675000D01*
X145547667Y-72708333D01*
X145614334Y-72741667D01*
X145747667Y-72741667D01*
X145814334Y-72708333D01*
X145847667Y-72675000D01*
X145881000Y-72608333D01*
X145881000Y-72475000D01*
X145847667Y-72408333D01*
X145814334Y-72375000D01*
X145747667Y-72341667D01*
M02*
