M48
INCH,TZ
T1C0.025
T2C0.032
T3C0.032
T4C0.040
%
G90
G05
T1
X54977Y-25087
X56064Y-42540
X58395Y-35535
X59000Y-39016
X59920Y-25102
X60919Y-41381
X67303Y-39368
X67540Y-41861
X68777Y-41499
X71992Y-39912
X72721Y-30253
X72740Y-38562
X73712Y-46897
T2
X38500Y-30500
X38500Y-31500
X38500Y-32500
X47000Y-29500
X47000Y-30500
X47000Y-31500
X47000Y-32500
X47000Y-33500
X62000Y-41500
X62000Y-42500
X62000Y-43500
X62000Y-44500
X62000Y-45500
X62500Y-26500
X63000Y-41500
X63000Y-42500
X63000Y-43500
X63000Y-44500
X63000Y-45500
X63500Y-26500
X64500Y-26500
X66000Y-26500
X67000Y-26500
X67000Y-42500
X67000Y-43500
X67000Y-44500
X67000Y-45500
X68000Y-26500
X68000Y-42500
X68000Y-43500
X68000Y-44500
X68000Y-45500
X69500Y-26500
X70500Y-26500
X71500Y-26500
T3
X49400Y-29000
X49500Y-26500
X50400Y-29000
X50500Y-26500
X51400Y-29000
X51500Y-26500
X52400Y-29000
X52500Y-26500
X53000Y-36500
X53000Y-39500
X53000Y-48000
X53400Y-29000
X53500Y-26500
X54000Y-48000
X54400Y-29000
X55000Y-36500
X55000Y-39500
X55000Y-48000
X55400Y-29000
X56000Y-32000
X56000Y-33000
X56000Y-34000
X56000Y-35000
X56000Y-46000
X56000Y-48000
X56400Y-29000
X57000Y-48000
X57500Y-32000
X57500Y-33000
X57500Y-34000
X57500Y-35000
X58000Y-46000
X58000Y-48000
X59000Y-32000
X59000Y-33000
X59000Y-34000
X59000Y-35000
X60000Y-48000
X60500Y-32000
X60500Y-33000
X60500Y-34000
X60500Y-35000
X61000Y-48000
X62000Y-48000
X63000Y-48000
X64000Y-29000
X64000Y-48000
X65000Y-29000
X65000Y-34000
X65000Y-36000
X65000Y-48000
X66000Y-48000
X67000Y-29000
X67000Y-30500
X67000Y-32500
X67000Y-48000
X68000Y-29000
X69000Y-29000
X69000Y-35000
X69000Y-38000
X69000Y-40000
X69000Y-48000
X70000Y-29000
X70000Y-38000
X70000Y-40000
X70000Y-48000
X71000Y-29000
X71000Y-35000
X72000Y-29000
X72000Y-42000
X72000Y-43000
X72000Y-44000
X72000Y-45000
X72000Y-46000
X73000Y-27500
X73000Y-29000
X73000Y-31500
X73000Y-32500
X73000Y-33500
X73000Y-34500
X73000Y-42000
X73000Y-43000
X73000Y-44000
X73000Y-45000
X73000Y-46000
X74000Y-26000
X74000Y-29000
X74000Y-31500
X74000Y-32500
X74000Y-33500
X74000Y-34500
X76000Y-27500
X77000Y-26000
X77000Y-29000
X77000Y-30000
X77000Y-31000
X77000Y-32000
X77000Y-33000
X77000Y-34000
X77000Y-35000
X77000Y-42000
X77000Y-43000
X77000Y-44000
X77000Y-45000
X77000Y-46000
X78000Y-29000
X78000Y-30000
X78000Y-31000
X78000Y-32000
X78000Y-33000
X78000Y-34000
X78000Y-35000
X78000Y-42000
X78000Y-43000
X78000Y-44000
X78000Y-45000
X78000Y-46000
X80000Y-31000
X80000Y-32000
X80000Y-33000
X80000Y-34000
X80000Y-35000
T4
X34800Y-39200
X34800Y-47050
X35000Y-31500
X35000Y-33500
X50500Y-39500
X50500Y-47000
X55500Y-26500
X56500Y-26500
T0
M30
