G04 (created by PCBNEW-RS274X (2012-apr-16-27)-stable) date Mon 01 Sep 2014 06:02:50 PM CEST*
G01*
G70*
G90*
%MOIN*%
G04 Gerber Fmt 3.4, Leading zero omitted, Abs format*
%FSLAX34Y34*%
G04 APERTURE LIST*
%ADD10C,0.006000*%
%ADD11C,0.055000*%
%ADD12C,0.065000*%
%ADD13C,0.060000*%
%ADD14R,0.060000X0.060000*%
%ADD15R,0.070000X0.070000*%
%ADD16R,0.100000X0.100000*%
%ADD17C,0.100000*%
%ADD18R,0.150000X0.150000*%
%ADD19O,0.060000X0.100000*%
%ADD20C,0.035000*%
%ADD21C,0.015900*%
%ADD22C,0.016000*%
G04 APERTURE END LIST*
G54D10*
G54D11*
X55000Y-39500D03*
X53000Y-39500D03*
X55000Y-36500D03*
X53000Y-36500D03*
G54D12*
X76000Y-27500D03*
X73000Y-27500D03*
X77000Y-26000D03*
X74000Y-26000D03*
G54D13*
X63000Y-45500D03*
X62000Y-45500D03*
X63000Y-44500D03*
X62000Y-44500D03*
X63000Y-43500D03*
X62000Y-43500D03*
X63000Y-42500D03*
X62000Y-42500D03*
X63000Y-41500D03*
X62000Y-41500D03*
X80000Y-31000D03*
X80000Y-32000D03*
X80000Y-33000D03*
X80000Y-34000D03*
X80000Y-35000D03*
X49500Y-26500D03*
X50500Y-26500D03*
X51500Y-26500D03*
X52500Y-26500D03*
X53500Y-26500D03*
X68000Y-45500D03*
X67000Y-45500D03*
X68000Y-44500D03*
X67000Y-44500D03*
X68000Y-43500D03*
X67000Y-43500D03*
X68000Y-42500D03*
X67000Y-42500D03*
G54D14*
X60500Y-35000D03*
X60500Y-34000D03*
X60500Y-33000D03*
X60500Y-32000D03*
X59000Y-35000D03*
X59000Y-34000D03*
X59000Y-33000D03*
X59000Y-32000D03*
X57500Y-35000D03*
X57500Y-34000D03*
X57500Y-33000D03*
X57500Y-32000D03*
X56000Y-35000D03*
X56000Y-34000D03*
X56000Y-33000D03*
X56000Y-32000D03*
X38500Y-32500D03*
X38500Y-31500D03*
X38500Y-30500D03*
X69500Y-26500D03*
X70500Y-26500D03*
X71500Y-26500D03*
X62500Y-26500D03*
X63500Y-26500D03*
X64500Y-26500D03*
X66000Y-26500D03*
X67000Y-26500D03*
X68000Y-26500D03*
X55500Y-26500D03*
G54D13*
X56500Y-26500D03*
G54D15*
X65000Y-36000D03*
X65000Y-34000D03*
X71000Y-35000D03*
X69000Y-35000D03*
G54D11*
X67000Y-32500D03*
X67000Y-30500D03*
X58000Y-46000D03*
X56000Y-46000D03*
X70000Y-40000D03*
X69000Y-40000D03*
X70000Y-48000D03*
X69000Y-48000D03*
X70000Y-38000D03*
X69000Y-38000D03*
G54D16*
X35000Y-33500D03*
G54D17*
X35000Y-31500D03*
G54D14*
X47000Y-33500D03*
X47000Y-32500D03*
X47000Y-31500D03*
X47000Y-30500D03*
X47000Y-29500D03*
G54D13*
X73000Y-31500D03*
X74000Y-31500D03*
X73000Y-32500D03*
X74000Y-32500D03*
X73000Y-33500D03*
X74000Y-33500D03*
X73000Y-34500D03*
X74000Y-34500D03*
X72000Y-42000D03*
X73000Y-42000D03*
X72000Y-43000D03*
X73000Y-43000D03*
X72000Y-44000D03*
X73000Y-44000D03*
X72000Y-45000D03*
X73000Y-45000D03*
X72000Y-46000D03*
X73000Y-46000D03*
G54D18*
X34800Y-47050D03*
X50500Y-39500D03*
X34800Y-39200D03*
X50500Y-47000D03*
G54D19*
X67000Y-29000D03*
X68000Y-29000D03*
X69000Y-29000D03*
X70000Y-29000D03*
X71000Y-29000D03*
X72000Y-29000D03*
X73000Y-29000D03*
X74000Y-29000D03*
X67000Y-48000D03*
X66000Y-48000D03*
X65000Y-48000D03*
X64000Y-48000D03*
X63000Y-48000D03*
X60000Y-48000D03*
X61000Y-48000D03*
X62000Y-48000D03*
X58000Y-48000D03*
X57000Y-48000D03*
X56000Y-48000D03*
X54000Y-48000D03*
X53000Y-48000D03*
X65000Y-29000D03*
X64000Y-29000D03*
X56400Y-29000D03*
X55400Y-29000D03*
X54400Y-29000D03*
X53400Y-29000D03*
X52400Y-29000D03*
X51400Y-29000D03*
X50400Y-29000D03*
X49400Y-29000D03*
X55000Y-48000D03*
G54D13*
X77000Y-30000D03*
X78000Y-30000D03*
X77000Y-31000D03*
X78000Y-31000D03*
X77000Y-32000D03*
X78000Y-32000D03*
X77000Y-33000D03*
X78000Y-33000D03*
X77000Y-29000D03*
X78000Y-29000D03*
X78000Y-34000D03*
X77000Y-34000D03*
X77000Y-35000D03*
X78000Y-35000D03*
X77000Y-42000D03*
X78000Y-42000D03*
X77000Y-43000D03*
X78000Y-43000D03*
X77000Y-44000D03*
X78000Y-44000D03*
X77000Y-45000D03*
X78000Y-45000D03*
X77000Y-46000D03*
X78000Y-46000D03*
G54D20*
X56064Y-42540D03*
X59920Y-25102D03*
X72721Y-30253D03*
X54977Y-25087D03*
X72740Y-38562D03*
X58395Y-35535D03*
X67303Y-39368D03*
X59000Y-39016D03*
X73712Y-46897D03*
X68777Y-41499D03*
X71992Y-39912D03*
X67540Y-41861D03*
X60919Y-41381D03*
G54D21*
X79500Y-41000D02*
X75500Y-37000D01*
G54D22*
X55000Y-36500D02*
X52000Y-33500D01*
G54D21*
X80000Y-28500D02*
X80000Y-31000D01*
X79500Y-28000D02*
X80000Y-28500D01*
X76500Y-28000D02*
X79500Y-28000D01*
X75500Y-29000D02*
X76500Y-28000D01*
G54D22*
X69000Y-48000D02*
X69554Y-47446D01*
X57500Y-32000D02*
X59000Y-32000D01*
X55000Y-36500D02*
X55000Y-39500D01*
X71464Y-46481D02*
X71212Y-46481D01*
X59000Y-32000D02*
X60500Y-32000D01*
X64500Y-32000D02*
X65000Y-32500D01*
X60500Y-32000D02*
X64500Y-32000D01*
X67000Y-30500D02*
X65000Y-32500D01*
X65000Y-32500D02*
X65000Y-34000D01*
X52000Y-33500D02*
X47000Y-33500D01*
G54D21*
X75500Y-37000D02*
X75500Y-29000D01*
G54D22*
X69231Y-44500D02*
X68000Y-44500D01*
X69231Y-40231D02*
X69000Y-40000D01*
X69000Y-35000D02*
X72421Y-31579D01*
X73000Y-31500D02*
X72421Y-31500D01*
X56000Y-32000D02*
X57500Y-32000D01*
X71212Y-46481D02*
X69231Y-44500D01*
X56000Y-48000D02*
X56000Y-46000D01*
X78021Y-47446D02*
X79500Y-45967D01*
X79500Y-45967D02*
X79500Y-45967D01*
X69554Y-47446D02*
X78021Y-47446D01*
X69231Y-44500D02*
X69231Y-40231D01*
X56000Y-46000D02*
X56560Y-45440D01*
X59000Y-45500D02*
X59000Y-48322D01*
X72421Y-31579D02*
X72421Y-31500D01*
X68221Y-48779D02*
X69000Y-48000D01*
X59457Y-48779D02*
X68221Y-48779D01*
X59000Y-48322D02*
X59457Y-48779D01*
X56560Y-45440D02*
X58940Y-45440D01*
X73000Y-46000D02*
X72415Y-46585D01*
X59000Y-45500D02*
X62000Y-45500D01*
X58940Y-45440D02*
X59000Y-45500D01*
X72415Y-46585D02*
X71568Y-46585D01*
G54D21*
X79500Y-45967D02*
X79500Y-41000D01*
G54D22*
X71568Y-46585D02*
X71464Y-46481D01*
X65721Y-47221D02*
X63000Y-44500D01*
X66000Y-47221D02*
X65721Y-47221D01*
X66000Y-48000D02*
X66000Y-47221D01*
X64126Y-42626D02*
X63000Y-41500D01*
X64126Y-44347D02*
X64126Y-42626D01*
X67000Y-47221D02*
X64126Y-44347D01*
X67000Y-48000D02*
X67000Y-47221D01*
X78000Y-32000D02*
X80000Y-32000D01*
X51439Y-25561D02*
X50500Y-26500D01*
X72036Y-25561D02*
X51439Y-25561D01*
X72081Y-25606D02*
X72036Y-25561D01*
X72081Y-28140D02*
X72081Y-25606D01*
X72000Y-28221D02*
X72081Y-28140D01*
X72000Y-29000D02*
X72000Y-28221D01*
X56500Y-28121D02*
X56500Y-26500D01*
X56400Y-28221D02*
X56500Y-28121D01*
X56400Y-29000D02*
X56400Y-28221D01*
X78000Y-33000D02*
X80000Y-33000D01*
X78000Y-35000D02*
X80000Y-35000D01*
X59000Y-35000D02*
X58079Y-35000D01*
X73391Y-30891D02*
X68609Y-30891D01*
X62079Y-36000D02*
X61079Y-35000D01*
X65000Y-36000D02*
X62079Y-36000D01*
X60500Y-35000D02*
X59000Y-35000D01*
X71000Y-35000D02*
X71000Y-35629D01*
X74000Y-31500D02*
X73391Y-30891D01*
X68609Y-30891D02*
X67000Y-32500D01*
X60500Y-35000D02*
X61079Y-35000D01*
X56000Y-35000D02*
X56579Y-35000D01*
X67000Y-32500D02*
X67000Y-35445D01*
X57500Y-35000D02*
X56579Y-35000D01*
X70000Y-38000D02*
X70000Y-36510D01*
X70119Y-36510D02*
X71000Y-35629D01*
X70000Y-36510D02*
X70119Y-36510D01*
X65000Y-36000D02*
X65629Y-36000D01*
X70000Y-36510D02*
X68065Y-36510D01*
X57500Y-35000D02*
X58079Y-35000D01*
X68065Y-36510D02*
X67000Y-35445D01*
X56000Y-42476D02*
X56064Y-42540D01*
X66184Y-35445D02*
X65629Y-36000D01*
X67000Y-35445D02*
X66184Y-35445D01*
X56000Y-35000D02*
X56000Y-42476D01*
X78000Y-34000D02*
X80000Y-34000D01*
X52400Y-26600D02*
X52500Y-26500D01*
X52400Y-29000D02*
X52400Y-26600D01*
X51400Y-26600D02*
X51500Y-26500D01*
X51400Y-29000D02*
X51400Y-26600D01*
X67000Y-29000D02*
X67000Y-26500D01*
X68000Y-29000D02*
X68000Y-26500D01*
X54400Y-29000D02*
X54400Y-29779D01*
X54400Y-29779D02*
X73128Y-29779D01*
X73128Y-29779D02*
X74619Y-31270D01*
X74619Y-31270D02*
X74619Y-31881D01*
X74619Y-31881D02*
X74000Y-32500D01*
X53400Y-26600D02*
X53500Y-26500D01*
X53400Y-29000D02*
X53400Y-26600D01*
X64000Y-47079D02*
X63000Y-46079D01*
X64000Y-48000D02*
X64000Y-47079D01*
X63000Y-45500D02*
X63000Y-46079D01*
X59000Y-33000D02*
X57500Y-33000D01*
X57500Y-33000D02*
X56000Y-33000D01*
X74000Y-25000D02*
X60022Y-25000D01*
X59000Y-33000D02*
X60500Y-33000D01*
X47000Y-30500D02*
X53500Y-30500D01*
X53500Y-30500D02*
X56000Y-33000D01*
X60022Y-25000D02*
X59920Y-25102D01*
X74000Y-29000D02*
X74000Y-25000D01*
X65635Y-34585D02*
X65635Y-32846D01*
X65635Y-32846D02*
X68228Y-30253D01*
X60500Y-34000D02*
X61140Y-34640D01*
X59000Y-34000D02*
X57500Y-34000D01*
X57500Y-34000D02*
X56000Y-34000D01*
X68228Y-30253D02*
X72721Y-30253D01*
X61140Y-34640D02*
X65580Y-34640D01*
X65580Y-34640D02*
X65635Y-34585D01*
X47000Y-31500D02*
X53500Y-31500D01*
X73000Y-27500D02*
X73000Y-29000D01*
X53500Y-31500D02*
X56000Y-34000D01*
X60500Y-34000D02*
X59000Y-34000D01*
X68648Y-39422D02*
X66416Y-41654D01*
X71550Y-40691D02*
X70281Y-39422D01*
X71381Y-40860D02*
X71550Y-40691D01*
X70281Y-39422D02*
X68648Y-39422D01*
X74580Y-34080D02*
X74000Y-33500D01*
X78000Y-44000D02*
X78580Y-43420D01*
X78580Y-41744D02*
X75217Y-38381D01*
X66416Y-42916D02*
X67000Y-43500D01*
X72000Y-44000D02*
X71381Y-43381D01*
X74580Y-38381D02*
X74580Y-34080D01*
X71381Y-43381D02*
X71381Y-40860D01*
X72270Y-40691D02*
X71550Y-40691D01*
X75217Y-38381D02*
X74580Y-38381D01*
X66416Y-41654D02*
X66416Y-42916D01*
X74580Y-38381D02*
X72270Y-40691D01*
X78580Y-43420D02*
X78580Y-41744D01*
X68342Y-25921D02*
X68921Y-26500D01*
X62500Y-26500D02*
X61921Y-26500D01*
X46050Y-36077D02*
X46050Y-29374D01*
X61342Y-25921D02*
X61921Y-26500D01*
X62500Y-26500D02*
X63079Y-25921D01*
X63079Y-25921D02*
X64842Y-25921D01*
X64842Y-25921D02*
X65421Y-26500D01*
X66000Y-26500D02*
X65421Y-26500D01*
X69500Y-26500D02*
X68921Y-26500D01*
X66000Y-26500D02*
X66579Y-25921D01*
X55500Y-26500D02*
X56079Y-25921D01*
X49500Y-26500D02*
X50913Y-25087D01*
X50500Y-39500D02*
X49473Y-39500D01*
X66579Y-25921D02*
X68342Y-25921D01*
X46050Y-29374D02*
X48345Y-27079D01*
X48345Y-27079D02*
X49500Y-27079D01*
X49500Y-26500D02*
X49500Y-27079D01*
X50400Y-29000D02*
X50400Y-27979D01*
X50400Y-27979D02*
X49500Y-27079D01*
X56079Y-25921D02*
X61342Y-25921D01*
X50913Y-25087D02*
X54977Y-25087D01*
X49473Y-39500D02*
X46050Y-36077D01*
X70000Y-28000D02*
X71500Y-26500D01*
X70000Y-29000D02*
X70000Y-28000D01*
X35000Y-39500D02*
X35000Y-33500D01*
X77000Y-45000D02*
X74000Y-45000D01*
X74000Y-45000D02*
X73000Y-44000D01*
X72740Y-38562D02*
X72343Y-38165D01*
X68359Y-38953D02*
X71555Y-38953D01*
X71555Y-38953D02*
X72343Y-38165D01*
X66052Y-41261D02*
X68359Y-38954D01*
X67000Y-44500D02*
X66052Y-43552D01*
X66052Y-43552D02*
X66052Y-41261D01*
X72343Y-38165D02*
X72343Y-34157D01*
X72343Y-34157D02*
X73000Y-33500D01*
X68359Y-38954D02*
X68359Y-38953D01*
X36220Y-32720D02*
X35000Y-31500D01*
X36220Y-44751D02*
X36220Y-32720D01*
X35000Y-45971D02*
X36220Y-44751D01*
X35000Y-47000D02*
X35000Y-45971D01*
X69000Y-28000D02*
X70500Y-26500D01*
X69000Y-29000D02*
X69000Y-28000D01*
X65000Y-27000D02*
X64500Y-26500D01*
X65000Y-29000D02*
X65000Y-27000D01*
X61432Y-38572D02*
X58395Y-35535D01*
X71667Y-37340D02*
X70435Y-38572D01*
X73000Y-32500D02*
X71667Y-33833D01*
X71667Y-33833D02*
X71667Y-37340D01*
X70435Y-38572D02*
X61432Y-38572D01*
X63500Y-27721D02*
X63500Y-26500D01*
X64000Y-28221D02*
X63500Y-27721D01*
X64000Y-29000D02*
X64000Y-28221D01*
X61393Y-42893D02*
X61393Y-40918D01*
X62000Y-43500D02*
X61393Y-42893D01*
X73596Y-45596D02*
X73000Y-45000D01*
X73596Y-46225D02*
X73596Y-45596D01*
X53000Y-39500D02*
X53000Y-36500D01*
X53000Y-48000D02*
X53000Y-44049D01*
X53000Y-44049D02*
X53000Y-39500D01*
X56296Y-44049D02*
X53000Y-44049D01*
X59427Y-40918D02*
X56296Y-44049D01*
X61393Y-40918D02*
X59427Y-40918D01*
X64176Y-40918D02*
X61393Y-40918D01*
X65264Y-42006D02*
X64176Y-40918D01*
X65264Y-44603D02*
X65264Y-42006D01*
X66741Y-46080D02*
X65264Y-44603D01*
X67420Y-46080D02*
X66741Y-46080D01*
X68000Y-45500D02*
X67420Y-46080D01*
X72735Y-47086D02*
X73596Y-46225D01*
X70165Y-47086D02*
X72735Y-47086D01*
X68579Y-45500D02*
X70165Y-47086D01*
X68000Y-45500D02*
X68579Y-45500D01*
X70000Y-44000D02*
X70000Y-40000D01*
X72000Y-46000D02*
X70000Y-44000D01*
X59352Y-39368D02*
X59000Y-39016D01*
X67303Y-39368D02*
X59352Y-39368D01*
X55555Y-35843D02*
X52212Y-32500D01*
X52212Y-32500D02*
X47000Y-32500D01*
X55555Y-42773D02*
X55555Y-35843D01*
X55920Y-43138D02*
X55555Y-42773D01*
X59000Y-39016D02*
X59000Y-40248D01*
X59000Y-40248D02*
X56110Y-43138D01*
X56110Y-43138D02*
X55920Y-43138D01*
X78061Y-46897D02*
X73712Y-46897D01*
X78900Y-46058D02*
X78061Y-46897D01*
X78900Y-45900D02*
X78900Y-46058D01*
X78000Y-45000D02*
X78900Y-45900D01*
X73000Y-43000D02*
X74000Y-44000D01*
X67979Y-40765D02*
X68043Y-40765D01*
X68043Y-40765D02*
X68777Y-41499D01*
X72032Y-39912D02*
X73194Y-38750D01*
X73194Y-38750D02*
X73194Y-34694D01*
X67000Y-41744D02*
X67979Y-40765D01*
X74000Y-44000D02*
X77000Y-44000D01*
X71992Y-39912D02*
X72032Y-39912D01*
X73194Y-34694D02*
X73000Y-34500D01*
X67000Y-42500D02*
X67000Y-41744D01*
X76000Y-26500D02*
X76000Y-27500D01*
X77000Y-26000D02*
X76000Y-26500D01*
X58359Y-49138D02*
X68862Y-49138D01*
X68862Y-49138D02*
X70000Y-48000D01*
X58000Y-48779D02*
X58359Y-49138D01*
X58000Y-48000D02*
X58000Y-46000D01*
X58000Y-48689D02*
X58000Y-48779D01*
X58000Y-48000D02*
X58000Y-48689D01*
X50500Y-47000D02*
X51529Y-47000D01*
X58000Y-48779D02*
X52279Y-48779D01*
X52279Y-48779D02*
X51529Y-48029D01*
X51529Y-48029D02*
X51529Y-47000D01*
X60919Y-43419D02*
X60919Y-41381D01*
X62000Y-44500D02*
X60919Y-43419D01*
X68498Y-41861D02*
X67540Y-41861D01*
X68591Y-41954D02*
X68498Y-41861D01*
X68591Y-42909D02*
X68591Y-41954D01*
X68000Y-43500D02*
X68591Y-42909D01*
M02*
