M48
; DRILL file {KiCad 7.0.8} date Sun Jun 23 22:33:50 2024
; FORMAT={-:-/ absolute / inch / decimal}
; #@! TF.CreationDate,2024-06-23T22:33:50+02:00
; #@! TF.GenerationSoftware,Kicad,Pcbnew,7.0.8
; #@! TF.FileFunction,Plated,1,4,PTH
FMAT,2
INCH
; #@! TA.AperFunction,Plated,PTH,ComponentDrill
T1C0.0118
; #@! TA.AperFunction,Plated,PTH,ViaDrill
T2C0.0157
; #@! TA.AperFunction,Plated,PTH,ComponentDrill
T3C0.0157
; #@! TA.AperFunction,Plated,PTH,ViaDrill
T4C0.0197
; #@! TA.AperFunction,Plated,PTH,ViaDrill
T5C0.0276
; #@! TA.AperFunction,Plated,PTH,ComponentDrill
T6C0.0315
; #@! TA.AperFunction,Plated,PTH,ViaDrill
T7C0.0394
; #@! TA.AperFunction,Plated,PTH,ComponentDrill
T8C0.0394
; #@! TA.AperFunction,Plated,PTH,ComponentDrill
T9C0.0433
; #@! TA.AperFunction,Plated,PTH,ComponentDrill
T10C0.0472
; #@! TA.AperFunction,Plated,PTH,ComponentDrill
T11C0.0512
; #@! TA.AperFunction,Plated,PTH,ComponentDrill
T12C0.1772
%
G90
G05
T1
X5.9757Y-3.2249
X5.9757Y-3.2449
X5.9757Y-3.2649
X6.0107Y-3.2249
X6.0107Y-3.2449
X6.0107Y-3.2649
X6.0457Y-3.2249
X6.0457Y-3.2449
X6.0457Y-3.2649
T2
X3.4665Y-3.709
X3.5315Y-3.7097
X3.5965Y-3.7097
X3.6715Y-3.709
T3
X6.6796Y-3.3358
X6.6796Y-3.3958
X6.6796Y-3.4558
X6.7146Y-3.3358
X6.7146Y-3.3958
X6.7146Y-3.4558
X6.7496Y-3.3358
X6.7496Y-3.3958
X6.7496Y-3.4558
T4
X5.8415Y-4.474
T5
X3.4115Y-3.5947
X3.4165Y-3.339
X3.4165Y-4.469
X3.4165Y-4.649
X3.4665Y-3.8497
X3.4665Y-3.9247
X3.4815Y-3.354
X3.4915Y-4.2647
X3.6065Y-4.2647
X3.7065Y-3.809
X3.7065Y-3.864
X3.7215Y-4.144
X3.7215Y-4.304
X3.7315Y-4.5247
X3.7315Y-4.7347
X3.7515Y-4.9397
X3.7515Y-5.1147
X3.7565Y-3.7697
X3.7715Y-4.7747
X3.8565Y-3.589
X3.8565Y-3.6897
X3.8565Y-3.984
X3.8958Y-4.9397
X3.9115Y-4.484
X4.0215Y-3.479
X4.0615Y-3.789
X4.1465Y-3.784
X4.1465Y-3.979
X4.1565Y-5.1597
X4.1765Y-4.8697
X4.2065Y-3.589
X4.2565Y-4.8197
X4.2615Y-5.1547
X4.3365Y-3.534
X4.3965Y-3.669
X4.4006Y-3.284
X4.4015Y-5.0697
X4.4415Y-4.9697
X4.4515Y-4.8297
X4.4565Y-3.849
X4.4665Y-5.0697
X4.4965Y-4.6297
X4.5065Y-4.7847
X4.5165Y-5.1197
X4.5256Y-3.339
X4.5356Y-3.284
X4.5465Y-3.929
X4.5515Y-3.619
X4.5815Y-3.154
X4.5815Y-3.734
X4.6065Y-3.519
X4.6265Y-4.9447
X4.6365Y-3.714
X4.6965Y-4.254
X4.7115Y-4.874
X4.7615Y-3.154
X4.7865Y-3.6097
X4.7865Y-3.6647
X4.8465Y-4.449
X4.8715Y-4.009
X4.8865Y-4.304
X4.8865Y-4.589
X4.8915Y-3.914
X4.9065Y-4.154
X4.9315Y-4.409
X4.9515Y-3.289
X4.9515Y-4.204
X4.9765Y-4.694
X4.9815Y-4.109
X5.0215Y-4.029
X5.0265Y-4.874
X5.0615Y-3.384
X5.0665Y-4.634
X5.0815Y-4.914
X5.0915Y-4.569
X5.0923Y-4.329
X5.1265Y-4.849
X5.1365Y-4.794
X5.1465Y-3.549
X5.1465Y-4.464
X5.1815Y-5.374
X5.1965Y-5.054
X5.2215Y-3.589
X5.2565Y-3.999
X5.2615Y-4.624
X5.2715Y-5.4347
X5.2765Y-4.229
X5.3465Y-4.119
X5.3715Y-4.289
X5.4015Y-3.8597
X5.4065Y-4.554
X5.4265Y-4.289
X5.4504Y-5.489
X5.4615Y-4.044
X5.4965Y-4.249
X5.5065Y-4.464
X5.5065Y-4.544
X5.5315Y-4.774
X5.5715Y-5.449
X5.5765Y-4.464
X5.5915Y-4.2497
X5.6065Y-5.014
X5.6115Y-4.584
X5.6215Y-5.374
X5.6565Y-3.8747
X5.6565Y-4.454
X5.6715Y-4.724
X5.6865Y-4.409
X5.6915Y-3.739
X5.6915Y-3.979
X5.7015Y-4.354
X5.7115Y-4.124
X5.7415Y-4.184
X5.7565Y-3.7797
X5.7715Y-3.929
X5.7865Y-4.924
X5.7915Y-4.134
X5.8365Y-4.759
X5.8665Y-4.079
X5.8765Y-3.874
X5.9115Y-4.509
X5.9165Y-3.149
X5.9215Y-3.244
X5.9715Y-4.669
X5.9965Y-4.234
X6.0115Y-4.949
X6.0165Y-4.029
X6.0315Y-3.049
X6.0865Y-3.769
X6.1115Y-3.339
X6.1165Y-3.149
X6.1365Y-3.2447
X6.1615Y-3.499
X6.1615Y-4.419
X6.1615Y-4.594
X6.1815Y-4.094
X6.2265Y-4.054
X6.2565Y-3.244
X6.2565Y-3.339
X6.2665Y-4.654
X6.2765Y-4.939
X6.2865Y-4.594
X6.3015Y-4.799
X6.3465Y-3.304
X6.3665Y-3.634
X6.3715Y-4.034
X6.4065Y-3.864
X6.4215Y-3.569
X6.4265Y-4.989
X6.4415Y-4.694
X6.4665Y-3.824
X6.4815Y-3.569
X6.4815Y-4.939
X6.5465Y-5.1597
X6.5715Y-4.109
X6.5765Y-4.599
X6.5865Y-3.639
X6.5965Y-3.004
X6.6265Y-3.689
X6.6465Y-4.904
X6.6765Y-3.494
X6.6765Y-3.729
X6.6915Y-5.219
X6.7165Y-4.104
X6.7165Y-4.5197
X6.7465Y-3.864
X6.7565Y-3.259
X6.7915Y-3.829
X6.8165Y-4.354
X6.8315Y-3.579
X6.8315Y-3.779
X6.8415Y-4.659
X6.8415Y-4.734
X6.9615Y-3.374
X6.9965Y-4.059
X7.1565Y-3.149
X7.1615Y-5.114
X7.2065Y-4.554
X7.2165Y-3.824
X7.2415Y-3.264
X7.2515Y-5.044
X7.2565Y-4.049
X7.2815Y-3.559
X7.3015Y-3.884
X7.4065Y-4.554
X7.4465Y-4.059
X7.4765Y-5.044
X7.5565Y-3.709
X7.6915Y-5.044
X7.8015Y-4.104
X7.8065Y-4.554
X7.8115Y-3.709
X7.9065Y-5.044
X7.9565Y-3.839
X8.0015Y-4.049
X8.0065Y-4.554
X8.0465Y-3.899
T6
X5.8215Y-3.344
T7
X4.2115Y-2.719
T8
X3.4715Y-4.059
X3.5715Y-4.059
X3.6715Y-4.059
X3.7365Y-3.304
X3.8365Y-3.304
X3.9365Y-3.304
X4.0365Y-3.304
X4.6565Y-4.669
X4.7565Y-4.669
X4.8565Y-4.669
X4.8915Y-3.389
X4.8915Y-3.489
X4.8915Y-3.589
X5.5915Y-3.644
X5.7465Y-3.589
X5.8465Y-3.589
X5.8665Y-3.974
X5.8915Y-4.849
X5.9915Y-4.849
X6.0915Y-4.849
X6.1915Y-4.849
X6.2915Y-3.604
X6.2915Y-3.804
X6.9015Y-4.904
X7.0565Y-4.264
X7.0565Y-4.364
X7.0565Y-4.859
X7.0565Y-4.959
X7.1565Y-4.264
X7.1565Y-4.364
X7.1565Y-4.859
X7.1565Y-4.959
X7.2565Y-4.264
X7.2565Y-4.364
X7.2565Y-4.859
X7.2565Y-4.959
X7.3565Y-4.264
X7.3565Y-4.364
X7.3565Y-4.859
X7.3565Y-4.959
X7.4265Y-3.269
X7.4565Y-4.264
X7.4565Y-4.364
X7.4565Y-4.859
X7.4565Y-4.959
X7.5265Y-3.269
X7.5565Y-4.264
X7.5565Y-4.364
X7.5565Y-4.859
X7.5565Y-4.959
X7.6265Y-3.269
X7.6565Y-4.264
X7.6565Y-4.364
X7.6565Y-4.859
X7.6565Y-4.959
X7.7265Y-3.269
X7.7565Y-4.264
X7.7565Y-4.364
X7.7565Y-4.859
X7.7565Y-4.959
X7.8265Y-3.269
X7.8565Y-4.264
X7.8565Y-4.364
X7.8565Y-4.859
X7.8565Y-4.959
X7.9265Y-3.269
X7.9565Y-4.264
X7.9565Y-4.364
X7.9565Y-4.859
X7.9565Y-4.959
X8.0565Y-4.264
X8.0565Y-4.364
X8.0565Y-4.859
X8.0565Y-4.959
X8.1565Y-4.264
X8.1565Y-4.364
X8.1565Y-4.859
X8.1565Y-4.959
T9
X3.8315Y-5.414
X3.9815Y-5.414
X4.1315Y-5.414
X4.2815Y-5.414
X4.3265Y-2.869
X4.4315Y-5.414
X4.4765Y-2.869
X4.6265Y-2.869
X4.7765Y-2.869
X4.9265Y-2.869
X5.0765Y-2.869
X5.3515Y-2.874
X5.5015Y-2.874
X6.1265Y-2.864
X6.2765Y-2.864
X6.3815Y-5.409
X6.4265Y-2.864
X6.5315Y-5.409
X6.5765Y-2.864
X6.6815Y-5.409
X6.7265Y-2.864
X6.8315Y-5.409
X6.8765Y-2.864
X7.0265Y-2.864
X7.1765Y-2.864
X7.1865Y-5.409
X7.3365Y-5.409
X7.4615Y-2.864
X7.4865Y-5.409
X7.6115Y-2.864
X7.6365Y-5.409
X7.7615Y-2.864
X7.7865Y-5.409
X7.9115Y-2.864
X7.9365Y-5.409
T10
X3.7915Y-2.869
X3.9415Y-2.869
X4.0915Y-2.869
X4.7015Y-5.414
X4.8515Y-5.414
X5.0015Y-5.414
T11
X6.3666Y-4.3499
X6.5666Y-4.3499
T12
X3.4515Y-2.989
X3.4565Y-5.279
X5.8465Y-2.989
X5.8465Y-5.279
X8.2365Y-2.989
X8.2365Y-5.279
T0
M30
