%TF.GenerationSoftware,KiCad,Pcbnew,7.0.8*%
%TF.CreationDate,2024-06-23T22:33:46+02:00*%
%TF.ProjectId,Stima V4 Slave R1_1,5374696d-6120-4563-9420-536c61766520,rev?*%
%TF.SameCoordinates,Original*%
%TF.FileFunction,Soldermask,Top*%
%TF.FilePolarity,Negative*%
%FSLAX46Y46*%
G04 Gerber Fmt 4.6, Leading zero omitted, Abs format (unit mm)*
G04 Created by KiCad (PCBNEW 7.0.8) date 2024-06-23 22:33:46*
%MOMM*%
%LPD*%
G01*
G04 APERTURE LIST*
G04 Aperture macros list*
%AMRoundRect*
0 Rectangle with rounded corners*
0 $1 Rounding radius*
0 $2 $3 $4 $5 $6 $7 $8 $9 X,Y pos of 4 corners*
0 Add a 4 corners polygon primitive as box body*
4,1,4,$2,$3,$4,$5,$6,$7,$8,$9,$2,$3,0*
0 Add four circle primitives for the rounded corners*
1,1,$1+$1,$2,$3*
1,1,$1+$1,$4,$5*
1,1,$1+$1,$6,$7*
1,1,$1+$1,$8,$9*
0 Add four rect primitives between the rounded corners*
20,1,$1+$1,$2,$3,$4,$5,0*
20,1,$1+$1,$4,$5,$6,$7,0*
20,1,$1+$1,$6,$7,$8,$9,0*
20,1,$1+$1,$8,$9,$2,$3,0*%
G04 Aperture macros list end*
%ADD10RoundRect,0.200000X0.750000X-1.400000X0.750000X1.400000X-0.750000X1.400000X-0.750000X-1.400000X0*%
%ADD11C,2.600000*%
%ADD12C,1.000000*%
%ADD13RoundRect,0.200000X1.500000X-2.000000X1.500000X2.000000X-1.500000X2.000000X-1.500000X-2.000000X0*%
%ADD14RoundRect,0.200000X0.650000X-0.200000X0.650000X0.200000X-0.650000X0.200000X-0.650000X-0.200000X0*%
%ADD15RoundRect,0.200000X-0.150000X-0.350000X0.150000X-0.350000X0.150000X0.350000X-0.150000X0.350000X0*%
%ADD16RoundRect,0.200000X0.350000X-0.150000X0.350000X0.150000X-0.350000X0.150000X-0.350000X-0.150000X0*%
%ADD17RoundRect,0.100000X0.350000X-0.150000X0.350000X0.150000X-0.350000X0.150000X-0.350000X-0.150000X0*%
%ADD18C,0.700000*%
%ADD19RoundRect,0.200000X2.125000X0.825000X-2.125000X0.825000X-2.125000X-0.825000X2.125000X-0.825000X0*%
%ADD20RoundRect,0.200000X0.200000X0.400000X-0.200000X0.400000X-0.200000X-0.400000X0.200000X-0.400000X0*%
%ADD21RoundRect,0.200000X0.600000X-0.200000X0.600000X0.200000X-0.600000X0.200000X-0.600000X-0.200000X0*%
%ADD22RoundRect,0.200000X-0.600000X-0.900000X0.600000X-0.900000X0.600000X0.900000X-0.600000X0.900000X0*%
%ADD23RoundRect,0.200000X-0.950000X0.550000X-0.950000X-0.550000X0.950000X-0.550000X0.950000X0.550000X0*%
%ADD24RoundRect,0.200000X-0.600000X0.300000X-0.600000X-0.300000X0.600000X-0.300000X0.600000X0.300000X0*%
%ADD25RoundRect,0.200000X-0.150000X0.400000X-0.150000X-0.400000X0.150000X-0.400000X0.150000X0.400000X0*%
%ADD26RoundRect,0.200000X-1.300000X0.900000X-1.300000X-0.900000X1.300000X-0.900000X1.300000X0.900000X0*%
%ADD27RoundRect,0.200000X-0.300000X-0.600000X0.300000X-0.600000X0.300000X0.600000X-0.300000X0.600000X0*%
%ADD28RoundRect,0.200000X0.200000X0.650000X-0.200000X0.650000X-0.200000X-0.650000X0.200000X-0.650000X0*%
%ADD29RoundRect,0.200000X0.800000X0.300000X-0.800000X0.300000X-0.800000X-0.300000X0.800000X-0.300000X0*%
%ADD30RoundRect,0.200000X-0.800000X-0.300000X0.800000X-0.300000X0.800000X0.300000X-0.800000X0.300000X0*%
%ADD31RoundRect,0.200000X0.600000X-0.300000X0.600000X0.300000X-0.600000X0.300000X-0.600000X-0.300000X0*%
%ADD32RoundRect,0.200000X0.300000X-0.800000X0.300000X0.800000X-0.300000X0.800000X-0.300000X-0.800000X0*%
%ADD33RoundRect,0.200000X-0.750000X0.140000X-0.750000X-0.140000X0.750000X-0.140000X0.750000X0.140000X0*%
%ADD34RoundRect,0.200000X0.140000X0.750000X-0.140000X0.750000X-0.140000X-0.750000X0.140000X-0.750000X0*%
%ADD35RoundRect,0.200000X0.500000X-0.300000X0.500000X0.300000X-0.500000X0.300000X-0.500000X-0.300000X0*%
%ADD36RoundRect,0.200000X-0.300000X-0.500000X0.300000X-0.500000X0.300000X0.500000X-0.300000X0.500000X0*%
%ADD37RoundRect,0.200000X-0.500000X0.300000X-0.500000X-0.300000X0.500000X-0.300000X0.500000X0.300000X0*%
%ADD38RoundRect,0.200000X-0.635000X0.450000X-0.635000X-0.450000X0.635000X-0.450000X0.635000X0.450000X0*%
%ADD39RoundRect,0.200000X0.300000X0.500000X-0.300000X0.500000X-0.300000X-0.500000X0.300000X-0.500000X0*%
%ADD40RoundRect,0.200000X0.900000X0.800000X-0.900000X0.800000X-0.900000X-0.800000X0.900000X-0.800000X0*%
%ADD41RoundRect,0.200000X-0.300000X0.800000X-0.300000X-0.800000X0.300000X-0.800000X0.300000X0.800000X0*%
%ADD42RoundRect,0.200000X-0.350000X-1.150000X0.350000X-1.150000X0.350000X1.150000X-0.350000X1.150000X0*%
%ADD43RoundRect,0.200000X-0.850000X-0.650000X0.850000X-0.650000X0.850000X0.650000X-0.850000X0.650000X0*%
%ADD44RoundRect,0.200000X0.550000X-1.700000X0.550000X1.700000X-0.550000X1.700000X-0.550000X-1.700000X0*%
%ADD45RoundRect,0.200000X0.490000X-1.700000X0.490000X1.700000X-0.490000X1.700000X-0.490000X-1.700000X0*%
%ADD46RoundRect,0.200000X0.800000X0.500000X-0.800000X0.500000X-0.800000X-0.500000X0.800000X-0.500000X0*%
%ADD47C,2.000000*%
%ADD48C,1.600000*%
%ADD49RoundRect,0.200000X0.750000X-0.300000X0.750000X0.300000X-0.750000X0.300000X-0.750000X-0.300000X0*%
%ADD50RoundRect,0.200000X0.900000X-0.600000X0.900000X0.600000X-0.900000X0.600000X-0.900000X-0.600000X0*%
%ADD51C,2.800000*%
%ADD52RoundRect,0.200000X-0.800000X0.400000X-0.800000X-0.400000X0.800000X-0.400000X0.800000X0.400000X0*%
%ADD53RoundRect,0.200000X-1.500000X1.050000X-1.500000X-1.050000X1.500000X-1.050000X1.500000X1.050000X0*%
%ADD54C,2.200000*%
%ADD55RoundRect,0.200000X-0.700000X-1.000000X0.700000X-1.000000X0.700000X1.000000X-0.700000X1.000000X0*%
%ADD56RoundRect,0.200000X-1.450000X-1.250000X1.450000X-1.250000X1.450000X1.250000X-1.450000X1.250000X0*%
%ADD57RoundRect,0.200000X0.600000X-0.225000X0.600000X0.225000X-0.600000X0.225000X-0.600000X-0.225000X0*%
%ADD58RoundRect,0.200000X0.800000X-0.400000X0.800000X0.400000X-0.800000X0.400000X-0.800000X-0.400000X0*%
%ADD59RoundRect,0.200000X-0.900000X0.600000X-0.900000X-0.600000X0.900000X-0.600000X0.900000X0.600000X0*%
%ADD60RoundRect,0.200000X-0.300000X-0.300000X0.300000X-0.300000X0.300000X0.300000X-0.300000X0.300000X0*%
%ADD61RoundRect,0.200000X0.300000X0.300000X-0.300000X0.300000X-0.300000X-0.300000X0.300000X-0.300000X0*%
%ADD62RoundRect,0.200000X0.300000X-0.300000X0.300000X0.300000X-0.300000X0.300000X-0.300000X-0.300000X0*%
%ADD63RoundRect,0.200000X-0.300000X0.300000X-0.300000X-0.300000X0.300000X-0.300000X0.300000X0.300000X0*%
%ADD64RoundRect,0.200000X1.250000X1.000000X-1.250000X1.000000X-1.250000X-1.000000X1.250000X-1.000000X0*%
%ADD65RoundRect,0.200000X0.225000X0.125000X-0.225000X0.125000X-0.225000X-0.125000X0.225000X-0.125000X0*%
%ADD66RoundRect,0.200000X-0.200000X-0.400000X0.200000X-0.400000X0.200000X0.400000X-0.200000X0.400000X0*%
%ADD67RoundRect,0.200000X-0.200000X-0.150000X0.200000X-0.150000X0.200000X0.150000X-0.200000X0.150000X0*%
%ADD68RoundRect,0.200000X-0.225000X-0.125000X0.225000X-0.125000X0.225000X0.125000X-0.225000X0.125000X0*%
%ADD69RoundRect,0.200000X0.200000X0.150000X-0.200000X0.150000X-0.200000X-0.150000X0.200000X-0.150000X0*%
%ADD70RoundRect,0.200000X1.000000X2.000000X-1.000000X2.000000X-1.000000X-2.000000X1.000000X-2.000000X0*%
%ADD71RoundRect,0.200000X-0.450000X-0.635000X0.450000X-0.635000X0.450000X0.635000X-0.450000X0.635000X0*%
%ADD72RoundRect,0.200000X0.600000X2.150000X-0.600000X2.150000X-0.600000X-2.150000X0.600000X-2.150000X0*%
%ADD73RoundRect,0.200000X0.450000X0.635000X-0.450000X0.635000X-0.450000X-0.635000X0.450000X-0.635000X0*%
%ADD74C,5.900000*%
G04 APERTURE END LIST*
D10*
%TO.C,SW1*%
X146215100Y-129006600D03*
X146215100Y-139166600D03*
X150787100Y-129006600D03*
X150787100Y-139166600D03*
%TD*%
D11*
%TO.C,*%
X161710700Y-110488400D03*
X166790700Y-110488400D03*
%TD*%
D12*
%TO.C,U16*%
X171440100Y-87776600D03*
X171440100Y-86252600D03*
X171440100Y-84728600D03*
X170551100Y-87776600D03*
D13*
X170551100Y-86252600D03*
D12*
X170551100Y-84728600D03*
X169662100Y-87776600D03*
X169662100Y-86252600D03*
X169662100Y-84728600D03*
D14*
X173551100Y-84302600D03*
X173551100Y-84952600D03*
X173551100Y-85602600D03*
X173551100Y-86252600D03*
X173551100Y-86902600D03*
X173551100Y-87552600D03*
X173551100Y-88202600D03*
X167551100Y-88202600D03*
X167551100Y-87552600D03*
X167551100Y-86902600D03*
X167551100Y-86252600D03*
X167551100Y-85602600D03*
X167551100Y-84952600D03*
X167551100Y-84302600D03*
%TD*%
D15*
%TO.C,U11*%
X137440100Y-133717600D03*
X137940100Y-133717600D03*
X138440100Y-133717600D03*
X138940100Y-133717600D03*
X139440100Y-133717600D03*
X139940100Y-133717600D03*
D16*
X140690100Y-134467600D03*
X140690100Y-134967600D03*
X140690100Y-135467600D03*
X140690100Y-135967600D03*
X140690100Y-136467600D03*
X140690100Y-136967590D03*
D15*
X139940100Y-137717600D03*
X139440100Y-137717600D03*
X138940100Y-137717600D03*
X138440100Y-137717600D03*
X137940100Y-137717600D03*
X137440100Y-137717600D03*
D16*
X136690100Y-136967590D03*
X136690100Y-136467600D03*
X136690100Y-135967600D03*
X136690100Y-135467600D03*
X136690100Y-134967600D03*
D17*
X136690100Y-134467600D03*
D18*
X138690100Y-135717600D03*
%TD*%
D19*
%TO.C,U4*%
X90634100Y-94105600D03*
D20*
X88684100Y-92605600D03*
X89334100Y-92605600D03*
X89984100Y-92605600D03*
X90634100Y-92605600D03*
X91284100Y-92605600D03*
X91934100Y-92605600D03*
X92584100Y-92605600D03*
X92584100Y-95605600D03*
X91934100Y-95605600D03*
X91284100Y-95605600D03*
X90634100Y-95605600D03*
X89984100Y-95605600D03*
X89334100Y-95605600D03*
X88684100Y-95605600D03*
%TD*%
D21*
%TO.C,U5*%
X113426100Y-82270600D03*
X113426100Y-82920600D03*
X113426100Y-83570600D03*
X113426100Y-84220600D03*
X113426100Y-84870600D03*
X113426100Y-85520600D03*
X113426100Y-86170600D03*
X113426100Y-86820600D03*
X119926100Y-86820600D03*
X119926100Y-86170600D03*
X119926100Y-85520600D03*
X119926100Y-84870600D03*
X119926100Y-84220600D03*
X119926100Y-83570600D03*
X119926100Y-82920600D03*
X119926100Y-82270600D03*
%TD*%
D22*
%TO.C,C82*%
X151803100Y-86715600D03*
X154803100Y-86715600D03*
%TD*%
D23*
%TO.C,X1*%
X151676100Y-112979200D03*
X151676100Y-116179600D03*
%TD*%
D24*
%TO.C,U20*%
X156121100Y-95732600D03*
X156121100Y-97637600D03*
X153073100Y-97632600D03*
X153073100Y-96682600D03*
X153073100Y-95732600D03*
%TD*%
D25*
%TO.C,U19*%
X151422100Y-83921600D03*
X151922100Y-83921600D03*
X152422100Y-83921600D03*
X152922100Y-83921600D03*
X153422100Y-83921600D03*
X153922100Y-83921600D03*
X153922100Y-80921600D03*
X153422100Y-80921600D03*
X152922100Y-80921600D03*
X152422100Y-80921600D03*
X151922100Y-80921600D03*
X151422100Y-80921600D03*
D12*
X151783100Y-82929600D03*
X152672100Y-82929600D03*
X153561100Y-82929600D03*
X151783100Y-82421600D03*
D26*
X152672100Y-82421600D03*
D12*
X153561100Y-82421600D03*
X151783100Y-81913600D03*
X152672100Y-81913600D03*
X153561100Y-81913600D03*
%TD*%
D27*
%TO.C,U18*%
X166667110Y-122021600D03*
X167617110Y-122021600D03*
X168567110Y-122021600D03*
X168572110Y-118973600D03*
X167617110Y-118973600D03*
X166667110Y-118973600D03*
%TD*%
%TO.C,U17*%
X171107100Y-123037600D03*
X173012100Y-123037600D03*
X173007100Y-126085600D03*
X172057100Y-126085600D03*
X171107100Y-126085600D03*
%TD*%
%TO.C,U15*%
X172128100Y-112115600D03*
X173078100Y-112115600D03*
X174028100Y-112115600D03*
X174033100Y-109067600D03*
X173078100Y-109067600D03*
X172128100Y-109067600D03*
%TD*%
D28*
%TO.C,U14*%
X88557100Y-110187600D03*
X89207100Y-110187600D03*
X89857100Y-110187600D03*
X90507100Y-110187600D03*
X91157100Y-110187600D03*
X91807100Y-110187600D03*
X92457100Y-110187600D03*
X92457100Y-116687600D03*
X91807100Y-116687600D03*
X91157100Y-116687600D03*
X90507100Y-116687600D03*
X89857100Y-116687600D03*
X89207100Y-116687600D03*
X88557100Y-116687600D03*
%TD*%
D29*
%TO.C,U13*%
X187363100Y-100939600D03*
X187363100Y-99669600D03*
X187363100Y-98399600D03*
X187363100Y-97129600D03*
X181267100Y-97129600D03*
X181267100Y-98399600D03*
X181267100Y-99669600D03*
X181267100Y-100939600D03*
%TD*%
%TO.C,U12*%
X206159100Y-100939600D03*
X206159100Y-99669600D03*
X206159100Y-98399600D03*
X206159100Y-97129600D03*
X200063100Y-97129600D03*
X200063100Y-98399600D03*
X200063100Y-99669600D03*
X200063100Y-100939600D03*
%TD*%
D30*
%TO.C,U10*%
X103778340Y-119881360D03*
X103778340Y-121151360D03*
X103778340Y-122421360D03*
X103778340Y-123691360D03*
X103778340Y-124961360D03*
X103778340Y-126231360D03*
X103778340Y-127501360D03*
X103778340Y-128771360D03*
X109874340Y-128771360D03*
X109874340Y-127501360D03*
X109874340Y-126231360D03*
X109874340Y-124961360D03*
X109874340Y-123691360D03*
X109874340Y-122421360D03*
X109874340Y-121151360D03*
X109874340Y-119881360D03*
%TD*%
D24*
%TO.C,U9*%
X105956100Y-92430600D03*
X105956100Y-93380600D03*
X105956100Y-94330600D03*
X109004100Y-94335600D03*
X109004100Y-93380600D03*
X109004100Y-92430600D03*
%TD*%
D27*
%TO.C,U8*%
X127546100Y-84429600D03*
X128496100Y-84429600D03*
X129451100Y-84429600D03*
X129446100Y-87477600D03*
X128496100Y-87477600D03*
X127546100Y-87477600D03*
%TD*%
D31*
%TO.C,U7*%
X126657100Y-93446600D03*
X126657100Y-91541600D03*
X129705100Y-91546600D03*
X129705100Y-92496600D03*
X129705100Y-93446600D03*
%TD*%
D30*
%TO.C,U6*%
X113703100Y-90652600D03*
X113703100Y-91922600D03*
X113703100Y-93192600D03*
X113703100Y-94462600D03*
X119799100Y-94462600D03*
X119799100Y-93192600D03*
X119799100Y-91922600D03*
X119799100Y-90652600D03*
%TD*%
D32*
%TO.C,U3*%
X139484100Y-100939600D03*
X140754100Y-100939600D03*
X142024100Y-100939600D03*
X143294100Y-100939600D03*
X143294100Y-94843600D03*
X142024100Y-94843600D03*
X140754100Y-94843600D03*
X139484100Y-94843600D03*
%TD*%
D30*
%TO.C,U2*%
X134404100Y-124561600D03*
X134404100Y-125831600D03*
X134404100Y-127101600D03*
X134404100Y-128371600D03*
X140500100Y-128371600D03*
X140500100Y-127101600D03*
X140500100Y-125831600D03*
X140500100Y-124561600D03*
%TD*%
D33*
%TO.C,U1*%
X146785090Y-115885590D03*
X146785090Y-115385600D03*
X146785090Y-114885600D03*
X146785090Y-114385600D03*
X146785090Y-113885600D03*
X146785090Y-113385600D03*
X146785090Y-112885600D03*
X146785090Y-112385600D03*
X146785090Y-111885600D03*
X146785090Y-111385600D03*
X146785090Y-110885600D03*
X146785090Y-110385610D03*
X146785090Y-109885600D03*
X146785090Y-109385600D03*
X146785090Y-108885610D03*
X146785090Y-108385610D03*
D34*
X144535090Y-106135610D03*
X144035090Y-106135610D03*
X143535090Y-106135610D03*
X143035090Y-106135610D03*
X142535090Y-106135610D03*
X142035090Y-106135610D03*
X141535090Y-106135610D03*
X141035090Y-106135610D03*
X140535090Y-106135610D03*
X140035100Y-106135610D03*
X139535100Y-106135610D03*
X139035100Y-106135610D03*
X138535100Y-106135610D03*
X138035100Y-106135610D03*
X137535100Y-106135610D03*
X137035100Y-106135610D03*
D33*
X134785100Y-108385610D03*
X134785100Y-108885610D03*
X134785100Y-109385600D03*
X134785100Y-109885600D03*
X134785100Y-110385610D03*
X134785100Y-110885600D03*
X134785100Y-111385600D03*
X134785100Y-111885600D03*
X134785100Y-112385600D03*
X134785100Y-112885600D03*
X134785100Y-113385600D03*
X134785100Y-113885600D03*
X134785100Y-114385600D03*
X134785100Y-114885600D03*
X134785100Y-115385600D03*
X134785100Y-115885590D03*
D34*
X137035100Y-118135600D03*
X137535100Y-118135600D03*
X138035100Y-118135600D03*
X138535100Y-118135600D03*
X139035100Y-118135600D03*
X139535100Y-118135600D03*
X140035100Y-118135600D03*
X140535090Y-118135600D03*
X141035090Y-118135600D03*
X141535090Y-118135600D03*
X142035090Y-118135600D03*
X142535090Y-118135600D03*
X143035090Y-118135600D03*
X143535090Y-118135600D03*
X144035090Y-118135600D03*
X144535090Y-118135600D03*
%TD*%
D35*
%TO.C,R79*%
X153454100Y-129805100D03*
X153454100Y-128154100D03*
%TD*%
%TO.C,R78*%
X121704100Y-90308100D03*
X121704100Y-88657100D03*
%TD*%
D36*
%TO.C,R77*%
X122861400Y-94461000D03*
X124512400Y-94461000D03*
%TD*%
D37*
%TO.C,R76*%
X121704100Y-86080600D03*
X121704100Y-87731600D03*
%TD*%
D38*
%TO.C,R75*%
X199174100Y-78841600D03*
X199174100Y-80873600D03*
%TD*%
%TO.C,R74*%
X193586100Y-78841600D03*
X193586100Y-80873600D03*
%TD*%
%TO.C,R73*%
X187998100Y-78841600D03*
X187998100Y-80873600D03*
%TD*%
D35*
%TO.C,R72*%
X148120100Y-82416360D03*
X148120100Y-80765360D03*
%TD*%
D38*
%TO.C,R71*%
X145961100Y-86842600D03*
X145961100Y-88874600D03*
%TD*%
D36*
%TO.C,R70*%
X170726100Y-118338600D03*
X172377100Y-118338600D03*
%TD*%
D39*
%TO.C,R69*%
X172377100Y-120243600D03*
X170726100Y-120243600D03*
%TD*%
%TO.C,R68*%
X179870100Y-89509600D03*
X178219100Y-89509600D03*
%TD*%
%TO.C,R67*%
X179870100Y-91160600D03*
X178219100Y-91160600D03*
%TD*%
D36*
%TO.C,R66*%
X162598100Y-87223600D03*
X164249100Y-87223600D03*
%TD*%
%TO.C,R65*%
X162598100Y-88874600D03*
X164249100Y-88874600D03*
%TD*%
%TO.C,R64*%
X178219100Y-82905600D03*
X179870100Y-82905600D03*
%TD*%
%TO.C,R63*%
X162598100Y-83921600D03*
X164249100Y-83921600D03*
%TD*%
%TO.C,R62*%
X178219100Y-86207600D03*
X179870100Y-86207600D03*
%TD*%
%TO.C,R61*%
X178219100Y-84556600D03*
X179870100Y-84556600D03*
%TD*%
%TO.C,R60*%
X162598100Y-85572600D03*
X164249100Y-85572600D03*
%TD*%
D39*
%TO.C,R59*%
X172123100Y-91795600D03*
X170472100Y-91795600D03*
%TD*%
%TO.C,R58*%
X179870100Y-87858600D03*
X178219100Y-87858600D03*
%TD*%
D37*
%TO.C,R57*%
X175933100Y-109321600D03*
X175933100Y-110972600D03*
%TD*%
D36*
%TO.C,R56*%
X159296100Y-102717600D03*
X160947100Y-102717600D03*
%TD*%
D37*
%TO.C,R55*%
X179235100Y-113385600D03*
X179235100Y-115036600D03*
%TD*%
%TO.C,R54*%
X181775100Y-113385600D03*
X181775100Y-115036600D03*
%TD*%
%TO.C,R53*%
X184315100Y-113385600D03*
X184315100Y-115036600D03*
%TD*%
D35*
%TO.C,R52*%
X179235100Y-117957600D03*
X179235100Y-116306600D03*
%TD*%
%TO.C,R51*%
X181775100Y-117957600D03*
X181775100Y-116306600D03*
%TD*%
D37*
%TO.C,R50*%
X178346100Y-100050600D03*
X178346100Y-101701600D03*
%TD*%
D35*
%TO.C,R49*%
X184315100Y-117957600D03*
X184315100Y-116306600D03*
%TD*%
D37*
%TO.C,R48*%
X186855100Y-113385600D03*
X186855100Y-115036600D03*
%TD*%
%TO.C,R47*%
X189395100Y-113385600D03*
X189395100Y-115036600D03*
%TD*%
%TO.C,R46*%
X191935100Y-113385600D03*
X191935100Y-115036600D03*
%TD*%
D35*
%TO.C,R45*%
X186855100Y-117957600D03*
X186855100Y-116306600D03*
%TD*%
%TO.C,R44*%
X189395100Y-117957600D03*
X189395100Y-116306600D03*
%TD*%
D37*
%TO.C,R43*%
X190284100Y-100050600D03*
X190284100Y-101701600D03*
%TD*%
D35*
%TO.C,R42*%
X191935100Y-117957600D03*
X191935100Y-116306600D03*
%TD*%
D37*
%TO.C,R41*%
X200317100Y-92557600D03*
X200317100Y-94208600D03*
%TD*%
%TO.C,R40*%
X200317100Y-86461600D03*
X200317100Y-88112600D03*
%TD*%
D38*
%TO.C,R39*%
X201968100Y-78841600D03*
X201968100Y-80873600D03*
%TD*%
D37*
%TO.C,R38*%
X194475100Y-113385600D03*
X194475100Y-115036600D03*
%TD*%
%TO.C,R37*%
X197015100Y-113385600D03*
X197015100Y-115036600D03*
%TD*%
%TO.C,R36*%
X199555100Y-113385600D03*
X199555100Y-115036600D03*
%TD*%
D35*
%TO.C,R35*%
X194475100Y-117957600D03*
X194475100Y-116306600D03*
%TD*%
%TO.C,R34*%
X197015100Y-117957600D03*
X197015100Y-116306600D03*
%TD*%
D37*
%TO.C,R33*%
X193840100Y-92557600D03*
X193840100Y-94208600D03*
%TD*%
%TO.C,R32*%
X197142100Y-100050600D03*
X197142100Y-101701600D03*
%TD*%
D35*
%TO.C,R31*%
X199555100Y-117957600D03*
X199555100Y-116306600D03*
%TD*%
D37*
%TO.C,R30*%
X193840100Y-86461600D03*
X193840100Y-88112600D03*
%TD*%
D38*
%TO.C,R29*%
X196380100Y-78841600D03*
X196380100Y-80873600D03*
%TD*%
D37*
%TO.C,R28*%
X202095100Y-113385600D03*
X202095100Y-115036600D03*
%TD*%
%TO.C,R27*%
X204635100Y-113385600D03*
X204635100Y-115036600D03*
%TD*%
%TO.C,R26*%
X207175100Y-113385600D03*
X207175100Y-115036600D03*
%TD*%
D35*
%TO.C,R25*%
X202095100Y-117957600D03*
X202095100Y-116306600D03*
%TD*%
D37*
%TO.C,R24*%
X187617100Y-92557600D03*
X187617100Y-94208600D03*
%TD*%
%TO.C,R23*%
X187617100Y-86461600D03*
X187617100Y-88112600D03*
%TD*%
D35*
%TO.C,R22*%
X204635100Y-117957600D03*
X204635100Y-116306600D03*
%TD*%
D38*
%TO.C,R21*%
X190792100Y-78841600D03*
X190792100Y-80873600D03*
%TD*%
D37*
%TO.C,R20*%
X209207100Y-100050600D03*
X209207100Y-101701600D03*
%TD*%
D35*
%TO.C,R19*%
X207175100Y-117957600D03*
X207175100Y-116306600D03*
%TD*%
D36*
%TO.C,R18*%
X121069100Y-123799600D03*
X122720100Y-123799600D03*
%TD*%
D39*
%TO.C,R17*%
X126149100Y-123799600D03*
X124498100Y-123799600D03*
%TD*%
%TO.C,R16*%
X109258100Y-96240600D03*
X107607100Y-96240600D03*
%TD*%
D37*
%TO.C,R15*%
X131356100Y-85318600D03*
X131356100Y-86969600D03*
%TD*%
D39*
%TO.C,R14*%
X110147100Y-82778600D03*
X108496100Y-82778600D03*
%TD*%
%TO.C,R13*%
X110147100Y-84556600D03*
X108496100Y-84556600D03*
%TD*%
D40*
%TO.C,R12*%
X105321100Y-79730600D03*
X101765100Y-79730600D03*
%TD*%
%TO.C,R11*%
X98844100Y-79730600D03*
X95288100Y-79730600D03*
%TD*%
D36*
%TO.C,R10*%
X160693100Y-118211600D03*
X162344100Y-118211600D03*
%TD*%
D35*
%TO.C,R9*%
X137071100Y-100958360D03*
X137071100Y-99307360D03*
%TD*%
D36*
%TO.C,R8*%
X155613100Y-108178600D03*
X157264100Y-108178600D03*
%TD*%
%TO.C,R7*%
X149644100Y-125704600D03*
X151295100Y-125704600D03*
%TD*%
%TO.C,R6*%
X134404100Y-130403600D03*
X136055100Y-130403600D03*
%TD*%
D39*
%TO.C,R5*%
X144310100Y-125831600D03*
X142659100Y-125831600D03*
%TD*%
%TO.C,R4*%
X144310100Y-124180600D03*
X142659100Y-124180600D03*
%TD*%
D35*
%TO.C,R3*%
X127292100Y-110337600D03*
X127292100Y-108686600D03*
%TD*%
%TO.C,R2*%
X125514100Y-110337600D03*
X125514100Y-108686600D03*
%TD*%
D37*
%TO.C,R1*%
X125514100Y-101447600D03*
X125514100Y-103098600D03*
%TD*%
D41*
%TO.C,OC3*%
X203365100Y-86461600D03*
X202095100Y-86461600D03*
X202095100Y-92811600D03*
X203365100Y-92811600D03*
%TD*%
%TO.C,OC2*%
X196888100Y-86461600D03*
X195618100Y-86461600D03*
X195618100Y-92811600D03*
X196888100Y-92811600D03*
%TD*%
%TO.C,OC1*%
X190665100Y-86461600D03*
X189395100Y-86461600D03*
X189395100Y-92811600D03*
X190665100Y-92811600D03*
%TD*%
D42*
%TO.C,L3*%
X139230100Y-87731600D03*
D43*
X138722100Y-88239600D03*
X138722100Y-90525600D03*
D42*
X139230100Y-91033600D03*
D43*
X135674100Y-90525600D03*
D42*
X135166100Y-91033600D03*
X135166100Y-87731600D03*
D43*
X135674100Y-88239600D03*
%TD*%
D44*
%TO.C,L2*%
X152946100Y-91541600D03*
D45*
X153962100Y-91541600D03*
X156502100Y-91541600D03*
D44*
X157518100Y-91541600D03*
%TD*%
D46*
%TO.C,L1*%
X90335100Y-86969600D03*
X90335100Y-89509600D03*
X95161100Y-89509600D03*
X95161100Y-86969600D03*
%TD*%
D47*
%TO.C,JP35*%
X198793100Y-83032600D03*
X201333100Y-83032600D03*
%TD*%
%TO.C,JP34*%
X193713100Y-83032600D03*
X196253100Y-83032600D03*
%TD*%
%TO.C,JP33*%
X191173100Y-83032600D03*
X188633100Y-83032600D03*
%TD*%
%TO.C,JP32*%
X148501100Y-91160600D03*
X145961100Y-91160600D03*
%TD*%
%TO.C,JP31*%
X179235100Y-108305600D03*
X179235100Y-110845600D03*
%TD*%
%TO.C,JP30*%
X181775100Y-108305600D03*
X181775100Y-110845600D03*
%TD*%
%TO.C,JP29*%
X184315100Y-108305600D03*
X184315100Y-110845600D03*
%TD*%
%TO.C,JP28*%
X179235100Y-125958600D03*
X179235100Y-123418600D03*
%TD*%
%TO.C,JP27*%
X181775100Y-125958600D03*
X181775100Y-123418600D03*
%TD*%
%TO.C,JP26*%
X184315100Y-125958600D03*
X184315100Y-123418600D03*
%TD*%
%TO.C,JP25*%
X186855100Y-108305600D03*
X186855100Y-110845600D03*
%TD*%
%TO.C,JP24*%
X189395100Y-108305600D03*
X189395100Y-110845600D03*
%TD*%
%TO.C,JP23*%
X191935100Y-110845600D03*
X191935100Y-108305600D03*
%TD*%
%TO.C,JP22*%
X186855100Y-125958600D03*
X186855100Y-123418600D03*
%TD*%
%TO.C,JP21*%
X189395100Y-125958600D03*
X189395100Y-123418600D03*
%TD*%
%TO.C,JP20*%
X191935100Y-125958600D03*
X191935100Y-123418600D03*
%TD*%
%TO.C,JP19*%
X194475100Y-108305600D03*
X194475100Y-110845600D03*
%TD*%
%TO.C,JP18*%
X197015100Y-108305600D03*
X197015100Y-110845600D03*
%TD*%
%TO.C,JP17*%
X199555100Y-108305600D03*
X199555100Y-110845600D03*
%TD*%
%TO.C,JP16*%
X194475100Y-125958600D03*
X194475100Y-123418600D03*
%TD*%
%TO.C,JP15*%
X197015100Y-125958600D03*
X197015100Y-123418600D03*
%TD*%
%TO.C,JP14*%
X199555100Y-125958600D03*
X199555100Y-123418600D03*
%TD*%
%TO.C,JP13*%
X202095100Y-108305600D03*
X202095100Y-110845600D03*
%TD*%
%TO.C,JP12*%
X204635100Y-108305600D03*
X204635100Y-110845600D03*
%TD*%
%TO.C,JP11*%
X207175100Y-108305600D03*
X207175100Y-110845600D03*
%TD*%
%TO.C,JP10*%
X202095100Y-125958600D03*
X202095100Y-123418600D03*
%TD*%
%TO.C,JP9*%
X204635100Y-125958600D03*
X204635100Y-123418600D03*
%TD*%
%TO.C,JP8*%
X207175100Y-125958600D03*
X207175100Y-123418600D03*
%TD*%
%TO.C,JP7*%
X93256100Y-103098600D03*
X90716100Y-103098600D03*
X88176100Y-103098600D03*
%TD*%
%TO.C,JP6*%
X124244100Y-86080600D03*
X124244100Y-88620600D03*
X124244100Y-91160600D03*
%TD*%
%TO.C,JP5*%
X102527100Y-83921600D03*
X99987100Y-83921600D03*
%TD*%
%TO.C,JP4*%
X97447100Y-83921600D03*
X94907100Y-83921600D03*
%TD*%
%TO.C,JP3*%
X154724100Y-123164600D03*
X157264100Y-123164600D03*
%TD*%
%TO.C,JP2*%
X149644100Y-123164600D03*
X152184100Y-123164600D03*
%TD*%
%TO.C,JP1*%
X118275100Y-118592600D03*
X120815100Y-118592600D03*
X123355100Y-118592600D03*
%TD*%
D11*
%TO.C,J12*%
X135928100Y-72999600D03*
X139738100Y-72999600D03*
%TD*%
D48*
%TO.C,J11*%
X147866100Y-84937600D03*
%TD*%
D11*
%TO.C,J10*%
X155613100Y-72745600D03*
X159423100Y-72745600D03*
X163233100Y-72745600D03*
X167043100Y-72745600D03*
X170853100Y-72745600D03*
X174663100Y-72745600D03*
X178473100Y-72745600D03*
X182283100Y-72745600D03*
%TD*%
%TO.C,J9*%
X173520100Y-137388600D03*
X169710100Y-137388600D03*
X165900100Y-137388600D03*
X162090100Y-137388600D03*
%TD*%
%TO.C,J8*%
X201587100Y-137388600D03*
X197777100Y-137388600D03*
X193967100Y-137388600D03*
X190157100Y-137388600D03*
X186347100Y-137388600D03*
X182537100Y-137388600D03*
%TD*%
%TO.C,J7*%
X189522100Y-72745600D03*
X193332100Y-72745600D03*
X197142100Y-72745600D03*
X200952100Y-72745600D03*
%TD*%
D49*
%TO.C,J6*%
X97574100Y-110337600D03*
X96812100Y-110337600D03*
X97574100Y-109337600D03*
X96812100Y-109337600D03*
X97574100Y-108337600D03*
X96812100Y-108337600D03*
X97574100Y-107337600D03*
X96812100Y-107337600D03*
X97574100Y-106337600D03*
X96812100Y-106337600D03*
X97574100Y-105337600D03*
X96812100Y-105337600D03*
D50*
X101485700Y-103407200D03*
X101485700Y-104042200D03*
X101485700Y-111633000D03*
X101485700Y-112268000D03*
%TD*%
D11*
%TO.C,J5*%
X112560100Y-137515600D03*
X108750100Y-137515600D03*
X104940100Y-137515600D03*
X101130100Y-137515600D03*
X97320100Y-137515600D03*
%TD*%
D51*
%TO.C,J4*%
X127038100Y-137515600D03*
X123228100Y-137515600D03*
X119418100Y-137515600D03*
%TD*%
%TO.C,J3*%
X96304100Y-72872600D03*
X100114100Y-72872600D03*
X103924100Y-72872600D03*
%TD*%
D11*
%TO.C,J2*%
X109893100Y-72872600D03*
X113703100Y-72872600D03*
X117513100Y-72872600D03*
X121323100Y-72872600D03*
X125133100Y-72872600D03*
X128943100Y-72872600D03*
%TD*%
D52*
%TO.C,J1*%
X121704100Y-110591600D03*
X121704100Y-109341600D03*
X121704100Y-108091600D03*
X121704100Y-106841600D03*
X121704100Y-105591600D03*
X121704100Y-104341600D03*
X121704100Y-103091600D03*
X121704100Y-101841600D03*
D53*
X118783100Y-113131600D03*
X118783100Y-99301600D03*
%TD*%
D54*
%TO.C,GND1*%
X159804100Y-96621600D03*
%TD*%
D55*
%TO.C,FIL15*%
X159423100Y-128752600D03*
X166281100Y-128752600D03*
D56*
X162852100Y-128752600D03*
%TD*%
D57*
%TO.C,FIL14*%
X186093100Y-130784600D03*
X186093100Y-129006600D03*
D58*
X186093100Y-129895600D03*
%TD*%
D57*
%TO.C,FIL13*%
X191808100Y-130784600D03*
X191808100Y-129006600D03*
D58*
X191808100Y-129895600D03*
%TD*%
D57*
%TO.C,FIL12*%
X197269100Y-130784600D03*
X197269100Y-129006600D03*
D58*
X197269100Y-129895600D03*
%TD*%
D57*
%TO.C,FIL11*%
X202603100Y-130784600D03*
X202603100Y-129006600D03*
D58*
X202603100Y-129895600D03*
%TD*%
D37*
%TO.C,FIL7*%
X109893100Y-130168360D03*
X109893100Y-131819360D03*
%TD*%
%TO.C,FIL6*%
X104305100Y-130168370D03*
X104305100Y-131819370D03*
%TD*%
%TO.C,FIL5*%
X101892100Y-130168360D03*
X101892100Y-131819360D03*
%TD*%
%TO.C,FIL4*%
X106972100Y-130168370D03*
X106972100Y-131819370D03*
%TD*%
D39*
%TO.C,FIL3*%
X122720100Y-127355600D03*
X121069100Y-127355600D03*
%TD*%
D36*
%TO.C,FIL2*%
X124498100Y-127355600D03*
X126149100Y-127355600D03*
%TD*%
D37*
%TO.C,FIL1*%
X151041100Y-103098600D03*
X151041100Y-104749600D03*
%TD*%
D59*
%TO.C,F1*%
X141643100Y-86588600D03*
X141643100Y-89588600D03*
%TD*%
D60*
%TO.C,DZ19*%
X151930100Y-101193600D03*
X153581100Y-101193600D03*
%TD*%
D61*
%TO.C,DZ18*%
X164122100Y-131038600D03*
X162471100Y-131038600D03*
%TD*%
D60*
%TO.C,DZ17*%
X173012100Y-130403600D03*
X174663100Y-130403600D03*
%TD*%
D62*
%TO.C,DZ16*%
X181394100Y-84556600D03*
X181394100Y-82905600D03*
%TD*%
D63*
%TO.C,DZ15*%
X176695100Y-97129600D03*
X176695100Y-98780600D03*
%TD*%
D62*
%TO.C,DZ14*%
X184188100Y-130784600D03*
X184188100Y-129133600D03*
%TD*%
%TO.C,DZ13*%
X191935100Y-98780600D03*
X191935100Y-97129600D03*
%TD*%
%TO.C,DZ12*%
X189903100Y-130784600D03*
X189903100Y-129133600D03*
%TD*%
D63*
%TO.C,DZ11*%
X195491100Y-97129600D03*
X195491100Y-98780600D03*
%TD*%
D62*
%TO.C,DZ10*%
X195364100Y-130784600D03*
X195364100Y-129133600D03*
%TD*%
%TO.C,DZ9*%
X210858100Y-98780600D03*
X210858100Y-97129600D03*
%TD*%
%TO.C,DZ8*%
X200825100Y-130784600D03*
X200825100Y-129133600D03*
%TD*%
D60*
%TO.C,DZ7*%
X121069100Y-130657600D03*
X122720100Y-130657600D03*
%TD*%
D61*
%TO.C,DZ6*%
X126149100Y-130657600D03*
X124498100Y-130657600D03*
%TD*%
D62*
%TO.C,DZ5*%
X125768100Y-82397600D03*
X125768100Y-80746600D03*
%TD*%
D64*
%TO.C,DZ3*%
X134531100Y-96621600D03*
X129959100Y-96621600D03*
%TD*%
D65*
%TO.C,DZ2*%
X97320100Y-87960200D03*
X97320100Y-88620600D03*
D66*
X98005900Y-88290400D03*
D67*
X98361500Y-88290400D03*
%TD*%
D68*
%TO.C,DZ1*%
X88760300Y-88442800D03*
X88760300Y-87782400D03*
D20*
X88074500Y-88112600D03*
D69*
X87718900Y-88112600D03*
%TD*%
D38*
%TO.C,DL1*%
X145961100Y-83159600D03*
X145961100Y-85318600D03*
%TD*%
D70*
%TO.C,D1*%
X141770100Y-81889600D03*
X134150100Y-81889600D03*
%TD*%
D37*
%TO.C,C90*%
X159804100Y-86080600D03*
X159804100Y-87731600D03*
%TD*%
%TO.C,C89*%
X158153100Y-86080600D03*
X158153100Y-87731600D03*
%TD*%
%TO.C,C88*%
X156502100Y-86080600D03*
X156502100Y-87731600D03*
%TD*%
D36*
%TO.C,C87*%
X151930100Y-99669600D03*
X153581100Y-99669600D03*
%TD*%
D35*
%TO.C,C86*%
X150152100Y-97383600D03*
X150152100Y-95732600D03*
%TD*%
%TO.C,C85*%
X148374100Y-97383600D03*
X148374100Y-95732600D03*
%TD*%
D39*
%TO.C,C84*%
X154216100Y-78841600D03*
X152565100Y-78841600D03*
%TD*%
%TO.C,C83*%
X137198100Y-94462600D03*
X135547100Y-94462600D03*
%TD*%
D71*
%TO.C,C81*%
X150152100Y-88747600D03*
X152184100Y-88747600D03*
%TD*%
D36*
%TO.C,C80*%
X160693100Y-123799600D03*
X162344100Y-123799600D03*
%TD*%
%TO.C,C79*%
X160693100Y-125450600D03*
X162344100Y-125450600D03*
%TD*%
%TO.C,C78*%
X166027100Y-125450600D03*
X167678100Y-125450600D03*
%TD*%
%TO.C,C77*%
X166027100Y-123672600D03*
X167678100Y-123672600D03*
%TD*%
%TO.C,C76*%
X173012100Y-128752600D03*
X174663100Y-128752600D03*
%TD*%
D39*
%TO.C,C75*%
X171361100Y-130403600D03*
X169710100Y-130403600D03*
%TD*%
%TO.C,C74*%
X169710100Y-128752600D03*
X171361100Y-128752600D03*
%TD*%
%TO.C,C73*%
X176822100Y-79984600D03*
X175171100Y-79984600D03*
%TD*%
%TO.C,C72*%
X173520100Y-79984600D03*
X171869100Y-79984600D03*
%TD*%
%TO.C,C71*%
X164376100Y-79984600D03*
X162725100Y-79984600D03*
%TD*%
D36*
%TO.C,C70*%
X167551100Y-79984600D03*
X169202100Y-79984600D03*
%TD*%
%TO.C,C69*%
X181140100Y-86207600D03*
X182791100Y-86207600D03*
%TD*%
D37*
%TO.C,C68*%
X168948100Y-90017600D03*
X168948100Y-91668600D03*
%TD*%
D36*
%TO.C,C67*%
X170472100Y-90017600D03*
X172123100Y-90017600D03*
%TD*%
%TO.C,C66*%
X171615100Y-105384600D03*
X173266100Y-105384600D03*
%TD*%
%TO.C,C65*%
X171615100Y-107035600D03*
X173266100Y-107035600D03*
%TD*%
%TO.C,C64*%
X171615100Y-114020600D03*
X173266100Y-114020600D03*
%TD*%
%TO.C,C63*%
X171615100Y-115671600D03*
X173266100Y-115671600D03*
%TD*%
D37*
%TO.C,C62*%
X178346100Y-97129600D03*
X178346100Y-98780600D03*
%TD*%
D35*
%TO.C,C61*%
X176695100Y-101701600D03*
X176695100Y-100050600D03*
%TD*%
%TO.C,C60*%
X190284100Y-98780600D03*
X190284100Y-97129600D03*
%TD*%
%TO.C,C59*%
X191935100Y-101701600D03*
X191935100Y-100050600D03*
%TD*%
D36*
%TO.C,C58*%
X181267100Y-102844600D03*
X182918100Y-102844600D03*
%TD*%
D37*
%TO.C,C57*%
X197142100Y-97129600D03*
X197142100Y-98780600D03*
%TD*%
D35*
%TO.C,C56*%
X195491100Y-101701600D03*
X195491100Y-100050600D03*
%TD*%
%TO.C,C55*%
X209207100Y-98780600D03*
X209207100Y-97129600D03*
%TD*%
%TO.C,C54*%
X210858100Y-101701600D03*
X210858100Y-100050600D03*
%TD*%
D36*
%TO.C,C53*%
X200063100Y-102844600D03*
X201714100Y-102844600D03*
%TD*%
D37*
%TO.C,C52*%
X86779100Y-110210600D03*
X86779100Y-111861600D03*
%TD*%
D35*
%TO.C,C51*%
X86779100Y-116687600D03*
X86779100Y-115036600D03*
%TD*%
D36*
%TO.C,C50*%
X96177100Y-113893600D03*
X97828100Y-113893600D03*
%TD*%
D37*
%TO.C,C49*%
X142913100Y-137769600D03*
X142913100Y-139420600D03*
%TD*%
D39*
%TO.C,C48*%
X134531100Y-136499600D03*
X132880100Y-136499600D03*
%TD*%
D37*
%TO.C,C47*%
X112052100Y-119500370D03*
X112052100Y-121151370D03*
%TD*%
D39*
%TO.C,C46*%
X122720100Y-129006600D03*
X121069100Y-129006600D03*
%TD*%
D36*
%TO.C,C45*%
X121069100Y-125577600D03*
X122720100Y-125577600D03*
%TD*%
D35*
%TO.C,C44*%
X100725300Y-127874700D03*
X100725300Y-126223700D03*
%TD*%
%TO.C,C43*%
X100749100Y-124707360D03*
X100749100Y-123056360D03*
%TD*%
%TO.C,C42*%
X98971100Y-121532360D03*
X98971100Y-119881360D03*
%TD*%
D36*
%TO.C,C41*%
X124498100Y-129006600D03*
X126149100Y-129006600D03*
%TD*%
D39*
%TO.C,C40*%
X126149100Y-125577600D03*
X124498100Y-125577600D03*
%TD*%
D35*
%TO.C,C39*%
X100749100Y-121532360D03*
X100749100Y-119881360D03*
%TD*%
D39*
%TO.C,C38*%
X108496100Y-88112600D03*
X106845100Y-88112600D03*
%TD*%
%TO.C,C37*%
X108496100Y-89763600D03*
X106845100Y-89763600D03*
%TD*%
%TO.C,C36*%
X103797100Y-94081600D03*
X102146100Y-94081600D03*
%TD*%
%TO.C,C35*%
X103797100Y-92430600D03*
X102146100Y-92430600D03*
%TD*%
D36*
%TO.C,C34*%
X127546100Y-89763600D03*
X129197100Y-89763600D03*
%TD*%
D35*
%TO.C,C33*%
X129324100Y-82397600D03*
X129324100Y-80746600D03*
%TD*%
%TO.C,C32*%
X127546100Y-82397600D03*
X127546100Y-80746600D03*
%TD*%
D37*
%TO.C,C31*%
X133388100Y-92303600D03*
X133388100Y-93954600D03*
%TD*%
%TO.C,C30*%
X131737100Y-92303600D03*
X131737100Y-93954600D03*
%TD*%
D39*
%TO.C,C29*%
X119799100Y-80111600D03*
X118148100Y-80111600D03*
%TD*%
D36*
%TO.C,C28*%
X113322100Y-80111600D03*
X114973100Y-80111600D03*
%TD*%
D39*
%TO.C,C27*%
X119799100Y-88493600D03*
X118148100Y-88493600D03*
%TD*%
%TO.C,C26*%
X113703100Y-88493600D03*
X112052100Y-88493600D03*
%TD*%
%TO.C,C25*%
X99098100Y-89890600D03*
X97447100Y-89890600D03*
%TD*%
D35*
%TO.C,C24*%
X95415100Y-94335600D03*
X95415100Y-92684600D03*
%TD*%
D37*
%TO.C,C23*%
X89446100Y-99542600D03*
X89446100Y-97891600D03*
%TD*%
%TO.C,C22*%
X91859100Y-97891600D03*
X91859100Y-99542600D03*
%TD*%
D39*
%TO.C,C21*%
X104178100Y-81400360D03*
X102527100Y-81400360D03*
%TD*%
D36*
%TO.C,C20*%
X86779100Y-89890600D03*
X88430100Y-89890600D03*
%TD*%
%TO.C,C19*%
X86779100Y-86461600D03*
X88430100Y-86461600D03*
%TD*%
D39*
%TO.C,C18*%
X99098100Y-86715600D03*
X97447100Y-86715600D03*
%TD*%
D37*
%TO.C,C17*%
X145326100Y-97002600D03*
X145326100Y-98653600D03*
%TD*%
D72*
%TO.C,C16*%
X164249100Y-106019600D03*
X164249100Y-114909600D03*
%TD*%
D71*
%TO.C,C15*%
X153200100Y-118592600D03*
X155232100Y-118592600D03*
%TD*%
D37*
%TO.C,C14*%
X153962100Y-112369600D03*
X153962100Y-114020600D03*
%TD*%
D35*
%TO.C,C13*%
X153962100Y-116687600D03*
X153962100Y-115036600D03*
%TD*%
D71*
%TO.C,C12*%
X155613100Y-106527600D03*
X157645100Y-106527600D03*
%TD*%
D36*
%TO.C,C11*%
X145453100Y-121640600D03*
X147104100Y-121640600D03*
%TD*%
D37*
%TO.C,C10*%
X130594100Y-115925600D03*
X130594100Y-117576600D03*
%TD*%
%TO.C,C9*%
X132626100Y-102971600D03*
X132626100Y-104622600D03*
%TD*%
D35*
%TO.C,C8*%
X147612100Y-103606600D03*
X147612100Y-101955600D03*
%TD*%
D39*
%TO.C,C7*%
X147104100Y-119989600D03*
X145453100Y-119989600D03*
%TD*%
D35*
%TO.C,C6*%
X132245100Y-117576600D03*
X132245100Y-115925600D03*
%TD*%
%TO.C,C5*%
X134404100Y-104622600D03*
X134404100Y-102971600D03*
%TD*%
D37*
%TO.C,C4*%
X145961100Y-101955600D03*
X145961100Y-103606600D03*
%TD*%
D73*
%TO.C,C3*%
X140984300Y-122655000D03*
X138952300Y-122655000D03*
%TD*%
D37*
%TO.C,C2*%
X151041100Y-106273600D03*
X151041100Y-107924600D03*
%TD*%
%TO.C,C1*%
X149390100Y-106273600D03*
X149390100Y-107924600D03*
%TD*%
D74*
%TO.C,A6*%
X148501100Y-75920600D03*
%TD*%
%TO.C,A5*%
X148501100Y-134086600D03*
%TD*%
%TO.C,A4*%
X87668100Y-75920600D03*
%TD*%
%TO.C,A3*%
X87795100Y-134086600D03*
%TD*%
%TO.C,A2*%
X209207100Y-134086600D03*
%TD*%
%TO.C,A1*%
X209207100Y-75920600D03*
%TD*%
D54*
%TO.C,+12V1*%
X142024100Y-92557600D03*
%TD*%
%TO.C,+5V1*%
X159804100Y-91541600D03*
%TD*%
%TO.C,+3V3S1*%
X175298100Y-124561600D03*
%TD*%
%TO.C,+3V3*%
X149009100Y-100939600D03*
%TD*%
M02*
