G04 #@! TF.FileFunction,Copper,L2,Bot,Signal*
%FSLAX46Y46*%
G04 Gerber Fmt 4.6, Leading zero omitted, Abs format (unit mm)*
G04 Created by KiCad (PCBNEW 4.0.6) date 10/12/17 07:50:25*
%MOMM*%
%LPD*%
G01*
G04 APERTURE LIST*
%ADD10C,0.100000*%
%ADD11C,2.100000*%
%ADD12C,0.600000*%
%ADD13C,0.400000*%
G04 APERTURE END LIST*
D10*
D11*
X161569400Y-67843400D03*
X161569400Y-70383400D03*
X161569400Y-72923400D03*
X161569400Y-75463400D03*
X161569400Y-78003400D03*
X161569400Y-80543400D03*
X161569400Y-83083400D03*
X161569400Y-85623400D03*
X161569400Y-88163400D03*
X161569400Y-65303400D03*
X159029400Y-65303400D03*
X156489400Y-65303400D03*
X153949400Y-65303400D03*
X151409400Y-65303400D03*
X148869400Y-65303400D03*
X146329400Y-65303400D03*
X143789400Y-65303400D03*
X141249400Y-65303400D03*
X141249400Y-67843400D03*
X141249400Y-70383400D03*
X141249400Y-72923400D03*
X141249400Y-75463400D03*
X141249400Y-78003400D03*
X141249400Y-80543400D03*
X141249400Y-83083400D03*
X141249400Y-85623400D03*
X141249400Y-88163400D03*
D12*
X147941000Y-81225000D03*
X151301000Y-81215000D03*
X156361000Y-80655000D03*
X146361000Y-80655000D03*
X148011000Y-84655000D03*
X152551000Y-74705000D03*
X152551000Y-72525000D03*
D13*
X147941000Y-81225000D02*
X147951000Y-81215000D01*
X147951000Y-81215000D02*
X151301000Y-81215000D01*
X151301000Y-81215000D02*
X154971000Y-81215000D01*
X154971000Y-81215000D02*
X159379400Y-85623400D01*
X159379400Y-85623400D02*
X161569400Y-85623400D01*
X146361000Y-80645000D02*
X146361000Y-80655000D01*
X147261000Y-79745000D02*
X146361000Y-80645000D01*
X155451000Y-79745000D02*
X147261000Y-79745000D01*
X155451000Y-79745000D02*
X156361000Y-80655000D01*
X144951000Y-81605000D02*
X148011000Y-84665000D01*
X146411000Y-77915000D02*
X155601000Y-77915000D01*
X144951000Y-79375000D02*
X146411000Y-77915000D01*
X144951000Y-81605000D02*
X144951000Y-79375000D01*
X158801000Y-71025000D02*
X159442600Y-70383400D01*
X158801000Y-74715000D02*
X158801000Y-71025000D01*
X155601000Y-77915000D02*
X158801000Y-74715000D01*
X161569400Y-70383400D02*
X159442600Y-70383400D01*
X148011000Y-84665000D02*
X148011000Y-84655000D01*
X152551000Y-72525000D02*
X152551000Y-74705000D01*
M02*
