M48
;DRILL file {KiCad 4.0.6} date 10/12/17 07:50:23
;FORMAT={-:-/ absolute / inch / decimal}
FMAT,2
INCH,TZ
T1C0.016
T2C0.059
%
G90
G05
M72
T1
X5.7622Y-3.1754
X5.8244Y-3.1978
X5.8272Y-3.3329
X5.9567Y-3.1974
X6.0059Y-2.8553
X6.0059Y-2.9411
X6.1559Y-3.1754
T2
X5.561Y-2.571
X5.561Y-2.671
X5.561Y-2.771
X5.561Y-2.871
X5.561Y-2.971
X5.561Y-3.071
X5.561Y-3.171
X5.561Y-3.271
X5.561Y-3.371
X5.561Y-3.471
X5.661Y-2.571
X5.761Y-2.571
X5.861Y-2.571
X5.961Y-2.571
X6.061Y-2.571
X6.161Y-2.571
X6.261Y-2.571
X6.361Y-2.571
X6.361Y-2.671
X6.361Y-2.771
X6.361Y-2.871
X6.361Y-2.971
X6.361Y-3.071
X6.361Y-3.171
X6.361Y-3.271
X6.361Y-3.371
X6.361Y-3.471
T0
M30
