G04 #@! TF.FileFunction,Soldermask,Top*
%FSLAX46Y46*%
G04 Gerber Fmt 4.6, Leading zero omitted, Abs format (unit mm)*
G04 Created by KiCad (PCBNEW 4.0.6) date 10/12/17 07:50:25*
%MOMM*%
%LPD*%
G01*
G04 APERTURE LIST*
%ADD10C,0.100000*%
%ADD11C,2.500000*%
%ADD12R,1.650000X1.400000*%
%ADD13R,1.850000X2.400000*%
%ADD14R,1.200000X1.900000*%
%ADD15R,1.600000X1.600000*%
%ADD16R,1.700000X1.100000*%
%ADD17R,0.850000X1.900000*%
G04 APERTURE END LIST*
D10*
D11*
X161569400Y-67843400D03*
X161569400Y-70383400D03*
X161569400Y-72923400D03*
X161569400Y-75463400D03*
X161569400Y-78003400D03*
X161569400Y-80543400D03*
X161569400Y-83083400D03*
X161569400Y-85623400D03*
X161569400Y-88163400D03*
X161569400Y-65303400D03*
X159029400Y-65303400D03*
X156489400Y-65303400D03*
X153949400Y-65303400D03*
X151409400Y-65303400D03*
X148869400Y-65303400D03*
X146329400Y-65303400D03*
X143789400Y-65303400D03*
X141249400Y-65303400D03*
X141249400Y-67843400D03*
X141249400Y-70383400D03*
X141249400Y-72923400D03*
X141249400Y-75463400D03*
X141249400Y-78003400D03*
X141249400Y-80543400D03*
X141249400Y-83083400D03*
X141249400Y-85623400D03*
X141249400Y-88163400D03*
D12*
X144601000Y-72625000D03*
X144601000Y-70625000D03*
D13*
X144536000Y-88955000D03*
X158286000Y-88955000D03*
X158286000Y-80655000D03*
X144536000Y-80655000D03*
D14*
X146911000Y-86355000D03*
X148011000Y-86355000D03*
X149111000Y-86355000D03*
X150211000Y-86355000D03*
X151311000Y-86355000D03*
X152411000Y-86355000D03*
X153511000Y-86355000D03*
X154611000Y-86355000D03*
D15*
X157801000Y-70595000D03*
X157801000Y-72795000D03*
D16*
X154341000Y-72675000D03*
X154341000Y-70775000D03*
D17*
X146476000Y-74555000D03*
X147126000Y-74555000D03*
X147776000Y-74555000D03*
X148426000Y-74555000D03*
X149076000Y-74555000D03*
X149726000Y-74555000D03*
X150376000Y-74555000D03*
X151026000Y-74555000D03*
X151026000Y-68655000D03*
X150376000Y-68655000D03*
X149726000Y-68655000D03*
X149076000Y-68655000D03*
X148426000Y-68655000D03*
X147776000Y-68655000D03*
X147126000Y-68655000D03*
X146476000Y-68655000D03*
M02*
