G04 #@! TF.FileFunction,Legend,Bot*
%FSLAX46Y46*%
G04 Gerber Fmt 4.6, Leading zero omitted, Abs format (unit mm)*
G04 Created by KiCad (PCBNEW 0.201601131446+6458~42~ubuntu14.04.1-product) date Mon 18 Jan 2016 18:38:02 CET*
%MOMM*%
G01*
G04 APERTURE LIST*
%ADD10C,0.100000*%
%ADD11C,0.175000*%
%ADD12C,0.300000*%
%ADD13C,0.127000*%
%ADD14C,0.149860*%
G04 APERTURE END LIST*
D10*
D11*
X149063000Y-94284000D02*
X148529667Y-94284000D01*
X148796334Y-94550667D02*
X148796334Y-94017333D01*
X147863000Y-93850667D02*
X148196333Y-93850667D01*
X148229667Y-94184000D01*
X148196333Y-94150667D01*
X148129667Y-94117333D01*
X147963000Y-94117333D01*
X147896333Y-94150667D01*
X147863000Y-94184000D01*
X147829667Y-94250667D01*
X147829667Y-94417333D01*
X147863000Y-94484000D01*
X147896333Y-94517333D01*
X147963000Y-94550667D01*
X148129667Y-94550667D01*
X148196333Y-94517333D01*
X148229667Y-94484000D01*
X156235333Y-94011000D02*
X156301999Y-93977667D01*
X156401999Y-93977667D01*
X156501999Y-94011000D01*
X156568666Y-94077667D01*
X156601999Y-94144333D01*
X156635333Y-94277667D01*
X156635333Y-94377667D01*
X156601999Y-94511000D01*
X156568666Y-94577667D01*
X156501999Y-94644333D01*
X156401999Y-94677667D01*
X156335333Y-94677667D01*
X156235333Y-94644333D01*
X156201999Y-94611000D01*
X156201999Y-94377667D01*
X156335333Y-94377667D01*
X155901999Y-94677667D02*
X155901999Y-93977667D01*
X155501999Y-94677667D01*
X155501999Y-93977667D01*
X155168666Y-94677667D02*
X155168666Y-93977667D01*
X155002000Y-93977667D01*
X154902000Y-94011000D01*
X154835333Y-94077667D01*
X154802000Y-94144333D01*
X154768666Y-94277667D01*
X154768666Y-94377667D01*
X154802000Y-94511000D01*
X154835333Y-94577667D01*
X154902000Y-94644333D01*
X155002000Y-94677667D01*
X155168666Y-94677667D01*
X156802000Y-112452143D02*
X156268667Y-112452143D01*
X156535334Y-112756905D02*
X156535334Y-112147381D01*
X155602000Y-111956905D02*
X155935333Y-111956905D01*
X155968667Y-112337857D01*
X155935333Y-112299762D01*
X155868667Y-112261667D01*
X155702000Y-112261667D01*
X155635333Y-112299762D01*
X155602000Y-112337857D01*
X155568667Y-112414048D01*
X155568667Y-112604524D01*
X155602000Y-112680714D01*
X155635333Y-112718810D01*
X155702000Y-112756905D01*
X155868667Y-112756905D01*
X155935333Y-112718810D01*
X155968667Y-112680714D01*
X155268666Y-112680714D02*
X155235333Y-112718810D01*
X155268666Y-112756905D01*
X155302000Y-112718810D01*
X155268666Y-112680714D01*
X155268666Y-112756905D01*
X154602000Y-111956905D02*
X154935333Y-111956905D01*
X154968667Y-112337857D01*
X154935333Y-112299762D01*
X154868667Y-112261667D01*
X154702000Y-112261667D01*
X154635333Y-112299762D01*
X154602000Y-112337857D01*
X154568667Y-112414048D01*
X154568667Y-112604524D01*
X154602000Y-112680714D01*
X154635333Y-112718810D01*
X154702000Y-112756905D01*
X154868667Y-112756905D01*
X154935333Y-112718810D01*
X154968667Y-112680714D01*
X153441333Y-97290000D02*
X153507999Y-97251905D01*
X153607999Y-97251905D01*
X153707999Y-97290000D01*
X153774666Y-97366190D01*
X153807999Y-97442381D01*
X153841333Y-97594762D01*
X153841333Y-97709048D01*
X153807999Y-97861429D01*
X153774666Y-97937619D01*
X153707999Y-98013810D01*
X153607999Y-98051905D01*
X153541333Y-98051905D01*
X153441333Y-98013810D01*
X153407999Y-97975714D01*
X153407999Y-97709048D01*
X153541333Y-97709048D01*
X153107999Y-98051905D02*
X153107999Y-97251905D01*
X152707999Y-98051905D01*
X152707999Y-97251905D01*
X152374666Y-98051905D02*
X152374666Y-97251905D01*
X152208000Y-97251905D01*
X152108000Y-97290000D01*
X152041333Y-97366190D01*
X152008000Y-97442381D01*
X151974666Y-97594762D01*
X151974666Y-97709048D01*
X152008000Y-97861429D01*
X152041333Y-97937619D01*
X152108000Y-98013810D01*
X152208000Y-98051905D01*
X152374666Y-98051905D01*
X153308000Y-100641905D02*
X153541334Y-100260952D01*
X153708000Y-100641905D02*
X153708000Y-99841905D01*
X153441334Y-99841905D01*
X153374667Y-99880000D01*
X153341334Y-99918095D01*
X153308000Y-99994286D01*
X153308000Y-100108571D01*
X153341334Y-100184762D01*
X153374667Y-100222857D01*
X153441334Y-100260952D01*
X153708000Y-100260952D01*
X152674667Y-100641905D02*
X153008000Y-100641905D01*
X153008000Y-99841905D01*
X152074667Y-100641905D02*
X152474667Y-100641905D01*
X152274667Y-100641905D02*
X152274667Y-99841905D01*
X152341333Y-99956190D01*
X152408000Y-100032381D01*
X152474667Y-100070476D01*
X153308000Y-103231905D02*
X153541334Y-102850952D01*
X153708000Y-103231905D02*
X153708000Y-102431905D01*
X153441334Y-102431905D01*
X153374667Y-102470000D01*
X153341334Y-102508095D01*
X153308000Y-102584286D01*
X153308000Y-102698571D01*
X153341334Y-102774762D01*
X153374667Y-102812857D01*
X153441334Y-102850952D01*
X153708000Y-102850952D01*
X152674667Y-103231905D02*
X153008000Y-103231905D01*
X153008000Y-102431905D01*
X152474667Y-102508095D02*
X152441333Y-102470000D01*
X152374667Y-102431905D01*
X152208000Y-102431905D01*
X152141333Y-102470000D01*
X152108000Y-102508095D01*
X152074667Y-102584286D01*
X152074667Y-102660476D01*
X152108000Y-102774762D01*
X152508000Y-103231905D01*
X152074667Y-103231905D01*
X153308000Y-105821905D02*
X153541334Y-105440952D01*
X153708000Y-105821905D02*
X153708000Y-105021905D01*
X153441334Y-105021905D01*
X153374667Y-105060000D01*
X153341334Y-105098095D01*
X153308000Y-105174286D01*
X153308000Y-105288571D01*
X153341334Y-105364762D01*
X153374667Y-105402857D01*
X153441334Y-105440952D01*
X153708000Y-105440952D01*
X152674667Y-105821905D02*
X153008000Y-105821905D01*
X153008000Y-105021905D01*
X152508000Y-105021905D02*
X152074667Y-105021905D01*
X152308000Y-105326667D01*
X152208000Y-105326667D01*
X152141333Y-105364762D01*
X152108000Y-105402857D01*
X152074667Y-105479048D01*
X152074667Y-105669524D01*
X152108000Y-105745714D01*
X152141333Y-105783810D01*
X152208000Y-105821905D01*
X152408000Y-105821905D01*
X152474667Y-105783810D01*
X152508000Y-105745714D01*
X153308000Y-108411905D02*
X153541334Y-108030952D01*
X153708000Y-108411905D02*
X153708000Y-107611905D01*
X153441334Y-107611905D01*
X153374667Y-107650000D01*
X153341334Y-107688095D01*
X153308000Y-107764286D01*
X153308000Y-107878571D01*
X153341334Y-107954762D01*
X153374667Y-107992857D01*
X153441334Y-108030952D01*
X153708000Y-108030952D01*
X152674667Y-108411905D02*
X153008000Y-108411905D01*
X153008000Y-107611905D01*
X152141333Y-107878571D02*
X152141333Y-108411905D01*
X152308000Y-107573810D02*
X152474667Y-108145238D01*
X152041333Y-108145238D01*
X153651000Y-113080000D02*
X153117667Y-113080000D01*
X153384334Y-113346667D02*
X153384334Y-112813333D01*
X152851000Y-112646667D02*
X152417667Y-112646667D01*
X152651000Y-112913333D01*
X152551000Y-112913333D01*
X152484333Y-112946667D01*
X152451000Y-112980000D01*
X152417667Y-113046667D01*
X152417667Y-113213333D01*
X152451000Y-113280000D01*
X152484333Y-113313333D01*
X152551000Y-113346667D01*
X152751000Y-113346667D01*
X152817667Y-113313333D01*
X152851000Y-113280000D01*
X152117666Y-113280000D02*
X152084333Y-113313333D01*
X152117666Y-113346667D01*
X152151000Y-113313333D01*
X152117666Y-113280000D01*
X152117666Y-113346667D01*
X151851000Y-112646667D02*
X151417667Y-112646667D01*
X151651000Y-112913333D01*
X151551000Y-112913333D01*
X151484333Y-112946667D01*
X151451000Y-112980000D01*
X151417667Y-113046667D01*
X151417667Y-113213333D01*
X151451000Y-113280000D01*
X151484333Y-113313333D01*
X151551000Y-113346667D01*
X151751000Y-113346667D01*
X151817667Y-113313333D01*
X151851000Y-113280000D01*
X150217667Y-112680000D02*
X150284333Y-112646667D01*
X150384333Y-112646667D01*
X150484333Y-112680000D01*
X150551000Y-112746667D01*
X150584333Y-112813333D01*
X150617667Y-112946667D01*
X150617667Y-113046667D01*
X150584333Y-113180000D01*
X150551000Y-113246667D01*
X150484333Y-113313333D01*
X150384333Y-113346667D01*
X150317667Y-113346667D01*
X150217667Y-113313333D01*
X150184333Y-113280000D01*
X150184333Y-113046667D01*
X150317667Y-113046667D01*
X149884333Y-113346667D02*
X149884333Y-112646667D01*
X149484333Y-113346667D01*
X149484333Y-112646667D01*
X149151000Y-113346667D02*
X149151000Y-112646667D01*
X148984334Y-112646667D01*
X148884334Y-112680000D01*
X148817667Y-112746667D01*
X148784334Y-112813333D01*
X148751000Y-112946667D01*
X148751000Y-113046667D01*
X148784334Y-113180000D01*
X148817667Y-113246667D01*
X148884334Y-113313333D01*
X148984334Y-113346667D01*
X149151000Y-113346667D01*
X147951001Y-113313333D02*
X147851001Y-113346667D01*
X147684334Y-113346667D01*
X147617667Y-113313333D01*
X147584334Y-113280000D01*
X147551001Y-113213333D01*
X147551001Y-113146667D01*
X147584334Y-113080000D01*
X147617667Y-113046667D01*
X147684334Y-113013333D01*
X147817667Y-112980000D01*
X147884334Y-112946667D01*
X147917667Y-112913333D01*
X147951001Y-112846667D01*
X147951001Y-112780000D01*
X147917667Y-112713333D01*
X147884334Y-112680000D01*
X147817667Y-112646667D01*
X147651001Y-112646667D01*
X147551001Y-112680000D01*
X147251000Y-113346667D02*
X147251000Y-112646667D01*
X147084334Y-112646667D01*
X146984334Y-112680000D01*
X146917667Y-112746667D01*
X146884334Y-112813333D01*
X146851000Y-112946667D01*
X146851000Y-113046667D01*
X146884334Y-113180000D01*
X146917667Y-113246667D01*
X146984334Y-113313333D01*
X147084334Y-113346667D01*
X147251000Y-113346667D01*
X146584334Y-113146667D02*
X146251000Y-113146667D01*
X146651000Y-113346667D02*
X146417667Y-112646667D01*
X146184334Y-113346667D01*
X145451001Y-113313333D02*
X145351001Y-113346667D01*
X145184334Y-113346667D01*
X145117667Y-113313333D01*
X145084334Y-113280000D01*
X145051001Y-113213333D01*
X145051001Y-113146667D01*
X145084334Y-113080000D01*
X145117667Y-113046667D01*
X145184334Y-113013333D01*
X145317667Y-112980000D01*
X145384334Y-112946667D01*
X145417667Y-112913333D01*
X145451001Y-112846667D01*
X145451001Y-112780000D01*
X145417667Y-112713333D01*
X145384334Y-112680000D01*
X145317667Y-112646667D01*
X145151001Y-112646667D01*
X145051001Y-112680000D01*
X144351000Y-113280000D02*
X144384334Y-113313333D01*
X144484334Y-113346667D01*
X144551000Y-113346667D01*
X144651000Y-113313333D01*
X144717667Y-113246667D01*
X144751000Y-113180000D01*
X144784334Y-113046667D01*
X144784334Y-112946667D01*
X144751000Y-112813333D01*
X144717667Y-112746667D01*
X144651000Y-112680000D01*
X144551000Y-112646667D01*
X144484334Y-112646667D01*
X144384334Y-112680000D01*
X144351000Y-112713333D01*
X143717667Y-113346667D02*
X144051000Y-113346667D01*
X144051000Y-112646667D01*
X142951000Y-113080000D02*
X142417667Y-113080000D01*
X142684334Y-113346667D02*
X142684334Y-112813333D01*
X141751000Y-112646667D02*
X142084333Y-112646667D01*
X142117667Y-112980000D01*
X142084333Y-112946667D01*
X142017667Y-112913333D01*
X141851000Y-112913333D01*
X141784333Y-112946667D01*
X141751000Y-112980000D01*
X141717667Y-113046667D01*
X141717667Y-113213333D01*
X141751000Y-113280000D01*
X141784333Y-113313333D01*
X141851000Y-113346667D01*
X142017667Y-113346667D01*
X142084333Y-113313333D01*
X142117667Y-113280000D01*
D12*
X149288572Y-91547143D02*
X150431429Y-91547143D01*
X148506571Y-99778858D02*
X147506571Y-99778858D01*
X147792286Y-99778858D02*
X147649429Y-99850286D01*
X147578000Y-99921715D01*
X147506571Y-100064572D01*
X147506571Y-100207429D01*
X148506571Y-100707429D02*
X147506571Y-100707429D01*
X147649429Y-100707429D02*
X147578000Y-100778857D01*
X147506571Y-100921715D01*
X147506571Y-101136000D01*
X147578000Y-101278857D01*
X147720857Y-101350286D01*
X148506571Y-101350286D01*
X147720857Y-101350286D02*
X147578000Y-101421715D01*
X147506571Y-101564572D01*
X147506571Y-101778857D01*
X147578000Y-101921715D01*
X147720857Y-101993143D01*
X148506571Y-101993143D01*
X148506571Y-103350286D02*
X147720857Y-103350286D01*
X147578000Y-103278857D01*
X147506571Y-103136000D01*
X147506571Y-102850286D01*
X147578000Y-102707429D01*
X148435143Y-103350286D02*
X148506571Y-103207429D01*
X148506571Y-102850286D01*
X148435143Y-102707429D01*
X148292286Y-102636000D01*
X148149429Y-102636000D01*
X148006571Y-102707429D01*
X147935143Y-102850286D01*
X147935143Y-103207429D01*
X147863714Y-103350286D01*
X147506571Y-104064572D02*
X149006571Y-104064572D01*
X147578000Y-104064572D02*
X147506571Y-104207429D01*
X147506571Y-104493143D01*
X147578000Y-104636000D01*
X147649429Y-104707429D01*
X147792286Y-104778858D01*
X148220857Y-104778858D01*
X148363714Y-104707429D01*
X148435143Y-104636000D01*
X148506571Y-104493143D01*
X148506571Y-104207429D01*
X148435143Y-104064572D01*
X148363714Y-105421715D02*
X148435143Y-105493143D01*
X148506571Y-105421715D01*
X148435143Y-105350286D01*
X148363714Y-105421715D01*
X148506571Y-105421715D01*
X148435143Y-106778858D02*
X148506571Y-106636001D01*
X148506571Y-106350287D01*
X148435143Y-106207429D01*
X148363714Y-106136001D01*
X148220857Y-106064572D01*
X147792286Y-106064572D01*
X147649429Y-106136001D01*
X147578000Y-106207429D01*
X147506571Y-106350287D01*
X147506571Y-106636001D01*
X147578000Y-106778858D01*
X148435143Y-108064572D02*
X148506571Y-107921715D01*
X148506571Y-107636001D01*
X148435143Y-107493143D01*
X148363714Y-107421715D01*
X148220857Y-107350286D01*
X147792286Y-107350286D01*
X147649429Y-107421715D01*
X147578000Y-107493143D01*
X147506571Y-107636001D01*
X147506571Y-107921715D01*
X147578000Y-108064572D01*
D13*
X147741640Y-91033600D02*
X148041360Y-91333320D01*
X148041360Y-91333320D02*
X148041360Y-90733880D01*
X148041360Y-90733880D02*
X147741640Y-91033600D01*
X147843240Y-90934540D02*
X147843240Y-91132660D01*
X147942300Y-91234260D02*
X147942300Y-90832940D01*
X148178520Y-90233500D02*
X148178520Y-91833700D01*
X147579080Y-91833700D02*
X147579080Y-90233500D01*
X146878040Y-91833700D02*
X148879560Y-91833700D01*
X148879560Y-91833700D02*
X148879560Y-90233500D01*
X148879560Y-90233500D02*
X146878040Y-90233500D01*
X146878040Y-90233500D02*
X146878040Y-91833700D01*
X145796000Y-95453200D02*
X145796000Y-97078800D01*
X143510000Y-97078800D02*
X143510000Y-95453200D01*
X143052800Y-97078800D02*
X143052800Y-95453200D01*
X143052800Y-95453200D02*
X146253200Y-95453200D01*
X146253200Y-95453200D02*
X146253200Y-97078800D01*
X146253200Y-97078800D02*
X143052800Y-97078800D01*
D14*
X148469350Y-93046550D02*
X148469350Y-92246450D01*
X148278850Y-92246450D01*
X148164550Y-92284550D01*
X148088350Y-92360750D01*
X148050250Y-92436950D01*
X148012150Y-92589350D01*
X148012150Y-92703650D01*
X148050250Y-92856050D01*
X148088350Y-92932250D01*
X148164550Y-93008450D01*
X148278850Y-93046550D01*
X148469350Y-93046550D01*
X147250150Y-93046550D02*
X147707350Y-93046550D01*
X147478750Y-93046550D02*
X147478750Y-92246450D01*
X147554950Y-92360750D01*
X147631150Y-92436950D01*
X147707350Y-92475050D01*
X149936200Y-89594690D02*
X150317200Y-89594690D01*
X150317200Y-88794590D01*
X149669500Y-89175590D02*
X149402800Y-89175590D01*
X149288500Y-89594690D02*
X149669500Y-89594690D01*
X149669500Y-88794590D01*
X149288500Y-88794590D01*
X148945600Y-89594690D02*
X148945600Y-88794590D01*
X148755100Y-88794590D01*
X148640800Y-88832690D01*
X148564600Y-88908890D01*
X148526500Y-88985090D01*
X148488400Y-89137490D01*
X148488400Y-89251790D01*
X148526500Y-89404190D01*
X148564600Y-89480390D01*
X148640800Y-89556590D01*
X148755100Y-89594690D01*
X148945600Y-89594690D01*
X148336000Y-89670890D02*
X147726400Y-89670890D01*
X147574000Y-89556590D02*
X147459700Y-89594690D01*
X147269200Y-89594690D01*
X147193000Y-89556590D01*
X147154900Y-89518490D01*
X147116800Y-89442290D01*
X147116800Y-89366090D01*
X147154900Y-89289890D01*
X147193000Y-89251790D01*
X147269200Y-89213690D01*
X147421600Y-89175590D01*
X147497800Y-89137490D01*
X147535900Y-89099390D01*
X147574000Y-89023190D01*
X147574000Y-88946990D01*
X147535900Y-88870790D01*
X147497800Y-88832690D01*
X147421600Y-88794590D01*
X147231100Y-88794590D01*
X147116800Y-88832690D01*
X146773900Y-89594690D02*
X146773900Y-88794590D01*
X146507200Y-89366090D01*
X146240500Y-88794590D01*
X146240500Y-89594690D01*
X145859500Y-89594690D02*
X145859500Y-88794590D01*
X145669000Y-88794590D01*
X145554700Y-88832690D01*
X145478500Y-88908890D01*
X145440400Y-88985090D01*
X145402300Y-89137490D01*
X145402300Y-89251790D01*
X145440400Y-89404190D01*
X145478500Y-89480390D01*
X145554700Y-89556590D01*
X145669000Y-89594690D01*
X145859500Y-89594690D01*
D11*
X141136666Y-96591381D02*
X141470000Y-96115190D01*
X141708095Y-96591381D02*
X141708095Y-95591381D01*
X141327142Y-95591381D01*
X141231904Y-95639000D01*
X141184285Y-95686619D01*
X141136666Y-95781857D01*
X141136666Y-95924714D01*
X141184285Y-96019952D01*
X141231904Y-96067571D01*
X141327142Y-96115190D01*
X141708095Y-96115190D01*
X140755714Y-95686619D02*
X140708095Y-95639000D01*
X140612857Y-95591381D01*
X140374761Y-95591381D01*
X140279523Y-95639000D01*
X140231904Y-95686619D01*
X140184285Y-95781857D01*
X140184285Y-95877095D01*
X140231904Y-96019952D01*
X140803333Y-96591381D01*
X140184285Y-96591381D01*
M02*
