G04 #@! TF.FileFunction,Copper,L2,Bot,Signal*
%FSLAX46Y46*%
G04 Gerber Fmt 4.6, Leading zero omitted, Abs format (unit mm)*
G04 Created by KiCad (PCBNEW 0.201509251832+6217~30~ubuntu14.04.1-product) date gio 08 ott 2015 22:57:14 CEST*
%MOMM*%
G01*
G04 APERTURE LIST*
%ADD10C,0.100000*%
%ADD11C,1.800000*%
%ADD12R,1.524000X2.199640*%
%ADD13O,1.524000X2.199640*%
%ADD14R,2.199640X1.524000*%
%ADD15O,2.199640X1.524000*%
%ADD16R,1.600200X1.803400*%
%ADD17R,1.501140X1.501140*%
%ADD18R,1.498600X1.498600*%
%ADD19C,1.035000*%
%ADD20C,0.254000*%
G04 APERTURE END LIST*
D10*
D11*
X138430000Y-92710000D03*
X138430000Y-95250000D03*
X138430000Y-97790000D03*
X138430000Y-100330000D03*
X138430000Y-102870000D03*
X138430000Y-105410000D03*
X138430000Y-107950000D03*
X138430000Y-110490000D03*
X138430000Y-113030000D03*
X138430000Y-115570000D03*
X140970000Y-115570000D03*
X143510000Y-115570000D03*
X146050000Y-115570000D03*
X148590000Y-115570000D03*
X151130000Y-115570000D03*
X153670000Y-115570000D03*
X156210000Y-115570000D03*
X158750000Y-113030000D03*
X158750000Y-110490000D03*
X158750000Y-107950000D03*
X158750000Y-105410000D03*
X158750000Y-102870000D03*
X158750000Y-100330000D03*
X158750000Y-97790000D03*
X158750000Y-95250000D03*
X158750000Y-115570000D03*
X158750000Y-92710000D03*
D12*
X152400000Y-93980000D03*
D13*
X154940000Y-93980000D03*
D14*
X155575000Y-97790000D03*
D15*
X155575000Y-100330000D03*
X155575000Y-102870000D03*
X155575000Y-105410000D03*
X155575000Y-107950000D03*
X155575000Y-110490000D03*
D12*
X142240000Y-111760000D03*
D13*
X144780000Y-111760000D03*
X147320000Y-111760000D03*
X149860000Y-111760000D03*
X152400000Y-111760000D03*
D12*
X142240000Y-108585000D03*
D13*
X144780000Y-108585000D03*
D16*
X146812000Y-95250000D03*
X144018000Y-95250000D03*
D17*
X144780000Y-104140000D03*
X142240000Y-104140000D03*
D18*
X155417520Y-90805000D03*
X151922480Y-90805000D03*
D19*
X153104300Y-99661700D03*
X150224200Y-99195900D03*
X142144300Y-101419800D03*
X157026100Y-93108400D03*
X149062500Y-101758700D03*
X151164600Y-103688700D03*
D20*
X155575000Y-100330000D02*
X158750000Y-100330000D01*
X155575000Y-102870000D02*
X158750000Y-102870000D01*
X157104500Y-113924500D02*
X158750000Y-115570000D01*
X157104500Y-107511200D02*
X157104500Y-113924500D01*
X156146600Y-106553300D02*
X157104500Y-107511200D01*
X155575000Y-106553300D02*
X156146600Y-106553300D01*
X155575000Y-105410000D02*
X155575000Y-106553300D01*
X140197100Y-102097100D02*
X138430000Y-100330000D01*
X140197100Y-104139200D02*
X140197100Y-102097100D01*
X143636700Y-107578800D02*
X140197100Y-104139200D01*
X143636700Y-108585000D02*
X143636700Y-107578800D01*
X144780000Y-108585000D02*
X143636700Y-108585000D01*
X154940000Y-93980000D02*
X156083300Y-93980000D01*
X144018000Y-95250000D02*
X145199400Y-95250000D01*
X153104300Y-97790000D02*
X153104300Y-99661700D01*
X147074900Y-97790000D02*
X153104300Y-97790000D01*
X145199400Y-95914500D02*
X147074900Y-97790000D01*
X145199400Y-95250000D02*
X145199400Y-95914500D01*
X153104300Y-97790000D02*
X155575000Y-97790000D01*
X157452800Y-94007200D02*
X158750000Y-92710000D01*
X156110500Y-94007200D02*
X157452800Y-94007200D01*
X156083300Y-93980000D02*
X156110500Y-94007200D01*
X148716700Y-111151300D02*
X148716700Y-111760000D01*
X147656700Y-110091300D02*
X148716700Y-111151300D01*
X143746300Y-110091300D02*
X147656700Y-110091300D01*
X142240000Y-108585000D02*
X143746300Y-110091300D01*
X149860000Y-111760000D02*
X148716700Y-111760000D01*
X155575000Y-110490000D02*
X155575000Y-109346700D01*
X152400000Y-93980000D02*
X153543300Y-93980000D01*
X154056500Y-108399900D02*
X154056500Y-100493000D01*
X155003300Y-109346700D02*
X154056500Y-108399900D01*
X155575000Y-109346700D02*
X155003300Y-109346700D01*
X153543300Y-94551700D02*
X153543300Y-93980000D01*
X155092600Y-96101000D02*
X153543300Y-94551700D01*
X156332200Y-96101000D02*
X155092600Y-96101000D01*
X157082600Y-96851400D02*
X156332200Y-96101000D01*
X157082600Y-98720100D02*
X157082600Y-96851400D01*
X156869300Y-98933400D02*
X157082600Y-98720100D01*
X154975000Y-98933400D02*
X156869300Y-98933400D01*
X154056500Y-99851900D02*
X154975000Y-98933400D01*
X154056500Y-100493000D02*
X154056500Y-99851900D01*
X153647300Y-100493000D02*
X154056500Y-100493000D01*
X153528200Y-100612100D02*
X153647300Y-100493000D01*
X152783700Y-100612100D02*
X153528200Y-100612100D01*
X152664600Y-100493000D02*
X152783700Y-100612100D01*
X151521300Y-100493000D02*
X152664600Y-100493000D01*
X150224200Y-99195900D02*
X151521300Y-100493000D01*
X145681800Y-89674400D02*
X140106200Y-95250000D01*
X153156300Y-89674400D02*
X145681800Y-89674400D01*
X154286900Y-90805000D02*
X153156300Y-89674400D01*
X140106200Y-95250000D02*
X138430000Y-95250000D01*
X142144300Y-97288100D02*
X140106200Y-95250000D01*
X142144300Y-101419800D02*
X142144300Y-97288100D01*
X142240000Y-101515500D02*
X142240000Y-104140000D01*
X142144300Y-101419800D02*
X142240000Y-101515500D01*
X151256700Y-111151300D02*
X151256700Y-111760000D01*
X145377300Y-105271900D02*
X151256700Y-111151300D01*
X142240000Y-105271900D02*
X145377300Y-105271900D01*
X142240000Y-104140000D02*
X142240000Y-105271900D01*
X152400000Y-111760000D02*
X151256700Y-111760000D01*
X155417500Y-90805000D02*
X154852200Y-90805000D01*
X154852200Y-90805000D02*
X154286900Y-90805000D01*
X154852200Y-90934500D02*
X157026100Y-93108400D01*
X154852200Y-90805000D02*
X154852200Y-90934500D01*
X150523800Y-101758700D02*
X149062500Y-101758700D01*
X152063500Y-103298400D02*
X150523800Y-101758700D01*
X152063500Y-109168300D02*
X152063500Y-103298400D01*
X153670000Y-110774800D02*
X152063500Y-109168300D01*
X153670000Y-115570000D02*
X153670000Y-110774800D01*
X147320000Y-111760000D02*
X151130000Y-115570000D01*
X150713300Y-104140000D02*
X151164600Y-103688700D01*
X144780000Y-104140000D02*
X150713300Y-104140000D01*
X150791900Y-92451500D02*
X147993400Y-95250000D01*
X150791900Y-90805000D02*
X150791900Y-92451500D01*
X151922500Y-90805000D02*
X150791900Y-90805000D01*
X146812000Y-95250000D02*
X147993400Y-95250000D01*
M02*
