G04 #@! TF.FileFunction,Legend,Top*
%FSLAX46Y46*%
G04 Gerber Fmt 4.6, Leading zero omitted, Abs format (unit mm)*
G04 Created by KiCad (PCBNEW 4.0.6) date 10/12/17 07:49:33*
%MOMM*%
%LPD*%
G01*
G04 APERTURE LIST*
%ADD10C,0.100000*%
%ADD11C,0.150000*%
%ADD12C,0.120000*%
G04 APERTURE END LIST*
D10*
D11*
X138711000Y-62735000D02*
X164241000Y-62735000D01*
X138711000Y-90675000D02*
X138711000Y-62735000D01*
X164241000Y-90675000D02*
X138711000Y-90675000D01*
X164241000Y-62735000D02*
X164241000Y-90675000D01*
X137561000Y-90675000D02*
X137561000Y-90575000D01*
D12*
X159851000Y-90345000D02*
X159851000Y-88945000D01*
X159851000Y-88945000D02*
X157051000Y-88945000D01*
X159851000Y-90345000D02*
X157051000Y-90345000D01*
X152241000Y-88945000D02*
X152241000Y-90345000D01*
X152241000Y-90345000D02*
X155041000Y-90345000D01*
X152241000Y-88945000D02*
X155041000Y-88945000D01*
X159271000Y-70145000D02*
X159271000Y-72095000D01*
X159271000Y-70145000D02*
X157271000Y-70145000D01*
X143571000Y-70145000D02*
X145571000Y-70145000D01*
X143571000Y-70145000D02*
X143571000Y-72145000D01*
X143571000Y-87745000D02*
X145571000Y-87745000D01*
X143571000Y-87745000D02*
X143571000Y-85795000D01*
X159271000Y-87745000D02*
X159271000Y-85795000D01*
X159271000Y-87745000D02*
X157271000Y-87745000D01*
D11*
X160142905Y-90507381D02*
X160142905Y-89507381D01*
X160381000Y-89507381D01*
X160523858Y-89555000D01*
X160619096Y-89650238D01*
X160666715Y-89745476D01*
X160714334Y-89935952D01*
X160714334Y-90078810D01*
X160666715Y-90269286D01*
X160619096Y-90364524D01*
X160523858Y-90459762D01*
X160381000Y-90507381D01*
X160142905Y-90507381D01*
X161666715Y-90507381D02*
X161095286Y-90507381D01*
X161381000Y-90507381D02*
X161381000Y-89507381D01*
X161285762Y-89650238D01*
X161190524Y-89745476D01*
X161095286Y-89793095D01*
X149212905Y-90137381D02*
X149212905Y-89137381D01*
X149451000Y-89137381D01*
X149593858Y-89185000D01*
X149689096Y-89280238D01*
X149736715Y-89375476D01*
X149784334Y-89565952D01*
X149784334Y-89708810D01*
X149736715Y-89899286D01*
X149689096Y-89994524D01*
X149593858Y-90089762D01*
X149451000Y-90137381D01*
X149212905Y-90137381D01*
X150165286Y-89232619D02*
X150212905Y-89185000D01*
X150308143Y-89137381D01*
X150546239Y-89137381D01*
X150641477Y-89185000D01*
X150689096Y-89232619D01*
X150736715Y-89327857D01*
X150736715Y-89423095D01*
X150689096Y-89565952D01*
X150117667Y-90137381D01*
X150736715Y-90137381D01*
X150649095Y-78397381D02*
X150649095Y-79206905D01*
X150696714Y-79302143D01*
X150744333Y-79349762D01*
X150839571Y-79397381D01*
X151030048Y-79397381D01*
X151125286Y-79349762D01*
X151172905Y-79302143D01*
X151220524Y-79206905D01*
X151220524Y-78397381D01*
X152220524Y-79397381D02*
X151649095Y-79397381D01*
X151934809Y-79397381D02*
X151934809Y-78397381D01*
X151839571Y-78540238D01*
X151744333Y-78635476D01*
X151649095Y-78683095D01*
M02*
