G04 #@! TF.FileFunction,Paste,Top*
%FSLAX46Y46*%
G04 Gerber Fmt 4.6, Leading zero omitted, Abs format (unit mm)*
G04 Created by KiCad (PCBNEW 4.0.6) date 10/12/17 07:49:33*
%MOMM*%
%LPD*%
G01*
G04 APERTURE LIST*
%ADD10C,0.100000*%
%ADD11R,1.200000X1.200000*%
%ADD12O,1.500000X0.600000*%
%ADD13O,0.600000X1.500000*%
%ADD14C,0.700000*%
%ADD15R,2.420000X4.000000*%
G04 APERTURE END LIST*
D10*
D11*
X156951000Y-89645000D03*
X159151000Y-89645000D03*
X155141000Y-89645000D03*
X152941000Y-89645000D03*
D12*
X143571000Y-83895000D03*
X143571000Y-82795000D03*
X143571000Y-81695000D03*
X143571000Y-80595000D03*
X143571000Y-79495000D03*
X143561000Y-78395000D03*
X143571000Y-77295000D03*
X143561000Y-76195000D03*
X143561000Y-75095000D03*
X143561000Y-73995000D03*
X143571000Y-72885000D03*
X143571000Y-84995000D03*
D13*
X147006000Y-87730000D03*
X148116000Y-87740000D03*
X149216000Y-87740000D03*
X150316000Y-87740000D03*
X151416000Y-87730000D03*
X152516000Y-87740000D03*
X153616000Y-87730000D03*
X154716000Y-87730000D03*
X155816000Y-87730000D03*
X147016000Y-70150000D03*
X148116000Y-70150000D03*
X149216000Y-70150000D03*
X150316000Y-70140000D03*
X151416000Y-70150000D03*
X152516000Y-70140000D03*
X153616000Y-70140000D03*
X154716000Y-70140000D03*
X155826000Y-70150000D03*
D12*
X159261000Y-72885000D03*
X159261000Y-73985000D03*
X159261000Y-84995000D03*
X159271000Y-83885000D03*
X159271000Y-82785000D03*
X159271000Y-81685000D03*
X159261000Y-80585000D03*
X159271000Y-79485000D03*
X159261000Y-78385000D03*
X159261000Y-77285000D03*
X159261000Y-76185000D03*
X159261000Y-75085000D03*
X159261000Y-73985000D03*
D14*
X159271000Y-86295000D03*
D15*
X144231000Y-88515000D03*
M02*
