G04 #@! TF.FileFunction,Other,Fab,Top*
%FSLAX46Y46*%
G04 Gerber Fmt 4.6, Leading zero omitted, Abs format (unit mm)*
G04 Created by KiCad (PCBNEW 4.0.6) date 10/12/17 07:49:33*
%MOMM*%
%LPD*%
G01*
G04 APERTURE LIST*
%ADD10C,0.100000*%
%ADD11C,0.300000*%
%ADD12C,0.150000*%
G04 APERTURE END LIST*
D10*
D11*
X131433971Y-70493715D02*
X131505400Y-70565144D01*
X131576829Y-70708001D01*
X131576829Y-71065144D01*
X131505400Y-71208001D01*
X131433971Y-71279430D01*
X131291114Y-71350858D01*
X131148257Y-71350858D01*
X130933971Y-71279430D01*
X130076829Y-70422287D01*
X130076829Y-71350858D01*
X131576829Y-71850858D02*
X131576829Y-72850858D01*
X130076829Y-72208001D01*
X130148257Y-73493714D02*
X130076829Y-73493714D01*
X129933971Y-73422286D01*
X129862543Y-73350857D01*
X130076829Y-74208000D02*
X130076829Y-74493715D01*
X130148257Y-74636572D01*
X130219686Y-74708000D01*
X130433971Y-74850858D01*
X130719686Y-74922286D01*
X131291114Y-74922286D01*
X131433971Y-74850858D01*
X131505400Y-74779429D01*
X131576829Y-74636572D01*
X131576829Y-74350858D01*
X131505400Y-74208000D01*
X131433971Y-74136572D01*
X131291114Y-74065143D01*
X130933971Y-74065143D01*
X130791114Y-74136572D01*
X130719686Y-74208000D01*
X130648257Y-74350858D01*
X130648257Y-74636572D01*
X130719686Y-74779429D01*
X130791114Y-74850858D01*
X130933971Y-74922286D01*
X131076829Y-76208000D02*
X130076829Y-76208000D01*
X131648257Y-75850857D02*
X130576829Y-75493714D01*
X130576829Y-76422286D01*
X131576829Y-77279428D02*
X131576829Y-77422285D01*
X131505400Y-77565142D01*
X131433971Y-77636571D01*
X131291114Y-77708000D01*
X131005400Y-77779428D01*
X130648257Y-77779428D01*
X130362543Y-77708000D01*
X130219686Y-77636571D01*
X130148257Y-77565142D01*
X130076829Y-77422285D01*
X130076829Y-77279428D01*
X130148257Y-77136571D01*
X130219686Y-77065142D01*
X130362543Y-76993714D01*
X130648257Y-76922285D01*
X131005400Y-76922285D01*
X131291114Y-76993714D01*
X131433971Y-77065142D01*
X131505400Y-77136571D01*
X131576829Y-77279428D01*
X130076829Y-79565142D02*
X131076829Y-79565142D01*
X130933971Y-79565142D02*
X131005400Y-79636570D01*
X131076829Y-79779428D01*
X131076829Y-79993713D01*
X131005400Y-80136570D01*
X130862543Y-80207999D01*
X130076829Y-80207999D01*
X130862543Y-80207999D02*
X131005400Y-80279428D01*
X131076829Y-80422285D01*
X131076829Y-80636570D01*
X131005400Y-80779428D01*
X130862543Y-80850856D01*
X130076829Y-80850856D01*
X130076829Y-81565142D02*
X131076829Y-81565142D01*
X130933971Y-81565142D02*
X131005400Y-81636570D01*
X131076829Y-81779428D01*
X131076829Y-81993713D01*
X131005400Y-82136570D01*
X130862543Y-82207999D01*
X130076829Y-82207999D01*
X130862543Y-82207999D02*
X131005400Y-82279428D01*
X131076829Y-82422285D01*
X131076829Y-82636570D01*
X131005400Y-82779428D01*
X130862543Y-82850856D01*
X130076829Y-82850856D01*
X132105400Y-62738000D02*
X132105400Y-90678000D01*
X134137400Y-62738000D02*
X129405400Y-62738000D01*
X134137400Y-90678000D02*
X129405400Y-90678000D01*
X132105400Y-90678000D02*
X131518979Y-89551496D01*
X132105400Y-90678000D02*
X132691821Y-89551496D01*
X132105400Y-62738000D02*
X131518979Y-63864504D01*
X132105400Y-62738000D02*
X132691821Y-63864504D01*
X144814115Y-95587429D02*
X144885544Y-95516000D01*
X145028401Y-95444571D01*
X145385544Y-95444571D01*
X145528401Y-95516000D01*
X145599830Y-95587429D01*
X145671258Y-95730286D01*
X145671258Y-95873143D01*
X145599830Y-96087429D01*
X144742687Y-96944571D01*
X145671258Y-96944571D01*
X147028401Y-95444571D02*
X146314115Y-95444571D01*
X146242686Y-96158857D01*
X146314115Y-96087429D01*
X146456972Y-96016000D01*
X146814115Y-96016000D01*
X146956972Y-96087429D01*
X147028401Y-96158857D01*
X147099829Y-96301714D01*
X147099829Y-96658857D01*
X147028401Y-96801714D01*
X146956972Y-96873143D01*
X146814115Y-96944571D01*
X146456972Y-96944571D01*
X146314115Y-96873143D01*
X146242686Y-96801714D01*
X147814114Y-96873143D02*
X147814114Y-96944571D01*
X147742686Y-97087429D01*
X147671257Y-97158857D01*
X149171258Y-95444571D02*
X148456972Y-95444571D01*
X148385543Y-96158857D01*
X148456972Y-96087429D01*
X148599829Y-96016000D01*
X148956972Y-96016000D01*
X149099829Y-96087429D01*
X149171258Y-96158857D01*
X149242686Y-96301714D01*
X149242686Y-96658857D01*
X149171258Y-96801714D01*
X149099829Y-96873143D01*
X148956972Y-96944571D01*
X148599829Y-96944571D01*
X148456972Y-96873143D01*
X148385543Y-96801714D01*
X149814114Y-95587429D02*
X149885543Y-95516000D01*
X150028400Y-95444571D01*
X150385543Y-95444571D01*
X150528400Y-95516000D01*
X150599829Y-95587429D01*
X150671257Y-95730286D01*
X150671257Y-95873143D01*
X150599829Y-96087429D01*
X149742686Y-96944571D01*
X150671257Y-96944571D01*
X151171257Y-95444571D02*
X152171257Y-95444571D01*
X151528400Y-96944571D01*
X153885542Y-96944571D02*
X153885542Y-95944571D01*
X153885542Y-96087429D02*
X153956970Y-96016000D01*
X154099828Y-95944571D01*
X154314113Y-95944571D01*
X154456970Y-96016000D01*
X154528399Y-96158857D01*
X154528399Y-96944571D01*
X154528399Y-96158857D02*
X154599828Y-96016000D01*
X154742685Y-95944571D01*
X154956970Y-95944571D01*
X155099828Y-96016000D01*
X155171256Y-96158857D01*
X155171256Y-96944571D01*
X155885542Y-96944571D02*
X155885542Y-95944571D01*
X155885542Y-96087429D02*
X155956970Y-96016000D01*
X156099828Y-95944571D01*
X156314113Y-95944571D01*
X156456970Y-96016000D01*
X156528399Y-96158857D01*
X156528399Y-96944571D01*
X156528399Y-96158857D02*
X156599828Y-96016000D01*
X156742685Y-95944571D01*
X156956970Y-95944571D01*
X157099828Y-96016000D01*
X157171256Y-96158857D01*
X157171256Y-96944571D01*
X164363400Y-94868999D02*
X138836400Y-94868999D01*
X164363400Y-92456000D02*
X164363400Y-97568999D01*
X138836400Y-92456000D02*
X138836400Y-97568999D01*
X138836400Y-94868999D02*
X139962904Y-94282578D01*
X138836400Y-94868999D02*
X139962904Y-95455420D01*
X164363400Y-94868999D02*
X163236896Y-94282578D01*
X164363400Y-94868999D02*
X163236896Y-95455420D01*
D10*
X158451000Y-90045000D02*
X158451000Y-89245000D01*
X158451000Y-89645000D02*
X157851000Y-90045000D01*
X157851000Y-89245000D02*
X158451000Y-89645000D01*
X157851000Y-90045000D02*
X157851000Y-89245000D01*
X157051000Y-89045000D02*
X159051000Y-89045000D01*
X157051000Y-90245000D02*
X157051000Y-89045000D01*
X159051000Y-90245000D02*
X157051000Y-90245000D01*
X159051000Y-89045000D02*
X159051000Y-90245000D01*
X153641000Y-89245000D02*
X153641000Y-90045000D01*
X153641000Y-89645000D02*
X154241000Y-89245000D01*
X154241000Y-90045000D02*
X153641000Y-89645000D01*
X154241000Y-89245000D02*
X154241000Y-90045000D01*
X155041000Y-90245000D02*
X153041000Y-90245000D01*
X155041000Y-89045000D02*
X155041000Y-90245000D01*
X153041000Y-89045000D02*
X155041000Y-89045000D01*
X153041000Y-90245000D02*
X153041000Y-89045000D01*
D12*
X144571000Y-86745000D02*
X158271000Y-86745000D01*
X144571000Y-71145000D02*
X144571000Y-86745000D01*
X158271000Y-71145000D02*
X144571000Y-71145000D01*
X158271000Y-86745000D02*
X158271000Y-71135000D01*
X155812905Y-88547381D02*
X155336714Y-88547381D01*
X155336714Y-87547381D01*
X156146238Y-88023571D02*
X156479572Y-88023571D01*
X156622429Y-88547381D02*
X156146238Y-88547381D01*
X156146238Y-87547381D01*
X156622429Y-87547381D01*
X157051000Y-88547381D02*
X157051000Y-87547381D01*
X157289095Y-87547381D01*
X157431953Y-87595000D01*
X157527191Y-87690238D01*
X157574810Y-87785476D01*
X157622429Y-87975952D01*
X157622429Y-88118810D01*
X157574810Y-88309286D01*
X157527191Y-88404524D01*
X157431953Y-88499762D01*
X157289095Y-88547381D01*
X157051000Y-88547381D01*
X157812905Y-88642619D02*
X158574810Y-88642619D01*
X158765286Y-88261667D02*
X159241477Y-88261667D01*
X158670048Y-88547381D02*
X159003381Y-87547381D01*
X159336715Y-88547381D01*
X160146239Y-88547381D02*
X159670048Y-88547381D01*
X159670048Y-87547381D01*
X160336715Y-87547381D02*
X160908144Y-87547381D01*
X160622429Y-88547381D02*
X160622429Y-87547381D01*
X151802905Y-91647381D02*
X151326714Y-91647381D01*
X151326714Y-90647381D01*
X152136238Y-91123571D02*
X152469572Y-91123571D01*
X152612429Y-91647381D02*
X152136238Y-91647381D01*
X152136238Y-90647381D01*
X152612429Y-90647381D01*
X153041000Y-91647381D02*
X153041000Y-90647381D01*
X153279095Y-90647381D01*
X153421953Y-90695000D01*
X153517191Y-90790238D01*
X153564810Y-90885476D01*
X153612429Y-91075952D01*
X153612429Y-91218810D01*
X153564810Y-91409286D01*
X153517191Y-91504524D01*
X153421953Y-91599762D01*
X153279095Y-91647381D01*
X153041000Y-91647381D01*
X153802905Y-91742619D02*
X154564810Y-91742619D01*
X154755286Y-91361667D02*
X155231477Y-91361667D01*
X154660048Y-91647381D02*
X154993381Y-90647381D01*
X155326715Y-91647381D01*
X156136239Y-91647381D02*
X155660048Y-91647381D01*
X155660048Y-90647381D01*
X156326715Y-90647381D02*
X156898144Y-90647381D01*
X156612429Y-91647381D02*
X156612429Y-90647381D01*
X148387191Y-72979762D02*
X148530048Y-73027381D01*
X148768144Y-73027381D01*
X148863382Y-72979762D01*
X148911001Y-72932143D01*
X148958620Y-72836905D01*
X148958620Y-72741667D01*
X148911001Y-72646429D01*
X148863382Y-72598810D01*
X148768144Y-72551190D01*
X148577667Y-72503571D01*
X148482429Y-72455952D01*
X148434810Y-72408333D01*
X148387191Y-72313095D01*
X148387191Y-72217857D01*
X148434810Y-72122619D01*
X148482429Y-72075000D01*
X148577667Y-72027381D01*
X148815763Y-72027381D01*
X148958620Y-72075000D01*
X149387191Y-73027381D02*
X149387191Y-72027381D01*
X149863381Y-73027381D02*
X149863381Y-72027381D01*
X150196715Y-72741667D01*
X150530048Y-72027381D01*
X150530048Y-73027381D01*
X151149095Y-72455952D02*
X151053857Y-72408333D01*
X151006238Y-72360714D01*
X150958619Y-72265476D01*
X150958619Y-72217857D01*
X151006238Y-72122619D01*
X151053857Y-72075000D01*
X151149095Y-72027381D01*
X151339572Y-72027381D01*
X151434810Y-72075000D01*
X151482429Y-72122619D01*
X151530048Y-72217857D01*
X151530048Y-72265476D01*
X151482429Y-72360714D01*
X151434810Y-72408333D01*
X151339572Y-72455952D01*
X151149095Y-72455952D01*
X151053857Y-72503571D01*
X151006238Y-72551190D01*
X150958619Y-72646429D01*
X150958619Y-72836905D01*
X151006238Y-72932143D01*
X151053857Y-72979762D01*
X151149095Y-73027381D01*
X151339572Y-73027381D01*
X151434810Y-72979762D01*
X151482429Y-72932143D01*
X151530048Y-72836905D01*
X151530048Y-72646429D01*
X151482429Y-72551190D01*
X151434810Y-72503571D01*
X151339572Y-72455952D01*
X152149095Y-72027381D02*
X152244334Y-72027381D01*
X152339572Y-72075000D01*
X152387191Y-72122619D01*
X152434810Y-72217857D01*
X152482429Y-72408333D01*
X152482429Y-72646429D01*
X152434810Y-72836905D01*
X152387191Y-72932143D01*
X152339572Y-72979762D01*
X152244334Y-73027381D01*
X152149095Y-73027381D01*
X152053857Y-72979762D01*
X152006238Y-72932143D01*
X151958619Y-72836905D01*
X151911000Y-72646429D01*
X151911000Y-72408333D01*
X151958619Y-72217857D01*
X152006238Y-72122619D01*
X152053857Y-72075000D01*
X152149095Y-72027381D01*
X153101476Y-72027381D02*
X153196715Y-72027381D01*
X153291953Y-72075000D01*
X153339572Y-72122619D01*
X153387191Y-72217857D01*
X153434810Y-72408333D01*
X153434810Y-72646429D01*
X153387191Y-72836905D01*
X153339572Y-72932143D01*
X153291953Y-72979762D01*
X153196715Y-73027381D01*
X153101476Y-73027381D01*
X153006238Y-72979762D01*
X152958619Y-72932143D01*
X152911000Y-72836905D01*
X152863381Y-72646429D01*
X152863381Y-72408333D01*
X152911000Y-72217857D01*
X152958619Y-72122619D01*
X153006238Y-72075000D01*
X153101476Y-72027381D01*
X154434810Y-72932143D02*
X154387191Y-72979762D01*
X154244334Y-73027381D01*
X154149096Y-73027381D01*
X154006238Y-72979762D01*
X153911000Y-72884524D01*
X153863381Y-72789286D01*
X153815762Y-72598810D01*
X153815762Y-72455952D01*
X153863381Y-72265476D01*
X153911000Y-72170238D01*
X154006238Y-72075000D01*
X154149096Y-72027381D01*
X154244334Y-72027381D01*
X154387191Y-72075000D01*
X154434810Y-72122619D01*
X150659095Y-78397381D02*
X150659095Y-79206905D01*
X150706714Y-79302143D01*
X150754333Y-79349762D01*
X150849571Y-79397381D01*
X151040048Y-79397381D01*
X151135286Y-79349762D01*
X151182905Y-79302143D01*
X151230524Y-79206905D01*
X151230524Y-78397381D01*
X152230524Y-79397381D02*
X151659095Y-79397381D01*
X151944809Y-79397381D02*
X151944809Y-78397381D01*
X151849571Y-78540238D01*
X151754333Y-78635476D01*
X151659095Y-78683095D01*
M02*
