G04 #@! TF.FileFunction,Copper,L1,Top,Signal*
%FSLAX46Y46*%
G04 Gerber Fmt 4.6, Leading zero omitted, Abs format (unit mm)*
G04 Created by KiCad (PCBNEW 4.0.6) date 10/12/17 07:49:33*
%MOMM*%
%LPD*%
G01*
G04 APERTURE LIST*
%ADD10C,0.100000*%
%ADD11R,1.200000X1.200000*%
%ADD12C,2.100000*%
%ADD13O,1.500000X0.600000*%
%ADD14O,0.600000X1.500000*%
%ADD15C,0.700000*%
%ADD16R,2.420000X4.000000*%
%ADD17C,1.000000*%
%ADD18C,0.500000*%
%ADD19C,0.250000*%
%ADD20C,0.750000*%
G04 APERTURE END LIST*
D10*
D11*
X156951000Y-89645000D03*
X159151000Y-89645000D03*
X155141000Y-89645000D03*
X152941000Y-89645000D03*
D12*
X157761000Y-67845000D03*
X155221000Y-67845000D03*
X152681000Y-67845000D03*
X150141000Y-67845000D03*
X147601000Y-67845000D03*
X145061000Y-67845000D03*
D13*
X143571000Y-83895000D03*
X143571000Y-82795000D03*
X143571000Y-81695000D03*
X143571000Y-80595000D03*
X143571000Y-79495000D03*
X143561000Y-78395000D03*
X143571000Y-77295000D03*
X143561000Y-76195000D03*
X143561000Y-75095000D03*
X143561000Y-73995000D03*
X143571000Y-72885000D03*
X143571000Y-84995000D03*
D14*
X147006000Y-87730000D03*
X148116000Y-87740000D03*
X149216000Y-87740000D03*
X150316000Y-87740000D03*
X151416000Y-87730000D03*
X152516000Y-87740000D03*
X153616000Y-87730000D03*
X154716000Y-87730000D03*
X155816000Y-87730000D03*
X147016000Y-70150000D03*
X148116000Y-70150000D03*
X149216000Y-70150000D03*
X150316000Y-70140000D03*
X151416000Y-70150000D03*
X152516000Y-70140000D03*
X153616000Y-70140000D03*
X154716000Y-70140000D03*
X155826000Y-70150000D03*
D13*
X159261000Y-72885000D03*
X159261000Y-73985000D03*
X159261000Y-84995000D03*
X159271000Y-83885000D03*
X159271000Y-82785000D03*
X159271000Y-81685000D03*
X159261000Y-80585000D03*
X159271000Y-79485000D03*
X159261000Y-78385000D03*
X159261000Y-77285000D03*
X159261000Y-76185000D03*
X159261000Y-75085000D03*
X159261000Y-73985000D03*
D15*
X159271000Y-86295000D03*
D16*
X144231000Y-88515000D03*
D12*
X161571000Y-67845000D03*
X161571000Y-70385000D03*
X161571000Y-72925000D03*
X161571000Y-75465000D03*
X161571000Y-78005000D03*
X161571000Y-80545000D03*
X161571000Y-83085000D03*
X161571000Y-85625000D03*
X161571000Y-88165000D03*
X161571000Y-65305000D03*
X159031000Y-65305000D03*
X156491000Y-65305000D03*
X153951000Y-65305000D03*
X151411000Y-65305000D03*
X148871000Y-65305000D03*
X146331000Y-65305000D03*
X143791000Y-65305000D03*
X141251000Y-65305000D03*
X141251000Y-67845000D03*
X141251000Y-70385000D03*
X141251000Y-72925000D03*
X141251000Y-75465000D03*
X141251000Y-78005000D03*
X141251000Y-80545000D03*
X141251000Y-83085000D03*
X141251000Y-85625000D03*
X141251000Y-88165000D03*
D17*
X151221000Y-82355000D03*
X150341000Y-75555000D03*
X146931000Y-83895000D03*
X159601000Y-69415000D03*
X149811000Y-78635000D03*
X159621000Y-88235000D03*
X151621000Y-89635000D03*
X153601000Y-72805000D03*
X151421000Y-72805000D03*
X149681000Y-72805000D03*
X157301000Y-81135000D03*
X146431000Y-75605000D03*
D18*
X161569400Y-80543400D02*
X161163000Y-80543400D01*
X152516000Y-83650000D02*
X152516000Y-87740000D01*
X151221000Y-82355000D02*
X152516000Y-83650000D01*
D19*
X150316000Y-87740000D02*
X149216000Y-87740000D01*
D18*
X157921000Y-77285000D02*
X159261000Y-77285000D01*
D20*
X148381000Y-89875000D02*
X149821000Y-89875000D01*
X150316000Y-89380000D02*
X150316000Y-87740000D01*
X149821000Y-89875000D02*
X150316000Y-89380000D01*
X149216000Y-87740000D02*
X149571000Y-88095000D01*
X149571000Y-88095000D02*
X149571000Y-89775000D01*
D18*
X149216000Y-87740000D02*
X149216000Y-89040000D01*
X145591000Y-89875000D02*
X144231000Y-88515000D01*
X148381000Y-89875000D02*
X145591000Y-89875000D01*
X149216000Y-89040000D02*
X148381000Y-89875000D01*
X149216000Y-87740000D02*
X150316000Y-87740000D01*
X146851000Y-78395000D02*
X146851000Y-81715000D01*
X147911000Y-74165000D02*
X155751000Y-74165000D01*
X155751000Y-74165000D02*
X155826000Y-74240000D01*
X143561000Y-78395000D02*
X146851000Y-78395000D01*
X146851000Y-78395000D02*
X146881000Y-78395000D01*
X147911000Y-77365000D02*
X147911000Y-74165000D01*
X147911000Y-74165000D02*
X147911000Y-71875000D01*
X146881000Y-78395000D02*
X147911000Y-77365000D01*
X143571000Y-81695000D02*
X143571000Y-82795000D01*
X145571000Y-84995000D02*
X147281000Y-84995000D01*
X147281000Y-84995000D02*
X148031000Y-84245000D01*
X148031000Y-84245000D02*
X148031000Y-82365000D01*
X148031000Y-82365000D02*
X147381000Y-81715000D01*
X147381000Y-81715000D02*
X146851000Y-81715000D01*
X146851000Y-81715000D02*
X145571000Y-81715000D01*
X145571000Y-81715000D02*
X143591000Y-81715000D01*
D20*
X141249400Y-88163400D02*
X143879400Y-88163400D01*
X143879400Y-88163400D02*
X144231000Y-88515000D01*
D18*
X144231000Y-88515000D02*
X144231000Y-87345000D01*
X144231000Y-87345000D02*
X145571000Y-86005000D01*
X145571000Y-86005000D02*
X145571000Y-84995000D01*
X143591000Y-81715000D02*
X143571000Y-81695000D01*
X145571000Y-84995000D02*
X143571000Y-84995000D01*
X155826000Y-74240000D02*
X155826000Y-75190000D01*
X155826000Y-75190000D02*
X157921000Y-77285000D01*
X155826000Y-74240000D02*
X155826000Y-70150000D01*
X147016000Y-70150000D02*
X147016000Y-70980000D01*
X149216000Y-71520000D02*
X149216000Y-70150000D01*
X148861000Y-71875000D02*
X149216000Y-71520000D01*
X147911000Y-71875000D02*
X148861000Y-71875000D01*
X147016000Y-70980000D02*
X147911000Y-71875000D01*
X156891000Y-84995000D02*
X159261000Y-84995000D01*
X155561000Y-83665000D02*
X156891000Y-84995000D01*
X155561000Y-80775000D02*
X155561000Y-83665000D01*
X150341000Y-75555000D02*
X155561000Y-80775000D01*
X146931000Y-83895000D02*
X143571000Y-83895000D01*
D20*
X148116000Y-87740000D02*
X148116000Y-86050000D01*
X148116000Y-86050000D02*
X149811000Y-84355000D01*
X159601000Y-69415000D02*
X158031000Y-67845000D01*
X158031000Y-67845000D02*
X157761000Y-67845000D01*
X147006000Y-87730000D02*
X148106000Y-87730000D01*
X148106000Y-87730000D02*
X148171000Y-87665000D01*
X149811000Y-84355000D02*
X149811000Y-78635000D01*
D18*
X155816000Y-87730000D02*
X155976000Y-87730000D01*
X155976000Y-87730000D02*
X156951000Y-88705000D01*
X156951000Y-88705000D02*
X156951000Y-89645000D01*
X159151000Y-88705000D02*
X159151000Y-89645000D01*
X159621000Y-88235000D02*
X159151000Y-88705000D01*
X154716000Y-87730000D02*
X154716000Y-89220000D01*
X154716000Y-89220000D02*
X155141000Y-89645000D01*
X152941000Y-89645000D02*
X151631000Y-89645000D01*
X151631000Y-89645000D02*
X151621000Y-89635000D01*
X152516000Y-70140000D02*
X152516000Y-68010000D01*
X152516000Y-68010000D02*
X152681000Y-67845000D01*
X153616000Y-70140000D02*
X153616000Y-72790000D01*
X153616000Y-72790000D02*
X153601000Y-72805000D01*
X151416000Y-70150000D02*
X151416000Y-72800000D01*
X151416000Y-72800000D02*
X151421000Y-72805000D01*
X150316000Y-70140000D02*
X150316000Y-72170000D01*
X150316000Y-72170000D02*
X149681000Y-72805000D01*
X157631000Y-83885000D02*
X159271000Y-83885000D01*
X157301000Y-83555000D02*
X157631000Y-83885000D01*
X157301000Y-81135000D02*
X157301000Y-83555000D01*
X141249400Y-70383400D02*
X143419400Y-70383400D01*
X145261000Y-74435000D02*
X146431000Y-75605000D01*
X145261000Y-72225000D02*
X145261000Y-74435000D01*
X143419400Y-70383400D02*
X145261000Y-72225000D01*
M02*
