M48
;DRILL file {KiCad 4.0.6} date 10/12/17 07:49:30
;FORMAT={-:-/ absolute / inch / decimal}
FMAT,2
INCH,TZ
T1C0.020
T2C0.059
%
G90
G05
M72
T1
X5.765Y-2.9766
X5.7847Y-3.303
X5.893Y-2.8663
X5.8981Y-3.0959
X5.9189Y-2.9746
X5.9536Y-3.2423
X5.9615Y-2.8663
X5.9693Y-3.5289
X6.0473Y-2.8663
X6.193Y-3.1943
X6.2835Y-2.7329
X6.2843Y-3.4738
T2
X5.5611Y-2.5711
X5.5611Y-2.6711
X5.5611Y-2.7711
X5.5611Y-2.8711
X5.5611Y-2.9711
X5.5611Y-3.0711
X5.5611Y-3.1711
X5.5611Y-3.2711
X5.5611Y-3.3711
X5.5611Y-3.4711
X5.6611Y-2.5711
X5.7111Y-2.6711
X5.7611Y-2.5711
X5.8111Y-2.6711
X5.8611Y-2.5711
X5.9111Y-2.6711
X5.9611Y-2.5711
X6.0111Y-2.6711
X6.0611Y-2.5711
X6.1111Y-2.6711
X6.1611Y-2.5711
X6.2111Y-2.6711
X6.2611Y-2.5711
X6.3611Y-2.5711
X6.3611Y-2.6711
X6.3611Y-2.7711
X6.3611Y-2.8711
X6.3611Y-2.9711
X6.3611Y-3.0711
X6.3611Y-3.1711
X6.3611Y-3.2711
X6.3611Y-3.3711
X6.3611Y-3.4711
T0
M30
