G04 #@! TF.FileFunction,Copper,L2,Bot,Signal*
%FSLAX46Y46*%
G04 Gerber Fmt 4.6, Leading zero omitted, Abs format (unit mm)*
G04 Created by KiCad (PCBNEW 4.0.6) date 10/12/17 07:49:33*
%MOMM*%
%LPD*%
G01*
G04 APERTURE LIST*
%ADD10C,0.100000*%
%ADD11R,1.270000X0.970000*%
%ADD12R,1.950000X2.500000*%
%ADD13R,1.000000X1.250000*%
%ADD14C,2.100000*%
%ADD15R,0.700000X1.300000*%
%ADD16R,1.300000X0.700000*%
%ADD17R,2.290000X4.000000*%
%ADD18R,2.000000X4.000000*%
%ADD19C,1.000000*%
%ADD20C,0.500000*%
%ADD21C,0.750000*%
G04 APERTURE END LIST*
D10*
D11*
X144841000Y-71765000D03*
X144841000Y-73035000D03*
X144841000Y-74305000D03*
D12*
X154496000Y-77115000D03*
X157546000Y-77115000D03*
D13*
X154961000Y-74325000D03*
X156961000Y-74325000D03*
D11*
X144841000Y-77125000D03*
X144841000Y-78395000D03*
X144841000Y-79665000D03*
D14*
X157761000Y-67845000D03*
X155221000Y-67845000D03*
X152681000Y-67845000D03*
X150141000Y-67845000D03*
X147601000Y-67845000D03*
X145061000Y-67845000D03*
D15*
X156031000Y-81055000D03*
X154131000Y-81055000D03*
D16*
X157351000Y-83215000D03*
X157351000Y-85115000D03*
X154351000Y-83215000D03*
X154351000Y-85115000D03*
D17*
X146931000Y-88515000D03*
D18*
X149631000Y-88515000D03*
X144231000Y-88535000D03*
D14*
X161571000Y-67845000D03*
X161571000Y-70385000D03*
X161571000Y-72925000D03*
X161571000Y-75465000D03*
X161571000Y-78005000D03*
X161571000Y-80545000D03*
X161571000Y-83085000D03*
X161571000Y-85625000D03*
X161571000Y-88165000D03*
X161571000Y-65305000D03*
X159031000Y-65305000D03*
X156491000Y-65305000D03*
X153951000Y-65305000D03*
X151411000Y-65305000D03*
X148871000Y-65305000D03*
X146331000Y-65305000D03*
X143791000Y-65305000D03*
X141251000Y-65305000D03*
X141251000Y-67845000D03*
X141251000Y-70385000D03*
X141251000Y-72925000D03*
X141251000Y-75465000D03*
X141251000Y-78005000D03*
X141251000Y-80545000D03*
X141251000Y-83085000D03*
X141251000Y-85625000D03*
X141251000Y-88165000D03*
D19*
X151221000Y-82355000D03*
X150341000Y-75555000D03*
X146931000Y-83895000D03*
X159601000Y-69415000D03*
X149811000Y-78635000D03*
X159621000Y-88235000D03*
X151621000Y-89635000D03*
X153601000Y-72805000D03*
X151421000Y-72805000D03*
X149681000Y-72805000D03*
X157301000Y-81135000D03*
X146431000Y-75605000D03*
D20*
X144841000Y-74305000D02*
X143831000Y-74305000D01*
X142449400Y-72923400D02*
X141249400Y-72923400D01*
X143831000Y-74305000D02*
X142449400Y-72923400D01*
X141249400Y-75463400D02*
X141719400Y-75463400D01*
X141719400Y-75463400D02*
X143261000Y-77005000D01*
X143261000Y-77005000D02*
X143261000Y-78955000D01*
X143261000Y-78955000D02*
X143971000Y-79665000D01*
X143971000Y-79665000D02*
X144841000Y-79665000D01*
X144841000Y-71765000D02*
X144841000Y-71435000D01*
X144841000Y-71435000D02*
X141249400Y-67843400D01*
X141251000Y-80545000D02*
X142461000Y-80545000D01*
X144271000Y-82355000D02*
X151221000Y-82355000D01*
X142461000Y-80545000D02*
X144271000Y-82355000D01*
D21*
X152411000Y-83215000D02*
X157351000Y-83215000D01*
X149631000Y-85995000D02*
X152411000Y-83215000D01*
X149631000Y-88515000D02*
X149631000Y-85995000D01*
X157351000Y-83215000D02*
X157421000Y-83145000D01*
X157421000Y-83145000D02*
X158111000Y-83145000D01*
X158111000Y-83145000D02*
X159151000Y-82105000D01*
X159151000Y-82105000D02*
X159151000Y-80415000D01*
X159151000Y-80415000D02*
X157546000Y-78810000D01*
X157546000Y-78810000D02*
X157546000Y-77115000D01*
X157546000Y-77115000D02*
X156961000Y-76530000D01*
X156961000Y-76530000D02*
X156961000Y-74325000D01*
D20*
X157351000Y-83215000D02*
X154351000Y-83215000D01*
X154351000Y-83215000D02*
X154211000Y-83355000D01*
X149631000Y-88515000D02*
X149631000Y-86795000D01*
X144841000Y-73035000D02*
X147821000Y-73035000D01*
X147821000Y-73035000D02*
X150341000Y-75555000D01*
D21*
X146931000Y-88515000D02*
X146931000Y-83895000D01*
X154496000Y-77115000D02*
X154961000Y-76650000D01*
X154961000Y-76650000D02*
X154961000Y-74325000D01*
X154961000Y-74325000D02*
X154951000Y-74315000D01*
X154951000Y-74315000D02*
X154951000Y-73305000D01*
X154951000Y-73305000D02*
X158841000Y-69415000D01*
X158841000Y-69415000D02*
X159601000Y-69415000D01*
X151331000Y-77115000D02*
X154496000Y-77115000D01*
X149811000Y-78635000D02*
X151331000Y-77115000D01*
D20*
X157351000Y-85115000D02*
X157351000Y-85965000D01*
X157351000Y-85965000D02*
X159621000Y-88235000D01*
X151621000Y-89635000D02*
X153371000Y-89635000D01*
X154351000Y-88655000D02*
X154351000Y-85115000D01*
X153371000Y-89635000D02*
X154351000Y-88655000D01*
X144841000Y-78395000D02*
X147091000Y-78395000D01*
X149751000Y-81055000D02*
X154131000Y-81055000D01*
X147091000Y-78395000D02*
X149751000Y-81055000D01*
X150141000Y-69345000D02*
X150141000Y-67845000D01*
X153601000Y-72805000D02*
X150141000Y-69345000D01*
X147601000Y-68985000D02*
X147601000Y-67845000D01*
X151421000Y-72805000D02*
X147601000Y-68985000D01*
X149681000Y-72805000D02*
X145061000Y-68185000D01*
X145061000Y-68185000D02*
X145061000Y-67845000D01*
X156031000Y-81055000D02*
X157221000Y-81055000D01*
X157221000Y-81055000D02*
X157301000Y-81135000D01*
X146111000Y-77125000D02*
X144841000Y-77125000D01*
X146431000Y-76805000D02*
X146111000Y-77125000D01*
X146431000Y-75605000D02*
X146431000Y-76805000D01*
M02*
