G04 #@! TF.FileFunction,Legend,Bot*
%FSLAX46Y46*%
G04 Gerber Fmt 4.6, Leading zero omitted, Abs format (unit mm)*
G04 Created by KiCad (PCBNEW 4.0.6) date 10/12/17 07:49:33*
%MOMM*%
%LPD*%
G01*
G04 APERTURE LIST*
%ADD10C,0.100000*%
%ADD11C,0.150000*%
%ADD12C,0.120000*%
G04 APERTURE END LIST*
D10*
D11*
X152541952Y-77096429D02*
X151780047Y-77096429D01*
X152160999Y-77477381D02*
X152160999Y-76715476D01*
X148639095Y-79167381D02*
X148067666Y-79167381D01*
X148353381Y-80167381D02*
X148353381Y-79167381D01*
X147829571Y-79167381D02*
X147162904Y-80167381D01*
X147162904Y-79167381D02*
X147829571Y-80167381D01*
X146258142Y-80167381D02*
X146829571Y-80167381D01*
X146543857Y-80167381D02*
X146543857Y-79167381D01*
X146639095Y-79310238D01*
X146734333Y-79405476D01*
X146829571Y-79453095D01*
X148639095Y-76507381D02*
X148067666Y-76507381D01*
X148353381Y-77507381D02*
X148353381Y-76507381D01*
X147829571Y-76507381D02*
X147162904Y-77507381D01*
X147162904Y-76507381D02*
X147829571Y-77507381D01*
X146591476Y-76507381D02*
X146496237Y-76507381D01*
X146400999Y-76555000D01*
X146353380Y-76602619D01*
X146305761Y-76697857D01*
X146258142Y-76888333D01*
X146258142Y-77126429D01*
X146305761Y-77316905D01*
X146353380Y-77412143D01*
X146400999Y-77459762D01*
X146496237Y-77507381D01*
X146591476Y-77507381D01*
X146686714Y-77459762D01*
X146734333Y-77412143D01*
X146781952Y-77316905D01*
X146829571Y-77126429D01*
X146829571Y-76888333D01*
X146781952Y-76697857D01*
X146734333Y-76602619D01*
X146686714Y-76555000D01*
X146591476Y-76507381D01*
X148043857Y-74957381D02*
X148377191Y-74481190D01*
X148615286Y-74957381D02*
X148615286Y-73957381D01*
X148234333Y-73957381D01*
X148139095Y-74005000D01*
X148091476Y-74052619D01*
X148043857Y-74147857D01*
X148043857Y-74290714D01*
X148091476Y-74385952D01*
X148139095Y-74433571D01*
X148234333Y-74481190D01*
X148615286Y-74481190D01*
X147710524Y-73957381D02*
X147043857Y-74957381D01*
X147043857Y-73957381D02*
X147710524Y-74957381D01*
X146139095Y-74957381D02*
X146710524Y-74957381D01*
X146424810Y-74957381D02*
X146424810Y-73957381D01*
X146520048Y-74100238D01*
X146615286Y-74195476D01*
X146710524Y-74243095D01*
X148043857Y-72097381D02*
X148377191Y-71621190D01*
X148615286Y-72097381D02*
X148615286Y-71097381D01*
X148234333Y-71097381D01*
X148139095Y-71145000D01*
X148091476Y-71192619D01*
X148043857Y-71287857D01*
X148043857Y-71430714D01*
X148091476Y-71525952D01*
X148139095Y-71573571D01*
X148234333Y-71621190D01*
X148615286Y-71621190D01*
X147710524Y-71097381D02*
X147043857Y-72097381D01*
X147043857Y-71097381D02*
X147710524Y-72097381D01*
X146472429Y-71097381D02*
X146377190Y-71097381D01*
X146281952Y-71145000D01*
X146234333Y-71192619D01*
X146186714Y-71287857D01*
X146139095Y-71478333D01*
X146139095Y-71716429D01*
X146186714Y-71906905D01*
X146234333Y-72002143D01*
X146281952Y-72049762D01*
X146377190Y-72097381D01*
X146472429Y-72097381D01*
X146567667Y-72049762D01*
X146615286Y-72002143D01*
X146662905Y-71906905D01*
X146710524Y-71716429D01*
X146710524Y-71478333D01*
X146662905Y-71287857D01*
X146615286Y-71192619D01*
X146567667Y-71145000D01*
X146472429Y-71097381D01*
D12*
X145731000Y-71125000D02*
X145731000Y-74945000D01*
X145731000Y-74945000D02*
X143951000Y-74945000D01*
X143951000Y-74945000D02*
X143951000Y-71125000D01*
X145731000Y-71125000D02*
X143951000Y-71125000D01*
X153221000Y-78765000D02*
X157771000Y-78765000D01*
X153221000Y-75465000D02*
X157771000Y-75465000D01*
X153221000Y-78765000D02*
X153221000Y-75465000D01*
X156461000Y-75175000D02*
X155461000Y-75175000D01*
X155461000Y-73475000D02*
X156461000Y-73475000D01*
X145731000Y-76485000D02*
X145731000Y-80305000D01*
X145731000Y-80305000D02*
X143951000Y-80305000D01*
X143951000Y-80305000D02*
X143951000Y-76485000D01*
X145731000Y-76485000D02*
X143951000Y-76485000D01*
X156491000Y-69175000D02*
X143731000Y-69175000D01*
X143731000Y-69175000D02*
X143731000Y-66515000D01*
X143731000Y-66515000D02*
X156491000Y-66515000D01*
X156491000Y-66515000D02*
X156491000Y-69175000D01*
X157761000Y-69175000D02*
X159091000Y-69175000D01*
X159091000Y-69175000D02*
X159091000Y-67845000D01*
X154481000Y-81935000D02*
X155681000Y-81935000D01*
X155681000Y-80175000D02*
X154481000Y-80175000D01*
X158231000Y-84765000D02*
X158231000Y-83565000D01*
X156471000Y-83565000D02*
X156471000Y-84765000D01*
X155231000Y-84765000D02*
X155231000Y-83565000D01*
X153471000Y-83565000D02*
X153471000Y-84765000D01*
D11*
X145171000Y-69265000D02*
X144071000Y-68165000D01*
X145171000Y-69265000D02*
X145171000Y-71065000D01*
X158771000Y-67965000D02*
X157771000Y-68965000D01*
X157771000Y-68965000D02*
X157771000Y-71765000D01*
D12*
X139921000Y-89495000D02*
X139921000Y-63975000D01*
X139921000Y-63975000D02*
X162901000Y-63975000D01*
X162901000Y-89495000D02*
X162901000Y-63975000D01*
X160241000Y-89495000D02*
X160241000Y-66635000D01*
X160241000Y-66635000D02*
X142581000Y-66635000D01*
X142581000Y-89495000D02*
X142581000Y-66635000D01*
X142581000Y-89495000D02*
X142581000Y-82685000D01*
X162901000Y-89495000D02*
X160241000Y-89495000D01*
X139921000Y-89495000D02*
X142581000Y-89495000D01*
X162901000Y-67845000D02*
X162901000Y-66515000D01*
D11*
X147953381Y-72635000D02*
X148029572Y-72596905D01*
X148143857Y-72596905D01*
X148258143Y-72635000D01*
X148334334Y-72711190D01*
X148372429Y-72787381D01*
X148410524Y-72939762D01*
X148410524Y-73054048D01*
X148372429Y-73206429D01*
X148334334Y-73282619D01*
X148258143Y-73358810D01*
X148143857Y-73396905D01*
X148067667Y-73396905D01*
X147953381Y-73358810D01*
X147915286Y-73320714D01*
X147915286Y-73054048D01*
X148067667Y-73054048D01*
X147610524Y-73358810D02*
X147496238Y-73396905D01*
X147305762Y-73396905D01*
X147229572Y-73358810D01*
X147191476Y-73320714D01*
X147153381Y-73244524D01*
X147153381Y-73168333D01*
X147191476Y-73092143D01*
X147229572Y-73054048D01*
X147305762Y-73015952D01*
X147458143Y-72977857D01*
X147534334Y-72939762D01*
X147572429Y-72901667D01*
X147610524Y-72825476D01*
X147610524Y-72749286D01*
X147572429Y-72673095D01*
X147534334Y-72635000D01*
X147458143Y-72596905D01*
X147267667Y-72596905D01*
X147153381Y-72635000D01*
X146391476Y-73396905D02*
X146848619Y-73396905D01*
X146620048Y-73396905D02*
X146620048Y-72596905D01*
X146696238Y-72711190D01*
X146772429Y-72787381D01*
X146848619Y-72825476D01*
X152247666Y-75852143D02*
X152295285Y-75899762D01*
X152438142Y-75947381D01*
X152533380Y-75947381D01*
X152676238Y-75899762D01*
X152771476Y-75804524D01*
X152819095Y-75709286D01*
X152866714Y-75518810D01*
X152866714Y-75375952D01*
X152819095Y-75185476D01*
X152771476Y-75090238D01*
X152676238Y-74995000D01*
X152533380Y-74947381D01*
X152438142Y-74947381D01*
X152295285Y-74995000D01*
X152247666Y-75042619D01*
X151295285Y-75947381D02*
X151866714Y-75947381D01*
X151581000Y-75947381D02*
X151581000Y-74947381D01*
X151676238Y-75090238D01*
X151771476Y-75185476D01*
X151866714Y-75233095D01*
X156067666Y-72902143D02*
X156115285Y-72949762D01*
X156258142Y-72997381D01*
X156353380Y-72997381D01*
X156496238Y-72949762D01*
X156591476Y-72854524D01*
X156639095Y-72759286D01*
X156686714Y-72568810D01*
X156686714Y-72425952D01*
X156639095Y-72235476D01*
X156591476Y-72140238D01*
X156496238Y-72045000D01*
X156353380Y-71997381D01*
X156258142Y-71997381D01*
X156115285Y-72045000D01*
X156067666Y-72092619D01*
X155686714Y-72092619D02*
X155639095Y-72045000D01*
X155543857Y-71997381D01*
X155305761Y-71997381D01*
X155210523Y-72045000D01*
X155162904Y-72092619D01*
X155115285Y-72187857D01*
X155115285Y-72283095D01*
X155162904Y-72425952D01*
X155734333Y-72997381D01*
X155115285Y-72997381D01*
X147953381Y-77995000D02*
X148029572Y-77956905D01*
X148143857Y-77956905D01*
X148258143Y-77995000D01*
X148334334Y-78071190D01*
X148372429Y-78147381D01*
X148410524Y-78299762D01*
X148410524Y-78414048D01*
X148372429Y-78566429D01*
X148334334Y-78642619D01*
X148258143Y-78718810D01*
X148143857Y-78756905D01*
X148067667Y-78756905D01*
X147953381Y-78718810D01*
X147915286Y-78680714D01*
X147915286Y-78414048D01*
X148067667Y-78414048D01*
X147610524Y-78718810D02*
X147496238Y-78756905D01*
X147305762Y-78756905D01*
X147229572Y-78718810D01*
X147191476Y-78680714D01*
X147153381Y-78604524D01*
X147153381Y-78528333D01*
X147191476Y-78452143D01*
X147229572Y-78414048D01*
X147305762Y-78375952D01*
X147458143Y-78337857D01*
X147534334Y-78299762D01*
X147572429Y-78261667D01*
X147610524Y-78185476D01*
X147610524Y-78109286D01*
X147572429Y-78033095D01*
X147534334Y-77995000D01*
X147458143Y-77956905D01*
X147267667Y-77956905D01*
X147153381Y-77995000D01*
X146848619Y-78033095D02*
X146810524Y-77995000D01*
X146734333Y-77956905D01*
X146543857Y-77956905D01*
X146467667Y-77995000D01*
X146429571Y-78033095D01*
X146391476Y-78109286D01*
X146391476Y-78185476D01*
X146429571Y-78299762D01*
X146886714Y-78756905D01*
X146391476Y-78756905D01*
X157439095Y-70517381D02*
X157439095Y-69517381D01*
X157058142Y-69517381D01*
X156962904Y-69565000D01*
X156915285Y-69612619D01*
X156867666Y-69707857D01*
X156867666Y-69850714D01*
X156915285Y-69945952D01*
X156962904Y-69993571D01*
X157058142Y-70041190D01*
X157439095Y-70041190D01*
X156486714Y-69612619D02*
X156439095Y-69565000D01*
X156343857Y-69517381D01*
X156105761Y-69517381D01*
X156010523Y-69565000D01*
X155962904Y-69612619D01*
X155915285Y-69707857D01*
X155915285Y-69803095D01*
X155962904Y-69945952D01*
X156534333Y-70517381D01*
X155915285Y-70517381D01*
X152647666Y-81497381D02*
X152981000Y-81021190D01*
X153219095Y-81497381D02*
X153219095Y-80497381D01*
X152838142Y-80497381D01*
X152742904Y-80545000D01*
X152695285Y-80592619D01*
X152647666Y-80687857D01*
X152647666Y-80830714D01*
X152695285Y-80925952D01*
X152742904Y-80973571D01*
X152838142Y-81021190D01*
X153219095Y-81021190D01*
X151695285Y-81497381D02*
X152266714Y-81497381D01*
X151981000Y-81497381D02*
X151981000Y-80497381D01*
X152076238Y-80640238D01*
X152171476Y-80735476D01*
X152266714Y-80783095D01*
X157527666Y-87207381D02*
X157861000Y-86731190D01*
X158099095Y-87207381D02*
X158099095Y-86207381D01*
X157718142Y-86207381D01*
X157622904Y-86255000D01*
X157575285Y-86302619D01*
X157527666Y-86397857D01*
X157527666Y-86540714D01*
X157575285Y-86635952D01*
X157622904Y-86683571D01*
X157718142Y-86731190D01*
X158099095Y-86731190D01*
X157146714Y-86302619D02*
X157099095Y-86255000D01*
X157003857Y-86207381D01*
X156765761Y-86207381D01*
X156670523Y-86255000D01*
X156622904Y-86302619D01*
X156575285Y-86397857D01*
X156575285Y-86493095D01*
X156622904Y-86635952D01*
X157194333Y-87207381D01*
X156575285Y-87207381D01*
X154517666Y-87207381D02*
X154851000Y-86731190D01*
X155089095Y-87207381D02*
X155089095Y-86207381D01*
X154708142Y-86207381D01*
X154612904Y-86255000D01*
X154565285Y-86302619D01*
X154517666Y-86397857D01*
X154517666Y-86540714D01*
X154565285Y-86635952D01*
X154612904Y-86683571D01*
X154708142Y-86731190D01*
X155089095Y-86731190D01*
X154184333Y-86207381D02*
X153565285Y-86207381D01*
X153898619Y-86588333D01*
X153755761Y-86588333D01*
X153660523Y-86635952D01*
X153612904Y-86683571D01*
X153565285Y-86778810D01*
X153565285Y-87016905D01*
X153612904Y-87112143D01*
X153660523Y-87159762D01*
X153755761Y-87207381D01*
X154041476Y-87207381D01*
X154136714Y-87159762D01*
X154184333Y-87112143D01*
X148530048Y-85511667D02*
X148053857Y-85511667D01*
X148625286Y-85797381D02*
X148291953Y-84797381D01*
X147958619Y-85797381D01*
X147625286Y-85797381D02*
X147625286Y-84797381D01*
X147053857Y-85797381D01*
X147053857Y-84797381D01*
X146720524Y-84797381D02*
X146149095Y-84797381D01*
X146434810Y-85797381D02*
X146434810Y-84797381D01*
X145291952Y-85797381D02*
X145863381Y-85797381D01*
X145577667Y-85797381D02*
X145577667Y-84797381D01*
X145672905Y-84940238D01*
X145768143Y-85035476D01*
X145863381Y-85083095D01*
X159399095Y-90307381D02*
X159399095Y-89307381D01*
X159018142Y-89307381D01*
X158922904Y-89355000D01*
X158875285Y-89402619D01*
X158827666Y-89497857D01*
X158827666Y-89640714D01*
X158875285Y-89735952D01*
X158922904Y-89783571D01*
X159018142Y-89831190D01*
X159399095Y-89831190D01*
X157875285Y-90307381D02*
X158446714Y-90307381D01*
X158161000Y-90307381D02*
X158161000Y-89307381D01*
X158256238Y-89450238D01*
X158351476Y-89545476D01*
X158446714Y-89593095D01*
X142971000Y-87555477D02*
X142932905Y-87479286D01*
X142932905Y-87365001D01*
X142971000Y-87250715D01*
X143047190Y-87174524D01*
X143123381Y-87136429D01*
X143275762Y-87098334D01*
X143390048Y-87098334D01*
X143542429Y-87136429D01*
X143618619Y-87174524D01*
X143694810Y-87250715D01*
X143732905Y-87365001D01*
X143732905Y-87441191D01*
X143694810Y-87555477D01*
X143656714Y-87593572D01*
X143390048Y-87593572D01*
X143390048Y-87441191D01*
X143732905Y-87936429D02*
X142932905Y-87936429D01*
X143732905Y-88393572D01*
X142932905Y-88393572D01*
X143732905Y-88774524D02*
X142932905Y-88774524D01*
X142932905Y-88965000D01*
X142971000Y-89079286D01*
X143047190Y-89155477D01*
X143123381Y-89193572D01*
X143275762Y-89231667D01*
X143390048Y-89231667D01*
X143542429Y-89193572D01*
X143618619Y-89155477D01*
X143694810Y-89079286D01*
X143732905Y-88965000D01*
X143732905Y-88774524D01*
X143732905Y-85226905D02*
X143351952Y-84960238D01*
X143732905Y-84769762D02*
X142932905Y-84769762D01*
X142932905Y-85074524D01*
X142971000Y-85150715D01*
X143009095Y-85188810D01*
X143085286Y-85226905D01*
X143199571Y-85226905D01*
X143275762Y-85188810D01*
X143313857Y-85150715D01*
X143351952Y-85074524D01*
X143351952Y-84769762D01*
X143694810Y-85531667D02*
X143732905Y-85645953D01*
X143732905Y-85836429D01*
X143694810Y-85912619D01*
X143656714Y-85950715D01*
X143580524Y-85988810D01*
X143504333Y-85988810D01*
X143428143Y-85950715D01*
X143390048Y-85912619D01*
X143351952Y-85836429D01*
X143313857Y-85684048D01*
X143275762Y-85607857D01*
X143237667Y-85569762D01*
X143161476Y-85531667D01*
X143085286Y-85531667D01*
X143009095Y-85569762D01*
X142971000Y-85607857D01*
X142932905Y-85684048D01*
X142932905Y-85874524D01*
X142971000Y-85988810D01*
X142932905Y-86217381D02*
X142932905Y-86674524D01*
X143732905Y-86445953D02*
X142932905Y-86445953D01*
X143732905Y-82474524D02*
X142932905Y-82474524D01*
X142932905Y-82665000D01*
X142971000Y-82779286D01*
X143047190Y-82855477D01*
X143123381Y-82893572D01*
X143275762Y-82931667D01*
X143390048Y-82931667D01*
X143542429Y-82893572D01*
X143618619Y-82855477D01*
X143694810Y-82779286D01*
X143732905Y-82665000D01*
X143732905Y-82474524D01*
X142932905Y-83617381D02*
X142932905Y-83465000D01*
X142971000Y-83388810D01*
X143009095Y-83350715D01*
X143123381Y-83274524D01*
X143275762Y-83236429D01*
X143580524Y-83236429D01*
X143656714Y-83274524D01*
X143694810Y-83312619D01*
X143732905Y-83388810D01*
X143732905Y-83541191D01*
X143694810Y-83617381D01*
X143656714Y-83655477D01*
X143580524Y-83693572D01*
X143390048Y-83693572D01*
X143313857Y-83655477D01*
X143275762Y-83617381D01*
X143237667Y-83541191D01*
X143237667Y-83388810D01*
X143275762Y-83312619D01*
X143313857Y-83274524D01*
X143390048Y-83236429D01*
X143732905Y-79974524D02*
X142932905Y-79974524D01*
X142932905Y-80165000D01*
X142971000Y-80279286D01*
X143047190Y-80355477D01*
X143123381Y-80393572D01*
X143275762Y-80431667D01*
X143390048Y-80431667D01*
X143542429Y-80393572D01*
X143618619Y-80355477D01*
X143694810Y-80279286D01*
X143732905Y-80165000D01*
X143732905Y-79974524D01*
X142932905Y-81155477D02*
X142932905Y-80774524D01*
X143313857Y-80736429D01*
X143275762Y-80774524D01*
X143237667Y-80850715D01*
X143237667Y-81041191D01*
X143275762Y-81117381D01*
X143313857Y-81155477D01*
X143390048Y-81193572D01*
X143580524Y-81193572D01*
X143656714Y-81155477D01*
X143694810Y-81117381D01*
X143732905Y-81041191D01*
X143732905Y-80850715D01*
X143694810Y-80774524D01*
X143656714Y-80736429D01*
X143732905Y-77374524D02*
X142932905Y-77374524D01*
X142932905Y-77565000D01*
X142971000Y-77679286D01*
X143047190Y-77755477D01*
X143123381Y-77793572D01*
X143275762Y-77831667D01*
X143390048Y-77831667D01*
X143542429Y-77793572D01*
X143618619Y-77755477D01*
X143694810Y-77679286D01*
X143732905Y-77565000D01*
X143732905Y-77374524D01*
X143199571Y-78517381D02*
X143732905Y-78517381D01*
X142894810Y-78326905D02*
X143466238Y-78136429D01*
X143466238Y-78631667D01*
X143732905Y-74874524D02*
X142932905Y-74874524D01*
X142932905Y-75065000D01*
X142971000Y-75179286D01*
X143047190Y-75255477D01*
X143123381Y-75293572D01*
X143275762Y-75331667D01*
X143390048Y-75331667D01*
X143542429Y-75293572D01*
X143618619Y-75255477D01*
X143694810Y-75179286D01*
X143732905Y-75065000D01*
X143732905Y-74874524D01*
X142932905Y-75598334D02*
X142932905Y-76093572D01*
X143237667Y-75826905D01*
X143237667Y-75941191D01*
X143275762Y-76017381D01*
X143313857Y-76055477D01*
X143390048Y-76093572D01*
X143580524Y-76093572D01*
X143656714Y-76055477D01*
X143694810Y-76017381D01*
X143732905Y-75941191D01*
X143732905Y-75712619D01*
X143694810Y-75636429D01*
X143656714Y-75598334D01*
X143732905Y-72374524D02*
X142932905Y-72374524D01*
X142932905Y-72565000D01*
X142971000Y-72679286D01*
X143047190Y-72755477D01*
X143123381Y-72793572D01*
X143275762Y-72831667D01*
X143390048Y-72831667D01*
X143542429Y-72793572D01*
X143618619Y-72755477D01*
X143694810Y-72679286D01*
X143732905Y-72565000D01*
X143732905Y-72374524D01*
X143009095Y-73136429D02*
X142971000Y-73174524D01*
X142932905Y-73250715D01*
X142932905Y-73441191D01*
X142971000Y-73517381D01*
X143009095Y-73555477D01*
X143085286Y-73593572D01*
X143161476Y-73593572D01*
X143275762Y-73555477D01*
X143732905Y-73098334D01*
X143732905Y-73593572D01*
X142932905Y-69374523D02*
X142932905Y-69831666D01*
X143732905Y-69603095D02*
X142932905Y-69603095D01*
X142932905Y-70022143D02*
X143732905Y-70555476D01*
X142932905Y-70555476D02*
X143732905Y-70022143D01*
X142932905Y-71012619D02*
X142932905Y-71088810D01*
X142971000Y-71165000D01*
X143009095Y-71203095D01*
X143085286Y-71241191D01*
X143237667Y-71279286D01*
X143428143Y-71279286D01*
X143580524Y-71241191D01*
X143656714Y-71203095D01*
X143694810Y-71165000D01*
X143732905Y-71088810D01*
X143732905Y-71012619D01*
X143694810Y-70936429D01*
X143656714Y-70898333D01*
X143580524Y-70860238D01*
X143428143Y-70822143D01*
X143237667Y-70822143D01*
X143085286Y-70860238D01*
X143009095Y-70898333D01*
X142971000Y-70936429D01*
X142932905Y-71012619D01*
X143732905Y-67350714D02*
X143351952Y-67084047D01*
X143732905Y-66893571D02*
X142932905Y-66893571D01*
X142932905Y-67198333D01*
X142971000Y-67274524D01*
X143009095Y-67312619D01*
X143085286Y-67350714D01*
X143199571Y-67350714D01*
X143275762Y-67312619D01*
X143313857Y-67274524D01*
X143351952Y-67198333D01*
X143351952Y-66893571D01*
X142932905Y-67617381D02*
X143732905Y-68150714D01*
X142932905Y-68150714D02*
X143732905Y-67617381D01*
X142932905Y-68607857D02*
X142932905Y-68684048D01*
X142971000Y-68760238D01*
X143009095Y-68798333D01*
X143085286Y-68836429D01*
X143237667Y-68874524D01*
X143428143Y-68874524D01*
X143580524Y-68836429D01*
X143656714Y-68798333D01*
X143694810Y-68760238D01*
X143732905Y-68684048D01*
X143732905Y-68607857D01*
X143694810Y-68531667D01*
X143656714Y-68493571D01*
X143580524Y-68455476D01*
X143428143Y-68417381D01*
X143237667Y-68417381D01*
X143085286Y-68455476D01*
X143009095Y-68493571D01*
X142971000Y-68531667D01*
X142932905Y-68607857D01*
X159732905Y-66893571D02*
X158932905Y-66893571D01*
X158932905Y-67084047D01*
X158971000Y-67198333D01*
X159047190Y-67274524D01*
X159123381Y-67312619D01*
X159275762Y-67350714D01*
X159390048Y-67350714D01*
X159542429Y-67312619D01*
X159618619Y-67274524D01*
X159694810Y-67198333D01*
X159732905Y-67084047D01*
X159732905Y-66893571D01*
X159732905Y-68112619D02*
X159732905Y-67655476D01*
X159732905Y-67884047D02*
X158932905Y-67884047D01*
X159047190Y-67807857D01*
X159123381Y-67731666D01*
X159161476Y-67655476D01*
X158932905Y-68379286D02*
X158932905Y-68874524D01*
X159237667Y-68607857D01*
X159237667Y-68722143D01*
X159275762Y-68798333D01*
X159313857Y-68836429D01*
X159390048Y-68874524D01*
X159580524Y-68874524D01*
X159656714Y-68836429D01*
X159694810Y-68798333D01*
X159732905Y-68722143D01*
X159732905Y-68493571D01*
X159694810Y-68417381D01*
X159656714Y-68379286D01*
X159732905Y-69393571D02*
X158932905Y-69393571D01*
X158932905Y-69584047D01*
X158971000Y-69698333D01*
X159047190Y-69774524D01*
X159123381Y-69812619D01*
X159275762Y-69850714D01*
X159390048Y-69850714D01*
X159542429Y-69812619D01*
X159618619Y-69774524D01*
X159694810Y-69698333D01*
X159732905Y-69584047D01*
X159732905Y-69393571D01*
X159732905Y-70612619D02*
X159732905Y-70155476D01*
X159732905Y-70384047D02*
X158932905Y-70384047D01*
X159047190Y-70307857D01*
X159123381Y-70231666D01*
X159161476Y-70155476D01*
X159009095Y-70917381D02*
X158971000Y-70955476D01*
X158932905Y-71031667D01*
X158932905Y-71222143D01*
X158971000Y-71298333D01*
X159009095Y-71336429D01*
X159085286Y-71374524D01*
X159161476Y-71374524D01*
X159275762Y-71336429D01*
X159732905Y-70879286D01*
X159732905Y-71374524D01*
X159732905Y-71993571D02*
X158932905Y-71993571D01*
X158932905Y-72184047D01*
X158971000Y-72298333D01*
X159047190Y-72374524D01*
X159123381Y-72412619D01*
X159275762Y-72450714D01*
X159390048Y-72450714D01*
X159542429Y-72412619D01*
X159618619Y-72374524D01*
X159694810Y-72298333D01*
X159732905Y-72184047D01*
X159732905Y-71993571D01*
X159732905Y-73212619D02*
X159732905Y-72755476D01*
X159732905Y-72984047D02*
X158932905Y-72984047D01*
X159047190Y-72907857D01*
X159123381Y-72831666D01*
X159161476Y-72755476D01*
X159732905Y-73974524D02*
X159732905Y-73517381D01*
X159732905Y-73745952D02*
X158932905Y-73745952D01*
X159047190Y-73669762D01*
X159123381Y-73593571D01*
X159161476Y-73517381D01*
X159732905Y-74493571D02*
X158932905Y-74493571D01*
X158932905Y-74684047D01*
X158971000Y-74798333D01*
X159047190Y-74874524D01*
X159123381Y-74912619D01*
X159275762Y-74950714D01*
X159390048Y-74950714D01*
X159542429Y-74912619D01*
X159618619Y-74874524D01*
X159694810Y-74798333D01*
X159732905Y-74684047D01*
X159732905Y-74493571D01*
X159732905Y-75712619D02*
X159732905Y-75255476D01*
X159732905Y-75484047D02*
X158932905Y-75484047D01*
X159047190Y-75407857D01*
X159123381Y-75331666D01*
X159161476Y-75255476D01*
X158932905Y-76207857D02*
X158932905Y-76284048D01*
X158971000Y-76360238D01*
X159009095Y-76398333D01*
X159085286Y-76436429D01*
X159237667Y-76474524D01*
X159428143Y-76474524D01*
X159580524Y-76436429D01*
X159656714Y-76398333D01*
X159694810Y-76360238D01*
X159732905Y-76284048D01*
X159732905Y-76207857D01*
X159694810Y-76131667D01*
X159656714Y-76093571D01*
X159580524Y-76055476D01*
X159428143Y-76017381D01*
X159237667Y-76017381D01*
X159085286Y-76055476D01*
X159009095Y-76093571D01*
X158971000Y-76131667D01*
X158932905Y-76207857D01*
X159732905Y-77374524D02*
X158932905Y-77374524D01*
X158932905Y-77565000D01*
X158971000Y-77679286D01*
X159047190Y-77755477D01*
X159123381Y-77793572D01*
X159275762Y-77831667D01*
X159390048Y-77831667D01*
X159542429Y-77793572D01*
X159618619Y-77755477D01*
X159694810Y-77679286D01*
X159732905Y-77565000D01*
X159732905Y-77374524D01*
X159732905Y-78212619D02*
X159732905Y-78365000D01*
X159694810Y-78441191D01*
X159656714Y-78479286D01*
X159542429Y-78555477D01*
X159390048Y-78593572D01*
X159085286Y-78593572D01*
X159009095Y-78555477D01*
X158971000Y-78517381D01*
X158932905Y-78441191D01*
X158932905Y-78288810D01*
X158971000Y-78212619D01*
X159009095Y-78174524D01*
X159085286Y-78136429D01*
X159275762Y-78136429D01*
X159351952Y-78174524D01*
X159390048Y-78212619D01*
X159428143Y-78288810D01*
X159428143Y-78441191D01*
X159390048Y-78517381D01*
X159351952Y-78555477D01*
X159275762Y-78593572D01*
X159732905Y-79974524D02*
X158932905Y-79974524D01*
X158932905Y-80165000D01*
X158971000Y-80279286D01*
X159047190Y-80355477D01*
X159123381Y-80393572D01*
X159275762Y-80431667D01*
X159390048Y-80431667D01*
X159542429Y-80393572D01*
X159618619Y-80355477D01*
X159694810Y-80279286D01*
X159732905Y-80165000D01*
X159732905Y-79974524D01*
X159275762Y-80888810D02*
X159237667Y-80812619D01*
X159199571Y-80774524D01*
X159123381Y-80736429D01*
X159085286Y-80736429D01*
X159009095Y-80774524D01*
X158971000Y-80812619D01*
X158932905Y-80888810D01*
X158932905Y-81041191D01*
X158971000Y-81117381D01*
X159009095Y-81155477D01*
X159085286Y-81193572D01*
X159123381Y-81193572D01*
X159199571Y-81155477D01*
X159237667Y-81117381D01*
X159275762Y-81041191D01*
X159275762Y-80888810D01*
X159313857Y-80812619D01*
X159351952Y-80774524D01*
X159428143Y-80736429D01*
X159580524Y-80736429D01*
X159656714Y-80774524D01*
X159694810Y-80812619D01*
X159732905Y-80888810D01*
X159732905Y-81041191D01*
X159694810Y-81117381D01*
X159656714Y-81155477D01*
X159580524Y-81193572D01*
X159428143Y-81193572D01*
X159351952Y-81155477D01*
X159313857Y-81117381D01*
X159275762Y-81041191D01*
X159732905Y-82474524D02*
X158932905Y-82474524D01*
X158932905Y-82665000D01*
X158971000Y-82779286D01*
X159047190Y-82855477D01*
X159123381Y-82893572D01*
X159275762Y-82931667D01*
X159390048Y-82931667D01*
X159542429Y-82893572D01*
X159618619Y-82855477D01*
X159694810Y-82779286D01*
X159732905Y-82665000D01*
X159732905Y-82474524D01*
X158932905Y-83198334D02*
X158932905Y-83731667D01*
X159732905Y-83388810D01*
X158932905Y-84674524D02*
X158932905Y-85169762D01*
X159237667Y-84903095D01*
X159237667Y-85017381D01*
X159275762Y-85093571D01*
X159313857Y-85131667D01*
X159390048Y-85169762D01*
X159580524Y-85169762D01*
X159656714Y-85131667D01*
X159694810Y-85093571D01*
X159732905Y-85017381D01*
X159732905Y-84788809D01*
X159694810Y-84712619D01*
X159656714Y-84674524D01*
X158932905Y-85398333D02*
X159732905Y-85665000D01*
X158932905Y-85931667D01*
X158932905Y-86122143D02*
X158932905Y-86617381D01*
X159237667Y-86350714D01*
X159237667Y-86465000D01*
X159275762Y-86541190D01*
X159313857Y-86579286D01*
X159390048Y-86617381D01*
X159580524Y-86617381D01*
X159656714Y-86579286D01*
X159694810Y-86541190D01*
X159732905Y-86465000D01*
X159732905Y-86236428D01*
X159694810Y-86160238D01*
X159656714Y-86122143D01*
X158932905Y-88012620D02*
X158932905Y-87631667D01*
X159313857Y-87593572D01*
X159275762Y-87631667D01*
X159237667Y-87707858D01*
X159237667Y-87898334D01*
X159275762Y-87974524D01*
X159313857Y-88012620D01*
X159390048Y-88050715D01*
X159580524Y-88050715D01*
X159656714Y-88012620D01*
X159694810Y-87974524D01*
X159732905Y-87898334D01*
X159732905Y-87707858D01*
X159694810Y-87631667D01*
X159656714Y-87593572D01*
X158932905Y-88279286D02*
X159732905Y-88545953D01*
X158932905Y-88812620D01*
M02*
