M48
;DRILL file {KiCad 4.0.6} date 04/10/19 18:13:58
;FORMAT={-:-/ absolute / inch / decimal}
FMAT,2
INCH,TZ
T1C0.020
T2C0.033
T3C0.059
%
G90
G05
M72
T1
X5.7091Y-3.1329
X5.7622Y-2.7254
X6.091Y-2.7707
T2
X5.8193Y-3.0344
X5.9193Y-3.0344
X6.0193Y-3.0344
X6.1193Y-3.0344
T3
X5.5645Y-2.5717
X5.5645Y-2.6717
X5.5645Y-2.7717
X5.5645Y-2.8717
X5.5645Y-2.9717
X5.5645Y-3.0717
X5.5645Y-3.1717
X5.5645Y-3.2717
X5.5645Y-3.3717
X5.5645Y-3.4717
X5.6645Y-2.5717
X5.7645Y-2.5717
X5.8645Y-2.5717
X5.9645Y-2.5717
X6.0645Y-2.5717
X6.1645Y-2.5717
X6.2645Y-2.5717
X6.3645Y-2.5717
X6.3645Y-2.6717
X6.3645Y-2.7717
X6.3645Y-2.8717
X6.3645Y-2.9717
X6.3645Y-3.0717
X6.3645Y-3.1717
X6.3645Y-3.2717
X6.3645Y-3.3717
X6.3645Y-3.4717
T0
M30
