G04 #@! TF.FileFunction,Copper,L2,Bot,Signal*
%FSLAX46Y46*%
G04 Gerber Fmt 4.6, Leading zero omitted, Abs format (unit mm)*
G04 Created by KiCad (PCBNEW 4.0.6) date 04/10/19 18:14:00*
%MOMM*%
%LPD*%
G01*
G04 APERTURE LIST*
%ADD10C,0.100000*%
%ADD11C,2.100000*%
%ADD12R,1.700000X1.700000*%
%ADD13C,1.700000*%
%ADD14C,1.000000*%
%ADD15C,0.500000*%
G04 APERTURE END LIST*
D10*
D11*
X161658000Y-67860000D03*
X161658000Y-70400000D03*
X161658000Y-72940000D03*
X161658000Y-75480000D03*
X161658000Y-78020000D03*
X161658000Y-80560000D03*
X161658000Y-83100000D03*
X161658000Y-85640000D03*
X161658000Y-88180000D03*
X161658000Y-65320000D03*
X159118000Y-65320000D03*
X156578000Y-65320000D03*
X154038000Y-65320000D03*
X151498000Y-65320000D03*
X148958000Y-65320000D03*
X146418000Y-65320000D03*
X143878000Y-65320000D03*
X141338000Y-65320000D03*
X141338000Y-67860000D03*
X141338000Y-70400000D03*
X141338000Y-72940000D03*
X141338000Y-75480000D03*
X141338000Y-78020000D03*
X141338000Y-80560000D03*
X141338000Y-83100000D03*
X141338000Y-85640000D03*
X141338000Y-88180000D03*
D12*
X147811000Y-77075000D03*
D13*
X150351000Y-77075000D03*
X152891000Y-77075000D03*
X155431000Y-77075000D03*
D14*
X145011000Y-79575000D03*
X146361000Y-69225000D03*
X154711000Y-70375000D03*
D15*
X143976000Y-72940000D02*
X141338000Y-72940000D01*
X145011000Y-73975000D02*
X143976000Y-72940000D01*
X145011000Y-79575000D02*
X145011000Y-73975000D01*
X154711000Y-70375000D02*
X147511000Y-70375000D01*
X147511000Y-70375000D02*
X146361000Y-69225000D01*
X159118000Y-65320000D02*
X159118000Y-68968000D01*
X157711000Y-70375000D02*
X154711000Y-70375000D01*
X159118000Y-68968000D02*
X157711000Y-70375000D01*
M02*
