G04 #@! TF.FileFunction,Soldermask,Top*
%FSLAX46Y46*%
G04 Gerber Fmt 4.6, Leading zero omitted, Abs format (unit mm)*
G04 Created by KiCad (PCBNEW 4.0.6) date 04/10/19 18:14:00*
%MOMM*%
%LPD*%
G01*
G04 APERTURE LIST*
%ADD10C,0.100000*%
%ADD11C,2.500000*%
%ADD12R,1.400000X1.650000*%
%ADD13R,1.900000X3.100000*%
%ADD14R,1.700000X1.100000*%
%ADD15R,2.100000X2.100000*%
%ADD16C,2.100000*%
%ADD17R,2.900000X3.700000*%
%ADD18R,2.000000X3.900000*%
G04 APERTURE END LIST*
D10*
D11*
X161658000Y-67860000D03*
X161658000Y-70400000D03*
X161658000Y-72940000D03*
X161658000Y-75480000D03*
X161658000Y-78020000D03*
X161658000Y-80560000D03*
X161658000Y-83100000D03*
X161658000Y-85640000D03*
X161658000Y-88180000D03*
X161658000Y-65320000D03*
X159118000Y-65320000D03*
X156578000Y-65320000D03*
X154038000Y-65320000D03*
X151498000Y-65320000D03*
X148958000Y-65320000D03*
X146418000Y-65320000D03*
X143878000Y-65320000D03*
X141338000Y-65320000D03*
X141338000Y-67860000D03*
X141338000Y-70400000D03*
X141338000Y-72940000D03*
X141338000Y-75480000D03*
X141338000Y-78020000D03*
X141338000Y-80560000D03*
X141338000Y-83100000D03*
X141338000Y-85640000D03*
X141338000Y-88180000D03*
D12*
X154361000Y-74775000D03*
X156361000Y-74775000D03*
D13*
X144061000Y-69225000D03*
X148861000Y-69225000D03*
D14*
X145011000Y-78075000D03*
X145011000Y-76175000D03*
D15*
X147811000Y-77075000D03*
D16*
X150351000Y-77075000D03*
X152891000Y-77075000D03*
X155431000Y-77075000D03*
D17*
X158361000Y-70375000D03*
X151561000Y-70375000D03*
D18*
X144071000Y-73325000D03*
X148951000Y-73325000D03*
M02*
