%TF.GenerationSoftware,KiCad,Pcbnew,7.0.8*%
%TF.CreationDate,2024-06-11T21:18:20+02:00*%
%TF.ProjectId,Stima V4 GSM R1_1,5374696d-6120-4563-9420-47534d205231,rev?*%
%TF.SameCoordinates,Original*%
%TF.FileFunction,Paste,Top*%
%TF.FilePolarity,Positive*%
%FSLAX46Y46*%
G04 Gerber Fmt 4.6, Leading zero omitted, Abs format (unit mm)*
G04 Created by KiCad (PCBNEW 7.0.8) date 2024-06-11 21:18:20*
%MOMM*%
%LPD*%
G01*
G04 APERTURE LIST*
%ADD10R,0.600000X1.000000*%
%ADD11R,1.000000X0.600000*%
%ADD12R,3.940000X1.400000*%
%ADD13R,3.580000X1.700000*%
%ADD14R,1.350000X0.900000*%
%ADD15R,2.610000X1.400000*%
%ADD16R,2.610000X1.700000*%
%ADD17R,2.610000X1.500000*%
%ADD18R,0.600000X0.600000*%
%ADD19R,1.000000X1.100000*%
%ADD20R,1.050000X2.200000*%
%ADD21R,0.900000X0.400000*%
%ADD22R,2.200000X0.600000*%
%ADD23R,0.900000X1.270000*%
%ADD24O,0.500000X2.300000*%
%ADD25O,2.300000X0.500000*%
%ADD26R,0.850000X1.300000*%
%ADD27R,2.200000X2.000000*%
%ADD28R,2.000000X2.200000*%
%ADD29R,0.400000X1.300000*%
G04 APERTURE END LIST*
D10*
%TO.C,R9*%
X151993600Y-130340100D03*
X153644600Y-130340100D03*
%TD*%
%TO.C,C2*%
X126593600Y-104305100D03*
X124942600Y-104305100D03*
%TD*%
D11*
%TO.C,C19*%
X170916600Y-87287100D03*
X170916600Y-85636100D03*
%TD*%
D10*
%TO.C,R18*%
X167360600Y-79413100D03*
X165709600Y-79413100D03*
%TD*%
%TO.C,R14*%
X164820600Y-73571100D03*
X166471600Y-73571100D03*
%TD*%
%TO.C,FIL1*%
X126836500Y-95921500D03*
X128487500Y-95921500D03*
%TD*%
D11*
%TO.C,C4*%
X155422600Y-75730100D03*
X155422600Y-77381100D03*
%TD*%
%TO.C,R12*%
X143865600Y-125260100D03*
X143865600Y-123609100D03*
%TD*%
%TO.C,C10*%
X138785600Y-130721100D03*
X138785600Y-129070100D03*
%TD*%
D12*
%TO.C,J1*%
X164795200Y-131508500D03*
D13*
X172415200Y-131508500D03*
D12*
X164795200Y-128968500D03*
D13*
X172415200Y-128968500D03*
D12*
X164795200Y-126428500D03*
D13*
X172415200Y-126428500D03*
D12*
X164795200Y-123888500D03*
D13*
X172415200Y-123888500D03*
D14*
X157556200Y-123990100D03*
X157556200Y-126530100D03*
X157556200Y-129070100D03*
X157556200Y-131610100D03*
X157556200Y-125260100D03*
X157556200Y-127800100D03*
X157556200Y-130340100D03*
X157556200Y-132880100D03*
X157556200Y-134150100D03*
D15*
X160451800Y-135039100D03*
D16*
X173075600Y-135039100D03*
D15*
X160451800Y-118478300D03*
D17*
X173075600Y-118478300D03*
%TD*%
D10*
%TO.C,R13*%
X151993600Y-128689100D03*
X153644600Y-128689100D03*
%TD*%
%TO.C,C5*%
X158597600Y-77381100D03*
X156946600Y-77381100D03*
%TD*%
%TO.C,C11*%
X138658600Y-126784100D03*
X137007600Y-126784100D03*
%TD*%
%TO.C,C16*%
X124307600Y-114719100D03*
X125958600Y-114719100D03*
%TD*%
D18*
%TO.C,DZ1*%
X140182600Y-115862100D03*
X140182600Y-117513100D03*
%TD*%
D10*
%TO.C,C13*%
X133578600Y-114592100D03*
X131927600Y-114592100D03*
%TD*%
%TO.C,C3*%
X137515600Y-113449100D03*
X135864600Y-113449100D03*
%TD*%
%TO.C,C14*%
X133578600Y-112941100D03*
X131927600Y-112941100D03*
%TD*%
%TO.C,R2*%
X158597600Y-75730100D03*
X156946600Y-75730100D03*
%TD*%
D19*
%TO.C,E3_AUX1*%
X145389600Y-74231500D03*
D20*
X143916400Y-72682100D03*
X146862800Y-72682100D03*
%TD*%
D10*
%TO.C,R7*%
X151485600Y-71666100D03*
X149834600Y-71666100D03*
%TD*%
D21*
%TO.C,DZ5*%
X153898600Y-121577100D03*
X153898600Y-120927100D03*
X153898600Y-120277100D03*
X151898600Y-120277100D03*
X151898600Y-120927100D03*
X151898600Y-121577100D03*
%TD*%
D10*
%TO.C,R4*%
X138404600Y-119291100D03*
X136753600Y-119291100D03*
%TD*%
D11*
%TO.C,R5*%
X139547600Y-74587100D03*
X139547600Y-76238100D03*
%TD*%
D10*
%TO.C,C8*%
X139547600Y-77635100D03*
X141198600Y-77635100D03*
%TD*%
%TO.C,R15*%
X151993600Y-134023100D03*
X153644600Y-134023100D03*
%TD*%
D11*
%TO.C,L2*%
X128371600Y-107353100D03*
X128371600Y-105702100D03*
%TD*%
D22*
%TO.C,U5*%
X133324600Y-120688100D03*
X133324600Y-119418100D03*
X133324600Y-118148100D03*
X133324600Y-116878100D03*
X127228600Y-116878100D03*
X127228600Y-118148100D03*
X127228600Y-119418100D03*
X127228600Y-120688100D03*
%TD*%
D11*
%TO.C,L3*%
X126720600Y-107353100D03*
X126720600Y-105702100D03*
%TD*%
D10*
%TO.C,R17*%
X153644600Y-132245100D03*
X151993600Y-132245100D03*
%TD*%
%TO.C,R8*%
X149072600Y-77635100D03*
X147421600Y-77635100D03*
%TD*%
D11*
%TO.C,C7*%
X142849600Y-118656100D03*
X142849600Y-120307100D03*
%TD*%
D10*
%TO.C,R3*%
X129514600Y-100749100D03*
X127863600Y-100749100D03*
%TD*%
D23*
%TO.C,DL1*%
X153263600Y-71666100D03*
X155422600Y-71666100D03*
%TD*%
D24*
%TO.C,U1*%
X138531600Y-111417100D03*
X139531600Y-111417100D03*
X140531600Y-111417100D03*
X141531600Y-111417100D03*
X142531600Y-111417100D03*
X143531600Y-111417100D03*
X144531600Y-111417100D03*
X145531600Y-111417100D03*
X146531600Y-111417100D03*
X147531600Y-111417100D03*
X148531600Y-111417100D03*
X149531600Y-111417100D03*
X150531600Y-111417100D03*
X151531600Y-111417100D03*
X152531600Y-111417100D03*
X153531600Y-111417100D03*
X154531600Y-111417100D03*
X155531600Y-111417100D03*
X156531600Y-111417100D03*
X157531600Y-111417100D03*
D25*
X163381600Y-105567100D03*
X163381600Y-104567100D03*
X163381600Y-103567090D03*
X163381600Y-102567100D03*
X163381600Y-101567100D03*
X163381600Y-100567100D03*
X163381600Y-99567100D03*
X163381600Y-98567100D03*
X163381600Y-97567100D03*
X163381600Y-96567100D03*
X163381600Y-95567100D03*
X163381600Y-94567100D03*
X163381600Y-93567090D03*
X163381600Y-92567100D03*
X163381600Y-91567100D03*
X163381600Y-90567100D03*
X163381600Y-89567100D03*
X163381600Y-88567100D03*
X163381600Y-87567100D03*
X163381600Y-86567100D03*
D24*
X157531600Y-80717090D03*
X156531600Y-80717100D03*
X155531600Y-80717100D03*
X154531600Y-80717100D03*
X153531600Y-80717090D03*
X152531600Y-80717100D03*
X151531600Y-80717100D03*
X150531600Y-80717100D03*
X149531600Y-80717100D03*
X148531600Y-80717100D03*
X147531600Y-80717100D03*
X146531600Y-80717090D03*
X145531600Y-80717100D03*
X144531600Y-80717100D03*
X143531600Y-80717090D03*
X142531600Y-80717100D03*
X141531600Y-80717100D03*
X140531600Y-80717090D03*
X139531600Y-80717100D03*
X138531600Y-80717100D03*
D25*
X132681600Y-86567100D03*
X132681600Y-87567100D03*
X132681600Y-88567100D03*
X132681600Y-89567100D03*
X132681600Y-90567100D03*
X132681600Y-91567100D03*
X132681600Y-92567100D03*
X132681600Y-93567100D03*
X132681600Y-94567100D03*
X132681600Y-95567100D03*
X132681600Y-96567100D03*
X132681600Y-97567100D03*
X132681600Y-98567100D03*
X132681600Y-99567100D03*
X132681600Y-100567100D03*
X132681600Y-101567100D03*
X132681600Y-102567090D03*
X132681600Y-103567100D03*
X132681600Y-104567100D03*
X132681600Y-105567100D03*
D24*
X158531600Y-111417100D03*
X158531600Y-80717100D03*
D25*
X163381600Y-85567100D03*
X163381600Y-106567100D03*
D24*
X137531600Y-80717100D03*
D25*
X132681600Y-106567100D03*
X132681600Y-85567100D03*
%TD*%
D19*
%TO.C,E2_GNSS1*%
X125196600Y-108978700D03*
D20*
X126669800Y-110528100D03*
X123723400Y-110528100D03*
%TD*%
D23*
%TO.C,DL2*%
X164820600Y-71412100D03*
X166979600Y-71412100D03*
%TD*%
D10*
%TO.C,C15*%
X124307600Y-113195100D03*
X125958600Y-113195100D03*
%TD*%
D26*
%TO.C,Q3*%
X165455600Y-77635100D03*
X167355600Y-77635100D03*
X166420800Y-75120500D03*
%TD*%
D18*
%TO.C,DZ3*%
X156946600Y-74333100D03*
X155295600Y-74333100D03*
%TD*%
D19*
%TO.C,E1_MAIN1*%
X160248600Y-74231500D03*
D20*
X158775400Y-72682100D03*
X161721800Y-72682100D03*
%TD*%
D10*
%TO.C,R10*%
X151993600Y-77635100D03*
X150342600Y-77635100D03*
%TD*%
%TO.C,R1*%
X136753600Y-120942100D03*
X138404600Y-120942100D03*
%TD*%
D27*
%TO.C,C17*%
X168122600Y-87287100D03*
X168122600Y-84287100D03*
%TD*%
D18*
%TO.C,DZ6*%
X125323600Y-95923100D03*
X123672600Y-95923100D03*
%TD*%
D10*
%TO.C,R16*%
X163931600Y-79413100D03*
X162280600Y-79413100D03*
%TD*%
D26*
%TO.C,Q2*%
X150342600Y-75984100D03*
X152242600Y-75984100D03*
X151307800Y-73469500D03*
%TD*%
D11*
%TO.C,C6*%
X141325600Y-118656100D03*
X141325600Y-120307100D03*
%TD*%
D10*
%TO.C,R11*%
X151993600Y-126911100D03*
X153644600Y-126911100D03*
%TD*%
%TO.C,C22*%
X128498600Y-94018100D03*
X126847600Y-94018100D03*
%TD*%
D28*
%TO.C,C21*%
X127990600Y-88176100D03*
X124990600Y-88176100D03*
%TD*%
D10*
%TO.C,C1*%
X127990600Y-102654100D03*
X126339600Y-102654100D03*
%TD*%
D29*
%TO.C,U4*%
X140309600Y-133515100D03*
X140959600Y-133515100D03*
X141609600Y-133515100D03*
X142259600Y-133515100D03*
X142909600Y-133515100D03*
X143559600Y-133515100D03*
X144209600Y-133515100D03*
X144209600Y-127015100D03*
X143559600Y-127015100D03*
X142909600Y-127015100D03*
X142259600Y-127015100D03*
X141609600Y-127015100D03*
X140959600Y-127015100D03*
X140309600Y-127015100D03*
%TD*%
D11*
%TO.C,R19*%
X124688600Y-119037100D03*
X124688600Y-117386100D03*
%TD*%
D26*
%TO.C,Q1*%
X136804400Y-117614700D03*
X138704400Y-117614700D03*
X137769600Y-115100100D03*
%TD*%
D10*
%TO.C,L1*%
X124942600Y-100749100D03*
X126593600Y-100749100D03*
%TD*%
D18*
%TO.C,DZ2*%
X125323600Y-106591100D03*
X123672600Y-106591100D03*
%TD*%
D11*
%TO.C,C12*%
X153390600Y-123101100D03*
X153390600Y-124752100D03*
%TD*%
D28*
%TO.C,C20*%
X127990600Y-91478100D03*
X124990600Y-91478100D03*
%TD*%
D11*
%TO.C,R20*%
X124688600Y-121831100D03*
X124688600Y-120180100D03*
%TD*%
%TO.C,R6*%
X144373600Y-118656100D03*
X144373600Y-120307100D03*
%TD*%
D21*
%TO.C,U2*%
X144627600Y-116527100D03*
X144627600Y-115877100D03*
X144627600Y-115227100D03*
X142627600Y-115227100D03*
X142627600Y-115877100D03*
X142627600Y-116527100D03*
%TD*%
D10*
%TO.C,C23*%
X129630500Y-104305100D03*
X127979500Y-104305100D03*
%TD*%
D27*
%TO.C,C18*%
X167995600Y-90462100D03*
X167995600Y-93462100D03*
%TD*%
D11*
%TO.C,C9*%
X141198600Y-74587100D03*
X141198600Y-76238100D03*
%TD*%
D18*
%TO.C,DZ4*%
X142595600Y-74714100D03*
X142595600Y-76365100D03*
%TD*%
M02*
