%TF.GenerationSoftware,KiCad,Pcbnew,7.0.8*%
%TF.CreationDate,2024-06-11T21:18:21+02:00*%
%TF.ProjectId,Stima V4 GSM R1_1,5374696d-6120-4563-9420-47534d205231,rev?*%
%TF.SameCoordinates,Original*%
%TF.FileFunction,Soldermask,Top*%
%TF.FilePolarity,Negative*%
%FSLAX46Y46*%
G04 Gerber Fmt 4.6, Leading zero omitted, Abs format (unit mm)*
G04 Created by KiCad (PCBNEW 7.0.8) date 2024-06-11 21:18:21*
%MOMM*%
%LPD*%
G01*
G04 APERTURE LIST*
G04 Aperture macros list*
%AMRoundRect*
0 Rectangle with rounded corners*
0 $1 Rounding radius*
0 $2 $3 $4 $5 $6 $7 $8 $9 X,Y pos of 4 corners*
0 Add a 4 corners polygon primitive as box body*
4,1,4,$2,$3,$4,$5,$6,$7,$8,$9,$2,$3,0*
0 Add four circle primitives for the rounded corners*
1,1,$1+$1,$2,$3*
1,1,$1+$1,$4,$5*
1,1,$1+$1,$6,$7*
1,1,$1+$1,$8,$9*
0 Add four rect primitives between the rounded corners*
20,1,$1+$1,$2,$3,$4,$5,0*
20,1,$1+$1,$4,$5,$6,$7,0*
20,1,$1+$1,$6,$7,$8,$9,0*
20,1,$1+$1,$8,$9,$2,$3,0*%
G04 Aperture macros list end*
%ADD10RoundRect,0.200000X-0.300000X-0.500000X0.300000X-0.500000X0.300000X0.500000X-0.300000X0.500000X0*%
%ADD11RoundRect,0.200000X0.300000X0.500000X-0.300000X0.500000X-0.300000X-0.500000X0.300000X-0.500000X0*%
%ADD12RoundRect,0.200000X0.500000X-0.300000X0.500000X0.300000X-0.500000X0.300000X-0.500000X-0.300000X0*%
%ADD13RoundRect,0.200000X-0.500000X0.300000X-0.500000X-0.300000X0.500000X-0.300000X0.500000X0.300000X0*%
%ADD14RoundRect,0.200000X1.970000X0.700000X-1.970000X0.700000X-1.970000X-0.700000X1.970000X-0.700000X0*%
%ADD15RoundRect,0.200000X1.790000X0.850000X-1.790000X0.850000X-1.790000X-0.850000X1.790000X-0.850000X0*%
%ADD16RoundRect,0.200000X0.675000X0.450000X-0.675000X0.450000X-0.675000X-0.450000X0.675000X-0.450000X0*%
%ADD17RoundRect,0.200000X1.305000X0.700000X-1.305000X0.700000X-1.305000X-0.700000X1.305000X-0.700000X0*%
%ADD18RoundRect,0.200000X1.305000X0.850000X-1.305000X0.850000X-1.305000X-0.850000X1.305000X-0.850000X0*%
%ADD19RoundRect,0.200000X1.305000X0.750000X-1.305000X0.750000X-1.305000X-0.750000X1.305000X-0.750000X0*%
%ADD20C,5.900000*%
%ADD21RoundRect,0.200000X-0.300000X0.300000X-0.300000X-0.300000X0.300000X-0.300000X0.300000X0.300000X0*%
%ADD22RoundRect,0.200000X0.500000X-0.550000X0.500000X0.550000X-0.500000X0.550000X-0.500000X-0.550000X0*%
%ADD23RoundRect,0.200000X0.525000X-1.100000X0.525000X1.100000X-0.525000X1.100000X-0.525000X-1.100000X0*%
%ADD24RoundRect,0.200000X0.450000X-0.200000X0.450000X0.200000X-0.450000X0.200000X-0.450000X-0.200000X0*%
%ADD25C,2.300000*%
%ADD26C,2.500000*%
%ADD27C,0.900000*%
%ADD28RoundRect,0.101600X1.100000X0.300000X-1.100000X0.300000X-1.100000X-0.300000X1.100000X-0.300000X0*%
%ADD29RoundRect,0.200000X1.100000X0.300000X-1.100000X0.300000X-1.100000X-0.300000X1.100000X-0.300000X0*%
%ADD30RoundRect,0.100000X1.280000X3.250000X-1.280000X3.250000X-1.280000X-3.250000X1.280000X-3.250000X0*%
%ADD31RoundRect,0.200000X-0.450000X-0.635000X0.450000X-0.635000X0.450000X0.635000X-0.450000X0.635000X0*%
%ADD32O,0.900000X2.700000*%
%ADD33O,2.700000X0.900000*%
%ADD34RoundRect,0.200000X-0.500000X0.550000X-0.500000X-0.550000X0.500000X-0.550000X0.500000X0.550000X0*%
%ADD35RoundRect,0.200000X-0.525000X1.100000X-0.525000X-1.100000X0.525000X-1.100000X0.525000X1.100000X0*%
%ADD36RoundRect,0.200000X-0.425000X-0.650000X0.425000X-0.650000X0.425000X0.650000X-0.425000X0.650000X0*%
%ADD37RoundRect,0.200000X0.300000X0.300000X-0.300000X0.300000X-0.300000X-0.300000X0.300000X-0.300000X0*%
%ADD38RoundRect,0.200000X1.100000X-1.000000X1.100000X1.000000X-1.100000X1.000000X-1.100000X-1.000000X0*%
%ADD39RoundRect,0.200000X1.000000X1.100000X-1.000000X1.100000X-1.000000X-1.100000X1.000000X-1.100000X0*%
%ADD40RoundRect,0.200000X0.200000X0.650000X-0.200000X0.650000X-0.200000X-0.650000X0.200000X-0.650000X0*%
%ADD41RoundRect,0.200000X-1.100000X1.000000X-1.100000X-1.000000X1.100000X-1.000000X1.100000X1.000000X0*%
G04 APERTURE END LIST*
D10*
%TO.C,R9*%
X151993600Y-130340100D03*
X153644600Y-130340100D03*
%TD*%
D11*
%TO.C,C2*%
X126593600Y-104305100D03*
X124942600Y-104305100D03*
%TD*%
D12*
%TO.C,C19*%
X170916600Y-87287100D03*
X170916600Y-85636100D03*
%TD*%
D11*
%TO.C,R18*%
X167360600Y-79413100D03*
X165709600Y-79413100D03*
%TD*%
D10*
%TO.C,R14*%
X164820600Y-73571100D03*
X166471600Y-73571100D03*
%TD*%
%TO.C,FIL1*%
X126836500Y-95921500D03*
X128487500Y-95921500D03*
%TD*%
D13*
%TO.C,C4*%
X155422600Y-75730100D03*
X155422600Y-77381100D03*
%TD*%
D12*
%TO.C,R12*%
X143865600Y-125260100D03*
X143865600Y-123609100D03*
%TD*%
%TO.C,C10*%
X138785600Y-130721100D03*
X138785600Y-129070100D03*
%TD*%
D14*
%TO.C,J1*%
X164795200Y-131508500D03*
D15*
X172415200Y-131508500D03*
D14*
X164795200Y-128968500D03*
D15*
X172415200Y-128968500D03*
D14*
X164795200Y-126428500D03*
D15*
X172415200Y-126428500D03*
D14*
X164795200Y-123888500D03*
D15*
X172415200Y-123888500D03*
D16*
X157556200Y-123990100D03*
X157556200Y-126530100D03*
X157556200Y-129070100D03*
X157556200Y-131610100D03*
X157556200Y-125260100D03*
X157556200Y-127800100D03*
X157556200Y-130340100D03*
X157556200Y-132880100D03*
X157556200Y-134150100D03*
D17*
X160451800Y-135039100D03*
D18*
X173075600Y-135039100D03*
D17*
X160451800Y-118478300D03*
D19*
X173075600Y-118478300D03*
%TD*%
D10*
%TO.C,R13*%
X151993600Y-128689100D03*
X153644600Y-128689100D03*
%TD*%
D11*
%TO.C,C5*%
X158597600Y-77381100D03*
X156946600Y-77381100D03*
%TD*%
%TO.C,C11*%
X138658600Y-126784100D03*
X137007600Y-126784100D03*
%TD*%
D10*
%TO.C,C16*%
X124307600Y-114719100D03*
X125958600Y-114719100D03*
%TD*%
D20*
%TO.C,A3*%
X133705600Y-133515100D03*
%TD*%
D21*
%TO.C,DZ1*%
X140182600Y-115862100D03*
X140182600Y-117513100D03*
%TD*%
D11*
%TO.C,C13*%
X133578600Y-114592100D03*
X131927600Y-114592100D03*
%TD*%
%TO.C,C3*%
X137515600Y-113449100D03*
X135864600Y-113449100D03*
%TD*%
%TO.C,C14*%
X133578600Y-112941100D03*
X131927600Y-112941100D03*
%TD*%
%TO.C,R2*%
X158597600Y-75730100D03*
X156946600Y-75730100D03*
%TD*%
D22*
%TO.C,E3_AUX1*%
X145389600Y-74231500D03*
D23*
X143916400Y-72682100D03*
X146862800Y-72682100D03*
%TD*%
D11*
%TO.C,R7*%
X151485600Y-71666100D03*
X149834600Y-71666100D03*
%TD*%
D24*
%TO.C,DZ5*%
X153898600Y-121577100D03*
X153898600Y-120927100D03*
X153898600Y-120277100D03*
X151898600Y-120277100D03*
X151898600Y-120927100D03*
X151898600Y-121577100D03*
%TD*%
D11*
%TO.C,R4*%
X138404600Y-119291100D03*
X136753600Y-119291100D03*
%TD*%
D13*
%TO.C,R5*%
X139547600Y-74587100D03*
X139547600Y-76238100D03*
%TD*%
D10*
%TO.C,C8*%
X139547600Y-77635100D03*
X141198600Y-77635100D03*
%TD*%
%TO.C,R15*%
X151993600Y-134023100D03*
X153644600Y-134023100D03*
%TD*%
D12*
%TO.C,L2*%
X128371600Y-107353100D03*
X128371600Y-105702100D03*
%TD*%
D25*
%TO.C,U3*%
X170662600Y-136944100D03*
D26*
X168122600Y-136944100D03*
X165582600Y-136944100D03*
X163042600Y-136944100D03*
X160502600Y-136944100D03*
X157962600Y-136944100D03*
X155422600Y-136944100D03*
X152882600Y-136944100D03*
D25*
X150342600Y-136944100D03*
X147802600Y-136944100D03*
X147802600Y-134404100D03*
X147802600Y-131864100D03*
X147802600Y-129324100D03*
D26*
X147802600Y-126784100D03*
X147802600Y-124244100D03*
X147802600Y-121704100D03*
X147802600Y-119164100D03*
D25*
X147802600Y-116624100D03*
X150342600Y-116624100D03*
X152882600Y-116624100D03*
X155422600Y-116624100D03*
X157962600Y-116624100D03*
X160502600Y-116624100D03*
D26*
X163042600Y-116624100D03*
X165582600Y-116624100D03*
X168122600Y-116624100D03*
X170662600Y-116624100D03*
%TD*%
D27*
%TO.C,U5*%
X129387600Y-120815100D03*
X130276600Y-120815100D03*
X131165600Y-120815100D03*
X129387600Y-118783100D03*
X131165600Y-118783100D03*
X129387600Y-116751100D03*
X130276600Y-116751100D03*
X131165600Y-116751100D03*
D28*
X133324600Y-120688100D03*
X133324600Y-119418100D03*
D29*
X133324600Y-118148100D03*
X133324600Y-116878100D03*
X127228600Y-116878100D03*
X127228600Y-118148100D03*
X127228600Y-119418100D03*
X127228600Y-120688100D03*
D30*
X130276600Y-118783100D03*
%TD*%
D12*
%TO.C,L3*%
X126720600Y-107353100D03*
X126720600Y-105702100D03*
%TD*%
D11*
%TO.C,R17*%
X153644600Y-132245100D03*
X151993600Y-132245100D03*
%TD*%
%TO.C,R8*%
X149072600Y-77635100D03*
X147421600Y-77635100D03*
%TD*%
D13*
%TO.C,C7*%
X142849600Y-118656100D03*
X142849600Y-120307100D03*
%TD*%
D11*
%TO.C,R3*%
X129514600Y-100749100D03*
X127863600Y-100749100D03*
%TD*%
D31*
%TO.C,DL1*%
X153263600Y-71666100D03*
X155422600Y-71666100D03*
%TD*%
D32*
%TO.C,U1*%
X138531600Y-111417100D03*
X139531600Y-111417100D03*
X140531600Y-111417100D03*
X141531600Y-111417100D03*
X142531600Y-111417100D03*
X143531600Y-111417100D03*
X144531600Y-111417100D03*
X145531600Y-111417100D03*
X146531600Y-111417100D03*
X147531600Y-111417100D03*
X148531600Y-111417100D03*
X149531600Y-111417100D03*
X150531600Y-111417100D03*
X151531600Y-111417100D03*
X152531600Y-111417100D03*
X153531600Y-111417100D03*
X154531600Y-111417100D03*
X155531600Y-111417100D03*
X156531600Y-111417100D03*
X157531600Y-111417100D03*
D33*
X163381600Y-105567100D03*
X163381600Y-104567100D03*
X163381600Y-103567090D03*
X163381600Y-102567100D03*
X163381600Y-101567100D03*
X163381600Y-100567100D03*
X163381600Y-99567100D03*
X163381600Y-98567100D03*
X163381600Y-97567100D03*
X163381600Y-96567100D03*
X163381600Y-95567100D03*
X163381600Y-94567100D03*
X163381600Y-93567090D03*
X163381600Y-92567100D03*
X163381600Y-91567100D03*
X163381600Y-90567100D03*
X163381600Y-89567100D03*
X163381600Y-88567100D03*
X163381600Y-87567100D03*
X163381600Y-86567100D03*
D32*
X157531600Y-80717090D03*
X156531600Y-80717100D03*
X155531600Y-80717100D03*
X154531600Y-80717100D03*
X153531600Y-80717090D03*
X152531600Y-80717100D03*
X151531600Y-80717100D03*
X150531600Y-80717100D03*
X149531600Y-80717100D03*
X148531600Y-80717100D03*
X147531600Y-80717100D03*
X146531600Y-80717090D03*
X145531600Y-80717100D03*
X144531600Y-80717100D03*
X143531600Y-80717090D03*
X142531600Y-80717100D03*
X141531600Y-80717100D03*
X140531600Y-80717090D03*
X139531600Y-80717100D03*
X138531600Y-80717100D03*
D33*
X132681600Y-86567100D03*
X132681600Y-87567100D03*
X132681600Y-88567100D03*
X132681600Y-89567100D03*
X132681600Y-90567100D03*
X132681600Y-91567100D03*
X132681600Y-92567100D03*
X132681600Y-93567100D03*
X132681600Y-94567100D03*
X132681600Y-95567100D03*
X132681600Y-96567100D03*
X132681600Y-97567100D03*
X132681600Y-98567100D03*
X132681600Y-99567100D03*
X132681600Y-100567100D03*
X132681600Y-101567100D03*
X132681600Y-102567090D03*
X132681600Y-103567100D03*
X132681600Y-104567100D03*
X132681600Y-105567100D03*
D32*
X158531600Y-111417100D03*
X158531600Y-80717100D03*
D33*
X163381600Y-85567100D03*
X163381600Y-106567100D03*
D32*
X137531600Y-80717100D03*
D33*
X132681600Y-106567100D03*
X132681600Y-85567100D03*
%TD*%
D34*
%TO.C,E2_GNSS1*%
X125196600Y-108978700D03*
D35*
X126669800Y-110528100D03*
X123723400Y-110528100D03*
%TD*%
D31*
%TO.C,DL2*%
X164820600Y-71412100D03*
X166979600Y-71412100D03*
%TD*%
D10*
%TO.C,C15*%
X124307600Y-113195100D03*
X125958600Y-113195100D03*
%TD*%
D36*
%TO.C,Q3*%
X165455600Y-77635100D03*
X167355600Y-77635100D03*
X166420800Y-75120500D03*
%TD*%
D37*
%TO.C,DZ3*%
X156946600Y-74333100D03*
X155295600Y-74333100D03*
%TD*%
D22*
%TO.C,E1_MAIN1*%
X160248600Y-74231500D03*
D23*
X158775400Y-72682100D03*
X161721800Y-72682100D03*
%TD*%
D11*
%TO.C,R10*%
X151993600Y-77635100D03*
X150342600Y-77635100D03*
%TD*%
D10*
%TO.C,R1*%
X136753600Y-120942100D03*
X138404600Y-120942100D03*
%TD*%
D38*
%TO.C,C17*%
X168122600Y-87287100D03*
X168122600Y-84287100D03*
%TD*%
D37*
%TO.C,DZ6*%
X125323600Y-95923100D03*
X123672600Y-95923100D03*
%TD*%
D11*
%TO.C,R16*%
X163931600Y-79413100D03*
X162280600Y-79413100D03*
%TD*%
D36*
%TO.C,Q2*%
X150342600Y-75984100D03*
X152242600Y-75984100D03*
X151307800Y-73469500D03*
%TD*%
D13*
%TO.C,C6*%
X141325600Y-118656100D03*
X141325600Y-120307100D03*
%TD*%
D10*
%TO.C,R11*%
X151993600Y-126911100D03*
X153644600Y-126911100D03*
%TD*%
D11*
%TO.C,C22*%
X128498600Y-94018100D03*
X126847600Y-94018100D03*
%TD*%
D39*
%TO.C,C21*%
X127990600Y-88176100D03*
X124990600Y-88176100D03*
%TD*%
D11*
%TO.C,C1*%
X127990600Y-102654100D03*
X126339600Y-102654100D03*
%TD*%
D40*
%TO.C,U4*%
X140309600Y-133515100D03*
X140959600Y-133515100D03*
X141609600Y-133515100D03*
X142259600Y-133515100D03*
X142909600Y-133515100D03*
X143559600Y-133515100D03*
X144209600Y-133515100D03*
X144209600Y-127015100D03*
X143559600Y-127015100D03*
X142909600Y-127015100D03*
X142259600Y-127015100D03*
X141609600Y-127015100D03*
X140959600Y-127015100D03*
X140309600Y-127015100D03*
%TD*%
D12*
%TO.C,R19*%
X124688600Y-119037100D03*
X124688600Y-117386100D03*
%TD*%
D36*
%TO.C,Q1*%
X136804400Y-117614700D03*
X138704400Y-117614700D03*
X137769600Y-115100100D03*
%TD*%
D10*
%TO.C,L1*%
X124942600Y-100749100D03*
X126593600Y-100749100D03*
%TD*%
D37*
%TO.C,DZ2*%
X125323600Y-106591100D03*
X123672600Y-106591100D03*
%TD*%
D13*
%TO.C,C12*%
X153390600Y-123101100D03*
X153390600Y-124752100D03*
%TD*%
D39*
%TO.C,C20*%
X127990600Y-91478100D03*
X124990600Y-91478100D03*
%TD*%
D12*
%TO.C,R20*%
X124688600Y-121831100D03*
X124688600Y-120180100D03*
%TD*%
D13*
%TO.C,R6*%
X144373600Y-118656100D03*
X144373600Y-120307100D03*
%TD*%
D24*
%TO.C,U2*%
X144627600Y-116527100D03*
X144627600Y-115877100D03*
X144627600Y-115227100D03*
X142627600Y-115227100D03*
X142627600Y-115877100D03*
X142627600Y-116527100D03*
%TD*%
D11*
%TO.C,C23*%
X129630500Y-104305100D03*
X127979500Y-104305100D03*
%TD*%
D20*
%TO.C,A4*%
X133705600Y-75349100D03*
%TD*%
D41*
%TO.C,C18*%
X167995600Y-90462100D03*
X167995600Y-93462100D03*
%TD*%
D13*
%TO.C,C9*%
X141198600Y-74587100D03*
X141198600Y-76238100D03*
%TD*%
D21*
%TO.C,DZ4*%
X142595600Y-74714100D03*
X142595600Y-76365100D03*
%TD*%
M02*
