M48
; DRILL file {KiCad 7.0.8} date Tue Jun 11 21:18:27 2024
; FORMAT={-:-/ absolute / inch / decimal}
; #@! TF.CreationDate,2024-06-11T21:18:27+02:00
; #@! TF.GenerationSoftware,Kicad,Pcbnew,7.0.8
; #@! TF.FileFunction,Plated,1,4,PTH
FMAT,2
INCH
; #@! TA.AperFunction,Plated,PTH,ComponentDrill
T1C0.0138
; #@! TA.AperFunction,Plated,PTH,ViaDrill
T2C0.0276
; #@! TA.AperFunction,Plated,PTH,ViaDrill
T3C0.0354
; #@! TA.AperFunction,Plated,PTH,ViaDrill
T4C0.0394
; #@! TA.AperFunction,Plated,PTH,ComponentDrill
T5C0.0551
; #@! TA.AperFunction,Plated,PTH,ComponentDrill
T6C0.1772
%
G90
G05
T1
X5.094Y-4.5965
X5.094Y-4.6765
X5.094Y-4.7565
X5.129Y-4.5965
X5.129Y-4.6765
X5.129Y-4.7565
X5.164Y-4.5965
X5.164Y-4.6765
X5.164Y-4.7565
T2
X4.934Y-3.8315
X5.054Y-4.2815
X5.109Y-3.3965
X5.129Y-3.5665
X5.129Y-4.5515
X5.129Y-4.6365
X5.129Y-4.7165
X5.129Y-4.8065
X5.314Y-5.0365
X5.3165Y-4.399
X5.324Y-4.5315
X5.389Y-3.6815
X5.434Y-4.8165
X5.444Y-3.8015
X5.474Y-3.7215
X5.484Y-4.8865
X5.539Y-4.8915
X5.564Y-4.5615
X5.584Y-4.7865
X5.589Y-4.8765
X5.609Y-4.4715
X5.609Y-4.6215
X5.634Y-5.1515
X5.639Y-5.3515
X5.654Y-4.7915
X5.664Y-4.4865
X5.704Y-3.0665
X5.709Y-5.3165
X5.744Y-3.0065
X5.744Y-4.7365
X5.809Y-4.2865
X5.914Y-5.2665
X5.919Y-4.9515
X5.919Y-5.0365
X5.919Y-5.1065
X5.964Y-4.2865
X5.974Y-4.8365
X6.039Y-3.0465
X6.039Y-4.4765
X6.094Y-4.4765
X6.094Y-5.2765
X6.099Y-4.8665
X6.099Y-4.9315
X6.099Y-5.1315
X6.099Y-5.2065
X6.124Y-4.6965
X6.139Y-4.7615
X6.139Y-4.8165
X6.159Y-4.4765
X6.179Y-2.8215
X6.244Y-4.4765
X6.349Y-4.4365
X6.599Y-3.2115
X6.619Y-2.9365
X6.719Y-4.4815
X6.724Y-3.6565
X6.729Y-3.4815
X6.804Y-5.4465
T3
X4.879Y-4.5715
X4.924Y-4.5715
X5.324Y-4.6515
T4
X4.9591Y-5.0014
X5.0141Y-5.2114
X5.3891Y-4.9164
X5.4941Y-5.3814
X6.7491Y-2.9364
X6.7491Y-3.0964
T5
X5.819Y-4.5915
X5.819Y-4.6915
X5.819Y-4.7915
X5.819Y-4.8915
X5.819Y-4.9915
X5.819Y-5.0915
X5.819Y-5.1915
X5.819Y-5.2915
X5.819Y-5.3915
X5.919Y-4.5915
X5.919Y-5.3915
X6.019Y-4.5915
X6.019Y-5.3915
X6.119Y-4.5915
X6.119Y-5.3915
X6.219Y-4.5915
X6.219Y-5.3915
X6.319Y-4.5915
X6.319Y-5.3915
X6.419Y-4.5915
X6.419Y-5.3915
X6.519Y-4.5915
X6.519Y-5.3915
X6.619Y-4.5915
X6.619Y-5.3915
X6.719Y-4.5915
X6.719Y-5.3915
T6
X5.264Y-2.9665
X5.264Y-5.2565
T0
M30
