%TF.GenerationSoftware,KiCad,Pcbnew,7.0.8*%
%TF.CreationDate,2024-06-11T21:18:20+02:00*%
%TF.ProjectId,Stima V4 GSM R1_1,5374696d-6120-4563-9420-47534d205231,rev?*%
%TF.SameCoordinates,Original*%
%TF.FileFunction,Copper,L3,Inr*%
%TF.FilePolarity,Positive*%
%FSLAX46Y46*%
G04 Gerber Fmt 4.6, Leading zero omitted, Abs format (unit mm)*
G04 Created by KiCad (PCBNEW 7.0.8) date 2024-06-11 21:18:20*
%MOMM*%
%LPD*%
G01*
G04 APERTURE LIST*
%ADD10C,0.150000*%
%TA.AperFunction,NonConductor*%
%ADD11C,0.150000*%
%TD*%
%TA.AperFunction,ComponentPad*%
%ADD12C,5.500000*%
%TD*%
%TA.AperFunction,ComponentPad*%
%ADD13C,1.900000*%
%TD*%
%TA.AperFunction,ComponentPad*%
%ADD14C,2.100000*%
%TD*%
%TA.AperFunction,ComponentPad*%
%ADD15C,0.500000*%
%TD*%
%TA.AperFunction,ComponentPad*%
%ADD16R,2.560000X6.500000*%
%TD*%
%TA.AperFunction,ViaPad*%
%ADD17C,1.600000*%
%TD*%
%TA.AperFunction,ViaPad*%
%ADD18C,1.800000*%
%TD*%
%TA.AperFunction,ViaPad*%
%ADD19C,1.100000*%
%TD*%
%TA.AperFunction,Conductor*%
%ADD20C,2.000000*%
%TD*%
%TA.AperFunction,Conductor*%
%ADD21C,1.000000*%
%TD*%
%TA.AperFunction,Conductor*%
%ADD22C,0.300000*%
%TD*%
%TA.AperFunction,Conductor*%
%ADD23C,0.250000*%
%TD*%
%TA.AperFunction,Conductor*%
%ADD24C,0.280000*%
%TD*%
G04 APERTURE END LIST*
D10*
D11*
X122018419Y-129241320D02*
X121018419Y-129241320D01*
X121018419Y-129241320D02*
X121732704Y-128907987D01*
X121732704Y-128907987D02*
X121018419Y-128574654D01*
X121018419Y-128574654D02*
X122018419Y-128574654D01*
X122018419Y-127622273D02*
X122018419Y-128098463D01*
X122018419Y-128098463D02*
X121018419Y-128098463D01*
X121113657Y-127336558D02*
X121066038Y-127288939D01*
X121066038Y-127288939D02*
X121018419Y-127193701D01*
X121018419Y-127193701D02*
X121018419Y-126955606D01*
X121018419Y-126955606D02*
X121066038Y-126860368D01*
X121066038Y-126860368D02*
X121113657Y-126812749D01*
X121113657Y-126812749D02*
X121208895Y-126765130D01*
X121208895Y-126765130D02*
X121304133Y-126765130D01*
X121304133Y-126765130D02*
X121446990Y-126812749D01*
X121446990Y-126812749D02*
X122018419Y-127384177D01*
X122018419Y-127384177D02*
X122018419Y-126765130D01*
D12*
%TO.N,unconnected-(A3-A-Pad1)*%
%TO.C,A3*%
X133705600Y-133515100D03*
%TD*%
D13*
%TO.N,+5V*%
%TO.C,U3*%
X170662600Y-136944100D03*
D14*
%TO.N,+3V3*%
X168122600Y-136944100D03*
%TO.N,unconnected-(U3-D7-Pad3)*%
X165582600Y-136944100D03*
%TO.N,unconnected-(U3-D8-Pad4)*%
X163042600Y-136944100D03*
%TO.N,unconnected-(U3-D9-Pad5)*%
X160502600Y-136944100D03*
%TO.N,unconnected-(U3-D10-Pad6)*%
X157962600Y-136944100D03*
%TO.N,unconnected-(U3-D11-Pad7)*%
X155422600Y-136944100D03*
%TO.N,unconnected-(U3-D12-Pad8)*%
X152882600Y-136944100D03*
D13*
%TO.N,unconnected-(U3-D13-Pad9)*%
X150342600Y-136944100D03*
%TO.N,unconnected-(U3-REF-Pad10)*%
X147802600Y-136944100D03*
%TO.N,unconnected-(U3-A0-Pad11)*%
X147802600Y-134404100D03*
%TO.N,unconnected-(U3-A1-Pad12)*%
X147802600Y-131864100D03*
%TO.N,unconnected-(U3-A2-Pad13)*%
X147802600Y-129324100D03*
D14*
%TO.N,unconnected-(U3-A3-Pad14)*%
X147802600Y-126784100D03*
%TO.N,unconnected-(U3-A4-Pad15)*%
X147802600Y-124244100D03*
%TO.N,unconnected-(U3-A5-Pad16)*%
X147802600Y-121704100D03*
%TO.N,unconnected-(U3-A6-Pad17)*%
X147802600Y-119164100D03*
D13*
%TO.N,unconnected-(U3-A7-Pad18)*%
X147802600Y-116624100D03*
%TO.N,/USART2_RX*%
X150342600Y-116624100D03*
%TO.N,/USART2_TX*%
X152882600Y-116624100D03*
%TO.N,unconnected-(U3-D2-Pad21)*%
X155422600Y-116624100D03*
%TO.N,unconnected-(U3-D3-Pad22)*%
X157962600Y-116624100D03*
%TO.N,/EN_PW_GSM*%
X160502600Y-116624100D03*
D14*
%TO.N,/PWRKEY*%
X163042600Y-116624100D03*
%TO.N,/RI*%
X165582600Y-116624100D03*
%TO.N,/RST*%
X168122600Y-116624100D03*
%TO.N,GND*%
X170662600Y-116624100D03*
%TD*%
D15*
%TO.N,*%
%TO.C,U5*%
X129387600Y-120815100D03*
X130276600Y-120815100D03*
X131165600Y-120815100D03*
X129387600Y-118783100D03*
X131165600Y-118783100D03*
X129387600Y-116751100D03*
X130276600Y-116751100D03*
X131165600Y-116751100D03*
D16*
%TO.N,GND*%
X130276600Y-118783100D03*
%TD*%
D12*
%TO.N,unconnected-(A4-A-Pad1)*%
%TO.C,A4*%
X133705600Y-75349100D03*
%TD*%
D17*
%TO.N,+3V8*%
X125069600Y-116116100D03*
D18*
X171426200Y-74585500D03*
D19*
X168122600Y-74587100D03*
X125323600Y-97320100D03*
X170916600Y-88430100D03*
D17*
X123926600Y-116116100D03*
D19*
X156946600Y-71666100D03*
D18*
%TO.N,+1V8*%
X136882200Y-124877500D03*
D19*
X141325600Y-115862100D03*
X143865600Y-113957100D03*
%TO.N,GND*%
X130276600Y-115608100D03*
D18*
X171426200Y-78649500D03*
D19*
X167614600Y-81572100D03*
X135039100Y-111734600D03*
X147548600Y-108877100D03*
X130276600Y-119799100D03*
X172821600Y-138341100D03*
X155930600Y-120942100D03*
X153390600Y-77381100D03*
X170789600Y-92875100D03*
X129768600Y-86271100D03*
X141833600Y-121577100D03*
X143103600Y-130848100D03*
X130276600Y-122085100D03*
X151485600Y-108877100D03*
D18*
X125960200Y-127036500D03*
D19*
X134975600Y-127927100D03*
X142468600Y-113576100D03*
X161264600Y-112687100D03*
X154914600Y-125260100D03*
X142468600Y-117386100D03*
X130276600Y-117767100D03*
X128371600Y-108750100D03*
X145897600Y-76365100D03*
X130276600Y-90589100D03*
X170662600Y-113830100D03*
%TO.N,+5V*%
X135229600Y-115100100D03*
D17*
X135229600Y-118148100D03*
D18*
X127357200Y-132370500D03*
%TO.N,+3V3*%
X139549200Y-136688500D03*
D19*
X145897600Y-120307100D03*
%TO.N,Net-(DZ5-TVS2)*%
X155549600Y-119291100D03*
X158597600Y-113703100D03*
X154914600Y-123609100D03*
%TO.N,Net-(DZ5-TVS1)*%
X154787600Y-134023100D03*
X155930600Y-122339100D03*
%TO.N,Net-(DZ5-TVS5)*%
X154914600Y-130340100D03*
X151739600Y-122847100D03*
%TO.N,/PWRKEY*%
X138023600Y-122339100D03*
%TO.N,Net-(U1-USIM_DATA)*%
X150342600Y-129705100D03*
X153390600Y-113703100D03*
%TO.N,Net-(U1-USIM_RTS)*%
X150342600Y-125768100D03*
X154787600Y-113703100D03*
%TO.N,/EN_PW_GSM*%
X143611600Y-121704100D03*
%TO.N,Net-(U1-USIM_CLK)*%
X150342600Y-127927100D03*
X156438600Y-113703100D03*
%TO.N,Net-(U1-USIM_DET)*%
X144881600Y-77889100D03*
X154914600Y-132245100D03*
%TO.N,Net-(U1-RXD)*%
X139293600Y-124117100D03*
X136880600Y-93510100D03*
%TO.N,Net-(U1-RI)*%
X141960600Y-123863100D03*
X139039600Y-94526100D03*
%TO.N,Net-(U1-TXD)*%
X138277600Y-96558100D03*
X140690600Y-124244100D03*
%TO.N,/USART2_RX*%
X143230600Y-135928100D03*
%TO.N,/USART2_TX*%
X150215600Y-133769100D03*
%TO.N,/RI*%
X145008600Y-135039100D03*
%TD*%
D20*
%TO.N,+3V8*%
X124307600Y-116116100D02*
X130340100Y-110083600D01*
X124688600Y-106464100D02*
X131800600Y-106464100D01*
X123926600Y-116116100D02*
X124688600Y-115354100D01*
X124688600Y-115354100D02*
X124688600Y-106464100D01*
X166344600Y-74587100D02*
X168122600Y-74587100D01*
X124688600Y-97955100D02*
X125323600Y-97320100D01*
X152501600Y-87922100D02*
X152501600Y-85763100D01*
X130340100Y-110083600D02*
X130340100Y-107924600D01*
X156946600Y-79921100D02*
X156946600Y-71666100D01*
X124688600Y-106464100D02*
X124688600Y-97955100D01*
X152501600Y-85763100D02*
X152501600Y-85509100D01*
X152501600Y-88430100D02*
X170916600Y-88430100D01*
X131800600Y-106464100D02*
X152501600Y-85763100D01*
X152501600Y-85763100D02*
X152501600Y-84366100D01*
X130340100Y-107924600D02*
X131800600Y-106464100D01*
X152501600Y-84366100D02*
X156946600Y-79921100D01*
X130340100Y-110083600D02*
X152501600Y-87922100D01*
X152501600Y-88430100D02*
X166344600Y-74587100D01*
X152501600Y-88430100D02*
X152501600Y-87922100D01*
X123926600Y-116116100D02*
X124307600Y-116116100D01*
D21*
%TO.N,+1V8*%
X143846470Y-113976230D02*
X143865600Y-113957100D01*
X143846470Y-114357230D02*
X143846470Y-113976230D01*
X136372600Y-124262860D02*
X136880600Y-124770860D01*
X142341600Y-115862100D02*
X143846470Y-114357230D01*
X136372600Y-124262860D02*
X136372600Y-120815100D01*
X136372600Y-120815100D02*
X141325600Y-115862100D01*
X141325600Y-115862100D02*
X142341600Y-115862100D01*
X136880600Y-124879100D02*
X136880600Y-124770860D01*
%TO.N,+3V3*%
X145897600Y-124625100D02*
X145897600Y-120307100D01*
X139420600Y-136563100D02*
X139420600Y-131102100D01*
X166979600Y-138976100D02*
X168122600Y-137833100D01*
X139547600Y-136690100D02*
X141833600Y-138976100D01*
X168122600Y-137833100D02*
X168122600Y-136944100D01*
X139420600Y-131102100D02*
X145897600Y-124625100D01*
X141833600Y-138976100D02*
X166979600Y-138976100D01*
X139420600Y-136563100D02*
X139547600Y-136690100D01*
D22*
%TO.N,/PWRKEY*%
X161068600Y-114650100D02*
X163042600Y-116624100D01*
X143103600Y-119545100D02*
X143738600Y-118910100D01*
X140817600Y-119545100D02*
X143103600Y-119545100D01*
X143738600Y-116751100D02*
X145839600Y-114650100D01*
X138023600Y-122339100D02*
X140817600Y-119545100D01*
X145839600Y-114650100D02*
X161068600Y-114650100D01*
X143738600Y-118910100D02*
X143738600Y-116751100D01*
%TO.N,/EN_PW_GSM*%
X146786600Y-115100100D02*
X158978600Y-115100100D01*
X144500600Y-117386100D02*
X146786600Y-115100100D01*
X143611600Y-121704100D02*
X144500600Y-120815100D01*
X144500600Y-120815100D02*
X144500600Y-117386100D01*
X158978600Y-115100100D02*
X160502600Y-116624100D01*
%TO.N,/USART2_RX*%
X143230600Y-135547100D02*
X143230600Y-135039100D01*
X143230600Y-135039100D02*
X145135600Y-133134100D01*
D23*
X145135600Y-133134100D02*
X148945600Y-133134100D01*
D22*
X148945600Y-133134100D02*
X152755600Y-129324100D01*
X152755600Y-129324100D02*
X152755600Y-119037100D01*
X150342600Y-116624100D02*
X152755600Y-119037100D01*
D24*
%TO.N,/USART2_TX*%
X152882600Y-116624100D02*
X153263600Y-117005100D01*
X153263600Y-131102100D02*
X153263600Y-117005100D01*
X150406100Y-133959600D02*
X153263600Y-131102100D01*
D22*
%TO.N,/RI*%
X159105600Y-118402100D02*
X163931600Y-118402100D01*
X157327600Y-120180100D02*
X159105600Y-118402100D01*
X145623600Y-135654100D02*
X150616600Y-135654100D01*
X150616600Y-135654100D02*
X153898600Y-132372100D01*
X153898600Y-128943100D02*
X157327600Y-125514100D01*
X145008600Y-135039100D02*
X145623600Y-135654100D01*
X153898600Y-132372100D02*
X153898600Y-128943100D01*
X163931600Y-118402100D02*
X165709600Y-116624100D01*
X157327600Y-125514100D02*
X157327600Y-120180100D01*
%TD*%
%TA.AperFunction,Conductor*%
%TO.N,GND*%
G36*
X130157081Y-118918009D02*
G01*
X130233466Y-118958100D01*
X130297847Y-118958100D01*
X130360360Y-118942692D01*
X130414842Y-118894424D01*
X130421436Y-118952944D01*
X130421438Y-118952952D01*
X130427998Y-118971699D01*
X130431559Y-119041478D01*
X130396830Y-119102105D01*
X130334836Y-119134332D01*
X130310956Y-119136653D01*
X130242244Y-119136653D01*
X130175205Y-119116968D01*
X130129450Y-119064164D01*
X130119506Y-118995006D01*
X130125202Y-118971699D01*
X130131713Y-118953090D01*
X130131762Y-118952950D01*
X130131763Y-118952944D01*
X130138699Y-118891379D01*
X130157081Y-118918009D01*
G37*
%TD.AperFunction*%
%TA.AperFunction,Conductor*%
G36*
X130377995Y-118449232D02*
G01*
X130423750Y-118502036D01*
X130433694Y-118571194D01*
X130427998Y-118594501D01*
X130421438Y-118613247D01*
X130421436Y-118613255D01*
X130414499Y-118674819D01*
X130396119Y-118648191D01*
X130319734Y-118608100D01*
X130255353Y-118608100D01*
X130192840Y-118623508D01*
X130138356Y-118671776D01*
X130131763Y-118613255D01*
X130131761Y-118613247D01*
X130125202Y-118594501D01*
X130121641Y-118524722D01*
X130156370Y-118464095D01*
X130218364Y-118431868D01*
X130242244Y-118429547D01*
X130310956Y-118429547D01*
X130377995Y-118449232D01*
G37*
%TD.AperFunction*%
%TA.AperFunction,Conductor*%
G36*
X173780639Y-70415785D02*
G01*
X173826394Y-70468589D01*
X173837600Y-70520100D01*
X173837600Y-139233100D01*
X173817915Y-139300139D01*
X173765111Y-139345894D01*
X173713600Y-139357100D01*
X168324195Y-139357100D01*
X168257156Y-139337415D01*
X168211401Y-139284611D01*
X168201457Y-139215453D01*
X168230482Y-139151897D01*
X168236514Y-139145419D01*
X168798544Y-138583388D01*
X168803013Y-138579338D01*
X168839168Y-138549668D01*
X168965195Y-138396104D01*
X169058841Y-138220904D01*
X169059306Y-138219370D01*
X169059771Y-138218659D01*
X169061171Y-138215280D01*
X169061808Y-138215544D01*
X169097434Y-138161075D01*
X169228033Y-138049533D01*
X169363316Y-137891137D01*
X169421820Y-137852947D01*
X169491687Y-137852448D01*
X169548832Y-137887689D01*
X169671395Y-138020827D01*
X169671405Y-138020836D01*
X169862133Y-138169286D01*
X169862139Y-138169290D01*
X169862142Y-138169292D01*
X170074719Y-138284333D01*
X170193429Y-138325086D01*
X170303328Y-138362815D01*
X170303330Y-138362815D01*
X170303332Y-138362816D01*
X170541745Y-138402600D01*
X170541746Y-138402600D01*
X170783454Y-138402600D01*
X170783455Y-138402600D01*
X171021868Y-138362816D01*
X171250481Y-138284333D01*
X171463058Y-138169292D01*
X171653801Y-138020831D01*
X171817506Y-137843000D01*
X171949709Y-137640649D01*
X172046803Y-137419297D01*
X172106139Y-137184984D01*
X172122153Y-136991721D01*
X172126099Y-136944105D01*
X172126099Y-136944094D01*
X172111971Y-136773600D01*
X172106139Y-136703216D01*
X172046803Y-136468903D01*
X171949709Y-136247551D01*
X171948010Y-136244951D01*
X171817507Y-136045202D01*
X171817506Y-136045200D01*
X171653801Y-135867369D01*
X171653796Y-135867365D01*
X171653794Y-135867363D01*
X171463066Y-135718913D01*
X171463060Y-135718909D01*
X171250482Y-135603867D01*
X171250473Y-135603864D01*
X171021871Y-135525384D01*
X170809565Y-135489957D01*
X170783455Y-135485600D01*
X170541745Y-135485600D01*
X170515635Y-135489957D01*
X170303328Y-135525384D01*
X170074726Y-135603864D01*
X170074717Y-135603867D01*
X169862139Y-135718909D01*
X169862133Y-135718913D01*
X169671405Y-135867363D01*
X169671401Y-135867367D01*
X169548832Y-136000511D01*
X169488945Y-136036501D01*
X169419107Y-136034400D01*
X169363314Y-135997060D01*
X169228033Y-135838667D01*
X169041496Y-135679348D01*
X169041493Y-135679346D01*
X168832330Y-135551171D01*
X168605687Y-135457293D01*
X168367153Y-135400027D01*
X168367154Y-135400027D01*
X168122600Y-135380781D01*
X167878045Y-135400027D01*
X167639512Y-135457293D01*
X167412869Y-135551171D01*
X167203706Y-135679346D01*
X167017167Y-135838667D01*
X166946890Y-135920950D01*
X166888383Y-135959143D01*
X166818515Y-135959641D01*
X166759469Y-135922287D01*
X166758310Y-135920950D01*
X166752927Y-135914647D01*
X166688033Y-135838667D01*
X166501496Y-135679348D01*
X166501493Y-135679346D01*
X166292330Y-135551171D01*
X166065687Y-135457293D01*
X165827153Y-135400027D01*
X165827154Y-135400027D01*
X165582600Y-135380781D01*
X165338045Y-135400027D01*
X165099512Y-135457293D01*
X164872869Y-135551171D01*
X164663706Y-135679346D01*
X164477167Y-135838667D01*
X164406890Y-135920950D01*
X164348383Y-135959143D01*
X164278515Y-135959641D01*
X164219469Y-135922287D01*
X164218310Y-135920950D01*
X164212927Y-135914647D01*
X164148033Y-135838667D01*
X163961496Y-135679348D01*
X163961493Y-135679346D01*
X163752330Y-135551171D01*
X163525687Y-135457293D01*
X163287153Y-135400027D01*
X163287154Y-135400027D01*
X163042600Y-135380781D01*
X162798045Y-135400027D01*
X162559512Y-135457293D01*
X162332869Y-135551171D01*
X162123706Y-135679346D01*
X161937167Y-135838667D01*
X161866890Y-135920950D01*
X161808383Y-135959143D01*
X161738515Y-135959641D01*
X161679469Y-135922287D01*
X161678310Y-135920950D01*
X161672927Y-135914647D01*
X161608033Y-135838667D01*
X161421496Y-135679348D01*
X161421493Y-135679346D01*
X161212330Y-135551171D01*
X160985687Y-135457293D01*
X160747153Y-135400027D01*
X160747154Y-135400027D01*
X160502600Y-135380781D01*
X160258045Y-135400027D01*
X160019512Y-135457293D01*
X159792869Y-135551171D01*
X159583706Y-135679346D01*
X159397167Y-135838667D01*
X159326890Y-135920950D01*
X159268383Y-135959143D01*
X159198515Y-135959641D01*
X159139469Y-135922287D01*
X159138310Y-135920950D01*
X159132927Y-135914647D01*
X159068033Y-135838667D01*
X158881496Y-135679348D01*
X158881493Y-135679346D01*
X158672330Y-135551171D01*
X158445687Y-135457293D01*
X158207153Y-135400027D01*
X158207154Y-135400027D01*
X157962600Y-135380781D01*
X157718045Y-135400027D01*
X157479512Y-135457293D01*
X157252869Y-135551171D01*
X157043706Y-135679346D01*
X156857167Y-135838667D01*
X156786890Y-135920950D01*
X156728383Y-135959143D01*
X156658515Y-135959641D01*
X156599469Y-135922287D01*
X156598310Y-135920950D01*
X156592927Y-135914647D01*
X156528033Y-135838667D01*
X156341496Y-135679348D01*
X156341493Y-135679346D01*
X156132330Y-135551171D01*
X155905687Y-135457293D01*
X155667153Y-135400027D01*
X155667154Y-135400027D01*
X155422600Y-135380781D01*
X155178045Y-135400027D01*
X154939512Y-135457293D01*
X154712869Y-135551171D01*
X154503706Y-135679346D01*
X154317167Y-135838667D01*
X154246890Y-135920950D01*
X154188383Y-135959143D01*
X154118515Y-135959641D01*
X154059469Y-135922287D01*
X154058310Y-135920950D01*
X154052927Y-135914647D01*
X153988033Y-135838667D01*
X153801496Y-135679348D01*
X153801493Y-135679346D01*
X153592330Y-135551171D01*
X153365687Y-135457293D01*
X153127153Y-135400027D01*
X153127154Y-135400027D01*
X152882600Y-135380781D01*
X152638045Y-135400027D01*
X152399512Y-135457293D01*
X152172869Y-135551171D01*
X151963706Y-135679346D01*
X151777167Y-135838667D01*
X151641886Y-135997059D01*
X151583379Y-136035252D01*
X151513511Y-136035750D01*
X151456367Y-136000511D01*
X151438322Y-135980909D01*
X151414759Y-135955313D01*
X151383837Y-135892661D01*
X151391697Y-135823235D01*
X151418305Y-135783653D01*
X153550283Y-133651675D01*
X153611604Y-133618192D01*
X153681296Y-133623176D01*
X153737229Y-133665048D01*
X153761646Y-133730512D01*
X153756623Y-133775352D01*
X153744414Y-133815597D01*
X153723978Y-134023100D01*
X153744414Y-134230600D01*
X153761525Y-134287006D01*
X153804941Y-134430131D01*
X153900372Y-134608669D01*
X153903233Y-134614020D01*
X154035505Y-134775194D01*
X154194185Y-134905419D01*
X154196683Y-134907469D01*
X154380569Y-135005759D01*
X154580098Y-135066285D01*
X154787600Y-135086722D01*
X154995102Y-135066285D01*
X155194631Y-135005759D01*
X155378517Y-134907469D01*
X155539694Y-134775194D01*
X155671969Y-134614017D01*
X155770259Y-134430131D01*
X155830785Y-134230602D01*
X155851222Y-134023100D01*
X155830785Y-133815598D01*
X155770259Y-133616069D01*
X155671969Y-133432183D01*
X155654022Y-133410314D01*
X155535830Y-133266297D01*
X155537850Y-133264638D01*
X155509806Y-133213279D01*
X155514790Y-133143587D01*
X155552305Y-133091070D01*
X155666694Y-132997194D01*
X155798969Y-132836017D01*
X155897259Y-132652131D01*
X155957785Y-132452602D01*
X155978222Y-132245100D01*
X155957785Y-132037598D01*
X155897259Y-131838069D01*
X155798969Y-131654183D01*
X155798966Y-131654179D01*
X155666694Y-131493005D01*
X155560161Y-131405577D01*
X155539295Y-131388452D01*
X155499962Y-131330708D01*
X155498091Y-131260863D01*
X155534278Y-131201095D01*
X155539296Y-131196747D01*
X155550798Y-131187308D01*
X155666694Y-131092194D01*
X155798969Y-130931017D01*
X155897259Y-130747131D01*
X155957785Y-130547602D01*
X155978222Y-130340100D01*
X155957785Y-130132598D01*
X155897259Y-129933069D01*
X155798969Y-129749183D01*
X155762791Y-129705100D01*
X155666694Y-129588005D01*
X155505520Y-129455733D01*
X155505518Y-129455732D01*
X155505517Y-129455731D01*
X155321631Y-129357441D01*
X155211700Y-129324094D01*
X155122100Y-129296914D01*
X154914600Y-129276478D01*
X154914599Y-129276478D01*
X154795687Y-129288189D01*
X154727041Y-129275170D01*
X154676331Y-129227104D01*
X154659657Y-129159254D01*
X154682314Y-129093159D01*
X154695847Y-129077111D01*
X157732140Y-126040817D01*
X157744809Y-126030669D01*
X157744663Y-126030493D01*
X157750669Y-126025522D01*
X157750680Y-126025516D01*
X157800560Y-125972398D01*
X157822526Y-125950433D01*
X157827088Y-125944551D01*
X157830880Y-125940110D01*
X157864572Y-125904233D01*
X157874975Y-125885308D01*
X157885661Y-125869040D01*
X157898904Y-125851969D01*
X157918450Y-125806799D01*
X157921010Y-125801570D01*
X157944724Y-125758437D01*
X157950096Y-125737509D01*
X157956396Y-125719109D01*
X157964979Y-125699277D01*
X157972677Y-125650671D01*
X157973857Y-125644965D01*
X157986100Y-125597288D01*
X157986100Y-125575681D01*
X157987627Y-125556280D01*
X157988595Y-125550169D01*
X157991006Y-125534949D01*
X157986375Y-125485958D01*
X157986100Y-125480120D01*
X157986100Y-120504222D01*
X158005785Y-120437183D01*
X158022419Y-120416541D01*
X159342041Y-119096919D01*
X159403364Y-119063434D01*
X159429722Y-119060600D01*
X163845209Y-119060600D01*
X163861346Y-119062381D01*
X163861368Y-119062154D01*
X163869134Y-119062888D01*
X163869136Y-119062887D01*
X163869137Y-119062888D01*
X163941942Y-119060600D01*
X163973032Y-119060600D01*
X163980423Y-119059666D01*
X163986251Y-119059207D01*
X164035431Y-119057662D01*
X164056183Y-119051632D01*
X164075221Y-119047690D01*
X164096664Y-119044982D01*
X164142434Y-119026860D01*
X164147948Y-119024973D01*
X164174475Y-119017265D01*
X164195200Y-119011245D01*
X164213796Y-119000246D01*
X164231264Y-118991689D01*
X164251356Y-118983735D01*
X164291182Y-118954798D01*
X164296041Y-118951606D01*
X164338407Y-118926553D01*
X164353690Y-118911268D01*
X164368473Y-118898642D01*
X164385957Y-118885941D01*
X164417331Y-118848014D01*
X164421245Y-118843713D01*
X165094392Y-118170566D01*
X165155713Y-118137083D01*
X165211013Y-118137674D01*
X165338043Y-118168172D01*
X165582600Y-118187419D01*
X165827157Y-118168172D01*
X166065692Y-118110905D01*
X166292332Y-118017027D01*
X166501496Y-117888852D01*
X166688033Y-117729533D01*
X166758311Y-117647247D01*
X166816817Y-117609056D01*
X166886685Y-117608558D01*
X166945731Y-117645911D01*
X166946834Y-117647185D01*
X167017167Y-117729533D01*
X167203704Y-117888852D01*
X167254563Y-117920018D01*
X167412869Y-118017028D01*
X167476750Y-118043488D01*
X167639508Y-118110905D01*
X167878043Y-118168172D01*
X168122600Y-118187419D01*
X168367157Y-118168172D01*
X168605692Y-118110905D01*
X168832332Y-118017027D01*
X169041496Y-117888852D01*
X169228033Y-117729533D01*
X169387352Y-117542996D01*
X169467927Y-117411507D01*
X169519735Y-117364635D01*
X169579457Y-117353688D01*
X170022459Y-116910686D01*
X170082280Y-117024666D01*
X170195005Y-117151906D01*
X170334905Y-117248471D01*
X170376141Y-117264110D01*
X169934254Y-117705997D01*
X170008105Y-117757709D01*
X170008113Y-117757713D01*
X170214895Y-117854137D01*
X170214909Y-117854142D01*
X170435292Y-117913193D01*
X170435303Y-117913195D01*
X170662598Y-117933081D01*
X170662602Y-117933081D01*
X170889896Y-117913195D01*
X170889907Y-117913193D01*
X171110290Y-117854142D01*
X171110304Y-117854137D01*
X171317086Y-117757713D01*
X171390943Y-117705996D01*
X170949057Y-117264110D01*
X170990295Y-117248471D01*
X171130195Y-117151906D01*
X171242920Y-117024666D01*
X171302740Y-116910687D01*
X171744496Y-117352443D01*
X171796213Y-117278586D01*
X171892637Y-117071804D01*
X171892642Y-117071790D01*
X171951693Y-116851407D01*
X171951695Y-116851396D01*
X171971581Y-116624102D01*
X171971581Y-116624097D01*
X171951695Y-116396803D01*
X171951693Y-116396792D01*
X171892642Y-116176409D01*
X171892638Y-116176400D01*
X171796212Y-115969612D01*
X171744496Y-115895754D01*
X171302739Y-116337511D01*
X171242920Y-116223534D01*
X171130195Y-116096294D01*
X170990295Y-115999729D01*
X170949057Y-115984089D01*
X171390944Y-115542202D01*
X171317090Y-115490488D01*
X171110299Y-115394061D01*
X171110290Y-115394057D01*
X170889907Y-115335006D01*
X170889896Y-115335004D01*
X170662602Y-115315119D01*
X170662598Y-115315119D01*
X170435303Y-115335004D01*
X170435292Y-115335006D01*
X170214909Y-115394057D01*
X170214900Y-115394061D01*
X170008106Y-115490491D01*
X169934255Y-115542201D01*
X169934254Y-115542202D01*
X170376142Y-115984089D01*
X170334905Y-115999729D01*
X170195005Y-116096294D01*
X170082280Y-116223534D01*
X170022460Y-116337512D01*
X169579345Y-115894397D01*
X169515956Y-115881657D01*
X169467924Y-115836687D01*
X169387352Y-115705204D01*
X169228033Y-115518667D01*
X169041496Y-115359348D01*
X169041493Y-115359346D01*
X168832330Y-115231171D01*
X168605687Y-115137293D01*
X168367153Y-115080027D01*
X168367154Y-115080027D01*
X168122600Y-115060781D01*
X167878045Y-115080027D01*
X167639512Y-115137293D01*
X167412869Y-115231171D01*
X167203706Y-115359346D01*
X167017167Y-115518667D01*
X166946890Y-115600950D01*
X166888383Y-115639143D01*
X166818515Y-115639641D01*
X166759469Y-115602287D01*
X166758310Y-115600950D01*
X166752927Y-115594647D01*
X166688033Y-115518667D01*
X166501496Y-115359348D01*
X166501493Y-115359346D01*
X166292330Y-115231171D01*
X166065687Y-115137293D01*
X165827153Y-115080027D01*
X165827154Y-115080027D01*
X165582600Y-115060781D01*
X165338045Y-115080027D01*
X165099512Y-115137293D01*
X164872869Y-115231171D01*
X164663706Y-115359346D01*
X164477167Y-115518667D01*
X164406890Y-115600950D01*
X164348383Y-115639143D01*
X164278515Y-115639641D01*
X164219469Y-115602287D01*
X164218310Y-115600950D01*
X164212927Y-115594647D01*
X164148033Y-115518667D01*
X163961496Y-115359348D01*
X163961493Y-115359346D01*
X163752330Y-115231171D01*
X163525687Y-115137293D01*
X163287153Y-115080027D01*
X163287154Y-115080027D01*
X163042600Y-115060781D01*
X162798045Y-115080027D01*
X162568605Y-115135110D01*
X162498822Y-115131619D01*
X162451977Y-115102217D01*
X161595317Y-114245557D01*
X161585164Y-114232885D01*
X161584988Y-114233031D01*
X161580019Y-114227026D01*
X161580016Y-114227020D01*
X161554354Y-114202922D01*
X161526915Y-114177154D01*
X161504933Y-114155172D01*
X161499039Y-114150601D01*
X161494602Y-114146811D01*
X161458733Y-114113128D01*
X161458731Y-114113126D01*
X161439800Y-114102719D01*
X161423548Y-114092044D01*
X161406468Y-114078796D01*
X161406464Y-114078794D01*
X161361302Y-114059250D01*
X161356055Y-114056680D01*
X161312937Y-114032975D01*
X161312938Y-114032975D01*
X161292011Y-114027602D01*
X161273606Y-114021301D01*
X161253774Y-114012719D01*
X161205169Y-114005021D01*
X161199447Y-114003836D01*
X161163227Y-113994537D01*
X161151788Y-113991600D01*
X161151787Y-113991600D01*
X161130181Y-113991600D01*
X161110783Y-113990073D01*
X161102203Y-113988714D01*
X161089449Y-113986694D01*
X161089448Y-113986694D01*
X161040455Y-113991325D01*
X161034619Y-113991600D01*
X159769620Y-113991600D01*
X159702581Y-113971915D01*
X159656826Y-113919111D01*
X159646217Y-113855446D01*
X159661222Y-113703100D01*
X159640785Y-113495598D01*
X159580259Y-113296069D01*
X159481969Y-113112183D01*
X159481966Y-113112179D01*
X159349694Y-112951005D01*
X159188520Y-112818733D01*
X159188518Y-112818732D01*
X159188517Y-112818731D01*
X159004631Y-112720441D01*
X158904866Y-112690178D01*
X158805100Y-112659914D01*
X158597600Y-112639478D01*
X158390099Y-112659914D01*
X158190566Y-112720442D01*
X158006679Y-112818733D01*
X157845505Y-112951005D01*
X157713233Y-113112179D01*
X157627458Y-113272651D01*
X157578495Y-113322495D01*
X157510357Y-113337955D01*
X157444678Y-113314123D01*
X157408742Y-113272651D01*
X157372584Y-113205005D01*
X157322969Y-113112183D01*
X157322966Y-113112179D01*
X157190694Y-112951005D01*
X157029520Y-112818733D01*
X157029518Y-112818732D01*
X157029517Y-112818731D01*
X156845631Y-112720441D01*
X156745866Y-112690178D01*
X156646100Y-112659914D01*
X156438600Y-112639478D01*
X156231099Y-112659914D01*
X156031566Y-112720442D01*
X155847679Y-112818733D01*
X155691765Y-112946689D01*
X155627455Y-112974002D01*
X155558587Y-112962211D01*
X155534435Y-112946689D01*
X155378520Y-112818733D01*
X155378518Y-112818732D01*
X155378517Y-112818731D01*
X155194631Y-112720441D01*
X155094866Y-112690178D01*
X154995100Y-112659914D01*
X154787600Y-112639478D01*
X154580099Y-112659914D01*
X154380566Y-112720442D01*
X154196679Y-112818733D01*
X154167765Y-112842463D01*
X154103455Y-112869776D01*
X154034587Y-112857985D01*
X154010435Y-112842463D01*
X153981520Y-112818733D01*
X153981518Y-112818732D01*
X153981517Y-112818731D01*
X153797631Y-112720441D01*
X153697866Y-112690178D01*
X153598100Y-112659914D01*
X153390600Y-112639478D01*
X153183099Y-112659914D01*
X152983566Y-112720442D01*
X152799679Y-112818733D01*
X152638505Y-112951005D01*
X152506233Y-113112179D01*
X152407942Y-113296066D01*
X152347414Y-113495599D01*
X152326978Y-113703099D01*
X152341983Y-113855446D01*
X152328964Y-113924092D01*
X152280899Y-113974802D01*
X152218580Y-113991600D01*
X145925991Y-113991600D01*
X145909848Y-113989817D01*
X145909827Y-113990045D01*
X145902065Y-113989311D01*
X145902063Y-113989311D01*
X145829240Y-113991600D01*
X145798168Y-113991600D01*
X145798164Y-113991600D01*
X145798154Y-113991601D01*
X145790767Y-113992534D01*
X145784950Y-113992991D01*
X145735774Y-113994537D01*
X145735763Y-113994539D01*
X145715022Y-114000564D01*
X145695982Y-114004507D01*
X145674546Y-114007216D01*
X145674531Y-114007219D01*
X145628778Y-114025333D01*
X145623254Y-114027224D01*
X145575999Y-114040955D01*
X145557408Y-114051950D01*
X145539939Y-114060508D01*
X145519846Y-114068464D01*
X145519845Y-114068464D01*
X145519844Y-114068465D01*
X145505625Y-114078796D01*
X145480033Y-114097389D01*
X145475150Y-114100596D01*
X145432792Y-114125646D01*
X145417513Y-114140926D01*
X145402727Y-114153555D01*
X145385243Y-114166259D01*
X145385241Y-114166261D01*
X145385240Y-114166262D01*
X145353871Y-114204178D01*
X145349939Y-114208499D01*
X145067608Y-114490830D01*
X145006285Y-114524315D01*
X144936593Y-114519331D01*
X144880660Y-114477459D01*
X144856243Y-114411995D01*
X144856523Y-114391001D01*
X144859850Y-114357230D01*
X144859850Y-114357227D01*
X144859850Y-114351138D01*
X144860631Y-114351138D01*
X144864682Y-114309990D01*
X144908785Y-114164602D01*
X144929222Y-113957100D01*
X144908785Y-113749598D01*
X144848259Y-113550069D01*
X144749969Y-113366183D01*
X144714115Y-113322495D01*
X144617694Y-113205005D01*
X144456520Y-113072733D01*
X144456518Y-113072732D01*
X144456517Y-113072731D01*
X144272631Y-112974441D01*
X144172866Y-112944178D01*
X144073100Y-112913914D01*
X143865600Y-112893478D01*
X143658099Y-112913914D01*
X143458566Y-112974442D01*
X143274679Y-113072733D01*
X143113505Y-113205005D01*
X142981233Y-113366179D01*
X142882942Y-113550066D01*
X142822414Y-113749598D01*
X142804317Y-113933342D01*
X142778156Y-113998129D01*
X142768595Y-114008868D01*
X141960185Y-114817281D01*
X141898862Y-114850766D01*
X141872504Y-114853600D01*
X141665838Y-114853600D01*
X141629844Y-114848261D01*
X141601379Y-114839626D01*
X141533100Y-114818914D01*
X141325600Y-114798478D01*
X141118099Y-114818914D01*
X140918566Y-114879442D01*
X140734679Y-114977733D01*
X140573505Y-115110005D01*
X140441231Y-115271181D01*
X140393573Y-115360341D01*
X140371897Y-115389567D01*
X135696677Y-120064787D01*
X135692167Y-120068875D01*
X135656032Y-120098531D01*
X135530006Y-120252094D01*
X135530005Y-120252096D01*
X135465595Y-120372600D01*
X135458041Y-120386730D01*
X135436358Y-120427295D01*
X135378691Y-120617396D01*
X135359220Y-120815100D01*
X135363801Y-120861617D01*
X135364100Y-120867697D01*
X135364100Y-124210261D01*
X135363801Y-124216341D01*
X135359220Y-124262859D01*
X135359220Y-124262860D01*
X135361877Y-124289836D01*
X135378691Y-124460562D01*
X135412848Y-124573159D01*
X135436360Y-124650668D01*
X135463543Y-124701523D01*
X135477785Y-124769926D01*
X135477762Y-124770214D01*
X135468873Y-124877504D01*
X135468873Y-124877505D01*
X135488148Y-125110122D01*
X135545451Y-125336407D01*
X135639215Y-125550168D01*
X135766886Y-125745584D01*
X135912934Y-125904233D01*
X135924980Y-125917318D01*
X136109183Y-126060690D01*
X136109185Y-126060691D01*
X136109188Y-126060693D01*
X136228531Y-126125277D01*
X136314473Y-126171787D01*
X136429114Y-126211143D01*
X136535245Y-126247579D01*
X136535247Y-126247579D01*
X136535249Y-126247580D01*
X136765488Y-126286000D01*
X136765489Y-126286000D01*
X136998911Y-126286000D01*
X136998912Y-126286000D01*
X137229151Y-126247580D01*
X137449927Y-126171787D01*
X137655217Y-126060690D01*
X137839420Y-125917318D01*
X137997514Y-125745583D01*
X138125184Y-125550169D01*
X138218949Y-125336407D01*
X138276251Y-125110126D01*
X138293437Y-124902718D01*
X138318590Y-124837537D01*
X138374992Y-124796299D01*
X138444735Y-124792101D01*
X138505677Y-124826275D01*
X138512866Y-124834297D01*
X138541505Y-124869194D01*
X138702679Y-125001466D01*
X138702683Y-125001469D01*
X138886569Y-125099759D01*
X139086098Y-125160285D01*
X139293600Y-125180722D01*
X139501102Y-125160285D01*
X139700631Y-125099759D01*
X139848034Y-125020969D01*
X139916435Y-125006728D01*
X139981679Y-125031727D01*
X139985151Y-125034475D01*
X140099679Y-125128466D01*
X140099683Y-125128469D01*
X140283569Y-125226759D01*
X140483098Y-125287285D01*
X140690600Y-125307722D01*
X140898102Y-125287285D01*
X141097631Y-125226759D01*
X141281517Y-125128469D01*
X141442694Y-124996194D01*
X141511082Y-124912862D01*
X141568827Y-124873528D01*
X141638672Y-124871657D01*
X141642927Y-124872865D01*
X141753098Y-124906285D01*
X141960600Y-124926722D01*
X142168102Y-124906285D01*
X142367631Y-124845759D01*
X142551517Y-124747469D01*
X142712694Y-124615194D01*
X142844969Y-124454017D01*
X142943259Y-124270131D01*
X143003785Y-124070602D01*
X143024222Y-123863100D01*
X143003785Y-123655598D01*
X142943259Y-123456069D01*
X142844969Y-123272183D01*
X142836154Y-123261442D01*
X142712694Y-123111005D01*
X142551520Y-122978733D01*
X142551518Y-122978732D01*
X142551517Y-122978731D01*
X142367631Y-122880441D01*
X142257720Y-122847100D01*
X142168100Y-122819914D01*
X141960600Y-122799478D01*
X141753099Y-122819914D01*
X141553566Y-122880442D01*
X141369679Y-122978733D01*
X141208507Y-123111003D01*
X141140116Y-123194338D01*
X141082369Y-123233672D01*
X141012525Y-123235541D01*
X141008269Y-123234333D01*
X140898100Y-123200914D01*
X140898101Y-123200914D01*
X140690600Y-123180478D01*
X140483099Y-123200914D01*
X140283564Y-123261442D01*
X140136166Y-123340229D01*
X140067763Y-123354471D01*
X140002520Y-123329471D01*
X139999048Y-123326724D01*
X139884520Y-123232733D01*
X139884518Y-123232732D01*
X139884517Y-123232731D01*
X139700631Y-123134441D01*
X139558064Y-123091194D01*
X139501100Y-123073914D01*
X139293600Y-123053478D01*
X139086097Y-123073915D01*
X139068165Y-123079354D01*
X138998298Y-123079975D01*
X138939187Y-123042725D01*
X138909598Y-122979429D01*
X138918926Y-122910185D01*
X138922801Y-122902267D01*
X139006259Y-122746131D01*
X139066785Y-122546602D01*
X139087222Y-122339100D01*
X139081102Y-122276967D01*
X139094120Y-122208324D01*
X139116821Y-122177137D01*
X141054041Y-120239919D01*
X141115364Y-120206434D01*
X141141722Y-120203600D01*
X143017209Y-120203600D01*
X143033346Y-120205381D01*
X143033368Y-120205154D01*
X143041134Y-120205888D01*
X143041136Y-120205887D01*
X143041137Y-120205888D01*
X143113942Y-120203600D01*
X143145032Y-120203600D01*
X143152423Y-120202666D01*
X143158251Y-120202207D01*
X143207431Y-120200662D01*
X143228183Y-120194632D01*
X143247221Y-120190690D01*
X143268664Y-120187982D01*
X143314434Y-120169860D01*
X143319948Y-120167973D01*
X143346475Y-120160265D01*
X143367200Y-120154245D01*
X143385796Y-120143246D01*
X143403264Y-120134689D01*
X143423356Y-120126735D01*
X143463182Y-120097798D01*
X143468041Y-120094606D01*
X143510407Y-120069553D01*
X143525690Y-120054268D01*
X143540473Y-120041642D01*
X143557957Y-120028941D01*
X143589331Y-119991014D01*
X143593246Y-119986712D01*
X143630420Y-119949538D01*
X143691744Y-119916054D01*
X143761435Y-119921040D01*
X143817368Y-119962912D01*
X143841784Y-120028377D01*
X143842100Y-120037221D01*
X143842100Y-120490976D01*
X143822415Y-120558015D01*
X143805780Y-120578659D01*
X143773562Y-120610876D01*
X143712238Y-120644360D01*
X143673730Y-120646596D01*
X143611602Y-120640478D01*
X143611600Y-120640478D01*
X143404099Y-120660914D01*
X143204566Y-120721442D01*
X143020679Y-120819733D01*
X142859505Y-120952005D01*
X142727233Y-121113179D01*
X142628942Y-121297066D01*
X142568414Y-121496599D01*
X142547978Y-121704100D01*
X142568414Y-121911600D01*
X142579655Y-121948657D01*
X142628941Y-122111131D01*
X142706471Y-122256179D01*
X142727233Y-122295020D01*
X142859505Y-122456194D01*
X142993201Y-122565915D01*
X143020683Y-122588469D01*
X143204569Y-122686759D01*
X143404098Y-122747285D01*
X143611600Y-122767722D01*
X143819102Y-122747285D01*
X144018631Y-122686759D01*
X144202517Y-122588469D01*
X144363694Y-122456194D01*
X144495969Y-122295017D01*
X144594259Y-122111131D01*
X144646439Y-121939112D01*
X144684737Y-121880675D01*
X144748549Y-121852219D01*
X144817616Y-121862779D01*
X144870010Y-121909003D01*
X144889100Y-121975109D01*
X144889100Y-124156003D01*
X144869415Y-124223042D01*
X144852781Y-124243684D01*
X138744677Y-130351787D01*
X138740167Y-130355875D01*
X138704032Y-130385531D01*
X138578006Y-130539094D01*
X138528375Y-130631948D01*
X138510958Y-130664533D01*
X138461995Y-130714377D01*
X138393857Y-130729837D01*
X138328177Y-130706005D01*
X138285809Y-130650446D01*
X138277600Y-130606079D01*
X138277600Y-128689100D01*
X138150600Y-128562100D01*
X129514600Y-128562100D01*
X129514600Y-139233100D01*
X129494915Y-139300139D01*
X129442111Y-139345894D01*
X129390600Y-139357100D01*
X123161600Y-139357100D01*
X123094561Y-139337415D01*
X123048806Y-139284611D01*
X123037600Y-139233100D01*
X123037600Y-132370505D01*
X125943873Y-132370505D01*
X125963148Y-132603122D01*
X126020451Y-132829407D01*
X126114215Y-133043168D01*
X126241886Y-133238584D01*
X126399976Y-133410314D01*
X126399980Y-133410318D01*
X126584183Y-133553690D01*
X126584185Y-133553691D01*
X126584188Y-133553693D01*
X126699444Y-133616066D01*
X126789473Y-133664787D01*
X126904114Y-133704143D01*
X127010245Y-133740579D01*
X127010247Y-133740579D01*
X127010249Y-133740580D01*
X127240488Y-133779000D01*
X127240489Y-133779000D01*
X127473911Y-133779000D01*
X127473912Y-133779000D01*
X127704151Y-133740580D01*
X127924927Y-133664787D01*
X128130217Y-133553690D01*
X128314420Y-133410318D01*
X128472514Y-133238583D01*
X128600184Y-133043169D01*
X128693949Y-132829407D01*
X128751251Y-132603126D01*
X128763724Y-132452600D01*
X128770527Y-132370505D01*
X128770527Y-132370494D01*
X128757676Y-132215416D01*
X128751251Y-132137874D01*
X128693949Y-131911593D01*
X128600184Y-131697831D01*
X128472514Y-131502417D01*
X128472513Y-131502415D01*
X128314423Y-131330685D01*
X128314422Y-131330684D01*
X128314420Y-131330682D01*
X128130217Y-131187310D01*
X128130215Y-131187309D01*
X128130214Y-131187308D01*
X128130211Y-131187306D01*
X127924933Y-131076216D01*
X127924930Y-131076215D01*
X127924927Y-131076213D01*
X127924921Y-131076211D01*
X127924919Y-131076210D01*
X127704154Y-131000420D01*
X127531471Y-130971605D01*
X127473912Y-130962000D01*
X127240488Y-130962000D01*
X127194440Y-130969684D01*
X127010245Y-131000420D01*
X126789480Y-131076210D01*
X126789466Y-131076216D01*
X126584188Y-131187306D01*
X126584185Y-131187308D01*
X126399981Y-131330681D01*
X126399976Y-131330685D01*
X126241886Y-131502415D01*
X126114215Y-131697831D01*
X126020451Y-131911592D01*
X125963148Y-132137877D01*
X125943873Y-132370494D01*
X125943873Y-132370505D01*
X123037600Y-132370505D01*
X123037600Y-120815103D01*
X128624301Y-120815103D01*
X128643436Y-120984944D01*
X128643437Y-120984949D01*
X128699891Y-121146285D01*
X128723593Y-121184005D01*
X128742600Y-121249978D01*
X128742600Y-122058114D01*
X128757337Y-122132206D01*
X128757338Y-122132209D01*
X128813476Y-122216223D01*
X128897495Y-122272363D01*
X128897496Y-122272364D01*
X128971580Y-122287099D01*
X131581614Y-122287099D01*
X131655706Y-122272362D01*
X131655709Y-122272361D01*
X131739723Y-122216223D01*
X131795863Y-122132204D01*
X131795864Y-122132203D01*
X131810599Y-122058121D01*
X131810599Y-121249978D01*
X131829605Y-121184007D01*
X131853309Y-121146283D01*
X131892837Y-121033317D01*
X131909760Y-120984957D01*
X131909763Y-120984944D01*
X131928899Y-120815103D01*
X131928899Y-120815096D01*
X131909763Y-120645255D01*
X131909762Y-120645250D01*
X131893462Y-120598667D01*
X131853309Y-120483917D01*
X131762371Y-120339191D01*
X131641509Y-120218329D01*
X131641508Y-120218328D01*
X131496782Y-120127390D01*
X131335447Y-120070937D01*
X131335442Y-120070936D01*
X131238183Y-120059978D01*
X131173769Y-120032911D01*
X131164386Y-120024439D01*
X130874393Y-119734446D01*
X130840908Y-119673123D01*
X130845892Y-119603431D01*
X130887764Y-119547498D01*
X130953228Y-119523081D01*
X130989665Y-119525874D01*
X130995749Y-119527262D01*
X131165596Y-119546399D01*
X131165600Y-119546399D01*
X131165603Y-119546399D01*
X131233366Y-119538763D01*
X131311040Y-119530012D01*
X131379861Y-119542066D01*
X131412604Y-119565551D01*
X131810598Y-119963546D01*
X131810599Y-119963545D01*
X131810599Y-119217978D01*
X131829605Y-119152007D01*
X131853309Y-119114283D01*
X131893211Y-119000251D01*
X131909760Y-118952957D01*
X131909763Y-118952944D01*
X131928899Y-118783103D01*
X131928899Y-118783096D01*
X131909763Y-118613255D01*
X131909762Y-118613250D01*
X131883782Y-118539005D01*
X131853309Y-118451917D01*
X131851622Y-118449232D01*
X131829605Y-118414192D01*
X131810599Y-118348220D01*
X131810599Y-118148101D01*
X133916102Y-118148101D01*
X133936056Y-118376181D01*
X133936057Y-118376189D01*
X133995314Y-118597338D01*
X133995318Y-118597349D01*
X134052132Y-118719187D01*
X134092077Y-118804849D01*
X134223402Y-118992400D01*
X134385300Y-119154298D01*
X134572851Y-119285623D01*
X134584597Y-119291100D01*
X134780350Y-119382381D01*
X134780352Y-119382381D01*
X134780357Y-119382384D01*
X135001513Y-119441643D01*
X135164432Y-119455896D01*
X135229598Y-119461598D01*
X135229600Y-119461598D01*
X135229602Y-119461598D01*
X135286621Y-119456609D01*
X135457687Y-119441643D01*
X135678843Y-119382384D01*
X135886349Y-119285623D01*
X136073900Y-119154298D01*
X136235798Y-118992400D01*
X136367123Y-118804849D01*
X136463884Y-118597343D01*
X136523143Y-118376187D01*
X136543098Y-118148100D01*
X136523143Y-117920013D01*
X136463884Y-117698857D01*
X136437922Y-117643182D01*
X136419012Y-117602628D01*
X136367123Y-117491351D01*
X136235798Y-117303800D01*
X136073900Y-117141902D01*
X135886349Y-117010577D01*
X135886345Y-117010575D01*
X135678849Y-116913818D01*
X135678838Y-116913814D01*
X135457689Y-116854557D01*
X135457681Y-116854556D01*
X135229602Y-116834602D01*
X135229598Y-116834602D01*
X135001518Y-116854556D01*
X135001510Y-116854557D01*
X134780361Y-116913814D01*
X134780350Y-116913818D01*
X134572854Y-117010575D01*
X134572852Y-117010576D01*
X134572851Y-117010577D01*
X134385300Y-117141902D01*
X134385298Y-117141903D01*
X134385295Y-117141906D01*
X134223406Y-117303795D01*
X134223403Y-117303798D01*
X134223402Y-117303800D01*
X134159391Y-117395217D01*
X134092076Y-117491352D01*
X134092075Y-117491354D01*
X133995318Y-117698850D01*
X133995314Y-117698861D01*
X133936057Y-117920010D01*
X133936056Y-117920018D01*
X133916102Y-118148098D01*
X133916102Y-118148101D01*
X131810599Y-118148101D01*
X131810599Y-117602653D01*
X131810598Y-117602652D01*
X131412603Y-118000648D01*
X131351280Y-118034133D01*
X131311039Y-118036187D01*
X131165604Y-118019801D01*
X131165596Y-118019801D01*
X130995747Y-118038937D01*
X130989653Y-118040328D01*
X130919915Y-118036047D01*
X130863561Y-117994743D01*
X130838485Y-117929528D01*
X130852646Y-117861109D01*
X130874392Y-117831753D01*
X131164386Y-117541759D01*
X131225709Y-117508274D01*
X131238152Y-117506224D01*
X131335450Y-117495262D01*
X131496783Y-117438809D01*
X131641509Y-117347871D01*
X131762371Y-117227009D01*
X131853309Y-117082283D01*
X131909762Y-116920950D01*
X131914885Y-116875480D01*
X131928899Y-116751103D01*
X131928899Y-116751096D01*
X131909763Y-116581255D01*
X131909762Y-116581250D01*
X131894326Y-116537137D01*
X131853309Y-116419917D01*
X131843090Y-116403653D01*
X131829605Y-116382192D01*
X131810599Y-116316220D01*
X131810599Y-115508085D01*
X131795862Y-115433993D01*
X131795861Y-115433990D01*
X131739723Y-115349976D01*
X131655704Y-115293836D01*
X131655703Y-115293835D01*
X131581619Y-115279100D01*
X128971585Y-115279100D01*
X128897493Y-115293837D01*
X128897490Y-115293838D01*
X128813476Y-115349976D01*
X128757336Y-115433995D01*
X128757335Y-115433996D01*
X128742600Y-115508078D01*
X128742600Y-116316221D01*
X128723594Y-116382193D01*
X128699891Y-116419915D01*
X128643437Y-116581250D01*
X128643436Y-116581255D01*
X128624301Y-116751096D01*
X128624301Y-116751103D01*
X128643436Y-116920944D01*
X128643437Y-116920949D01*
X128674800Y-117010577D01*
X128699891Y-117082283D01*
X128790829Y-117227009D01*
X128911691Y-117347871D01*
X129056417Y-117438809D01*
X129217750Y-117495262D01*
X129315018Y-117506221D01*
X129379427Y-117533285D01*
X129388812Y-117541759D01*
X129678806Y-117831753D01*
X129712291Y-117893076D01*
X129707307Y-117962768D01*
X129665435Y-118018701D01*
X129599971Y-118043118D01*
X129563541Y-118040327D01*
X129557450Y-118038937D01*
X129387604Y-118019801D01*
X129387596Y-118019801D01*
X129242159Y-118036187D01*
X129173337Y-118024132D01*
X129140595Y-118000648D01*
X128742600Y-117602652D01*
X128742600Y-118348222D01*
X128723594Y-118414194D01*
X128699889Y-118451920D01*
X128643439Y-118613242D01*
X128643436Y-118613255D01*
X128624301Y-118783096D01*
X128624301Y-118783103D01*
X128643436Y-118952944D01*
X128643437Y-118952949D01*
X128699891Y-119114285D01*
X128723593Y-119152005D01*
X128742600Y-119217978D01*
X128742600Y-119963546D01*
X129140594Y-119565551D01*
X129201917Y-119532066D01*
X129242158Y-119530012D01*
X129289299Y-119535323D01*
X129387597Y-119546399D01*
X129387600Y-119546399D01*
X129387604Y-119546399D01*
X129533042Y-119530012D01*
X129557450Y-119527262D01*
X129557451Y-119527261D01*
X129563529Y-119525875D01*
X129633268Y-119530146D01*
X129689626Y-119571444D01*
X129714711Y-119636655D01*
X129700558Y-119705076D01*
X129678805Y-119734446D01*
X129388812Y-120024439D01*
X129327489Y-120057924D01*
X129315015Y-120059978D01*
X129217757Y-120070936D01*
X129217752Y-120070937D01*
X129056417Y-120127390D01*
X128911691Y-120218328D01*
X128790828Y-120339191D01*
X128699891Y-120483916D01*
X128643437Y-120645250D01*
X128643436Y-120645255D01*
X128624301Y-120815096D01*
X128624301Y-120815103D01*
X123037600Y-120815103D01*
X123037600Y-117558493D01*
X123057285Y-117491454D01*
X123110089Y-117445699D01*
X123179247Y-117435755D01*
X123221424Y-117449879D01*
X123265847Y-117474348D01*
X123303816Y-117495262D01*
X123305478Y-117496177D01*
X123315755Y-117499839D01*
X123323746Y-117503339D01*
X123333395Y-117508404D01*
X123434470Y-117542148D01*
X123534901Y-117577940D01*
X123545621Y-117579904D01*
X123554082Y-117582081D01*
X123558823Y-117583663D01*
X123564418Y-117585531D01*
X123564426Y-117585532D01*
X123564429Y-117585533D01*
X123669622Y-117602628D01*
X123774470Y-117621842D01*
X123777551Y-117621903D01*
X123785360Y-117622061D01*
X123794071Y-117622852D01*
X123804821Y-117624600D01*
X123911389Y-117624600D01*
X123913339Y-117624639D01*
X124017977Y-117626747D01*
X124023708Y-117625933D01*
X124028768Y-117625216D01*
X124037489Y-117624600D01*
X124292389Y-117624600D01*
X124294413Y-117624640D01*
X124398977Y-117626747D01*
X124472560Y-117616304D01*
X124476285Y-117615890D01*
X124550368Y-117609910D01*
X124591773Y-117599704D01*
X124597906Y-117598516D01*
X124603568Y-117597712D01*
X124640118Y-117592526D01*
X124711067Y-117570416D01*
X124714651Y-117569416D01*
X124786848Y-117551623D01*
X124826102Y-117534896D01*
X124831934Y-117532752D01*
X124872648Y-117520067D01*
X124939141Y-117486858D01*
X124942512Y-117485299D01*
X125010916Y-117456156D01*
X125024771Y-117447393D01*
X125080241Y-117428667D01*
X125083053Y-117428421D01*
X125297687Y-117409643D01*
X125518843Y-117350384D01*
X125726349Y-117253623D01*
X125913900Y-117122298D01*
X126075798Y-116960400D01*
X126207123Y-116772849D01*
X126303884Y-116565343D01*
X126363143Y-116344187D01*
X126373618Y-116224446D01*
X126399070Y-116159380D01*
X126409457Y-116147582D01*
X127456939Y-115100100D01*
X134165978Y-115100100D01*
X134186414Y-115307600D01*
X134186415Y-115307602D01*
X134246941Y-115507131D01*
X134297803Y-115602287D01*
X134345233Y-115691020D01*
X134477505Y-115852194D01*
X134638679Y-115984466D01*
X134638683Y-115984469D01*
X134822569Y-116082759D01*
X135022098Y-116143285D01*
X135229600Y-116163722D01*
X135437102Y-116143285D01*
X135636631Y-116082759D01*
X135820517Y-115984469D01*
X135981694Y-115852194D01*
X136113969Y-115691017D01*
X136212259Y-115507131D01*
X136272785Y-115307602D01*
X136293222Y-115100100D01*
X136272785Y-114892598D01*
X136212259Y-114693069D01*
X136113969Y-114509183D01*
X136034209Y-114411995D01*
X135981694Y-114348005D01*
X135820520Y-114215733D01*
X135820518Y-114215732D01*
X135820517Y-114215731D01*
X135636631Y-114117441D01*
X135475178Y-114068465D01*
X135437100Y-114056914D01*
X135229600Y-114036478D01*
X135022099Y-114056914D01*
X134822566Y-114117442D01*
X134638679Y-114215733D01*
X134477505Y-114348005D01*
X134345233Y-114509179D01*
X134246942Y-114693066D01*
X134186414Y-114892599D01*
X134165978Y-115100100D01*
X127456939Y-115100100D01*
X131396015Y-111161025D01*
X131472902Y-111087175D01*
X131479450Y-111078460D01*
X131485166Y-111071873D01*
X135584940Y-106972100D01*
X136753600Y-106972100D01*
X136753600Y-110274100D01*
X140309600Y-110274100D01*
X140309600Y-106972100D01*
X136753600Y-106972100D01*
X135584940Y-106972100D01*
X152582123Y-89974919D01*
X152643446Y-89941434D01*
X152669804Y-89938600D01*
X170977398Y-89938600D01*
X171068382Y-89931255D01*
X171159368Y-89923910D01*
X171395848Y-89865623D01*
X171619916Y-89770156D01*
X171825768Y-89639983D01*
X172008074Y-89478475D01*
X172162110Y-89289814D01*
X172283889Y-89078887D01*
X172370256Y-88851157D01*
X172418974Y-88612521D01*
X172428781Y-88369161D01*
X172399423Y-88127380D01*
X172399423Y-88127378D01*
X172331662Y-87893443D01*
X172331661Y-87893438D01*
X172227250Y-87673396D01*
X172227249Y-87673395D01*
X172227248Y-87673392D01*
X172088892Y-87472951D01*
X172088891Y-87472950D01*
X171920177Y-87297299D01*
X171725470Y-87150986D01*
X171725466Y-87150983D01*
X171725465Y-87150983D01*
X171698646Y-87136907D01*
X171509807Y-87037796D01*
X171509803Y-87037795D01*
X171278782Y-86960668D01*
X171038382Y-86921600D01*
X171038379Y-86921600D01*
X156442803Y-86921600D01*
X156375764Y-86901915D01*
X156330009Y-86849111D01*
X156320065Y-86779953D01*
X156349090Y-86716397D01*
X156355122Y-86709919D01*
X166933122Y-76131919D01*
X166994445Y-76098434D01*
X167020803Y-76095600D01*
X168183398Y-76095600D01*
X168274382Y-76088255D01*
X168365368Y-76080910D01*
X168601848Y-76022623D01*
X168825916Y-75927156D01*
X169031768Y-75796983D01*
X169214074Y-75635475D01*
X169368110Y-75446814D01*
X169442635Y-75317731D01*
X169489884Y-75235896D01*
X169489885Y-75235893D01*
X169489889Y-75235887D01*
X169576256Y-75008157D01*
X169624974Y-74769521D01*
X169632390Y-74585505D01*
X170012873Y-74585505D01*
X170032148Y-74818122D01*
X170089451Y-75044407D01*
X170183215Y-75258168D01*
X170310886Y-75453584D01*
X170468976Y-75625314D01*
X170468980Y-75625318D01*
X170653183Y-75768690D01*
X170653185Y-75768691D01*
X170653188Y-75768693D01*
X170705460Y-75796981D01*
X170858473Y-75879787D01*
X170973114Y-75919143D01*
X171079245Y-75955579D01*
X171079247Y-75955579D01*
X171079249Y-75955580D01*
X171309488Y-75994000D01*
X171309489Y-75994000D01*
X171542911Y-75994000D01*
X171542912Y-75994000D01*
X171773151Y-75955580D01*
X171993927Y-75879787D01*
X172199217Y-75768690D01*
X172383420Y-75625318D01*
X172541514Y-75453583D01*
X172669184Y-75258169D01*
X172762949Y-75044407D01*
X172820251Y-74818126D01*
X172839527Y-74585500D01*
X172820251Y-74352874D01*
X172762949Y-74126593D01*
X172669184Y-73912831D01*
X172541514Y-73717417D01*
X172541513Y-73717415D01*
X172383423Y-73545685D01*
X172383422Y-73545684D01*
X172383420Y-73545682D01*
X172199217Y-73402310D01*
X172199215Y-73402309D01*
X172199214Y-73402308D01*
X172199211Y-73402306D01*
X171993933Y-73291216D01*
X171993930Y-73291215D01*
X171993927Y-73291213D01*
X171993921Y-73291211D01*
X171993919Y-73291210D01*
X171773154Y-73215420D01*
X171579659Y-73183132D01*
X171542912Y-73177000D01*
X171309488Y-73177000D01*
X171272741Y-73183132D01*
X171079245Y-73215420D01*
X170858480Y-73291210D01*
X170858466Y-73291216D01*
X170653188Y-73402306D01*
X170653185Y-73402308D01*
X170468981Y-73545681D01*
X170468976Y-73545685D01*
X170310886Y-73717415D01*
X170183215Y-73912831D01*
X170089451Y-74126592D01*
X170032148Y-74352877D01*
X170012873Y-74585494D01*
X170012873Y-74585505D01*
X169632390Y-74585505D01*
X169634781Y-74526161D01*
X169605423Y-74284380D01*
X169605423Y-74284378D01*
X169567221Y-74152494D01*
X169537661Y-74050438D01*
X169433250Y-73830396D01*
X169433249Y-73830395D01*
X169433248Y-73830392D01*
X169294892Y-73629951D01*
X169294891Y-73629950D01*
X169126177Y-73454299D01*
X168931470Y-73307986D01*
X168931466Y-73307983D01*
X168931465Y-73307983D01*
X168899507Y-73291210D01*
X168715807Y-73194796D01*
X168715803Y-73194795D01*
X168484782Y-73117668D01*
X168244382Y-73078600D01*
X168244379Y-73078600D01*
X166359782Y-73078600D01*
X166253222Y-73076454D01*
X166253221Y-73076454D01*
X166253217Y-73076454D01*
X166253214Y-73076454D01*
X166179654Y-73086892D01*
X166175934Y-73087306D01*
X166101832Y-73093289D01*
X166060425Y-73103494D01*
X166054299Y-73104681D01*
X166012085Y-73110672D01*
X165941135Y-73132780D01*
X165937529Y-73133785D01*
X165865359Y-73151574D01*
X165865354Y-73151576D01*
X165826113Y-73168294D01*
X165820258Y-73170447D01*
X165813746Y-73172477D01*
X165779551Y-73183132D01*
X165713059Y-73216338D01*
X165709662Y-73217909D01*
X165641287Y-73247042D01*
X165605242Y-73269833D01*
X165599809Y-73272897D01*
X165561654Y-73291954D01*
X165501344Y-73335401D01*
X165498243Y-73337495D01*
X165435438Y-73377212D01*
X165403513Y-73405494D01*
X165398638Y-73409392D01*
X165364045Y-73434314D01*
X165311503Y-73486855D01*
X165308777Y-73489421D01*
X165253132Y-73538718D01*
X165253120Y-73538730D01*
X165226143Y-73571770D01*
X165221957Y-73576400D01*
X158666781Y-80131576D01*
X158605458Y-80165061D01*
X158535766Y-80160077D01*
X158479833Y-80118205D01*
X158455416Y-80052741D01*
X158455100Y-80043895D01*
X158455100Y-79968576D01*
X158455213Y-79964832D01*
X158455618Y-79958134D01*
X158459702Y-79890625D01*
X158455413Y-79848183D01*
X158455100Y-79841950D01*
X158455100Y-71605302D01*
X158440410Y-71423332D01*
X158382122Y-71186849D01*
X158286660Y-70962792D01*
X158286658Y-70962789D01*
X158286656Y-70962784D01*
X158156483Y-70756932D01*
X158072846Y-70662525D01*
X158019516Y-70602327D01*
X157989794Y-70539094D01*
X157998978Y-70469830D01*
X158044150Y-70416527D01*
X158110969Y-70396107D01*
X158112331Y-70396100D01*
X173713600Y-70396100D01*
X173780639Y-70415785D01*
G37*
%TD.AperFunction*%
%TA.AperFunction,Conductor*%
G36*
X146694399Y-125357047D02*
G01*
X146731597Y-125378939D01*
X146779450Y-125419810D01*
X146817643Y-125478318D01*
X146818141Y-125548185D01*
X146780787Y-125607231D01*
X146779450Y-125608390D01*
X146697167Y-125678667D01*
X146537846Y-125865206D01*
X146409671Y-126074369D01*
X146315793Y-126301012D01*
X146258527Y-126539545D01*
X146239281Y-126784100D01*
X146258527Y-127028654D01*
X146315793Y-127267187D01*
X146409671Y-127493830D01*
X146537846Y-127702993D01*
X146537848Y-127702996D01*
X146697167Y-127889533D01*
X146855217Y-128024522D01*
X146893410Y-128083028D01*
X146893908Y-128152896D01*
X146856554Y-128211942D01*
X146850848Y-128216664D01*
X146811401Y-128247367D01*
X146647695Y-128425198D01*
X146647692Y-128425202D01*
X146515491Y-128627549D01*
X146418397Y-128848902D01*
X146359060Y-129083219D01*
X146339101Y-129324094D01*
X146339101Y-129324105D01*
X146359060Y-129564980D01*
X146418397Y-129799297D01*
X146515491Y-130020650D01*
X146575259Y-130112131D01*
X146647694Y-130223000D01*
X146811399Y-130400831D01*
X146933989Y-130496247D01*
X146974802Y-130552957D01*
X146978477Y-130622730D01*
X146943846Y-130683413D01*
X146933994Y-130691949D01*
X146811399Y-130787369D01*
X146797274Y-130802712D01*
X146647695Y-130965198D01*
X146647692Y-130965202D01*
X146515491Y-131167549D01*
X146418397Y-131388902D01*
X146359060Y-131623219D01*
X146339101Y-131864094D01*
X146339101Y-131864105D01*
X146359060Y-132104980D01*
X146419656Y-132344269D01*
X146417762Y-132344748D01*
X146420527Y-132406146D01*
X146385436Y-132466564D01*
X146323251Y-132498420D01*
X146300099Y-132500600D01*
X145333831Y-132500600D01*
X145306780Y-132497613D01*
X145198063Y-132473311D01*
X145031768Y-132478537D01*
X145031767Y-132478538D01*
X144872004Y-132524953D01*
X144871998Y-132524955D01*
X144728795Y-132609645D01*
X144728787Y-132609651D01*
X142826053Y-134512385D01*
X142813385Y-134522535D01*
X142813531Y-134522711D01*
X142807520Y-134527683D01*
X142757653Y-134580786D01*
X142735672Y-134602767D01*
X142731092Y-134608669D01*
X142727308Y-134613098D01*
X142693629Y-134648965D01*
X142693624Y-134648972D01*
X142683218Y-134667900D01*
X142672542Y-134684154D01*
X142659295Y-134701233D01*
X142639750Y-134746397D01*
X142637180Y-134751643D01*
X142613476Y-134794761D01*
X142608102Y-134815689D01*
X142601803Y-134834087D01*
X142593219Y-134853925D01*
X142585523Y-134902520D01*
X142584338Y-134908243D01*
X142572100Y-134955909D01*
X142572100Y-134977513D01*
X142570574Y-134996908D01*
X142567194Y-135018251D01*
X142567193Y-135018256D01*
X142568439Y-135031434D01*
X142555148Y-135100028D01*
X142523655Y-135138951D01*
X142478506Y-135176004D01*
X142346233Y-135337179D01*
X142247942Y-135521066D01*
X142187414Y-135720599D01*
X142166978Y-135928100D01*
X142187414Y-136135600D01*
X142207397Y-136201475D01*
X142247941Y-136335131D01*
X142319444Y-136468903D01*
X142346233Y-136519020D01*
X142478505Y-136680194D01*
X142592321Y-136773600D01*
X142639683Y-136812469D01*
X142823569Y-136910759D01*
X143023098Y-136971285D01*
X143230600Y-136991722D01*
X143438102Y-136971285D01*
X143637631Y-136910759D01*
X143821517Y-136812469D01*
X143982694Y-136680194D01*
X144114969Y-136519017D01*
X144213259Y-136335131D01*
X144273785Y-136135602D01*
X144282640Y-136045693D01*
X144308799Y-135980909D01*
X144365833Y-135940549D01*
X144435633Y-135937432D01*
X144464494Y-135948490D01*
X144601569Y-136021759D01*
X144801098Y-136082285D01*
X145008600Y-136102722D01*
X145070729Y-136096602D01*
X145139374Y-136109620D01*
X145170564Y-136132324D01*
X145187262Y-136149022D01*
X145193147Y-136153587D01*
X145197590Y-136157382D01*
X145233465Y-136191071D01*
X145233467Y-136191072D01*
X145252394Y-136201477D01*
X145268654Y-136212157D01*
X145273719Y-136216086D01*
X145285731Y-136225404D01*
X145330901Y-136244951D01*
X145336137Y-136247515D01*
X145379263Y-136271224D01*
X145399267Y-136276360D01*
X145400186Y-136276596D01*
X145418591Y-136282897D01*
X145438423Y-136291479D01*
X145487053Y-136299181D01*
X145492722Y-136300355D01*
X145540412Y-136312600D01*
X145562018Y-136312600D01*
X145581416Y-136314126D01*
X145602751Y-136317506D01*
X145647864Y-136313241D01*
X145651741Y-136312875D01*
X145657579Y-136312600D01*
X146298663Y-136312600D01*
X146365702Y-136332285D01*
X146411457Y-136385089D01*
X146421401Y-136454247D01*
X146418869Y-136467040D01*
X146418397Y-136468901D01*
X146418397Y-136468903D01*
X146405706Y-136519020D01*
X146359060Y-136703219D01*
X146339101Y-136944094D01*
X146339101Y-136944105D01*
X146359060Y-137184980D01*
X146359060Y-137184983D01*
X146359061Y-137184984D01*
X146418397Y-137419297D01*
X146515491Y-137640649D01*
X146572769Y-137728319D01*
X146603776Y-137775778D01*
X146623963Y-137842668D01*
X146604783Y-137909853D01*
X146552325Y-137956004D01*
X146499967Y-137967600D01*
X142302696Y-137967600D01*
X142235657Y-137947915D01*
X142215015Y-137931281D01*
X140993791Y-136710057D01*
X140960306Y-136648734D01*
X140957896Y-136632622D01*
X140943251Y-136455874D01*
X140885949Y-136229593D01*
X140792184Y-136015831D01*
X140695187Y-135867366D01*
X140664513Y-135820415D01*
X140506423Y-135648685D01*
X140506414Y-135648677D01*
X140476935Y-135625731D01*
X140436123Y-135569020D01*
X140429100Y-135527880D01*
X140429100Y-131571195D01*
X140448785Y-131504156D01*
X140465414Y-131483519D01*
X146563386Y-125385546D01*
X146624707Y-125352063D01*
X146694399Y-125357047D01*
G37*
%TD.AperFunction*%
%TA.AperFunction,Conductor*%
G36*
X156620292Y-123252864D02*
G01*
X156661663Y-123309169D01*
X156669100Y-123351465D01*
X156669100Y-125189978D01*
X156649415Y-125257017D01*
X156632781Y-125277659D01*
X154123781Y-127786659D01*
X154062458Y-127820144D01*
X153992766Y-127815160D01*
X153936833Y-127773288D01*
X153912416Y-127707824D01*
X153912100Y-127698978D01*
X153912100Y-124402630D01*
X153931785Y-124335591D01*
X153984589Y-124289836D01*
X154053747Y-124279892D01*
X154117303Y-124308917D01*
X154131954Y-124323966D01*
X154162506Y-124361194D01*
X154317819Y-124488657D01*
X154323683Y-124493469D01*
X154507569Y-124591759D01*
X154707098Y-124652285D01*
X154914600Y-124672722D01*
X155122102Y-124652285D01*
X155321631Y-124591759D01*
X155505517Y-124493469D01*
X155666694Y-124361194D01*
X155798969Y-124200017D01*
X155897259Y-124016131D01*
X155957785Y-123816602D01*
X155978222Y-123609100D01*
X155969787Y-123523461D01*
X155982806Y-123454816D01*
X156030870Y-123404106D01*
X156081036Y-123387905D01*
X156138102Y-123382285D01*
X156337631Y-123321759D01*
X156486649Y-123242106D01*
X156555048Y-123227865D01*
X156620292Y-123252864D01*
G37*
%TD.AperFunction*%
%TA.AperFunction,Conductor*%
G36*
X156774505Y-117480447D02*
G01*
X156796406Y-117505722D01*
X156807694Y-117523000D01*
X156971399Y-117700831D01*
X156971402Y-117700833D01*
X156971405Y-117700836D01*
X157162133Y-117849286D01*
X157162139Y-117849290D01*
X157162142Y-117849292D01*
X157374719Y-117964333D01*
X157480501Y-118000648D01*
X157603328Y-118042815D01*
X157603330Y-118042815D01*
X157603332Y-118042816D01*
X157841745Y-118082600D01*
X157841746Y-118082600D01*
X158083454Y-118082600D01*
X158083455Y-118082600D01*
X158194246Y-118064112D01*
X158263610Y-118072494D01*
X158317432Y-118117047D01*
X158338623Y-118183625D01*
X158320455Y-118251091D01*
X158302336Y-118274102D01*
X156923053Y-119653385D01*
X156910385Y-119663535D01*
X156910531Y-119663711D01*
X156904520Y-119668683D01*
X156854653Y-119721786D01*
X156832672Y-119743767D01*
X156828092Y-119749669D01*
X156824308Y-119754098D01*
X156790629Y-119789965D01*
X156790624Y-119789972D01*
X156780218Y-119808900D01*
X156769542Y-119825154D01*
X156756295Y-119842233D01*
X156736750Y-119887397D01*
X156734180Y-119892643D01*
X156710476Y-119935761D01*
X156705102Y-119956689D01*
X156698803Y-119975087D01*
X156690219Y-119994925D01*
X156682523Y-120043520D01*
X156681338Y-120049243D01*
X156669100Y-120096909D01*
X156669100Y-120118513D01*
X156667574Y-120137908D01*
X156664194Y-120159251D01*
X156668825Y-120208243D01*
X156669100Y-120214081D01*
X156669100Y-121326734D01*
X156649415Y-121393773D01*
X156596611Y-121439528D01*
X156527453Y-121449472D01*
X156486646Y-121436092D01*
X156478253Y-121431606D01*
X156337631Y-121356441D01*
X156176745Y-121307637D01*
X156138100Y-121295914D01*
X155930600Y-121275478D01*
X155723099Y-121295914D01*
X155523566Y-121356442D01*
X155339679Y-121454733D01*
X155178505Y-121587005D01*
X155046233Y-121748179D01*
X154947942Y-121932066D01*
X154887414Y-122131599D01*
X154866978Y-122339100D01*
X154875412Y-122424738D01*
X154862393Y-122493384D01*
X154814328Y-122544094D01*
X154764164Y-122560294D01*
X154707099Y-122565914D01*
X154507566Y-122626442D01*
X154323679Y-122724733D01*
X154162505Y-122857005D01*
X154131953Y-122894234D01*
X154074207Y-122933568D01*
X154004363Y-122935439D01*
X153944594Y-122899251D01*
X153913879Y-122836495D01*
X153912100Y-122815569D01*
X153912100Y-117707612D01*
X153931785Y-117640573D01*
X153944870Y-117623629D01*
X154037506Y-117523000D01*
X154048792Y-117505724D01*
X154101937Y-117460369D01*
X154171169Y-117450945D01*
X154234505Y-117480447D01*
X154256406Y-117505722D01*
X154267694Y-117523000D01*
X154431399Y-117700831D01*
X154431402Y-117700833D01*
X154431405Y-117700836D01*
X154622133Y-117849286D01*
X154622139Y-117849290D01*
X154622142Y-117849292D01*
X154834719Y-117964333D01*
X155063332Y-118042816D01*
X155156830Y-118058418D01*
X155219713Y-118088867D01*
X155256153Y-118148481D01*
X155254579Y-118218333D01*
X155215489Y-118276245D01*
X155172418Y-118299386D01*
X155147330Y-118306996D01*
X155142573Y-118308440D01*
X155142566Y-118308442D01*
X154958679Y-118406733D01*
X154797505Y-118539005D01*
X154665233Y-118700179D01*
X154566942Y-118884066D01*
X154506414Y-119083599D01*
X154485978Y-119291100D01*
X154506414Y-119498600D01*
X154528511Y-119571444D01*
X154566941Y-119698131D01*
X154643965Y-119842232D01*
X154665233Y-119882020D01*
X154797505Y-120043194D01*
X154958679Y-120175466D01*
X154958683Y-120175469D01*
X155142569Y-120273759D01*
X155342098Y-120334285D01*
X155549600Y-120354722D01*
X155757102Y-120334285D01*
X155956631Y-120273759D01*
X156140517Y-120175469D01*
X156301694Y-120043194D01*
X156433969Y-119882017D01*
X156532259Y-119698131D01*
X156592785Y-119498602D01*
X156613222Y-119291100D01*
X156592785Y-119083598D01*
X156532259Y-118884069D01*
X156433969Y-118700183D01*
X156418236Y-118681012D01*
X156301694Y-118539005D01*
X156140520Y-118406733D01*
X156140518Y-118406732D01*
X156140517Y-118406731D01*
X156055938Y-118361522D01*
X155956630Y-118308440D01*
X155820212Y-118267058D01*
X155761774Y-118228761D01*
X155733317Y-118164948D01*
X155743878Y-118095882D01*
X155790103Y-118043488D01*
X155815946Y-118031117D01*
X156010470Y-117964337D01*
X156010473Y-117964335D01*
X156010481Y-117964333D01*
X156223058Y-117849292D01*
X156413801Y-117700831D01*
X156577506Y-117523000D01*
X156588792Y-117505724D01*
X156641937Y-117460369D01*
X156711169Y-117450945D01*
X156774505Y-117480447D01*
G37*
%TD.AperFunction*%
%TA.AperFunction,Conductor*%
G36*
X143031293Y-116719172D02*
G01*
X143072664Y-116775477D01*
X143080100Y-116817772D01*
X143080100Y-118585978D01*
X143060415Y-118653017D01*
X143043781Y-118673659D01*
X142867159Y-118850281D01*
X142805836Y-118883766D01*
X142779478Y-118886600D01*
X140903991Y-118886600D01*
X140887848Y-118884817D01*
X140887827Y-118885045D01*
X140880065Y-118884311D01*
X140880063Y-118884311D01*
X140807240Y-118886600D01*
X140776168Y-118886600D01*
X140776164Y-118886600D01*
X140776154Y-118886601D01*
X140768767Y-118887534D01*
X140762950Y-118887991D01*
X140713774Y-118889537D01*
X140713763Y-118889539D01*
X140693022Y-118895564D01*
X140673982Y-118899507D01*
X140652546Y-118902216D01*
X140652531Y-118902219D01*
X140606778Y-118920333D01*
X140601254Y-118922224D01*
X140553999Y-118935955D01*
X140535408Y-118946950D01*
X140517939Y-118955508D01*
X140497846Y-118963464D01*
X140497845Y-118963464D01*
X140497844Y-118963465D01*
X140486511Y-118971699D01*
X140458033Y-118992389D01*
X140453150Y-118995596D01*
X140410792Y-119020646D01*
X140395513Y-119035926D01*
X140380727Y-119048555D01*
X140363243Y-119061259D01*
X140363241Y-119061261D01*
X140363240Y-119061262D01*
X140331871Y-119099178D01*
X140327939Y-119103499D01*
X138185564Y-121245874D01*
X138124241Y-121279359D01*
X138085731Y-121281596D01*
X138023602Y-121275478D01*
X138023600Y-121275478D01*
X137816099Y-121295914D01*
X137616566Y-121356442D01*
X137582404Y-121374702D01*
X137514001Y-121388943D01*
X137448758Y-121363942D01*
X137407388Y-121307637D01*
X137403026Y-121237904D01*
X137436269Y-121177664D01*
X141707015Y-116906919D01*
X141768338Y-116873434D01*
X141794696Y-116870600D01*
X142289002Y-116870600D01*
X142295082Y-116870899D01*
X142309111Y-116872280D01*
X142341600Y-116875480D01*
X142539301Y-116856009D01*
X142729404Y-116798341D01*
X142734394Y-116795673D01*
X142750667Y-116786977D01*
X142897647Y-116708414D01*
X142966049Y-116694172D01*
X143031293Y-116719172D01*
G37*
%TD.AperFunction*%
%TA.AperFunction,Conductor*%
G36*
X128774639Y-107992285D02*
G01*
X128820394Y-108045089D01*
X128831600Y-108096600D01*
X128831600Y-109407396D01*
X128811915Y-109474435D01*
X128795281Y-109495077D01*
X126408781Y-111881577D01*
X126347458Y-111915062D01*
X126277766Y-111910078D01*
X126221833Y-111868206D01*
X126197416Y-111802742D01*
X126197100Y-111793896D01*
X126197100Y-108096600D01*
X126216785Y-108029561D01*
X126269589Y-107983806D01*
X126321100Y-107972600D01*
X128707600Y-107972600D01*
X128774639Y-107992285D01*
G37*
%TD.AperFunction*%
%TA.AperFunction,Conductor*%
G36*
X129203639Y-70415785D02*
G01*
X129249394Y-70468589D01*
X129260600Y-70520100D01*
X129260600Y-79667100D01*
X135737600Y-79667100D01*
X137515600Y-77889100D01*
X143817978Y-77889100D01*
X143838414Y-78096600D01*
X143898942Y-78296133D01*
X143997233Y-78480020D01*
X144129505Y-78641194D01*
X144290679Y-78773466D01*
X144290683Y-78773469D01*
X144474569Y-78871759D01*
X144674098Y-78932285D01*
X144881600Y-78952722D01*
X145089102Y-78932285D01*
X145288631Y-78871759D01*
X145472517Y-78773469D01*
X145633694Y-78641194D01*
X145765969Y-78480017D01*
X145864259Y-78296131D01*
X145924785Y-78096602D01*
X145945222Y-77889100D01*
X145924785Y-77681598D01*
X145864259Y-77482069D01*
X145765969Y-77298183D01*
X145765966Y-77298179D01*
X145633694Y-77137005D01*
X145472520Y-77004733D01*
X145472518Y-77004732D01*
X145472517Y-77004731D01*
X145288631Y-76906441D01*
X145188866Y-76876178D01*
X145089100Y-76845914D01*
X144881600Y-76825478D01*
X144674099Y-76845914D01*
X144474566Y-76906442D01*
X144290679Y-77004733D01*
X144129505Y-77137005D01*
X143997233Y-77298179D01*
X143898942Y-77482066D01*
X143838414Y-77681599D01*
X143817978Y-77889100D01*
X137515600Y-77889100D01*
X138277600Y-77127100D01*
X138277600Y-70520100D01*
X138297285Y-70453061D01*
X138350089Y-70407306D01*
X138401600Y-70396100D01*
X155783074Y-70396100D01*
X155850113Y-70415785D01*
X155895868Y-70468589D01*
X155905812Y-70537747D01*
X155876787Y-70601303D01*
X155868972Y-70609529D01*
X155813799Y-70662522D01*
X155667486Y-70857229D01*
X155667480Y-70857240D01*
X155554296Y-71072892D01*
X155554295Y-71072896D01*
X155477168Y-71303917D01*
X155477168Y-71303918D01*
X155438100Y-71544318D01*
X155438100Y-79244895D01*
X155418415Y-79311934D01*
X155401781Y-79332576D01*
X151445659Y-83288698D01*
X151368796Y-83362526D01*
X151324157Y-83421931D01*
X151321818Y-83424855D01*
X151273650Y-83481484D01*
X151251588Y-83517977D01*
X151248097Y-83523146D01*
X151222486Y-83557230D01*
X151222480Y-83557240D01*
X151187947Y-83623036D01*
X151186107Y-83626298D01*
X151147652Y-83689911D01*
X151131727Y-83729479D01*
X151129108Y-83735144D01*
X151109294Y-83772898D01*
X151085762Y-83843383D01*
X151084470Y-83846896D01*
X151056720Y-83915850D01*
X151056715Y-83915864D01*
X151047346Y-83957461D01*
X151045671Y-83963472D01*
X151032169Y-84003917D01*
X151032166Y-84003928D01*
X151020247Y-84077277D01*
X151019535Y-84080954D01*
X151003205Y-84153460D01*
X151003204Y-84153467D01*
X151000628Y-84196035D01*
X150999938Y-84202237D01*
X150993100Y-84244321D01*
X150993100Y-84318623D01*
X150992987Y-84322367D01*
X150988498Y-84396578D01*
X150992786Y-84439014D01*
X150993100Y-84445250D01*
X150993100Y-85086896D01*
X150973415Y-85153935D01*
X150956781Y-85174577D01*
X139547412Y-96583945D01*
X139486089Y-96617430D01*
X139416397Y-96612446D01*
X139360464Y-96570574D01*
X139336328Y-96508419D01*
X139320785Y-96350598D01*
X139260259Y-96151069D01*
X139161969Y-95967183D01*
X139139679Y-95940023D01*
X139029695Y-95806007D01*
X139026860Y-95803680D01*
X139025772Y-95802083D01*
X139025387Y-95801698D01*
X139025460Y-95801624D01*
X138987527Y-95745933D01*
X138985658Y-95676088D01*
X139021846Y-95616321D01*
X139084603Y-95585606D01*
X139093352Y-95584427D01*
X139247102Y-95569285D01*
X139446631Y-95508759D01*
X139630517Y-95410469D01*
X139791694Y-95278194D01*
X139923969Y-95117017D01*
X140022259Y-94933131D01*
X140082785Y-94733602D01*
X140103222Y-94526100D01*
X140082785Y-94318598D01*
X140022259Y-94119069D01*
X139923969Y-93935183D01*
X139909154Y-93917131D01*
X139791694Y-93774005D01*
X139630520Y-93641733D01*
X139630518Y-93641732D01*
X139630517Y-93641731D01*
X139446631Y-93543441D01*
X139336720Y-93510100D01*
X139247100Y-93482914D01*
X139039600Y-93462478D01*
X138832099Y-93482914D01*
X138632566Y-93543442D01*
X138448679Y-93641733D01*
X138287505Y-93774005D01*
X138155233Y-93935179D01*
X138056942Y-94119066D01*
X137996414Y-94318599D01*
X137975978Y-94526100D01*
X137996414Y-94733600D01*
X138056942Y-94933133D01*
X138155233Y-95117020D01*
X138287505Y-95278194D01*
X138290337Y-95280518D01*
X138291422Y-95282111D01*
X138291813Y-95282502D01*
X138291738Y-95282576D01*
X138329671Y-95338264D01*
X138331542Y-95408109D01*
X138295354Y-95467877D01*
X138232598Y-95498593D01*
X138223826Y-95499774D01*
X138070099Y-95514914D01*
X137870566Y-95575442D01*
X137686679Y-95673733D01*
X137525505Y-95806005D01*
X137393233Y-95967179D01*
X137294942Y-96151066D01*
X137234414Y-96350599D01*
X137213978Y-96558100D01*
X137234414Y-96765600D01*
X137253997Y-96830155D01*
X137294941Y-96965131D01*
X137391741Y-97146230D01*
X137393233Y-97149020D01*
X137525505Y-97310194D01*
X137588507Y-97361898D01*
X137686683Y-97442469D01*
X137870569Y-97540759D01*
X138070098Y-97601285D01*
X138227919Y-97616828D01*
X138292705Y-97642988D01*
X138333064Y-97700023D01*
X138336181Y-97769823D01*
X138303445Y-97827912D01*
X131212077Y-104919281D01*
X131150754Y-104952766D01*
X131124396Y-104955600D01*
X126321100Y-104955600D01*
X126254061Y-104935915D01*
X126208306Y-104883111D01*
X126197100Y-104831600D01*
X126197100Y-98631303D01*
X126216785Y-98564264D01*
X126233419Y-98543622D01*
X126433261Y-98343780D01*
X126551546Y-98204720D01*
X126677548Y-97996288D01*
X126768482Y-97770343D01*
X126821996Y-97532737D01*
X126836702Y-97289624D01*
X126818248Y-97106977D01*
X126812219Y-97047308D01*
X126812217Y-97047298D01*
X126749181Y-96812043D01*
X126649223Y-96589943D01*
X126649223Y-96589942D01*
X126514930Y-96386752D01*
X126514927Y-96386749D01*
X126514926Y-96386747D01*
X126349782Y-96207735D01*
X126349779Y-96207732D01*
X126158062Y-96057532D01*
X126158060Y-96057531D01*
X126158059Y-96057530D01*
X125944722Y-95940023D01*
X125842339Y-95903535D01*
X125715301Y-95858260D01*
X125475733Y-95814358D01*
X125394561Y-95812723D01*
X125232223Y-95809453D01*
X125232222Y-95809453D01*
X125232219Y-95809453D01*
X124991086Y-95843672D01*
X124991076Y-95843674D01*
X124758558Y-95916130D01*
X124758554Y-95916132D01*
X124540655Y-96024955D01*
X124343034Y-96167322D01*
X123632659Y-96877698D01*
X123555796Y-96951526D01*
X123511157Y-97010931D01*
X123508818Y-97013855D01*
X123460650Y-97070484D01*
X123438588Y-97106977D01*
X123435097Y-97112146D01*
X123409486Y-97146230D01*
X123409480Y-97146240D01*
X123374947Y-97212036D01*
X123373107Y-97215298D01*
X123334652Y-97278911D01*
X123318727Y-97318479D01*
X123316108Y-97324144D01*
X123296294Y-97361898D01*
X123279218Y-97413047D01*
X123239317Y-97470402D01*
X123174741Y-97497081D01*
X123105993Y-97484612D01*
X123054900Y-97436954D01*
X123037600Y-97373779D01*
X123037600Y-93510100D01*
X135816978Y-93510100D01*
X135837414Y-93717600D01*
X135897942Y-93917133D01*
X135996233Y-94101020D01*
X136128505Y-94262194D01*
X136197234Y-94318598D01*
X136289683Y-94394469D01*
X136473569Y-94492759D01*
X136673098Y-94553285D01*
X136880600Y-94573722D01*
X137088102Y-94553285D01*
X137287631Y-94492759D01*
X137471517Y-94394469D01*
X137632694Y-94262194D01*
X137764969Y-94101017D01*
X137863259Y-93917131D01*
X137923785Y-93717602D01*
X137944222Y-93510100D01*
X137923785Y-93302598D01*
X137863259Y-93103069D01*
X137764969Y-92919183D01*
X137764966Y-92919179D01*
X137632694Y-92758005D01*
X137471520Y-92625733D01*
X137471518Y-92625732D01*
X137471517Y-92625731D01*
X137287631Y-92527441D01*
X137187866Y-92497178D01*
X137088100Y-92466914D01*
X136880600Y-92446478D01*
X136673099Y-92466914D01*
X136473566Y-92527442D01*
X136289679Y-92625733D01*
X136128505Y-92758005D01*
X135996233Y-92919179D01*
X135897942Y-93103066D01*
X135837414Y-93302599D01*
X135816978Y-93510100D01*
X123037600Y-93510100D01*
X123037600Y-70520100D01*
X123057285Y-70453061D01*
X123110089Y-70407306D01*
X123161600Y-70396100D01*
X129136600Y-70396100D01*
X129203639Y-70415785D01*
G37*
%TD.AperFunction*%
%TD*%
M02*
