%TF.GenerationSoftware,KiCad,Pcbnew,7.0.8*%
%TF.CreationDate,2024-06-11T21:18:20+02:00*%
%TF.ProjectId,Stima V4 GSM R1_1,5374696d-6120-4563-9420-47534d205231,rev?*%
%TF.SameCoordinates,Original*%
%TF.FileFunction,Copper,L2,Inr*%
%TF.FilePolarity,Positive*%
%FSLAX46Y46*%
G04 Gerber Fmt 4.6, Leading zero omitted, Abs format (unit mm)*
G04 Created by KiCad (PCBNEW 7.0.8) date 2024-06-11 21:18:20*
%MOMM*%
%LPD*%
G01*
G04 APERTURE LIST*
%ADD10C,0.150000*%
%TA.AperFunction,NonConductor*%
%ADD11C,0.150000*%
%TD*%
%TA.AperFunction,ComponentPad*%
%ADD12C,5.500000*%
%TD*%
%TA.AperFunction,ComponentPad*%
%ADD13C,1.900000*%
%TD*%
%TA.AperFunction,ComponentPad*%
%ADD14C,2.100000*%
%TD*%
%TA.AperFunction,ComponentPad*%
%ADD15C,0.500000*%
%TD*%
%TA.AperFunction,ComponentPad*%
%ADD16R,2.560000X6.500000*%
%TD*%
%TA.AperFunction,ViaPad*%
%ADD17C,1.600000*%
%TD*%
%TA.AperFunction,ViaPad*%
%ADD18C,1.800000*%
%TD*%
%TA.AperFunction,ViaPad*%
%ADD19C,1.100000*%
%TD*%
G04 APERTURE END LIST*
D10*
D11*
X121764419Y-137242320D02*
X120764419Y-137242320D01*
X120764419Y-137242320D02*
X121478704Y-136908987D01*
X121478704Y-136908987D02*
X120764419Y-136575654D01*
X120764419Y-136575654D02*
X121764419Y-136575654D01*
X121764419Y-135623273D02*
X121764419Y-136099463D01*
X121764419Y-136099463D02*
X120764419Y-136099463D01*
X121764419Y-134766130D02*
X121764419Y-135337558D01*
X121764419Y-135051844D02*
X120764419Y-135051844D01*
X120764419Y-135051844D02*
X120907276Y-135147082D01*
X120907276Y-135147082D02*
X121002514Y-135242320D01*
X121002514Y-135242320D02*
X121050133Y-135337558D01*
X122145371Y-134051844D02*
X122097752Y-134099463D01*
X122097752Y-134099463D02*
X121954895Y-134194701D01*
X121954895Y-134194701D02*
X121859657Y-134242320D01*
X121859657Y-134242320D02*
X121716800Y-134289939D01*
X121716800Y-134289939D02*
X121478704Y-134337558D01*
X121478704Y-134337558D02*
X121288228Y-134337558D01*
X121288228Y-134337558D02*
X121050133Y-134289939D01*
X121050133Y-134289939D02*
X120907276Y-134242320D01*
X120907276Y-134242320D02*
X120812038Y-134194701D01*
X120812038Y-134194701D02*
X120669180Y-134099463D01*
X120669180Y-134099463D02*
X120621561Y-134051844D01*
X120812038Y-133147082D02*
X120764419Y-133242320D01*
X120764419Y-133242320D02*
X120764419Y-133385177D01*
X120764419Y-133385177D02*
X120812038Y-133528034D01*
X120812038Y-133528034D02*
X120907276Y-133623272D01*
X120907276Y-133623272D02*
X121002514Y-133670891D01*
X121002514Y-133670891D02*
X121192990Y-133718510D01*
X121192990Y-133718510D02*
X121335847Y-133718510D01*
X121335847Y-133718510D02*
X121526323Y-133670891D01*
X121526323Y-133670891D02*
X121621561Y-133623272D01*
X121621561Y-133623272D02*
X121716800Y-133528034D01*
X121716800Y-133528034D02*
X121764419Y-133385177D01*
X121764419Y-133385177D02*
X121764419Y-133289939D01*
X121764419Y-133289939D02*
X121716800Y-133147082D01*
X121716800Y-133147082D02*
X121669180Y-133099463D01*
X121669180Y-133099463D02*
X121335847Y-133099463D01*
X121335847Y-133099463D02*
X121335847Y-133289939D01*
X121764419Y-132670891D02*
X120764419Y-132670891D01*
X120764419Y-132670891D02*
X121764419Y-132099463D01*
X121764419Y-132099463D02*
X120764419Y-132099463D01*
X121764419Y-131623272D02*
X120764419Y-131623272D01*
X120764419Y-131623272D02*
X120764419Y-131385177D01*
X120764419Y-131385177D02*
X120812038Y-131242320D01*
X120812038Y-131242320D02*
X120907276Y-131147082D01*
X120907276Y-131147082D02*
X121002514Y-131099463D01*
X121002514Y-131099463D02*
X121192990Y-131051844D01*
X121192990Y-131051844D02*
X121335847Y-131051844D01*
X121335847Y-131051844D02*
X121526323Y-131099463D01*
X121526323Y-131099463D02*
X121621561Y-131147082D01*
X121621561Y-131147082D02*
X121716800Y-131242320D01*
X121716800Y-131242320D02*
X121764419Y-131385177D01*
X121764419Y-131385177D02*
X121764419Y-131623272D01*
X122145371Y-130718510D02*
X122097752Y-130670891D01*
X122097752Y-130670891D02*
X121954895Y-130575653D01*
X121954895Y-130575653D02*
X121859657Y-130528034D01*
X121859657Y-130528034D02*
X121716800Y-130480415D01*
X121716800Y-130480415D02*
X121478704Y-130432796D01*
X121478704Y-130432796D02*
X121288228Y-130432796D01*
X121288228Y-130432796D02*
X121050133Y-130480415D01*
X121050133Y-130480415D02*
X120907276Y-130528034D01*
X120907276Y-130528034D02*
X120812038Y-130575653D01*
X120812038Y-130575653D02*
X120669180Y-130670891D01*
X120669180Y-130670891D02*
X120621561Y-130718510D01*
D12*
%TO.N,unconnected-(A3-A-Pad1)*%
%TO.C,A3*%
X133705600Y-133515100D03*
%TD*%
D13*
%TO.N,+5V*%
%TO.C,U3*%
X170662600Y-136944100D03*
D14*
%TO.N,+3V3*%
X168122600Y-136944100D03*
%TO.N,unconnected-(U3-D7-Pad3)*%
X165582600Y-136944100D03*
%TO.N,unconnected-(U3-D8-Pad4)*%
X163042600Y-136944100D03*
%TO.N,unconnected-(U3-D9-Pad5)*%
X160502600Y-136944100D03*
%TO.N,unconnected-(U3-D10-Pad6)*%
X157962600Y-136944100D03*
%TO.N,unconnected-(U3-D11-Pad7)*%
X155422600Y-136944100D03*
%TO.N,unconnected-(U3-D12-Pad8)*%
X152882600Y-136944100D03*
D13*
%TO.N,unconnected-(U3-D13-Pad9)*%
X150342600Y-136944100D03*
%TO.N,unconnected-(U3-REF-Pad10)*%
X147802600Y-136944100D03*
%TO.N,unconnected-(U3-A0-Pad11)*%
X147802600Y-134404100D03*
%TO.N,unconnected-(U3-A1-Pad12)*%
X147802600Y-131864100D03*
%TO.N,unconnected-(U3-A2-Pad13)*%
X147802600Y-129324100D03*
D14*
%TO.N,unconnected-(U3-A3-Pad14)*%
X147802600Y-126784100D03*
%TO.N,unconnected-(U3-A4-Pad15)*%
X147802600Y-124244100D03*
%TO.N,unconnected-(U3-A5-Pad16)*%
X147802600Y-121704100D03*
%TO.N,unconnected-(U3-A6-Pad17)*%
X147802600Y-119164100D03*
D13*
%TO.N,unconnected-(U3-A7-Pad18)*%
X147802600Y-116624100D03*
%TO.N,/USART2_RX*%
X150342600Y-116624100D03*
%TO.N,/USART2_TX*%
X152882600Y-116624100D03*
%TO.N,unconnected-(U3-D2-Pad21)*%
X155422600Y-116624100D03*
%TO.N,unconnected-(U3-D3-Pad22)*%
X157962600Y-116624100D03*
%TO.N,/EN_PW_GSM*%
X160502600Y-116624100D03*
D14*
%TO.N,/PWRKEY*%
X163042600Y-116624100D03*
%TO.N,/RI*%
X165582600Y-116624100D03*
%TO.N,/RST*%
X168122600Y-116624100D03*
%TO.N,GND*%
X170662600Y-116624100D03*
%TD*%
D15*
%TO.N,*%
%TO.C,U5*%
X129387600Y-120815100D03*
X130276600Y-120815100D03*
X131165600Y-120815100D03*
X129387600Y-118783100D03*
X131165600Y-118783100D03*
X129387600Y-116751100D03*
X130276600Y-116751100D03*
X131165600Y-116751100D03*
D16*
%TO.N,GND*%
X130276600Y-118783100D03*
%TD*%
D12*
%TO.N,unconnected-(A4-A-Pad1)*%
%TO.C,A4*%
X133705600Y-75349100D03*
%TD*%
D17*
%TO.N,+3V8*%
X125069600Y-116116100D03*
D18*
X171426200Y-74585500D03*
D19*
X168122600Y-74587100D03*
X125323600Y-97320100D03*
X170916600Y-88430100D03*
D17*
X123926600Y-116116100D03*
D19*
X156946600Y-71666100D03*
D18*
%TO.N,+1V8*%
X136882200Y-124877500D03*
D19*
X141325600Y-115862100D03*
X143865600Y-113957100D03*
%TO.N,GND*%
X130276600Y-115608100D03*
D18*
X171426200Y-78649500D03*
D19*
X167614600Y-81572100D03*
X135039100Y-111734600D03*
X147548600Y-108877100D03*
X130276600Y-119799100D03*
X172821600Y-138341100D03*
X155930600Y-120942100D03*
X153390600Y-77381100D03*
X170789600Y-92875100D03*
X129768600Y-86271100D03*
X141833600Y-121577100D03*
X143103600Y-130848100D03*
X130276600Y-122085100D03*
X151485600Y-108877100D03*
D18*
X125960200Y-127036500D03*
D19*
X134975600Y-127927100D03*
X142468600Y-113576100D03*
X161264600Y-112687100D03*
X154914600Y-125260100D03*
X142468600Y-117386100D03*
X130276600Y-117767100D03*
X128371600Y-108750100D03*
X145897600Y-76365100D03*
X130276600Y-90589100D03*
X170662600Y-113830100D03*
%TO.N,+5V*%
X135229600Y-115100100D03*
D17*
X135229600Y-118148100D03*
D18*
X127357200Y-132370500D03*
%TO.N,+3V3*%
X139549200Y-136688500D03*
D19*
X145897600Y-120307100D03*
%TO.N,Net-(DZ5-TVS2)*%
X155549600Y-119291100D03*
X158597600Y-113703100D03*
X154914600Y-123609100D03*
%TO.N,Net-(DZ5-TVS1)*%
X154787600Y-134023100D03*
X155930600Y-122339100D03*
%TO.N,Net-(DZ5-TVS5)*%
X154914600Y-130340100D03*
X151739600Y-122847100D03*
%TO.N,/PWRKEY*%
X138023600Y-122339100D03*
%TO.N,Net-(U1-USIM_DATA)*%
X150342600Y-129705100D03*
X153390600Y-113703100D03*
%TO.N,Net-(U1-USIM_RTS)*%
X150342600Y-125768100D03*
X154787600Y-113703100D03*
%TO.N,/EN_PW_GSM*%
X143611600Y-121704100D03*
%TO.N,Net-(U1-USIM_CLK)*%
X150342600Y-127927100D03*
X156438600Y-113703100D03*
%TO.N,Net-(U1-USIM_DET)*%
X144881600Y-77889100D03*
X154914600Y-132245100D03*
%TO.N,Net-(U1-RXD)*%
X139293600Y-124117100D03*
X136880600Y-93510100D03*
%TO.N,Net-(U1-RI)*%
X141960600Y-123863100D03*
X139039600Y-94526100D03*
%TO.N,Net-(U1-TXD)*%
X138277600Y-96558100D03*
X140690600Y-124244100D03*
%TO.N,/USART2_RX*%
X143230600Y-135928100D03*
%TO.N,/USART2_TX*%
X150215600Y-133769100D03*
%TO.N,/RI*%
X145008600Y-135039100D03*
%TD*%
%TA.AperFunction,Conductor*%
%TO.N,GND*%
G36*
X130157081Y-118918009D02*
G01*
X130233466Y-118958100D01*
X130297847Y-118958100D01*
X130360360Y-118942692D01*
X130414842Y-118894424D01*
X130421436Y-118952944D01*
X130421438Y-118952952D01*
X130427998Y-118971699D01*
X130431559Y-119041478D01*
X130396830Y-119102105D01*
X130334836Y-119134332D01*
X130310956Y-119136653D01*
X130242244Y-119136653D01*
X130175205Y-119116968D01*
X130129450Y-119064164D01*
X130119506Y-118995006D01*
X130125202Y-118971699D01*
X130129960Y-118958100D01*
X130131762Y-118952950D01*
X130138699Y-118891378D01*
X130157081Y-118918009D01*
G37*
%TD.AperFunction*%
%TA.AperFunction,Conductor*%
G36*
X130377995Y-118449232D02*
G01*
X130423750Y-118502036D01*
X130433694Y-118571194D01*
X130427998Y-118594501D01*
X130421438Y-118613247D01*
X130421436Y-118613255D01*
X130414499Y-118674819D01*
X130396119Y-118648191D01*
X130319734Y-118608100D01*
X130255353Y-118608100D01*
X130192840Y-118623508D01*
X130138356Y-118671776D01*
X130131763Y-118613255D01*
X130131761Y-118613247D01*
X130125202Y-118594501D01*
X130121641Y-118524722D01*
X130156370Y-118464095D01*
X130218364Y-118431868D01*
X130242244Y-118429547D01*
X130310956Y-118429547D01*
X130377995Y-118449232D01*
G37*
%TD.AperFunction*%
%TA.AperFunction,Conductor*%
G36*
X129203639Y-70415785D02*
G01*
X129249394Y-70468589D01*
X129260600Y-70520100D01*
X129260600Y-79713100D01*
X135737600Y-79713100D01*
X137561600Y-77889100D01*
X143817978Y-77889100D01*
X143838414Y-78096600D01*
X143898942Y-78296133D01*
X143997233Y-78480020D01*
X144129505Y-78641194D01*
X144290679Y-78773466D01*
X144290683Y-78773469D01*
X144474569Y-78871759D01*
X144674098Y-78932285D01*
X144881600Y-78952722D01*
X145089102Y-78932285D01*
X145288631Y-78871759D01*
X145472517Y-78773469D01*
X145633694Y-78641194D01*
X145765969Y-78480017D01*
X145864259Y-78296131D01*
X145924785Y-78096602D01*
X145945222Y-77889100D01*
X145924785Y-77681598D01*
X145864259Y-77482069D01*
X145765969Y-77298183D01*
X145663316Y-77173100D01*
X145633694Y-77137005D01*
X145472520Y-77004733D01*
X145472518Y-77004732D01*
X145472517Y-77004731D01*
X145288631Y-76906441D01*
X145188866Y-76876178D01*
X145089100Y-76845914D01*
X144881600Y-76825478D01*
X144674099Y-76845914D01*
X144474566Y-76906442D01*
X144290679Y-77004733D01*
X144129505Y-77137005D01*
X143997233Y-77298179D01*
X143898942Y-77482066D01*
X143838414Y-77681599D01*
X143817978Y-77889100D01*
X137561600Y-77889100D01*
X138277600Y-77173100D01*
X138277600Y-74587100D01*
X167058978Y-74587100D01*
X167079414Y-74794600D01*
X167139942Y-74994133D01*
X167238233Y-75178020D01*
X167370505Y-75339194D01*
X167509890Y-75453584D01*
X167531683Y-75471469D01*
X167715569Y-75569759D01*
X167915098Y-75630285D01*
X168122600Y-75650722D01*
X168330102Y-75630285D01*
X168529631Y-75569759D01*
X168713517Y-75471469D01*
X168874694Y-75339194D01*
X169006969Y-75178017D01*
X169105259Y-74994131D01*
X169165785Y-74794602D01*
X169186222Y-74587100D01*
X169186065Y-74585505D01*
X170012873Y-74585505D01*
X170032148Y-74818122D01*
X170089451Y-75044407D01*
X170183215Y-75258168D01*
X170310886Y-75453584D01*
X170417832Y-75569757D01*
X170468980Y-75625318D01*
X170653183Y-75768690D01*
X170653185Y-75768691D01*
X170653188Y-75768693D01*
X170772531Y-75833277D01*
X170858473Y-75879787D01*
X170973114Y-75919143D01*
X171079245Y-75955579D01*
X171079247Y-75955579D01*
X171079249Y-75955580D01*
X171309488Y-75994000D01*
X171309489Y-75994000D01*
X171542911Y-75994000D01*
X171542912Y-75994000D01*
X171773151Y-75955580D01*
X171993927Y-75879787D01*
X172199217Y-75768690D01*
X172383420Y-75625318D01*
X172541514Y-75453583D01*
X172669184Y-75258169D01*
X172762949Y-75044407D01*
X172820251Y-74818126D01*
X172834382Y-74647590D01*
X172839527Y-74585505D01*
X172839527Y-74585494D01*
X172826676Y-74430416D01*
X172820251Y-74352874D01*
X172762949Y-74126593D01*
X172669184Y-73912831D01*
X172541514Y-73717417D01*
X172541513Y-73717415D01*
X172383423Y-73545685D01*
X172383422Y-73545684D01*
X172383420Y-73545682D01*
X172199217Y-73402310D01*
X172199215Y-73402309D01*
X172199214Y-73402308D01*
X172199211Y-73402306D01*
X171993933Y-73291216D01*
X171993930Y-73291215D01*
X171993927Y-73291213D01*
X171993921Y-73291211D01*
X171993919Y-73291210D01*
X171773154Y-73215420D01*
X171600471Y-73186605D01*
X171542912Y-73177000D01*
X171309488Y-73177000D01*
X171263440Y-73184684D01*
X171079245Y-73215420D01*
X170858480Y-73291210D01*
X170858466Y-73291216D01*
X170653188Y-73402306D01*
X170653185Y-73402308D01*
X170468981Y-73545681D01*
X170468976Y-73545685D01*
X170310886Y-73717415D01*
X170183215Y-73912831D01*
X170089451Y-74126592D01*
X170032148Y-74352877D01*
X170012873Y-74585494D01*
X170012873Y-74585505D01*
X169186065Y-74585505D01*
X169165785Y-74379598D01*
X169105259Y-74180069D01*
X169006969Y-73996183D01*
X169006966Y-73996179D01*
X168874694Y-73835005D01*
X168713520Y-73702733D01*
X168713518Y-73702732D01*
X168713517Y-73702731D01*
X168529631Y-73604441D01*
X168429866Y-73574178D01*
X168330100Y-73543914D01*
X168122600Y-73523478D01*
X167915099Y-73543914D01*
X167715566Y-73604442D01*
X167531679Y-73702733D01*
X167370505Y-73835005D01*
X167238233Y-73996179D01*
X167139942Y-74180066D01*
X167079414Y-74379599D01*
X167058978Y-74587100D01*
X138277600Y-74587100D01*
X138277600Y-70520100D01*
X138297285Y-70453061D01*
X138350089Y-70407306D01*
X138401600Y-70396100D01*
X156650866Y-70396100D01*
X156717905Y-70415785D01*
X156763660Y-70468589D01*
X156773604Y-70537747D01*
X156744579Y-70601303D01*
X156686861Y-70638760D01*
X156539569Y-70683441D01*
X156539566Y-70683442D01*
X156355679Y-70781733D01*
X156194505Y-70914005D01*
X156062233Y-71075179D01*
X155963942Y-71259066D01*
X155903414Y-71458599D01*
X155882978Y-71666100D01*
X155903414Y-71873600D01*
X155903415Y-71873602D01*
X155963941Y-72073131D01*
X156034299Y-72204761D01*
X156062233Y-72257020D01*
X156194505Y-72418194D01*
X156355679Y-72550466D01*
X156355683Y-72550469D01*
X156539569Y-72648759D01*
X156739098Y-72709285D01*
X156946600Y-72729722D01*
X157154102Y-72709285D01*
X157353631Y-72648759D01*
X157537517Y-72550469D01*
X157698694Y-72418194D01*
X157830969Y-72257017D01*
X157929259Y-72073131D01*
X157989785Y-71873602D01*
X158010222Y-71666100D01*
X157989785Y-71458598D01*
X157929259Y-71259069D01*
X157830969Y-71075183D01*
X157830966Y-71075179D01*
X157698694Y-70914005D01*
X157537520Y-70781733D01*
X157537518Y-70781732D01*
X157537517Y-70781731D01*
X157353631Y-70683441D01*
X157206338Y-70638760D01*
X157147900Y-70600463D01*
X157119444Y-70536651D01*
X157130004Y-70467584D01*
X157176228Y-70415190D01*
X157242334Y-70396100D01*
X173713600Y-70396100D01*
X173780639Y-70415785D01*
X173826394Y-70468589D01*
X173837600Y-70520100D01*
X173837600Y-138979260D01*
X173817915Y-139046299D01*
X173765111Y-139092054D01*
X173713760Y-139103260D01*
X138401760Y-139148939D01*
X138334696Y-139129341D01*
X138288872Y-139076596D01*
X138277600Y-139024939D01*
X138277600Y-137704595D01*
X138297285Y-137637556D01*
X138350089Y-137591801D01*
X138419247Y-137581857D01*
X138482803Y-137610882D01*
X138492821Y-137620604D01*
X138591980Y-137728318D01*
X138776183Y-137871690D01*
X138776185Y-137871691D01*
X138776188Y-137871693D01*
X138881266Y-137928558D01*
X138981473Y-137982787D01*
X139092305Y-138020836D01*
X139202245Y-138058579D01*
X139202247Y-138058579D01*
X139202249Y-138058580D01*
X139432488Y-138097000D01*
X139432489Y-138097000D01*
X139665911Y-138097000D01*
X139665912Y-138097000D01*
X139896151Y-138058580D01*
X140116927Y-137982787D01*
X140322217Y-137871690D01*
X140506420Y-137728318D01*
X140664514Y-137556583D01*
X140792184Y-137361169D01*
X140885949Y-137147407D01*
X140943251Y-136921126D01*
X140952255Y-136812466D01*
X140962527Y-136688505D01*
X140962527Y-136688494D01*
X140948483Y-136519017D01*
X140943251Y-136455874D01*
X140885949Y-136229593D01*
X140792184Y-136015831D01*
X140734866Y-135928100D01*
X142166978Y-135928100D01*
X142187414Y-136135600D01*
X142187415Y-136135602D01*
X142247941Y-136335131D01*
X142319444Y-136468903D01*
X142346233Y-136519020D01*
X142478505Y-136680194D01*
X142592321Y-136773600D01*
X142639683Y-136812469D01*
X142823569Y-136910759D01*
X143023098Y-136971285D01*
X143230600Y-136991722D01*
X143438102Y-136971285D01*
X143637631Y-136910759D01*
X143821517Y-136812469D01*
X143982694Y-136680194D01*
X144114969Y-136519017D01*
X144213259Y-136335131D01*
X144273785Y-136135602D01*
X144282640Y-136045693D01*
X144308799Y-135980909D01*
X144365833Y-135940549D01*
X144435633Y-135937432D01*
X144464494Y-135948490D01*
X144601569Y-136021759D01*
X144801098Y-136082285D01*
X145008600Y-136102722D01*
X145216102Y-136082285D01*
X145415631Y-136021759D01*
X145599517Y-135923469D01*
X145760694Y-135791194D01*
X145892969Y-135630017D01*
X145991259Y-135446131D01*
X146051785Y-135246602D01*
X146072222Y-135039100D01*
X146051785Y-134831598D01*
X145991259Y-134632069D01*
X145892969Y-134448183D01*
X145856786Y-134404094D01*
X145760694Y-134287005D01*
X145599520Y-134154733D01*
X145599518Y-134154732D01*
X145599517Y-134154731D01*
X145415631Y-134056441D01*
X145305720Y-134023100D01*
X145216100Y-133995914D01*
X145008600Y-133975478D01*
X144801099Y-133995914D01*
X144601566Y-134056442D01*
X144417679Y-134154733D01*
X144256505Y-134287005D01*
X144124233Y-134448179D01*
X144025942Y-134632066D01*
X143965414Y-134831599D01*
X143956560Y-134921504D01*
X143930399Y-134986291D01*
X143873365Y-135026650D01*
X143803565Y-135029767D01*
X143774703Y-135018708D01*
X143637633Y-134945442D01*
X143637632Y-134945441D01*
X143637631Y-134945441D01*
X143512453Y-134907469D01*
X143438100Y-134884914D01*
X143230600Y-134864478D01*
X143023099Y-134884914D01*
X142823566Y-134945442D01*
X142639679Y-135043733D01*
X142478505Y-135176005D01*
X142346233Y-135337179D01*
X142247942Y-135521066D01*
X142187414Y-135720599D01*
X142166978Y-135928100D01*
X140734866Y-135928100D01*
X140695187Y-135867366D01*
X140664513Y-135820415D01*
X140506423Y-135648685D01*
X140506422Y-135648684D01*
X140506420Y-135648682D01*
X140322217Y-135505310D01*
X140322215Y-135505309D01*
X140322214Y-135505308D01*
X140322211Y-135505306D01*
X140116933Y-135394216D01*
X140116930Y-135394215D01*
X140116927Y-135394213D01*
X140116921Y-135394211D01*
X140116919Y-135394210D01*
X139896154Y-135318420D01*
X139723471Y-135289605D01*
X139665912Y-135280000D01*
X139432488Y-135280000D01*
X139386440Y-135287684D01*
X139202245Y-135318420D01*
X138981480Y-135394210D01*
X138981466Y-135394216D01*
X138776188Y-135505306D01*
X138776185Y-135505308D01*
X138591981Y-135648681D01*
X138591976Y-135648685D01*
X138492829Y-135756387D01*
X138432942Y-135792378D01*
X138363104Y-135790277D01*
X138305488Y-135750753D01*
X138278387Y-135686353D01*
X138277600Y-135672404D01*
X138277600Y-128735100D01*
X138221693Y-128679193D01*
X138150600Y-128608100D01*
X138150598Y-128608099D01*
X138150600Y-128608099D01*
X129514600Y-128562099D01*
X129514600Y-138979100D01*
X129494915Y-139046139D01*
X129442111Y-139091894D01*
X129390600Y-139103100D01*
X123161600Y-139103100D01*
X123094561Y-139083415D01*
X123048806Y-139030611D01*
X123037600Y-138979100D01*
X123037600Y-132370505D01*
X125943873Y-132370505D01*
X125963148Y-132603122D01*
X126020451Y-132829407D01*
X126114215Y-133043168D01*
X126241886Y-133238584D01*
X126355563Y-133362069D01*
X126399980Y-133410318D01*
X126584183Y-133553690D01*
X126584185Y-133553691D01*
X126584188Y-133553693D01*
X126633430Y-133580341D01*
X126789473Y-133664787D01*
X126904114Y-133704143D01*
X127010245Y-133740579D01*
X127010247Y-133740579D01*
X127010249Y-133740580D01*
X127240488Y-133779000D01*
X127240489Y-133779000D01*
X127473911Y-133779000D01*
X127473912Y-133779000D01*
X127704151Y-133740580D01*
X127924927Y-133664787D01*
X128130217Y-133553690D01*
X128314420Y-133410318D01*
X128472514Y-133238583D01*
X128600184Y-133043169D01*
X128693949Y-132829407D01*
X128751251Y-132603126D01*
X128770527Y-132370500D01*
X128767941Y-132339297D01*
X128757676Y-132215416D01*
X128751251Y-132137874D01*
X128693949Y-131911593D01*
X128600184Y-131697831D01*
X128472514Y-131502417D01*
X128472513Y-131502415D01*
X128314423Y-131330685D01*
X128314422Y-131330684D01*
X128314420Y-131330682D01*
X128130217Y-131187310D01*
X128130215Y-131187309D01*
X128130214Y-131187308D01*
X128130211Y-131187306D01*
X127924933Y-131076216D01*
X127924930Y-131076215D01*
X127924927Y-131076213D01*
X127924921Y-131076211D01*
X127924919Y-131076210D01*
X127704154Y-131000420D01*
X127531471Y-130971605D01*
X127473912Y-130962000D01*
X127240488Y-130962000D01*
X127194440Y-130969684D01*
X127010245Y-131000420D01*
X126789480Y-131076210D01*
X126789466Y-131076216D01*
X126584188Y-131187306D01*
X126584185Y-131187308D01*
X126399981Y-131330681D01*
X126399976Y-131330685D01*
X126241886Y-131502415D01*
X126114215Y-131697831D01*
X126020451Y-131911592D01*
X125963148Y-132137877D01*
X125943873Y-132370494D01*
X125943873Y-132370505D01*
X123037600Y-132370505D01*
X123037600Y-124877505D01*
X135468873Y-124877505D01*
X135488148Y-125110122D01*
X135545451Y-125336407D01*
X135639215Y-125550168D01*
X135766886Y-125745584D01*
X135924976Y-125917314D01*
X135924980Y-125917318D01*
X136109183Y-126060690D01*
X136109185Y-126060691D01*
X136109188Y-126060693D01*
X136228531Y-126125277D01*
X136314473Y-126171787D01*
X136429114Y-126211143D01*
X136535245Y-126247579D01*
X136535247Y-126247579D01*
X136535249Y-126247580D01*
X136765488Y-126286000D01*
X136765489Y-126286000D01*
X136998911Y-126286000D01*
X136998912Y-126286000D01*
X137229151Y-126247580D01*
X137449927Y-126171787D01*
X137655217Y-126060690D01*
X137839420Y-125917318D01*
X137997514Y-125745583D01*
X138125184Y-125550169D01*
X138218949Y-125336407D01*
X138276251Y-125110126D01*
X138293437Y-124902718D01*
X138318590Y-124837537D01*
X138374992Y-124796299D01*
X138444735Y-124792101D01*
X138505677Y-124826275D01*
X138512866Y-124834297D01*
X138541505Y-124869194D01*
X138702679Y-125001466D01*
X138702683Y-125001469D01*
X138886569Y-125099759D01*
X139086098Y-125160285D01*
X139293600Y-125180722D01*
X139501102Y-125160285D01*
X139700631Y-125099759D01*
X139848034Y-125020969D01*
X139916435Y-125006728D01*
X139981679Y-125031727D01*
X139985151Y-125034475D01*
X140099679Y-125128466D01*
X140099683Y-125128469D01*
X140283569Y-125226759D01*
X140483098Y-125287285D01*
X140690600Y-125307722D01*
X140898102Y-125287285D01*
X141097631Y-125226759D01*
X141281517Y-125128469D01*
X141442694Y-124996194D01*
X141511082Y-124912862D01*
X141568827Y-124873528D01*
X141638672Y-124871657D01*
X141642927Y-124872865D01*
X141753098Y-124906285D01*
X141960600Y-124926722D01*
X142168102Y-124906285D01*
X142367631Y-124845759D01*
X142551517Y-124747469D01*
X142712694Y-124615194D01*
X142844969Y-124454017D01*
X142943259Y-124270131D01*
X143003785Y-124070602D01*
X143024222Y-123863100D01*
X143003785Y-123655598D01*
X142943259Y-123456069D01*
X142844969Y-123272183D01*
X142836154Y-123261442D01*
X142712694Y-123111005D01*
X142551520Y-122978733D01*
X142551518Y-122978732D01*
X142551517Y-122978731D01*
X142367631Y-122880441D01*
X142257720Y-122847100D01*
X142168100Y-122819914D01*
X141960600Y-122799478D01*
X141753099Y-122819914D01*
X141553566Y-122880442D01*
X141369679Y-122978733D01*
X141208507Y-123111003D01*
X141140116Y-123194338D01*
X141082369Y-123233672D01*
X141012525Y-123235541D01*
X141008269Y-123234333D01*
X140898100Y-123200914D01*
X140898101Y-123200914D01*
X140690600Y-123180478D01*
X140483099Y-123200914D01*
X140283564Y-123261442D01*
X140136166Y-123340229D01*
X140067763Y-123354471D01*
X140002520Y-123329471D01*
X139999048Y-123326724D01*
X139884520Y-123232733D01*
X139884518Y-123232732D01*
X139884517Y-123232731D01*
X139700631Y-123134441D01*
X139558064Y-123091194D01*
X139501100Y-123073914D01*
X139293600Y-123053478D01*
X139086097Y-123073915D01*
X139068165Y-123079354D01*
X138998298Y-123079975D01*
X138939187Y-123042725D01*
X138909598Y-122979429D01*
X138918926Y-122910185D01*
X138922801Y-122902267D01*
X139006259Y-122746131D01*
X139066785Y-122546602D01*
X139087222Y-122339100D01*
X139066785Y-122131598D01*
X139006259Y-121932069D01*
X138907969Y-121748183D01*
X138871791Y-121704100D01*
X142547978Y-121704100D01*
X142568414Y-121911600D01*
X142579655Y-121948657D01*
X142628941Y-122111131D01*
X142706471Y-122256179D01*
X142727233Y-122295020D01*
X142859505Y-122456194D01*
X142993201Y-122565915D01*
X143020683Y-122588469D01*
X143204569Y-122686759D01*
X143404098Y-122747285D01*
X143611600Y-122767722D01*
X143819102Y-122747285D01*
X144018631Y-122686759D01*
X144202517Y-122588469D01*
X144363694Y-122456194D01*
X144495969Y-122295017D01*
X144594259Y-122111131D01*
X144654785Y-121911602D01*
X144675222Y-121704100D01*
X144654785Y-121496598D01*
X144594259Y-121297069D01*
X144495969Y-121113183D01*
X144495966Y-121113179D01*
X144363694Y-120952005D01*
X144202520Y-120819733D01*
X144202518Y-120819732D01*
X144202517Y-120819731D01*
X144018631Y-120721441D01*
X143918866Y-120691178D01*
X143819100Y-120660914D01*
X143611600Y-120640478D01*
X143404099Y-120660914D01*
X143204566Y-120721442D01*
X143020679Y-120819733D01*
X142859505Y-120952005D01*
X142727233Y-121113179D01*
X142628942Y-121297066D01*
X142568414Y-121496599D01*
X142547978Y-121704100D01*
X138871791Y-121704100D01*
X138775694Y-121587005D01*
X138614520Y-121454733D01*
X138614518Y-121454732D01*
X138614517Y-121454731D01*
X138430631Y-121356441D01*
X138330866Y-121326178D01*
X138231100Y-121295914D01*
X138023600Y-121275478D01*
X137816099Y-121295914D01*
X137616566Y-121356442D01*
X137432679Y-121454733D01*
X137271505Y-121587005D01*
X137139233Y-121748179D01*
X137040942Y-121932066D01*
X136980414Y-122131599D01*
X136959978Y-122339100D01*
X136980414Y-122546600D01*
X136980415Y-122546602D01*
X137040941Y-122746131D01*
X137128630Y-122910185D01*
X137139233Y-122930020D01*
X137271505Y-123091194D01*
X137405201Y-123200915D01*
X137432683Y-123223469D01*
X137616569Y-123321759D01*
X137816098Y-123382285D01*
X138023600Y-123402722D01*
X138231102Y-123382285D01*
X138249028Y-123376846D01*
X138318895Y-123376222D01*
X138378008Y-123413470D01*
X138407600Y-123476763D01*
X138398275Y-123546008D01*
X138394383Y-123553961D01*
X138310942Y-123710066D01*
X138250414Y-123909599D01*
X138243270Y-123982135D01*
X138217108Y-124046922D01*
X138160073Y-124087281D01*
X138090273Y-124090397D01*
X138029869Y-124055282D01*
X138016057Y-124037800D01*
X137997512Y-124009414D01*
X137839423Y-123837685D01*
X137839422Y-123837684D01*
X137839420Y-123837682D01*
X137655217Y-123694310D01*
X137655215Y-123694309D01*
X137655214Y-123694308D01*
X137655211Y-123694306D01*
X137449933Y-123583216D01*
X137449930Y-123583215D01*
X137449927Y-123583213D01*
X137449921Y-123583211D01*
X137449919Y-123583210D01*
X137229154Y-123507420D01*
X137045433Y-123476763D01*
X136998912Y-123469000D01*
X136765488Y-123469000D01*
X136719440Y-123476684D01*
X136535245Y-123507420D01*
X136314480Y-123583210D01*
X136314466Y-123583216D01*
X136109188Y-123694306D01*
X136109185Y-123694308D01*
X135924981Y-123837681D01*
X135924976Y-123837685D01*
X135766886Y-124009415D01*
X135639215Y-124204831D01*
X135545451Y-124418592D01*
X135488148Y-124644877D01*
X135468873Y-124877494D01*
X135468873Y-124877505D01*
X123037600Y-124877505D01*
X123037600Y-120815103D01*
X128624301Y-120815103D01*
X128643436Y-120984944D01*
X128643437Y-120984949D01*
X128699891Y-121146285D01*
X128723593Y-121184005D01*
X128742600Y-121249978D01*
X128742600Y-122058114D01*
X128757337Y-122132206D01*
X128757338Y-122132209D01*
X128813476Y-122216223D01*
X128897495Y-122272363D01*
X128897496Y-122272364D01*
X128971580Y-122287099D01*
X131581614Y-122287099D01*
X131655706Y-122272362D01*
X131655709Y-122272361D01*
X131739723Y-122216223D01*
X131795863Y-122132204D01*
X131795864Y-122132203D01*
X131810599Y-122058121D01*
X131810599Y-121249978D01*
X131829605Y-121184007D01*
X131853309Y-121146283D01*
X131892837Y-121033317D01*
X131909760Y-120984957D01*
X131909763Y-120984944D01*
X131928899Y-120815103D01*
X131928899Y-120815096D01*
X131909763Y-120645255D01*
X131909762Y-120645250D01*
X131893462Y-120598667D01*
X131853309Y-120483917D01*
X131762371Y-120339191D01*
X131730280Y-120307100D01*
X144833978Y-120307100D01*
X144854414Y-120514600D01*
X144879916Y-120598667D01*
X144914941Y-120714131D01*
X144968908Y-120815096D01*
X145013233Y-120898020D01*
X145145505Y-121059194D01*
X145251626Y-121146285D01*
X145306683Y-121191469D01*
X145490569Y-121289759D01*
X145690098Y-121350285D01*
X145897600Y-121370722D01*
X146105102Y-121350285D01*
X146105111Y-121350282D01*
X146109030Y-121349503D01*
X146111133Y-121349691D01*
X146111165Y-121349688D01*
X146111165Y-121349693D01*
X146178622Y-121355724D01*
X146233804Y-121398582D01*
X146257055Y-121464469D01*
X146256851Y-121480847D01*
X146239281Y-121704099D01*
X146258527Y-121948654D01*
X146315793Y-122187187D01*
X146409671Y-122413830D01*
X146491034Y-122546602D01*
X146537848Y-122622996D01*
X146697167Y-122809533D01*
X146773147Y-122874427D01*
X146779450Y-122879810D01*
X146817643Y-122938317D01*
X146818141Y-123008185D01*
X146780787Y-123067231D01*
X146779450Y-123068390D01*
X146697167Y-123138667D01*
X146537846Y-123325206D01*
X146409671Y-123534369D01*
X146315793Y-123761012D01*
X146258527Y-123999545D01*
X146239281Y-124244100D01*
X146258527Y-124488654D01*
X146315793Y-124727187D01*
X146409671Y-124953830D01*
X146516688Y-125128466D01*
X146537848Y-125162996D01*
X146697167Y-125349533D01*
X146773147Y-125414427D01*
X146779450Y-125419810D01*
X146817643Y-125478317D01*
X146818141Y-125548185D01*
X146780787Y-125607231D01*
X146779450Y-125608390D01*
X146697167Y-125678667D01*
X146537846Y-125865206D01*
X146409671Y-126074369D01*
X146315793Y-126301012D01*
X146258527Y-126539545D01*
X146239281Y-126784100D01*
X146258527Y-127028654D01*
X146315793Y-127267187D01*
X146409671Y-127493830D01*
X146537846Y-127702993D01*
X146537848Y-127702996D01*
X146697167Y-127889533D01*
X146855217Y-128024522D01*
X146893410Y-128083028D01*
X146893908Y-128152896D01*
X146856554Y-128211942D01*
X146850848Y-128216664D01*
X146811401Y-128247367D01*
X146647695Y-128425198D01*
X146647692Y-128425202D01*
X146515491Y-128627549D01*
X146418397Y-128848902D01*
X146359060Y-129083219D01*
X146339101Y-129324094D01*
X146339101Y-129324105D01*
X146359060Y-129564980D01*
X146418397Y-129799297D01*
X146515491Y-130020650D01*
X146588631Y-130132598D01*
X146647694Y-130223000D01*
X146811399Y-130400831D01*
X146933989Y-130496247D01*
X146974802Y-130552957D01*
X146978477Y-130622730D01*
X146943846Y-130683413D01*
X146933994Y-130691949D01*
X146863097Y-130747131D01*
X146811400Y-130787368D01*
X146647695Y-130965198D01*
X146647692Y-130965202D01*
X146515491Y-131167549D01*
X146418397Y-131388902D01*
X146359060Y-131623219D01*
X146339101Y-131864094D01*
X146339101Y-131864105D01*
X146359060Y-132104980D01*
X146418397Y-132339297D01*
X146515491Y-132560650D01*
X146610113Y-132705478D01*
X146647694Y-132763000D01*
X146811399Y-132940831D01*
X146933989Y-133036247D01*
X146974802Y-133092957D01*
X146978477Y-133162730D01*
X146943846Y-133223413D01*
X146933994Y-133231949D01*
X146850393Y-133297018D01*
X146811400Y-133327368D01*
X146647695Y-133505198D01*
X146647692Y-133505202D01*
X146515491Y-133707549D01*
X146418397Y-133928902D01*
X146359060Y-134163219D01*
X146339101Y-134404094D01*
X146339101Y-134404105D01*
X146359060Y-134644980D01*
X146418397Y-134879297D01*
X146515491Y-135100650D01*
X146564724Y-135176006D01*
X146647694Y-135303000D01*
X146811399Y-135480831D01*
X146933989Y-135576247D01*
X146974802Y-135632957D01*
X146978477Y-135702730D01*
X146943846Y-135763413D01*
X146933994Y-135771949D01*
X146910447Y-135790277D01*
X146811400Y-135867368D01*
X146647695Y-136045198D01*
X146647692Y-136045202D01*
X146515491Y-136247549D01*
X146418397Y-136468902D01*
X146359060Y-136703219D01*
X146339101Y-136944094D01*
X146339101Y-136944105D01*
X146359060Y-137184980D01*
X146418397Y-137419297D01*
X146515491Y-137640650D01*
X146636408Y-137825726D01*
X146647694Y-137843000D01*
X146811399Y-138020831D01*
X146811402Y-138020833D01*
X146811405Y-138020836D01*
X147002133Y-138169286D01*
X147002139Y-138169290D01*
X147002142Y-138169292D01*
X147214719Y-138284333D01*
X147333429Y-138325086D01*
X147443328Y-138362815D01*
X147443330Y-138362815D01*
X147443332Y-138362816D01*
X147681745Y-138402600D01*
X147681746Y-138402600D01*
X147923454Y-138402600D01*
X147923455Y-138402600D01*
X148161868Y-138362816D01*
X148390481Y-138284333D01*
X148603058Y-138169292D01*
X148793801Y-138020831D01*
X148957506Y-137843000D01*
X148968792Y-137825724D01*
X149021937Y-137780369D01*
X149091169Y-137770945D01*
X149154505Y-137800447D01*
X149176406Y-137825722D01*
X149187694Y-137843000D01*
X149351399Y-138020831D01*
X149351402Y-138020833D01*
X149351405Y-138020836D01*
X149542133Y-138169286D01*
X149542139Y-138169290D01*
X149542142Y-138169292D01*
X149754719Y-138284333D01*
X149873429Y-138325086D01*
X149983328Y-138362815D01*
X149983330Y-138362815D01*
X149983332Y-138362816D01*
X150221745Y-138402600D01*
X150221746Y-138402600D01*
X150463454Y-138402600D01*
X150463455Y-138402600D01*
X150701868Y-138362816D01*
X150930481Y-138284333D01*
X151143058Y-138169292D01*
X151333801Y-138020831D01*
X151456369Y-137887686D01*
X151516251Y-137851698D01*
X151586089Y-137853797D01*
X151641884Y-137891138D01*
X151777167Y-138049533D01*
X151963704Y-138208852D01*
X151963706Y-138208853D01*
X152172869Y-138337028D01*
X152279708Y-138381282D01*
X152399508Y-138430905D01*
X152638043Y-138488172D01*
X152882600Y-138507419D01*
X153127157Y-138488172D01*
X153365692Y-138430905D01*
X153592332Y-138337027D01*
X153801496Y-138208852D01*
X153988033Y-138049533D01*
X154058311Y-137967247D01*
X154116817Y-137929056D01*
X154186685Y-137928558D01*
X154245731Y-137965911D01*
X154246834Y-137967185D01*
X154317167Y-138049533D01*
X154503704Y-138208852D01*
X154503706Y-138208853D01*
X154712869Y-138337028D01*
X154819708Y-138381282D01*
X154939508Y-138430905D01*
X155178043Y-138488172D01*
X155422600Y-138507419D01*
X155667157Y-138488172D01*
X155905692Y-138430905D01*
X156132332Y-138337027D01*
X156341496Y-138208852D01*
X156528033Y-138049533D01*
X156598311Y-137967247D01*
X156656817Y-137929056D01*
X156726685Y-137928558D01*
X156785731Y-137965911D01*
X156786834Y-137967185D01*
X156857167Y-138049533D01*
X157043704Y-138208852D01*
X157043706Y-138208853D01*
X157252869Y-138337028D01*
X157359708Y-138381282D01*
X157479508Y-138430905D01*
X157718043Y-138488172D01*
X157962600Y-138507419D01*
X158207157Y-138488172D01*
X158445692Y-138430905D01*
X158672332Y-138337027D01*
X158881496Y-138208852D01*
X159068033Y-138049533D01*
X159138311Y-137967247D01*
X159196817Y-137929056D01*
X159266685Y-137928558D01*
X159325731Y-137965911D01*
X159326834Y-137967185D01*
X159397167Y-138049533D01*
X159583704Y-138208852D01*
X159583706Y-138208853D01*
X159792869Y-138337028D01*
X159899708Y-138381282D01*
X160019508Y-138430905D01*
X160258043Y-138488172D01*
X160502600Y-138507419D01*
X160747157Y-138488172D01*
X160985692Y-138430905D01*
X161212332Y-138337027D01*
X161421496Y-138208852D01*
X161608033Y-138049533D01*
X161678311Y-137967247D01*
X161736817Y-137929056D01*
X161806685Y-137928558D01*
X161865731Y-137965911D01*
X161866834Y-137967185D01*
X161937167Y-138049533D01*
X162123704Y-138208852D01*
X162123706Y-138208853D01*
X162332869Y-138337028D01*
X162439708Y-138381282D01*
X162559508Y-138430905D01*
X162798043Y-138488172D01*
X163042600Y-138507419D01*
X163287157Y-138488172D01*
X163525692Y-138430905D01*
X163752332Y-138337027D01*
X163961496Y-138208852D01*
X164148033Y-138049533D01*
X164218311Y-137967247D01*
X164276817Y-137929056D01*
X164346685Y-137928558D01*
X164405731Y-137965911D01*
X164406834Y-137967185D01*
X164477167Y-138049533D01*
X164663704Y-138208852D01*
X164663706Y-138208853D01*
X164872869Y-138337028D01*
X164979708Y-138381282D01*
X165099508Y-138430905D01*
X165338043Y-138488172D01*
X165582600Y-138507419D01*
X165827157Y-138488172D01*
X166065692Y-138430905D01*
X166292332Y-138337027D01*
X166501496Y-138208852D01*
X166688033Y-138049533D01*
X166758311Y-137967247D01*
X166816817Y-137929056D01*
X166886685Y-137928558D01*
X166945731Y-137965911D01*
X166946834Y-137967185D01*
X167017167Y-138049533D01*
X167203704Y-138208852D01*
X167203706Y-138208853D01*
X167412869Y-138337028D01*
X167519708Y-138381282D01*
X167639508Y-138430905D01*
X167878043Y-138488172D01*
X168122600Y-138507419D01*
X168367157Y-138488172D01*
X168605692Y-138430905D01*
X168832332Y-138337027D01*
X169041496Y-138208852D01*
X169228033Y-138049533D01*
X169363316Y-137891137D01*
X169421820Y-137852947D01*
X169491687Y-137852448D01*
X169548832Y-137887689D01*
X169671395Y-138020827D01*
X169671405Y-138020836D01*
X169862133Y-138169286D01*
X169862139Y-138169290D01*
X169862142Y-138169292D01*
X170074719Y-138284333D01*
X170193429Y-138325086D01*
X170303328Y-138362815D01*
X170303330Y-138362815D01*
X170303332Y-138362816D01*
X170541745Y-138402600D01*
X170541746Y-138402600D01*
X170783454Y-138402600D01*
X170783455Y-138402600D01*
X171021868Y-138362816D01*
X171250481Y-138284333D01*
X171463058Y-138169292D01*
X171653801Y-138020831D01*
X171817506Y-137843000D01*
X171949709Y-137640649D01*
X172046803Y-137419297D01*
X172106139Y-137184984D01*
X172122153Y-136991721D01*
X172126099Y-136944105D01*
X172126099Y-136944094D01*
X172111971Y-136773600D01*
X172106139Y-136703216D01*
X172046803Y-136468903D01*
X171949709Y-136247551D01*
X171937976Y-136229593D01*
X171817507Y-136045202D01*
X171817506Y-136045200D01*
X171653801Y-135867369D01*
X171653796Y-135867365D01*
X171653794Y-135867363D01*
X171463066Y-135718913D01*
X171463060Y-135718909D01*
X171250482Y-135603867D01*
X171250473Y-135603864D01*
X171021871Y-135525384D01*
X170809565Y-135489957D01*
X170783455Y-135485600D01*
X170541745Y-135485600D01*
X170515635Y-135489957D01*
X170303328Y-135525384D01*
X170074726Y-135603864D01*
X170074717Y-135603867D01*
X169862139Y-135718909D01*
X169862133Y-135718913D01*
X169671405Y-135867363D01*
X169671401Y-135867367D01*
X169548832Y-136000511D01*
X169488945Y-136036501D01*
X169419107Y-136034400D01*
X169363314Y-135997060D01*
X169228033Y-135838667D01*
X169041496Y-135679348D01*
X169032932Y-135674100D01*
X168832330Y-135551171D01*
X168605687Y-135457293D01*
X168367153Y-135400027D01*
X168367154Y-135400027D01*
X168122600Y-135380781D01*
X167878045Y-135400027D01*
X167639512Y-135457293D01*
X167412869Y-135551171D01*
X167203706Y-135679346D01*
X167017167Y-135838667D01*
X166946890Y-135920950D01*
X166888383Y-135959143D01*
X166818515Y-135959641D01*
X166759469Y-135922287D01*
X166758310Y-135920950D01*
X166752927Y-135914647D01*
X166688033Y-135838667D01*
X166501496Y-135679348D01*
X166492932Y-135674100D01*
X166292330Y-135551171D01*
X166065687Y-135457293D01*
X165827153Y-135400027D01*
X165827154Y-135400027D01*
X165582600Y-135380781D01*
X165338045Y-135400027D01*
X165099512Y-135457293D01*
X164872869Y-135551171D01*
X164663706Y-135679346D01*
X164477167Y-135838667D01*
X164406890Y-135920950D01*
X164348383Y-135959143D01*
X164278515Y-135959641D01*
X164219469Y-135922287D01*
X164218310Y-135920950D01*
X164212927Y-135914647D01*
X164148033Y-135838667D01*
X163961496Y-135679348D01*
X163952932Y-135674100D01*
X163752330Y-135551171D01*
X163525687Y-135457293D01*
X163287153Y-135400027D01*
X163287154Y-135400027D01*
X163042600Y-135380781D01*
X162798045Y-135400027D01*
X162559512Y-135457293D01*
X162332869Y-135551171D01*
X162123706Y-135679346D01*
X161937167Y-135838667D01*
X161866890Y-135920950D01*
X161808383Y-135959143D01*
X161738515Y-135959641D01*
X161679469Y-135922287D01*
X161678310Y-135920950D01*
X161672927Y-135914647D01*
X161608033Y-135838667D01*
X161421496Y-135679348D01*
X161412932Y-135674100D01*
X161212330Y-135551171D01*
X160985687Y-135457293D01*
X160747153Y-135400027D01*
X160747154Y-135400027D01*
X160502600Y-135380781D01*
X160258045Y-135400027D01*
X160019512Y-135457293D01*
X159792869Y-135551171D01*
X159583706Y-135679346D01*
X159397167Y-135838667D01*
X159326890Y-135920950D01*
X159268383Y-135959143D01*
X159198515Y-135959641D01*
X159139469Y-135922287D01*
X159138310Y-135920950D01*
X159132927Y-135914647D01*
X159068033Y-135838667D01*
X158881496Y-135679348D01*
X158872932Y-135674100D01*
X158672330Y-135551171D01*
X158445687Y-135457293D01*
X158207153Y-135400027D01*
X158207154Y-135400027D01*
X157962600Y-135380781D01*
X157718045Y-135400027D01*
X157479512Y-135457293D01*
X157252869Y-135551171D01*
X157043706Y-135679346D01*
X156857167Y-135838667D01*
X156786890Y-135920950D01*
X156728383Y-135959143D01*
X156658515Y-135959641D01*
X156599469Y-135922287D01*
X156598310Y-135920950D01*
X156592927Y-135914647D01*
X156528033Y-135838667D01*
X156341496Y-135679348D01*
X156332932Y-135674100D01*
X156132330Y-135551171D01*
X155905687Y-135457293D01*
X155667153Y-135400027D01*
X155667154Y-135400027D01*
X155422600Y-135380781D01*
X155178045Y-135400027D01*
X154939512Y-135457293D01*
X154712869Y-135551171D01*
X154503706Y-135679346D01*
X154317167Y-135838667D01*
X154246890Y-135920950D01*
X154188383Y-135959143D01*
X154118515Y-135959641D01*
X154059469Y-135922287D01*
X154058310Y-135920950D01*
X154052927Y-135914647D01*
X153988033Y-135838667D01*
X153801496Y-135679348D01*
X153792932Y-135674100D01*
X153592330Y-135551171D01*
X153365687Y-135457293D01*
X153127153Y-135400027D01*
X153127154Y-135400027D01*
X152882600Y-135380781D01*
X152638045Y-135400027D01*
X152399512Y-135457293D01*
X152172869Y-135551171D01*
X151963706Y-135679346D01*
X151777167Y-135838667D01*
X151641886Y-135997059D01*
X151583379Y-136035252D01*
X151513511Y-136035750D01*
X151456366Y-136000510D01*
X151401168Y-135940549D01*
X151333801Y-135867369D01*
X151333800Y-135867368D01*
X151333798Y-135867366D01*
X151333794Y-135867363D01*
X151143066Y-135718913D01*
X151143060Y-135718909D01*
X150930482Y-135603867D01*
X150930473Y-135603864D01*
X150701871Y-135525384D01*
X150489565Y-135489957D01*
X150463455Y-135485600D01*
X150221745Y-135485600D01*
X150195635Y-135489957D01*
X149983328Y-135525384D01*
X149754726Y-135603864D01*
X149754717Y-135603867D01*
X149542139Y-135718909D01*
X149542133Y-135718913D01*
X149351405Y-135867363D01*
X149351402Y-135867366D01*
X149187695Y-136045198D01*
X149187694Y-136045200D01*
X149176407Y-136062476D01*
X149123260Y-136107831D01*
X149054029Y-136117253D01*
X148990694Y-136087750D01*
X148968793Y-136062476D01*
X148957506Y-136045200D01*
X148793801Y-135867369D01*
X148671210Y-135771952D01*
X148630398Y-135715243D01*
X148626723Y-135645470D01*
X148661354Y-135584787D01*
X148671205Y-135576250D01*
X148793801Y-135480831D01*
X148957506Y-135303000D01*
X149089709Y-135100649D01*
X149186803Y-134879297D01*
X149246139Y-134644984D01*
X149250153Y-134596538D01*
X149275305Y-134531356D01*
X149331706Y-134490118D01*
X149401450Y-134485918D01*
X149458614Y-134517552D01*
X149458797Y-134517330D01*
X149460005Y-134518321D01*
X149461410Y-134519099D01*
X149463503Y-134521192D01*
X149576614Y-134614020D01*
X149624683Y-134653469D01*
X149808569Y-134751759D01*
X150008098Y-134812285D01*
X150215600Y-134832722D01*
X150423102Y-134812285D01*
X150622631Y-134751759D01*
X150806517Y-134653469D01*
X150967694Y-134521194D01*
X151099969Y-134360017D01*
X151198259Y-134176131D01*
X151244680Y-134023100D01*
X153723978Y-134023100D01*
X153744414Y-134230600D01*
X153761525Y-134287006D01*
X153804941Y-134430131D01*
X153893890Y-134596542D01*
X153903233Y-134614020D01*
X154035505Y-134775194D01*
X154169201Y-134884915D01*
X154196683Y-134907469D01*
X154380569Y-135005759D01*
X154580098Y-135066285D01*
X154787600Y-135086722D01*
X154995102Y-135066285D01*
X155194631Y-135005759D01*
X155378517Y-134907469D01*
X155539694Y-134775194D01*
X155671969Y-134614017D01*
X155770259Y-134430131D01*
X155830785Y-134230602D01*
X155851222Y-134023100D01*
X155830785Y-133815598D01*
X155770259Y-133616069D01*
X155671969Y-133432183D01*
X155614428Y-133362069D01*
X155535830Y-133266297D01*
X155537850Y-133264638D01*
X155509806Y-133213279D01*
X155514790Y-133143587D01*
X155552305Y-133091070D01*
X155666694Y-132997194D01*
X155798969Y-132836017D01*
X155897259Y-132652131D01*
X155957785Y-132452602D01*
X155978222Y-132245100D01*
X155957785Y-132037598D01*
X155897259Y-131838069D01*
X155798969Y-131654183D01*
X155798966Y-131654179D01*
X155666694Y-131493005D01*
X155560161Y-131405577D01*
X155539295Y-131388452D01*
X155499962Y-131330708D01*
X155498091Y-131260863D01*
X155534278Y-131201095D01*
X155539296Y-131196747D01*
X155550798Y-131187308D01*
X155666694Y-131092194D01*
X155798969Y-130931017D01*
X155897259Y-130747131D01*
X155957785Y-130547602D01*
X155978222Y-130340100D01*
X155957785Y-130132598D01*
X155897259Y-129933069D01*
X155798969Y-129749183D01*
X155762791Y-129705100D01*
X155666694Y-129588005D01*
X155505520Y-129455733D01*
X155505518Y-129455732D01*
X155505517Y-129455731D01*
X155321631Y-129357441D01*
X155211700Y-129324094D01*
X155122100Y-129296914D01*
X154914600Y-129276478D01*
X154707099Y-129296914D01*
X154507566Y-129357442D01*
X154323679Y-129455733D01*
X154162505Y-129588005D01*
X154030233Y-129749179D01*
X153931942Y-129933066D01*
X153871414Y-130132599D01*
X153850978Y-130340100D01*
X153871414Y-130547600D01*
X153873039Y-130552957D01*
X153931941Y-130747131D01*
X153967744Y-130814114D01*
X154030233Y-130931020D01*
X154162505Y-131092194D01*
X154289903Y-131196747D01*
X154329237Y-131254493D01*
X154331108Y-131324337D01*
X154294920Y-131384106D01*
X154289903Y-131388453D01*
X154162505Y-131493005D01*
X154030233Y-131654179D01*
X153931942Y-131838066D01*
X153871414Y-132037599D01*
X153850978Y-132245100D01*
X153871414Y-132452600D01*
X153871415Y-132452602D01*
X153931941Y-132652131D01*
X154018243Y-132813590D01*
X154030233Y-132836020D01*
X154166370Y-133001903D01*
X154164349Y-133003561D01*
X154192393Y-133054920D01*
X154187409Y-133124612D01*
X154149892Y-133177131D01*
X154035505Y-133271005D01*
X153903233Y-133432179D01*
X153804942Y-133616066D01*
X153744414Y-133815599D01*
X153723978Y-134023100D01*
X151244680Y-134023100D01*
X151258785Y-133976602D01*
X151279222Y-133769100D01*
X151258785Y-133561598D01*
X151198259Y-133362069D01*
X151099969Y-133178183D01*
X151087287Y-133162730D01*
X150967694Y-133017005D01*
X150806520Y-132884733D01*
X150806518Y-132884732D01*
X150806517Y-132884731D01*
X150622631Y-132786441D01*
X150522866Y-132756178D01*
X150423100Y-132725914D01*
X150215600Y-132705478D01*
X150008099Y-132725914D01*
X149808566Y-132786442D01*
X149624679Y-132884733D01*
X149463505Y-133017005D01*
X149331233Y-133178179D01*
X149232940Y-133362069D01*
X149193087Y-133493446D01*
X149154789Y-133551884D01*
X149090977Y-133580341D01*
X149021910Y-133569780D01*
X148970620Y-133525272D01*
X148957506Y-133505200D01*
X148793801Y-133327369D01*
X148671210Y-133231952D01*
X148630398Y-133175243D01*
X148626723Y-133105470D01*
X148661354Y-133044787D01*
X148671205Y-133036250D01*
X148793801Y-132940831D01*
X148957506Y-132763000D01*
X149089709Y-132560649D01*
X149186803Y-132339297D01*
X149246139Y-132104984D01*
X149266099Y-131864100D01*
X149263497Y-131832700D01*
X149248705Y-131654183D01*
X149246139Y-131623216D01*
X149186803Y-131388903D01*
X149089709Y-131167551D01*
X148957506Y-130965200D01*
X148793801Y-130787369D01*
X148671210Y-130691952D01*
X148630398Y-130635243D01*
X148626723Y-130565470D01*
X148661354Y-130504787D01*
X148671205Y-130496250D01*
X148793801Y-130400831D01*
X148957506Y-130223000D01*
X149089709Y-130020649D01*
X149098253Y-130001169D01*
X149143207Y-129947683D01*
X149209942Y-129926991D01*
X149277271Y-129945664D01*
X149323816Y-129997772D01*
X149330470Y-130014981D01*
X149359940Y-130112130D01*
X149458233Y-130296020D01*
X149590505Y-130457194D01*
X149700668Y-130547602D01*
X149751683Y-130589469D01*
X149935569Y-130687759D01*
X150135098Y-130748285D01*
X150342600Y-130768722D01*
X150550102Y-130748285D01*
X150749631Y-130687759D01*
X150933517Y-130589469D01*
X151094694Y-130457194D01*
X151226969Y-130296017D01*
X151325259Y-130112131D01*
X151385785Y-129912602D01*
X151406222Y-129705100D01*
X151385785Y-129497598D01*
X151325259Y-129298069D01*
X151226969Y-129114183D01*
X151201557Y-129083219D01*
X151094694Y-128953006D01*
X151044672Y-128911954D01*
X151005337Y-128854208D01*
X151003466Y-128784363D01*
X151039653Y-128724595D01*
X151044672Y-128720246D01*
X151094694Y-128679194D01*
X151226969Y-128518017D01*
X151325259Y-128334131D01*
X151385785Y-128134602D01*
X151406222Y-127927100D01*
X151385785Y-127719598D01*
X151325259Y-127520069D01*
X151226969Y-127336183D01*
X151178859Y-127277561D01*
X151094694Y-127175005D01*
X150933520Y-127042733D01*
X150933518Y-127042732D01*
X150933517Y-127042731D01*
X150773047Y-126956957D01*
X150723204Y-126907995D01*
X150707744Y-126839857D01*
X150731576Y-126774178D01*
X150773048Y-126738242D01*
X150933517Y-126652469D01*
X151094694Y-126520194D01*
X151226969Y-126359017D01*
X151325259Y-126175131D01*
X151385785Y-125975602D01*
X151406222Y-125768100D01*
X151385785Y-125560598D01*
X151325259Y-125361069D01*
X151226969Y-125177183D01*
X151213101Y-125160285D01*
X151094694Y-125016005D01*
X150933520Y-124883733D01*
X150933518Y-124883732D01*
X150933517Y-124883731D01*
X150749631Y-124785441D01*
X150624453Y-124747469D01*
X150550100Y-124724914D01*
X150342600Y-124704478D01*
X150135099Y-124724914D01*
X149935566Y-124785442D01*
X149751679Y-124883733D01*
X149590505Y-125016005D01*
X149458233Y-125177179D01*
X149359942Y-125361066D01*
X149299414Y-125560599D01*
X149278978Y-125768100D01*
X149278978Y-125774192D01*
X149276949Y-125774192D01*
X149265658Y-125833716D01*
X149217591Y-125884424D01*
X149149739Y-125901095D01*
X149083645Y-125878437D01*
X149060986Y-125857751D01*
X149040458Y-125833716D01*
X148908033Y-125678667D01*
X148825747Y-125608388D01*
X148787556Y-125549883D01*
X148787058Y-125480015D01*
X148824411Y-125420969D01*
X148825685Y-125419865D01*
X148908033Y-125349533D01*
X149067352Y-125162996D01*
X149195527Y-124953832D01*
X149289405Y-124727192D01*
X149346672Y-124488657D01*
X149365919Y-124244100D01*
X149346672Y-123999543D01*
X149289405Y-123761008D01*
X149215761Y-123583216D01*
X149195528Y-123534369D01*
X149098616Y-123376222D01*
X149067352Y-123325204D01*
X148908033Y-123138667D01*
X148825747Y-123068388D01*
X148787556Y-123009883D01*
X148787058Y-122940015D01*
X148824411Y-122880969D01*
X148825685Y-122879865D01*
X148864048Y-122847100D01*
X150675978Y-122847100D01*
X150696414Y-123054600D01*
X150713525Y-123111006D01*
X150756941Y-123254131D01*
X150842110Y-123413470D01*
X150855233Y-123438020D01*
X150987505Y-123599194D01*
X151122603Y-123710066D01*
X151148683Y-123731469D01*
X151332569Y-123829759D01*
X151532098Y-123890285D01*
X151739600Y-123910722D01*
X151947102Y-123890285D01*
X152146631Y-123829759D01*
X152330517Y-123731469D01*
X152479624Y-123609100D01*
X153850978Y-123609100D01*
X153871414Y-123816600D01*
X153871415Y-123816602D01*
X153929904Y-124009417D01*
X153931942Y-124016133D01*
X154030233Y-124200020D01*
X154162505Y-124361194D01*
X154323679Y-124493466D01*
X154323683Y-124493469D01*
X154507569Y-124591759D01*
X154707098Y-124652285D01*
X154914600Y-124672722D01*
X155122102Y-124652285D01*
X155321631Y-124591759D01*
X155505517Y-124493469D01*
X155666694Y-124361194D01*
X155798969Y-124200017D01*
X155897259Y-124016131D01*
X155957785Y-123816602D01*
X155978222Y-123609100D01*
X155969787Y-123523461D01*
X155982806Y-123454816D01*
X156030870Y-123404106D01*
X156081036Y-123387905D01*
X156138102Y-123382285D01*
X156337631Y-123321759D01*
X156521517Y-123223469D01*
X156682694Y-123091194D01*
X156814969Y-122930017D01*
X156913259Y-122746131D01*
X156973785Y-122546602D01*
X156994222Y-122339100D01*
X156973785Y-122131598D01*
X156913259Y-121932069D01*
X156814969Y-121748183D01*
X156778791Y-121704100D01*
X156682694Y-121587005D01*
X156521520Y-121454733D01*
X156521518Y-121454732D01*
X156521517Y-121454731D01*
X156337631Y-121356441D01*
X156237866Y-121326178D01*
X156138100Y-121295914D01*
X155930600Y-121275478D01*
X155723099Y-121295914D01*
X155523566Y-121356442D01*
X155339679Y-121454733D01*
X155178505Y-121587005D01*
X155046233Y-121748179D01*
X154947942Y-121932066D01*
X154887414Y-122131599D01*
X154866978Y-122339100D01*
X154875412Y-122424738D01*
X154862393Y-122493384D01*
X154814328Y-122544094D01*
X154764164Y-122560294D01*
X154707099Y-122565914D01*
X154507566Y-122626442D01*
X154323679Y-122724733D01*
X154162505Y-122857005D01*
X154030233Y-123018179D01*
X153931942Y-123202066D01*
X153871414Y-123401599D01*
X153850978Y-123609100D01*
X152479624Y-123609100D01*
X152491694Y-123599194D01*
X152623969Y-123438017D01*
X152722259Y-123254131D01*
X152782785Y-123054602D01*
X152803222Y-122847100D01*
X152782785Y-122639598D01*
X152722259Y-122440069D01*
X152623969Y-122256183D01*
X152591175Y-122216223D01*
X152491694Y-122095005D01*
X152330520Y-121962733D01*
X152330518Y-121962732D01*
X152330517Y-121962731D01*
X152146631Y-121864441D01*
X152046866Y-121834178D01*
X151947100Y-121803914D01*
X151739600Y-121783478D01*
X151532099Y-121803914D01*
X151332566Y-121864442D01*
X151148679Y-121962733D01*
X150987505Y-122095005D01*
X150855233Y-122256179D01*
X150756942Y-122440066D01*
X150696414Y-122639599D01*
X150675978Y-122847100D01*
X148864048Y-122847100D01*
X148908033Y-122809533D01*
X149067352Y-122622996D01*
X149195527Y-122413832D01*
X149289405Y-122187192D01*
X149346672Y-121948657D01*
X149365919Y-121704100D01*
X149346672Y-121459543D01*
X149289405Y-121221008D01*
X149222379Y-121059194D01*
X149195528Y-120994369D01*
X149067353Y-120785206D01*
X149067352Y-120785204D01*
X148908033Y-120598667D01*
X148825747Y-120528388D01*
X148787556Y-120469883D01*
X148787058Y-120400015D01*
X148824411Y-120340969D01*
X148825685Y-120339865D01*
X148908033Y-120269533D01*
X149067352Y-120082996D01*
X149195527Y-119873832D01*
X149289405Y-119647192D01*
X149346672Y-119408657D01*
X149365919Y-119164100D01*
X149346672Y-118919543D01*
X149289405Y-118681008D01*
X149239782Y-118561208D01*
X149195528Y-118454369D01*
X149105337Y-118307191D01*
X149067352Y-118245204D01*
X148908033Y-118058667D01*
X148749981Y-117923676D01*
X148711789Y-117865171D01*
X148711291Y-117795303D01*
X148748645Y-117736257D01*
X148754325Y-117731556D01*
X148793801Y-117700831D01*
X148957506Y-117523000D01*
X148968792Y-117505724D01*
X149021937Y-117460369D01*
X149091169Y-117450945D01*
X149154505Y-117480447D01*
X149176406Y-117505722D01*
X149187694Y-117523000D01*
X149351399Y-117700831D01*
X149351402Y-117700833D01*
X149351405Y-117700836D01*
X149542133Y-117849286D01*
X149542139Y-117849290D01*
X149542142Y-117849292D01*
X149754719Y-117964333D01*
X149860501Y-118000648D01*
X149983328Y-118042815D01*
X149983330Y-118042815D01*
X149983332Y-118042816D01*
X150221745Y-118082600D01*
X150221746Y-118082600D01*
X150463454Y-118082600D01*
X150463455Y-118082600D01*
X150701868Y-118042816D01*
X150930481Y-117964333D01*
X151143058Y-117849292D01*
X151333801Y-117700831D01*
X151497506Y-117523000D01*
X151508792Y-117505724D01*
X151561937Y-117460369D01*
X151631169Y-117450945D01*
X151694505Y-117480447D01*
X151716406Y-117505722D01*
X151727694Y-117523000D01*
X151891399Y-117700831D01*
X151891402Y-117700833D01*
X151891405Y-117700836D01*
X152082133Y-117849286D01*
X152082139Y-117849290D01*
X152082142Y-117849292D01*
X152294719Y-117964333D01*
X152400501Y-118000648D01*
X152523328Y-118042815D01*
X152523330Y-118042815D01*
X152523332Y-118042816D01*
X152761745Y-118082600D01*
X152761746Y-118082600D01*
X153003454Y-118082600D01*
X153003455Y-118082600D01*
X153241868Y-118042816D01*
X153470481Y-117964333D01*
X153683058Y-117849292D01*
X153873801Y-117700831D01*
X154037506Y-117523000D01*
X154048792Y-117505724D01*
X154101937Y-117460369D01*
X154171169Y-117450945D01*
X154234505Y-117480447D01*
X154256406Y-117505722D01*
X154267694Y-117523000D01*
X154431399Y-117700831D01*
X154431402Y-117700833D01*
X154431405Y-117700836D01*
X154622133Y-117849286D01*
X154622139Y-117849290D01*
X154622142Y-117849292D01*
X154834719Y-117964333D01*
X155063332Y-118042816D01*
X155156830Y-118058418D01*
X155219713Y-118088867D01*
X155256153Y-118148481D01*
X155254579Y-118218333D01*
X155215489Y-118276245D01*
X155172418Y-118299386D01*
X155147330Y-118306996D01*
X155142573Y-118308440D01*
X155142566Y-118308442D01*
X154958679Y-118406733D01*
X154797505Y-118539005D01*
X154665233Y-118700179D01*
X154566942Y-118884066D01*
X154506414Y-119083599D01*
X154485978Y-119291100D01*
X154506414Y-119498600D01*
X154528511Y-119571444D01*
X154551487Y-119647187D01*
X154566942Y-119698133D01*
X154665233Y-119882020D01*
X154797505Y-120043194D01*
X154958679Y-120175466D01*
X154958683Y-120175469D01*
X155142569Y-120273759D01*
X155342098Y-120334285D01*
X155549600Y-120354722D01*
X155757102Y-120334285D01*
X155956631Y-120273759D01*
X156140517Y-120175469D01*
X156301694Y-120043194D01*
X156433969Y-119882017D01*
X156532259Y-119698131D01*
X156592785Y-119498602D01*
X156613222Y-119291100D01*
X156592785Y-119083598D01*
X156532259Y-118884069D01*
X156433969Y-118700183D01*
X156418236Y-118681012D01*
X156301694Y-118539005D01*
X156140520Y-118406733D01*
X156140518Y-118406732D01*
X156140517Y-118406731D01*
X156055938Y-118361522D01*
X155956630Y-118308440D01*
X155820212Y-118267058D01*
X155761774Y-118228761D01*
X155733317Y-118164948D01*
X155743878Y-118095882D01*
X155790103Y-118043488D01*
X155815946Y-118031117D01*
X156010470Y-117964337D01*
X156010473Y-117964335D01*
X156010481Y-117964333D01*
X156223058Y-117849292D01*
X156413801Y-117700831D01*
X156577506Y-117523000D01*
X156588792Y-117505724D01*
X156641937Y-117460369D01*
X156711169Y-117450945D01*
X156774505Y-117480447D01*
X156796406Y-117505722D01*
X156807694Y-117523000D01*
X156971399Y-117700831D01*
X156971402Y-117700833D01*
X156971405Y-117700836D01*
X157162133Y-117849286D01*
X157162139Y-117849290D01*
X157162142Y-117849292D01*
X157374719Y-117964333D01*
X157480501Y-118000648D01*
X157603328Y-118042815D01*
X157603330Y-118042815D01*
X157603332Y-118042816D01*
X157841745Y-118082600D01*
X157841746Y-118082600D01*
X158083454Y-118082600D01*
X158083455Y-118082600D01*
X158321868Y-118042816D01*
X158550481Y-117964333D01*
X158763058Y-117849292D01*
X158953801Y-117700831D01*
X159117506Y-117523000D01*
X159128792Y-117505724D01*
X159181937Y-117460369D01*
X159251169Y-117450945D01*
X159314505Y-117480447D01*
X159336406Y-117505722D01*
X159347694Y-117523000D01*
X159511399Y-117700831D01*
X159511402Y-117700833D01*
X159511405Y-117700836D01*
X159702133Y-117849286D01*
X159702139Y-117849290D01*
X159702142Y-117849292D01*
X159914719Y-117964333D01*
X160020501Y-118000648D01*
X160143328Y-118042815D01*
X160143330Y-118042815D01*
X160143332Y-118042816D01*
X160381745Y-118082600D01*
X160381746Y-118082600D01*
X160623454Y-118082600D01*
X160623455Y-118082600D01*
X160861868Y-118042816D01*
X161090481Y-117964333D01*
X161303058Y-117849292D01*
X161493801Y-117700831D01*
X161616369Y-117567686D01*
X161676251Y-117531698D01*
X161746089Y-117533797D01*
X161801884Y-117571138D01*
X161937167Y-117729533D01*
X162123704Y-117888852D01*
X162174563Y-117920018D01*
X162332869Y-118017028D01*
X162396750Y-118043488D01*
X162559508Y-118110905D01*
X162798043Y-118168172D01*
X163042600Y-118187419D01*
X163287157Y-118168172D01*
X163525692Y-118110905D01*
X163752332Y-118017027D01*
X163961496Y-117888852D01*
X164148033Y-117729533D01*
X164218311Y-117647247D01*
X164276817Y-117609056D01*
X164346685Y-117608558D01*
X164405731Y-117645911D01*
X164406834Y-117647185D01*
X164477167Y-117729533D01*
X164663704Y-117888852D01*
X164714563Y-117920018D01*
X164872869Y-118017028D01*
X164936750Y-118043488D01*
X165099508Y-118110905D01*
X165338043Y-118168172D01*
X165582600Y-118187419D01*
X165827157Y-118168172D01*
X166065692Y-118110905D01*
X166292332Y-118017027D01*
X166501496Y-117888852D01*
X166688033Y-117729533D01*
X166758311Y-117647247D01*
X166816817Y-117609056D01*
X166886685Y-117608558D01*
X166945731Y-117645911D01*
X166946834Y-117647185D01*
X167017167Y-117729533D01*
X167203704Y-117888852D01*
X167254563Y-117920018D01*
X167412869Y-118017028D01*
X167476750Y-118043488D01*
X167639508Y-118110905D01*
X167878043Y-118168172D01*
X168122600Y-118187419D01*
X168367157Y-118168172D01*
X168605692Y-118110905D01*
X168832332Y-118017027D01*
X169041496Y-117888852D01*
X169228033Y-117729533D01*
X169387352Y-117542996D01*
X169467927Y-117411507D01*
X169519735Y-117364635D01*
X169579457Y-117353688D01*
X170022459Y-116910686D01*
X170082280Y-117024666D01*
X170195005Y-117151906D01*
X170334905Y-117248471D01*
X170376141Y-117264110D01*
X169934254Y-117705997D01*
X170008105Y-117757709D01*
X170008113Y-117757713D01*
X170214895Y-117854137D01*
X170214909Y-117854142D01*
X170435292Y-117913193D01*
X170435303Y-117913195D01*
X170662598Y-117933081D01*
X170662602Y-117933081D01*
X170889896Y-117913195D01*
X170889907Y-117913193D01*
X171110290Y-117854142D01*
X171110304Y-117854137D01*
X171317086Y-117757713D01*
X171390943Y-117705996D01*
X170949057Y-117264110D01*
X170990295Y-117248471D01*
X171130195Y-117151906D01*
X171242920Y-117024666D01*
X171302740Y-116910687D01*
X171744496Y-117352443D01*
X171796213Y-117278586D01*
X171892637Y-117071804D01*
X171892642Y-117071790D01*
X171951693Y-116851407D01*
X171951695Y-116851396D01*
X171971581Y-116624102D01*
X171971581Y-116624097D01*
X171951695Y-116396803D01*
X171951693Y-116396792D01*
X171892642Y-116176409D01*
X171892638Y-116176400D01*
X171796212Y-115969612D01*
X171744496Y-115895754D01*
X171302739Y-116337511D01*
X171242920Y-116223534D01*
X171130195Y-116096294D01*
X170990295Y-115999729D01*
X170949057Y-115984089D01*
X171390944Y-115542202D01*
X171317090Y-115490488D01*
X171110299Y-115394061D01*
X171110290Y-115394057D01*
X170889907Y-115335006D01*
X170889896Y-115335004D01*
X170662602Y-115315119D01*
X170662598Y-115315119D01*
X170435303Y-115335004D01*
X170435292Y-115335006D01*
X170214909Y-115394057D01*
X170214900Y-115394061D01*
X170008106Y-115490491D01*
X169934255Y-115542201D01*
X169934254Y-115542202D01*
X170376142Y-115984089D01*
X170334905Y-115999729D01*
X170195005Y-116096294D01*
X170082280Y-116223534D01*
X170022460Y-116337512D01*
X169579345Y-115894397D01*
X169515956Y-115881657D01*
X169467924Y-115836687D01*
X169387352Y-115705204D01*
X169228033Y-115518667D01*
X169041496Y-115359348D01*
X169041493Y-115359346D01*
X168832330Y-115231171D01*
X168605687Y-115137293D01*
X168367153Y-115080027D01*
X168367154Y-115080027D01*
X168122600Y-115060781D01*
X167878045Y-115080027D01*
X167639512Y-115137293D01*
X167412869Y-115231171D01*
X167203706Y-115359346D01*
X167017167Y-115518667D01*
X166946890Y-115600950D01*
X166888383Y-115639143D01*
X166818515Y-115639641D01*
X166759469Y-115602287D01*
X166758310Y-115600950D01*
X166752927Y-115594647D01*
X166688033Y-115518667D01*
X166501496Y-115359348D01*
X166501493Y-115359346D01*
X166292330Y-115231171D01*
X166065687Y-115137293D01*
X165827153Y-115080027D01*
X165827154Y-115080027D01*
X165582600Y-115060781D01*
X165338045Y-115080027D01*
X165099512Y-115137293D01*
X164872869Y-115231171D01*
X164663706Y-115359346D01*
X164477167Y-115518667D01*
X164406890Y-115600950D01*
X164348383Y-115639143D01*
X164278515Y-115639641D01*
X164219469Y-115602287D01*
X164218310Y-115600950D01*
X164212927Y-115594647D01*
X164148033Y-115518667D01*
X163961496Y-115359348D01*
X163961493Y-115359346D01*
X163752330Y-115231171D01*
X163525687Y-115137293D01*
X163287153Y-115080027D01*
X163287154Y-115080027D01*
X163042600Y-115060781D01*
X162798045Y-115080027D01*
X162559512Y-115137293D01*
X162332869Y-115231171D01*
X162123706Y-115359346D01*
X161937167Y-115518667D01*
X161801886Y-115677059D01*
X161743379Y-115715252D01*
X161673511Y-115715750D01*
X161616366Y-115680510D01*
X161578285Y-115639143D01*
X161493801Y-115547369D01*
X161493800Y-115547368D01*
X161493798Y-115547366D01*
X161493794Y-115547363D01*
X161303066Y-115398913D01*
X161303060Y-115398909D01*
X161090482Y-115283867D01*
X161090473Y-115283864D01*
X160861871Y-115205384D01*
X160683058Y-115175546D01*
X160623455Y-115165600D01*
X160381745Y-115165600D01*
X160334062Y-115173556D01*
X160143328Y-115205384D01*
X159914726Y-115283864D01*
X159914717Y-115283867D01*
X159702139Y-115398909D01*
X159702133Y-115398913D01*
X159511405Y-115547363D01*
X159511402Y-115547366D01*
X159347695Y-115725198D01*
X159347694Y-115725200D01*
X159336407Y-115742476D01*
X159283260Y-115787831D01*
X159214029Y-115797253D01*
X159150694Y-115767750D01*
X159128793Y-115742476D01*
X159117506Y-115725200D01*
X158953801Y-115547369D01*
X158953796Y-115547365D01*
X158953794Y-115547363D01*
X158763066Y-115398913D01*
X158763060Y-115398909D01*
X158550482Y-115283867D01*
X158550473Y-115283864D01*
X158321871Y-115205384D01*
X158143058Y-115175546D01*
X158083455Y-115165600D01*
X157841745Y-115165600D01*
X157794062Y-115173556D01*
X157603328Y-115205384D01*
X157374726Y-115283864D01*
X157374717Y-115283867D01*
X157162139Y-115398909D01*
X157162133Y-115398913D01*
X156971405Y-115547363D01*
X156971402Y-115547366D01*
X156807695Y-115725198D01*
X156807694Y-115725200D01*
X156796407Y-115742476D01*
X156743260Y-115787831D01*
X156674029Y-115797253D01*
X156610694Y-115767750D01*
X156588793Y-115742476D01*
X156577506Y-115725200D01*
X156413801Y-115547369D01*
X156413796Y-115547365D01*
X156413794Y-115547363D01*
X156223066Y-115398913D01*
X156223060Y-115398909D01*
X156010482Y-115283867D01*
X156010473Y-115283864D01*
X155781871Y-115205384D01*
X155603058Y-115175546D01*
X155543455Y-115165600D01*
X155301745Y-115165600D01*
X155254062Y-115173556D01*
X155063328Y-115205384D01*
X154834726Y-115283864D01*
X154834717Y-115283867D01*
X154622139Y-115398909D01*
X154622133Y-115398913D01*
X154431405Y-115547363D01*
X154431402Y-115547366D01*
X154267695Y-115725198D01*
X154267694Y-115725200D01*
X154256407Y-115742476D01*
X154203260Y-115787831D01*
X154134029Y-115797253D01*
X154070694Y-115767750D01*
X154048793Y-115742476D01*
X154037506Y-115725200D01*
X153873801Y-115547369D01*
X153873796Y-115547365D01*
X153873794Y-115547363D01*
X153683066Y-115398913D01*
X153683060Y-115398909D01*
X153470482Y-115283867D01*
X153470473Y-115283864D01*
X153241871Y-115205384D01*
X153063058Y-115175546D01*
X153003455Y-115165600D01*
X152761745Y-115165600D01*
X152714062Y-115173556D01*
X152523328Y-115205384D01*
X152294726Y-115283864D01*
X152294717Y-115283867D01*
X152082139Y-115398909D01*
X152082133Y-115398913D01*
X151891405Y-115547363D01*
X151891402Y-115547366D01*
X151727695Y-115725198D01*
X151727694Y-115725200D01*
X151716407Y-115742476D01*
X151663260Y-115787831D01*
X151594029Y-115797253D01*
X151530694Y-115767750D01*
X151508793Y-115742476D01*
X151497506Y-115725200D01*
X151333801Y-115547369D01*
X151333796Y-115547365D01*
X151333794Y-115547363D01*
X151143066Y-115398913D01*
X151143060Y-115398909D01*
X150930482Y-115283867D01*
X150930473Y-115283864D01*
X150701871Y-115205384D01*
X150523058Y-115175546D01*
X150463455Y-115165600D01*
X150221745Y-115165600D01*
X150174062Y-115173556D01*
X149983328Y-115205384D01*
X149754726Y-115283864D01*
X149754717Y-115283867D01*
X149542139Y-115398909D01*
X149542133Y-115398913D01*
X149351405Y-115547363D01*
X149351402Y-115547366D01*
X149187695Y-115725198D01*
X149187694Y-115725200D01*
X149176407Y-115742476D01*
X149123260Y-115787831D01*
X149054029Y-115797253D01*
X148990694Y-115767750D01*
X148968793Y-115742476D01*
X148957506Y-115725200D01*
X148793801Y-115547369D01*
X148793796Y-115547365D01*
X148793794Y-115547363D01*
X148603066Y-115398913D01*
X148603060Y-115398909D01*
X148390482Y-115283867D01*
X148390473Y-115283864D01*
X148161871Y-115205384D01*
X147983058Y-115175546D01*
X147923455Y-115165600D01*
X147681745Y-115165600D01*
X147634062Y-115173556D01*
X147443328Y-115205384D01*
X147214726Y-115283864D01*
X147214717Y-115283867D01*
X147002139Y-115398909D01*
X147002133Y-115398913D01*
X146811405Y-115547363D01*
X146811402Y-115547366D01*
X146647695Y-115725198D01*
X146647692Y-115725202D01*
X146515491Y-115927549D01*
X146418397Y-116148902D01*
X146359060Y-116383219D01*
X146339101Y-116624094D01*
X146339101Y-116624105D01*
X146359060Y-116864980D01*
X146418397Y-117099297D01*
X146515491Y-117320650D01*
X146629571Y-117495261D01*
X146647694Y-117523000D01*
X146811399Y-117700831D01*
X146850847Y-117731535D01*
X146891660Y-117788244D01*
X146895335Y-117858017D01*
X146860704Y-117918701D01*
X146855217Y-117923678D01*
X146697167Y-118058667D01*
X146537846Y-118245206D01*
X146409671Y-118454369D01*
X146315793Y-118681012D01*
X146258527Y-118919546D01*
X146240375Y-119150191D01*
X146215491Y-119215479D01*
X146159260Y-119256950D01*
X146104603Y-119263865D01*
X145897600Y-119243478D01*
X145690099Y-119263914D01*
X145490566Y-119324442D01*
X145306679Y-119422733D01*
X145145505Y-119555005D01*
X145013233Y-119716179D01*
X144914942Y-119900066D01*
X144854414Y-120099599D01*
X144833978Y-120307100D01*
X131730280Y-120307100D01*
X131641509Y-120218329D01*
X131641508Y-120218328D01*
X131496782Y-120127390D01*
X131335447Y-120070937D01*
X131335442Y-120070936D01*
X131238183Y-120059978D01*
X131173769Y-120032911D01*
X131164386Y-120024439D01*
X130874393Y-119734446D01*
X130840908Y-119673123D01*
X130845892Y-119603431D01*
X130887764Y-119547498D01*
X130953228Y-119523081D01*
X130989665Y-119525874D01*
X130995749Y-119527262D01*
X131165596Y-119546399D01*
X131165600Y-119546399D01*
X131165603Y-119546399D01*
X131233366Y-119538763D01*
X131311040Y-119530012D01*
X131379861Y-119542066D01*
X131412604Y-119565551D01*
X131810598Y-119963546D01*
X131810599Y-119963545D01*
X131810599Y-119217978D01*
X131829605Y-119152007D01*
X131853309Y-119114283D01*
X131895958Y-118992400D01*
X131909760Y-118952957D01*
X131909763Y-118952944D01*
X131928899Y-118783103D01*
X131928899Y-118783096D01*
X131909763Y-118613255D01*
X131909762Y-118613250D01*
X131883782Y-118539005D01*
X131853309Y-118451917D01*
X131851622Y-118449232D01*
X131829605Y-118414192D01*
X131810599Y-118348220D01*
X131810599Y-118148101D01*
X133916102Y-118148101D01*
X133936056Y-118376181D01*
X133936057Y-118376189D01*
X133995314Y-118597338D01*
X133995318Y-118597349D01*
X134052132Y-118719187D01*
X134092077Y-118804849D01*
X134223402Y-118992400D01*
X134385300Y-119154298D01*
X134572851Y-119285623D01*
X134584597Y-119291100D01*
X134780350Y-119382381D01*
X134780352Y-119382381D01*
X134780357Y-119382384D01*
X135001513Y-119441643D01*
X135164432Y-119455896D01*
X135229598Y-119461598D01*
X135229600Y-119461598D01*
X135229602Y-119461598D01*
X135286621Y-119456609D01*
X135457687Y-119441643D01*
X135678843Y-119382384D01*
X135886349Y-119285623D01*
X136073900Y-119154298D01*
X136235798Y-118992400D01*
X136367123Y-118804849D01*
X136463884Y-118597343D01*
X136523143Y-118376187D01*
X136543098Y-118148100D01*
X136523143Y-117920013D01*
X136463884Y-117698857D01*
X136367123Y-117491351D01*
X136235798Y-117303800D01*
X136073900Y-117141902D01*
X135886349Y-117010577D01*
X135886345Y-117010575D01*
X135678849Y-116913818D01*
X135678838Y-116913814D01*
X135457689Y-116854557D01*
X135457681Y-116854556D01*
X135229602Y-116834602D01*
X135229598Y-116834602D01*
X135001518Y-116854556D01*
X135001510Y-116854557D01*
X134780361Y-116913814D01*
X134780350Y-116913818D01*
X134572854Y-117010575D01*
X134572852Y-117010576D01*
X134572851Y-117010577D01*
X134385300Y-117141902D01*
X134385298Y-117141903D01*
X134385295Y-117141906D01*
X134223406Y-117303795D01*
X134223403Y-117303798D01*
X134223402Y-117303800D01*
X134149290Y-117409642D01*
X134092076Y-117491352D01*
X134092075Y-117491354D01*
X133995318Y-117698850D01*
X133995314Y-117698861D01*
X133936057Y-117920010D01*
X133936056Y-117920018D01*
X133916102Y-118148098D01*
X133916102Y-118148101D01*
X131810599Y-118148101D01*
X131810599Y-117602653D01*
X131810598Y-117602652D01*
X131412603Y-118000648D01*
X131351280Y-118034133D01*
X131311039Y-118036187D01*
X131165604Y-118019801D01*
X131165596Y-118019801D01*
X130995747Y-118038937D01*
X130989653Y-118040328D01*
X130919915Y-118036047D01*
X130863561Y-117994743D01*
X130838485Y-117929528D01*
X130852646Y-117861109D01*
X130874392Y-117831753D01*
X131164386Y-117541759D01*
X131225709Y-117508274D01*
X131238152Y-117506224D01*
X131335450Y-117495262D01*
X131496783Y-117438809D01*
X131641509Y-117347871D01*
X131762371Y-117227009D01*
X131853309Y-117082283D01*
X131909762Y-116920950D01*
X131911527Y-116905285D01*
X131928899Y-116751103D01*
X131928899Y-116751096D01*
X131909763Y-116581255D01*
X131909762Y-116581250D01*
X131895015Y-116539105D01*
X131853309Y-116419917D01*
X131853308Y-116419915D01*
X131829605Y-116382192D01*
X131810599Y-116316220D01*
X131810599Y-115508085D01*
X131795862Y-115433993D01*
X131795861Y-115433990D01*
X131739723Y-115349976D01*
X131655704Y-115293836D01*
X131655703Y-115293835D01*
X131581619Y-115279100D01*
X128971585Y-115279100D01*
X128897493Y-115293837D01*
X128897490Y-115293838D01*
X128813476Y-115349976D01*
X128757336Y-115433995D01*
X128757335Y-115433996D01*
X128742600Y-115508078D01*
X128742600Y-116316221D01*
X128723594Y-116382193D01*
X128699891Y-116419915D01*
X128643437Y-116581250D01*
X128643436Y-116581255D01*
X128624301Y-116751096D01*
X128624301Y-116751103D01*
X128643436Y-116920944D01*
X128643437Y-116920949D01*
X128699891Y-117082283D01*
X128784166Y-117216406D01*
X128790829Y-117227009D01*
X128911691Y-117347871D01*
X129056417Y-117438809D01*
X129217750Y-117495262D01*
X129315018Y-117506221D01*
X129379427Y-117533285D01*
X129388812Y-117541759D01*
X129678806Y-117831753D01*
X129712291Y-117893076D01*
X129707307Y-117962768D01*
X129665435Y-118018701D01*
X129599971Y-118043118D01*
X129563541Y-118040327D01*
X129557450Y-118038937D01*
X129387604Y-118019801D01*
X129387596Y-118019801D01*
X129242159Y-118036187D01*
X129173337Y-118024132D01*
X129140595Y-118000648D01*
X128742600Y-117602652D01*
X128742600Y-118348222D01*
X128723594Y-118414194D01*
X128699889Y-118451920D01*
X128643439Y-118613242D01*
X128643436Y-118613255D01*
X128624301Y-118783096D01*
X128624301Y-118783103D01*
X128643436Y-118952944D01*
X128643437Y-118952949D01*
X128699891Y-119114285D01*
X128723593Y-119152005D01*
X128742600Y-119217978D01*
X128742600Y-119963546D01*
X129140594Y-119565551D01*
X129201917Y-119532066D01*
X129242158Y-119530012D01*
X129289299Y-119535323D01*
X129387597Y-119546399D01*
X129387600Y-119546399D01*
X129387604Y-119546399D01*
X129533042Y-119530012D01*
X129557450Y-119527262D01*
X129557451Y-119527261D01*
X129563529Y-119525875D01*
X129633268Y-119530146D01*
X129689626Y-119571444D01*
X129714711Y-119636655D01*
X129700558Y-119705076D01*
X129678805Y-119734446D01*
X129388812Y-120024439D01*
X129327489Y-120057924D01*
X129315015Y-120059978D01*
X129217757Y-120070936D01*
X129217752Y-120070937D01*
X129056417Y-120127390D01*
X128911691Y-120218328D01*
X128790828Y-120339191D01*
X128699891Y-120483916D01*
X128643437Y-120645250D01*
X128643436Y-120645255D01*
X128624301Y-120815096D01*
X128624301Y-120815103D01*
X123037600Y-120815103D01*
X123037600Y-117329200D01*
X123057285Y-117262161D01*
X123110089Y-117216406D01*
X123179247Y-117206462D01*
X123232721Y-117227624D01*
X123269851Y-117253623D01*
X123323385Y-117278586D01*
X123477350Y-117350381D01*
X123477352Y-117350381D01*
X123477357Y-117350384D01*
X123698513Y-117409643D01*
X123861432Y-117423896D01*
X123926598Y-117429598D01*
X123926600Y-117429598D01*
X123926602Y-117429598D01*
X123983621Y-117424609D01*
X124154687Y-117409643D01*
X124375843Y-117350384D01*
X124445695Y-117317810D01*
X124514772Y-117307319D01*
X124550504Y-117317810D01*
X124620357Y-117350384D01*
X124841513Y-117409643D01*
X125004432Y-117423896D01*
X125069598Y-117429598D01*
X125069600Y-117429598D01*
X125069602Y-117429598D01*
X125126621Y-117424609D01*
X125297687Y-117409643D01*
X125518843Y-117350384D01*
X125726349Y-117253623D01*
X125913900Y-117122298D01*
X126075798Y-116960400D01*
X126207123Y-116772849D01*
X126303884Y-116565343D01*
X126363143Y-116344187D01*
X126383098Y-116116100D01*
X126363143Y-115888013D01*
X126303884Y-115666857D01*
X126207123Y-115459351D01*
X126075798Y-115271800D01*
X125913900Y-115109902D01*
X125899901Y-115100100D01*
X134165978Y-115100100D01*
X134186414Y-115307600D01*
X134186415Y-115307602D01*
X134246941Y-115507131D01*
X134337770Y-115677059D01*
X134345233Y-115691020D01*
X134477505Y-115852194D01*
X134638679Y-115984466D01*
X134638683Y-115984469D01*
X134822569Y-116082759D01*
X135022098Y-116143285D01*
X135229600Y-116163722D01*
X135437102Y-116143285D01*
X135636631Y-116082759D01*
X135820517Y-115984469D01*
X135969624Y-115862100D01*
X140261978Y-115862100D01*
X140282414Y-116069600D01*
X140308116Y-116154329D01*
X140342941Y-116269131D01*
X140423537Y-116419915D01*
X140441233Y-116453020D01*
X140573505Y-116614194D01*
X140734679Y-116746466D01*
X140734683Y-116746469D01*
X140918569Y-116844759D01*
X141118098Y-116905285D01*
X141325600Y-116925722D01*
X141533102Y-116905285D01*
X141732631Y-116844759D01*
X141916517Y-116746469D01*
X142077694Y-116614194D01*
X142209969Y-116453017D01*
X142308259Y-116269131D01*
X142368785Y-116069602D01*
X142389222Y-115862100D01*
X142368785Y-115654598D01*
X142308259Y-115455069D01*
X142209969Y-115271183D01*
X142155969Y-115205384D01*
X142077694Y-115110005D01*
X141916520Y-114977733D01*
X141916518Y-114977732D01*
X141916517Y-114977731D01*
X141737074Y-114881816D01*
X141732633Y-114879442D01*
X141732632Y-114879441D01*
X141732631Y-114879441D01*
X141607453Y-114841469D01*
X141533100Y-114818914D01*
X141325600Y-114798478D01*
X141118099Y-114818914D01*
X140918566Y-114879442D01*
X140734679Y-114977733D01*
X140573505Y-115110005D01*
X140441233Y-115271179D01*
X140342942Y-115455066D01*
X140282414Y-115654599D01*
X140261978Y-115862100D01*
X135969624Y-115862100D01*
X135981694Y-115852194D01*
X136113969Y-115691017D01*
X136212259Y-115507131D01*
X136272785Y-115307602D01*
X136293222Y-115100100D01*
X136272785Y-114892598D01*
X136212259Y-114693069D01*
X136113969Y-114509183D01*
X136113966Y-114509179D01*
X135981694Y-114348005D01*
X135820520Y-114215733D01*
X135820518Y-114215732D01*
X135820517Y-114215731D01*
X135636631Y-114117441D01*
X135525414Y-114083704D01*
X135437100Y-114056914D01*
X135229600Y-114036478D01*
X135022099Y-114056914D01*
X134822566Y-114117442D01*
X134638679Y-114215733D01*
X134477505Y-114348005D01*
X134345233Y-114509179D01*
X134246942Y-114693066D01*
X134186414Y-114892599D01*
X134165978Y-115100100D01*
X125899901Y-115100100D01*
X125726349Y-114978577D01*
X125724535Y-114977731D01*
X125518849Y-114881818D01*
X125518838Y-114881814D01*
X125297689Y-114822557D01*
X125297681Y-114822556D01*
X125069602Y-114802602D01*
X125069598Y-114802602D01*
X124841518Y-114822556D01*
X124841510Y-114822557D01*
X124620361Y-114881814D01*
X124620359Y-114881815D01*
X124550504Y-114914389D01*
X124481426Y-114924880D01*
X124445696Y-114914389D01*
X124398967Y-114892599D01*
X124375843Y-114881816D01*
X124375840Y-114881815D01*
X124375838Y-114881814D01*
X124154689Y-114822557D01*
X124154681Y-114822556D01*
X123926602Y-114802602D01*
X123926598Y-114802602D01*
X123698518Y-114822556D01*
X123698510Y-114822557D01*
X123477361Y-114881814D01*
X123477350Y-114881818D01*
X123269854Y-114978575D01*
X123269846Y-114978579D01*
X123232723Y-115004574D01*
X123166517Y-115026901D01*
X123098750Y-115009891D01*
X123050937Y-114958943D01*
X123037600Y-114902999D01*
X123037600Y-113957100D01*
X142801978Y-113957100D01*
X142822414Y-114164600D01*
X142822415Y-114164602D01*
X142882941Y-114364131D01*
X142975033Y-114536422D01*
X142981233Y-114548020D01*
X143113505Y-114709194D01*
X143274679Y-114841466D01*
X143274683Y-114841469D01*
X143458569Y-114939759D01*
X143658098Y-115000285D01*
X143865600Y-115020722D01*
X144073102Y-115000285D01*
X144272631Y-114939759D01*
X144456517Y-114841469D01*
X144617694Y-114709194D01*
X144749969Y-114548017D01*
X144848259Y-114364131D01*
X144908785Y-114164602D01*
X144929222Y-113957100D01*
X144908785Y-113749598D01*
X144894680Y-113703100D01*
X152326978Y-113703100D01*
X152347414Y-113910600D01*
X152407942Y-114110133D01*
X152506233Y-114294020D01*
X152638505Y-114455194D01*
X152751614Y-114548020D01*
X152799683Y-114587469D01*
X152983569Y-114685759D01*
X153183098Y-114746285D01*
X153390600Y-114766722D01*
X153598102Y-114746285D01*
X153797631Y-114685759D01*
X153981517Y-114587469D01*
X154010438Y-114563733D01*
X154074743Y-114536422D01*
X154143611Y-114548212D01*
X154167755Y-114563728D01*
X154196683Y-114587469D01*
X154380569Y-114685759D01*
X154580098Y-114746285D01*
X154787600Y-114766722D01*
X154995102Y-114746285D01*
X155194631Y-114685759D01*
X155378517Y-114587469D01*
X155534435Y-114459510D01*
X155598745Y-114432197D01*
X155667612Y-114443988D01*
X155691765Y-114459510D01*
X155752291Y-114509183D01*
X155847683Y-114587469D01*
X156031569Y-114685759D01*
X156231098Y-114746285D01*
X156438600Y-114766722D01*
X156646102Y-114746285D01*
X156845631Y-114685759D01*
X157029517Y-114587469D01*
X157190694Y-114455194D01*
X157322969Y-114294017D01*
X157408742Y-114133547D01*
X157457705Y-114083704D01*
X157525843Y-114068244D01*
X157591522Y-114092076D01*
X157627458Y-114133548D01*
X157713233Y-114294020D01*
X157845505Y-114455194D01*
X157958614Y-114548020D01*
X158006683Y-114587469D01*
X158190569Y-114685759D01*
X158390098Y-114746285D01*
X158597600Y-114766722D01*
X158805102Y-114746285D01*
X159004631Y-114685759D01*
X159188517Y-114587469D01*
X159349694Y-114455194D01*
X159481969Y-114294017D01*
X159580259Y-114110131D01*
X159640785Y-113910602D01*
X159661222Y-113703100D01*
X159640785Y-113495598D01*
X159580259Y-113296069D01*
X159481969Y-113112183D01*
X159481966Y-113112179D01*
X159349694Y-112951005D01*
X159188520Y-112818733D01*
X159188518Y-112818732D01*
X159188517Y-112818731D01*
X159004631Y-112720441D01*
X158904866Y-112690178D01*
X158805100Y-112659914D01*
X158597600Y-112639478D01*
X158390099Y-112659914D01*
X158190566Y-112720442D01*
X158006679Y-112818733D01*
X157845505Y-112951005D01*
X157713233Y-113112179D01*
X157627458Y-113272651D01*
X157578495Y-113322495D01*
X157510357Y-113337955D01*
X157444678Y-113314123D01*
X157408742Y-113272651D01*
X157372584Y-113205005D01*
X157322969Y-113112183D01*
X157322966Y-113112179D01*
X157190694Y-112951005D01*
X157029520Y-112818733D01*
X157029518Y-112818732D01*
X157029517Y-112818731D01*
X156845631Y-112720441D01*
X156745866Y-112690178D01*
X156646100Y-112659914D01*
X156438600Y-112639478D01*
X156231099Y-112659914D01*
X156031566Y-112720442D01*
X155847679Y-112818733D01*
X155691765Y-112946689D01*
X155627455Y-112974002D01*
X155558587Y-112962211D01*
X155534435Y-112946689D01*
X155378520Y-112818733D01*
X155378518Y-112818732D01*
X155378517Y-112818731D01*
X155194631Y-112720441D01*
X155094866Y-112690178D01*
X154995100Y-112659914D01*
X154787600Y-112639478D01*
X154580099Y-112659914D01*
X154380566Y-112720442D01*
X154196679Y-112818733D01*
X154167765Y-112842463D01*
X154103455Y-112869776D01*
X154034587Y-112857985D01*
X154010435Y-112842463D01*
X153981520Y-112818733D01*
X153981518Y-112818732D01*
X153981517Y-112818731D01*
X153797631Y-112720441D01*
X153697866Y-112690178D01*
X153598100Y-112659914D01*
X153390600Y-112639478D01*
X153183099Y-112659914D01*
X152983566Y-112720442D01*
X152799679Y-112818733D01*
X152638505Y-112951005D01*
X152506233Y-113112179D01*
X152407942Y-113296066D01*
X152347414Y-113495599D01*
X152326978Y-113703100D01*
X144894680Y-113703100D01*
X144848259Y-113550069D01*
X144749969Y-113366183D01*
X144714115Y-113322495D01*
X144617694Y-113205005D01*
X144456520Y-113072733D01*
X144456518Y-113072732D01*
X144456517Y-113072731D01*
X144272631Y-112974441D01*
X144172866Y-112944178D01*
X144073100Y-112913914D01*
X143865600Y-112893478D01*
X143658099Y-112913914D01*
X143458566Y-112974442D01*
X143274679Y-113072733D01*
X143113505Y-113205005D01*
X142981233Y-113366179D01*
X142882942Y-113550066D01*
X142822414Y-113749599D01*
X142801978Y-113957100D01*
X123037600Y-113957100D01*
X123037600Y-106972100D01*
X136753600Y-106972100D01*
X136753600Y-110274100D01*
X140309600Y-110274100D01*
X140309600Y-106972100D01*
X136753600Y-106972100D01*
X123037600Y-106972100D01*
X123037600Y-97320100D01*
X124259978Y-97320100D01*
X124280414Y-97527600D01*
X124340942Y-97727133D01*
X124439233Y-97911020D01*
X124571505Y-98072194D01*
X124732679Y-98204466D01*
X124732683Y-98204469D01*
X124916569Y-98302759D01*
X125116098Y-98363285D01*
X125323600Y-98383722D01*
X125531102Y-98363285D01*
X125730631Y-98302759D01*
X125914517Y-98204469D01*
X126075694Y-98072194D01*
X126207969Y-97911017D01*
X126306259Y-97727131D01*
X126366785Y-97527602D01*
X126387222Y-97320100D01*
X126366785Y-97112598D01*
X126306259Y-96913069D01*
X126207969Y-96729183D01*
X126207966Y-96729179D01*
X126075694Y-96568005D01*
X126063625Y-96558100D01*
X137213978Y-96558100D01*
X137234414Y-96765600D01*
X137234415Y-96765602D01*
X137294941Y-96965131D01*
X137373764Y-97112598D01*
X137393233Y-97149020D01*
X137525505Y-97310194D01*
X137537576Y-97320100D01*
X137686683Y-97442469D01*
X137870569Y-97540759D01*
X138070098Y-97601285D01*
X138277600Y-97621722D01*
X138485102Y-97601285D01*
X138684631Y-97540759D01*
X138868517Y-97442469D01*
X139029694Y-97310194D01*
X139161969Y-97149017D01*
X139260259Y-96965131D01*
X139320785Y-96765602D01*
X139341222Y-96558100D01*
X139320785Y-96350598D01*
X139260259Y-96151069D01*
X139161969Y-95967183D01*
X139029694Y-95806006D01*
X139026860Y-95803680D01*
X139025772Y-95802083D01*
X139025387Y-95801698D01*
X139025460Y-95801624D01*
X138987527Y-95745933D01*
X138985658Y-95676088D01*
X139021846Y-95616321D01*
X139084603Y-95585606D01*
X139093352Y-95584427D01*
X139247102Y-95569285D01*
X139446631Y-95508759D01*
X139630517Y-95410469D01*
X139791694Y-95278194D01*
X139923969Y-95117017D01*
X140022259Y-94933131D01*
X140082785Y-94733602D01*
X140103222Y-94526100D01*
X140082785Y-94318598D01*
X140022259Y-94119069D01*
X139923969Y-93935183D01*
X139909154Y-93917131D01*
X139791694Y-93774005D01*
X139630520Y-93641733D01*
X139630518Y-93641732D01*
X139630517Y-93641731D01*
X139446631Y-93543441D01*
X139336720Y-93510100D01*
X139247100Y-93482914D01*
X139039600Y-93462478D01*
X138832099Y-93482914D01*
X138632566Y-93543442D01*
X138448679Y-93641733D01*
X138287505Y-93774005D01*
X138155233Y-93935179D01*
X138056942Y-94119066D01*
X137996414Y-94318599D01*
X137975978Y-94526100D01*
X137996414Y-94733600D01*
X138056942Y-94933133D01*
X138155233Y-95117020D01*
X138287505Y-95278194D01*
X138290337Y-95280518D01*
X138291422Y-95282111D01*
X138291813Y-95282502D01*
X138291738Y-95282576D01*
X138329671Y-95338264D01*
X138331542Y-95408109D01*
X138295354Y-95467877D01*
X138232598Y-95498593D01*
X138223826Y-95499774D01*
X138070099Y-95514914D01*
X137870566Y-95575442D01*
X137686679Y-95673733D01*
X137525505Y-95806005D01*
X137393233Y-95967179D01*
X137294942Y-96151066D01*
X137234414Y-96350599D01*
X137213978Y-96558100D01*
X126063625Y-96558100D01*
X125914520Y-96435733D01*
X125914518Y-96435732D01*
X125914517Y-96435731D01*
X125730631Y-96337441D01*
X125630866Y-96307178D01*
X125531100Y-96276914D01*
X125323600Y-96256478D01*
X125116099Y-96276914D01*
X124916566Y-96337442D01*
X124732679Y-96435733D01*
X124571505Y-96568005D01*
X124439233Y-96729179D01*
X124340942Y-96913066D01*
X124280414Y-97112599D01*
X124259978Y-97320100D01*
X123037600Y-97320100D01*
X123037600Y-93510100D01*
X135816978Y-93510100D01*
X135837414Y-93717600D01*
X135897942Y-93917133D01*
X135996233Y-94101020D01*
X136128505Y-94262194D01*
X136197234Y-94318598D01*
X136289683Y-94394469D01*
X136473569Y-94492759D01*
X136673098Y-94553285D01*
X136880600Y-94573722D01*
X137088102Y-94553285D01*
X137287631Y-94492759D01*
X137471517Y-94394469D01*
X137632694Y-94262194D01*
X137764969Y-94101017D01*
X137863259Y-93917131D01*
X137923785Y-93717602D01*
X137944222Y-93510100D01*
X137923785Y-93302598D01*
X137863259Y-93103069D01*
X137764969Y-92919183D01*
X137764966Y-92919179D01*
X137632694Y-92758005D01*
X137471520Y-92625733D01*
X137471518Y-92625732D01*
X137471517Y-92625731D01*
X137287631Y-92527441D01*
X137187866Y-92497178D01*
X137088100Y-92466914D01*
X136880600Y-92446478D01*
X136673099Y-92466914D01*
X136473566Y-92527442D01*
X136289679Y-92625733D01*
X136128505Y-92758005D01*
X135996233Y-92919179D01*
X135897942Y-93103066D01*
X135837414Y-93302599D01*
X135816978Y-93510100D01*
X123037600Y-93510100D01*
X123037600Y-88430100D01*
X169852978Y-88430100D01*
X169873414Y-88637600D01*
X169933942Y-88837133D01*
X170032233Y-89021020D01*
X170164505Y-89182194D01*
X170325679Y-89314466D01*
X170325683Y-89314469D01*
X170509569Y-89412759D01*
X170709098Y-89473285D01*
X170916600Y-89493722D01*
X171124102Y-89473285D01*
X171323631Y-89412759D01*
X171507517Y-89314469D01*
X171668694Y-89182194D01*
X171800969Y-89021017D01*
X171899259Y-88837131D01*
X171959785Y-88637602D01*
X171980222Y-88430100D01*
X171959785Y-88222598D01*
X171899259Y-88023069D01*
X171800969Y-87839183D01*
X171800966Y-87839179D01*
X171668694Y-87678005D01*
X171507520Y-87545733D01*
X171507518Y-87545732D01*
X171507517Y-87545731D01*
X171323631Y-87447441D01*
X171223866Y-87417178D01*
X171124100Y-87386914D01*
X170916600Y-87366478D01*
X170709099Y-87386914D01*
X170509566Y-87447442D01*
X170325679Y-87545733D01*
X170164505Y-87678005D01*
X170032233Y-87839179D01*
X169933942Y-88023066D01*
X169873414Y-88222599D01*
X169852978Y-88430100D01*
X123037600Y-88430100D01*
X123037600Y-70520100D01*
X123057285Y-70453061D01*
X123110089Y-70407306D01*
X123161600Y-70396100D01*
X129136600Y-70396100D01*
X129203639Y-70415785D01*
G37*
%TD.AperFunction*%
%TD*%
M02*
