G04 #@! TF.FileFunction,Other,Fab,Top*
%FSLAX46Y46*%
G04 Gerber Fmt 4.6, Leading zero omitted, Abs format (unit mm)*
G04 Created by KiCad (PCBNEW 4.0.6) date 07/30/17 23:46:32*
%MOMM*%
%LPD*%
G01*
G04 APERTURE LIST*
%ADD10C,0.100000*%
%ADD11C,0.300000*%
%ADD12C,0.150000*%
%ADD13C,0.075000*%
G04 APERTURE END LIST*
D10*
D11*
X131433971Y-70493715D02*
X131505400Y-70565144D01*
X131576829Y-70708001D01*
X131576829Y-71065144D01*
X131505400Y-71208001D01*
X131433971Y-71279430D01*
X131291114Y-71350858D01*
X131148257Y-71350858D01*
X130933971Y-71279430D01*
X130076829Y-70422287D01*
X130076829Y-71350858D01*
X131576829Y-71850858D02*
X131576829Y-72850858D01*
X130076829Y-72208001D01*
X130148257Y-73493714D02*
X130076829Y-73493714D01*
X129933971Y-73422286D01*
X129862543Y-73350857D01*
X130076829Y-74208000D02*
X130076829Y-74493715D01*
X130148257Y-74636572D01*
X130219686Y-74708000D01*
X130433971Y-74850858D01*
X130719686Y-74922286D01*
X131291114Y-74922286D01*
X131433971Y-74850858D01*
X131505400Y-74779429D01*
X131576829Y-74636572D01*
X131576829Y-74350858D01*
X131505400Y-74208000D01*
X131433971Y-74136572D01*
X131291114Y-74065143D01*
X130933971Y-74065143D01*
X130791114Y-74136572D01*
X130719686Y-74208000D01*
X130648257Y-74350858D01*
X130648257Y-74636572D01*
X130719686Y-74779429D01*
X130791114Y-74850858D01*
X130933971Y-74922286D01*
X131076829Y-76208000D02*
X130076829Y-76208000D01*
X131648257Y-75850857D02*
X130576829Y-75493714D01*
X130576829Y-76422286D01*
X131576829Y-77279428D02*
X131576829Y-77422285D01*
X131505400Y-77565142D01*
X131433971Y-77636571D01*
X131291114Y-77708000D01*
X131005400Y-77779428D01*
X130648257Y-77779428D01*
X130362543Y-77708000D01*
X130219686Y-77636571D01*
X130148257Y-77565142D01*
X130076829Y-77422285D01*
X130076829Y-77279428D01*
X130148257Y-77136571D01*
X130219686Y-77065142D01*
X130362543Y-76993714D01*
X130648257Y-76922285D01*
X131005400Y-76922285D01*
X131291114Y-76993714D01*
X131433971Y-77065142D01*
X131505400Y-77136571D01*
X131576829Y-77279428D01*
X130076829Y-79565142D02*
X131076829Y-79565142D01*
X130933971Y-79565142D02*
X131005400Y-79636570D01*
X131076829Y-79779428D01*
X131076829Y-79993713D01*
X131005400Y-80136570D01*
X130862543Y-80207999D01*
X130076829Y-80207999D01*
X130862543Y-80207999D02*
X131005400Y-80279428D01*
X131076829Y-80422285D01*
X131076829Y-80636570D01*
X131005400Y-80779428D01*
X130862543Y-80850856D01*
X130076829Y-80850856D01*
X130076829Y-81565142D02*
X131076829Y-81565142D01*
X130933971Y-81565142D02*
X131005400Y-81636570D01*
X131076829Y-81779428D01*
X131076829Y-81993713D01*
X131005400Y-82136570D01*
X130862543Y-82207999D01*
X130076829Y-82207999D01*
X130862543Y-82207999D02*
X131005400Y-82279428D01*
X131076829Y-82422285D01*
X131076829Y-82636570D01*
X131005400Y-82779428D01*
X130862543Y-82850856D01*
X130076829Y-82850856D01*
X132105400Y-62738000D02*
X132105400Y-90678000D01*
X134137400Y-62738000D02*
X129405400Y-62738000D01*
X134137400Y-90678000D02*
X129405400Y-90678000D01*
X132105400Y-90678000D02*
X131518979Y-89551496D01*
X132105400Y-90678000D02*
X132691821Y-89551496D01*
X132105400Y-62738000D02*
X131518979Y-63864504D01*
X132105400Y-62738000D02*
X132691821Y-63864504D01*
X144814115Y-95587429D02*
X144885544Y-95516000D01*
X145028401Y-95444571D01*
X145385544Y-95444571D01*
X145528401Y-95516000D01*
X145599830Y-95587429D01*
X145671258Y-95730286D01*
X145671258Y-95873143D01*
X145599830Y-96087429D01*
X144742687Y-96944571D01*
X145671258Y-96944571D01*
X147028401Y-95444571D02*
X146314115Y-95444571D01*
X146242686Y-96158857D01*
X146314115Y-96087429D01*
X146456972Y-96016000D01*
X146814115Y-96016000D01*
X146956972Y-96087429D01*
X147028401Y-96158857D01*
X147099829Y-96301714D01*
X147099829Y-96658857D01*
X147028401Y-96801714D01*
X146956972Y-96873143D01*
X146814115Y-96944571D01*
X146456972Y-96944571D01*
X146314115Y-96873143D01*
X146242686Y-96801714D01*
X147814114Y-96873143D02*
X147814114Y-96944571D01*
X147742686Y-97087429D01*
X147671257Y-97158857D01*
X149171258Y-95444571D02*
X148456972Y-95444571D01*
X148385543Y-96158857D01*
X148456972Y-96087429D01*
X148599829Y-96016000D01*
X148956972Y-96016000D01*
X149099829Y-96087429D01*
X149171258Y-96158857D01*
X149242686Y-96301714D01*
X149242686Y-96658857D01*
X149171258Y-96801714D01*
X149099829Y-96873143D01*
X148956972Y-96944571D01*
X148599829Y-96944571D01*
X148456972Y-96873143D01*
X148385543Y-96801714D01*
X149814114Y-95587429D02*
X149885543Y-95516000D01*
X150028400Y-95444571D01*
X150385543Y-95444571D01*
X150528400Y-95516000D01*
X150599829Y-95587429D01*
X150671257Y-95730286D01*
X150671257Y-95873143D01*
X150599829Y-96087429D01*
X149742686Y-96944571D01*
X150671257Y-96944571D01*
X151171257Y-95444571D02*
X152171257Y-95444571D01*
X151528400Y-96944571D01*
X153885542Y-96944571D02*
X153885542Y-95944571D01*
X153885542Y-96087429D02*
X153956970Y-96016000D01*
X154099828Y-95944571D01*
X154314113Y-95944571D01*
X154456970Y-96016000D01*
X154528399Y-96158857D01*
X154528399Y-96944571D01*
X154528399Y-96158857D02*
X154599828Y-96016000D01*
X154742685Y-95944571D01*
X154956970Y-95944571D01*
X155099828Y-96016000D01*
X155171256Y-96158857D01*
X155171256Y-96944571D01*
X155885542Y-96944571D02*
X155885542Y-95944571D01*
X155885542Y-96087429D02*
X155956970Y-96016000D01*
X156099828Y-95944571D01*
X156314113Y-95944571D01*
X156456970Y-96016000D01*
X156528399Y-96158857D01*
X156528399Y-96944571D01*
X156528399Y-96158857D02*
X156599828Y-96016000D01*
X156742685Y-95944571D01*
X156956970Y-95944571D01*
X157099828Y-96016000D01*
X157171256Y-96158857D01*
X157171256Y-96944571D01*
X164363400Y-94868999D02*
X138836400Y-94868999D01*
X164363400Y-92456000D02*
X164363400Y-97568999D01*
X138836400Y-92456000D02*
X138836400Y-97568999D01*
X138836400Y-94868999D02*
X139962904Y-94282578D01*
X138836400Y-94868999D02*
X139962904Y-95455420D01*
X164363400Y-94868999D02*
X163236896Y-94282578D01*
X164363400Y-94868999D02*
X163236896Y-95455420D01*
D10*
X158881000Y-77435000D02*
X157641000Y-77435000D01*
X158881000Y-75435000D02*
X158881000Y-77435000D01*
X157641000Y-75435000D02*
X158881000Y-75435000D01*
X157641000Y-77435000D02*
X157641000Y-75435000D01*
X145541000Y-75825000D02*
X144301000Y-75825000D01*
X145541000Y-73825000D02*
X145541000Y-75825000D01*
X144301000Y-73825000D02*
X145541000Y-73825000D01*
X144301000Y-75825000D02*
X144301000Y-73825000D01*
X152271000Y-82775000D02*
X151031000Y-82775000D01*
X152271000Y-80775000D02*
X152271000Y-82775000D01*
X151031000Y-80775000D02*
X152271000Y-80775000D01*
X151031000Y-82775000D02*
X151031000Y-80775000D01*
X145381000Y-87775000D02*
X144581000Y-87775000D01*
X144981000Y-87775000D02*
X145381000Y-88375000D01*
X144581000Y-88375000D02*
X144981000Y-87775000D01*
X145381000Y-88375000D02*
X144581000Y-88375000D01*
X144381000Y-89175000D02*
X144381000Y-87175000D01*
X145581000Y-89175000D02*
X144381000Y-89175000D01*
X145581000Y-87175000D02*
X145581000Y-89175000D01*
X144381000Y-87175000D02*
X145581000Y-87175000D01*
X158371000Y-87775000D02*
X157571000Y-87775000D01*
X157971000Y-87775000D02*
X158371000Y-88375000D01*
X157571000Y-88375000D02*
X157971000Y-87775000D01*
X158371000Y-88375000D02*
X157571000Y-88375000D01*
X157371000Y-89175000D02*
X157371000Y-87175000D01*
X158571000Y-89175000D02*
X157371000Y-89175000D01*
X158571000Y-87175000D02*
X158571000Y-89175000D01*
X157371000Y-87175000D02*
X158571000Y-87175000D01*
X144971000Y-79305000D02*
X144971000Y-78805000D01*
X145371000Y-79305000D02*
X144971000Y-79905000D01*
X144571000Y-79305000D02*
X145371000Y-79305000D01*
X144971000Y-79905000D02*
X144571000Y-79305000D01*
X144971000Y-79905000D02*
X145521000Y-79905000D01*
X144971000Y-79905000D02*
X144421000Y-79905000D01*
X144971000Y-80305000D02*
X144971000Y-79905000D01*
X145871000Y-80955000D02*
X144071000Y-80955000D01*
X145871000Y-78155000D02*
X145871000Y-80955000D01*
X144071000Y-78155000D02*
X145871000Y-78155000D01*
X144071000Y-80955000D02*
X144071000Y-78155000D01*
X143771000Y-68955000D02*
X143771000Y-67715000D01*
X145771000Y-68955000D02*
X143771000Y-68955000D01*
X145771000Y-67715000D02*
X145771000Y-68955000D01*
X143771000Y-67715000D02*
X145771000Y-67715000D01*
X143761000Y-71875000D02*
X143761000Y-70635000D01*
X145761000Y-71875000D02*
X143761000Y-71875000D01*
X145761000Y-70635000D02*
X145761000Y-71875000D01*
X143761000Y-70635000D02*
X145761000Y-70635000D01*
X144361000Y-83395000D02*
X145601000Y-83395000D01*
X144361000Y-85395000D02*
X144361000Y-83395000D01*
X145601000Y-85395000D02*
X144361000Y-85395000D01*
X145601000Y-83395000D02*
X145601000Y-85395000D01*
X157351000Y-83445000D02*
X158591000Y-83445000D01*
X157351000Y-85445000D02*
X157351000Y-83445000D01*
X158591000Y-85445000D02*
X157351000Y-85445000D01*
X158591000Y-83445000D02*
X158591000Y-85445000D01*
X149501000Y-80565000D02*
X149501000Y-81805000D01*
X147501000Y-80565000D02*
X149501000Y-80565000D01*
X147501000Y-81805000D02*
X147501000Y-80565000D01*
X149501000Y-81805000D02*
X147501000Y-81805000D01*
X147501000Y-84185000D02*
X147501000Y-82945000D01*
X149501000Y-84185000D02*
X147501000Y-84185000D01*
X149501000Y-82945000D02*
X149501000Y-84185000D01*
X147501000Y-82945000D02*
X149501000Y-82945000D01*
D12*
X149871000Y-68065000D02*
X154171000Y-68065000D01*
X154171000Y-68065000D02*
X154171000Y-78265000D01*
X154171000Y-78265000D02*
X148871000Y-78265000D01*
X148871000Y-78265000D02*
X148871000Y-69065000D01*
X148871000Y-69065000D02*
X149871000Y-68065000D01*
D10*
X155181000Y-91375000D02*
X155181000Y-86375000D01*
X148431000Y-90676704D02*
X154431000Y-90676704D01*
X147681000Y-91376704D02*
X155181000Y-91376704D01*
X147681000Y-86375000D02*
X155181000Y-86375000D01*
X147681000Y-91375000D02*
X147681000Y-86375000D01*
X150131000Y-86275000D02*
X149931000Y-86075000D01*
X150331000Y-86075000D02*
X150131000Y-86275000D01*
X149931000Y-85865000D02*
X150331000Y-85865000D01*
X149931000Y-85865000D02*
X149931000Y-86075000D01*
X150331000Y-85865000D02*
X150331000Y-86075000D01*
D12*
X155409572Y-80465381D02*
X154838143Y-80465381D01*
X155123857Y-80465381D02*
X155123857Y-79465381D01*
X155028619Y-79608238D01*
X154933381Y-79703476D01*
X154838143Y-79751095D01*
X156028619Y-79465381D02*
X156123858Y-79465381D01*
X156219096Y-79513000D01*
X156266715Y-79560619D01*
X156314334Y-79655857D01*
X156361953Y-79846333D01*
X156361953Y-80084429D01*
X156314334Y-80274905D01*
X156266715Y-80370143D01*
X156219096Y-80417762D01*
X156123858Y-80465381D01*
X156028619Y-80465381D01*
X155933381Y-80417762D01*
X155885762Y-80370143D01*
X155838143Y-80274905D01*
X155790524Y-80084429D01*
X155790524Y-79846333D01*
X155838143Y-79655857D01*
X155885762Y-79560619D01*
X155933381Y-79513000D01*
X156028619Y-79465381D01*
X157219096Y-79798714D02*
X157219096Y-80465381D01*
X156790524Y-79798714D02*
X156790524Y-80322524D01*
X156838143Y-80417762D01*
X156933381Y-80465381D01*
X157076239Y-80465381D01*
X157171477Y-80417762D01*
X157219096Y-80370143D01*
X158028620Y-79941571D02*
X157695286Y-79941571D01*
X157695286Y-80465381D02*
X157695286Y-79465381D01*
X158171477Y-79465381D01*
X160463381Y-77982619D02*
X160463381Y-78554048D01*
X160463381Y-78268334D02*
X159463381Y-78268334D01*
X159606238Y-78363572D01*
X159701476Y-78458810D01*
X159749095Y-78554048D01*
X159463381Y-77363572D02*
X159463381Y-77268333D01*
X159511000Y-77173095D01*
X159558619Y-77125476D01*
X159653857Y-77077857D01*
X159844333Y-77030238D01*
X160082429Y-77030238D01*
X160272905Y-77077857D01*
X160368143Y-77125476D01*
X160415762Y-77173095D01*
X160463381Y-77268333D01*
X160463381Y-77363572D01*
X160415762Y-77458810D01*
X160368143Y-77506429D01*
X160272905Y-77554048D01*
X160082429Y-77601667D01*
X159844333Y-77601667D01*
X159653857Y-77554048D01*
X159558619Y-77506429D01*
X159511000Y-77458810D01*
X159463381Y-77363572D01*
X159463381Y-76411191D02*
X159463381Y-76315952D01*
X159511000Y-76220714D01*
X159558619Y-76173095D01*
X159653857Y-76125476D01*
X159844333Y-76077857D01*
X160082429Y-76077857D01*
X160272905Y-76125476D01*
X160368143Y-76173095D01*
X160415762Y-76220714D01*
X160463381Y-76315952D01*
X160463381Y-76411191D01*
X160415762Y-76506429D01*
X160368143Y-76554048D01*
X160272905Y-76601667D01*
X160082429Y-76649286D01*
X159844333Y-76649286D01*
X159653857Y-76601667D01*
X159558619Y-76554048D01*
X159511000Y-76506429D01*
X159463381Y-76411191D01*
X159796714Y-75649286D02*
X160463381Y-75649286D01*
X159891952Y-75649286D02*
X159844333Y-75601667D01*
X159796714Y-75506429D01*
X159796714Y-75363571D01*
X159844333Y-75268333D01*
X159939571Y-75220714D01*
X160463381Y-75220714D01*
X159939571Y-74411190D02*
X159939571Y-74744524D01*
X160463381Y-74744524D02*
X159463381Y-74744524D01*
X159463381Y-74268333D01*
X158084334Y-73992143D02*
X158036715Y-74039762D01*
X157893858Y-74087381D01*
X157798620Y-74087381D01*
X157655762Y-74039762D01*
X157560524Y-73944524D01*
X157512905Y-73849286D01*
X157465286Y-73658810D01*
X157465286Y-73515952D01*
X157512905Y-73325476D01*
X157560524Y-73230238D01*
X157655762Y-73135000D01*
X157798620Y-73087381D01*
X157893858Y-73087381D01*
X158036715Y-73135000D01*
X158084334Y-73182619D01*
X158465286Y-73182619D02*
X158512905Y-73135000D01*
X158608143Y-73087381D01*
X158846239Y-73087381D01*
X158941477Y-73135000D01*
X158989096Y-73182619D01*
X159036715Y-73277857D01*
X159036715Y-73373095D01*
X158989096Y-73515952D01*
X158417667Y-74087381D01*
X159036715Y-74087381D01*
X147123381Y-76372619D02*
X147123381Y-76944048D01*
X147123381Y-76658334D02*
X146123381Y-76658334D01*
X146266238Y-76753572D01*
X146361476Y-76848810D01*
X146409095Y-76944048D01*
X146123381Y-75753572D02*
X146123381Y-75658333D01*
X146171000Y-75563095D01*
X146218619Y-75515476D01*
X146313857Y-75467857D01*
X146504333Y-75420238D01*
X146742429Y-75420238D01*
X146932905Y-75467857D01*
X147028143Y-75515476D01*
X147075762Y-75563095D01*
X147123381Y-75658333D01*
X147123381Y-75753572D01*
X147075762Y-75848810D01*
X147028143Y-75896429D01*
X146932905Y-75944048D01*
X146742429Y-75991667D01*
X146504333Y-75991667D01*
X146313857Y-75944048D01*
X146218619Y-75896429D01*
X146171000Y-75848810D01*
X146123381Y-75753572D01*
X146123381Y-74801191D02*
X146123381Y-74705952D01*
X146171000Y-74610714D01*
X146218619Y-74563095D01*
X146313857Y-74515476D01*
X146504333Y-74467857D01*
X146742429Y-74467857D01*
X146932905Y-74515476D01*
X147028143Y-74563095D01*
X147075762Y-74610714D01*
X147123381Y-74705952D01*
X147123381Y-74801191D01*
X147075762Y-74896429D01*
X147028143Y-74944048D01*
X146932905Y-74991667D01*
X146742429Y-75039286D01*
X146504333Y-75039286D01*
X146313857Y-74991667D01*
X146218619Y-74944048D01*
X146171000Y-74896429D01*
X146123381Y-74801191D01*
X146456714Y-74039286D02*
X147123381Y-74039286D01*
X146551952Y-74039286D02*
X146504333Y-73991667D01*
X146456714Y-73896429D01*
X146456714Y-73753571D01*
X146504333Y-73658333D01*
X146599571Y-73610714D01*
X147123381Y-73610714D01*
X146599571Y-72801190D02*
X146599571Y-73134524D01*
X147123381Y-73134524D02*
X146123381Y-73134524D01*
X146123381Y-72658333D01*
X143778143Y-74991666D02*
X143825762Y-75039285D01*
X143873381Y-75182142D01*
X143873381Y-75277380D01*
X143825762Y-75420238D01*
X143730524Y-75515476D01*
X143635286Y-75563095D01*
X143444810Y-75610714D01*
X143301952Y-75610714D01*
X143111476Y-75563095D01*
X143016238Y-75515476D01*
X142921000Y-75420238D01*
X142873381Y-75277380D01*
X142873381Y-75182142D01*
X142921000Y-75039285D01*
X142968619Y-74991666D01*
X142873381Y-74658333D02*
X142873381Y-74039285D01*
X143254333Y-74372619D01*
X143254333Y-74229761D01*
X143301952Y-74134523D01*
X143349571Y-74086904D01*
X143444810Y-74039285D01*
X143682905Y-74039285D01*
X143778143Y-74086904D01*
X143825762Y-74134523D01*
X143873381Y-74229761D01*
X143873381Y-74515476D01*
X143825762Y-74610714D01*
X143778143Y-74658333D01*
X153853381Y-83322619D02*
X153853381Y-83894048D01*
X153853381Y-83608334D02*
X152853381Y-83608334D01*
X152996238Y-83703572D01*
X153091476Y-83798810D01*
X153139095Y-83894048D01*
X152853381Y-82703572D02*
X152853381Y-82608333D01*
X152901000Y-82513095D01*
X152948619Y-82465476D01*
X153043857Y-82417857D01*
X153234333Y-82370238D01*
X153472429Y-82370238D01*
X153662905Y-82417857D01*
X153758143Y-82465476D01*
X153805762Y-82513095D01*
X153853381Y-82608333D01*
X153853381Y-82703572D01*
X153805762Y-82798810D01*
X153758143Y-82846429D01*
X153662905Y-82894048D01*
X153472429Y-82941667D01*
X153234333Y-82941667D01*
X153043857Y-82894048D01*
X152948619Y-82846429D01*
X152901000Y-82798810D01*
X152853381Y-82703572D01*
X152853381Y-81751191D02*
X152853381Y-81655952D01*
X152901000Y-81560714D01*
X152948619Y-81513095D01*
X153043857Y-81465476D01*
X153234333Y-81417857D01*
X153472429Y-81417857D01*
X153662905Y-81465476D01*
X153758143Y-81513095D01*
X153805762Y-81560714D01*
X153853381Y-81655952D01*
X153853381Y-81751191D01*
X153805762Y-81846429D01*
X153758143Y-81894048D01*
X153662905Y-81941667D01*
X153472429Y-81989286D01*
X153234333Y-81989286D01*
X153043857Y-81941667D01*
X152948619Y-81894048D01*
X152901000Y-81846429D01*
X152853381Y-81751191D01*
X153186714Y-80989286D02*
X153853381Y-80989286D01*
X153281952Y-80989286D02*
X153234333Y-80941667D01*
X153186714Y-80846429D01*
X153186714Y-80703571D01*
X153234333Y-80608333D01*
X153329571Y-80560714D01*
X153853381Y-80560714D01*
X153329571Y-79751190D02*
X153329571Y-80084524D01*
X153853381Y-80084524D02*
X152853381Y-80084524D01*
X152853381Y-79608333D01*
X152314334Y-84752143D02*
X152266715Y-84799762D01*
X152123858Y-84847381D01*
X152028620Y-84847381D01*
X151885762Y-84799762D01*
X151790524Y-84704524D01*
X151742905Y-84609286D01*
X151695286Y-84418810D01*
X151695286Y-84275952D01*
X151742905Y-84085476D01*
X151790524Y-83990238D01*
X151885762Y-83895000D01*
X152028620Y-83847381D01*
X152123858Y-83847381D01*
X152266715Y-83895000D01*
X152314334Y-83942619D01*
X153171477Y-84180714D02*
X153171477Y-84847381D01*
X152933381Y-83799762D02*
X152695286Y-84514048D01*
X153314334Y-84514048D01*
X143883381Y-90413095D02*
X143407190Y-90746429D01*
X143883381Y-90984524D02*
X142883381Y-90984524D01*
X142883381Y-90603571D01*
X142931000Y-90508333D01*
X142978619Y-90460714D01*
X143073857Y-90413095D01*
X143216714Y-90413095D01*
X143311952Y-90460714D01*
X143359571Y-90508333D01*
X143407190Y-90603571D01*
X143407190Y-90984524D01*
X143359571Y-89984524D02*
X143359571Y-89651190D01*
X143883381Y-89508333D02*
X143883381Y-89984524D01*
X142883381Y-89984524D01*
X142883381Y-89508333D01*
X143883381Y-89079762D02*
X142883381Y-89079762D01*
X142883381Y-88841667D01*
X142931000Y-88698809D01*
X143026238Y-88603571D01*
X143121476Y-88555952D01*
X143311952Y-88508333D01*
X143454810Y-88508333D01*
X143645286Y-88555952D01*
X143740524Y-88603571D01*
X143835762Y-88698809D01*
X143883381Y-88841667D01*
X143883381Y-89079762D01*
X143502429Y-88079762D02*
X143502429Y-87317857D01*
X143883381Y-86270238D02*
X143407190Y-86603572D01*
X143883381Y-86841667D02*
X142883381Y-86841667D01*
X142883381Y-86460714D01*
X142931000Y-86365476D01*
X142978619Y-86317857D01*
X143073857Y-86270238D01*
X143216714Y-86270238D01*
X143311952Y-86317857D01*
X143359571Y-86365476D01*
X143407190Y-86460714D01*
X143407190Y-86841667D01*
X142883381Y-85936905D02*
X143883381Y-85270238D01*
X142883381Y-85270238D02*
X143883381Y-85936905D01*
X155921000Y-91317857D02*
X155873381Y-91413095D01*
X155873381Y-91555952D01*
X155921000Y-91698810D01*
X156016238Y-91794048D01*
X156111476Y-91841667D01*
X156301952Y-91889286D01*
X156444810Y-91889286D01*
X156635286Y-91841667D01*
X156730524Y-91794048D01*
X156825762Y-91698810D01*
X156873381Y-91555952D01*
X156873381Y-91460714D01*
X156825762Y-91317857D01*
X156778143Y-91270238D01*
X156444810Y-91270238D01*
X156444810Y-91460714D01*
X156873381Y-90270238D02*
X156397190Y-90603572D01*
X156873381Y-90841667D02*
X155873381Y-90841667D01*
X155873381Y-90460714D01*
X155921000Y-90365476D01*
X155968619Y-90317857D01*
X156063857Y-90270238D01*
X156206714Y-90270238D01*
X156301952Y-90317857D01*
X156349571Y-90365476D01*
X156397190Y-90460714D01*
X156397190Y-90841667D01*
X156349571Y-89841667D02*
X156349571Y-89508333D01*
X156873381Y-89365476D02*
X156873381Y-89841667D01*
X155873381Y-89841667D01*
X155873381Y-89365476D01*
X156349571Y-88936905D02*
X156349571Y-88603571D01*
X156873381Y-88460714D02*
X156873381Y-88936905D01*
X155873381Y-88936905D01*
X155873381Y-88460714D01*
X156873381Y-88032143D02*
X155873381Y-88032143D01*
X156873381Y-87460714D01*
X155873381Y-87460714D01*
X156492429Y-86984524D02*
X156492429Y-86222619D01*
X155873381Y-85889286D02*
X155873381Y-85317857D01*
X156873381Y-85603572D02*
X155873381Y-85603572D01*
X155873381Y-85079762D02*
X156873381Y-84413095D01*
X155873381Y-84413095D02*
X156873381Y-85079762D01*
X147523381Y-82793095D02*
X146523381Y-82793095D01*
X147237667Y-82459761D01*
X146523381Y-82126428D01*
X147523381Y-82126428D01*
X146999571Y-81316904D02*
X147047190Y-81174047D01*
X147094810Y-81126428D01*
X147190048Y-81078809D01*
X147332905Y-81078809D01*
X147428143Y-81126428D01*
X147475762Y-81174047D01*
X147523381Y-81269285D01*
X147523381Y-81650238D01*
X146523381Y-81650238D01*
X146523381Y-81316904D01*
X146571000Y-81221666D01*
X146618619Y-81174047D01*
X146713857Y-81126428D01*
X146809095Y-81126428D01*
X146904333Y-81174047D01*
X146951952Y-81221666D01*
X146999571Y-81316904D01*
X146999571Y-81650238D01*
X147523381Y-80078809D02*
X147047190Y-80412143D01*
X147523381Y-80650238D02*
X146523381Y-80650238D01*
X146523381Y-80269285D01*
X146571000Y-80174047D01*
X146618619Y-80126428D01*
X146713857Y-80078809D01*
X146856714Y-80078809D01*
X146951952Y-80126428D01*
X146999571Y-80174047D01*
X147047190Y-80269285D01*
X147047190Y-80650238D01*
X146523381Y-79459762D02*
X146523381Y-79364523D01*
X146571000Y-79269285D01*
X146618619Y-79221666D01*
X146713857Y-79174047D01*
X146904333Y-79126428D01*
X147142429Y-79126428D01*
X147332905Y-79174047D01*
X147428143Y-79221666D01*
X147475762Y-79269285D01*
X147523381Y-79364523D01*
X147523381Y-79459762D01*
X147475762Y-79555000D01*
X147428143Y-79602619D01*
X147332905Y-79650238D01*
X147142429Y-79697857D01*
X146904333Y-79697857D01*
X146713857Y-79650238D01*
X146618619Y-79602619D01*
X146571000Y-79555000D01*
X146523381Y-79459762D01*
X146523381Y-78221666D02*
X146523381Y-78697857D01*
X146999571Y-78745476D01*
X146951952Y-78697857D01*
X146904333Y-78602619D01*
X146904333Y-78364523D01*
X146951952Y-78269285D01*
X146999571Y-78221666D01*
X147094810Y-78174047D01*
X147332905Y-78174047D01*
X147428143Y-78221666D01*
X147475762Y-78269285D01*
X147523381Y-78364523D01*
X147523381Y-78602619D01*
X147475762Y-78697857D01*
X147428143Y-78745476D01*
X146618619Y-77793095D02*
X146571000Y-77745476D01*
X146523381Y-77650238D01*
X146523381Y-77412142D01*
X146571000Y-77316904D01*
X146618619Y-77269285D01*
X146713857Y-77221666D01*
X146809095Y-77221666D01*
X146951952Y-77269285D01*
X147523381Y-77840714D01*
X147523381Y-77221666D01*
X146523381Y-76602619D02*
X146523381Y-76507380D01*
X146571000Y-76412142D01*
X146618619Y-76364523D01*
X146713857Y-76316904D01*
X146904333Y-76269285D01*
X147142429Y-76269285D01*
X147332905Y-76316904D01*
X147428143Y-76364523D01*
X147475762Y-76412142D01*
X147523381Y-76507380D01*
X147523381Y-76602619D01*
X147475762Y-76697857D01*
X147428143Y-76745476D01*
X147332905Y-76793095D01*
X147142429Y-76840714D01*
X146904333Y-76840714D01*
X146713857Y-76793095D01*
X146618619Y-76745476D01*
X146571000Y-76697857D01*
X146523381Y-76602619D01*
X143633381Y-80293095D02*
X142633381Y-80293095D01*
X142633381Y-80055000D01*
X142681000Y-79912142D01*
X142776238Y-79816904D01*
X142871476Y-79769285D01*
X143061952Y-79721666D01*
X143204810Y-79721666D01*
X143395286Y-79769285D01*
X143490524Y-79816904D01*
X143585762Y-79912142D01*
X143633381Y-80055000D01*
X143633381Y-80293095D01*
X142633381Y-79388333D02*
X142633381Y-78769285D01*
X143014333Y-79102619D01*
X143014333Y-78959761D01*
X143061952Y-78864523D01*
X143109571Y-78816904D01*
X143204810Y-78769285D01*
X143442905Y-78769285D01*
X143538143Y-78816904D01*
X143585762Y-78864523D01*
X143633381Y-78959761D01*
X143633381Y-79245476D01*
X143585762Y-79340714D01*
X143538143Y-79388333D01*
X144651953Y-70537381D02*
X144080524Y-70537381D01*
X144366238Y-70537381D02*
X144366238Y-69537381D01*
X144271000Y-69680238D01*
X144175762Y-69775476D01*
X144080524Y-69823095D01*
X145080524Y-70537381D02*
X145080524Y-69537381D01*
X145175762Y-70156429D02*
X145461477Y-70537381D01*
X145461477Y-69870714D02*
X145080524Y-70251667D01*
D13*
X144687667Y-68561190D02*
X144521000Y-68323095D01*
X144401953Y-68561190D02*
X144401953Y-68061190D01*
X144592429Y-68061190D01*
X144640048Y-68085000D01*
X144663857Y-68108810D01*
X144687667Y-68156429D01*
X144687667Y-68227857D01*
X144663857Y-68275476D01*
X144640048Y-68299286D01*
X144592429Y-68323095D01*
X144401953Y-68323095D01*
X145163857Y-68561190D02*
X144878143Y-68561190D01*
X145021000Y-68561190D02*
X145021000Y-68061190D01*
X144973381Y-68132619D01*
X144925762Y-68180238D01*
X144878143Y-68204048D01*
D12*
X144641953Y-73457381D02*
X144070524Y-73457381D01*
X144356238Y-73457381D02*
X144356238Y-72457381D01*
X144261000Y-72600238D01*
X144165762Y-72695476D01*
X144070524Y-72743095D01*
X145070524Y-73457381D02*
X145070524Y-72457381D01*
X145165762Y-73076429D02*
X145451477Y-73457381D01*
X145451477Y-72790714D02*
X145070524Y-73171667D01*
D13*
X144677667Y-71481190D02*
X144511000Y-71243095D01*
X144391953Y-71481190D02*
X144391953Y-70981190D01*
X144582429Y-70981190D01*
X144630048Y-71005000D01*
X144653857Y-71028810D01*
X144677667Y-71076429D01*
X144677667Y-71147857D01*
X144653857Y-71195476D01*
X144630048Y-71219286D01*
X144582429Y-71243095D01*
X144391953Y-71243095D01*
X144868143Y-71028810D02*
X144891953Y-71005000D01*
X144939572Y-70981190D01*
X145058619Y-70981190D01*
X145106238Y-71005000D01*
X145130048Y-71028810D01*
X145153857Y-71076429D01*
X145153857Y-71124048D01*
X145130048Y-71195476D01*
X144844334Y-71481190D01*
X145153857Y-71481190D01*
D12*
X143016714Y-85156904D02*
X143683381Y-85156904D01*
X142635762Y-85395000D02*
X143350048Y-85633095D01*
X143350048Y-85014047D01*
X142683381Y-84728333D02*
X142683381Y-84061666D01*
X143683381Y-84490238D01*
X142683381Y-83490238D02*
X142683381Y-83394999D01*
X142731000Y-83299761D01*
X142778619Y-83252142D01*
X142873857Y-83204523D01*
X143064333Y-83156904D01*
X143302429Y-83156904D01*
X143492905Y-83204523D01*
X143588143Y-83252142D01*
X143635762Y-83299761D01*
X143683381Y-83394999D01*
X143683381Y-83490238D01*
X143635762Y-83585476D01*
X143588143Y-83633095D01*
X143492905Y-83680714D01*
X143302429Y-83728333D01*
X143064333Y-83728333D01*
X142873857Y-83680714D01*
X142778619Y-83633095D01*
X142731000Y-83585476D01*
X142683381Y-83490238D01*
D13*
X145207190Y-84478333D02*
X144969095Y-84645000D01*
X145207190Y-84764047D02*
X144707190Y-84764047D01*
X144707190Y-84573571D01*
X144731000Y-84525952D01*
X144754810Y-84502143D01*
X144802429Y-84478333D01*
X144873857Y-84478333D01*
X144921476Y-84502143D01*
X144945286Y-84525952D01*
X144969095Y-84573571D01*
X144969095Y-84764047D01*
X144707190Y-84311666D02*
X144707190Y-84002143D01*
X144897667Y-84168809D01*
X144897667Y-84097381D01*
X144921476Y-84049762D01*
X144945286Y-84025952D01*
X144992905Y-84002143D01*
X145111952Y-84002143D01*
X145159571Y-84025952D01*
X145183381Y-84049762D01*
X145207190Y-84097381D01*
X145207190Y-84240238D01*
X145183381Y-84287857D01*
X145159571Y-84311666D01*
D12*
X156006714Y-85206904D02*
X156673381Y-85206904D01*
X155625762Y-85445000D02*
X156340048Y-85683095D01*
X156340048Y-85064047D01*
X155673381Y-84778333D02*
X155673381Y-84111666D01*
X156673381Y-84540238D01*
X155673381Y-83540238D02*
X155673381Y-83444999D01*
X155721000Y-83349761D01*
X155768619Y-83302142D01*
X155863857Y-83254523D01*
X156054333Y-83206904D01*
X156292429Y-83206904D01*
X156482905Y-83254523D01*
X156578143Y-83302142D01*
X156625762Y-83349761D01*
X156673381Y-83444999D01*
X156673381Y-83540238D01*
X156625762Y-83635476D01*
X156578143Y-83683095D01*
X156482905Y-83730714D01*
X156292429Y-83778333D01*
X156054333Y-83778333D01*
X155863857Y-83730714D01*
X155768619Y-83683095D01*
X155721000Y-83635476D01*
X155673381Y-83540238D01*
D13*
X158197190Y-84528333D02*
X157959095Y-84695000D01*
X158197190Y-84814047D02*
X157697190Y-84814047D01*
X157697190Y-84623571D01*
X157721000Y-84575952D01*
X157744810Y-84552143D01*
X157792429Y-84528333D01*
X157863857Y-84528333D01*
X157911476Y-84552143D01*
X157935286Y-84575952D01*
X157959095Y-84623571D01*
X157959095Y-84814047D01*
X157863857Y-84099762D02*
X158197190Y-84099762D01*
X157673381Y-84218809D02*
X158030524Y-84337857D01*
X158030524Y-84028333D01*
D12*
X147810524Y-79220714D02*
X147810524Y-79887381D01*
X147572428Y-78839762D02*
X147334333Y-79554048D01*
X147953381Y-79554048D01*
X148334333Y-79887381D02*
X148334333Y-78887381D01*
X148429571Y-79506429D02*
X148715286Y-79887381D01*
X148715286Y-79220714D02*
X148334333Y-79601667D01*
X149048619Y-78887381D02*
X149715286Y-78887381D01*
X149286714Y-79887381D01*
D13*
X148417667Y-81411190D02*
X148251000Y-81173095D01*
X148131953Y-81411190D02*
X148131953Y-80911190D01*
X148322429Y-80911190D01*
X148370048Y-80935000D01*
X148393857Y-80958810D01*
X148417667Y-81006429D01*
X148417667Y-81077857D01*
X148393857Y-81125476D01*
X148370048Y-81149286D01*
X148322429Y-81173095D01*
X148131953Y-81173095D01*
X148870048Y-80911190D02*
X148631953Y-80911190D01*
X148608143Y-81149286D01*
X148631953Y-81125476D01*
X148679572Y-81101667D01*
X148798619Y-81101667D01*
X148846238Y-81125476D01*
X148870048Y-81149286D01*
X148893857Y-81196905D01*
X148893857Y-81315952D01*
X148870048Y-81363571D01*
X148846238Y-81387381D01*
X148798619Y-81411190D01*
X148679572Y-81411190D01*
X148631953Y-81387381D01*
X148608143Y-81363571D01*
D12*
X147810524Y-85100714D02*
X147810524Y-85767381D01*
X147572428Y-84719762D02*
X147334333Y-85434048D01*
X147953381Y-85434048D01*
X148334333Y-85767381D02*
X148334333Y-84767381D01*
X148429571Y-85386429D02*
X148715286Y-85767381D01*
X148715286Y-85100714D02*
X148334333Y-85481667D01*
X149048619Y-84767381D02*
X149715286Y-84767381D01*
X149286714Y-85767381D01*
D13*
X148417667Y-83791190D02*
X148251000Y-83553095D01*
X148131953Y-83791190D02*
X148131953Y-83291190D01*
X148322429Y-83291190D01*
X148370048Y-83315000D01*
X148393857Y-83338810D01*
X148417667Y-83386429D01*
X148417667Y-83457857D01*
X148393857Y-83505476D01*
X148370048Y-83529286D01*
X148322429Y-83553095D01*
X148131953Y-83553095D01*
X148846238Y-83291190D02*
X148751000Y-83291190D01*
X148703381Y-83315000D01*
X148679572Y-83338810D01*
X148631953Y-83410238D01*
X148608143Y-83505476D01*
X148608143Y-83695952D01*
X148631953Y-83743571D01*
X148655762Y-83767381D01*
X148703381Y-83791190D01*
X148798619Y-83791190D01*
X148846238Y-83767381D01*
X148870048Y-83743571D01*
X148893857Y-83695952D01*
X148893857Y-83576905D01*
X148870048Y-83529286D01*
X148846238Y-83505476D01*
X148798619Y-83481667D01*
X148703381Y-83481667D01*
X148655762Y-83505476D01*
X148631953Y-83529286D01*
X148608143Y-83576905D01*
D12*
X148949572Y-79343571D02*
X148616238Y-79343571D01*
X148616238Y-79867381D02*
X148616238Y-78867381D01*
X149092429Y-78867381D01*
X149330524Y-78867381D02*
X149901953Y-78867381D01*
X149616238Y-79867381D02*
X149616238Y-78867381D01*
X150187667Y-78962619D02*
X150235286Y-78915000D01*
X150330524Y-78867381D01*
X150568620Y-78867381D01*
X150663858Y-78915000D01*
X150711477Y-78962619D01*
X150759096Y-79057857D01*
X150759096Y-79153095D01*
X150711477Y-79295952D01*
X150140048Y-79867381D01*
X150759096Y-79867381D01*
X151092429Y-78867381D02*
X151711477Y-78867381D01*
X151378143Y-79248333D01*
X151521001Y-79248333D01*
X151616239Y-79295952D01*
X151663858Y-79343571D01*
X151711477Y-79438810D01*
X151711477Y-79676905D01*
X151663858Y-79772143D01*
X151616239Y-79819762D01*
X151521001Y-79867381D01*
X151235286Y-79867381D01*
X151140048Y-79819762D01*
X151092429Y-79772143D01*
X152092429Y-78962619D02*
X152140048Y-78915000D01*
X152235286Y-78867381D01*
X152473382Y-78867381D01*
X152568620Y-78915000D01*
X152616239Y-78962619D01*
X152663858Y-79057857D01*
X152663858Y-79153095D01*
X152616239Y-79295952D01*
X152044810Y-79867381D01*
X152663858Y-79867381D01*
X153663858Y-79867381D02*
X153330524Y-79391190D01*
X153092429Y-79867381D02*
X153092429Y-78867381D01*
X153473382Y-78867381D01*
X153568620Y-78915000D01*
X153616239Y-78962619D01*
X153663858Y-79057857D01*
X153663858Y-79200714D01*
X153616239Y-79295952D01*
X153568620Y-79343571D01*
X153473382Y-79391190D01*
X153092429Y-79391190D01*
X154568620Y-79867381D02*
X154092429Y-79867381D01*
X154092429Y-78867381D01*
X150911476Y-72726905D02*
X150911476Y-73374524D01*
X150949571Y-73450714D01*
X150987667Y-73488810D01*
X151063857Y-73526905D01*
X151216238Y-73526905D01*
X151292429Y-73488810D01*
X151330524Y-73450714D01*
X151368619Y-73374524D01*
X151368619Y-72726905D01*
X152168619Y-73526905D02*
X151711476Y-73526905D01*
X151940047Y-73526905D02*
X151940047Y-72726905D01*
X151863857Y-72841190D01*
X151787666Y-72917381D01*
X151711476Y-72955476D01*
X148683381Y-91777381D02*
X148683381Y-92586905D01*
X148731000Y-92682143D01*
X148778619Y-92729762D01*
X148873857Y-92777381D01*
X149064334Y-92777381D01*
X149159572Y-92729762D01*
X149207191Y-92682143D01*
X149254810Y-92586905D01*
X149254810Y-91777381D01*
X149683381Y-92729762D02*
X149826238Y-92777381D01*
X150064334Y-92777381D01*
X150159572Y-92729762D01*
X150207191Y-92682143D01*
X150254810Y-92586905D01*
X150254810Y-92491667D01*
X150207191Y-92396429D01*
X150159572Y-92348810D01*
X150064334Y-92301190D01*
X149873857Y-92253571D01*
X149778619Y-92205952D01*
X149731000Y-92158333D01*
X149683381Y-92063095D01*
X149683381Y-91967857D01*
X149731000Y-91872619D01*
X149778619Y-91825000D01*
X149873857Y-91777381D01*
X150111953Y-91777381D01*
X150254810Y-91825000D01*
X151016715Y-92253571D02*
X151159572Y-92301190D01*
X151207191Y-92348810D01*
X151254810Y-92444048D01*
X151254810Y-92586905D01*
X151207191Y-92682143D01*
X151159572Y-92729762D01*
X151064334Y-92777381D01*
X150683381Y-92777381D01*
X150683381Y-91777381D01*
X151016715Y-91777381D01*
X151111953Y-91825000D01*
X151159572Y-91872619D01*
X151207191Y-91967857D01*
X151207191Y-92063095D01*
X151159572Y-92158333D01*
X151111953Y-92205952D01*
X151016715Y-92253571D01*
X150683381Y-92253571D01*
X151445286Y-92872619D02*
X152207191Y-92872619D01*
X152635762Y-91777381D02*
X152826239Y-91777381D01*
X152921477Y-91825000D01*
X153016715Y-91920238D01*
X153064334Y-92110714D01*
X153064334Y-92444048D01*
X153016715Y-92634524D01*
X152921477Y-92729762D01*
X152826239Y-92777381D01*
X152635762Y-92777381D01*
X152540524Y-92729762D01*
X152445286Y-92634524D01*
X152397667Y-92444048D01*
X152397667Y-92110714D01*
X152445286Y-91920238D01*
X152540524Y-91825000D01*
X152635762Y-91777381D01*
X153350048Y-91777381D02*
X153921477Y-91777381D01*
X153635762Y-92777381D02*
X153635762Y-91777381D01*
X154778620Y-91825000D02*
X154683382Y-91777381D01*
X154540525Y-91777381D01*
X154397667Y-91825000D01*
X154302429Y-91920238D01*
X154254810Y-92015476D01*
X154207191Y-92205952D01*
X154207191Y-92348810D01*
X154254810Y-92539286D01*
X154302429Y-92634524D01*
X154397667Y-92729762D01*
X154540525Y-92777381D01*
X154635763Y-92777381D01*
X154778620Y-92729762D01*
X154826239Y-92682143D01*
X154826239Y-92348810D01*
X154635763Y-92348810D01*
X150692905Y-89327381D02*
X150692905Y-88327381D01*
X151073858Y-88327381D01*
X151169096Y-88375000D01*
X151216715Y-88422619D01*
X151264334Y-88517857D01*
X151264334Y-88660714D01*
X151216715Y-88755952D01*
X151169096Y-88803571D01*
X151073858Y-88851190D01*
X150692905Y-88851190D01*
X151645286Y-88422619D02*
X151692905Y-88375000D01*
X151788143Y-88327381D01*
X152026239Y-88327381D01*
X152121477Y-88375000D01*
X152169096Y-88422619D01*
X152216715Y-88517857D01*
X152216715Y-88613095D01*
X152169096Y-88755952D01*
X151597667Y-89327381D01*
X152216715Y-89327381D01*
M02*
