G04 #@! TF.FileFunction,Copper,L2,Bot,Signal*
%FSLAX46Y46*%
G04 Gerber Fmt 4.6, Leading zero omitted, Abs format (unit mm)*
G04 Created by KiCad (PCBNEW 4.0.6) date 07/30/17 23:46:32*
%MOMM*%
%LPD*%
G01*
G04 APERTURE LIST*
%ADD10C,0.100000*%
%ADD11C,2.100000*%
%ADD12R,1.270000X0.970000*%
%ADD13C,1.450000*%
%ADD14O,1.200000X1.900000*%
%ADD15C,0.600000*%
%ADD16C,0.500000*%
%ADD17C,0.400000*%
G04 APERTURE END LIST*
D10*
D11*
X161569400Y-67843400D03*
X161569400Y-70383400D03*
X161569400Y-72923400D03*
X161569400Y-75463400D03*
X161569400Y-78003400D03*
X161569400Y-80543400D03*
X161569400Y-83083400D03*
X161569400Y-85623400D03*
X161569400Y-88163400D03*
X161569400Y-65303400D03*
X159029400Y-65303400D03*
X156489400Y-65303400D03*
X153949400Y-65303400D03*
X151409400Y-65303400D03*
X148869400Y-65303400D03*
X146329400Y-65303400D03*
X143789400Y-65303400D03*
X141249400Y-65303400D03*
X141249400Y-67843400D03*
X141249400Y-70383400D03*
X141249400Y-72923400D03*
X141249400Y-75463400D03*
X141249400Y-78003400D03*
X141249400Y-80543400D03*
X141249400Y-83083400D03*
X141249400Y-85623400D03*
X141249400Y-88163400D03*
D12*
X158081000Y-85615000D03*
X158081000Y-84335000D03*
D13*
X148931000Y-86525000D03*
X153931000Y-86525000D03*
D14*
X147931000Y-89225000D03*
X154931000Y-89225000D03*
D15*
X146391000Y-86325000D03*
X156511000Y-89275000D03*
X149451000Y-79565000D03*
X152881000Y-74475000D03*
X152511000Y-76325000D03*
X152751000Y-77315000D03*
X150781000Y-84335000D03*
X151871000Y-83995000D03*
X153241000Y-78135000D03*
X153071000Y-72205000D03*
X144981000Y-82465000D03*
X157161000Y-72865000D03*
X156221000Y-83495000D03*
D16*
X146391000Y-86325000D02*
X146391000Y-86315000D01*
X146391000Y-86315000D02*
X146391000Y-86315000D01*
X147711000Y-84995000D02*
X146391000Y-86315000D01*
X149681000Y-84995000D02*
X147711000Y-84995000D01*
X150081000Y-85395000D02*
X149681000Y-84995000D01*
X152611000Y-85395000D02*
X150081000Y-85395000D01*
X153011000Y-84995000D02*
X152611000Y-85395000D01*
X155351000Y-84995000D02*
X153011000Y-84995000D01*
X156521000Y-86165000D02*
X155351000Y-84995000D01*
X156521000Y-89265000D02*
X156521000Y-86165000D01*
X156511000Y-89275000D02*
X156521000Y-89265000D01*
X161569400Y-85623400D02*
X158089400Y-85623400D01*
X158089400Y-85623400D02*
X158081000Y-85615000D01*
X153931000Y-86525000D02*
X148931000Y-86525000D01*
X141249400Y-88163400D02*
X143889400Y-88163400D01*
X144951000Y-89225000D02*
X147931000Y-89225000D01*
X143889400Y-88163400D02*
X144951000Y-89225000D01*
D17*
X149451000Y-77905000D02*
X149451000Y-79565000D01*
X152881000Y-74475000D02*
X149451000Y-77905000D01*
D16*
X158081000Y-73495000D02*
X158271000Y-73305000D01*
X158271000Y-73305000D02*
X158271000Y-72295000D01*
X158271000Y-72295000D02*
X157481000Y-71505000D01*
X157481000Y-71505000D02*
X155971000Y-71505000D01*
X155971000Y-71505000D02*
X155201000Y-72275000D01*
X155201000Y-72275000D02*
X155201000Y-75345000D01*
X155201000Y-75345000D02*
X154481000Y-76065000D01*
X154481000Y-76065000D02*
X152771000Y-76065000D01*
X152771000Y-76065000D02*
X152511000Y-76325000D01*
X158081000Y-73495000D02*
X158081000Y-84335000D01*
D17*
X152751000Y-77315000D02*
X150781000Y-79285000D01*
X150781000Y-79285000D02*
X150781000Y-84335000D01*
X151871000Y-79505000D02*
X151871000Y-83995000D01*
X153241000Y-78135000D02*
X151871000Y-79505000D01*
X147941000Y-77335000D02*
X153071000Y-72205000D01*
X147941000Y-79505000D02*
X147941000Y-77335000D01*
X144981000Y-82465000D02*
X147941000Y-79505000D01*
X157161000Y-82555000D02*
X157161000Y-72865000D01*
X156221000Y-83495000D02*
X157161000Y-82555000D01*
M02*
