M48
;DRILL file {KiCad 4.0.6} date 07/30/17 23:46:34
;FORMAT={-:-/ absolute / inch / decimal}
FMAT,2
INCH,TZ
T1C0.016
T2C0.024
T3C0.033
T4C0.059
%
G90
G05
M72
T1
X5.7079Y-3.2467
X5.7634Y-3.3986
X5.8839Y-3.1325
X5.9363Y-3.3203
X5.9792Y-3.3069
X6.0044Y-3.0049
X6.0138Y-3.0439
X6.0189Y-2.9321
X6.0264Y-2.8427
X6.0331Y-3.0762
X6.1504Y-3.2872
X6.1619Y-3.5148
X6.1874Y-2.8687
T3
X5.8634Y-3.4065
X6.0603Y-3.4065
T4
X5.561Y-2.571
X5.561Y-2.671
X5.561Y-2.771
X5.561Y-2.871
X5.561Y-2.971
X5.561Y-3.071
X5.561Y-3.171
X5.561Y-3.271
X5.561Y-3.371
X5.561Y-3.471
X5.661Y-2.571
X5.761Y-2.571
X5.861Y-2.571
X5.961Y-2.571
X6.061Y-2.571
X6.161Y-2.571
X6.261Y-2.571
X6.361Y-2.571
X6.361Y-2.671
X6.361Y-2.771
X6.361Y-2.871
X6.361Y-2.971
X6.361Y-3.071
X6.361Y-3.171
X6.361Y-3.271
X6.361Y-3.371
X6.361Y-3.471
T2
X5.8241Y-3.5266G85X5.8241Y-3.499
G05
X6.0996Y-3.499G85X6.0996Y-3.5266
G05
T0
M30
