G04 #@! TF.FileFunction,Paste,Top*
%FSLAX46Y46*%
G04 Gerber Fmt 4.6, Leading zero omitted, Abs format (unit mm)*
G04 Created by KiCad (PCBNEW 4.0.6) date 07/30/17 23:46:32*
%MOMM*%
%LPD*%
G01*
G04 APERTURE LIST*
%ADD10C,0.100000*%
%ADD11R,1.778000X2.794000*%
%ADD12R,1.250000X1.000000*%
%ADD13R,1.200000X1.200000*%
%ADD14R,1.200000X0.900000*%
%ADD15R,0.700000X1.300000*%
%ADD16R,1.300000X0.700000*%
%ADD17R,1.750000X0.450000*%
%ADD18R,1.500000X1.900000*%
%ADD19R,0.400000X1.350000*%
G04 APERTURE END LIST*
D10*
D11*
X158259000Y-80775000D03*
X154703000Y-80775000D03*
D12*
X158261000Y-77435000D03*
X158261000Y-75435000D03*
X144921000Y-75825000D03*
X144921000Y-73825000D03*
X151651000Y-82775000D03*
X151651000Y-80775000D03*
D13*
X144981000Y-89275000D03*
X144981000Y-87075000D03*
X157971000Y-89275000D03*
X157971000Y-87075000D03*
D14*
X144971000Y-81205000D03*
X144971000Y-77905000D03*
D15*
X143821000Y-68335000D03*
X145721000Y-68335000D03*
X143811000Y-71255000D03*
X145711000Y-71255000D03*
D16*
X144981000Y-83445000D03*
X144981000Y-85345000D03*
X157971000Y-83495000D03*
X157971000Y-85395000D03*
D15*
X149451000Y-81185000D03*
X147551000Y-81185000D03*
X147551000Y-83565000D03*
X149451000Y-83565000D03*
D17*
X147921000Y-68940000D03*
X147921000Y-69590000D03*
X147921000Y-70240000D03*
X147921000Y-70890000D03*
X147921000Y-71540000D03*
X147921000Y-72190000D03*
X147921000Y-72840000D03*
X147921000Y-73490000D03*
X147921000Y-74140000D03*
X147921000Y-74790000D03*
X147921000Y-75440000D03*
X147921000Y-76090000D03*
X147921000Y-76740000D03*
X147921000Y-77390000D03*
X155121000Y-77390000D03*
X155121000Y-76740000D03*
X155121000Y-76090000D03*
X155121000Y-75440000D03*
X155121000Y-74790000D03*
X155121000Y-74140000D03*
X155121000Y-73490000D03*
X155121000Y-72840000D03*
X155121000Y-72190000D03*
X155121000Y-71540000D03*
X155121000Y-70890000D03*
X155121000Y-70240000D03*
X155121000Y-69590000D03*
X155121000Y-68940000D03*
D18*
X152431000Y-89225000D03*
D19*
X150781000Y-86525000D03*
X150131000Y-86525000D03*
X152731000Y-86525000D03*
X152081000Y-86525000D03*
X151431000Y-86525000D03*
D18*
X150431000Y-89225000D03*
M02*
