G04 #@! TF.FileFunction,Soldermask,Top*
%FSLAX46Y46*%
G04 Gerber Fmt 4.6, Leading zero omitted, Abs format (unit mm)*
G04 Created by KiCad (PCBNEW 4.0.6) date 07/30/17 23:46:32*
%MOMM*%
%LPD*%
G01*
G04 APERTURE LIST*
%ADD10C,0.100000*%
%ADD11C,2.500000*%
%ADD12R,2.178000X3.194000*%
%ADD13R,1.650000X1.400000*%
%ADD14R,1.600000X1.600000*%
%ADD15R,1.600000X1.300000*%
%ADD16R,1.100000X1.700000*%
%ADD17R,1.700000X1.100000*%
%ADD18R,2.150000X0.850000*%
%ADD19R,1.900000X2.300000*%
%ADD20C,1.850000*%
%ADD21R,0.800000X1.750000*%
%ADD22O,1.600000X2.300000*%
%ADD23R,1.600000X2.300000*%
G04 APERTURE END LIST*
D10*
D11*
X161569400Y-67843400D03*
X161569400Y-70383400D03*
X161569400Y-72923400D03*
X161569400Y-75463400D03*
X161569400Y-78003400D03*
X161569400Y-80543400D03*
X161569400Y-83083400D03*
X161569400Y-85623400D03*
X161569400Y-88163400D03*
X161569400Y-65303400D03*
X159029400Y-65303400D03*
X156489400Y-65303400D03*
X153949400Y-65303400D03*
X151409400Y-65303400D03*
X148869400Y-65303400D03*
X146329400Y-65303400D03*
X143789400Y-65303400D03*
X141249400Y-65303400D03*
X141249400Y-67843400D03*
X141249400Y-70383400D03*
X141249400Y-72923400D03*
X141249400Y-75463400D03*
X141249400Y-78003400D03*
X141249400Y-80543400D03*
X141249400Y-83083400D03*
X141249400Y-85623400D03*
X141249400Y-88163400D03*
D12*
X158259000Y-80775000D03*
X154703000Y-80775000D03*
D13*
X158261000Y-77435000D03*
X158261000Y-75435000D03*
X144921000Y-75825000D03*
X144921000Y-73825000D03*
X151651000Y-82775000D03*
X151651000Y-80775000D03*
D14*
X144981000Y-89275000D03*
X144981000Y-87075000D03*
X157971000Y-89275000D03*
X157971000Y-87075000D03*
D15*
X144971000Y-81205000D03*
X144971000Y-77905000D03*
D16*
X143821000Y-68335000D03*
X145721000Y-68335000D03*
X143811000Y-71255000D03*
X145711000Y-71255000D03*
D17*
X144981000Y-83445000D03*
X144981000Y-85345000D03*
X157971000Y-83495000D03*
X157971000Y-85395000D03*
D16*
X149451000Y-81185000D03*
X147551000Y-81185000D03*
X147551000Y-83565000D03*
X149451000Y-83565000D03*
D18*
X147921000Y-68940000D03*
X147921000Y-69590000D03*
X147921000Y-70240000D03*
X147921000Y-70890000D03*
X147921000Y-71540000D03*
X147921000Y-72190000D03*
X147921000Y-72840000D03*
X147921000Y-73490000D03*
X147921000Y-74140000D03*
X147921000Y-74790000D03*
X147921000Y-75440000D03*
X147921000Y-76090000D03*
X147921000Y-76740000D03*
X147921000Y-77390000D03*
X155121000Y-77390000D03*
X155121000Y-76740000D03*
X155121000Y-76090000D03*
X155121000Y-75440000D03*
X155121000Y-74790000D03*
X155121000Y-74140000D03*
X155121000Y-73490000D03*
X155121000Y-72840000D03*
X155121000Y-72190000D03*
X155121000Y-71540000D03*
X155121000Y-70890000D03*
X155121000Y-70240000D03*
X155121000Y-69590000D03*
X155121000Y-68940000D03*
D19*
X152431000Y-89225000D03*
D20*
X148931000Y-86525000D03*
D21*
X150781000Y-86525000D03*
X150131000Y-86525000D03*
X152731000Y-86525000D03*
X152081000Y-86525000D03*
X151431000Y-86525000D03*
D20*
X153931000Y-86525000D03*
D19*
X150431000Y-89225000D03*
D22*
X147931000Y-89225000D03*
X154931000Y-89225000D03*
D23*
X154331000Y-89225000D03*
X148531000Y-89225000D03*
M02*
