G04 #@! TF.FileFunction,Copper,L2,Bot,Signal*
%FSLAX46Y46*%
G04 Gerber Fmt 4.6, Leading zero omitted, Abs format (unit mm)*
G04 Created by KiCad (PCBNEW 0.201512201246+6385~39~ubuntu14.04.1-stable) date Sun 03 Jan 2016 10:20:27 CET*
%MOMM*%
G01*
G04 APERTURE LIST*
%ADD10C,0.200000*%
%ADD11R,1.000000X0.250000*%
%ADD12R,0.250000X1.000000*%
%ADD13R,2.600000X2.600000*%
%ADD14R,1.498600X1.300480*%
%ADD15R,1.524000X2.199640*%
%ADD16O,1.524000X2.199640*%
%ADD17R,1.501140X1.501140*%
%ADD18C,2.999740*%
%ADD19C,0.600000*%
%ADD20C,0.250000*%
G04 APERTURE END LIST*
D10*
D11*
X153289000Y-72707500D03*
X153289000Y-73342500D03*
X153289000Y-73977500D03*
X153289000Y-74612500D03*
D12*
X152082500Y-75755500D03*
X151447500Y-75755500D03*
X150812500Y-75755500D03*
X150177500Y-75755500D03*
D11*
X149034500Y-74612500D03*
X149034500Y-73977500D03*
X149034500Y-73342500D03*
X149034500Y-72707500D03*
D12*
X150177500Y-71628000D03*
X150812500Y-71628000D03*
X151447500Y-71628000D03*
X152082500Y-71628000D03*
D13*
X151130000Y-73660000D03*
D14*
X151130000Y-84137500D03*
X151130000Y-86042500D03*
X148590000Y-86042500D03*
X148590000Y-84137500D03*
X153670000Y-86042500D03*
X153670000Y-84137500D03*
D15*
X147320000Y-88900000D03*
D16*
X149860000Y-88900000D03*
X152400000Y-88900000D03*
X154940000Y-88900000D03*
D17*
X153670000Y-78740000D03*
X148590000Y-78740000D03*
X151130000Y-81280000D03*
X151130000Y-78740000D03*
X148590000Y-81280000D03*
X153670000Y-81280000D03*
D18*
X151384000Y-94488000D03*
D19*
X146189700Y-72710040D03*
X150450400Y-82731200D03*
X149052900Y-87200100D03*
X156324300Y-72511920D03*
X155050600Y-78398812D03*
X152397600Y-81274100D03*
D20*
X154940000Y-88900000D02*
X154937190Y-88902810D01*
X154937190Y-88902810D02*
X154937190Y-87309690D01*
X154937190Y-87309690D02*
X153670000Y-86042500D01*
X153670000Y-86042500D02*
X153570940Y-86042500D01*
X153570940Y-86042500D02*
X151665940Y-84137500D01*
X151665940Y-84137500D02*
X151130000Y-84137500D01*
X146192240Y-72707500D02*
X146189700Y-72710040D01*
X149034500Y-72707500D02*
X146192240Y-72707500D01*
X148590000Y-78740000D02*
X148590000Y-81280000D01*
X148590000Y-81280000D02*
X148590000Y-82355900D01*
X150972300Y-84137500D02*
X151130000Y-84137500D01*
X149190700Y-82355900D02*
X150972300Y-84137500D01*
X148590000Y-82355900D02*
X149190700Y-82355900D01*
X156044800Y-86413240D02*
X153769060Y-84137500D01*
X156044800Y-89695400D02*
X156044800Y-86413240D01*
X155377100Y-90363100D02*
X156044800Y-89695400D01*
X153525280Y-90363100D02*
X155377100Y-90363100D01*
X152400000Y-89237820D02*
X153525280Y-90363100D01*
X152400000Y-88900000D02*
X152400000Y-89237820D01*
X153769060Y-84137500D02*
X153670000Y-84137500D01*
X152400000Y-88900000D02*
X152400000Y-87238921D01*
X152400000Y-87238921D02*
X151209259Y-86048180D01*
X151209259Y-86048180D02*
X151135680Y-86048180D01*
X151135680Y-86048180D02*
X151130000Y-86042500D01*
X148590000Y-84137500D02*
X149125940Y-84137500D01*
X149125940Y-84137500D02*
X151030940Y-86042500D01*
X151030940Y-86042500D02*
X151130000Y-86042500D01*
X149127300Y-84137500D02*
X146420500Y-81430700D01*
X146420500Y-81430700D02*
X146420500Y-74017761D01*
X146420500Y-74017761D02*
X147094052Y-73344209D01*
X147094052Y-73344209D02*
X149032791Y-73344209D01*
X149032791Y-73344209D02*
X149034500Y-73342500D01*
X153670000Y-84137500D02*
X153670000Y-83162000D01*
X148590000Y-84137500D02*
X149127300Y-84137500D01*
X153670000Y-81280000D02*
X153670000Y-78740000D01*
X153670000Y-82731200D02*
X150450400Y-82731200D01*
X153670000Y-81280000D02*
X153670000Y-82731200D01*
X153670000Y-82731200D02*
X153670000Y-83162000D01*
X148590000Y-86042500D02*
X148590000Y-86262323D01*
X148590000Y-86262323D02*
X148578663Y-86273660D01*
X148578663Y-86273660D02*
X148578663Y-86725863D01*
X148578663Y-86725863D02*
X149052900Y-87200100D01*
X153289000Y-72707500D02*
X156128720Y-72707500D01*
X156128720Y-72707500D02*
X156324300Y-72511920D01*
X149860000Y-88900000D02*
X149860000Y-89237820D01*
X149860000Y-89237820D02*
X152247225Y-91625045D01*
X152247225Y-91625045D02*
X156169812Y-91625045D01*
X156169812Y-91625045D02*
X156797000Y-90997857D01*
X156797000Y-90997857D02*
X156797000Y-74063578D01*
X156797000Y-74063578D02*
X156075922Y-73342500D01*
X156075922Y-73342500D02*
X154039000Y-73342500D01*
X154039000Y-73342500D02*
X153289000Y-73342500D01*
X153289000Y-73977500D02*
X155528872Y-73977500D01*
X155528872Y-73977500D02*
X156162267Y-74610895D01*
X156162267Y-77287145D02*
X155350599Y-78098813D01*
X156162267Y-74610895D02*
X156162267Y-77287145D01*
X155350599Y-78098813D02*
X155050600Y-78398812D01*
X152391700Y-81280000D02*
X152397600Y-81274100D01*
X151130000Y-81280000D02*
X152391700Y-81280000D01*
X151790400Y-76962000D02*
X151130000Y-77622400D01*
X151130000Y-77622400D02*
X151130000Y-78740000D01*
X155143200Y-76962000D02*
X151790400Y-76962000D01*
X155549600Y-76555600D02*
X155143200Y-76962000D01*
X155549600Y-75031600D02*
X155549600Y-76555600D01*
X155130500Y-74612500D02*
X155549600Y-75031600D01*
X153289000Y-74612500D02*
X155130500Y-74612500D01*
X153289000Y-74612500D02*
X153664000Y-74612500D01*
M02*
