<?xml version="1.0" standalone="no"?>
 <!DOCTYPE svg PUBLIC "-//W3C//DTD SVG 1.1//EN" 
 "http://www.w3.org/Graphics/SVG/1.1/DTD/svg11.dtd"> 
<svg xmlns="http://www.w3.org/2000/svg" version="1.1" 
    width="29.7002cm" height="21.0007cm" viewBox="0 0 116930 82680 ">
<title>SVG Picture created as temperature_humidity-brd.svg date 2015/07/10 22:12:52 </title>
  <desc>Picture generated by PCBNEW </desc>
<g style="fill:#000000; fill-opacity:1;stroke:#000000; stroke-opacity:1;
stroke-linecap:round; stroke-linejoin:round; "
 transform="translate(0 0) scale(1 1)">
</g>
<g style="fill:#000000; fill-opacity:0.0; 
stroke:#000000; stroke-width:78.7402; stroke-opacity:1; 
stroke-linecap:round; stroke-linejoin:round;">
</g>
<g style="fill:#000000; fill-opacity:0.0; 
stroke:#000000; stroke-width:59.0551; stroke-opacity:1; 
stroke-linecap:round; stroke-linejoin:round;">
<rect x="69685.9" y="65357.2" width="42519.7" height="12598.4" rx="0" />
</g>
<g style="fill:#000000; fill-opacity:0.0; 
stroke:#000000; stroke-width:78.7402; stroke-opacity:1; 
stroke-linecap:round; stroke-linejoin:round;">
</g>
<g style="fill:#000000; fill-opacity:0.0; 
stroke:#000000; stroke-width:59.0551; stroke-opacity:1; 
stroke-linecap:round; stroke-linejoin:round;">
<rect x="3937.01" y="3937.01" width="109056" height="74806" rx="0" />
</g>
<g style="fill:#000000; fill-opacity:0.0; 
stroke:#000000; stroke-width:78.7402; stroke-opacity:1; 
stroke-linecap:round; stroke-linejoin:round;">
</g>
<g style="fill:#000000; fill-opacity:0.0; 
stroke:#000000; stroke-width:59.0551; stroke-opacity:1; 
stroke-linecap:round; stroke-linejoin:round;">
<rect x="4724.41" y="4724.41" width="107481" height="73231.2" rx="0" />
</g>
<g style="fill:#000000; fill-opacity:0.0; 
stroke:#000000; stroke-width:78.7402; stroke-opacity:1; 
stroke-linecap:round; stroke-linejoin:round;">
</g>
<g style="fill:#000000; fill-opacity:0.0; 
stroke:#000000; stroke-width:59.0551; stroke-opacity:1; 
stroke-linecap:round; stroke-linejoin:round;">
<path d="M23622 4724
L23622 3937
" />
</g>
<g style="fill:#000000; fill-opacity:0.0; 
stroke:#000000; stroke-width:78.7402; stroke-opacity:1; 
stroke-linecap:round; stroke-linejoin:round;">
</g>
<g style="fill:#000000; fill-opacity:0.0; 
stroke:#000000; stroke-width:59.0551; stroke-opacity:1; 
stroke-linecap:round; stroke-linejoin:round;">
<path d="M43307 4724
L43307 3937
" />
</g>
<g style="fill:#000000; fill-opacity:0.0; 
stroke:#000000; stroke-width:78.7402; stroke-opacity:1; 
stroke-linecap:round; stroke-linejoin:round;">
</g>
<g style="fill:#000000; fill-opacity:0.0; 
stroke:#000000; stroke-width:59.0551; stroke-opacity:1; 
stroke-linecap:round; stroke-linejoin:round;">
<path d="M62992 4724
L62992 3937
" />
</g>
<g style="fill:#000000; fill-opacity:0.0; 
stroke:#000000; stroke-width:78.7402; stroke-opacity:1; 
stroke-linecap:round; stroke-linejoin:round;">
</g>
<g style="fill:#000000; fill-opacity:0.0; 
stroke:#000000; stroke-width:59.0551; stroke-opacity:1; 
stroke-linecap:round; stroke-linejoin:round;">
<path d="M82677 4724
L82677 3937
" />
</g>
<g style="fill:#000000; fill-opacity:0.0; 
stroke:#000000; stroke-width:78.7402; stroke-opacity:1; 
stroke-linecap:round; stroke-linejoin:round;">
</g>
<g style="fill:#000000; fill-opacity:0.0; 
stroke:#000000; stroke-width:59.0551; stroke-opacity:1; 
stroke-linecap:round; stroke-linejoin:round;">
<path d="M102362 4724
L102362 3937
" />
</g>
<g style="fill:#000000; fill-opacity:0.0; 
stroke:#000000; stroke-width:78.7402; stroke-opacity:1; 
stroke-linecap:round; stroke-linejoin:round;">
</g>
<g style="fill:#000000; fill-opacity:0.0; 
stroke:#000000; stroke-width:59.0551; stroke-opacity:1; 
stroke-linecap:round; stroke-linejoin:round;">
<path d="M14169 4562
L13877 4562
" />
<path d="M14023 4562
L14023 4050
L13974 4123
L13925 4172
L13877 4196
" />
</g>
<g style="fill:#000000; fill-opacity:0.0; 
stroke:#000000; stroke-width:78.7402; stroke-opacity:1; 
stroke-linecap:round; stroke-linejoin:round;">
</g>
<g style="fill:#000000; fill-opacity:0.0; 
stroke:#000000; stroke-width:59.0551; stroke-opacity:1; 
stroke-linecap:round; stroke-linejoin:round;">
<path d="M33562 4099
L33586 4074
L33635 4050
L33757 4050
L33805 4074
L33830 4099
L33854 4147
L33854 4196
L33830 4269
L33537 4562
L33854 4562
" />
</g>
<g style="fill:#000000; fill-opacity:0.0; 
stroke:#000000; stroke-width:78.7402; stroke-opacity:1; 
stroke-linecap:round; stroke-linejoin:round;">
</g>
<g style="fill:#000000; fill-opacity:0.0; 
stroke:#000000; stroke-width:59.0551; stroke-opacity:1; 
stroke-linecap:round; stroke-linejoin:round;">
<path d="M53222 4050
L53539 4050
L53368 4245
L53442 4245
L53490 4269
L53515 4294
L53539 4342
L53539 4464
L53515 4513
L53490 4537
L53442 4562
L53295 4562
L53247 4537
L53222 4513
" />
</g>
<g style="fill:#000000; fill-opacity:0.0; 
stroke:#000000; stroke-width:78.7402; stroke-opacity:1; 
stroke-linecap:round; stroke-linejoin:round;">
</g>
<g style="fill:#000000; fill-opacity:0.0; 
stroke:#000000; stroke-width:59.0551; stroke-opacity:1; 
stroke-linecap:round; stroke-linejoin:round;">
<path d="M73175 4221
L73175 4562
" />
<path d="M73053 4026
L72932 4391
L73248 4391
" />
</g>
<g style="fill:#000000; fill-opacity:0.0; 
stroke:#000000; stroke-width:78.7402; stroke-opacity:1; 
stroke-linecap:round; stroke-linejoin:round;">
</g>
<g style="fill:#000000; fill-opacity:0.0; 
stroke:#000000; stroke-width:59.0551; stroke-opacity:1; 
stroke-linecap:round; stroke-linejoin:round;">
<path d="M92885 4050
L92641 4050
L92617 4294
L92641 4269
L92690 4245
L92812 4245
L92860 4269
L92885 4294
L92909 4342
L92909 4464
L92885 4513
L92860 4537
L92812 4562
L92690 4562
L92641 4537
L92617 4513
" />
</g>
<g style="fill:#000000; fill-opacity:0.0; 
stroke:#000000; stroke-width:78.7402; stroke-opacity:1; 
stroke-linecap:round; stroke-linejoin:round;">
</g>
<g style="fill:#000000; fill-opacity:0.0; 
stroke:#000000; stroke-width:59.0551; stroke-opacity:1; 
stroke-linecap:round; stroke-linejoin:round;">
<path d="M112545 4050
L112448 4050
L112399 4074
L112375 4099
L112326 4172
L112302 4269
L112302 4464
L112326 4513
L112350 4537
L112399 4562
L112497 4562
L112545 4537
L112570 4513
L112594 4464
L112594 4342
L112570 4294
L112545 4269
L112497 4245
L112399 4245
L112350 4269
L112326 4294
L112302 4342
" />
</g>
<g style="fill:#000000; fill-opacity:0.0; 
stroke:#000000; stroke-width:78.7402; stroke-opacity:1; 
stroke-linecap:round; stroke-linejoin:round;">
</g>
<g style="fill:#000000; fill-opacity:0.0; 
stroke:#000000; stroke-width:59.0551; stroke-opacity:1; 
stroke-linecap:round; stroke-linejoin:round;">
<path d="M23622 77955
L23622 78742
" />
</g>
<g style="fill:#000000; fill-opacity:0.0; 
stroke:#000000; stroke-width:78.7402; stroke-opacity:1; 
stroke-linecap:round; stroke-linejoin:round;">
</g>
<g style="fill:#000000; fill-opacity:0.0; 
stroke:#000000; stroke-width:59.0551; stroke-opacity:1; 
stroke-linecap:round; stroke-linejoin:round;">
<path d="M43307 77955
L43307 78742
" />
</g>
<g style="fill:#000000; fill-opacity:0.0; 
stroke:#000000; stroke-width:78.7402; stroke-opacity:1; 
stroke-linecap:round; stroke-linejoin:round;">
</g>
<g style="fill:#000000; fill-opacity:0.0; 
stroke:#000000; stroke-width:59.0551; stroke-opacity:1; 
stroke-linecap:round; stroke-linejoin:round;">
<path d="M62992 77955
L62992 78742
" />
</g>
<g style="fill:#000000; fill-opacity:0.0; 
stroke:#000000; stroke-width:78.7402; stroke-opacity:1; 
stroke-linecap:round; stroke-linejoin:round;">
</g>
<g style="fill:#000000; fill-opacity:0.0; 
stroke:#000000; stroke-width:59.0551; stroke-opacity:1; 
stroke-linecap:round; stroke-linejoin:round;">
<path d="M82677 77955
L82677 78742
" />
</g>
<g style="fill:#000000; fill-opacity:0.0; 
stroke:#000000; stroke-width:78.7402; stroke-opacity:1; 
stroke-linecap:round; stroke-linejoin:round;">
</g>
<g style="fill:#000000; fill-opacity:0.0; 
stroke:#000000; stroke-width:59.0551; stroke-opacity:1; 
stroke-linecap:round; stroke-linejoin:round;">
<path d="M102362 77955
L102362 78742
" />
</g>
<g style="fill:#000000; fill-opacity:0.0; 
stroke:#000000; stroke-width:78.7402; stroke-opacity:1; 
stroke-linecap:round; stroke-linejoin:round;">
</g>
<g style="fill:#000000; fill-opacity:0.0; 
stroke:#000000; stroke-width:59.0551; stroke-opacity:1; 
stroke-linecap:round; stroke-linejoin:round;">
<path d="M14169 78580
L13877 78580
" />
<path d="M14023 78580
L14023 78069
L13974 78142
L13925 78190
L13877 78215
" />
</g>
<g style="fill:#000000; fill-opacity:0.0; 
stroke:#000000; stroke-width:78.7402; stroke-opacity:1; 
stroke-linecap:round; stroke-linejoin:round;">
</g>
<g style="fill:#000000; fill-opacity:0.0; 
stroke:#000000; stroke-width:59.0551; stroke-opacity:1; 
stroke-linecap:round; stroke-linejoin:round;">
<path d="M33562 78117
L33586 78093
L33635 78069
L33757 78069
L33805 78093
L33830 78117
L33854 78166
L33854 78215
L33830 78288
L33537 78580
L33854 78580
" />
</g>
<g style="fill:#000000; fill-opacity:0.0; 
stroke:#000000; stroke-width:78.7402; stroke-opacity:1; 
stroke-linecap:round; stroke-linejoin:round;">
</g>
<g style="fill:#000000; fill-opacity:0.0; 
stroke:#000000; stroke-width:59.0551; stroke-opacity:1; 
stroke-linecap:round; stroke-linejoin:round;">
<path d="M53222 78069
L53539 78069
L53368 78263
L53442 78263
L53490 78288
L53515 78312
L53539 78361
L53539 78483
L53515 78532
L53490 78556
L53442 78580
L53295 78580
L53247 78556
L53222 78532
" />
</g>
<g style="fill:#000000; fill-opacity:0.0; 
stroke:#000000; stroke-width:78.7402; stroke-opacity:1; 
stroke-linecap:round; stroke-linejoin:round;">
</g>
<g style="fill:#000000; fill-opacity:0.0; 
stroke:#000000; stroke-width:59.0551; stroke-opacity:1; 
stroke-linecap:round; stroke-linejoin:round;">
<path d="M73175 78239
L73175 78580
" />
<path d="M73053 78044
L72932 78410
L73248 78410
" />
</g>
<g style="fill:#000000; fill-opacity:0.0; 
stroke:#000000; stroke-width:78.7402; stroke-opacity:1; 
stroke-linecap:round; stroke-linejoin:round;">
</g>
<g style="fill:#000000; fill-opacity:0.0; 
stroke:#000000; stroke-width:59.0551; stroke-opacity:1; 
stroke-linecap:round; stroke-linejoin:round;">
<path d="M92885 78069
L92641 78069
L92617 78312
L92641 78288
L92690 78263
L92812 78263
L92860 78288
L92885 78312
L92909 78361
L92909 78483
L92885 78532
L92860 78556
L92812 78580
L92690 78580
L92641 78556
L92617 78532
" />
</g>
<g style="fill:#000000; fill-opacity:0.0; 
stroke:#000000; stroke-width:78.7402; stroke-opacity:1; 
stroke-linecap:round; stroke-linejoin:round;">
</g>
<g style="fill:#000000; fill-opacity:0.0; 
stroke:#000000; stroke-width:59.0551; stroke-opacity:1; 
stroke-linecap:round; stroke-linejoin:round;">
<path d="M112545 78069
L112448 78069
L112399 78093
L112375 78117
L112326 78190
L112302 78288
L112302 78483
L112326 78532
L112350 78556
L112399 78580
L112497 78580
L112545 78556
L112570 78532
L112594 78483
L112594 78361
L112570 78312
L112545 78288
L112497 78263
L112399 78263
L112350 78288
L112326 78312
L112302 78361
" />
</g>
<g style="fill:#000000; fill-opacity:0.0; 
stroke:#000000; stroke-width:78.7402; stroke-opacity:1; 
stroke-linecap:round; stroke-linejoin:round;">
</g>
<g style="fill:#000000; fill-opacity:0.0; 
stroke:#000000; stroke-width:59.0551; stroke-opacity:1; 
stroke-linecap:round; stroke-linejoin:round;">
<path d="M3937 23622
L4724 23622
" />
</g>
<g style="fill:#000000; fill-opacity:0.0; 
stroke:#000000; stroke-width:78.7402; stroke-opacity:1; 
stroke-linecap:round; stroke-linejoin:round;">
</g>
<g style="fill:#000000; fill-opacity:0.0; 
stroke:#000000; stroke-width:59.0551; stroke-opacity:1; 
stroke-linecap:round; stroke-linejoin:round;">
<path d="M3937 43307
L4724 43307
" />
</g>
<g style="fill:#000000; fill-opacity:0.0; 
stroke:#000000; stroke-width:78.7402; stroke-opacity:1; 
stroke-linecap:round; stroke-linejoin:round;">
</g>
<g style="fill:#000000; fill-opacity:0.0; 
stroke:#000000; stroke-width:59.0551; stroke-opacity:1; 
stroke-linecap:round; stroke-linejoin:round;">
<path d="M3937 62992
L4724 62992
" />
</g>
<g style="fill:#000000; fill-opacity:0.0; 
stroke:#000000; stroke-width:78.7402; stroke-opacity:1; 
stroke-linecap:round; stroke-linejoin:round;">
</g>
<g style="fill:#000000; fill-opacity:0.0; 
stroke:#000000; stroke-width:59.0551; stroke-opacity:1; 
stroke-linecap:round; stroke-linejoin:round;">
<path d="M4208 13864
L4452 13864
" />
<path d="M4160 14011
L4330 13499
L4501 14011
" />
</g>
<g style="fill:#000000; fill-opacity:0.0; 
stroke:#000000; stroke-width:78.7402; stroke-opacity:1; 
stroke-linecap:round; stroke-linejoin:round;">
</g>
<g style="fill:#000000; fill-opacity:0.0; 
stroke:#000000; stroke-width:59.0551; stroke-opacity:1; 
stroke-linecap:round; stroke-linejoin:round;">
<path d="M4367 33428
L4440 33452
L4464 33476
L4489 33525
L4489 33598
L4464 33647
L4440 33671
L4391 33696
L4196 33696
L4196 33184
L4367 33184
L4416 33208
L4440 33233
L4464 33281
L4464 33330
L4440 33379
L4416 33403
L4367 33428
L4196 33428
" />
</g>
<g style="fill:#000000; fill-opacity:0.0; 
stroke:#000000; stroke-width:78.7402; stroke-opacity:1; 
stroke-linecap:round; stroke-linejoin:round;">
</g>
<g style="fill:#000000; fill-opacity:0.0; 
stroke:#000000; stroke-width:59.0551; stroke-opacity:1; 
stroke-linecap:round; stroke-linejoin:round;">
<path d="M4489 53332
L4464 53356
L4391 53381
L4342 53381
L4269 53356
L4221 53308
L4196 53259
L4172 53161
L4172 53088
L4196 52991
L4221 52942
L4269 52893
L4342 52869
L4391 52869
L4464 52893
L4489 52918
" />
</g>
<g style="fill:#000000; fill-opacity:0.0; 
stroke:#000000; stroke-width:78.7402; stroke-opacity:1; 
stroke-linecap:round; stroke-linejoin:round;">
</g>
<g style="fill:#000000; fill-opacity:0.0; 
stroke:#000000; stroke-width:59.0551; stroke-opacity:1; 
stroke-linecap:round; stroke-linejoin:round;">
<path d="M4196 73066
L4196 72554
L4318 72554
L4391 72578
L4440 72627
L4464 72676
L4489 72773
L4489 72846
L4464 72944
L4440 72993
L4391 73041
L4318 73066
L4196 73066
" />
</g>
<g style="fill:#000000; fill-opacity:0.0; 
stroke:#000000; stroke-width:78.7402; stroke-opacity:1; 
stroke-linecap:round; stroke-linejoin:round;">
</g>
<g style="fill:#000000; fill-opacity:0.0; 
stroke:#000000; stroke-width:59.0551; stroke-opacity:1; 
stroke-linecap:round; stroke-linejoin:round;">
<path d="M112992 23622
L112205 23622
" />
</g>
<g style="fill:#000000; fill-opacity:0.0; 
stroke:#000000; stroke-width:78.7402; stroke-opacity:1; 
stroke-linecap:round; stroke-linejoin:round;">
</g>
<g style="fill:#000000; fill-opacity:0.0; 
stroke:#000000; stroke-width:59.0551; stroke-opacity:1; 
stroke-linecap:round; stroke-linejoin:round;">
<path d="M112992 43307
L112205 43307
" />
</g>
<g style="fill:#000000; fill-opacity:0.0; 
stroke:#000000; stroke-width:78.7402; stroke-opacity:1; 
stroke-linecap:round; stroke-linejoin:round;">
</g>
<g style="fill:#000000; fill-opacity:0.0; 
stroke:#000000; stroke-width:59.0551; stroke-opacity:1; 
stroke-linecap:round; stroke-linejoin:round;">
<path d="M112992 62992
L112205 62992
" />
</g>
<g style="fill:#000000; fill-opacity:0.0; 
stroke:#000000; stroke-width:78.7402; stroke-opacity:1; 
stroke-linecap:round; stroke-linejoin:round;">
</g>
<g style="fill:#000000; fill-opacity:0.0; 
stroke:#000000; stroke-width:59.0551; stroke-opacity:1; 
stroke-linecap:round; stroke-linejoin:round;">
<path d="M112477 13864
L112721 13864
" />
<path d="M112428 14011
L112599 13499
L112769 14011
" />
</g>
<g style="fill:#000000; fill-opacity:0.0; 
stroke:#000000; stroke-width:78.7402; stroke-opacity:1; 
stroke-linecap:round; stroke-linejoin:round;">
</g>
<g style="fill:#000000; fill-opacity:0.0; 
stroke:#000000; stroke-width:59.0551; stroke-opacity:1; 
stroke-linecap:round; stroke-linejoin:round;">
<path d="M112635 33428
L112708 33452
L112733 33476
L112757 33525
L112757 33598
L112733 33647
L112708 33671
L112660 33696
L112465 33696
L112465 33184
L112635 33184
L112684 33208
L112708 33233
L112733 33281
L112733 33330
L112708 33379
L112684 33403
L112635 33428
L112465 33428
" />
</g>
<g style="fill:#000000; fill-opacity:0.0; 
stroke:#000000; stroke-width:78.7402; stroke-opacity:1; 
stroke-linecap:round; stroke-linejoin:round;">
</g>
<g style="fill:#000000; fill-opacity:0.0; 
stroke:#000000; stroke-width:59.0551; stroke-opacity:1; 
stroke-linecap:round; stroke-linejoin:round;">
<path d="M112757 53332
L112733 53356
L112660 53381
L112611 53381
L112538 53356
L112489 53308
L112465 53259
L112440 53161
L112440 53088
L112465 52991
L112489 52942
L112538 52893
L112611 52869
L112660 52869
L112733 52893
L112757 52918
" />
</g>
<g style="fill:#000000; fill-opacity:0.0; 
stroke:#000000; stroke-width:78.7402; stroke-opacity:1; 
stroke-linecap:round; stroke-linejoin:round;">
</g>
<g style="fill:#000000; fill-opacity:0.0; 
stroke:#000000; stroke-width:59.0551; stroke-opacity:1; 
stroke-linecap:round; stroke-linejoin:round;">
<path d="M112465 73066
L112465 72554
L112587 72554
L112660 72578
L112708 72627
L112733 72676
L112757 72773
L112757 72846
L112733 72944
L112708 72993
L112660 73041
L112587 73066
L112465 73066
" />
</g>
<g style="fill:#000000; fill-opacity:0.0; 
stroke:#000000; stroke-width:78.7402; stroke-opacity:1; 
stroke-linecap:round; stroke-linejoin:round;">
</g>
<g style="fill:#000000; fill-opacity:0.0; 
stroke:#000000; stroke-width:59.0551; stroke-opacity:1; 
stroke-linecap:round; stroke-linejoin:round;">
<path d="M78881 76293
L78881 75703
L79022 75703
L79106 75731
L79162 75787
L79190 75843
L79219 75956
L79219 76040
L79190 76153
L79162 76209
L79106 76265
L79022 76293
L78881 76293
" />
<path d="M79725 76293
L79725 75984
L79697 75928
L79640 75899
L79528 75899
L79472 75928
" />
<path d="M79725 76265
L79669 76293
L79528 76293
L79472 76265
L79444 76209
L79444 76153
L79472 76096
L79528 76068
L79669 76068
L79725 76040
" />
<path d="M79922 75899
L80147 75899
" />
<path d="M80006 75703
L80006 76209
L80034 76265
L80090 76293
L80147 76293
" />
<path d="M80568 76265
L80512 76293
L80400 76293
L80343 76265
L80315 76209
L80315 75984
L80343 75928
L80400 75899
L80512 75899
L80568 75928
L80597 75984
L80597 76040
L80315 76096
" />
<path d="M80850 76237
L80878 76265
L80850 76293
L80822 76265
L80850 76237
L80850 76293
" />
<path d="M80850 75928
L80878 75956
L80850 75984
L80822 75956
L80850 75928
L80850 75984
" />
</g>
<g style="fill:#000000; fill-opacity:0.0; 
stroke:#000000; stroke-width:78.7402; stroke-opacity:1; 
stroke-linecap:round; stroke-linejoin:round;">
</g>
<g style="fill:#000000; fill-opacity:0.0; 
stroke:#000000; stroke-width:59.0551; stroke-opacity:1; 
stroke-linecap:round; stroke-linejoin:round;">
<path d="M69685 76577
L112205 76577
" />
</g>
<g style="fill:#000000; fill-opacity:0.0; 
stroke:#000000; stroke-width:78.7402; stroke-opacity:1; 
stroke-linecap:round; stroke-linejoin:round;">
</g>
<g style="fill:#000000; fill-opacity:0.0; 
stroke:#000000; stroke-width:59.0551; stroke-opacity:1; 
stroke-linecap:round; stroke-linejoin:round;">
<path d="M70220 77395
L70220 76805
" />
<path d="M70557 77395
L70304 77058
" />
<path d="M70557 76805
L70220 77142
" />
<path d="M70810 77395
L70810 77002
" />
<path d="M70810 76805
L70782 76833
L70810 76861
L70838 76833
L70810 76805
L70810 76861
" />
<path d="M71429 77339
L71401 77367
L71316 77395
L71260 77395
L71176 77367
L71120 77311
L71091 77255
L71063 77142
L71063 77058
L71091 76946
L71120 76889
L71176 76833
L71260 76805
L71316 76805
L71401 76833
L71429 76861
" />
<path d="M71935 77395
L71935 77086
L71907 77030
L71851 77002
L71738 77002
L71682 77030
" />
<path d="M71935 77367
L71879 77395
L71738 77395
L71682 77367
L71654 77311
L71654 77255
L71682 77199
L71738 77171
L71879 77171
L71935 77142
" />
<path d="M72469 77395
L72469 76805
" />
<path d="M72469 77367
L72413 77395
L72301 77395
L72244 77367
L72216 77339
L72188 77283
L72188 77114
L72216 77058
L72244 77030
L72301 77002
L72413 77002
L72469 77030
" />
<path d="M73201 77086
L73397 77086
" />
<path d="M73482 77395
L73201 77395
L73201 76805
L73482 76805
" />
<path d="M73735 77339
L73763 77367
L73735 77395
L73707 77367
L73735 77339
L73735 77395
" />
<path d="M74016 77395
L74016 76805
L74157 76805
L74241 76833
L74297 76889
L74325 76946
L74354 77058
L74354 77142
L74325 77255
L74297 77311
L74241 77367
L74157 77395
L74016 77395
" />
<path d="M74607 77339
L74635 77367
L74607 77395
L74579 77367
L74607 77339
L74607 77395
" />
<path d="M74860 77227
L75141 77227
" />
<path d="M74804 77395
L75000 76805
L75197 77395
" />
<path d="M75394 77339
L75422 77367
L75394 77395
L75366 77367
L75394 77339
L75394 77395
" />
<path d="M76575 77395
L76575 76805
" />
<path d="M76631 77171
L76800 77395
" />
<path d="M76800 77002
L76575 77227
" />
<path d="M77053 77395
L77053 77002
" />
<path d="M77053 76805
L77025 76833
L77053 76861
L77081 76833
L77053 76805
L77053 76861
" />
<path d="M77588 77367
L77531 77395
L77419 77395
L77363 77367
L77334 77339
L77306 77283
L77306 77114
L77334 77058
L77363 77030
L77419 77002
L77531 77002
L77588 77030
" />
<path d="M78094 77395
L78094 77086
L78066 77030
L78009 77002
L77897 77002
L77841 77030
" />
<path d="M78094 77367
L78037 77395
L77897 77395
L77841 77367
L77813 77311
L77813 77255
L77841 77199
L77897 77171
L78037 77171
L78094 77142
" />
<path d="M78628 77395
L78628 76805
" />
<path d="M78628 77367
L78572 77395
L78459 77395
L78403 77367
L78375 77339
L78347 77283
L78347 77114
L78375 77058
L78403 77030
L78459 77002
L78572 77002
L78628 77030
" />
<path d="M79472 76805
L79528 76805
L79584 76833
L79612 76861
L79640 76917
L79669 77030
L79669 77171
L79640 77283
L79612 77339
L79584 77367
L79528 77395
L79472 77395
L79415 77367
L79387 77339
L79359 77283
L79331 77171
L79331 77030
L79359 76917
L79387 76861
L79415 76833
L79472 76805
" />
<path d="M79922 77339
L79950 77367
L79922 77395
L79894 77367
L79922 77339
L79922 77395
" />
<path d="M80175 76861
L80203 76833
L80259 76805
L80400 76805
L80456 76833
L80484 76861
L80512 76917
L80512 76974
L80484 77058
L80147 77395
L80512 77395
" />
<path d="M80878 76805
L80934 76805
L80990 76833
L81018 76861
L81046 76917
L81075 77030
L81075 77171
L81046 77283
L81018 77339
L80990 77367
L80934 77395
L80878 77395
L80822 77367
L80793 77339
L80765 77283
L80737 77171
L80737 77030
L80765 76917
L80793 76861
L80822 76833
L80878 76805
" />
<path d="M81637 77395
L81300 77395
" />
<path d="M81468 77395
L81468 76805
L81412 76889
L81356 76946
L81300 76974
" />
<path d="M82171 76805
L81890 76805
L81862 77086
L81890 77058
L81946 77030
L82087 77030
L82143 77058
L82171 77086
L82199 77142
L82199 77283
L82171 77339
L82143 77367
L82087 77395
L81946 77395
L81890 77367
L81862 77339
" />
<path d="M82565 76805
L82621 76805
L82678 76833
L82706 76861
L82734 76917
L82762 77030
L82762 77171
L82734 77283
L82706 77339
L82678 77367
L82621 77395
L82565 77395
L82509 77367
L82481 77339
L82453 77283
L82424 77171
L82424 77030
L82453 76917
L82481 76861
L82509 76833
L82565 76805
" />
<path d="M82959 76805
L83352 76805
L83099 77395
" />
<path d="M83690 76805
L83746 76805
L83802 76833
L83831 76861
L83859 76917
L83887 77030
L83887 77171
L83859 77283
L83831 77339
L83802 77367
L83746 77395
L83690 77395
L83634 77367
L83606 77339
L83577 77283
L83549 77171
L83549 77030
L83577 76917
L83606 76861
L83634 76833
L83690 76805
" />
<path d="M84084 76805
L84449 76805
L84252 77030
L84337 77030
L84393 77058
L84421 77086
L84449 77142
L84449 77283
L84421 77339
L84393 77367
L84337 77395
L84168 77395
L84112 77367
L84084 77339
" />
<path d="M84674 76861
L84702 76833
L84759 76805
L84899 76805
L84955 76833
L84983 76861
L85012 76917
L85012 76974
L84983 77058
L84646 77395
L85012 77395
" />
<path d="M85237 76861
L85265 76833
L85321 76805
L85462 76805
L85518 76833
L85546 76861
L85574 76917
L85574 76974
L85546 77058
L85208 77395
L85574 77395
" />
<path d="M86080 77002
L86080 77395
" />
<path d="M85940 76777
L85799 77199
L86165 77199
" />
<path d="M86643 76805
L86530 76805
L86474 76833
L86446 76861
L86390 76946
L86361 77058
L86361 77283
L86390 77339
L86418 77367
L86474 77395
L86586 77395
L86643 77367
L86671 77339
L86699 77283
L86699 77142
L86671 77086
L86643 77058
L86586 77030
L86474 77030
L86418 77058
L86390 77086
L86361 77142
" />
<path d="M86952 77171
L87402 77171
" />
<path d="M87177 77395
L87177 76946
" />
<path d="M87964 76805
L87683 76805
L87655 77086
L87683 77058
L87739 77030
L87880 77030
L87936 77058
L87964 77086
L87992 77142
L87992 77283
L87964 77339
L87936 77367
L87880 77395
L87739 77395
L87683 77367
L87655 77339
" />
<path d="M88330 77058
L88274 77030
L88246 77002
L88217 76946
L88217 76917
L88246 76861
L88274 76833
L88330 76805
L88442 76805
L88499 76833
L88527 76861
L88555 76917
L88555 76946
L88527 77002
L88499 77030
L88442 77058
L88330 77058
L88274 77086
L88246 77114
L88217 77171
L88217 77283
L88246 77339
L88274 77367
L88330 77395
L88442 77395
L88499 77367
L88527 77339
L88555 77283
L88555 77171
L88527 77114
L88499 77086
L88442 77058
" />
<path d="M88892 77058
L88836 77030
L88808 77002
L88780 76946
L88780 76917
L88808 76861
L88836 76833
L88892 76805
L89005 76805
L89061 76833
L89089 76861
L89117 76917
L89117 76946
L89089 77002
L89061 77030
L89005 77058
L88892 77058
L88836 77086
L88808 77114
L88780 77171
L88780 77283
L88808 77339
L88836 77367
L88892 77395
L89005 77395
L89061 77367
L89089 77339
L89117 77283
L89117 77171
L89089 77114
L89061 77086
L89005 77058
" />
<path d="M89483 76805
L89539 76805
L89595 76833
L89624 76861
L89652 76917
L89680 77030
L89680 77171
L89652 77283
L89624 77339
L89595 77367
L89539 77395
L89483 77395
L89427 77367
L89399 77339
L89370 77283
L89342 77171
L89342 77030
L89370 76917
L89399 76861
L89427 76833
L89483 76805
" />
<path d="M89905 76861
L89933 76833
L89989 76805
L90130 76805
L90186 76833
L90214 76861
L90242 76917
L90242 76974
L90214 77058
L89877 77395
L90242 77395
" />
<path d="M90439 76805
L90805 76805
L90608 77030
L90692 77030
L90748 77058
L90777 77086
L90805 77142
L90805 77283
L90777 77339
L90748 77367
L90692 77395
L90523 77395
L90467 77367
L90439 77339
" />
<path d="M89792 76703
L90917 76703
" />
<path d="M91311 77002
L91311 77395
" />
<path d="M91058 77002
L91058 77311
L91086 77367
L91142 77395
L91226 77395
L91283 77367
L91311 77339
" />
<path d="M91592 77395
L91592 76805
" />
<path d="M91592 77030
L91648 77002
L91761 77002
L91817 77030
L91845 77058
L91873 77114
L91873 77283
L91845 77339
L91817 77367
L91761 77395
L91648 77395
L91592 77367
" />
<path d="M92379 77002
L92379 77395
" />
<path d="M92126 77002
L92126 77311
L92154 77367
L92211 77395
L92295 77395
L92351 77367
L92379 77339
" />
<path d="M92661 77002
L92661 77395
" />
<path d="M92661 77058
L92689 77030
L92745 77002
L92829 77002
L92886 77030
L92914 77086
L92914 77395
" />
<path d="M93111 77002
L93336 77002
" />
<path d="M93195 76805
L93195 77311
L93223 77367
L93279 77395
L93336 77395
" />
<path d="M93786 77002
L93786 77395
" />
<path d="M93532 77002
L93532 77311
L93561 77367
L93617 77395
L93701 77395
L93757 77367
L93786 77339
" />
<path d="M94376 77395
L94039 77395
" />
<path d="M94207 77395
L94207 76805
L94151 76889
L94095 76946
L94039 76974
" />
<path d="M94882 77002
L94882 77395
" />
<path d="M94742 76777
L94601 77199
L94967 77199
" />
<path d="M95192 77339
L95220 77367
L95192 77395
L95163 77367
L95192 77339
L95192 77395
" />
<path d="M95585 76805
L95642 76805
L95698 76833
L95726 76861
L95754 76917
L95782 77030
L95782 77171
L95754 77283
L95726 77339
L95698 77367
L95642 77395
L95585 77395
L95529 77367
L95501 77339
L95473 77283
L95445 77171
L95445 77030
L95473 76917
L95501 76861
L95529 76833
L95585 76805
" />
<path d="M96288 77002
L96288 77395
" />
<path d="M96148 76777
L96007 77199
L96373 77199
" />
<path d="M96598 77339
L96626 77367
L96598 77395
L96570 77367
L96598 77339
L96598 77395
" />
<path d="M97188 77395
L96851 77395
" />
<path d="M97019 77395
L97019 76805
L96963 76889
L96907 76946
L96851 76974
" />
<path d="M97441 77171
L97891 77171
" />
<path d="M98172 77002
L98172 77592
" />
<path d="M98172 77030
L98229 77002
L98341 77002
L98397 77030
L98426 77058
L98454 77114
L98454 77283
L98426 77339
L98397 77367
L98341 77395
L98229 77395
L98172 77367
" />
<path d="M98707 77395
L98707 77002
" />
<path d="M98707 77114
L98735 77058
L98763 77030
L98819 77002
L98876 77002
" />
<path d="M99157 77395
L99100 77367
L99072 77339
L99044 77283
L99044 77114
L99072 77058
L99100 77030
L99157 77002
L99241 77002
L99297 77030
L99325 77058
L99354 77114
L99354 77283
L99325 77339
L99297 77367
L99241 77395
L99157 77395
" />
<path d="M99860 77395
L99860 76805
" />
<path d="M99860 77367
L99804 77395
L99691 77395
L99635 77367
L99607 77339
L99579 77283
L99579 77114
L99607 77058
L99635 77030
L99691 77002
L99804 77002
L99860 77030
" />
<path d="M100394 77002
L100394 77395
" />
<path d="M100141 77002
L100141 77311
L100169 77367
L100225 77395
L100310 77395
L100366 77367
L100394 77339
" />
<path d="M100928 77367
L100872 77395
L100760 77395
L100703 77367
L100675 77339
L100647 77283
L100647 77114
L100675 77058
L100703 77030
L100760 77002
L100872 77002
L100928 77030
" />
<path d="M101097 77002
L101322 77002
" />
<path d="M101181 76805
L101181 77311
L101210 77367
L101266 77395
L101322 77395
" />
</g>
<g style="fill:#000000; fill-opacity:0.0; 
stroke:#000000; stroke-width:78.7402; stroke-opacity:1; 
stroke-linecap:round; stroke-linejoin:round;">
</g>
<g style="fill:#000000; fill-opacity:0.0; 
stroke:#000000; stroke-width:59.0551; stroke-opacity:1; 
stroke-linecap:round; stroke-linejoin:round;">
<path d="M69685 75396
L112205 75396
" />
</g>
<g style="fill:#000000; fill-opacity:0.0; 
stroke:#000000; stroke-width:78.7402; stroke-opacity:1; 
stroke-linecap:round; stroke-linejoin:round;">
</g>
<g style="fill:#000000; fill-opacity:0.0; 
stroke:#000000; stroke-width:118.11; stroke-opacity:1; 
stroke-linecap:round; stroke-linejoin:round;">
<path d="M104022 76293
L103825 76012
" />
<path d="M103684 76293
L103684 75703
L103909 75703
L103965 75731
L103994 75759
L104022 75815
L104022 75899
L103994 75956
L103965 75984
L103909 76012
L103684 76012
" />
<path d="M104500 76265
L104444 76293
L104331 76293
L104275 76265
L104247 76209
L104247 75984
L104275 75928
L104331 75899
L104444 75899
L104500 75928
L104528 75984
L104528 76040
L104247 76096
" />
<path d="M104725 75899
L104865 76293
L105006 75899
" />
<path d="M105231 76237
L105259 76265
L105231 76293
L105203 76265
L105231 76237
L105231 76293
" />
<path d="M105231 75928
L105259 75956
L105231 75984
L105203 75956
L105231 75928
L105231 75984
" />
</g>
<g style="fill:#000000; fill-opacity:0.0; 
stroke:#000000; stroke-width:78.7402; stroke-opacity:1; 
stroke-linecap:round; stroke-linejoin:round;">
</g>
<g style="fill:#000000; fill-opacity:0.0; 
stroke:#000000; stroke-width:59.0551; stroke-opacity:1; 
stroke-linecap:round; stroke-linejoin:round;">
<path d="M70192 76265
L70276 76293
L70417 76293
L70473 76265
L70501 76237
L70529 76181
L70529 76124
L70501 76068
L70473 76040
L70417 76012
L70304 75984
L70248 75956
L70220 75928
L70192 75871
L70192 75815
L70220 75759
L70248 75731
L70304 75703
L70445 75703
L70529 75731
" />
<path d="M70782 76293
L70782 75899
" />
<path d="M70782 75703
L70754 75731
L70782 75759
L70810 75731
L70782 75703
L70782 75759
" />
<path d="M71007 75899
L71316 75899
L71007 76293
L71316 76293
" />
<path d="M71766 76265
L71710 76293
L71598 76293
L71541 76265
L71513 76209
L71513 75984
L71541 75928
L71598 75899
L71710 75899
L71766 75928
L71795 75984
L71795 76040
L71513 76096
" />
<path d="M72048 76237
L72076 76265
L72048 76293
L72019 76265
L72048 76237
L72048 76293
" />
<path d="M72048 75928
L72076 75956
L72048 75984
L72019 75956
L72048 75928
L72048 75984
" />
<path d="M72751 76124
L73032 76124
" />
<path d="M72694 76293
L72891 75703
L73088 76293
" />
<path d="M73538 75899
L73538 76293
" />
<path d="M73397 75674
L73257 76096
L73622 76096
" />
</g>
<g style="fill:#000000; fill-opacity:0.0; 
stroke:#000000; stroke-width:78.7402; stroke-opacity:1; 
stroke-linecap:round; stroke-linejoin:round;">
</g>
<g style="fill:#000000; fill-opacity:0.0; 
stroke:#000000; stroke-width:59.0551; stroke-opacity:1; 
stroke-linecap:round; stroke-linejoin:round;">
<path d="M103684 77395
L103684 76805
" />
<path d="M104219 77395
L104219 76805
" />
<path d="M104219 77367
L104162 77395
L104050 77395
L103994 77367
L103965 77339
L103937 77283
L103937 77114
L103965 77058
L103994 77030
L104050 77002
L104162 77002
L104219 77030
" />
<path d="M104500 77339
L104528 77367
L104500 77395
L104472 77367
L104500 77339
L104500 77395
" />
<path d="M104500 77030
L104528 77058
L104500 77086
L104472 77058
L104500 77030
L104500 77086
" />
<path d="M105540 77395
L105203 77395
" />
<path d="M105372 77395
L105372 76805
L105315 76889
L105259 76946
L105203 76974
" />
<path d="M106215 76777
L105709 77536
" />
<path d="M106721 77395
L106384 77395
" />
<path d="M106553 77395
L106553 76805
L106496 76889
L106440 76946
L106384 76974
" />
</g>
<g style="fill:#000000; fill-opacity:0.0; 
stroke:#000000; stroke-width:78.7402; stroke-opacity:1; 
stroke-linecap:round; stroke-linejoin:round;">
</g>
<g style="fill:#000000; fill-opacity:0.0; 
stroke:#000000; stroke-width:59.0551; stroke-opacity:1; 
stroke-linecap:round; stroke-linejoin:round;">
<path d="M69685 73821
L112205 73821
" />
</g>
<g style="fill:#000000; fill-opacity:0.0; 
stroke:#000000; stroke-width:78.7402; stroke-opacity:1; 
stroke-linecap:round; stroke-linejoin:round;">
</g>
<g style="fill:#000000; fill-opacity:0.0; 
stroke:#000000; stroke-width:157.48; stroke-opacity:1; 
stroke-linecap:round; stroke-linejoin:round;">
<path d="M70257 74099
L70707 74099
" />
<path d="M70384 74886
L70482 74099
" />
<path d="M70871 74886
L70937 74361
" />
<path d="M70970 74099
L70927 74136
L70960 74174
L71002 74136
L70970 74099
L70960 74174
" />
<path d="M71199 74361
L71499 74361
" />
<path d="M71345 74099
L71260 74774
L71288 74849
L71359 74886
L71434 74886
" />
<path d="M71809 74886
L71738 74849
L71710 74774
L71795 74099
" />
<path d="M72413 74849
L72334 74886
L72184 74886
L72113 74849
L72085 74774
L72123 74474
L72169 74399
L72249 74361
L72399 74361
L72469 74399
L72498 74474
L72488 74549
L72104 74624
" />
<path d="M72793 74811
L72826 74849
L72783 74886
L72751 74849
L72793 74811
L72783 74886
" />
<path d="M72844 74399
L72877 74436
L72835 74474
L72802 74436
L72844 74399
L72835 74474
" />
</g>
<g style="fill:#000000; fill-opacity:0.0; 
stroke:#000000; stroke-width:78.7402; stroke-opacity:1; 
stroke-linecap:round; stroke-linejoin:round;">
</g>
<g style="fill:#000000; fill-opacity:0.0; 
stroke:#000000; stroke-width:59.0551; stroke-opacity:1; 
stroke-linecap:round; stroke-linejoin:round;">
<path d="M70417 73070
L70220 73070
" />
<path d="M70220 73380
L70220 72789
L70501 72789
" />
<path d="M70726 73380
L70726 72986
" />
<path d="M70726 72789
L70698 72817
L70726 72845
L70754 72817
L70726 72789
L70726 72845
" />
<path d="M71091 73380
L71035 73352
L71007 73295
L71007 72789
" />
<path d="M71541 73352
L71485 73380
L71373 73380
L71316 73352
L71288 73295
L71288 73070
L71316 73014
L71373 72986
L71485 72986
L71541 73014
L71570 73070
L71570 73127
L71288 73183
" />
<path d="M71823 73323
L71851 73352
L71823 73380
L71795 73352
L71823 73323
L71823 73380
" />
<path d="M71823 73014
L71851 73042
L71823 73070
L71795 73042
L71823 73014
L71823 73070
" />
<path d="M72469 72986
L72694 72986
" />
<path d="M72554 72789
L72554 73295
L72582 73352
L72638 73380
L72694 73380
" />
<path d="M73116 73352
L73060 73380
L72947 73380
L72891 73352
L72863 73295
L72863 73070
L72891 73014
L72947 72986
L73060 72986
L73116 73014
L73144 73070
L73144 73127
L72863 73183
" />
<path d="M73397 73380
L73397 72986
" />
<path d="M73397 73042
L73426 73014
L73482 72986
L73566 72986
L73622 73014
L73651 73070
L73651 73380
" />
<path d="M73651 73070
L73679 73014
L73735 72986
L73819 72986
L73876 73014
L73904 73070
L73904 73380
" />
<path d="M74185 72986
L74185 73577
" />
<path d="M74185 73014
L74241 72986
L74354 72986
L74410 73014
L74438 73042
L74466 73099
L74466 73267
L74438 73323
L74410 73352
L74354 73380
L74241 73380
L74185 73352
" />
<path d="M74944 73352
L74888 73380
L74775 73380
L74719 73352
L74691 73295
L74691 73070
L74719 73014
L74775 72986
L74888 72986
L74944 73014
L74972 73070
L74972 73127
L74691 73183
" />
<path d="M75225 73380
L75225 72986
" />
<path d="M75225 73099
L75253 73042
L75282 73014
L75338 72986
L75394 72986
" />
<path d="M75844 73380
L75844 73070
L75816 73014
L75760 72986
L75647 72986
L75591 73014
" />
<path d="M75844 73352
L75788 73380
L75647 73380
L75591 73352
L75563 73295
L75563 73239
L75591 73183
L75647 73155
L75788 73155
L75844 73127
" />
<path d="M76041 72986
L76266 72986
" />
<path d="M76125 72789
L76125 73295
L76153 73352
L76210 73380
L76266 73380
" />
<path d="M76716 72986
L76716 73380
" />
<path d="M76463 72986
L76463 73295
L76491 73352
L76547 73380
L76631 73380
L76688 73352
L76716 73323
" />
<path d="M76997 73380
L76997 72986
" />
<path d="M76997 73099
L77025 73042
L77053 73014
L77109 72986
L77166 72986
" />
<path d="M77588 73352
L77531 73380
L77419 73380
L77363 73352
L77334 73295
L77334 73070
L77363 73014
L77419 72986
L77531 72986
L77588 73014
L77616 73070
L77616 73127
L77334 73183
" />
<path d="M77728 73436
L78178 73436
" />
<path d="M78319 73380
L78319 72789
" />
<path d="M78572 73380
L78572 73070
L78544 73014
L78487 72986
L78403 72986
L78347 73014
L78319 73042
" />
<path d="M79106 72986
L79106 73380
" />
<path d="M78853 72986
L78853 73295
L78881 73352
L78937 73380
L79022 73380
L79078 73352
L79106 73323
" />
<path d="M79387 73380
L79387 72986
" />
<path d="M79387 73042
L79415 73014
L79472 72986
L79556 72986
L79612 73014
L79640 73070
L79640 73380
" />
<path d="M79640 73070
L79669 73014
L79725 72986
L79809 72986
L79865 73014
L79894 73070
L79894 73380
" />
<path d="M80175 73380
L80175 72986
" />
<path d="M80175 72789
L80147 72817
L80175 72845
L80203 72817
L80175 72789
L80175 72845
" />
<path d="M80709 73380
L80709 72789
" />
<path d="M80709 73352
L80653 73380
L80540 73380
L80484 73352
L80456 73323
L80428 73267
L80428 73099
L80456 73042
L80484 73014
L80540 72986
L80653 72986
L80709 73014
" />
<path d="M80990 73380
L80990 72986
" />
<path d="M80990 72789
L80962 72817
L80990 72845
L81018 72817
L80990 72789
L80990 72845
" />
<path d="M81187 72986
L81412 72986
" />
<path d="M81271 72789
L81271 73295
L81300 73352
L81356 73380
L81412 73380
" />
<path d="M81553 72986
L81693 73380
" />
<path d="M81834 72986
L81693 73380
L81637 73520
L81609 73548
L81553 73577
" />
<path d="M82059 73323
L82087 73352
L82059 73380
L82031 73352
L82059 73323
L82059 73380
" />
<path d="M82340 73380
L82340 72789
" />
<path d="M82396 73155
L82565 73380
" />
<path d="M82565 72986
L82340 73211
" />
<path d="M82818 73380
L82818 72986
" />
<path d="M82818 72789
L82790 72817
L82818 72845
L82846 72817
L82818 72789
L82818 72845
" />
<path d="M83352 73352
L83296 73380
L83184 73380
L83127 73352
L83099 73323
L83071 73267
L83071 73099
L83099 73042
L83127 73014
L83184 72986
L83296 72986
L83352 73014
" />
<path d="M83859 73380
L83859 73070
L83831 73014
L83774 72986
L83662 72986
L83606 73014
" />
<path d="M83859 73352
L83802 73380
L83662 73380
L83606 73352
L83577 73295
L83577 73239
L83606 73183
L83662 73155
L83802 73155
L83859 73127
" />
<path d="M84393 73380
L84393 72789
" />
<path d="M84393 73352
L84337 73380
L84224 73380
L84168 73352
L84140 73323
L84112 73267
L84112 73099
L84140 73042
L84168 73014
L84224 72986
L84337 72986
L84393 73014
" />
<path d="M84534 73436
L84983 73436
" />
<path d="M85124 72986
L85124 73577
" />
<path d="M85124 73014
L85180 72986
L85293 72986
L85349 73014
L85377 73042
L85405 73099
L85405 73267
L85377 73323
L85349 73352
L85293 73380
L85180 73380
L85124 73352
" />
<path d="M85912 73352
L85855 73380
L85743 73380
L85687 73352
L85658 73323
L85630 73267
L85630 73099
L85658 73042
L85687 73014
L85743 72986
L85855 72986
L85912 73014
" />
<path d="M86165 73380
L86165 72789
" />
<path d="M86165 73014
L86221 72986
L86333 72986
L86390 73014
L86418 73042
L86446 73099
L86446 73267
L86418 73323
L86390 73352
L86333 73380
L86221 73380
L86165 73352
" />
</g>
<g style="fill:#000000; fill-opacity:0.0; 
stroke:#000000; stroke-width:78.7402; stroke-opacity:1; 
stroke-linecap:round; stroke-linejoin:round;">
</g>
<g style="fill:#000000; fill-opacity:0.0; 
stroke:#000000; stroke-width:59.0551; stroke-opacity:1; 
stroke-linecap:round; stroke-linejoin:round;">
<path d="M69685 71459
L112205 71459
" />
</g>
<g style="fill:#000000; fill-opacity:0.0; 
stroke:#000000; stroke-width:78.7402; stroke-opacity:1; 
stroke-linecap:round; stroke-linejoin:round;">
</g>
<g style="fill:#000000; fill-opacity:0.0; 
stroke:#000000; stroke-width:59.0551; stroke-opacity:1; 
stroke-linecap:round; stroke-linejoin:round;">
<path d="M70192 72289
L70276 72317
L70417 72317
L70473 72289
L70501 72260
L70529 72204
L70529 72148
L70501 72092
L70473 72064
L70417 72036
L70304 72007
L70248 71979
L70220 71951
L70192 71895
L70192 71839
L70220 71782
L70248 71754
L70304 71726
L70445 71726
L70529 71754
" />
<path d="M70782 72317
L70782 71726
" />
<path d="M71035 72317
L71035 72007
L71007 71951
L70951 71923
L70867 71923
L70810 71951
L70782 71979
" />
<path d="M71541 72289
L71485 72317
L71373 72317
L71316 72289
L71288 72232
L71288 72007
L71316 71951
L71373 71923
L71485 71923
L71541 71951
L71570 72007
L71570 72064
L71288 72120
" />
<path d="M72048 72289
L71991 72317
L71879 72317
L71823 72289
L71795 72232
L71795 72007
L71823 71951
L71879 71923
L71991 71923
L72048 71951
L72076 72007
L72076 72064
L71795 72120
" />
<path d="M72244 71923
L72469 71923
" />
<path d="M72329 71726
L72329 72232
L72357 72289
L72413 72317
L72469 72317
" />
<path d="M72666 72260
L72694 72289
L72666 72317
L72638 72289
L72666 72260
L72666 72317
" />
<path d="M72666 71951
L72694 71979
L72666 72007
L72638 71979
L72666 71951
L72666 72007
" />
</g>
<g style="fill:#000000; fill-opacity:0.0; 
stroke:#000000; stroke-width:78.7402; stroke-opacity:1; 
stroke-linecap:round; stroke-linejoin:round;">
</g>
<g style="fill:#000000; fill-opacity:0.0; 
stroke:#000000; stroke-width:59.0551; stroke-opacity:1; 
stroke-linecap:round; stroke-linejoin:round;">
<path d="M77559 75396
L77559 76577
" />
</g>
<g style="fill:#000000; fill-opacity:0.0; 
stroke:#000000; stroke-width:78.7402; stroke-opacity:1; 
stroke-linecap:round; stroke-linejoin:round;">
</g>
<g style="fill:#000000; fill-opacity:0.0; 
stroke:#000000; stroke-width:59.0551; stroke-opacity:1; 
stroke-linecap:round; stroke-linejoin:round;">
<path d="M102756 75396
L102756 77955
" />
</g>
<g style="fill:#840084; fill-opacity:0.0; 
stroke:#840084; stroke-width:50; stroke-opacity:1; 
stroke-linecap:round; stroke-linejoin:round;">
<path d="M57180 33250
L57680 33250
" />
<path d="M57180 33750
L57670 33750
" />
<path d="M57180 33900
L57180 33100
" />
<path d="M57180 33100
L57680 33100
" />
<path d="M57680 33100
L57680 33900
" />
<path d="M57680 33900
L57180 33900
" />
<path d="M58680 33750
L58180 33750
" />
<path d="M58680 33250
L58190 33250
" />
<path d="M58680 33100
L58680 33900
" />
<path d="M58680 33900
L58180 33900
" />
<path d="M58180 33900
L58180 33100
" />
<path d="M58180 33100
L58680 33100
" />
<path d="M56680 33750
L56180 33750
" />
<path d="M56680 33250
L56190 33250
" />
<path d="M56680 33100
L56680 33900
" />
<path d="M56680 33900
L56180 33900
" />
<path d="M56180 33900
L56180 33100
" />
<path d="M56180 33100
L56680 33100
" />
<path d="M58532 28330
L58532 27897
" />
<path d="M58532 27897
L58099 27897
" />
<path d="M58138 27937
L58059 27858
" />
<path d="M58059 27858
L58571 27858
" />
<path d="M58571 27858
L58571 28370
" />
<path d="M58571 28370
L58492 28291
" />
<path d="M58492 28291
L58492 27937
" />
<path d="M58492 27937
L58138 27937
" />
<path d="M58256 28016
L58295 28016
" />
<path d="M58413 28134
L58413 28094
" />
<path d="M58414 28015
L58414 29984
" />
<path d="M58414 29984
L56445 29984
" />
<path d="M56445 29984
L56445 28015
" />
<path d="M56445 28015
L58414 28015
" />
</g>
<g style="fill:#840084; fill-opacity:0.0; 
stroke:#840084; stroke-width:24; stroke-opacity:1; 
stroke-linecap:round; stroke-linejoin:round;">
<path d="M57410 32542
L57404 32547
L57387 32553
L57376 32553
L57359 32547
L57348 32536
L57342 32525
L57337 32502
L57337 32485
L57342 32463
L57348 32452
L57359 32441
L57376 32435
L57387 32435
L57404 32441
L57410 32446
" />
<path d="M57522 32553
L57455 32553
" />
<path d="M57489 32553
L57489 32435
L57477 32452
L57466 32463
L57455 32469
" />
<path d="M58410 32542
L58404 32547
L58387 32553
L58376 32553
L58359 32547
L58348 32536
L58342 32525
L58337 32502
L58337 32485
L58342 32463
L58348 32452
L58359 32441
L58376 32435
L58387 32435
L58404 32441
L58410 32446
" />
<path d="M58455 32446
L58460 32441
L58472 32435
L58500 32435
L58511 32441
L58517 32446
L58522 32457
L58522 32469
L58517 32485
L58449 32553
L58522 32553
" />
<path d="M56410 32542
L56404 32547
L56387 32553
L56376 32553
L56359 32547
L56348 32536
L56342 32525
L56337 32502
L56337 32485
L56342 32463
L56348 32452
L56359 32441
L56376 32435
L56387 32435
L56404 32441
L56410 32446
" />
<path d="M56449 32435
L56522 32435
L56483 32480
L56500 32480
L56511 32485
L56517 32491
L56522 32502
L56522 32530
L56517 32542
L56511 32547
L56500 32553
L56466 32553
L56455 32547
L56449 32542
" />
</g>
<g style="fill:#008400; fill-opacity:0.0; 
stroke:#008400; stroke-width:0; stroke-opacity:1; 
stroke-linecap:round; stroke-linejoin:round;">
</g>
<g style="fill:#008400; fill-opacity:1.0; 
stroke:#008400; stroke-width:0; stroke-opacity:1; 
stroke-linecap:round; stroke-linejoin:round;">
<polyline style="fill-rule:evenodd;"
points="57135,33381
57725,33381
57725,32869
57135,32869
57135,33381
" /> 
<polyline style="fill-rule:evenodd;"
points="57135,34131
57725,34131
57725,33619
57135,33619
57135,34131
" /> 
<polyline style="fill-rule:evenodd;"
points="58725,33619
58135,33619
58135,34131
58725,34131
58725,33619
" /> 
<polyline style="fill-rule:evenodd;"
points="58725,32869
58135,32869
58135,33381
58725,33381
58725,32869
" /> 
<polyline style="fill-rule:evenodd;"
points="56725,33619
56135,33619
56135,34131
56725,34131
56725,33619
" /> 
<polyline style="fill-rule:evenodd;"
points="56725,32869
56135,32869
56135,33381
56725,33381
56725,32869
" /> 
<polyline style="fill-rule:evenodd;"
points="57973,28271
57973,27956
57831,27956
57831,28271
57973,28271
" /> 
<polyline style="fill-rule:evenodd;"
points="57658,28271
57658,27956
57516,27956
57516,28271
57658,28271
" /> 
<polyline style="fill-rule:evenodd;"
points="57343,28271
57343,27956
57201,27956
57201,28271
57343,28271
" /> 
<polyline style="fill-rule:evenodd;"
points="57028,28271
57028,27956
56886,27956
56886,28271
57028,28271
" /> 
<polyline style="fill-rule:evenodd;"
points="56701,28913
56701,28771
56386,28771
56386,28913
56701,28913
" /> 
<polyline style="fill-rule:evenodd;"
points="56701,29228
56701,29086
56386,29086
56386,29228
56701,29228
" /> 
<polyline style="fill-rule:evenodd;"
points="56701,29543
56701,29401
56386,29401
56386,29543
56701,29543
" /> 
<polyline style="fill-rule:evenodd;"
points="57028,30043
57028,29728
56886,29728
56886,30043
57028,30043
" /> 
<polyline style="fill-rule:evenodd;"
points="57343,30043
57343,29728
57201,29728
57201,30043
57343,30043
" /> 
<polyline style="fill-rule:evenodd;"
points="57430,29000
57430,28360
56790,28360
56790,29000
57430,29000
" /> 
<polyline style="fill-rule:evenodd;"
points="58069,29000
58069,28360
57430,28360
57430,29000
58069,29000
" /> 
<polyline style="fill-rule:evenodd;"
points="58069,29639
58069,29000
57430,29000
57430,29639
58069,29639
" /> 
<polyline style="fill-rule:evenodd;"
points="57430,29639
57430,29000
56790,29000
56790,29639
57430,29639
" /> 
<polyline style="fill-rule:evenodd;"
points="57658,30043
57658,29728
57516,29728
57516,30043
57658,30043
" /> 
<polyline style="fill-rule:evenodd;"
points="57973,30043
57973,29728
57831,29728
57831,30043
57973,30043
" /> 
<polyline style="fill-rule:evenodd;"
points="58473,29543
58473,29401
58158,29401
58158,29543
58473,29543
" /> 
<polyline style="fill-rule:evenodd;"
points="58473,29228
58473,29086
58158,29086
58158,29228
58473,29228
" /> 
<polyline style="fill-rule:evenodd;"
points="58473,28913
58473,28771
58158,28771
58158,28913
58473,28913
" /> 
<polyline style="fill-rule:evenodd;"
points="58473,28598
58473,28456
58158,28456
58158,28598
58473,28598
" /> 
<polyline style="fill-rule:evenodd;"
points="56701,28598
56701,28456
56386,28456
56386,28598
56701,28598
" /> 
</g>
<g style="fill:#840000; fill-opacity:1.0; 
stroke:#840000; stroke-width:0; stroke-opacity:1; 
stroke-linecap:round; stroke-linejoin:round;">
<polyline style="fill-rule:evenodd;"
points="59230,35433
59230,34567
58630,34567
58630,35433
59230,35433
" /> 
</g>
<g style="fill:#840000; fill-opacity:1.0; 
stroke:#840000; stroke-width:600; stroke-opacity:1; 
stroke-linecap:round; stroke-linejoin:round;">
</g>
<g style="fill:#840000; fill-opacity:0.0; 
stroke:#840000; stroke-width:600; stroke-opacity:1; 
stroke-linecap:round; stroke-linejoin:round;">
<path d="M57930 34867
L57930 35133
" />
<path d="M56930 34867
L56930 35133
" />
<path d="M55930 34867
L55930 35133
" />
</g>
<g style="fill:#008400; fill-opacity:0.0; 
stroke:#008400; stroke-width:0; stroke-opacity:1; 
stroke-linecap:round; stroke-linejoin:round;">
</g>
<g style="fill:#008400; fill-opacity:1.0; 
stroke:#008400; stroke-width:0; stroke-opacity:1; 
stroke-linecap:round; stroke-linejoin:round;">
<polyline style="fill-rule:evenodd;"
points="59225,32295
59225,31704
58634,31704
58634,32295
59225,32295
" /> 
<polyline style="fill-rule:evenodd;"
points="56225,32295
56225,31704
55634,31704
55634,32295
56225,32295
" /> 
<polyline style="fill-rule:evenodd;"
points="58225,32295
58225,31704
57634,31704
57634,32295
58225,32295
" /> 
<polyline style="fill-rule:evenodd;"
points="57225,32295
57225,31704
56634,31704
56634,32295
57225,32295
" /> 
</g>
<g style="fill:#C1C1C1; fill-opacity:1.0; 
stroke:#C1C1C1; stroke-width:0; stroke-opacity:1; 
stroke-linecap:round; stroke-linejoin:round;">
<circle cx="57587.5" cy="31216" r="118.11" /> 
</g>
<g style="fill:#C1C1C1; fill-opacity:1.0; 
stroke:#C1C1C1; stroke-width:78.7402; stroke-opacity:1; 
stroke-linecap:round; stroke-linejoin:round;">
</g>
<g style="fill:#C1C1C1; fill-opacity:1.0; 
stroke:#C1C1C1; stroke-width:0; stroke-opacity:1; 
stroke-linecap:round; stroke-linejoin:round;">
<circle cx="58922" cy="33934.3" r="118.11" /> 
</g>
<g style="fill:#C1C1C1; fill-opacity:1.0; 
stroke:#C1C1C1; stroke-width:78.7402; stroke-opacity:1; 
stroke-linecap:round; stroke-linejoin:round;">
</g>
<g style="fill:#008400; fill-opacity:1.0; 
stroke:#008400; stroke-width:98.4252; stroke-opacity:1; 
stroke-linecap:round; stroke-linejoin:round;">
</g>
<g style="fill:#008400; fill-opacity:0.0; 
stroke:#008400; stroke-width:98.4252; stroke-opacity:1; 
stroke-linecap:round; stroke-linejoin:round;">
<path d="M56250 34438
L55930 34438
" />
<path d="M56430 34259
L56250 34438
" />
<path d="M56430 33875
L56430 34259
" />
<path d="M55930 35000
L55930 34438
" />
<path d="M57977 32740
L57430 32740
" />
<path d="M58506 32211
L57977 32740
" />
<path d="M58506 32000
L58506 32211
" />
<path d="M58930 32000
L58506 32000
" />
<path d="M58506 30775
L58506 32000
" />
<path d="M57902 30171
L58506 30775
" />
<path d="M57902 29885
L57902 30171
" />
<path d="M57430 33125
L57430 32740
" />
<path d="M55930 32000
L55930 32423
" />
<path d="M56006 33451
L56430 33875
" />
<path d="M56006 32805
L56006 33451
" />
<path d="M56159 32652
L56006 32805
" />
<path d="M55930 32423
L56159 32652
" />
<path d="M56247 32740
L57430 32740
" />
<path d="M56159 32652
L56247 32740
" />
<path d="M57250 34438
L57430 34259
" />
<path d="M56930 34438
L57250 34438
" />
<path d="M57430 33875
L57430 34259
" />
<path d="M56930 35000
L56930 34438
" />
<path d="M57006 33701
L57006 33875
" />
<path d="M56430 33125
L57006 33701
" />
<path d="M57430 33875
L57006 33875
" />
<path d="M57853 33701
L57853 33875
" />
<path d="M58430 33125
L57853 33701
" />
<path d="M57430 33875
L57853 33875
" />
<path d="M57587 31216
L57587 29885
" />
<path d="M58912 33934
L58922 33934
" />
<path d="M58853 33875
L58912 33934
" />
<path d="M58430 33875
L58853 33875
" />
<path d="M58339 28114
L57902 28114
" />
<path d="M59353 29128
L58339 28114
" />
<path d="M59353 34015
L59353 29128
" />
<path d="M58930 34438
L59353 34015
" />
<path d="M58930 35000
L58930 34438
" />
<path d="M57930 35000
L58358 35000
" />
<path d="M57587 28114
L57587 27828
" />
<path d="M58358 35374
L58358 35000
" />
<path d="M58544 35561
L58358 35374
" />
<path d="M59292 35561
L58544 35561
" />
<path d="M59540 35312
L59292 35561
" />
<path d="M59540 29063
L59540 35312
" />
<path d="M58305 27828
L59540 29063
" />
<path d="M57587 27828
L58305 27828
" />
<path d="M56575 27828
L57272 27828
" />
<path d="M56063 28341
L56575 27828
" />
<path d="M56063 30584
L56063 28341
" />
<path d="M56505 31026
L56063 30584
" />
<path d="M56505 32375
L56505 31026
" />
<path d="M56553 32423
L56505 32375
" />
<path d="M57294 32423
L56553 32423
" />
<path d="M57506 32211
L57294 32423
" />
<path d="M57506 32000
L57506 32211
" />
<path d="M57930 32000
L57506 32000
" />
<path d="M57272 28114
L57272 27828
" />
<path d="M56930 32000
L56930 31576
" />
<path d="M56930 31074
L56930 31576
" />
<path d="M56258 30403
L56930 31074
" />
<path d="M56258 28397
L56258 30403
" />
<path d="M56541 28114
L56258 28397
" />
<path d="M56957 28114
L56541 28114
" />
</g>
<g style="fill:#FFFFFF; fill-opacity:1.0; 
stroke:#FFFFFF; stroke-width:0; stroke-opacity:1; 
stroke-linecap:round; stroke-linejoin:round;">
<circle cx="57587.5" cy="31216" r="78.7402" /> 
</g>
<g style="fill:#FFFFFF; fill-opacity:1.0; 
stroke:#FFFFFF; stroke-width:78.7402; stroke-opacity:1; 
stroke-linecap:round; stroke-linejoin:round;">
</g>
<g style="fill:#FFFFFF; fill-opacity:1.0; 
stroke:#FFFFFF; stroke-width:0; stroke-opacity:1; 
stroke-linecap:round; stroke-linejoin:round;">
<circle cx="58922" cy="33934.3" r="78.7402" /> 
</g>
<g style="fill:#FFFFFF; fill-opacity:1.0; 
stroke:#FFFFFF; stroke-width:78.7402; stroke-opacity:1; 
stroke-linecap:round; stroke-linejoin:round;">
</g>
<g style="fill:#FFFFFF; fill-opacity:1.0; 
stroke:#FFFFFF; stroke-width:0; stroke-opacity:1; 
stroke-linecap:round; stroke-linejoin:round;">
<circle cx="58930" cy="35000" r="197" /> 
</g>
<g style="fill:#FFFFFF; fill-opacity:1.0; 
stroke:#FFFFFF; stroke-width:78.7402; stroke-opacity:1; 
stroke-linecap:round; stroke-linejoin:round;">
</g>
<g style="fill:#FFFFFF; fill-opacity:1.0; 
stroke:#FFFFFF; stroke-width:0; stroke-opacity:1; 
stroke-linecap:round; stroke-linejoin:round;">
<circle cx="57930" cy="35000" r="197" /> 
</g>
<g style="fill:#FFFFFF; fill-opacity:1.0; 
stroke:#FFFFFF; stroke-width:78.7402; stroke-opacity:1; 
stroke-linecap:round; stroke-linejoin:round;">
</g>
<g style="fill:#FFFFFF; fill-opacity:1.0; 
stroke:#FFFFFF; stroke-width:0; stroke-opacity:1; 
stroke-linecap:round; stroke-linejoin:round;">
<circle cx="56930" cy="35000" r="197" /> 
</g>
<g style="fill:#FFFFFF; fill-opacity:1.0; 
stroke:#FFFFFF; stroke-width:78.7402; stroke-opacity:1; 
stroke-linecap:round; stroke-linejoin:round;">
</g>
<g style="fill:#FFFFFF; fill-opacity:1.0; 
stroke:#FFFFFF; stroke-width:0; stroke-opacity:1; 
stroke-linecap:round; stroke-linejoin:round;">
<circle cx="55930" cy="35000" r="197" /> 
</g>
<g style="fill:#FFFFFF; fill-opacity:1.0; 
stroke:#FFFFFF; stroke-width:78.7402; stroke-opacity:1; 
stroke-linecap:round; stroke-linejoin:round;">
</g>
<g style="fill:#FFFFFF; fill-opacity:1.0; 
stroke:#FFFFFF; stroke-width:0; stroke-opacity:1; 
stroke-linecap:round; stroke-linejoin:round;">
<circle cx="57430" cy="37500" r="492.126" /> 
</g>
<g style="fill:#FFFFFF; fill-opacity:1.0; 
stroke:#FFFFFF; stroke-width:78.7402; stroke-opacity:1; 
stroke-linecap:round; stroke-linejoin:round;">
</g>
<g style="fill:#840000; fill-opacity:1.0; 
stroke:#840000; stroke-width:0; stroke-opacity:1; 
stroke-linecap:round; stroke-linejoin:round;">
<polyline style="fill-rule:evenodd;"
points="58280,30975
58280,30525
58080,30525
58080,30975
58280,30975
" /> 
<polyline style="fill-rule:evenodd;"
points="57780,30975
57780,30525
57580,30525
57580,30975
57780,30975
" /> 
<polyline style="fill-rule:evenodd;"
points="57280,30975
57280,30525
57080,30525
57080,30975
57280,30975
" /> 
<polyline style="fill-rule:evenodd;"
points="56780,30975
56780,30525
56580,30525
56580,30975
56780,30975
" /> 
<polyline style="fill-rule:evenodd;"
points="56780,33475
56780,33025
56580,33025
56580,33475
56780,33475
" /> 
<polyline style="fill-rule:evenodd;"
points="57280,33475
57280,33025
57080,33025
57080,33475
57280,33475
" /> 
<polyline style="fill-rule:evenodd;"
points="57780,33475
57780,33025
57580,33025
57580,33475
57780,33475
" /> 
<polyline style="fill-rule:evenodd;"
points="58280,33475
58280,33025
58080,33025
58080,33475
58280,33475
" /> 
<polyline style="fill-rule:evenodd;"
points="59230,35433
59230,34567
58630,34567
58630,35433
59230,35433
" /> 
</g>
<g style="fill:#840000; fill-opacity:1.0; 
stroke:#840000; stroke-width:600; stroke-opacity:1; 
stroke-linecap:round; stroke-linejoin:round;">
</g>
<g style="fill:#840000; fill-opacity:0.0; 
stroke:#840000; stroke-width:600; stroke-opacity:1; 
stroke-linecap:round; stroke-linejoin:round;">
<path d="M57930 34867
L57930 35133
" />
<path d="M56930 34867
L56930 35133
" />
<path d="M55930 34867
L55930 35133
" />
</g>
<g style="fill:#840000; fill-opacity:0.0; 
stroke:#840000; stroke-width:0; stroke-opacity:1; 
stroke-linecap:round; stroke-linejoin:round;">
</g>
<g style="fill:#840000; fill-opacity:1.0; 
stroke:#840000; stroke-width:0; stroke-opacity:1; 
stroke-linecap:round; stroke-linejoin:round;">
<polyline style="fill-rule:evenodd;"
points="56837,29193
56837,27806
56522,27806
56522,29193
56837,29193
" /> 
<polyline style="fill-rule:evenodd;"
points="57337,29193
57337,27806
57022,27806
57022,29193
57337,29193
" /> 
<polyline style="fill-rule:evenodd;"
points="57837,29193
57837,27806
57522,27806
57522,29193
57837,29193
" /> 
<polyline style="fill-rule:evenodd;"
points="58337,29193
58337,27806
58022,27806
58022,29193
58337,29193
" /> 
</g>
<g style="fill:#C1C1C1; fill-opacity:1.0; 
stroke:#C1C1C1; stroke-width:0; stroke-opacity:1; 
stroke-linecap:round; stroke-linejoin:round;">
<circle cx="57587.5" cy="31216" r="118.11" /> 
</g>
<g style="fill:#C1C1C1; fill-opacity:1.0; 
stroke:#C1C1C1; stroke-width:78.7402; stroke-opacity:1; 
stroke-linecap:round; stroke-linejoin:round;">
</g>
<g style="fill:#C1C1C1; fill-opacity:1.0; 
stroke:#C1C1C1; stroke-width:0; stroke-opacity:1; 
stroke-linecap:round; stroke-linejoin:round;">
<circle cx="58922" cy="33934.3" r="118.11" /> 
</g>
<g style="fill:#C1C1C1; fill-opacity:1.0; 
stroke:#C1C1C1; stroke-width:78.7402; stroke-opacity:1; 
stroke-linecap:round; stroke-linejoin:round;">
</g>
<g style="fill:#840000; fill-opacity:1.0; 
stroke:#840000; stroke-width:98.4252; stroke-opacity:1; 
stroke-linecap:round; stroke-linejoin:round;">
</g>
<g style="fill:#840000; fill-opacity:0.0; 
stroke:#840000; stroke-width:98.4252; stroke-opacity:1; 
stroke-linecap:round; stroke-linejoin:round;">
<path d="M58180 30750
L58180 31103
" />
<path d="M58180 28500
L58180 30750
" />
<path d="M56358 35214
L56358 35000
" />
<path d="M56884 35740
L56358 35214
" />
<path d="M59358 35740
L56884 35740
" />
<path d="M59539 35559
L59358 35740
" />
<path d="M59539 32462
L59539 35559
" />
<path d="M58180 31103
L59539 32462
" />
<path d="M55930 35000
L56358 35000
" />
<path d="M57680 33250
L57680 33603
" />
<path d="M56930 35000
L57358 35000
" />
<path d="M58257 34180
L57680 33603
" />
<path d="M59026 34180
L58257 34180
" />
<path d="M59362 34515
L59026 34180
" />
<path d="M59362 35486
L59362 34515
" />
<path d="M59284 35563
L59362 35486
" />
<path d="M57707 35563
L59284 35563
" />
<path d="M57358 35214
L57707 35563
" />
<path d="M57358 35000
L57358 35214
" />
<path d="M57680 33250
L57680 32896
" />
<path d="M57451 31080
L57587 31216
" />
<path d="M57451 29838
L57451 31080
" />
<path d="M57680 29610
L57451 29838
" />
<path d="M57680 28500
L57680 29610
" />
<path d="M57587 32804
L57680 32896
" />
<path d="M57587 31216
L57587 32804
" />
<path d="M58180 33250
L58180 33603
" />
<path d="M58511 33934
L58180 33603
" />
<path d="M58922 33934
L58511 33934
" />
<path d="M57180 33250
L57180 33603
" />
<path d="M58930 35000
L58501 35000
" />
<path d="M58501 34821
L58501 35000
" />
<path d="M57283 33603
L58501 34821
" />
<path d="M57180 33603
L57283 33603
" />
<path d="M56951 32668
L57180 32896
" />
<path d="M56951 29549
L56951 32668
" />
<path d="M57180 29321
L56951 29549
" />
<path d="M57180 28500
L57180 29321
" />
<path d="M57180 33250
L57180 32896
" />
<path d="M56680 33750
L57930 35000
" />
<path d="M56680 33250
L56680 33750
" />
<path d="M56451 32668
L56680 32896
" />
<path d="M56451 29549
L56451 32668
" />
<path d="M56680 29321
L56451 29549
" />
<path d="M56680 28500
L56680 29321
" />
<path d="M56680 33250
L56680 32896
" />
</g>
<g style="fill:#FFFFFF; fill-opacity:1.0; 
stroke:#FFFFFF; stroke-width:0; stroke-opacity:1; 
stroke-linecap:round; stroke-linejoin:round;">
<circle cx="57587.5" cy="31216" r="78.7402" /> 
</g>
<g style="fill:#FFFFFF; fill-opacity:1.0; 
stroke:#FFFFFF; stroke-width:78.7402; stroke-opacity:1; 
stroke-linecap:round; stroke-linejoin:round;">
</g>
<g style="fill:#FFFFFF; fill-opacity:1.0; 
stroke:#FFFFFF; stroke-width:0; stroke-opacity:1; 
stroke-linecap:round; stroke-linejoin:round;">
<circle cx="58922" cy="33934.3" r="78.7402" /> 
</g>
<g style="fill:#FFFFFF; fill-opacity:1.0; 
stroke:#FFFFFF; stroke-width:78.7402; stroke-opacity:1; 
stroke-linecap:round; stroke-linejoin:round;">
</g>
<g style="fill:#FFFFFF; fill-opacity:1.0; 
stroke:#FFFFFF; stroke-width:0; stroke-opacity:1; 
stroke-linecap:round; stroke-linejoin:round;">
<circle cx="58930" cy="35000" r="197" /> 
</g>
<g style="fill:#FFFFFF; fill-opacity:1.0; 
stroke:#FFFFFF; stroke-width:78.7402; stroke-opacity:1; 
stroke-linecap:round; stroke-linejoin:round;">
</g>
<g style="fill:#FFFFFF; fill-opacity:1.0; 
stroke:#FFFFFF; stroke-width:0; stroke-opacity:1; 
stroke-linecap:round; stroke-linejoin:round;">
<circle cx="57930" cy="35000" r="197" /> 
</g>
<g style="fill:#FFFFFF; fill-opacity:1.0; 
stroke:#FFFFFF; stroke-width:78.7402; stroke-opacity:1; 
stroke-linecap:round; stroke-linejoin:round;">
</g>
<g style="fill:#FFFFFF; fill-opacity:1.0; 
stroke:#FFFFFF; stroke-width:0; stroke-opacity:1; 
stroke-linecap:round; stroke-linejoin:round;">
<circle cx="56930" cy="35000" r="197" /> 
</g>
<g style="fill:#FFFFFF; fill-opacity:1.0; 
stroke:#FFFFFF; stroke-width:78.7402; stroke-opacity:1; 
stroke-linecap:round; stroke-linejoin:round;">
</g>
<g style="fill:#FFFFFF; fill-opacity:1.0; 
stroke:#FFFFFF; stroke-width:0; stroke-opacity:1; 
stroke-linecap:round; stroke-linejoin:round;">
<circle cx="55930" cy="35000" r="197" /> 
</g>
<g style="fill:#FFFFFF; fill-opacity:1.0; 
stroke:#FFFFFF; stroke-width:78.7402; stroke-opacity:1; 
stroke-linecap:round; stroke-linejoin:round;">
</g>
<g style="fill:#FFFFFF; fill-opacity:1.0; 
stroke:#FFFFFF; stroke-width:0; stroke-opacity:1; 
stroke-linecap:round; stroke-linejoin:round;">
<circle cx="57430" cy="37500" r="492.126" /> 
</g>
<g style="fill:#FFFFFF; fill-opacity:1.0; 
stroke:#FFFFFF; stroke-width:78.7402; stroke-opacity:1; 
stroke-linecap:round; stroke-linejoin:round;">
</g>
<g style="fill:#C1C100; fill-opacity:1.0; 
stroke:#C1C100; stroke-width:59.0551; stroke-opacity:1; 
stroke-linecap:round; stroke-linejoin:round;">
</g>
<g style="fill:#C1C100; fill-opacity:0.0; 
stroke:#C1C100; stroke-width:59.0551; stroke-opacity:1; 
stroke-linecap:round; stroke-linejoin:round;">
<path d="M54930 39000
L54930 36000
" />
<path d="M59930 39000
L54930 39000
" />
<path d="M59930 36000
L59930 39000
" />
<path d="M59930 27000
L59930 36000
" />
<path d="M54930 27000
L59930 27000
" />
<path d="M54930 36000
L54930 27000
" />
</g> 
</svg>
