G04 #@! TF.FileFunction,Copper,L1,Top,Signal*
%FSLAX46Y46*%
G04 Gerber Fmt 4.6, Leading zero omitted, Abs format (unit mm)*
G04 Created by KiCad (PCBNEW 0.201509251832+6217~30~ubuntu14.04.1-product) date gio 08 ott 2015 23:54:13 CEST*
%MOMM*%
G01*
G04 APERTURE LIST*
%ADD10C,0.200000*%
%ADD11R,0.508000X1.143000*%
%ADD12R,1.524000X2.199640*%
%ADD13O,1.524000X2.199640*%
%ADD14R,0.800000X3.524000*%
%ADD15C,2.999740*%
%ADD16C,0.600000*%
%ADD17C,0.250000*%
G04 APERTURE END LIST*
D10*
D11*
X149225000Y-78105000D03*
X150495000Y-78105000D03*
X151765000Y-78105000D03*
X153035000Y-78105000D03*
X153035000Y-84455000D03*
X151765000Y-84455000D03*
X150495000Y-84455000D03*
X149225000Y-84455000D03*
D12*
X147320000Y-88900000D03*
D13*
X149860000Y-88900000D03*
X152400000Y-88900000D03*
X154940000Y-88900000D03*
D14*
X153035000Y-72390000D03*
X151765000Y-72390000D03*
X150495000Y-72390000D03*
X149225000Y-72390000D03*
D15*
X151384000Y-94488000D03*
D16*
X152988000Y-76528500D03*
X148550000Y-82956300D03*
D17*
X154940000Y-88900000D02*
X154448600Y-88900000D01*
X149225000Y-78105000D02*
X149225000Y-79001800D01*
X152559100Y-90789500D02*
X154448600Y-88900000D01*
X146233300Y-90789500D02*
X152559100Y-90789500D01*
X145779200Y-90335400D02*
X146233300Y-90789500D01*
X145779200Y-82447600D02*
X145779200Y-90335400D01*
X149225000Y-79001800D02*
X145779200Y-82447600D01*
X149225000Y-72390000D02*
X149225000Y-78105000D01*
X150495000Y-72390000D02*
X150495000Y-74477300D01*
X150960800Y-90339200D02*
X152400000Y-88900000D01*
X146419900Y-90339200D02*
X150960800Y-90339200D01*
X146229500Y-90148800D02*
X146419900Y-90339200D01*
X146229500Y-87634600D02*
X146229500Y-90148800D01*
X148512300Y-85351800D02*
X146229500Y-87634600D01*
X150495000Y-85351800D02*
X148512300Y-85351800D01*
X150495000Y-84455000D02*
X150495000Y-85351800D01*
X150495000Y-84455000D02*
X150495000Y-83558200D01*
X150495000Y-75870200D02*
X151153300Y-76528500D01*
X150495000Y-74477300D02*
X150495000Y-75870200D01*
X151153300Y-82899900D02*
X150495000Y-83558200D01*
X151153300Y-76528500D02*
X151153300Y-82899900D01*
X152988000Y-76528500D02*
X151153300Y-76528500D01*
X149151900Y-83558200D02*
X149225000Y-83558200D01*
X148550000Y-82956300D02*
X149151900Y-83558200D01*
X149225000Y-84455000D02*
X149225000Y-83558200D01*
X148407300Y-88428000D02*
X148407300Y-88900000D01*
X151483500Y-85351800D02*
X148407300Y-88428000D01*
X151765000Y-85351800D02*
X151483500Y-85351800D01*
X151765000Y-84455000D02*
X151765000Y-85351800D01*
X147320000Y-88900000D02*
X148407300Y-88900000D01*
X151765000Y-84455000D02*
X151765000Y-83558200D01*
X151765000Y-72390000D02*
X151765000Y-74477300D01*
X152344300Y-82978900D02*
X151765000Y-83558200D01*
X152344300Y-77446000D02*
X152344300Y-82978900D01*
X152582200Y-77208100D02*
X152344300Y-77446000D01*
X153253700Y-77208100D02*
X152582200Y-77208100D01*
X153626000Y-76835800D02*
X153253700Y-77208100D01*
X153626000Y-76259100D02*
X153626000Y-76835800D01*
X151844200Y-74477300D02*
X153626000Y-76259100D01*
X151765000Y-74477300D02*
X151844200Y-74477300D01*
X149860000Y-88900000D02*
X150947300Y-88900000D01*
X153035000Y-72390000D02*
X153035000Y-74477300D01*
X150947300Y-87439500D02*
X153035000Y-85351800D01*
X150947300Y-88900000D02*
X150947300Y-87439500D01*
X153035000Y-84455000D02*
X153035000Y-85351800D01*
X153035000Y-84455000D02*
X153035000Y-83558200D01*
X154129500Y-75571800D02*
X153035000Y-74477300D01*
X154129500Y-82463700D02*
X154129500Y-75571800D01*
X153035000Y-83558200D02*
X154129500Y-82463700D01*
M02*
