<?xml version="1.0" encoding="UTF-8" standalone="no"?>
<!-- Created with Inkscape (http://www.inkscape.org/) -->

<svg
   width="12.732362mm"
   height="11.415401mm"
   viewBox="0 0 12.732362 11.415401"
   version="1.1"
   id="svg5"
   xml:space="preserve"
   inkscape:version="1.2.2 (b0a8486541, 2022-12-01)"
   sodipodi:docname="ohlogo.svg"
   xmlns:inkscape="http://www.inkscape.org/namespaces/inkscape"
   xmlns:sodipodi="http://sodipodi.sourceforge.net/DTD/sodipodi-0.dtd"
   xmlns="http://www.w3.org/2000/svg"
   xmlns:svg="http://www.w3.org/2000/svg"><sodipodi:namedview
     id="namedview7"
     pagecolor="#ffffff"
     bordercolor="#666666"
     borderopacity="1.0"
     inkscape:showpageshadow="2"
     inkscape:pageopacity="0.0"
     inkscape:pagecheckerboard="0"
     inkscape:deskcolor="#d1d1d1"
     inkscape:document-units="mm"
     showgrid="false"
     inkscape:zoom="4.7572176"
     inkscape:cx="-17.131863"
     inkscape:cy="57.071175"
     inkscape:window-width="3840"
     inkscape:window-height="2063"
     inkscape:window-x="0"
     inkscape:window-y="48"
     inkscape:window-maximized="1"
     inkscape:current-layer="layer1" /><defs
     id="defs2" /><g
     inkscape:label="Livello 1"
     inkscape:groupmode="layer"
     id="layer1"
     transform="translate(-46.764776,-195.83564)"><path
       style="fill:#000000;stroke:#000000;stroke-width:0.0314911"
       d="m 48.926935,206.94017 c -0.179141,-0.16235 -0.450295,-0.43102 -0.602564,-0.59703 l -0.276853,-0.30183 0.06117,-0.1194 c 0.03365,-0.0657 0.170964,-0.27528 0.30515,-0.4658 0.39715,-0.56389 0.486546,-0.71246 0.486546,-0.80862 0,-0.0497 -0.04155,-0.19273 -0.09233,-0.3179 -0.05078,-0.12518 -0.129533,-0.32679 -0.175009,-0.44803 -0.04547,-0.12124 -0.09733,-0.25839 -0.115243,-0.30476 -0.06855,-0.17752 -0.151871,-0.20791 -0.940048,-0.34284 -0.366823,-0.0628 -0.643167,-0.13273 -0.718263,-0.18175 -0.03146,-0.0205 -0.04564,-0.22794 -0.05995,-0.87728 l -0.01875,-0.85038 0.2489,-0.066 c 0.136894,-0.0363 0.34101,-0.0819 0.453591,-0.10132 0.384075,-0.0662 0.676908,-0.12862 0.82023,-0.17477 0.176264,-0.0568 0.265484,-0.19337 0.502592,-0.76959 0.08909,-0.21651 0.167979,-0.40781 0.175312,-0.42513 0.0073,-0.0173 -0.08105,-0.16612 -0.196396,-0.33066 -0.115351,-0.16454 -0.327469,-0.47448 -0.471372,-0.68876 -0.229621,-0.34192 -0.257273,-0.3978 -0.225943,-0.45662 0.04663,-0.0875 1.030063,-1.06979 1.118445,-1.11709 0.12413,-0.0664 0.248983,-0.0427 0.392756,0.0745 0.514848,0.41998 0.915333,0.67793 1.121872,0.7226 0.21949,0.0475 1.080535,-0.32296 1.167621,-0.50231 0.07191,-0.1481 0.124707,-0.3796 0.226364,-0.99253 0.05315,-0.32043 0.110506,-0.59676 0.12747,-0.61408 0.01892,-0.0193 0.331481,-0.0314 0.808675,-0.0314 0.906296,1.2e-4 0.938937,0.008 1.005522,0.23604 0.02274,0.0779 0.08363,0.36845 0.135303,0.64557 0.17146,0.91946 0.129167,0.81245 0.370771,0.93819 0.116032,0.0604 0.376391,0.16897 0.578577,0.2413 0.355965,0.12734 0.370703,0.1299 0.46531,0.081 0.160787,-0.0831 0.825555,-0.52366 0.977819,-0.64796 0.16277,-0.13287 0.319041,-0.21887 0.397725,-0.21887 0.06037,0 1.006195,0.92412 1.1328,1.10681 0.07864,0.11347 0.07911,0.11753 0.02572,0.22081 -0.02992,0.0579 -0.22268,0.35711 -0.428366,0.66497 -0.205687,0.30786 -0.381862,0.59917 -0.391501,0.64736 -0.03188,0.15942 0.374263,1.06437 0.526284,1.17262 0.05628,0.0401 0.241132,0.0934 0.4923,0.14206 0.821676,0.15913 0.906718,0.17778 1.023179,0.22438 l 0.119041,0.0476 v 0.70074 c 0,0.3854 -0.0092,0.76762 -0.02037,0.84938 -0.02461,0.17952 -0.0224,0.17844 -0.590444,0.2883 -1.064054,0.2058 -1.047948,0.20149 -1.089957,0.29163 -0.02134,0.0458 -0.117718,0.28163 -0.214179,0.52411 -0.242128,0.60865 -0.241057,0.66182 0.0215,1.06707 0.110385,0.17038 0.275769,0.41442 0.367521,0.5423 0.09175,0.12788 0.183314,0.28248 0.203472,0.34356 0.03614,0.10951 0.03402,0.114 -0.151978,0.32296 -0.236498,0.26569 -0.73853,0.754 -0.89695,0.87245 -0.119495,0.0893 -0.120057,0.0894 -0.234651,0.0348 -0.126668,-0.0604 -0.916097,-0.5833 -1.057211,-0.70027 -0.118264,-0.098 -0.17401,-0.0936 -0.462077,0.0364 -0.349658,0.15787 -0.373159,0.15316 -0.509852,-0.10235 -0.06255,-0.11691 -0.248651,-0.54558 -0.413566,-0.9526 -0.164914,-0.40702 -0.341837,-0.83215 -0.39316,-0.94473 -0.100933,-0.2214 -0.17539,-0.43063 -0.208721,-0.58653 -0.0199,-0.0931 -0.01001,-0.10629 0.182264,-0.24349 0.399694,-0.28521 0.691906,-0.70507 0.794631,-1.14175 0.09616,-0.40877 0.0093,-0.93417 -0.211306,-1.27793 -0.209948,-0.32718 -0.679146,-0.65239 -1.078354,-0.74744 -0.218304,-0.052 -0.598955,-0.046 -0.860458,0.0135 -0.855723,0.19463 -1.407982,1.16398 -1.189978,2.08871 0.08664,0.36753 0.185591,0.51825 0.592969,0.90323 l 0.374624,0.35402 -0.07117,0.21652 c -0.09932,0.30216 -0.26981,0.72842 -0.628177,1.57063 -0.169507,0.39836 -0.318742,0.75972 -0.331633,0.80302 -0.03273,0.10993 -0.108981,0.18895 -0.182323,0.18895 -0.03415,0 -0.164783,-0.0567 -0.290288,-0.12596 -0.125505,-0.0693 -0.257308,-0.12597 -0.292896,-0.12597 -0.03559,0 -0.284062,0.14789 -0.552165,0.32865 -0.414077,0.27917 -0.767013,0.49012 -0.819994,0.49012 -0.0076,0 -0.160435,-0.13284 -0.339575,-0.29519 z"
       id="path302"
       sodipodi:nodetypes="sscssssssssscsssssssssssssscsssssssssssssscscsssssssssssssssssssssscssssssssss"
       inkscape:export-filename="path302.png"
       inkscape:export-xdpi="144"
       inkscape:export-ydpi="144" /></g></svg>
