G04 #@! TF.FileFunction,Copper,L1,Top,Signal*
%FSLAX46Y46*%
G04 Gerber Fmt 4.6, Leading zero omitted, Abs format (unit mm)*
G04 Created by KiCad (PCBNEW 4.0.5) date 04/10/19 11:09:30*
%MOMM*%
%LPD*%
G01*
G04 APERTURE LIST*
%ADD10C,0.100000*%
%ADD11C,2.100000*%
%ADD12R,1.700000X1.700000*%
%ADD13C,1.700000*%
%ADD14C,0.600000*%
%ADD15C,0.400000*%
G04 APERTURE END LIST*
D10*
D11*
X161571000Y-67845000D03*
X161571000Y-70385000D03*
X161571000Y-72925000D03*
X161571000Y-75465000D03*
X161571000Y-78005000D03*
X161571000Y-80545000D03*
X161571000Y-83085000D03*
X161571000Y-85625000D03*
X161571000Y-88165000D03*
X161571000Y-65305000D03*
X159031000Y-65305000D03*
X156491000Y-65305000D03*
X153951000Y-65305000D03*
X151411000Y-65305000D03*
X148871000Y-65305000D03*
X146331000Y-65305000D03*
X143791000Y-65305000D03*
X141251000Y-65305000D03*
X141251000Y-67845000D03*
X141251000Y-70385000D03*
X141251000Y-72925000D03*
X141251000Y-75465000D03*
X141251000Y-78005000D03*
X141251000Y-80545000D03*
X141251000Y-83085000D03*
X141251000Y-85625000D03*
X141251000Y-88165000D03*
D12*
X147599400Y-77089000D03*
D13*
X150139400Y-77089000D03*
X152679400Y-77089000D03*
X155219400Y-77089000D03*
D14*
X147011000Y-74175000D03*
X147011000Y-70475000D03*
X150711000Y-74275000D03*
X155861000Y-71275000D03*
X149061000Y-83125000D03*
X149061000Y-85625000D03*
D15*
X147011000Y-70475000D02*
X156661000Y-70475000D01*
X159761000Y-85625000D02*
X161571000Y-85625000D01*
X158911000Y-84775000D02*
X159761000Y-85625000D01*
X158911000Y-72525000D02*
X158911000Y-84775000D01*
X158061000Y-71675000D02*
X158911000Y-72525000D01*
X157861000Y-71675000D02*
X158061000Y-71675000D01*
X156661000Y-70475000D02*
X157861000Y-71675000D01*
X147011000Y-70475000D02*
X147011000Y-74175000D01*
X144511000Y-87475000D02*
X143821000Y-88165000D01*
X150711000Y-74275000D02*
X149561000Y-75425000D01*
X149561000Y-75425000D02*
X145961000Y-75425000D01*
X145961000Y-75425000D02*
X144511000Y-76875000D01*
X144511000Y-76875000D02*
X144511000Y-86425000D01*
X144511000Y-86425000D02*
X144511000Y-87475000D01*
X143821000Y-88165000D02*
X141251000Y-88165000D01*
X149061000Y-81675000D02*
X149061000Y-83125000D01*
X150811000Y-79925000D02*
X149061000Y-81675000D01*
X154961000Y-79925000D02*
X150811000Y-79925000D01*
X157211000Y-77675000D02*
X154961000Y-79925000D01*
X157211000Y-72625000D02*
X157211000Y-77675000D01*
X155861000Y-71275000D02*
X157211000Y-72625000D01*
X149061000Y-85625000D02*
X149061000Y-83125000D01*
M02*
