M48
;DRILL file {KiCad 4.0.5} date 04/10/19 11:09:27
;FORMAT={-:-/ absolute / inch / decimal}
FMAT,2
INCH,TZ
T1C0.016
T2C0.033
T3C0.059
%
G90
G05
M72
T1
X5.7878Y-2.7746
X5.7878Y-2.9203
X5.8685Y-3.2726
X5.8685Y-3.3711
X5.9335Y-2.9242
X6.1363Y-2.8061
T2
X5.811Y-3.035
X5.911Y-3.035
X6.011Y-3.035
X6.111Y-3.035
T3
X5.5611Y-2.5711
X5.5611Y-2.6711
X5.5611Y-2.7711
X5.5611Y-2.8711
X5.5611Y-2.9711
X5.5611Y-3.0711
X5.5611Y-3.1711
X5.5611Y-3.2711
X5.5611Y-3.3711
X5.5611Y-3.4711
X5.6611Y-2.5711
X5.7611Y-2.5711
X5.8611Y-2.5711
X5.9611Y-2.5711
X6.0611Y-2.5711
X6.1611Y-2.5711
X6.2611Y-2.5711
X6.3611Y-2.5711
X6.3611Y-2.6711
X6.3611Y-2.7711
X6.3611Y-2.8711
X6.3611Y-2.9711
X6.3611Y-3.0711
X6.3611Y-3.1711
X6.3611Y-3.2711
X6.3611Y-3.3711
X6.3611Y-3.4711
T0
M30
