G04 #@! TF.FileFunction,Copper,L2,Bot,Signal*
%FSLAX46Y46*%
G04 Gerber Fmt 4.6, Leading zero omitted, Abs format (unit mm)*
G04 Created by KiCad (PCBNEW 4.0.5) date 04/10/19 11:09:32*
%MOMM*%
%LPD*%
G01*
G04 APERTURE LIST*
%ADD10C,0.100000*%
%ADD11C,2.100000*%
%ADD12R,1.700000X1.700000*%
%ADD13C,1.700000*%
%ADD14R,1.270000X0.970000*%
%ADD15R,1.300000X0.700000*%
%ADD16R,0.700000X1.300000*%
%ADD17R,1.550000X0.600000*%
%ADD18C,0.600000*%
%ADD19C,0.400000*%
G04 APERTURE END LIST*
D10*
D11*
X161571000Y-67845000D03*
X161571000Y-70385000D03*
X161571000Y-72925000D03*
X161571000Y-75465000D03*
X161571000Y-78005000D03*
X161571000Y-80545000D03*
X161571000Y-83085000D03*
X161571000Y-85625000D03*
X161571000Y-88165000D03*
X161571000Y-65305000D03*
X159031000Y-65305000D03*
X156491000Y-65305000D03*
X153951000Y-65305000D03*
X151411000Y-65305000D03*
X148871000Y-65305000D03*
X146331000Y-65305000D03*
X143791000Y-65305000D03*
X141251000Y-65305000D03*
X141251000Y-67845000D03*
X141251000Y-70385000D03*
X141251000Y-72925000D03*
X141251000Y-75465000D03*
X141251000Y-78005000D03*
X141251000Y-80545000D03*
X141251000Y-83085000D03*
X141251000Y-85625000D03*
X141251000Y-88165000D03*
D12*
X147599400Y-77089000D03*
D13*
X150139400Y-77089000D03*
X152679400Y-77089000D03*
X155219400Y-77089000D03*
D14*
X155211000Y-83105000D03*
X155211000Y-84375000D03*
X155211000Y-85645000D03*
X151411000Y-83105000D03*
X151411000Y-84375000D03*
X151411000Y-85645000D03*
X147611000Y-83105000D03*
X147611000Y-84375000D03*
X147611000Y-85645000D03*
D15*
X145461000Y-70475000D03*
X145461000Y-68575000D03*
D16*
X158261000Y-69725000D03*
X156361000Y-69725000D03*
D15*
X145461000Y-74175000D03*
X145461000Y-72275000D03*
X157411000Y-74175000D03*
X157411000Y-72275000D03*
D17*
X154111000Y-69720000D03*
X154111000Y-70990000D03*
X154111000Y-72260000D03*
X154111000Y-73530000D03*
X148711000Y-73530000D03*
X148711000Y-72260000D03*
X148711000Y-70990000D03*
X148711000Y-69720000D03*
D18*
X147011000Y-74175000D03*
X147011000Y-70475000D03*
X150711000Y-74275000D03*
X155861000Y-71275000D03*
X149061000Y-83125000D03*
X149061000Y-85625000D03*
D19*
X161571000Y-85625000D02*
X155231000Y-85625000D01*
X155231000Y-85625000D02*
X155211000Y-85645000D01*
X145461000Y-70475000D02*
X147011000Y-70475000D01*
X147011000Y-74175000D02*
X145461000Y-74175000D01*
X145461000Y-68575000D02*
X148261000Y-68575000D01*
X148711000Y-69025000D02*
X148711000Y-69720000D01*
X148261000Y-68575000D02*
X148711000Y-69025000D01*
X141251000Y-72925000D02*
X142161000Y-72925000D01*
X142161000Y-72925000D02*
X143461000Y-71625000D01*
X143461000Y-71625000D02*
X143461000Y-69275000D01*
X143461000Y-69275000D02*
X144161000Y-68575000D01*
X144161000Y-68575000D02*
X145461000Y-68575000D01*
X145461000Y-72275000D02*
X144211000Y-72275000D01*
X142571000Y-75465000D02*
X141251000Y-75465000D01*
X143511000Y-74525000D02*
X142571000Y-75465000D01*
X143511000Y-72975000D02*
X143511000Y-74525000D01*
X144211000Y-72275000D02*
X143511000Y-72975000D01*
X148711000Y-72260000D02*
X145476000Y-72260000D01*
X145476000Y-72260000D02*
X145441000Y-72225000D01*
X148711000Y-73530000D02*
X150711000Y-73530000D01*
X148711000Y-70990000D02*
X150226000Y-70990000D01*
X150226000Y-70990000D02*
X150711000Y-71475000D01*
X150711000Y-71475000D02*
X150711000Y-73530000D01*
X150711000Y-73530000D02*
X150711000Y-74275000D01*
X147611000Y-85645000D02*
X147611000Y-87425000D01*
X146871000Y-88165000D02*
X141251000Y-88165000D01*
X147611000Y-87425000D02*
X146871000Y-88165000D01*
X155211000Y-83105000D02*
X151411000Y-83105000D01*
X158261000Y-69725000D02*
X158261000Y-71075000D01*
X157661000Y-84375000D02*
X155211000Y-84375000D01*
X158611000Y-83425000D02*
X157661000Y-84375000D01*
X158611000Y-71425000D02*
X158611000Y-83425000D01*
X158261000Y-71075000D02*
X158611000Y-71425000D01*
X147599400Y-77089000D02*
X147599400Y-79163400D01*
X150361000Y-84375000D02*
X151411000Y-84375000D01*
X149961000Y-83975000D02*
X150361000Y-84375000D01*
X149961000Y-81525000D02*
X149961000Y-83975000D01*
X147599400Y-79163400D02*
X149961000Y-81525000D01*
X154111000Y-70990000D02*
X155576000Y-70990000D01*
X155576000Y-70990000D02*
X155861000Y-71275000D01*
X151411000Y-85645000D02*
X149081000Y-85645000D01*
X149041000Y-83105000D02*
X147611000Y-83105000D01*
X149061000Y-83125000D02*
X149041000Y-83105000D01*
X149081000Y-85645000D02*
X149061000Y-85625000D01*
X147611000Y-84375000D02*
X145961000Y-84375000D01*
X150139400Y-75853400D02*
X150139400Y-77089000D01*
X149661000Y-75375000D02*
X150139400Y-75853400D01*
X146361000Y-75375000D02*
X149661000Y-75375000D01*
X145361000Y-76375000D02*
X146361000Y-75375000D01*
X145361000Y-83775000D02*
X145361000Y-76375000D01*
X145961000Y-84375000D02*
X145361000Y-83775000D01*
X157411000Y-74175000D02*
X157411000Y-77725000D01*
X152679400Y-78293400D02*
X152679400Y-77089000D01*
X153461000Y-79075000D02*
X152679400Y-78293400D01*
X156061000Y-79075000D02*
X153461000Y-79075000D01*
X157411000Y-77725000D02*
X156061000Y-79075000D01*
X154111000Y-73530000D02*
X154111000Y-74575000D01*
X155219400Y-75683400D02*
X155219400Y-77089000D01*
X154111000Y-74575000D02*
X155219400Y-75683400D01*
X154111000Y-69720000D02*
X156356000Y-69720000D01*
X156356000Y-69720000D02*
X156361000Y-69725000D01*
X154111000Y-72260000D02*
X157396000Y-72260000D01*
X157396000Y-72260000D02*
X157411000Y-72275000D01*
M02*
