G04 #@! TF.FileFunction,Soldermask,Bot*
%FSLAX46Y46*%
G04 Gerber Fmt 4.6, Leading zero omitted, Abs format (unit mm)*
G04 Created by KiCad (PCBNEW 4.0.6) date 08/22/19 22:44:10*
%MOMM*%
%LPD*%
G01*
G04 APERTURE LIST*
%ADD10C,0.100000*%
%ADD11R,1.400000X2.000000*%
%ADD12R,2.000000X1.400000*%
%ADD13R,2.100000X2.100000*%
%ADD14O,2.100000X2.100000*%
%ADD15R,2.100000X1.300000*%
%ADD16R,1.300000X2.100000*%
%ADD17C,2.800000*%
%ADD18O,2.800000X2.800000*%
%ADD19R,1.000000X1.950000*%
%ADD20C,2.000000*%
%ADD21R,2.600000X2.600000*%
%ADD22C,2.600000*%
%ADD23O,2.600000X2.600000*%
%ADD24O,1.800000X1.800000*%
%ADD25C,1.800000*%
%ADD26O,3.500000X3.500000*%
G04 APERTURE END LIST*
D10*
D11*
X160611000Y-88425000D03*
X163611000Y-88425000D03*
D12*
X167061000Y-99175000D03*
X167061000Y-96175000D03*
D11*
X160761000Y-103375000D03*
X163761000Y-103375000D03*
D12*
X155061000Y-122825000D03*
X155061000Y-119825000D03*
D11*
X161111000Y-115475000D03*
X158111000Y-115475000D03*
D13*
X185961000Y-65775000D03*
D14*
X185961000Y-63235000D03*
X185961000Y-60695000D03*
X185961000Y-58155000D03*
X185961000Y-55615000D03*
D13*
X168061000Y-49525000D03*
D14*
X170601000Y-49525000D03*
X173141000Y-49525000D03*
X175681000Y-49525000D03*
X178221000Y-49525000D03*
D15*
X157311000Y-99175000D03*
X157311000Y-96275000D03*
D16*
X160611000Y-91825000D03*
X163511000Y-91825000D03*
D17*
X151561000Y-118225000D03*
D18*
X176961000Y-118225000D03*
D16*
X163761000Y-112475000D03*
X160861000Y-112475000D03*
D15*
X166661000Y-103825000D03*
X166661000Y-106725000D03*
D16*
X160811000Y-106375000D03*
X163711000Y-106375000D03*
X163761000Y-109425000D03*
X160861000Y-109425000D03*
D15*
X170111000Y-75825000D03*
X170111000Y-78725000D03*
X172661000Y-75825000D03*
X172661000Y-78725000D03*
D19*
X160206000Y-94975000D03*
X161476000Y-94975000D03*
X162746000Y-94975000D03*
X164016000Y-94975000D03*
X164016000Y-100375000D03*
X162746000Y-100375000D03*
X161476000Y-100375000D03*
X160206000Y-100375000D03*
X161516000Y-123925000D03*
X160246000Y-123925000D03*
X158976000Y-123925000D03*
X157706000Y-123925000D03*
X157706000Y-118525000D03*
X158976000Y-118525000D03*
X160246000Y-118525000D03*
X161516000Y-118525000D03*
D20*
X150511000Y-113675000D03*
X155511000Y-115475000D03*
D21*
X150711000Y-127025000D03*
D22*
X155711000Y-127025000D03*
X193111000Y-127025000D03*
X188111000Y-127025000D03*
D21*
X178111000Y-127025000D03*
D22*
X183111000Y-127025000D03*
D23*
X160711000Y-127025000D03*
D22*
X165711000Y-127025000D03*
D24*
X170711000Y-129575000D03*
D25*
X170711000Y-127035000D03*
X170711000Y-124495000D03*
D26*
X192511000Y-104075000D03*
X151211000Y-68575000D03*
D12*
X157611000Y-103725000D03*
X157611000Y-106725000D03*
D11*
X164861000Y-49525000D03*
X161861000Y-49525000D03*
M02*
