G04 #@! TF.FileFunction,Legend,Bot*
%FSLAX46Y46*%
G04 Gerber Fmt 4.6, Leading zero omitted, Abs format (unit mm)*
G04 Created by KiCad (PCBNEW 4.0.6) date 08/22/19 22:43:54*
%MOMM*%
%LPD*%
G01*
G04 APERTURE LIST*
%ADD10C,0.100000*%
%ADD11C,0.170000*%
%ADD12C,0.150000*%
%ADD13C,0.120000*%
G04 APERTURE END LIST*
D10*
D11*
X153689571Y-62389285D02*
X152189571Y-62389285D01*
X152189571Y-61817857D01*
X152261000Y-61674999D01*
X152332429Y-61603571D01*
X152475286Y-61532142D01*
X152689571Y-61532142D01*
X152832429Y-61603571D01*
X152903857Y-61674999D01*
X152975286Y-61817857D01*
X152975286Y-62389285D01*
X153689571Y-60889285D02*
X152189571Y-60889285D01*
X152189571Y-60532142D01*
X152261000Y-60317857D01*
X152403857Y-60174999D01*
X152546714Y-60103571D01*
X152832429Y-60032142D01*
X153046714Y-60032142D01*
X153332429Y-60103571D01*
X153475286Y-60174999D01*
X153618143Y-60317857D01*
X153689571Y-60532142D01*
X153689571Y-60889285D01*
X152903857Y-59389285D02*
X152903857Y-58889285D01*
X153689571Y-58674999D02*
X153689571Y-59389285D01*
X152189571Y-59389285D01*
X152189571Y-58674999D01*
X153689571Y-57246428D02*
X153689571Y-58103571D01*
X153689571Y-57674999D02*
X152189571Y-57674999D01*
X152403857Y-57817856D01*
X152546714Y-57960714D01*
X152618143Y-58103571D01*
X153832429Y-56960714D02*
X153832429Y-55817857D01*
X152189571Y-55675000D02*
X153689571Y-55175000D01*
X152189571Y-54675000D01*
X152332429Y-54246429D02*
X152261000Y-54175000D01*
X152189571Y-54032143D01*
X152189571Y-53675000D01*
X152261000Y-53532143D01*
X152332429Y-53460714D01*
X152475286Y-53389286D01*
X152618143Y-53389286D01*
X152832429Y-53460714D01*
X153689571Y-54317857D01*
X153689571Y-53389286D01*
D12*
X190377667Y-50113095D02*
X190996714Y-50113095D01*
X190996714Y-48813095D01*
X190006238Y-50051190D02*
X189820524Y-50113095D01*
X189511000Y-50113095D01*
X189387190Y-50051190D01*
X189325286Y-49989286D01*
X189263381Y-49865476D01*
X189263381Y-49741667D01*
X189325286Y-49617857D01*
X189387190Y-49555952D01*
X189511000Y-49494048D01*
X189758619Y-49432143D01*
X189882428Y-49370238D01*
X189944333Y-49308333D01*
X190006238Y-49184524D01*
X190006238Y-49060714D01*
X189944333Y-48936905D01*
X189882428Y-48875000D01*
X189758619Y-48813095D01*
X189449095Y-48813095D01*
X189263381Y-48875000D01*
D13*
X163111000Y-89445000D02*
X161111000Y-89445000D01*
X161111000Y-87405000D02*
X163111000Y-87405000D01*
X168081000Y-96675000D02*
X168081000Y-98675000D01*
X166041000Y-98675000D02*
X166041000Y-96675000D01*
X163261000Y-104395000D02*
X161261000Y-104395000D01*
X161261000Y-102355000D02*
X163261000Y-102355000D01*
X156081000Y-120325000D02*
X156081000Y-122325000D01*
X154041000Y-122325000D02*
X154041000Y-120325000D01*
X158611000Y-114455000D02*
X160611000Y-114455000D01*
X160611000Y-116495000D02*
X158611000Y-116495000D01*
X156241000Y-96725000D02*
X156241000Y-98725000D01*
X158381000Y-98725000D02*
X158381000Y-96725000D01*
X163061000Y-90755000D02*
X161061000Y-90755000D01*
X161061000Y-92895000D02*
X163061000Y-92895000D01*
X161311000Y-113545000D02*
X163311000Y-113545000D01*
X163311000Y-111405000D02*
X161311000Y-111405000D01*
X167731000Y-106275000D02*
X167731000Y-104275000D01*
X165591000Y-104275000D02*
X165591000Y-106275000D01*
X163261000Y-105305000D02*
X161261000Y-105305000D01*
X161261000Y-107445000D02*
X163261000Y-107445000D01*
X161311000Y-110495000D02*
X163311000Y-110495000D01*
X163311000Y-108355000D02*
X161311000Y-108355000D01*
X171181000Y-78275000D02*
X171181000Y-76275000D01*
X169041000Y-76275000D02*
X169041000Y-78275000D01*
X173731000Y-78275000D02*
X173731000Y-76275000D01*
X171591000Y-76275000D02*
X171591000Y-78275000D01*
D12*
X159536000Y-95600000D02*
X159586000Y-95600000D01*
X159536000Y-99750000D02*
X159681000Y-99750000D01*
X164686000Y-99750000D02*
X164541000Y-99750000D01*
X164686000Y-95600000D02*
X164541000Y-95600000D01*
X159536000Y-95600000D02*
X159536000Y-99750000D01*
X164686000Y-95600000D02*
X164686000Y-99750000D01*
X159586000Y-95600000D02*
X159586000Y-94200000D01*
X162186000Y-123300000D02*
X162136000Y-123300000D01*
X162186000Y-119150000D02*
X162041000Y-119150000D01*
X157036000Y-119150000D02*
X157181000Y-119150000D01*
X157036000Y-123300000D02*
X157181000Y-123300000D01*
X162186000Y-123300000D02*
X162186000Y-119150000D01*
X157036000Y-123300000D02*
X157036000Y-119150000D01*
X162136000Y-123300000D02*
X162136000Y-124700000D01*
D13*
X156551000Y-103025000D02*
X158671000Y-103025000D01*
X156551000Y-106225000D02*
X156551000Y-103025000D01*
X158671000Y-103025000D02*
X158671000Y-106225000D01*
X165561000Y-48465000D02*
X165561000Y-50585000D01*
X162361000Y-48465000D02*
X165561000Y-48465000D01*
X165561000Y-50585000D02*
X162361000Y-50585000D01*
D12*
X162227666Y-86782143D02*
X162275285Y-86829762D01*
X162418142Y-86877381D01*
X162513380Y-86877381D01*
X162656238Y-86829762D01*
X162751476Y-86734524D01*
X162799095Y-86639286D01*
X162846714Y-86448810D01*
X162846714Y-86305952D01*
X162799095Y-86115476D01*
X162751476Y-86020238D01*
X162656238Y-85925000D01*
X162513380Y-85877381D01*
X162418142Y-85877381D01*
X162275285Y-85925000D01*
X162227666Y-85972619D01*
X161275285Y-86877381D02*
X161846714Y-86877381D01*
X161561000Y-86877381D02*
X161561000Y-85877381D01*
X161656238Y-86020238D01*
X161751476Y-86115476D01*
X161846714Y-86163095D01*
X169377666Y-98032143D02*
X169425285Y-98079762D01*
X169568142Y-98127381D01*
X169663380Y-98127381D01*
X169806238Y-98079762D01*
X169901476Y-97984524D01*
X169949095Y-97889286D01*
X169996714Y-97698810D01*
X169996714Y-97555952D01*
X169949095Y-97365476D01*
X169901476Y-97270238D01*
X169806238Y-97175000D01*
X169663380Y-97127381D01*
X169568142Y-97127381D01*
X169425285Y-97175000D01*
X169377666Y-97222619D01*
X168996714Y-97222619D02*
X168949095Y-97175000D01*
X168853857Y-97127381D01*
X168615761Y-97127381D01*
X168520523Y-97175000D01*
X168472904Y-97222619D01*
X168425285Y-97317857D01*
X168425285Y-97413095D01*
X168472904Y-97555952D01*
X169044333Y-98127381D01*
X168425285Y-98127381D01*
X165877666Y-102582143D02*
X165925285Y-102629762D01*
X166068142Y-102677381D01*
X166163380Y-102677381D01*
X166306238Y-102629762D01*
X166401476Y-102534524D01*
X166449095Y-102439286D01*
X166496714Y-102248810D01*
X166496714Y-102105952D01*
X166449095Y-101915476D01*
X166401476Y-101820238D01*
X166306238Y-101725000D01*
X166163380Y-101677381D01*
X166068142Y-101677381D01*
X165925285Y-101725000D01*
X165877666Y-101772619D01*
X165544333Y-101677381D02*
X164925285Y-101677381D01*
X165258619Y-102058333D01*
X165115761Y-102058333D01*
X165020523Y-102105952D01*
X164972904Y-102153571D01*
X164925285Y-102248810D01*
X164925285Y-102486905D01*
X164972904Y-102582143D01*
X165020523Y-102629762D01*
X165115761Y-102677381D01*
X165401476Y-102677381D01*
X165496714Y-102629762D01*
X165544333Y-102582143D01*
X155177666Y-118382143D02*
X155225285Y-118429762D01*
X155368142Y-118477381D01*
X155463380Y-118477381D01*
X155606238Y-118429762D01*
X155701476Y-118334524D01*
X155749095Y-118239286D01*
X155796714Y-118048810D01*
X155796714Y-117905952D01*
X155749095Y-117715476D01*
X155701476Y-117620238D01*
X155606238Y-117525000D01*
X155463380Y-117477381D01*
X155368142Y-117477381D01*
X155225285Y-117525000D01*
X155177666Y-117572619D01*
X154701476Y-118477381D02*
X154511000Y-118477381D01*
X154415761Y-118429762D01*
X154368142Y-118382143D01*
X154272904Y-118239286D01*
X154225285Y-118048810D01*
X154225285Y-117667857D01*
X154272904Y-117572619D01*
X154320523Y-117525000D01*
X154415761Y-117477381D01*
X154606238Y-117477381D01*
X154701476Y-117525000D01*
X154749095Y-117572619D01*
X154796714Y-117667857D01*
X154796714Y-117905952D01*
X154749095Y-118001190D01*
X154701476Y-118048810D01*
X154606238Y-118096429D01*
X154415761Y-118096429D01*
X154320523Y-118048810D01*
X154272904Y-118001190D01*
X154225285Y-117905952D01*
X164153857Y-115782143D02*
X164201476Y-115829762D01*
X164344333Y-115877381D01*
X164439571Y-115877381D01*
X164582429Y-115829762D01*
X164677667Y-115734524D01*
X164725286Y-115639286D01*
X164772905Y-115448810D01*
X164772905Y-115305952D01*
X164725286Y-115115476D01*
X164677667Y-115020238D01*
X164582429Y-114925000D01*
X164439571Y-114877381D01*
X164344333Y-114877381D01*
X164201476Y-114925000D01*
X164153857Y-114972619D01*
X163201476Y-115877381D02*
X163772905Y-115877381D01*
X163487191Y-115877381D02*
X163487191Y-114877381D01*
X163582429Y-115020238D01*
X163677667Y-115115476D01*
X163772905Y-115163095D01*
X162582429Y-114877381D02*
X162487190Y-114877381D01*
X162391952Y-114925000D01*
X162344333Y-114972619D01*
X162296714Y-115067857D01*
X162249095Y-115258333D01*
X162249095Y-115496429D01*
X162296714Y-115686905D01*
X162344333Y-115782143D01*
X162391952Y-115829762D01*
X162487190Y-115877381D01*
X162582429Y-115877381D01*
X162677667Y-115829762D01*
X162725286Y-115782143D01*
X162772905Y-115686905D01*
X162820524Y-115496429D01*
X162820524Y-115258333D01*
X162772905Y-115067857D01*
X162725286Y-114972619D01*
X162677667Y-114925000D01*
X162582429Y-114877381D01*
X157427666Y-95177381D02*
X157761000Y-94701190D01*
X157999095Y-95177381D02*
X157999095Y-94177381D01*
X157618142Y-94177381D01*
X157522904Y-94225000D01*
X157475285Y-94272619D01*
X157427666Y-94367857D01*
X157427666Y-94510714D01*
X157475285Y-94605952D01*
X157522904Y-94653571D01*
X157618142Y-94701190D01*
X157999095Y-94701190D01*
X156475285Y-95177381D02*
X157046714Y-95177381D01*
X156761000Y-95177381D02*
X156761000Y-94177381D01*
X156856238Y-94320238D01*
X156951476Y-94415476D01*
X157046714Y-94463095D01*
X165727666Y-92327381D02*
X166061000Y-91851190D01*
X166299095Y-92327381D02*
X166299095Y-91327381D01*
X165918142Y-91327381D01*
X165822904Y-91375000D01*
X165775285Y-91422619D01*
X165727666Y-91517857D01*
X165727666Y-91660714D01*
X165775285Y-91755952D01*
X165822904Y-91803571D01*
X165918142Y-91851190D01*
X166299095Y-91851190D01*
X165346714Y-91422619D02*
X165299095Y-91375000D01*
X165203857Y-91327381D01*
X164965761Y-91327381D01*
X164870523Y-91375000D01*
X164822904Y-91422619D01*
X164775285Y-91517857D01*
X164775285Y-91613095D01*
X164822904Y-91755952D01*
X165394333Y-92327381D01*
X164775285Y-92327381D01*
X165827666Y-112927381D02*
X166161000Y-112451190D01*
X166399095Y-112927381D02*
X166399095Y-111927381D01*
X166018142Y-111927381D01*
X165922904Y-111975000D01*
X165875285Y-112022619D01*
X165827666Y-112117857D01*
X165827666Y-112260714D01*
X165875285Y-112355952D01*
X165922904Y-112403571D01*
X166018142Y-112451190D01*
X166399095Y-112451190D01*
X164970523Y-112260714D02*
X164970523Y-112927381D01*
X165208619Y-111879762D02*
X165446714Y-112594048D01*
X164827666Y-112594048D01*
X169127666Y-105727381D02*
X169461000Y-105251190D01*
X169699095Y-105727381D02*
X169699095Y-104727381D01*
X169318142Y-104727381D01*
X169222904Y-104775000D01*
X169175285Y-104822619D01*
X169127666Y-104917857D01*
X169127666Y-105060714D01*
X169175285Y-105155952D01*
X169222904Y-105203571D01*
X169318142Y-105251190D01*
X169699095Y-105251190D01*
X168222904Y-104727381D02*
X168699095Y-104727381D01*
X168746714Y-105203571D01*
X168699095Y-105155952D01*
X168603857Y-105108333D01*
X168365761Y-105108333D01*
X168270523Y-105155952D01*
X168222904Y-105203571D01*
X168175285Y-105298810D01*
X168175285Y-105536905D01*
X168222904Y-105632143D01*
X168270523Y-105679762D01*
X168365761Y-105727381D01*
X168603857Y-105727381D01*
X168699095Y-105679762D01*
X168746714Y-105632143D01*
X165877666Y-108977381D02*
X166211000Y-108501190D01*
X166449095Y-108977381D02*
X166449095Y-107977381D01*
X166068142Y-107977381D01*
X165972904Y-108025000D01*
X165925285Y-108072619D01*
X165877666Y-108167857D01*
X165877666Y-108310714D01*
X165925285Y-108405952D01*
X165972904Y-108453571D01*
X166068142Y-108501190D01*
X166449095Y-108501190D01*
X165020523Y-107977381D02*
X165211000Y-107977381D01*
X165306238Y-108025000D01*
X165353857Y-108072619D01*
X165449095Y-108215476D01*
X165496714Y-108405952D01*
X165496714Y-108786905D01*
X165449095Y-108882143D01*
X165401476Y-108929762D01*
X165306238Y-108977381D01*
X165115761Y-108977381D01*
X165020523Y-108929762D01*
X164972904Y-108882143D01*
X164925285Y-108786905D01*
X164925285Y-108548810D01*
X164972904Y-108453571D01*
X165020523Y-108405952D01*
X165115761Y-108358333D01*
X165306238Y-108358333D01*
X165401476Y-108405952D01*
X165449095Y-108453571D01*
X165496714Y-108548810D01*
X159227666Y-110577381D02*
X159561000Y-110101190D01*
X159799095Y-110577381D02*
X159799095Y-109577381D01*
X159418142Y-109577381D01*
X159322904Y-109625000D01*
X159275285Y-109672619D01*
X159227666Y-109767857D01*
X159227666Y-109910714D01*
X159275285Y-110005952D01*
X159322904Y-110053571D01*
X159418142Y-110101190D01*
X159799095Y-110101190D01*
X158894333Y-109577381D02*
X158227666Y-109577381D01*
X158656238Y-110577381D01*
X168003857Y-77727381D02*
X168337191Y-77251190D01*
X168575286Y-77727381D02*
X168575286Y-76727381D01*
X168194333Y-76727381D01*
X168099095Y-76775000D01*
X168051476Y-76822619D01*
X168003857Y-76917857D01*
X168003857Y-77060714D01*
X168051476Y-77155952D01*
X168099095Y-77203571D01*
X168194333Y-77251190D01*
X168575286Y-77251190D01*
X167051476Y-77727381D02*
X167622905Y-77727381D01*
X167337191Y-77727381D02*
X167337191Y-76727381D01*
X167432429Y-76870238D01*
X167527667Y-76965476D01*
X167622905Y-77013095D01*
X166670524Y-76822619D02*
X166622905Y-76775000D01*
X166527667Y-76727381D01*
X166289571Y-76727381D01*
X166194333Y-76775000D01*
X166146714Y-76822619D01*
X166099095Y-76917857D01*
X166099095Y-77013095D01*
X166146714Y-77155952D01*
X166718143Y-77727381D01*
X166099095Y-77727381D01*
X175953857Y-77727381D02*
X176287191Y-77251190D01*
X176525286Y-77727381D02*
X176525286Y-76727381D01*
X176144333Y-76727381D01*
X176049095Y-76775000D01*
X176001476Y-76822619D01*
X175953857Y-76917857D01*
X175953857Y-77060714D01*
X176001476Y-77155952D01*
X176049095Y-77203571D01*
X176144333Y-77251190D01*
X176525286Y-77251190D01*
X175001476Y-77727381D02*
X175572905Y-77727381D01*
X175287191Y-77727381D02*
X175287191Y-76727381D01*
X175382429Y-76870238D01*
X175477667Y-76965476D01*
X175572905Y-77013095D01*
X174668143Y-76727381D02*
X174049095Y-76727381D01*
X174382429Y-77108333D01*
X174239571Y-77108333D01*
X174144333Y-77155952D01*
X174096714Y-77203571D01*
X174049095Y-77298810D01*
X174049095Y-77536905D01*
X174096714Y-77632143D01*
X174144333Y-77679762D01*
X174239571Y-77727381D01*
X174525286Y-77727381D01*
X174620524Y-77679762D01*
X174668143Y-77632143D01*
X166672905Y-93727381D02*
X166672905Y-94536905D01*
X166625286Y-94632143D01*
X166577667Y-94679762D01*
X166482429Y-94727381D01*
X166291952Y-94727381D01*
X166196714Y-94679762D01*
X166149095Y-94632143D01*
X166101476Y-94536905D01*
X166101476Y-93727381D01*
X165101476Y-94727381D02*
X165672905Y-94727381D01*
X165387191Y-94727381D02*
X165387191Y-93727381D01*
X165482429Y-93870238D01*
X165577667Y-93965476D01*
X165672905Y-94013095D01*
X164422905Y-120677381D02*
X164422905Y-121486905D01*
X164375286Y-121582143D01*
X164327667Y-121629762D01*
X164232429Y-121677381D01*
X164041952Y-121677381D01*
X163946714Y-121629762D01*
X163899095Y-121582143D01*
X163851476Y-121486905D01*
X163851476Y-120677381D01*
X162946714Y-121010714D02*
X162946714Y-121677381D01*
X163184810Y-120629762D02*
X163422905Y-121344048D01*
X162803857Y-121344048D01*
X158349095Y-108877381D02*
X158349095Y-107877381D01*
X158111000Y-107877381D01*
X157968142Y-107925000D01*
X157872904Y-108020238D01*
X157825285Y-108115476D01*
X157777666Y-108305952D01*
X157777666Y-108448810D01*
X157825285Y-108639286D01*
X157872904Y-108734524D01*
X157968142Y-108829762D01*
X158111000Y-108877381D01*
X158349095Y-108877381D01*
X156825285Y-108877381D02*
X157396714Y-108877381D01*
X157111000Y-108877381D02*
X157111000Y-107877381D01*
X157206238Y-108020238D01*
X157301476Y-108115476D01*
X157396714Y-108163095D01*
X164099095Y-52177381D02*
X164099095Y-51177381D01*
X163861000Y-51177381D01*
X163718142Y-51225000D01*
X163622904Y-51320238D01*
X163575285Y-51415476D01*
X163527666Y-51605952D01*
X163527666Y-51748810D01*
X163575285Y-51939286D01*
X163622904Y-52034524D01*
X163718142Y-52129762D01*
X163861000Y-52177381D01*
X164099095Y-52177381D01*
X163146714Y-51272619D02*
X163099095Y-51225000D01*
X163003857Y-51177381D01*
X162765761Y-51177381D01*
X162670523Y-51225000D01*
X162622904Y-51272619D01*
X162575285Y-51367857D01*
X162575285Y-51463095D01*
X162622904Y-51605952D01*
X163194333Y-52177381D01*
X162575285Y-52177381D01*
M02*
