G04 #@! TF.FileFunction,Copper,L1,Top,Signal*
%FSLAX46Y46*%
G04 Gerber Fmt 4.6, Leading zero omitted, Abs format (unit mm)*
G04 Created by KiCad (PCBNEW 4.0.6) date 08/22/19 22:43:37*
%MOMM*%
%LPD*%
G01*
G04 APERTURE LIST*
%ADD10C,0.100000*%
%ADD11R,1.600000X1.000000*%
%ADD12R,1.000000X1.600000*%
%ADD13R,1.800000X2.500000*%
%ADD14R,3.300000X2.500000*%
%ADD15R,1.800000X1.800000*%
%ADD16R,8.000000X1.200000*%
%ADD17R,3.000000X1.200000*%
%ADD18R,1.700000X1.700000*%
%ADD19O,1.700000X1.700000*%
%ADD20R,5.400000X2.900000*%
%ADD21C,2.400000*%
%ADD22O,2.400000X2.400000*%
%ADD23R,1.700000X0.900000*%
%ADD24R,0.900000X1.700000*%
%ADD25R,1.600000X0.560000*%
%ADD26R,0.560000X1.600000*%
%ADD27R,4.600000X1.100000*%
%ADD28R,9.400000X10.800000*%
%ADD29C,1.600000*%
%ADD30R,4.000000X2.500000*%
%ADD31R,2.500000X4.000000*%
%ADD32R,2.200000X2.200000*%
%ADD33C,2.200000*%
%ADD34O,2.200000X2.200000*%
%ADD35R,9.000000X3.980000*%
%ADD36O,1.400000X1.400000*%
%ADD37C,1.400000*%
%ADD38O,3.100000X3.100000*%
%ADD39R,2.000000X4.500000*%
%ADD40C,1.000000*%
%ADD41C,1.500000*%
%ADD42C,1.200000*%
%ADD43C,0.500000*%
%ADD44C,1.500000*%
%ADD45C,1.000000*%
%ADD46C,2.000000*%
%ADD47C,0.250000*%
G04 APERTURE END LIST*
D10*
D11*
X162211000Y-58375000D03*
X162211000Y-55375000D03*
X162211000Y-60275000D03*
X162211000Y-63275000D03*
D12*
X165011000Y-88775000D03*
X162011000Y-88775000D03*
D11*
X152611000Y-75475000D03*
X152611000Y-72475000D03*
X169061000Y-103775000D03*
X169061000Y-106775000D03*
D13*
X169611000Y-82875000D03*
X169611000Y-78875000D03*
D14*
X164611000Y-101975000D03*
X164611000Y-108775000D03*
X170711000Y-91375000D03*
X170711000Y-98175000D03*
X176111000Y-77375000D03*
X176111000Y-84175000D03*
D15*
X159611000Y-114425000D03*
X159611000Y-118725000D03*
X173100000Y-114425000D03*
X173100000Y-118725000D03*
D16*
X167361000Y-121625000D03*
D17*
X169611000Y-111425000D03*
D18*
X185961000Y-65775000D03*
D19*
X185961000Y-63235000D03*
X185961000Y-60695000D03*
X185961000Y-58155000D03*
X185961000Y-55615000D03*
D18*
X168061000Y-49525000D03*
D19*
X170601000Y-49525000D03*
X173141000Y-49525000D03*
X175681000Y-49525000D03*
X178221000Y-49525000D03*
D20*
X188361000Y-71725000D03*
X188361000Y-81625000D03*
D21*
X151561000Y-118225000D03*
D22*
X176961000Y-118225000D03*
D23*
X170961000Y-73825000D03*
X170961000Y-70925000D03*
X174561000Y-73825000D03*
X174561000Y-70925000D03*
X163411000Y-51025000D03*
X163411000Y-48125000D03*
X160811000Y-48125000D03*
X160811000Y-51025000D03*
X178061000Y-73825000D03*
X178061000Y-70925000D03*
D24*
X184461000Y-51275000D03*
X187361000Y-51275000D03*
X178661000Y-87575000D03*
X175761000Y-87575000D03*
X175761000Y-90175000D03*
X178661000Y-90175000D03*
D23*
X181111000Y-90325000D03*
X181111000Y-87425000D03*
D25*
X178261000Y-64875000D03*
X178261000Y-64075000D03*
X178261000Y-63275000D03*
X178261000Y-62475000D03*
X178261000Y-61675000D03*
X178261000Y-60875000D03*
X178261000Y-60075000D03*
X178261000Y-59275000D03*
X178261000Y-58475000D03*
X178261000Y-57675000D03*
X178261000Y-56875000D03*
D26*
X176411000Y-55025000D03*
X175611000Y-55025000D03*
X174811000Y-55025000D03*
X174011000Y-55025000D03*
X173211000Y-55025000D03*
X172411000Y-55025000D03*
X171611000Y-55025000D03*
X170811000Y-55025000D03*
X170011000Y-55025000D03*
X169211000Y-55025000D03*
X168411000Y-55025000D03*
D25*
X166561000Y-56875000D03*
X166561000Y-57675000D03*
X166561000Y-58475000D03*
X166561000Y-59275000D03*
X166561000Y-60075000D03*
X166561000Y-60875000D03*
X166561000Y-61675000D03*
X166561000Y-62475000D03*
X166561000Y-63275000D03*
X166561000Y-64075000D03*
X166561000Y-64875000D03*
D26*
X168411000Y-66725000D03*
X169211000Y-66725000D03*
X170011000Y-66725000D03*
X170811000Y-66725000D03*
X171611000Y-66725000D03*
X172411000Y-66725000D03*
X173211000Y-66725000D03*
X174011000Y-66725000D03*
X174811000Y-66725000D03*
X175611000Y-66725000D03*
X176411000Y-66725000D03*
D27*
X163686000Y-85675000D03*
X163686000Y-83975000D03*
X163686000Y-82275000D03*
X163686000Y-80575000D03*
X163686000Y-78875000D03*
D28*
X154536000Y-82275000D03*
D27*
X163686000Y-98675000D03*
X163686000Y-96975000D03*
X163686000Y-95275000D03*
X163686000Y-93575000D03*
X163686000Y-91875000D03*
D28*
X154536000Y-95275000D03*
D29*
X150511000Y-113675000D03*
X155511000Y-115475000D03*
D30*
X164511000Y-70975000D03*
X156511000Y-70975000D03*
X158811000Y-106575000D03*
X150811000Y-106575000D03*
D31*
X189761000Y-111975000D03*
X189761000Y-119975000D03*
D32*
X150711000Y-127025000D03*
D33*
X155711000Y-127025000D03*
X193111000Y-127025000D03*
X188111000Y-127025000D03*
D32*
X178111000Y-127025000D03*
D33*
X183111000Y-127025000D03*
D34*
X160711000Y-127025000D03*
D33*
X165711000Y-127025000D03*
D35*
X179411000Y-96145000D03*
X179411000Y-111605000D03*
D36*
X170711000Y-129575000D03*
D37*
X170711000Y-127035000D03*
X170711000Y-124495000D03*
D38*
X192511000Y-104075000D03*
X151211000Y-68575000D03*
D39*
X157711000Y-54325000D03*
X157711000Y-62825000D03*
D40*
X183961000Y-99175000D03*
X187611000Y-86175000D03*
X191811000Y-86175000D03*
X192911000Y-54375000D03*
D41*
X174211000Y-104825000D03*
D40*
X168711000Y-101475000D03*
D42*
X173261000Y-127075000D03*
D40*
X176011000Y-58475000D03*
X168911000Y-63075000D03*
D42*
X152861000Y-88775000D03*
X152861000Y-102775000D03*
X153011000Y-109975000D03*
D40*
X165011000Y-114175000D03*
X166961000Y-67075000D03*
X169711000Y-64275000D03*
D42*
X155761000Y-108775000D03*
D41*
X182111000Y-77375000D03*
X183911000Y-107475000D03*
X172761000Y-108875000D03*
X165561000Y-117725000D03*
D40*
X170761000Y-69025000D03*
X174811000Y-68875000D03*
X167511000Y-53125000D03*
X165411000Y-111025000D03*
X169111000Y-108725000D03*
X173561000Y-68925000D03*
X172111000Y-68925000D03*
X178011000Y-53425000D03*
X168911000Y-53425000D03*
X170611000Y-52025000D03*
X167311000Y-54375000D03*
D42*
X166611000Y-90525000D03*
X164011000Y-64725000D03*
D43*
X175761000Y-87575000D02*
X174311000Y-87575000D01*
X185311000Y-86175000D02*
X187611000Y-86175000D01*
X180811000Y-81675000D02*
X185311000Y-86175000D01*
X174011000Y-81675000D02*
X180811000Y-81675000D01*
X172811000Y-82875000D02*
X174011000Y-81675000D01*
X172811000Y-86075000D02*
X172811000Y-82875000D01*
X174311000Y-87575000D02*
X172811000Y-86075000D01*
X187361000Y-51275000D02*
X189811000Y-51275000D01*
X178311000Y-104825000D02*
X174211000Y-104825000D01*
X183961000Y-99175000D02*
X178311000Y-104825000D01*
X191811000Y-86175000D02*
X187611000Y-86175000D01*
X189811000Y-51275000D02*
X192911000Y-54375000D01*
D44*
X176961000Y-118225000D02*
X183111000Y-118225000D01*
X184861000Y-119975000D02*
X189761000Y-119975000D01*
X183111000Y-118225000D02*
X184861000Y-119975000D01*
D45*
X171811000Y-104875000D02*
X174161000Y-104875000D01*
X174161000Y-104875000D02*
X174211000Y-104825000D01*
X170711000Y-98175000D02*
X170711000Y-100375000D01*
X171111000Y-106775000D02*
X169061000Y-106775000D01*
X171811000Y-106075000D02*
X171111000Y-106775000D01*
X171811000Y-101475000D02*
X171811000Y-104875000D01*
X171811000Y-104875000D02*
X171811000Y-106075000D01*
X170711000Y-100375000D02*
X171811000Y-101475000D01*
D43*
X168711000Y-101475000D02*
X169511000Y-101475000D01*
X170711000Y-100275000D02*
X170711000Y-98175000D01*
X169511000Y-101475000D02*
X170711000Y-100275000D01*
D44*
X149311000Y-105075000D02*
X149311000Y-109475000D01*
X158361000Y-118725000D02*
X159611000Y-118725000D01*
X157511000Y-117875000D02*
X158361000Y-118725000D01*
X157511000Y-113775000D02*
X157511000Y-117875000D01*
X155511000Y-111775000D02*
X157511000Y-113775000D01*
X151611000Y-111775000D02*
X155511000Y-111775000D01*
X149311000Y-109475000D02*
X151611000Y-111775000D01*
X154536000Y-95275000D02*
X150611000Y-95275000D01*
X150611000Y-95275000D02*
X149311000Y-96575000D01*
X149311000Y-105075000D02*
X150811000Y-106575000D01*
X149311000Y-96575000D02*
X149311000Y-105075000D01*
D45*
X163686000Y-95275000D02*
X154536000Y-95275000D01*
D44*
X159611000Y-118725000D02*
X159611000Y-120925000D01*
X159611000Y-120925000D02*
X165711000Y-127025000D01*
X188961000Y-119175000D02*
X189761000Y-119975000D01*
D43*
X162211000Y-58375000D02*
X158911000Y-58375000D01*
X157711000Y-57175000D02*
X157711000Y-54325000D01*
X158911000Y-58375000D02*
X157711000Y-57175000D01*
X166561000Y-62475000D02*
X165011000Y-62475000D01*
X163311000Y-58375000D02*
X162211000Y-58375000D01*
X163911000Y-58975000D02*
X163311000Y-58375000D01*
X163911000Y-61375000D02*
X163911000Y-58975000D01*
X165011000Y-62475000D02*
X163911000Y-61375000D01*
D45*
X167361000Y-121625000D02*
X173100000Y-121625000D01*
D46*
X173100000Y-118725000D02*
X173100000Y-121625000D01*
X173100000Y-121625000D02*
X173100000Y-126914000D01*
X173100000Y-126914000D02*
X173261000Y-127075000D01*
D45*
X173261000Y-127075000D02*
X173221000Y-127035000D01*
X173221000Y-127035000D02*
X170711000Y-127035000D01*
X162011000Y-88775000D02*
X161036000Y-88775000D01*
X161036000Y-88775000D02*
X154536000Y-82275000D01*
X163686000Y-82275000D02*
X166411000Y-82275000D01*
X167511000Y-81175000D02*
X167511000Y-78875000D01*
X166411000Y-82275000D02*
X167511000Y-81175000D01*
X163686000Y-78875000D02*
X167511000Y-78875000D01*
X167511000Y-78875000D02*
X169611000Y-78875000D01*
D43*
X178261000Y-60875000D02*
X177011000Y-60875000D01*
X176411000Y-60275000D02*
X176411000Y-58475000D01*
X177011000Y-60875000D02*
X176411000Y-60275000D01*
D47*
X168611000Y-63075000D02*
X168911000Y-63075000D01*
X176011000Y-58475000D02*
X176411000Y-58475000D01*
D43*
X168611000Y-62175000D02*
X168611000Y-63075000D01*
X168611000Y-63075000D02*
X168611000Y-64775000D01*
X168111000Y-61675000D02*
X168611000Y-62175000D01*
X168611000Y-64775000D02*
X167411000Y-65975000D01*
X167411000Y-65975000D02*
X165111000Y-65975000D01*
X166561000Y-61675000D02*
X168111000Y-61675000D01*
X165111000Y-65975000D02*
X162211000Y-65975000D01*
D45*
X154536000Y-82275000D02*
X163686000Y-82275000D01*
X152611000Y-72475000D02*
X150811000Y-72475000D01*
D44*
X149311000Y-81175000D02*
X150411000Y-82275000D01*
X149311000Y-73975000D02*
X149311000Y-81175000D01*
X150811000Y-72475000D02*
X149311000Y-73975000D01*
X150411000Y-82275000D02*
X154536000Y-82275000D01*
D45*
X152611000Y-72475000D02*
X155011000Y-72475000D01*
X155011000Y-72475000D02*
X156511000Y-70975000D01*
D43*
X162211000Y-63275000D02*
X162211000Y-65975000D01*
X162211000Y-65975000D02*
X157211000Y-70975000D01*
X157211000Y-70975000D02*
X156511000Y-70975000D01*
X177771000Y-55615000D02*
X185961000Y-55615000D01*
X176411000Y-58475000D02*
X176411000Y-56975000D01*
X176411000Y-56975000D02*
X177771000Y-55615000D01*
X162211000Y-55375000D02*
X162211000Y-55875000D01*
X162211000Y-55875000D02*
X165011000Y-58675000D01*
X165311000Y-61675000D02*
X166561000Y-61675000D01*
X165011000Y-61375000D02*
X165311000Y-61675000D01*
X165011000Y-58675000D02*
X165011000Y-61375000D01*
X160811000Y-51025000D02*
X160811000Y-52075000D01*
X162211000Y-53475000D02*
X162211000Y-55375000D01*
X160811000Y-52075000D02*
X162211000Y-53475000D01*
X173141000Y-49525000D02*
X173141000Y-48345000D01*
X185961000Y-48725000D02*
X185961000Y-55615000D01*
X184711000Y-47475000D02*
X185961000Y-48725000D01*
X174011000Y-47475000D02*
X184711000Y-47475000D01*
X173141000Y-48345000D02*
X174011000Y-47475000D01*
D45*
X155511000Y-115475000D02*
X154911000Y-116225000D01*
X154911000Y-116225000D02*
X154911000Y-121875000D01*
X154911000Y-121875000D02*
X158011000Y-124975000D01*
X158011000Y-124975000D02*
X158011000Y-129075000D01*
X158011000Y-129075000D02*
X159011000Y-130075000D01*
X159011000Y-130075000D02*
X166411000Y-130075000D01*
X166411000Y-130075000D02*
X169451000Y-127035000D01*
X169451000Y-127035000D02*
X170711000Y-127035000D01*
D43*
X162211000Y-60275000D02*
X162211000Y-60975000D01*
X164511000Y-63275000D02*
X166561000Y-63275000D01*
X162211000Y-60975000D02*
X164511000Y-63275000D01*
X157711000Y-62825000D02*
X157711000Y-61975000D01*
X157711000Y-61975000D02*
X159411000Y-60275000D01*
X159411000Y-60275000D02*
X162211000Y-60275000D01*
D45*
X153011000Y-109975000D02*
X154111000Y-108875000D01*
X165011000Y-89825000D02*
X165011000Y-88775000D01*
X164511000Y-90325000D02*
X165011000Y-89825000D01*
X160811000Y-90325000D02*
X164511000Y-90325000D01*
X159247030Y-88761030D02*
X160811000Y-90325000D01*
X152874970Y-88761030D02*
X159247030Y-88761030D01*
X152861000Y-88775000D02*
X152874970Y-88761030D01*
X154111000Y-104025000D02*
X152861000Y-102775000D01*
X154111000Y-108875000D02*
X154111000Y-104025000D01*
X167561000Y-114425000D02*
X173100000Y-114425000D01*
X165411000Y-112275000D02*
X167561000Y-114425000D01*
X159861000Y-112275000D02*
X165411000Y-112275000D01*
X157761000Y-110175000D02*
X159861000Y-112275000D01*
X153211000Y-110175000D02*
X157761000Y-110175000D01*
D43*
X153011000Y-109975000D02*
X153211000Y-110175000D01*
D45*
X165011000Y-88775000D02*
X165011000Y-87000000D01*
X165011000Y-87000000D02*
X163686000Y-85675000D01*
X163686000Y-80575000D02*
X160711000Y-80575000D01*
X160311000Y-80175000D02*
X160311000Y-75475000D01*
X160711000Y-80575000D02*
X160311000Y-80175000D01*
D43*
X187011000Y-115875000D02*
X193561000Y-115875000D01*
X186361000Y-116525000D02*
X187011000Y-115875000D01*
X167361000Y-116525000D02*
X186361000Y-116525000D01*
X165011000Y-114175000D02*
X167361000Y-116525000D01*
D46*
X178111000Y-127025000D02*
X178111000Y-124975000D01*
X178111000Y-124975000D02*
X179211000Y-123875000D01*
X179211000Y-123875000D02*
X192011000Y-123875000D01*
X192011000Y-123875000D02*
X193561000Y-122325000D01*
X193561000Y-122325000D02*
X193561000Y-115875000D01*
X192511000Y-71725000D02*
X188361000Y-71725000D01*
X193561000Y-115875000D02*
X193561000Y-110725000D01*
X193561000Y-110725000D02*
X188411000Y-105575000D01*
X188411000Y-105575000D02*
X188411000Y-93075000D01*
X188411000Y-93075000D02*
X193811000Y-87675000D01*
X193811000Y-87675000D02*
X193811000Y-73025000D01*
X193811000Y-73025000D02*
X192511000Y-71725000D01*
D45*
X164511000Y-73675000D02*
X170811000Y-73675000D01*
X170811000Y-73675000D02*
X170961000Y-73825000D01*
X170961000Y-73825000D02*
X174561000Y-73825000D01*
X152611000Y-75475000D02*
X160311000Y-75475000D01*
X160311000Y-75475000D02*
X162711000Y-75475000D01*
X164511000Y-73675000D02*
X164511000Y-70975000D01*
X162711000Y-75475000D02*
X164511000Y-73675000D01*
X164011000Y-69975000D02*
X164511000Y-70975000D01*
X166961000Y-67075000D02*
X164011000Y-69975000D01*
D43*
X170411000Y-63575000D02*
X169711000Y-64275000D01*
X170411000Y-62475000D02*
X170411000Y-63575000D01*
X168811000Y-60875000D02*
X170411000Y-62475000D01*
D44*
X185961000Y-65775000D02*
X187611000Y-65775000D01*
X187611000Y-65775000D02*
X188361000Y-66525000D01*
X188361000Y-66525000D02*
X188361000Y-71725000D01*
D43*
X178261000Y-60075000D02*
X179411000Y-60075000D01*
X179411000Y-60075000D02*
X185111000Y-65775000D01*
X185111000Y-65775000D02*
X185961000Y-65775000D01*
X166561000Y-60875000D02*
X168811000Y-60875000D01*
X165211000Y-53675000D02*
X168811000Y-57275000D01*
X168811000Y-57275000D02*
X168811000Y-60875000D01*
X165211000Y-53675000D02*
X165211000Y-48125000D01*
X163411000Y-48125000D02*
X165211000Y-48125000D01*
X165211000Y-48125000D02*
X165861000Y-48125000D01*
X170601000Y-48265000D02*
X170601000Y-49525000D01*
X170011000Y-47675000D02*
X170601000Y-48265000D01*
X166311000Y-47675000D02*
X170011000Y-47675000D01*
X165861000Y-48125000D02*
X166311000Y-47675000D01*
D45*
X163686000Y-98675000D02*
X163686000Y-101050000D01*
X163686000Y-101050000D02*
X164611000Y-101975000D01*
X158811000Y-106575000D02*
X161811000Y-106575000D01*
X161811000Y-106575000D02*
X164611000Y-103775000D01*
X164611000Y-101975000D02*
X164611000Y-103775000D01*
X164611000Y-103775000D02*
X169061000Y-103775000D01*
X155761000Y-108775000D02*
X164611000Y-108775000D01*
D43*
X168061000Y-49525000D02*
X168061000Y-50425000D01*
X168061000Y-50425000D02*
X168611000Y-50975000D01*
X171611000Y-51325000D02*
X171611000Y-55025000D01*
X171261000Y-50975000D02*
X171611000Y-51325000D01*
X168611000Y-50975000D02*
X171261000Y-50975000D01*
D45*
X169611000Y-82875000D02*
X170461000Y-82875000D01*
X170461000Y-82875000D02*
X173311000Y-80025000D01*
X184161000Y-81625000D02*
X188361000Y-81625000D01*
X182561000Y-80025000D02*
X184161000Y-81625000D01*
X173311000Y-80025000D02*
X182561000Y-80025000D01*
X163686000Y-83975000D02*
X168511000Y-83975000D01*
X168511000Y-83975000D02*
X169611000Y-82875000D01*
X170711000Y-91375000D02*
X170711000Y-94675000D01*
X163686000Y-96975000D02*
X167011000Y-96975000D01*
X174781000Y-96145000D02*
X179411000Y-96145000D01*
X173311000Y-94675000D02*
X174781000Y-96145000D01*
X169311000Y-94675000D02*
X170711000Y-94675000D01*
X170711000Y-94675000D02*
X173311000Y-94675000D01*
X167011000Y-96975000D02*
X169311000Y-94675000D01*
X179241000Y-95975000D02*
X179411000Y-96145000D01*
D43*
X178061000Y-73825000D02*
X178061000Y-77375000D01*
D46*
X176111000Y-77375000D02*
X178061000Y-77375000D01*
X178061000Y-77375000D02*
X182111000Y-77375000D01*
X174211000Y-107475000D02*
X183911000Y-107475000D01*
X172761000Y-108875000D02*
X174211000Y-107475000D01*
X159611000Y-114425000D02*
X162261000Y-114425000D01*
X162261000Y-114425000D02*
X165561000Y-117725000D01*
X186211000Y-111605000D02*
X186211000Y-106575000D01*
X184311000Y-87425000D02*
X181111000Y-87425000D01*
X185711000Y-88825000D02*
X184311000Y-87425000D01*
X185711000Y-106075000D02*
X185711000Y-88825000D01*
X186211000Y-106575000D02*
X185711000Y-106075000D01*
D44*
X179411000Y-111605000D02*
X186211000Y-111605000D01*
X186211000Y-111605000D02*
X186341000Y-111605000D01*
X186711000Y-111975000D02*
X189761000Y-111975000D01*
X186341000Y-111605000D02*
X186711000Y-111975000D01*
D45*
X176111000Y-84175000D02*
X179211000Y-84175000D01*
X179211000Y-84175000D02*
X181111000Y-86075000D01*
X181111000Y-86075000D02*
X181111000Y-87425000D01*
D43*
X170961000Y-69225000D02*
X170761000Y-69025000D01*
X170961000Y-70925000D02*
X170961000Y-69225000D01*
X170811000Y-66725000D02*
X170811000Y-68975000D01*
X170811000Y-68975000D02*
X170761000Y-69025000D01*
X174811000Y-68875000D02*
X174811000Y-70675000D01*
X174811000Y-70675000D02*
X174561000Y-70925000D01*
X174811000Y-66725000D02*
X174811000Y-68875000D01*
X185961000Y-63235000D02*
X184471000Y-63235000D01*
X180511000Y-59275000D02*
X178261000Y-59275000D01*
X184471000Y-63235000D02*
X180511000Y-59275000D01*
X178261000Y-58475000D02*
X181711000Y-58475000D01*
X183931000Y-60695000D02*
X185961000Y-60695000D01*
X181711000Y-58475000D02*
X183931000Y-60695000D01*
X185961000Y-58155000D02*
X183091000Y-58155000D01*
X182611000Y-57675000D02*
X178261000Y-57675000D01*
X183091000Y-58155000D02*
X182611000Y-57675000D01*
X172411000Y-55025000D02*
X172411000Y-53575000D01*
X172411000Y-53575000D02*
X175681000Y-50305000D01*
X175681000Y-50305000D02*
X175681000Y-49525000D01*
X173211000Y-55025000D02*
X173211000Y-54075000D01*
X176411000Y-52175000D02*
X178221000Y-50365000D01*
X175111000Y-52175000D02*
X176411000Y-52175000D01*
X173211000Y-54075000D02*
X175111000Y-52175000D01*
X178221000Y-50365000D02*
X178221000Y-49525000D01*
X167511000Y-53125000D02*
X167511000Y-53075000D01*
X165411000Y-111025000D02*
X166861000Y-111025000D01*
X166861000Y-111025000D02*
X169111000Y-108775000D01*
X169111000Y-108775000D02*
X169111000Y-108725000D01*
X170011000Y-52975000D02*
X170011000Y-55025000D01*
X169411000Y-52375000D02*
X170011000Y-52975000D01*
X168211000Y-52375000D02*
X169411000Y-52375000D01*
X167511000Y-53075000D02*
X168211000Y-52375000D01*
X166561000Y-57675000D02*
X165611000Y-57675000D01*
X163411000Y-52575000D02*
X163411000Y-51025000D01*
X164111000Y-53275000D02*
X163411000Y-52575000D01*
X164111000Y-56175000D02*
X164111000Y-53275000D01*
X165611000Y-57675000D02*
X164111000Y-56175000D01*
X160811000Y-48125000D02*
X160811000Y-49075000D01*
X163411000Y-49975000D02*
X163411000Y-51025000D01*
X163011000Y-49575000D02*
X163411000Y-49975000D01*
X161311000Y-49575000D02*
X163011000Y-49575000D01*
X160811000Y-49075000D02*
X161311000Y-49575000D01*
X172411000Y-67775000D02*
X173561000Y-68925000D01*
X172411000Y-67775000D02*
X172411000Y-66725000D01*
X171611000Y-68425000D02*
X172111000Y-68925000D01*
X171611000Y-66725000D02*
X171611000Y-68425000D01*
X168911000Y-53425000D02*
X168911000Y-53425002D01*
X184461000Y-51275000D02*
X182761000Y-51275000D01*
X180663172Y-53327220D02*
X182761000Y-51275000D01*
X178111000Y-53325000D02*
X180663172Y-53327220D01*
X178011000Y-53425000D02*
X178111000Y-53325000D01*
X169211000Y-53725002D02*
X169211000Y-55025000D01*
X168911000Y-53425002D02*
X169211000Y-53725002D01*
X169211000Y-55025000D02*
X169211000Y-56275000D01*
X178061000Y-66525000D02*
X178061000Y-70925000D01*
X176011000Y-64475000D02*
X178061000Y-66525000D01*
X176011000Y-63075000D02*
X176011000Y-64475000D01*
X169211000Y-56275000D02*
X176011000Y-63075000D01*
D45*
X175761000Y-90175000D02*
X174861000Y-90175000D01*
X166661000Y-93575000D02*
X163686000Y-93575000D01*
X168161000Y-92075000D02*
X166661000Y-93575000D01*
X168161000Y-89425000D02*
X168161000Y-92075000D01*
X168811000Y-88775000D02*
X168161000Y-89425000D01*
X173461000Y-88775000D02*
X168811000Y-88775000D01*
X174861000Y-90175000D02*
X173461000Y-88775000D01*
X178661000Y-87575000D02*
X178361000Y-87575000D01*
X178361000Y-87575000D02*
X175761000Y-90175000D01*
X181111000Y-90325000D02*
X178811000Y-90325000D01*
X178811000Y-90325000D02*
X178661000Y-90175000D01*
D43*
X170811000Y-55025000D02*
X170811000Y-52825000D01*
X170811000Y-52825000D02*
X170611000Y-52025000D01*
X168411000Y-55025000D02*
X167961000Y-55025000D01*
X167961000Y-55025000D02*
X167311000Y-54375000D01*
D45*
X163686000Y-91875000D02*
X165261000Y-91875000D01*
X165261000Y-91875000D02*
X166611000Y-90525000D01*
D43*
X164011000Y-64725000D02*
X164661000Y-64075000D01*
X164661000Y-64075000D02*
X166561000Y-64075000D01*
M02*
