G04 #@! TF.FileFunction,Copper,L2,Bot,Signal*
%FSLAX46Y46*%
G04 Gerber Fmt 4.6, Leading zero omitted, Abs format (unit mm)*
G04 Created by KiCad (PCBNEW 4.0.6) date 08/22/19 22:43:45*
%MOMM*%
%LPD*%
G01*
G04 APERTURE LIST*
%ADD10C,0.100000*%
%ADD11R,1.000000X1.600000*%
%ADD12R,1.600000X1.000000*%
%ADD13R,1.700000X1.700000*%
%ADD14O,1.700000X1.700000*%
%ADD15R,1.700000X0.900000*%
%ADD16R,0.900000X1.700000*%
%ADD17C,2.400000*%
%ADD18O,2.400000X2.400000*%
%ADD19R,0.600000X1.550000*%
%ADD20C,1.600000*%
%ADD21R,2.200000X2.200000*%
%ADD22C,2.200000*%
%ADD23O,2.200000X2.200000*%
%ADD24O,1.400000X1.400000*%
%ADD25C,1.400000*%
%ADD26O,3.100000X3.100000*%
%ADD27C,1.000000*%
%ADD28C,1.500000*%
%ADD29C,1.200000*%
%ADD30C,0.500000*%
%ADD31C,2.000000*%
%ADD32C,1.000000*%
%ADD33C,0.750000*%
G04 APERTURE END LIST*
D10*
D11*
X160611000Y-88425000D03*
X163611000Y-88425000D03*
D12*
X167061000Y-99175000D03*
X167061000Y-96175000D03*
D11*
X160761000Y-103375000D03*
X163761000Y-103375000D03*
D12*
X155061000Y-122825000D03*
X155061000Y-119825000D03*
D11*
X161111000Y-115475000D03*
X158111000Y-115475000D03*
D13*
X185961000Y-65775000D03*
D14*
X185961000Y-63235000D03*
X185961000Y-60695000D03*
X185961000Y-58155000D03*
X185961000Y-55615000D03*
D13*
X168061000Y-49525000D03*
D14*
X170601000Y-49525000D03*
X173141000Y-49525000D03*
X175681000Y-49525000D03*
X178221000Y-49525000D03*
D15*
X157311000Y-99175000D03*
X157311000Y-96275000D03*
D16*
X160611000Y-91825000D03*
X163511000Y-91825000D03*
D17*
X151561000Y-118225000D03*
D18*
X176961000Y-118225000D03*
D16*
X163761000Y-112475000D03*
X160861000Y-112475000D03*
D15*
X166661000Y-103825000D03*
X166661000Y-106725000D03*
D16*
X160811000Y-106375000D03*
X163711000Y-106375000D03*
X163761000Y-109425000D03*
X160861000Y-109425000D03*
D15*
X170111000Y-75825000D03*
X170111000Y-78725000D03*
X172661000Y-75825000D03*
X172661000Y-78725000D03*
D19*
X160206000Y-94975000D03*
X161476000Y-94975000D03*
X162746000Y-94975000D03*
X164016000Y-94975000D03*
X164016000Y-100375000D03*
X162746000Y-100375000D03*
X161476000Y-100375000D03*
X160206000Y-100375000D03*
X161516000Y-123925000D03*
X160246000Y-123925000D03*
X158976000Y-123925000D03*
X157706000Y-123925000D03*
X157706000Y-118525000D03*
X158976000Y-118525000D03*
X160246000Y-118525000D03*
X161516000Y-118525000D03*
D20*
X150511000Y-113675000D03*
X155511000Y-115475000D03*
D21*
X150711000Y-127025000D03*
D22*
X155711000Y-127025000D03*
X193111000Y-127025000D03*
X188111000Y-127025000D03*
D21*
X178111000Y-127025000D03*
D22*
X183111000Y-127025000D03*
D23*
X160711000Y-127025000D03*
D22*
X165711000Y-127025000D03*
D24*
X170711000Y-129575000D03*
D25*
X170711000Y-127035000D03*
X170711000Y-124495000D03*
D26*
X192511000Y-104075000D03*
X151211000Y-68575000D03*
D12*
X157611000Y-103725000D03*
X157611000Y-106725000D03*
D11*
X164861000Y-49525000D03*
X161861000Y-49525000D03*
D27*
X183961000Y-99175000D03*
X187611000Y-86175000D03*
X191811000Y-86175000D03*
X192911000Y-54375000D03*
D28*
X174211000Y-104825000D03*
D27*
X168711000Y-101475000D03*
D29*
X173261000Y-127075000D03*
D27*
X176011000Y-58475000D03*
X168911000Y-63075000D03*
D29*
X152861000Y-88775000D03*
X152861000Y-102775000D03*
X153011000Y-109975000D03*
D27*
X165011000Y-114175000D03*
X166961000Y-67075000D03*
X169711000Y-64275000D03*
D29*
X155761000Y-108775000D03*
D28*
X182111000Y-77375000D03*
X183911000Y-107475000D03*
X172761000Y-108875000D03*
X165561000Y-117725000D03*
D27*
X170761000Y-69025000D03*
X174811000Y-68875000D03*
X167511000Y-53125000D03*
X165411000Y-111025000D03*
X169111000Y-108725000D03*
X173561000Y-68925000D03*
X172111000Y-68925000D03*
X178011000Y-53425000D03*
X168911000Y-53425000D03*
X170611000Y-52025000D03*
X167311000Y-54375000D03*
D29*
X166611000Y-90525000D03*
X164011000Y-64725000D03*
D30*
X160611000Y-88425000D02*
X160611000Y-91825000D01*
X160611000Y-91825000D02*
X162746000Y-93960000D01*
X162746000Y-93960000D02*
X162746000Y-94975000D01*
X162746000Y-94975000D02*
X162746000Y-96390000D01*
X157311000Y-96925000D02*
X157311000Y-96275000D01*
X157761000Y-97375000D02*
X157311000Y-96925000D01*
X161761000Y-97375000D02*
X157761000Y-97375000D01*
X162746000Y-96390000D02*
X161761000Y-97375000D01*
X183961000Y-89825000D02*
X183961000Y-99175000D01*
X187611000Y-86175000D02*
X183961000Y-89825000D01*
X192061000Y-86175000D02*
X191811000Y-86175000D01*
X192911000Y-85325000D02*
X192061000Y-86175000D01*
X192911000Y-54375000D02*
X192911000Y-85325000D01*
X163511000Y-91825000D02*
X163511000Y-93075000D01*
X164016000Y-93580000D02*
X164016000Y-94975000D01*
X163511000Y-93075000D02*
X164016000Y-93580000D01*
X163611000Y-88425000D02*
X163611000Y-91725000D01*
X163611000Y-91725000D02*
X163511000Y-91825000D01*
D31*
X176961000Y-118225000D02*
X176961000Y-107575000D01*
X176961000Y-107575000D02*
X174211000Y-104825000D01*
D32*
X174211000Y-104825000D02*
X174211000Y-104875000D01*
D30*
X165261000Y-100375000D02*
X166361000Y-101475000D01*
X166361000Y-101475000D02*
X168711000Y-101475000D01*
X164016000Y-100375000D02*
X165261000Y-100375000D01*
X167061000Y-96175000D02*
X164016000Y-96175000D01*
X164016000Y-94975000D02*
X164016000Y-96175000D01*
X164016000Y-96175000D02*
X164016000Y-100375000D01*
D31*
X165711000Y-127025000D02*
X165711000Y-122975000D01*
X170461000Y-118225000D02*
X176961000Y-118225000D01*
X165711000Y-122975000D02*
X170461000Y-118225000D01*
D30*
X166661000Y-106725000D02*
X166661000Y-111475000D01*
X165661000Y-112475000D02*
X163761000Y-112475000D01*
X166661000Y-111475000D02*
X165661000Y-112475000D01*
X166661000Y-106725000D02*
X168111000Y-106725000D01*
X168911000Y-99175000D02*
X167061000Y-99175000D01*
X169811000Y-100075000D02*
X168911000Y-99175000D01*
X169811000Y-105025000D02*
X169811000Y-100075000D01*
X168111000Y-106725000D02*
X169811000Y-105025000D01*
X163711000Y-106375000D02*
X166311000Y-106375000D01*
X166311000Y-106375000D02*
X166661000Y-106725000D01*
X160811000Y-106375000D02*
X160811000Y-103425000D01*
X160811000Y-103425000D02*
X160761000Y-103375000D01*
X160861000Y-109425000D02*
X160861000Y-106425000D01*
X160861000Y-106425000D02*
X160811000Y-106375000D01*
X161476000Y-100375000D02*
X161476000Y-102660000D01*
X161476000Y-102660000D02*
X160811000Y-103325000D01*
X160811000Y-109375000D02*
X160861000Y-109425000D01*
X162746000Y-100375000D02*
X162746000Y-102360000D01*
X162746000Y-102360000D02*
X164211000Y-103825000D01*
X164211000Y-103825000D02*
X166661000Y-103825000D01*
D31*
X185961000Y-55615000D02*
X188101000Y-55615000D01*
X193111000Y-117325000D02*
X193111000Y-127025000D01*
X186561000Y-110775000D02*
X193111000Y-117325000D01*
X186561000Y-99075000D02*
X186561000Y-110775000D01*
X189811000Y-95825000D02*
X186561000Y-99075000D01*
X189811000Y-57325000D02*
X189811000Y-95825000D01*
X188101000Y-55615000D02*
X189811000Y-57325000D01*
X173261000Y-127075000D02*
X170751000Y-127075000D01*
X170751000Y-127075000D02*
X170711000Y-127035000D01*
X193111000Y-127025000D02*
X193111000Y-127875000D01*
X193111000Y-127875000D02*
X190911000Y-130075000D01*
X190911000Y-130075000D02*
X176261000Y-130075000D01*
X176261000Y-130075000D02*
X173261000Y-127075000D01*
D30*
X158111000Y-115475000D02*
X155511000Y-115475000D01*
X157706000Y-118525000D02*
X157706000Y-117330000D01*
X158111000Y-116925000D02*
X158111000Y-115475000D01*
X157706000Y-117330000D02*
X158111000Y-116925000D01*
X155061000Y-119825000D02*
X155061000Y-119125000D01*
X155661000Y-118525000D02*
X157706000Y-118525000D01*
X155061000Y-119125000D02*
X155661000Y-118525000D01*
X173511000Y-58475000D02*
X176011000Y-58475000D01*
X168911000Y-63075000D02*
X173511000Y-58475000D01*
D32*
X152861000Y-102775000D02*
X152861000Y-88775000D01*
D33*
X150511000Y-113675000D02*
X150511000Y-112475000D01*
X150511000Y-112475000D02*
X153011000Y-109975000D01*
D30*
X161111000Y-115475000D02*
X163711000Y-115475000D01*
X163711000Y-115475000D02*
X165011000Y-114175000D01*
X161861000Y-49525000D02*
X161861000Y-49025000D01*
X161861000Y-49025000D02*
X163111000Y-47775000D01*
X163111000Y-47775000D02*
X170311000Y-47775000D01*
X170311000Y-47775000D02*
X170601000Y-48065000D01*
X170601000Y-48065000D02*
X170601000Y-49525000D01*
X161516000Y-118525000D02*
X161516000Y-117130000D01*
X161111000Y-116725000D02*
X161111000Y-115475000D01*
X161516000Y-117130000D02*
X161111000Y-116725000D01*
D32*
X169711000Y-64275000D02*
X179411000Y-64275000D01*
X180911000Y-65775000D02*
X185961000Y-65775000D01*
X179411000Y-64275000D02*
X180911000Y-65775000D01*
D30*
X166911000Y-67075000D02*
X166961000Y-67075000D01*
X169711000Y-64275000D02*
X166911000Y-67075000D01*
X155061000Y-122825000D02*
X155061000Y-122425000D01*
X155061000Y-122425000D02*
X156061000Y-121425000D01*
X156061000Y-121425000D02*
X158061000Y-121425000D01*
X158061000Y-121425000D02*
X158976000Y-120510000D01*
X158976000Y-120510000D02*
X158976000Y-118525000D01*
X154911000Y-106725000D02*
X154911000Y-100025000D01*
X154911000Y-100025000D02*
X155761000Y-99175000D01*
X155761000Y-99175000D02*
X157311000Y-99175000D01*
D32*
X155761000Y-106725000D02*
X155761000Y-108775000D01*
X150711000Y-127025000D02*
X150711000Y-125925000D01*
X150711000Y-125925000D02*
X148911000Y-124125000D01*
X148911000Y-124125000D02*
X148911000Y-111275000D01*
X148911000Y-111275000D02*
X153461000Y-106725000D01*
X153461000Y-106725000D02*
X154911000Y-106725000D01*
X154911000Y-106725000D02*
X155761000Y-106725000D01*
X155761000Y-106725000D02*
X157611000Y-106725000D01*
D30*
X157611000Y-103725000D02*
X157611000Y-101875000D01*
X159111000Y-100375000D02*
X160206000Y-100375000D01*
X157611000Y-101875000D02*
X159111000Y-100375000D01*
X164861000Y-49525000D02*
X168061000Y-49525000D01*
D31*
X183911000Y-107475000D02*
X183911000Y-101575000D01*
X182111000Y-99775000D02*
X182111000Y-77375000D01*
X172761000Y-110525000D02*
X172761000Y-108875000D01*
X172761000Y-110525000D02*
X165561000Y-117725000D01*
X183911000Y-101575000D02*
X182111000Y-99775000D01*
X160911000Y-123925000D02*
X161261000Y-123925000D01*
X161261000Y-123925000D02*
X165561000Y-119625000D01*
X165561000Y-119625000D02*
X165561000Y-117725000D01*
D30*
X160246000Y-123925000D02*
X160911000Y-123925000D01*
X160911000Y-123925000D02*
X161516000Y-123925000D01*
D33*
X183111000Y-127025000D02*
X183111000Y-117475000D01*
X170761000Y-72125000D02*
X170761000Y-69025000D01*
X171311000Y-72675000D02*
X170761000Y-72125000D01*
X172561000Y-72675000D02*
X171311000Y-72675000D01*
X175811000Y-75925000D02*
X172561000Y-72675000D01*
X175811000Y-98525000D02*
X175811000Y-75925000D01*
X180861000Y-103575000D02*
X175811000Y-98525000D01*
X180861000Y-115225000D02*
X180861000Y-103575000D01*
X183111000Y-117475000D02*
X180861000Y-115225000D01*
X174811000Y-68875000D02*
X174811000Y-72675000D01*
X188111000Y-120325000D02*
X188111000Y-127025000D01*
X181961000Y-114175000D02*
X188111000Y-120325000D01*
X181961000Y-102825000D02*
X181961000Y-114175000D01*
X177161000Y-98025000D02*
X181961000Y-102825000D01*
X177161000Y-75025000D02*
X177161000Y-98025000D01*
X174811000Y-72675000D02*
X177161000Y-75025000D01*
D31*
X151561000Y-118225000D02*
X151561000Y-122875000D01*
X151561000Y-122875000D02*
X155711000Y-127025000D01*
D30*
X160861000Y-112475000D02*
X154561000Y-112475000D01*
X151561000Y-115475000D02*
X151561000Y-118225000D01*
X154561000Y-112475000D02*
X151561000Y-115475000D01*
X167161000Y-70825000D02*
X165161000Y-68825000D01*
X165161000Y-68825000D02*
X165161000Y-54375000D01*
X165161000Y-54375000D02*
X166411000Y-53125000D01*
X166411000Y-53125000D02*
X167511000Y-53125000D01*
X163811000Y-109425000D02*
X165411000Y-111025000D01*
X169111000Y-108725000D02*
X169111000Y-107525000D01*
X169111000Y-107525000D02*
X170861000Y-105775000D01*
X170861000Y-105775000D02*
X170861000Y-84075000D01*
X170861000Y-84075000D02*
X167161000Y-80375000D01*
X167161000Y-80375000D02*
X167161000Y-70875000D01*
X167161000Y-70875000D02*
X167161000Y-70825000D01*
X163761000Y-109425000D02*
X163811000Y-109425000D01*
X170111000Y-75825000D02*
X170111000Y-75125000D01*
X173561000Y-67175000D02*
X173561000Y-68925000D01*
X172711000Y-66325000D02*
X173561000Y-67175000D01*
X170061000Y-66325000D02*
X172711000Y-66325000D01*
X168861000Y-67525000D02*
X170061000Y-66325000D01*
X168861000Y-73875000D02*
X168861000Y-67525000D01*
X170111000Y-75125000D02*
X168861000Y-73875000D01*
X170711000Y-129575000D02*
X169861000Y-129575000D01*
X170111000Y-80075000D02*
X170111000Y-78725000D01*
X173461000Y-83425000D02*
X170111000Y-80075000D01*
X173461000Y-99925000D02*
X173461000Y-83425000D01*
X178861000Y-105325000D02*
X173461000Y-99925000D01*
X178861000Y-119675000D02*
X178861000Y-105325000D01*
X178161000Y-120375000D02*
X178861000Y-119675000D01*
X171561000Y-120375000D02*
X178161000Y-120375000D01*
X168311000Y-123625000D02*
X171561000Y-120375000D01*
X168311000Y-128025000D02*
X168311000Y-123625000D01*
X169861000Y-129575000D02*
X168311000Y-128025000D01*
X172111000Y-68925000D02*
X172111000Y-68275000D01*
X172661000Y-74825000D02*
X172661000Y-75825000D01*
X172011000Y-74175000D02*
X172661000Y-74825000D01*
X171011000Y-74175000D02*
X172011000Y-74175000D01*
X169711000Y-72875000D02*
X171011000Y-74175000D01*
X169711000Y-68175000D02*
X169711000Y-72875000D01*
X170211000Y-67675000D02*
X169711000Y-68175000D01*
X171511000Y-67675000D02*
X170211000Y-67675000D01*
X172111000Y-68275000D02*
X171511000Y-67675000D01*
X172661000Y-78725000D02*
X172661000Y-80525000D01*
X175991000Y-124495000D02*
X170711000Y-124495000D01*
X179711000Y-120775000D02*
X175991000Y-124495000D01*
X179711000Y-104575000D02*
X179711000Y-120775000D01*
X174561000Y-99425000D02*
X179711000Y-104575000D01*
X174561000Y-82425000D02*
X174561000Y-99425000D01*
X172661000Y-80525000D02*
X174561000Y-82425000D01*
X168911000Y-53425000D02*
X178011000Y-53425000D01*
D33*
X165811000Y-52025000D02*
X168261000Y-52025000D01*
D30*
X170611000Y-52025000D02*
X168261000Y-52025000D01*
D33*
X159261000Y-94975000D02*
X160206000Y-94975000D01*
X158211000Y-93925000D02*
X159261000Y-94975000D01*
X158211000Y-59625000D02*
X158211000Y-93925000D01*
X165811000Y-52025000D02*
X158211000Y-59625000D01*
X160206000Y-94975000D02*
X161476000Y-94975000D01*
D30*
X160246000Y-120010000D02*
X160246000Y-118525000D01*
X160811000Y-120575000D02*
X160246000Y-120010000D01*
X161911000Y-120575000D02*
X160811000Y-120575000D01*
X163211000Y-119275000D02*
X161911000Y-120575000D01*
X163211000Y-117575000D02*
X163211000Y-119275000D01*
X170511000Y-110275000D02*
X163211000Y-117575000D01*
X170511000Y-107875000D02*
X170511000Y-110275000D01*
X172111000Y-106275000D02*
X170511000Y-107875000D01*
X172111000Y-83825000D02*
X172111000Y-106275000D01*
X168111000Y-79825000D02*
X172111000Y-83825000D01*
X168111000Y-70425000D02*
X168111000Y-79825000D01*
X165961000Y-68275000D02*
X168111000Y-70425000D01*
X165961000Y-55725000D02*
X165961000Y-68275000D01*
X167311000Y-54375000D02*
X165961000Y-55725000D01*
D32*
X166611000Y-90525000D02*
X166011000Y-89925000D01*
X166011000Y-89925000D02*
X166011000Y-72375000D01*
X166011000Y-72375000D02*
X164011000Y-70375000D01*
X164011000Y-70375000D02*
X164011000Y-64725000D01*
D31*
X158361000Y-123925000D02*
X158361000Y-125575000D01*
X158361000Y-125575000D02*
X159811000Y-127025000D01*
X159811000Y-127025000D02*
X160711000Y-127025000D01*
D30*
X157706000Y-123925000D02*
X158361000Y-123925000D01*
X158361000Y-123925000D02*
X158976000Y-123925000D01*
X158976000Y-123925000D02*
X158976000Y-125290000D01*
X158976000Y-125290000D02*
X160711000Y-127025000D01*
M02*
