G04 #@! TF.FileFunction,Paste,Bot*
%FSLAX46Y46*%
G04 Gerber Fmt 4.6, Leading zero omitted, Abs format (unit mm)*
G04 Created by KiCad (PCBNEW 4.0.6) date 08/22/19 22:43:48*
%MOMM*%
%LPD*%
G01*
G04 APERTURE LIST*
%ADD10C,0.100000*%
%ADD11R,1.000000X1.600000*%
%ADD12R,1.600000X1.000000*%
%ADD13R,1.700000X0.900000*%
%ADD14R,0.900000X1.700000*%
%ADD15R,0.600000X1.550000*%
G04 APERTURE END LIST*
D10*
D11*
X160611000Y-88425000D03*
X163611000Y-88425000D03*
D12*
X167061000Y-99175000D03*
X167061000Y-96175000D03*
D11*
X160761000Y-103375000D03*
X163761000Y-103375000D03*
D12*
X155061000Y-122825000D03*
X155061000Y-119825000D03*
D11*
X161111000Y-115475000D03*
X158111000Y-115475000D03*
D13*
X157311000Y-99175000D03*
X157311000Y-96275000D03*
D14*
X160611000Y-91825000D03*
X163511000Y-91825000D03*
X163761000Y-112475000D03*
X160861000Y-112475000D03*
D13*
X166661000Y-103825000D03*
X166661000Y-106725000D03*
D14*
X160811000Y-106375000D03*
X163711000Y-106375000D03*
X163761000Y-109425000D03*
X160861000Y-109425000D03*
D13*
X170111000Y-75825000D03*
X170111000Y-78725000D03*
X172661000Y-75825000D03*
X172661000Y-78725000D03*
D15*
X160206000Y-94975000D03*
X161476000Y-94975000D03*
X162746000Y-94975000D03*
X164016000Y-94975000D03*
X164016000Y-100375000D03*
X162746000Y-100375000D03*
X161476000Y-100375000D03*
X160206000Y-100375000D03*
X161516000Y-123925000D03*
X160246000Y-123925000D03*
X158976000Y-123925000D03*
X157706000Y-123925000D03*
X157706000Y-118525000D03*
X158976000Y-118525000D03*
X160246000Y-118525000D03*
X161516000Y-118525000D03*
D12*
X157611000Y-103725000D03*
X157611000Y-106725000D03*
D11*
X164861000Y-49525000D03*
X161861000Y-49525000D03*
M02*
