M48
;DRILL file {KiCad 4.0.6} date 08/22/19 22:44:26
;FORMAT={-:-/ absolute / inch / decimal}
FMAT,2
INCH,TZ
T1C0.020
T2C0.024
T3C0.028
T4C0.039
T5C0.047
T6C0.118
%
G90
G05
M72
T1
X6.4965Y-4.4951
X6.5122Y-4.3711
X6.5733Y-2.6407
X6.587Y-2.1407
X6.5949Y-2.0915
X6.6422Y-3.9951
X6.65Y-2.1033
X6.65Y-2.4833
X6.6579Y-4.2805
X6.6815Y-2.5305
X6.717Y-2.0482
X6.7229Y-2.7175
X6.776Y-2.7136
X6.8331Y-2.7136
X6.8823Y-2.7116
X6.9296Y-2.3022
X7.0083Y-2.1033
X7.2426Y-3.9045
X7.3863Y-3.3927
X7.5516Y-3.3927
X7.5949Y-2.1407
T2
X5.9256Y-4.4754
X6.0241Y-4.3297
X6.1225Y-4.5463
X6.1323Y-4.2825
X6.8213Y-5.003
T3
X6.0181Y-3.4951
X6.0181Y-4.0463
X6.4571Y-2.5482
X6.5595Y-3.564
X6.7209Y-4.9014
X6.7209Y-5.0014
X6.7209Y-5.1014
T4
X6.5181Y-4.6348
X6.6166Y-1.9498
X6.7166Y-1.9498
X6.8016Y-4.2864
X6.8166Y-1.9498
X6.8587Y-4.127
X6.9166Y-1.9498
X7.0166Y-1.9498
X7.1697Y-3.0463
X7.2406Y-4.2313
X7.3213Y-2.1896
X7.3213Y-2.2896
X7.3213Y-2.3896
X7.3213Y-2.4896
X7.3213Y-2.5896
T5
X5.9335Y-5.001
X5.967Y-4.6545
X6.1304Y-5.001
X6.3272Y-5.001
X6.5241Y-5.001
X6.967Y-4.6545
X7.0122Y-5.001
X7.2091Y-5.001
X7.4059Y-5.001
X7.6028Y-5.001
T6
X5.9532Y-2.6998
X7.5792Y-4.0974
T0
M30
