G04 #@! TF.FileFunction,Paste,Top*
%FSLAX46Y46*%
G04 Gerber Fmt 4.6, Leading zero omitted, Abs format (unit mm)*
G04 Created by KiCad (PCBNEW 4.0.6) date 08/22/19 22:43:51*
%MOMM*%
%LPD*%
G01*
G04 APERTURE LIST*
%ADD10C,0.100000*%
%ADD11R,1.600000X1.000000*%
%ADD12R,1.000000X1.600000*%
%ADD13R,1.800000X2.500000*%
%ADD14R,3.300000X2.500000*%
%ADD15R,1.800000X1.800000*%
%ADD16R,8.000000X1.200000*%
%ADD17R,3.000000X1.200000*%
%ADD18R,5.400000X2.900000*%
%ADD19R,1.700000X0.900000*%
%ADD20R,0.900000X1.700000*%
%ADD21R,1.600000X0.560000*%
%ADD22R,0.560000X1.600000*%
%ADD23R,4.600000X1.100000*%
%ADD24R,4.550000X5.250000*%
%ADD25R,4.000000X2.500000*%
%ADD26R,2.500000X4.000000*%
%ADD27R,9.000000X3.980000*%
%ADD28R,2.000000X4.500000*%
G04 APERTURE END LIST*
D10*
D11*
X162211000Y-58375000D03*
X162211000Y-55375000D03*
X162211000Y-60275000D03*
X162211000Y-63275000D03*
D12*
X165011000Y-88775000D03*
X162011000Y-88775000D03*
D11*
X152611000Y-75475000D03*
X152611000Y-72475000D03*
X169061000Y-103775000D03*
X169061000Y-106775000D03*
D13*
X169611000Y-82875000D03*
X169611000Y-78875000D03*
D14*
X164611000Y-101975000D03*
X164611000Y-108775000D03*
X170711000Y-91375000D03*
X170711000Y-98175000D03*
X176111000Y-77375000D03*
X176111000Y-84175000D03*
D15*
X159611000Y-114425000D03*
X159611000Y-118725000D03*
X173100000Y-114425000D03*
X173100000Y-118725000D03*
D16*
X167361000Y-121625000D03*
D17*
X169611000Y-111425000D03*
D18*
X188361000Y-71725000D03*
X188361000Y-81625000D03*
D19*
X170961000Y-73825000D03*
X170961000Y-70925000D03*
X174561000Y-73825000D03*
X174561000Y-70925000D03*
X163411000Y-51025000D03*
X163411000Y-48125000D03*
X160811000Y-48125000D03*
X160811000Y-51025000D03*
X178061000Y-73825000D03*
X178061000Y-70925000D03*
D20*
X184461000Y-51275000D03*
X187361000Y-51275000D03*
X178661000Y-87575000D03*
X175761000Y-87575000D03*
X175761000Y-90175000D03*
X178661000Y-90175000D03*
D19*
X181111000Y-90325000D03*
X181111000Y-87425000D03*
D21*
X178261000Y-64875000D03*
X178261000Y-64075000D03*
X178261000Y-63275000D03*
X178261000Y-62475000D03*
X178261000Y-61675000D03*
X178261000Y-60875000D03*
X178261000Y-60075000D03*
X178261000Y-59275000D03*
X178261000Y-58475000D03*
X178261000Y-57675000D03*
X178261000Y-56875000D03*
D22*
X176411000Y-55025000D03*
X175611000Y-55025000D03*
X174811000Y-55025000D03*
X174011000Y-55025000D03*
X173211000Y-55025000D03*
X172411000Y-55025000D03*
X171611000Y-55025000D03*
X170811000Y-55025000D03*
X170011000Y-55025000D03*
X169211000Y-55025000D03*
X168411000Y-55025000D03*
D21*
X166561000Y-56875000D03*
X166561000Y-57675000D03*
X166561000Y-58475000D03*
X166561000Y-59275000D03*
X166561000Y-60075000D03*
X166561000Y-60875000D03*
X166561000Y-61675000D03*
X166561000Y-62475000D03*
X166561000Y-63275000D03*
X166561000Y-64075000D03*
X166561000Y-64875000D03*
D22*
X168411000Y-66725000D03*
X169211000Y-66725000D03*
X170011000Y-66725000D03*
X170811000Y-66725000D03*
X171611000Y-66725000D03*
X172411000Y-66725000D03*
X173211000Y-66725000D03*
X174011000Y-66725000D03*
X174811000Y-66725000D03*
X175611000Y-66725000D03*
X176411000Y-66725000D03*
D23*
X163686000Y-85675000D03*
X163686000Y-83975000D03*
X163686000Y-82275000D03*
X163686000Y-80575000D03*
X163686000Y-78875000D03*
D24*
X152111000Y-79500000D03*
X156961000Y-85050000D03*
X152111000Y-85050000D03*
X156961000Y-79500000D03*
D23*
X163686000Y-98675000D03*
X163686000Y-96975000D03*
X163686000Y-95275000D03*
X163686000Y-93575000D03*
X163686000Y-91875000D03*
D24*
X152111000Y-92500000D03*
X156961000Y-98050000D03*
X152111000Y-98050000D03*
X156961000Y-92500000D03*
D25*
X164511000Y-70975000D03*
X156511000Y-70975000D03*
X158811000Y-106575000D03*
X150811000Y-106575000D03*
D26*
X189761000Y-111975000D03*
X189761000Y-119975000D03*
D27*
X179411000Y-96145000D03*
X179411000Y-111605000D03*
D28*
X157711000Y-54325000D03*
X157711000Y-62825000D03*
M02*
