G04 #@! TF.FileFunction,Copper,L2,Bot,Signal*
%FSLAX46Y46*%
G04 Gerber Fmt 4.6, Leading zero omitted, Abs format (unit mm)*
G04 Created by KiCad (PCBNEW 0.201509251832+6217~30~ubuntu14.04.1-product) date gio 08 ott 2015 22:49:46 CEST*
%MOMM*%
G01*
G04 APERTURE LIST*
%ADD10C,0.100000*%
%ADD11C,1.400000*%
%ADD12C,3.649980*%
%ADD13R,1.501140X1.501140*%
%ADD14C,1.501140*%
%ADD15R,2.199640X1.524000*%
%ADD16O,2.199640X1.524000*%
%ADD17C,1.035000*%
%ADD18C,0.254000*%
G04 APERTURE END LIST*
D10*
D11*
X44450000Y-112522000D03*
X44450000Y-107442000D03*
X44450000Y-102870000D03*
X44450000Y-98044000D03*
X44450000Y-94234000D03*
X163830000Y-112522000D03*
X163830000Y-107442000D03*
X163830000Y-102870000D03*
X163830000Y-98044000D03*
X163830000Y-94234000D03*
X158750000Y-112522000D03*
X158750000Y-107442000D03*
X158750000Y-102870000D03*
X158750000Y-98044000D03*
X158750000Y-94234000D03*
X148590000Y-112522000D03*
X130810000Y-112522000D03*
X113030000Y-112522000D03*
X95250000Y-112522000D03*
X77470000Y-112522000D03*
X59690000Y-112522000D03*
X148590000Y-107442000D03*
X130810000Y-107442000D03*
X113030000Y-107442000D03*
X95250000Y-107442000D03*
X77470000Y-107442000D03*
X59690000Y-107442000D03*
X148590000Y-102870000D03*
X130810000Y-102870000D03*
X113030000Y-102870000D03*
X95250000Y-102870000D03*
X77470000Y-102870000D03*
X59690000Y-102870000D03*
X148590000Y-98044000D03*
X130810000Y-98044000D03*
X113030000Y-98044000D03*
X95250000Y-98044000D03*
X77470000Y-99615000D03*
X59690000Y-98044000D03*
X148590000Y-94234000D03*
X130810000Y-94234000D03*
X113030000Y-94234000D03*
X95250000Y-94234000D03*
X77470000Y-94234000D03*
X59690000Y-94234000D03*
X49530000Y-112522000D03*
X49530000Y-107442000D03*
X49530000Y-102870000D03*
X49530000Y-98044000D03*
D12*
X80421480Y-104775000D03*
X92290900Y-104775000D03*
D13*
X90805000Y-98425000D03*
D14*
X89535000Y-95885000D03*
X88265000Y-98425000D03*
X86995000Y-95885000D03*
X85725000Y-98425000D03*
X84455000Y-95885000D03*
X83185000Y-98425000D03*
X81915000Y-95885000D03*
D15*
X151130000Y-104140000D03*
D16*
X151130000Y-101600000D03*
X151130000Y-99060000D03*
X151130000Y-96520000D03*
D15*
X156210000Y-104140000D03*
D16*
X156210000Y-101600000D03*
X156210000Y-99060000D03*
X156210000Y-96520000D03*
D15*
X161290000Y-104140000D03*
D16*
X161290000Y-101600000D03*
X161290000Y-99060000D03*
X161290000Y-96520000D03*
D15*
X166370000Y-104140000D03*
D16*
X166370000Y-101600000D03*
X166370000Y-99060000D03*
X166370000Y-96520000D03*
D15*
X172974000Y-104140000D03*
D16*
X172974000Y-101600000D03*
X172974000Y-99060000D03*
X172974000Y-96520000D03*
D15*
X57150000Y-104140000D03*
D16*
X57150000Y-101600000D03*
X57150000Y-99060000D03*
X57150000Y-96520000D03*
D15*
X52070000Y-104140000D03*
D16*
X52070000Y-101600000D03*
X52070000Y-99060000D03*
X52070000Y-96520000D03*
D15*
X46990000Y-104140000D03*
D16*
X46990000Y-101600000D03*
X46990000Y-99060000D03*
X46990000Y-96520000D03*
D15*
X41910000Y-104140000D03*
D16*
X41910000Y-101600000D03*
X41910000Y-99060000D03*
X41910000Y-96520000D03*
D15*
X34798000Y-104140000D03*
D16*
X34798000Y-101600000D03*
X34798000Y-99060000D03*
X34798000Y-96520000D03*
D12*
X62641480Y-104775000D03*
X74510900Y-104775000D03*
D13*
X73025000Y-98425000D03*
D14*
X71755000Y-95885000D03*
X70485000Y-98425000D03*
X69215000Y-95885000D03*
X67945000Y-98425000D03*
X66675000Y-95885000D03*
X65405000Y-98425000D03*
X64135000Y-95885000D03*
D12*
X98201480Y-104775000D03*
X110070900Y-104775000D03*
D13*
X108585000Y-98425000D03*
D14*
X107315000Y-95885000D03*
X106045000Y-98425000D03*
X104775000Y-95885000D03*
X103505000Y-98425000D03*
X102235000Y-95885000D03*
X100965000Y-98425000D03*
X99695000Y-95885000D03*
D12*
X115981480Y-104775000D03*
X127850900Y-104775000D03*
D13*
X126365000Y-98425000D03*
D14*
X125095000Y-95885000D03*
X123825000Y-98425000D03*
X122555000Y-95885000D03*
X121285000Y-98425000D03*
X120015000Y-95885000D03*
X118745000Y-98425000D03*
X117475000Y-95885000D03*
D12*
X133761480Y-104775000D03*
X145630900Y-104775000D03*
D13*
X144145000Y-98425000D03*
D14*
X142875000Y-95885000D03*
X141605000Y-98425000D03*
X140335000Y-95885000D03*
X139065000Y-98425000D03*
X137795000Y-95885000D03*
X136525000Y-98425000D03*
X135255000Y-95885000D03*
D11*
X49530000Y-94234000D03*
D17*
X86614000Y-110744000D03*
X115570000Y-109982000D03*
X126746000Y-109728000D03*
X81788000Y-109220000D03*
X72898000Y-111506000D03*
X73152000Y-107950000D03*
X75184000Y-98552000D03*
X143764000Y-111506000D03*
X143764000Y-108712000D03*
X142748000Y-102108000D03*
X146050000Y-99568000D03*
X53366000Y-106411700D03*
X157664800Y-106356900D03*
X167647700Y-106172000D03*
X120542700Y-100554900D03*
X137434600Y-107706300D03*
X85960000Y-103166800D03*
D18*
X86614000Y-110744000D02*
X83312000Y-110744000D01*
X83312000Y-110744000D02*
X81788000Y-109220000D01*
X126746000Y-109728000D02*
X115824000Y-109728000D01*
X115824000Y-109728000D02*
X115570000Y-109982000D01*
X73152000Y-107950000D02*
X73152000Y-111252000D01*
X73152000Y-111252000D02*
X72898000Y-111506000D01*
X73859800Y-95315400D02*
X73859800Y-97072858D01*
X73859800Y-97072858D02*
X75184000Y-98397058D01*
X75184000Y-98397058D02*
X75184000Y-98552000D01*
X143764000Y-108712000D02*
X143764000Y-111506000D01*
X143510000Y-102108000D02*
X142748000Y-102108000D01*
X146050000Y-99568000D02*
X143510000Y-102108000D01*
X156210000Y-96520000D02*
X157691200Y-96520000D01*
X166370000Y-96520000D02*
X161290000Y-96520000D01*
X161290000Y-96520000D02*
X157691200Y-96520000D01*
X51597600Y-96520000D02*
X50588800Y-96520000D01*
X51597600Y-96520000D02*
X52070000Y-96520000D01*
X41910000Y-96520000D02*
X43391200Y-96520000D01*
X50588800Y-96520000D02*
X46990000Y-96520000D01*
X46990000Y-96520000D02*
X43391200Y-96520000D01*
X105940800Y-97050800D02*
X104775000Y-95885000D01*
X110376400Y-97050800D02*
X105940800Y-97050800D01*
X110480600Y-96946600D02*
X110376400Y-97050800D01*
X116327000Y-96946600D02*
X110480600Y-96946600D01*
X116397400Y-97017000D02*
X116327000Y-96946600D01*
X121423000Y-97017000D02*
X116397400Y-97017000D01*
X122555000Y-95885000D02*
X121423000Y-97017000D01*
X60290600Y-96520000D02*
X57150000Y-96520000D01*
X60787600Y-97017000D02*
X60290600Y-96520000D01*
X68083000Y-97017000D02*
X60787600Y-97017000D01*
X69215000Y-95885000D02*
X68083000Y-97017000D01*
X88160800Y-97050800D02*
X86995000Y-95885000D01*
X92596400Y-97050800D02*
X88160800Y-97050800D01*
X92700600Y-96946600D02*
X92596400Y-97050800D01*
X98547000Y-96946600D02*
X92700600Y-96946600D01*
X98617400Y-97017000D02*
X98547000Y-96946600D01*
X103643000Y-97017000D02*
X98617400Y-97017000D01*
X104775000Y-95885000D02*
X103643000Y-97017000D01*
X70384600Y-94715400D02*
X69215000Y-95885000D01*
X73259800Y-94715400D02*
X70384600Y-94715400D01*
X73859800Y-95315400D02*
X73259800Y-94715400D01*
X78134400Y-95315400D02*
X73859800Y-95315400D01*
X79254700Y-94195100D02*
X78134400Y-95315400D01*
X85305100Y-94195100D02*
X79254700Y-94195100D01*
X86995000Y-95885000D02*
X85305100Y-94195100D01*
X52237600Y-105283300D02*
X53366000Y-106411700D01*
X52070000Y-105283300D02*
X52237600Y-105283300D01*
X52070000Y-104140000D02*
X52070000Y-105283300D01*
X155498300Y-108523400D02*
X157147301Y-106874399D01*
X144905182Y-108523400D02*
X155498300Y-108523400D01*
X144088082Y-107706300D02*
X144905182Y-108523400D01*
X137434600Y-107706300D02*
X144088082Y-107706300D01*
X157147301Y-106874399D02*
X157664800Y-106356900D01*
X167462800Y-106356900D02*
X167647700Y-106172000D01*
X157664800Y-106356900D02*
X167462800Y-106356900D01*
X126751100Y-100554900D02*
X120542700Y-100554900D01*
X131555100Y-105358900D02*
X126751100Y-100554900D01*
X131555100Y-105695500D02*
X131555100Y-105358900D01*
X133565900Y-107706300D02*
X131555100Y-105695500D01*
X137434600Y-107706300D02*
X133565900Y-107706300D01*
X137795000Y-96946466D02*
X137795000Y-95885000D01*
X137795000Y-98759200D02*
X137795000Y-96946466D01*
X142042302Y-103006502D02*
X137795000Y-98759200D01*
X143329934Y-103006502D02*
X142042302Y-103006502D01*
X144736436Y-101600000D02*
X143329934Y-103006502D01*
X151130000Y-101600000D02*
X144736436Y-101600000D01*
X172974000Y-101600000D02*
X166370000Y-101600000D01*
X166370000Y-101600000D02*
X161290000Y-101600000D01*
X46990000Y-101600000D02*
X41910000Y-101600000D01*
X41910000Y-101600000D02*
X34798000Y-101600000D01*
X46990000Y-101600000D02*
X52070000Y-101600000D01*
X161290000Y-101600000D02*
X156210000Y-101600000D01*
X156210000Y-101600000D02*
X151130000Y-101600000D01*
X84455000Y-101661800D02*
X85960000Y-103166800D01*
X84455000Y-95885000D02*
X84455000Y-101661800D01*
X75999229Y-99556571D02*
X71616571Y-99556571D01*
X84907300Y-94703500D02*
X80852300Y-94703500D01*
X87514431Y-97674431D02*
X87153331Y-97674431D01*
X87153331Y-97674431D02*
X85725000Y-96246100D01*
X80852300Y-94703500D02*
X75999229Y-99556571D01*
X71616571Y-99556571D02*
X71235569Y-99175569D01*
X85725000Y-95521200D02*
X84907300Y-94703500D01*
X88265000Y-98425000D02*
X87514431Y-97674431D01*
X71235569Y-99175569D02*
X70485000Y-98425000D01*
X85725000Y-96246100D02*
X85725000Y-95521200D01*
X57150000Y-99060000D02*
X58631200Y-99060000D01*
X159743400Y-99125400D02*
X159808800Y-99060000D01*
X157756600Y-99125400D02*
X159743400Y-99125400D01*
X157691200Y-99060000D02*
X157756600Y-99125400D01*
X156210000Y-99060000D02*
X157691200Y-99060000D01*
X161290000Y-99060000D02*
X159808800Y-99060000D01*
X46990000Y-99060000D02*
X45508800Y-99060000D01*
X41910000Y-99060000D02*
X34798000Y-99060000D01*
X45384400Y-99184400D02*
X45508800Y-99060000D01*
X43515600Y-99184400D02*
X45384400Y-99184400D01*
X43391200Y-99060000D02*
X43515600Y-99184400D01*
X41910000Y-99060000D02*
X43391200Y-99060000D01*
X59130900Y-99559700D02*
X58631200Y-99060000D01*
X69350300Y-99559700D02*
X59130900Y-99559700D01*
X70485000Y-98425000D02*
X69350300Y-99559700D01*
X89397000Y-99557000D02*
X88265000Y-98425000D01*
X104913000Y-99557000D02*
X89397000Y-99557000D01*
X106045000Y-98425000D02*
X104913000Y-99557000D01*
X125098600Y-97151400D02*
X123825000Y-98425000D01*
X130173400Y-97151400D02*
X125098600Y-97151400D01*
X132578800Y-94746000D02*
X130173400Y-97151400D01*
X138276500Y-94746000D02*
X132578800Y-94746000D01*
X139065000Y-95534500D02*
X138276500Y-94746000D01*
X139065000Y-96266200D02*
X139065000Y-95534500D01*
X141223800Y-98425000D02*
X139065000Y-96266200D01*
X141605000Y-98425000D02*
X141223800Y-98425000D01*
X107177000Y-99557000D02*
X106045000Y-98425000D01*
X122693000Y-99557000D02*
X107177000Y-99557000D01*
X123825000Y-98425000D02*
X122693000Y-99557000D01*
M02*
