G04 #@! TF.FileFunction,Legend,Bot*
%FSLAX46Y46*%
G04 Gerber Fmt 4.6, Leading zero omitted, Abs format (unit mm)*
G04 Created by KiCad (PCBNEW 0.201512201246+6385~39~ubuntu14.04.1-stable) date Sun 03 Jan 2016 10:20:27 CET*
%MOMM*%
G01*
G04 APERTURE LIST*
%ADD10C,0.200000*%
%ADD11C,0.300000*%
%ADD12C,0.150000*%
%ADD13C,0.127000*%
%ADD14C,0.175000*%
G04 APERTURE END LIST*
D10*
X156733786Y-78779667D02*
X156257595Y-78779667D01*
X156829024Y-79065381D02*
X156495691Y-78065381D01*
X156162357Y-79065381D01*
X155305214Y-79065381D02*
X155876643Y-79065381D01*
X155590929Y-79065381D02*
X155590929Y-78065381D01*
X155686167Y-78208238D01*
X155781405Y-78303476D01*
X155876643Y-78351095D01*
D11*
X153225572Y-76410357D02*
X154368429Y-76410357D01*
X149224928Y-76624643D02*
X148082071Y-76624643D01*
X148653500Y-77196071D02*
X148653500Y-76053214D01*
D10*
X156733786Y-81383167D02*
X156257595Y-81383167D01*
X156829024Y-81668881D02*
X156495691Y-80668881D01*
X156162357Y-81668881D01*
X155638548Y-80668881D02*
X155543309Y-80668881D01*
X155448071Y-80716500D01*
X155400452Y-80764119D01*
X155352833Y-80859357D01*
X155305214Y-81049833D01*
X155305214Y-81287929D01*
X155352833Y-81478405D01*
X155400452Y-81573643D01*
X155448071Y-81621262D01*
X155543309Y-81668881D01*
X155638548Y-81668881D01*
X155733786Y-81621262D01*
X155781405Y-81573643D01*
X155829024Y-81478405D01*
X155876643Y-81287929D01*
X155876643Y-81049833D01*
X155829024Y-80859357D01*
X155781405Y-80764119D01*
X155733786Y-80716500D01*
X155638548Y-80668881D01*
D12*
X152821421Y-72110000D02*
G75*
G03X152821421Y-72110000I-141421J0D01*
G01*
X153130000Y-71660000D02*
X149130000Y-71660000D01*
X149130000Y-71660000D02*
X149130000Y-75660000D01*
X149130000Y-75660000D02*
X153130000Y-75660000D01*
X153130000Y-75660000D02*
X153130000Y-71660000D01*
D13*
X151765000Y-84455000D02*
X150495000Y-84455000D01*
X151765000Y-85725000D02*
X150520400Y-85725000D01*
X151765000Y-86106000D02*
X151765000Y-84074000D01*
X151765000Y-84074000D02*
X150495000Y-84074000D01*
X150495000Y-84074000D02*
X150495000Y-86106000D01*
X150495000Y-86106000D02*
X151765000Y-86106000D01*
X147955000Y-85725000D02*
X149225000Y-85725000D01*
X147955000Y-84455000D02*
X149199600Y-84455000D01*
X147955000Y-84074000D02*
X147955000Y-86106000D01*
X147955000Y-86106000D02*
X149225000Y-86106000D01*
X149225000Y-86106000D02*
X149225000Y-84074000D01*
X149225000Y-84074000D02*
X147955000Y-84074000D01*
X153035000Y-85725000D02*
X154305000Y-85725000D01*
X153035000Y-84455000D02*
X154279600Y-84455000D01*
X153035000Y-84074000D02*
X153035000Y-86106000D01*
X153035000Y-86106000D02*
X154305000Y-86106000D01*
X154305000Y-86106000D02*
X154305000Y-84074000D01*
X154305000Y-84074000D02*
X153035000Y-84074000D01*
D14*
X151246666Y-83054000D02*
X151280000Y-83087333D01*
X151380000Y-83120667D01*
X151446666Y-83120667D01*
X151546666Y-83087333D01*
X151613333Y-83020667D01*
X151646666Y-82954000D01*
X151680000Y-82820667D01*
X151680000Y-82720667D01*
X151646666Y-82587333D01*
X151613333Y-82520667D01*
X151546666Y-82454000D01*
X151446666Y-82420667D01*
X151380000Y-82420667D01*
X151280000Y-82454000D01*
X151246666Y-82487333D01*
X150580000Y-83120667D02*
X150980000Y-83120667D01*
X150780000Y-83120667D02*
X150780000Y-82420667D01*
X150846666Y-82520667D01*
X150913333Y-82587333D01*
X150980000Y-82620667D01*
X148706666Y-83054000D02*
X148740000Y-83087333D01*
X148840000Y-83120667D01*
X148906666Y-83120667D01*
X149006666Y-83087333D01*
X149073333Y-83020667D01*
X149106666Y-82954000D01*
X149140000Y-82820667D01*
X149140000Y-82720667D01*
X149106666Y-82587333D01*
X149073333Y-82520667D01*
X149006666Y-82454000D01*
X148906666Y-82420667D01*
X148840000Y-82420667D01*
X148740000Y-82454000D01*
X148706666Y-82487333D01*
X148440000Y-82487333D02*
X148406666Y-82454000D01*
X148340000Y-82420667D01*
X148173333Y-82420667D01*
X148106666Y-82454000D01*
X148073333Y-82487333D01*
X148040000Y-82554000D01*
X148040000Y-82620667D01*
X148073333Y-82720667D01*
X148473333Y-83120667D01*
X148040000Y-83120667D01*
X153786666Y-83054000D02*
X153820000Y-83087333D01*
X153920000Y-83120667D01*
X153986666Y-83120667D01*
X154086666Y-83087333D01*
X154153333Y-83020667D01*
X154186666Y-82954000D01*
X154220000Y-82820667D01*
X154220000Y-82720667D01*
X154186666Y-82587333D01*
X154153333Y-82520667D01*
X154086666Y-82454000D01*
X153986666Y-82420667D01*
X153920000Y-82420667D01*
X153820000Y-82454000D01*
X153786666Y-82487333D01*
X153553333Y-82420667D02*
X153120000Y-82420667D01*
X153353333Y-82687333D01*
X153253333Y-82687333D01*
X153186666Y-82720667D01*
X153153333Y-82754000D01*
X153120000Y-82820667D01*
X153120000Y-82987333D01*
X153153333Y-83054000D01*
X153186666Y-83087333D01*
X153253333Y-83120667D01*
X153453333Y-83120667D01*
X153520000Y-83087333D01*
X153553333Y-83054000D01*
M02*
