G04 #@! TF.FileFunction,Legend,Bot*
%FSLAX46Y46*%
G04 Gerber Fmt 4.6, Leading zero omitted, Abs format (unit mm)*
G04 Created by KiCad (PCBNEW 0.201509251832+6217~30~ubuntu14.04.1-product) date lun 05 ott 2015 22:12:15 CEST*
%MOMM*%
G01*
G04 APERTURE LIST*
%ADD10C,0.200000*%
%ADD11C,0.300000*%
%ADD12C,0.127000*%
%ADD13C,0.150000*%
%ADD14C,0.175000*%
G04 APERTURE END LIST*
D10*
D11*
X154876572Y-80156857D02*
X156019429Y-80156857D01*
X147383428Y-80117143D02*
X146240571Y-80117143D01*
X146812000Y-80688571D02*
X146812000Y-79545714D01*
D10*
X151844286Y-77128667D02*
X151368095Y-77128667D01*
X151939524Y-77414381D02*
X151606191Y-76414381D01*
X151272857Y-77414381D01*
X150415714Y-77414381D02*
X150987143Y-77414381D01*
X150701429Y-77414381D02*
X150701429Y-76414381D01*
X150796667Y-76557238D01*
X150891905Y-76652476D01*
X150987143Y-76700095D01*
X152098286Y-83732667D02*
X151622095Y-83732667D01*
X152193524Y-84018381D02*
X151860191Y-83018381D01*
X151526857Y-84018381D01*
X151003048Y-83018381D02*
X150907809Y-83018381D01*
X150812571Y-83066000D01*
X150764952Y-83113619D01*
X150717333Y-83208857D01*
X150669714Y-83399333D01*
X150669714Y-83637429D01*
X150717333Y-83827905D01*
X150764952Y-83923143D01*
X150812571Y-83970762D01*
X150907809Y-84018381D01*
X151003048Y-84018381D01*
X151098286Y-83970762D01*
X151145905Y-83923143D01*
X151193524Y-83827905D01*
X151241143Y-83637429D01*
X151241143Y-83399333D01*
X151193524Y-83208857D01*
X151145905Y-83113619D01*
X151098286Y-83066000D01*
X151003048Y-83018381D01*
D12*
X154305000Y-84455000D02*
X153035000Y-84455000D01*
X154305000Y-85725000D02*
X153060400Y-85725000D01*
X154305000Y-86106000D02*
X154305000Y-84074000D01*
X154305000Y-84074000D02*
X153035000Y-84074000D01*
X153035000Y-84074000D02*
X153035000Y-86106000D01*
X153035000Y-86106000D02*
X154305000Y-86106000D01*
X147955000Y-85725000D02*
X149225000Y-85725000D01*
X147955000Y-84455000D02*
X149199600Y-84455000D01*
X147955000Y-84074000D02*
X147955000Y-86106000D01*
X147955000Y-86106000D02*
X149225000Y-86106000D01*
X149225000Y-86106000D02*
X149225000Y-84074000D01*
X149225000Y-84074000D02*
X147955000Y-84074000D01*
X155321000Y-85725000D02*
X156591000Y-85725000D01*
X155321000Y-84455000D02*
X156565600Y-84455000D01*
X155321000Y-84074000D02*
X155321000Y-86106000D01*
X155321000Y-86106000D02*
X156591000Y-86106000D01*
X156591000Y-86106000D02*
X156591000Y-84074000D01*
X156591000Y-84074000D02*
X155321000Y-84074000D01*
D13*
X149721421Y-75210000D02*
G75*
G03X149721421Y-75210000I-141421J0D01*
G01*
X149130000Y-75660000D02*
X153130000Y-75660000D01*
X153130000Y-75660000D02*
X153130000Y-71660000D01*
X153130000Y-71660000D02*
X149130000Y-71660000D01*
X149130000Y-71660000D02*
X149130000Y-75660000D01*
D14*
X153786666Y-83054000D02*
X153820000Y-83087333D01*
X153920000Y-83120667D01*
X153986666Y-83120667D01*
X154086666Y-83087333D01*
X154153333Y-83020667D01*
X154186666Y-82954000D01*
X154220000Y-82820667D01*
X154220000Y-82720667D01*
X154186666Y-82587333D01*
X154153333Y-82520667D01*
X154086666Y-82454000D01*
X153986666Y-82420667D01*
X153920000Y-82420667D01*
X153820000Y-82454000D01*
X153786666Y-82487333D01*
X153120000Y-83120667D02*
X153520000Y-83120667D01*
X153320000Y-83120667D02*
X153320000Y-82420667D01*
X153386666Y-82520667D01*
X153453333Y-82587333D01*
X153520000Y-82620667D01*
X148706666Y-83054000D02*
X148740000Y-83087333D01*
X148840000Y-83120667D01*
X148906666Y-83120667D01*
X149006666Y-83087333D01*
X149073333Y-83020667D01*
X149106666Y-82954000D01*
X149140000Y-82820667D01*
X149140000Y-82720667D01*
X149106666Y-82587333D01*
X149073333Y-82520667D01*
X149006666Y-82454000D01*
X148906666Y-82420667D01*
X148840000Y-82420667D01*
X148740000Y-82454000D01*
X148706666Y-82487333D01*
X148440000Y-82487333D02*
X148406666Y-82454000D01*
X148340000Y-82420667D01*
X148173333Y-82420667D01*
X148106666Y-82454000D01*
X148073333Y-82487333D01*
X148040000Y-82554000D01*
X148040000Y-82620667D01*
X148073333Y-82720667D01*
X148473333Y-83120667D01*
X148040000Y-83120667D01*
X156072666Y-83054000D02*
X156106000Y-83087333D01*
X156206000Y-83120667D01*
X156272666Y-83120667D01*
X156372666Y-83087333D01*
X156439333Y-83020667D01*
X156472666Y-82954000D01*
X156506000Y-82820667D01*
X156506000Y-82720667D01*
X156472666Y-82587333D01*
X156439333Y-82520667D01*
X156372666Y-82454000D01*
X156272666Y-82420667D01*
X156206000Y-82420667D01*
X156106000Y-82454000D01*
X156072666Y-82487333D01*
X155839333Y-82420667D02*
X155406000Y-82420667D01*
X155639333Y-82687333D01*
X155539333Y-82687333D01*
X155472666Y-82720667D01*
X155439333Y-82754000D01*
X155406000Y-82820667D01*
X155406000Y-82987333D01*
X155439333Y-83054000D01*
X155472666Y-83087333D01*
X155539333Y-83120667D01*
X155739333Y-83120667D01*
X155806000Y-83087333D01*
X155839333Y-83054000D01*
D13*
X154153810Y-70270667D02*
X153677619Y-70270667D01*
X154249048Y-70556381D02*
X153915715Y-69556381D01*
X153582381Y-70556381D01*
X153249048Y-70556381D02*
X153249048Y-69556381D01*
X153010953Y-69556381D01*
X152868095Y-69604000D01*
X152772857Y-69699238D01*
X152725238Y-69794476D01*
X152677619Y-69984952D01*
X152677619Y-70127810D01*
X152725238Y-70318286D01*
X152772857Y-70413524D01*
X152868095Y-70508762D01*
X153010953Y-70556381D01*
X153249048Y-70556381D01*
X152391905Y-69556381D02*
X151820476Y-69556381D01*
X152106191Y-70556381D02*
X152106191Y-69556381D01*
X151582381Y-69556381D02*
X150915714Y-69556381D01*
X151344286Y-70556381D01*
X150106190Y-69889714D02*
X150106190Y-70556381D01*
X150344286Y-69508762D02*
X150582381Y-70223048D01*
X149963333Y-70223048D01*
X149630000Y-69651619D02*
X149582381Y-69604000D01*
X149487143Y-69556381D01*
X149249047Y-69556381D01*
X149153809Y-69604000D01*
X149106190Y-69651619D01*
X149058571Y-69746857D01*
X149058571Y-69842095D01*
X149106190Y-69984952D01*
X149677619Y-70556381D01*
X149058571Y-70556381D01*
X148439524Y-69556381D02*
X148344285Y-69556381D01*
X148249047Y-69604000D01*
X148201428Y-69651619D01*
X148153809Y-69746857D01*
X148106190Y-69937333D01*
X148106190Y-70175429D01*
X148153809Y-70365905D01*
X148201428Y-70461143D01*
X148249047Y-70508762D01*
X148344285Y-70556381D01*
X148439524Y-70556381D01*
X148534762Y-70508762D01*
X148582381Y-70461143D01*
X148630000Y-70365905D01*
X148677619Y-70175429D01*
X148677619Y-69937333D01*
X148630000Y-69746857D01*
X148582381Y-69651619D01*
X148534762Y-69604000D01*
X148439524Y-69556381D01*
M02*
