G04 #@! TF.FileFunction,Copper,L2,Bot,Signal*
%FSLAX46Y46*%
G04 Gerber Fmt 4.6, Leading zero omitted, Abs format (unit mm)*
G04 Created by KiCad (PCBNEW 0.201509251832+6217~30~ubuntu14.04.1-product) date gio 08 ott 2015 23:54:13 CEST*
%MOMM*%
G01*
G04 APERTURE LIST*
%ADD10C,0.200000*%
%ADD11R,1.498600X1.300480*%
%ADD12R,1.524000X2.199640*%
%ADD13O,1.524000X2.199640*%
%ADD14R,1.501140X1.501140*%
%ADD15R,0.650000X0.250000*%
%ADD16R,0.250000X0.650000*%
%ADD17R,2.600000X2.600000*%
%ADD18C,2.999740*%
%ADD19C,0.600000*%
%ADD20C,0.250000*%
G04 APERTURE END LIST*
D10*
D11*
X153670000Y-84137500D03*
X153670000Y-86042500D03*
X148590000Y-86042500D03*
X148590000Y-84137500D03*
X155956000Y-86042500D03*
X155956000Y-84137500D03*
D12*
X147320000Y-88900000D03*
D13*
X149860000Y-88900000D03*
X152400000Y-88900000D03*
X154940000Y-88900000D03*
D14*
X153670000Y-78740000D03*
X148590000Y-78740000D03*
X151130000Y-81280000D03*
X151130000Y-78740000D03*
D15*
X149180000Y-74635000D03*
X149180000Y-73985000D03*
X149180000Y-73335000D03*
X149180000Y-72685000D03*
D16*
X150155000Y-71710000D03*
X150805000Y-71710000D03*
X151455000Y-71710000D03*
X152105000Y-71710000D03*
D15*
X153080000Y-72685000D03*
X153080000Y-73335000D03*
X153080000Y-73985000D03*
X153080000Y-74635000D03*
D16*
X152105000Y-75610000D03*
X151455000Y-75610000D03*
X150805000Y-75610000D03*
X150155000Y-75610000D03*
D17*
X151130000Y-73660000D03*
D14*
X148590000Y-81280000D03*
X153670000Y-81280000D03*
D18*
X151384000Y-94488000D03*
D19*
X152988000Y-76528500D03*
X148550000Y-82956300D03*
D20*
X148590000Y-78740000D02*
X149665900Y-78740000D01*
X156027300Y-87089300D02*
X155956000Y-87018000D01*
X156027300Y-88900000D02*
X156027300Y-87089300D01*
X154940000Y-88900000D02*
X156027300Y-88900000D01*
X155956000Y-86042500D02*
X155956000Y-87018000D01*
X148590000Y-81280000D02*
X148590000Y-78740000D01*
X148590000Y-81280000D02*
X149665900Y-81280000D01*
X149665900Y-78208000D02*
X149665900Y-78740000D01*
X150269500Y-77604400D02*
X149665900Y-78208000D01*
X151024900Y-77604400D02*
X150269500Y-77604400D01*
X153080000Y-75549300D02*
X151024900Y-77604400D01*
X153080000Y-74635000D02*
X153080000Y-75549300D01*
X151985400Y-84137500D02*
X153670000Y-84137500D01*
X149665900Y-81818000D02*
X151985400Y-84137500D01*
X149665900Y-81280000D02*
X149665900Y-81818000D01*
X154744600Y-84831100D02*
X155956000Y-86042500D01*
X154744600Y-84137500D02*
X154744600Y-84831100D01*
X153670000Y-84137500D02*
X154744600Y-84137500D01*
X153080000Y-73985000D02*
X153730300Y-73985000D01*
X153670000Y-78740000D02*
X153670000Y-77664100D01*
X153730300Y-76468200D02*
X153670000Y-76528500D01*
X153730300Y-73985000D02*
X153730300Y-76468200D01*
X153670000Y-76528500D02*
X153670000Y-77664100D01*
X153670000Y-81280000D02*
X153670000Y-78740000D01*
X157030700Y-85212200D02*
X155956000Y-84137500D01*
X157030700Y-88751500D02*
X157030700Y-85212200D01*
X155403000Y-90379200D02*
X157030700Y-88751500D01*
X154422900Y-90379200D02*
X155403000Y-90379200D01*
X153487300Y-89443600D02*
X154422900Y-90379200D01*
X153487300Y-88900000D02*
X153487300Y-89443600D01*
X153670000Y-76528500D02*
X152988000Y-76528500D01*
X152400000Y-88900000D02*
X152891500Y-88900000D01*
X152891500Y-88900000D02*
X153487300Y-88900000D01*
X152891500Y-87796500D02*
X153670000Y-87018000D01*
X152891500Y-88900000D02*
X152891500Y-87796500D01*
X153670000Y-86042500D02*
X153670000Y-87018000D01*
X150495000Y-86042500D02*
X153670000Y-86042500D01*
X148590000Y-84137500D02*
X150495000Y-86042500D01*
X147911600Y-82956300D02*
X148550000Y-82956300D01*
X147515300Y-83352600D02*
X147911600Y-82956300D01*
X147515300Y-84967800D02*
X147515300Y-83352600D01*
X148590000Y-86042500D02*
X147515300Y-84967800D01*
X149180000Y-74635000D02*
X148529700Y-74635000D01*
X147320000Y-88900000D02*
X147320000Y-87474900D01*
X147023900Y-76140800D02*
X148529700Y-74635000D01*
X147023900Y-87178800D02*
X147023900Y-76140800D01*
X147320000Y-87474900D02*
X147023900Y-87178800D01*
X148772700Y-89851400D02*
X148772700Y-88900000D01*
X148251900Y-90372200D02*
X148772700Y-89851400D01*
X146467000Y-90372200D02*
X148251900Y-90372200D01*
X146232600Y-90137800D02*
X146467000Y-90372200D01*
X146232600Y-76282100D02*
X146232600Y-90137800D01*
X148529700Y-73985000D02*
X146232600Y-76282100D01*
X149180000Y-73985000D02*
X148529700Y-73985000D01*
X149860000Y-88900000D02*
X148772700Y-88900000D01*
X151619400Y-82845300D02*
X151130000Y-82355900D01*
X154709100Y-82845300D02*
X151619400Y-82845300D01*
X155218500Y-82335900D02*
X154709100Y-82845300D01*
X155218500Y-73261900D02*
X155218500Y-82335900D01*
X152492800Y-70536200D02*
X155218500Y-73261900D01*
X149737400Y-70536200D02*
X152492800Y-70536200D01*
X148529700Y-71743900D02*
X149737400Y-70536200D01*
X148529700Y-73335000D02*
X148529700Y-71743900D01*
X149180000Y-73335000D02*
X148529700Y-73335000D01*
X151130000Y-81280000D02*
X151130000Y-82355900D01*
X151130000Y-78740000D02*
X151130000Y-79815900D01*
X151668000Y-79815900D02*
X151130000Y-79815900D01*
X152205900Y-80353800D02*
X151668000Y-79815900D01*
X152205900Y-81788700D02*
X152205900Y-80353800D01*
X152808200Y-82391000D02*
X152205900Y-81788700D01*
X154525200Y-82391000D02*
X152808200Y-82391000D01*
X154764500Y-82151700D02*
X154525200Y-82391000D01*
X154764500Y-73444900D02*
X154764500Y-82151700D01*
X152339900Y-71020300D02*
X154764500Y-73444900D01*
X149926200Y-71020300D02*
X152339900Y-71020300D01*
X149180000Y-71766500D02*
X149926200Y-71020300D01*
X149180000Y-72685000D02*
X149180000Y-71766500D01*
M02*
