G04 #@! TF.FileFunction,Legend,Top*
%FSLAX46Y46*%
G04 Gerber Fmt 4.6, Leading zero omitted, Abs format (unit mm)*
G04 Created by KiCad (PCBNEW 0.201601191447+6495~42~ubuntu14.04.1-product) date Wed 20 Jan 2016 18:36:10 CET*
%MOMM*%
G01*
G04 APERTURE LIST*
%ADD10C,0.200000*%
%ADD11C,0.300000*%
%ADD12C,0.150000*%
%ADD13C,0.304800*%
%ADD14C,0.254000*%
%ADD15C,0.127000*%
G04 APERTURE END LIST*
D10*
X145777619Y-91717762D02*
X145891905Y-91765381D01*
X146082381Y-91765381D01*
X146158571Y-91717762D01*
X146196667Y-91670143D01*
X146234762Y-91574905D01*
X146234762Y-91479667D01*
X146196667Y-91384429D01*
X146158571Y-91336810D01*
X146082381Y-91289190D01*
X145930000Y-91241571D01*
X145853809Y-91193952D01*
X145815714Y-91146333D01*
X145777619Y-91051095D01*
X145777619Y-90955857D01*
X145815714Y-90860619D01*
X145853809Y-90813000D01*
X145930000Y-90765381D01*
X146120476Y-90765381D01*
X146234762Y-90813000D01*
X147034762Y-91670143D02*
X146996667Y-91717762D01*
X146882381Y-91765381D01*
X146806191Y-91765381D01*
X146691905Y-91717762D01*
X146615714Y-91622524D01*
X146577619Y-91527286D01*
X146539524Y-91336810D01*
X146539524Y-91193952D01*
X146577619Y-91003476D01*
X146615714Y-90908238D01*
X146691905Y-90813000D01*
X146806191Y-90765381D01*
X146882381Y-90765381D01*
X146996667Y-90813000D01*
X147034762Y-90860619D01*
X147758572Y-91765381D02*
X147377619Y-91765381D01*
X147377619Y-90765381D01*
X148596667Y-91717762D02*
X148710953Y-91765381D01*
X148901429Y-91765381D01*
X148977619Y-91717762D01*
X149015715Y-91670143D01*
X149053810Y-91574905D01*
X149053810Y-91479667D01*
X149015715Y-91384429D01*
X148977619Y-91336810D01*
X148901429Y-91289190D01*
X148749048Y-91241571D01*
X148672857Y-91193952D01*
X148634762Y-91146333D01*
X148596667Y-91051095D01*
X148596667Y-90955857D01*
X148634762Y-90860619D01*
X148672857Y-90813000D01*
X148749048Y-90765381D01*
X148939524Y-90765381D01*
X149053810Y-90813000D01*
X149396667Y-91765381D02*
X149396667Y-90765381D01*
X149587143Y-90765381D01*
X149701429Y-90813000D01*
X149777620Y-90908238D01*
X149815715Y-91003476D01*
X149853810Y-91193952D01*
X149853810Y-91336810D01*
X149815715Y-91527286D01*
X149777620Y-91622524D01*
X149701429Y-91717762D01*
X149587143Y-91765381D01*
X149396667Y-91765381D01*
X150158572Y-91479667D02*
X150539524Y-91479667D01*
X150082381Y-91765381D02*
X150349048Y-90765381D01*
X150615715Y-91765381D01*
X151910953Y-90813000D02*
X151834762Y-90765381D01*
X151720477Y-90765381D01*
X151606191Y-90813000D01*
X151530000Y-90908238D01*
X151491905Y-91003476D01*
X151453810Y-91193952D01*
X151453810Y-91336810D01*
X151491905Y-91527286D01*
X151530000Y-91622524D01*
X151606191Y-91717762D01*
X151720477Y-91765381D01*
X151796667Y-91765381D01*
X151910953Y-91717762D01*
X151949048Y-91670143D01*
X151949048Y-91336810D01*
X151796667Y-91336810D01*
X152291905Y-91765381D02*
X152291905Y-90765381D01*
X152749048Y-91765381D01*
X152749048Y-90765381D01*
X153130000Y-91765381D02*
X153130000Y-90765381D01*
X153320476Y-90765381D01*
X153434762Y-90813000D01*
X153510953Y-90908238D01*
X153549048Y-91003476D01*
X153587143Y-91193952D01*
X153587143Y-91336810D01*
X153549048Y-91527286D01*
X153510953Y-91622524D01*
X153434762Y-91717762D01*
X153320476Y-91765381D01*
X153130000Y-91765381D01*
X154425238Y-90765381D02*
X154691905Y-91765381D01*
X154958572Y-90765381D01*
X155682381Y-91670143D02*
X155644286Y-91717762D01*
X155530000Y-91765381D01*
X155453810Y-91765381D01*
X155339524Y-91717762D01*
X155263333Y-91622524D01*
X155225238Y-91527286D01*
X155187143Y-91336810D01*
X155187143Y-91193952D01*
X155225238Y-91003476D01*
X155263333Y-90908238D01*
X155339524Y-90813000D01*
X155453810Y-90765381D01*
X155530000Y-90765381D01*
X155644286Y-90813000D01*
X155682381Y-90860619D01*
X156482381Y-91670143D02*
X156444286Y-91717762D01*
X156330000Y-91765381D01*
X156253810Y-91765381D01*
X156139524Y-91717762D01*
X156063333Y-91622524D01*
X156025238Y-91527286D01*
X155987143Y-91336810D01*
X155987143Y-91193952D01*
X156025238Y-91003476D01*
X156063333Y-90908238D01*
X156139524Y-90813000D01*
X156253810Y-90765381D01*
X156330000Y-90765381D01*
X156444286Y-90813000D01*
X156482381Y-90860619D01*
D11*
X147236571Y-78122742D02*
X146236571Y-78122742D01*
X146522286Y-78122742D02*
X146379429Y-78051314D01*
X146308000Y-77979885D01*
X146236571Y-77837028D01*
X146236571Y-77694171D01*
X147236571Y-77194171D02*
X146236571Y-77194171D01*
X146379429Y-77194171D02*
X146308000Y-77122743D01*
X146236571Y-76979885D01*
X146236571Y-76765600D01*
X146308000Y-76622743D01*
X146450857Y-76551314D01*
X147236571Y-76551314D01*
X146450857Y-76551314D02*
X146308000Y-76479885D01*
X146236571Y-76337028D01*
X146236571Y-76122743D01*
X146308000Y-75979885D01*
X146450857Y-75908457D01*
X147236571Y-75908457D01*
X147236571Y-74551314D02*
X146450857Y-74551314D01*
X146308000Y-74622743D01*
X146236571Y-74765600D01*
X146236571Y-75051314D01*
X146308000Y-75194171D01*
X147165143Y-74551314D02*
X147236571Y-74694171D01*
X147236571Y-75051314D01*
X147165143Y-75194171D01*
X147022286Y-75265600D01*
X146879429Y-75265600D01*
X146736571Y-75194171D01*
X146665143Y-75051314D01*
X146665143Y-74694171D01*
X146593714Y-74551314D01*
X146236571Y-73837028D02*
X147736571Y-73837028D01*
X146308000Y-73837028D02*
X146236571Y-73694171D01*
X146236571Y-73408457D01*
X146308000Y-73265600D01*
X146379429Y-73194171D01*
X146522286Y-73122742D01*
X146950857Y-73122742D01*
X147093714Y-73194171D01*
X147165143Y-73265600D01*
X147236571Y-73408457D01*
X147236571Y-73694171D01*
X147165143Y-73837028D01*
X147093714Y-72479885D02*
X147165143Y-72408457D01*
X147236571Y-72479885D01*
X147165143Y-72551314D01*
X147093714Y-72479885D01*
X147236571Y-72479885D01*
X147165143Y-71122742D02*
X147236571Y-71265599D01*
X147236571Y-71551313D01*
X147165143Y-71694171D01*
X147093714Y-71765599D01*
X146950857Y-71837028D01*
X146522286Y-71837028D01*
X146379429Y-71765599D01*
X146308000Y-71694171D01*
X146236571Y-71551313D01*
X146236571Y-71265599D01*
X146308000Y-71122742D01*
X147165143Y-69837028D02*
X147236571Y-69979885D01*
X147236571Y-70265599D01*
X147165143Y-70408457D01*
X147093714Y-70479885D01*
X146950857Y-70551314D01*
X146522286Y-70551314D01*
X146379429Y-70479885D01*
X146308000Y-70408457D01*
X146236571Y-70265599D01*
X146236571Y-69979885D01*
X146308000Y-69837028D01*
D12*
X148590000Y-78994000D02*
X153670000Y-78994000D01*
X153670000Y-78994000D02*
X153670000Y-83566000D01*
X153670000Y-83566000D02*
X148590000Y-83566000D01*
X148590000Y-83566000D02*
X148590000Y-78994000D01*
X148590000Y-80518000D02*
X149098000Y-80518000D01*
X149098000Y-80518000D02*
X149098000Y-81788000D01*
X149098000Y-81788000D02*
X148590000Y-81788000D01*
D13*
X148590000Y-87630000D02*
X148590000Y-90170000D01*
X156210000Y-90170000D02*
X146050000Y-90170000D01*
X146050000Y-87630000D02*
X156210000Y-87630000D01*
X146050000Y-90170000D02*
X146050000Y-87630000D01*
X156210000Y-87630000D02*
X156210000Y-90170000D01*
D14*
X151384000Y-92329000D02*
X151384000Y-96647000D01*
X149225000Y-94488000D02*
X153543000Y-94488000D01*
X153162000Y-94488000D02*
G75*
G03X153162000Y-94488000I-1778000J0D01*
G01*
D15*
X155829000Y-81851500D02*
X154559000Y-81851500D01*
X155829000Y-80581500D02*
X154584400Y-80581500D01*
X155829000Y-80200500D02*
X155829000Y-82232500D01*
X155829000Y-82232500D02*
X154559000Y-82232500D01*
X154559000Y-82232500D02*
X154559000Y-80200500D01*
X154559000Y-80200500D02*
X155829000Y-80200500D01*
X147701000Y-81851500D02*
X146431000Y-81851500D01*
X147701000Y-80581500D02*
X146456400Y-80581500D01*
X147701000Y-80200500D02*
X147701000Y-82232500D01*
X147701000Y-82232500D02*
X146431000Y-82232500D01*
X146431000Y-82232500D02*
X146431000Y-80200500D01*
X146431000Y-80200500D02*
X147701000Y-80200500D01*
D12*
X150368095Y-85609181D02*
X150368095Y-86418705D01*
X150415714Y-86513943D01*
X150463333Y-86561562D01*
X150558571Y-86609181D01*
X150749048Y-86609181D01*
X150844286Y-86561562D01*
X150891905Y-86513943D01*
X150939524Y-86418705D01*
X150939524Y-85609181D01*
X151368095Y-85704419D02*
X151415714Y-85656800D01*
X151510952Y-85609181D01*
X151749048Y-85609181D01*
X151844286Y-85656800D01*
X151891905Y-85704419D01*
X151939524Y-85799657D01*
X151939524Y-85894895D01*
X151891905Y-86037752D01*
X151320476Y-86609181D01*
X151939524Y-86609181D01*
X150368095Y-75245981D02*
X150368095Y-76055505D01*
X150415714Y-76150743D01*
X150463333Y-76198362D01*
X150558571Y-76245981D01*
X150749048Y-76245981D01*
X150844286Y-76198362D01*
X150891905Y-76150743D01*
X150939524Y-76055505D01*
X150939524Y-75245981D01*
X151939524Y-76245981D02*
X151368095Y-76245981D01*
X151653809Y-76245981D02*
X151653809Y-75245981D01*
X151558571Y-75388838D01*
X151463333Y-75484076D01*
X151368095Y-75531695D01*
D10*
X155849581Y-84291466D02*
X155373390Y-84624800D01*
X155849581Y-84862895D02*
X154849581Y-84862895D01*
X154849581Y-84481942D01*
X154897200Y-84386704D01*
X154944819Y-84339085D01*
X155040057Y-84291466D01*
X155182914Y-84291466D01*
X155278152Y-84339085D01*
X155325771Y-84386704D01*
X155373390Y-84481942D01*
X155373390Y-84862895D01*
X155849581Y-83339085D02*
X155849581Y-83910514D01*
X155849581Y-83624800D02*
X154849581Y-83624800D01*
X154992438Y-83720038D01*
X155087676Y-83815276D01*
X155135295Y-83910514D01*
X147467581Y-84393066D02*
X146991390Y-84726400D01*
X147467581Y-84964495D02*
X146467581Y-84964495D01*
X146467581Y-84583542D01*
X146515200Y-84488304D01*
X146562819Y-84440685D01*
X146658057Y-84393066D01*
X146800914Y-84393066D01*
X146896152Y-84440685D01*
X146943771Y-84488304D01*
X146991390Y-84583542D01*
X146991390Y-84964495D01*
X146562819Y-84012114D02*
X146515200Y-83964495D01*
X146467581Y-83869257D01*
X146467581Y-83631161D01*
X146515200Y-83535923D01*
X146562819Y-83488304D01*
X146658057Y-83440685D01*
X146753295Y-83440685D01*
X146896152Y-83488304D01*
X147467581Y-84059733D01*
X147467581Y-83440685D01*
M02*
