G04 #@! TF.FileFunction,Legend,Top*
%FSLAX46Y46*%
G04 Gerber Fmt 4.6, Leading zero omitted, Abs format (unit mm)*
G04 Created by KiCad (PCBNEW 0.201509251832+6217~30~ubuntu14.04.1-product) date lun 05 ott 2015 22:12:15 CEST*
%MOMM*%
G01*
G04 APERTURE LIST*
%ADD10C,0.200000*%
%ADD11C,0.300000*%
%ADD12C,0.150000*%
%ADD13C,0.304800*%
%ADD14C,0.254000*%
G04 APERTURE END LIST*
D10*
D11*
X146728571Y-79037142D02*
X145728571Y-79037142D01*
X146014286Y-79037142D02*
X145871429Y-78965714D01*
X145800000Y-78894285D01*
X145728571Y-78751428D01*
X145728571Y-78608571D01*
X146728571Y-78108571D02*
X145728571Y-78108571D01*
X145871429Y-78108571D02*
X145800000Y-78037143D01*
X145728571Y-77894285D01*
X145728571Y-77680000D01*
X145800000Y-77537143D01*
X145942857Y-77465714D01*
X146728571Y-77465714D01*
X145942857Y-77465714D02*
X145800000Y-77394285D01*
X145728571Y-77251428D01*
X145728571Y-77037143D01*
X145800000Y-76894285D01*
X145942857Y-76822857D01*
X146728571Y-76822857D01*
X146728571Y-75465714D02*
X145942857Y-75465714D01*
X145800000Y-75537143D01*
X145728571Y-75680000D01*
X145728571Y-75965714D01*
X145800000Y-76108571D01*
X146657143Y-75465714D02*
X146728571Y-75608571D01*
X146728571Y-75965714D01*
X146657143Y-76108571D01*
X146514286Y-76180000D01*
X146371429Y-76180000D01*
X146228571Y-76108571D01*
X146157143Y-75965714D01*
X146157143Y-75608571D01*
X146085714Y-75465714D01*
X145728571Y-74751428D02*
X147228571Y-74751428D01*
X145800000Y-74751428D02*
X145728571Y-74608571D01*
X145728571Y-74322857D01*
X145800000Y-74180000D01*
X145871429Y-74108571D01*
X146014286Y-74037142D01*
X146442857Y-74037142D01*
X146585714Y-74108571D01*
X146657143Y-74180000D01*
X146728571Y-74322857D01*
X146728571Y-74608571D01*
X146657143Y-74751428D01*
X146585714Y-73394285D02*
X146657143Y-73322857D01*
X146728571Y-73394285D01*
X146657143Y-73465714D01*
X146585714Y-73394285D01*
X146728571Y-73394285D01*
X146657143Y-72037142D02*
X146728571Y-72179999D01*
X146728571Y-72465713D01*
X146657143Y-72608571D01*
X146585714Y-72679999D01*
X146442857Y-72751428D01*
X146014286Y-72751428D01*
X145871429Y-72679999D01*
X145800000Y-72608571D01*
X145728571Y-72465713D01*
X145728571Y-72179999D01*
X145800000Y-72037142D01*
X146657143Y-70751428D02*
X146728571Y-70894285D01*
X146728571Y-71179999D01*
X146657143Y-71322857D01*
X146585714Y-71394285D01*
X146442857Y-71465714D01*
X146014286Y-71465714D01*
X145871429Y-71394285D01*
X145800000Y-71322857D01*
X145728571Y-71179999D01*
X145728571Y-70894285D01*
X145800000Y-70751428D01*
D12*
X148590000Y-78994000D02*
X153670000Y-78994000D01*
X153670000Y-78994000D02*
X153670000Y-83566000D01*
X153670000Y-83566000D02*
X148590000Y-83566000D01*
X148590000Y-83566000D02*
X148590000Y-78994000D01*
X148590000Y-80518000D02*
X149098000Y-80518000D01*
X149098000Y-80518000D02*
X149098000Y-81788000D01*
X149098000Y-81788000D02*
X148590000Y-81788000D01*
D13*
X148590000Y-87630000D02*
X148590000Y-90170000D01*
X156210000Y-90170000D02*
X146050000Y-90170000D01*
X146050000Y-87630000D02*
X156210000Y-87630000D01*
X146050000Y-90170000D02*
X146050000Y-87630000D01*
X156210000Y-87630000D02*
X156210000Y-90170000D01*
D14*
X151384000Y-92329000D02*
X151384000Y-96647000D01*
X149225000Y-94488000D02*
X153543000Y-94488000D01*
X153162000Y-94488000D02*
G75*
G03X153162000Y-94488000I-1778000J0D01*
G01*
M02*
