G04 #@! TF.FileFunction,Copper,L2,Bot,Signal*
%FSLAX46Y46*%
G04 Gerber Fmt 4.6, Leading zero omitted, Abs format (unit mm)*
G04 Created by KiCad (PCBNEW 0.201512201246+6385~39~ubuntu14.04.1-stable) date Fri 15 Jan 2016 12:22:44 CET*
%MOMM*%
G01*
G04 APERTURE LIST*
%ADD10C,0.200000*%
%ADD11R,1.000000X0.250000*%
%ADD12R,0.250000X1.000000*%
%ADD13R,2.600000X2.600000*%
%ADD14R,1.498600X1.300480*%
%ADD15R,1.524000X2.199640*%
%ADD16O,1.524000X2.199640*%
%ADD17R,1.501140X1.501140*%
%ADD18C,2.999740*%
%ADD19C,0.600000*%
%ADD20C,0.250000*%
%ADD21C,0.254000*%
G04 APERTURE END LIST*
D10*
D11*
X153289000Y-72707500D03*
X153289000Y-73342500D03*
X153289000Y-73977500D03*
X153289000Y-74612500D03*
D12*
X152082500Y-75755500D03*
X151447500Y-75755500D03*
X150812500Y-75755500D03*
X150177500Y-75755500D03*
D11*
X149034500Y-74612500D03*
X149034500Y-73977500D03*
X149034500Y-73342500D03*
X149034500Y-72707500D03*
D12*
X150177500Y-71628000D03*
X150812500Y-71628000D03*
X151447500Y-71628000D03*
X152082500Y-71628000D03*
D13*
X151130000Y-73660000D03*
D14*
X151130000Y-84137500D03*
X151130000Y-86042500D03*
X148590000Y-86042500D03*
X148590000Y-84137500D03*
X153670000Y-86042500D03*
X153670000Y-84137500D03*
D15*
X147320000Y-88900000D03*
D16*
X149860000Y-88900000D03*
X152400000Y-88900000D03*
X154940000Y-88900000D03*
D17*
X153670000Y-78740000D03*
X148590000Y-78740000D03*
X151130000Y-81280000D03*
X151130000Y-78740000D03*
X148590000Y-81280000D03*
X153670000Y-81280000D03*
D18*
X151384000Y-94488000D03*
D19*
X146189700Y-72710040D03*
X150450400Y-82731200D03*
X149052900Y-87200100D03*
X156324300Y-72511920D03*
X155050600Y-78398812D03*
X152397600Y-81274100D03*
D20*
X154940000Y-88900000D02*
X154937190Y-88902810D01*
X154937190Y-88902810D02*
X154937190Y-87309690D01*
X154937190Y-87309690D02*
X153670000Y-86042500D01*
X153670000Y-86042500D02*
X153570940Y-86042500D01*
X153570940Y-86042500D02*
X151665940Y-84137500D01*
X151665940Y-84137500D02*
X151130000Y-84137500D01*
X146192240Y-72707500D02*
X146189700Y-72710040D01*
X149034500Y-72707500D02*
X146192240Y-72707500D01*
X148590000Y-78740000D02*
X148590000Y-81280000D01*
X148590000Y-81280000D02*
X148590000Y-82355900D01*
X150972300Y-84137500D02*
X151130000Y-84137500D01*
X149190700Y-82355900D02*
X150972300Y-84137500D01*
X148590000Y-82355900D02*
X149190700Y-82355900D01*
X156044800Y-86413240D02*
X153769060Y-84137500D01*
X156044800Y-89695400D02*
X156044800Y-86413240D01*
X155377100Y-90363100D02*
X156044800Y-89695400D01*
X153525280Y-90363100D02*
X155377100Y-90363100D01*
X152400000Y-89237820D02*
X153525280Y-90363100D01*
X152400000Y-88900000D02*
X152400000Y-89237820D01*
X153769060Y-84137500D02*
X153670000Y-84137500D01*
X152400000Y-88900000D02*
X152400000Y-87238921D01*
X152400000Y-87238921D02*
X151209259Y-86048180D01*
X151209259Y-86048180D02*
X151135680Y-86048180D01*
X151135680Y-86048180D02*
X151130000Y-86042500D01*
X148590000Y-84137500D02*
X149125940Y-84137500D01*
X149125940Y-84137500D02*
X151030940Y-86042500D01*
X151030940Y-86042500D02*
X151130000Y-86042500D01*
X149127300Y-84137500D02*
X146420500Y-81430700D01*
X146420500Y-81430700D02*
X146420500Y-74017761D01*
X146420500Y-74017761D02*
X147094052Y-73344209D01*
X147094052Y-73344209D02*
X149032791Y-73344209D01*
X149032791Y-73344209D02*
X149034500Y-73342500D01*
X153670000Y-84137500D02*
X153670000Y-83162000D01*
X148590000Y-84137500D02*
X149127300Y-84137500D01*
X153670000Y-81280000D02*
X153670000Y-78740000D01*
X153670000Y-82731200D02*
X150450400Y-82731200D01*
X153670000Y-81280000D02*
X153670000Y-82731200D01*
X153670000Y-82731200D02*
X153670000Y-83162000D01*
X148590000Y-86042500D02*
X148590000Y-86262323D01*
X148590000Y-86262323D02*
X148578663Y-86273660D01*
X148578663Y-86273660D02*
X148578663Y-86725863D01*
X148578663Y-86725863D02*
X149052900Y-87200100D01*
X153289000Y-72707500D02*
X156128720Y-72707500D01*
X156128720Y-72707500D02*
X156324300Y-72511920D01*
X149860000Y-88900000D02*
X149860000Y-89237820D01*
X149860000Y-89237820D02*
X152247225Y-91625045D01*
X152247225Y-91625045D02*
X156169812Y-91625045D01*
X156169812Y-91625045D02*
X156797000Y-90997857D01*
X156797000Y-90997857D02*
X156797000Y-74063578D01*
X156797000Y-74063578D02*
X156075922Y-73342500D01*
X156075922Y-73342500D02*
X154039000Y-73342500D01*
X154039000Y-73342500D02*
X153289000Y-73342500D01*
X153289000Y-73977500D02*
X155528872Y-73977500D01*
X155528872Y-73977500D02*
X156162267Y-74610895D01*
X156162267Y-77287145D02*
X155350599Y-78098813D01*
X156162267Y-74610895D02*
X156162267Y-77287145D01*
X155350599Y-78098813D02*
X155050600Y-78398812D01*
X152391700Y-81280000D02*
X152397600Y-81274100D01*
X151130000Y-81280000D02*
X152391700Y-81280000D01*
X151790400Y-76962000D02*
X151130000Y-77622400D01*
X151130000Y-77622400D02*
X151130000Y-78740000D01*
X155143200Y-76962000D02*
X151790400Y-76962000D01*
X155549600Y-76555600D02*
X155143200Y-76962000D01*
X155549600Y-75031600D02*
X155549600Y-76555600D01*
X155130500Y-74612500D02*
X155549600Y-75031600D01*
X153289000Y-74612500D02*
X155130500Y-74612500D01*
X153289000Y-74612500D02*
X153664000Y-74612500D01*
D21*
G36*
X156946600Y-72376110D02*
X156856155Y-72157217D01*
X156679931Y-71980685D01*
X156449565Y-71885029D01*
X156200129Y-71884811D01*
X155969597Y-71980065D01*
X155793065Y-72156289D01*
X155751869Y-72255500D01*
X153820633Y-72255500D01*
X153789000Y-72249094D01*
X152789000Y-72249094D01*
X152744127Y-72257537D01*
X152740605Y-72238821D01*
X152668988Y-72127526D01*
X152559714Y-72052862D01*
X152540906Y-72049053D01*
X152540906Y-71128000D01*
X152518105Y-71006821D01*
X152446488Y-70895526D01*
X152337214Y-70820862D01*
X152207500Y-70794594D01*
X151957500Y-70794594D01*
X151836321Y-70817395D01*
X151764644Y-70863519D01*
X151702214Y-70820862D01*
X151572500Y-70794594D01*
X151322500Y-70794594D01*
X151201321Y-70817395D01*
X151129644Y-70863519D01*
X151067214Y-70820862D01*
X150937500Y-70794594D01*
X150687500Y-70794594D01*
X150566321Y-70817395D01*
X150494644Y-70863519D01*
X150432214Y-70820862D01*
X150302500Y-70794594D01*
X150052500Y-70794594D01*
X149931321Y-70817395D01*
X149820026Y-70889012D01*
X149745362Y-70998286D01*
X149719094Y-71128000D01*
X149719094Y-72047462D01*
X149708821Y-72049395D01*
X149597526Y-72121012D01*
X149522862Y-72230286D01*
X149519053Y-72249094D01*
X148534500Y-72249094D01*
X148500454Y-72255500D01*
X146621892Y-72255500D01*
X146545331Y-72178805D01*
X146314965Y-72083149D01*
X146065529Y-72082931D01*
X145834997Y-72178185D01*
X145658465Y-72354409D01*
X145562809Y-72584775D01*
X145562591Y-72834211D01*
X145657845Y-73064743D01*
X145834069Y-73241275D01*
X146064435Y-73336931D01*
X146313871Y-73337149D01*
X146544403Y-73241895D01*
X146626942Y-73159500D01*
X148502867Y-73159500D01*
X148534500Y-73165906D01*
X149496594Y-73165906D01*
X149496594Y-73519094D01*
X148534500Y-73519094D01*
X148413321Y-73541895D01*
X148302026Y-73613512D01*
X148227362Y-73722786D01*
X148201094Y-73852500D01*
X148201094Y-74102500D01*
X148223895Y-74223679D01*
X148270019Y-74295356D01*
X148227362Y-74357786D01*
X148201094Y-74487500D01*
X148201094Y-74737500D01*
X148223895Y-74858679D01*
X148295512Y-74969974D01*
X148404786Y-75044638D01*
X148534500Y-75070906D01*
X149517462Y-75070906D01*
X149519395Y-75081179D01*
X149591012Y-75192474D01*
X149700286Y-75267138D01*
X149719094Y-75270947D01*
X149719094Y-76255500D01*
X149741895Y-76376679D01*
X149813512Y-76487974D01*
X149922786Y-76562638D01*
X150052500Y-76588906D01*
X150302500Y-76588906D01*
X150423679Y-76566105D01*
X150495356Y-76519981D01*
X150557786Y-76562638D01*
X150687500Y-76588906D01*
X150937500Y-76588906D01*
X151058679Y-76566105D01*
X151130356Y-76519981D01*
X151192786Y-76562638D01*
X151322500Y-76588906D01*
X151550828Y-76588906D01*
X151470788Y-76642387D01*
X150810388Y-77302788D01*
X150712406Y-77449427D01*
X150678000Y-77622400D01*
X150678000Y-77656024D01*
X150379430Y-77656024D01*
X150258251Y-77678825D01*
X150146956Y-77750442D01*
X150072292Y-77859716D01*
X150046024Y-77989430D01*
X150046024Y-79490570D01*
X150068825Y-79611749D01*
X150140442Y-79723044D01*
X150249716Y-79797708D01*
X150379430Y-79823976D01*
X151880570Y-79823976D01*
X152001749Y-79801175D01*
X152113044Y-79729558D01*
X152187708Y-79620284D01*
X152213976Y-79490570D01*
X152213976Y-77989430D01*
X152191175Y-77868251D01*
X152119558Y-77756956D01*
X152010284Y-77682292D01*
X151880570Y-77656024D01*
X151735600Y-77656024D01*
X151977625Y-77414000D01*
X155143200Y-77414000D01*
X155316173Y-77379594D01*
X155462812Y-77281612D01*
X155710267Y-77034158D01*
X155710267Y-77099921D01*
X155038387Y-77771801D01*
X154926429Y-77771703D01*
X154695897Y-77866957D01*
X154519365Y-78043181D01*
X154423709Y-78273547D01*
X154423491Y-78522983D01*
X154518745Y-78753515D01*
X154694969Y-78930047D01*
X154925335Y-79025703D01*
X155174771Y-79025921D01*
X155405303Y-78930667D01*
X155581835Y-78754443D01*
X155677491Y-78524077D01*
X155677590Y-78411046D01*
X156345000Y-77743636D01*
X156345000Y-90810633D01*
X155982588Y-91173045D01*
X152434449Y-91173045D01*
X150879015Y-89617611D01*
X150949000Y-89265773D01*
X150949000Y-88534227D01*
X150866105Y-88117485D01*
X150630039Y-87764188D01*
X150276742Y-87528122D01*
X149860000Y-87445227D01*
X149609315Y-87495091D01*
X149679791Y-87325365D01*
X149680009Y-87075929D01*
X149602092Y-86887356D01*
X149646438Y-86822454D01*
X149672706Y-86692740D01*
X149672706Y-85392260D01*
X149649905Y-85271081D01*
X149578288Y-85159786D01*
X149469014Y-85085122D01*
X149339300Y-85058854D01*
X147840700Y-85058854D01*
X147719521Y-85081655D01*
X147608226Y-85153272D01*
X147533562Y-85262546D01*
X147507294Y-85392260D01*
X147507294Y-86692740D01*
X147530095Y-86813919D01*
X147601712Y-86925214D01*
X147710986Y-86999878D01*
X147840700Y-87026146D01*
X148246136Y-87026146D01*
X148259051Y-87045475D01*
X148425889Y-87212313D01*
X148425791Y-87324271D01*
X148521045Y-87554803D01*
X148697269Y-87731335D01*
X148927635Y-87826991D01*
X149047927Y-87827096D01*
X148853895Y-88117485D01*
X148771000Y-88534227D01*
X148771000Y-89265773D01*
X148853895Y-89682515D01*
X149089961Y-90035812D01*
X149443258Y-90271878D01*
X149860000Y-90354773D01*
X150258469Y-90275513D01*
X151927613Y-91944657D01*
X152074252Y-92042639D01*
X152247225Y-92077045D01*
X156169812Y-92077045D01*
X156342785Y-92042639D01*
X156489424Y-91944657D01*
X156946600Y-91487481D01*
X156946600Y-98323400D01*
X145516600Y-98323400D01*
X145516600Y-94849793D01*
X149556814Y-94849793D01*
X149834352Y-95521487D01*
X150347810Y-96035842D01*
X151019019Y-96314552D01*
X151745793Y-96315186D01*
X152417487Y-96037648D01*
X152931842Y-95524190D01*
X153210552Y-94852981D01*
X153211186Y-94126207D01*
X152933648Y-93454513D01*
X152420190Y-92940158D01*
X151748981Y-92661448D01*
X151022207Y-92660814D01*
X150350513Y-92938352D01*
X149836158Y-93451810D01*
X149557448Y-94123019D01*
X149556814Y-94849793D01*
X145516600Y-94849793D01*
X145516600Y-87800180D01*
X146224594Y-87800180D01*
X146224594Y-89999820D01*
X146247395Y-90120999D01*
X146319012Y-90232294D01*
X146428286Y-90306958D01*
X146558000Y-90333226D01*
X148082000Y-90333226D01*
X148203179Y-90310425D01*
X148314474Y-90238808D01*
X148389138Y-90129534D01*
X148415406Y-89999820D01*
X148415406Y-87800180D01*
X148392605Y-87679001D01*
X148320988Y-87567706D01*
X148211714Y-87493042D01*
X148082000Y-87466774D01*
X146558000Y-87466774D01*
X146436821Y-87489575D01*
X146325526Y-87561192D01*
X146250862Y-87670466D01*
X146224594Y-87800180D01*
X145516600Y-87800180D01*
X145516600Y-77989430D01*
X147506024Y-77989430D01*
X147506024Y-79490570D01*
X147528825Y-79611749D01*
X147600442Y-79723044D01*
X147709716Y-79797708D01*
X147839430Y-79823976D01*
X148138000Y-79823976D01*
X148138000Y-80196024D01*
X147839430Y-80196024D01*
X147718251Y-80218825D01*
X147606956Y-80290442D01*
X147532292Y-80399716D01*
X147506024Y-80529430D01*
X147506024Y-82030570D01*
X147528825Y-82151749D01*
X147600442Y-82263044D01*
X147709716Y-82337708D01*
X147839430Y-82363976D01*
X148139606Y-82363976D01*
X148172406Y-82528873D01*
X148270388Y-82675512D01*
X148417027Y-82773494D01*
X148590000Y-82807900D01*
X149003476Y-82807900D01*
X150047294Y-83851718D01*
X150047294Y-84787740D01*
X150070095Y-84908919D01*
X150141712Y-85020214D01*
X150250986Y-85094878D01*
X150380700Y-85121146D01*
X151879300Y-85121146D01*
X151989607Y-85100391D01*
X152587294Y-85698078D01*
X152587294Y-86692740D01*
X152610095Y-86813919D01*
X152681712Y-86925214D01*
X152790986Y-86999878D01*
X152920700Y-87026146D01*
X154014422Y-87026146D01*
X154485190Y-87496914D01*
X154485190Y-87553558D01*
X154169961Y-87764188D01*
X153933895Y-88117485D01*
X153851000Y-88534227D01*
X153851000Y-89265773D01*
X153933895Y-89682515D01*
X154169961Y-90035812D01*
X154523258Y-90271878D01*
X154940000Y-90354773D01*
X155356742Y-90271878D01*
X155710039Y-90035812D01*
X155946105Y-89682515D01*
X156029000Y-89265773D01*
X156029000Y-88534227D01*
X155946105Y-88117485D01*
X155710039Y-87764188D01*
X155389190Y-87549803D01*
X155389190Y-87309690D01*
X155354784Y-87136717D01*
X155256802Y-86990078D01*
X154752706Y-86485982D01*
X154752706Y-85392260D01*
X154729905Y-85271081D01*
X154658288Y-85159786D01*
X154549014Y-85085122D01*
X154419300Y-85058854D01*
X153226518Y-85058854D01*
X152212706Y-84045042D01*
X152212706Y-83487260D01*
X152189905Y-83366081D01*
X152118288Y-83254786D01*
X152009014Y-83180122D01*
X151879300Y-83153854D01*
X150627878Y-83153854D01*
X149642269Y-82168245D01*
X149647708Y-82160284D01*
X149673976Y-82030570D01*
X149673976Y-80529430D01*
X150046024Y-80529430D01*
X150046024Y-82030570D01*
X150068825Y-82151749D01*
X150140442Y-82263044D01*
X150249716Y-82337708D01*
X150379430Y-82363976D01*
X151880570Y-82363976D01*
X152001749Y-82341175D01*
X152113044Y-82269558D01*
X152187708Y-82160284D01*
X152213976Y-82030570D01*
X152213976Y-81876758D01*
X152272335Y-81900991D01*
X152521771Y-81901209D01*
X152752303Y-81805955D01*
X152928835Y-81629731D01*
X153024491Y-81399365D01*
X153024709Y-81149929D01*
X152929455Y-80919397D01*
X152753231Y-80742865D01*
X152522865Y-80647209D01*
X152273429Y-80646991D01*
X152213976Y-80671557D01*
X152213976Y-80529430D01*
X152191175Y-80408251D01*
X152119558Y-80296956D01*
X152010284Y-80222292D01*
X151880570Y-80196024D01*
X150379430Y-80196024D01*
X150258251Y-80218825D01*
X150146956Y-80290442D01*
X150072292Y-80399716D01*
X150046024Y-80529430D01*
X149673976Y-80529430D01*
X149651175Y-80408251D01*
X149579558Y-80296956D01*
X149470284Y-80222292D01*
X149340570Y-80196024D01*
X149042000Y-80196024D01*
X149042000Y-79823976D01*
X149340570Y-79823976D01*
X149461749Y-79801175D01*
X149573044Y-79729558D01*
X149647708Y-79620284D01*
X149673976Y-79490570D01*
X149673976Y-77989430D01*
X149651175Y-77868251D01*
X149579558Y-77756956D01*
X149470284Y-77682292D01*
X149340570Y-77656024D01*
X147839430Y-77656024D01*
X147718251Y-77678825D01*
X147606956Y-77750442D01*
X147532292Y-77859716D01*
X147506024Y-77989430D01*
X145516600Y-77989430D01*
X145516600Y-69265800D01*
X156946600Y-69265800D01*
X156946600Y-72376110D01*
X156946600Y-72376110D01*
G37*
X156946600Y-72376110D02*
X156856155Y-72157217D01*
X156679931Y-71980685D01*
X156449565Y-71885029D01*
X156200129Y-71884811D01*
X155969597Y-71980065D01*
X155793065Y-72156289D01*
X155751869Y-72255500D01*
X153820633Y-72255500D01*
X153789000Y-72249094D01*
X152789000Y-72249094D01*
X152744127Y-72257537D01*
X152740605Y-72238821D01*
X152668988Y-72127526D01*
X152559714Y-72052862D01*
X152540906Y-72049053D01*
X152540906Y-71128000D01*
X152518105Y-71006821D01*
X152446488Y-70895526D01*
X152337214Y-70820862D01*
X152207500Y-70794594D01*
X151957500Y-70794594D01*
X151836321Y-70817395D01*
X151764644Y-70863519D01*
X151702214Y-70820862D01*
X151572500Y-70794594D01*
X151322500Y-70794594D01*
X151201321Y-70817395D01*
X151129644Y-70863519D01*
X151067214Y-70820862D01*
X150937500Y-70794594D01*
X150687500Y-70794594D01*
X150566321Y-70817395D01*
X150494644Y-70863519D01*
X150432214Y-70820862D01*
X150302500Y-70794594D01*
X150052500Y-70794594D01*
X149931321Y-70817395D01*
X149820026Y-70889012D01*
X149745362Y-70998286D01*
X149719094Y-71128000D01*
X149719094Y-72047462D01*
X149708821Y-72049395D01*
X149597526Y-72121012D01*
X149522862Y-72230286D01*
X149519053Y-72249094D01*
X148534500Y-72249094D01*
X148500454Y-72255500D01*
X146621892Y-72255500D01*
X146545331Y-72178805D01*
X146314965Y-72083149D01*
X146065529Y-72082931D01*
X145834997Y-72178185D01*
X145658465Y-72354409D01*
X145562809Y-72584775D01*
X145562591Y-72834211D01*
X145657845Y-73064743D01*
X145834069Y-73241275D01*
X146064435Y-73336931D01*
X146313871Y-73337149D01*
X146544403Y-73241895D01*
X146626942Y-73159500D01*
X148502867Y-73159500D01*
X148534500Y-73165906D01*
X149496594Y-73165906D01*
X149496594Y-73519094D01*
X148534500Y-73519094D01*
X148413321Y-73541895D01*
X148302026Y-73613512D01*
X148227362Y-73722786D01*
X148201094Y-73852500D01*
X148201094Y-74102500D01*
X148223895Y-74223679D01*
X148270019Y-74295356D01*
X148227362Y-74357786D01*
X148201094Y-74487500D01*
X148201094Y-74737500D01*
X148223895Y-74858679D01*
X148295512Y-74969974D01*
X148404786Y-75044638D01*
X148534500Y-75070906D01*
X149517462Y-75070906D01*
X149519395Y-75081179D01*
X149591012Y-75192474D01*
X149700286Y-75267138D01*
X149719094Y-75270947D01*
X149719094Y-76255500D01*
X149741895Y-76376679D01*
X149813512Y-76487974D01*
X149922786Y-76562638D01*
X150052500Y-76588906D01*
X150302500Y-76588906D01*
X150423679Y-76566105D01*
X150495356Y-76519981D01*
X150557786Y-76562638D01*
X150687500Y-76588906D01*
X150937500Y-76588906D01*
X151058679Y-76566105D01*
X151130356Y-76519981D01*
X151192786Y-76562638D01*
X151322500Y-76588906D01*
X151550828Y-76588906D01*
X151470788Y-76642387D01*
X150810388Y-77302788D01*
X150712406Y-77449427D01*
X150678000Y-77622400D01*
X150678000Y-77656024D01*
X150379430Y-77656024D01*
X150258251Y-77678825D01*
X150146956Y-77750442D01*
X150072292Y-77859716D01*
X150046024Y-77989430D01*
X150046024Y-79490570D01*
X150068825Y-79611749D01*
X150140442Y-79723044D01*
X150249716Y-79797708D01*
X150379430Y-79823976D01*
X151880570Y-79823976D01*
X152001749Y-79801175D01*
X152113044Y-79729558D01*
X152187708Y-79620284D01*
X152213976Y-79490570D01*
X152213976Y-77989430D01*
X152191175Y-77868251D01*
X152119558Y-77756956D01*
X152010284Y-77682292D01*
X151880570Y-77656024D01*
X151735600Y-77656024D01*
X151977625Y-77414000D01*
X155143200Y-77414000D01*
X155316173Y-77379594D01*
X155462812Y-77281612D01*
X155710267Y-77034158D01*
X155710267Y-77099921D01*
X155038387Y-77771801D01*
X154926429Y-77771703D01*
X154695897Y-77866957D01*
X154519365Y-78043181D01*
X154423709Y-78273547D01*
X154423491Y-78522983D01*
X154518745Y-78753515D01*
X154694969Y-78930047D01*
X154925335Y-79025703D01*
X155174771Y-79025921D01*
X155405303Y-78930667D01*
X155581835Y-78754443D01*
X155677491Y-78524077D01*
X155677590Y-78411046D01*
X156345000Y-77743636D01*
X156345000Y-90810633D01*
X155982588Y-91173045D01*
X152434449Y-91173045D01*
X150879015Y-89617611D01*
X150949000Y-89265773D01*
X150949000Y-88534227D01*
X150866105Y-88117485D01*
X150630039Y-87764188D01*
X150276742Y-87528122D01*
X149860000Y-87445227D01*
X149609315Y-87495091D01*
X149679791Y-87325365D01*
X149680009Y-87075929D01*
X149602092Y-86887356D01*
X149646438Y-86822454D01*
X149672706Y-86692740D01*
X149672706Y-85392260D01*
X149649905Y-85271081D01*
X149578288Y-85159786D01*
X149469014Y-85085122D01*
X149339300Y-85058854D01*
X147840700Y-85058854D01*
X147719521Y-85081655D01*
X147608226Y-85153272D01*
X147533562Y-85262546D01*
X147507294Y-85392260D01*
X147507294Y-86692740D01*
X147530095Y-86813919D01*
X147601712Y-86925214D01*
X147710986Y-86999878D01*
X147840700Y-87026146D01*
X148246136Y-87026146D01*
X148259051Y-87045475D01*
X148425889Y-87212313D01*
X148425791Y-87324271D01*
X148521045Y-87554803D01*
X148697269Y-87731335D01*
X148927635Y-87826991D01*
X149047927Y-87827096D01*
X148853895Y-88117485D01*
X148771000Y-88534227D01*
X148771000Y-89265773D01*
X148853895Y-89682515D01*
X149089961Y-90035812D01*
X149443258Y-90271878D01*
X149860000Y-90354773D01*
X150258469Y-90275513D01*
X151927613Y-91944657D01*
X152074252Y-92042639D01*
X152247225Y-92077045D01*
X156169812Y-92077045D01*
X156342785Y-92042639D01*
X156489424Y-91944657D01*
X156946600Y-91487481D01*
X156946600Y-98323400D01*
X145516600Y-98323400D01*
X145516600Y-94849793D01*
X149556814Y-94849793D01*
X149834352Y-95521487D01*
X150347810Y-96035842D01*
X151019019Y-96314552D01*
X151745793Y-96315186D01*
X152417487Y-96037648D01*
X152931842Y-95524190D01*
X153210552Y-94852981D01*
X153211186Y-94126207D01*
X152933648Y-93454513D01*
X152420190Y-92940158D01*
X151748981Y-92661448D01*
X151022207Y-92660814D01*
X150350513Y-92938352D01*
X149836158Y-93451810D01*
X149557448Y-94123019D01*
X149556814Y-94849793D01*
X145516600Y-94849793D01*
X145516600Y-87800180D01*
X146224594Y-87800180D01*
X146224594Y-89999820D01*
X146247395Y-90120999D01*
X146319012Y-90232294D01*
X146428286Y-90306958D01*
X146558000Y-90333226D01*
X148082000Y-90333226D01*
X148203179Y-90310425D01*
X148314474Y-90238808D01*
X148389138Y-90129534D01*
X148415406Y-89999820D01*
X148415406Y-87800180D01*
X148392605Y-87679001D01*
X148320988Y-87567706D01*
X148211714Y-87493042D01*
X148082000Y-87466774D01*
X146558000Y-87466774D01*
X146436821Y-87489575D01*
X146325526Y-87561192D01*
X146250862Y-87670466D01*
X146224594Y-87800180D01*
X145516600Y-87800180D01*
X145516600Y-77989430D01*
X147506024Y-77989430D01*
X147506024Y-79490570D01*
X147528825Y-79611749D01*
X147600442Y-79723044D01*
X147709716Y-79797708D01*
X147839430Y-79823976D01*
X148138000Y-79823976D01*
X148138000Y-80196024D01*
X147839430Y-80196024D01*
X147718251Y-80218825D01*
X147606956Y-80290442D01*
X147532292Y-80399716D01*
X147506024Y-80529430D01*
X147506024Y-82030570D01*
X147528825Y-82151749D01*
X147600442Y-82263044D01*
X147709716Y-82337708D01*
X147839430Y-82363976D01*
X148139606Y-82363976D01*
X148172406Y-82528873D01*
X148270388Y-82675512D01*
X148417027Y-82773494D01*
X148590000Y-82807900D01*
X149003476Y-82807900D01*
X150047294Y-83851718D01*
X150047294Y-84787740D01*
X150070095Y-84908919D01*
X150141712Y-85020214D01*
X150250986Y-85094878D01*
X150380700Y-85121146D01*
X151879300Y-85121146D01*
X151989607Y-85100391D01*
X152587294Y-85698078D01*
X152587294Y-86692740D01*
X152610095Y-86813919D01*
X152681712Y-86925214D01*
X152790986Y-86999878D01*
X152920700Y-87026146D01*
X154014422Y-87026146D01*
X154485190Y-87496914D01*
X154485190Y-87553558D01*
X154169961Y-87764188D01*
X153933895Y-88117485D01*
X153851000Y-88534227D01*
X153851000Y-89265773D01*
X153933895Y-89682515D01*
X154169961Y-90035812D01*
X154523258Y-90271878D01*
X154940000Y-90354773D01*
X155356742Y-90271878D01*
X155710039Y-90035812D01*
X155946105Y-89682515D01*
X156029000Y-89265773D01*
X156029000Y-88534227D01*
X155946105Y-88117485D01*
X155710039Y-87764188D01*
X155389190Y-87549803D01*
X155389190Y-87309690D01*
X155354784Y-87136717D01*
X155256802Y-86990078D01*
X154752706Y-86485982D01*
X154752706Y-85392260D01*
X154729905Y-85271081D01*
X154658288Y-85159786D01*
X154549014Y-85085122D01*
X154419300Y-85058854D01*
X153226518Y-85058854D01*
X152212706Y-84045042D01*
X152212706Y-83487260D01*
X152189905Y-83366081D01*
X152118288Y-83254786D01*
X152009014Y-83180122D01*
X151879300Y-83153854D01*
X150627878Y-83153854D01*
X149642269Y-82168245D01*
X149647708Y-82160284D01*
X149673976Y-82030570D01*
X149673976Y-80529430D01*
X150046024Y-80529430D01*
X150046024Y-82030570D01*
X150068825Y-82151749D01*
X150140442Y-82263044D01*
X150249716Y-82337708D01*
X150379430Y-82363976D01*
X151880570Y-82363976D01*
X152001749Y-82341175D01*
X152113044Y-82269558D01*
X152187708Y-82160284D01*
X152213976Y-82030570D01*
X152213976Y-81876758D01*
X152272335Y-81900991D01*
X152521771Y-81901209D01*
X152752303Y-81805955D01*
X152928835Y-81629731D01*
X153024491Y-81399365D01*
X153024709Y-81149929D01*
X152929455Y-80919397D01*
X152753231Y-80742865D01*
X152522865Y-80647209D01*
X152273429Y-80646991D01*
X152213976Y-80671557D01*
X152213976Y-80529430D01*
X152191175Y-80408251D01*
X152119558Y-80296956D01*
X152010284Y-80222292D01*
X151880570Y-80196024D01*
X150379430Y-80196024D01*
X150258251Y-80218825D01*
X150146956Y-80290442D01*
X150072292Y-80399716D01*
X150046024Y-80529430D01*
X149673976Y-80529430D01*
X149651175Y-80408251D01*
X149579558Y-80296956D01*
X149470284Y-80222292D01*
X149340570Y-80196024D01*
X149042000Y-80196024D01*
X149042000Y-79823976D01*
X149340570Y-79823976D01*
X149461749Y-79801175D01*
X149573044Y-79729558D01*
X149647708Y-79620284D01*
X149673976Y-79490570D01*
X149673976Y-77989430D01*
X149651175Y-77868251D01*
X149579558Y-77756956D01*
X149470284Y-77682292D01*
X149340570Y-77656024D01*
X147839430Y-77656024D01*
X147718251Y-77678825D01*
X147606956Y-77750442D01*
X147532292Y-77859716D01*
X147506024Y-77989430D01*
X145516600Y-77989430D01*
X145516600Y-69265800D01*
X156946600Y-69265800D01*
X156946600Y-72376110D01*
M02*
