M48
INCH,TZ
T1C0.025
T2C0.039
T3C0.059
T4C0.031
%
G90
G05
T1
X55101Y-39034
X55550Y-36700
X56583Y-39511
X57038Y-40737
X57151Y-38631
X57416Y-40397
X57950Y-44900
X58630Y-37841
T2
X56000Y-42050
X56000Y-43750
X57000Y-42050
X57000Y-43750
X58000Y-43750
X59000Y-43750
X59300Y-36950
X60000Y-43750
X60300Y-36950
X61250Y-38500
X61250Y-39500
X61250Y-40500
X61250Y-41500
X61250Y-42500
X61250Y-43500
T3
X54500Y-36500
X54500Y-37500
X54500Y-38500
X54500Y-39500
X54500Y-40500
X54500Y-41500
X54500Y-42500
X54500Y-43500
X54500Y-44500
X54500Y-45500
X55500Y-45500
X56500Y-45500
X57500Y-45500
X58500Y-45500
X59500Y-45500
X60500Y-45500
X61500Y-45500
X62500Y-36500
X62500Y-37500
X62500Y-38500
X62500Y-39500
X62500Y-40500
X62500Y-41500
X62500Y-42500
X62500Y-43500
X62500Y-44500
X62500Y-45500
T4
X56503Y-36695
X57998Y-36696
T0
M30
