G04 #@! TF.FileFunction,Copper,L2,Bot,Signal*
%FSLAX46Y46*%
G04 Gerber Fmt 4.6, Leading zero omitted, Abs format (unit mm)*
G04 Created by KiCad (PCBNEW 0.201509030901+6151~29~ubuntu14.04.1-product) date lun 07 set 2015 18:00:12 CEST*
%MOMM*%
G01*
G04 APERTURE LIST*
%ADD10C,0.100000*%
%ADD11C,1.800000*%
%ADD12R,1.524000X2.199640*%
%ADD13O,1.524000X2.199640*%
%ADD14R,2.199640X1.524000*%
%ADD15O,2.199640X1.524000*%
%ADD16R,1.498600X1.498600*%
%ADD17R,1.600200X1.803400*%
%ADD18C,1.035000*%
%ADD19C,0.254000*%
G04 APERTURE END LIST*
D10*
D11*
X138430000Y-92710000D03*
X138430000Y-95250000D03*
X138430000Y-97790000D03*
X138430000Y-100330000D03*
X138430000Y-102870000D03*
X138430000Y-105410000D03*
X138430000Y-107950000D03*
X138430000Y-110490000D03*
X138430000Y-113030000D03*
X138430000Y-115570000D03*
X140970000Y-115570000D03*
X143510000Y-115570000D03*
X146050000Y-115570000D03*
X148590000Y-115570000D03*
X151130000Y-115570000D03*
X153670000Y-115570000D03*
X156210000Y-115570000D03*
X158750000Y-113030000D03*
X158750000Y-110490000D03*
X158750000Y-107950000D03*
X158750000Y-105410000D03*
X158750000Y-102870000D03*
X158750000Y-100330000D03*
X158750000Y-97790000D03*
X158750000Y-95250000D03*
X158750000Y-115570000D03*
X158750000Y-92710000D03*
D12*
X152400000Y-93980000D03*
D13*
X154940000Y-93980000D03*
D14*
X155575000Y-97790000D03*
D15*
X155575000Y-100330000D03*
X155575000Y-102870000D03*
X155575000Y-105410000D03*
X155575000Y-107950000D03*
X155575000Y-110490000D03*
D12*
X142240000Y-111760000D03*
D13*
X144780000Y-111760000D03*
X147320000Y-111760000D03*
X149860000Y-111760000D03*
X152400000Y-111760000D03*
D12*
X142240000Y-108585000D03*
D13*
X144780000Y-108585000D03*
D16*
X151922480Y-90805000D03*
X155417520Y-90805000D03*
D17*
X146812000Y-95250000D03*
X144018000Y-95250000D03*
D18*
X152984300Y-103651700D03*
X149231500Y-99568500D03*
X144304300Y-97046000D03*
X149170100Y-103703400D03*
X157026100Y-93108400D03*
X143505100Y-105220000D03*
D19*
X155575000Y-100330000D02*
X158750000Y-100330000D01*
X155575000Y-102870000D02*
X158750000Y-102870000D01*
X157104500Y-113924500D02*
X158750000Y-115570000D01*
X157104500Y-107511200D02*
X157104500Y-113924500D01*
X156146600Y-106553300D02*
X157104500Y-107511200D01*
X155575000Y-106553300D02*
X156146600Y-106553300D01*
X155575000Y-105410000D02*
X155575000Y-106553300D01*
X144780000Y-108585000D02*
X144780000Y-107103800D01*
X139886200Y-100330000D02*
X138430000Y-100330000D01*
X144780000Y-105223800D02*
X139886200Y-100330000D01*
X144780000Y-107103800D02*
X144780000Y-105223800D01*
X144018000Y-95250000D02*
X145199400Y-95250000D01*
X155575000Y-97790000D02*
X155575000Y-98933300D01*
X154966100Y-98933300D02*
X151719800Y-102179600D01*
X155575000Y-98933300D02*
X154966100Y-98933300D01*
X152984300Y-103444100D02*
X152984300Y-103651700D01*
X151719800Y-102179600D02*
X152984300Y-103444100D01*
X149170100Y-99629900D02*
X151719800Y-102179600D01*
X149170100Y-99629900D02*
X149231500Y-99568500D01*
X145199400Y-95953000D02*
X145298400Y-96051900D01*
X145199400Y-95250000D02*
X145199400Y-95953000D01*
X148876300Y-99629900D02*
X149170100Y-99629900D01*
X145298400Y-96051900D02*
X148876300Y-99629900D01*
X144304300Y-97046000D02*
X145298400Y-96051900D01*
X150791900Y-92451500D02*
X147993400Y-95250000D01*
X150791900Y-90805000D02*
X150791900Y-92451500D01*
X151922500Y-90805000D02*
X150791900Y-90805000D01*
X146812000Y-95250000D02*
X147993400Y-95250000D01*
X142240000Y-111760000D02*
X143383300Y-111760000D01*
X155575000Y-110490000D02*
X154093800Y-110490000D01*
X149170100Y-109242800D02*
X149170100Y-103703400D01*
X143383300Y-111188300D02*
X143383300Y-111760000D01*
X144309000Y-110262600D02*
X143383300Y-111188300D01*
X145414800Y-110262600D02*
X144309000Y-110262600D01*
X146434600Y-109242800D02*
X145414800Y-110262600D01*
X149170100Y-109242800D02*
X146434600Y-109242800D01*
X152846600Y-109242800D02*
X149170100Y-109242800D01*
X154093800Y-110490000D02*
X152846600Y-109242800D01*
X144005700Y-89674300D02*
X138430000Y-95250000D01*
X153156200Y-89674300D02*
X144005700Y-89674300D01*
X154286900Y-90805000D02*
X153156200Y-89674300D01*
X155417500Y-90805000D02*
X154852200Y-90805000D01*
X154852200Y-90805000D02*
X154286900Y-90805000D01*
X154852200Y-90934500D02*
X157026100Y-93108400D01*
X154852200Y-90805000D02*
X154852200Y-90934500D01*
X151130000Y-113030000D02*
X153670000Y-115570000D01*
X151130000Y-111046300D02*
X151130000Y-113030000D01*
X150326700Y-110243000D02*
X151130000Y-111046300D01*
X146868600Y-110243000D02*
X150326700Y-110243000D01*
X145923300Y-111188300D02*
X146868600Y-110243000D01*
X145923300Y-111760000D02*
X145923300Y-111188300D01*
X144780000Y-111760000D02*
X145923300Y-111760000D01*
X146372300Y-113279000D02*
X147320000Y-112331300D01*
X141358000Y-113279000D02*
X146372300Y-113279000D01*
X141096600Y-113017600D02*
X141358000Y-113279000D01*
X141096600Y-107273900D02*
X141096600Y-113017600D01*
X143150500Y-105220000D02*
X141096600Y-107273900D01*
X143505100Y-105220000D02*
X143150500Y-105220000D01*
X147320000Y-111760000D02*
X147320000Y-112331300D01*
X147891300Y-112331300D02*
X151130000Y-115570000D01*
X147320000Y-112331300D02*
X147891300Y-112331300D01*
M02*
