G04 #@! TF.FileFunction,Legend,Bot*
%FSLAX46Y46*%
G04 Gerber Fmt 4.6, Leading zero omitted, Abs format (unit mm)*
G04 Created by KiCad (PCBNEW 0.201509251832+6217~30~ubuntu14.04.1-product) date lun 05 ott 2015 22:04:02 CEST*
%MOMM*%
G01*
G04 APERTURE LIST*
%ADD10C,0.100000*%
%ADD11C,0.160000*%
%ADD12C,0.300000*%
%ADD13C,0.127000*%
%ADD14C,0.254000*%
%ADD15C,0.200000*%
%ADD16C,0.149860*%
G04 APERTURE END LIST*
D10*
D11*
X153042809Y-108389681D02*
X153376143Y-107913490D01*
X153614238Y-108389681D02*
X153614238Y-107389681D01*
X153233285Y-107389681D01*
X153138047Y-107437300D01*
X153090428Y-107484919D01*
X153042809Y-107580157D01*
X153042809Y-107723014D01*
X153090428Y-107818252D01*
X153138047Y-107865871D01*
X153233285Y-107913490D01*
X153614238Y-107913490D01*
X152614238Y-107865871D02*
X152280904Y-107865871D01*
X152138047Y-108389681D02*
X152614238Y-108389681D01*
X152614238Y-107389681D01*
X152138047Y-107389681D01*
X151233285Y-108389681D02*
X151709476Y-108389681D01*
X151709476Y-107389681D01*
X150471380Y-107723014D02*
X150471380Y-108389681D01*
X150709476Y-107342062D02*
X150947571Y-108056348D01*
X150328523Y-108056348D01*
X153017409Y-105836981D02*
X153350743Y-105360790D01*
X153588838Y-105836981D02*
X153588838Y-104836981D01*
X153207885Y-104836981D01*
X153112647Y-104884600D01*
X153065028Y-104932219D01*
X153017409Y-105027457D01*
X153017409Y-105170314D01*
X153065028Y-105265552D01*
X153112647Y-105313171D01*
X153207885Y-105360790D01*
X153588838Y-105360790D01*
X152588838Y-105313171D02*
X152255504Y-105313171D01*
X152112647Y-105836981D02*
X152588838Y-105836981D01*
X152588838Y-104836981D01*
X152112647Y-104836981D01*
X151207885Y-105836981D02*
X151684076Y-105836981D01*
X151684076Y-104836981D01*
X150969790Y-104836981D02*
X150350742Y-104836981D01*
X150684076Y-105217933D01*
X150541218Y-105217933D01*
X150445980Y-105265552D01*
X150398361Y-105313171D01*
X150350742Y-105408410D01*
X150350742Y-105646505D01*
X150398361Y-105741743D01*
X150445980Y-105789362D01*
X150541218Y-105836981D01*
X150826933Y-105836981D01*
X150922171Y-105789362D01*
X150969790Y-105741743D01*
X153106309Y-103322381D02*
X153439643Y-102846190D01*
X153677738Y-103322381D02*
X153677738Y-102322381D01*
X153296785Y-102322381D01*
X153201547Y-102370000D01*
X153153928Y-102417619D01*
X153106309Y-102512857D01*
X153106309Y-102655714D01*
X153153928Y-102750952D01*
X153201547Y-102798571D01*
X153296785Y-102846190D01*
X153677738Y-102846190D01*
X152677738Y-102798571D02*
X152344404Y-102798571D01*
X152201547Y-103322381D02*
X152677738Y-103322381D01*
X152677738Y-102322381D01*
X152201547Y-102322381D01*
X151296785Y-103322381D02*
X151772976Y-103322381D01*
X151772976Y-102322381D01*
X151011071Y-102417619D02*
X150963452Y-102370000D01*
X150868214Y-102322381D01*
X150630118Y-102322381D01*
X150534880Y-102370000D01*
X150487261Y-102417619D01*
X150439642Y-102512857D01*
X150439642Y-102608095D01*
X150487261Y-102750952D01*
X151058690Y-103322381D01*
X150439642Y-103322381D01*
X153131709Y-100706181D02*
X153465043Y-100229990D01*
X153703138Y-100706181D02*
X153703138Y-99706181D01*
X153322185Y-99706181D01*
X153226947Y-99753800D01*
X153179328Y-99801419D01*
X153131709Y-99896657D01*
X153131709Y-100039514D01*
X153179328Y-100134752D01*
X153226947Y-100182371D01*
X153322185Y-100229990D01*
X153703138Y-100229990D01*
X152703138Y-100182371D02*
X152369804Y-100182371D01*
X152226947Y-100706181D02*
X152703138Y-100706181D01*
X152703138Y-99706181D01*
X152226947Y-99706181D01*
X151322185Y-100706181D02*
X151798376Y-100706181D01*
X151798376Y-99706181D01*
X150465042Y-100706181D02*
X151036471Y-100706181D01*
X150750757Y-100706181D02*
X150750757Y-99706181D01*
X150845995Y-99849038D01*
X150941233Y-99944276D01*
X151036471Y-99991895D01*
X153352404Y-97264600D02*
X153447642Y-97216981D01*
X153590499Y-97216981D01*
X153733357Y-97264600D01*
X153828595Y-97359838D01*
X153876214Y-97455076D01*
X153923833Y-97645552D01*
X153923833Y-97788410D01*
X153876214Y-97978886D01*
X153828595Y-98074124D01*
X153733357Y-98169362D01*
X153590499Y-98216981D01*
X153495261Y-98216981D01*
X153352404Y-98169362D01*
X153304785Y-98121743D01*
X153304785Y-97788410D01*
X153495261Y-97788410D01*
X152876214Y-98216981D02*
X152876214Y-97216981D01*
X152304785Y-98216981D01*
X152304785Y-97216981D01*
X151828595Y-98216981D02*
X151828595Y-97216981D01*
X151590500Y-97216981D01*
X151447642Y-97264600D01*
X151352404Y-97359838D01*
X151304785Y-97455076D01*
X151257166Y-97645552D01*
X151257166Y-97788410D01*
X151304785Y-97978886D01*
X151352404Y-98074124D01*
X151447642Y-98169362D01*
X151590500Y-98216981D01*
X151828595Y-98216981D01*
X154028614Y-109761329D02*
X153266709Y-109761329D01*
X153647661Y-110142281D02*
X153647661Y-109380376D01*
X152314328Y-109142281D02*
X152790519Y-109142281D01*
X152838138Y-109618471D01*
X152790519Y-109570852D01*
X152695281Y-109523233D01*
X152457185Y-109523233D01*
X152361947Y-109570852D01*
X152314328Y-109618471D01*
X152266709Y-109713710D01*
X152266709Y-109951805D01*
X152314328Y-110047043D01*
X152361947Y-110094662D01*
X152457185Y-110142281D01*
X152695281Y-110142281D01*
X152790519Y-110094662D01*
X152838138Y-110047043D01*
X151980995Y-109142281D02*
X151647662Y-110142281D01*
X151314328Y-109142281D01*
X155146190Y-113244381D02*
X154527142Y-113244381D01*
X154860476Y-113625333D01*
X154717618Y-113625333D01*
X154622380Y-113672952D01*
X154574761Y-113720571D01*
X154527142Y-113815810D01*
X154527142Y-114053905D01*
X154574761Y-114149143D01*
X154622380Y-114196762D01*
X154717618Y-114244381D01*
X155003333Y-114244381D01*
X155098571Y-114196762D01*
X155146190Y-114149143D01*
X154098571Y-114149143D02*
X154050952Y-114196762D01*
X154098571Y-114244381D01*
X154146190Y-114196762D01*
X154098571Y-114149143D01*
X154098571Y-114244381D01*
X153717619Y-113244381D02*
X153098571Y-113244381D01*
X153431905Y-113625333D01*
X153289047Y-113625333D01*
X153193809Y-113672952D01*
X153146190Y-113720571D01*
X153098571Y-113815810D01*
X153098571Y-114053905D01*
X153146190Y-114149143D01*
X153193809Y-114196762D01*
X153289047Y-114244381D01*
X153574762Y-114244381D01*
X153670000Y-114196762D01*
X153717619Y-114149143D01*
X152812857Y-113244381D02*
X152479524Y-114244381D01*
X152146190Y-113244381D01*
X151129904Y-113292000D02*
X151225142Y-113244381D01*
X151367999Y-113244381D01*
X151510857Y-113292000D01*
X151606095Y-113387238D01*
X151653714Y-113482476D01*
X151701333Y-113672952D01*
X151701333Y-113815810D01*
X151653714Y-114006286D01*
X151606095Y-114101524D01*
X151510857Y-114196762D01*
X151367999Y-114244381D01*
X151272761Y-114244381D01*
X151129904Y-114196762D01*
X151082285Y-114149143D01*
X151082285Y-113815810D01*
X151272761Y-113815810D01*
X150653714Y-114244381D02*
X150653714Y-113244381D01*
X150082285Y-114244381D01*
X150082285Y-113244381D01*
X149606095Y-114244381D02*
X149606095Y-113244381D01*
X149368000Y-113244381D01*
X149225142Y-113292000D01*
X149129904Y-113387238D01*
X149082285Y-113482476D01*
X149034666Y-113672952D01*
X149034666Y-113815810D01*
X149082285Y-114006286D01*
X149129904Y-114101524D01*
X149225142Y-114196762D01*
X149368000Y-114244381D01*
X149606095Y-114244381D01*
X148521586Y-114209462D02*
X148378729Y-114257081D01*
X148140633Y-114257081D01*
X148045395Y-114209462D01*
X147997776Y-114161843D01*
X147950157Y-114066605D01*
X147950157Y-113971367D01*
X147997776Y-113876129D01*
X148045395Y-113828510D01*
X148140633Y-113780890D01*
X148331110Y-113733271D01*
X148426348Y-113685652D01*
X148473967Y-113638033D01*
X148521586Y-113542795D01*
X148521586Y-113447557D01*
X148473967Y-113352319D01*
X148426348Y-113304700D01*
X148331110Y-113257081D01*
X148093014Y-113257081D01*
X147950157Y-113304700D01*
X147521586Y-114257081D02*
X147521586Y-113257081D01*
X147283491Y-113257081D01*
X147140633Y-113304700D01*
X147045395Y-113399938D01*
X146997776Y-113495176D01*
X146950157Y-113685652D01*
X146950157Y-113828510D01*
X146997776Y-114018986D01*
X147045395Y-114114224D01*
X147140633Y-114209462D01*
X147283491Y-114257081D01*
X147521586Y-114257081D01*
X146569205Y-113971367D02*
X146093014Y-113971367D01*
X146664443Y-114257081D02*
X146331110Y-113257081D01*
X145997776Y-114257081D01*
X142560514Y-113901529D02*
X141798609Y-113901529D01*
X142179561Y-114282481D02*
X142179561Y-113520576D01*
X140846228Y-113282481D02*
X141322419Y-113282481D01*
X141370038Y-113758671D01*
X141322419Y-113711052D01*
X141227181Y-113663433D01*
X140989085Y-113663433D01*
X140893847Y-113711052D01*
X140846228Y-113758671D01*
X140798609Y-113853910D01*
X140798609Y-114092005D01*
X140846228Y-114187243D01*
X140893847Y-114234862D01*
X140989085Y-114282481D01*
X141227181Y-114282481D01*
X141322419Y-114234862D01*
X141370038Y-114187243D01*
X140512895Y-113282481D02*
X140179562Y-114282481D01*
X139846228Y-113282481D01*
X145449776Y-114272962D02*
X145306919Y-114320581D01*
X145068823Y-114320581D01*
X144973585Y-114272962D01*
X144925966Y-114225343D01*
X144878347Y-114130105D01*
X144878347Y-114034867D01*
X144925966Y-113939629D01*
X144973585Y-113892010D01*
X145068823Y-113844390D01*
X145259300Y-113796771D01*
X145354538Y-113749152D01*
X145402157Y-113701533D01*
X145449776Y-113606295D01*
X145449776Y-113511057D01*
X145402157Y-113415819D01*
X145354538Y-113368200D01*
X145259300Y-113320581D01*
X145021204Y-113320581D01*
X144878347Y-113368200D01*
X143878347Y-114225343D02*
X143925966Y-114272962D01*
X144068823Y-114320581D01*
X144164061Y-114320581D01*
X144306919Y-114272962D01*
X144402157Y-114177724D01*
X144449776Y-114082486D01*
X144497395Y-113892010D01*
X144497395Y-113749152D01*
X144449776Y-113558676D01*
X144402157Y-113463438D01*
X144306919Y-113368200D01*
X144164061Y-113320581D01*
X144068823Y-113320581D01*
X143925966Y-113368200D01*
X143878347Y-113415819D01*
X142973585Y-114320581D02*
X143449776Y-114320581D01*
X143449776Y-113320581D01*
D12*
X149288572Y-91547143D02*
X150431429Y-91547143D01*
X148887142Y-98468571D02*
X148887142Y-97468571D01*
X148887142Y-97754286D02*
X148815714Y-97611429D01*
X148744285Y-97540000D01*
X148601428Y-97468571D01*
X148458571Y-97468571D01*
X147958571Y-98468571D02*
X147958571Y-97468571D01*
X147958571Y-97611429D02*
X147887143Y-97540000D01*
X147744285Y-97468571D01*
X147530000Y-97468571D01*
X147387143Y-97540000D01*
X147315714Y-97682857D01*
X147315714Y-98468571D01*
X147315714Y-97682857D02*
X147244285Y-97540000D01*
X147101428Y-97468571D01*
X146887143Y-97468571D01*
X146744285Y-97540000D01*
X146672857Y-97682857D01*
X146672857Y-98468571D01*
X145315714Y-98468571D02*
X145315714Y-97682857D01*
X145387143Y-97540000D01*
X145530000Y-97468571D01*
X145815714Y-97468571D01*
X145958571Y-97540000D01*
X145315714Y-98397143D02*
X145458571Y-98468571D01*
X145815714Y-98468571D01*
X145958571Y-98397143D01*
X146030000Y-98254286D01*
X146030000Y-98111429D01*
X145958571Y-97968571D01*
X145815714Y-97897143D01*
X145458571Y-97897143D01*
X145315714Y-97825714D01*
X144601428Y-97468571D02*
X144601428Y-98968571D01*
X144601428Y-97540000D02*
X144458571Y-97468571D01*
X144172857Y-97468571D01*
X144030000Y-97540000D01*
X143958571Y-97611429D01*
X143887142Y-97754286D01*
X143887142Y-98182857D01*
X143958571Y-98325714D01*
X144030000Y-98397143D01*
X144172857Y-98468571D01*
X144458571Y-98468571D01*
X144601428Y-98397143D01*
X143244285Y-98325714D02*
X143172857Y-98397143D01*
X143244285Y-98468571D01*
X143315714Y-98397143D01*
X143244285Y-98325714D01*
X143244285Y-98468571D01*
X141887142Y-98397143D02*
X142029999Y-98468571D01*
X142315713Y-98468571D01*
X142458571Y-98397143D01*
X142529999Y-98325714D01*
X142601428Y-98182857D01*
X142601428Y-97754286D01*
X142529999Y-97611429D01*
X142458571Y-97540000D01*
X142315713Y-97468571D01*
X142029999Y-97468571D01*
X141887142Y-97540000D01*
X140601428Y-98397143D02*
X140744285Y-98468571D01*
X141029999Y-98468571D01*
X141172857Y-98397143D01*
X141244285Y-98325714D01*
X141315714Y-98182857D01*
X141315714Y-97754286D01*
X141244285Y-97611429D01*
X141172857Y-97540000D01*
X141029999Y-97468571D01*
X140744285Y-97468571D01*
X140601428Y-97540000D01*
D13*
X146558000Y-94437200D02*
X146558000Y-96062800D01*
X144272000Y-96062800D02*
X144272000Y-94437200D01*
X143814800Y-96062800D02*
X143814800Y-94437200D01*
X143814800Y-94437200D02*
X147015200Y-94437200D01*
X147015200Y-94437200D02*
X147015200Y-96062800D01*
X147015200Y-96062800D02*
X143814800Y-96062800D01*
D14*
X153670000Y-90604340D02*
X153670000Y-90904060D01*
X153769060Y-91104720D02*
X153769060Y-90505280D01*
X153969720Y-90205560D02*
X153969720Y-91404440D01*
X153969720Y-91404440D02*
X153370280Y-90805000D01*
X153370280Y-90805000D02*
X153969720Y-90205560D01*
X152869900Y-91704160D02*
X152869900Y-89905840D01*
X154470100Y-89905840D02*
X154470100Y-91704160D01*
X155270200Y-89905840D02*
X152069800Y-89905840D01*
X152069800Y-89905840D02*
X152069800Y-91704160D01*
X152069800Y-91704160D02*
X155270200Y-91704160D01*
X155270200Y-91704160D02*
X155270200Y-89905840D01*
D15*
X141771666Y-95702381D02*
X142105000Y-95226190D01*
X142343095Y-95702381D02*
X142343095Y-94702381D01*
X141962142Y-94702381D01*
X141866904Y-94750000D01*
X141819285Y-94797619D01*
X141771666Y-94892857D01*
X141771666Y-95035714D01*
X141819285Y-95130952D01*
X141866904Y-95178571D01*
X141962142Y-95226190D01*
X142343095Y-95226190D01*
X141390714Y-94797619D02*
X141343095Y-94750000D01*
X141247857Y-94702381D01*
X141009761Y-94702381D01*
X140914523Y-94750000D01*
X140866904Y-94797619D01*
X140819285Y-94892857D01*
X140819285Y-94988095D01*
X140866904Y-95130952D01*
X141438333Y-95702381D01*
X140819285Y-95702381D01*
D16*
X158070550Y-91166950D02*
X158070550Y-90366850D01*
X157880050Y-90366850D01*
X157765750Y-90404950D01*
X157689550Y-90481150D01*
X157651450Y-90557350D01*
X157613350Y-90709750D01*
X157613350Y-90824050D01*
X157651450Y-90976450D01*
X157689550Y-91052650D01*
X157765750Y-91128850D01*
X157880050Y-91166950D01*
X158070550Y-91166950D01*
X156851350Y-91166950D02*
X157308550Y-91166950D01*
X157079950Y-91166950D02*
X157079950Y-90366850D01*
X157156150Y-90481150D01*
X157232350Y-90557350D01*
X157308550Y-90595450D01*
M02*
