G04 #@! TF.FileFunction,Copper,L1,Top,Signal*
%FSLAX46Y46*%
G04 Gerber Fmt 4.6, Leading zero omitted, Abs format (unit mm)*
G04 Created by KiCad (PCBNEW 0.201509030901+6151~29~ubuntu14.04.1-product) date lun 07 set 2015 18:00:12 CEST*
%MOMM*%
G01*
G04 APERTURE LIST*
%ADD10C,0.100000*%
%ADD11C,1.800000*%
%ADD12R,1.550000X0.600000*%
%ADD13R,1.600200X1.803400*%
%ADD14R,1.803400X1.600200*%
%ADD15R,1.524000X2.199640*%
%ADD16O,1.524000X2.199640*%
%ADD17R,2.199640X1.524000*%
%ADD18O,2.199640X1.524000*%
%ADD19R,1.000760X0.599440*%
%ADD20R,0.599440X1.000760*%
%ADD21R,1.897380X1.897380*%
%ADD22R,0.398780X1.348740*%
%ADD23R,0.398780X1.346200*%
%ADD24C,1.035000*%
%ADD25C,0.254000*%
%ADD26C,0.508000*%
G04 APERTURE END LIST*
D10*
D11*
X138430000Y-92710000D03*
X138430000Y-95250000D03*
X138430000Y-97790000D03*
X138430000Y-100330000D03*
X138430000Y-102870000D03*
X138430000Y-105410000D03*
X138430000Y-107950000D03*
X138430000Y-110490000D03*
X138430000Y-113030000D03*
X138430000Y-115570000D03*
X140970000Y-115570000D03*
X143510000Y-115570000D03*
X146050000Y-115570000D03*
X148590000Y-115570000D03*
X151130000Y-115570000D03*
X153670000Y-115570000D03*
X156210000Y-115570000D03*
X158750000Y-113030000D03*
X158750000Y-110490000D03*
X158750000Y-107950000D03*
X158750000Y-105410000D03*
X158750000Y-102870000D03*
X158750000Y-100330000D03*
X158750000Y-97790000D03*
X158750000Y-95250000D03*
X158750000Y-115570000D03*
X158750000Y-92710000D03*
D12*
X147480000Y-100330000D03*
X147480000Y-99060000D03*
X147480000Y-97790000D03*
X147480000Y-96520000D03*
X142080000Y-96520000D03*
X142080000Y-97790000D03*
X142080000Y-99060000D03*
X142080000Y-100330000D03*
D13*
X155067000Y-90805000D03*
X152273000Y-90805000D03*
D14*
X148590000Y-108077000D03*
X148590000Y-105283000D03*
X152400000Y-108077000D03*
X152400000Y-105283000D03*
D15*
X152400000Y-93980000D03*
D16*
X154940000Y-93980000D03*
D17*
X155575000Y-97790000D03*
D18*
X155575000Y-100330000D03*
X155575000Y-102870000D03*
X155575000Y-105410000D03*
X155575000Y-107950000D03*
X155575000Y-110490000D03*
D15*
X142240000Y-111760000D03*
D16*
X144780000Y-111760000D03*
X147320000Y-111760000D03*
X149860000Y-111760000D03*
X152400000Y-111760000D03*
D15*
X142240000Y-108585000D03*
D16*
X144780000Y-108585000D03*
D19*
X152821640Y-98107500D03*
X152821640Y-96202500D03*
X152821640Y-97155000D03*
X150708360Y-96202500D03*
X150708360Y-98107500D03*
X150708360Y-97155000D03*
D20*
X152082500Y-100543360D03*
X150177500Y-100543360D03*
X151130000Y-100543360D03*
X150177500Y-102656640D03*
X152082500Y-102656640D03*
D21*
X146613880Y-90805000D03*
X144216120Y-90805000D03*
X141465300Y-90805000D03*
X149364700Y-90805000D03*
D22*
X146715480Y-93479620D03*
D23*
X146062700Y-93479620D03*
X145415000Y-93479620D03*
X144767300Y-93479620D03*
X144114520Y-93479620D03*
D24*
X152984300Y-103651700D03*
X149231500Y-99568500D03*
X144304300Y-97046000D03*
X149170100Y-103703400D03*
X157026100Y-93108400D03*
X143505100Y-105220000D03*
D25*
X157058700Y-114721300D02*
X156210000Y-115570000D01*
X157058700Y-110005400D02*
X157058700Y-114721300D01*
X156146600Y-109093300D02*
X157058700Y-110005400D01*
X155575000Y-109093300D02*
X156146600Y-109093300D01*
X155575000Y-107950000D02*
X155575000Y-109093300D01*
X149254500Y-106895600D02*
X148590000Y-106895600D01*
X150177500Y-105972600D02*
X149254500Y-106895600D01*
X150177500Y-102656600D02*
X150177500Y-105972600D01*
X148590000Y-108077000D02*
X148590000Y-106895600D01*
X149860000Y-111760000D02*
X149860000Y-110278800D01*
X144114500Y-93479600D02*
X144114500Y-94534000D01*
X144114500Y-95641800D02*
X143236300Y-96520000D01*
X144114500Y-94534000D02*
X144114500Y-95641800D01*
X142080000Y-97790000D02*
X141791000Y-97790000D01*
X140923700Y-98585000D02*
X140923700Y-99060000D01*
X141718700Y-97790000D02*
X140923700Y-98585000D01*
X141791000Y-97790000D02*
X141718700Y-97790000D01*
X142080000Y-99060000D02*
X140923700Y-99060000D01*
X140923700Y-108412000D02*
X140923700Y-99060000D01*
X141096700Y-108585000D02*
X140923700Y-108412000D01*
X142240000Y-108585000D02*
X141096700Y-108585000D01*
X142080000Y-96520000D02*
X142658200Y-96520000D01*
X142658200Y-96520000D02*
X143236300Y-96520000D01*
X142080000Y-97790000D02*
X143236300Y-97790000D01*
X155575000Y-97790000D02*
X154093900Y-97790000D01*
X152821600Y-97155000D02*
X153576200Y-97155000D01*
X148497300Y-110278800D02*
X149860000Y-110278800D01*
X147306900Y-109088400D02*
X148497300Y-110278800D01*
X147306900Y-106566100D02*
X147306900Y-109088400D01*
X148590000Y-105283000D02*
X147306900Y-106566100D01*
X152400000Y-105283000D02*
X152400000Y-104101600D01*
X152534400Y-104101600D02*
X152400000Y-104101600D01*
X152984300Y-103651700D02*
X152534400Y-104101600D01*
X147480000Y-96520000D02*
X148636300Y-96520000D01*
X148636300Y-98973300D02*
X149231500Y-99568500D01*
X148636300Y-96520000D02*
X148636300Y-98973300D01*
X151130000Y-100543400D02*
X151130000Y-99661700D01*
X148249600Y-104942600D02*
X148590000Y-105283000D01*
X148249600Y-103322100D02*
X148249600Y-104942600D01*
X148661700Y-102910000D02*
X148249600Y-103322100D01*
X148661700Y-100324700D02*
X148661700Y-102910000D01*
X149324700Y-99661700D02*
X148661700Y-100324700D01*
X149231500Y-99568500D02*
X149324700Y-99661700D01*
X149324700Y-99661700D02*
X151130000Y-99661700D01*
X153576200Y-97155000D02*
X153703300Y-97155000D01*
X153703300Y-97399400D02*
X154093900Y-97790000D01*
X153703300Y-97155000D02*
X153703300Y-97399400D01*
X153703300Y-96697900D02*
X154940000Y-95461200D01*
X153703300Y-97155000D02*
X153703300Y-96697900D01*
X143288400Y-97046000D02*
X143236300Y-97098100D01*
X144304300Y-97046000D02*
X143288400Y-97046000D01*
X142658200Y-96520000D02*
X143236300Y-97098100D01*
X143236300Y-97098100D02*
X143236300Y-97790000D01*
X152273000Y-90805000D02*
X153454400Y-90805000D01*
X154940000Y-94131500D02*
X154940000Y-95461200D01*
X154940000Y-94131500D02*
X154940000Y-93980000D01*
X154940000Y-93980000D02*
X154940000Y-92498800D01*
X158750000Y-92710000D02*
X157147600Y-91107600D01*
X155756400Y-92498800D02*
X157147600Y-91107600D01*
X154940000Y-92498800D02*
X155756400Y-92498800D01*
X153454400Y-90140500D02*
X153454400Y-90805000D01*
X154073000Y-89521900D02*
X153454400Y-90140500D01*
X156121000Y-89521900D02*
X154073000Y-89521900D01*
X157147600Y-90548500D02*
X156121000Y-89521900D01*
X157147600Y-91107600D02*
X157147600Y-90548500D01*
X142240000Y-111760000D02*
X141096700Y-111760000D01*
X146715500Y-93479600D02*
X146715500Y-94535300D01*
X140236300Y-94516300D02*
X140371500Y-94516300D01*
X138430000Y-92710000D02*
X140236300Y-94516300D01*
X140371500Y-111034800D02*
X141096700Y-111760000D01*
X140371500Y-94516300D02*
X140371500Y-111034800D01*
X152542800Y-100543400D02*
X152082500Y-100543400D01*
X154093700Y-102094300D02*
X152542800Y-100543400D01*
X154093700Y-109008700D02*
X154093700Y-102094300D01*
X155575000Y-110490000D02*
X154093700Y-109008700D01*
X150708400Y-98620700D02*
X150708400Y-98107500D01*
X151200800Y-99113100D02*
X150708400Y-98620700D01*
X151533900Y-99113100D02*
X151200800Y-99113100D01*
X152082500Y-99661700D02*
X151533900Y-99113100D01*
X152082500Y-100543400D02*
X152082500Y-99661700D01*
X149742400Y-100543400D02*
X150177500Y-100543400D01*
X149170100Y-101115700D02*
X149742400Y-100543400D01*
X149170100Y-103703400D02*
X149170100Y-101115700D01*
X142733500Y-92154300D02*
X140371500Y-94516300D01*
X147670600Y-92154300D02*
X142733500Y-92154300D01*
X148107700Y-92591400D02*
X147670600Y-92154300D01*
X148107700Y-93455300D02*
X148107700Y-92591400D01*
X147974300Y-93455300D02*
X148107700Y-93455300D01*
X146894300Y-94535300D02*
X147974300Y-93455300D01*
X146715500Y-94535300D02*
X146894300Y-94535300D01*
X150732000Y-93455300D02*
X151256700Y-93980000D01*
X148107700Y-93455300D02*
X150732000Y-93455300D01*
X152400000Y-93980000D02*
X151828400Y-93980000D01*
X151828400Y-93980000D02*
X151256700Y-93980000D01*
X155003400Y-90805000D02*
X155067000Y-90805000D01*
X151828400Y-93980000D02*
X155003400Y-90805000D01*
X142080000Y-100330000D02*
X143236300Y-100330000D01*
X151735500Y-106895600D02*
X152400000Y-106895600D01*
X151101200Y-106261300D02*
X151735500Y-106895600D01*
X151101200Y-104264200D02*
X151101200Y-106261300D01*
X151827100Y-103538300D02*
X151101200Y-104264200D01*
X152082500Y-103538300D02*
X151827100Y-103538300D01*
X152082500Y-102656600D02*
X152082500Y-103538300D01*
X152400000Y-108077000D02*
X152400000Y-106895600D01*
X138430000Y-95719000D02*
X138430000Y-95250000D01*
X139728000Y-97017000D02*
X138430000Y-95719000D01*
X139728000Y-111732400D02*
X139728000Y-97017000D01*
X141236800Y-113241200D02*
X139728000Y-111732400D01*
X143172000Y-113241200D02*
X141236800Y-113241200D01*
X143729600Y-112683600D02*
X143172000Y-113241200D01*
X151256700Y-112331600D02*
X151256700Y-111760000D01*
X150292600Y-113295700D02*
X151256700Y-112331600D01*
X144341600Y-113295700D02*
X150292600Y-113295700D01*
X143729600Y-112683600D02*
X144341600Y-113295700D01*
X152400000Y-111760000D02*
X151927600Y-111760000D01*
X151927600Y-111760000D02*
X151256700Y-111760000D01*
X151927600Y-109730800D02*
X152400000Y-109258400D01*
X151927600Y-111760000D02*
X151927600Y-109730800D01*
X152400000Y-108077000D02*
X152400000Y-109258400D01*
X153647500Y-98933400D02*
X152821600Y-98107500D01*
X156869300Y-98933400D02*
X153647500Y-98933400D01*
X157082600Y-98720100D02*
X156869300Y-98933400D01*
X157082600Y-93164900D02*
X157082600Y-98720100D01*
X157026100Y-93108400D02*
X157082600Y-93164900D01*
X143577000Y-112531100D02*
X143729600Y-112683600D01*
X143577000Y-107392000D02*
X143577000Y-112531100D01*
X143090700Y-106905700D02*
X143577000Y-107392000D01*
X143090700Y-106076600D02*
X143090700Y-106905700D01*
X142606300Y-105592200D02*
X143090700Y-106076600D01*
X142606300Y-104847800D02*
X142606300Y-105592200D01*
X143093700Y-104360400D02*
X142606300Y-104847800D01*
X143093700Y-101154000D02*
X143093700Y-104360400D01*
X143236300Y-101011400D02*
X143093700Y-101154000D01*
X143236300Y-100330000D02*
X143236300Y-101011400D01*
X144780000Y-111760000D02*
X144780000Y-110278800D01*
X147480000Y-99060000D02*
X146323700Y-99060000D01*
X150708400Y-97155000D02*
X149826700Y-97155000D01*
X146323700Y-96055900D02*
X146323700Y-99060000D01*
X146577200Y-95802400D02*
X146323700Y-96055900D01*
X148637700Y-95802400D02*
X146577200Y-95802400D01*
X149826700Y-96991400D02*
X148637700Y-95802400D01*
X149826700Y-97155000D02*
X149826700Y-96991400D01*
X145103500Y-110278800D02*
X144780000Y-110278800D01*
X145927800Y-109454500D02*
X145103500Y-110278800D01*
X145927800Y-99455900D02*
X145927800Y-109454500D01*
X146323700Y-99060000D02*
X145927800Y-99455900D01*
X146761000Y-101049000D02*
X147480000Y-100330000D01*
X146761000Y-109719800D02*
X146761000Y-101049000D01*
X147320000Y-110278800D02*
X146761000Y-109719800D01*
X147320000Y-111760000D02*
X147320000Y-110278800D01*
X145217800Y-103507300D02*
X143505100Y-105220000D01*
X145217800Y-96430300D02*
X145217800Y-103507300D01*
X146374900Y-95273200D02*
X145217800Y-96430300D01*
X148897400Y-95273200D02*
X146374900Y-95273200D01*
X149826700Y-96202500D02*
X148897400Y-95273200D01*
X150708400Y-96202500D02*
X149826700Y-96202500D01*
D26*
G36*
X139998658Y-89856310D02*
X139998658Y-91753690D01*
X140034080Y-91941943D01*
X140145338Y-92114843D01*
X140315098Y-92230835D01*
X140516610Y-92271642D01*
X141718133Y-92271642D01*
X140303900Y-93685874D01*
X139770732Y-93152706D01*
X139837755Y-92991297D01*
X139838244Y-92431160D01*
X139624340Y-91913474D01*
X139228609Y-91517052D01*
X138711297Y-91302245D01*
X138151160Y-91301756D01*
X137633474Y-91515660D01*
X137237052Y-91911391D01*
X137022245Y-92428703D01*
X137021756Y-92988840D01*
X137235660Y-93506526D01*
X137631391Y-93902948D01*
X137816769Y-93979924D01*
X137633474Y-94055660D01*
X137237052Y-94451391D01*
X137022245Y-94968703D01*
X137021756Y-95528840D01*
X137235660Y-96046526D01*
X137631391Y-96442948D01*
X137816769Y-96519924D01*
X137633474Y-96595660D01*
X137237052Y-96991391D01*
X137022245Y-97508703D01*
X137021756Y-98068840D01*
X137235660Y-98586526D01*
X137631391Y-98982948D01*
X137816769Y-99059924D01*
X137633474Y-99135660D01*
X137237052Y-99531391D01*
X137022245Y-100048703D01*
X137021756Y-100608840D01*
X137235660Y-101126526D01*
X137631391Y-101522948D01*
X137816769Y-101599924D01*
X137633474Y-101675660D01*
X137237052Y-102071391D01*
X137022245Y-102588703D01*
X137021756Y-103148840D01*
X137235660Y-103666526D01*
X137631391Y-104062948D01*
X137816769Y-104139924D01*
X137633474Y-104215660D01*
X137237052Y-104611391D01*
X137022245Y-105128703D01*
X137021756Y-105688840D01*
X137235660Y-106206526D01*
X137631391Y-106602948D01*
X137816769Y-106679924D01*
X137633474Y-106755660D01*
X137237052Y-107151391D01*
X137022245Y-107668703D01*
X137021756Y-108228840D01*
X137235660Y-108746526D01*
X137631391Y-109142948D01*
X137816769Y-109219924D01*
X137633474Y-109295660D01*
X137237052Y-109691391D01*
X137022245Y-110208703D01*
X137021756Y-110768840D01*
X137235660Y-111286526D01*
X137631391Y-111682948D01*
X137816769Y-111759924D01*
X137633474Y-111835660D01*
X137237052Y-112231391D01*
X137022245Y-112748703D01*
X137021756Y-113308840D01*
X137235660Y-113826526D01*
X137631391Y-114222948D01*
X137816769Y-114299924D01*
X137633474Y-114375660D01*
X137237052Y-114771391D01*
X137022245Y-115288703D01*
X137021756Y-115848840D01*
X137235660Y-116366526D01*
X137631391Y-116762948D01*
X138148703Y-116977755D01*
X138708840Y-116978244D01*
X139226526Y-116764340D01*
X139622948Y-116368609D01*
X139699924Y-116183231D01*
X139775660Y-116366526D01*
X140171391Y-116762948D01*
X140688703Y-116977755D01*
X141248840Y-116978244D01*
X141766526Y-116764340D01*
X142162948Y-116368609D01*
X142239924Y-116183231D01*
X142315660Y-116366526D01*
X142711391Y-116762948D01*
X143228703Y-116977755D01*
X143788840Y-116978244D01*
X144306526Y-116764340D01*
X144702948Y-116368609D01*
X144779924Y-116183231D01*
X144855660Y-116366526D01*
X145251391Y-116762948D01*
X145768703Y-116977755D01*
X146328840Y-116978244D01*
X146846526Y-116764340D01*
X147242948Y-116368609D01*
X147319924Y-116183231D01*
X147395660Y-116366526D01*
X147791391Y-116762948D01*
X148308703Y-116977755D01*
X148868840Y-116978244D01*
X149386526Y-116764340D01*
X149782948Y-116368609D01*
X149859924Y-116183231D01*
X149935660Y-116366526D01*
X150331391Y-116762948D01*
X150848703Y-116977755D01*
X151408840Y-116978244D01*
X151926526Y-116764340D01*
X152322948Y-116368609D01*
X152399924Y-116183231D01*
X152475660Y-116366526D01*
X152871391Y-116762948D01*
X153388703Y-116977755D01*
X153948840Y-116978244D01*
X154466526Y-116764340D01*
X154862948Y-116368609D01*
X154939924Y-116183231D01*
X155015660Y-116366526D01*
X155411391Y-116762948D01*
X155928703Y-116977755D01*
X156488840Y-116978244D01*
X157006526Y-116764340D01*
X157402948Y-116368609D01*
X157479924Y-116183231D01*
X157555660Y-116366526D01*
X157951391Y-116762948D01*
X158468703Y-116977755D01*
X159028840Y-116978244D01*
X159546526Y-116764340D01*
X159942948Y-116368609D01*
X160157755Y-115851297D01*
X160158244Y-115291160D01*
X159944340Y-114773474D01*
X159548609Y-114377052D01*
X159363231Y-114300076D01*
X159546526Y-114224340D01*
X159942948Y-113828609D01*
X160157755Y-113311297D01*
X160158244Y-112751160D01*
X159944340Y-112233474D01*
X159548609Y-111837052D01*
X159363231Y-111760076D01*
X159546526Y-111684340D01*
X159942948Y-111288609D01*
X160157755Y-110771297D01*
X160158244Y-110211160D01*
X159944340Y-109693474D01*
X159548609Y-109297052D01*
X159363231Y-109220076D01*
X159546526Y-109144340D01*
X159942948Y-108748609D01*
X160157755Y-108231297D01*
X160158244Y-107671160D01*
X159944340Y-107153474D01*
X159548609Y-106757052D01*
X159363231Y-106680076D01*
X159546526Y-106604340D01*
X159942948Y-106208609D01*
X160157755Y-105691297D01*
X160158244Y-105131160D01*
X159944340Y-104613474D01*
X159548609Y-104217052D01*
X159363231Y-104140076D01*
X159546526Y-104064340D01*
X159942948Y-103668609D01*
X160157755Y-103151297D01*
X160158244Y-102591160D01*
X159944340Y-102073474D01*
X159548609Y-101677052D01*
X159363231Y-101600076D01*
X159546526Y-101524340D01*
X159942948Y-101128609D01*
X160157755Y-100611297D01*
X160158244Y-100051160D01*
X159944340Y-99533474D01*
X159548609Y-99137052D01*
X159363231Y-99060076D01*
X159546526Y-98984340D01*
X159942948Y-98588609D01*
X160157755Y-98071297D01*
X160158244Y-97511160D01*
X159944340Y-96993474D01*
X159548609Y-96597052D01*
X159363231Y-96520076D01*
X159546526Y-96444340D01*
X159942948Y-96048609D01*
X160157755Y-95531297D01*
X160158244Y-94971160D01*
X159944340Y-94453474D01*
X159642650Y-94151258D01*
X159746232Y-94082047D01*
X159813722Y-93774429D01*
X158750000Y-92710707D01*
X158735858Y-92724850D01*
X158735151Y-92724143D01*
X158749293Y-92710000D01*
X157685571Y-91646278D01*
X157377953Y-91713768D01*
X157207840Y-92083058D01*
X156823010Y-92082722D01*
X156445960Y-92238516D01*
X156157230Y-92526742D01*
X156094472Y-92677880D01*
X156017984Y-92563489D01*
X155523130Y-92233073D01*
X155493272Y-92224652D01*
X155867100Y-92224652D01*
X156055353Y-92189230D01*
X156228253Y-92077972D01*
X156344245Y-91908212D01*
X156385052Y-91706700D01*
X156385052Y-91645571D01*
X157686278Y-91645571D01*
X158750000Y-92709293D01*
X159813722Y-91645571D01*
X159746232Y-91337953D01*
X159145339Y-91061153D01*
X158484259Y-91035375D01*
X157863636Y-91264542D01*
X157753768Y-91337953D01*
X157686278Y-91645571D01*
X156385052Y-91645571D01*
X156385052Y-89903300D01*
X156349630Y-89715047D01*
X156315495Y-89662000D01*
X160274000Y-89662000D01*
X160274000Y-92036341D01*
X160195458Y-91823636D01*
X160122047Y-91713768D01*
X159814429Y-91646278D01*
X158750707Y-92710000D01*
X159814429Y-93773722D01*
X160122047Y-93706232D01*
X160274000Y-93376364D01*
X160274000Y-117094000D01*
X136906000Y-117094000D01*
X136906000Y-89662000D01*
X140038007Y-89662000D01*
X139998658Y-89856310D01*
X139998658Y-89856310D01*
G37*
X139998658Y-89856310D02*
X139998658Y-91753690D01*
X140034080Y-91941943D01*
X140145338Y-92114843D01*
X140315098Y-92230835D01*
X140516610Y-92271642D01*
X141718133Y-92271642D01*
X140303900Y-93685874D01*
X139770732Y-93152706D01*
X139837755Y-92991297D01*
X139838244Y-92431160D01*
X139624340Y-91913474D01*
X139228609Y-91517052D01*
X138711297Y-91302245D01*
X138151160Y-91301756D01*
X137633474Y-91515660D01*
X137237052Y-91911391D01*
X137022245Y-92428703D01*
X137021756Y-92988840D01*
X137235660Y-93506526D01*
X137631391Y-93902948D01*
X137816769Y-93979924D01*
X137633474Y-94055660D01*
X137237052Y-94451391D01*
X137022245Y-94968703D01*
X137021756Y-95528840D01*
X137235660Y-96046526D01*
X137631391Y-96442948D01*
X137816769Y-96519924D01*
X137633474Y-96595660D01*
X137237052Y-96991391D01*
X137022245Y-97508703D01*
X137021756Y-98068840D01*
X137235660Y-98586526D01*
X137631391Y-98982948D01*
X137816769Y-99059924D01*
X137633474Y-99135660D01*
X137237052Y-99531391D01*
X137022245Y-100048703D01*
X137021756Y-100608840D01*
X137235660Y-101126526D01*
X137631391Y-101522948D01*
X137816769Y-101599924D01*
X137633474Y-101675660D01*
X137237052Y-102071391D01*
X137022245Y-102588703D01*
X137021756Y-103148840D01*
X137235660Y-103666526D01*
X137631391Y-104062948D01*
X137816769Y-104139924D01*
X137633474Y-104215660D01*
X137237052Y-104611391D01*
X137022245Y-105128703D01*
X137021756Y-105688840D01*
X137235660Y-106206526D01*
X137631391Y-106602948D01*
X137816769Y-106679924D01*
X137633474Y-106755660D01*
X137237052Y-107151391D01*
X137022245Y-107668703D01*
X137021756Y-108228840D01*
X137235660Y-108746526D01*
X137631391Y-109142948D01*
X137816769Y-109219924D01*
X137633474Y-109295660D01*
X137237052Y-109691391D01*
X137022245Y-110208703D01*
X137021756Y-110768840D01*
X137235660Y-111286526D01*
X137631391Y-111682948D01*
X137816769Y-111759924D01*
X137633474Y-111835660D01*
X137237052Y-112231391D01*
X137022245Y-112748703D01*
X137021756Y-113308840D01*
X137235660Y-113826526D01*
X137631391Y-114222948D01*
X137816769Y-114299924D01*
X137633474Y-114375660D01*
X137237052Y-114771391D01*
X137022245Y-115288703D01*
X137021756Y-115848840D01*
X137235660Y-116366526D01*
X137631391Y-116762948D01*
X138148703Y-116977755D01*
X138708840Y-116978244D01*
X139226526Y-116764340D01*
X139622948Y-116368609D01*
X139699924Y-116183231D01*
X139775660Y-116366526D01*
X140171391Y-116762948D01*
X140688703Y-116977755D01*
X141248840Y-116978244D01*
X141766526Y-116764340D01*
X142162948Y-116368609D01*
X142239924Y-116183231D01*
X142315660Y-116366526D01*
X142711391Y-116762948D01*
X143228703Y-116977755D01*
X143788840Y-116978244D01*
X144306526Y-116764340D01*
X144702948Y-116368609D01*
X144779924Y-116183231D01*
X144855660Y-116366526D01*
X145251391Y-116762948D01*
X145768703Y-116977755D01*
X146328840Y-116978244D01*
X146846526Y-116764340D01*
X147242948Y-116368609D01*
X147319924Y-116183231D01*
X147395660Y-116366526D01*
X147791391Y-116762948D01*
X148308703Y-116977755D01*
X148868840Y-116978244D01*
X149386526Y-116764340D01*
X149782948Y-116368609D01*
X149859924Y-116183231D01*
X149935660Y-116366526D01*
X150331391Y-116762948D01*
X150848703Y-116977755D01*
X151408840Y-116978244D01*
X151926526Y-116764340D01*
X152322948Y-116368609D01*
X152399924Y-116183231D01*
X152475660Y-116366526D01*
X152871391Y-116762948D01*
X153388703Y-116977755D01*
X153948840Y-116978244D01*
X154466526Y-116764340D01*
X154862948Y-116368609D01*
X154939924Y-116183231D01*
X155015660Y-116366526D01*
X155411391Y-116762948D01*
X155928703Y-116977755D01*
X156488840Y-116978244D01*
X157006526Y-116764340D01*
X157402948Y-116368609D01*
X157479924Y-116183231D01*
X157555660Y-116366526D01*
X157951391Y-116762948D01*
X158468703Y-116977755D01*
X159028840Y-116978244D01*
X159546526Y-116764340D01*
X159942948Y-116368609D01*
X160157755Y-115851297D01*
X160158244Y-115291160D01*
X159944340Y-114773474D01*
X159548609Y-114377052D01*
X159363231Y-114300076D01*
X159546526Y-114224340D01*
X159942948Y-113828609D01*
X160157755Y-113311297D01*
X160158244Y-112751160D01*
X159944340Y-112233474D01*
X159548609Y-111837052D01*
X159363231Y-111760076D01*
X159546526Y-111684340D01*
X159942948Y-111288609D01*
X160157755Y-110771297D01*
X160158244Y-110211160D01*
X159944340Y-109693474D01*
X159548609Y-109297052D01*
X159363231Y-109220076D01*
X159546526Y-109144340D01*
X159942948Y-108748609D01*
X160157755Y-108231297D01*
X160158244Y-107671160D01*
X159944340Y-107153474D01*
X159548609Y-106757052D01*
X159363231Y-106680076D01*
X159546526Y-106604340D01*
X159942948Y-106208609D01*
X160157755Y-105691297D01*
X160158244Y-105131160D01*
X159944340Y-104613474D01*
X159548609Y-104217052D01*
X159363231Y-104140076D01*
X159546526Y-104064340D01*
X159942948Y-103668609D01*
X160157755Y-103151297D01*
X160158244Y-102591160D01*
X159944340Y-102073474D01*
X159548609Y-101677052D01*
X159363231Y-101600076D01*
X159546526Y-101524340D01*
X159942948Y-101128609D01*
X160157755Y-100611297D01*
X160158244Y-100051160D01*
X159944340Y-99533474D01*
X159548609Y-99137052D01*
X159363231Y-99060076D01*
X159546526Y-98984340D01*
X159942948Y-98588609D01*
X160157755Y-98071297D01*
X160158244Y-97511160D01*
X159944340Y-96993474D01*
X159548609Y-96597052D01*
X159363231Y-96520076D01*
X159546526Y-96444340D01*
X159942948Y-96048609D01*
X160157755Y-95531297D01*
X160158244Y-94971160D01*
X159944340Y-94453474D01*
X159642650Y-94151258D01*
X159746232Y-94082047D01*
X159813722Y-93774429D01*
X158750000Y-92710707D01*
X158735858Y-92724850D01*
X158735151Y-92724143D01*
X158749293Y-92710000D01*
X157685571Y-91646278D01*
X157377953Y-91713768D01*
X157207840Y-92083058D01*
X156823010Y-92082722D01*
X156445960Y-92238516D01*
X156157230Y-92526742D01*
X156094472Y-92677880D01*
X156017984Y-92563489D01*
X155523130Y-92233073D01*
X155493272Y-92224652D01*
X155867100Y-92224652D01*
X156055353Y-92189230D01*
X156228253Y-92077972D01*
X156344245Y-91908212D01*
X156385052Y-91706700D01*
X156385052Y-91645571D01*
X157686278Y-91645571D01*
X158750000Y-92709293D01*
X159813722Y-91645571D01*
X159746232Y-91337953D01*
X159145339Y-91061153D01*
X158484259Y-91035375D01*
X157863636Y-91264542D01*
X157753768Y-91337953D01*
X157686278Y-91645571D01*
X156385052Y-91645571D01*
X156385052Y-89903300D01*
X156349630Y-89715047D01*
X156315495Y-89662000D01*
X160274000Y-89662000D01*
X160274000Y-92036341D01*
X160195458Y-91823636D01*
X160122047Y-91713768D01*
X159814429Y-91646278D01*
X158750707Y-92710000D01*
X159814429Y-93773722D01*
X160122047Y-93706232D01*
X160274000Y-93376364D01*
X160274000Y-117094000D01*
X136906000Y-117094000D01*
X136906000Y-89662000D01*
X140038007Y-89662000D01*
X139998658Y-89856310D01*
G36*
X150652187Y-106710313D02*
X151020499Y-107078625D01*
X150980348Y-107276900D01*
X150980348Y-108877100D01*
X151015770Y-109065353D01*
X151127028Y-109238253D01*
X151296788Y-109354245D01*
X151414275Y-109378037D01*
X151340936Y-109487796D01*
X151292600Y-109730800D01*
X151292600Y-110806006D01*
X151269279Y-110840908D01*
X151268725Y-110838126D01*
X150937984Y-110343489D01*
X150443130Y-110013073D01*
X150099056Y-109916033D01*
X149860500Y-110087930D01*
X149860500Y-111759500D01*
X149880500Y-111759500D01*
X149880500Y-111760500D01*
X149860500Y-111760500D01*
X149860500Y-111780500D01*
X149859500Y-111780500D01*
X149859500Y-111760500D01*
X149839500Y-111760500D01*
X149839500Y-111759500D01*
X149859500Y-111759500D01*
X149859500Y-110087930D01*
X149620944Y-109916033D01*
X149276870Y-110013073D01*
X148782016Y-110343489D01*
X148451275Y-110838126D01*
X148450721Y-110840908D01*
X148218026Y-110492655D01*
X147955000Y-110316907D01*
X147955000Y-110278800D01*
X147935951Y-110183035D01*
X147906664Y-110035795D01*
X147769013Y-109829787D01*
X147396000Y-109456774D01*
X147396000Y-109292212D01*
X147486788Y-109354245D01*
X147688300Y-109395052D01*
X149491700Y-109395052D01*
X149679953Y-109359630D01*
X149852853Y-109248372D01*
X149968845Y-109078612D01*
X150009652Y-108877100D01*
X150009652Y-107276900D01*
X149974230Y-107088647D01*
X149968454Y-107079672D01*
X150526266Y-106521860D01*
X150652187Y-106710313D01*
X150652187Y-106710313D01*
G37*
X150652187Y-106710313D02*
X151020499Y-107078625D01*
X150980348Y-107276900D01*
X150980348Y-108877100D01*
X151015770Y-109065353D01*
X151127028Y-109238253D01*
X151296788Y-109354245D01*
X151414275Y-109378037D01*
X151340936Y-109487796D01*
X151292600Y-109730800D01*
X151292600Y-110806006D01*
X151269279Y-110840908D01*
X151268725Y-110838126D01*
X150937984Y-110343489D01*
X150443130Y-110013073D01*
X150099056Y-109916033D01*
X149860500Y-110087930D01*
X149860500Y-111759500D01*
X149880500Y-111759500D01*
X149880500Y-111760500D01*
X149860500Y-111760500D01*
X149860500Y-111780500D01*
X149859500Y-111780500D01*
X149859500Y-111760500D01*
X149839500Y-111760500D01*
X149839500Y-111759500D01*
X149859500Y-111759500D01*
X149859500Y-110087930D01*
X149620944Y-109916033D01*
X149276870Y-110013073D01*
X148782016Y-110343489D01*
X148451275Y-110838126D01*
X148450721Y-110840908D01*
X148218026Y-110492655D01*
X147955000Y-110316907D01*
X147955000Y-110278800D01*
X147935951Y-110183035D01*
X147906664Y-110035795D01*
X147769013Y-109829787D01*
X147396000Y-109456774D01*
X147396000Y-109292212D01*
X147486788Y-109354245D01*
X147688300Y-109395052D01*
X149491700Y-109395052D01*
X149679953Y-109359630D01*
X149852853Y-109248372D01*
X149968845Y-109078612D01*
X150009652Y-108877100D01*
X150009652Y-107276900D01*
X149974230Y-107088647D01*
X149968454Y-107079672D01*
X150526266Y-106521860D01*
X150652187Y-106710313D01*
G36*
X141103488Y-101107145D02*
X141305000Y-101147952D01*
X142459903Y-101147952D01*
X142458700Y-101154000D01*
X142458700Y-104097374D01*
X142157287Y-104398787D01*
X142019636Y-104604796D01*
X141971300Y-104847800D01*
X141971300Y-105592200D01*
X142019636Y-105835204D01*
X142157287Y-106041213D01*
X142455700Y-106339626D01*
X142455700Y-106722180D01*
X142431250Y-106722180D01*
X142240500Y-106912930D01*
X142240500Y-108584500D01*
X142260500Y-108584500D01*
X142260500Y-108585500D01*
X142240500Y-108585500D01*
X142240500Y-108605500D01*
X142239500Y-108605500D01*
X142239500Y-108585500D01*
X142219500Y-108585500D01*
X142219500Y-108584500D01*
X142239500Y-108584500D01*
X142239500Y-106912930D01*
X142048750Y-106722180D01*
X141326230Y-106722180D01*
X141045795Y-106838340D01*
X141006500Y-106877635D01*
X141006500Y-101040876D01*
X141103488Y-101107145D01*
X141103488Y-101107145D01*
G37*
X141103488Y-101107145D02*
X141305000Y-101147952D01*
X142459903Y-101147952D01*
X142458700Y-101154000D01*
X142458700Y-104097374D01*
X142157287Y-104398787D01*
X142019636Y-104604796D01*
X141971300Y-104847800D01*
X141971300Y-105592200D01*
X142019636Y-105835204D01*
X142157287Y-106041213D01*
X142455700Y-106339626D01*
X142455700Y-106722180D01*
X142431250Y-106722180D01*
X142240500Y-106912930D01*
X142240500Y-108584500D01*
X142260500Y-108584500D01*
X142260500Y-108585500D01*
X142240500Y-108585500D01*
X142240500Y-108605500D01*
X142239500Y-108605500D01*
X142239500Y-108585500D01*
X142219500Y-108585500D01*
X142219500Y-108584500D01*
X142239500Y-108584500D01*
X142239500Y-106912930D01*
X142048750Y-106722180D01*
X141326230Y-106722180D01*
X141045795Y-106838340D01*
X141006500Y-106877635D01*
X141006500Y-101040876D01*
X141103488Y-101107145D01*
G36*
X152400500Y-105282500D02*
X152420500Y-105282500D01*
X152420500Y-105283500D01*
X152400500Y-105283500D01*
X152400500Y-105303500D01*
X152399500Y-105303500D01*
X152399500Y-105283500D01*
X152379500Y-105283500D01*
X152379500Y-105282500D01*
X152399500Y-105282500D01*
X152399500Y-105262500D01*
X152400500Y-105262500D01*
X152400500Y-105282500D01*
X152400500Y-105282500D01*
G37*
X152400500Y-105282500D02*
X152420500Y-105282500D01*
X152420500Y-105283500D01*
X152400500Y-105283500D01*
X152400500Y-105303500D01*
X152399500Y-105303500D01*
X152399500Y-105283500D01*
X152379500Y-105283500D01*
X152379500Y-105282500D01*
X152399500Y-105282500D01*
X152399500Y-105262500D01*
X152400500Y-105262500D01*
X152400500Y-105282500D01*
G36*
X148590500Y-105282500D02*
X148610500Y-105282500D01*
X148610500Y-105283500D01*
X148590500Y-105283500D01*
X148590500Y-105303500D01*
X148589500Y-105303500D01*
X148589500Y-105283500D01*
X148569500Y-105283500D01*
X148569500Y-105282500D01*
X148589500Y-105282500D01*
X148589500Y-105262500D01*
X148590500Y-105262500D01*
X148590500Y-105282500D01*
X148590500Y-105282500D01*
G37*
X148590500Y-105282500D02*
X148610500Y-105282500D01*
X148610500Y-105283500D01*
X148590500Y-105283500D01*
X148590500Y-105303500D01*
X148589500Y-105303500D01*
X148589500Y-105283500D01*
X148569500Y-105283500D01*
X148569500Y-105282500D01*
X148589500Y-105282500D01*
X148589500Y-105262500D01*
X148590500Y-105262500D01*
X148590500Y-105282500D01*
G36*
X142748441Y-93464279D02*
X143003300Y-93719583D01*
X143152130Y-93781382D01*
X143152130Y-94304490D01*
X143268290Y-94584925D01*
X143482925Y-94799560D01*
X143763360Y-94915720D01*
X143923270Y-94915720D01*
X144114020Y-94724970D01*
X144114020Y-94385481D01*
X144115020Y-94387035D01*
X144115020Y-94724970D01*
X144305770Y-94915720D01*
X144465680Y-94915720D01*
X144746115Y-94799560D01*
X144875003Y-94670672D01*
X144966690Y-94670672D01*
X145095719Y-94646394D01*
X145215610Y-94670672D01*
X145614390Y-94670672D01*
X145743419Y-94646394D01*
X145863310Y-94670672D01*
X146107427Y-94670672D01*
X146113083Y-94699107D01*
X145925887Y-94824187D01*
X145925885Y-94824190D01*
X144768787Y-95981287D01*
X144631136Y-96187296D01*
X144582800Y-96430300D01*
X144582800Y-103244274D01*
X143728700Y-104098374D01*
X143728700Y-101395480D01*
X143822964Y-101254404D01*
X143871300Y-101011400D01*
X143871300Y-100330000D01*
X143822964Y-100086996D01*
X143685313Y-99880987D01*
X143512809Y-99765723D01*
X143618000Y-99511770D01*
X143618000Y-99251250D01*
X143427250Y-99060500D01*
X142080500Y-99060500D01*
X142080500Y-99080500D01*
X142079500Y-99080500D01*
X142079500Y-99060500D01*
X142059500Y-99060500D01*
X142059500Y-99059500D01*
X142079500Y-99059500D01*
X142079500Y-97790500D01*
X142080500Y-97790500D01*
X142080500Y-99059500D01*
X143427250Y-99059500D01*
X143618000Y-98868750D01*
X143618000Y-98608230D01*
X143542104Y-98425000D01*
X143618000Y-98241770D01*
X143618000Y-97981250D01*
X143427250Y-97790500D01*
X142080500Y-97790500D01*
X142079500Y-97790500D01*
X142059500Y-97790500D01*
X142059500Y-97789500D01*
X142079500Y-97789500D01*
X142079500Y-96520500D01*
X142080500Y-96520500D01*
X142080500Y-97789500D01*
X143427250Y-97789500D01*
X143618000Y-97598750D01*
X143618000Y-97338230D01*
X143542104Y-97155000D01*
X143618000Y-96971770D01*
X143618000Y-96711250D01*
X143427250Y-96520500D01*
X142080500Y-96520500D01*
X142079500Y-96520500D01*
X142059500Y-96520500D01*
X142059500Y-96519500D01*
X142079500Y-96519500D01*
X142079500Y-95647750D01*
X142080500Y-95647750D01*
X142080500Y-96519500D01*
X143427250Y-96519500D01*
X143618000Y-96328750D01*
X143618000Y-96068230D01*
X143501840Y-95787795D01*
X143287205Y-95573160D01*
X143006770Y-95457000D01*
X142271250Y-95457000D01*
X142080500Y-95647750D01*
X142079500Y-95647750D01*
X141888750Y-95457000D01*
X141153230Y-95457000D01*
X141006500Y-95517778D01*
X141006500Y-94779326D01*
X142623625Y-93162200D01*
X142748441Y-93464279D01*
X142748441Y-93464279D01*
G37*
X142748441Y-93464279D02*
X143003300Y-93719583D01*
X143152130Y-93781382D01*
X143152130Y-94304490D01*
X143268290Y-94584925D01*
X143482925Y-94799560D01*
X143763360Y-94915720D01*
X143923270Y-94915720D01*
X144114020Y-94724970D01*
X144114020Y-94385481D01*
X144115020Y-94387035D01*
X144115020Y-94724970D01*
X144305770Y-94915720D01*
X144465680Y-94915720D01*
X144746115Y-94799560D01*
X144875003Y-94670672D01*
X144966690Y-94670672D01*
X145095719Y-94646394D01*
X145215610Y-94670672D01*
X145614390Y-94670672D01*
X145743419Y-94646394D01*
X145863310Y-94670672D01*
X146107427Y-94670672D01*
X146113083Y-94699107D01*
X145925887Y-94824187D01*
X145925885Y-94824190D01*
X144768787Y-95981287D01*
X144631136Y-96187296D01*
X144582800Y-96430300D01*
X144582800Y-103244274D01*
X143728700Y-104098374D01*
X143728700Y-101395480D01*
X143822964Y-101254404D01*
X143871300Y-101011400D01*
X143871300Y-100330000D01*
X143822964Y-100086996D01*
X143685313Y-99880987D01*
X143512809Y-99765723D01*
X143618000Y-99511770D01*
X143618000Y-99251250D01*
X143427250Y-99060500D01*
X142080500Y-99060500D01*
X142080500Y-99080500D01*
X142079500Y-99080500D01*
X142079500Y-99060500D01*
X142059500Y-99060500D01*
X142059500Y-99059500D01*
X142079500Y-99059500D01*
X142079500Y-97790500D01*
X142080500Y-97790500D01*
X142080500Y-99059500D01*
X143427250Y-99059500D01*
X143618000Y-98868750D01*
X143618000Y-98608230D01*
X143542104Y-98425000D01*
X143618000Y-98241770D01*
X143618000Y-97981250D01*
X143427250Y-97790500D01*
X142080500Y-97790500D01*
X142079500Y-97790500D01*
X142059500Y-97790500D01*
X142059500Y-97789500D01*
X142079500Y-97789500D01*
X142079500Y-96520500D01*
X142080500Y-96520500D01*
X142080500Y-97789500D01*
X143427250Y-97789500D01*
X143618000Y-97598750D01*
X143618000Y-97338230D01*
X143542104Y-97155000D01*
X143618000Y-96971770D01*
X143618000Y-96711250D01*
X143427250Y-96520500D01*
X142080500Y-96520500D01*
X142079500Y-96520500D01*
X142059500Y-96520500D01*
X142059500Y-96519500D01*
X142079500Y-96519500D01*
X142079500Y-95647750D01*
X142080500Y-95647750D01*
X142080500Y-96519500D01*
X143427250Y-96519500D01*
X143618000Y-96328750D01*
X143618000Y-96068230D01*
X143501840Y-95787795D01*
X143287205Y-95573160D01*
X143006770Y-95457000D01*
X142271250Y-95457000D01*
X142080500Y-95647750D01*
X142079500Y-95647750D01*
X141888750Y-95457000D01*
X141153230Y-95457000D01*
X141006500Y-95517778D01*
X141006500Y-94779326D01*
X142623625Y-93162200D01*
X142748441Y-93464279D01*
G36*
X153458700Y-102357326D02*
X153458700Y-103722066D01*
X153453470Y-103719900D01*
X152681378Y-103719900D01*
X152715985Y-103545916D01*
X152743373Y-103528292D01*
X152859365Y-103358532D01*
X152900172Y-103157020D01*
X152900172Y-102156260D01*
X152864750Y-101968007D01*
X152753492Y-101795107D01*
X152654000Y-101727127D01*
X152654000Y-101552626D01*
X153458700Y-102357326D01*
X153458700Y-102357326D01*
G37*
X153458700Y-102357326D02*
X153458700Y-103722066D01*
X153453470Y-103719900D01*
X152681378Y-103719900D01*
X152715985Y-103545916D01*
X152743373Y-103528292D01*
X152859365Y-103358532D01*
X152900172Y-103157020D01*
X152900172Y-102156260D01*
X152864750Y-101968007D01*
X152753492Y-101795107D01*
X152654000Y-101727127D01*
X152654000Y-101552626D01*
X153458700Y-102357326D01*
G36*
X149216387Y-97279113D02*
X149240036Y-97398004D01*
X149377687Y-97604013D01*
X149583696Y-97741664D01*
X149698781Y-97764556D01*
X149690028Y-97807780D01*
X149690028Y-98407220D01*
X149725450Y-98595473D01*
X149836708Y-98768373D01*
X150006468Y-98884365D01*
X150155739Y-98914593D01*
X150259387Y-99069713D01*
X150530827Y-99341153D01*
X150398075Y-99396140D01*
X150269187Y-99525028D01*
X149877780Y-99525028D01*
X149689527Y-99560450D01*
X149516627Y-99671708D01*
X149400635Y-99841468D01*
X149359828Y-100042980D01*
X149359828Y-100049992D01*
X149293387Y-100094387D01*
X148772952Y-100614822D01*
X148772952Y-100030000D01*
X148737530Y-99841747D01*
X148642051Y-99693369D01*
X148732145Y-99561512D01*
X148772952Y-99360000D01*
X148772952Y-98760000D01*
X148737530Y-98571747D01*
X148642051Y-98423369D01*
X148732145Y-98291512D01*
X148772952Y-98090000D01*
X148772952Y-97490000D01*
X148755705Y-97398340D01*
X148901840Y-97252205D01*
X148986088Y-97048814D01*
X149216387Y-97279113D01*
X149216387Y-97279113D01*
G37*
X149216387Y-97279113D02*
X149240036Y-97398004D01*
X149377687Y-97604013D01*
X149583696Y-97741664D01*
X149698781Y-97764556D01*
X149690028Y-97807780D01*
X149690028Y-98407220D01*
X149725450Y-98595473D01*
X149836708Y-98768373D01*
X150006468Y-98884365D01*
X150155739Y-98914593D01*
X150259387Y-99069713D01*
X150530827Y-99341153D01*
X150398075Y-99396140D01*
X150269187Y-99525028D01*
X149877780Y-99525028D01*
X149689527Y-99560450D01*
X149516627Y-99671708D01*
X149400635Y-99841468D01*
X149359828Y-100042980D01*
X149359828Y-100049992D01*
X149293387Y-100094387D01*
X148772952Y-100614822D01*
X148772952Y-100030000D01*
X148737530Y-99841747D01*
X148642051Y-99693369D01*
X148732145Y-99561512D01*
X148772952Y-99360000D01*
X148772952Y-98760000D01*
X148737530Y-98571747D01*
X148642051Y-98423369D01*
X148732145Y-98291512D01*
X148772952Y-98090000D01*
X148772952Y-97490000D01*
X148755705Y-97398340D01*
X148901840Y-97252205D01*
X148986088Y-97048814D01*
X149216387Y-97279113D01*
G36*
X151130500Y-100542860D02*
X151150500Y-100542860D01*
X151150500Y-100543860D01*
X151130500Y-100543860D01*
X151130500Y-100563860D01*
X151129500Y-100563860D01*
X151129500Y-100543860D01*
X151109500Y-100543860D01*
X151109500Y-100542860D01*
X151129500Y-100542860D01*
X151129500Y-100522860D01*
X151130500Y-100522860D01*
X151130500Y-100542860D01*
X151130500Y-100542860D01*
G37*
X151130500Y-100542860D02*
X151150500Y-100542860D01*
X151150500Y-100543860D01*
X151130500Y-100543860D01*
X151130500Y-100563860D01*
X151129500Y-100563860D01*
X151129500Y-100543860D01*
X151109500Y-100543860D01*
X151109500Y-100542860D01*
X151129500Y-100542860D01*
X151129500Y-100522860D01*
X151130500Y-100522860D01*
X151130500Y-100542860D01*
G36*
X154940500Y-93979500D02*
X154960500Y-93979500D01*
X154960500Y-93980500D01*
X154940500Y-93980500D01*
X154940500Y-95652070D01*
X155179056Y-95823967D01*
X155523130Y-95726927D01*
X156017984Y-95396511D01*
X156348725Y-94901874D01*
X156447600Y-94405646D01*
X156447600Y-96265000D01*
X155766250Y-96265000D01*
X155575500Y-96455750D01*
X155575500Y-97789500D01*
X155595500Y-97789500D01*
X155595500Y-97790500D01*
X155575500Y-97790500D01*
X155575500Y-97810500D01*
X155574500Y-97810500D01*
X155574500Y-97790500D01*
X155554500Y-97790500D01*
X155554500Y-97789500D01*
X155574500Y-97789500D01*
X155574500Y-96455750D01*
X155383750Y-96265000D01*
X154323410Y-96265000D01*
X154042975Y-96381160D01*
X153978291Y-96445844D01*
X153968860Y-96423075D01*
X153839972Y-96294187D01*
X153839972Y-95902780D01*
X153804550Y-95714527D01*
X153693292Y-95541627D01*
X153535132Y-95433561D01*
X153639145Y-95281332D01*
X153673050Y-95113904D01*
X153862016Y-95396511D01*
X154356870Y-95726927D01*
X154700944Y-95823967D01*
X154939500Y-95652070D01*
X154939500Y-93980500D01*
X154919500Y-93980500D01*
X154919500Y-93979500D01*
X154939500Y-93979500D01*
X154939500Y-93959500D01*
X154940500Y-93959500D01*
X154940500Y-93979500D01*
X154940500Y-93979500D01*
G37*
X154940500Y-93979500D02*
X154960500Y-93979500D01*
X154960500Y-93980500D01*
X154940500Y-93980500D01*
X154940500Y-95652070D01*
X155179056Y-95823967D01*
X155523130Y-95726927D01*
X156017984Y-95396511D01*
X156348725Y-94901874D01*
X156447600Y-94405646D01*
X156447600Y-96265000D01*
X155766250Y-96265000D01*
X155575500Y-96455750D01*
X155575500Y-97789500D01*
X155595500Y-97789500D01*
X155595500Y-97790500D01*
X155575500Y-97790500D01*
X155575500Y-97810500D01*
X155574500Y-97810500D01*
X155574500Y-97790500D01*
X155554500Y-97790500D01*
X155554500Y-97789500D01*
X155574500Y-97789500D01*
X155574500Y-96455750D01*
X155383750Y-96265000D01*
X154323410Y-96265000D01*
X154042975Y-96381160D01*
X153978291Y-96445844D01*
X153968860Y-96423075D01*
X153839972Y-96294187D01*
X153839972Y-95902780D01*
X153804550Y-95714527D01*
X153693292Y-95541627D01*
X153535132Y-95433561D01*
X153639145Y-95281332D01*
X153673050Y-95113904D01*
X153862016Y-95396511D01*
X154356870Y-95726927D01*
X154700944Y-95823967D01*
X154939500Y-95652070D01*
X154939500Y-93980500D01*
X154919500Y-93980500D01*
X154919500Y-93979500D01*
X154939500Y-93979500D01*
X154939500Y-93959500D01*
X154940500Y-93959500D01*
X154940500Y-93979500D01*
G36*
X152822140Y-97154500D02*
X152842140Y-97154500D01*
X152842140Y-97155500D01*
X152822140Y-97155500D01*
X152822140Y-97175500D01*
X152821140Y-97175500D01*
X152821140Y-97155500D01*
X152801140Y-97155500D01*
X152801140Y-97154500D01*
X152821140Y-97154500D01*
X152821140Y-97134500D01*
X152822140Y-97134500D01*
X152822140Y-97154500D01*
X152822140Y-97154500D01*
G37*
X152822140Y-97154500D02*
X152842140Y-97154500D01*
X152842140Y-97155500D01*
X152822140Y-97155500D01*
X152822140Y-97175500D01*
X152821140Y-97175500D01*
X152821140Y-97155500D01*
X152801140Y-97155500D01*
X152801140Y-97154500D01*
X152821140Y-97154500D01*
X152821140Y-97134500D01*
X152822140Y-97134500D01*
X152822140Y-97154500D01*
G36*
X147480500Y-96519500D02*
X147500500Y-96519500D01*
X147500500Y-96520500D01*
X147480500Y-96520500D01*
X147480500Y-96540500D01*
X147479500Y-96540500D01*
X147479500Y-96520500D01*
X147459500Y-96520500D01*
X147459500Y-96519500D01*
X147479500Y-96519500D01*
X147479500Y-96499500D01*
X147480500Y-96499500D01*
X147480500Y-96519500D01*
X147480500Y-96519500D01*
G37*
X147480500Y-96519500D02*
X147500500Y-96519500D01*
X147500500Y-96520500D01*
X147480500Y-96520500D01*
X147480500Y-96540500D01*
X147479500Y-96540500D01*
X147479500Y-96520500D01*
X147459500Y-96520500D01*
X147459500Y-96519500D01*
X147479500Y-96519500D01*
X147479500Y-96499500D01*
X147480500Y-96499500D01*
X147480500Y-96519500D01*
G36*
X152273500Y-90804500D02*
X152293500Y-90804500D01*
X152293500Y-90805500D01*
X152273500Y-90805500D01*
X152273500Y-90825500D01*
X152272500Y-90825500D01*
X152272500Y-90805500D01*
X152252500Y-90805500D01*
X152252500Y-90804500D01*
X152272500Y-90804500D01*
X152272500Y-90784500D01*
X152273500Y-90784500D01*
X152273500Y-90804500D01*
X152273500Y-90804500D01*
G37*
X152273500Y-90804500D02*
X152293500Y-90804500D01*
X152293500Y-90805500D01*
X152273500Y-90805500D01*
X152273500Y-90825500D01*
X152272500Y-90825500D01*
X152272500Y-90805500D01*
X152252500Y-90805500D01*
X152252500Y-90804500D01*
X152272500Y-90804500D01*
X152272500Y-90784500D01*
X152273500Y-90784500D01*
X152273500Y-90804500D01*
M02*
