G04 #@! TF.FileFunction,Legend,Top*
%FSLAX46Y46*%
G04 Gerber Fmt 4.6, Leading zero omitted, Abs format (unit mm)*
G04 Created by KiCad (PCBNEW 0.201509030901+6151~29~ubuntu14.04.1-product) date lun 07 set 2015 18:00:12 CEST*
%MOMM*%
G01*
G04 APERTURE LIST*
%ADD10C,0.100000*%
%ADD11C,0.300000*%
%ADD12C,0.150000*%
%ADD13C,0.127000*%
%ADD14C,0.304800*%
%ADD15C,0.200660*%
%ADD16C,0.200000*%
G04 APERTURE END LIST*
D10*
D11*
X141521429Y-105607143D02*
X141735715Y-105678571D01*
X142092858Y-105678571D01*
X142235715Y-105607143D01*
X142307144Y-105535714D01*
X142378572Y-105392857D01*
X142378572Y-105250000D01*
X142307144Y-105107143D01*
X142235715Y-105035714D01*
X142092858Y-104964286D01*
X141807144Y-104892857D01*
X141664286Y-104821429D01*
X141592858Y-104750000D01*
X141521429Y-104607143D01*
X141521429Y-104464286D01*
X141592858Y-104321429D01*
X141664286Y-104250000D01*
X141807144Y-104178571D01*
X142164286Y-104178571D01*
X142378572Y-104250000D01*
X143021429Y-104892857D02*
X143521429Y-104892857D01*
X143735715Y-105678571D02*
X143021429Y-105678571D01*
X143021429Y-104178571D01*
X143735715Y-104178571D01*
X144164286Y-104178571D02*
X145021429Y-104178571D01*
X144592858Y-105678571D02*
X144592858Y-104178571D01*
D12*
X135890000Y-88900000D02*
X135890000Y-90170000D01*
X161290000Y-90170000D02*
X161290000Y-88900000D01*
X135890000Y-88900000D02*
X161290000Y-88900000D01*
X161290000Y-90170000D02*
X161290000Y-118110000D01*
X161290000Y-118110000D02*
X135890000Y-118110000D01*
X135890000Y-118110000D02*
X135890000Y-90170000D01*
X146855000Y-101000000D02*
X146855000Y-100855000D01*
X142705000Y-101000000D02*
X142705000Y-100855000D01*
X142705000Y-95850000D02*
X142705000Y-95995000D01*
X146855000Y-95850000D02*
X146855000Y-95995000D01*
X146855000Y-101000000D02*
X142705000Y-101000000D01*
X146855000Y-95850000D02*
X142705000Y-95850000D01*
X146855000Y-100855000D02*
X148255000Y-100855000D01*
D13*
X154813000Y-91617800D02*
X154813000Y-89992200D01*
X152527000Y-89992200D02*
X152527000Y-91617800D01*
X152069800Y-89992200D02*
X152069800Y-91617800D01*
X152069800Y-91617800D02*
X155270200Y-91617800D01*
X155270200Y-91617800D02*
X155270200Y-89992200D01*
X155270200Y-89992200D02*
X152069800Y-89992200D01*
X147777200Y-107823000D02*
X149402800Y-107823000D01*
X149402800Y-105537000D02*
X147777200Y-105537000D01*
X149402800Y-105079800D02*
X147777200Y-105079800D01*
X147777200Y-105079800D02*
X147777200Y-108280200D01*
X147777200Y-108280200D02*
X149402800Y-108280200D01*
X149402800Y-108280200D02*
X149402800Y-105079800D01*
X151587200Y-107823000D02*
X153212800Y-107823000D01*
X153212800Y-105537000D02*
X151587200Y-105537000D01*
X153212800Y-105079800D02*
X151587200Y-105079800D01*
X151587200Y-105079800D02*
X151587200Y-108280200D01*
X151587200Y-108280200D02*
X153212800Y-108280200D01*
X153212800Y-108280200D02*
X153212800Y-105079800D01*
D14*
X151130000Y-95250000D02*
X153670000Y-92710000D01*
X156210000Y-95250000D02*
X151130000Y-95250000D01*
X151130000Y-92710000D02*
X156210000Y-92710000D01*
X151130000Y-95250000D02*
X151130000Y-92710000D01*
X156210000Y-92710000D02*
X156210000Y-95250000D01*
X156845000Y-99060000D02*
X154305000Y-99060000D01*
X154305000Y-96520000D02*
X156845000Y-96520000D01*
X156845000Y-96520000D02*
X156845000Y-111760000D01*
X156845000Y-111760000D02*
X154305000Y-111760000D01*
X154305000Y-111760000D02*
X154305000Y-96520000D01*
X143510000Y-110490000D02*
X143510000Y-113030000D01*
X153670000Y-113030000D02*
X140970000Y-113030000D01*
X140970000Y-110490000D02*
X153670000Y-110490000D01*
X140970000Y-113030000D02*
X140970000Y-110490000D01*
X153670000Y-110490000D02*
X153670000Y-113030000D01*
X140970000Y-109855000D02*
X143510000Y-107315000D01*
X146050000Y-109855000D02*
X140970000Y-109855000D01*
X140970000Y-107315000D02*
X146050000Y-107315000D01*
X140970000Y-109855000D02*
X140970000Y-107315000D01*
X146050000Y-107315000D02*
X146050000Y-109855000D01*
D13*
X152463500Y-98005900D02*
X151815800Y-98653600D01*
X152463500Y-98158300D02*
X151968200Y-98653600D01*
X151066500Y-97155000D02*
X150406100Y-97155000D01*
X151066500Y-96202500D02*
X150406100Y-96202500D01*
X151066500Y-98107500D02*
X150406100Y-98107500D01*
X152463500Y-97155000D02*
X153123900Y-97155000D01*
X152463500Y-96202500D02*
X153123900Y-96202500D01*
X152463500Y-98107500D02*
X153123900Y-98107500D01*
X151066500Y-98653600D02*
X151066500Y-95656400D01*
X151066500Y-95656400D02*
X152463500Y-95656400D01*
X152463500Y-95656400D02*
X152463500Y-98653600D01*
X152463500Y-98653600D02*
X151066500Y-98653600D01*
X151980900Y-100901500D02*
X152628600Y-101549200D01*
X152133300Y-100901500D02*
X152628600Y-101396800D01*
X150177500Y-102298500D02*
X150177500Y-102958900D01*
X152082500Y-102298500D02*
X152082500Y-102958900D01*
X151130000Y-100901500D02*
X151130000Y-100241100D01*
X150177500Y-100901500D02*
X150177500Y-100241100D01*
X152082500Y-100901500D02*
X152082500Y-100241100D01*
X152628600Y-102298500D02*
X149631400Y-102298500D01*
X149631400Y-102298500D02*
X149631400Y-100901500D01*
X149631400Y-100901500D02*
X152628600Y-100901500D01*
X152628600Y-100901500D02*
X152628600Y-102298500D01*
D15*
X149616160Y-88806020D02*
X141213840Y-88806020D01*
X149616160Y-88704420D02*
X141213840Y-88704420D01*
X141213840Y-88704420D02*
X141213840Y-88905080D01*
X141213840Y-88905080D02*
X149616160Y-88905080D01*
X149616160Y-88905080D02*
X149616160Y-88704420D01*
X149313900Y-88704420D02*
X149313900Y-93705680D01*
X149313900Y-93705680D02*
X141516100Y-93705680D01*
X141516100Y-93705680D02*
X141516100Y-88704420D01*
D16*
X157313334Y-91162143D02*
X157265715Y-91209762D01*
X157122858Y-91257381D01*
X157027620Y-91257381D01*
X156884762Y-91209762D01*
X156789524Y-91114524D01*
X156741905Y-91019286D01*
X156694286Y-90828810D01*
X156694286Y-90685952D01*
X156741905Y-90495476D01*
X156789524Y-90400238D01*
X156884762Y-90305000D01*
X157027620Y-90257381D01*
X157122858Y-90257381D01*
X157265715Y-90305000D01*
X157313334Y-90352619D01*
X158265715Y-91257381D02*
X157694286Y-91257381D01*
X157980000Y-91257381D02*
X157980000Y-90257381D01*
X157884762Y-90400238D01*
X157789524Y-90495476D01*
X157694286Y-90543095D01*
X147042143Y-103671666D02*
X147089762Y-103719285D01*
X147137381Y-103862142D01*
X147137381Y-103957380D01*
X147089762Y-104100238D01*
X146994524Y-104195476D01*
X146899286Y-104243095D01*
X146708810Y-104290714D01*
X146565952Y-104290714D01*
X146375476Y-104243095D01*
X146280238Y-104195476D01*
X146185000Y-104100238D01*
X146137381Y-103957380D01*
X146137381Y-103862142D01*
X146185000Y-103719285D01*
X146232619Y-103671666D01*
X146232619Y-103290714D02*
X146185000Y-103243095D01*
X146137381Y-103147857D01*
X146137381Y-102909761D01*
X146185000Y-102814523D01*
X146232619Y-102766904D01*
X146327857Y-102719285D01*
X146423095Y-102719285D01*
X146565952Y-102766904D01*
X147137381Y-103338333D01*
X147137381Y-102719285D01*
X150852143Y-106846666D02*
X150899762Y-106894285D01*
X150947381Y-107037142D01*
X150947381Y-107132380D01*
X150899762Y-107275238D01*
X150804524Y-107370476D01*
X150709286Y-107418095D01*
X150518810Y-107465714D01*
X150375952Y-107465714D01*
X150185476Y-107418095D01*
X150090238Y-107370476D01*
X149995000Y-107275238D01*
X149947381Y-107132380D01*
X149947381Y-107037142D01*
X149995000Y-106894285D01*
X150042619Y-106846666D01*
X149947381Y-106513333D02*
X149947381Y-105894285D01*
X150328333Y-106227619D01*
X150328333Y-106084761D01*
X150375952Y-105989523D01*
X150423571Y-105941904D01*
X150518810Y-105894285D01*
X150756905Y-105894285D01*
X150852143Y-105941904D01*
X150899762Y-105989523D01*
X150947381Y-106084761D01*
X150947381Y-106370476D01*
X150899762Y-106465714D01*
X150852143Y-106513333D01*
M02*
