<?xml version="1.0" standalone="no"?>
 <!DOCTYPE svg PUBLIC "-//W3C//DTD SVG 1.1//EN" 
 "http://www.w3.org/Graphics/SVG/1.1/DTD/svg11.dtd"> 
<svg xmlns="http://www.w3.org/2000/svg" version="1.1" 
    width="29.7002cm" height="21.0007cm" viewBox="0 0 116930 82680 ">
<title>SVG Picture created as microduino-F_Cu.svg date 2015/03/15 10:20:11 </title>
  <desc>Picture generated by PCBNEW </desc>
<g style="fill:#000000; fill-opacity:1;stroke:#000000; stroke-opacity:1;
stroke-linecap:round; stroke-linejoin:round; "
 transform="translate(0 0) scale(1 1)">
</g>
<g style="fill:#000000; fill-opacity:0.0; 
stroke:#000000; stroke-width:39.3701; stroke-opacity:1; 
stroke-linecap:round; stroke-linejoin:round;">
</g>
<g style="fill:#000000; fill-opacity:0.0; 
stroke:#000000; stroke-width:59.0551; stroke-opacity:1; 
stroke-linecap:round; stroke-linejoin:round;">
<rect x="69685.9" y="65357.2" width="42519.7" height="12598.4" rx="0" />
</g>
<g style="fill:#000000; fill-opacity:0.0; 
stroke:#000000; stroke-width:39.3701; stroke-opacity:1; 
stroke-linecap:round; stroke-linejoin:round;">
</g>
<g style="fill:#000000; fill-opacity:0.0; 
stroke:#000000; stroke-width:59.0551; stroke-opacity:1; 
stroke-linecap:round; stroke-linejoin:round;">
<rect x="3937.01" y="3937.01" width="109056" height="74806" rx="0" />
</g>
<g style="fill:#000000; fill-opacity:0.0; 
stroke:#000000; stroke-width:39.3701; stroke-opacity:1; 
stroke-linecap:round; stroke-linejoin:round;">
</g>
<g style="fill:#000000; fill-opacity:0.0; 
stroke:#000000; stroke-width:59.0551; stroke-opacity:1; 
stroke-linecap:round; stroke-linejoin:round;">
<rect x="4724.41" y="4724.41" width="107481" height="73231.2" rx="0" />
</g>
<g style="fill:#000000; fill-opacity:0.0; 
stroke:#000000; stroke-width:39.3701; stroke-opacity:1; 
stroke-linecap:round; stroke-linejoin:round;">
</g>
<g style="fill:#000000; fill-opacity:0.0; 
stroke:#000000; stroke-width:59.0551; stroke-opacity:1; 
stroke-linecap:round; stroke-linejoin:round;">
<path d="M23622 4724
L23622 3937
" />
</g>
<g style="fill:#000000; fill-opacity:0.0; 
stroke:#000000; stroke-width:39.3701; stroke-opacity:1; 
stroke-linecap:round; stroke-linejoin:round;">
</g>
<g style="fill:#000000; fill-opacity:0.0; 
stroke:#000000; stroke-width:59.0551; stroke-opacity:1; 
stroke-linecap:round; stroke-linejoin:round;">
<path d="M43307 4724
L43307 3937
" />
</g>
<g style="fill:#000000; fill-opacity:0.0; 
stroke:#000000; stroke-width:39.3701; stroke-opacity:1; 
stroke-linecap:round; stroke-linejoin:round;">
</g>
<g style="fill:#000000; fill-opacity:0.0; 
stroke:#000000; stroke-width:59.0551; stroke-opacity:1; 
stroke-linecap:round; stroke-linejoin:round;">
<path d="M62992 4724
L62992 3937
" />
</g>
<g style="fill:#000000; fill-opacity:0.0; 
stroke:#000000; stroke-width:39.3701; stroke-opacity:1; 
stroke-linecap:round; stroke-linejoin:round;">
</g>
<g style="fill:#000000; fill-opacity:0.0; 
stroke:#000000; stroke-width:59.0551; stroke-opacity:1; 
stroke-linecap:round; stroke-linejoin:round;">
<path d="M82677 4724
L82677 3937
" />
</g>
<g style="fill:#000000; fill-opacity:0.0; 
stroke:#000000; stroke-width:39.3701; stroke-opacity:1; 
stroke-linecap:round; stroke-linejoin:round;">
</g>
<g style="fill:#000000; fill-opacity:0.0; 
stroke:#000000; stroke-width:59.0551; stroke-opacity:1; 
stroke-linecap:round; stroke-linejoin:round;">
<path d="M102362 4724
L102362 3937
" />
</g>
<g style="fill:#000000; fill-opacity:0.0; 
stroke:#000000; stroke-width:39.3701; stroke-opacity:1; 
stroke-linecap:round; stroke-linejoin:round;">
</g>
<g style="fill:#000000; fill-opacity:0.0; 
stroke:#000000; stroke-width:59.0551; stroke-opacity:1; 
stroke-linecap:round; stroke-linejoin:round;">
<path d="M14169 4562
L13877 4562
" />
<path d="M14023 4562
L14023 4050
L13974 4123
L13925 4172
L13877 4196
" />
</g>
<g style="fill:#000000; fill-opacity:0.0; 
stroke:#000000; stroke-width:39.3701; stroke-opacity:1; 
stroke-linecap:round; stroke-linejoin:round;">
</g>
<g style="fill:#000000; fill-opacity:0.0; 
stroke:#000000; stroke-width:59.0551; stroke-opacity:1; 
stroke-linecap:round; stroke-linejoin:round;">
<path d="M33562 4099
L33586 4074
L33635 4050
L33757 4050
L33805 4074
L33830 4099
L33854 4147
L33854 4196
L33830 4269
L33537 4562
L33854 4562
" />
</g>
<g style="fill:#000000; fill-opacity:0.0; 
stroke:#000000; stroke-width:39.3701; stroke-opacity:1; 
stroke-linecap:round; stroke-linejoin:round;">
</g>
<g style="fill:#000000; fill-opacity:0.0; 
stroke:#000000; stroke-width:59.0551; stroke-opacity:1; 
stroke-linecap:round; stroke-linejoin:round;">
<path d="M53222 4050
L53539 4050
L53368 4245
L53442 4245
L53490 4269
L53515 4294
L53539 4342
L53539 4464
L53515 4513
L53490 4537
L53442 4562
L53295 4562
L53247 4537
L53222 4513
" />
</g>
<g style="fill:#000000; fill-opacity:0.0; 
stroke:#000000; stroke-width:39.3701; stroke-opacity:1; 
stroke-linecap:round; stroke-linejoin:round;">
</g>
<g style="fill:#000000; fill-opacity:0.0; 
stroke:#000000; stroke-width:59.0551; stroke-opacity:1; 
stroke-linecap:round; stroke-linejoin:round;">
<path d="M73175 4221
L73175 4562
" />
<path d="M73053 4026
L72932 4391
L73248 4391
" />
</g>
<g style="fill:#000000; fill-opacity:0.0; 
stroke:#000000; stroke-width:39.3701; stroke-opacity:1; 
stroke-linecap:round; stroke-linejoin:round;">
</g>
<g style="fill:#000000; fill-opacity:0.0; 
stroke:#000000; stroke-width:59.0551; stroke-opacity:1; 
stroke-linecap:round; stroke-linejoin:round;">
<path d="M92885 4050
L92641 4050
L92617 4294
L92641 4269
L92690 4245
L92812 4245
L92860 4269
L92885 4294
L92909 4342
L92909 4464
L92885 4513
L92860 4537
L92812 4562
L92690 4562
L92641 4537
L92617 4513
" />
</g>
<g style="fill:#000000; fill-opacity:0.0; 
stroke:#000000; stroke-width:39.3701; stroke-opacity:1; 
stroke-linecap:round; stroke-linejoin:round;">
</g>
<g style="fill:#000000; fill-opacity:0.0; 
stroke:#000000; stroke-width:59.0551; stroke-opacity:1; 
stroke-linecap:round; stroke-linejoin:round;">
<path d="M112545 4050
L112448 4050
L112399 4074
L112375 4099
L112326 4172
L112302 4269
L112302 4464
L112326 4513
L112350 4537
L112399 4562
L112497 4562
L112545 4537
L112570 4513
L112594 4464
L112594 4342
L112570 4294
L112545 4269
L112497 4245
L112399 4245
L112350 4269
L112326 4294
L112302 4342
" />
</g>
<g style="fill:#000000; fill-opacity:0.0; 
stroke:#000000; stroke-width:39.3701; stroke-opacity:1; 
stroke-linecap:round; stroke-linejoin:round;">
</g>
<g style="fill:#000000; fill-opacity:0.0; 
stroke:#000000; stroke-width:59.0551; stroke-opacity:1; 
stroke-linecap:round; stroke-linejoin:round;">
<path d="M23622 77955
L23622 78742
" />
</g>
<g style="fill:#000000; fill-opacity:0.0; 
stroke:#000000; stroke-width:39.3701; stroke-opacity:1; 
stroke-linecap:round; stroke-linejoin:round;">
</g>
<g style="fill:#000000; fill-opacity:0.0; 
stroke:#000000; stroke-width:59.0551; stroke-opacity:1; 
stroke-linecap:round; stroke-linejoin:round;">
<path d="M43307 77955
L43307 78742
" />
</g>
<g style="fill:#000000; fill-opacity:0.0; 
stroke:#000000; stroke-width:39.3701; stroke-opacity:1; 
stroke-linecap:round; stroke-linejoin:round;">
</g>
<g style="fill:#000000; fill-opacity:0.0; 
stroke:#000000; stroke-width:59.0551; stroke-opacity:1; 
stroke-linecap:round; stroke-linejoin:round;">
<path d="M62992 77955
L62992 78742
" />
</g>
<g style="fill:#000000; fill-opacity:0.0; 
stroke:#000000; stroke-width:39.3701; stroke-opacity:1; 
stroke-linecap:round; stroke-linejoin:round;">
</g>
<g style="fill:#000000; fill-opacity:0.0; 
stroke:#000000; stroke-width:59.0551; stroke-opacity:1; 
stroke-linecap:round; stroke-linejoin:round;">
<path d="M82677 77955
L82677 78742
" />
</g>
<g style="fill:#000000; fill-opacity:0.0; 
stroke:#000000; stroke-width:39.3701; stroke-opacity:1; 
stroke-linecap:round; stroke-linejoin:round;">
</g>
<g style="fill:#000000; fill-opacity:0.0; 
stroke:#000000; stroke-width:59.0551; stroke-opacity:1; 
stroke-linecap:round; stroke-linejoin:round;">
<path d="M102362 77955
L102362 78742
" />
</g>
<g style="fill:#000000; fill-opacity:0.0; 
stroke:#000000; stroke-width:39.3701; stroke-opacity:1; 
stroke-linecap:round; stroke-linejoin:round;">
</g>
<g style="fill:#000000; fill-opacity:0.0; 
stroke:#000000; stroke-width:59.0551; stroke-opacity:1; 
stroke-linecap:round; stroke-linejoin:round;">
<path d="M14169 78580
L13877 78580
" />
<path d="M14023 78580
L14023 78069
L13974 78142
L13925 78190
L13877 78215
" />
</g>
<g style="fill:#000000; fill-opacity:0.0; 
stroke:#000000; stroke-width:39.3701; stroke-opacity:1; 
stroke-linecap:round; stroke-linejoin:round;">
</g>
<g style="fill:#000000; fill-opacity:0.0; 
stroke:#000000; stroke-width:59.0551; stroke-opacity:1; 
stroke-linecap:round; stroke-linejoin:round;">
<path d="M33562 78117
L33586 78093
L33635 78069
L33757 78069
L33805 78093
L33830 78117
L33854 78166
L33854 78215
L33830 78288
L33537 78580
L33854 78580
" />
</g>
<g style="fill:#000000; fill-opacity:0.0; 
stroke:#000000; stroke-width:39.3701; stroke-opacity:1; 
stroke-linecap:round; stroke-linejoin:round;">
</g>
<g style="fill:#000000; fill-opacity:0.0; 
stroke:#000000; stroke-width:59.0551; stroke-opacity:1; 
stroke-linecap:round; stroke-linejoin:round;">
<path d="M53222 78069
L53539 78069
L53368 78263
L53442 78263
L53490 78288
L53515 78312
L53539 78361
L53539 78483
L53515 78532
L53490 78556
L53442 78580
L53295 78580
L53247 78556
L53222 78532
" />
</g>
<g style="fill:#000000; fill-opacity:0.0; 
stroke:#000000; stroke-width:39.3701; stroke-opacity:1; 
stroke-linecap:round; stroke-linejoin:round;">
</g>
<g style="fill:#000000; fill-opacity:0.0; 
stroke:#000000; stroke-width:59.0551; stroke-opacity:1; 
stroke-linecap:round; stroke-linejoin:round;">
<path d="M73175 78239
L73175 78580
" />
<path d="M73053 78044
L72932 78410
L73248 78410
" />
</g>
<g style="fill:#000000; fill-opacity:0.0; 
stroke:#000000; stroke-width:39.3701; stroke-opacity:1; 
stroke-linecap:round; stroke-linejoin:round;">
</g>
<g style="fill:#000000; fill-opacity:0.0; 
stroke:#000000; stroke-width:59.0551; stroke-opacity:1; 
stroke-linecap:round; stroke-linejoin:round;">
<path d="M92885 78069
L92641 78069
L92617 78312
L92641 78288
L92690 78263
L92812 78263
L92860 78288
L92885 78312
L92909 78361
L92909 78483
L92885 78532
L92860 78556
L92812 78580
L92690 78580
L92641 78556
L92617 78532
" />
</g>
<g style="fill:#000000; fill-opacity:0.0; 
stroke:#000000; stroke-width:39.3701; stroke-opacity:1; 
stroke-linecap:round; stroke-linejoin:round;">
</g>
<g style="fill:#000000; fill-opacity:0.0; 
stroke:#000000; stroke-width:59.0551; stroke-opacity:1; 
stroke-linecap:round; stroke-linejoin:round;">
<path d="M112545 78069
L112448 78069
L112399 78093
L112375 78117
L112326 78190
L112302 78288
L112302 78483
L112326 78532
L112350 78556
L112399 78580
L112497 78580
L112545 78556
L112570 78532
L112594 78483
L112594 78361
L112570 78312
L112545 78288
L112497 78263
L112399 78263
L112350 78288
L112326 78312
L112302 78361
" />
</g>
<g style="fill:#000000; fill-opacity:0.0; 
stroke:#000000; stroke-width:39.3701; stroke-opacity:1; 
stroke-linecap:round; stroke-linejoin:round;">
</g>
<g style="fill:#000000; fill-opacity:0.0; 
stroke:#000000; stroke-width:59.0551; stroke-opacity:1; 
stroke-linecap:round; stroke-linejoin:round;">
<path d="M3937 23622
L4724 23622
" />
</g>
<g style="fill:#000000; fill-opacity:0.0; 
stroke:#000000; stroke-width:39.3701; stroke-opacity:1; 
stroke-linecap:round; stroke-linejoin:round;">
</g>
<g style="fill:#000000; fill-opacity:0.0; 
stroke:#000000; stroke-width:59.0551; stroke-opacity:1; 
stroke-linecap:round; stroke-linejoin:round;">
<path d="M3937 43307
L4724 43307
" />
</g>
<g style="fill:#000000; fill-opacity:0.0; 
stroke:#000000; stroke-width:39.3701; stroke-opacity:1; 
stroke-linecap:round; stroke-linejoin:round;">
</g>
<g style="fill:#000000; fill-opacity:0.0; 
stroke:#000000; stroke-width:59.0551; stroke-opacity:1; 
stroke-linecap:round; stroke-linejoin:round;">
<path d="M3937 62992
L4724 62992
" />
</g>
<g style="fill:#000000; fill-opacity:0.0; 
stroke:#000000; stroke-width:39.3701; stroke-opacity:1; 
stroke-linecap:round; stroke-linejoin:round;">
</g>
<g style="fill:#000000; fill-opacity:0.0; 
stroke:#000000; stroke-width:59.0551; stroke-opacity:1; 
stroke-linecap:round; stroke-linejoin:round;">
<path d="M4208 13864
L4452 13864
" />
<path d="M4160 14011
L4330 13499
L4501 14011
" />
</g>
<g style="fill:#000000; fill-opacity:0.0; 
stroke:#000000; stroke-width:39.3701; stroke-opacity:1; 
stroke-linecap:round; stroke-linejoin:round;">
</g>
<g style="fill:#000000; fill-opacity:0.0; 
stroke:#000000; stroke-width:59.0551; stroke-opacity:1; 
stroke-linecap:round; stroke-linejoin:round;">
<path d="M4367 33428
L4440 33452
L4464 33476
L4489 33525
L4489 33598
L4464 33647
L4440 33671
L4391 33696
L4196 33696
L4196 33184
L4367 33184
L4416 33208
L4440 33233
L4464 33281
L4464 33330
L4440 33379
L4416 33403
L4367 33428
L4196 33428
" />
</g>
<g style="fill:#000000; fill-opacity:0.0; 
stroke:#000000; stroke-width:39.3701; stroke-opacity:1; 
stroke-linecap:round; stroke-linejoin:round;">
</g>
<g style="fill:#000000; fill-opacity:0.0; 
stroke:#000000; stroke-width:59.0551; stroke-opacity:1; 
stroke-linecap:round; stroke-linejoin:round;">
<path d="M4489 53332
L4464 53356
L4391 53381
L4342 53381
L4269 53356
L4221 53308
L4196 53259
L4172 53161
L4172 53088
L4196 52991
L4221 52942
L4269 52893
L4342 52869
L4391 52869
L4464 52893
L4489 52918
" />
</g>
<g style="fill:#000000; fill-opacity:0.0; 
stroke:#000000; stroke-width:39.3701; stroke-opacity:1; 
stroke-linecap:round; stroke-linejoin:round;">
</g>
<g style="fill:#000000; fill-opacity:0.0; 
stroke:#000000; stroke-width:59.0551; stroke-opacity:1; 
stroke-linecap:round; stroke-linejoin:round;">
<path d="M4196 73066
L4196 72554
L4318 72554
L4391 72578
L4440 72627
L4464 72676
L4489 72773
L4489 72846
L4464 72944
L4440 72993
L4391 73041
L4318 73066
L4196 73066
" />
</g>
<g style="fill:#000000; fill-opacity:0.0; 
stroke:#000000; stroke-width:39.3701; stroke-opacity:1; 
stroke-linecap:round; stroke-linejoin:round;">
</g>
<g style="fill:#000000; fill-opacity:0.0; 
stroke:#000000; stroke-width:59.0551; stroke-opacity:1; 
stroke-linecap:round; stroke-linejoin:round;">
<path d="M112992 23622
L112205 23622
" />
</g>
<g style="fill:#000000; fill-opacity:0.0; 
stroke:#000000; stroke-width:39.3701; stroke-opacity:1; 
stroke-linecap:round; stroke-linejoin:round;">
</g>
<g style="fill:#000000; fill-opacity:0.0; 
stroke:#000000; stroke-width:59.0551; stroke-opacity:1; 
stroke-linecap:round; stroke-linejoin:round;">
<path d="M112992 43307
L112205 43307
" />
</g>
<g style="fill:#000000; fill-opacity:0.0; 
stroke:#000000; stroke-width:39.3701; stroke-opacity:1; 
stroke-linecap:round; stroke-linejoin:round;">
</g>
<g style="fill:#000000; fill-opacity:0.0; 
stroke:#000000; stroke-width:59.0551; stroke-opacity:1; 
stroke-linecap:round; stroke-linejoin:round;">
<path d="M112992 62992
L112205 62992
" />
</g>
<g style="fill:#000000; fill-opacity:0.0; 
stroke:#000000; stroke-width:39.3701; stroke-opacity:1; 
stroke-linecap:round; stroke-linejoin:round;">
</g>
<g style="fill:#000000; fill-opacity:0.0; 
stroke:#000000; stroke-width:59.0551; stroke-opacity:1; 
stroke-linecap:round; stroke-linejoin:round;">
<path d="M112477 13864
L112721 13864
" />
<path d="M112428 14011
L112599 13499
L112769 14011
" />
</g>
<g style="fill:#000000; fill-opacity:0.0; 
stroke:#000000; stroke-width:39.3701; stroke-opacity:1; 
stroke-linecap:round; stroke-linejoin:round;">
</g>
<g style="fill:#000000; fill-opacity:0.0; 
stroke:#000000; stroke-width:59.0551; stroke-opacity:1; 
stroke-linecap:round; stroke-linejoin:round;">
<path d="M112635 33428
L112708 33452
L112733 33476
L112757 33525
L112757 33598
L112733 33647
L112708 33671
L112660 33696
L112465 33696
L112465 33184
L112635 33184
L112684 33208
L112708 33233
L112733 33281
L112733 33330
L112708 33379
L112684 33403
L112635 33428
L112465 33428
" />
</g>
<g style="fill:#000000; fill-opacity:0.0; 
stroke:#000000; stroke-width:39.3701; stroke-opacity:1; 
stroke-linecap:round; stroke-linejoin:round;">
</g>
<g style="fill:#000000; fill-opacity:0.0; 
stroke:#000000; stroke-width:59.0551; stroke-opacity:1; 
stroke-linecap:round; stroke-linejoin:round;">
<path d="M112757 53332
L112733 53356
L112660 53381
L112611 53381
L112538 53356
L112489 53308
L112465 53259
L112440 53161
L112440 53088
L112465 52991
L112489 52942
L112538 52893
L112611 52869
L112660 52869
L112733 52893
L112757 52918
" />
</g>
<g style="fill:#000000; fill-opacity:0.0; 
stroke:#000000; stroke-width:39.3701; stroke-opacity:1; 
stroke-linecap:round; stroke-linejoin:round;">
</g>
<g style="fill:#000000; fill-opacity:0.0; 
stroke:#000000; stroke-width:59.0551; stroke-opacity:1; 
stroke-linecap:round; stroke-linejoin:round;">
<path d="M112465 73066
L112465 72554
L112587 72554
L112660 72578
L112708 72627
L112733 72676
L112757 72773
L112757 72846
L112733 72944
L112708 72993
L112660 73041
L112587 73066
L112465 73066
" />
</g>
<g style="fill:#000000; fill-opacity:0.0; 
stroke:#000000; stroke-width:39.3701; stroke-opacity:1; 
stroke-linecap:round; stroke-linejoin:round;">
</g>
<g style="fill:#000000; fill-opacity:0.0; 
stroke:#000000; stroke-width:59.0551; stroke-opacity:1; 
stroke-linecap:round; stroke-linejoin:round;">
<path d="M78881 76293
L78881 75703
L79022 75703
L79106 75731
L79162 75787
L79190 75843
L79219 75956
L79219 76040
L79190 76153
L79162 76209
L79106 76265
L79022 76293
L78881 76293
" />
<path d="M79725 76293
L79725 75984
L79697 75928
L79640 75899
L79528 75899
L79472 75928
" />
<path d="M79725 76265
L79669 76293
L79528 76293
L79472 76265
L79444 76209
L79444 76153
L79472 76096
L79528 76068
L79669 76068
L79725 76040
" />
<path d="M79922 75899
L80147 75899
" />
<path d="M80006 75703
L80006 76209
L80034 76265
L80090 76293
L80147 76293
" />
<path d="M80568 76265
L80512 76293
L80400 76293
L80343 76265
L80315 76209
L80315 75984
L80343 75928
L80400 75899
L80512 75899
L80568 75928
L80597 75984
L80597 76040
L80315 76096
" />
<path d="M80850 76237
L80878 76265
L80850 76293
L80822 76265
L80850 76237
L80850 76293
" />
<path d="M80850 75928
L80878 75956
L80850 75984
L80822 75956
L80850 75928
L80850 75984
" />
</g>
<g style="fill:#000000; fill-opacity:0.0; 
stroke:#000000; stroke-width:39.3701; stroke-opacity:1; 
stroke-linecap:round; stroke-linejoin:round;">
</g>
<g style="fill:#000000; fill-opacity:0.0; 
stroke:#000000; stroke-width:59.0551; stroke-opacity:1; 
stroke-linecap:round; stroke-linejoin:round;">
<path d="M69685 76577
L112205 76577
" />
</g>
<g style="fill:#000000; fill-opacity:0.0; 
stroke:#000000; stroke-width:39.3701; stroke-opacity:1; 
stroke-linecap:round; stroke-linejoin:round;">
</g>
<g style="fill:#000000; fill-opacity:0.0; 
stroke:#000000; stroke-width:59.0551; stroke-opacity:1; 
stroke-linecap:round; stroke-linejoin:round;">
<path d="M70220 77395
L70220 76805
" />
<path d="M70557 77395
L70304 77058
" />
<path d="M70557 76805
L70220 77142
" />
<path d="M70810 77395
L70810 77002
" />
<path d="M70810 76805
L70782 76833
L70810 76861
L70838 76833
L70810 76805
L70810 76861
" />
<path d="M71429 77339
L71401 77367
L71316 77395
L71260 77395
L71176 77367
L71120 77311
L71091 77255
L71063 77142
L71063 77058
L71091 76946
L71120 76889
L71176 76833
L71260 76805
L71316 76805
L71401 76833
L71429 76861
" />
<path d="M71935 77395
L71935 77086
L71907 77030
L71851 77002
L71738 77002
L71682 77030
" />
<path d="M71935 77367
L71879 77395
L71738 77395
L71682 77367
L71654 77311
L71654 77255
L71682 77199
L71738 77171
L71879 77171
L71935 77142
" />
<path d="M72469 77395
L72469 76805
" />
<path d="M72469 77367
L72413 77395
L72301 77395
L72244 77367
L72216 77339
L72188 77283
L72188 77114
L72216 77058
L72244 77030
L72301 77002
L72413 77002
L72469 77030
" />
<path d="M73201 77086
L73397 77086
" />
<path d="M73482 77395
L73201 77395
L73201 76805
L73482 76805
" />
<path d="M73735 77339
L73763 77367
L73735 77395
L73707 77367
L73735 77339
L73735 77395
" />
<path d="M74016 77395
L74016 76805
L74157 76805
L74241 76833
L74297 76889
L74325 76946
L74354 77058
L74354 77142
L74325 77255
L74297 77311
L74241 77367
L74157 77395
L74016 77395
" />
<path d="M74607 77339
L74635 77367
L74607 77395
L74579 77367
L74607 77339
L74607 77395
" />
<path d="M74860 77227
L75141 77227
" />
<path d="M74804 77395
L75000 76805
L75197 77395
" />
<path d="M75394 77339
L75422 77367
L75394 77395
L75366 77367
L75394 77339
L75394 77395
" />
<path d="M76575 77395
L76575 76805
" />
<path d="M76631 77171
L76800 77395
" />
<path d="M76800 77002
L76575 77227
" />
<path d="M77053 77395
L77053 77002
" />
<path d="M77053 76805
L77025 76833
L77053 76861
L77081 76833
L77053 76805
L77053 76861
" />
<path d="M77588 77367
L77531 77395
L77419 77395
L77363 77367
L77334 77339
L77306 77283
L77306 77114
L77334 77058
L77363 77030
L77419 77002
L77531 77002
L77588 77030
" />
<path d="M78094 77395
L78094 77086
L78066 77030
L78009 77002
L77897 77002
L77841 77030
" />
<path d="M78094 77367
L78037 77395
L77897 77395
L77841 77367
L77813 77311
L77813 77255
L77841 77199
L77897 77171
L78037 77171
L78094 77142
" />
<path d="M78628 77395
L78628 76805
" />
<path d="M78628 77367
L78572 77395
L78459 77395
L78403 77367
L78375 77339
L78347 77283
L78347 77114
L78375 77058
L78403 77030
L78459 77002
L78572 77002
L78628 77030
" />
<path d="M79528 77620
L79500 77592
L79444 77508
L79415 77452
L79387 77367
L79359 77227
L79359 77114
L79387 76974
L79415 76889
L79444 76833
L79500 76749
L79528 76721
" />
<path d="M79725 76861
L79753 76833
L79809 76805
L79950 76805
L80006 76833
L80034 76861
L80062 76917
L80062 76974
L80034 77058
L79697 77395
L80062 77395
" />
<path d="M80428 76805
L80484 76805
L80540 76833
L80568 76861
L80597 76917
L80625 77030
L80625 77171
L80597 77283
L80568 77339
L80540 77367
L80484 77395
L80428 77395
L80372 77367
L80343 77339
L80315 77283
L80287 77171
L80287 77030
L80315 76917
L80343 76861
L80372 76833
L80428 76805
" />
<path d="M81187 77395
L80850 77395
" />
<path d="M81018 77395
L81018 76805
L80962 76889
L80906 76946
L80850 76974
" />
<path d="M81693 77002
L81693 77395
" />
<path d="M81553 76777
L81412 77199
L81778 77199
" />
<path d="M82003 77171
L82453 77171
" />
<path d="M83043 77395
L82706 77395
" />
<path d="M82874 77395
L82874 76805
L82818 76889
L82762 76946
L82706 76974
" />
<path d="M83268 76861
L83296 76833
L83352 76805
L83493 76805
L83549 76833
L83577 76861
L83606 76917
L83606 76974
L83577 77058
L83240 77395
L83606 77395
" />
<path d="M83859 77171
L84309 77171
" />
<path d="M84702 76805
L84759 76805
L84815 76833
L84843 76861
L84871 76917
L84899 77030
L84899 77171
L84871 77283
L84843 77339
L84815 77367
L84759 77395
L84702 77395
L84646 77367
L84618 77339
L84590 77283
L84562 77171
L84562 77030
L84590 76917
L84618 76861
L84646 76833
L84702 76805
" />
<path d="M85096 76805
L85462 76805
L85265 77030
L85349 77030
L85405 77058
L85433 77086
L85462 77142
L85462 77283
L85433 77339
L85405 77367
L85349 77395
L85180 77395
L85124 77367
L85096 77339
" />
<path d="M86361 77086
L86446 77114
L86474 77142
L86502 77199
L86502 77283
L86474 77339
L86446 77367
L86390 77395
L86165 77395
L86165 76805
L86361 76805
L86418 76833
L86446 76861
L86474 76917
L86474 76974
L86446 77030
L86418 77058
L86361 77086
L86165 77086
" />
<path d="M86699 76805
L87093 76805
L86699 77395
L87093 77395
" />
<path d="M87655 77395
L87458 77114
" />
<path d="M87318 77395
L87318 76805
L87543 76805
L87599 76833
L87627 76861
L87655 76917
L87655 77002
L87627 77058
L87599 77086
L87543 77114
L87318 77114
" />
<path d="M88639 76805
L88358 76805
L88330 77086
L88358 77058
L88414 77030
L88555 77030
L88611 77058
L88639 77086
L88667 77142
L88667 77283
L88639 77339
L88611 77367
L88555 77395
L88414 77395
L88358 77367
L88330 77339
" />
<path d="M88864 76805
L89230 76805
L89033 77030
L89117 77030
L89174 77058
L89202 77086
L89230 77142
L89230 77283
L89202 77339
L89174 77367
L89117 77395
L88949 77395
L88892 77367
L88864 77339
" />
<path d="M89792 77395
L89455 77395
" />
<path d="M89624 77395
L89624 76805
L89567 76889
L89511 76946
L89455 76974
" />
<path d="M90355 77395
L90017 77395
" />
<path d="M90186 77395
L90186 76805
L90130 76889
L90073 76946
L90017 76974
" />
<path d="M90552 77620
L90580 77592
L90636 77508
L90664 77452
L90692 77367
L90720 77227
L90720 77114
L90692 76974
L90664 76889
L90636 76833
L90580 76749
L90552 76721
" />
<path d="M91001 77171
L91451 77171
" />
<path d="M91733 77002
L91733 77592
" />
<path d="M91733 77030
L91789 77002
L91901 77002
L91958 77030
L91986 77058
L92014 77114
L92014 77283
L91986 77339
L91958 77367
L91901 77395
L91789 77395
L91733 77367
" />
<path d="M92267 77395
L92267 77002
" />
<path d="M92267 77114
L92295 77058
L92323 77030
L92379 77002
L92436 77002
" />
<path d="M92717 77395
L92661 77367
L92633 77339
L92604 77283
L92604 77114
L92633 77058
L92661 77030
L92717 77002
L92801 77002
L92858 77030
L92886 77058
L92914 77114
L92914 77283
L92886 77339
L92858 77367
L92801 77395
L92717 77395
" />
<path d="M93420 77395
L93420 76805
" />
<path d="M93420 77367
L93364 77395
L93251 77395
L93195 77367
L93167 77339
L93139 77283
L93139 77114
L93167 77058
L93195 77030
L93251 77002
L93364 77002
L93420 77030
" />
<path d="M93954 77002
L93954 77395
" />
<path d="M93701 77002
L93701 77311
L93729 77367
L93786 77395
L93870 77395
L93926 77367
L93954 77339
" />
<path d="M94489 77367
L94432 77395
L94320 77395
L94264 77367
L94235 77339
L94207 77283
L94207 77114
L94235 77058
L94264 77030
L94320 77002
L94432 77002
L94489 77030
" />
<path d="M94657 77002
L94882 77002
" />
<path d="M94742 76805
L94742 77311
L94770 77367
L94826 77395
L94882 77395
" />
</g>
<g style="fill:#000000; fill-opacity:0.0; 
stroke:#000000; stroke-width:39.3701; stroke-opacity:1; 
stroke-linecap:round; stroke-linejoin:round;">
</g>
<g style="fill:#000000; fill-opacity:0.0; 
stroke:#000000; stroke-width:59.0551; stroke-opacity:1; 
stroke-linecap:round; stroke-linejoin:round;">
<path d="M69685 75396
L112205 75396
" />
</g>
<g style="fill:#000000; fill-opacity:0.0; 
stroke:#000000; stroke-width:39.3701; stroke-opacity:1; 
stroke-linecap:round; stroke-linejoin:round;">
</g>
<g style="fill:#000000; fill-opacity:0.0; 
stroke:#000000; stroke-width:118.11; stroke-opacity:1; 
stroke-linecap:round; stroke-linejoin:round;">
<path d="M104022 76293
L103825 76012
" />
<path d="M103684 76293
L103684 75703
L103909 75703
L103965 75731
L103994 75759
L104022 75815
L104022 75899
L103994 75956
L103965 75984
L103909 76012
L103684 76012
" />
<path d="M104500 76265
L104444 76293
L104331 76293
L104275 76265
L104247 76209
L104247 75984
L104275 75928
L104331 75899
L104444 75899
L104500 75928
L104528 75984
L104528 76040
L104247 76096
" />
<path d="M104725 75899
L104865 76293
L105006 75899
" />
<path d="M105231 76237
L105259 76265
L105231 76293
L105203 76265
L105231 76237
L105231 76293
" />
<path d="M105231 75928
L105259 75956
L105231 75984
L105203 75956
L105231 75928
L105231 75984
" />
</g>
<g style="fill:#000000; fill-opacity:0.0; 
stroke:#000000; stroke-width:39.3701; stroke-opacity:1; 
stroke-linecap:round; stroke-linejoin:round;">
</g>
<g style="fill:#000000; fill-opacity:0.0; 
stroke:#000000; stroke-width:59.0551; stroke-opacity:1; 
stroke-linecap:round; stroke-linejoin:round;">
<path d="M70192 76265
L70276 76293
L70417 76293
L70473 76265
L70501 76237
L70529 76181
L70529 76124
L70501 76068
L70473 76040
L70417 76012
L70304 75984
L70248 75956
L70220 75928
L70192 75871
L70192 75815
L70220 75759
L70248 75731
L70304 75703
L70445 75703
L70529 75731
" />
<path d="M70782 76293
L70782 75899
" />
<path d="M70782 75703
L70754 75731
L70782 75759
L70810 75731
L70782 75703
L70782 75759
" />
<path d="M71007 75899
L71316 75899
L71007 76293
L71316 76293
" />
<path d="M71766 76265
L71710 76293
L71598 76293
L71541 76265
L71513 76209
L71513 75984
L71541 75928
L71598 75899
L71710 75899
L71766 75928
L71795 75984
L71795 76040
L71513 76096
" />
<path d="M72048 76237
L72076 76265
L72048 76293
L72019 76265
L72048 76237
L72048 76293
" />
<path d="M72048 75928
L72076 75956
L72048 75984
L72019 75956
L72048 75928
L72048 75984
" />
<path d="M72751 76124
L73032 76124
" />
<path d="M72694 76293
L72891 75703
L73088 76293
" />
<path d="M73538 75899
L73538 76293
" />
<path d="M73397 75674
L73257 76096
L73622 76096
" />
</g>
<g style="fill:#000000; fill-opacity:0.0; 
stroke:#000000; stroke-width:39.3701; stroke-opacity:1; 
stroke-linecap:round; stroke-linejoin:round;">
</g>
<g style="fill:#000000; fill-opacity:0.0; 
stroke:#000000; stroke-width:59.0551; stroke-opacity:1; 
stroke-linecap:round; stroke-linejoin:round;">
<path d="M103684 77395
L103684 76805
" />
<path d="M104219 77395
L104219 76805
" />
<path d="M104219 77367
L104162 77395
L104050 77395
L103994 77367
L103965 77339
L103937 77283
L103937 77114
L103965 77058
L103994 77030
L104050 77002
L104162 77002
L104219 77030
" />
<path d="M104500 77339
L104528 77367
L104500 77395
L104472 77367
L104500 77339
L104500 77395
" />
<path d="M104500 77030
L104528 77058
L104500 77086
L104472 77058
L104500 77030
L104500 77086
" />
<path d="M105540 77395
L105203 77395
" />
<path d="M105372 77395
L105372 76805
L105315 76889
L105259 76946
L105203 76974
" />
<path d="M106215 76777
L105709 77536
" />
<path d="M106721 77395
L106384 77395
" />
<path d="M106553 77395
L106553 76805
L106496 76889
L106440 76946
L106384 76974
" />
</g>
<g style="fill:#000000; fill-opacity:0.0; 
stroke:#000000; stroke-width:39.3701; stroke-opacity:1; 
stroke-linecap:round; stroke-linejoin:round;">
</g>
<g style="fill:#000000; fill-opacity:0.0; 
stroke:#000000; stroke-width:59.0551; stroke-opacity:1; 
stroke-linecap:round; stroke-linejoin:round;">
<path d="M69685 73821
L112205 73821
" />
</g>
<g style="fill:#000000; fill-opacity:0.0; 
stroke:#000000; stroke-width:39.3701; stroke-opacity:1; 
stroke-linecap:round; stroke-linejoin:round;">
</g>
<g style="fill:#000000; fill-opacity:0.0; 
stroke:#000000; stroke-width:157.48; stroke-opacity:1; 
stroke-linecap:round; stroke-linejoin:round;">
<path d="M70257 74099
L70707 74099
" />
<path d="M70384 74886
L70482 74099
" />
<path d="M70871 74886
L70937 74361
" />
<path d="M70970 74099
L70927 74136
L70960 74174
L71002 74136
L70970 74099
L70960 74174
" />
<path d="M71199 74361
L71499 74361
" />
<path d="M71345 74099
L71260 74774
L71288 74849
L71359 74886
L71434 74886
" />
<path d="M71809 74886
L71738 74849
L71710 74774
L71795 74099
" />
<path d="M72413 74849
L72334 74886
L72184 74886
L72113 74849
L72085 74774
L72123 74474
L72169 74399
L72249 74361
L72399 74361
L72469 74399
L72498 74474
L72488 74549
L72104 74624
" />
<path d="M72793 74811
L72826 74849
L72783 74886
L72751 74849
L72793 74811
L72783 74886
" />
<path d="M72844 74399
L72877 74436
L72835 74474
L72802 74436
L72844 74399
L72835 74474
" />
</g>
<g style="fill:#000000; fill-opacity:0.0; 
stroke:#000000; stroke-width:39.3701; stroke-opacity:1; 
stroke-linecap:round; stroke-linejoin:round;">
</g>
<g style="fill:#000000; fill-opacity:0.0; 
stroke:#000000; stroke-width:59.0551; stroke-opacity:1; 
stroke-linecap:round; stroke-linejoin:round;">
<path d="M70417 73070
L70220 73070
" />
<path d="M70220 73380
L70220 72789
L70501 72789
" />
<path d="M70726 73380
L70726 72986
" />
<path d="M70726 72789
L70698 72817
L70726 72845
L70754 72817
L70726 72789
L70726 72845
" />
<path d="M71091 73380
L71035 73352
L71007 73295
L71007 72789
" />
<path d="M71541 73352
L71485 73380
L71373 73380
L71316 73352
L71288 73295
L71288 73070
L71316 73014
L71373 72986
L71485 72986
L71541 73014
L71570 73070
L71570 73127
L71288 73183
" />
<path d="M71823 73323
L71851 73352
L71823 73380
L71795 73352
L71823 73323
L71823 73380
" />
<path d="M71823 73014
L71851 73042
L71823 73070
L71795 73042
L71823 73014
L71823 73070
" />
<path d="M72554 73380
L72554 72986
" />
<path d="M72554 73042
L72582 73014
L72638 72986
L72723 72986
L72779 73014
L72807 73070
L72807 73380
" />
<path d="M72807 73070
L72835 73014
L72891 72986
L72976 72986
L73032 73014
L73060 73070
L73060 73380
" />
<path d="M73341 73380
L73341 72986
" />
<path d="M73341 72789
L73313 72817
L73341 72845
L73369 72817
L73341 72789
L73341 72845
" />
<path d="M73876 73352
L73819 73380
L73707 73380
L73651 73352
L73622 73323
L73594 73267
L73594 73099
L73622 73042
L73651 73014
L73707 72986
L73819 72986
L73876 73014
" />
<path d="M74129 73380
L74129 72986
" />
<path d="M74129 73099
L74157 73042
L74185 73014
L74241 72986
L74297 72986
" />
<path d="M74579 73380
L74522 73352
L74494 73323
L74466 73267
L74466 73099
L74494 73042
L74522 73014
L74579 72986
L74663 72986
L74719 73014
L74747 73042
L74775 73099
L74775 73267
L74747 73323
L74719 73352
L74663 73380
L74579 73380
" />
<path d="M75282 73380
L75282 72789
" />
<path d="M75282 73352
L75225 73380
L75113 73380
L75057 73352
L75028 73323
L75000 73267
L75000 73099
L75028 73042
L75057 73014
L75113 72986
L75225 72986
L75282 73014
" />
<path d="M75816 72986
L75816 73380
" />
<path d="M75563 72986
L75563 73295
L75591 73352
L75647 73380
L75732 73380
L75788 73352
L75816 73323
" />
<path d="M76097 73380
L76097 72986
" />
<path d="M76097 72789
L76069 72817
L76097 72845
L76125 72817
L76097 72789
L76097 72845
" />
<path d="M76378 72986
L76378 73380
" />
<path d="M76378 73042
L76406 73014
L76463 72986
L76547 72986
L76603 73014
L76631 73070
L76631 73380
" />
<path d="M76997 73380
L76941 73352
L76913 73323
L76885 73267
L76885 73099
L76913 73042
L76941 73014
L76997 72986
L77081 72986
L77138 73014
L77166 73042
L77194 73099
L77194 73267
L77166 73323
L77138 73352
L77081 73380
L76997 73380
" />
<path d="M77447 73323
L77475 73352
L77447 73380
L77419 73352
L77447 73323
L77447 73380
" />
<path d="M77728 73380
L77728 72789
" />
<path d="M77784 73155
L77953 73380
" />
<path d="M77953 72986
L77728 73211
" />
<path d="M78206 73380
L78206 72986
" />
<path d="M78206 72789
L78178 72817
L78206 72845
L78234 72817
L78206 72789
L78206 72845
" />
<path d="M78741 73352
L78684 73380
L78572 73380
L78516 73352
L78487 73323
L78459 73267
L78459 73099
L78487 73042
L78516 73014
L78572 72986
L78684 72986
L78741 73014
" />
<path d="M79247 73380
L79247 73070
L79219 73014
L79162 72986
L79050 72986
L78994 73014
" />
<path d="M79247 73352
L79190 73380
L79050 73380
L78994 73352
L78965 73295
L78965 73239
L78994 73183
L79050 73155
L79190 73155
L79247 73127
" />
<path d="M79781 73380
L79781 72789
" />
<path d="M79781 73352
L79725 73380
L79612 73380
L79556 73352
L79528 73323
L79500 73267
L79500 73099
L79528 73042
L79556 73014
L79612 72986
L79725 72986
L79781 73014
" />
<path d="M79922 73436
L80372 73436
" />
<path d="M80512 72986
L80512 73577
" />
<path d="M80512 73014
L80568 72986
L80681 72986
L80737 73014
L80765 73042
L80793 73099
L80793 73267
L80765 73323
L80737 73352
L80681 73380
L80568 73380
L80512 73352
" />
<path d="M81300 73352
L81243 73380
L81131 73380
L81075 73352
L81046 73323
L81018 73267
L81018 73099
L81046 73042
L81075 73014
L81131 72986
L81243 72986
L81300 73014
" />
<path d="M81553 73380
L81553 72789
" />
<path d="M81553 73014
L81609 72986
L81721 72986
L81778 73014
L81806 73042
L81834 73099
L81834 73267
L81806 73323
L81778 73352
L81721 73380
L81609 73380
L81553 73352
" />
</g>
<g style="fill:#000000; fill-opacity:0.0; 
stroke:#000000; stroke-width:39.3701; stroke-opacity:1; 
stroke-linecap:round; stroke-linejoin:round;">
</g>
<g style="fill:#000000; fill-opacity:0.0; 
stroke:#000000; stroke-width:59.0551; stroke-opacity:1; 
stroke-linecap:round; stroke-linejoin:round;">
<path d="M69685 71459
L112205 71459
" />
</g>
<g style="fill:#000000; fill-opacity:0.0; 
stroke:#000000; stroke-width:39.3701; stroke-opacity:1; 
stroke-linecap:round; stroke-linejoin:round;">
</g>
<g style="fill:#000000; fill-opacity:0.0; 
stroke:#000000; stroke-width:59.0551; stroke-opacity:1; 
stroke-linecap:round; stroke-linejoin:round;">
<path d="M70192 72289
L70276 72317
L70417 72317
L70473 72289
L70501 72260
L70529 72204
L70529 72148
L70501 72092
L70473 72064
L70417 72036
L70304 72007
L70248 71979
L70220 71951
L70192 71895
L70192 71839
L70220 71782
L70248 71754
L70304 71726
L70445 71726
L70529 71754
" />
<path d="M70782 72317
L70782 71726
" />
<path d="M71035 72317
L71035 72007
L71007 71951
L70951 71923
L70867 71923
L70810 71951
L70782 71979
" />
<path d="M71541 72289
L71485 72317
L71373 72317
L71316 72289
L71288 72232
L71288 72007
L71316 71951
L71373 71923
L71485 71923
L71541 71951
L71570 72007
L71570 72064
L71288 72120
" />
<path d="M72048 72289
L71991 72317
L71879 72317
L71823 72289
L71795 72232
L71795 72007
L71823 71951
L71879 71923
L71991 71923
L72048 71951
L72076 72007
L72076 72064
L71795 72120
" />
<path d="M72244 71923
L72469 71923
" />
<path d="M72329 71726
L72329 72232
L72357 72289
L72413 72317
L72469 72317
" />
<path d="M72666 72260
L72694 72289
L72666 72317
L72638 72289
L72666 72260
L72666 72317
" />
<path d="M72666 71951
L72694 71979
L72666 72007
L72638 71979
L72666 71951
L72666 72007
" />
</g>
<g style="fill:#000000; fill-opacity:0.0; 
stroke:#000000; stroke-width:39.3701; stroke-opacity:1; 
stroke-linecap:round; stroke-linejoin:round;">
</g>
<g style="fill:#000000; fill-opacity:0.0; 
stroke:#000000; stroke-width:59.0551; stroke-opacity:1; 
stroke-linecap:round; stroke-linejoin:round;">
<path d="M77559 75396
L77559 76577
" />
</g>
<g style="fill:#000000; fill-opacity:0.0; 
stroke:#000000; stroke-width:39.3701; stroke-opacity:1; 
stroke-linecap:round; stroke-linejoin:round;">
</g>
<g style="fill:#000000; fill-opacity:0.0; 
stroke:#000000; stroke-width:59.0551; stroke-opacity:1; 
stroke-linecap:round; stroke-linejoin:round;">
<path d="M102756 75396
L102756 77955
" />
</g>
<g style="fill:#C1C100; fill-opacity:0.0; 
stroke:#C1C100; stroke-width:39.3701; stroke-opacity:1; 
stroke-linecap:round; stroke-linejoin:round;">
<path d="M53500 46500
L53500 35000
" />
<path d="M63500 46500
L53500 46500
" />
<path d="M63500 35000
L63500 46500
" />
<path d="M53500 35000
L63500 35000
" />
</g>
<g style="fill:#840000; fill-opacity:0.0; 
stroke:#840000; stroke-width:39.3701; stroke-opacity:1; 
stroke-linecap:round; stroke-linejoin:round;">
</g>
<g style="fill:#840000; fill-opacity:1.0; 
stroke:#840000; stroke-width:39.3701; stroke-opacity:1; 
stroke-linecap:round; stroke-linejoin:round;">
<polyline style="fill-rule:evenodd;"
points="59619,37380
59619,36619
60380,36619
60380,37380
59619,37380
" /> 
</g>
<g style="fill:#840000; fill-opacity:1.0; 
stroke:#840000; stroke-width:800; stroke-opacity:1; 
stroke-linecap:round; stroke-linejoin:round;">
</g>
<g style="fill:#840000; fill-opacity:0.0; 
stroke:#840000; stroke-width:800; stroke-opacity:1; 
stroke-linecap:round; stroke-linejoin:round;">
<path d="M61000 37000
L61000 37000
" />
</g>
<g style="fill:#840000; fill-opacity:0.0; 
stroke:#840000; stroke-width:39.3701; stroke-opacity:1; 
stroke-linecap:round; stroke-linejoin:round;">
</g>
<g style="fill:#840000; fill-opacity:1.0; 
stroke:#840000; stroke-width:39.3701; stroke-opacity:1; 
stroke-linecap:round; stroke-linejoin:round;">
<polyline style="fill-rule:evenodd;"
points="60869,38179
61630,38179
61630,38820
60869,38820
60869,38179
" /> 
</g>
<g style="fill:#840000; fill-opacity:1.0; 
stroke:#840000; stroke-width:680; stroke-opacity:1; 
stroke-linecap:round; stroke-linejoin:round;">
</g>
<g style="fill:#840000; fill-opacity:0.0; 
stroke:#840000; stroke-width:680; stroke-opacity:1; 
stroke-linecap:round; stroke-linejoin:round;">
<path d="M61310 39500
L61190 39500
" />
<path d="M61310 40500
L61190 40500
" />
<path d="M61310 41500
L61190 41500
" />
<path d="M61310 42500
L61190 42500
" />
<path d="M61310 43500
L61190 43500
" />
</g>
<g style="fill:#840000; fill-opacity:0.0; 
stroke:#840000; stroke-width:39.3701; stroke-opacity:1; 
stroke-linecap:round; stroke-linejoin:round;">
</g>
<g style="fill:#840000; fill-opacity:1.0; 
stroke:#840000; stroke-width:39.3701; stroke-opacity:1; 
stroke-linecap:round; stroke-linejoin:round;">
<polyline style="fill-rule:evenodd;"
points="59569,36130
59569,35369
60130,35369
60130,36130
59569,36130
" /> 
<polyline style="fill-rule:evenodd;"
points="60869,36130
60869,35369
61430,35369
61430,36130
60869,36130
" /> 
<polyline style="fill-rule:evenodd;"
points="60180,42369
60180,43130
59619,43130
59619,42369
60180,42369
" /> 
<polyline style="fill-rule:evenodd;"
points="58880,42369
58880,43130
58319,43130
58319,42369
58880,42369
" /> 
<polyline style="fill-rule:evenodd;"
points="60180,41119
60180,41880
59619,41880
59619,41119
60180,41119
" /> 
<polyline style="fill-rule:evenodd;"
points="58880,41119
58880,41880
58319,41880
58319,41119
58880,41119
" /> 
<polyline style="fill-rule:evenodd;"
points="57440,37003
57559,37003
57559,37496
57440,37496
57440,37003
" /> 
<polyline style="fill-rule:evenodd;"
points="57185,37003
57303,37003
57303,37496
57185,37496
57185,37003
" /> 
<polyline style="fill-rule:evenodd;"
points="56929,37003
57047,37003
57047,37496
56929,37496
56929,37003
" /> 
<polyline style="fill-rule:evenodd;"
points="56673,37003
56791,37003
56791,37496
56673,37496
56673,37003
" /> 
<polyline style="fill-rule:evenodd;"
points="56417,37003
56535,37003
56535,37496
56417,37496
56417,37003
" /> 
</g>
<g style="fill:#840000; fill-opacity:1.0; 
stroke:#840000; stroke-width:374.016; stroke-opacity:1; 
stroke-linecap:round; stroke-linejoin:round;">
</g>
<g style="fill:#840000; fill-opacity:0.0; 
stroke:#840000; stroke-width:374.016; stroke-opacity:1; 
stroke-linecap:round; stroke-linejoin:round;">
<path d="M58031 37250
L57913 37250
" />
<path d="M56062 37250
L55944 37250
" />
</g>
<g style="fill:#840000; fill-opacity:0.0; 
stroke:#840000; stroke-width:393.701; stroke-opacity:1; 
stroke-linecap:round; stroke-linejoin:round;">
<path d="M58366 36078
L58366 36295
" />
<path d="M55610 36078
L55610 36295
" />
</g>
<g style="fill:#840000; fill-opacity:0.0; 
stroke:#840000; stroke-width:39.3701; stroke-opacity:1; 
stroke-linecap:round; stroke-linejoin:round;">
</g>
<g style="fill:#840000; fill-opacity:1.0; 
stroke:#840000; stroke-width:39.3701; stroke-opacity:1; 
stroke-linecap:round; stroke-linejoin:round;">
<polyline style="fill-rule:evenodd;"
points="55679,44380
55679,43619
56320,43619
56320,44380
55679,44380
" /> 
</g>
<g style="fill:#840000; fill-opacity:1.0; 
stroke:#840000; stroke-width:680; stroke-opacity:1; 
stroke-linecap:round; stroke-linejoin:round;">
</g>
<g style="fill:#840000; fill-opacity:0.0; 
stroke:#840000; stroke-width:680; stroke-opacity:1; 
stroke-linecap:round; stroke-linejoin:round;">
<path d="M57000 43940
L57000 44060
" />
<path d="M58000 43940
L58000 44060
" />
<path d="M59000 43940
L59000 44060
" />
<path d="M60000 43940
L60000 44060
" />
</g>
<g style="fill:#840000; fill-opacity:0.0; 
stroke:#840000; stroke-width:39.3701; stroke-opacity:1; 
stroke-linecap:round; stroke-linejoin:round;">
</g>
<g style="fill:#840000; fill-opacity:1.0; 
stroke:#840000; stroke-width:39.3701; stroke-opacity:1; 
stroke-linecap:round; stroke-linejoin:round;">
<polyline style="fill-rule:evenodd;"
points="55619,43130
55619,42369
56380,42369
56380,43130
55619,43130
" /> 
</g>
<g style="fill:#840000; fill-opacity:1.0; 
stroke:#840000; stroke-width:800; stroke-opacity:1; 
stroke-linecap:round; stroke-linejoin:round;">
</g>
<g style="fill:#840000; fill-opacity:0.0; 
stroke:#840000; stroke-width:800; stroke-opacity:1; 
stroke-linecap:round; stroke-linejoin:round;">
<path d="M57000 42750
L57000 42750
" />
</g>
<g style="fill:#840000; fill-opacity:0.0; 
stroke:#840000; stroke-width:39.3701; stroke-opacity:1; 
stroke-linecap:round; stroke-linejoin:round;">
</g>
<g style="fill:#840000; fill-opacity:1.0; 
stroke:#840000; stroke-width:39.3701; stroke-opacity:1; 
stroke-linecap:round; stroke-linejoin:round;">
<polyline style="fill-rule:evenodd;"
points="60072,37756
60427,37756
60427,37993
60072,37993
60072,37756
" /> 
<polyline style="fill-rule:evenodd;"
points="60072,38131
60427,38131
60427,38368
60072,38368
60072,38131
" /> 
<polyline style="fill-rule:evenodd;"
points="60072,38506
60427,38506
60427,38743
60072,38743
60072,38506
" /> 
<polyline style="fill-rule:evenodd;"
points="59072,38506
59427,38506
59427,38743
59072,38743
59072,38506
" /> 
<polyline style="fill-rule:evenodd;"
points="59072,38131
59427,38131
59427,38368
59072,38368
59072,38131
" /> 
<polyline style="fill-rule:evenodd;"
points="59072,37756
59427,37756
59427,37993
59072,37993
59072,37756
" /> 
<polyline style="fill-rule:evenodd;"
points="59955,39369
59955,39630
59794,39630
59794,39369
59955,39369
" /> 
<polyline style="fill-rule:evenodd;"
points="59205,39369
59205,39630
59044,39630
59044,39369
59205,39369
" /> 
<polyline style="fill-rule:evenodd;"
points="59955,40369
59955,40630
59794,40630
59794,40369
59955,40369
" /> 
<polyline style="fill-rule:evenodd;"
points="59580,39369
59580,39630
59419,39630
59419,39369
59580,39369
" /> 
<polyline style="fill-rule:evenodd;"
points="59205,40369
59205,40630
59044,40630
59044,40369
59205,40369
" /> 
<polyline style="fill-rule:evenodd;"
points="57307,41263
57307,41736
56755,41736
56755,41263
57307,41263
" /> 
<polyline style="fill-rule:evenodd;"
points="56244,41263
56244,41736
55692,41736
55692,41263
56244,41263
" /> 
<polyline style="fill-rule:evenodd;"
points="55651,38848
55651,38651
56222,38651
56222,38848
55651,38848
" /> 
<polyline style="fill-rule:evenodd;"
points="55651,39348
55651,39151
56222,39151
56222,39348
55651,39348
" /> 
<polyline style="fill-rule:evenodd;"
points="55651,39848
55651,39651
56222,39651
56222,39848
55651,39848
" /> 
<polyline style="fill-rule:evenodd;"
points="55651,40348
55651,40151
56222,40151
56222,40348
55651,40348
" /> 
<polyline style="fill-rule:evenodd;"
points="57777,40348
57777,40151
58348,40151
58348,40348
57777,40348
" /> 
<polyline style="fill-rule:evenodd;"
points="57777,39848
57777,39651
58348,39651
58348,39848
57777,39848
" /> 
<polyline style="fill-rule:evenodd;"
points="57777,39348
57777,39151
58348,39151
58348,39348
57777,39348
" /> 
<polyline style="fill-rule:evenodd;"
points="57777,38848
57777,38651
58348,38651
58348,38848
57777,38848
" /> 
<circle cx="54500" cy="36500" r="334.646" /> 
<circle cx="54500" cy="37500" r="334.646" /> 
<circle cx="54500" cy="38500" r="334.646" /> 
<circle cx="54500" cy="39500" r="334.646" /> 
<circle cx="54500" cy="40500" r="334.646" /> 
<circle cx="54500" cy="41500" r="334.646" /> 
<circle cx="54500" cy="42500" r="334.646" /> 
<circle cx="54500" cy="43500" r="334.646" /> 
<circle cx="54500" cy="44500" r="334.646" /> 
<circle cx="54500" cy="45500" r="334.646" /> 
<circle cx="55500" cy="45500" r="334.646" /> 
<circle cx="56500" cy="45500" r="334.646" /> 
<circle cx="57500" cy="45500" r="334.646" /> 
<circle cx="58500" cy="45500" r="334.646" /> 
<circle cx="59500" cy="45500" r="334.646" /> 
<circle cx="60500" cy="45500" r="334.646" /> 
<circle cx="61500" cy="45500" r="334.646" /> 
<circle cx="62500" cy="44500" r="334.646" /> 
<circle cx="62500" cy="43500" r="334.646" /> 
<circle cx="62500" cy="42500" r="334.646" /> 
<circle cx="62500" cy="41500" r="334.646" /> 
<circle cx="62500" cy="40500" r="334.646" /> 
<circle cx="62500" cy="39500" r="334.646" /> 
<circle cx="62500" cy="38500" r="334.646" /> 
<circle cx="62500" cy="37500" r="334.646" /> 
<circle cx="62500" cy="45500" r="334.646" /> 
<circle cx="62500" cy="36500" r="334.646" /> 
</g>
<g style="fill:#C1C1C1; fill-opacity:1.0; 
stroke:#C1C1C1; stroke-width:39.3701; stroke-opacity:1; 
stroke-linecap:round; stroke-linejoin:round;">
<circle cx="60255.2" cy="40601.7" r="155.315" /> 
<circle cx="56559.5" cy="39774.7" r="155.315" /> 
</g>
<g style="fill:#840000; fill-opacity:1.0; 
stroke:#840000; stroke-width:100; stroke-opacity:1; 
stroke-linecap:round; stroke-linejoin:round;">
</g>
<g style="fill:#840000; fill-opacity:0.0; 
stroke:#840000; stroke-width:100; stroke-opacity:1; 
stroke-linecap:round; stroke-linejoin:round;">
<path d="M59850 36300
L60000 36449
" />
<path d="M59850 36300
L59850 36300
" />
<path d="M60000 37000
L60000 36449
" />
<path d="M59850 36025
L59850 36213
" />
<path d="M59850 36213
L59850 36300
" />
<path d="M59850 35750
L59850 36025
" />
<path d="M59229 36834
L59850 36213
" />
<path d="M57500 36834
L59229 36834
" />
<path d="M57500 37250
L57500 36834
" />
<path d="M59875 37675
L60000 37550
" />
<path d="M59875 39500
L59875 37675
" />
<path d="M60000 37000
L60000 37550
" />
<path d="M59125 39800
L59875 39800
" />
<path d="M59125 39500
L59125 39800
" />
<path d="M59875 39500
L59875 39800
" />
<path d="M58600 41500
L58600 42750
" />
<path d="M61149 36300
L61000 36449
" />
<path d="M61150 36300
L61149 36300
" />
<path d="M61150 35750
L61150 36300
" />
<path d="M61000 36724
L61000 36449
" />
<path d="M61000 36724
L61000 37000
" />
<path d="M60699 35665
L60699 35750
" />
<path d="M60234 35199
L60699 35665
" />
<path d="M58110 35199
L60234 35199
" />
<path d="M56476 36834
L58110 35199
" />
<path d="M56476 37250
L56476 36834
" />
<path d="M61150 35750
L60699 35750
" />
<path d="M59500 39500
L59500 39249
" />
<path d="M58600 41500
L58600 40949
" />
<path d="M56476 37250
L56476 37665
" />
<path d="M58490 37665
L56476 37665
" />
<path d="M58594 37562
L58490 37665
" />
<path d="M59489 37562
L58594 37562
" />
<path d="M59597 37669
L59489 37562
" />
<path d="M59597 39077
L59597 37669
" />
<path d="M59475 39199
L59597 39077
" />
<path d="M59500 39224
L59475 39199
" />
<path d="M59500 39249
L59500 39224
" />
<path d="M58796 40753
L58600 40949
" />
<path d="M58796 39365
L58796 40753
" />
<path d="M58962 39199
L58796 39365
" />
<path d="M59475 39199
L58962 39199
" />
<path d="M59125 42425
L59449 42750
" />
<path d="M59125 40500
L59125 42425
" />
<path d="M59900 42750
L59449 42750
" />
<path d="M59900 41500
L59900 40949
" />
<path d="M60350 43214
L60350 41500
" />
<path d="M60114 43449
L60350 43214
" />
<path d="M60000 43449
L60114 43449
" />
<path d="M60000 44000
L60000 43449
" />
<path d="M59900 41500
L60350 41500
" />
<path d="M56953 38750
L58062 38750
" />
<path d="M55591 37388
L56953 38750
" />
<path d="M55591 36877
L55591 37388
" />
<path d="M54709 35994
L55591 36877
" />
<path d="M54275 35994
L54709 35994
" />
<path d="M53994 36275
L54275 35994
" />
<path d="M53994 36994
L53994 36275
" />
<path d="M54500 37500
L53994 36994
" />
<path d="M59875 40500
L59875 40800
" />
<path d="M59875 40924
L59900 40949
" />
<path d="M59875 40800
L59875 40924
" />
<path d="M60056 40800
L59875 40800
" />
<path d="M60255 40601
L60056 40800
" />
<path d="M61250 37750
L61250 38500
" />
<path d="M62500 36500
L61250 37750
" />
<path d="M55048 43538
L55509 44000
" />
<path d="M55048 37048
L55048 43538
" />
<path d="M54500 36500
L55048 37048
" />
<path d="M56000 44000
L55509 44000
" />
<path d="M56559 39417
L56392 39250
" />
<path d="M56559 39774
L56559 39417
" />
<path d="M55937 39250
L56392 39250
" />
<path d="M60597 38810
L60597 38250
" />
<path d="M60776 38990
L60597 38810
" />
<path d="M61503 38990
L60776 38990
" />
<path d="M61804 39290
L61503 38990
" />
<path d="M61804 44195
L61804 39290
" />
<path d="M60500 45500
L61804 44195
" />
<path d="M60250 38250
L60597 38250
" />
<path d="M57509 43736
L57509 44000
" />
<path d="M57157 43384
L57509 43736
" />
<path d="M55614 43384
L57157 43384
" />
<path d="M55449 43220
L55614 43384
" />
<path d="M55449 38781
L55449 43220
" />
<path d="M55481 38750
L55449 38781
" />
<path d="M55937 38750
L55481 38750
" />
<path d="M58000 44000
L57509 44000
" />
<path d="M60250 38625
L60250 38913
" />
<path d="M58000 44000
L58490 44000
" />
<path d="M59500 45500
L59500 45202
" />
<path d="M59574 45202
L59500 45202
" />
<path d="M60591 44184
L59574 45202
" />
<path d="M60591 39254
L60591 44184
" />
<path d="M60250 38913
L60591 39254
" />
<path d="M58490 44263
L58490 44000
" />
<path d="M59429 45202
L58490 44263
" />
<path d="M59500 45202
L59429 45202
" />
<path d="M57000 42750
L57000 42199
" />
<path d="M58800 44000
L57550 42750
" />
<path d="M59000 44000
L58800 44000
" />
<path d="M57000 42750
L57550 42750
" />
<path d="M55937 40250
L56376 40250
" />
<path d="M58518 39250
L58518 39750
" />
<path d="M58062 39750
L58518 39750
" />
<path d="M55968 40657
L55968 41500
" />
<path d="M56376 40250
L55968 40657
" />
<path d="M56706 41906
L57000 42199
" />
<path d="M55968 41906
L56706 41906
" />
<path d="M55968 41500
L55968 41906
" />
<path d="M57043 39750
L58062 39750
" />
<path d="M56543 40250
L57043 39750
" />
<path d="M56376 40250
L56543 40250
" />
<path d="M58062 39250
L58468 39250
" />
<path d="M58468 39250
L58518 39250
" />
<path d="M58518 38634
L58902 38250
" />
<path d="M58518 39250
L58518 38634
" />
<path d="M58518 39250
L58518 39250
" />
<path d="M59250 38250
L58902 38250
" />
<path d="M57607 40517
L57031 41093
" />
<path d="M57607 40250
L57607 40517
" />
<path d="M58062 40250
L57607 40250
" />
<path d="M57031 41500
L57031 41093
" />
</g>
<g style="fill:#FFFFFF; fill-opacity:0.0; 
stroke:#FFFFFF; stroke-width:39.3701; stroke-opacity:1; 
stroke-linecap:round; stroke-linejoin:round;">
</g>
<g style="fill:#FFFFFF; fill-opacity:1.0; 
stroke:#FFFFFF; stroke-width:39.3701; stroke-opacity:1; 
stroke-linecap:round; stroke-linejoin:round;">
<circle cx="60255.2" cy="40601.7" r="105.315" /> 
<circle cx="56559.5" cy="39774.7" r="105.315" /> 
<circle cx="60000" cy="37000" r="180.315" /> 
<circle cx="61000" cy="37000" r="180.315" /> 
<circle cx="61250" cy="38500" r="180.315" /> 
<circle cx="61250" cy="39500" r="180.315" /> 
<circle cx="61250" cy="40500" r="180.315" /> 
<circle cx="61250" cy="41500" r="180.315" /> 
<circle cx="61250" cy="42500" r="180.315" /> 
<circle cx="61250" cy="43500" r="180.315" /> 
</g>
<g style="fill:#FFFFFF; fill-opacity:1.0; 
stroke:#FFFFFF; stroke-width:216.535; stroke-opacity:1; 
stroke-linecap:round; stroke-linejoin:round;">
</g>
<g style="fill:#FFFFFF; fill-opacity:0.0; 
stroke:#FFFFFF; stroke-width:216.535; stroke-opacity:1; 
stroke-linecap:round; stroke-linejoin:round;">
<path d="M58031 37250
L57913 37250
" />
<path d="M56062 37250
L55944 37250
" />
</g>
<g style="fill:#FFFFFF; fill-opacity:0.0; 
stroke:#FFFFFF; stroke-width:196.85; stroke-opacity:1; 
stroke-linecap:round; stroke-linejoin:round;">
<path d="M58366 36059
L58366 36314
" />
<path d="M55610 36059
L55610 36314
" />
</g>
<g style="fill:#FFFFFF; fill-opacity:0.0; 
stroke:#FFFFFF; stroke-width:39.3701; stroke-opacity:1; 
stroke-linecap:round; stroke-linejoin:round;">
</g>
<g style="fill:#FFFFFF; fill-opacity:1.0; 
stroke:#FFFFFF; stroke-width:39.3701; stroke-opacity:1; 
stroke-linecap:round; stroke-linejoin:round;">
<circle cx="56000" cy="44000" r="180.315" /> 
<circle cx="57000" cy="44000" r="180.315" /> 
<circle cx="58000" cy="44000" r="180.315" /> 
<circle cx="59000" cy="44000" r="180.315" /> 
<circle cx="60000" cy="44000" r="180.315" /> 
<circle cx="56000" cy="42750" r="180.315" /> 
<circle cx="57000" cy="42750" r="180.315" /> 
<circle cx="54500" cy="36500" r="275.591" /> 
<circle cx="54500" cy="37500" r="275.591" /> 
<circle cx="54500" cy="38500" r="275.591" /> 
<circle cx="54500" cy="39500" r="275.591" /> 
<circle cx="54500" cy="40500" r="275.591" /> 
<circle cx="54500" cy="41500" r="275.591" /> 
<circle cx="54500" cy="42500" r="275.591" /> 
<circle cx="54500" cy="43500" r="275.591" /> 
<circle cx="54500" cy="44500" r="275.591" /> 
<circle cx="54500" cy="45500" r="275.591" /> 
<circle cx="55500" cy="45500" r="275.591" /> 
<circle cx="56500" cy="45500" r="275.591" /> 
<circle cx="57500" cy="45500" r="275.591" /> 
<circle cx="58500" cy="45500" r="275.591" /> 
<circle cx="59500" cy="45500" r="275.591" /> 
<circle cx="60500" cy="45500" r="275.591" /> 
<circle cx="61500" cy="45500" r="275.591" /> 
<circle cx="62500" cy="44500" r="275.591" /> 
<circle cx="62500" cy="43500" r="275.591" /> 
<circle cx="62500" cy="42500" r="275.591" /> 
<circle cx="62500" cy="41500" r="275.591" /> 
<circle cx="62500" cy="40500" r="275.591" /> 
<circle cx="62500" cy="39500" r="275.591" /> 
<circle cx="62500" cy="38500" r="275.591" /> 
<circle cx="62500" cy="37500" r="275.591" /> 
<circle cx="62500" cy="45500" r="275.591" /> 
<circle cx="62500" cy="36500" r="275.591" /> 
</g> 
</svg>
