G04 #@! TF.FileFunction,Legend,Top*
%FSLAX46Y46*%
G04 Gerber Fmt 4.6, Leading zero omitted, Abs format (unit mm)*
G04 Created by KiCad (PCBNEW 0.201512051503+6347~38~ubuntu14.04.1-stable) date Sun 13 Dec 2015 13:51:11 CET*
%MOMM*%
G01*
G04 APERTURE LIST*
%ADD10C,0.100000*%
%ADD11C,0.175000*%
%ADD12C,0.300000*%
%ADD13C,0.304800*%
%ADD14C,0.150000*%
%ADD15C,0.127000*%
%ADD16C,0.200660*%
%ADD17C,0.200000*%
G04 APERTURE END LIST*
D10*
D11*
X150799000Y-105168666D02*
X150799000Y-104635333D01*
D12*
X152527000Y-99087714D02*
X152598428Y-99159143D01*
X152527000Y-99230571D01*
X152455571Y-99159143D01*
X152527000Y-99087714D01*
X152527000Y-99230571D01*
X146939000Y-103532714D02*
X147010428Y-103604143D01*
X146939000Y-103675571D01*
X146867571Y-103604143D01*
X146939000Y-103532714D01*
X146939000Y-103675571D01*
D11*
X141624000Y-113080000D02*
X142157333Y-113080000D01*
X141890666Y-113346667D02*
X141890666Y-112813333D01*
X142824000Y-112646667D02*
X142490667Y-112646667D01*
X142457333Y-112980000D01*
X142490667Y-112946667D01*
X142557333Y-112913333D01*
X142724000Y-112913333D01*
X142790667Y-112946667D01*
X142824000Y-112980000D01*
X142857333Y-113046667D01*
X142857333Y-113213333D01*
X142824000Y-113280000D01*
X142790667Y-113313333D01*
X142724000Y-113346667D01*
X142557333Y-113346667D01*
X142490667Y-113313333D01*
X142457333Y-113280000D01*
X143657333Y-113313333D02*
X143757333Y-113346667D01*
X143924000Y-113346667D01*
X143990667Y-113313333D01*
X144024000Y-113280000D01*
X144057333Y-113213333D01*
X144057333Y-113146667D01*
X144024000Y-113080000D01*
X143990667Y-113046667D01*
X143924000Y-113013333D01*
X143790667Y-112980000D01*
X143724000Y-112946667D01*
X143690667Y-112913333D01*
X143657333Y-112846667D01*
X143657333Y-112780000D01*
X143690667Y-112713333D01*
X143724000Y-112680000D01*
X143790667Y-112646667D01*
X143957333Y-112646667D01*
X144057333Y-112680000D01*
X144757334Y-113280000D02*
X144724000Y-113313333D01*
X144624000Y-113346667D01*
X144557334Y-113346667D01*
X144457334Y-113313333D01*
X144390667Y-113246667D01*
X144357334Y-113180000D01*
X144324000Y-113046667D01*
X144324000Y-112946667D01*
X144357334Y-112813333D01*
X144390667Y-112746667D01*
X144457334Y-112680000D01*
X144557334Y-112646667D01*
X144624000Y-112646667D01*
X144724000Y-112680000D01*
X144757334Y-112713333D01*
X145390667Y-113346667D02*
X145057334Y-113346667D01*
X145057334Y-112646667D01*
X146124000Y-113313333D02*
X146224000Y-113346667D01*
X146390667Y-113346667D01*
X146457334Y-113313333D01*
X146490667Y-113280000D01*
X146524000Y-113213333D01*
X146524000Y-113146667D01*
X146490667Y-113080000D01*
X146457334Y-113046667D01*
X146390667Y-113013333D01*
X146257334Y-112980000D01*
X146190667Y-112946667D01*
X146157334Y-112913333D01*
X146124000Y-112846667D01*
X146124000Y-112780000D01*
X146157334Y-112713333D01*
X146190667Y-112680000D01*
X146257334Y-112646667D01*
X146424000Y-112646667D01*
X146524000Y-112680000D01*
X146824001Y-113346667D02*
X146824001Y-112646667D01*
X146990667Y-112646667D01*
X147090667Y-112680000D01*
X147157334Y-112746667D01*
X147190667Y-112813333D01*
X147224001Y-112946667D01*
X147224001Y-113046667D01*
X147190667Y-113180000D01*
X147157334Y-113246667D01*
X147090667Y-113313333D01*
X146990667Y-113346667D01*
X146824001Y-113346667D01*
X147490667Y-113146667D02*
X147824001Y-113146667D01*
X147424001Y-113346667D02*
X147657334Y-112646667D01*
X147890667Y-113346667D01*
X149024000Y-112680000D02*
X148957334Y-112646667D01*
X148857334Y-112646667D01*
X148757334Y-112680000D01*
X148690667Y-112746667D01*
X148657334Y-112813333D01*
X148624000Y-112946667D01*
X148624000Y-113046667D01*
X148657334Y-113180000D01*
X148690667Y-113246667D01*
X148757334Y-113313333D01*
X148857334Y-113346667D01*
X148924000Y-113346667D01*
X149024000Y-113313333D01*
X149057334Y-113280000D01*
X149057334Y-113046667D01*
X148924000Y-113046667D01*
X149357334Y-113346667D02*
X149357334Y-112646667D01*
X149757334Y-113346667D01*
X149757334Y-112646667D01*
X150090667Y-113346667D02*
X150090667Y-112646667D01*
X150257333Y-112646667D01*
X150357333Y-112680000D01*
X150424000Y-112746667D01*
X150457333Y-112813333D01*
X150490667Y-112946667D01*
X150490667Y-113046667D01*
X150457333Y-113180000D01*
X150424000Y-113246667D01*
X150357333Y-113313333D01*
X150257333Y-113346667D01*
X150090667Y-113346667D01*
X151324000Y-113080000D02*
X151857333Y-113080000D01*
X151590666Y-113346667D02*
X151590666Y-112813333D01*
X152124000Y-112646667D02*
X152557333Y-112646667D01*
X152324000Y-112913333D01*
X152424000Y-112913333D01*
X152490667Y-112946667D01*
X152524000Y-112980000D01*
X152557333Y-113046667D01*
X152557333Y-113213333D01*
X152524000Y-113280000D01*
X152490667Y-113313333D01*
X152424000Y-113346667D01*
X152224000Y-113346667D01*
X152157333Y-113313333D01*
X152124000Y-113280000D01*
X152857334Y-113280000D02*
X152890667Y-113313333D01*
X152857334Y-113346667D01*
X152824000Y-113313333D01*
X152857334Y-113280000D01*
X152857334Y-113346667D01*
X153124000Y-112646667D02*
X153557333Y-112646667D01*
X153324000Y-112913333D01*
X153424000Y-112913333D01*
X153490667Y-112946667D01*
X153524000Y-112980000D01*
X153557333Y-113046667D01*
X153557333Y-113213333D01*
X153524000Y-113280000D01*
X153490667Y-113313333D01*
X153424000Y-113346667D01*
X153224000Y-113346667D01*
X153157333Y-113313333D01*
X153124000Y-113280000D01*
X142644952Y-105179762D02*
X142787809Y-105227381D01*
X143025905Y-105227381D01*
X143121143Y-105179762D01*
X143168762Y-105132143D01*
X143216381Y-105036905D01*
X143216381Y-104941667D01*
X143168762Y-104846429D01*
X143121143Y-104798810D01*
X143025905Y-104751190D01*
X142835428Y-104703571D01*
X142740190Y-104655952D01*
X142692571Y-104608333D01*
X142644952Y-104513095D01*
X142644952Y-104417857D01*
X142692571Y-104322619D01*
X142740190Y-104275000D01*
X142835428Y-104227381D01*
X143073524Y-104227381D01*
X143216381Y-104275000D01*
X143644952Y-104703571D02*
X143978286Y-104703571D01*
X144121143Y-105227381D02*
X143644952Y-105227381D01*
X143644952Y-104227381D01*
X144121143Y-104227381D01*
X144406857Y-104227381D02*
X144978286Y-104227381D01*
X144692571Y-105227381D02*
X144692571Y-104227381D01*
D13*
X140970000Y-108077000D02*
X143510000Y-105537000D01*
X146050000Y-108077000D02*
X140970000Y-108077000D01*
X140970000Y-105537000D02*
X146050000Y-105537000D01*
X140970000Y-108077000D02*
X140970000Y-105537000D01*
X146050000Y-105537000D02*
X146050000Y-108077000D01*
X156845000Y-99060000D02*
X154305000Y-99060000D01*
X154305000Y-96520000D02*
X156845000Y-96520000D01*
X156845000Y-96520000D02*
X156845000Y-111760000D01*
X156845000Y-111760000D02*
X154305000Y-111760000D01*
X154305000Y-111760000D02*
X154305000Y-96520000D01*
D14*
X146855000Y-102905000D02*
X146855000Y-102760000D01*
X142705000Y-102905000D02*
X142705000Y-102760000D01*
X142705000Y-97755000D02*
X142705000Y-97900000D01*
X146855000Y-97755000D02*
X146855000Y-97900000D01*
X146855000Y-102905000D02*
X142705000Y-102905000D01*
X146855000Y-97755000D02*
X142705000Y-97755000D01*
X146855000Y-102760000D02*
X148255000Y-102760000D01*
D15*
X152527000Y-89992200D02*
X152527000Y-91617800D01*
X154813000Y-91617800D02*
X154813000Y-89992200D01*
X155270200Y-91617800D02*
X155270200Y-89992200D01*
X155270200Y-89992200D02*
X152069800Y-89992200D01*
X152069800Y-89992200D02*
X152069800Y-91617800D01*
X152069800Y-91617800D02*
X155270200Y-91617800D01*
X147777200Y-107823000D02*
X149402800Y-107823000D01*
X149402800Y-105537000D02*
X147777200Y-105537000D01*
X149402800Y-105079800D02*
X147777200Y-105079800D01*
X147777200Y-105079800D02*
X147777200Y-108280200D01*
X147777200Y-108280200D02*
X149402800Y-108280200D01*
X149402800Y-108280200D02*
X149402800Y-105079800D01*
X151587200Y-107823000D02*
X153212800Y-107823000D01*
X153212800Y-105537000D02*
X151587200Y-105537000D01*
X153212800Y-105079800D02*
X151587200Y-105079800D01*
X151587200Y-105079800D02*
X151587200Y-108280200D01*
X151587200Y-108280200D02*
X153212800Y-108280200D01*
X153212800Y-108280200D02*
X153212800Y-105079800D01*
D13*
X149352000Y-95123000D02*
X151892000Y-92583000D01*
X154432000Y-95123000D02*
X149352000Y-95123000D01*
X149352000Y-92583000D02*
X154432000Y-92583000D01*
X149352000Y-95123000D02*
X149352000Y-92583000D01*
X154432000Y-92583000D02*
X154432000Y-95123000D01*
X143510000Y-109855000D02*
X143510000Y-112395000D01*
X153670000Y-112395000D02*
X140970000Y-112395000D01*
X140970000Y-109855000D02*
X153670000Y-109855000D01*
X140970000Y-112395000D02*
X140970000Y-109855000D01*
X153670000Y-109855000D02*
X153670000Y-112395000D01*
D15*
X152082500Y-98005900D02*
X151434800Y-98653600D01*
X152082500Y-98158300D02*
X151587200Y-98653600D01*
X150685500Y-97155000D02*
X150025100Y-97155000D01*
X150685500Y-96202500D02*
X150025100Y-96202500D01*
X150685500Y-98107500D02*
X150025100Y-98107500D01*
X152082500Y-97155000D02*
X152742900Y-97155000D01*
X152082500Y-96202500D02*
X152742900Y-96202500D01*
X152082500Y-98107500D02*
X152742900Y-98107500D01*
X150685500Y-98653600D02*
X150685500Y-95656400D01*
X150685500Y-95656400D02*
X152082500Y-95656400D01*
X152082500Y-95656400D02*
X152082500Y-98653600D01*
X152082500Y-98653600D02*
X150685500Y-98653600D01*
X151853900Y-100901500D02*
X152501600Y-101549200D01*
X152006300Y-100901500D02*
X152501600Y-101396800D01*
X150050500Y-102298500D02*
X150050500Y-102958900D01*
X151955500Y-102298500D02*
X151955500Y-102958900D01*
X151003000Y-100901500D02*
X151003000Y-100241100D01*
X150050500Y-100901500D02*
X150050500Y-100241100D01*
X151955500Y-100901500D02*
X151955500Y-100241100D01*
X152501600Y-102298500D02*
X149504400Y-102298500D01*
X149504400Y-102298500D02*
X149504400Y-100901500D01*
X149504400Y-100901500D02*
X152501600Y-100901500D01*
X152501600Y-100901500D02*
X152501600Y-102298500D01*
D16*
X149616160Y-89060020D02*
X141213840Y-89060020D01*
X149616160Y-88958420D02*
X141213840Y-88958420D01*
X141213840Y-88958420D02*
X141213840Y-89159080D01*
X141213840Y-89159080D02*
X149616160Y-89159080D01*
X149616160Y-89159080D02*
X149616160Y-88958420D01*
X149313900Y-88958420D02*
X149313900Y-93959680D01*
X149313900Y-93959680D02*
X141516100Y-93959680D01*
X141516100Y-93959680D02*
X141516100Y-88958420D01*
D14*
X135890000Y-90170000D02*
X161290000Y-90170000D01*
X161290000Y-90170000D02*
X161290000Y-118110000D01*
X161290000Y-118110000D02*
X135890000Y-118110000D01*
X135890000Y-118110000D02*
X135890000Y-90170000D01*
D11*
X157059334Y-91289143D02*
X157011715Y-91336762D01*
X156868858Y-91384381D01*
X156773620Y-91384381D01*
X156630762Y-91336762D01*
X156535524Y-91241524D01*
X156487905Y-91146286D01*
X156440286Y-90955810D01*
X156440286Y-90812952D01*
X156487905Y-90622476D01*
X156535524Y-90527238D01*
X156630762Y-90432000D01*
X156773620Y-90384381D01*
X156868858Y-90384381D01*
X157011715Y-90432000D01*
X157059334Y-90479619D01*
X158011715Y-91384381D02*
X157440286Y-91384381D01*
X157726000Y-91384381D02*
X157726000Y-90384381D01*
X157630762Y-90527238D01*
X157535524Y-90622476D01*
X157440286Y-90670095D01*
D17*
X147169143Y-106846666D02*
X147216762Y-106894285D01*
X147264381Y-107037142D01*
X147264381Y-107132380D01*
X147216762Y-107275238D01*
X147121524Y-107370476D01*
X147026286Y-107418095D01*
X146835810Y-107465714D01*
X146692952Y-107465714D01*
X146502476Y-107418095D01*
X146407238Y-107370476D01*
X146312000Y-107275238D01*
X146264381Y-107132380D01*
X146264381Y-107037142D01*
X146312000Y-106894285D01*
X146359619Y-106846666D01*
X146359619Y-106465714D02*
X146312000Y-106418095D01*
X146264381Y-106322857D01*
X146264381Y-106084761D01*
X146312000Y-105989523D01*
X146359619Y-105941904D01*
X146454857Y-105894285D01*
X146550095Y-105894285D01*
X146692952Y-105941904D01*
X147264381Y-106513333D01*
X147264381Y-105894285D01*
X150852143Y-106846666D02*
X150899762Y-106894285D01*
X150947381Y-107037142D01*
X150947381Y-107132380D01*
X150899762Y-107275238D01*
X150804524Y-107370476D01*
X150709286Y-107418095D01*
X150518810Y-107465714D01*
X150375952Y-107465714D01*
X150185476Y-107418095D01*
X150090238Y-107370476D01*
X149995000Y-107275238D01*
X149947381Y-107132380D01*
X149947381Y-107037142D01*
X149995000Y-106894285D01*
X150042619Y-106846666D01*
X149947381Y-106513333D02*
X149947381Y-105894285D01*
X150328333Y-106227619D01*
X150328333Y-106084761D01*
X150375952Y-105989523D01*
X150423571Y-105941904D01*
X150518810Y-105894285D01*
X150756905Y-105894285D01*
X150852143Y-105941904D01*
X150899762Y-105989523D01*
X150947381Y-106084761D01*
X150947381Y-106370476D01*
X150899762Y-106465714D01*
X150852143Y-106513333D01*
D14*
X147447143Y-96968571D02*
X147447143Y-98182857D01*
X147518571Y-98325714D01*
X147590000Y-98397143D01*
X147732857Y-98468571D01*
X148018571Y-98468571D01*
X148161429Y-98397143D01*
X148232857Y-98325714D01*
X148304286Y-98182857D01*
X148304286Y-96968571D01*
X149804286Y-98468571D02*
X148947143Y-98468571D01*
X149375715Y-98468571D02*
X149375715Y-96968571D01*
X149232858Y-97182857D01*
X149090000Y-97325714D01*
X148947143Y-97397143D01*
X142875714Y-106088571D02*
X142875714Y-104588571D01*
X143375714Y-105660000D01*
X143875714Y-104588571D01*
X143875714Y-106088571D01*
X144590000Y-106088571D02*
X144590000Y-105088571D01*
X144590000Y-104588571D02*
X144518571Y-104660000D01*
X144590000Y-104731429D01*
X144661428Y-104660000D01*
X144590000Y-104588571D01*
X144590000Y-104731429D01*
X145947143Y-106017143D02*
X145804286Y-106088571D01*
X145518572Y-106088571D01*
X145375714Y-106017143D01*
X145304286Y-105945714D01*
X145232857Y-105802857D01*
X145232857Y-105374286D01*
X145304286Y-105231429D01*
X145375714Y-105160000D01*
X145518572Y-105088571D01*
X145804286Y-105088571D01*
X145947143Y-105160000D01*
X146590000Y-106088571D02*
X146590000Y-105088571D01*
X146590000Y-105374286D02*
X146661428Y-105231429D01*
X146732857Y-105160000D01*
X146875714Y-105088571D01*
X147018571Y-105088571D01*
X147732857Y-106088571D02*
X147589999Y-106017143D01*
X147518571Y-105945714D01*
X147447142Y-105802857D01*
X147447142Y-105374286D01*
X147518571Y-105231429D01*
X147589999Y-105160000D01*
X147732857Y-105088571D01*
X147947142Y-105088571D01*
X148089999Y-105160000D01*
X148161428Y-105231429D01*
X148232857Y-105374286D01*
X148232857Y-105802857D01*
X148161428Y-105945714D01*
X148089999Y-106017143D01*
X147947142Y-106088571D01*
X147732857Y-106088571D01*
X149518571Y-106088571D02*
X149518571Y-104588571D01*
X149518571Y-106017143D02*
X149375714Y-106088571D01*
X149090000Y-106088571D01*
X148947142Y-106017143D01*
X148875714Y-105945714D01*
X148804285Y-105802857D01*
X148804285Y-105374286D01*
X148875714Y-105231429D01*
X148947142Y-105160000D01*
X149090000Y-105088571D01*
X149375714Y-105088571D01*
X149518571Y-105160000D01*
X150875714Y-105088571D02*
X150875714Y-106088571D01*
X150232857Y-105088571D02*
X150232857Y-105874286D01*
X150304285Y-106017143D01*
X150447143Y-106088571D01*
X150661428Y-106088571D01*
X150804285Y-106017143D01*
X150875714Y-105945714D01*
X151590000Y-106088571D02*
X151590000Y-105088571D01*
X151590000Y-104588571D02*
X151518571Y-104660000D01*
X151590000Y-104731429D01*
X151661428Y-104660000D01*
X151590000Y-104588571D01*
X151590000Y-104731429D01*
X152304286Y-105088571D02*
X152304286Y-106088571D01*
X152304286Y-105231429D02*
X152375714Y-105160000D01*
X152518572Y-105088571D01*
X152732857Y-105088571D01*
X152875714Y-105160000D01*
X152947143Y-105302857D01*
X152947143Y-106088571D01*
X153875715Y-106088571D02*
X153732857Y-106017143D01*
X153661429Y-105945714D01*
X153590000Y-105802857D01*
X153590000Y-105374286D01*
X153661429Y-105231429D01*
X153732857Y-105160000D01*
X153875715Y-105088571D01*
X154090000Y-105088571D01*
X154232857Y-105160000D01*
X154304286Y-105231429D01*
X154375715Y-105374286D01*
X154375715Y-105802857D01*
X154304286Y-105945714D01*
X154232857Y-106017143D01*
X154090000Y-106088571D01*
X153875715Y-106088571D01*
M02*
