<?xml version="1.0" standalone="no"?>
 <!DOCTYPE svg PUBLIC "-//W3C//DTD SVG 1.1//EN" 
 "http://www.w3.org/Graphics/SVG/1.1/DTD/svg11.dtd"> 
<svg xmlns="http://www.w3.org/2000/svg" version="1.1" 
    width="3.0226cm" height="3.00736cm" viewBox="0 0 11900 11840 ">
<title>SVG Picture created as microduino-B_SilkS.svg date 2015/07/02 17:33:36 </title>
  <desc>Picture generated by PCBNEW </desc>
<g style="fill:#000000; fill-opacity:1;stroke:#000000; stroke-opacity:1;
stroke-linecap:round; stroke-linejoin:round; "
 transform="translate(0 0) scale(1 1)">
</g>
<g style="fill:#840084; fill-opacity:0.0; 
stroke:#840084; stroke-width:118.11; stroke-opacity:1; 
stroke-linecap:round; stroke-linejoin:round;">
<path d="M9253 1849
L9647 1849
" />
<path d="M9534 1849
L9590 1877
L9618 1905
L9647 1962
L9647 2018
" />
<path d="M9253 2215
L9647 2215
" />
<path d="M9590 2215
L9618 2243
L9647 2299
L9647 2383
L9618 2440
L9562 2468
L9253 2468
" />
<path d="M9562 2468
L9618 2496
L9647 2552
L9647 2636
L9618 2693
L9562 2721
L9253 2721
" />
<path d="M9253 3255
L9562 3255
L9618 3227
L9647 3171
L9647 3058
L9618 3002
" />
<path d="M9281 3255
L9253 3199
L9253 3058
L9281 3002
L9337 2974
L9393 2974
L9450 3002
L9478 3058
L9478 3199
L9506 3255
" />
<path d="M9647 3536
L9056 3536
" />
<path d="M9618 3536
L9647 3593
L9647 3705
L9618 3761
L9590 3789
L9534 3818
L9365 3818
L9309 3789
L9281 3761
L9253 3705
L9253 3593
L9281 3536
" />
<path d="M9309 4071
L9281 4099
L9253 4071
L9281 4042
L9309 4071
L9253 4071
" />
<path d="M9281 4605
L9253 4549
L9253 4436
L9281 4380
L9309 4352
L9365 4324
L9534 4324
L9590 4352
L9618 4380
L9647 4436
L9647 4549
L9618 4605
" />
<path d="M9281 5111
L9253 5055
L9253 4942
L9281 4886
L9309 4858
L9365 4830
L9534 4830
L9590 4858
L9618 4886
L9647 4942
L9647 5055
L9618 5111
" />
</g>
<g style="fill:#C1C100; fill-opacity:0.0; 
stroke:#C1C100; stroke-width:39.3701; stroke-opacity:1; 
stroke-linecap:round; stroke-linejoin:round;">
<path d="M11770 11716
L11770 216
" />
<path d="M1770 11716
L11770 11716
" />
<path d="M1770 216
L1770 11716
" />
<path d="M11770 216
L1770 216
" />
</g>
<g style="fill:#008484; fill-opacity:0.0; 
stroke:#008484; stroke-width:80; stroke-opacity:1; 
stroke-linecap:round; stroke-linejoin:round;">
<path d="M5975 1897
L5975 1497
L6127 1497
L6165 1516
L6184 1535
L6203 1573
L6203 1630
L6184 1668
L6165 1687
L6127 1706
L5975 1706
" />
<path d="M6584 1897
L6356 1897
" />
<path d="M6470 1897
L6470 1497
L6432 1554
L6394 1592
L6356 1611
" />
</g>
<g style="fill:#008484; fill-opacity:0.0; 
stroke:#008484; stroke-width:78.7402; stroke-opacity:1; 
stroke-linecap:round; stroke-linejoin:round;">
<path d="M4842 4425
L5236 4425
L5236 4575
L5217 4613
L5198 4632
L5161 4650
L5104 4650
L5067 4632
L5048 4613
L5029 4575
L5029 4425
" />
<path d="M5198 4800
L5217 4819
L5236 4857
L5236 4950
L5217 4988
L5198 5007
L5161 5025
L5123 5025
L5067 5007
L4842 4782
L4842 5025
" />
<path d="M6979 8394
L6979 8000
L7129 8000
L7167 8019
L7186 8038
L7204 8075
L7204 8132
L7186 8169
L7167 8188
L7129 8207
L6979 8207
" />
<path d="M7336 8000
L7579 8000
L7448 8150
L7504 8150
L7542 8169
L7561 8188
L7579 8225
L7579 8319
L7561 8357
L7542 8375
L7504 8394
L7392 8394
L7354 8375
L7336 8357
" />
</g>
<g style="fill:#008484; fill-opacity:0.0; 
stroke:#008484; stroke-width:80; stroke-opacity:1; 
stroke-linecap:round; stroke-linejoin:round;">
<path d="M8475 6897
L8475 6497
L8627 6497
L8665 6516
L8684 6535
L8703 6573
L8703 6630
L8684 6668
L8665 6687
L8627 6706
L8475 6706
" />
<path d="M9046 6630
L9046 6897
" />
<path d="M8951 6478
L8856 6764
L9103 6764
" />
</g>
<g style="fill:#840084; fill-opacity:0.0; 
stroke:#840084; stroke-width:78.7402; stroke-opacity:1; 
stroke-linecap:round; stroke-linejoin:round;">
<path d="M2729 1144
L2729 750
L2823 750
L2879 769
L2917 807
L2936 844
L2954 919
L2954 975
L2936 1050
L2917 1088
L2879 1125
L2823 1144
L2729 1144
" />
<path d="M3329 1144
L3104 1144
" />
<path d="M3217 1144
L3217 750
L3179 807
L3142 844
L3104 863
" />
<path d="M7954 3644
L7823 3457
" />
<path d="M7729 3644
L7729 3250
L7879 3250
L7917 3269
L7936 3288
L7954 3325
L7954 3382
L7936 3419
L7917 3438
L7879 3457
L7729 3457
" />
<path d="M8104 3288
L8123 3269
L8161 3250
L8254 3250
L8292 3269
L8311 3288
L8329 3325
L8329 3363
L8311 3419
L8086 3644
L8329 3644
" />
</g>
<g style="fill:#840084; fill-opacity:0.0; 
stroke:#840084; stroke-width:100; stroke-opacity:1; 
stroke-linecap:round; stroke-linejoin:round;">
<path d="M4770 1045
L4770 927
" />
<path d="M4809 848
L4809 1084
" />
<path d="M4888 1202
L4888 730
" />
<path d="M4888 730
L4652 966
" />
<path d="M4652 966
L4888 1202
" />
<path d="M4455 612
L4455 1320
" />
<path d="M5085 1320
L5085 612
" />
<path d="M5400 1320
L4140 1320
" />
<path d="M4140 1320
L4140 612
" />
<path d="M4140 612
L5400 612
" />
<path d="M5400 612
L5400 1320
" />
</g>
<g style="fill:#840084; fill-opacity:0.0; 
stroke:#840084; stroke-width:50; stroke-opacity:1; 
stroke-linecap:round; stroke-linejoin:round;">
<path d="M7570 2396
L7570 3036
" />
<path d="M8470 3036
L8470 2396
" />
<path d="M8650 3036
L8650 2396
" />
<path d="M8650 2396
L7390 2396
" />
<path d="M7390 2396
L7390 3036
" />
<path d="M7390 3036
L8650 3036
" />
</g> 
</svg>
