M48
INCH,TZ
T1C0.025
T2C0.031
T3C0.039
T4C0.059
%
G90
G05
T1
X55962Y-39929
X58686Y-40062
X59143Y-39054
X59514Y-40822
X60277Y-39237
X61821Y-36657
T2
X56503Y-36595
X57998Y-36596
T3
X56000Y-42750
X56000Y-44000
X57000Y-42750
X57000Y-44000
X58000Y-44000
X59000Y-44000
X60000Y-37000
X60000Y-44000
X61000Y-37000
X61250Y-38500
X61250Y-39500
X61250Y-40500
X61250Y-41500
X61250Y-42500
X61250Y-43500
T4
X54500Y-36500
X54500Y-37500
X54500Y-38500
X54500Y-39500
X54500Y-40500
X54500Y-41500
X54500Y-42500
X54500Y-43500
X54500Y-44500
X54500Y-45500
X55500Y-45500
X56500Y-45500
X57500Y-45500
X58500Y-45500
X59500Y-45500
X60500Y-45500
X61500Y-45500
X62500Y-36500
X62500Y-37500
X62500Y-38500
X62500Y-39500
X62500Y-40500
X62500Y-41500
X62500Y-42500
X62500Y-43500
X62500Y-44500
X62500Y-45500
T0
M30
