<?xml version="1.0" standalone="no"?>
 <!DOCTYPE svg PUBLIC "-//W3C//DTD SVG 1.1//EN" 
 "http://www.w3.org/Graphics/SVG/1.1/DTD/svg11.dtd"> 
<svg xmlns="http://www.w3.org/2000/svg" version="1.1" 
    width="29.7002cm" height="21.0007cm" viewBox="0 0 116930 82680 ">
<title>SVG Picture created as microduino-F_SilkS.svg date 2015/03/15 10:20:11 </title>
  <desc>Picture generated by PCBNEW </desc>
<g style="fill:#000000; fill-opacity:1;stroke:#000000; stroke-opacity:1;
stroke-linecap:round; stroke-linejoin:round; "
 transform="translate(0 0) scale(1 1)">
</g>
<g style="fill:#000000; fill-opacity:0.0; 
stroke:#000000; stroke-width:39.3701; stroke-opacity:1; 
stroke-linecap:round; stroke-linejoin:round;">
</g>
<g style="fill:#000000; fill-opacity:0.0; 
stroke:#000000; stroke-width:59.0551; stroke-opacity:1; 
stroke-linecap:round; stroke-linejoin:round;">
<rect x="69685.9" y="65357.2" width="42519.7" height="12598.4" rx="0" />
</g>
<g style="fill:#000000; fill-opacity:0.0; 
stroke:#000000; stroke-width:39.3701; stroke-opacity:1; 
stroke-linecap:round; stroke-linejoin:round;">
</g>
<g style="fill:#000000; fill-opacity:0.0; 
stroke:#000000; stroke-width:59.0551; stroke-opacity:1; 
stroke-linecap:round; stroke-linejoin:round;">
<rect x="3937.01" y="3937.01" width="109056" height="74806" rx="0" />
</g>
<g style="fill:#000000; fill-opacity:0.0; 
stroke:#000000; stroke-width:39.3701; stroke-opacity:1; 
stroke-linecap:round; stroke-linejoin:round;">
</g>
<g style="fill:#000000; fill-opacity:0.0; 
stroke:#000000; stroke-width:59.0551; stroke-opacity:1; 
stroke-linecap:round; stroke-linejoin:round;">
<rect x="4724.41" y="4724.41" width="107481" height="73231.2" rx="0" />
</g>
<g style="fill:#000000; fill-opacity:0.0; 
stroke:#000000; stroke-width:39.3701; stroke-opacity:1; 
stroke-linecap:round; stroke-linejoin:round;">
</g>
<g style="fill:#000000; fill-opacity:0.0; 
stroke:#000000; stroke-width:59.0551; stroke-opacity:1; 
stroke-linecap:round; stroke-linejoin:round;">
<path d="M23622 4724
L23622 3937
" />
</g>
<g style="fill:#000000; fill-opacity:0.0; 
stroke:#000000; stroke-width:39.3701; stroke-opacity:1; 
stroke-linecap:round; stroke-linejoin:round;">
</g>
<g style="fill:#000000; fill-opacity:0.0; 
stroke:#000000; stroke-width:59.0551; stroke-opacity:1; 
stroke-linecap:round; stroke-linejoin:round;">
<path d="M43307 4724
L43307 3937
" />
</g>
<g style="fill:#000000; fill-opacity:0.0; 
stroke:#000000; stroke-width:39.3701; stroke-opacity:1; 
stroke-linecap:round; stroke-linejoin:round;">
</g>
<g style="fill:#000000; fill-opacity:0.0; 
stroke:#000000; stroke-width:59.0551; stroke-opacity:1; 
stroke-linecap:round; stroke-linejoin:round;">
<path d="M62992 4724
L62992 3937
" />
</g>
<g style="fill:#000000; fill-opacity:0.0; 
stroke:#000000; stroke-width:39.3701; stroke-opacity:1; 
stroke-linecap:round; stroke-linejoin:round;">
</g>
<g style="fill:#000000; fill-opacity:0.0; 
stroke:#000000; stroke-width:59.0551; stroke-opacity:1; 
stroke-linecap:round; stroke-linejoin:round;">
<path d="M82677 4724
L82677 3937
" />
</g>
<g style="fill:#000000; fill-opacity:0.0; 
stroke:#000000; stroke-width:39.3701; stroke-opacity:1; 
stroke-linecap:round; stroke-linejoin:round;">
</g>
<g style="fill:#000000; fill-opacity:0.0; 
stroke:#000000; stroke-width:59.0551; stroke-opacity:1; 
stroke-linecap:round; stroke-linejoin:round;">
<path d="M102362 4724
L102362 3937
" />
</g>
<g style="fill:#000000; fill-opacity:0.0; 
stroke:#000000; stroke-width:39.3701; stroke-opacity:1; 
stroke-linecap:round; stroke-linejoin:round;">
</g>
<g style="fill:#000000; fill-opacity:0.0; 
stroke:#000000; stroke-width:59.0551; stroke-opacity:1; 
stroke-linecap:round; stroke-linejoin:round;">
<path d="M14169 4562
L13877 4562
" />
<path d="M14023 4562
L14023 4050
L13974 4123
L13925 4172
L13877 4196
" />
</g>
<g style="fill:#000000; fill-opacity:0.0; 
stroke:#000000; stroke-width:39.3701; stroke-opacity:1; 
stroke-linecap:round; stroke-linejoin:round;">
</g>
<g style="fill:#000000; fill-opacity:0.0; 
stroke:#000000; stroke-width:59.0551; stroke-opacity:1; 
stroke-linecap:round; stroke-linejoin:round;">
<path d="M33562 4099
L33586 4074
L33635 4050
L33757 4050
L33805 4074
L33830 4099
L33854 4147
L33854 4196
L33830 4269
L33537 4562
L33854 4562
" />
</g>
<g style="fill:#000000; fill-opacity:0.0; 
stroke:#000000; stroke-width:39.3701; stroke-opacity:1; 
stroke-linecap:round; stroke-linejoin:round;">
</g>
<g style="fill:#000000; fill-opacity:0.0; 
stroke:#000000; stroke-width:59.0551; stroke-opacity:1; 
stroke-linecap:round; stroke-linejoin:round;">
<path d="M53222 4050
L53539 4050
L53368 4245
L53442 4245
L53490 4269
L53515 4294
L53539 4342
L53539 4464
L53515 4513
L53490 4537
L53442 4562
L53295 4562
L53247 4537
L53222 4513
" />
</g>
<g style="fill:#000000; fill-opacity:0.0; 
stroke:#000000; stroke-width:39.3701; stroke-opacity:1; 
stroke-linecap:round; stroke-linejoin:round;">
</g>
<g style="fill:#000000; fill-opacity:0.0; 
stroke:#000000; stroke-width:59.0551; stroke-opacity:1; 
stroke-linecap:round; stroke-linejoin:round;">
<path d="M73175 4221
L73175 4562
" />
<path d="M73053 4026
L72932 4391
L73248 4391
" />
</g>
<g style="fill:#000000; fill-opacity:0.0; 
stroke:#000000; stroke-width:39.3701; stroke-opacity:1; 
stroke-linecap:round; stroke-linejoin:round;">
</g>
<g style="fill:#000000; fill-opacity:0.0; 
stroke:#000000; stroke-width:59.0551; stroke-opacity:1; 
stroke-linecap:round; stroke-linejoin:round;">
<path d="M92885 4050
L92641 4050
L92617 4294
L92641 4269
L92690 4245
L92812 4245
L92860 4269
L92885 4294
L92909 4342
L92909 4464
L92885 4513
L92860 4537
L92812 4562
L92690 4562
L92641 4537
L92617 4513
" />
</g>
<g style="fill:#000000; fill-opacity:0.0; 
stroke:#000000; stroke-width:39.3701; stroke-opacity:1; 
stroke-linecap:round; stroke-linejoin:round;">
</g>
<g style="fill:#000000; fill-opacity:0.0; 
stroke:#000000; stroke-width:59.0551; stroke-opacity:1; 
stroke-linecap:round; stroke-linejoin:round;">
<path d="M112545 4050
L112448 4050
L112399 4074
L112375 4099
L112326 4172
L112302 4269
L112302 4464
L112326 4513
L112350 4537
L112399 4562
L112497 4562
L112545 4537
L112570 4513
L112594 4464
L112594 4342
L112570 4294
L112545 4269
L112497 4245
L112399 4245
L112350 4269
L112326 4294
L112302 4342
" />
</g>
<g style="fill:#000000; fill-opacity:0.0; 
stroke:#000000; stroke-width:39.3701; stroke-opacity:1; 
stroke-linecap:round; stroke-linejoin:round;">
</g>
<g style="fill:#000000; fill-opacity:0.0; 
stroke:#000000; stroke-width:59.0551; stroke-opacity:1; 
stroke-linecap:round; stroke-linejoin:round;">
<path d="M23622 77955
L23622 78742
" />
</g>
<g style="fill:#000000; fill-opacity:0.0; 
stroke:#000000; stroke-width:39.3701; stroke-opacity:1; 
stroke-linecap:round; stroke-linejoin:round;">
</g>
<g style="fill:#000000; fill-opacity:0.0; 
stroke:#000000; stroke-width:59.0551; stroke-opacity:1; 
stroke-linecap:round; stroke-linejoin:round;">
<path d="M43307 77955
L43307 78742
" />
</g>
<g style="fill:#000000; fill-opacity:0.0; 
stroke:#000000; stroke-width:39.3701; stroke-opacity:1; 
stroke-linecap:round; stroke-linejoin:round;">
</g>
<g style="fill:#000000; fill-opacity:0.0; 
stroke:#000000; stroke-width:59.0551; stroke-opacity:1; 
stroke-linecap:round; stroke-linejoin:round;">
<path d="M62992 77955
L62992 78742
" />
</g>
<g style="fill:#000000; fill-opacity:0.0; 
stroke:#000000; stroke-width:39.3701; stroke-opacity:1; 
stroke-linecap:round; stroke-linejoin:round;">
</g>
<g style="fill:#000000; fill-opacity:0.0; 
stroke:#000000; stroke-width:59.0551; stroke-opacity:1; 
stroke-linecap:round; stroke-linejoin:round;">
<path d="M82677 77955
L82677 78742
" />
</g>
<g style="fill:#000000; fill-opacity:0.0; 
stroke:#000000; stroke-width:39.3701; stroke-opacity:1; 
stroke-linecap:round; stroke-linejoin:round;">
</g>
<g style="fill:#000000; fill-opacity:0.0; 
stroke:#000000; stroke-width:59.0551; stroke-opacity:1; 
stroke-linecap:round; stroke-linejoin:round;">
<path d="M102362 77955
L102362 78742
" />
</g>
<g style="fill:#000000; fill-opacity:0.0; 
stroke:#000000; stroke-width:39.3701; stroke-opacity:1; 
stroke-linecap:round; stroke-linejoin:round;">
</g>
<g style="fill:#000000; fill-opacity:0.0; 
stroke:#000000; stroke-width:59.0551; stroke-opacity:1; 
stroke-linecap:round; stroke-linejoin:round;">
<path d="M14169 78580
L13877 78580
" />
<path d="M14023 78580
L14023 78069
L13974 78142
L13925 78190
L13877 78215
" />
</g>
<g style="fill:#000000; fill-opacity:0.0; 
stroke:#000000; stroke-width:39.3701; stroke-opacity:1; 
stroke-linecap:round; stroke-linejoin:round;">
</g>
<g style="fill:#000000; fill-opacity:0.0; 
stroke:#000000; stroke-width:59.0551; stroke-opacity:1; 
stroke-linecap:round; stroke-linejoin:round;">
<path d="M33562 78117
L33586 78093
L33635 78069
L33757 78069
L33805 78093
L33830 78117
L33854 78166
L33854 78215
L33830 78288
L33537 78580
L33854 78580
" />
</g>
<g style="fill:#000000; fill-opacity:0.0; 
stroke:#000000; stroke-width:39.3701; stroke-opacity:1; 
stroke-linecap:round; stroke-linejoin:round;">
</g>
<g style="fill:#000000; fill-opacity:0.0; 
stroke:#000000; stroke-width:59.0551; stroke-opacity:1; 
stroke-linecap:round; stroke-linejoin:round;">
<path d="M53222 78069
L53539 78069
L53368 78263
L53442 78263
L53490 78288
L53515 78312
L53539 78361
L53539 78483
L53515 78532
L53490 78556
L53442 78580
L53295 78580
L53247 78556
L53222 78532
" />
</g>
<g style="fill:#000000; fill-opacity:0.0; 
stroke:#000000; stroke-width:39.3701; stroke-opacity:1; 
stroke-linecap:round; stroke-linejoin:round;">
</g>
<g style="fill:#000000; fill-opacity:0.0; 
stroke:#000000; stroke-width:59.0551; stroke-opacity:1; 
stroke-linecap:round; stroke-linejoin:round;">
<path d="M73175 78239
L73175 78580
" />
<path d="M73053 78044
L72932 78410
L73248 78410
" />
</g>
<g style="fill:#000000; fill-opacity:0.0; 
stroke:#000000; stroke-width:39.3701; stroke-opacity:1; 
stroke-linecap:round; stroke-linejoin:round;">
</g>
<g style="fill:#000000; fill-opacity:0.0; 
stroke:#000000; stroke-width:59.0551; stroke-opacity:1; 
stroke-linecap:round; stroke-linejoin:round;">
<path d="M92885 78069
L92641 78069
L92617 78312
L92641 78288
L92690 78263
L92812 78263
L92860 78288
L92885 78312
L92909 78361
L92909 78483
L92885 78532
L92860 78556
L92812 78580
L92690 78580
L92641 78556
L92617 78532
" />
</g>
<g style="fill:#000000; fill-opacity:0.0; 
stroke:#000000; stroke-width:39.3701; stroke-opacity:1; 
stroke-linecap:round; stroke-linejoin:round;">
</g>
<g style="fill:#000000; fill-opacity:0.0; 
stroke:#000000; stroke-width:59.0551; stroke-opacity:1; 
stroke-linecap:round; stroke-linejoin:round;">
<path d="M112545 78069
L112448 78069
L112399 78093
L112375 78117
L112326 78190
L112302 78288
L112302 78483
L112326 78532
L112350 78556
L112399 78580
L112497 78580
L112545 78556
L112570 78532
L112594 78483
L112594 78361
L112570 78312
L112545 78288
L112497 78263
L112399 78263
L112350 78288
L112326 78312
L112302 78361
" />
</g>
<g style="fill:#000000; fill-opacity:0.0; 
stroke:#000000; stroke-width:39.3701; stroke-opacity:1; 
stroke-linecap:round; stroke-linejoin:round;">
</g>
<g style="fill:#000000; fill-opacity:0.0; 
stroke:#000000; stroke-width:59.0551; stroke-opacity:1; 
stroke-linecap:round; stroke-linejoin:round;">
<path d="M3937 23622
L4724 23622
" />
</g>
<g style="fill:#000000; fill-opacity:0.0; 
stroke:#000000; stroke-width:39.3701; stroke-opacity:1; 
stroke-linecap:round; stroke-linejoin:round;">
</g>
<g style="fill:#000000; fill-opacity:0.0; 
stroke:#000000; stroke-width:59.0551; stroke-opacity:1; 
stroke-linecap:round; stroke-linejoin:round;">
<path d="M3937 43307
L4724 43307
" />
</g>
<g style="fill:#000000; fill-opacity:0.0; 
stroke:#000000; stroke-width:39.3701; stroke-opacity:1; 
stroke-linecap:round; stroke-linejoin:round;">
</g>
<g style="fill:#000000; fill-opacity:0.0; 
stroke:#000000; stroke-width:59.0551; stroke-opacity:1; 
stroke-linecap:round; stroke-linejoin:round;">
<path d="M3937 62992
L4724 62992
" />
</g>
<g style="fill:#000000; fill-opacity:0.0; 
stroke:#000000; stroke-width:39.3701; stroke-opacity:1; 
stroke-linecap:round; stroke-linejoin:round;">
</g>
<g style="fill:#000000; fill-opacity:0.0; 
stroke:#000000; stroke-width:59.0551; stroke-opacity:1; 
stroke-linecap:round; stroke-linejoin:round;">
<path d="M4208 13864
L4452 13864
" />
<path d="M4160 14011
L4330 13499
L4501 14011
" />
</g>
<g style="fill:#000000; fill-opacity:0.0; 
stroke:#000000; stroke-width:39.3701; stroke-opacity:1; 
stroke-linecap:round; stroke-linejoin:round;">
</g>
<g style="fill:#000000; fill-opacity:0.0; 
stroke:#000000; stroke-width:59.0551; stroke-opacity:1; 
stroke-linecap:round; stroke-linejoin:round;">
<path d="M4367 33428
L4440 33452
L4464 33476
L4489 33525
L4489 33598
L4464 33647
L4440 33671
L4391 33696
L4196 33696
L4196 33184
L4367 33184
L4416 33208
L4440 33233
L4464 33281
L4464 33330
L4440 33379
L4416 33403
L4367 33428
L4196 33428
" />
</g>
<g style="fill:#000000; fill-opacity:0.0; 
stroke:#000000; stroke-width:39.3701; stroke-opacity:1; 
stroke-linecap:round; stroke-linejoin:round;">
</g>
<g style="fill:#000000; fill-opacity:0.0; 
stroke:#000000; stroke-width:59.0551; stroke-opacity:1; 
stroke-linecap:round; stroke-linejoin:round;">
<path d="M4489 53332
L4464 53356
L4391 53381
L4342 53381
L4269 53356
L4221 53308
L4196 53259
L4172 53161
L4172 53088
L4196 52991
L4221 52942
L4269 52893
L4342 52869
L4391 52869
L4464 52893
L4489 52918
" />
</g>
<g style="fill:#000000; fill-opacity:0.0; 
stroke:#000000; stroke-width:39.3701; stroke-opacity:1; 
stroke-linecap:round; stroke-linejoin:round;">
</g>
<g style="fill:#000000; fill-opacity:0.0; 
stroke:#000000; stroke-width:59.0551; stroke-opacity:1; 
stroke-linecap:round; stroke-linejoin:round;">
<path d="M4196 73066
L4196 72554
L4318 72554
L4391 72578
L4440 72627
L4464 72676
L4489 72773
L4489 72846
L4464 72944
L4440 72993
L4391 73041
L4318 73066
L4196 73066
" />
</g>
<g style="fill:#000000; fill-opacity:0.0; 
stroke:#000000; stroke-width:39.3701; stroke-opacity:1; 
stroke-linecap:round; stroke-linejoin:round;">
</g>
<g style="fill:#000000; fill-opacity:0.0; 
stroke:#000000; stroke-width:59.0551; stroke-opacity:1; 
stroke-linecap:round; stroke-linejoin:round;">
<path d="M112992 23622
L112205 23622
" />
</g>
<g style="fill:#000000; fill-opacity:0.0; 
stroke:#000000; stroke-width:39.3701; stroke-opacity:1; 
stroke-linecap:round; stroke-linejoin:round;">
</g>
<g style="fill:#000000; fill-opacity:0.0; 
stroke:#000000; stroke-width:59.0551; stroke-opacity:1; 
stroke-linecap:round; stroke-linejoin:round;">
<path d="M112992 43307
L112205 43307
" />
</g>
<g style="fill:#000000; fill-opacity:0.0; 
stroke:#000000; stroke-width:39.3701; stroke-opacity:1; 
stroke-linecap:round; stroke-linejoin:round;">
</g>
<g style="fill:#000000; fill-opacity:0.0; 
stroke:#000000; stroke-width:59.0551; stroke-opacity:1; 
stroke-linecap:round; stroke-linejoin:round;">
<path d="M112992 62992
L112205 62992
" />
</g>
<g style="fill:#000000; fill-opacity:0.0; 
stroke:#000000; stroke-width:39.3701; stroke-opacity:1; 
stroke-linecap:round; stroke-linejoin:round;">
</g>
<g style="fill:#000000; fill-opacity:0.0; 
stroke:#000000; stroke-width:59.0551; stroke-opacity:1; 
stroke-linecap:round; stroke-linejoin:round;">
<path d="M112477 13864
L112721 13864
" />
<path d="M112428 14011
L112599 13499
L112769 14011
" />
</g>
<g style="fill:#000000; fill-opacity:0.0; 
stroke:#000000; stroke-width:39.3701; stroke-opacity:1; 
stroke-linecap:round; stroke-linejoin:round;">
</g>
<g style="fill:#000000; fill-opacity:0.0; 
stroke:#000000; stroke-width:59.0551; stroke-opacity:1; 
stroke-linecap:round; stroke-linejoin:round;">
<path d="M112635 33428
L112708 33452
L112733 33476
L112757 33525
L112757 33598
L112733 33647
L112708 33671
L112660 33696
L112465 33696
L112465 33184
L112635 33184
L112684 33208
L112708 33233
L112733 33281
L112733 33330
L112708 33379
L112684 33403
L112635 33428
L112465 33428
" />
</g>
<g style="fill:#000000; fill-opacity:0.0; 
stroke:#000000; stroke-width:39.3701; stroke-opacity:1; 
stroke-linecap:round; stroke-linejoin:round;">
</g>
<g style="fill:#000000; fill-opacity:0.0; 
stroke:#000000; stroke-width:59.0551; stroke-opacity:1; 
stroke-linecap:round; stroke-linejoin:round;">
<path d="M112757 53332
L112733 53356
L112660 53381
L112611 53381
L112538 53356
L112489 53308
L112465 53259
L112440 53161
L112440 53088
L112465 52991
L112489 52942
L112538 52893
L112611 52869
L112660 52869
L112733 52893
L112757 52918
" />
</g>
<g style="fill:#000000; fill-opacity:0.0; 
stroke:#000000; stroke-width:39.3701; stroke-opacity:1; 
stroke-linecap:round; stroke-linejoin:round;">
</g>
<g style="fill:#000000; fill-opacity:0.0; 
stroke:#000000; stroke-width:59.0551; stroke-opacity:1; 
stroke-linecap:round; stroke-linejoin:round;">
<path d="M112465 73066
L112465 72554
L112587 72554
L112660 72578
L112708 72627
L112733 72676
L112757 72773
L112757 72846
L112733 72944
L112708 72993
L112660 73041
L112587 73066
L112465 73066
" />
</g>
<g style="fill:#000000; fill-opacity:0.0; 
stroke:#000000; stroke-width:39.3701; stroke-opacity:1; 
stroke-linecap:round; stroke-linejoin:round;">
</g>
<g style="fill:#000000; fill-opacity:0.0; 
stroke:#000000; stroke-width:59.0551; stroke-opacity:1; 
stroke-linecap:round; stroke-linejoin:round;">
<path d="M78881 76293
L78881 75703
L79022 75703
L79106 75731
L79162 75787
L79190 75843
L79219 75956
L79219 76040
L79190 76153
L79162 76209
L79106 76265
L79022 76293
L78881 76293
" />
<path d="M79725 76293
L79725 75984
L79697 75928
L79640 75899
L79528 75899
L79472 75928
" />
<path d="M79725 76265
L79669 76293
L79528 76293
L79472 76265
L79444 76209
L79444 76153
L79472 76096
L79528 76068
L79669 76068
L79725 76040
" />
<path d="M79922 75899
L80147 75899
" />
<path d="M80006 75703
L80006 76209
L80034 76265
L80090 76293
L80147 76293
" />
<path d="M80568 76265
L80512 76293
L80400 76293
L80343 76265
L80315 76209
L80315 75984
L80343 75928
L80400 75899
L80512 75899
L80568 75928
L80597 75984
L80597 76040
L80315 76096
" />
<path d="M80850 76237
L80878 76265
L80850 76293
L80822 76265
L80850 76237
L80850 76293
" />
<path d="M80850 75928
L80878 75956
L80850 75984
L80822 75956
L80850 75928
L80850 75984
" />
</g>
<g style="fill:#000000; fill-opacity:0.0; 
stroke:#000000; stroke-width:39.3701; stroke-opacity:1; 
stroke-linecap:round; stroke-linejoin:round;">
</g>
<g style="fill:#000000; fill-opacity:0.0; 
stroke:#000000; stroke-width:59.0551; stroke-opacity:1; 
stroke-linecap:round; stroke-linejoin:round;">
<path d="M69685 76577
L112205 76577
" />
</g>
<g style="fill:#000000; fill-opacity:0.0; 
stroke:#000000; stroke-width:39.3701; stroke-opacity:1; 
stroke-linecap:round; stroke-linejoin:round;">
</g>
<g style="fill:#000000; fill-opacity:0.0; 
stroke:#000000; stroke-width:59.0551; stroke-opacity:1; 
stroke-linecap:round; stroke-linejoin:round;">
<path d="M70220 77395
L70220 76805
" />
<path d="M70557 77395
L70304 77058
" />
<path d="M70557 76805
L70220 77142
" />
<path d="M70810 77395
L70810 77002
" />
<path d="M70810 76805
L70782 76833
L70810 76861
L70838 76833
L70810 76805
L70810 76861
" />
<path d="M71429 77339
L71401 77367
L71316 77395
L71260 77395
L71176 77367
L71120 77311
L71091 77255
L71063 77142
L71063 77058
L71091 76946
L71120 76889
L71176 76833
L71260 76805
L71316 76805
L71401 76833
L71429 76861
" />
<path d="M71935 77395
L71935 77086
L71907 77030
L71851 77002
L71738 77002
L71682 77030
" />
<path d="M71935 77367
L71879 77395
L71738 77395
L71682 77367
L71654 77311
L71654 77255
L71682 77199
L71738 77171
L71879 77171
L71935 77142
" />
<path d="M72469 77395
L72469 76805
" />
<path d="M72469 77367
L72413 77395
L72301 77395
L72244 77367
L72216 77339
L72188 77283
L72188 77114
L72216 77058
L72244 77030
L72301 77002
L72413 77002
L72469 77030
" />
<path d="M73201 77086
L73397 77086
" />
<path d="M73482 77395
L73201 77395
L73201 76805
L73482 76805
" />
<path d="M73735 77339
L73763 77367
L73735 77395
L73707 77367
L73735 77339
L73735 77395
" />
<path d="M74016 77395
L74016 76805
L74157 76805
L74241 76833
L74297 76889
L74325 76946
L74354 77058
L74354 77142
L74325 77255
L74297 77311
L74241 77367
L74157 77395
L74016 77395
" />
<path d="M74607 77339
L74635 77367
L74607 77395
L74579 77367
L74607 77339
L74607 77395
" />
<path d="M74860 77227
L75141 77227
" />
<path d="M74804 77395
L75000 76805
L75197 77395
" />
<path d="M75394 77339
L75422 77367
L75394 77395
L75366 77367
L75394 77339
L75394 77395
" />
<path d="M76575 77395
L76575 76805
" />
<path d="M76631 77171
L76800 77395
" />
<path d="M76800 77002
L76575 77227
" />
<path d="M77053 77395
L77053 77002
" />
<path d="M77053 76805
L77025 76833
L77053 76861
L77081 76833
L77053 76805
L77053 76861
" />
<path d="M77588 77367
L77531 77395
L77419 77395
L77363 77367
L77334 77339
L77306 77283
L77306 77114
L77334 77058
L77363 77030
L77419 77002
L77531 77002
L77588 77030
" />
<path d="M78094 77395
L78094 77086
L78066 77030
L78009 77002
L77897 77002
L77841 77030
" />
<path d="M78094 77367
L78037 77395
L77897 77395
L77841 77367
L77813 77311
L77813 77255
L77841 77199
L77897 77171
L78037 77171
L78094 77142
" />
<path d="M78628 77395
L78628 76805
" />
<path d="M78628 77367
L78572 77395
L78459 77395
L78403 77367
L78375 77339
L78347 77283
L78347 77114
L78375 77058
L78403 77030
L78459 77002
L78572 77002
L78628 77030
" />
<path d="M79528 77620
L79500 77592
L79444 77508
L79415 77452
L79387 77367
L79359 77227
L79359 77114
L79387 76974
L79415 76889
L79444 76833
L79500 76749
L79528 76721
" />
<path d="M79725 76861
L79753 76833
L79809 76805
L79950 76805
L80006 76833
L80034 76861
L80062 76917
L80062 76974
L80034 77058
L79697 77395
L80062 77395
" />
<path d="M80428 76805
L80484 76805
L80540 76833
L80568 76861
L80597 76917
L80625 77030
L80625 77171
L80597 77283
L80568 77339
L80540 77367
L80484 77395
L80428 77395
L80372 77367
L80343 77339
L80315 77283
L80287 77171
L80287 77030
L80315 76917
L80343 76861
L80372 76833
L80428 76805
" />
<path d="M81187 77395
L80850 77395
" />
<path d="M81018 77395
L81018 76805
L80962 76889
L80906 76946
L80850 76974
" />
<path d="M81693 77002
L81693 77395
" />
<path d="M81553 76777
L81412 77199
L81778 77199
" />
<path d="M82003 77171
L82453 77171
" />
<path d="M83043 77395
L82706 77395
" />
<path d="M82874 77395
L82874 76805
L82818 76889
L82762 76946
L82706 76974
" />
<path d="M83268 76861
L83296 76833
L83352 76805
L83493 76805
L83549 76833
L83577 76861
L83606 76917
L83606 76974
L83577 77058
L83240 77395
L83606 77395
" />
<path d="M83859 77171
L84309 77171
" />
<path d="M84702 76805
L84759 76805
L84815 76833
L84843 76861
L84871 76917
L84899 77030
L84899 77171
L84871 77283
L84843 77339
L84815 77367
L84759 77395
L84702 77395
L84646 77367
L84618 77339
L84590 77283
L84562 77171
L84562 77030
L84590 76917
L84618 76861
L84646 76833
L84702 76805
" />
<path d="M85096 76805
L85462 76805
L85265 77030
L85349 77030
L85405 77058
L85433 77086
L85462 77142
L85462 77283
L85433 77339
L85405 77367
L85349 77395
L85180 77395
L85124 77367
L85096 77339
" />
<path d="M86361 77086
L86446 77114
L86474 77142
L86502 77199
L86502 77283
L86474 77339
L86446 77367
L86390 77395
L86165 77395
L86165 76805
L86361 76805
L86418 76833
L86446 76861
L86474 76917
L86474 76974
L86446 77030
L86418 77058
L86361 77086
L86165 77086
" />
<path d="M86699 76805
L87093 76805
L86699 77395
L87093 77395
" />
<path d="M87655 77395
L87458 77114
" />
<path d="M87318 77395
L87318 76805
L87543 76805
L87599 76833
L87627 76861
L87655 76917
L87655 77002
L87627 77058
L87599 77086
L87543 77114
L87318 77114
" />
<path d="M88639 76805
L88358 76805
L88330 77086
L88358 77058
L88414 77030
L88555 77030
L88611 77058
L88639 77086
L88667 77142
L88667 77283
L88639 77339
L88611 77367
L88555 77395
L88414 77395
L88358 77367
L88330 77339
" />
<path d="M88864 76805
L89230 76805
L89033 77030
L89117 77030
L89174 77058
L89202 77086
L89230 77142
L89230 77283
L89202 77339
L89174 77367
L89117 77395
L88949 77395
L88892 77367
L88864 77339
" />
<path d="M89792 77395
L89455 77395
" />
<path d="M89624 77395
L89624 76805
L89567 76889
L89511 76946
L89455 76974
" />
<path d="M90355 77395
L90017 77395
" />
<path d="M90186 77395
L90186 76805
L90130 76889
L90073 76946
L90017 76974
" />
<path d="M90552 77620
L90580 77592
L90636 77508
L90664 77452
L90692 77367
L90720 77227
L90720 77114
L90692 76974
L90664 76889
L90636 76833
L90580 76749
L90552 76721
" />
<path d="M91001 77171
L91451 77171
" />
<path d="M91733 77002
L91733 77592
" />
<path d="M91733 77030
L91789 77002
L91901 77002
L91958 77030
L91986 77058
L92014 77114
L92014 77283
L91986 77339
L91958 77367
L91901 77395
L91789 77395
L91733 77367
" />
<path d="M92267 77395
L92267 77002
" />
<path d="M92267 77114
L92295 77058
L92323 77030
L92379 77002
L92436 77002
" />
<path d="M92717 77395
L92661 77367
L92633 77339
L92604 77283
L92604 77114
L92633 77058
L92661 77030
L92717 77002
L92801 77002
L92858 77030
L92886 77058
L92914 77114
L92914 77283
L92886 77339
L92858 77367
L92801 77395
L92717 77395
" />
<path d="M93420 77395
L93420 76805
" />
<path d="M93420 77367
L93364 77395
L93251 77395
L93195 77367
L93167 77339
L93139 77283
L93139 77114
L93167 77058
L93195 77030
L93251 77002
L93364 77002
L93420 77030
" />
<path d="M93954 77002
L93954 77395
" />
<path d="M93701 77002
L93701 77311
L93729 77367
L93786 77395
L93870 77395
L93926 77367
L93954 77339
" />
<path d="M94489 77367
L94432 77395
L94320 77395
L94264 77367
L94235 77339
L94207 77283
L94207 77114
L94235 77058
L94264 77030
L94320 77002
L94432 77002
L94489 77030
" />
<path d="M94657 77002
L94882 77002
" />
<path d="M94742 76805
L94742 77311
L94770 77367
L94826 77395
L94882 77395
" />
</g>
<g style="fill:#000000; fill-opacity:0.0; 
stroke:#000000; stroke-width:39.3701; stroke-opacity:1; 
stroke-linecap:round; stroke-linejoin:round;">
</g>
<g style="fill:#000000; fill-opacity:0.0; 
stroke:#000000; stroke-width:59.0551; stroke-opacity:1; 
stroke-linecap:round; stroke-linejoin:round;">
<path d="M69685 75396
L112205 75396
" />
</g>
<g style="fill:#000000; fill-opacity:0.0; 
stroke:#000000; stroke-width:39.3701; stroke-opacity:1; 
stroke-linecap:round; stroke-linejoin:round;">
</g>
<g style="fill:#000000; fill-opacity:0.0; 
stroke:#000000; stroke-width:118.11; stroke-opacity:1; 
stroke-linecap:round; stroke-linejoin:round;">
<path d="M104022 76293
L103825 76012
" />
<path d="M103684 76293
L103684 75703
L103909 75703
L103965 75731
L103994 75759
L104022 75815
L104022 75899
L103994 75956
L103965 75984
L103909 76012
L103684 76012
" />
<path d="M104500 76265
L104444 76293
L104331 76293
L104275 76265
L104247 76209
L104247 75984
L104275 75928
L104331 75899
L104444 75899
L104500 75928
L104528 75984
L104528 76040
L104247 76096
" />
<path d="M104725 75899
L104865 76293
L105006 75899
" />
<path d="M105231 76237
L105259 76265
L105231 76293
L105203 76265
L105231 76237
L105231 76293
" />
<path d="M105231 75928
L105259 75956
L105231 75984
L105203 75956
L105231 75928
L105231 75984
" />
</g>
<g style="fill:#000000; fill-opacity:0.0; 
stroke:#000000; stroke-width:39.3701; stroke-opacity:1; 
stroke-linecap:round; stroke-linejoin:round;">
</g>
<g style="fill:#000000; fill-opacity:0.0; 
stroke:#000000; stroke-width:59.0551; stroke-opacity:1; 
stroke-linecap:round; stroke-linejoin:round;">
<path d="M70192 76265
L70276 76293
L70417 76293
L70473 76265
L70501 76237
L70529 76181
L70529 76124
L70501 76068
L70473 76040
L70417 76012
L70304 75984
L70248 75956
L70220 75928
L70192 75871
L70192 75815
L70220 75759
L70248 75731
L70304 75703
L70445 75703
L70529 75731
" />
<path d="M70782 76293
L70782 75899
" />
<path d="M70782 75703
L70754 75731
L70782 75759
L70810 75731
L70782 75703
L70782 75759
" />
<path d="M71007 75899
L71316 75899
L71007 76293
L71316 76293
" />
<path d="M71766 76265
L71710 76293
L71598 76293
L71541 76265
L71513 76209
L71513 75984
L71541 75928
L71598 75899
L71710 75899
L71766 75928
L71795 75984
L71795 76040
L71513 76096
" />
<path d="M72048 76237
L72076 76265
L72048 76293
L72019 76265
L72048 76237
L72048 76293
" />
<path d="M72048 75928
L72076 75956
L72048 75984
L72019 75956
L72048 75928
L72048 75984
" />
<path d="M72751 76124
L73032 76124
" />
<path d="M72694 76293
L72891 75703
L73088 76293
" />
<path d="M73538 75899
L73538 76293
" />
<path d="M73397 75674
L73257 76096
L73622 76096
" />
</g>
<g style="fill:#000000; fill-opacity:0.0; 
stroke:#000000; stroke-width:39.3701; stroke-opacity:1; 
stroke-linecap:round; stroke-linejoin:round;">
</g>
<g style="fill:#000000; fill-opacity:0.0; 
stroke:#000000; stroke-width:59.0551; stroke-opacity:1; 
stroke-linecap:round; stroke-linejoin:round;">
<path d="M103684 77395
L103684 76805
" />
<path d="M104219 77395
L104219 76805
" />
<path d="M104219 77367
L104162 77395
L104050 77395
L103994 77367
L103965 77339
L103937 77283
L103937 77114
L103965 77058
L103994 77030
L104050 77002
L104162 77002
L104219 77030
" />
<path d="M104500 77339
L104528 77367
L104500 77395
L104472 77367
L104500 77339
L104500 77395
" />
<path d="M104500 77030
L104528 77058
L104500 77086
L104472 77058
L104500 77030
L104500 77086
" />
<path d="M105540 77395
L105203 77395
" />
<path d="M105372 77395
L105372 76805
L105315 76889
L105259 76946
L105203 76974
" />
<path d="M106215 76777
L105709 77536
" />
<path d="M106721 77395
L106384 77395
" />
<path d="M106553 77395
L106553 76805
L106496 76889
L106440 76946
L106384 76974
" />
</g>
<g style="fill:#000000; fill-opacity:0.0; 
stroke:#000000; stroke-width:39.3701; stroke-opacity:1; 
stroke-linecap:round; stroke-linejoin:round;">
</g>
<g style="fill:#000000; fill-opacity:0.0; 
stroke:#000000; stroke-width:59.0551; stroke-opacity:1; 
stroke-linecap:round; stroke-linejoin:round;">
<path d="M69685 73821
L112205 73821
" />
</g>
<g style="fill:#000000; fill-opacity:0.0; 
stroke:#000000; stroke-width:39.3701; stroke-opacity:1; 
stroke-linecap:round; stroke-linejoin:round;">
</g>
<g style="fill:#000000; fill-opacity:0.0; 
stroke:#000000; stroke-width:157.48; stroke-opacity:1; 
stroke-linecap:round; stroke-linejoin:round;">
<path d="M70257 74099
L70707 74099
" />
<path d="M70384 74886
L70482 74099
" />
<path d="M70871 74886
L70937 74361
" />
<path d="M70970 74099
L70927 74136
L70960 74174
L71002 74136
L70970 74099
L70960 74174
" />
<path d="M71199 74361
L71499 74361
" />
<path d="M71345 74099
L71260 74774
L71288 74849
L71359 74886
L71434 74886
" />
<path d="M71809 74886
L71738 74849
L71710 74774
L71795 74099
" />
<path d="M72413 74849
L72334 74886
L72184 74886
L72113 74849
L72085 74774
L72123 74474
L72169 74399
L72249 74361
L72399 74361
L72469 74399
L72498 74474
L72488 74549
L72104 74624
" />
<path d="M72793 74811
L72826 74849
L72783 74886
L72751 74849
L72793 74811
L72783 74886
" />
<path d="M72844 74399
L72877 74436
L72835 74474
L72802 74436
L72844 74399
L72835 74474
" />
</g>
<g style="fill:#000000; fill-opacity:0.0; 
stroke:#000000; stroke-width:39.3701; stroke-opacity:1; 
stroke-linecap:round; stroke-linejoin:round;">
</g>
<g style="fill:#000000; fill-opacity:0.0; 
stroke:#000000; stroke-width:59.0551; stroke-opacity:1; 
stroke-linecap:round; stroke-linejoin:round;">
<path d="M70417 73070
L70220 73070
" />
<path d="M70220 73380
L70220 72789
L70501 72789
" />
<path d="M70726 73380
L70726 72986
" />
<path d="M70726 72789
L70698 72817
L70726 72845
L70754 72817
L70726 72789
L70726 72845
" />
<path d="M71091 73380
L71035 73352
L71007 73295
L71007 72789
" />
<path d="M71541 73352
L71485 73380
L71373 73380
L71316 73352
L71288 73295
L71288 73070
L71316 73014
L71373 72986
L71485 72986
L71541 73014
L71570 73070
L71570 73127
L71288 73183
" />
<path d="M71823 73323
L71851 73352
L71823 73380
L71795 73352
L71823 73323
L71823 73380
" />
<path d="M71823 73014
L71851 73042
L71823 73070
L71795 73042
L71823 73014
L71823 73070
" />
<path d="M72554 73380
L72554 72986
" />
<path d="M72554 73042
L72582 73014
L72638 72986
L72723 72986
L72779 73014
L72807 73070
L72807 73380
" />
<path d="M72807 73070
L72835 73014
L72891 72986
L72976 72986
L73032 73014
L73060 73070
L73060 73380
" />
<path d="M73341 73380
L73341 72986
" />
<path d="M73341 72789
L73313 72817
L73341 72845
L73369 72817
L73341 72789
L73341 72845
" />
<path d="M73876 73352
L73819 73380
L73707 73380
L73651 73352
L73622 73323
L73594 73267
L73594 73099
L73622 73042
L73651 73014
L73707 72986
L73819 72986
L73876 73014
" />
<path d="M74129 73380
L74129 72986
" />
<path d="M74129 73099
L74157 73042
L74185 73014
L74241 72986
L74297 72986
" />
<path d="M74579 73380
L74522 73352
L74494 73323
L74466 73267
L74466 73099
L74494 73042
L74522 73014
L74579 72986
L74663 72986
L74719 73014
L74747 73042
L74775 73099
L74775 73267
L74747 73323
L74719 73352
L74663 73380
L74579 73380
" />
<path d="M75282 73380
L75282 72789
" />
<path d="M75282 73352
L75225 73380
L75113 73380
L75057 73352
L75028 73323
L75000 73267
L75000 73099
L75028 73042
L75057 73014
L75113 72986
L75225 72986
L75282 73014
" />
<path d="M75816 72986
L75816 73380
" />
<path d="M75563 72986
L75563 73295
L75591 73352
L75647 73380
L75732 73380
L75788 73352
L75816 73323
" />
<path d="M76097 73380
L76097 72986
" />
<path d="M76097 72789
L76069 72817
L76097 72845
L76125 72817
L76097 72789
L76097 72845
" />
<path d="M76378 72986
L76378 73380
" />
<path d="M76378 73042
L76406 73014
L76463 72986
L76547 72986
L76603 73014
L76631 73070
L76631 73380
" />
<path d="M76997 73380
L76941 73352
L76913 73323
L76885 73267
L76885 73099
L76913 73042
L76941 73014
L76997 72986
L77081 72986
L77138 73014
L77166 73042
L77194 73099
L77194 73267
L77166 73323
L77138 73352
L77081 73380
L76997 73380
" />
<path d="M77447 73323
L77475 73352
L77447 73380
L77419 73352
L77447 73323
L77447 73380
" />
<path d="M77728 73380
L77728 72789
" />
<path d="M77784 73155
L77953 73380
" />
<path d="M77953 72986
L77728 73211
" />
<path d="M78206 73380
L78206 72986
" />
<path d="M78206 72789
L78178 72817
L78206 72845
L78234 72817
L78206 72789
L78206 72845
" />
<path d="M78741 73352
L78684 73380
L78572 73380
L78516 73352
L78487 73323
L78459 73267
L78459 73099
L78487 73042
L78516 73014
L78572 72986
L78684 72986
L78741 73014
" />
<path d="M79247 73380
L79247 73070
L79219 73014
L79162 72986
L79050 72986
L78994 73014
" />
<path d="M79247 73352
L79190 73380
L79050 73380
L78994 73352
L78965 73295
L78965 73239
L78994 73183
L79050 73155
L79190 73155
L79247 73127
" />
<path d="M79781 73380
L79781 72789
" />
<path d="M79781 73352
L79725 73380
L79612 73380
L79556 73352
L79528 73323
L79500 73267
L79500 73099
L79528 73042
L79556 73014
L79612 72986
L79725 72986
L79781 73014
" />
<path d="M79922 73436
L80372 73436
" />
<path d="M80512 72986
L80512 73577
" />
<path d="M80512 73014
L80568 72986
L80681 72986
L80737 73014
L80765 73042
L80793 73099
L80793 73267
L80765 73323
L80737 73352
L80681 73380
L80568 73380
L80512 73352
" />
<path d="M81300 73352
L81243 73380
L81131 73380
L81075 73352
L81046 73323
L81018 73267
L81018 73099
L81046 73042
L81075 73014
L81131 72986
L81243 72986
L81300 73014
" />
<path d="M81553 73380
L81553 72789
" />
<path d="M81553 73014
L81609 72986
L81721 72986
L81778 73014
L81806 73042
L81834 73099
L81834 73267
L81806 73323
L81778 73352
L81721 73380
L81609 73380
L81553 73352
" />
</g>
<g style="fill:#000000; fill-opacity:0.0; 
stroke:#000000; stroke-width:39.3701; stroke-opacity:1; 
stroke-linecap:round; stroke-linejoin:round;">
</g>
<g style="fill:#000000; fill-opacity:0.0; 
stroke:#000000; stroke-width:59.0551; stroke-opacity:1; 
stroke-linecap:round; stroke-linejoin:round;">
<path d="M69685 71459
L112205 71459
" />
</g>
<g style="fill:#000000; fill-opacity:0.0; 
stroke:#000000; stroke-width:39.3701; stroke-opacity:1; 
stroke-linecap:round; stroke-linejoin:round;">
</g>
<g style="fill:#000000; fill-opacity:0.0; 
stroke:#000000; stroke-width:59.0551; stroke-opacity:1; 
stroke-linecap:round; stroke-linejoin:round;">
<path d="M70192 72289
L70276 72317
L70417 72317
L70473 72289
L70501 72260
L70529 72204
L70529 72148
L70501 72092
L70473 72064
L70417 72036
L70304 72007
L70248 71979
L70220 71951
L70192 71895
L70192 71839
L70220 71782
L70248 71754
L70304 71726
L70445 71726
L70529 71754
" />
<path d="M70782 72317
L70782 71726
" />
<path d="M71035 72317
L71035 72007
L71007 71951
L70951 71923
L70867 71923
L70810 71951
L70782 71979
" />
<path d="M71541 72289
L71485 72317
L71373 72317
L71316 72289
L71288 72232
L71288 72007
L71316 71951
L71373 71923
L71485 71923
L71541 71951
L71570 72007
L71570 72064
L71288 72120
" />
<path d="M72048 72289
L71991 72317
L71879 72317
L71823 72289
L71795 72232
L71795 72007
L71823 71951
L71879 71923
L71991 71923
L72048 71951
L72076 72007
L72076 72064
L71795 72120
" />
<path d="M72244 71923
L72469 71923
" />
<path d="M72329 71726
L72329 72232
L72357 72289
L72413 72317
L72469 72317
" />
<path d="M72666 72260
L72694 72289
L72666 72317
L72638 72289
L72666 72260
L72666 72317
" />
<path d="M72666 71951
L72694 71979
L72666 72007
L72638 71979
L72666 71951
L72666 72007
" />
</g>
<g style="fill:#000000; fill-opacity:0.0; 
stroke:#000000; stroke-width:39.3701; stroke-opacity:1; 
stroke-linecap:round; stroke-linejoin:round;">
</g>
<g style="fill:#000000; fill-opacity:0.0; 
stroke:#000000; stroke-width:59.0551; stroke-opacity:1; 
stroke-linecap:round; stroke-linejoin:round;">
<path d="M77559 75396
L77559 76577
" />
</g>
<g style="fill:#000000; fill-opacity:0.0; 
stroke:#000000; stroke-width:39.3701; stroke-opacity:1; 
stroke-linecap:round; stroke-linejoin:round;">
</g>
<g style="fill:#000000; fill-opacity:0.0; 
stroke:#000000; stroke-width:59.0551; stroke-opacity:1; 
stroke-linecap:round; stroke-linejoin:round;">
<path d="M102756 75396
L102756 77955
" />
</g>
<g style="fill:#C1C100; fill-opacity:0.0; 
stroke:#C1C100; stroke-width:39.3701; stroke-opacity:1; 
stroke-linecap:round; stroke-linejoin:round;">
<path d="M53500 46500
L53500 35000
" />
<path d="M63500 46500
L53500 46500
" />
<path d="M63500 35000
L63500 46500
" />
<path d="M53500 35000
L63500 35000
" />
</g>
<g style="fill:#008484; fill-opacity:0.0; 
stroke:#008484; stroke-width:80; stroke-opacity:1; 
stroke-linecap:round; stroke-linejoin:round;">
<path d="M60130 36326
L60130 35826
L60321 35826
L60369 35850
L60392 35873
L60416 35921
L60416 35992
L60392 36040
L60369 36064
L60321 36088
L60130 36088
" />
<path d="M60892 36326
L60607 36326
" />
<path d="M60750 36326
L60750 35826
L60702 35897
L60654 35945
L60607 35969
" />
<path d="M62376 41369
L61876 41369
L61876 41178
L61900 41130
L61923 41107
L61971 41083
L62042 41083
L62090 41107
L62114 41130
L62138 41178
L62138 41369
" />
<path d="M61923 40892
L61900 40869
L61876 40821
L61876 40702
L61900 40654
L61923 40630
L61971 40607
L62019 40607
L62090 40630
L62376 40916
L62376 40607
" />
</g>
<g style="fill:#008484; fill-opacity:0.0; 
stroke:#008484; stroke-width:59.0551; stroke-opacity:1; 
stroke-linecap:round; stroke-linejoin:round;">
<path d="M60434 35890
L60415 35909
L60359 35928
L60321 35928
L60265 35909
L60228 35871
L60209 35834
L60190 35759
L60190 35703
L60209 35628
L60228 35590
L60265 35553
L60321 35534
L60359 35534
L60415 35553
L60434 35571
" />
<path d="M60809 35928
L60584 35928
" />
<path d="M60696 35928
L60696 35534
L60659 35590
L60621 35628
L60584 35646
" />
<path d="M59184 42890
L59165 42909
L59109 42928
L59071 42928
L59015 42909
L58978 42871
L58959 42834
L58940 42759
L58940 42703
L58959 42628
L58978 42590
L59015 42553
L59071 42534
L59109 42534
L59165 42553
L59184 42571
" />
<path d="M59334 42571
L59353 42553
L59390 42534
L59484 42534
L59521 42553
L59540 42571
L59559 42609
L59559 42646
L59540 42703
L59315 42928
L59559 42928
" />
<path d="M59184 41640
L59165 41659
L59109 41678
L59071 41678
L59015 41659
L58978 41621
L58959 41584
L58940 41509
L58940 41453
L58959 41378
L58978 41340
L59015 41303
L59071 41284
L59109 41284
L59165 41303
L59184 41321
" />
<path d="M59315 41284
L59559 41284
L59428 41434
L59484 41434
L59521 41453
L59540 41471
L59559 41509
L59559 41603
L59540 41640
L59521 41659
L59484 41678
L59371 41678
L59334 41659
L59315 41640
" />
<path d="M54331 38168
L54650 38168
L54687 38149
L54706 38131
L54725 38093
L54725 38018
L54706 37981
L54687 37962
L54650 37943
L54331 37943
" />
<path d="M54706 37774
L54725 37718
L54725 37624
L54706 37587
L54687 37568
L54650 37549
L54612 37549
L54575 37568
L54556 37587
L54537 37624
L54519 37699
L54500 37737
L54481 37756
L54444 37774
L54406 37774
L54369 37756
L54350 37737
L54331 37699
L54331 37606
L54350 37549
" />
<path d="M54519 37249
L54537 37193
L54556 37175
L54594 37156
L54650 37156
L54687 37175
L54706 37193
L54725 37231
L54725 37381
L54331 37381
L54331 37249
L54350 37212
L54369 37193
L54406 37175
L54444 37175
L54481 37193
L54500 37212
L54519 37249
L54519 37381
" />
<path d="M54575 36987
L54575 36687
" />
<path d="M54725 36500
L54331 36500
L54612 36368
L54331 36237
L54725 36237
" />
<path d="M54725 36050
L54331 36050
" />
<path d="M54687 35637
L54706 35656
L54725 35712
L54725 35750
L54706 35806
L54669 35843
L54631 35862
L54556 35881
L54500 35881
L54425 35862
L54387 35843
L54350 35806
L54331 35750
L54331 35712
L54350 35656
L54369 35637
" />
<path d="M54725 35244
L54537 35375
" />
<path d="M54725 35468
L54331 35468
L54331 35318
L54350 35281
L54369 35262
L54406 35244
L54462 35244
L54500 35262
L54519 35281
L54537 35318
L54537 35468
" />
<path d="M54331 35000
L54331 34925
L54350 34887
L54387 34850
L54462 34831
L54594 34831
L54669 34850
L54706 34887
L54725 34925
L54725 35000
L54706 35037
L54669 35075
L54594 35094
L54462 35094
L54387 35075
L54350 35037
L54331 35000
" />
<path d="M54575 34662
L54575 34362
" />
<path d="M54519 34044
L54537 33987
L54556 33969
L54594 33950
L54650 33950
L54687 33969
L54706 33987
L54725 34025
L54725 34175
L54331 34175
L54331 34044
L54350 34006
L54369 33987
L54406 33969
L54444 33969
L54481 33987
L54500 34006
L54519 34044
L54519 34175
" />
<path d="M57709 43278
L57709 42884
L57859 42884
L57896 42903
L57915 42921
L57934 42959
L57934 43015
L57915 43053
L57896 43071
L57859 43090
L57709 43090
" />
<path d="M58065 42884
L58309 42884
L58178 43034
L58234 43034
L58271 43053
L58290 43071
L58309 43109
L58309 43203
L58290 43240
L58271 43259
L58234 43278
L58121 43278
L58084 43259
L58065 43240
" />
<path d="M56209 42028
L56209 41634
L56359 41634
L56396 41653
L56415 41671
L56434 41709
L56434 41765
L56415 41803
L56396 41821
L56359 41840
L56209 41840
" />
<path d="M56771 41765
L56771 42028
" />
<path d="M56678 41615
L56584 41896
L56828 41896
" />
<path d="M59450 38821
L59450 39140
L59468 39177
L59487 39196
L59525 39215
L59600 39215
L59637 39196
L59656 39177
L59675 39140
L59675 38821
" />
<path d="M59843 38858
L59862 38840
L59899 38821
L59993 38821
L60031 38840
L60049 38858
L60068 38896
L60068 38933
L60049 38990
L59824 39215
L60068 39215
" />
<path d="M59721 40459
L59721 40327
" />
<path d="M59928 40271
L59928 40459
L59534 40459
L59534 40271
" />
<path d="M59909 40121
L59928 40065
L59928 39971
L59909 39934
L59890 39915
L59853 39896
L59815 39896
L59778 39915
L59759 39934
L59740 39971
L59721 40046
L59703 40084
L59684 40102
L59646 40121
L59609 40121
L59571 40102
L59553 40084
L59534 40046
L59534 39952
L59553 39896
" />
<path d="M59928 39727
L59534 39727
L59534 39634
L59553 39577
L59590 39540
L59628 39521
L59703 39502
L59759 39502
L59834 39521
L59871 39540
L59909 39577
L59928 39634
L59928 39727
" />
<path d="M59815 39352
L59815 39165
" />
<path d="M59928 39390
L59534 39259
L59928 39128
" />
<path d="M59534 38828
L59534 38903
L59553 38940
L59571 38959
L59628 38996
L59703 39015
L59853 39015
L59890 38996
L59909 38978
L59928 38940
L59928 38865
L59909 38828
L59890 38809
L59853 38790
L59759 38790
L59721 38809
L59703 38828
L59684 38865
L59684 38940
L59703 38978
L59721 38996
L59759 39015
" />
<path d="M59534 38678
L59928 38546
L59534 38415
" />
<path d="M59928 38078
L59928 38303
" />
<path d="M59928 38190
L59534 38190
L59590 38228
L59628 38265
L59646 38303
" />
<path d="M59778 37909
L59778 37609
" />
<path d="M59534 37234
L59534 37421
L59721 37440
L59703 37421
L59684 37384
L59684 37290
L59703 37253
L59721 37234
L59759 37215
L59853 37215
L59890 37234
L59909 37253
L59928 37290
L59928 37384
L59909 37421
L59890 37440
" />
<path d="M59909 37065
L59928 37009
L59928 36915
L59909 36878
L59890 36859
L59853 36840
L59815 36840
L59778 36859
L59759 36878
L59740 36915
L59721 36990
L59703 37028
L59684 37047
L59646 37065
L59609 37065
L59571 37047
L59553 37028
L59534 36990
L59534 36897
L59553 36840
" />
<path d="M59890 36447
L59909 36465
L59928 36522
L59928 36559
L59909 36615
L59871 36653
L59834 36672
L59759 36690
L59703 36690
L59628 36672
L59590 36653
L59553 36615
L59534 36559
L59534 36522
L59553 36465
L59571 36447
" />
<path d="M59534 36109
L59534 36184
L59553 36222
L59571 36240
L59628 36278
L59703 36297
L59853 36297
L59890 36278
L59909 36259
L59928 36222
L59928 36147
L59909 36109
L59890 36090
L59853 36072
L59759 36072
L59721 36090
L59703 36109
L59684 36147
L59684 36222
L59703 36259
L59721 36278
L59759 36297
" />
<path d="M58418 40417
L58737 40417
L58774 40399
L58793 40380
L58812 40342
L58812 40267
L58793 40230
L58774 40211
L58737 40192
L58418 40192
" />
<path d="M58418 40043
L58418 39799
L58568 39930
L58568 39874
L58587 39836
L58605 39818
L58643 39799
L58737 39799
L58774 39818
L58793 39836
L58812 39874
L58812 39986
L58793 40024
L58774 40043
" />
<path d="M58347 40178
L58159 40178
L58159 39784
" />
<path d="M58478 40178
L58478 39784
L58628 39784
L58665 39803
L58684 39821
L58703 39859
L58703 39915
L58684 39953
L58665 39971
L58628 39990
L58478 39990
" />
<path d="M58853 39821
L58871 39803
L58909 39784
L59003 39784
L59040 39803
L59059 39821
L59078 39859
L59078 39896
L59059 39953
L58834 40178
L59078 40178
" />
<path d="M59265 40178
L59340 40178
L59378 40159
L59396 40140
L59434 40084
L59453 40009
L59453 39859
L59434 39821
L59415 39803
L59378 39784
L59303 39784
L59265 39803
L59246 39821
L59228 39859
L59228 39953
L59246 39990
L59265 40009
L59303 40028
L59378 40028
L59415 40009
L59434 39990
L59453 39953
" />
<path d="M59678 39953
L59640 39934
L59621 39915
L59603 39878
L59603 39859
L59621 39821
L59640 39803
L59678 39784
L59753 39784
L59790 39803
L59809 39821
L59828 39859
L59828 39878
L59809 39915
L59790 39934
L59753 39953
L59678 39953
L59640 39971
L59621 39990
L59603 40028
L59603 40103
L59621 40140
L59640 40159
L59678 40178
L59753 40178
L59790 40159
L59809 40140
L59828 40103
L59828 40028
L59809 39990
L59790 39971
L59753 39953
" />
<path d="M60184 39784
L59996 39784
L59978 39971
L59996 39953
L60034 39934
L60128 39934
L60165 39953
L60184 39971
L60203 40009
L60203 40103
L60184 40140
L60165 40159
L60128 40178
L60034 40178
L59996 40159
L59978 40140
" />
<path d="M60559 40178
L60371 40178
L60371 39784
" />
<path d="M60634 39784
L60765 40178
L60896 39784
" />
</g>
<g style="fill:#C1C100; fill-opacity:0.0; 
stroke:#C1C100; stroke-width:59.0551; stroke-opacity:1; 
stroke-linecap:round; stroke-linejoin:round;">
<path d="M56434 42504
L56303 42317
" />
<path d="M56209 42504
L56209 42111
L56359 42111
L56396 42129
L56415 42148
L56434 42186
L56434 42242
L56415 42279
L56396 42298
L56359 42317
L56209 42317
" />
<path d="M56809 42504
L56584 42504
" />
<path d="M56696 42504
L56696 42111
L56659 42167
L56621 42204
L56584 42223
" />
<path d="M56700 37906
L56700 38225
L56718 38262
L56737 38281
L56775 38300
L56850 38300
L56887 38281
L56906 38262
L56925 38225
L56925 37906
" />
<path d="M57281 38037
L57281 38300
" />
<path d="M57187 37887
L57093 38168
L57337 38168
" />
</g>
<g style="fill:#008484; fill-opacity:0.0; 
stroke:#008484; stroke-width:59.0551; stroke-opacity:1; 
stroke-linecap:round; stroke-linejoin:round;">
<path d="M58050 38176
L58050 38654
L58078 38710
L58106 38739
L58162 38767
L58275 38767
L58331 38739
L58359 38710
L58387 38654
L58387 38176
" />
<path d="M58978 38767
L58640 38767
" />
<path d="M58809 38767
L58809 38176
L58753 38260
L58696 38317
L58640 38345
" />
<path d="M56250 41767
L56250 41176
L56447 41598
L56643 41176
L56643 41767
" />
<path d="M56925 41767
L56925 41373
" />
<path d="M56925 41176
L56897 41204
L56925 41232
L56953 41204
L56925 41176
L56925 41232
" />
<path d="M57459 41739
L57403 41767
L57290 41767
L57234 41739
L57206 41710
L57178 41654
L57178 41485
L57206 41429
L57234 41401
L57290 41373
L57403 41373
L57459 41401
" />
<path d="M57712 41767
L57712 41373
" />
<path d="M57712 41485
L57740 41429
L57768 41401
L57825 41373
L57881 41373
" />
<path d="M58162 41767
L58106 41739
L58078 41710
L58050 41654
L58050 41485
L58078 41429
L58106 41401
L58162 41373
L58246 41373
L58303 41401
L58331 41429
L58359 41485
L58359 41654
L58331 41710
L58303 41739
L58246 41767
L58162 41767
" />
<path d="M58865 41767
L58865 41176
" />
<path d="M58865 41739
L58809 41767
L58696 41767
L58640 41739
L58612 41710
L58584 41654
L58584 41485
L58612 41429
L58640 41401
L58696 41373
L58809 41373
L58865 41401
" />
<path d="M59399 41373
L59399 41767
" />
<path d="M59146 41373
L59146 41682
L59174 41739
L59231 41767
L59315 41767
L59371 41739
L59399 41710
" />
<path d="M59681 41767
L59681 41373
" />
<path d="M59681 41176
L59652 41204
L59681 41232
L59709 41204
L59681 41176
L59681 41232
" />
<path d="M59962 41373
L59962 41767
" />
<path d="M59962 41429
L59990 41401
L60046 41373
L60131 41373
L60187 41401
L60215 41457
L60215 41767
" />
<path d="M60580 41767
L60524 41739
L60496 41710
L60468 41654
L60468 41485
L60496 41429
L60524 41401
L60580 41373
L60665 41373
L60721 41401
L60749 41429
L60777 41485
L60777 41654
L60749 41710
L60721 41739
L60665 41767
L60580 41767
" />
<path d="M60500 36500
L60500 37500
" />
<path d="M59500 36500
L59500 37500
" />
<path d="M59500 37500
L60500 37500
" />
<path d="M60500 37500
L61500 37500
" />
<path d="M61500 37500
L61500 36500
" />
<path d="M61500 36500
L59500 36500
" />
<path d="M61750 39000
L61750 44000
" />
<path d="M61750 44000
L60750 44000
" />
<path d="M60750 44000
L60750 39000
" />
<path d="M61750 38000
L61750 39000
" />
<path d="M61750 39000
L60750 39000
" />
<path d="M61750 38000
L60750 38000
" />
<path d="M60750 38000
L60750 39000
" />
<path d="M59500 35300
L59500 36200
" />
<path d="M59500 36200
L60150 36200
" />
<path d="M60850 35300
L61500 35300
" />
<path d="M61500 35300
L61500 36200
" />
<path d="M61500 36200
L60850 36200
" />
<path d="M60150 35300
L59500 35300
" />
<path d="M60250 43200
L60250 42300
" />
<path d="M60250 42300
L59600 42300
" />
<path d="M58900 43200
L58250 43200
" />
<path d="M58250 43200
L58250 42300
" />
<path d="M58250 42300
L58900 42300
" />
<path d="M59600 43200
L60250 43200
" />
<path d="M60250 41950
L60250 41050
" />
<path d="M60250 41050
L59600 41050
" />
<path d="M58900 41950
L58250 41950
" />
<path d="M58250 41950
L58250 41050
" />
<path d="M58250 41050
L58900 41050
" />
<path d="M59600 41950
L60250 41950
" />
<path d="M58700 35131
L55275 35131
" />
<path d="M58700 37653
L55275 37653
" />
<path d="M55275 37653
L55275 35131
" />
<path d="M55275 35616
L58700 35616
" />
<path d="M58700 35131
L58700 37653
" />
<path d="M56500 43500
L60500 43500
" />
<path d="M60500 43500
L60500 44500
" />
<path d="M60500 44500
L56500 44500
" />
<path d="M55500 43500
L56500 43500
" />
<path d="M56500 43500
L56500 44500
" />
<path d="M55500 43500
L55500 44500
" />
<path d="M55500 44500
L56500 44500
" />
<path d="M56500 42250
L56500 43250
" />
<path d="M55500 42250
L55500 43250
" />
<path d="M55500 43250
L56500 43250
" />
<path d="M56500 43250
L57500 43250
" />
<path d="M57500 43250
L57500 42250
" />
<path d="M57500 42250
L55500 42250
" />
<path d="M59450 38050
L59650 37750
" />
<path d="M59450 38750
L59450 37725
" />
<path d="M59450 37725
L60050 37725
" />
<path d="M60050 37725
L60050 38750
" />
<path d="M60050 38750
L59450 38750
" />
<path d="M58900 40350
L58900 39650
" />
<path d="M58900 39650
L60100 39650
" />
<path d="M60100 39650
L60100 40350
" />
<path d="M60100 40350
L58900 40350
" />
<path d="M56263 41155
L56736 41155
" />
<path d="M56736 41844
L56263 41844
" />
<path d="M56183 38486
L56183 38543
" />
<path d="M57816 38486
L57816 38543
" />
<path d="M57816 40513
L57816 40456
" />
<path d="M56183 40513
L56183 40456
" />
<path d="M56183 38486
L57816 38486
" />
<path d="M56183 40513
L57816 40513
" />
<path d="M56183 38543
L55631 38543
" />
<path d="M53500 35500
L63500 35500
" />
<path d="M63500 35500
L63500 46500
" />
<path d="M63500 46500
L53500 46500
" />
<path d="M53500 46500
L53500 35500
" />
</g>
<g style="fill:#840000; fill-opacity:0.0; 
stroke:#840000; stroke-width:39.3701; stroke-opacity:1; 
stroke-linecap:round; stroke-linejoin:round;">
</g>
<g style="fill:#840000; fill-opacity:1.0; 
stroke:#840000; stroke-width:39.3701; stroke-opacity:1; 
stroke-linecap:round; stroke-linejoin:round;">
<polyline style="fill-rule:evenodd;"
points="59619,37380
59619,36619
60380,36619
60380,37380
59619,37380
" /> 
</g>
<g style="fill:#840000; fill-opacity:1.0; 
stroke:#840000; stroke-width:800; stroke-opacity:1; 
stroke-linecap:round; stroke-linejoin:round;">
</g>
<g style="fill:#840000; fill-opacity:0.0; 
stroke:#840000; stroke-width:800; stroke-opacity:1; 
stroke-linecap:round; stroke-linejoin:round;">
<path d="M61000 37000
L61000 37000
" />
</g>
<g style="fill:#840000; fill-opacity:0.0; 
stroke:#840000; stroke-width:39.3701; stroke-opacity:1; 
stroke-linecap:round; stroke-linejoin:round;">
</g>
<g style="fill:#840000; fill-opacity:1.0; 
stroke:#840000; stroke-width:39.3701; stroke-opacity:1; 
stroke-linecap:round; stroke-linejoin:round;">
<polyline style="fill-rule:evenodd;"
points="60869,38179
61630,38179
61630,38820
60869,38820
60869,38179
" /> 
</g>
<g style="fill:#840000; fill-opacity:1.0; 
stroke:#840000; stroke-width:680; stroke-opacity:1; 
stroke-linecap:round; stroke-linejoin:round;">
</g>
<g style="fill:#840000; fill-opacity:0.0; 
stroke:#840000; stroke-width:680; stroke-opacity:1; 
stroke-linecap:round; stroke-linejoin:round;">
<path d="M61310 39500
L61190 39500
" />
<path d="M61310 40500
L61190 40500
" />
<path d="M61310 41500
L61190 41500
" />
<path d="M61310 42500
L61190 42500
" />
<path d="M61310 43500
L61190 43500
" />
</g>
<g style="fill:#840000; fill-opacity:0.0; 
stroke:#840000; stroke-width:374.016; stroke-opacity:1; 
stroke-linecap:round; stroke-linejoin:round;">
<path d="M58031 37250
L57913 37250
" />
<path d="M56062 37250
L55944 37250
" />
</g>
<g style="fill:#840000; fill-opacity:0.0; 
stroke:#840000; stroke-width:393.701; stroke-opacity:1; 
stroke-linecap:round; stroke-linejoin:round;">
<path d="M58366 36078
L58366 36295
" />
<path d="M55610 36078
L55610 36295
" />
</g>
<g style="fill:#840000; fill-opacity:0.0; 
stroke:#840000; stroke-width:39.3701; stroke-opacity:1; 
stroke-linecap:round; stroke-linejoin:round;">
</g>
<g style="fill:#840000; fill-opacity:1.0; 
stroke:#840000; stroke-width:39.3701; stroke-opacity:1; 
stroke-linecap:round; stroke-linejoin:round;">
<polyline style="fill-rule:evenodd;"
points="55679,44380
55679,43619
56320,43619
56320,44380
55679,44380
" /> 
</g>
<g style="fill:#840000; fill-opacity:1.0; 
stroke:#840000; stroke-width:680; stroke-opacity:1; 
stroke-linecap:round; stroke-linejoin:round;">
</g>
<g style="fill:#840000; fill-opacity:0.0; 
stroke:#840000; stroke-width:680; stroke-opacity:1; 
stroke-linecap:round; stroke-linejoin:round;">
<path d="M57000 43940
L57000 44060
" />
<path d="M58000 43940
L58000 44060
" />
<path d="M59000 43940
L59000 44060
" />
<path d="M60000 43940
L60000 44060
" />
</g>
<g style="fill:#840000; fill-opacity:0.0; 
stroke:#840000; stroke-width:39.3701; stroke-opacity:1; 
stroke-linecap:round; stroke-linejoin:round;">
</g>
<g style="fill:#840000; fill-opacity:1.0; 
stroke:#840000; stroke-width:39.3701; stroke-opacity:1; 
stroke-linecap:round; stroke-linejoin:round;">
<polyline style="fill-rule:evenodd;"
points="55619,43130
55619,42369
56380,42369
56380,43130
55619,43130
" /> 
</g>
<g style="fill:#840000; fill-opacity:1.0; 
stroke:#840000; stroke-width:800; stroke-opacity:1; 
stroke-linecap:round; stroke-linejoin:round;">
</g>
<g style="fill:#840000; fill-opacity:0.0; 
stroke:#840000; stroke-width:800; stroke-opacity:1; 
stroke-linecap:round; stroke-linejoin:round;">
<path d="M57000 42750
L57000 42750
" />
</g>
<g style="fill:#840000; fill-opacity:0.0; 
stroke:#840000; stroke-width:39.3701; stroke-opacity:1; 
stroke-linecap:round; stroke-linejoin:round;">
</g>
<g style="fill:#840000; fill-opacity:1.0; 
stroke:#840000; stroke-width:39.3701; stroke-opacity:1; 
stroke-linecap:round; stroke-linejoin:round;">
<circle cx="54500" cy="36500" r="334.646" /> 
<circle cx="54500" cy="37500" r="334.646" /> 
<circle cx="54500" cy="38500" r="334.646" /> 
<circle cx="54500" cy="39500" r="334.646" /> 
<circle cx="54500" cy="40500" r="334.646" /> 
<circle cx="54500" cy="41500" r="334.646" /> 
<circle cx="54500" cy="42500" r="334.646" /> 
<circle cx="54500" cy="43500" r="334.646" /> 
<circle cx="54500" cy="44500" r="334.646" /> 
<circle cx="54500" cy="45500" r="334.646" /> 
<circle cx="55500" cy="45500" r="334.646" /> 
<circle cx="56500" cy="45500" r="334.646" /> 
<circle cx="57500" cy="45500" r="334.646" /> 
<circle cx="58500" cy="45500" r="334.646" /> 
<circle cx="59500" cy="45500" r="334.646" /> 
<circle cx="60500" cy="45500" r="334.646" /> 
<circle cx="61500" cy="45500" r="334.646" /> 
<circle cx="62500" cy="44500" r="334.646" /> 
<circle cx="62500" cy="43500" r="334.646" /> 
<circle cx="62500" cy="42500" r="334.646" /> 
<circle cx="62500" cy="41500" r="334.646" /> 
<circle cx="62500" cy="40500" r="334.646" /> 
<circle cx="62500" cy="39500" r="334.646" /> 
<circle cx="62500" cy="38500" r="334.646" /> 
<circle cx="62500" cy="37500" r="334.646" /> 
<circle cx="62500" cy="45500" r="334.646" /> 
<circle cx="62500" cy="36500" r="334.646" /> 
</g> 
</svg>
