G04 #@! TF.FileFunction,Copper,L1,Top,Signal*
%FSLAX46Y46*%
G04 Gerber Fmt 4.6, Leading zero omitted, Abs format (unit mm)*
G04 Created by KiCad (PCBNEW 0.201512051503+6347~38~ubuntu14.04.1-stable) date Sun 13 Dec 2015 13:51:11 CET*
%MOMM*%
G01*
G04 APERTURE LIST*
%ADD10C,0.100000*%
%ADD11R,1.524000X2.199640*%
%ADD12O,1.524000X2.199640*%
%ADD13R,2.199640X1.524000*%
%ADD14O,2.199640X1.524000*%
%ADD15R,1.550000X0.600000*%
%ADD16R,1.600200X1.803400*%
%ADD17R,1.803400X1.600200*%
%ADD18R,1.000760X0.599440*%
%ADD19R,0.599440X1.000760*%
%ADD20R,1.897380X1.897380*%
%ADD21R,0.398780X1.348740*%
%ADD22R,0.398780X1.346200*%
%ADD23C,1.800000*%
%ADD24C,1.035000*%
%ADD25C,0.508000*%
%ADD26C,0.254000*%
G04 APERTURE END LIST*
D10*
D11*
X142240000Y-106807000D03*
D12*
X144780000Y-106807000D03*
D13*
X155575000Y-97790000D03*
D14*
X155575000Y-100330000D03*
X155575000Y-102870000D03*
X155575000Y-105410000D03*
X155575000Y-107950000D03*
X155575000Y-110490000D03*
D15*
X147480000Y-102235000D03*
X147480000Y-100965000D03*
X147480000Y-99695000D03*
X147480000Y-98425000D03*
X142080000Y-98425000D03*
X142080000Y-99695000D03*
X142080000Y-100965000D03*
X142080000Y-102235000D03*
D16*
X152273000Y-90805000D03*
X155067000Y-90805000D03*
D17*
X148590000Y-108077000D03*
X148590000Y-105283000D03*
X152400000Y-108077000D03*
X152400000Y-105283000D03*
D11*
X150622000Y-93853000D03*
D12*
X153162000Y-93853000D03*
D11*
X142240000Y-111125000D03*
D12*
X144780000Y-111125000D03*
X147320000Y-111125000D03*
X149860000Y-111125000D03*
X152400000Y-111125000D03*
D18*
X152440640Y-98107500D03*
X152440640Y-96202500D03*
X152440640Y-97155000D03*
X150327360Y-96202500D03*
X150327360Y-98107500D03*
X150327360Y-97155000D03*
D19*
X151955500Y-100543360D03*
X150050500Y-100543360D03*
X151003000Y-100543360D03*
X150050500Y-102656640D03*
X151955500Y-102656640D03*
D20*
X146613880Y-91059000D03*
X144216120Y-91059000D03*
X141465300Y-91059000D03*
X149364700Y-91059000D03*
D21*
X146715480Y-93733620D03*
D22*
X146062700Y-93733620D03*
X145415000Y-93733620D03*
X144767300Y-93733620D03*
X144114520Y-93733620D03*
D23*
X138430000Y-92710000D03*
X138430000Y-95250000D03*
X138430000Y-97790000D03*
X138430000Y-100330000D03*
X138430000Y-102870000D03*
X138430000Y-105410000D03*
X138430000Y-107950000D03*
X138430000Y-110490000D03*
X138430000Y-113030000D03*
X138430000Y-115570000D03*
X140970000Y-115570000D03*
X143510000Y-115570000D03*
X146050000Y-115570000D03*
X148590000Y-115570000D03*
X151130000Y-115570000D03*
X153670000Y-115570000D03*
X156210000Y-115570000D03*
X158750000Y-113030000D03*
X158750000Y-110490000D03*
X158750000Y-107950000D03*
X158750000Y-105410000D03*
X158750000Y-102870000D03*
X158750000Y-100330000D03*
X158750000Y-97790000D03*
X158750000Y-95250000D03*
X158750000Y-115570000D03*
X158750000Y-92710000D03*
D24*
X145162596Y-98123505D03*
X143721268Y-100358908D03*
X141097000Y-93218000D03*
X144877773Y-103470781D03*
X139956179Y-99146636D03*
X147193000Y-114046000D03*
X145836146Y-102608765D03*
X148920002Y-96116302D03*
D25*
X157233900Y-114546100D02*
X156210000Y-115570000D01*
X157233900Y-109608900D02*
X157233900Y-114546100D01*
X155575000Y-107950000D02*
X157233900Y-109608900D01*
X149571300Y-106768600D02*
X148590000Y-106768600D01*
X150050500Y-106289400D02*
X149571300Y-106768600D01*
X150050500Y-102656600D02*
X150050500Y-106289400D01*
X148590000Y-108077000D02*
X148590000Y-106768600D01*
X138430000Y-100408500D02*
X138430000Y-100330000D01*
X143220300Y-105198800D02*
X138430000Y-100408500D01*
X144780000Y-105198800D02*
X143220300Y-105198800D01*
X144780000Y-106807000D02*
X144780000Y-105198800D01*
X144115000Y-95854500D02*
X143033058Y-95854500D01*
X143033058Y-95854500D02*
X141081369Y-93902811D01*
X141081369Y-93902811D02*
X141081369Y-93233631D01*
X141081369Y-93233631D02*
X141097000Y-93218000D01*
X143721268Y-99627053D02*
X143721268Y-100358908D01*
X142080000Y-98425000D02*
X142555000Y-98425000D01*
X142555000Y-98425000D02*
X143721268Y-99591268D01*
X147480000Y-98425000D02*
X145464091Y-98425000D01*
X145464091Y-98425000D02*
X145162596Y-98123505D01*
X143721268Y-99591268D02*
X143721268Y-99627053D01*
X144115000Y-93733600D02*
X144115000Y-95854500D01*
X152273000Y-90805000D02*
X152273000Y-92215000D01*
X152273000Y-92215000D02*
X150635000Y-93853000D01*
X151432259Y-94663259D02*
X151432259Y-98171000D01*
X151432259Y-98171000D02*
X151432259Y-99011739D01*
X150327360Y-98107500D02*
X151368759Y-98107500D01*
X151368759Y-98107500D02*
X151432259Y-98171000D01*
X150050500Y-100543360D02*
X150050500Y-98384360D01*
X150050500Y-98384360D02*
X150327360Y-98107500D01*
X150622000Y-93853000D02*
X151432259Y-94663259D01*
X151432259Y-99011739D02*
X151955500Y-99534980D01*
X151955500Y-99534980D02*
X151955500Y-100543360D01*
X138430000Y-92710000D02*
X142381200Y-96661200D01*
X142381200Y-96661200D02*
X146230597Y-96661200D01*
X146230597Y-96661200D02*
X146715000Y-96176797D01*
X146715000Y-96176797D02*
X146715000Y-95827700D01*
X146715000Y-95827700D02*
X146715000Y-95090801D01*
X146715000Y-95090801D02*
X149384199Y-95090801D01*
X149384199Y-95090801D02*
X150622000Y-93853000D01*
X146715000Y-95854500D02*
X146685000Y-95885000D01*
X146715000Y-95827700D02*
X146715000Y-95854500D01*
X150635000Y-93853000D02*
X150622000Y-93853000D01*
X146715000Y-93733600D02*
X146715000Y-95073700D01*
X146715000Y-95073700D02*
X146715000Y-95827700D01*
X142080000Y-102235000D02*
X143641992Y-102235000D01*
X144360274Y-102953282D02*
X144877773Y-103470781D01*
X143641992Y-102235000D02*
X144360274Y-102953282D01*
X152440600Y-98107500D02*
X153449300Y-98107500D01*
X152460600Y-101647900D02*
X153449300Y-100659200D01*
X151955500Y-101647900D02*
X152460600Y-101647900D01*
X151955500Y-102152200D02*
X151955500Y-102656600D01*
X153449300Y-100659200D02*
X153449300Y-98107500D01*
X151590500Y-103665300D02*
X150982400Y-104273400D01*
X150982400Y-104273400D02*
X150982400Y-106332300D01*
X151955500Y-102152200D02*
X151955500Y-101647900D01*
X150982400Y-106332300D02*
X151418700Y-106768600D01*
X151418700Y-106768600D02*
X152400000Y-106768600D01*
X151955500Y-103665300D02*
X151590500Y-103665300D01*
X151955500Y-102656600D02*
X151955500Y-103665300D01*
X152400000Y-108077000D02*
X152400000Y-106768600D01*
X152400000Y-111125000D02*
X152400000Y-108077000D01*
X147480000Y-100965000D02*
X146482248Y-100965000D01*
X146482248Y-100965000D02*
X143134247Y-97616999D01*
X143134247Y-97616999D02*
X140753961Y-97616999D01*
X140753961Y-97616999D02*
X139956179Y-98414781D01*
X139956179Y-98414781D02*
X139956179Y-99146636D01*
X150327360Y-97155000D02*
X149318980Y-97155000D01*
X149318980Y-97155000D02*
X148911034Y-97562946D01*
X148911034Y-97562946D02*
X148911034Y-100965000D01*
X148911034Y-100965000D02*
X147480000Y-100965000D01*
X144780000Y-111125000D02*
X144780000Y-111633000D01*
X144780000Y-111633000D02*
X147193000Y-114046000D01*
X145836146Y-102595554D02*
X145836146Y-102608765D01*
X146196700Y-102235000D02*
X145836146Y-102595554D01*
X150241202Y-96116302D02*
X149651857Y-96116302D01*
X150327400Y-96202500D02*
X150241202Y-96116302D01*
X149651857Y-96116302D02*
X148920002Y-96116302D01*
X151130000Y-114935000D02*
X151130000Y-115570000D01*
X147320000Y-111125000D02*
X151130000Y-114935000D01*
X147480000Y-102235000D02*
X146196700Y-102235000D01*
X146196700Y-110001700D02*
X147320000Y-111125000D01*
X146196700Y-102235000D02*
X146196700Y-110001700D01*
D26*
G36*
X151331710Y-89541403D02*
X151202035Y-89624846D01*
X151115041Y-89752166D01*
X151084436Y-89903300D01*
X151084436Y-91706700D01*
X151111003Y-91847890D01*
X151194446Y-91977565D01*
X151321766Y-92064559D01*
X151472900Y-92095164D01*
X151494810Y-92095164D01*
X151225258Y-92364716D01*
X150462150Y-92364716D01*
X150584255Y-92286144D01*
X150671249Y-92158824D01*
X150701854Y-92007690D01*
X150701854Y-90110310D01*
X150675287Y-89969120D01*
X150591844Y-89839445D01*
X150464524Y-89752451D01*
X150313390Y-89721846D01*
X148416010Y-89721846D01*
X148274820Y-89748413D01*
X148145145Y-89831856D01*
X148058151Y-89959176D01*
X148027546Y-90110310D01*
X148027546Y-92007690D01*
X148054113Y-92148880D01*
X148137556Y-92278555D01*
X148264876Y-92365549D01*
X148416010Y-92396154D01*
X149711240Y-92396154D01*
X149589135Y-92474726D01*
X149502141Y-92602046D01*
X149471536Y-92753180D01*
X149471536Y-94105438D01*
X149121173Y-94455801D01*
X147350000Y-94455801D01*
X147350000Y-93987651D01*
X147469347Y-93987755D01*
X147756053Y-93869291D01*
X147975600Y-93650127D01*
X148094565Y-93363628D01*
X148094835Y-93053413D01*
X147976371Y-92766707D01*
X147757207Y-92547160D01*
X147470708Y-92428195D01*
X147160493Y-92427925D01*
X146873787Y-92546389D01*
X146749173Y-92670786D01*
X146516090Y-92670786D01*
X146381178Y-92696172D01*
X146262090Y-92672056D01*
X145863310Y-92672056D01*
X145734282Y-92696334D01*
X145614390Y-92672056D01*
X145215610Y-92672056D01*
X145086582Y-92696334D01*
X144966690Y-92672056D01*
X144567910Y-92672056D01*
X144426720Y-92698623D01*
X144297045Y-92782066D01*
X144228137Y-92882916D01*
X144179071Y-92764167D01*
X143959907Y-92544620D01*
X143673408Y-92425655D01*
X143363193Y-92425385D01*
X143076487Y-92543849D01*
X142856940Y-92763013D01*
X142737975Y-93049512D01*
X142737705Y-93359727D01*
X142856169Y-93646433D01*
X143075333Y-93865980D01*
X143361832Y-93984945D01*
X143672047Y-93985215D01*
X143958753Y-93866751D01*
X144178300Y-93647587D01*
X144179446Y-93644827D01*
X144179446Y-94406720D01*
X144206013Y-94547910D01*
X144289456Y-94677585D01*
X144416776Y-94764579D01*
X144567910Y-94795184D01*
X144966690Y-94795184D01*
X145095718Y-94770906D01*
X145215610Y-94795184D01*
X145614390Y-94795184D01*
X145743418Y-94770906D01*
X145863310Y-94795184D01*
X146080000Y-94795184D01*
X146080000Y-95732742D01*
X146050021Y-95890248D01*
X146059216Y-95934555D01*
X145967571Y-96026200D01*
X142644226Y-96026200D01*
X139673565Y-93055539D01*
X139710777Y-92965924D01*
X139711222Y-92456311D01*
X139516612Y-91985320D01*
X139156575Y-91624655D01*
X138685924Y-91429223D01*
X138176311Y-91428778D01*
X137705320Y-91623388D01*
X137344655Y-91983425D01*
X137149223Y-92454076D01*
X137148778Y-92963689D01*
X137343388Y-93434680D01*
X137703425Y-93795345D01*
X138148636Y-93980213D01*
X137705320Y-94163388D01*
X137344655Y-94523425D01*
X137149223Y-94994076D01*
X137148778Y-95503689D01*
X137343388Y-95974680D01*
X137703425Y-96335345D01*
X138148636Y-96520213D01*
X137705320Y-96703388D01*
X137344655Y-97063425D01*
X137149223Y-97534076D01*
X137148778Y-98043689D01*
X137343388Y-98514680D01*
X137703425Y-98875345D01*
X138148636Y-99060213D01*
X137705320Y-99243388D01*
X137344655Y-99603425D01*
X137149223Y-100074076D01*
X137148778Y-100583689D01*
X137343388Y-101054680D01*
X137703425Y-101415345D01*
X138148636Y-101600213D01*
X137705320Y-101783388D01*
X137344655Y-102143425D01*
X137149223Y-102614076D01*
X137148778Y-103123689D01*
X137343388Y-103594680D01*
X137703425Y-103955345D01*
X138148636Y-104140213D01*
X137705320Y-104323388D01*
X137344655Y-104683425D01*
X137149223Y-105154076D01*
X137148778Y-105663689D01*
X137343388Y-106134680D01*
X137703425Y-106495345D01*
X138148636Y-106680213D01*
X137705320Y-106863388D01*
X137344655Y-107223425D01*
X137149223Y-107694076D01*
X137148778Y-108203689D01*
X137343388Y-108674680D01*
X137703425Y-109035345D01*
X138148636Y-109220213D01*
X137705320Y-109403388D01*
X137344655Y-109763425D01*
X137149223Y-110234076D01*
X137148778Y-110743689D01*
X137343388Y-111214680D01*
X137703425Y-111575345D01*
X138148636Y-111760213D01*
X137705320Y-111943388D01*
X137344655Y-112303425D01*
X137149223Y-112774076D01*
X137148778Y-113283689D01*
X137343388Y-113754680D01*
X137703425Y-114115345D01*
X138148636Y-114300213D01*
X137705320Y-114483388D01*
X137344655Y-114843425D01*
X137149223Y-115314076D01*
X137148778Y-115823689D01*
X137343388Y-116294680D01*
X137703425Y-116655345D01*
X138174076Y-116850777D01*
X138683689Y-116851222D01*
X139154680Y-116656612D01*
X139515345Y-116296575D01*
X139700213Y-115851364D01*
X139883388Y-116294680D01*
X140243425Y-116655345D01*
X140714076Y-116850777D01*
X141223689Y-116851222D01*
X141694680Y-116656612D01*
X142055345Y-116296575D01*
X142240213Y-115851364D01*
X142423388Y-116294680D01*
X142783425Y-116655345D01*
X143254076Y-116850777D01*
X143763689Y-116851222D01*
X144234680Y-116656612D01*
X144595345Y-116296575D01*
X144780213Y-115851364D01*
X144963388Y-116294680D01*
X145323425Y-116655345D01*
X145794076Y-116850777D01*
X146303689Y-116851222D01*
X146774680Y-116656612D01*
X147135345Y-116296575D01*
X147320213Y-115851364D01*
X147503388Y-116294680D01*
X147863425Y-116655345D01*
X148334076Y-116850777D01*
X148843689Y-116851222D01*
X149314680Y-116656612D01*
X149675345Y-116296575D01*
X149860213Y-115851364D01*
X150043388Y-116294680D01*
X150403425Y-116655345D01*
X150874076Y-116850777D01*
X151383689Y-116851222D01*
X151854680Y-116656612D01*
X152215345Y-116296575D01*
X152400213Y-115851364D01*
X152583388Y-116294680D01*
X152943425Y-116655345D01*
X153414076Y-116850777D01*
X153923689Y-116851222D01*
X154394680Y-116656612D01*
X154755345Y-116296575D01*
X154940213Y-115851364D01*
X155123388Y-116294680D01*
X155483425Y-116655345D01*
X155954076Y-116850777D01*
X156463689Y-116851222D01*
X156934680Y-116656612D01*
X157295345Y-116296575D01*
X157480213Y-115851364D01*
X157663388Y-116294680D01*
X158023425Y-116655345D01*
X158494076Y-116850777D01*
X159003689Y-116851222D01*
X159474680Y-116656612D01*
X159835345Y-116296575D01*
X160030777Y-115825924D01*
X160031222Y-115316311D01*
X159836612Y-114845320D01*
X159476575Y-114484655D01*
X159031364Y-114299787D01*
X159474680Y-114116612D01*
X159835345Y-113756575D01*
X160030777Y-113285924D01*
X160031222Y-112776311D01*
X159836612Y-112305320D01*
X159476575Y-111944655D01*
X159031364Y-111759787D01*
X159474680Y-111576612D01*
X159835345Y-111216575D01*
X160030777Y-110745924D01*
X160031222Y-110236311D01*
X159836612Y-109765320D01*
X159476575Y-109404655D01*
X159031364Y-109219787D01*
X159474680Y-109036612D01*
X159835345Y-108676575D01*
X160030777Y-108205924D01*
X160031222Y-107696311D01*
X159836612Y-107225320D01*
X159476575Y-106864655D01*
X159031364Y-106679787D01*
X159474680Y-106496612D01*
X159835345Y-106136575D01*
X160030777Y-105665924D01*
X160031222Y-105156311D01*
X159836612Y-104685320D01*
X159476575Y-104324655D01*
X159031364Y-104139787D01*
X159474680Y-103956612D01*
X159835345Y-103596575D01*
X160030777Y-103125924D01*
X160031222Y-102616311D01*
X159836612Y-102145320D01*
X159476575Y-101784655D01*
X159031364Y-101599787D01*
X159474680Y-101416612D01*
X159835345Y-101056575D01*
X160030777Y-100585924D01*
X160031222Y-100076311D01*
X159836612Y-99605320D01*
X159476575Y-99244655D01*
X159031364Y-99059787D01*
X159474680Y-98876612D01*
X159835345Y-98516575D01*
X160030777Y-98045924D01*
X160031222Y-97536311D01*
X159836612Y-97065320D01*
X159476575Y-96704655D01*
X159031364Y-96519787D01*
X159474680Y-96336612D01*
X159835345Y-95976575D01*
X160030777Y-95505924D01*
X160031222Y-94996311D01*
X159836612Y-94525320D01*
X159476575Y-94164655D01*
X159005924Y-93969223D01*
X158496311Y-93968778D01*
X158025320Y-94163388D01*
X157664655Y-94523425D01*
X157469223Y-94994076D01*
X157468778Y-95503689D01*
X157663388Y-95974680D01*
X158023425Y-96335345D01*
X158468636Y-96520213D01*
X158025320Y-96703388D01*
X157664655Y-97063425D01*
X157469223Y-97534076D01*
X157468778Y-98043689D01*
X157663388Y-98514680D01*
X158023425Y-98875345D01*
X158468636Y-99060213D01*
X158025320Y-99243388D01*
X157664655Y-99603425D01*
X157469223Y-100074076D01*
X157468778Y-100583689D01*
X157663388Y-101054680D01*
X158023425Y-101415345D01*
X158468636Y-101600213D01*
X158025320Y-101783388D01*
X157664655Y-102143425D01*
X157469223Y-102614076D01*
X157468778Y-103123689D01*
X157663388Y-103594680D01*
X158023425Y-103955345D01*
X158468636Y-104140213D01*
X158025320Y-104323388D01*
X157664655Y-104683425D01*
X157469223Y-105154076D01*
X157468778Y-105663689D01*
X157663388Y-106134680D01*
X158023425Y-106495345D01*
X158468636Y-106680213D01*
X158025320Y-106863388D01*
X157664655Y-107223425D01*
X157469223Y-107694076D01*
X157468778Y-108203689D01*
X157663388Y-108674680D01*
X158023425Y-109035345D01*
X158468636Y-109220213D01*
X158025320Y-109403388D01*
X157860708Y-109567714D01*
X157820564Y-109365896D01*
X157682913Y-109159887D01*
X156962821Y-108439795D01*
X156997825Y-108387407D01*
X157084831Y-107950000D01*
X156997825Y-107512593D01*
X156750054Y-107141777D01*
X156379238Y-106894006D01*
X155941831Y-106807000D01*
X155208169Y-106807000D01*
X154770762Y-106894006D01*
X154399946Y-107141777D01*
X154152175Y-107512593D01*
X154065169Y-107950000D01*
X154152175Y-108387407D01*
X154399946Y-108758223D01*
X154770762Y-109005994D01*
X155208169Y-109093000D01*
X155819974Y-109093000D01*
X156106786Y-109379812D01*
X155941831Y-109347000D01*
X155208169Y-109347000D01*
X154770762Y-109434006D01*
X154399946Y-109681777D01*
X154152175Y-110052593D01*
X154065169Y-110490000D01*
X154152175Y-110927407D01*
X154399946Y-111298223D01*
X154770762Y-111545994D01*
X155208169Y-111633000D01*
X155941831Y-111633000D01*
X156379238Y-111545994D01*
X156598900Y-111399221D01*
X156598900Y-114283074D01*
X156555539Y-114326435D01*
X156465924Y-114289223D01*
X155956311Y-114288778D01*
X155485320Y-114483388D01*
X155124655Y-114843425D01*
X154939787Y-115288636D01*
X154756612Y-114845320D01*
X154396575Y-114484655D01*
X153925924Y-114289223D01*
X153416311Y-114288778D01*
X152945320Y-114483388D01*
X152584655Y-114843425D01*
X152399787Y-115288636D01*
X152216612Y-114845320D01*
X151856575Y-114484655D01*
X151385924Y-114289223D01*
X151382246Y-114289220D01*
X148463000Y-111369974D01*
X148463000Y-110758169D01*
X148375994Y-110320762D01*
X148128223Y-109949946D01*
X147757407Y-109702175D01*
X147320000Y-109615169D01*
X146882593Y-109702175D01*
X146831700Y-109736181D01*
X146831700Y-102923464D01*
X148255000Y-102923464D01*
X148396190Y-102896897D01*
X148525865Y-102813454D01*
X148612859Y-102686134D01*
X148643464Y-102535000D01*
X148643464Y-101935000D01*
X148616897Y-101793810D01*
X148533454Y-101664135D01*
X148439589Y-101600000D01*
X148911034Y-101600000D01*
X149154038Y-101551664D01*
X149360047Y-101414013D01*
X149449829Y-101279644D01*
X149472326Y-101314605D01*
X149599646Y-101401599D01*
X149750780Y-101432204D01*
X150350220Y-101432204D01*
X150491410Y-101405637D01*
X150621085Y-101322194D01*
X150708079Y-101194874D01*
X150738684Y-101043740D01*
X150738684Y-100042980D01*
X150712117Y-99901790D01*
X150685500Y-99860426D01*
X150685500Y-98795684D01*
X150797259Y-98795684D01*
X150797259Y-99011739D01*
X150845595Y-99254743D01*
X150983246Y-99460752D01*
X151320500Y-99798005D01*
X151320500Y-99858801D01*
X151297921Y-99891846D01*
X151267316Y-100042980D01*
X151267316Y-101043740D01*
X151293883Y-101184930D01*
X151377326Y-101314605D01*
X151412917Y-101338924D01*
X151368836Y-101404896D01*
X151320500Y-101647900D01*
X151320500Y-101972081D01*
X151297921Y-102005126D01*
X151267316Y-102156260D01*
X151267316Y-103132210D01*
X151141487Y-103216287D01*
X150685500Y-103672274D01*
X150685500Y-103341199D01*
X150708079Y-103308154D01*
X150738684Y-103157020D01*
X150738684Y-102156260D01*
X150712117Y-102015070D01*
X150628674Y-101885395D01*
X150501354Y-101798401D01*
X150350220Y-101767796D01*
X149750780Y-101767796D01*
X149609590Y-101794363D01*
X149479915Y-101877806D01*
X149392921Y-102005126D01*
X149362316Y-102156260D01*
X149362316Y-103157020D01*
X149388883Y-103298210D01*
X149415500Y-103339574D01*
X149415500Y-106026374D01*
X149308274Y-106133600D01*
X148590000Y-106133600D01*
X148346996Y-106181936D01*
X148140987Y-106319587D01*
X148003336Y-106525596D01*
X147955000Y-106768600D01*
X147955000Y-106888436D01*
X147688300Y-106888436D01*
X147547110Y-106915003D01*
X147417435Y-106998446D01*
X147330441Y-107125766D01*
X147299836Y-107276900D01*
X147299836Y-108877100D01*
X147326403Y-109018290D01*
X147409846Y-109147965D01*
X147537166Y-109234959D01*
X147688300Y-109265564D01*
X149491700Y-109265564D01*
X149632890Y-109238997D01*
X149762565Y-109155554D01*
X149849559Y-109028234D01*
X149880164Y-108877100D01*
X149880164Y-107311258D01*
X150020313Y-107217613D01*
X150499513Y-106738413D01*
X150502118Y-106734515D01*
X150533387Y-106781313D01*
X150969687Y-107217613D01*
X151109836Y-107311258D01*
X151109836Y-108877100D01*
X151136403Y-109018290D01*
X151219846Y-109147965D01*
X151347166Y-109234959D01*
X151498300Y-109265564D01*
X151765000Y-109265564D01*
X151765000Y-109834202D01*
X151591777Y-109949946D01*
X151344006Y-110320762D01*
X151257000Y-110758169D01*
X151257000Y-111491831D01*
X151344006Y-111929238D01*
X151591777Y-112300054D01*
X151962593Y-112547825D01*
X152400000Y-112634831D01*
X152837407Y-112547825D01*
X153208223Y-112300054D01*
X153455994Y-111929238D01*
X153543000Y-111491831D01*
X153543000Y-110758169D01*
X153455994Y-110320762D01*
X153208223Y-109949946D01*
X153035000Y-109834202D01*
X153035000Y-109265564D01*
X153301700Y-109265564D01*
X153442890Y-109238997D01*
X153572565Y-109155554D01*
X153659559Y-109028234D01*
X153690164Y-108877100D01*
X153690164Y-107276900D01*
X153663597Y-107135710D01*
X153580154Y-107006035D01*
X153452834Y-106919041D01*
X153301700Y-106888436D01*
X153035000Y-106888436D01*
X153035000Y-106768600D01*
X152986664Y-106525596D01*
X152849013Y-106319587D01*
X152643004Y-106181936D01*
X152400000Y-106133600D01*
X151681726Y-106133600D01*
X151617400Y-106069274D01*
X151617400Y-105410000D01*
X154065169Y-105410000D01*
X154152175Y-105847407D01*
X154399946Y-106218223D01*
X154770762Y-106465994D01*
X155208169Y-106553000D01*
X155941831Y-106553000D01*
X156379238Y-106465994D01*
X156750054Y-106218223D01*
X156997825Y-105847407D01*
X157084831Y-105410000D01*
X156997825Y-104972593D01*
X156750054Y-104601777D01*
X156379238Y-104354006D01*
X155941831Y-104267000D01*
X155208169Y-104267000D01*
X154770762Y-104354006D01*
X154399946Y-104601777D01*
X154152175Y-104972593D01*
X154065169Y-105410000D01*
X151617400Y-105410000D01*
X151617400Y-104536426D01*
X151853526Y-104300300D01*
X151955500Y-104300300D01*
X152198504Y-104251964D01*
X152404513Y-104114313D01*
X152542164Y-103908304D01*
X152590500Y-103665300D01*
X152590500Y-103341199D01*
X152613079Y-103308154D01*
X152643684Y-103157020D01*
X152643684Y-102870000D01*
X154065169Y-102870000D01*
X154152175Y-103307407D01*
X154399946Y-103678223D01*
X154770762Y-103925994D01*
X155208169Y-104013000D01*
X155941831Y-104013000D01*
X156379238Y-103925994D01*
X156750054Y-103678223D01*
X156997825Y-103307407D01*
X157084831Y-102870000D01*
X156997825Y-102432593D01*
X156750054Y-102061777D01*
X156379238Y-101814006D01*
X155941831Y-101727000D01*
X155208169Y-101727000D01*
X154770762Y-101814006D01*
X154399946Y-102061777D01*
X154152175Y-102432593D01*
X154065169Y-102870000D01*
X152643684Y-102870000D01*
X152643684Y-102246483D01*
X152703604Y-102234564D01*
X152909613Y-102096913D01*
X153898313Y-101108213D01*
X154035964Y-100902204D01*
X154084300Y-100659200D01*
X154084300Y-100426178D01*
X154152175Y-100767407D01*
X154399946Y-101138223D01*
X154770762Y-101385994D01*
X155208169Y-101473000D01*
X155941831Y-101473000D01*
X156379238Y-101385994D01*
X156750054Y-101138223D01*
X156997825Y-100767407D01*
X157084831Y-100330000D01*
X156997825Y-99892593D01*
X156750054Y-99521777D01*
X156379238Y-99274006D01*
X155941831Y-99187000D01*
X155208169Y-99187000D01*
X154770762Y-99274006D01*
X154399946Y-99521777D01*
X154152175Y-99892593D01*
X154084300Y-100233822D01*
X154084300Y-98107500D01*
X154035964Y-97864496D01*
X153898313Y-97658487D01*
X153692304Y-97520836D01*
X153449300Y-97472500D01*
X153125199Y-97472500D01*
X153092154Y-97449921D01*
X152941020Y-97419316D01*
X152067259Y-97419316D01*
X152067259Y-96890684D01*
X152941020Y-96890684D01*
X153082210Y-96864117D01*
X153211885Y-96780674D01*
X153298879Y-96653354D01*
X153329484Y-96502220D01*
X153329484Y-95902780D01*
X153302917Y-95761590D01*
X153219474Y-95631915D01*
X153092154Y-95544921D01*
X152941020Y-95514316D01*
X152067259Y-95514316D01*
X152067259Y-94663259D01*
X152059587Y-94624687D01*
X152018923Y-94420254D01*
X151881272Y-94214246D01*
X151772464Y-94105438D01*
X151772464Y-93613562D01*
X152722013Y-92664013D01*
X152859664Y-92458004D01*
X152908000Y-92215000D01*
X152908000Y-92095164D01*
X153073100Y-92095164D01*
X153214290Y-92068597D01*
X153343965Y-91985154D01*
X153430959Y-91857834D01*
X153461564Y-91706700D01*
X153461564Y-89903300D01*
X153434997Y-89762110D01*
X153351554Y-89632435D01*
X153224234Y-89545441D01*
X153172674Y-89535000D01*
X160655000Y-89535000D01*
X160655000Y-117221000D01*
X136525000Y-117221000D01*
X136525000Y-90110310D01*
X140128146Y-90110310D01*
X140128146Y-92007690D01*
X140154713Y-92148880D01*
X140238156Y-92278555D01*
X140365476Y-92365549D01*
X140516610Y-92396154D01*
X142413990Y-92396154D01*
X142555180Y-92369587D01*
X142684855Y-92286144D01*
X142771849Y-92158824D01*
X142802454Y-92007690D01*
X142802454Y-90110310D01*
X142878966Y-90110310D01*
X142878966Y-92007690D01*
X142905533Y-92148880D01*
X142988976Y-92278555D01*
X143116296Y-92365549D01*
X143267430Y-92396154D01*
X145164810Y-92396154D01*
X145306000Y-92369587D01*
X145416192Y-92298681D01*
X145514056Y-92365549D01*
X145665190Y-92396154D01*
X147562570Y-92396154D01*
X147703760Y-92369587D01*
X147833435Y-92286144D01*
X147920429Y-92158824D01*
X147951034Y-92007690D01*
X147951034Y-90110310D01*
X147924467Y-89969120D01*
X147841024Y-89839445D01*
X147713704Y-89752451D01*
X147562570Y-89721846D01*
X145665190Y-89721846D01*
X145524000Y-89748413D01*
X145413808Y-89819319D01*
X145315944Y-89752451D01*
X145164810Y-89721846D01*
X143267430Y-89721846D01*
X143126240Y-89748413D01*
X142996565Y-89831856D01*
X142909571Y-89959176D01*
X142878966Y-90110310D01*
X142802454Y-90110310D01*
X142775887Y-89969120D01*
X142692444Y-89839445D01*
X142565124Y-89752451D01*
X142413990Y-89721846D01*
X140516610Y-89721846D01*
X140375420Y-89748413D01*
X140245745Y-89831856D01*
X140158751Y-89959176D01*
X140128146Y-90110310D01*
X136525000Y-90110310D01*
X136525000Y-89535000D01*
X151365739Y-89535000D01*
X151331710Y-89541403D01*
X151331710Y-89541403D01*
G37*
X151331710Y-89541403D02*
X151202035Y-89624846D01*
X151115041Y-89752166D01*
X151084436Y-89903300D01*
X151084436Y-91706700D01*
X151111003Y-91847890D01*
X151194446Y-91977565D01*
X151321766Y-92064559D01*
X151472900Y-92095164D01*
X151494810Y-92095164D01*
X151225258Y-92364716D01*
X150462150Y-92364716D01*
X150584255Y-92286144D01*
X150671249Y-92158824D01*
X150701854Y-92007690D01*
X150701854Y-90110310D01*
X150675287Y-89969120D01*
X150591844Y-89839445D01*
X150464524Y-89752451D01*
X150313390Y-89721846D01*
X148416010Y-89721846D01*
X148274820Y-89748413D01*
X148145145Y-89831856D01*
X148058151Y-89959176D01*
X148027546Y-90110310D01*
X148027546Y-92007690D01*
X148054113Y-92148880D01*
X148137556Y-92278555D01*
X148264876Y-92365549D01*
X148416010Y-92396154D01*
X149711240Y-92396154D01*
X149589135Y-92474726D01*
X149502141Y-92602046D01*
X149471536Y-92753180D01*
X149471536Y-94105438D01*
X149121173Y-94455801D01*
X147350000Y-94455801D01*
X147350000Y-93987651D01*
X147469347Y-93987755D01*
X147756053Y-93869291D01*
X147975600Y-93650127D01*
X148094565Y-93363628D01*
X148094835Y-93053413D01*
X147976371Y-92766707D01*
X147757207Y-92547160D01*
X147470708Y-92428195D01*
X147160493Y-92427925D01*
X146873787Y-92546389D01*
X146749173Y-92670786D01*
X146516090Y-92670786D01*
X146381178Y-92696172D01*
X146262090Y-92672056D01*
X145863310Y-92672056D01*
X145734282Y-92696334D01*
X145614390Y-92672056D01*
X145215610Y-92672056D01*
X145086582Y-92696334D01*
X144966690Y-92672056D01*
X144567910Y-92672056D01*
X144426720Y-92698623D01*
X144297045Y-92782066D01*
X144228137Y-92882916D01*
X144179071Y-92764167D01*
X143959907Y-92544620D01*
X143673408Y-92425655D01*
X143363193Y-92425385D01*
X143076487Y-92543849D01*
X142856940Y-92763013D01*
X142737975Y-93049512D01*
X142737705Y-93359727D01*
X142856169Y-93646433D01*
X143075333Y-93865980D01*
X143361832Y-93984945D01*
X143672047Y-93985215D01*
X143958753Y-93866751D01*
X144178300Y-93647587D01*
X144179446Y-93644827D01*
X144179446Y-94406720D01*
X144206013Y-94547910D01*
X144289456Y-94677585D01*
X144416776Y-94764579D01*
X144567910Y-94795184D01*
X144966690Y-94795184D01*
X145095718Y-94770906D01*
X145215610Y-94795184D01*
X145614390Y-94795184D01*
X145743418Y-94770906D01*
X145863310Y-94795184D01*
X146080000Y-94795184D01*
X146080000Y-95732742D01*
X146050021Y-95890248D01*
X146059216Y-95934555D01*
X145967571Y-96026200D01*
X142644226Y-96026200D01*
X139673565Y-93055539D01*
X139710777Y-92965924D01*
X139711222Y-92456311D01*
X139516612Y-91985320D01*
X139156575Y-91624655D01*
X138685924Y-91429223D01*
X138176311Y-91428778D01*
X137705320Y-91623388D01*
X137344655Y-91983425D01*
X137149223Y-92454076D01*
X137148778Y-92963689D01*
X137343388Y-93434680D01*
X137703425Y-93795345D01*
X138148636Y-93980213D01*
X137705320Y-94163388D01*
X137344655Y-94523425D01*
X137149223Y-94994076D01*
X137148778Y-95503689D01*
X137343388Y-95974680D01*
X137703425Y-96335345D01*
X138148636Y-96520213D01*
X137705320Y-96703388D01*
X137344655Y-97063425D01*
X137149223Y-97534076D01*
X137148778Y-98043689D01*
X137343388Y-98514680D01*
X137703425Y-98875345D01*
X138148636Y-99060213D01*
X137705320Y-99243388D01*
X137344655Y-99603425D01*
X137149223Y-100074076D01*
X137148778Y-100583689D01*
X137343388Y-101054680D01*
X137703425Y-101415345D01*
X138148636Y-101600213D01*
X137705320Y-101783388D01*
X137344655Y-102143425D01*
X137149223Y-102614076D01*
X137148778Y-103123689D01*
X137343388Y-103594680D01*
X137703425Y-103955345D01*
X138148636Y-104140213D01*
X137705320Y-104323388D01*
X137344655Y-104683425D01*
X137149223Y-105154076D01*
X137148778Y-105663689D01*
X137343388Y-106134680D01*
X137703425Y-106495345D01*
X138148636Y-106680213D01*
X137705320Y-106863388D01*
X137344655Y-107223425D01*
X137149223Y-107694076D01*
X137148778Y-108203689D01*
X137343388Y-108674680D01*
X137703425Y-109035345D01*
X138148636Y-109220213D01*
X137705320Y-109403388D01*
X137344655Y-109763425D01*
X137149223Y-110234076D01*
X137148778Y-110743689D01*
X137343388Y-111214680D01*
X137703425Y-111575345D01*
X138148636Y-111760213D01*
X137705320Y-111943388D01*
X137344655Y-112303425D01*
X137149223Y-112774076D01*
X137148778Y-113283689D01*
X137343388Y-113754680D01*
X137703425Y-114115345D01*
X138148636Y-114300213D01*
X137705320Y-114483388D01*
X137344655Y-114843425D01*
X137149223Y-115314076D01*
X137148778Y-115823689D01*
X137343388Y-116294680D01*
X137703425Y-116655345D01*
X138174076Y-116850777D01*
X138683689Y-116851222D01*
X139154680Y-116656612D01*
X139515345Y-116296575D01*
X139700213Y-115851364D01*
X139883388Y-116294680D01*
X140243425Y-116655345D01*
X140714076Y-116850777D01*
X141223689Y-116851222D01*
X141694680Y-116656612D01*
X142055345Y-116296575D01*
X142240213Y-115851364D01*
X142423388Y-116294680D01*
X142783425Y-116655345D01*
X143254076Y-116850777D01*
X143763689Y-116851222D01*
X144234680Y-116656612D01*
X144595345Y-116296575D01*
X144780213Y-115851364D01*
X144963388Y-116294680D01*
X145323425Y-116655345D01*
X145794076Y-116850777D01*
X146303689Y-116851222D01*
X146774680Y-116656612D01*
X147135345Y-116296575D01*
X147320213Y-115851364D01*
X147503388Y-116294680D01*
X147863425Y-116655345D01*
X148334076Y-116850777D01*
X148843689Y-116851222D01*
X149314680Y-116656612D01*
X149675345Y-116296575D01*
X149860213Y-115851364D01*
X150043388Y-116294680D01*
X150403425Y-116655345D01*
X150874076Y-116850777D01*
X151383689Y-116851222D01*
X151854680Y-116656612D01*
X152215345Y-116296575D01*
X152400213Y-115851364D01*
X152583388Y-116294680D01*
X152943425Y-116655345D01*
X153414076Y-116850777D01*
X153923689Y-116851222D01*
X154394680Y-116656612D01*
X154755345Y-116296575D01*
X154940213Y-115851364D01*
X155123388Y-116294680D01*
X155483425Y-116655345D01*
X155954076Y-116850777D01*
X156463689Y-116851222D01*
X156934680Y-116656612D01*
X157295345Y-116296575D01*
X157480213Y-115851364D01*
X157663388Y-116294680D01*
X158023425Y-116655345D01*
X158494076Y-116850777D01*
X159003689Y-116851222D01*
X159474680Y-116656612D01*
X159835345Y-116296575D01*
X160030777Y-115825924D01*
X160031222Y-115316311D01*
X159836612Y-114845320D01*
X159476575Y-114484655D01*
X159031364Y-114299787D01*
X159474680Y-114116612D01*
X159835345Y-113756575D01*
X160030777Y-113285924D01*
X160031222Y-112776311D01*
X159836612Y-112305320D01*
X159476575Y-111944655D01*
X159031364Y-111759787D01*
X159474680Y-111576612D01*
X159835345Y-111216575D01*
X160030777Y-110745924D01*
X160031222Y-110236311D01*
X159836612Y-109765320D01*
X159476575Y-109404655D01*
X159031364Y-109219787D01*
X159474680Y-109036612D01*
X159835345Y-108676575D01*
X160030777Y-108205924D01*
X160031222Y-107696311D01*
X159836612Y-107225320D01*
X159476575Y-106864655D01*
X159031364Y-106679787D01*
X159474680Y-106496612D01*
X159835345Y-106136575D01*
X160030777Y-105665924D01*
X160031222Y-105156311D01*
X159836612Y-104685320D01*
X159476575Y-104324655D01*
X159031364Y-104139787D01*
X159474680Y-103956612D01*
X159835345Y-103596575D01*
X160030777Y-103125924D01*
X160031222Y-102616311D01*
X159836612Y-102145320D01*
X159476575Y-101784655D01*
X159031364Y-101599787D01*
X159474680Y-101416612D01*
X159835345Y-101056575D01*
X160030777Y-100585924D01*
X160031222Y-100076311D01*
X159836612Y-99605320D01*
X159476575Y-99244655D01*
X159031364Y-99059787D01*
X159474680Y-98876612D01*
X159835345Y-98516575D01*
X160030777Y-98045924D01*
X160031222Y-97536311D01*
X159836612Y-97065320D01*
X159476575Y-96704655D01*
X159031364Y-96519787D01*
X159474680Y-96336612D01*
X159835345Y-95976575D01*
X160030777Y-95505924D01*
X160031222Y-94996311D01*
X159836612Y-94525320D01*
X159476575Y-94164655D01*
X159005924Y-93969223D01*
X158496311Y-93968778D01*
X158025320Y-94163388D01*
X157664655Y-94523425D01*
X157469223Y-94994076D01*
X157468778Y-95503689D01*
X157663388Y-95974680D01*
X158023425Y-96335345D01*
X158468636Y-96520213D01*
X158025320Y-96703388D01*
X157664655Y-97063425D01*
X157469223Y-97534076D01*
X157468778Y-98043689D01*
X157663388Y-98514680D01*
X158023425Y-98875345D01*
X158468636Y-99060213D01*
X158025320Y-99243388D01*
X157664655Y-99603425D01*
X157469223Y-100074076D01*
X157468778Y-100583689D01*
X157663388Y-101054680D01*
X158023425Y-101415345D01*
X158468636Y-101600213D01*
X158025320Y-101783388D01*
X157664655Y-102143425D01*
X157469223Y-102614076D01*
X157468778Y-103123689D01*
X157663388Y-103594680D01*
X158023425Y-103955345D01*
X158468636Y-104140213D01*
X158025320Y-104323388D01*
X157664655Y-104683425D01*
X157469223Y-105154076D01*
X157468778Y-105663689D01*
X157663388Y-106134680D01*
X158023425Y-106495345D01*
X158468636Y-106680213D01*
X158025320Y-106863388D01*
X157664655Y-107223425D01*
X157469223Y-107694076D01*
X157468778Y-108203689D01*
X157663388Y-108674680D01*
X158023425Y-109035345D01*
X158468636Y-109220213D01*
X158025320Y-109403388D01*
X157860708Y-109567714D01*
X157820564Y-109365896D01*
X157682913Y-109159887D01*
X156962821Y-108439795D01*
X156997825Y-108387407D01*
X157084831Y-107950000D01*
X156997825Y-107512593D01*
X156750054Y-107141777D01*
X156379238Y-106894006D01*
X155941831Y-106807000D01*
X155208169Y-106807000D01*
X154770762Y-106894006D01*
X154399946Y-107141777D01*
X154152175Y-107512593D01*
X154065169Y-107950000D01*
X154152175Y-108387407D01*
X154399946Y-108758223D01*
X154770762Y-109005994D01*
X155208169Y-109093000D01*
X155819974Y-109093000D01*
X156106786Y-109379812D01*
X155941831Y-109347000D01*
X155208169Y-109347000D01*
X154770762Y-109434006D01*
X154399946Y-109681777D01*
X154152175Y-110052593D01*
X154065169Y-110490000D01*
X154152175Y-110927407D01*
X154399946Y-111298223D01*
X154770762Y-111545994D01*
X155208169Y-111633000D01*
X155941831Y-111633000D01*
X156379238Y-111545994D01*
X156598900Y-111399221D01*
X156598900Y-114283074D01*
X156555539Y-114326435D01*
X156465924Y-114289223D01*
X155956311Y-114288778D01*
X155485320Y-114483388D01*
X155124655Y-114843425D01*
X154939787Y-115288636D01*
X154756612Y-114845320D01*
X154396575Y-114484655D01*
X153925924Y-114289223D01*
X153416311Y-114288778D01*
X152945320Y-114483388D01*
X152584655Y-114843425D01*
X152399787Y-115288636D01*
X152216612Y-114845320D01*
X151856575Y-114484655D01*
X151385924Y-114289223D01*
X151382246Y-114289220D01*
X148463000Y-111369974D01*
X148463000Y-110758169D01*
X148375994Y-110320762D01*
X148128223Y-109949946D01*
X147757407Y-109702175D01*
X147320000Y-109615169D01*
X146882593Y-109702175D01*
X146831700Y-109736181D01*
X146831700Y-102923464D01*
X148255000Y-102923464D01*
X148396190Y-102896897D01*
X148525865Y-102813454D01*
X148612859Y-102686134D01*
X148643464Y-102535000D01*
X148643464Y-101935000D01*
X148616897Y-101793810D01*
X148533454Y-101664135D01*
X148439589Y-101600000D01*
X148911034Y-101600000D01*
X149154038Y-101551664D01*
X149360047Y-101414013D01*
X149449829Y-101279644D01*
X149472326Y-101314605D01*
X149599646Y-101401599D01*
X149750780Y-101432204D01*
X150350220Y-101432204D01*
X150491410Y-101405637D01*
X150621085Y-101322194D01*
X150708079Y-101194874D01*
X150738684Y-101043740D01*
X150738684Y-100042980D01*
X150712117Y-99901790D01*
X150685500Y-99860426D01*
X150685500Y-98795684D01*
X150797259Y-98795684D01*
X150797259Y-99011739D01*
X150845595Y-99254743D01*
X150983246Y-99460752D01*
X151320500Y-99798005D01*
X151320500Y-99858801D01*
X151297921Y-99891846D01*
X151267316Y-100042980D01*
X151267316Y-101043740D01*
X151293883Y-101184930D01*
X151377326Y-101314605D01*
X151412917Y-101338924D01*
X151368836Y-101404896D01*
X151320500Y-101647900D01*
X151320500Y-101972081D01*
X151297921Y-102005126D01*
X151267316Y-102156260D01*
X151267316Y-103132210D01*
X151141487Y-103216287D01*
X150685500Y-103672274D01*
X150685500Y-103341199D01*
X150708079Y-103308154D01*
X150738684Y-103157020D01*
X150738684Y-102156260D01*
X150712117Y-102015070D01*
X150628674Y-101885395D01*
X150501354Y-101798401D01*
X150350220Y-101767796D01*
X149750780Y-101767796D01*
X149609590Y-101794363D01*
X149479915Y-101877806D01*
X149392921Y-102005126D01*
X149362316Y-102156260D01*
X149362316Y-103157020D01*
X149388883Y-103298210D01*
X149415500Y-103339574D01*
X149415500Y-106026374D01*
X149308274Y-106133600D01*
X148590000Y-106133600D01*
X148346996Y-106181936D01*
X148140987Y-106319587D01*
X148003336Y-106525596D01*
X147955000Y-106768600D01*
X147955000Y-106888436D01*
X147688300Y-106888436D01*
X147547110Y-106915003D01*
X147417435Y-106998446D01*
X147330441Y-107125766D01*
X147299836Y-107276900D01*
X147299836Y-108877100D01*
X147326403Y-109018290D01*
X147409846Y-109147965D01*
X147537166Y-109234959D01*
X147688300Y-109265564D01*
X149491700Y-109265564D01*
X149632890Y-109238997D01*
X149762565Y-109155554D01*
X149849559Y-109028234D01*
X149880164Y-108877100D01*
X149880164Y-107311258D01*
X150020313Y-107217613D01*
X150499513Y-106738413D01*
X150502118Y-106734515D01*
X150533387Y-106781313D01*
X150969687Y-107217613D01*
X151109836Y-107311258D01*
X151109836Y-108877100D01*
X151136403Y-109018290D01*
X151219846Y-109147965D01*
X151347166Y-109234959D01*
X151498300Y-109265564D01*
X151765000Y-109265564D01*
X151765000Y-109834202D01*
X151591777Y-109949946D01*
X151344006Y-110320762D01*
X151257000Y-110758169D01*
X151257000Y-111491831D01*
X151344006Y-111929238D01*
X151591777Y-112300054D01*
X151962593Y-112547825D01*
X152400000Y-112634831D01*
X152837407Y-112547825D01*
X153208223Y-112300054D01*
X153455994Y-111929238D01*
X153543000Y-111491831D01*
X153543000Y-110758169D01*
X153455994Y-110320762D01*
X153208223Y-109949946D01*
X153035000Y-109834202D01*
X153035000Y-109265564D01*
X153301700Y-109265564D01*
X153442890Y-109238997D01*
X153572565Y-109155554D01*
X153659559Y-109028234D01*
X153690164Y-108877100D01*
X153690164Y-107276900D01*
X153663597Y-107135710D01*
X153580154Y-107006035D01*
X153452834Y-106919041D01*
X153301700Y-106888436D01*
X153035000Y-106888436D01*
X153035000Y-106768600D01*
X152986664Y-106525596D01*
X152849013Y-106319587D01*
X152643004Y-106181936D01*
X152400000Y-106133600D01*
X151681726Y-106133600D01*
X151617400Y-106069274D01*
X151617400Y-105410000D01*
X154065169Y-105410000D01*
X154152175Y-105847407D01*
X154399946Y-106218223D01*
X154770762Y-106465994D01*
X155208169Y-106553000D01*
X155941831Y-106553000D01*
X156379238Y-106465994D01*
X156750054Y-106218223D01*
X156997825Y-105847407D01*
X157084831Y-105410000D01*
X156997825Y-104972593D01*
X156750054Y-104601777D01*
X156379238Y-104354006D01*
X155941831Y-104267000D01*
X155208169Y-104267000D01*
X154770762Y-104354006D01*
X154399946Y-104601777D01*
X154152175Y-104972593D01*
X154065169Y-105410000D01*
X151617400Y-105410000D01*
X151617400Y-104536426D01*
X151853526Y-104300300D01*
X151955500Y-104300300D01*
X152198504Y-104251964D01*
X152404513Y-104114313D01*
X152542164Y-103908304D01*
X152590500Y-103665300D01*
X152590500Y-103341199D01*
X152613079Y-103308154D01*
X152643684Y-103157020D01*
X152643684Y-102870000D01*
X154065169Y-102870000D01*
X154152175Y-103307407D01*
X154399946Y-103678223D01*
X154770762Y-103925994D01*
X155208169Y-104013000D01*
X155941831Y-104013000D01*
X156379238Y-103925994D01*
X156750054Y-103678223D01*
X156997825Y-103307407D01*
X157084831Y-102870000D01*
X156997825Y-102432593D01*
X156750054Y-102061777D01*
X156379238Y-101814006D01*
X155941831Y-101727000D01*
X155208169Y-101727000D01*
X154770762Y-101814006D01*
X154399946Y-102061777D01*
X154152175Y-102432593D01*
X154065169Y-102870000D01*
X152643684Y-102870000D01*
X152643684Y-102246483D01*
X152703604Y-102234564D01*
X152909613Y-102096913D01*
X153898313Y-101108213D01*
X154035964Y-100902204D01*
X154084300Y-100659200D01*
X154084300Y-100426178D01*
X154152175Y-100767407D01*
X154399946Y-101138223D01*
X154770762Y-101385994D01*
X155208169Y-101473000D01*
X155941831Y-101473000D01*
X156379238Y-101385994D01*
X156750054Y-101138223D01*
X156997825Y-100767407D01*
X157084831Y-100330000D01*
X156997825Y-99892593D01*
X156750054Y-99521777D01*
X156379238Y-99274006D01*
X155941831Y-99187000D01*
X155208169Y-99187000D01*
X154770762Y-99274006D01*
X154399946Y-99521777D01*
X154152175Y-99892593D01*
X154084300Y-100233822D01*
X154084300Y-98107500D01*
X154035964Y-97864496D01*
X153898313Y-97658487D01*
X153692304Y-97520836D01*
X153449300Y-97472500D01*
X153125199Y-97472500D01*
X153092154Y-97449921D01*
X152941020Y-97419316D01*
X152067259Y-97419316D01*
X152067259Y-96890684D01*
X152941020Y-96890684D01*
X153082210Y-96864117D01*
X153211885Y-96780674D01*
X153298879Y-96653354D01*
X153329484Y-96502220D01*
X153329484Y-95902780D01*
X153302917Y-95761590D01*
X153219474Y-95631915D01*
X153092154Y-95544921D01*
X152941020Y-95514316D01*
X152067259Y-95514316D01*
X152067259Y-94663259D01*
X152059587Y-94624687D01*
X152018923Y-94420254D01*
X151881272Y-94214246D01*
X151772464Y-94105438D01*
X151772464Y-93613562D01*
X152722013Y-92664013D01*
X152859664Y-92458004D01*
X152908000Y-92215000D01*
X152908000Y-92095164D01*
X153073100Y-92095164D01*
X153214290Y-92068597D01*
X153343965Y-91985154D01*
X153430959Y-91857834D01*
X153461564Y-91706700D01*
X153461564Y-89903300D01*
X153434997Y-89762110D01*
X153351554Y-89632435D01*
X153224234Y-89545441D01*
X153172674Y-89535000D01*
X160655000Y-89535000D01*
X160655000Y-117221000D01*
X136525000Y-117221000D01*
X136525000Y-90110310D01*
X140128146Y-90110310D01*
X140128146Y-92007690D01*
X140154713Y-92148880D01*
X140238156Y-92278555D01*
X140365476Y-92365549D01*
X140516610Y-92396154D01*
X142413990Y-92396154D01*
X142555180Y-92369587D01*
X142684855Y-92286144D01*
X142771849Y-92158824D01*
X142802454Y-92007690D01*
X142802454Y-90110310D01*
X142878966Y-90110310D01*
X142878966Y-92007690D01*
X142905533Y-92148880D01*
X142988976Y-92278555D01*
X143116296Y-92365549D01*
X143267430Y-92396154D01*
X145164810Y-92396154D01*
X145306000Y-92369587D01*
X145416192Y-92298681D01*
X145514056Y-92365549D01*
X145665190Y-92396154D01*
X147562570Y-92396154D01*
X147703760Y-92369587D01*
X147833435Y-92286144D01*
X147920429Y-92158824D01*
X147951034Y-92007690D01*
X147951034Y-90110310D01*
X147924467Y-89969120D01*
X147841024Y-89839445D01*
X147713704Y-89752451D01*
X147562570Y-89721846D01*
X145665190Y-89721846D01*
X145524000Y-89748413D01*
X145413808Y-89819319D01*
X145315944Y-89752451D01*
X145164810Y-89721846D01*
X143267430Y-89721846D01*
X143126240Y-89748413D01*
X142996565Y-89831856D01*
X142909571Y-89959176D01*
X142878966Y-90110310D01*
X142802454Y-90110310D01*
X142775887Y-89969120D01*
X142692444Y-89839445D01*
X142565124Y-89752451D01*
X142413990Y-89721846D01*
X140516610Y-89721846D01*
X140375420Y-89748413D01*
X140245745Y-89831856D01*
X140158751Y-89959176D01*
X140128146Y-90110310D01*
X136525000Y-90110310D01*
X136525000Y-89535000D01*
X151365739Y-89535000D01*
X151331710Y-89541403D01*
G36*
X142771287Y-105647813D02*
X142977296Y-105785464D01*
X143220300Y-105833800D01*
X143836903Y-105833800D01*
X143724006Y-106002762D01*
X143637000Y-106440169D01*
X143637000Y-107173831D01*
X143724006Y-107611238D01*
X143971777Y-107982054D01*
X144342593Y-108229825D01*
X144780000Y-108316831D01*
X145217407Y-108229825D01*
X145561700Y-107999776D01*
X145561700Y-109932224D01*
X145217407Y-109702175D01*
X144780000Y-109615169D01*
X144342593Y-109702175D01*
X143971777Y-109949946D01*
X143724006Y-110320762D01*
X143637000Y-110758169D01*
X143637000Y-111491831D01*
X143724006Y-111929238D01*
X143971777Y-112300054D01*
X144342593Y-112547825D01*
X144780000Y-112634831D01*
X144866583Y-112617609D01*
X146294500Y-114045526D01*
X146294344Y-114223939D01*
X146324507Y-114296939D01*
X146305924Y-114289223D01*
X145796311Y-114288778D01*
X145325320Y-114483388D01*
X144964655Y-114843425D01*
X144779787Y-115288636D01*
X144596612Y-114845320D01*
X144236575Y-114484655D01*
X143765924Y-114289223D01*
X143256311Y-114288778D01*
X142785320Y-114483388D01*
X142424655Y-114843425D01*
X142239787Y-115288636D01*
X142056612Y-114845320D01*
X141696575Y-114484655D01*
X141225924Y-114289223D01*
X140716311Y-114288778D01*
X140245320Y-114483388D01*
X139884655Y-114843425D01*
X139699787Y-115288636D01*
X139516612Y-114845320D01*
X139156575Y-114484655D01*
X138711364Y-114299787D01*
X139154680Y-114116612D01*
X139515345Y-113756575D01*
X139710777Y-113285924D01*
X139711222Y-112776311D01*
X139516612Y-112305320D01*
X139156575Y-111944655D01*
X138711364Y-111759787D01*
X139154680Y-111576612D01*
X139515345Y-111216575D01*
X139710777Y-110745924D01*
X139711222Y-110236311D01*
X139623985Y-110025180D01*
X141089536Y-110025180D01*
X141089536Y-112224820D01*
X141116103Y-112366010D01*
X141199546Y-112495685D01*
X141326866Y-112582679D01*
X141478000Y-112613284D01*
X143002000Y-112613284D01*
X143143190Y-112586717D01*
X143272865Y-112503274D01*
X143359859Y-112375954D01*
X143390464Y-112224820D01*
X143390464Y-110025180D01*
X143363897Y-109883990D01*
X143280454Y-109754315D01*
X143153134Y-109667321D01*
X143002000Y-109636716D01*
X141478000Y-109636716D01*
X141336810Y-109663283D01*
X141207135Y-109746726D01*
X141120141Y-109874046D01*
X141089536Y-110025180D01*
X139623985Y-110025180D01*
X139516612Y-109765320D01*
X139156575Y-109404655D01*
X138711364Y-109219787D01*
X139154680Y-109036612D01*
X139515345Y-108676575D01*
X139710777Y-108205924D01*
X139711222Y-107696311D01*
X139516612Y-107225320D01*
X139156575Y-106864655D01*
X138711364Y-106679787D01*
X139154680Y-106496612D01*
X139515345Y-106136575D01*
X139710777Y-105665924D01*
X139711222Y-105156311D01*
X139516612Y-104685320D01*
X139156575Y-104324655D01*
X138711364Y-104139787D01*
X139154680Y-103956612D01*
X139515345Y-103596575D01*
X139710777Y-103125924D01*
X139711222Y-102616311D01*
X139691110Y-102567636D01*
X142771287Y-105647813D01*
X142771287Y-105647813D01*
G37*
X142771287Y-105647813D02*
X142977296Y-105785464D01*
X143220300Y-105833800D01*
X143836903Y-105833800D01*
X143724006Y-106002762D01*
X143637000Y-106440169D01*
X143637000Y-107173831D01*
X143724006Y-107611238D01*
X143971777Y-107982054D01*
X144342593Y-108229825D01*
X144780000Y-108316831D01*
X145217407Y-108229825D01*
X145561700Y-107999776D01*
X145561700Y-109932224D01*
X145217407Y-109702175D01*
X144780000Y-109615169D01*
X144342593Y-109702175D01*
X143971777Y-109949946D01*
X143724006Y-110320762D01*
X143637000Y-110758169D01*
X143637000Y-111491831D01*
X143724006Y-111929238D01*
X143971777Y-112300054D01*
X144342593Y-112547825D01*
X144780000Y-112634831D01*
X144866583Y-112617609D01*
X146294500Y-114045526D01*
X146294344Y-114223939D01*
X146324507Y-114296939D01*
X146305924Y-114289223D01*
X145796311Y-114288778D01*
X145325320Y-114483388D01*
X144964655Y-114843425D01*
X144779787Y-115288636D01*
X144596612Y-114845320D01*
X144236575Y-114484655D01*
X143765924Y-114289223D01*
X143256311Y-114288778D01*
X142785320Y-114483388D01*
X142424655Y-114843425D01*
X142239787Y-115288636D01*
X142056612Y-114845320D01*
X141696575Y-114484655D01*
X141225924Y-114289223D01*
X140716311Y-114288778D01*
X140245320Y-114483388D01*
X139884655Y-114843425D01*
X139699787Y-115288636D01*
X139516612Y-114845320D01*
X139156575Y-114484655D01*
X138711364Y-114299787D01*
X139154680Y-114116612D01*
X139515345Y-113756575D01*
X139710777Y-113285924D01*
X139711222Y-112776311D01*
X139516612Y-112305320D01*
X139156575Y-111944655D01*
X138711364Y-111759787D01*
X139154680Y-111576612D01*
X139515345Y-111216575D01*
X139710777Y-110745924D01*
X139711222Y-110236311D01*
X139623985Y-110025180D01*
X141089536Y-110025180D01*
X141089536Y-112224820D01*
X141116103Y-112366010D01*
X141199546Y-112495685D01*
X141326866Y-112582679D01*
X141478000Y-112613284D01*
X143002000Y-112613284D01*
X143143190Y-112586717D01*
X143272865Y-112503274D01*
X143359859Y-112375954D01*
X143390464Y-112224820D01*
X143390464Y-110025180D01*
X143363897Y-109883990D01*
X143280454Y-109754315D01*
X143153134Y-109667321D01*
X143002000Y-109636716D01*
X141478000Y-109636716D01*
X141336810Y-109663283D01*
X141207135Y-109746726D01*
X141120141Y-109874046D01*
X141089536Y-110025180D01*
X139623985Y-110025180D01*
X139516612Y-109765320D01*
X139156575Y-109404655D01*
X138711364Y-109219787D01*
X139154680Y-109036612D01*
X139515345Y-108676575D01*
X139710777Y-108205924D01*
X139711222Y-107696311D01*
X139516612Y-107225320D01*
X139156575Y-106864655D01*
X138711364Y-106679787D01*
X139154680Y-106496612D01*
X139515345Y-106136575D01*
X139710777Y-105665924D01*
X139711222Y-105156311D01*
X139516612Y-104685320D01*
X139156575Y-104324655D01*
X138711364Y-104139787D01*
X139154680Y-103956612D01*
X139515345Y-103596575D01*
X139710777Y-103125924D01*
X139711222Y-102616311D01*
X139691110Y-102567636D01*
X142771287Y-105647813D01*
G36*
X146033235Y-101414013D02*
X146239243Y-101551664D01*
X146482248Y-101600000D01*
X146196700Y-101600000D01*
X145953695Y-101648336D01*
X145860981Y-101710286D01*
X145658207Y-101710109D01*
X145327851Y-101846609D01*
X145074879Y-102099141D01*
X144937802Y-102429258D01*
X144937677Y-102572333D01*
X144877298Y-102572280D01*
X144091005Y-101785987D01*
X143884996Y-101648336D01*
X143641992Y-101600000D01*
X143039589Y-101600000D01*
X143006134Y-101577141D01*
X142855000Y-101546536D01*
X141305000Y-101546536D01*
X141163810Y-101573103D01*
X141034135Y-101656546D01*
X140947141Y-101783866D01*
X140916536Y-101935000D01*
X140916536Y-101997010D01*
X139650533Y-100731007D01*
X139710777Y-100585924D01*
X139711222Y-100076311D01*
X139682040Y-100005685D01*
X139776672Y-100044980D01*
X140134118Y-100045292D01*
X140464474Y-99908792D01*
X140717446Y-99656260D01*
X140854523Y-99326143D01*
X140854835Y-98968697D01*
X140718335Y-98638341D01*
X140674528Y-98594458D01*
X141016987Y-98251999D01*
X142871221Y-98251999D01*
X146033235Y-101414013D01*
X146033235Y-101414013D01*
G37*
X146033235Y-101414013D02*
X146239243Y-101551664D01*
X146482248Y-101600000D01*
X146196700Y-101600000D01*
X145953695Y-101648336D01*
X145860981Y-101710286D01*
X145658207Y-101710109D01*
X145327851Y-101846609D01*
X145074879Y-102099141D01*
X144937802Y-102429258D01*
X144937677Y-102572333D01*
X144877298Y-102572280D01*
X144091005Y-101785987D01*
X143884996Y-101648336D01*
X143641992Y-101600000D01*
X143039589Y-101600000D01*
X143006134Y-101577141D01*
X142855000Y-101546536D01*
X141305000Y-101546536D01*
X141163810Y-101573103D01*
X141034135Y-101656546D01*
X140947141Y-101783866D01*
X140916536Y-101935000D01*
X140916536Y-101997010D01*
X139650533Y-100731007D01*
X139710777Y-100585924D01*
X139711222Y-100076311D01*
X139682040Y-100005685D01*
X139776672Y-100044980D01*
X140134118Y-100045292D01*
X140464474Y-99908792D01*
X140717446Y-99656260D01*
X140854523Y-99326143D01*
X140854835Y-98968697D01*
X140718335Y-98638341D01*
X140674528Y-98594458D01*
X141016987Y-98251999D01*
X142871221Y-98251999D01*
X146033235Y-101414013D01*
G36*
X148021658Y-95936795D02*
X148021346Y-96294241D01*
X148157846Y-96624597D01*
X148410378Y-96877569D01*
X148613882Y-96962072D01*
X148462021Y-97113933D01*
X148324370Y-97319942D01*
X148276034Y-97562946D01*
X148276034Y-99010795D01*
X148255000Y-99006536D01*
X146705000Y-99006536D01*
X146563810Y-99033103D01*
X146434135Y-99116546D01*
X146347141Y-99243866D01*
X146316536Y-99395000D01*
X146316536Y-99901262D01*
X143711474Y-97296200D01*
X146230597Y-97296200D01*
X146473601Y-97247864D01*
X146679610Y-97110213D01*
X147164013Y-96625810D01*
X147301664Y-96419802D01*
X147350000Y-96176797D01*
X147350000Y-95725801D01*
X148109271Y-95725801D01*
X148021658Y-95936795D01*
X148021658Y-95936795D01*
G37*
X148021658Y-95936795D02*
X148021346Y-96294241D01*
X148157846Y-96624597D01*
X148410378Y-96877569D01*
X148613882Y-96962072D01*
X148462021Y-97113933D01*
X148324370Y-97319942D01*
X148276034Y-97562946D01*
X148276034Y-99010795D01*
X148255000Y-99006536D01*
X146705000Y-99006536D01*
X146563810Y-99033103D01*
X146434135Y-99116546D01*
X146347141Y-99243866D01*
X146316536Y-99395000D01*
X146316536Y-99901262D01*
X143711474Y-97296200D01*
X146230597Y-97296200D01*
X146473601Y-97247864D01*
X146679610Y-97110213D01*
X147164013Y-96625810D01*
X147301664Y-96419802D01*
X147350000Y-96176797D01*
X147350000Y-95725801D01*
X148109271Y-95725801D01*
X148021658Y-95936795D01*
M02*
