G04 #@! TF.FileFunction,Copper,L1,Top,Signal*
%FSLAX46Y46*%
G04 Gerber Fmt 4.6, Leading zero omitted, Abs format (unit mm)*
G04 Created by KiCad (PCBNEW 0.201509251832+6217~30~ubuntu14.04.1-product) date gio 08 ott 2015 22:57:14 CEST*
%MOMM*%
G01*
G04 APERTURE LIST*
%ADD10C,0.100000*%
%ADD11C,1.800000*%
%ADD12R,1.550000X0.600000*%
%ADD13R,1.600200X1.803400*%
%ADD14R,1.803400X1.600200*%
%ADD15R,1.524000X2.199640*%
%ADD16O,1.524000X2.199640*%
%ADD17R,2.199640X1.524000*%
%ADD18O,2.199640X1.524000*%
%ADD19R,1.000760X0.599440*%
%ADD20R,0.599440X1.000760*%
%ADD21R,1.897380X1.897380*%
%ADD22R,0.398780X1.348740*%
%ADD23R,0.398780X1.346200*%
%ADD24C,1.035000*%
%ADD25C,0.254000*%
%ADD26C,0.508000*%
G04 APERTURE END LIST*
D10*
D11*
X138430000Y-92710000D03*
X138430000Y-95250000D03*
X138430000Y-97790000D03*
X138430000Y-100330000D03*
X138430000Y-102870000D03*
X138430000Y-105410000D03*
X138430000Y-107950000D03*
X138430000Y-110490000D03*
X138430000Y-113030000D03*
X138430000Y-115570000D03*
X140970000Y-115570000D03*
X143510000Y-115570000D03*
X146050000Y-115570000D03*
X148590000Y-115570000D03*
X151130000Y-115570000D03*
X153670000Y-115570000D03*
X156210000Y-115570000D03*
X158750000Y-113030000D03*
X158750000Y-110490000D03*
X158750000Y-107950000D03*
X158750000Y-105410000D03*
X158750000Y-102870000D03*
X158750000Y-100330000D03*
X158750000Y-97790000D03*
X158750000Y-95250000D03*
X158750000Y-115570000D03*
X158750000Y-92710000D03*
D12*
X147480000Y-100330000D03*
X147480000Y-99060000D03*
X147480000Y-97790000D03*
X147480000Y-96520000D03*
X142080000Y-96520000D03*
X142080000Y-97790000D03*
X142080000Y-99060000D03*
X142080000Y-100330000D03*
D13*
X155067000Y-90805000D03*
X152273000Y-90805000D03*
D14*
X148590000Y-108077000D03*
X148590000Y-105283000D03*
X152400000Y-108077000D03*
X152400000Y-105283000D03*
D15*
X152400000Y-93980000D03*
D16*
X154940000Y-93980000D03*
D17*
X155575000Y-97790000D03*
D18*
X155575000Y-100330000D03*
X155575000Y-102870000D03*
X155575000Y-105410000D03*
X155575000Y-107950000D03*
X155575000Y-110490000D03*
D15*
X142240000Y-111760000D03*
D16*
X144780000Y-111760000D03*
X147320000Y-111760000D03*
X149860000Y-111760000D03*
X152400000Y-111760000D03*
D15*
X142240000Y-108585000D03*
D16*
X144780000Y-108585000D03*
D19*
X152821640Y-98107500D03*
X152821640Y-96202500D03*
X152821640Y-97155000D03*
X150708360Y-96202500D03*
X150708360Y-98107500D03*
X150708360Y-97155000D03*
D20*
X152082500Y-100543360D03*
X150177500Y-100543360D03*
X151130000Y-100543360D03*
X150177500Y-102656640D03*
X152082500Y-102656640D03*
D21*
X146613880Y-90805000D03*
X144216120Y-90805000D03*
X141465300Y-90805000D03*
X149364700Y-90805000D03*
D22*
X146715480Y-93479620D03*
D23*
X146062700Y-93479620D03*
X145415000Y-93479620D03*
X144767300Y-93479620D03*
X144114520Y-93479620D03*
D24*
X153104300Y-99661700D03*
X150224200Y-99195900D03*
X142144300Y-101419800D03*
X157026100Y-93108400D03*
X149062500Y-101758700D03*
X151164600Y-103688700D03*
D25*
X157058700Y-114721300D02*
X156210000Y-115570000D01*
X157058700Y-109433700D02*
X157058700Y-114721300D01*
X155575000Y-107950000D02*
X157058700Y-109433700D01*
X149254500Y-106895600D02*
X148590000Y-106895600D01*
X150177500Y-105972600D02*
X149254500Y-106895600D01*
X150177500Y-102656600D02*
X150177500Y-105972600D01*
X148590000Y-108077000D02*
X148590000Y-106895600D01*
X152821600Y-97155000D02*
X153703300Y-97155000D01*
X154834500Y-97790000D02*
X155318700Y-97790000D01*
X155575000Y-97790000D02*
X155318700Y-97790000D01*
X144114500Y-93479600D02*
X144114500Y-94534000D01*
X154591300Y-97790000D02*
X154602300Y-97790000D01*
X154834500Y-97790000D02*
X154602300Y-97790000D01*
X154591300Y-97790000D02*
X154093900Y-97790000D01*
X142080000Y-99060000D02*
X142658200Y-99060000D01*
X142369100Y-97790000D02*
X142369100Y-96520000D01*
X142080000Y-96520000D02*
X142369100Y-96520000D01*
X142369100Y-96520000D02*
X143236300Y-96520000D01*
X142080000Y-97790000D02*
X142369100Y-97790000D01*
X142369100Y-97790000D02*
X142658200Y-97790000D01*
X151735500Y-106464400D02*
X152400000Y-106464400D01*
X150333800Y-107866100D02*
X151735500Y-106464400D01*
X150333800Y-109805000D02*
X150333800Y-107866100D01*
X149860000Y-110278800D02*
X150333800Y-109805000D01*
X152400000Y-105283000D02*
X152400000Y-106464400D01*
X149860000Y-111760000D02*
X149860000Y-111019400D01*
X149860000Y-111019400D02*
X149860000Y-110278800D01*
X147306900Y-106566100D02*
X148590000Y-105283000D01*
X147306900Y-109057200D02*
X147306900Y-106566100D01*
X149269100Y-111019400D02*
X147306900Y-109057200D01*
X149860000Y-111019400D02*
X149269100Y-111019400D01*
X151130000Y-100543400D02*
X151130000Y-99661700D01*
X153104300Y-99661700D02*
X151130000Y-99661700D01*
X142240000Y-108585000D02*
X142240000Y-107103900D01*
X142658200Y-99060000D02*
X142658200Y-97790000D01*
X143262800Y-106081100D02*
X142240000Y-107103900D01*
X143262800Y-99664600D02*
X143262800Y-106081100D01*
X142658200Y-99060000D02*
X143262800Y-99664600D01*
X153703300Y-97399400D02*
X153703300Y-97155000D01*
X154093900Y-97790000D02*
X153703300Y-97399400D01*
X154940000Y-93980000D02*
X154940000Y-95461200D01*
X147480000Y-96520000D02*
X146323700Y-96520000D01*
X145333900Y-95530200D02*
X146323700Y-96520000D01*
X144226100Y-95530200D02*
X145333900Y-95530200D01*
X144226100Y-94645600D02*
X144226100Y-95530200D01*
X144114500Y-94534000D02*
X144226100Y-94645600D01*
X144226100Y-95530200D02*
X143236300Y-96520000D01*
X153703300Y-97155000D02*
X153703300Y-95521600D01*
X153763700Y-95461200D02*
X154940000Y-95461200D01*
X153703300Y-95521600D02*
X153763700Y-95461200D01*
X152273000Y-90805000D02*
X152273000Y-92088000D01*
X147480000Y-96520000D02*
X148636300Y-96520000D01*
X149946400Y-95209900D02*
X148636300Y-96520000D01*
X151190600Y-95209900D02*
X149946400Y-95209900D01*
X151484300Y-95503600D02*
X151190600Y-95209900D01*
X153685300Y-95503600D02*
X151484300Y-95503600D01*
X153703300Y-95521600D02*
X153685300Y-95503600D01*
X151867000Y-92088000D02*
X152273000Y-92088000D01*
X151190600Y-92764400D02*
X151867000Y-92088000D01*
X151190600Y-95209900D02*
X151190600Y-92764400D01*
X142240000Y-111760000D02*
X141096700Y-111760000D01*
X150177500Y-100543400D02*
X150177500Y-99661700D01*
X150708400Y-98107500D02*
X149826700Y-98107500D01*
X150177500Y-99242600D02*
X150224200Y-99195900D01*
X150177500Y-99661700D02*
X150177500Y-99242600D01*
X149826700Y-98798400D02*
X149826700Y-98107500D01*
X150224200Y-99195900D02*
X149826700Y-98798400D01*
X146715500Y-93479600D02*
X146715500Y-94535300D01*
X155067000Y-90805000D02*
X153885600Y-90805000D01*
X153543300Y-91147300D02*
X153885600Y-90805000D01*
X153543300Y-93980000D02*
X153543300Y-91147300D01*
X152400000Y-93980000D02*
X153543300Y-93980000D01*
X148145600Y-94535300D02*
X146715500Y-94535300D01*
X148567000Y-94113900D02*
X148145600Y-94535300D01*
X148567000Y-94113800D02*
X148567000Y-94113900D01*
X153885600Y-90140500D02*
X153885600Y-90805000D01*
X153220000Y-89474900D02*
X153885600Y-90140500D01*
X151325700Y-89474900D02*
X153220000Y-89474900D01*
X150893200Y-89907400D02*
X151325700Y-89474900D01*
X150893200Y-91787600D02*
X150893200Y-89907400D01*
X148567000Y-94113800D02*
X150893200Y-91787600D01*
X140513400Y-111176700D02*
X140513400Y-93466400D01*
X141096700Y-111760000D02*
X140513400Y-111176700D01*
X139757000Y-92710000D02*
X140513400Y-93466400D01*
X138430000Y-92710000D02*
X139757000Y-92710000D01*
X148567000Y-93039300D02*
X148567000Y-94113800D01*
X147682000Y-92154300D02*
X148567000Y-93039300D01*
X141825500Y-92154300D02*
X147682000Y-92154300D01*
X140513400Y-93466400D02*
X141825500Y-92154300D01*
X152556800Y-100543400D02*
X152082500Y-100543400D01*
X153844300Y-101830900D02*
X152556800Y-100543400D01*
X153844300Y-108187700D02*
X153844300Y-101830900D01*
X155003300Y-109346700D02*
X153844300Y-108187700D01*
X155575000Y-109346700D02*
X155003300Y-109346700D01*
X155575000Y-110490000D02*
X155575000Y-109346700D01*
X152400000Y-111760000D02*
X152400000Y-108077000D01*
X142080000Y-101355500D02*
X142144300Y-101419800D01*
X142080000Y-100330000D02*
X142080000Y-101355500D01*
X153647500Y-98933400D02*
X152821600Y-98107500D01*
X156869300Y-98933400D02*
X153647500Y-98933400D01*
X157082600Y-98720100D02*
X156869300Y-98933400D01*
X157082600Y-93164900D02*
X157082600Y-98720100D01*
X157026100Y-93108400D02*
X157082600Y-93164900D01*
X145923300Y-112368700D02*
X145923300Y-111760000D01*
X147499300Y-113944700D02*
X145923300Y-112368700D01*
X152044700Y-113944700D02*
X147499300Y-113944700D01*
X153670000Y-115570000D02*
X152044700Y-113944700D01*
X144780000Y-111760000D02*
X145697000Y-111760000D01*
X145697000Y-111760000D02*
X145923300Y-111760000D01*
X145988100Y-99395600D02*
X146323700Y-99060000D01*
X145988100Y-111468900D02*
X145988100Y-99395600D01*
X145697000Y-111760000D02*
X145988100Y-111468900D01*
X147480000Y-99060000D02*
X146323700Y-99060000D01*
X150708400Y-97155000D02*
X149826700Y-97155000D01*
X149318400Y-101502800D02*
X149062500Y-101758700D01*
X149318400Y-97663300D02*
X149318400Y-101502800D01*
X149826700Y-97155000D02*
X149318400Y-97663300D01*
X148636300Y-97392900D02*
X148636300Y-100330000D01*
X149826700Y-96202500D02*
X148636300Y-97392900D01*
X150708400Y-96202500D02*
X149826700Y-96202500D01*
X147480000Y-100330000D02*
X148636300Y-100330000D01*
X146761400Y-101048600D02*
X147480000Y-100330000D01*
X146761400Y-109720200D02*
X146761400Y-101048600D01*
X147320000Y-110278800D02*
X146761400Y-109720200D01*
X147320000Y-111760000D02*
X147320000Y-110278800D01*
X152082500Y-102656600D02*
X152082500Y-103538300D01*
X151315000Y-103538300D02*
X151164600Y-103688700D01*
X152082500Y-103538300D02*
X151315000Y-103538300D01*
D26*
G36*
X139998658Y-89856310D02*
X139998658Y-91753690D01*
X140034080Y-91941943D01*
X140145338Y-92114843D01*
X140315098Y-92230835D01*
X140516610Y-92271642D01*
X140810132Y-92271642D01*
X140513400Y-92568374D01*
X140206013Y-92260987D01*
X140000004Y-92123336D01*
X139757000Y-92075000D01*
X139691081Y-92075000D01*
X139624340Y-91913474D01*
X139228609Y-91517052D01*
X138711297Y-91302245D01*
X138151160Y-91301756D01*
X137633474Y-91515660D01*
X137237052Y-91911391D01*
X137022245Y-92428703D01*
X137021756Y-92988840D01*
X137235660Y-93506526D01*
X137631391Y-93902948D01*
X137816769Y-93979924D01*
X137633474Y-94055660D01*
X137237052Y-94451391D01*
X137022245Y-94968703D01*
X137021756Y-95528840D01*
X137235660Y-96046526D01*
X137631391Y-96442948D01*
X137816769Y-96519924D01*
X137633474Y-96595660D01*
X137237052Y-96991391D01*
X137022245Y-97508703D01*
X137021756Y-98068840D01*
X137235660Y-98586526D01*
X137631391Y-98982948D01*
X137816769Y-99059924D01*
X137633474Y-99135660D01*
X137237052Y-99531391D01*
X137022245Y-100048703D01*
X137021756Y-100608840D01*
X137235660Y-101126526D01*
X137631391Y-101522948D01*
X137816769Y-101599924D01*
X137633474Y-101675660D01*
X137237052Y-102071391D01*
X137022245Y-102588703D01*
X137021756Y-103148840D01*
X137235660Y-103666526D01*
X137631391Y-104062948D01*
X137816769Y-104139924D01*
X137633474Y-104215660D01*
X137237052Y-104611391D01*
X137022245Y-105128703D01*
X137021756Y-105688840D01*
X137235660Y-106206526D01*
X137631391Y-106602948D01*
X137816769Y-106679924D01*
X137633474Y-106755660D01*
X137237052Y-107151391D01*
X137022245Y-107668703D01*
X137021756Y-108228840D01*
X137235660Y-108746526D01*
X137631391Y-109142948D01*
X137816769Y-109219924D01*
X137633474Y-109295660D01*
X137237052Y-109691391D01*
X137022245Y-110208703D01*
X137021756Y-110768840D01*
X137235660Y-111286526D01*
X137631391Y-111682948D01*
X137816769Y-111759924D01*
X137633474Y-111835660D01*
X137237052Y-112231391D01*
X137022245Y-112748703D01*
X137021756Y-113308840D01*
X137235660Y-113826526D01*
X137631391Y-114222948D01*
X137816769Y-114299924D01*
X137633474Y-114375660D01*
X137237052Y-114771391D01*
X137022245Y-115288703D01*
X137021756Y-115848840D01*
X137235660Y-116366526D01*
X137631391Y-116762948D01*
X138148703Y-116977755D01*
X138708840Y-116978244D01*
X139226526Y-116764340D01*
X139622948Y-116368609D01*
X139699924Y-116183231D01*
X139775660Y-116366526D01*
X140171391Y-116762948D01*
X140688703Y-116977755D01*
X141248840Y-116978244D01*
X141766526Y-116764340D01*
X142162948Y-116368609D01*
X142239924Y-116183231D01*
X142315660Y-116366526D01*
X142711391Y-116762948D01*
X143228703Y-116977755D01*
X143788840Y-116978244D01*
X144306526Y-116764340D01*
X144702948Y-116368609D01*
X144779924Y-116183231D01*
X144855660Y-116366526D01*
X145251391Y-116762948D01*
X145768703Y-116977755D01*
X146328840Y-116978244D01*
X146846526Y-116764340D01*
X147242948Y-116368609D01*
X147319924Y-116183231D01*
X147395660Y-116366526D01*
X147791391Y-116762948D01*
X148308703Y-116977755D01*
X148868840Y-116978244D01*
X149386526Y-116764340D01*
X149782948Y-116368609D01*
X149859924Y-116183231D01*
X149935660Y-116366526D01*
X150331391Y-116762948D01*
X150848703Y-116977755D01*
X151408840Y-116978244D01*
X151926526Y-116764340D01*
X152322948Y-116368609D01*
X152399924Y-116183231D01*
X152475660Y-116366526D01*
X152871391Y-116762948D01*
X153388703Y-116977755D01*
X153948840Y-116978244D01*
X154466526Y-116764340D01*
X154862948Y-116368609D01*
X154939924Y-116183231D01*
X155015660Y-116366526D01*
X155411391Y-116762948D01*
X155928703Y-116977755D01*
X156488840Y-116978244D01*
X157006526Y-116764340D01*
X157402948Y-116368609D01*
X157479924Y-116183231D01*
X157555660Y-116366526D01*
X157951391Y-116762948D01*
X158468703Y-116977755D01*
X159028840Y-116978244D01*
X159546526Y-116764340D01*
X159942948Y-116368609D01*
X160157755Y-115851297D01*
X160158244Y-115291160D01*
X159944340Y-114773474D01*
X159548609Y-114377052D01*
X159363231Y-114300076D01*
X159546526Y-114224340D01*
X159942948Y-113828609D01*
X160157755Y-113311297D01*
X160158244Y-112751160D01*
X159944340Y-112233474D01*
X159548609Y-111837052D01*
X159363231Y-111760076D01*
X159546526Y-111684340D01*
X159942948Y-111288609D01*
X160157755Y-110771297D01*
X160158244Y-110211160D01*
X159944340Y-109693474D01*
X159548609Y-109297052D01*
X159363231Y-109220076D01*
X159546526Y-109144340D01*
X159942948Y-108748609D01*
X160157755Y-108231297D01*
X160158244Y-107671160D01*
X159944340Y-107153474D01*
X159548609Y-106757052D01*
X159363231Y-106680076D01*
X159546526Y-106604340D01*
X159942948Y-106208609D01*
X160157755Y-105691297D01*
X160158244Y-105131160D01*
X159944340Y-104613474D01*
X159548609Y-104217052D01*
X159363231Y-104140076D01*
X159546526Y-104064340D01*
X159942948Y-103668609D01*
X160157755Y-103151297D01*
X160158244Y-102591160D01*
X159944340Y-102073474D01*
X159548609Y-101677052D01*
X159363231Y-101600076D01*
X159546526Y-101524340D01*
X159942948Y-101128609D01*
X160157755Y-100611297D01*
X160158244Y-100051160D01*
X159944340Y-99533474D01*
X159548609Y-99137052D01*
X159363231Y-99060076D01*
X159546526Y-98984340D01*
X159942948Y-98588609D01*
X160157755Y-98071297D01*
X160158244Y-97511160D01*
X159944340Y-96993474D01*
X159548609Y-96597052D01*
X159363231Y-96520076D01*
X159546526Y-96444340D01*
X159942948Y-96048609D01*
X160157755Y-95531297D01*
X160158244Y-94971160D01*
X159944340Y-94453474D01*
X159642650Y-94151258D01*
X159746232Y-94082047D01*
X159813722Y-93774429D01*
X158750000Y-92710707D01*
X158735858Y-92724850D01*
X158735151Y-92724143D01*
X158749293Y-92710000D01*
X157685571Y-91646278D01*
X157377953Y-91713768D01*
X157207840Y-92083058D01*
X156823010Y-92082722D01*
X156445960Y-92238516D01*
X156157230Y-92526742D01*
X156094472Y-92677880D01*
X156017984Y-92563489D01*
X155523130Y-92233073D01*
X155493272Y-92224652D01*
X155867100Y-92224652D01*
X156055353Y-92189230D01*
X156228253Y-92077972D01*
X156344245Y-91908212D01*
X156385052Y-91706700D01*
X156385052Y-91645571D01*
X157686278Y-91645571D01*
X158750000Y-92709293D01*
X159813722Y-91645571D01*
X159746232Y-91337953D01*
X159145339Y-91061153D01*
X158484259Y-91035375D01*
X157863636Y-91264542D01*
X157753768Y-91337953D01*
X157686278Y-91645571D01*
X156385052Y-91645571D01*
X156385052Y-89903300D01*
X156363545Y-89789000D01*
X160401000Y-89789000D01*
X160401000Y-92380279D01*
X160195458Y-91823636D01*
X160122047Y-91713768D01*
X159814429Y-91646278D01*
X158750707Y-92710000D01*
X159814429Y-93773722D01*
X160122047Y-93706232D01*
X160398847Y-93105339D01*
X160401000Y-93050125D01*
X160401000Y-117221000D01*
X136779000Y-117221000D01*
X136779000Y-89789000D01*
X140012289Y-89789000D01*
X139998658Y-89856310D01*
X139998658Y-89856310D01*
G37*
X139998658Y-89856310D02*
X139998658Y-91753690D01*
X140034080Y-91941943D01*
X140145338Y-92114843D01*
X140315098Y-92230835D01*
X140516610Y-92271642D01*
X140810132Y-92271642D01*
X140513400Y-92568374D01*
X140206013Y-92260987D01*
X140000004Y-92123336D01*
X139757000Y-92075000D01*
X139691081Y-92075000D01*
X139624340Y-91913474D01*
X139228609Y-91517052D01*
X138711297Y-91302245D01*
X138151160Y-91301756D01*
X137633474Y-91515660D01*
X137237052Y-91911391D01*
X137022245Y-92428703D01*
X137021756Y-92988840D01*
X137235660Y-93506526D01*
X137631391Y-93902948D01*
X137816769Y-93979924D01*
X137633474Y-94055660D01*
X137237052Y-94451391D01*
X137022245Y-94968703D01*
X137021756Y-95528840D01*
X137235660Y-96046526D01*
X137631391Y-96442948D01*
X137816769Y-96519924D01*
X137633474Y-96595660D01*
X137237052Y-96991391D01*
X137022245Y-97508703D01*
X137021756Y-98068840D01*
X137235660Y-98586526D01*
X137631391Y-98982948D01*
X137816769Y-99059924D01*
X137633474Y-99135660D01*
X137237052Y-99531391D01*
X137022245Y-100048703D01*
X137021756Y-100608840D01*
X137235660Y-101126526D01*
X137631391Y-101522948D01*
X137816769Y-101599924D01*
X137633474Y-101675660D01*
X137237052Y-102071391D01*
X137022245Y-102588703D01*
X137021756Y-103148840D01*
X137235660Y-103666526D01*
X137631391Y-104062948D01*
X137816769Y-104139924D01*
X137633474Y-104215660D01*
X137237052Y-104611391D01*
X137022245Y-105128703D01*
X137021756Y-105688840D01*
X137235660Y-106206526D01*
X137631391Y-106602948D01*
X137816769Y-106679924D01*
X137633474Y-106755660D01*
X137237052Y-107151391D01*
X137022245Y-107668703D01*
X137021756Y-108228840D01*
X137235660Y-108746526D01*
X137631391Y-109142948D01*
X137816769Y-109219924D01*
X137633474Y-109295660D01*
X137237052Y-109691391D01*
X137022245Y-110208703D01*
X137021756Y-110768840D01*
X137235660Y-111286526D01*
X137631391Y-111682948D01*
X137816769Y-111759924D01*
X137633474Y-111835660D01*
X137237052Y-112231391D01*
X137022245Y-112748703D01*
X137021756Y-113308840D01*
X137235660Y-113826526D01*
X137631391Y-114222948D01*
X137816769Y-114299924D01*
X137633474Y-114375660D01*
X137237052Y-114771391D01*
X137022245Y-115288703D01*
X137021756Y-115848840D01*
X137235660Y-116366526D01*
X137631391Y-116762948D01*
X138148703Y-116977755D01*
X138708840Y-116978244D01*
X139226526Y-116764340D01*
X139622948Y-116368609D01*
X139699924Y-116183231D01*
X139775660Y-116366526D01*
X140171391Y-116762948D01*
X140688703Y-116977755D01*
X141248840Y-116978244D01*
X141766526Y-116764340D01*
X142162948Y-116368609D01*
X142239924Y-116183231D01*
X142315660Y-116366526D01*
X142711391Y-116762948D01*
X143228703Y-116977755D01*
X143788840Y-116978244D01*
X144306526Y-116764340D01*
X144702948Y-116368609D01*
X144779924Y-116183231D01*
X144855660Y-116366526D01*
X145251391Y-116762948D01*
X145768703Y-116977755D01*
X146328840Y-116978244D01*
X146846526Y-116764340D01*
X147242948Y-116368609D01*
X147319924Y-116183231D01*
X147395660Y-116366526D01*
X147791391Y-116762948D01*
X148308703Y-116977755D01*
X148868840Y-116978244D01*
X149386526Y-116764340D01*
X149782948Y-116368609D01*
X149859924Y-116183231D01*
X149935660Y-116366526D01*
X150331391Y-116762948D01*
X150848703Y-116977755D01*
X151408840Y-116978244D01*
X151926526Y-116764340D01*
X152322948Y-116368609D01*
X152399924Y-116183231D01*
X152475660Y-116366526D01*
X152871391Y-116762948D01*
X153388703Y-116977755D01*
X153948840Y-116978244D01*
X154466526Y-116764340D01*
X154862948Y-116368609D01*
X154939924Y-116183231D01*
X155015660Y-116366526D01*
X155411391Y-116762948D01*
X155928703Y-116977755D01*
X156488840Y-116978244D01*
X157006526Y-116764340D01*
X157402948Y-116368609D01*
X157479924Y-116183231D01*
X157555660Y-116366526D01*
X157951391Y-116762948D01*
X158468703Y-116977755D01*
X159028840Y-116978244D01*
X159546526Y-116764340D01*
X159942948Y-116368609D01*
X160157755Y-115851297D01*
X160158244Y-115291160D01*
X159944340Y-114773474D01*
X159548609Y-114377052D01*
X159363231Y-114300076D01*
X159546526Y-114224340D01*
X159942948Y-113828609D01*
X160157755Y-113311297D01*
X160158244Y-112751160D01*
X159944340Y-112233474D01*
X159548609Y-111837052D01*
X159363231Y-111760076D01*
X159546526Y-111684340D01*
X159942948Y-111288609D01*
X160157755Y-110771297D01*
X160158244Y-110211160D01*
X159944340Y-109693474D01*
X159548609Y-109297052D01*
X159363231Y-109220076D01*
X159546526Y-109144340D01*
X159942948Y-108748609D01*
X160157755Y-108231297D01*
X160158244Y-107671160D01*
X159944340Y-107153474D01*
X159548609Y-106757052D01*
X159363231Y-106680076D01*
X159546526Y-106604340D01*
X159942948Y-106208609D01*
X160157755Y-105691297D01*
X160158244Y-105131160D01*
X159944340Y-104613474D01*
X159548609Y-104217052D01*
X159363231Y-104140076D01*
X159546526Y-104064340D01*
X159942948Y-103668609D01*
X160157755Y-103151297D01*
X160158244Y-102591160D01*
X159944340Y-102073474D01*
X159548609Y-101677052D01*
X159363231Y-101600076D01*
X159546526Y-101524340D01*
X159942948Y-101128609D01*
X160157755Y-100611297D01*
X160158244Y-100051160D01*
X159944340Y-99533474D01*
X159548609Y-99137052D01*
X159363231Y-99060076D01*
X159546526Y-98984340D01*
X159942948Y-98588609D01*
X160157755Y-98071297D01*
X160158244Y-97511160D01*
X159944340Y-96993474D01*
X159548609Y-96597052D01*
X159363231Y-96520076D01*
X159546526Y-96444340D01*
X159942948Y-96048609D01*
X160157755Y-95531297D01*
X160158244Y-94971160D01*
X159944340Y-94453474D01*
X159642650Y-94151258D01*
X159746232Y-94082047D01*
X159813722Y-93774429D01*
X158750000Y-92710707D01*
X158735858Y-92724850D01*
X158735151Y-92724143D01*
X158749293Y-92710000D01*
X157685571Y-91646278D01*
X157377953Y-91713768D01*
X157207840Y-92083058D01*
X156823010Y-92082722D01*
X156445960Y-92238516D01*
X156157230Y-92526742D01*
X156094472Y-92677880D01*
X156017984Y-92563489D01*
X155523130Y-92233073D01*
X155493272Y-92224652D01*
X155867100Y-92224652D01*
X156055353Y-92189230D01*
X156228253Y-92077972D01*
X156344245Y-91908212D01*
X156385052Y-91706700D01*
X156385052Y-91645571D01*
X157686278Y-91645571D01*
X158750000Y-92709293D01*
X159813722Y-91645571D01*
X159746232Y-91337953D01*
X159145339Y-91061153D01*
X158484259Y-91035375D01*
X157863636Y-91264542D01*
X157753768Y-91337953D01*
X157686278Y-91645571D01*
X156385052Y-91645571D01*
X156385052Y-89903300D01*
X156363545Y-89789000D01*
X160401000Y-89789000D01*
X160401000Y-92380279D01*
X160195458Y-91823636D01*
X160122047Y-91713768D01*
X159814429Y-91646278D01*
X158750707Y-92710000D01*
X159814429Y-93773722D01*
X160122047Y-93706232D01*
X160398847Y-93105339D01*
X160401000Y-93050125D01*
X160401000Y-117221000D01*
X136779000Y-117221000D01*
X136779000Y-89789000D01*
X140012289Y-89789000D01*
X139998658Y-89856310D01*
G36*
X150851460Y-106515305D02*
X151066095Y-106729940D01*
X151275426Y-106816648D01*
X151137147Y-106905628D01*
X151021155Y-107075388D01*
X150980348Y-107276900D01*
X150980348Y-108877100D01*
X151015770Y-109065353D01*
X151127028Y-109238253D01*
X151296788Y-109354245D01*
X151498300Y-109395052D01*
X151765000Y-109395052D01*
X151765000Y-110316907D01*
X151501974Y-110492655D01*
X151269279Y-110840908D01*
X151268725Y-110838126D01*
X150937984Y-110343489D01*
X150443130Y-110013073D01*
X150099056Y-109916033D01*
X149860500Y-110087930D01*
X149860500Y-111759500D01*
X149880500Y-111759500D01*
X149880500Y-111760500D01*
X149860500Y-111760500D01*
X149860500Y-111780500D01*
X149859500Y-111780500D01*
X149859500Y-111760500D01*
X149839500Y-111760500D01*
X149839500Y-111759500D01*
X149859500Y-111759500D01*
X149859500Y-110087930D01*
X149620944Y-109916033D01*
X149276870Y-110013073D01*
X148782016Y-110343489D01*
X148451275Y-110838126D01*
X148450721Y-110840908D01*
X148218026Y-110492655D01*
X147955000Y-110316907D01*
X147955000Y-110278800D01*
X147906664Y-110035796D01*
X147769013Y-109829787D01*
X147396400Y-109457174D01*
X147396400Y-109292486D01*
X147486788Y-109354245D01*
X147688300Y-109395052D01*
X149491700Y-109395052D01*
X149679953Y-109359630D01*
X149852853Y-109248372D01*
X149968845Y-109078612D01*
X150009652Y-108877100D01*
X150009652Y-107276900D01*
X149974230Y-107088647D01*
X149968454Y-107079672D01*
X150626513Y-106421613D01*
X150741419Y-106249644D01*
X150851460Y-106515305D01*
X150851460Y-106515305D01*
G37*
X150851460Y-106515305D02*
X151066095Y-106729940D01*
X151275426Y-106816648D01*
X151137147Y-106905628D01*
X151021155Y-107075388D01*
X150980348Y-107276900D01*
X150980348Y-108877100D01*
X151015770Y-109065353D01*
X151127028Y-109238253D01*
X151296788Y-109354245D01*
X151498300Y-109395052D01*
X151765000Y-109395052D01*
X151765000Y-110316907D01*
X151501974Y-110492655D01*
X151269279Y-110840908D01*
X151268725Y-110838126D01*
X150937984Y-110343489D01*
X150443130Y-110013073D01*
X150099056Y-109916033D01*
X149860500Y-110087930D01*
X149860500Y-111759500D01*
X149880500Y-111759500D01*
X149880500Y-111760500D01*
X149860500Y-111760500D01*
X149860500Y-111780500D01*
X149859500Y-111780500D01*
X149859500Y-111760500D01*
X149839500Y-111760500D01*
X149839500Y-111759500D01*
X149859500Y-111759500D01*
X149859500Y-110087930D01*
X149620944Y-109916033D01*
X149276870Y-110013073D01*
X148782016Y-110343489D01*
X148451275Y-110838126D01*
X148450721Y-110840908D01*
X148218026Y-110492655D01*
X147955000Y-110316907D01*
X147955000Y-110278800D01*
X147906664Y-110035796D01*
X147769013Y-109829787D01*
X147396400Y-109457174D01*
X147396400Y-109292486D01*
X147486788Y-109354245D01*
X147688300Y-109395052D01*
X149491700Y-109395052D01*
X149679953Y-109359630D01*
X149852853Y-109248372D01*
X149968845Y-109078612D01*
X150009652Y-108877100D01*
X150009652Y-107276900D01*
X149974230Y-107088647D01*
X149968454Y-107079672D01*
X150626513Y-106421613D01*
X150741419Y-106249644D01*
X150851460Y-106515305D01*
G36*
X151321130Y-92469700D02*
X151337778Y-92469700D01*
X151276847Y-92508908D01*
X151160855Y-92678668D01*
X151120048Y-92880180D01*
X151120048Y-95079820D01*
X151155470Y-95268073D01*
X151233875Y-95389918D01*
X151208740Y-95384828D01*
X150207980Y-95384828D01*
X150019727Y-95420250D01*
X149846827Y-95531508D01*
X149821532Y-95568528D01*
X149583696Y-95615836D01*
X149377687Y-95753487D01*
X149018000Y-96113174D01*
X149018000Y-96068230D01*
X148901840Y-95787795D01*
X148687205Y-95573160D01*
X148406770Y-95457000D01*
X147671250Y-95457000D01*
X147480500Y-95647750D01*
X147480500Y-96519500D01*
X147500500Y-96519500D01*
X147500500Y-96520500D01*
X147480500Y-96520500D01*
X147480500Y-96540500D01*
X147479500Y-96540500D01*
X147479500Y-96520500D01*
X146132750Y-96520500D01*
X145942000Y-96711250D01*
X145942000Y-96971770D01*
X146058160Y-97252205D01*
X146205388Y-97399433D01*
X146187048Y-97490000D01*
X146187048Y-98090000D01*
X146222470Y-98278253D01*
X146317671Y-98426199D01*
X146080696Y-98473336D01*
X145874687Y-98610987D01*
X145539087Y-98946587D01*
X145401436Y-99152596D01*
X145353100Y-99395600D01*
X145353100Y-107100547D01*
X145266008Y-107042354D01*
X144780000Y-106945681D01*
X144293992Y-107042354D01*
X143881974Y-107317655D01*
X143765000Y-107492719D01*
X143765000Y-107333410D01*
X143648840Y-107052975D01*
X143434205Y-106838340D01*
X143153770Y-106722180D01*
X142431250Y-106722180D01*
X142240500Y-106912930D01*
X142240500Y-108584500D01*
X142260500Y-108584500D01*
X142260500Y-108585500D01*
X142240500Y-108585500D01*
X142240500Y-108605500D01*
X142239500Y-108605500D01*
X142239500Y-108585500D01*
X142219500Y-108585500D01*
X142219500Y-108584500D01*
X142239500Y-108584500D01*
X142239500Y-106912930D01*
X142048750Y-106722180D01*
X141326230Y-106722180D01*
X141148400Y-106795840D01*
X141148400Y-101694958D01*
X141274416Y-101999940D01*
X141562642Y-102288670D01*
X141939420Y-102445122D01*
X142347390Y-102445478D01*
X142724440Y-102289684D01*
X143013170Y-102001458D01*
X143169622Y-101624680D01*
X143169978Y-101216710D01*
X143109356Y-101069994D01*
X143216153Y-101001272D01*
X143332145Y-100831512D01*
X143372952Y-100630000D01*
X143372952Y-100030000D01*
X143355705Y-99938340D01*
X143501840Y-99792205D01*
X143618000Y-99511770D01*
X143618000Y-99251250D01*
X143427250Y-99060500D01*
X142080500Y-99060500D01*
X142080500Y-99080500D01*
X142079500Y-99080500D01*
X142079500Y-99060500D01*
X142059500Y-99060500D01*
X142059500Y-99059500D01*
X142079500Y-99059500D01*
X142079500Y-97790500D01*
X142080500Y-97790500D01*
X142080500Y-99059500D01*
X143427250Y-99059500D01*
X143618000Y-98868750D01*
X143618000Y-98608230D01*
X143542104Y-98425000D01*
X143618000Y-98241770D01*
X143618000Y-97981250D01*
X143427250Y-97790500D01*
X142080500Y-97790500D01*
X142079500Y-97790500D01*
X142059500Y-97790500D01*
X142059500Y-97789500D01*
X142079500Y-97789500D01*
X142079500Y-96520500D01*
X142080500Y-96520500D01*
X142080500Y-97789500D01*
X143427250Y-97789500D01*
X143618000Y-97598750D01*
X143618000Y-97338230D01*
X143542104Y-97155000D01*
X143618000Y-96971770D01*
X143618000Y-96711250D01*
X143427250Y-96520500D01*
X142080500Y-96520500D01*
X142079500Y-96520500D01*
X142059500Y-96520500D01*
X142059500Y-96519500D01*
X142079500Y-96519500D01*
X142079500Y-95647750D01*
X142080500Y-95647750D01*
X142080500Y-96519500D01*
X143427250Y-96519500D01*
X143618000Y-96328750D01*
X143618000Y-96068230D01*
X145942000Y-96068230D01*
X145942000Y-96328750D01*
X146132750Y-96519500D01*
X147479500Y-96519500D01*
X147479500Y-95647750D01*
X147288750Y-95457000D01*
X146553230Y-95457000D01*
X146272795Y-95573160D01*
X146058160Y-95787795D01*
X145942000Y-96068230D01*
X143618000Y-96068230D01*
X143501840Y-95787795D01*
X143287205Y-95573160D01*
X143006770Y-95457000D01*
X142271250Y-95457000D01*
X142080500Y-95647750D01*
X142079500Y-95647750D01*
X141888750Y-95457000D01*
X141153230Y-95457000D01*
X141148400Y-95459001D01*
X141148400Y-93729426D01*
X142088526Y-92789300D01*
X142610981Y-92789300D01*
X142610683Y-93130878D01*
X142748441Y-93464279D01*
X143003300Y-93719583D01*
X143152130Y-93781382D01*
X143152130Y-94304490D01*
X143268290Y-94584925D01*
X143482925Y-94799560D01*
X143763360Y-94915720D01*
X143923270Y-94915720D01*
X144114020Y-94724970D01*
X144114020Y-94385481D01*
X144115020Y-94387035D01*
X144115020Y-94724970D01*
X144305770Y-94915720D01*
X144465680Y-94915720D01*
X144746115Y-94799560D01*
X144875003Y-94670672D01*
X144966690Y-94670672D01*
X145095719Y-94646394D01*
X145215610Y-94670672D01*
X145614390Y-94670672D01*
X145743419Y-94646394D01*
X145863310Y-94670672D01*
X146107427Y-94670672D01*
X146128836Y-94778304D01*
X146266487Y-94984313D01*
X146472496Y-95121964D01*
X146715500Y-95170300D01*
X148145600Y-95170300D01*
X148388604Y-95121964D01*
X148594613Y-94984313D01*
X149016013Y-94562913D01*
X149016214Y-94562612D01*
X151171221Y-92407605D01*
X151321130Y-92469700D01*
X151321130Y-92469700D01*
G37*
X151321130Y-92469700D02*
X151337778Y-92469700D01*
X151276847Y-92508908D01*
X151160855Y-92678668D01*
X151120048Y-92880180D01*
X151120048Y-95079820D01*
X151155470Y-95268073D01*
X151233875Y-95389918D01*
X151208740Y-95384828D01*
X150207980Y-95384828D01*
X150019727Y-95420250D01*
X149846827Y-95531508D01*
X149821532Y-95568528D01*
X149583696Y-95615836D01*
X149377687Y-95753487D01*
X149018000Y-96113174D01*
X149018000Y-96068230D01*
X148901840Y-95787795D01*
X148687205Y-95573160D01*
X148406770Y-95457000D01*
X147671250Y-95457000D01*
X147480500Y-95647750D01*
X147480500Y-96519500D01*
X147500500Y-96519500D01*
X147500500Y-96520500D01*
X147480500Y-96520500D01*
X147480500Y-96540500D01*
X147479500Y-96540500D01*
X147479500Y-96520500D01*
X146132750Y-96520500D01*
X145942000Y-96711250D01*
X145942000Y-96971770D01*
X146058160Y-97252205D01*
X146205388Y-97399433D01*
X146187048Y-97490000D01*
X146187048Y-98090000D01*
X146222470Y-98278253D01*
X146317671Y-98426199D01*
X146080696Y-98473336D01*
X145874687Y-98610987D01*
X145539087Y-98946587D01*
X145401436Y-99152596D01*
X145353100Y-99395600D01*
X145353100Y-107100547D01*
X145266008Y-107042354D01*
X144780000Y-106945681D01*
X144293992Y-107042354D01*
X143881974Y-107317655D01*
X143765000Y-107492719D01*
X143765000Y-107333410D01*
X143648840Y-107052975D01*
X143434205Y-106838340D01*
X143153770Y-106722180D01*
X142431250Y-106722180D01*
X142240500Y-106912930D01*
X142240500Y-108584500D01*
X142260500Y-108584500D01*
X142260500Y-108585500D01*
X142240500Y-108585500D01*
X142240500Y-108605500D01*
X142239500Y-108605500D01*
X142239500Y-108585500D01*
X142219500Y-108585500D01*
X142219500Y-108584500D01*
X142239500Y-108584500D01*
X142239500Y-106912930D01*
X142048750Y-106722180D01*
X141326230Y-106722180D01*
X141148400Y-106795840D01*
X141148400Y-101694958D01*
X141274416Y-101999940D01*
X141562642Y-102288670D01*
X141939420Y-102445122D01*
X142347390Y-102445478D01*
X142724440Y-102289684D01*
X143013170Y-102001458D01*
X143169622Y-101624680D01*
X143169978Y-101216710D01*
X143109356Y-101069994D01*
X143216153Y-101001272D01*
X143332145Y-100831512D01*
X143372952Y-100630000D01*
X143372952Y-100030000D01*
X143355705Y-99938340D01*
X143501840Y-99792205D01*
X143618000Y-99511770D01*
X143618000Y-99251250D01*
X143427250Y-99060500D01*
X142080500Y-99060500D01*
X142080500Y-99080500D01*
X142079500Y-99080500D01*
X142079500Y-99060500D01*
X142059500Y-99060500D01*
X142059500Y-99059500D01*
X142079500Y-99059500D01*
X142079500Y-97790500D01*
X142080500Y-97790500D01*
X142080500Y-99059500D01*
X143427250Y-99059500D01*
X143618000Y-98868750D01*
X143618000Y-98608230D01*
X143542104Y-98425000D01*
X143618000Y-98241770D01*
X143618000Y-97981250D01*
X143427250Y-97790500D01*
X142080500Y-97790500D01*
X142079500Y-97790500D01*
X142059500Y-97790500D01*
X142059500Y-97789500D01*
X142079500Y-97789500D01*
X142079500Y-96520500D01*
X142080500Y-96520500D01*
X142080500Y-97789500D01*
X143427250Y-97789500D01*
X143618000Y-97598750D01*
X143618000Y-97338230D01*
X143542104Y-97155000D01*
X143618000Y-96971770D01*
X143618000Y-96711250D01*
X143427250Y-96520500D01*
X142080500Y-96520500D01*
X142079500Y-96520500D01*
X142059500Y-96520500D01*
X142059500Y-96519500D01*
X142079500Y-96519500D01*
X142079500Y-95647750D01*
X142080500Y-95647750D01*
X142080500Y-96519500D01*
X143427250Y-96519500D01*
X143618000Y-96328750D01*
X143618000Y-96068230D01*
X145942000Y-96068230D01*
X145942000Y-96328750D01*
X146132750Y-96519500D01*
X147479500Y-96519500D01*
X147479500Y-95647750D01*
X147288750Y-95457000D01*
X146553230Y-95457000D01*
X146272795Y-95573160D01*
X146058160Y-95787795D01*
X145942000Y-96068230D01*
X143618000Y-96068230D01*
X143501840Y-95787795D01*
X143287205Y-95573160D01*
X143006770Y-95457000D01*
X142271250Y-95457000D01*
X142080500Y-95647750D01*
X142079500Y-95647750D01*
X141888750Y-95457000D01*
X141153230Y-95457000D01*
X141148400Y-95459001D01*
X141148400Y-93729426D01*
X142088526Y-92789300D01*
X142610981Y-92789300D01*
X142610683Y-93130878D01*
X142748441Y-93464279D01*
X143003300Y-93719583D01*
X143152130Y-93781382D01*
X143152130Y-94304490D01*
X143268290Y-94584925D01*
X143482925Y-94799560D01*
X143763360Y-94915720D01*
X143923270Y-94915720D01*
X144114020Y-94724970D01*
X144114020Y-94385481D01*
X144115020Y-94387035D01*
X144115020Y-94724970D01*
X144305770Y-94915720D01*
X144465680Y-94915720D01*
X144746115Y-94799560D01*
X144875003Y-94670672D01*
X144966690Y-94670672D01*
X145095719Y-94646394D01*
X145215610Y-94670672D01*
X145614390Y-94670672D01*
X145743419Y-94646394D01*
X145863310Y-94670672D01*
X146107427Y-94670672D01*
X146128836Y-94778304D01*
X146266487Y-94984313D01*
X146472496Y-95121964D01*
X146715500Y-95170300D01*
X148145600Y-95170300D01*
X148388604Y-95121964D01*
X148594613Y-94984313D01*
X149016013Y-94562913D01*
X149016214Y-94562612D01*
X151171221Y-92407605D01*
X151321130Y-92469700D01*
G36*
X148193630Y-101177042D02*
X148037178Y-101553820D01*
X148036822Y-101961790D01*
X148192616Y-102338840D01*
X148480842Y-102627570D01*
X148857620Y-102784022D01*
X149265590Y-102784378D01*
X149359828Y-102745440D01*
X149359828Y-103157020D01*
X149395250Y-103345273D01*
X149506508Y-103518173D01*
X149542500Y-103542765D01*
X149542500Y-103719900D01*
X148781250Y-103719900D01*
X148590500Y-103910650D01*
X148590500Y-105282500D01*
X148610500Y-105282500D01*
X148610500Y-105283500D01*
X148590500Y-105283500D01*
X148590500Y-105303500D01*
X148589500Y-105303500D01*
X148589500Y-105283500D01*
X148569500Y-105283500D01*
X148569500Y-105282500D01*
X148589500Y-105282500D01*
X148589500Y-103910650D01*
X148398750Y-103719900D01*
X147536530Y-103719900D01*
X147396400Y-103777944D01*
X147396400Y-101311626D01*
X147560074Y-101147952D01*
X148222771Y-101147952D01*
X148193630Y-101177042D01*
X148193630Y-101177042D01*
G37*
X148193630Y-101177042D02*
X148037178Y-101553820D01*
X148036822Y-101961790D01*
X148192616Y-102338840D01*
X148480842Y-102627570D01*
X148857620Y-102784022D01*
X149265590Y-102784378D01*
X149359828Y-102745440D01*
X149359828Y-103157020D01*
X149395250Y-103345273D01*
X149506508Y-103518173D01*
X149542500Y-103542765D01*
X149542500Y-103719900D01*
X148781250Y-103719900D01*
X148590500Y-103910650D01*
X148590500Y-105282500D01*
X148610500Y-105282500D01*
X148610500Y-105283500D01*
X148590500Y-105283500D01*
X148590500Y-105303500D01*
X148589500Y-105303500D01*
X148589500Y-105283500D01*
X148569500Y-105283500D01*
X148569500Y-105282500D01*
X148589500Y-105282500D01*
X148589500Y-103910650D01*
X148398750Y-103719900D01*
X147536530Y-103719900D01*
X147396400Y-103777944D01*
X147396400Y-101311626D01*
X147560074Y-101147952D01*
X148222771Y-101147952D01*
X148193630Y-101177042D01*
G36*
X152400500Y-105282500D02*
X152420500Y-105282500D01*
X152420500Y-105283500D01*
X152400500Y-105283500D01*
X152400500Y-105303500D01*
X152399500Y-105303500D01*
X152399500Y-105283500D01*
X152379500Y-105283500D01*
X152379500Y-105282500D01*
X152399500Y-105282500D01*
X152399500Y-105262500D01*
X152400500Y-105262500D01*
X152400500Y-105282500D01*
X152400500Y-105282500D01*
G37*
X152400500Y-105282500D02*
X152420500Y-105282500D01*
X152420500Y-105283500D01*
X152400500Y-105283500D01*
X152400500Y-105303500D01*
X152399500Y-105303500D01*
X152399500Y-105283500D01*
X152379500Y-105283500D01*
X152379500Y-105282500D01*
X152399500Y-105282500D01*
X152399500Y-105262500D01*
X152400500Y-105262500D01*
X152400500Y-105282500D01*
G36*
X151949988Y-98768373D02*
X152119748Y-98884365D01*
X152321260Y-98925172D01*
X152741246Y-98925172D01*
X153198487Y-99382413D01*
X153404496Y-99520064D01*
X153647500Y-99568400D01*
X154216498Y-99568400D01*
X154032354Y-99843992D01*
X153935681Y-100330000D01*
X154032354Y-100816008D01*
X154307655Y-101228026D01*
X154719673Y-101503327D01*
X155205681Y-101600000D01*
X154719673Y-101696673D01*
X154479300Y-101857285D01*
X154479300Y-101830900D01*
X154430964Y-101587896D01*
X154293313Y-101381887D01*
X153005813Y-100094387D01*
X152896044Y-100021042D01*
X152864750Y-99854727D01*
X152753492Y-99681827D01*
X152583732Y-99565835D01*
X152382220Y-99525028D01*
X151990813Y-99525028D01*
X151861925Y-99396140D01*
X151581490Y-99279980D01*
X151321250Y-99279980D01*
X151249565Y-99351665D01*
X151249878Y-98992810D01*
X151220979Y-98922869D01*
X151396993Y-98889750D01*
X151569893Y-98778492D01*
X151637873Y-98679000D01*
X151892478Y-98679000D01*
X151949988Y-98768373D01*
X151949988Y-98768373D01*
G37*
X151949988Y-98768373D02*
X152119748Y-98884365D01*
X152321260Y-98925172D01*
X152741246Y-98925172D01*
X153198487Y-99382413D01*
X153404496Y-99520064D01*
X153647500Y-99568400D01*
X154216498Y-99568400D01*
X154032354Y-99843992D01*
X153935681Y-100330000D01*
X154032354Y-100816008D01*
X154307655Y-101228026D01*
X154719673Y-101503327D01*
X155205681Y-101600000D01*
X154719673Y-101696673D01*
X154479300Y-101857285D01*
X154479300Y-101830900D01*
X154430964Y-101587896D01*
X154293313Y-101381887D01*
X153005813Y-100094387D01*
X152896044Y-100021042D01*
X152864750Y-99854727D01*
X152753492Y-99681827D01*
X152583732Y-99565835D01*
X152382220Y-99525028D01*
X151990813Y-99525028D01*
X151861925Y-99396140D01*
X151581490Y-99279980D01*
X151321250Y-99279980D01*
X151249565Y-99351665D01*
X151249878Y-98992810D01*
X151220979Y-98922869D01*
X151396993Y-98889750D01*
X151569893Y-98778492D01*
X151637873Y-98679000D01*
X151892478Y-98679000D01*
X151949988Y-98768373D01*
G36*
X151130500Y-100542860D02*
X151150500Y-100542860D01*
X151150500Y-100543860D01*
X151130500Y-100543860D01*
X151130500Y-100563860D01*
X151129500Y-100563860D01*
X151129500Y-100543860D01*
X151109500Y-100543860D01*
X151109500Y-100542860D01*
X151129500Y-100542860D01*
X151129500Y-100522860D01*
X151130500Y-100522860D01*
X151130500Y-100542860D01*
X151130500Y-100542860D01*
G37*
X151130500Y-100542860D02*
X151150500Y-100542860D01*
X151150500Y-100543860D01*
X151130500Y-100543860D01*
X151130500Y-100563860D01*
X151129500Y-100563860D01*
X151129500Y-100543860D01*
X151109500Y-100543860D01*
X151109500Y-100542860D01*
X151129500Y-100542860D01*
X151129500Y-100522860D01*
X151130500Y-100522860D01*
X151130500Y-100542860D01*
G36*
X154940500Y-93979500D02*
X154960500Y-93979500D01*
X154960500Y-93980500D01*
X154940500Y-93980500D01*
X154940500Y-95652070D01*
X155179056Y-95823967D01*
X155523130Y-95726927D01*
X156017984Y-95396511D01*
X156348725Y-94901874D01*
X156447600Y-94405646D01*
X156447600Y-96265000D01*
X155766250Y-96265000D01*
X155575500Y-96455750D01*
X155575500Y-97789500D01*
X155595500Y-97789500D01*
X155595500Y-97790500D01*
X155575500Y-97790500D01*
X155575500Y-97810500D01*
X155574500Y-97810500D01*
X155574500Y-97790500D01*
X155554500Y-97790500D01*
X155554500Y-97789500D01*
X155574500Y-97789500D01*
X155574500Y-96455750D01*
X155383750Y-96265000D01*
X154323410Y-96265000D01*
X154042975Y-96381160D01*
X153978291Y-96445844D01*
X153968860Y-96423075D01*
X153839972Y-96294187D01*
X153839972Y-95902780D01*
X153804550Y-95714527D01*
X153693292Y-95541627D01*
X153535132Y-95433561D01*
X153639145Y-95281332D01*
X153673050Y-95113904D01*
X153862016Y-95396511D01*
X154356870Y-95726927D01*
X154700944Y-95823967D01*
X154939500Y-95652070D01*
X154939500Y-93980500D01*
X154919500Y-93980500D01*
X154919500Y-93979500D01*
X154939500Y-93979500D01*
X154939500Y-93959500D01*
X154940500Y-93959500D01*
X154940500Y-93979500D01*
X154940500Y-93979500D01*
G37*
X154940500Y-93979500D02*
X154960500Y-93979500D01*
X154960500Y-93980500D01*
X154940500Y-93980500D01*
X154940500Y-95652070D01*
X155179056Y-95823967D01*
X155523130Y-95726927D01*
X156017984Y-95396511D01*
X156348725Y-94901874D01*
X156447600Y-94405646D01*
X156447600Y-96265000D01*
X155766250Y-96265000D01*
X155575500Y-96455750D01*
X155575500Y-97789500D01*
X155595500Y-97789500D01*
X155595500Y-97790500D01*
X155575500Y-97790500D01*
X155575500Y-97810500D01*
X155574500Y-97810500D01*
X155574500Y-97790500D01*
X155554500Y-97790500D01*
X155554500Y-97789500D01*
X155574500Y-97789500D01*
X155574500Y-96455750D01*
X155383750Y-96265000D01*
X154323410Y-96265000D01*
X154042975Y-96381160D01*
X153978291Y-96445844D01*
X153968860Y-96423075D01*
X153839972Y-96294187D01*
X153839972Y-95902780D01*
X153804550Y-95714527D01*
X153693292Y-95541627D01*
X153535132Y-95433561D01*
X153639145Y-95281332D01*
X153673050Y-95113904D01*
X153862016Y-95396511D01*
X154356870Y-95726927D01*
X154700944Y-95823967D01*
X154939500Y-95652070D01*
X154939500Y-93980500D01*
X154919500Y-93980500D01*
X154919500Y-93979500D01*
X154939500Y-93979500D01*
X154939500Y-93959500D01*
X154940500Y-93959500D01*
X154940500Y-93979500D01*
G36*
X152822140Y-97154500D02*
X152842140Y-97154500D01*
X152842140Y-97155500D01*
X152822140Y-97155500D01*
X152822140Y-97175500D01*
X152821140Y-97175500D01*
X152821140Y-97155500D01*
X152801140Y-97155500D01*
X152801140Y-97154500D01*
X152821140Y-97154500D01*
X152821140Y-97134500D01*
X152822140Y-97134500D01*
X152822140Y-97154500D01*
X152822140Y-97154500D01*
G37*
X152822140Y-97154500D02*
X152842140Y-97154500D01*
X152842140Y-97155500D01*
X152822140Y-97155500D01*
X152822140Y-97175500D01*
X152821140Y-97175500D01*
X152821140Y-97155500D01*
X152801140Y-97155500D01*
X152801140Y-97154500D01*
X152821140Y-97154500D01*
X152821140Y-97134500D01*
X152822140Y-97134500D01*
X152822140Y-97154500D01*
G36*
X152273500Y-90804500D02*
X152293500Y-90804500D01*
X152293500Y-90805500D01*
X152273500Y-90805500D01*
X152273500Y-90825500D01*
X152272500Y-90825500D01*
X152272500Y-90805500D01*
X152252500Y-90805500D01*
X152252500Y-90804500D01*
X152272500Y-90804500D01*
X152272500Y-90784500D01*
X152273500Y-90784500D01*
X152273500Y-90804500D01*
X152273500Y-90804500D01*
G37*
X152273500Y-90804500D02*
X152293500Y-90804500D01*
X152293500Y-90805500D01*
X152273500Y-90805500D01*
X152273500Y-90825500D01*
X152272500Y-90825500D01*
X152272500Y-90805500D01*
X152252500Y-90805500D01*
X152252500Y-90804500D01*
X152272500Y-90804500D01*
X152272500Y-90784500D01*
X152273500Y-90784500D01*
X152273500Y-90804500D01*
M02*
