G04 #@! TF.FileFunction,Legend,Top*
%FSLAX46Y46*%
G04 Gerber Fmt 4.6, Leading zero omitted, Abs format (unit mm)*
G04 Created by KiCad (PCBNEW 0.201505071723+5645~23~ubuntu14.04.1-product) date mar 12 mag 2015 18:09:39 CEST*
%MOMM*%
G01*
G04 APERTURE LIST*
%ADD10C,0.100000*%
%ADD11C,0.150000*%
%ADD12C,0.127000*%
%ADD13C,0.304800*%
%ADD14C,0.200660*%
%ADD15C,0.200000*%
G04 APERTURE END LIST*
D10*
D11*
X135890000Y-88900000D02*
X135890000Y-90170000D01*
X161290000Y-90170000D02*
X161290000Y-88900000D01*
X135890000Y-88900000D02*
X161290000Y-88900000D01*
X161290000Y-90170000D02*
X161290000Y-118110000D01*
X161290000Y-118110000D02*
X135890000Y-118110000D01*
X135890000Y-118110000D02*
X135890000Y-90170000D01*
X146855000Y-101000000D02*
X146855000Y-100855000D01*
X142705000Y-101000000D02*
X142705000Y-100855000D01*
X142705000Y-95850000D02*
X142705000Y-95995000D01*
X146855000Y-95850000D02*
X146855000Y-95995000D01*
X146855000Y-101000000D02*
X142705000Y-101000000D01*
X146855000Y-95850000D02*
X142705000Y-95850000D01*
X146855000Y-100855000D02*
X148255000Y-100855000D01*
D12*
X154813000Y-91617800D02*
X154813000Y-89992200D01*
X152527000Y-89992200D02*
X152527000Y-91617800D01*
X152069800Y-89992200D02*
X152069800Y-91617800D01*
X152069800Y-91617800D02*
X155270200Y-91617800D01*
X155270200Y-91617800D02*
X155270200Y-89992200D01*
X155270200Y-89992200D02*
X152069800Y-89992200D01*
X147777200Y-107823000D02*
X149402800Y-107823000D01*
X149402800Y-105537000D02*
X147777200Y-105537000D01*
X149402800Y-105079800D02*
X147777200Y-105079800D01*
X147777200Y-105079800D02*
X147777200Y-108280200D01*
X147777200Y-108280200D02*
X149402800Y-108280200D01*
X149402800Y-108280200D02*
X149402800Y-105079800D01*
X151587200Y-107823000D02*
X153212800Y-107823000D01*
X153212800Y-105537000D02*
X151587200Y-105537000D01*
X153212800Y-105079800D02*
X151587200Y-105079800D01*
X151587200Y-105079800D02*
X151587200Y-108280200D01*
X151587200Y-108280200D02*
X153212800Y-108280200D01*
X153212800Y-108280200D02*
X153212800Y-105079800D01*
D13*
X151130000Y-95250000D02*
X153670000Y-92710000D01*
X156210000Y-95250000D02*
X151130000Y-95250000D01*
X151130000Y-92710000D02*
X156210000Y-92710000D01*
X151130000Y-95250000D02*
X151130000Y-92710000D01*
X156210000Y-92710000D02*
X156210000Y-95250000D01*
X156845000Y-99060000D02*
X154305000Y-99060000D01*
X154305000Y-96520000D02*
X156845000Y-96520000D01*
X156845000Y-96520000D02*
X156845000Y-111760000D01*
X156845000Y-111760000D02*
X154305000Y-111760000D01*
X154305000Y-111760000D02*
X154305000Y-96520000D01*
X143510000Y-110490000D02*
X143510000Y-113030000D01*
X153670000Y-113030000D02*
X140970000Y-113030000D01*
X140970000Y-110490000D02*
X153670000Y-110490000D01*
X140970000Y-113030000D02*
X140970000Y-110490000D01*
X153670000Y-110490000D02*
X153670000Y-113030000D01*
X140970000Y-109855000D02*
X143510000Y-107315000D01*
X146050000Y-109855000D02*
X140970000Y-109855000D01*
X140970000Y-107315000D02*
X146050000Y-107315000D01*
X140970000Y-109855000D02*
X140970000Y-107315000D01*
X146050000Y-107315000D02*
X146050000Y-109855000D01*
D12*
X152463500Y-98005900D02*
X151815800Y-98653600D01*
X152463500Y-98158300D02*
X151968200Y-98653600D01*
X151066500Y-97155000D02*
X150406100Y-97155000D01*
X151066500Y-96202500D02*
X150406100Y-96202500D01*
X151066500Y-98107500D02*
X150406100Y-98107500D01*
X152463500Y-97155000D02*
X153123900Y-97155000D01*
X152463500Y-96202500D02*
X153123900Y-96202500D01*
X152463500Y-98107500D02*
X153123900Y-98107500D01*
X151066500Y-98653600D02*
X151066500Y-95656400D01*
X151066500Y-95656400D02*
X152463500Y-95656400D01*
X152463500Y-95656400D02*
X152463500Y-98653600D01*
X152463500Y-98653600D02*
X151066500Y-98653600D01*
X151980900Y-100901500D02*
X152628600Y-101549200D01*
X152133300Y-100901500D02*
X152628600Y-101396800D01*
X150177500Y-102298500D02*
X150177500Y-102958900D01*
X152082500Y-102298500D02*
X152082500Y-102958900D01*
X151130000Y-100901500D02*
X151130000Y-100241100D01*
X150177500Y-100901500D02*
X150177500Y-100241100D01*
X152082500Y-100901500D02*
X152082500Y-100241100D01*
X152628600Y-102298500D02*
X149631400Y-102298500D01*
X149631400Y-102298500D02*
X149631400Y-100901500D01*
X149631400Y-100901500D02*
X152628600Y-100901500D01*
X152628600Y-100901500D02*
X152628600Y-102298500D01*
D14*
X149616160Y-88806020D02*
X141213840Y-88806020D01*
X149616160Y-88704420D02*
X141213840Y-88704420D01*
X141213840Y-88704420D02*
X141213840Y-88905080D01*
X141213840Y-88905080D02*
X149616160Y-88905080D01*
X149616160Y-88905080D02*
X149616160Y-88704420D01*
X149313900Y-88704420D02*
X149313900Y-93705680D01*
X149313900Y-93705680D02*
X141516100Y-93705680D01*
X141516100Y-93705680D02*
X141516100Y-88704420D01*
D12*
X142367000Y-104597200D02*
X142367000Y-106222800D01*
X144653000Y-106222800D02*
X144653000Y-104597200D01*
X145110200Y-106222800D02*
X145110200Y-104597200D01*
X145110200Y-104597200D02*
X141909800Y-104597200D01*
X141909800Y-104597200D02*
X141909800Y-106222800D01*
X141909800Y-106222800D02*
X145110200Y-106222800D01*
D15*
X157313334Y-91162143D02*
X157265715Y-91209762D01*
X157122858Y-91257381D01*
X157027620Y-91257381D01*
X156884762Y-91209762D01*
X156789524Y-91114524D01*
X156741905Y-91019286D01*
X156694286Y-90828810D01*
X156694286Y-90685952D01*
X156741905Y-90495476D01*
X156789524Y-90400238D01*
X156884762Y-90305000D01*
X157027620Y-90257381D01*
X157122858Y-90257381D01*
X157265715Y-90305000D01*
X157313334Y-90352619D01*
X158265715Y-91257381D02*
X157694286Y-91257381D01*
X157980000Y-91257381D02*
X157980000Y-90257381D01*
X157884762Y-90400238D01*
X157789524Y-90495476D01*
X157694286Y-90543095D01*
X147042143Y-103671666D02*
X147089762Y-103719285D01*
X147137381Y-103862142D01*
X147137381Y-103957380D01*
X147089762Y-104100238D01*
X146994524Y-104195476D01*
X146899286Y-104243095D01*
X146708810Y-104290714D01*
X146565952Y-104290714D01*
X146375476Y-104243095D01*
X146280238Y-104195476D01*
X146185000Y-104100238D01*
X146137381Y-103957380D01*
X146137381Y-103862142D01*
X146185000Y-103719285D01*
X146232619Y-103671666D01*
X146232619Y-103290714D02*
X146185000Y-103243095D01*
X146137381Y-103147857D01*
X146137381Y-102909761D01*
X146185000Y-102814523D01*
X146232619Y-102766904D01*
X146327857Y-102719285D01*
X146423095Y-102719285D01*
X146565952Y-102766904D01*
X147137381Y-103338333D01*
X147137381Y-102719285D01*
X150852143Y-106846666D02*
X150899762Y-106894285D01*
X150947381Y-107037142D01*
X150947381Y-107132380D01*
X150899762Y-107275238D01*
X150804524Y-107370476D01*
X150709286Y-107418095D01*
X150518810Y-107465714D01*
X150375952Y-107465714D01*
X150185476Y-107418095D01*
X150090238Y-107370476D01*
X149995000Y-107275238D01*
X149947381Y-107132380D01*
X149947381Y-107037142D01*
X149995000Y-106894285D01*
X150042619Y-106846666D01*
X149947381Y-106513333D02*
X149947381Y-105894285D01*
X150328333Y-106227619D01*
X150328333Y-106084761D01*
X150375952Y-105989523D01*
X150423571Y-105941904D01*
X150518810Y-105894285D01*
X150756905Y-105894285D01*
X150852143Y-105941904D01*
X150899762Y-105989523D01*
X150947381Y-106084761D01*
X150947381Y-106370476D01*
X150899762Y-106465714D01*
X150852143Y-106513333D01*
X148677381Y-95376905D02*
X149486905Y-95376905D01*
X149582143Y-95329286D01*
X149629762Y-95281667D01*
X149677381Y-95186429D01*
X149677381Y-94995952D01*
X149629762Y-94900714D01*
X149582143Y-94853095D01*
X149486905Y-94805476D01*
X148677381Y-94805476D01*
X148772619Y-94376905D02*
X148725000Y-94329286D01*
X148677381Y-94234048D01*
X148677381Y-93995952D01*
X148725000Y-93900714D01*
X148772619Y-93853095D01*
X148867857Y-93805476D01*
X148963095Y-93805476D01*
X149105952Y-93853095D01*
X149677381Y-94424524D01*
X149677381Y-93805476D01*
X147407381Y-102996905D02*
X148216905Y-102996905D01*
X148312143Y-102949286D01*
X148359762Y-102901667D01*
X148407381Y-102806429D01*
X148407381Y-102615952D01*
X148359762Y-102520714D01*
X148312143Y-102473095D01*
X148216905Y-102425476D01*
X147407381Y-102425476D01*
X147407381Y-102044524D02*
X147407381Y-101425476D01*
X147788333Y-101758810D01*
X147788333Y-101615952D01*
X147835952Y-101520714D01*
X147883571Y-101473095D01*
X147978810Y-101425476D01*
X148216905Y-101425476D01*
X148312143Y-101473095D01*
X148359762Y-101520714D01*
X148407381Y-101615952D01*
X148407381Y-101901667D01*
X148359762Y-101996905D01*
X148312143Y-102044524D01*
X144153095Y-94702381D02*
X144153095Y-95511905D01*
X144200714Y-95607143D01*
X144248333Y-95654762D01*
X144343571Y-95702381D01*
X144534048Y-95702381D01*
X144629286Y-95654762D01*
X144676905Y-95607143D01*
X144724524Y-95511905D01*
X144724524Y-94702381D01*
X145153095Y-95654762D02*
X145295952Y-95702381D01*
X145534048Y-95702381D01*
X145629286Y-95654762D01*
X145676905Y-95607143D01*
X145724524Y-95511905D01*
X145724524Y-95416667D01*
X145676905Y-95321429D01*
X145629286Y-95273810D01*
X145534048Y-95226190D01*
X145343571Y-95178571D01*
X145248333Y-95130952D01*
X145200714Y-95083333D01*
X145153095Y-94988095D01*
X145153095Y-94892857D01*
X145200714Y-94797619D01*
X145248333Y-94750000D01*
X145343571Y-94702381D01*
X145581667Y-94702381D01*
X145724524Y-94750000D01*
X146486429Y-95178571D02*
X146629286Y-95226190D01*
X146676905Y-95273810D01*
X146724524Y-95369048D01*
X146724524Y-95511905D01*
X146676905Y-95607143D01*
X146629286Y-95654762D01*
X146534048Y-95702381D01*
X146153095Y-95702381D01*
X146153095Y-94702381D01*
X146486429Y-94702381D01*
X146581667Y-94750000D01*
X146629286Y-94797619D01*
X146676905Y-94892857D01*
X146676905Y-94988095D01*
X146629286Y-95083333D01*
X146581667Y-95130952D01*
X146486429Y-95178571D01*
X146153095Y-95178571D01*
X143343334Y-103322381D02*
X143010000Y-102846190D01*
X142771905Y-103322381D02*
X142771905Y-102322381D01*
X143152858Y-102322381D01*
X143248096Y-102370000D01*
X143295715Y-102417619D01*
X143343334Y-102512857D01*
X143343334Y-102655714D01*
X143295715Y-102750952D01*
X143248096Y-102798571D01*
X143152858Y-102846190D01*
X142771905Y-102846190D01*
X144295715Y-103322381D02*
X143724286Y-103322381D01*
X144010000Y-103322381D02*
X144010000Y-102322381D01*
X143914762Y-102465238D01*
X143819524Y-102560476D01*
X143724286Y-102608095D01*
M02*
