M48
;DRILL file {KiCad 4.0.6} date 12/07/19 10:21:59
;FORMAT={-:-/ absolute / inch / decimal}
FMAT,2
INCH,TZ
T1C0.016
T2C0.033
T3C0.059
%
G90
G05
M72
T1
X5.7248Y-3.128
X5.84Y-2.9035
X5.8961Y-3.128
X5.904Y-3.3612
X5.9758Y-3.2992
X5.9876Y-2.7726
X6.0181Y-2.7008
X6.029Y-3.2776
T2
X5.8154Y-3.0325
X5.9154Y-3.0325
X6.0154Y-3.0325
X6.1154Y-3.0325
T3
X5.5615Y-2.5711
X5.5615Y-2.6711
X5.5615Y-2.7711
X5.5615Y-2.8711
X5.5615Y-2.9711
X5.5615Y-3.0711
X5.5615Y-3.1711
X5.5615Y-3.2711
X5.5615Y-3.3711
X5.5615Y-3.4711
X5.6615Y-2.5711
X5.7111Y-2.6722
X5.7615Y-2.5711
X5.8111Y-2.6722
X5.8615Y-2.5711
X5.9111Y-2.6722
X5.9615Y-2.5711
X6.0615Y-2.5711
X6.1615Y-2.5711
X6.2615Y-2.5711
X6.3615Y-2.5711
X6.3615Y-2.6711
X6.3615Y-2.7711
X6.3615Y-2.8711
X6.3615Y-2.9711
X6.3615Y-3.0711
X6.3615Y-3.1711
X6.3615Y-3.2711
X6.3615Y-3.3711
X6.3615Y-3.4711
T0
M30
