G04 #@! TF.GenerationSoftware,KiCad,Pcbnew,6.0.4-1.fc34*
G04 #@! TF.CreationDate,2023-10-23T18:29:32+02:00*
G04 #@! TF.ProjectId,Microduino_ADC_DE,4d696372-6f64-4756-996e-6f5f4144435f,1.0*
G04 #@! TF.SameCoordinates,Original*
G04 #@! TF.FileFunction,Soldermask,Bot*
G04 #@! TF.FilePolarity,Negative*
%FSLAX46Y46*%
G04 Gerber Fmt 4.6, Leading zero omitted, Abs format (unit mm)*
G04 Created by KiCad (PCBNEW 6.0.4-1.fc34) date 2023-10-23 18:29:32*
%MOMM*%
%LPD*%
G01*
G04 APERTURE LIST*
G04 Aperture macros list*
%AMRoundRect*
0 Rectangle with rounded corners*
0 $1 Rounding radius*
0 $2 $3 $4 $5 $6 $7 $8 $9 X,Y pos of 4 corners*
0 Add a 4 corners polygon primitive as box body*
4,1,4,$2,$3,$4,$5,$6,$7,$8,$9,$2,$3,0*
0 Add four circle primitives for the rounded corners*
1,1,$1+$1,$2,$3*
1,1,$1+$1,$4,$5*
1,1,$1+$1,$6,$7*
1,1,$1+$1,$8,$9*
0 Add four rect primitives between the rounded corners*
20,1,$1+$1,$2,$3,$4,$5,0*
20,1,$1+$1,$4,$5,$6,$7,0*
20,1,$1+$1,$6,$7,$8,$9,0*
20,1,$1+$1,$8,$9,$2,$3,0*%
G04 Aperture macros list end*
%ADD10RoundRect,0.200000X-0.850000X-0.850000X0.850000X-0.850000X0.850000X0.850000X-0.850000X0.850000X0*%
%ADD11C,2.100000*%
%ADD12C,2.500000*%
%ADD13RoundRect,0.200000X0.635000X0.485000X-0.635000X0.485000X-0.635000X-0.485000X0.635000X-0.485000X0*%
%ADD14RoundRect,0.200000X-0.500000X-0.625000X0.500000X-0.625000X0.500000X0.625000X-0.500000X0.625000X0*%
%ADD15RoundRect,0.200000X0.500000X0.625000X-0.500000X0.625000X-0.500000X-0.625000X0.500000X-0.625000X0*%
%ADD16RoundRect,0.200000X0.650000X0.850000X-0.650000X0.850000X-0.650000X-0.850000X0.650000X-0.850000X0*%
%ADD17RoundRect,0.200000X-0.635000X-0.485000X0.635000X-0.485000X0.635000X0.485000X-0.635000X0.485000X0*%
%ADD18RoundRect,0.200000X0.485000X-0.635000X0.485000X0.635000X-0.485000X0.635000X-0.485000X-0.635000X0*%
%ADD19RoundRect,0.200000X-0.650000X0.350000X-0.650000X-0.350000X0.650000X-0.350000X0.650000X0.350000X0*%
%ADD20RoundRect,0.200000X0.350000X0.650000X-0.350000X0.650000X-0.350000X-0.650000X0.350000X-0.650000X0*%
%ADD21RoundRect,0.200000X0.700000X0.150000X-0.700000X0.150000X-0.700000X-0.150000X0.700000X-0.150000X0*%
G04 APERTURE END LIST*
D10*
X147711000Y-77025000D03*
D11*
X150251000Y-77025000D03*
X152791000Y-77025000D03*
X155331000Y-77025000D03*
D12*
X161581000Y-88165000D03*
X161581000Y-85625000D03*
X161581000Y-83085000D03*
X161581000Y-80545000D03*
X161581000Y-78005000D03*
X161581000Y-75465000D03*
X161581000Y-72925000D03*
X161581000Y-70385000D03*
X161581000Y-67845000D03*
X161581000Y-65305000D03*
X159041000Y-65305000D03*
X156501000Y-65305000D03*
X153961000Y-65305000D03*
X151421000Y-65305000D03*
X148881000Y-65305000D03*
X146341000Y-65305000D03*
X143801000Y-65305000D03*
X141261000Y-65305000D03*
X141261000Y-67845000D03*
X141261000Y-70385000D03*
X141261000Y-72925000D03*
X141261000Y-75465000D03*
X141261000Y-78005000D03*
X141261000Y-80545000D03*
X141261000Y-83085000D03*
X141261000Y-85625000D03*
X141261000Y-88165000D03*
D13*
X157611000Y-85630000D03*
X157611000Y-86900000D03*
X157611000Y-88170000D03*
D12*
X145061000Y-67875000D03*
X147601000Y-67875000D03*
X150141000Y-67875000D03*
D14*
X146461000Y-85375000D03*
X148461000Y-85375000D03*
D15*
X156686000Y-82150000D03*
X154686000Y-82150000D03*
D16*
X157386000Y-79800000D03*
X153886000Y-79800000D03*
D17*
X150436000Y-73670000D03*
X150436000Y-72400000D03*
X150436000Y-71130000D03*
X146936000Y-73695000D03*
X146936000Y-72425000D03*
X146936000Y-71155000D03*
X145386000Y-72425000D03*
D18*
X156756000Y-74400000D03*
X155486000Y-74400000D03*
X154216000Y-74400000D03*
X156756000Y-68575000D03*
X155486000Y-68575000D03*
X154216000Y-68575000D03*
D19*
X156761000Y-70525000D03*
X156761000Y-72425000D03*
D20*
X155236000Y-72450000D03*
X153336000Y-72450000D03*
X155236000Y-70525000D03*
X153336000Y-70525000D03*
D21*
X149761000Y-81450000D03*
X149761000Y-81950000D03*
X149761000Y-82450000D03*
X149761000Y-82950000D03*
X149761000Y-83450000D03*
X145361000Y-83450000D03*
X145361000Y-82950000D03*
X145361000Y-82450000D03*
X145361000Y-81950000D03*
X145361000Y-81450000D03*
M02*
