G04 #@! TF.GenerationSoftware,KiCad,Pcbnew,6.0.4-1.fc34*
G04 #@! TF.CreationDate,2023-10-23T18:29:32+02:00*
G04 #@! TF.ProjectId,Microduino_ADC_DE,4d696372-6f64-4756-996e-6f5f4144435f,1.0*
G04 #@! TF.SameCoordinates,Original*
G04 #@! TF.FileFunction,Other,User*
%FSLAX46Y46*%
G04 Gerber Fmt 4.6, Leading zero omitted, Abs format (unit mm)*
G04 Created by KiCad (PCBNEW 6.0.4-1.fc34) date 2023-10-23 18:29:32*
%MOMM*%
%LPD*%
G01*
G04 APERTURE LIST*
%ADD10C,0.120000*%
%ADD11C,0.050000*%
G04 APERTURE END LIST*
D10*
X163381000Y-63495000D02*
X139461000Y-63495000D01*
X159781000Y-89945000D02*
X159781000Y-67115000D01*
X139461000Y-89945000D02*
X139461000Y-63495000D01*
X163381000Y-89945000D02*
X163381000Y-63495000D01*
X143061000Y-89965000D02*
X139461000Y-89965000D01*
X143061000Y-67115000D02*
X159781000Y-67115000D01*
X163381000Y-89945000D02*
X159781000Y-89945000D01*
X143061000Y-67115000D02*
X143061000Y-89965000D01*
D11*
X156461000Y-84750000D02*
X156461000Y-89050000D01*
X156461000Y-89050000D02*
X158761000Y-89050000D01*
X158761000Y-84750000D02*
X156461000Y-84750000D01*
X158761000Y-89050000D02*
X158761000Y-84750000D01*
X143261000Y-66075000D02*
X151911000Y-66075000D01*
X151911000Y-66075000D02*
X151911000Y-69675000D01*
X143261000Y-69675000D02*
X143261000Y-66075000D01*
X151911000Y-69675000D02*
X143261000Y-69675000D01*
X149211000Y-84505000D02*
X145711000Y-84505000D01*
X149211000Y-84505000D02*
X149211000Y-86255000D01*
X145711000Y-86255000D02*
X145711000Y-84505000D01*
X145711000Y-86255000D02*
X149211000Y-86255000D01*
X153936000Y-83020000D02*
X157436000Y-83020000D01*
X157436000Y-81270000D02*
X157436000Y-83020000D01*
X153936000Y-83020000D02*
X153936000Y-81270000D01*
X157436000Y-81270000D02*
X153936000Y-81270000D01*
X158286000Y-80900000D02*
X158286000Y-78700000D01*
X152986000Y-80900000D02*
X158286000Y-80900000D01*
X152986000Y-78700000D02*
X152986000Y-80900000D01*
X158286000Y-78700000D02*
X152986000Y-78700000D01*
X151586000Y-70250000D02*
X149286000Y-70250000D01*
X149286000Y-70250000D02*
X149286000Y-74550000D01*
X149286000Y-74550000D02*
X151586000Y-74550000D01*
X151586000Y-74550000D02*
X151586000Y-70250000D01*
X148086000Y-74575000D02*
X148086000Y-70275000D01*
X148086000Y-70275000D02*
X145786000Y-70275000D01*
X144246000Y-70275000D02*
X144246000Y-74575000D01*
X145786000Y-70275000D02*
X144246000Y-70275000D01*
X145786000Y-74575000D02*
X148086000Y-74575000D01*
X145796000Y-74575000D02*
X144246000Y-74575000D01*
X153336000Y-75550000D02*
X157636000Y-75550000D01*
X153336000Y-73250000D02*
X153336000Y-75550000D01*
X157636000Y-75550000D02*
X157636000Y-73250000D01*
X157636000Y-73250000D02*
X153336000Y-73250000D01*
X157636000Y-69725000D02*
X157636000Y-67425000D01*
X153336000Y-69725000D02*
X157636000Y-69725000D01*
X153336000Y-67425000D02*
X153336000Y-69725000D01*
X157636000Y-67425000D02*
X153336000Y-67425000D01*
X155861000Y-69925000D02*
X157661000Y-69925000D01*
X157661000Y-73025000D02*
X155861000Y-73025000D01*
X157661000Y-73025000D02*
X157661000Y-69925000D01*
X155861000Y-69925000D02*
X155861000Y-73025000D01*
X152736000Y-73350000D02*
X155836000Y-73350000D01*
X152736000Y-73350000D02*
X152736000Y-71550000D01*
X155836000Y-71550000D02*
X152736000Y-71550000D01*
X155836000Y-71550000D02*
X155836000Y-73350000D01*
X155836000Y-69625000D02*
X155836000Y-71425000D01*
X152736000Y-71425000D02*
X155836000Y-71425000D01*
X155836000Y-69625000D02*
X152736000Y-69625000D01*
X152736000Y-71425000D02*
X152736000Y-69625000D01*
X144411000Y-80600000D02*
X144411000Y-84300000D01*
X150711000Y-80600000D02*
X144411000Y-80600000D01*
X150711000Y-84300000D02*
X144411000Y-84300000D01*
X150711000Y-80600000D02*
X150711000Y-84300000D01*
M02*
