G04 #@! TF.GenerationSoftware,KiCad,Pcbnew,6.0.4-1.fc34*
G04 #@! TF.CreationDate,2023-10-23T18:29:31+02:00*
G04 #@! TF.ProjectId,Microduino_ADC_DE,4d696372-6f64-4756-996e-6f5f4144435f,1.0*
G04 #@! TF.SameCoordinates,Original*
G04 #@! TF.FileFunction,Copper,L2,Bot*
G04 #@! TF.FilePolarity,Positive*
%FSLAX46Y46*%
G04 Gerber Fmt 4.6, Leading zero omitted, Abs format (unit mm)*
G04 Created by KiCad (PCBNEW 6.0.4-1.fc34) date 2023-10-23 18:29:31*
%MOMM*%
%LPD*%
G01*
G04 APERTURE LIST*
G04 #@! TA.AperFunction,ComponentPad*
%ADD10R,1.700000X1.700000*%
G04 #@! TD*
G04 #@! TA.AperFunction,ComponentPad*
%ADD11C,1.700000*%
G04 #@! TD*
G04 #@! TA.AperFunction,ComponentPad*
%ADD12C,2.100000*%
G04 #@! TD*
G04 #@! TA.AperFunction,SMDPad,CuDef*
%ADD13R,1.270000X0.970000*%
G04 #@! TD*
G04 #@! TA.AperFunction,SMDPad,CuDef*
%ADD14R,1.000000X1.250000*%
G04 #@! TD*
G04 #@! TA.AperFunction,SMDPad,CuDef*
%ADD15R,1.300000X1.700000*%
G04 #@! TD*
G04 #@! TA.AperFunction,SMDPad,CuDef*
%ADD16R,0.970000X1.270000*%
G04 #@! TD*
G04 #@! TA.AperFunction,SMDPad,CuDef*
%ADD17R,1.300000X0.700000*%
G04 #@! TD*
G04 #@! TA.AperFunction,SMDPad,CuDef*
%ADD18R,0.700000X1.300000*%
G04 #@! TD*
G04 #@! TA.AperFunction,SMDPad,CuDef*
%ADD19R,1.400000X0.300000*%
G04 #@! TD*
G04 #@! TA.AperFunction,ViaPad*
%ADD20C,0.600000*%
G04 #@! TD*
G04 #@! TA.AperFunction,Conductor*
%ADD21C,0.250000*%
G04 #@! TD*
G04 #@! TA.AperFunction,Conductor*
%ADD22C,0.500000*%
G04 #@! TD*
G04 #@! TA.AperFunction,Conductor*
%ADD23C,0.400000*%
G04 #@! TD*
G04 APERTURE END LIST*
D10*
X147711000Y-77025000D03*
D11*
X150251000Y-77025000D03*
X152791000Y-77025000D03*
X155331000Y-77025000D03*
D12*
X161581000Y-88165000D03*
X161581000Y-85625000D03*
X161581000Y-83085000D03*
X161581000Y-80545000D03*
X161581000Y-78005000D03*
X161581000Y-75465000D03*
X161581000Y-72925000D03*
X161581000Y-70385000D03*
X161581000Y-67845000D03*
X161581000Y-65305000D03*
X159041000Y-65305000D03*
X156501000Y-65305000D03*
X153961000Y-65305000D03*
X151421000Y-65305000D03*
X148881000Y-65305000D03*
X146341000Y-65305000D03*
X143801000Y-65305000D03*
X141261000Y-65305000D03*
X141261000Y-67845000D03*
X141261000Y-70385000D03*
X141261000Y-72925000D03*
X141261000Y-75465000D03*
X141261000Y-78005000D03*
X141261000Y-80545000D03*
X141261000Y-83085000D03*
X141261000Y-85625000D03*
X141261000Y-88165000D03*
D13*
X157611000Y-85630000D03*
X157611000Y-86900000D03*
X157611000Y-88170000D03*
D12*
X145061000Y-67875000D03*
X147601000Y-67875000D03*
X150141000Y-67875000D03*
D14*
X146461000Y-85375000D03*
X148461000Y-85375000D03*
X156686000Y-82150000D03*
X154686000Y-82150000D03*
D15*
X157386000Y-79800000D03*
X153886000Y-79800000D03*
D13*
X150436000Y-73670000D03*
X150436000Y-72400000D03*
X150436000Y-71130000D03*
X146936000Y-73695000D03*
X146936000Y-72425000D03*
X146936000Y-71155000D03*
X145386000Y-72425000D03*
D16*
X156756000Y-74400000D03*
X155486000Y-74400000D03*
X154216000Y-74400000D03*
X156756000Y-68575000D03*
X155486000Y-68575000D03*
X154216000Y-68575000D03*
D17*
X156761000Y-70525000D03*
X156761000Y-72425000D03*
D18*
X155236000Y-72450000D03*
X153336000Y-72450000D03*
X155236000Y-70525000D03*
X153336000Y-70525000D03*
D19*
X149761000Y-81450000D03*
X149761000Y-81950000D03*
X149761000Y-82450000D03*
X149761000Y-82950000D03*
X149761000Y-83450000D03*
X145361000Y-83450000D03*
X145361000Y-82950000D03*
X145361000Y-82450000D03*
X145361000Y-81950000D03*
X145361000Y-81450000D03*
D20*
X144526000Y-74930000D03*
X152400000Y-78740000D03*
X155448000Y-78486000D03*
X152861000Y-68600000D03*
X148336000Y-73750000D03*
X152086000Y-70425000D03*
X149961000Y-85375000D03*
X151786000Y-83800000D03*
X144526000Y-73426999D03*
X153136000Y-83250000D03*
X149927752Y-80472010D03*
X145411000Y-79450000D03*
D21*
X148236000Y-79425000D02*
X149179678Y-78481322D01*
X145361000Y-82950000D02*
X147686000Y-82950000D01*
X152400000Y-78740000D02*
X152514511Y-78625489D01*
D22*
X155331000Y-77025000D02*
X156197501Y-77891501D01*
D21*
X149761000Y-81450000D02*
X149761000Y-80638762D01*
X151334678Y-78481322D02*
X152791000Y-77025000D01*
X148236000Y-82400000D02*
X148236000Y-79425000D01*
D22*
X156197501Y-77891501D02*
X156197501Y-79304455D01*
D21*
X155308511Y-78625489D02*
X155448000Y-78486000D01*
D22*
X155701956Y-79800000D02*
X155331000Y-79800000D01*
D21*
X152514511Y-78625489D02*
X155308511Y-78625489D01*
D22*
X156197501Y-79304455D02*
X155701956Y-79800000D01*
D21*
X149179678Y-78481322D02*
X151334678Y-78481322D01*
X147686000Y-82950000D02*
X148236000Y-82400000D01*
X149761000Y-80638762D02*
X149927752Y-80472010D01*
D22*
X157616000Y-88165000D02*
X157611000Y-88170000D01*
X161581000Y-88165000D02*
X157616000Y-88165000D01*
X157616000Y-85625000D02*
X157611000Y-85630000D01*
X161581000Y-85625000D02*
X157616000Y-85625000D01*
D21*
X149391000Y-65305000D02*
X150686000Y-66600000D01*
X150686000Y-66600000D02*
X150861000Y-66600000D01*
X150861000Y-66600000D02*
X152861000Y-68600000D01*
X148336000Y-73750000D02*
X148306000Y-73720000D01*
X148306000Y-73720000D02*
X146936000Y-73695000D01*
X145404501Y-75188678D02*
X144586000Y-76007179D01*
X145404501Y-74341499D02*
X145404501Y-75188678D01*
X144586000Y-76007179D02*
X144586000Y-80125000D01*
X146611000Y-81950000D02*
X145361000Y-81950000D01*
X146811000Y-81750000D02*
X146611000Y-81950000D01*
X146811000Y-81125000D02*
X146811000Y-81750000D01*
X146336000Y-80650000D02*
X146811000Y-81125000D01*
X146936000Y-73695000D02*
X146051000Y-73695000D01*
X146051000Y-73695000D02*
X145404501Y-74341499D01*
X144586000Y-80125000D02*
X145111000Y-80650000D01*
X145111000Y-80650000D02*
X146336000Y-80650000D01*
X148881000Y-65305000D02*
X149391000Y-65305000D01*
X145981000Y-65305000D02*
X144786000Y-66500000D01*
X144786000Y-66500000D02*
X144486000Y-66500000D01*
X144486000Y-66500000D02*
X143436000Y-67550000D01*
X143436000Y-67550000D02*
X143436000Y-68850000D01*
X143436000Y-68850000D02*
X145386000Y-70800000D01*
X145386000Y-70800000D02*
X145386000Y-72425000D01*
X145361000Y-81450000D02*
X144811000Y-81450000D01*
X143901499Y-80540499D02*
X143901499Y-72959501D01*
X146341000Y-65305000D02*
X145981000Y-65305000D01*
X143901499Y-72959501D02*
X144436000Y-72425000D01*
X144811000Y-81450000D02*
X143901499Y-80540499D01*
X144436000Y-72425000D02*
X145386000Y-72425000D01*
D22*
X155331000Y-81505000D02*
X154686000Y-82150000D01*
X155331000Y-79800000D02*
X155331000Y-81505000D01*
D21*
X151661000Y-82450000D02*
X151961000Y-82150000D01*
X151961000Y-82150000D02*
X154686000Y-82150000D01*
D22*
X151381000Y-71130000D02*
X152086000Y-70425000D01*
X153236000Y-70425000D02*
X153336000Y-70525000D01*
X150436000Y-71130000D02*
X151381000Y-71130000D01*
X148461000Y-85375000D02*
X149961000Y-85375000D01*
X152086000Y-70425000D02*
X153236000Y-70425000D01*
D21*
X149761000Y-82450000D02*
X151661000Y-82450000D01*
D22*
X153886000Y-79800000D02*
X155331000Y-79800000D01*
X153336000Y-70525000D02*
X153336000Y-72450000D01*
D21*
X151436000Y-83450000D02*
X151786000Y-83800000D01*
X149761000Y-83450000D02*
X151436000Y-83450000D01*
D23*
X144526000Y-74930000D02*
X144526000Y-73426999D01*
D21*
X152836000Y-82950000D02*
X153136000Y-83250000D01*
X149761000Y-82950000D02*
X152836000Y-82950000D01*
X144186000Y-82450000D02*
X143836000Y-82800000D01*
X143836000Y-82800000D02*
X143836000Y-84450000D01*
X143836000Y-84450000D02*
X144761000Y-85375000D01*
X144761000Y-85375000D02*
X146461000Y-85375000D01*
D22*
X146461000Y-86175000D02*
X147186000Y-86900000D01*
X147186000Y-86900000D02*
X157611000Y-86900000D01*
D21*
X146453521Y-75623198D02*
X146111000Y-75965719D01*
X149217802Y-75623198D02*
X146453521Y-75623198D01*
X150436000Y-74405000D02*
X149217802Y-75623198D01*
D22*
X146461000Y-85375000D02*
X146461000Y-86175000D01*
D21*
X150436000Y-73670000D02*
X150436000Y-74405000D01*
X147411000Y-82000000D02*
X146961000Y-82450000D01*
X146111000Y-75965719D02*
X146111000Y-79475000D01*
X146961000Y-82450000D02*
X145361000Y-82450000D01*
X145361000Y-82450000D02*
X144186000Y-82450000D01*
X146111000Y-79475000D02*
X147411000Y-80775000D01*
X147411000Y-80775000D02*
X147411000Y-82000000D01*
D22*
X157036000Y-82150000D02*
X157386000Y-81800000D01*
X157386000Y-81800000D02*
X157386000Y-79800000D01*
X157386000Y-76700000D02*
X158211000Y-75875000D01*
X158211000Y-75875000D02*
X158211000Y-67725000D01*
X158211000Y-67725000D02*
X157511000Y-67025000D01*
X157511000Y-67025000D02*
X155961000Y-67025000D01*
X155961000Y-67025000D02*
X155486000Y-67500000D01*
X155486000Y-67500000D02*
X155486000Y-68575000D01*
D21*
X146361000Y-83450000D02*
X146986000Y-84075000D01*
X146986000Y-84075000D02*
X150311000Y-84075000D01*
X150311000Y-84075000D02*
X150936000Y-84700000D01*
X150936000Y-84700000D02*
X154886000Y-84700000D01*
X154886000Y-84700000D02*
X156686000Y-82900000D01*
X156686000Y-82900000D02*
X156686000Y-82150000D01*
D22*
X156686000Y-82150000D02*
X157036000Y-82150000D01*
X157386000Y-79800000D02*
X157386000Y-76700000D01*
D21*
X145361000Y-83450000D02*
X146361000Y-83450000D01*
D22*
X149336000Y-72400000D02*
X148091000Y-71155000D01*
X148091000Y-71155000D02*
X146936000Y-71155000D01*
X150436000Y-72400000D02*
X149336000Y-72400000D01*
D23*
X145929012Y-75030758D02*
X145929011Y-75405938D01*
X146109770Y-74850000D02*
X145929012Y-75030758D01*
X145929011Y-75405938D02*
X145411000Y-75923949D01*
X145411000Y-75923949D02*
X145411000Y-79450000D01*
X149261000Y-74150000D02*
X148561000Y-74850000D01*
X148311000Y-72425000D02*
X149261000Y-73375000D01*
X148561000Y-74850000D02*
X146109770Y-74850000D01*
X149261000Y-73375000D02*
X149261000Y-74150000D01*
X146936000Y-72425000D02*
X148311000Y-72425000D01*
D22*
X156761000Y-74395000D02*
X156756000Y-74400000D01*
X156761000Y-72425000D02*
X156761000Y-74395000D01*
X155486000Y-75175000D02*
X155036000Y-75625000D01*
X155036000Y-75625000D02*
X150561000Y-75625000D01*
X150561000Y-75625000D02*
X150251000Y-75935000D01*
X150251000Y-75935000D02*
X150251000Y-77025000D01*
X155486000Y-74400000D02*
X155486000Y-75175000D01*
X154216000Y-72450000D02*
X154216000Y-74400000D01*
X154216000Y-68575000D02*
X154216000Y-72450000D01*
X155236000Y-72450000D02*
X154216000Y-72450000D01*
X156756000Y-70520000D02*
X156761000Y-70525000D01*
X156756000Y-69380000D02*
X156756000Y-70520000D01*
X156756000Y-69380000D02*
X156756000Y-70630000D01*
X156035511Y-71350489D02*
X154915520Y-71350489D01*
X156756000Y-70630000D02*
X156035511Y-71350489D01*
X155236000Y-70525000D02*
X156761000Y-70525000D01*
X156756000Y-68575000D02*
X156756000Y-69380000D01*
M02*
