M48
; DRILL file {KiCad 6.0.4-1.fc34} date lun 23 ott 2023, 18:27:47
; FORMAT={-:-/ absolute / inch / decimal}
; #@! TF.CreationDate,2023-10-23T18:27:47+02:00
; #@! TF.GenerationSoftware,Kicad,Pcbnew,6.0.4-1.fc34
; #@! TF.FileFunction,Plated,1,2,PTH
FMAT,2
INCH
; #@! TA.AperFunction,Plated,PTH,ViaDrill
T1C0.0157
; #@! TA.AperFunction,Plated,PTH,ComponentDrill
T2C0.0335
; #@! TA.AperFunction,Plated,PTH,ComponentDrill
T3C0.0591
%
G90
G05
T1
X5.69Y-2.8908
X5.69Y-2.95
X5.7248Y-3.128
X5.84Y-2.9035
X5.9027Y-3.1682
X5.904Y-3.3612
X5.9758Y-3.2992
X5.9876Y-2.7726
X6.0Y-3.1
X6.0181Y-2.7008
X6.029Y-3.2776
X6.12Y-3.09
T2
X5.8154Y-3.0325
X5.9154Y-3.0325
X6.0154Y-3.0325
X6.1154Y-3.0325
T3
X5.5615Y-2.5711
X5.5615Y-2.6711
X5.5615Y-2.7711
X5.5615Y-2.8711
X5.5615Y-2.9711
X5.5615Y-3.0711
X5.5615Y-3.1711
X5.5615Y-3.2711
X5.5615Y-3.3711
X5.5615Y-3.4711
X5.6615Y-2.5711
X5.7111Y-2.6722
X5.7615Y-2.5711
X5.8111Y-2.6722
X5.8615Y-2.5711
X5.9111Y-2.6722
X5.9615Y-2.5711
X6.0615Y-2.5711
X6.1615Y-2.5711
X6.2615Y-2.5711
X6.3615Y-2.5711
X6.3615Y-2.6711
X6.3615Y-2.7711
X6.3615Y-2.8711
X6.3615Y-2.9711
X6.3615Y-3.0711
X6.3615Y-3.1711
X6.3615Y-3.2711
X6.3615Y-3.3711
X6.3615Y-3.4711
T0
M30
