G04 #@! TF.GenerationSoftware,KiCad,Pcbnew,6.0.4-1.fc34*
G04 #@! TF.CreationDate,2023-10-23T18:29:32+02:00*
G04 #@! TF.ProjectId,Microduino_ADC_DE,4d696372-6f64-4756-996e-6f5f4144435f,1.0*
G04 #@! TF.SameCoordinates,Original*
G04 #@! TF.FileFunction,Legend,Bot*
G04 #@! TF.FilePolarity,Positive*
%FSLAX46Y46*%
G04 Gerber Fmt 4.6, Leading zero omitted, Abs format (unit mm)*
G04 Created by KiCad (PCBNEW 6.0.4-1.fc34) date 2023-10-23 18:29:32*
%MOMM*%
%LPD*%
G01*
G04 APERTURE LIST*
%ADD10C,0.300000*%
%ADD11C,0.150000*%
%ADD12C,0.120000*%
G04 APERTURE END LIST*
D10*
X150028705Y-80225000D02*
G75*
G03*
X150028705Y-80225000I-167705J0D01*
G01*
D11*
X158452666Y-74186904D02*
X158186000Y-74986904D01*
X157919333Y-74186904D01*
X153046714Y-68486904D02*
X153046714Y-67953571D01*
X153046714Y-68029761D02*
X153008619Y-67991666D01*
X152932428Y-67953571D01*
X152818142Y-67953571D01*
X152741952Y-67991666D01*
X152703857Y-68067857D01*
X152703857Y-68486904D01*
X152703857Y-68067857D02*
X152665761Y-67991666D01*
X152589571Y-67953571D01*
X152475285Y-67953571D01*
X152399095Y-67991666D01*
X152361000Y-68067857D01*
X152361000Y-68486904D01*
X152018142Y-68258333D02*
X151637190Y-68258333D01*
X152094333Y-68486904D02*
X151827666Y-67686904D01*
X151561000Y-68486904D01*
X158427666Y-68186904D02*
X158161000Y-68986904D01*
X157894333Y-68186904D01*
X153121714Y-75036904D02*
X153121714Y-74503571D01*
X153121714Y-74579761D02*
X153083619Y-74541666D01*
X153007428Y-74503571D01*
X152893142Y-74503571D01*
X152816952Y-74541666D01*
X152778857Y-74617857D01*
X152778857Y-75036904D01*
X152778857Y-74617857D02*
X152740761Y-74541666D01*
X152664571Y-74503571D01*
X152550285Y-74503571D01*
X152474095Y-74541666D01*
X152436000Y-74617857D01*
X152436000Y-75036904D01*
X152093142Y-74808333D02*
X151712190Y-74808333D01*
X152169333Y-75036904D02*
X151902666Y-74236904D01*
X151636000Y-75036904D01*
X159839095Y-90287380D02*
X159839095Y-89287380D01*
X159458142Y-89287380D01*
X159362904Y-89335000D01*
X159315285Y-89382619D01*
X159267666Y-89477857D01*
X159267666Y-89620714D01*
X159315285Y-89715952D01*
X159362904Y-89763571D01*
X159458142Y-89811190D01*
X159839095Y-89811190D01*
X158315285Y-90287380D02*
X158886714Y-90287380D01*
X158601000Y-90287380D02*
X158601000Y-89287380D01*
X158696238Y-89430238D01*
X158791476Y-89525476D01*
X158886714Y-89573095D01*
X156882428Y-67408333D02*
X156501476Y-67408333D01*
X156958619Y-67636904D02*
X156691952Y-66836904D01*
X156425285Y-67636904D01*
X155739571Y-67636904D02*
X156196714Y-67636904D01*
X155968142Y-67636904D02*
X155968142Y-66836904D01*
X156044333Y-66951190D01*
X156120523Y-67027380D01*
X156196714Y-67065476D01*
X143742904Y-77374523D02*
X142942904Y-77374523D01*
X142942904Y-77565000D01*
X142981000Y-77679285D01*
X143057190Y-77755476D01*
X143133380Y-77793571D01*
X143285761Y-77831666D01*
X143400047Y-77831666D01*
X143552428Y-77793571D01*
X143628619Y-77755476D01*
X143704809Y-77679285D01*
X143742904Y-77565000D01*
X143742904Y-77374523D01*
X143209571Y-78517380D02*
X143742904Y-78517380D01*
X142904809Y-78326904D02*
X143476238Y-78136428D01*
X143476238Y-78631666D01*
X158942904Y-84674523D02*
X158942904Y-85169761D01*
X159247666Y-84903095D01*
X159247666Y-85017380D01*
X159285761Y-85093571D01*
X159323857Y-85131666D01*
X159400047Y-85169761D01*
X159590523Y-85169761D01*
X159666714Y-85131666D01*
X159704809Y-85093571D01*
X159742904Y-85017380D01*
X159742904Y-84788809D01*
X159704809Y-84712619D01*
X159666714Y-84674523D01*
X158942904Y-85398333D02*
X159742904Y-85665000D01*
X158942904Y-85931666D01*
X158942904Y-86122142D02*
X158942904Y-86617380D01*
X159247666Y-86350714D01*
X159247666Y-86465000D01*
X159285761Y-86541190D01*
X159323857Y-86579285D01*
X159400047Y-86617380D01*
X159590523Y-86617380D01*
X159666714Y-86579285D01*
X159704809Y-86541190D01*
X159742904Y-86465000D01*
X159742904Y-86236428D01*
X159704809Y-86160238D01*
X159666714Y-86122142D01*
X159742904Y-71993571D02*
X158942904Y-71993571D01*
X158942904Y-72184047D01*
X158981000Y-72298333D01*
X159057190Y-72374523D01*
X159133380Y-72412619D01*
X159285761Y-72450714D01*
X159400047Y-72450714D01*
X159552428Y-72412619D01*
X159628619Y-72374523D01*
X159704809Y-72298333D01*
X159742904Y-72184047D01*
X159742904Y-71993571D01*
X159742904Y-73212619D02*
X159742904Y-72755476D01*
X159742904Y-72984047D02*
X158942904Y-72984047D01*
X159057190Y-72907857D01*
X159133380Y-72831666D01*
X159171476Y-72755476D01*
X159742904Y-73974523D02*
X159742904Y-73517380D01*
X159742904Y-73745952D02*
X158942904Y-73745952D01*
X159057190Y-73669761D01*
X159133380Y-73593571D01*
X159171476Y-73517380D01*
X159742904Y-79974523D02*
X158942904Y-79974523D01*
X158942904Y-80165000D01*
X158981000Y-80279285D01*
X159057190Y-80355476D01*
X159133380Y-80393571D01*
X159285761Y-80431666D01*
X159400047Y-80431666D01*
X159552428Y-80393571D01*
X159628619Y-80355476D01*
X159704809Y-80279285D01*
X159742904Y-80165000D01*
X159742904Y-79974523D01*
X159285761Y-80888809D02*
X159247666Y-80812619D01*
X159209571Y-80774523D01*
X159133380Y-80736428D01*
X159095285Y-80736428D01*
X159019095Y-80774523D01*
X158981000Y-80812619D01*
X158942904Y-80888809D01*
X158942904Y-81041190D01*
X158981000Y-81117380D01*
X159019095Y-81155476D01*
X159095285Y-81193571D01*
X159133380Y-81193571D01*
X159209571Y-81155476D01*
X159247666Y-81117380D01*
X159285761Y-81041190D01*
X159285761Y-80888809D01*
X159323857Y-80812619D01*
X159361952Y-80774523D01*
X159438142Y-80736428D01*
X159590523Y-80736428D01*
X159666714Y-80774523D01*
X159704809Y-80812619D01*
X159742904Y-80888809D01*
X159742904Y-81041190D01*
X159704809Y-81117380D01*
X159666714Y-81155476D01*
X159590523Y-81193571D01*
X159438142Y-81193571D01*
X159361952Y-81155476D01*
X159323857Y-81117380D01*
X159285761Y-81041190D01*
X158482428Y-67408333D02*
X158101476Y-67408333D01*
X158558619Y-67636904D02*
X158291952Y-66836904D01*
X158025285Y-67636904D01*
X157606238Y-66836904D02*
X157530047Y-66836904D01*
X157453857Y-66875000D01*
X157415761Y-66913095D01*
X157377666Y-66989285D01*
X157339571Y-67141666D01*
X157339571Y-67332142D01*
X157377666Y-67484523D01*
X157415761Y-67560714D01*
X157453857Y-67598809D01*
X157530047Y-67636904D01*
X157606238Y-67636904D01*
X157682428Y-67598809D01*
X157720523Y-67560714D01*
X157758619Y-67484523D01*
X157796714Y-67332142D01*
X157796714Y-67141666D01*
X157758619Y-66989285D01*
X157720523Y-66913095D01*
X157682428Y-66875000D01*
X157606238Y-66836904D01*
X143742904Y-79974523D02*
X142942904Y-79974523D01*
X142942904Y-80165000D01*
X142981000Y-80279285D01*
X143057190Y-80355476D01*
X143133380Y-80393571D01*
X143285761Y-80431666D01*
X143400047Y-80431666D01*
X143552428Y-80393571D01*
X143628619Y-80355476D01*
X143704809Y-80279285D01*
X143742904Y-80165000D01*
X143742904Y-79974523D01*
X142942904Y-81155476D02*
X142942904Y-80774523D01*
X143323857Y-80736428D01*
X143285761Y-80774523D01*
X143247666Y-80850714D01*
X143247666Y-81041190D01*
X143285761Y-81117380D01*
X143323857Y-81155476D01*
X143400047Y-81193571D01*
X143590523Y-81193571D01*
X143666714Y-81155476D01*
X143704809Y-81117380D01*
X143742904Y-81041190D01*
X143742904Y-80850714D01*
X143704809Y-80774523D01*
X143666714Y-80736428D01*
X142981000Y-87555476D02*
X142942904Y-87479285D01*
X142942904Y-87365000D01*
X142981000Y-87250714D01*
X143057190Y-87174523D01*
X143133380Y-87136428D01*
X143285761Y-87098333D01*
X143400047Y-87098333D01*
X143552428Y-87136428D01*
X143628619Y-87174523D01*
X143704809Y-87250714D01*
X143742904Y-87365000D01*
X143742904Y-87441190D01*
X143704809Y-87555476D01*
X143666714Y-87593571D01*
X143400047Y-87593571D01*
X143400047Y-87441190D01*
X143742904Y-87936428D02*
X142942904Y-87936428D01*
X143742904Y-88393571D01*
X142942904Y-88393571D01*
X143742904Y-88774523D02*
X142942904Y-88774523D01*
X142942904Y-88965000D01*
X142981000Y-89079285D01*
X143057190Y-89155476D01*
X143133380Y-89193571D01*
X143285761Y-89231666D01*
X143400047Y-89231666D01*
X143552428Y-89193571D01*
X143628619Y-89155476D01*
X143704809Y-89079285D01*
X143742904Y-88965000D01*
X143742904Y-88774523D01*
X142942904Y-69374523D02*
X142942904Y-69831666D01*
X143742904Y-69603095D02*
X142942904Y-69603095D01*
X142942904Y-70022142D02*
X143742904Y-70555476D01*
X142942904Y-70555476D02*
X143742904Y-70022142D01*
X142942904Y-71012619D02*
X142942904Y-71088809D01*
X142981000Y-71165000D01*
X143019095Y-71203095D01*
X143095285Y-71241190D01*
X143247666Y-71279285D01*
X143438142Y-71279285D01*
X143590523Y-71241190D01*
X143666714Y-71203095D01*
X143704809Y-71165000D01*
X143742904Y-71088809D01*
X143742904Y-71012619D01*
X143704809Y-70936428D01*
X143666714Y-70898333D01*
X143590523Y-70860238D01*
X143438142Y-70822142D01*
X143247666Y-70822142D01*
X143095285Y-70860238D01*
X143019095Y-70898333D01*
X142981000Y-70936428D01*
X142942904Y-71012619D01*
X155132428Y-67408333D02*
X154751476Y-67408333D01*
X155208619Y-67636904D02*
X154941952Y-66836904D01*
X154675285Y-67636904D01*
X154446714Y-66913095D02*
X154408619Y-66875000D01*
X154332428Y-66836904D01*
X154141952Y-66836904D01*
X154065761Y-66875000D01*
X154027666Y-66913095D01*
X153989571Y-66989285D01*
X153989571Y-67065476D01*
X154027666Y-67179761D01*
X154484809Y-67636904D01*
X153989571Y-67636904D01*
X152907428Y-67208333D02*
X152526476Y-67208333D01*
X152983619Y-67436904D02*
X152716952Y-66636904D01*
X152450285Y-67436904D01*
X152259809Y-66636904D02*
X151764571Y-66636904D01*
X152031238Y-66941666D01*
X151916952Y-66941666D01*
X151840761Y-66979761D01*
X151802666Y-67017857D01*
X151764571Y-67094047D01*
X151764571Y-67284523D01*
X151802666Y-67360714D01*
X151840761Y-67398809D01*
X151916952Y-67436904D01*
X152145523Y-67436904D01*
X152221714Y-67398809D01*
X152259809Y-67360714D01*
X159742904Y-74493571D02*
X158942904Y-74493571D01*
X158942904Y-74684047D01*
X158981000Y-74798333D01*
X159057190Y-74874523D01*
X159133380Y-74912619D01*
X159285761Y-74950714D01*
X159400047Y-74950714D01*
X159552428Y-74912619D01*
X159628619Y-74874523D01*
X159704809Y-74798333D01*
X159742904Y-74684047D01*
X159742904Y-74493571D01*
X159742904Y-75712619D02*
X159742904Y-75255476D01*
X159742904Y-75484047D02*
X158942904Y-75484047D01*
X159057190Y-75407857D01*
X159133380Y-75331666D01*
X159171476Y-75255476D01*
X158942904Y-76207857D02*
X158942904Y-76284047D01*
X158981000Y-76360238D01*
X159019095Y-76398333D01*
X159095285Y-76436428D01*
X159247666Y-76474523D01*
X159438142Y-76474523D01*
X159590523Y-76436428D01*
X159666714Y-76398333D01*
X159704809Y-76360238D01*
X159742904Y-76284047D01*
X159742904Y-76207857D01*
X159704809Y-76131666D01*
X159666714Y-76093571D01*
X159590523Y-76055476D01*
X159438142Y-76017380D01*
X159247666Y-76017380D01*
X159095285Y-76055476D01*
X159019095Y-76093571D01*
X158981000Y-76131666D01*
X158942904Y-76207857D01*
X143742904Y-82474523D02*
X142942904Y-82474523D01*
X142942904Y-82665000D01*
X142981000Y-82779285D01*
X143057190Y-82855476D01*
X143133380Y-82893571D01*
X143285761Y-82931666D01*
X143400047Y-82931666D01*
X143552428Y-82893571D01*
X143628619Y-82855476D01*
X143704809Y-82779285D01*
X143742904Y-82665000D01*
X143742904Y-82474523D01*
X142942904Y-83617380D02*
X142942904Y-83465000D01*
X142981000Y-83388809D01*
X143019095Y-83350714D01*
X143133380Y-83274523D01*
X143285761Y-83236428D01*
X143590523Y-83236428D01*
X143666714Y-83274523D01*
X143704809Y-83312619D01*
X143742904Y-83388809D01*
X143742904Y-83541190D01*
X143704809Y-83617380D01*
X143666714Y-83655476D01*
X143590523Y-83693571D01*
X143400047Y-83693571D01*
X143323857Y-83655476D01*
X143285761Y-83617380D01*
X143247666Y-83541190D01*
X143247666Y-83388809D01*
X143285761Y-83312619D01*
X143323857Y-83274523D01*
X143400047Y-83236428D01*
X143742904Y-74874523D02*
X142942904Y-74874523D01*
X142942904Y-75065000D01*
X142981000Y-75179285D01*
X143057190Y-75255476D01*
X143133380Y-75293571D01*
X143285761Y-75331666D01*
X143400047Y-75331666D01*
X143552428Y-75293571D01*
X143628619Y-75255476D01*
X143704809Y-75179285D01*
X143742904Y-75065000D01*
X143742904Y-74874523D01*
X142942904Y-75598333D02*
X142942904Y-76093571D01*
X143247666Y-75826904D01*
X143247666Y-75941190D01*
X143285761Y-76017380D01*
X143323857Y-76055476D01*
X143400047Y-76093571D01*
X143590523Y-76093571D01*
X143666714Y-76055476D01*
X143704809Y-76017380D01*
X143742904Y-75941190D01*
X143742904Y-75712619D01*
X143704809Y-75636428D01*
X143666714Y-75598333D01*
X159742904Y-69393571D02*
X158942904Y-69393571D01*
X158942904Y-69584047D01*
X158981000Y-69698333D01*
X159057190Y-69774523D01*
X159133380Y-69812619D01*
X159285761Y-69850714D01*
X159400047Y-69850714D01*
X159552428Y-69812619D01*
X159628619Y-69774523D01*
X159704809Y-69698333D01*
X159742904Y-69584047D01*
X159742904Y-69393571D01*
X159742904Y-70612619D02*
X159742904Y-70155476D01*
X159742904Y-70384047D02*
X158942904Y-70384047D01*
X159057190Y-70307857D01*
X159133380Y-70231666D01*
X159171476Y-70155476D01*
X159019095Y-70917380D02*
X158981000Y-70955476D01*
X158942904Y-71031666D01*
X158942904Y-71222142D01*
X158981000Y-71298333D01*
X159019095Y-71336428D01*
X159095285Y-71374523D01*
X159171476Y-71374523D01*
X159285761Y-71336428D01*
X159742904Y-70879285D01*
X159742904Y-71374523D01*
X143742904Y-85226904D02*
X143361952Y-84960238D01*
X143742904Y-84769761D02*
X142942904Y-84769761D01*
X142942904Y-85074523D01*
X142981000Y-85150714D01*
X143019095Y-85188809D01*
X143095285Y-85226904D01*
X143209571Y-85226904D01*
X143285761Y-85188809D01*
X143323857Y-85150714D01*
X143361952Y-85074523D01*
X143361952Y-84769761D01*
X143704809Y-85531666D02*
X143742904Y-85645952D01*
X143742904Y-85836428D01*
X143704809Y-85912619D01*
X143666714Y-85950714D01*
X143590523Y-85988809D01*
X143514333Y-85988809D01*
X143438142Y-85950714D01*
X143400047Y-85912619D01*
X143361952Y-85836428D01*
X143323857Y-85684047D01*
X143285761Y-85607857D01*
X143247666Y-85569761D01*
X143171476Y-85531666D01*
X143095285Y-85531666D01*
X143019095Y-85569761D01*
X142981000Y-85607857D01*
X142942904Y-85684047D01*
X142942904Y-85874523D01*
X142981000Y-85988809D01*
X142942904Y-86217380D02*
X142942904Y-86674523D01*
X143742904Y-86445952D02*
X142942904Y-86445952D01*
X145214333Y-67093571D02*
X145214333Y-67474523D01*
X145442904Y-67017380D02*
X144642904Y-67284047D01*
X145442904Y-67550714D01*
X144642904Y-68160238D02*
X144642904Y-68007857D01*
X144681000Y-67931666D01*
X144719095Y-67893571D01*
X144833380Y-67817380D01*
X144985761Y-67779285D01*
X145290523Y-67779285D01*
X145366714Y-67817380D01*
X145404809Y-67855476D01*
X145442904Y-67931666D01*
X145442904Y-68084047D01*
X145404809Y-68160238D01*
X145366714Y-68198333D01*
X145290523Y-68236428D01*
X145100047Y-68236428D01*
X145023857Y-68198333D01*
X144985761Y-68160238D01*
X144947666Y-68084047D01*
X144947666Y-67931666D01*
X144985761Y-67855476D01*
X145023857Y-67817380D01*
X145100047Y-67779285D01*
X159742904Y-77374523D02*
X158942904Y-77374523D01*
X158942904Y-77565000D01*
X158981000Y-77679285D01*
X159057190Y-77755476D01*
X159133380Y-77793571D01*
X159285761Y-77831666D01*
X159400047Y-77831666D01*
X159552428Y-77793571D01*
X159628619Y-77755476D01*
X159704809Y-77679285D01*
X159742904Y-77565000D01*
X159742904Y-77374523D01*
X159742904Y-78212619D02*
X159742904Y-78365000D01*
X159704809Y-78441190D01*
X159666714Y-78479285D01*
X159552428Y-78555476D01*
X159400047Y-78593571D01*
X159095285Y-78593571D01*
X159019095Y-78555476D01*
X158981000Y-78517380D01*
X158942904Y-78441190D01*
X158942904Y-78288809D01*
X158981000Y-78212619D01*
X159019095Y-78174523D01*
X159095285Y-78136428D01*
X159285761Y-78136428D01*
X159361952Y-78174523D01*
X159400047Y-78212619D01*
X159438142Y-78288809D01*
X159438142Y-78441190D01*
X159400047Y-78517380D01*
X159361952Y-78555476D01*
X159285761Y-78593571D01*
X143742904Y-67350714D02*
X143361952Y-67084047D01*
X143742904Y-66893571D02*
X142942904Y-66893571D01*
X142942904Y-67198333D01*
X142981000Y-67274523D01*
X143019095Y-67312619D01*
X143095285Y-67350714D01*
X143209571Y-67350714D01*
X143285761Y-67312619D01*
X143323857Y-67274523D01*
X143361952Y-67198333D01*
X143361952Y-66893571D01*
X142942904Y-67617380D02*
X143742904Y-68150714D01*
X142942904Y-68150714D02*
X143742904Y-67617380D01*
X142942904Y-68607857D02*
X142942904Y-68684047D01*
X142981000Y-68760238D01*
X143019095Y-68798333D01*
X143095285Y-68836428D01*
X143247666Y-68874523D01*
X143438142Y-68874523D01*
X143590523Y-68836428D01*
X143666714Y-68798333D01*
X143704809Y-68760238D01*
X143742904Y-68684047D01*
X143742904Y-68607857D01*
X143704809Y-68531666D01*
X143666714Y-68493571D01*
X143590523Y-68455476D01*
X143438142Y-68417380D01*
X143247666Y-68417380D01*
X143095285Y-68455476D01*
X143019095Y-68493571D01*
X142981000Y-68531666D01*
X142942904Y-68607857D01*
X158942904Y-88012619D02*
X158942904Y-87631666D01*
X159323857Y-87593571D01*
X159285761Y-87631666D01*
X159247666Y-87707857D01*
X159247666Y-87898333D01*
X159285761Y-87974523D01*
X159323857Y-88012619D01*
X159400047Y-88050714D01*
X159590523Y-88050714D01*
X159666714Y-88012619D01*
X159704809Y-87974523D01*
X159742904Y-87898333D01*
X159742904Y-87707857D01*
X159704809Y-87631666D01*
X159666714Y-87593571D01*
X158942904Y-88279285D02*
X159742904Y-88545952D01*
X158942904Y-88812619D01*
X159742904Y-82474523D02*
X158942904Y-82474523D01*
X158942904Y-82665000D01*
X158981000Y-82779285D01*
X159057190Y-82855476D01*
X159133380Y-82893571D01*
X159285761Y-82931666D01*
X159400047Y-82931666D01*
X159552428Y-82893571D01*
X159628619Y-82855476D01*
X159704809Y-82779285D01*
X159742904Y-82665000D01*
X159742904Y-82474523D01*
X158942904Y-83198333D02*
X158942904Y-83731666D01*
X159742904Y-83388809D01*
X143742904Y-72374523D02*
X142942904Y-72374523D01*
X142942904Y-72565000D01*
X142981000Y-72679285D01*
X143057190Y-72755476D01*
X143133380Y-72793571D01*
X143285761Y-72831666D01*
X143400047Y-72831666D01*
X143552428Y-72793571D01*
X143628619Y-72755476D01*
X143704809Y-72679285D01*
X143742904Y-72565000D01*
X143742904Y-72374523D01*
X143019095Y-73136428D02*
X142981000Y-73174523D01*
X142942904Y-73250714D01*
X142942904Y-73441190D01*
X142981000Y-73517380D01*
X143019095Y-73555476D01*
X143095285Y-73593571D01*
X143171476Y-73593571D01*
X143285761Y-73555476D01*
X143742904Y-73098333D01*
X143742904Y-73593571D01*
X159742904Y-66893571D02*
X158942904Y-66893571D01*
X158942904Y-67084047D01*
X158981000Y-67198333D01*
X159057190Y-67274523D01*
X159133380Y-67312619D01*
X159285761Y-67350714D01*
X159400047Y-67350714D01*
X159552428Y-67312619D01*
X159628619Y-67274523D01*
X159704809Y-67198333D01*
X159742904Y-67084047D01*
X159742904Y-66893571D01*
X159742904Y-68112619D02*
X159742904Y-67655476D01*
X159742904Y-67884047D02*
X158942904Y-67884047D01*
X159057190Y-67807857D01*
X159133380Y-67731666D01*
X159171476Y-67655476D01*
X158942904Y-68379285D02*
X158942904Y-68874523D01*
X159247666Y-68607857D01*
X159247666Y-68722142D01*
X159285761Y-68798333D01*
X159323857Y-68836428D01*
X159400047Y-68874523D01*
X159590523Y-68874523D01*
X159666714Y-68836428D01*
X159704809Y-68798333D01*
X159742904Y-68722142D01*
X159742904Y-68493571D01*
X159704809Y-68417380D01*
X159666714Y-68379285D01*
X155927666Y-86461904D02*
X155927666Y-87033333D01*
X155965761Y-87147619D01*
X156041952Y-87223809D01*
X156156238Y-87261904D01*
X156232428Y-87261904D01*
X155203857Y-86728571D02*
X155203857Y-87261904D01*
X155394333Y-86423809D02*
X155584809Y-86995238D01*
X155089571Y-86995238D01*
X152851476Y-69861904D02*
X152851476Y-69061904D01*
X152546714Y-69061904D01*
X152470523Y-69100000D01*
X152432428Y-69138095D01*
X152394333Y-69214285D01*
X152394333Y-69328571D01*
X152432428Y-69404761D01*
X152470523Y-69442857D01*
X152546714Y-69480952D01*
X152851476Y-69480952D01*
X152089571Y-69138095D02*
X152051476Y-69100000D01*
X151975285Y-69061904D01*
X151784809Y-69061904D01*
X151708619Y-69100000D01*
X151670523Y-69138095D01*
X151632428Y-69214285D01*
X151632428Y-69290476D01*
X151670523Y-69404761D01*
X152127666Y-69861904D01*
X151632428Y-69861904D01*
X147594333Y-87160714D02*
X147632428Y-87198809D01*
X147746714Y-87236904D01*
X147822904Y-87236904D01*
X147937190Y-87198809D01*
X148013380Y-87122619D01*
X148051476Y-87046428D01*
X148089571Y-86894047D01*
X148089571Y-86779761D01*
X148051476Y-86627380D01*
X148013380Y-86551190D01*
X147937190Y-86475000D01*
X147822904Y-86436904D01*
X147746714Y-86436904D01*
X147632428Y-86475000D01*
X147594333Y-86513095D01*
X147289571Y-86513095D02*
X147251476Y-86475000D01*
X147175285Y-86436904D01*
X146984809Y-86436904D01*
X146908619Y-86475000D01*
X146870523Y-86513095D01*
X146832428Y-86589285D01*
X146832428Y-86665476D01*
X146870523Y-86779761D01*
X147327666Y-87236904D01*
X146832428Y-87236904D01*
X155819333Y-84010714D02*
X155857428Y-84048809D01*
X155971714Y-84086904D01*
X156047904Y-84086904D01*
X156162190Y-84048809D01*
X156238380Y-83972619D01*
X156276476Y-83896428D01*
X156314571Y-83744047D01*
X156314571Y-83629761D01*
X156276476Y-83477380D01*
X156238380Y-83401190D01*
X156162190Y-83325000D01*
X156047904Y-83286904D01*
X155971714Y-83286904D01*
X155857428Y-83325000D01*
X155819333Y-83363095D01*
X155552666Y-83286904D02*
X155057428Y-83286904D01*
X155324095Y-83591666D01*
X155209809Y-83591666D01*
X155133619Y-83629761D01*
X155095523Y-83667857D01*
X155057428Y-83744047D01*
X155057428Y-83934523D01*
X155095523Y-84010714D01*
X155133619Y-84048809D01*
X155209809Y-84086904D01*
X155438380Y-84086904D01*
X155514571Y-84048809D01*
X155552666Y-84010714D01*
X157951476Y-78336904D02*
X157951476Y-77536904D01*
X157761000Y-77536904D01*
X157646714Y-77575000D01*
X157570523Y-77651190D01*
X157532428Y-77727380D01*
X157494333Y-77879761D01*
X157494333Y-77994047D01*
X157532428Y-78146428D01*
X157570523Y-78222619D01*
X157646714Y-78298809D01*
X157761000Y-78336904D01*
X157951476Y-78336904D01*
X157189571Y-77613095D02*
X157151476Y-77575000D01*
X157075285Y-77536904D01*
X156884809Y-77536904D01*
X156808619Y-77575000D01*
X156770523Y-77613095D01*
X156732428Y-77689285D01*
X156732428Y-77765476D01*
X156770523Y-77879761D01*
X157227666Y-78336904D01*
X156732428Y-78336904D01*
X150677666Y-74861904D02*
X150677666Y-75433333D01*
X150715761Y-75547619D01*
X150791952Y-75623809D01*
X150906238Y-75661904D01*
X150982428Y-75661904D01*
X149915761Y-74861904D02*
X150296714Y-74861904D01*
X150334809Y-75242857D01*
X150296714Y-75204761D01*
X150220523Y-75166666D01*
X150030047Y-75166666D01*
X149953857Y-75204761D01*
X149915761Y-75242857D01*
X149877666Y-75319047D01*
X149877666Y-75509523D01*
X149915761Y-75585714D01*
X149953857Y-75623809D01*
X150030047Y-75661904D01*
X150220523Y-75661904D01*
X150296714Y-75623809D01*
X150334809Y-75585714D01*
X146477666Y-74861904D02*
X146477666Y-75433333D01*
X146515761Y-75547619D01*
X146591952Y-75623809D01*
X146706238Y-75661904D01*
X146782428Y-75661904D01*
X145753857Y-74861904D02*
X145906238Y-74861904D01*
X145982428Y-74900000D01*
X146020523Y-74938095D01*
X146096714Y-75052380D01*
X146134809Y-75204761D01*
X146134809Y-75509523D01*
X146096714Y-75585714D01*
X146058619Y-75623809D01*
X145982428Y-75661904D01*
X145830047Y-75661904D01*
X145753857Y-75623809D01*
X145715761Y-75585714D01*
X145677666Y-75509523D01*
X145677666Y-75319047D01*
X145715761Y-75242857D01*
X145753857Y-75204761D01*
X145830047Y-75166666D01*
X145982428Y-75166666D01*
X146058619Y-75204761D01*
X146096714Y-75242857D01*
X146134809Y-75319047D01*
X157077666Y-75736904D02*
X157077666Y-76308333D01*
X157115761Y-76422619D01*
X157191952Y-76498809D01*
X157306238Y-76536904D01*
X157382428Y-76536904D01*
X156772904Y-75736904D02*
X156239571Y-75736904D01*
X156582428Y-76536904D01*
X157922904Y-69583333D02*
X158494333Y-69583333D01*
X158608619Y-69545238D01*
X158684809Y-69469047D01*
X158722904Y-69354761D01*
X158722904Y-69278571D01*
X158265761Y-70078571D02*
X158227666Y-70002380D01*
X158189571Y-69964285D01*
X158113380Y-69926190D01*
X158075285Y-69926190D01*
X157999095Y-69964285D01*
X157961000Y-70002380D01*
X157922904Y-70078571D01*
X157922904Y-70230952D01*
X157961000Y-70307142D01*
X157999095Y-70345238D01*
X158075285Y-70383333D01*
X158113380Y-70383333D01*
X158189571Y-70345238D01*
X158227666Y-70307142D01*
X158265761Y-70230952D01*
X158265761Y-70078571D01*
X158303857Y-70002380D01*
X158341952Y-69964285D01*
X158418142Y-69926190D01*
X158570523Y-69926190D01*
X158646714Y-69964285D01*
X158684809Y-70002380D01*
X158722904Y-70078571D01*
X158722904Y-70230952D01*
X158684809Y-70307142D01*
X158646714Y-70345238D01*
X158570523Y-70383333D01*
X158418142Y-70383333D01*
X158341952Y-70345238D01*
X158303857Y-70307142D01*
X158265761Y-70230952D01*
X158672904Y-72441666D02*
X158291952Y-72175000D01*
X158672904Y-71984523D02*
X157872904Y-71984523D01*
X157872904Y-72289285D01*
X157911000Y-72365476D01*
X157949095Y-72403571D01*
X158025285Y-72441666D01*
X158139571Y-72441666D01*
X158215761Y-72403571D01*
X158253857Y-72365476D01*
X158291952Y-72289285D01*
X158291952Y-71984523D01*
X158139571Y-73127380D02*
X158672904Y-73127380D01*
X157834809Y-72936904D02*
X158406238Y-72746428D01*
X158406238Y-73241666D01*
X152294333Y-72786904D02*
X152561000Y-72405952D01*
X152751476Y-72786904D02*
X152751476Y-71986904D01*
X152446714Y-71986904D01*
X152370523Y-72025000D01*
X152332428Y-72063095D01*
X152294333Y-72139285D01*
X152294333Y-72253571D01*
X152332428Y-72329761D01*
X152370523Y-72367857D01*
X152446714Y-72405952D01*
X152751476Y-72405952D01*
X151570523Y-71986904D02*
X151951476Y-71986904D01*
X151989571Y-72367857D01*
X151951476Y-72329761D01*
X151875285Y-72291666D01*
X151684809Y-72291666D01*
X151608619Y-72329761D01*
X151570523Y-72367857D01*
X151532428Y-72444047D01*
X151532428Y-72634523D01*
X151570523Y-72710714D01*
X151608619Y-72748809D01*
X151684809Y-72786904D01*
X151875285Y-72786904D01*
X151951476Y-72748809D01*
X151989571Y-72710714D01*
X152294333Y-70886904D02*
X152561000Y-70505952D01*
X152751476Y-70886904D02*
X152751476Y-70086904D01*
X152446714Y-70086904D01*
X152370523Y-70125000D01*
X152332428Y-70163095D01*
X152294333Y-70239285D01*
X152294333Y-70353571D01*
X152332428Y-70429761D01*
X152370523Y-70467857D01*
X152446714Y-70505952D01*
X152751476Y-70505952D01*
X151608619Y-70086904D02*
X151761000Y-70086904D01*
X151837190Y-70125000D01*
X151875285Y-70163095D01*
X151951476Y-70277380D01*
X151989571Y-70429761D01*
X151989571Y-70734523D01*
X151951476Y-70810714D01*
X151913380Y-70848809D01*
X151837190Y-70886904D01*
X151684809Y-70886904D01*
X151608619Y-70848809D01*
X151570523Y-70810714D01*
X151532428Y-70734523D01*
X151532428Y-70544047D01*
X151570523Y-70467857D01*
X151608619Y-70429761D01*
X151684809Y-70391666D01*
X151837190Y-70391666D01*
X151913380Y-70429761D01*
X151951476Y-70467857D01*
X151989571Y-70544047D01*
X148170523Y-79411904D02*
X148170523Y-80059523D01*
X148132428Y-80135714D01*
X148094333Y-80173809D01*
X148018142Y-80211904D01*
X147865761Y-80211904D01*
X147789571Y-80173809D01*
X147751476Y-80135714D01*
X147713380Y-80059523D01*
X147713380Y-79411904D01*
X146913380Y-80211904D02*
X147370523Y-80211904D01*
X147141952Y-80211904D02*
X147141952Y-79411904D01*
X147218142Y-79526190D01*
X147294333Y-79602380D01*
X147370523Y-79640476D01*
D12*
X162911000Y-89495000D02*
X160251000Y-89495000D01*
X139931000Y-89495000D02*
X139931000Y-63975000D01*
X162911000Y-89495000D02*
X162911000Y-63975000D01*
D11*
X145181000Y-69265000D02*
X144081000Y-68165000D01*
X145181000Y-69265000D02*
X145181000Y-71065000D01*
D12*
X160251000Y-89495000D02*
X160251000Y-66635000D01*
X160251000Y-66635000D02*
X142591000Y-66635000D01*
X139931000Y-63975000D02*
X162911000Y-63975000D01*
X142591000Y-89495000D02*
X142591000Y-66635000D01*
D11*
X158781000Y-67965000D02*
X157781000Y-68965000D01*
X157781000Y-68965000D02*
X157781000Y-71765000D01*
D12*
X142591000Y-89495000D02*
X142591000Y-82685000D01*
X139931000Y-89495000D02*
X142591000Y-89495000D01*
X162911000Y-67845000D02*
X162911000Y-66515000D01*
X158501000Y-88810000D02*
X156721000Y-88810000D01*
X158501000Y-84990000D02*
X156721000Y-84990000D01*
X156721000Y-88810000D02*
X156721000Y-84990000D01*
X158501000Y-84990000D02*
X158501000Y-88810000D01*
X146331000Y-69205000D02*
X151471000Y-69205000D01*
X146331000Y-66545000D02*
X151471000Y-66545000D01*
X151471000Y-66545000D02*
X151471000Y-69205000D01*
X145061000Y-66545000D02*
X143731000Y-66545000D01*
X143731000Y-66545000D02*
X143731000Y-67875000D01*
X146331000Y-66545000D02*
X146331000Y-69205000D01*
X146961000Y-84525000D02*
X147961000Y-84525000D01*
X147961000Y-86225000D02*
X146961000Y-86225000D01*
X156186000Y-83000000D02*
X155186000Y-83000000D01*
X155186000Y-81300000D02*
X156186000Y-81300000D01*
X153886000Y-78800000D02*
X158186000Y-78800000D01*
X158186000Y-80800000D02*
X153886000Y-80800000D01*
X158186000Y-78800000D02*
X158186000Y-80800000D01*
X151326000Y-70490000D02*
X151326000Y-74310000D01*
X149546000Y-74310000D02*
X149546000Y-70490000D01*
X149546000Y-74310000D02*
X151326000Y-74310000D01*
X149546000Y-70490000D02*
X151326000Y-70490000D01*
X146046000Y-74335000D02*
X144516000Y-74335000D01*
X147826000Y-70515000D02*
X147826000Y-74335000D01*
X146046000Y-74335000D02*
X147826000Y-74335000D01*
X144516000Y-74335000D02*
X144516000Y-70515000D01*
X146046000Y-70515000D02*
X147826000Y-70515000D01*
X146046000Y-70515000D02*
X144516000Y-70515000D01*
X153576000Y-75290000D02*
X153576000Y-73510000D01*
X153576000Y-73510000D02*
X157396000Y-73510000D01*
X157396000Y-75290000D02*
X157396000Y-73510000D01*
X157396000Y-75290000D02*
X153576000Y-75290000D01*
X153576000Y-67685000D02*
X157396000Y-67685000D01*
X153576000Y-69465000D02*
X153576000Y-67685000D01*
X157396000Y-69465000D02*
X157396000Y-67685000D01*
X157396000Y-69465000D02*
X153576000Y-69465000D01*
X155881000Y-70875000D02*
X155881000Y-72075000D01*
X157641000Y-72075000D02*
X157641000Y-70875000D01*
X153686000Y-73330000D02*
X154886000Y-73330000D01*
X154886000Y-71570000D02*
X153686000Y-71570000D01*
X153686000Y-71405000D02*
X154886000Y-71405000D01*
X154886000Y-69645000D02*
X153686000Y-69645000D01*
D11*
X145886000Y-84125000D02*
X145886000Y-83825000D01*
X149236000Y-80775000D02*
X149236000Y-81000000D01*
X145886000Y-80775000D02*
X145886000Y-81075000D01*
X149236000Y-84125000D02*
X149236000Y-83825000D01*
X149236000Y-81000000D02*
X150461000Y-81000000D01*
X149236000Y-80775000D02*
X145886000Y-80775000D01*
X149236000Y-84125000D02*
X145886000Y-84125000D01*
M02*
