G04 #@! TF.GenerationSoftware,KiCad,Pcbnew,(5.1.5)-3*
G04 #@! TF.CreationDate,2020-12-08T16:15:33+01:00*
G04 #@! TF.ProjectId,Microduino_UART,4d696372-6f64-4756-996e-6f5f55415254,0.0*
G04 #@! TF.SameCoordinates,Original*
G04 #@! TF.FileFunction,Copper,L2,Bot*
G04 #@! TF.FilePolarity,Positive*
%FSLAX46Y46*%
G04 Gerber Fmt 4.6, Leading zero omitted, Abs format (unit mm)*
G04 Created by KiCad (PCBNEW (5.1.5)-3) date 2020-12-08 16:15:33*
%MOMM*%
%LPD*%
G04 APERTURE LIST*
%ADD10C,0.100000*%
%ADD11R,1.700000X1.700000*%
%ADD12C,1.700000*%
%ADD13R,1.270000X0.970000*%
%ADD14C,2.100000*%
%ADD15R,0.900000X0.800000*%
%ADD16R,2.500000X1.950000*%
%ADD17C,1.000000*%
%ADD18C,0.600000*%
%ADD19C,0.750000*%
%ADD20C,0.500000*%
%ADD21C,0.400000*%
%ADD22C,0.254000*%
G04 APERTURE END LIST*
G04 #@! TA.AperFunction,SMDPad,CuDef*
D10*
G36*
X155802242Y-78765074D02*
G01*
X155825903Y-78768584D01*
X155849107Y-78774396D01*
X155871629Y-78782454D01*
X155893253Y-78792682D01*
X155913770Y-78804979D01*
X155932983Y-78819229D01*
X155950707Y-78835293D01*
X155966771Y-78853017D01*
X155981021Y-78872230D01*
X155993318Y-78892747D01*
X156003546Y-78914371D01*
X156011604Y-78936893D01*
X156017416Y-78960097D01*
X156020926Y-78983758D01*
X156022100Y-79007650D01*
X156022100Y-79920150D01*
X156020926Y-79944042D01*
X156017416Y-79967703D01*
X156011604Y-79990907D01*
X156003546Y-80013429D01*
X155993318Y-80035053D01*
X155981021Y-80055570D01*
X155966771Y-80074783D01*
X155950707Y-80092507D01*
X155932983Y-80108571D01*
X155913770Y-80122821D01*
X155893253Y-80135118D01*
X155871629Y-80145346D01*
X155849107Y-80153404D01*
X155825903Y-80159216D01*
X155802242Y-80162726D01*
X155778350Y-80163900D01*
X155290850Y-80163900D01*
X155266958Y-80162726D01*
X155243297Y-80159216D01*
X155220093Y-80153404D01*
X155197571Y-80145346D01*
X155175947Y-80135118D01*
X155155430Y-80122821D01*
X155136217Y-80108571D01*
X155118493Y-80092507D01*
X155102429Y-80074783D01*
X155088179Y-80055570D01*
X155075882Y-80035053D01*
X155065654Y-80013429D01*
X155057596Y-79990907D01*
X155051784Y-79967703D01*
X155048274Y-79944042D01*
X155047100Y-79920150D01*
X155047100Y-79007650D01*
X155048274Y-78983758D01*
X155051784Y-78960097D01*
X155057596Y-78936893D01*
X155065654Y-78914371D01*
X155075882Y-78892747D01*
X155088179Y-78872230D01*
X155102429Y-78853017D01*
X155118493Y-78835293D01*
X155136217Y-78819229D01*
X155155430Y-78804979D01*
X155175947Y-78792682D01*
X155197571Y-78782454D01*
X155220093Y-78774396D01*
X155243297Y-78768584D01*
X155266958Y-78765074D01*
X155290850Y-78763900D01*
X155778350Y-78763900D01*
X155802242Y-78765074D01*
G37*
G04 #@! TD.AperFunction*
G04 #@! TA.AperFunction,SMDPad,CuDef*
G36*
X153927242Y-78765074D02*
G01*
X153950903Y-78768584D01*
X153974107Y-78774396D01*
X153996629Y-78782454D01*
X154018253Y-78792682D01*
X154038770Y-78804979D01*
X154057983Y-78819229D01*
X154075707Y-78835293D01*
X154091771Y-78853017D01*
X154106021Y-78872230D01*
X154118318Y-78892747D01*
X154128546Y-78914371D01*
X154136604Y-78936893D01*
X154142416Y-78960097D01*
X154145926Y-78983758D01*
X154147100Y-79007650D01*
X154147100Y-79920150D01*
X154145926Y-79944042D01*
X154142416Y-79967703D01*
X154136604Y-79990907D01*
X154128546Y-80013429D01*
X154118318Y-80035053D01*
X154106021Y-80055570D01*
X154091771Y-80074783D01*
X154075707Y-80092507D01*
X154057983Y-80108571D01*
X154038770Y-80122821D01*
X154018253Y-80135118D01*
X153996629Y-80145346D01*
X153974107Y-80153404D01*
X153950903Y-80159216D01*
X153927242Y-80162726D01*
X153903350Y-80163900D01*
X153415850Y-80163900D01*
X153391958Y-80162726D01*
X153368297Y-80159216D01*
X153345093Y-80153404D01*
X153322571Y-80145346D01*
X153300947Y-80135118D01*
X153280430Y-80122821D01*
X153261217Y-80108571D01*
X153243493Y-80092507D01*
X153227429Y-80074783D01*
X153213179Y-80055570D01*
X153200882Y-80035053D01*
X153190654Y-80013429D01*
X153182596Y-79990907D01*
X153176784Y-79967703D01*
X153173274Y-79944042D01*
X153172100Y-79920150D01*
X153172100Y-79007650D01*
X153173274Y-78983758D01*
X153176784Y-78960097D01*
X153182596Y-78936893D01*
X153190654Y-78914371D01*
X153200882Y-78892747D01*
X153213179Y-78872230D01*
X153227429Y-78853017D01*
X153243493Y-78835293D01*
X153261217Y-78819229D01*
X153280430Y-78804979D01*
X153300947Y-78792682D01*
X153322571Y-78782454D01*
X153345093Y-78774396D01*
X153368297Y-78768584D01*
X153391958Y-78765074D01*
X153415850Y-78763900D01*
X153903350Y-78763900D01*
X153927242Y-78765074D01*
G37*
G04 #@! TD.AperFunction*
G04 #@! TA.AperFunction,SMDPad,CuDef*
G36*
X151573142Y-88518674D02*
G01*
X151596803Y-88522184D01*
X151620007Y-88527996D01*
X151642529Y-88536054D01*
X151664153Y-88546282D01*
X151684670Y-88558579D01*
X151703883Y-88572829D01*
X151721607Y-88588893D01*
X151737671Y-88606617D01*
X151751921Y-88625830D01*
X151764218Y-88646347D01*
X151774446Y-88667971D01*
X151782504Y-88690493D01*
X151788316Y-88713697D01*
X151791826Y-88737358D01*
X151793000Y-88761250D01*
X151793000Y-89673750D01*
X151791826Y-89697642D01*
X151788316Y-89721303D01*
X151782504Y-89744507D01*
X151774446Y-89767029D01*
X151764218Y-89788653D01*
X151751921Y-89809170D01*
X151737671Y-89828383D01*
X151721607Y-89846107D01*
X151703883Y-89862171D01*
X151684670Y-89876421D01*
X151664153Y-89888718D01*
X151642529Y-89898946D01*
X151620007Y-89907004D01*
X151596803Y-89912816D01*
X151573142Y-89916326D01*
X151549250Y-89917500D01*
X151061750Y-89917500D01*
X151037858Y-89916326D01*
X151014197Y-89912816D01*
X150990993Y-89907004D01*
X150968471Y-89898946D01*
X150946847Y-89888718D01*
X150926330Y-89876421D01*
X150907117Y-89862171D01*
X150889393Y-89846107D01*
X150873329Y-89828383D01*
X150859079Y-89809170D01*
X150846782Y-89788653D01*
X150836554Y-89767029D01*
X150828496Y-89744507D01*
X150822684Y-89721303D01*
X150819174Y-89697642D01*
X150818000Y-89673750D01*
X150818000Y-88761250D01*
X150819174Y-88737358D01*
X150822684Y-88713697D01*
X150828496Y-88690493D01*
X150836554Y-88667971D01*
X150846782Y-88646347D01*
X150859079Y-88625830D01*
X150873329Y-88606617D01*
X150889393Y-88588893D01*
X150907117Y-88572829D01*
X150926330Y-88558579D01*
X150946847Y-88546282D01*
X150968471Y-88536054D01*
X150990993Y-88527996D01*
X151014197Y-88522184D01*
X151037858Y-88518674D01*
X151061750Y-88517500D01*
X151549250Y-88517500D01*
X151573142Y-88518674D01*
G37*
G04 #@! TD.AperFunction*
G04 #@! TA.AperFunction,SMDPad,CuDef*
G36*
X149698142Y-88518674D02*
G01*
X149721803Y-88522184D01*
X149745007Y-88527996D01*
X149767529Y-88536054D01*
X149789153Y-88546282D01*
X149809670Y-88558579D01*
X149828883Y-88572829D01*
X149846607Y-88588893D01*
X149862671Y-88606617D01*
X149876921Y-88625830D01*
X149889218Y-88646347D01*
X149899446Y-88667971D01*
X149907504Y-88690493D01*
X149913316Y-88713697D01*
X149916826Y-88737358D01*
X149918000Y-88761250D01*
X149918000Y-89673750D01*
X149916826Y-89697642D01*
X149913316Y-89721303D01*
X149907504Y-89744507D01*
X149899446Y-89767029D01*
X149889218Y-89788653D01*
X149876921Y-89809170D01*
X149862671Y-89828383D01*
X149846607Y-89846107D01*
X149828883Y-89862171D01*
X149809670Y-89876421D01*
X149789153Y-89888718D01*
X149767529Y-89898946D01*
X149745007Y-89907004D01*
X149721803Y-89912816D01*
X149698142Y-89916326D01*
X149674250Y-89917500D01*
X149186750Y-89917500D01*
X149162858Y-89916326D01*
X149139197Y-89912816D01*
X149115993Y-89907004D01*
X149093471Y-89898946D01*
X149071847Y-89888718D01*
X149051330Y-89876421D01*
X149032117Y-89862171D01*
X149014393Y-89846107D01*
X148998329Y-89828383D01*
X148984079Y-89809170D01*
X148971782Y-89788653D01*
X148961554Y-89767029D01*
X148953496Y-89744507D01*
X148947684Y-89721303D01*
X148944174Y-89697642D01*
X148943000Y-89673750D01*
X148943000Y-88761250D01*
X148944174Y-88737358D01*
X148947684Y-88713697D01*
X148953496Y-88690493D01*
X148961554Y-88667971D01*
X148971782Y-88646347D01*
X148984079Y-88625830D01*
X148998329Y-88606617D01*
X149014393Y-88588893D01*
X149032117Y-88572829D01*
X149051330Y-88558579D01*
X149071847Y-88546282D01*
X149093471Y-88536054D01*
X149115993Y-88527996D01*
X149139197Y-88522184D01*
X149162858Y-88518674D01*
X149186750Y-88517500D01*
X149674250Y-88517500D01*
X149698142Y-88518674D01*
G37*
G04 #@! TD.AperFunction*
G04 #@! TA.AperFunction,SMDPad,CuDef*
G36*
X153343042Y-88531374D02*
G01*
X153366703Y-88534884D01*
X153389907Y-88540696D01*
X153412429Y-88548754D01*
X153434053Y-88558982D01*
X153454570Y-88571279D01*
X153473783Y-88585529D01*
X153491507Y-88601593D01*
X153507571Y-88619317D01*
X153521821Y-88638530D01*
X153534118Y-88659047D01*
X153544346Y-88680671D01*
X153552404Y-88703193D01*
X153558216Y-88726397D01*
X153561726Y-88750058D01*
X153562900Y-88773950D01*
X153562900Y-89686450D01*
X153561726Y-89710342D01*
X153558216Y-89734003D01*
X153552404Y-89757207D01*
X153544346Y-89779729D01*
X153534118Y-89801353D01*
X153521821Y-89821870D01*
X153507571Y-89841083D01*
X153491507Y-89858807D01*
X153473783Y-89874871D01*
X153454570Y-89889121D01*
X153434053Y-89901418D01*
X153412429Y-89911646D01*
X153389907Y-89919704D01*
X153366703Y-89925516D01*
X153343042Y-89929026D01*
X153319150Y-89930200D01*
X152831650Y-89930200D01*
X152807758Y-89929026D01*
X152784097Y-89925516D01*
X152760893Y-89919704D01*
X152738371Y-89911646D01*
X152716747Y-89901418D01*
X152696230Y-89889121D01*
X152677017Y-89874871D01*
X152659293Y-89858807D01*
X152643229Y-89841083D01*
X152628979Y-89821870D01*
X152616682Y-89801353D01*
X152606454Y-89779729D01*
X152598396Y-89757207D01*
X152592584Y-89734003D01*
X152589074Y-89710342D01*
X152587900Y-89686450D01*
X152587900Y-88773950D01*
X152589074Y-88750058D01*
X152592584Y-88726397D01*
X152598396Y-88703193D01*
X152606454Y-88680671D01*
X152616682Y-88659047D01*
X152628979Y-88638530D01*
X152643229Y-88619317D01*
X152659293Y-88601593D01*
X152677017Y-88585529D01*
X152696230Y-88571279D01*
X152716747Y-88558982D01*
X152738371Y-88548754D01*
X152760893Y-88540696D01*
X152784097Y-88534884D01*
X152807758Y-88531374D01*
X152831650Y-88530200D01*
X153319150Y-88530200D01*
X153343042Y-88531374D01*
G37*
G04 #@! TD.AperFunction*
G04 #@! TA.AperFunction,SMDPad,CuDef*
G36*
X155218042Y-88531374D02*
G01*
X155241703Y-88534884D01*
X155264907Y-88540696D01*
X155287429Y-88548754D01*
X155309053Y-88558982D01*
X155329570Y-88571279D01*
X155348783Y-88585529D01*
X155366507Y-88601593D01*
X155382571Y-88619317D01*
X155396821Y-88638530D01*
X155409118Y-88659047D01*
X155419346Y-88680671D01*
X155427404Y-88703193D01*
X155433216Y-88726397D01*
X155436726Y-88750058D01*
X155437900Y-88773950D01*
X155437900Y-89686450D01*
X155436726Y-89710342D01*
X155433216Y-89734003D01*
X155427404Y-89757207D01*
X155419346Y-89779729D01*
X155409118Y-89801353D01*
X155396821Y-89821870D01*
X155382571Y-89841083D01*
X155366507Y-89858807D01*
X155348783Y-89874871D01*
X155329570Y-89889121D01*
X155309053Y-89901418D01*
X155287429Y-89911646D01*
X155264907Y-89919704D01*
X155241703Y-89925516D01*
X155218042Y-89929026D01*
X155194150Y-89930200D01*
X154706650Y-89930200D01*
X154682758Y-89929026D01*
X154659097Y-89925516D01*
X154635893Y-89919704D01*
X154613371Y-89911646D01*
X154591747Y-89901418D01*
X154571230Y-89889121D01*
X154552017Y-89874871D01*
X154534293Y-89858807D01*
X154518229Y-89841083D01*
X154503979Y-89821870D01*
X154491682Y-89801353D01*
X154481454Y-89779729D01*
X154473396Y-89757207D01*
X154467584Y-89734003D01*
X154464074Y-89710342D01*
X154462900Y-89686450D01*
X154462900Y-88773950D01*
X154464074Y-88750058D01*
X154467584Y-88726397D01*
X154473396Y-88703193D01*
X154481454Y-88680671D01*
X154491682Y-88659047D01*
X154503979Y-88638530D01*
X154518229Y-88619317D01*
X154534293Y-88601593D01*
X154552017Y-88585529D01*
X154571230Y-88571279D01*
X154591747Y-88558982D01*
X154613371Y-88548754D01*
X154635893Y-88540696D01*
X154659097Y-88534884D01*
X154682758Y-88531374D01*
X154706650Y-88530200D01*
X155194150Y-88530200D01*
X155218042Y-88531374D01*
G37*
G04 #@! TD.AperFunction*
G04 #@! TA.AperFunction,SMDPad,CuDef*
G36*
X157579142Y-86472874D02*
G01*
X157602803Y-86476384D01*
X157626007Y-86482196D01*
X157648529Y-86490254D01*
X157670153Y-86500482D01*
X157690670Y-86512779D01*
X157709883Y-86527029D01*
X157727607Y-86543093D01*
X157743671Y-86560817D01*
X157757921Y-86580030D01*
X157770218Y-86600547D01*
X157780446Y-86622171D01*
X157788504Y-86644693D01*
X157794316Y-86667897D01*
X157797826Y-86691558D01*
X157799000Y-86715450D01*
X157799000Y-87202950D01*
X157797826Y-87226842D01*
X157794316Y-87250503D01*
X157788504Y-87273707D01*
X157780446Y-87296229D01*
X157770218Y-87317853D01*
X157757921Y-87338370D01*
X157743671Y-87357583D01*
X157727607Y-87375307D01*
X157709883Y-87391371D01*
X157690670Y-87405621D01*
X157670153Y-87417918D01*
X157648529Y-87428146D01*
X157626007Y-87436204D01*
X157602803Y-87442016D01*
X157579142Y-87445526D01*
X157555250Y-87446700D01*
X156642750Y-87446700D01*
X156618858Y-87445526D01*
X156595197Y-87442016D01*
X156571993Y-87436204D01*
X156549471Y-87428146D01*
X156527847Y-87417918D01*
X156507330Y-87405621D01*
X156488117Y-87391371D01*
X156470393Y-87375307D01*
X156454329Y-87357583D01*
X156440079Y-87338370D01*
X156427782Y-87317853D01*
X156417554Y-87296229D01*
X156409496Y-87273707D01*
X156403684Y-87250503D01*
X156400174Y-87226842D01*
X156399000Y-87202950D01*
X156399000Y-86715450D01*
X156400174Y-86691558D01*
X156403684Y-86667897D01*
X156409496Y-86644693D01*
X156417554Y-86622171D01*
X156427782Y-86600547D01*
X156440079Y-86580030D01*
X156454329Y-86560817D01*
X156470393Y-86543093D01*
X156488117Y-86527029D01*
X156507330Y-86512779D01*
X156527847Y-86500482D01*
X156549471Y-86490254D01*
X156571993Y-86482196D01*
X156595197Y-86476384D01*
X156618858Y-86472874D01*
X156642750Y-86471700D01*
X157555250Y-86471700D01*
X157579142Y-86472874D01*
G37*
G04 #@! TD.AperFunction*
G04 #@! TA.AperFunction,SMDPad,CuDef*
G36*
X157579142Y-88347874D02*
G01*
X157602803Y-88351384D01*
X157626007Y-88357196D01*
X157648529Y-88365254D01*
X157670153Y-88375482D01*
X157690670Y-88387779D01*
X157709883Y-88402029D01*
X157727607Y-88418093D01*
X157743671Y-88435817D01*
X157757921Y-88455030D01*
X157770218Y-88475547D01*
X157780446Y-88497171D01*
X157788504Y-88519693D01*
X157794316Y-88542897D01*
X157797826Y-88566558D01*
X157799000Y-88590450D01*
X157799000Y-89077950D01*
X157797826Y-89101842D01*
X157794316Y-89125503D01*
X157788504Y-89148707D01*
X157780446Y-89171229D01*
X157770218Y-89192853D01*
X157757921Y-89213370D01*
X157743671Y-89232583D01*
X157727607Y-89250307D01*
X157709883Y-89266371D01*
X157690670Y-89280621D01*
X157670153Y-89292918D01*
X157648529Y-89303146D01*
X157626007Y-89311204D01*
X157602803Y-89317016D01*
X157579142Y-89320526D01*
X157555250Y-89321700D01*
X156642750Y-89321700D01*
X156618858Y-89320526D01*
X156595197Y-89317016D01*
X156571993Y-89311204D01*
X156549471Y-89303146D01*
X156527847Y-89292918D01*
X156507330Y-89280621D01*
X156488117Y-89266371D01*
X156470393Y-89250307D01*
X156454329Y-89232583D01*
X156440079Y-89213370D01*
X156427782Y-89192853D01*
X156417554Y-89171229D01*
X156409496Y-89148707D01*
X156403684Y-89125503D01*
X156400174Y-89101842D01*
X156399000Y-89077950D01*
X156399000Y-88590450D01*
X156400174Y-88566558D01*
X156403684Y-88542897D01*
X156409496Y-88519693D01*
X156417554Y-88497171D01*
X156427782Y-88475547D01*
X156440079Y-88455030D01*
X156454329Y-88435817D01*
X156470393Y-88418093D01*
X156488117Y-88402029D01*
X156507330Y-88387779D01*
X156527847Y-88375482D01*
X156549471Y-88365254D01*
X156571993Y-88357196D01*
X156595197Y-88351384D01*
X156618858Y-88347874D01*
X156642750Y-88346700D01*
X157555250Y-88346700D01*
X157579142Y-88347874D01*
G37*
G04 #@! TD.AperFunction*
G04 #@! TA.AperFunction,SMDPad,CuDef*
G36*
X147928242Y-88518674D02*
G01*
X147951903Y-88522184D01*
X147975107Y-88527996D01*
X147997629Y-88536054D01*
X148019253Y-88546282D01*
X148039770Y-88558579D01*
X148058983Y-88572829D01*
X148076707Y-88588893D01*
X148092771Y-88606617D01*
X148107021Y-88625830D01*
X148119318Y-88646347D01*
X148129546Y-88667971D01*
X148137604Y-88690493D01*
X148143416Y-88713697D01*
X148146926Y-88737358D01*
X148148100Y-88761250D01*
X148148100Y-89673750D01*
X148146926Y-89697642D01*
X148143416Y-89721303D01*
X148137604Y-89744507D01*
X148129546Y-89767029D01*
X148119318Y-89788653D01*
X148107021Y-89809170D01*
X148092771Y-89828383D01*
X148076707Y-89846107D01*
X148058983Y-89862171D01*
X148039770Y-89876421D01*
X148019253Y-89888718D01*
X147997629Y-89898946D01*
X147975107Y-89907004D01*
X147951903Y-89912816D01*
X147928242Y-89916326D01*
X147904350Y-89917500D01*
X147416850Y-89917500D01*
X147392958Y-89916326D01*
X147369297Y-89912816D01*
X147346093Y-89907004D01*
X147323571Y-89898946D01*
X147301947Y-89888718D01*
X147281430Y-89876421D01*
X147262217Y-89862171D01*
X147244493Y-89846107D01*
X147228429Y-89828383D01*
X147214179Y-89809170D01*
X147201882Y-89788653D01*
X147191654Y-89767029D01*
X147183596Y-89744507D01*
X147177784Y-89721303D01*
X147174274Y-89697642D01*
X147173100Y-89673750D01*
X147173100Y-88761250D01*
X147174274Y-88737358D01*
X147177784Y-88713697D01*
X147183596Y-88690493D01*
X147191654Y-88667971D01*
X147201882Y-88646347D01*
X147214179Y-88625830D01*
X147228429Y-88606617D01*
X147244493Y-88588893D01*
X147262217Y-88572829D01*
X147281430Y-88558579D01*
X147301947Y-88546282D01*
X147323571Y-88536054D01*
X147346093Y-88527996D01*
X147369297Y-88522184D01*
X147392958Y-88518674D01*
X147416850Y-88517500D01*
X147904350Y-88517500D01*
X147928242Y-88518674D01*
G37*
G04 #@! TD.AperFunction*
G04 #@! TA.AperFunction,SMDPad,CuDef*
G36*
X146053242Y-88518674D02*
G01*
X146076903Y-88522184D01*
X146100107Y-88527996D01*
X146122629Y-88536054D01*
X146144253Y-88546282D01*
X146164770Y-88558579D01*
X146183983Y-88572829D01*
X146201707Y-88588893D01*
X146217771Y-88606617D01*
X146232021Y-88625830D01*
X146244318Y-88646347D01*
X146254546Y-88667971D01*
X146262604Y-88690493D01*
X146268416Y-88713697D01*
X146271926Y-88737358D01*
X146273100Y-88761250D01*
X146273100Y-89673750D01*
X146271926Y-89697642D01*
X146268416Y-89721303D01*
X146262604Y-89744507D01*
X146254546Y-89767029D01*
X146244318Y-89788653D01*
X146232021Y-89809170D01*
X146217771Y-89828383D01*
X146201707Y-89846107D01*
X146183983Y-89862171D01*
X146164770Y-89876421D01*
X146144253Y-89888718D01*
X146122629Y-89898946D01*
X146100107Y-89907004D01*
X146076903Y-89912816D01*
X146053242Y-89916326D01*
X146029350Y-89917500D01*
X145541850Y-89917500D01*
X145517958Y-89916326D01*
X145494297Y-89912816D01*
X145471093Y-89907004D01*
X145448571Y-89898946D01*
X145426947Y-89888718D01*
X145406430Y-89876421D01*
X145387217Y-89862171D01*
X145369493Y-89846107D01*
X145353429Y-89828383D01*
X145339179Y-89809170D01*
X145326882Y-89788653D01*
X145316654Y-89767029D01*
X145308596Y-89744507D01*
X145302784Y-89721303D01*
X145299274Y-89697642D01*
X145298100Y-89673750D01*
X145298100Y-88761250D01*
X145299274Y-88737358D01*
X145302784Y-88713697D01*
X145308596Y-88690493D01*
X145316654Y-88667971D01*
X145326882Y-88646347D01*
X145339179Y-88625830D01*
X145353429Y-88606617D01*
X145369493Y-88588893D01*
X145387217Y-88572829D01*
X145406430Y-88558579D01*
X145426947Y-88546282D01*
X145448571Y-88536054D01*
X145471093Y-88527996D01*
X145494297Y-88522184D01*
X145517958Y-88518674D01*
X145541850Y-88517500D01*
X146029350Y-88517500D01*
X146053242Y-88518674D01*
G37*
G04 #@! TD.AperFunction*
D11*
X146304000Y-77076300D03*
D12*
X148844000Y-77076300D03*
X151384000Y-77076300D03*
X156464000Y-77076300D03*
X153924000Y-77076300D03*
D13*
X145046700Y-72339200D03*
X145046700Y-73609200D03*
X145046700Y-74879200D03*
X145046700Y-70535800D03*
X145046700Y-69265800D03*
X145046700Y-67995800D03*
D14*
X161569400Y-67843400D03*
X161569400Y-70383400D03*
X161569400Y-72923400D03*
X161569400Y-75463400D03*
X161569400Y-78003400D03*
X161569400Y-80543400D03*
X161569400Y-83083400D03*
X161569400Y-85623400D03*
X161569400Y-88163400D03*
X161569400Y-65303400D03*
X159029400Y-65303400D03*
X156489400Y-65303400D03*
X153949400Y-65303400D03*
X151409400Y-65303400D03*
X148869400Y-65303400D03*
X146329400Y-65303400D03*
X143789400Y-65303400D03*
X141249400Y-65303400D03*
X141249400Y-67843400D03*
X141249400Y-70383400D03*
X141249400Y-72923400D03*
X141249400Y-75463400D03*
X141249400Y-78003400D03*
X141249400Y-80543400D03*
X141249400Y-83083400D03*
X141249400Y-85623400D03*
X141249400Y-88163400D03*
D15*
X157489400Y-68849200D03*
X157489400Y-70749200D03*
X155489400Y-69799200D03*
G04 #@! TA.AperFunction,SMDPad,CuDef*
D10*
G36*
X154112042Y-68451574D02*
G01*
X154135703Y-68455084D01*
X154158907Y-68460896D01*
X154181429Y-68468954D01*
X154203053Y-68479182D01*
X154223570Y-68491479D01*
X154242783Y-68505729D01*
X154260507Y-68521793D01*
X154276571Y-68539517D01*
X154290821Y-68558730D01*
X154303118Y-68579247D01*
X154313346Y-68600871D01*
X154321404Y-68623393D01*
X154327216Y-68646597D01*
X154330726Y-68670258D01*
X154331900Y-68694150D01*
X154331900Y-69181650D01*
X154330726Y-69205542D01*
X154327216Y-69229203D01*
X154321404Y-69252407D01*
X154313346Y-69274929D01*
X154303118Y-69296553D01*
X154290821Y-69317070D01*
X154276571Y-69336283D01*
X154260507Y-69354007D01*
X154242783Y-69370071D01*
X154223570Y-69384321D01*
X154203053Y-69396618D01*
X154181429Y-69406846D01*
X154158907Y-69414904D01*
X154135703Y-69420716D01*
X154112042Y-69424226D01*
X154088150Y-69425400D01*
X153175650Y-69425400D01*
X153151758Y-69424226D01*
X153128097Y-69420716D01*
X153104893Y-69414904D01*
X153082371Y-69406846D01*
X153060747Y-69396618D01*
X153040230Y-69384321D01*
X153021017Y-69370071D01*
X153003293Y-69354007D01*
X152987229Y-69336283D01*
X152972979Y-69317070D01*
X152960682Y-69296553D01*
X152950454Y-69274929D01*
X152942396Y-69252407D01*
X152936584Y-69229203D01*
X152933074Y-69205542D01*
X152931900Y-69181650D01*
X152931900Y-68694150D01*
X152933074Y-68670258D01*
X152936584Y-68646597D01*
X152942396Y-68623393D01*
X152950454Y-68600871D01*
X152960682Y-68579247D01*
X152972979Y-68558730D01*
X152987229Y-68539517D01*
X153003293Y-68521793D01*
X153021017Y-68505729D01*
X153040230Y-68491479D01*
X153060747Y-68479182D01*
X153082371Y-68468954D01*
X153104893Y-68460896D01*
X153128097Y-68455084D01*
X153151758Y-68451574D01*
X153175650Y-68450400D01*
X154088150Y-68450400D01*
X154112042Y-68451574D01*
G37*
G04 #@! TD.AperFunction*
G04 #@! TA.AperFunction,SMDPad,CuDef*
G36*
X154112042Y-70326574D02*
G01*
X154135703Y-70330084D01*
X154158907Y-70335896D01*
X154181429Y-70343954D01*
X154203053Y-70354182D01*
X154223570Y-70366479D01*
X154242783Y-70380729D01*
X154260507Y-70396793D01*
X154276571Y-70414517D01*
X154290821Y-70433730D01*
X154303118Y-70454247D01*
X154313346Y-70475871D01*
X154321404Y-70498393D01*
X154327216Y-70521597D01*
X154330726Y-70545258D01*
X154331900Y-70569150D01*
X154331900Y-71056650D01*
X154330726Y-71080542D01*
X154327216Y-71104203D01*
X154321404Y-71127407D01*
X154313346Y-71149929D01*
X154303118Y-71171553D01*
X154290821Y-71192070D01*
X154276571Y-71211283D01*
X154260507Y-71229007D01*
X154242783Y-71245071D01*
X154223570Y-71259321D01*
X154203053Y-71271618D01*
X154181429Y-71281846D01*
X154158907Y-71289904D01*
X154135703Y-71295716D01*
X154112042Y-71299226D01*
X154088150Y-71300400D01*
X153175650Y-71300400D01*
X153151758Y-71299226D01*
X153128097Y-71295716D01*
X153104893Y-71289904D01*
X153082371Y-71281846D01*
X153060747Y-71271618D01*
X153040230Y-71259321D01*
X153021017Y-71245071D01*
X153003293Y-71229007D01*
X152987229Y-71211283D01*
X152972979Y-71192070D01*
X152960682Y-71171553D01*
X152950454Y-71149929D01*
X152942396Y-71127407D01*
X152936584Y-71104203D01*
X152933074Y-71080542D01*
X152931900Y-71056650D01*
X152931900Y-70569150D01*
X152933074Y-70545258D01*
X152936584Y-70521597D01*
X152942396Y-70498393D01*
X152950454Y-70475871D01*
X152960682Y-70454247D01*
X152972979Y-70433730D01*
X152987229Y-70414517D01*
X153003293Y-70396793D01*
X153021017Y-70380729D01*
X153040230Y-70366479D01*
X153060747Y-70354182D01*
X153082371Y-70343954D01*
X153104893Y-70335896D01*
X153128097Y-70330084D01*
X153151758Y-70326574D01*
X153175650Y-70325400D01*
X154088150Y-70325400D01*
X154112042Y-70326574D01*
G37*
G04 #@! TD.AperFunction*
G04 #@! TA.AperFunction,SMDPad,CuDef*
G36*
X157135742Y-72592874D02*
G01*
X157159403Y-72596384D01*
X157182607Y-72602196D01*
X157205129Y-72610254D01*
X157226753Y-72620482D01*
X157247270Y-72632779D01*
X157266483Y-72647029D01*
X157284207Y-72663093D01*
X157300271Y-72680817D01*
X157314521Y-72700030D01*
X157326818Y-72720547D01*
X157337046Y-72742171D01*
X157345104Y-72764693D01*
X157350916Y-72787897D01*
X157354426Y-72811558D01*
X157355600Y-72835450D01*
X157355600Y-73747950D01*
X157354426Y-73771842D01*
X157350916Y-73795503D01*
X157345104Y-73818707D01*
X157337046Y-73841229D01*
X157326818Y-73862853D01*
X157314521Y-73883370D01*
X157300271Y-73902583D01*
X157284207Y-73920307D01*
X157266483Y-73936371D01*
X157247270Y-73950621D01*
X157226753Y-73962918D01*
X157205129Y-73973146D01*
X157182607Y-73981204D01*
X157159403Y-73987016D01*
X157135742Y-73990526D01*
X157111850Y-73991700D01*
X156624350Y-73991700D01*
X156600458Y-73990526D01*
X156576797Y-73987016D01*
X156553593Y-73981204D01*
X156531071Y-73973146D01*
X156509447Y-73962918D01*
X156488930Y-73950621D01*
X156469717Y-73936371D01*
X156451993Y-73920307D01*
X156435929Y-73902583D01*
X156421679Y-73883370D01*
X156409382Y-73862853D01*
X156399154Y-73841229D01*
X156391096Y-73818707D01*
X156385284Y-73795503D01*
X156381774Y-73771842D01*
X156380600Y-73747950D01*
X156380600Y-72835450D01*
X156381774Y-72811558D01*
X156385284Y-72787897D01*
X156391096Y-72764693D01*
X156399154Y-72742171D01*
X156409382Y-72720547D01*
X156421679Y-72700030D01*
X156435929Y-72680817D01*
X156451993Y-72663093D01*
X156469717Y-72647029D01*
X156488930Y-72632779D01*
X156509447Y-72620482D01*
X156531071Y-72610254D01*
X156553593Y-72602196D01*
X156576797Y-72596384D01*
X156600458Y-72592874D01*
X156624350Y-72591700D01*
X157111850Y-72591700D01*
X157135742Y-72592874D01*
G37*
G04 #@! TD.AperFunction*
G04 #@! TA.AperFunction,SMDPad,CuDef*
G36*
X155260742Y-72592874D02*
G01*
X155284403Y-72596384D01*
X155307607Y-72602196D01*
X155330129Y-72610254D01*
X155351753Y-72620482D01*
X155372270Y-72632779D01*
X155391483Y-72647029D01*
X155409207Y-72663093D01*
X155425271Y-72680817D01*
X155439521Y-72700030D01*
X155451818Y-72720547D01*
X155462046Y-72742171D01*
X155470104Y-72764693D01*
X155475916Y-72787897D01*
X155479426Y-72811558D01*
X155480600Y-72835450D01*
X155480600Y-73747950D01*
X155479426Y-73771842D01*
X155475916Y-73795503D01*
X155470104Y-73818707D01*
X155462046Y-73841229D01*
X155451818Y-73862853D01*
X155439521Y-73883370D01*
X155425271Y-73902583D01*
X155409207Y-73920307D01*
X155391483Y-73936371D01*
X155372270Y-73950621D01*
X155351753Y-73962918D01*
X155330129Y-73973146D01*
X155307607Y-73981204D01*
X155284403Y-73987016D01*
X155260742Y-73990526D01*
X155236850Y-73991700D01*
X154749350Y-73991700D01*
X154725458Y-73990526D01*
X154701797Y-73987016D01*
X154678593Y-73981204D01*
X154656071Y-73973146D01*
X154634447Y-73962918D01*
X154613930Y-73950621D01*
X154594717Y-73936371D01*
X154576993Y-73920307D01*
X154560929Y-73902583D01*
X154546679Y-73883370D01*
X154534382Y-73862853D01*
X154524154Y-73841229D01*
X154516096Y-73818707D01*
X154510284Y-73795503D01*
X154506774Y-73771842D01*
X154505600Y-73747950D01*
X154505600Y-72835450D01*
X154506774Y-72811558D01*
X154510284Y-72787897D01*
X154516096Y-72764693D01*
X154524154Y-72742171D01*
X154534382Y-72720547D01*
X154546679Y-72700030D01*
X154560929Y-72680817D01*
X154576993Y-72663093D01*
X154594717Y-72647029D01*
X154613930Y-72632779D01*
X154634447Y-72620482D01*
X154656071Y-72610254D01*
X154678593Y-72602196D01*
X154701797Y-72596384D01*
X154725458Y-72592874D01*
X154749350Y-72591700D01*
X155236850Y-72591700D01*
X155260742Y-72592874D01*
G37*
G04 #@! TD.AperFunction*
G04 #@! TA.AperFunction,SMDPad,CuDef*
G36*
X154965003Y-85866822D02*
G01*
X154979564Y-85868982D01*
X154993843Y-85872559D01*
X155007703Y-85877518D01*
X155021010Y-85883812D01*
X155033636Y-85891380D01*
X155045459Y-85900148D01*
X155056366Y-85910034D01*
X155066252Y-85920941D01*
X155075020Y-85932764D01*
X155082588Y-85945390D01*
X155088882Y-85958697D01*
X155093841Y-85972557D01*
X155097418Y-85986836D01*
X155099578Y-86001397D01*
X155100300Y-86016100D01*
X155100300Y-87666100D01*
X155099578Y-87680803D01*
X155097418Y-87695364D01*
X155093841Y-87709643D01*
X155088882Y-87723503D01*
X155082588Y-87736810D01*
X155075020Y-87749436D01*
X155066252Y-87761259D01*
X155056366Y-87772166D01*
X155045459Y-87782052D01*
X155033636Y-87790820D01*
X155021010Y-87798388D01*
X155007703Y-87804682D01*
X154993843Y-87809641D01*
X154979564Y-87813218D01*
X154965003Y-87815378D01*
X154950300Y-87816100D01*
X154650300Y-87816100D01*
X154635597Y-87815378D01*
X154621036Y-87813218D01*
X154606757Y-87809641D01*
X154592897Y-87804682D01*
X154579590Y-87798388D01*
X154566964Y-87790820D01*
X154555141Y-87782052D01*
X154544234Y-87772166D01*
X154534348Y-87761259D01*
X154525580Y-87749436D01*
X154518012Y-87736810D01*
X154511718Y-87723503D01*
X154506759Y-87709643D01*
X154503182Y-87695364D01*
X154501022Y-87680803D01*
X154500300Y-87666100D01*
X154500300Y-86016100D01*
X154501022Y-86001397D01*
X154503182Y-85986836D01*
X154506759Y-85972557D01*
X154511718Y-85958697D01*
X154518012Y-85945390D01*
X154525580Y-85932764D01*
X154534348Y-85920941D01*
X154544234Y-85910034D01*
X154555141Y-85900148D01*
X154566964Y-85891380D01*
X154579590Y-85883812D01*
X154592897Y-85877518D01*
X154606757Y-85872559D01*
X154621036Y-85868982D01*
X154635597Y-85866822D01*
X154650300Y-85866100D01*
X154950300Y-85866100D01*
X154965003Y-85866822D01*
G37*
G04 #@! TD.AperFunction*
G04 #@! TA.AperFunction,SMDPad,CuDef*
G36*
X153695003Y-85866822D02*
G01*
X153709564Y-85868982D01*
X153723843Y-85872559D01*
X153737703Y-85877518D01*
X153751010Y-85883812D01*
X153763636Y-85891380D01*
X153775459Y-85900148D01*
X153786366Y-85910034D01*
X153796252Y-85920941D01*
X153805020Y-85932764D01*
X153812588Y-85945390D01*
X153818882Y-85958697D01*
X153823841Y-85972557D01*
X153827418Y-85986836D01*
X153829578Y-86001397D01*
X153830300Y-86016100D01*
X153830300Y-87666100D01*
X153829578Y-87680803D01*
X153827418Y-87695364D01*
X153823841Y-87709643D01*
X153818882Y-87723503D01*
X153812588Y-87736810D01*
X153805020Y-87749436D01*
X153796252Y-87761259D01*
X153786366Y-87772166D01*
X153775459Y-87782052D01*
X153763636Y-87790820D01*
X153751010Y-87798388D01*
X153737703Y-87804682D01*
X153723843Y-87809641D01*
X153709564Y-87813218D01*
X153695003Y-87815378D01*
X153680300Y-87816100D01*
X153380300Y-87816100D01*
X153365597Y-87815378D01*
X153351036Y-87813218D01*
X153336757Y-87809641D01*
X153322897Y-87804682D01*
X153309590Y-87798388D01*
X153296964Y-87790820D01*
X153285141Y-87782052D01*
X153274234Y-87772166D01*
X153264348Y-87761259D01*
X153255580Y-87749436D01*
X153248012Y-87736810D01*
X153241718Y-87723503D01*
X153236759Y-87709643D01*
X153233182Y-87695364D01*
X153231022Y-87680803D01*
X153230300Y-87666100D01*
X153230300Y-86016100D01*
X153231022Y-86001397D01*
X153233182Y-85986836D01*
X153236759Y-85972557D01*
X153241718Y-85958697D01*
X153248012Y-85945390D01*
X153255580Y-85932764D01*
X153264348Y-85920941D01*
X153274234Y-85910034D01*
X153285141Y-85900148D01*
X153296964Y-85891380D01*
X153309590Y-85883812D01*
X153322897Y-85877518D01*
X153336757Y-85872559D01*
X153351036Y-85868982D01*
X153365597Y-85866822D01*
X153380300Y-85866100D01*
X153680300Y-85866100D01*
X153695003Y-85866822D01*
G37*
G04 #@! TD.AperFunction*
G04 #@! TA.AperFunction,SMDPad,CuDef*
G36*
X152425003Y-85866822D02*
G01*
X152439564Y-85868982D01*
X152453843Y-85872559D01*
X152467703Y-85877518D01*
X152481010Y-85883812D01*
X152493636Y-85891380D01*
X152505459Y-85900148D01*
X152516366Y-85910034D01*
X152526252Y-85920941D01*
X152535020Y-85932764D01*
X152542588Y-85945390D01*
X152548882Y-85958697D01*
X152553841Y-85972557D01*
X152557418Y-85986836D01*
X152559578Y-86001397D01*
X152560300Y-86016100D01*
X152560300Y-87666100D01*
X152559578Y-87680803D01*
X152557418Y-87695364D01*
X152553841Y-87709643D01*
X152548882Y-87723503D01*
X152542588Y-87736810D01*
X152535020Y-87749436D01*
X152526252Y-87761259D01*
X152516366Y-87772166D01*
X152505459Y-87782052D01*
X152493636Y-87790820D01*
X152481010Y-87798388D01*
X152467703Y-87804682D01*
X152453843Y-87809641D01*
X152439564Y-87813218D01*
X152425003Y-87815378D01*
X152410300Y-87816100D01*
X152110300Y-87816100D01*
X152095597Y-87815378D01*
X152081036Y-87813218D01*
X152066757Y-87809641D01*
X152052897Y-87804682D01*
X152039590Y-87798388D01*
X152026964Y-87790820D01*
X152015141Y-87782052D01*
X152004234Y-87772166D01*
X151994348Y-87761259D01*
X151985580Y-87749436D01*
X151978012Y-87736810D01*
X151971718Y-87723503D01*
X151966759Y-87709643D01*
X151963182Y-87695364D01*
X151961022Y-87680803D01*
X151960300Y-87666100D01*
X151960300Y-86016100D01*
X151961022Y-86001397D01*
X151963182Y-85986836D01*
X151966759Y-85972557D01*
X151971718Y-85958697D01*
X151978012Y-85945390D01*
X151985580Y-85932764D01*
X151994348Y-85920941D01*
X152004234Y-85910034D01*
X152015141Y-85900148D01*
X152026964Y-85891380D01*
X152039590Y-85883812D01*
X152052897Y-85877518D01*
X152066757Y-85872559D01*
X152081036Y-85868982D01*
X152095597Y-85866822D01*
X152110300Y-85866100D01*
X152410300Y-85866100D01*
X152425003Y-85866822D01*
G37*
G04 #@! TD.AperFunction*
G04 #@! TA.AperFunction,SMDPad,CuDef*
G36*
X151155003Y-85866822D02*
G01*
X151169564Y-85868982D01*
X151183843Y-85872559D01*
X151197703Y-85877518D01*
X151211010Y-85883812D01*
X151223636Y-85891380D01*
X151235459Y-85900148D01*
X151246366Y-85910034D01*
X151256252Y-85920941D01*
X151265020Y-85932764D01*
X151272588Y-85945390D01*
X151278882Y-85958697D01*
X151283841Y-85972557D01*
X151287418Y-85986836D01*
X151289578Y-86001397D01*
X151290300Y-86016100D01*
X151290300Y-87666100D01*
X151289578Y-87680803D01*
X151287418Y-87695364D01*
X151283841Y-87709643D01*
X151278882Y-87723503D01*
X151272588Y-87736810D01*
X151265020Y-87749436D01*
X151256252Y-87761259D01*
X151246366Y-87772166D01*
X151235459Y-87782052D01*
X151223636Y-87790820D01*
X151211010Y-87798388D01*
X151197703Y-87804682D01*
X151183843Y-87809641D01*
X151169564Y-87813218D01*
X151155003Y-87815378D01*
X151140300Y-87816100D01*
X150840300Y-87816100D01*
X150825597Y-87815378D01*
X150811036Y-87813218D01*
X150796757Y-87809641D01*
X150782897Y-87804682D01*
X150769590Y-87798388D01*
X150756964Y-87790820D01*
X150745141Y-87782052D01*
X150734234Y-87772166D01*
X150724348Y-87761259D01*
X150715580Y-87749436D01*
X150708012Y-87736810D01*
X150701718Y-87723503D01*
X150696759Y-87709643D01*
X150693182Y-87695364D01*
X150691022Y-87680803D01*
X150690300Y-87666100D01*
X150690300Y-86016100D01*
X150691022Y-86001397D01*
X150693182Y-85986836D01*
X150696759Y-85972557D01*
X150701718Y-85958697D01*
X150708012Y-85945390D01*
X150715580Y-85932764D01*
X150724348Y-85920941D01*
X150734234Y-85910034D01*
X150745141Y-85900148D01*
X150756964Y-85891380D01*
X150769590Y-85883812D01*
X150782897Y-85877518D01*
X150796757Y-85872559D01*
X150811036Y-85868982D01*
X150825597Y-85866822D01*
X150840300Y-85866100D01*
X151140300Y-85866100D01*
X151155003Y-85866822D01*
G37*
G04 #@! TD.AperFunction*
G04 #@! TA.AperFunction,SMDPad,CuDef*
G36*
X149885003Y-85866822D02*
G01*
X149899564Y-85868982D01*
X149913843Y-85872559D01*
X149927703Y-85877518D01*
X149941010Y-85883812D01*
X149953636Y-85891380D01*
X149965459Y-85900148D01*
X149976366Y-85910034D01*
X149986252Y-85920941D01*
X149995020Y-85932764D01*
X150002588Y-85945390D01*
X150008882Y-85958697D01*
X150013841Y-85972557D01*
X150017418Y-85986836D01*
X150019578Y-86001397D01*
X150020300Y-86016100D01*
X150020300Y-87666100D01*
X150019578Y-87680803D01*
X150017418Y-87695364D01*
X150013841Y-87709643D01*
X150008882Y-87723503D01*
X150002588Y-87736810D01*
X149995020Y-87749436D01*
X149986252Y-87761259D01*
X149976366Y-87772166D01*
X149965459Y-87782052D01*
X149953636Y-87790820D01*
X149941010Y-87798388D01*
X149927703Y-87804682D01*
X149913843Y-87809641D01*
X149899564Y-87813218D01*
X149885003Y-87815378D01*
X149870300Y-87816100D01*
X149570300Y-87816100D01*
X149555597Y-87815378D01*
X149541036Y-87813218D01*
X149526757Y-87809641D01*
X149512897Y-87804682D01*
X149499590Y-87798388D01*
X149486964Y-87790820D01*
X149475141Y-87782052D01*
X149464234Y-87772166D01*
X149454348Y-87761259D01*
X149445580Y-87749436D01*
X149438012Y-87736810D01*
X149431718Y-87723503D01*
X149426759Y-87709643D01*
X149423182Y-87695364D01*
X149421022Y-87680803D01*
X149420300Y-87666100D01*
X149420300Y-86016100D01*
X149421022Y-86001397D01*
X149423182Y-85986836D01*
X149426759Y-85972557D01*
X149431718Y-85958697D01*
X149438012Y-85945390D01*
X149445580Y-85932764D01*
X149454348Y-85920941D01*
X149464234Y-85910034D01*
X149475141Y-85900148D01*
X149486964Y-85891380D01*
X149499590Y-85883812D01*
X149512897Y-85877518D01*
X149526757Y-85872559D01*
X149541036Y-85868982D01*
X149555597Y-85866822D01*
X149570300Y-85866100D01*
X149870300Y-85866100D01*
X149885003Y-85866822D01*
G37*
G04 #@! TD.AperFunction*
G04 #@! TA.AperFunction,SMDPad,CuDef*
G36*
X148615003Y-85866822D02*
G01*
X148629564Y-85868982D01*
X148643843Y-85872559D01*
X148657703Y-85877518D01*
X148671010Y-85883812D01*
X148683636Y-85891380D01*
X148695459Y-85900148D01*
X148706366Y-85910034D01*
X148716252Y-85920941D01*
X148725020Y-85932764D01*
X148732588Y-85945390D01*
X148738882Y-85958697D01*
X148743841Y-85972557D01*
X148747418Y-85986836D01*
X148749578Y-86001397D01*
X148750300Y-86016100D01*
X148750300Y-87666100D01*
X148749578Y-87680803D01*
X148747418Y-87695364D01*
X148743841Y-87709643D01*
X148738882Y-87723503D01*
X148732588Y-87736810D01*
X148725020Y-87749436D01*
X148716252Y-87761259D01*
X148706366Y-87772166D01*
X148695459Y-87782052D01*
X148683636Y-87790820D01*
X148671010Y-87798388D01*
X148657703Y-87804682D01*
X148643843Y-87809641D01*
X148629564Y-87813218D01*
X148615003Y-87815378D01*
X148600300Y-87816100D01*
X148300300Y-87816100D01*
X148285597Y-87815378D01*
X148271036Y-87813218D01*
X148256757Y-87809641D01*
X148242897Y-87804682D01*
X148229590Y-87798388D01*
X148216964Y-87790820D01*
X148205141Y-87782052D01*
X148194234Y-87772166D01*
X148184348Y-87761259D01*
X148175580Y-87749436D01*
X148168012Y-87736810D01*
X148161718Y-87723503D01*
X148156759Y-87709643D01*
X148153182Y-87695364D01*
X148151022Y-87680803D01*
X148150300Y-87666100D01*
X148150300Y-86016100D01*
X148151022Y-86001397D01*
X148153182Y-85986836D01*
X148156759Y-85972557D01*
X148161718Y-85958697D01*
X148168012Y-85945390D01*
X148175580Y-85932764D01*
X148184348Y-85920941D01*
X148194234Y-85910034D01*
X148205141Y-85900148D01*
X148216964Y-85891380D01*
X148229590Y-85883812D01*
X148242897Y-85877518D01*
X148256757Y-85872559D01*
X148271036Y-85868982D01*
X148285597Y-85866822D01*
X148300300Y-85866100D01*
X148600300Y-85866100D01*
X148615003Y-85866822D01*
G37*
G04 #@! TD.AperFunction*
G04 #@! TA.AperFunction,SMDPad,CuDef*
G36*
X147345003Y-85866822D02*
G01*
X147359564Y-85868982D01*
X147373843Y-85872559D01*
X147387703Y-85877518D01*
X147401010Y-85883812D01*
X147413636Y-85891380D01*
X147425459Y-85900148D01*
X147436366Y-85910034D01*
X147446252Y-85920941D01*
X147455020Y-85932764D01*
X147462588Y-85945390D01*
X147468882Y-85958697D01*
X147473841Y-85972557D01*
X147477418Y-85986836D01*
X147479578Y-86001397D01*
X147480300Y-86016100D01*
X147480300Y-87666100D01*
X147479578Y-87680803D01*
X147477418Y-87695364D01*
X147473841Y-87709643D01*
X147468882Y-87723503D01*
X147462588Y-87736810D01*
X147455020Y-87749436D01*
X147446252Y-87761259D01*
X147436366Y-87772166D01*
X147425459Y-87782052D01*
X147413636Y-87790820D01*
X147401010Y-87798388D01*
X147387703Y-87804682D01*
X147373843Y-87809641D01*
X147359564Y-87813218D01*
X147345003Y-87815378D01*
X147330300Y-87816100D01*
X147030300Y-87816100D01*
X147015597Y-87815378D01*
X147001036Y-87813218D01*
X146986757Y-87809641D01*
X146972897Y-87804682D01*
X146959590Y-87798388D01*
X146946964Y-87790820D01*
X146935141Y-87782052D01*
X146924234Y-87772166D01*
X146914348Y-87761259D01*
X146905580Y-87749436D01*
X146898012Y-87736810D01*
X146891718Y-87723503D01*
X146886759Y-87709643D01*
X146883182Y-87695364D01*
X146881022Y-87680803D01*
X146880300Y-87666100D01*
X146880300Y-86016100D01*
X146881022Y-86001397D01*
X146883182Y-85986836D01*
X146886759Y-85972557D01*
X146891718Y-85958697D01*
X146898012Y-85945390D01*
X146905580Y-85932764D01*
X146914348Y-85920941D01*
X146924234Y-85910034D01*
X146935141Y-85900148D01*
X146946964Y-85891380D01*
X146959590Y-85883812D01*
X146972897Y-85877518D01*
X146986757Y-85872559D01*
X147001036Y-85868982D01*
X147015597Y-85866822D01*
X147030300Y-85866100D01*
X147330300Y-85866100D01*
X147345003Y-85866822D01*
G37*
G04 #@! TD.AperFunction*
G04 #@! TA.AperFunction,SMDPad,CuDef*
G36*
X146075003Y-85866822D02*
G01*
X146089564Y-85868982D01*
X146103843Y-85872559D01*
X146117703Y-85877518D01*
X146131010Y-85883812D01*
X146143636Y-85891380D01*
X146155459Y-85900148D01*
X146166366Y-85910034D01*
X146176252Y-85920941D01*
X146185020Y-85932764D01*
X146192588Y-85945390D01*
X146198882Y-85958697D01*
X146203841Y-85972557D01*
X146207418Y-85986836D01*
X146209578Y-86001397D01*
X146210300Y-86016100D01*
X146210300Y-87666100D01*
X146209578Y-87680803D01*
X146207418Y-87695364D01*
X146203841Y-87709643D01*
X146198882Y-87723503D01*
X146192588Y-87736810D01*
X146185020Y-87749436D01*
X146176252Y-87761259D01*
X146166366Y-87772166D01*
X146155459Y-87782052D01*
X146143636Y-87790820D01*
X146131010Y-87798388D01*
X146117703Y-87804682D01*
X146103843Y-87809641D01*
X146089564Y-87813218D01*
X146075003Y-87815378D01*
X146060300Y-87816100D01*
X145760300Y-87816100D01*
X145745597Y-87815378D01*
X145731036Y-87813218D01*
X145716757Y-87809641D01*
X145702897Y-87804682D01*
X145689590Y-87798388D01*
X145676964Y-87790820D01*
X145665141Y-87782052D01*
X145654234Y-87772166D01*
X145644348Y-87761259D01*
X145635580Y-87749436D01*
X145628012Y-87736810D01*
X145621718Y-87723503D01*
X145616759Y-87709643D01*
X145613182Y-87695364D01*
X145611022Y-87680803D01*
X145610300Y-87666100D01*
X145610300Y-86016100D01*
X145611022Y-86001397D01*
X145613182Y-85986836D01*
X145616759Y-85972557D01*
X145621718Y-85958697D01*
X145628012Y-85945390D01*
X145635580Y-85932764D01*
X145644348Y-85920941D01*
X145654234Y-85910034D01*
X145665141Y-85900148D01*
X145676964Y-85891380D01*
X145689590Y-85883812D01*
X145702897Y-85877518D01*
X145716757Y-85872559D01*
X145731036Y-85868982D01*
X145745597Y-85866822D01*
X145760300Y-85866100D01*
X146060300Y-85866100D01*
X146075003Y-85866822D01*
G37*
G04 #@! TD.AperFunction*
G04 #@! TA.AperFunction,SMDPad,CuDef*
G36*
X146075003Y-80916822D02*
G01*
X146089564Y-80918982D01*
X146103843Y-80922559D01*
X146117703Y-80927518D01*
X146131010Y-80933812D01*
X146143636Y-80941380D01*
X146155459Y-80950148D01*
X146166366Y-80960034D01*
X146176252Y-80970941D01*
X146185020Y-80982764D01*
X146192588Y-80995390D01*
X146198882Y-81008697D01*
X146203841Y-81022557D01*
X146207418Y-81036836D01*
X146209578Y-81051397D01*
X146210300Y-81066100D01*
X146210300Y-82716100D01*
X146209578Y-82730803D01*
X146207418Y-82745364D01*
X146203841Y-82759643D01*
X146198882Y-82773503D01*
X146192588Y-82786810D01*
X146185020Y-82799436D01*
X146176252Y-82811259D01*
X146166366Y-82822166D01*
X146155459Y-82832052D01*
X146143636Y-82840820D01*
X146131010Y-82848388D01*
X146117703Y-82854682D01*
X146103843Y-82859641D01*
X146089564Y-82863218D01*
X146075003Y-82865378D01*
X146060300Y-82866100D01*
X145760300Y-82866100D01*
X145745597Y-82865378D01*
X145731036Y-82863218D01*
X145716757Y-82859641D01*
X145702897Y-82854682D01*
X145689590Y-82848388D01*
X145676964Y-82840820D01*
X145665141Y-82832052D01*
X145654234Y-82822166D01*
X145644348Y-82811259D01*
X145635580Y-82799436D01*
X145628012Y-82786810D01*
X145621718Y-82773503D01*
X145616759Y-82759643D01*
X145613182Y-82745364D01*
X145611022Y-82730803D01*
X145610300Y-82716100D01*
X145610300Y-81066100D01*
X145611022Y-81051397D01*
X145613182Y-81036836D01*
X145616759Y-81022557D01*
X145621718Y-81008697D01*
X145628012Y-80995390D01*
X145635580Y-80982764D01*
X145644348Y-80970941D01*
X145654234Y-80960034D01*
X145665141Y-80950148D01*
X145676964Y-80941380D01*
X145689590Y-80933812D01*
X145702897Y-80927518D01*
X145716757Y-80922559D01*
X145731036Y-80918982D01*
X145745597Y-80916822D01*
X145760300Y-80916100D01*
X146060300Y-80916100D01*
X146075003Y-80916822D01*
G37*
G04 #@! TD.AperFunction*
G04 #@! TA.AperFunction,SMDPad,CuDef*
G36*
X147345003Y-80916822D02*
G01*
X147359564Y-80918982D01*
X147373843Y-80922559D01*
X147387703Y-80927518D01*
X147401010Y-80933812D01*
X147413636Y-80941380D01*
X147425459Y-80950148D01*
X147436366Y-80960034D01*
X147446252Y-80970941D01*
X147455020Y-80982764D01*
X147462588Y-80995390D01*
X147468882Y-81008697D01*
X147473841Y-81022557D01*
X147477418Y-81036836D01*
X147479578Y-81051397D01*
X147480300Y-81066100D01*
X147480300Y-82716100D01*
X147479578Y-82730803D01*
X147477418Y-82745364D01*
X147473841Y-82759643D01*
X147468882Y-82773503D01*
X147462588Y-82786810D01*
X147455020Y-82799436D01*
X147446252Y-82811259D01*
X147436366Y-82822166D01*
X147425459Y-82832052D01*
X147413636Y-82840820D01*
X147401010Y-82848388D01*
X147387703Y-82854682D01*
X147373843Y-82859641D01*
X147359564Y-82863218D01*
X147345003Y-82865378D01*
X147330300Y-82866100D01*
X147030300Y-82866100D01*
X147015597Y-82865378D01*
X147001036Y-82863218D01*
X146986757Y-82859641D01*
X146972897Y-82854682D01*
X146959590Y-82848388D01*
X146946964Y-82840820D01*
X146935141Y-82832052D01*
X146924234Y-82822166D01*
X146914348Y-82811259D01*
X146905580Y-82799436D01*
X146898012Y-82786810D01*
X146891718Y-82773503D01*
X146886759Y-82759643D01*
X146883182Y-82745364D01*
X146881022Y-82730803D01*
X146880300Y-82716100D01*
X146880300Y-81066100D01*
X146881022Y-81051397D01*
X146883182Y-81036836D01*
X146886759Y-81022557D01*
X146891718Y-81008697D01*
X146898012Y-80995390D01*
X146905580Y-80982764D01*
X146914348Y-80970941D01*
X146924234Y-80960034D01*
X146935141Y-80950148D01*
X146946964Y-80941380D01*
X146959590Y-80933812D01*
X146972897Y-80927518D01*
X146986757Y-80922559D01*
X147001036Y-80918982D01*
X147015597Y-80916822D01*
X147030300Y-80916100D01*
X147330300Y-80916100D01*
X147345003Y-80916822D01*
G37*
G04 #@! TD.AperFunction*
G04 #@! TA.AperFunction,SMDPad,CuDef*
G36*
X148615003Y-80916822D02*
G01*
X148629564Y-80918982D01*
X148643843Y-80922559D01*
X148657703Y-80927518D01*
X148671010Y-80933812D01*
X148683636Y-80941380D01*
X148695459Y-80950148D01*
X148706366Y-80960034D01*
X148716252Y-80970941D01*
X148725020Y-80982764D01*
X148732588Y-80995390D01*
X148738882Y-81008697D01*
X148743841Y-81022557D01*
X148747418Y-81036836D01*
X148749578Y-81051397D01*
X148750300Y-81066100D01*
X148750300Y-82716100D01*
X148749578Y-82730803D01*
X148747418Y-82745364D01*
X148743841Y-82759643D01*
X148738882Y-82773503D01*
X148732588Y-82786810D01*
X148725020Y-82799436D01*
X148716252Y-82811259D01*
X148706366Y-82822166D01*
X148695459Y-82832052D01*
X148683636Y-82840820D01*
X148671010Y-82848388D01*
X148657703Y-82854682D01*
X148643843Y-82859641D01*
X148629564Y-82863218D01*
X148615003Y-82865378D01*
X148600300Y-82866100D01*
X148300300Y-82866100D01*
X148285597Y-82865378D01*
X148271036Y-82863218D01*
X148256757Y-82859641D01*
X148242897Y-82854682D01*
X148229590Y-82848388D01*
X148216964Y-82840820D01*
X148205141Y-82832052D01*
X148194234Y-82822166D01*
X148184348Y-82811259D01*
X148175580Y-82799436D01*
X148168012Y-82786810D01*
X148161718Y-82773503D01*
X148156759Y-82759643D01*
X148153182Y-82745364D01*
X148151022Y-82730803D01*
X148150300Y-82716100D01*
X148150300Y-81066100D01*
X148151022Y-81051397D01*
X148153182Y-81036836D01*
X148156759Y-81022557D01*
X148161718Y-81008697D01*
X148168012Y-80995390D01*
X148175580Y-80982764D01*
X148184348Y-80970941D01*
X148194234Y-80960034D01*
X148205141Y-80950148D01*
X148216964Y-80941380D01*
X148229590Y-80933812D01*
X148242897Y-80927518D01*
X148256757Y-80922559D01*
X148271036Y-80918982D01*
X148285597Y-80916822D01*
X148300300Y-80916100D01*
X148600300Y-80916100D01*
X148615003Y-80916822D01*
G37*
G04 #@! TD.AperFunction*
G04 #@! TA.AperFunction,SMDPad,CuDef*
G36*
X149885003Y-80916822D02*
G01*
X149899564Y-80918982D01*
X149913843Y-80922559D01*
X149927703Y-80927518D01*
X149941010Y-80933812D01*
X149953636Y-80941380D01*
X149965459Y-80950148D01*
X149976366Y-80960034D01*
X149986252Y-80970941D01*
X149995020Y-80982764D01*
X150002588Y-80995390D01*
X150008882Y-81008697D01*
X150013841Y-81022557D01*
X150017418Y-81036836D01*
X150019578Y-81051397D01*
X150020300Y-81066100D01*
X150020300Y-82716100D01*
X150019578Y-82730803D01*
X150017418Y-82745364D01*
X150013841Y-82759643D01*
X150008882Y-82773503D01*
X150002588Y-82786810D01*
X149995020Y-82799436D01*
X149986252Y-82811259D01*
X149976366Y-82822166D01*
X149965459Y-82832052D01*
X149953636Y-82840820D01*
X149941010Y-82848388D01*
X149927703Y-82854682D01*
X149913843Y-82859641D01*
X149899564Y-82863218D01*
X149885003Y-82865378D01*
X149870300Y-82866100D01*
X149570300Y-82866100D01*
X149555597Y-82865378D01*
X149541036Y-82863218D01*
X149526757Y-82859641D01*
X149512897Y-82854682D01*
X149499590Y-82848388D01*
X149486964Y-82840820D01*
X149475141Y-82832052D01*
X149464234Y-82822166D01*
X149454348Y-82811259D01*
X149445580Y-82799436D01*
X149438012Y-82786810D01*
X149431718Y-82773503D01*
X149426759Y-82759643D01*
X149423182Y-82745364D01*
X149421022Y-82730803D01*
X149420300Y-82716100D01*
X149420300Y-81066100D01*
X149421022Y-81051397D01*
X149423182Y-81036836D01*
X149426759Y-81022557D01*
X149431718Y-81008697D01*
X149438012Y-80995390D01*
X149445580Y-80982764D01*
X149454348Y-80970941D01*
X149464234Y-80960034D01*
X149475141Y-80950148D01*
X149486964Y-80941380D01*
X149499590Y-80933812D01*
X149512897Y-80927518D01*
X149526757Y-80922559D01*
X149541036Y-80918982D01*
X149555597Y-80916822D01*
X149570300Y-80916100D01*
X149870300Y-80916100D01*
X149885003Y-80916822D01*
G37*
G04 #@! TD.AperFunction*
G04 #@! TA.AperFunction,SMDPad,CuDef*
G36*
X151155003Y-80916822D02*
G01*
X151169564Y-80918982D01*
X151183843Y-80922559D01*
X151197703Y-80927518D01*
X151211010Y-80933812D01*
X151223636Y-80941380D01*
X151235459Y-80950148D01*
X151246366Y-80960034D01*
X151256252Y-80970941D01*
X151265020Y-80982764D01*
X151272588Y-80995390D01*
X151278882Y-81008697D01*
X151283841Y-81022557D01*
X151287418Y-81036836D01*
X151289578Y-81051397D01*
X151290300Y-81066100D01*
X151290300Y-82716100D01*
X151289578Y-82730803D01*
X151287418Y-82745364D01*
X151283841Y-82759643D01*
X151278882Y-82773503D01*
X151272588Y-82786810D01*
X151265020Y-82799436D01*
X151256252Y-82811259D01*
X151246366Y-82822166D01*
X151235459Y-82832052D01*
X151223636Y-82840820D01*
X151211010Y-82848388D01*
X151197703Y-82854682D01*
X151183843Y-82859641D01*
X151169564Y-82863218D01*
X151155003Y-82865378D01*
X151140300Y-82866100D01*
X150840300Y-82866100D01*
X150825597Y-82865378D01*
X150811036Y-82863218D01*
X150796757Y-82859641D01*
X150782897Y-82854682D01*
X150769590Y-82848388D01*
X150756964Y-82840820D01*
X150745141Y-82832052D01*
X150734234Y-82822166D01*
X150724348Y-82811259D01*
X150715580Y-82799436D01*
X150708012Y-82786810D01*
X150701718Y-82773503D01*
X150696759Y-82759643D01*
X150693182Y-82745364D01*
X150691022Y-82730803D01*
X150690300Y-82716100D01*
X150690300Y-81066100D01*
X150691022Y-81051397D01*
X150693182Y-81036836D01*
X150696759Y-81022557D01*
X150701718Y-81008697D01*
X150708012Y-80995390D01*
X150715580Y-80982764D01*
X150724348Y-80970941D01*
X150734234Y-80960034D01*
X150745141Y-80950148D01*
X150756964Y-80941380D01*
X150769590Y-80933812D01*
X150782897Y-80927518D01*
X150796757Y-80922559D01*
X150811036Y-80918982D01*
X150825597Y-80916822D01*
X150840300Y-80916100D01*
X151140300Y-80916100D01*
X151155003Y-80916822D01*
G37*
G04 #@! TD.AperFunction*
G04 #@! TA.AperFunction,SMDPad,CuDef*
G36*
X152425003Y-80916822D02*
G01*
X152439564Y-80918982D01*
X152453843Y-80922559D01*
X152467703Y-80927518D01*
X152481010Y-80933812D01*
X152493636Y-80941380D01*
X152505459Y-80950148D01*
X152516366Y-80960034D01*
X152526252Y-80970941D01*
X152535020Y-80982764D01*
X152542588Y-80995390D01*
X152548882Y-81008697D01*
X152553841Y-81022557D01*
X152557418Y-81036836D01*
X152559578Y-81051397D01*
X152560300Y-81066100D01*
X152560300Y-82716100D01*
X152559578Y-82730803D01*
X152557418Y-82745364D01*
X152553841Y-82759643D01*
X152548882Y-82773503D01*
X152542588Y-82786810D01*
X152535020Y-82799436D01*
X152526252Y-82811259D01*
X152516366Y-82822166D01*
X152505459Y-82832052D01*
X152493636Y-82840820D01*
X152481010Y-82848388D01*
X152467703Y-82854682D01*
X152453843Y-82859641D01*
X152439564Y-82863218D01*
X152425003Y-82865378D01*
X152410300Y-82866100D01*
X152110300Y-82866100D01*
X152095597Y-82865378D01*
X152081036Y-82863218D01*
X152066757Y-82859641D01*
X152052897Y-82854682D01*
X152039590Y-82848388D01*
X152026964Y-82840820D01*
X152015141Y-82832052D01*
X152004234Y-82822166D01*
X151994348Y-82811259D01*
X151985580Y-82799436D01*
X151978012Y-82786810D01*
X151971718Y-82773503D01*
X151966759Y-82759643D01*
X151963182Y-82745364D01*
X151961022Y-82730803D01*
X151960300Y-82716100D01*
X151960300Y-81066100D01*
X151961022Y-81051397D01*
X151963182Y-81036836D01*
X151966759Y-81022557D01*
X151971718Y-81008697D01*
X151978012Y-80995390D01*
X151985580Y-80982764D01*
X151994348Y-80970941D01*
X152004234Y-80960034D01*
X152015141Y-80950148D01*
X152026964Y-80941380D01*
X152039590Y-80933812D01*
X152052897Y-80927518D01*
X152066757Y-80922559D01*
X152081036Y-80918982D01*
X152095597Y-80916822D01*
X152110300Y-80916100D01*
X152410300Y-80916100D01*
X152425003Y-80916822D01*
G37*
G04 #@! TD.AperFunction*
G04 #@! TA.AperFunction,SMDPad,CuDef*
G36*
X153695003Y-80916822D02*
G01*
X153709564Y-80918982D01*
X153723843Y-80922559D01*
X153737703Y-80927518D01*
X153751010Y-80933812D01*
X153763636Y-80941380D01*
X153775459Y-80950148D01*
X153786366Y-80960034D01*
X153796252Y-80970941D01*
X153805020Y-80982764D01*
X153812588Y-80995390D01*
X153818882Y-81008697D01*
X153823841Y-81022557D01*
X153827418Y-81036836D01*
X153829578Y-81051397D01*
X153830300Y-81066100D01*
X153830300Y-82716100D01*
X153829578Y-82730803D01*
X153827418Y-82745364D01*
X153823841Y-82759643D01*
X153818882Y-82773503D01*
X153812588Y-82786810D01*
X153805020Y-82799436D01*
X153796252Y-82811259D01*
X153786366Y-82822166D01*
X153775459Y-82832052D01*
X153763636Y-82840820D01*
X153751010Y-82848388D01*
X153737703Y-82854682D01*
X153723843Y-82859641D01*
X153709564Y-82863218D01*
X153695003Y-82865378D01*
X153680300Y-82866100D01*
X153380300Y-82866100D01*
X153365597Y-82865378D01*
X153351036Y-82863218D01*
X153336757Y-82859641D01*
X153322897Y-82854682D01*
X153309590Y-82848388D01*
X153296964Y-82840820D01*
X153285141Y-82832052D01*
X153274234Y-82822166D01*
X153264348Y-82811259D01*
X153255580Y-82799436D01*
X153248012Y-82786810D01*
X153241718Y-82773503D01*
X153236759Y-82759643D01*
X153233182Y-82745364D01*
X153231022Y-82730803D01*
X153230300Y-82716100D01*
X153230300Y-81066100D01*
X153231022Y-81051397D01*
X153233182Y-81036836D01*
X153236759Y-81022557D01*
X153241718Y-81008697D01*
X153248012Y-80995390D01*
X153255580Y-80982764D01*
X153264348Y-80970941D01*
X153274234Y-80960034D01*
X153285141Y-80950148D01*
X153296964Y-80941380D01*
X153309590Y-80933812D01*
X153322897Y-80927518D01*
X153336757Y-80922559D01*
X153351036Y-80918982D01*
X153365597Y-80916822D01*
X153380300Y-80916100D01*
X153680300Y-80916100D01*
X153695003Y-80916822D01*
G37*
G04 #@! TD.AperFunction*
G04 #@! TA.AperFunction,SMDPad,CuDef*
G36*
X154965003Y-80916822D02*
G01*
X154979564Y-80918982D01*
X154993843Y-80922559D01*
X155007703Y-80927518D01*
X155021010Y-80933812D01*
X155033636Y-80941380D01*
X155045459Y-80950148D01*
X155056366Y-80960034D01*
X155066252Y-80970941D01*
X155075020Y-80982764D01*
X155082588Y-80995390D01*
X155088882Y-81008697D01*
X155093841Y-81022557D01*
X155097418Y-81036836D01*
X155099578Y-81051397D01*
X155100300Y-81066100D01*
X155100300Y-82716100D01*
X155099578Y-82730803D01*
X155097418Y-82745364D01*
X155093841Y-82759643D01*
X155088882Y-82773503D01*
X155082588Y-82786810D01*
X155075020Y-82799436D01*
X155066252Y-82811259D01*
X155056366Y-82822166D01*
X155045459Y-82832052D01*
X155033636Y-82840820D01*
X155021010Y-82848388D01*
X155007703Y-82854682D01*
X154993843Y-82859641D01*
X154979564Y-82863218D01*
X154965003Y-82865378D01*
X154950300Y-82866100D01*
X154650300Y-82866100D01*
X154635597Y-82865378D01*
X154621036Y-82863218D01*
X154606757Y-82859641D01*
X154592897Y-82854682D01*
X154579590Y-82848388D01*
X154566964Y-82840820D01*
X154555141Y-82832052D01*
X154544234Y-82822166D01*
X154534348Y-82811259D01*
X154525580Y-82799436D01*
X154518012Y-82786810D01*
X154511718Y-82773503D01*
X154506759Y-82759643D01*
X154503182Y-82745364D01*
X154501022Y-82730803D01*
X154500300Y-82716100D01*
X154500300Y-81066100D01*
X154501022Y-81051397D01*
X154503182Y-81036836D01*
X154506759Y-81022557D01*
X154511718Y-81008697D01*
X154518012Y-80995390D01*
X154525580Y-80982764D01*
X154534348Y-80970941D01*
X154544234Y-80960034D01*
X154555141Y-80950148D01*
X154566964Y-80941380D01*
X154579590Y-80933812D01*
X154592897Y-80927518D01*
X154606757Y-80922559D01*
X154621036Y-80918982D01*
X154635597Y-80916822D01*
X154650300Y-80916100D01*
X154950300Y-80916100D01*
X154965003Y-80916822D01*
G37*
G04 #@! TD.AperFunction*
G04 #@! TA.AperFunction,SMDPad,CuDef*
G36*
X144421942Y-76604974D02*
G01*
X144445603Y-76608484D01*
X144468807Y-76614296D01*
X144491329Y-76622354D01*
X144512953Y-76632582D01*
X144533470Y-76644879D01*
X144552683Y-76659129D01*
X144570407Y-76675193D01*
X144586471Y-76692917D01*
X144600721Y-76712130D01*
X144613018Y-76732647D01*
X144623246Y-76754271D01*
X144631304Y-76776793D01*
X144637116Y-76799997D01*
X144640626Y-76823658D01*
X144641800Y-76847550D01*
X144641800Y-77335050D01*
X144640626Y-77358942D01*
X144637116Y-77382603D01*
X144631304Y-77405807D01*
X144623246Y-77428329D01*
X144613018Y-77449953D01*
X144600721Y-77470470D01*
X144586471Y-77489683D01*
X144570407Y-77507407D01*
X144552683Y-77523471D01*
X144533470Y-77537721D01*
X144512953Y-77550018D01*
X144491329Y-77560246D01*
X144468807Y-77568304D01*
X144445603Y-77574116D01*
X144421942Y-77577626D01*
X144398050Y-77578800D01*
X143485550Y-77578800D01*
X143461658Y-77577626D01*
X143437997Y-77574116D01*
X143414793Y-77568304D01*
X143392271Y-77560246D01*
X143370647Y-77550018D01*
X143350130Y-77537721D01*
X143330917Y-77523471D01*
X143313193Y-77507407D01*
X143297129Y-77489683D01*
X143282879Y-77470470D01*
X143270582Y-77449953D01*
X143260354Y-77428329D01*
X143252296Y-77405807D01*
X143246484Y-77382603D01*
X143242974Y-77358942D01*
X143241800Y-77335050D01*
X143241800Y-76847550D01*
X143242974Y-76823658D01*
X143246484Y-76799997D01*
X143252296Y-76776793D01*
X143260354Y-76754271D01*
X143270582Y-76732647D01*
X143282879Y-76712130D01*
X143297129Y-76692917D01*
X143313193Y-76675193D01*
X143330917Y-76659129D01*
X143350130Y-76644879D01*
X143370647Y-76632582D01*
X143392271Y-76622354D01*
X143414793Y-76614296D01*
X143437997Y-76608484D01*
X143461658Y-76604974D01*
X143485550Y-76603800D01*
X144398050Y-76603800D01*
X144421942Y-76604974D01*
G37*
G04 #@! TD.AperFunction*
G04 #@! TA.AperFunction,SMDPad,CuDef*
G36*
X144421942Y-78479974D02*
G01*
X144445603Y-78483484D01*
X144468807Y-78489296D01*
X144491329Y-78497354D01*
X144512953Y-78507582D01*
X144533470Y-78519879D01*
X144552683Y-78534129D01*
X144570407Y-78550193D01*
X144586471Y-78567917D01*
X144600721Y-78587130D01*
X144613018Y-78607647D01*
X144623246Y-78629271D01*
X144631304Y-78651793D01*
X144637116Y-78674997D01*
X144640626Y-78698658D01*
X144641800Y-78722550D01*
X144641800Y-79210050D01*
X144640626Y-79233942D01*
X144637116Y-79257603D01*
X144631304Y-79280807D01*
X144623246Y-79303329D01*
X144613018Y-79324953D01*
X144600721Y-79345470D01*
X144586471Y-79364683D01*
X144570407Y-79382407D01*
X144552683Y-79398471D01*
X144533470Y-79412721D01*
X144512953Y-79425018D01*
X144491329Y-79435246D01*
X144468807Y-79443304D01*
X144445603Y-79449116D01*
X144421942Y-79452626D01*
X144398050Y-79453800D01*
X143485550Y-79453800D01*
X143461658Y-79452626D01*
X143437997Y-79449116D01*
X143414793Y-79443304D01*
X143392271Y-79435246D01*
X143370647Y-79425018D01*
X143350130Y-79412721D01*
X143330917Y-79398471D01*
X143313193Y-79382407D01*
X143297129Y-79364683D01*
X143282879Y-79345470D01*
X143270582Y-79324953D01*
X143260354Y-79303329D01*
X143252296Y-79280807D01*
X143246484Y-79257603D01*
X143242974Y-79233942D01*
X143241800Y-79210050D01*
X143241800Y-78722550D01*
X143242974Y-78698658D01*
X143246484Y-78674997D01*
X143252296Y-78651793D01*
X143260354Y-78629271D01*
X143270582Y-78607647D01*
X143282879Y-78587130D01*
X143297129Y-78567917D01*
X143313193Y-78550193D01*
X143330917Y-78534129D01*
X143350130Y-78519879D01*
X143370647Y-78507582D01*
X143392271Y-78497354D01*
X143414793Y-78489296D01*
X143437997Y-78483484D01*
X143461658Y-78479974D01*
X143485550Y-78478800D01*
X144398050Y-78478800D01*
X144421942Y-78479974D01*
G37*
G04 #@! TD.AperFunction*
G04 #@! TA.AperFunction,SMDPad,CuDef*
G36*
X147081942Y-78701574D02*
G01*
X147105603Y-78705084D01*
X147128807Y-78710896D01*
X147151329Y-78718954D01*
X147172953Y-78729182D01*
X147193470Y-78741479D01*
X147212683Y-78755729D01*
X147230407Y-78771793D01*
X147246471Y-78789517D01*
X147260721Y-78808730D01*
X147273018Y-78829247D01*
X147283246Y-78850871D01*
X147291304Y-78873393D01*
X147297116Y-78896597D01*
X147300626Y-78920258D01*
X147301800Y-78944150D01*
X147301800Y-79856650D01*
X147300626Y-79880542D01*
X147297116Y-79904203D01*
X147291304Y-79927407D01*
X147283246Y-79949929D01*
X147273018Y-79971553D01*
X147260721Y-79992070D01*
X147246471Y-80011283D01*
X147230407Y-80029007D01*
X147212683Y-80045071D01*
X147193470Y-80059321D01*
X147172953Y-80071618D01*
X147151329Y-80081846D01*
X147128807Y-80089904D01*
X147105603Y-80095716D01*
X147081942Y-80099226D01*
X147058050Y-80100400D01*
X146570550Y-80100400D01*
X146546658Y-80099226D01*
X146522997Y-80095716D01*
X146499793Y-80089904D01*
X146477271Y-80081846D01*
X146455647Y-80071618D01*
X146435130Y-80059321D01*
X146415917Y-80045071D01*
X146398193Y-80029007D01*
X146382129Y-80011283D01*
X146367879Y-79992070D01*
X146355582Y-79971553D01*
X146345354Y-79949929D01*
X146337296Y-79927407D01*
X146331484Y-79904203D01*
X146327974Y-79880542D01*
X146326800Y-79856650D01*
X146326800Y-78944150D01*
X146327974Y-78920258D01*
X146331484Y-78896597D01*
X146337296Y-78873393D01*
X146345354Y-78850871D01*
X146355582Y-78829247D01*
X146367879Y-78808730D01*
X146382129Y-78789517D01*
X146398193Y-78771793D01*
X146415917Y-78755729D01*
X146435130Y-78741479D01*
X146455647Y-78729182D01*
X146477271Y-78718954D01*
X146499793Y-78710896D01*
X146522997Y-78705084D01*
X146546658Y-78701574D01*
X146570550Y-78700400D01*
X147058050Y-78700400D01*
X147081942Y-78701574D01*
G37*
G04 #@! TD.AperFunction*
G04 #@! TA.AperFunction,SMDPad,CuDef*
G36*
X148956942Y-78701574D02*
G01*
X148980603Y-78705084D01*
X149003807Y-78710896D01*
X149026329Y-78718954D01*
X149047953Y-78729182D01*
X149068470Y-78741479D01*
X149087683Y-78755729D01*
X149105407Y-78771793D01*
X149121471Y-78789517D01*
X149135721Y-78808730D01*
X149148018Y-78829247D01*
X149158246Y-78850871D01*
X149166304Y-78873393D01*
X149172116Y-78896597D01*
X149175626Y-78920258D01*
X149176800Y-78944150D01*
X149176800Y-79856650D01*
X149175626Y-79880542D01*
X149172116Y-79904203D01*
X149166304Y-79927407D01*
X149158246Y-79949929D01*
X149148018Y-79971553D01*
X149135721Y-79992070D01*
X149121471Y-80011283D01*
X149105407Y-80029007D01*
X149087683Y-80045071D01*
X149068470Y-80059321D01*
X149047953Y-80071618D01*
X149026329Y-80081846D01*
X149003807Y-80089904D01*
X148980603Y-80095716D01*
X148956942Y-80099226D01*
X148933050Y-80100400D01*
X148445550Y-80100400D01*
X148421658Y-80099226D01*
X148397997Y-80095716D01*
X148374793Y-80089904D01*
X148352271Y-80081846D01*
X148330647Y-80071618D01*
X148310130Y-80059321D01*
X148290917Y-80045071D01*
X148273193Y-80029007D01*
X148257129Y-80011283D01*
X148242879Y-79992070D01*
X148230582Y-79971553D01*
X148220354Y-79949929D01*
X148212296Y-79927407D01*
X148206484Y-79904203D01*
X148202974Y-79880542D01*
X148201800Y-79856650D01*
X148201800Y-78944150D01*
X148202974Y-78920258D01*
X148206484Y-78896597D01*
X148212296Y-78873393D01*
X148220354Y-78850871D01*
X148230582Y-78829247D01*
X148242879Y-78808730D01*
X148257129Y-78789517D01*
X148273193Y-78771793D01*
X148290917Y-78755729D01*
X148310130Y-78741479D01*
X148330647Y-78729182D01*
X148352271Y-78718954D01*
X148374793Y-78710896D01*
X148397997Y-78705084D01*
X148421658Y-78701574D01*
X148445550Y-78700400D01*
X148933050Y-78700400D01*
X148956942Y-78701574D01*
G37*
G04 #@! TD.AperFunction*
D13*
X157949900Y-83743800D03*
X157949900Y-82473800D03*
X157949900Y-81203800D03*
D16*
X150723600Y-72581500D03*
X150723600Y-69531500D03*
D17*
X148247102Y-72491600D03*
X148742400Y-74472800D03*
X157581600Y-75526900D03*
D18*
X158267400Y-78930500D03*
X143332200Y-69328902D03*
X155194000Y-74599800D03*
X143852900Y-81495900D03*
X152400000Y-84251800D03*
X149072600Y-84251800D03*
X145834100Y-84251800D03*
X143713200Y-85940900D03*
X143802100Y-88938100D03*
X148412200Y-68287900D03*
X159448500Y-89331800D03*
X153631900Y-73152000D03*
X150990300Y-79794100D03*
X155143200Y-68516500D03*
X152806400Y-72580500D03*
D19*
X161569400Y-88163400D02*
X160084476Y-88163400D01*
X159334900Y-83743800D02*
X157949900Y-83743800D01*
X159639000Y-83439700D02*
X159334900Y-83743800D01*
X159639000Y-87717924D02*
X159639000Y-83439700D01*
X160084476Y-88163400D02*
X159639000Y-87717924D01*
X148247102Y-71784494D02*
X148247102Y-72491600D01*
X148247102Y-70256402D02*
X148247102Y-71784494D01*
X147154900Y-69164200D02*
X148247102Y-70256402D01*
X159639000Y-68605400D02*
X158292800Y-67259200D01*
X159639000Y-83439700D02*
X159639000Y-68605400D01*
X147751800Y-67259200D02*
X147154900Y-67856100D01*
X158292800Y-67259200D02*
X147751800Y-67259200D01*
X147154900Y-67856100D02*
X147154900Y-69164200D01*
X150025100Y-74472800D02*
X151079200Y-75526900D01*
X148742400Y-74472800D02*
X150025100Y-74472800D01*
X156874494Y-75526900D02*
X157581600Y-75526900D01*
X151079200Y-75526900D02*
X156874494Y-75526900D01*
X157949900Y-81203800D02*
X157949900Y-79248000D01*
X157949900Y-79248000D02*
X158267400Y-78930500D01*
D20*
X141249400Y-72923400D02*
X141251000Y-72925000D01*
X144539098Y-70535800D02*
X145046700Y-70535800D01*
X143332200Y-69328902D02*
X144539098Y-70535800D01*
X144460900Y-75465000D02*
X145046700Y-74879200D01*
X141251000Y-75465000D02*
X144460900Y-75465000D01*
D21*
X154993100Y-73291700D02*
X154993100Y-74398900D01*
X154993100Y-74398900D02*
X155194000Y-74599800D01*
D20*
X153530300Y-79593200D02*
X153659600Y-79463900D01*
X153530300Y-81891100D02*
X153530300Y-79593200D01*
D21*
X157666081Y-77076300D02*
X156464000Y-77076300D01*
X158508700Y-76233681D02*
X157666081Y-77076300D01*
X157717100Y-70761900D02*
X158508700Y-71553500D01*
X158508700Y-71553500D02*
X158508700Y-76233681D01*
D20*
X150723600Y-69531500D02*
X149655800Y-69531500D01*
X149655800Y-69531500D02*
X148412200Y-68287900D01*
X150990300Y-88902300D02*
X151305500Y-89217500D01*
X150990300Y-86841100D02*
X150990300Y-88902300D01*
X149720300Y-88927700D02*
X149430500Y-89217500D01*
X149720300Y-86841100D02*
X149720300Y-88927700D01*
X152260300Y-88415100D02*
X153075400Y-89230200D01*
X152260300Y-86841100D02*
X152260300Y-88415100D01*
X154800300Y-89080100D02*
X154950400Y-89230200D01*
X154800300Y-86841100D02*
X154800300Y-89080100D01*
X153530300Y-85496400D02*
X153530300Y-86841100D01*
X154203400Y-84823300D02*
X153530300Y-85496400D01*
X156044900Y-84823300D02*
X154203400Y-84823300D01*
X157099000Y-86959200D02*
X157099000Y-85877400D01*
X157099000Y-85877400D02*
X156044900Y-84823300D01*
X148450300Y-88427800D02*
X148450300Y-86841100D01*
X147660600Y-89217500D02*
X148450300Y-88427800D01*
X153631900Y-70812900D02*
X153631900Y-73152000D01*
X152260300Y-77952600D02*
X151384000Y-77076300D01*
X152260300Y-81891100D02*
X152260300Y-77952600D01*
X150990300Y-81891100D02*
X150990300Y-79794100D01*
D21*
X146304000Y-74091800D02*
X145821400Y-73609200D01*
X146304000Y-74777600D02*
X146304000Y-74091800D01*
X147554001Y-76027601D02*
X146304000Y-74777600D01*
X148450300Y-81026000D02*
X147751800Y-80327500D01*
X145821400Y-73609200D02*
X145046700Y-73609200D01*
X148450300Y-81891100D02*
X148450300Y-81026000D01*
X147751800Y-80327500D02*
X147751800Y-78308200D01*
X147751800Y-78308200D02*
X147554001Y-78110401D01*
X147554001Y-78110401D02*
X147554001Y-76027601D01*
X148196300Y-75615800D02*
X147078700Y-74498200D01*
X149720300Y-79260700D02*
X150094001Y-78886999D01*
X149377400Y-75615800D02*
X148196300Y-75615800D01*
X149720300Y-81891100D02*
X149720300Y-79260700D01*
X150094001Y-78886999D02*
X150094001Y-76332401D01*
X150094001Y-76332401D02*
X149377400Y-75615800D01*
X147078700Y-74498200D02*
X147078700Y-71031100D01*
D20*
X145999200Y-69265800D02*
X145046700Y-69265800D01*
X147078700Y-71031100D02*
X147078700Y-70345300D01*
X147078700Y-70345300D02*
X145999200Y-69265800D01*
D21*
X147078700Y-70802500D02*
X147091400Y-70789800D01*
X147078700Y-71031100D02*
X147078700Y-70802500D01*
D20*
X155486100Y-69795900D02*
X155489400Y-69799200D01*
X155486100Y-68834000D02*
X155486100Y-69795900D01*
X155143200Y-68516500D02*
X155168600Y-68516500D01*
X155168600Y-68516500D02*
X155486100Y-68834000D01*
X155130500Y-68529200D02*
X155143200Y-68516500D01*
X153949400Y-68529200D02*
X155130500Y-68529200D01*
X153631900Y-68937900D02*
X153631900Y-68846700D01*
X153631900Y-68846700D02*
X153949400Y-68529200D01*
D21*
X156868100Y-72070200D02*
X156868100Y-73291700D01*
X156438600Y-71640700D02*
X156868100Y-72070200D01*
X156438600Y-69240400D02*
X156438600Y-71640700D01*
X156867100Y-68861900D02*
X156817100Y-68861900D01*
X156817100Y-68861900D02*
X156438600Y-69240400D01*
X156829800Y-68849200D02*
X156817100Y-68861900D01*
X157489400Y-68849200D02*
X156829800Y-68849200D01*
D20*
X142074900Y-70383400D02*
X141249400Y-70383400D01*
X145046700Y-72339200D02*
X144030700Y-72339200D01*
X144030700Y-72339200D02*
X142074900Y-70383400D01*
X145046700Y-67995800D02*
X143268700Y-67995800D01*
X143116300Y-67843400D02*
X141249400Y-67843400D01*
X143268700Y-67995800D02*
X143116300Y-67843400D01*
D19*
X156375100Y-82473800D02*
X157949900Y-82473800D01*
X155792400Y-81891100D02*
X156375100Y-82473800D01*
X155408400Y-80290100D02*
X155408400Y-81891100D01*
X155534600Y-80163900D02*
X155408400Y-80290100D01*
X155534600Y-79463900D02*
X155534600Y-80163900D01*
X154800300Y-81891100D02*
X155408400Y-81891100D01*
X155408400Y-81891100D02*
X155792400Y-81891100D01*
D20*
X143956800Y-77076300D02*
X143941800Y-77091300D01*
X146304000Y-77076300D02*
X143956800Y-77076300D01*
D19*
X148689300Y-77231000D02*
X148844000Y-77076300D01*
X148689300Y-79400400D02*
X148689300Y-77231000D01*
D20*
X150723600Y-72581500D02*
X152805400Y-72581500D01*
X152805400Y-72581500D02*
X152806400Y-72580500D01*
D22*
G36*
X163529324Y-89968000D02*
G01*
X156025807Y-89968000D01*
X156058633Y-89859788D01*
X156154820Y-89911202D01*
X156274518Y-89947512D01*
X156399000Y-89959772D01*
X156813250Y-89956700D01*
X156972000Y-89797950D01*
X156972000Y-88961200D01*
X157226000Y-88961200D01*
X157226000Y-89797950D01*
X157384750Y-89956700D01*
X157799000Y-89959772D01*
X157923482Y-89947512D01*
X158043180Y-89911202D01*
X158153494Y-89852237D01*
X158250185Y-89772885D01*
X158329537Y-89676194D01*
X158388502Y-89565880D01*
X158424812Y-89446182D01*
X158437072Y-89321700D01*
X158434000Y-89119950D01*
X158275250Y-88961200D01*
X157226000Y-88961200D01*
X156972000Y-88961200D01*
X156952000Y-88961200D01*
X156952000Y-88707200D01*
X156972000Y-88707200D01*
X156972000Y-88687200D01*
X157226000Y-88687200D01*
X157226000Y-88707200D01*
X158275250Y-88707200D01*
X158434000Y-88548450D01*
X158437072Y-88346700D01*
X158424812Y-88222218D01*
X158388502Y-88102520D01*
X158329537Y-87992206D01*
X158250185Y-87895515D01*
X158172436Y-87831708D01*
X158178792Y-87826492D01*
X158288458Y-87692864D01*
X158369947Y-87540409D01*
X158420128Y-87374985D01*
X158437072Y-87202950D01*
X158437072Y-86715450D01*
X158420128Y-86543415D01*
X158369947Y-86377991D01*
X158288458Y-86225536D01*
X158178792Y-86091908D01*
X158045164Y-85982242D01*
X157984000Y-85949549D01*
X157984000Y-85920869D01*
X157988281Y-85877400D01*
X157984000Y-85833931D01*
X157984000Y-85833923D01*
X157971195Y-85703910D01*
X157920589Y-85537087D01*
X157920589Y-85537086D01*
X157838411Y-85383341D01*
X157755532Y-85282353D01*
X157755530Y-85282351D01*
X157727817Y-85248583D01*
X157694049Y-85220870D01*
X157340051Y-84866872D01*
X158584900Y-84866872D01*
X158629001Y-84862529D01*
X158629000Y-87668316D01*
X158624114Y-87717924D01*
X158643615Y-87915918D01*
X158681480Y-88040742D01*
X158701368Y-88106303D01*
X158795153Y-88281764D01*
X158921367Y-88435557D01*
X158959907Y-88467185D01*
X159335211Y-88842489D01*
X159366843Y-88881033D01*
X159520636Y-89007247D01*
X159696096Y-89101032D01*
X159886482Y-89158785D01*
X160034868Y-89173400D01*
X160034870Y-89173400D01*
X160084475Y-89178286D01*
X160134080Y-89173400D01*
X160217728Y-89173400D01*
X160260575Y-89237525D01*
X160495275Y-89472225D01*
X160771253Y-89656628D01*
X161077904Y-89783646D01*
X161403442Y-89848400D01*
X161735358Y-89848400D01*
X162060896Y-89783646D01*
X162367547Y-89656628D01*
X162643525Y-89472225D01*
X162878225Y-89237525D01*
X163062628Y-88961547D01*
X163189646Y-88654896D01*
X163254400Y-88329358D01*
X163254400Y-87997442D01*
X163189646Y-87671904D01*
X163062628Y-87365253D01*
X162878225Y-87089275D01*
X162682350Y-86893400D01*
X162878225Y-86697525D01*
X163062628Y-86421547D01*
X163189646Y-86114896D01*
X163254400Y-85789358D01*
X163254400Y-85457442D01*
X163189646Y-85131904D01*
X163062628Y-84825253D01*
X162878225Y-84549275D01*
X162682350Y-84353400D01*
X162878225Y-84157525D01*
X163062628Y-83881547D01*
X163189646Y-83574896D01*
X163254400Y-83249358D01*
X163254400Y-82917442D01*
X163189646Y-82591904D01*
X163062628Y-82285253D01*
X162878225Y-82009275D01*
X162682350Y-81813400D01*
X162878225Y-81617525D01*
X163062628Y-81341547D01*
X163189646Y-81034896D01*
X163254400Y-80709358D01*
X163254400Y-80377442D01*
X163189646Y-80051904D01*
X163062628Y-79745253D01*
X162878225Y-79469275D01*
X162682350Y-79273400D01*
X162878225Y-79077525D01*
X163062628Y-78801547D01*
X163189646Y-78494896D01*
X163254400Y-78169358D01*
X163254400Y-77837442D01*
X163189646Y-77511904D01*
X163062628Y-77205253D01*
X162878225Y-76929275D01*
X162682350Y-76733400D01*
X162878225Y-76537525D01*
X163062628Y-76261547D01*
X163189646Y-75954896D01*
X163254400Y-75629358D01*
X163254400Y-75297442D01*
X163189646Y-74971904D01*
X163062628Y-74665253D01*
X162878225Y-74389275D01*
X162682350Y-74193400D01*
X162878225Y-73997525D01*
X163062628Y-73721547D01*
X163189646Y-73414896D01*
X163254400Y-73089358D01*
X163254400Y-72757442D01*
X163189646Y-72431904D01*
X163062628Y-72125253D01*
X162878225Y-71849275D01*
X162682350Y-71653400D01*
X162878225Y-71457525D01*
X163062628Y-71181547D01*
X163189646Y-70874896D01*
X163254400Y-70549358D01*
X163254400Y-70217442D01*
X163189646Y-69891904D01*
X163062628Y-69585253D01*
X162878225Y-69309275D01*
X162682350Y-69113400D01*
X162878225Y-68917525D01*
X163062628Y-68641547D01*
X163189646Y-68334896D01*
X163254400Y-68009358D01*
X163254400Y-67677442D01*
X163189646Y-67351904D01*
X163062628Y-67045253D01*
X162878225Y-66769275D01*
X162682350Y-66573400D01*
X162878225Y-66377525D01*
X163062628Y-66101547D01*
X163189646Y-65794896D01*
X163254400Y-65469358D01*
X163254400Y-65137442D01*
X163189646Y-64811904D01*
X163062628Y-64505253D01*
X162878225Y-64229275D01*
X162643525Y-63994575D01*
X162367547Y-63810172D01*
X162060896Y-63683154D01*
X161735358Y-63618400D01*
X161403442Y-63618400D01*
X161077904Y-63683154D01*
X160771253Y-63810172D01*
X160495275Y-63994575D01*
X160299400Y-64190450D01*
X160103525Y-63994575D01*
X159827547Y-63810172D01*
X159520896Y-63683154D01*
X159195358Y-63618400D01*
X158863442Y-63618400D01*
X158537904Y-63683154D01*
X158231253Y-63810172D01*
X157955275Y-63994575D01*
X157759400Y-64190450D01*
X157563525Y-63994575D01*
X157287547Y-63810172D01*
X156980896Y-63683154D01*
X156655358Y-63618400D01*
X156323442Y-63618400D01*
X155997904Y-63683154D01*
X155691253Y-63810172D01*
X155415275Y-63994575D01*
X155219400Y-64190450D01*
X155023525Y-63994575D01*
X154747547Y-63810172D01*
X154440896Y-63683154D01*
X154115358Y-63618400D01*
X153783442Y-63618400D01*
X153457904Y-63683154D01*
X153151253Y-63810172D01*
X152875275Y-63994575D01*
X152679400Y-64190450D01*
X152483525Y-63994575D01*
X152207547Y-63810172D01*
X151900896Y-63683154D01*
X151575358Y-63618400D01*
X151243442Y-63618400D01*
X150917904Y-63683154D01*
X150611253Y-63810172D01*
X150335275Y-63994575D01*
X150139400Y-64190450D01*
X149943525Y-63994575D01*
X149667547Y-63810172D01*
X149360896Y-63683154D01*
X149035358Y-63618400D01*
X148703442Y-63618400D01*
X148377904Y-63683154D01*
X148071253Y-63810172D01*
X147795275Y-63994575D01*
X147599400Y-64190450D01*
X147403525Y-63994575D01*
X147127547Y-63810172D01*
X146820896Y-63683154D01*
X146495358Y-63618400D01*
X146163442Y-63618400D01*
X145837904Y-63683154D01*
X145531253Y-63810172D01*
X145255275Y-63994575D01*
X145059400Y-64190450D01*
X144863525Y-63994575D01*
X144587547Y-63810172D01*
X144280896Y-63683154D01*
X143955358Y-63618400D01*
X143623442Y-63618400D01*
X143297904Y-63683154D01*
X142991253Y-63810172D01*
X142715275Y-63994575D01*
X142519400Y-64190450D01*
X142323525Y-63994575D01*
X142047547Y-63810172D01*
X141740896Y-63683154D01*
X141415358Y-63618400D01*
X141083442Y-63618400D01*
X140757904Y-63683154D01*
X140451253Y-63810172D01*
X140175275Y-63994575D01*
X139940575Y-64229275D01*
X139756172Y-64505253D01*
X139629154Y-64811904D01*
X139564400Y-65137442D01*
X139564400Y-65469358D01*
X139629154Y-65794896D01*
X139756172Y-66101547D01*
X139940575Y-66377525D01*
X140136450Y-66573400D01*
X139940575Y-66769275D01*
X139756172Y-67045253D01*
X139629154Y-67351904D01*
X139564400Y-67677442D01*
X139564400Y-68009358D01*
X139629154Y-68334896D01*
X139756172Y-68641547D01*
X139940575Y-68917525D01*
X140136450Y-69113400D01*
X139940575Y-69309275D01*
X139756172Y-69585253D01*
X139629154Y-69891904D01*
X139564400Y-70217442D01*
X139564400Y-70549358D01*
X139629154Y-70874896D01*
X139756172Y-71181547D01*
X139940575Y-71457525D01*
X140136450Y-71653400D01*
X139940575Y-71849275D01*
X139756172Y-72125253D01*
X139629154Y-72431904D01*
X139564400Y-72757442D01*
X139564400Y-73089358D01*
X139629154Y-73414896D01*
X139756172Y-73721547D01*
X139940575Y-73997525D01*
X140136450Y-74193400D01*
X139940575Y-74389275D01*
X139756172Y-74665253D01*
X139629154Y-74971904D01*
X139564400Y-75297442D01*
X139564400Y-75629358D01*
X139629154Y-75954896D01*
X139756172Y-76261547D01*
X139940575Y-76537525D01*
X140136450Y-76733400D01*
X139940575Y-76929275D01*
X139756172Y-77205253D01*
X139629154Y-77511904D01*
X139564400Y-77837442D01*
X139564400Y-78169358D01*
X139629154Y-78494896D01*
X139756172Y-78801547D01*
X139940575Y-79077525D01*
X140136450Y-79273400D01*
X139940575Y-79469275D01*
X139756172Y-79745253D01*
X139629154Y-80051904D01*
X139564400Y-80377442D01*
X139564400Y-80709358D01*
X139629154Y-81034896D01*
X139756172Y-81341547D01*
X139940575Y-81617525D01*
X140136450Y-81813400D01*
X139940575Y-82009275D01*
X139756172Y-82285253D01*
X139629154Y-82591904D01*
X139564400Y-82917442D01*
X139564400Y-83249358D01*
X139629154Y-83574896D01*
X139756172Y-83881547D01*
X139940575Y-84157525D01*
X140136450Y-84353400D01*
X139940575Y-84549275D01*
X139756172Y-84825253D01*
X139629154Y-85131904D01*
X139564400Y-85457442D01*
X139564400Y-85789358D01*
X139629154Y-86114896D01*
X139756172Y-86421547D01*
X139940575Y-86697525D01*
X140175275Y-86932225D01*
X140259409Y-86988442D01*
X140257939Y-86992334D01*
X141249400Y-87983795D01*
X142240861Y-86992334D01*
X142239391Y-86988442D01*
X142323525Y-86932225D01*
X142558225Y-86697525D01*
X142742628Y-86421547D01*
X142869646Y-86114896D01*
X142919134Y-85866100D01*
X144972228Y-85866100D01*
X144975300Y-86555350D01*
X145134050Y-86714100D01*
X145783300Y-86714100D01*
X145783300Y-85389850D01*
X145624550Y-85231100D01*
X145610300Y-85228028D01*
X145485818Y-85240288D01*
X145366120Y-85276598D01*
X145255806Y-85335563D01*
X145159115Y-85414915D01*
X145079763Y-85511606D01*
X145020798Y-85621920D01*
X144984488Y-85741618D01*
X144972228Y-85866100D01*
X142919134Y-85866100D01*
X142934400Y-85789358D01*
X142934400Y-85457442D01*
X142869646Y-85131904D01*
X142742628Y-84825253D01*
X142558225Y-84549275D01*
X142362350Y-84353400D01*
X142558225Y-84157525D01*
X142742628Y-83881547D01*
X142869646Y-83574896D01*
X142934400Y-83249358D01*
X142934400Y-82917442D01*
X142869646Y-82591904D01*
X142742628Y-82285253D01*
X142558225Y-82009275D01*
X142362350Y-81813400D01*
X142558225Y-81617525D01*
X142742628Y-81341547D01*
X142869646Y-81034896D01*
X142934400Y-80709358D01*
X142934400Y-80377442D01*
X142869646Y-80051904D01*
X142818151Y-79927583D01*
X142887306Y-79984337D01*
X142997620Y-80043302D01*
X143117318Y-80079612D01*
X143241800Y-80091872D01*
X143656050Y-80088800D01*
X143814800Y-79930050D01*
X143814800Y-79093300D01*
X144068800Y-79093300D01*
X144068800Y-79930050D01*
X144227550Y-80088800D01*
X144641800Y-80091872D01*
X144766282Y-80079612D01*
X144885980Y-80043302D01*
X144996294Y-79984337D01*
X145092985Y-79904985D01*
X145172337Y-79808294D01*
X145231302Y-79697980D01*
X145267612Y-79578282D01*
X145279872Y-79453800D01*
X145276800Y-79252050D01*
X145118050Y-79093300D01*
X144068800Y-79093300D01*
X143814800Y-79093300D01*
X143794800Y-79093300D01*
X143794800Y-78839300D01*
X143814800Y-78839300D01*
X143814800Y-78819300D01*
X144068800Y-78819300D01*
X144068800Y-78839300D01*
X145118050Y-78839300D01*
X145276800Y-78680550D01*
X145278989Y-78536784D01*
X145329518Y-78552112D01*
X145454000Y-78564372D01*
X145704490Y-78564372D01*
X145700988Y-78575918D01*
X145688728Y-78700400D01*
X145691800Y-79114650D01*
X145850550Y-79273400D01*
X146687300Y-79273400D01*
X146687300Y-79253400D01*
X146916801Y-79253400D01*
X146916800Y-79547400D01*
X146687300Y-79547400D01*
X146687300Y-79527400D01*
X145850550Y-79527400D01*
X145691800Y-79686150D01*
X145688728Y-80100400D01*
X145700988Y-80224882D01*
X145718363Y-80282159D01*
X145606555Y-80293171D01*
X145458718Y-80338016D01*
X145322471Y-80410842D01*
X145203049Y-80508849D01*
X145105042Y-80628271D01*
X145032216Y-80764518D01*
X144987371Y-80912355D01*
X144972228Y-81066100D01*
X144972228Y-82716100D01*
X144987371Y-82869845D01*
X145032216Y-83017682D01*
X145105042Y-83153929D01*
X145203049Y-83273351D01*
X145322471Y-83371358D01*
X145458718Y-83444184D01*
X145606555Y-83489029D01*
X145760300Y-83504172D01*
X146060300Y-83504172D01*
X146214045Y-83489029D01*
X146361882Y-83444184D01*
X146496236Y-83372370D01*
X146525806Y-83396637D01*
X146636120Y-83455602D01*
X146755818Y-83491912D01*
X146880300Y-83504172D01*
X146894550Y-83501100D01*
X147053300Y-83342350D01*
X147053300Y-82018100D01*
X147033300Y-82018100D01*
X147033300Y-81764100D01*
X147053300Y-81764100D01*
X147053300Y-81744100D01*
X147307300Y-81744100D01*
X147307300Y-81764100D01*
X147327300Y-81764100D01*
X147327300Y-82018100D01*
X147307300Y-82018100D01*
X147307300Y-83342350D01*
X147466050Y-83501100D01*
X147480300Y-83504172D01*
X147604782Y-83491912D01*
X147724480Y-83455602D01*
X147834794Y-83396637D01*
X147864364Y-83372370D01*
X147998718Y-83444184D01*
X148146555Y-83489029D01*
X148300300Y-83504172D01*
X148600300Y-83504172D01*
X148754045Y-83489029D01*
X148901882Y-83444184D01*
X149038129Y-83371358D01*
X149085300Y-83332646D01*
X149132471Y-83371358D01*
X149268718Y-83444184D01*
X149416555Y-83489029D01*
X149570300Y-83504172D01*
X149870300Y-83504172D01*
X150024045Y-83489029D01*
X150171882Y-83444184D01*
X150308129Y-83371358D01*
X150355300Y-83332646D01*
X150402471Y-83371358D01*
X150538718Y-83444184D01*
X150686555Y-83489029D01*
X150840300Y-83504172D01*
X151140300Y-83504172D01*
X151294045Y-83489029D01*
X151441882Y-83444184D01*
X151578129Y-83371358D01*
X151625300Y-83332646D01*
X151672471Y-83371358D01*
X151808718Y-83444184D01*
X151956555Y-83489029D01*
X152110300Y-83504172D01*
X152410300Y-83504172D01*
X152564045Y-83489029D01*
X152711882Y-83444184D01*
X152846236Y-83372370D01*
X152875806Y-83396637D01*
X152986120Y-83455602D01*
X153105818Y-83491912D01*
X153230300Y-83504172D01*
X153244550Y-83501100D01*
X153403300Y-83342350D01*
X153403300Y-82018100D01*
X153383300Y-82018100D01*
X153383300Y-81764100D01*
X153403300Y-81764100D01*
X153403300Y-81744100D01*
X153657300Y-81744100D01*
X153657300Y-81764100D01*
X153677300Y-81764100D01*
X153677300Y-82018100D01*
X153657300Y-82018100D01*
X153657300Y-83342350D01*
X153816050Y-83501100D01*
X153830300Y-83504172D01*
X153954782Y-83491912D01*
X154074480Y-83455602D01*
X154184794Y-83396637D01*
X154214364Y-83372370D01*
X154348718Y-83444184D01*
X154496555Y-83489029D01*
X154650300Y-83504172D01*
X154950300Y-83504172D01*
X155104045Y-83489029D01*
X155251882Y-83444184D01*
X155388129Y-83371358D01*
X155507551Y-83273351D01*
X155605558Y-83153929D01*
X155612983Y-83140037D01*
X155625835Y-83152889D01*
X155657467Y-83191433D01*
X155811260Y-83317647D01*
X155986720Y-83411432D01*
X156177106Y-83469185D01*
X156325492Y-83483800D01*
X156325494Y-83483800D01*
X156375099Y-83488686D01*
X156424704Y-83483800D01*
X156676828Y-83483800D01*
X156676828Y-84198274D01*
X156673717Y-84194483D01*
X156538959Y-84083889D01*
X156385213Y-84001711D01*
X156218390Y-83951105D01*
X156088377Y-83938300D01*
X156088369Y-83938300D01*
X156044900Y-83934019D01*
X156001431Y-83938300D01*
X154246865Y-83938300D01*
X154203399Y-83934019D01*
X154159933Y-83938300D01*
X154159923Y-83938300D01*
X154029910Y-83951105D01*
X153863087Y-84001711D01*
X153709341Y-84083889D01*
X153709339Y-84083890D01*
X153709340Y-84083890D01*
X153608353Y-84166768D01*
X153608351Y-84166770D01*
X153574583Y-84194483D01*
X153546870Y-84228251D01*
X152935256Y-84839866D01*
X152901483Y-84867583D01*
X152790889Y-85002342D01*
X152708711Y-85156088D01*
X152672330Y-85276018D01*
X152564045Y-85243171D01*
X152410300Y-85228028D01*
X152110300Y-85228028D01*
X151956555Y-85243171D01*
X151808718Y-85288016D01*
X151672471Y-85360842D01*
X151625300Y-85399554D01*
X151578129Y-85360842D01*
X151441882Y-85288016D01*
X151294045Y-85243171D01*
X151140300Y-85228028D01*
X150840300Y-85228028D01*
X150686555Y-85243171D01*
X150538718Y-85288016D01*
X150402471Y-85360842D01*
X150355300Y-85399554D01*
X150308129Y-85360842D01*
X150171882Y-85288016D01*
X150024045Y-85243171D01*
X149870300Y-85228028D01*
X149570300Y-85228028D01*
X149416555Y-85243171D01*
X149268718Y-85288016D01*
X149132471Y-85360842D01*
X149085300Y-85399554D01*
X149038129Y-85360842D01*
X148901882Y-85288016D01*
X148754045Y-85243171D01*
X148600300Y-85228028D01*
X148300300Y-85228028D01*
X148146555Y-85243171D01*
X147998718Y-85288016D01*
X147862471Y-85360842D01*
X147815300Y-85399554D01*
X147768129Y-85360842D01*
X147631882Y-85288016D01*
X147484045Y-85243171D01*
X147330300Y-85228028D01*
X147030300Y-85228028D01*
X146876555Y-85243171D01*
X146728718Y-85288016D01*
X146594364Y-85359830D01*
X146564794Y-85335563D01*
X146454480Y-85276598D01*
X146334782Y-85240288D01*
X146210300Y-85228028D01*
X146196050Y-85231100D01*
X146037300Y-85389850D01*
X146037300Y-86714100D01*
X146057300Y-86714100D01*
X146057300Y-86968100D01*
X146037300Y-86968100D01*
X146037300Y-87916550D01*
X145912600Y-88041250D01*
X145912600Y-89090500D01*
X145932600Y-89090500D01*
X145932600Y-89344500D01*
X145912600Y-89344500D01*
X145912600Y-89364500D01*
X145658600Y-89364500D01*
X145658600Y-89344500D01*
X144821850Y-89344500D01*
X144663100Y-89503250D01*
X144660028Y-89917500D01*
X144665002Y-89968000D01*
X139419400Y-89968000D01*
X139419400Y-89334466D01*
X140257939Y-89334466D01*
X140359739Y-89603979D01*
X140657877Y-89749863D01*
X140978746Y-89834780D01*
X141310017Y-89855466D01*
X141638957Y-89811128D01*
X141952927Y-89703469D01*
X142139061Y-89603979D01*
X142240861Y-89334466D01*
X141249400Y-88343005D01*
X140257939Y-89334466D01*
X139419400Y-89334466D01*
X139419400Y-88224017D01*
X139557334Y-88224017D01*
X139601672Y-88552957D01*
X139709331Y-88866927D01*
X139808821Y-89053061D01*
X140078334Y-89154861D01*
X141069795Y-88163400D01*
X141429005Y-88163400D01*
X142420466Y-89154861D01*
X142689979Y-89053061D01*
X142835863Y-88754923D01*
X142898696Y-88517500D01*
X144660028Y-88517500D01*
X144663100Y-88931750D01*
X144821850Y-89090500D01*
X145658600Y-89090500D01*
X145658600Y-88417050D01*
X145783300Y-88292350D01*
X145783300Y-86968100D01*
X145134050Y-86968100D01*
X144975300Y-87126850D01*
X144972228Y-87816100D01*
X144984488Y-87940582D01*
X144990891Y-87961688D01*
X144943606Y-87986963D01*
X144846915Y-88066315D01*
X144767563Y-88163006D01*
X144708598Y-88273320D01*
X144672288Y-88393018D01*
X144660028Y-88517500D01*
X142898696Y-88517500D01*
X142920780Y-88434054D01*
X142941466Y-88102783D01*
X142897128Y-87773843D01*
X142789469Y-87459873D01*
X142689979Y-87273739D01*
X142420466Y-87171939D01*
X141429005Y-88163400D01*
X141069795Y-88163400D01*
X140078334Y-87171939D01*
X139808821Y-87273739D01*
X139662937Y-87571877D01*
X139578020Y-87892746D01*
X139557334Y-88224017D01*
X139419400Y-88224017D01*
X139419400Y-63448000D01*
X163526477Y-63448000D01*
X163529324Y-89968000D01*
G37*
X163529324Y-89968000D02*
X156025807Y-89968000D01*
X156058633Y-89859788D01*
X156154820Y-89911202D01*
X156274518Y-89947512D01*
X156399000Y-89959772D01*
X156813250Y-89956700D01*
X156972000Y-89797950D01*
X156972000Y-88961200D01*
X157226000Y-88961200D01*
X157226000Y-89797950D01*
X157384750Y-89956700D01*
X157799000Y-89959772D01*
X157923482Y-89947512D01*
X158043180Y-89911202D01*
X158153494Y-89852237D01*
X158250185Y-89772885D01*
X158329537Y-89676194D01*
X158388502Y-89565880D01*
X158424812Y-89446182D01*
X158437072Y-89321700D01*
X158434000Y-89119950D01*
X158275250Y-88961200D01*
X157226000Y-88961200D01*
X156972000Y-88961200D01*
X156952000Y-88961200D01*
X156952000Y-88707200D01*
X156972000Y-88707200D01*
X156972000Y-88687200D01*
X157226000Y-88687200D01*
X157226000Y-88707200D01*
X158275250Y-88707200D01*
X158434000Y-88548450D01*
X158437072Y-88346700D01*
X158424812Y-88222218D01*
X158388502Y-88102520D01*
X158329537Y-87992206D01*
X158250185Y-87895515D01*
X158172436Y-87831708D01*
X158178792Y-87826492D01*
X158288458Y-87692864D01*
X158369947Y-87540409D01*
X158420128Y-87374985D01*
X158437072Y-87202950D01*
X158437072Y-86715450D01*
X158420128Y-86543415D01*
X158369947Y-86377991D01*
X158288458Y-86225536D01*
X158178792Y-86091908D01*
X158045164Y-85982242D01*
X157984000Y-85949549D01*
X157984000Y-85920869D01*
X157988281Y-85877400D01*
X157984000Y-85833931D01*
X157984000Y-85833923D01*
X157971195Y-85703910D01*
X157920589Y-85537087D01*
X157920589Y-85537086D01*
X157838411Y-85383341D01*
X157755532Y-85282353D01*
X157755530Y-85282351D01*
X157727817Y-85248583D01*
X157694049Y-85220870D01*
X157340051Y-84866872D01*
X158584900Y-84866872D01*
X158629001Y-84862529D01*
X158629000Y-87668316D01*
X158624114Y-87717924D01*
X158643615Y-87915918D01*
X158681480Y-88040742D01*
X158701368Y-88106303D01*
X158795153Y-88281764D01*
X158921367Y-88435557D01*
X158959907Y-88467185D01*
X159335211Y-88842489D01*
X159366843Y-88881033D01*
X159520636Y-89007247D01*
X159696096Y-89101032D01*
X159886482Y-89158785D01*
X160034868Y-89173400D01*
X160034870Y-89173400D01*
X160084475Y-89178286D01*
X160134080Y-89173400D01*
X160217728Y-89173400D01*
X160260575Y-89237525D01*
X160495275Y-89472225D01*
X160771253Y-89656628D01*
X161077904Y-89783646D01*
X161403442Y-89848400D01*
X161735358Y-89848400D01*
X162060896Y-89783646D01*
X162367547Y-89656628D01*
X162643525Y-89472225D01*
X162878225Y-89237525D01*
X163062628Y-88961547D01*
X163189646Y-88654896D01*
X163254400Y-88329358D01*
X163254400Y-87997442D01*
X163189646Y-87671904D01*
X163062628Y-87365253D01*
X162878225Y-87089275D01*
X162682350Y-86893400D01*
X162878225Y-86697525D01*
X163062628Y-86421547D01*
X163189646Y-86114896D01*
X163254400Y-85789358D01*
X163254400Y-85457442D01*
X163189646Y-85131904D01*
X163062628Y-84825253D01*
X162878225Y-84549275D01*
X162682350Y-84353400D01*
X162878225Y-84157525D01*
X163062628Y-83881547D01*
X163189646Y-83574896D01*
X163254400Y-83249358D01*
X163254400Y-82917442D01*
X163189646Y-82591904D01*
X163062628Y-82285253D01*
X162878225Y-82009275D01*
X162682350Y-81813400D01*
X162878225Y-81617525D01*
X163062628Y-81341547D01*
X163189646Y-81034896D01*
X163254400Y-80709358D01*
X163254400Y-80377442D01*
X163189646Y-80051904D01*
X163062628Y-79745253D01*
X162878225Y-79469275D01*
X162682350Y-79273400D01*
X162878225Y-79077525D01*
X163062628Y-78801547D01*
X163189646Y-78494896D01*
X163254400Y-78169358D01*
X163254400Y-77837442D01*
X163189646Y-77511904D01*
X163062628Y-77205253D01*
X162878225Y-76929275D01*
X162682350Y-76733400D01*
X162878225Y-76537525D01*
X163062628Y-76261547D01*
X163189646Y-75954896D01*
X163254400Y-75629358D01*
X163254400Y-75297442D01*
X163189646Y-74971904D01*
X163062628Y-74665253D01*
X162878225Y-74389275D01*
X162682350Y-74193400D01*
X162878225Y-73997525D01*
X163062628Y-73721547D01*
X163189646Y-73414896D01*
X163254400Y-73089358D01*
X163254400Y-72757442D01*
X163189646Y-72431904D01*
X163062628Y-72125253D01*
X162878225Y-71849275D01*
X162682350Y-71653400D01*
X162878225Y-71457525D01*
X163062628Y-71181547D01*
X163189646Y-70874896D01*
X163254400Y-70549358D01*
X163254400Y-70217442D01*
X163189646Y-69891904D01*
X163062628Y-69585253D01*
X162878225Y-69309275D01*
X162682350Y-69113400D01*
X162878225Y-68917525D01*
X163062628Y-68641547D01*
X163189646Y-68334896D01*
X163254400Y-68009358D01*
X163254400Y-67677442D01*
X163189646Y-67351904D01*
X163062628Y-67045253D01*
X162878225Y-66769275D01*
X162682350Y-66573400D01*
X162878225Y-66377525D01*
X163062628Y-66101547D01*
X163189646Y-65794896D01*
X163254400Y-65469358D01*
X163254400Y-65137442D01*
X163189646Y-64811904D01*
X163062628Y-64505253D01*
X162878225Y-64229275D01*
X162643525Y-63994575D01*
X162367547Y-63810172D01*
X162060896Y-63683154D01*
X161735358Y-63618400D01*
X161403442Y-63618400D01*
X161077904Y-63683154D01*
X160771253Y-63810172D01*
X160495275Y-63994575D01*
X160299400Y-64190450D01*
X160103525Y-63994575D01*
X159827547Y-63810172D01*
X159520896Y-63683154D01*
X159195358Y-63618400D01*
X158863442Y-63618400D01*
X158537904Y-63683154D01*
X158231253Y-63810172D01*
X157955275Y-63994575D01*
X157759400Y-64190450D01*
X157563525Y-63994575D01*
X157287547Y-63810172D01*
X156980896Y-63683154D01*
X156655358Y-63618400D01*
X156323442Y-63618400D01*
X155997904Y-63683154D01*
X155691253Y-63810172D01*
X155415275Y-63994575D01*
X155219400Y-64190450D01*
X155023525Y-63994575D01*
X154747547Y-63810172D01*
X154440896Y-63683154D01*
X154115358Y-63618400D01*
X153783442Y-63618400D01*
X153457904Y-63683154D01*
X153151253Y-63810172D01*
X152875275Y-63994575D01*
X152679400Y-64190450D01*
X152483525Y-63994575D01*
X152207547Y-63810172D01*
X151900896Y-63683154D01*
X151575358Y-63618400D01*
X151243442Y-63618400D01*
X150917904Y-63683154D01*
X150611253Y-63810172D01*
X150335275Y-63994575D01*
X150139400Y-64190450D01*
X149943525Y-63994575D01*
X149667547Y-63810172D01*
X149360896Y-63683154D01*
X149035358Y-63618400D01*
X148703442Y-63618400D01*
X148377904Y-63683154D01*
X148071253Y-63810172D01*
X147795275Y-63994575D01*
X147599400Y-64190450D01*
X147403525Y-63994575D01*
X147127547Y-63810172D01*
X146820896Y-63683154D01*
X146495358Y-63618400D01*
X146163442Y-63618400D01*
X145837904Y-63683154D01*
X145531253Y-63810172D01*
X145255275Y-63994575D01*
X145059400Y-64190450D01*
X144863525Y-63994575D01*
X144587547Y-63810172D01*
X144280896Y-63683154D01*
X143955358Y-63618400D01*
X143623442Y-63618400D01*
X143297904Y-63683154D01*
X142991253Y-63810172D01*
X142715275Y-63994575D01*
X142519400Y-64190450D01*
X142323525Y-63994575D01*
X142047547Y-63810172D01*
X141740896Y-63683154D01*
X141415358Y-63618400D01*
X141083442Y-63618400D01*
X140757904Y-63683154D01*
X140451253Y-63810172D01*
X140175275Y-63994575D01*
X139940575Y-64229275D01*
X139756172Y-64505253D01*
X139629154Y-64811904D01*
X139564400Y-65137442D01*
X139564400Y-65469358D01*
X139629154Y-65794896D01*
X139756172Y-66101547D01*
X139940575Y-66377525D01*
X140136450Y-66573400D01*
X139940575Y-66769275D01*
X139756172Y-67045253D01*
X139629154Y-67351904D01*
X139564400Y-67677442D01*
X139564400Y-68009358D01*
X139629154Y-68334896D01*
X139756172Y-68641547D01*
X139940575Y-68917525D01*
X140136450Y-69113400D01*
X139940575Y-69309275D01*
X139756172Y-69585253D01*
X139629154Y-69891904D01*
X139564400Y-70217442D01*
X139564400Y-70549358D01*
X139629154Y-70874896D01*
X139756172Y-71181547D01*
X139940575Y-71457525D01*
X140136450Y-71653400D01*
X139940575Y-71849275D01*
X139756172Y-72125253D01*
X139629154Y-72431904D01*
X139564400Y-72757442D01*
X139564400Y-73089358D01*
X139629154Y-73414896D01*
X139756172Y-73721547D01*
X139940575Y-73997525D01*
X140136450Y-74193400D01*
X139940575Y-74389275D01*
X139756172Y-74665253D01*
X139629154Y-74971904D01*
X139564400Y-75297442D01*
X139564400Y-75629358D01*
X139629154Y-75954896D01*
X139756172Y-76261547D01*
X139940575Y-76537525D01*
X140136450Y-76733400D01*
X139940575Y-76929275D01*
X139756172Y-77205253D01*
X139629154Y-77511904D01*
X139564400Y-77837442D01*
X139564400Y-78169358D01*
X139629154Y-78494896D01*
X139756172Y-78801547D01*
X139940575Y-79077525D01*
X140136450Y-79273400D01*
X139940575Y-79469275D01*
X139756172Y-79745253D01*
X139629154Y-80051904D01*
X139564400Y-80377442D01*
X139564400Y-80709358D01*
X139629154Y-81034896D01*
X139756172Y-81341547D01*
X139940575Y-81617525D01*
X140136450Y-81813400D01*
X139940575Y-82009275D01*
X139756172Y-82285253D01*
X139629154Y-82591904D01*
X139564400Y-82917442D01*
X139564400Y-83249358D01*
X139629154Y-83574896D01*
X139756172Y-83881547D01*
X139940575Y-84157525D01*
X140136450Y-84353400D01*
X139940575Y-84549275D01*
X139756172Y-84825253D01*
X139629154Y-85131904D01*
X139564400Y-85457442D01*
X139564400Y-85789358D01*
X139629154Y-86114896D01*
X139756172Y-86421547D01*
X139940575Y-86697525D01*
X140175275Y-86932225D01*
X140259409Y-86988442D01*
X140257939Y-86992334D01*
X141249400Y-87983795D01*
X142240861Y-86992334D01*
X142239391Y-86988442D01*
X142323525Y-86932225D01*
X142558225Y-86697525D01*
X142742628Y-86421547D01*
X142869646Y-86114896D01*
X142919134Y-85866100D01*
X144972228Y-85866100D01*
X144975300Y-86555350D01*
X145134050Y-86714100D01*
X145783300Y-86714100D01*
X145783300Y-85389850D01*
X145624550Y-85231100D01*
X145610300Y-85228028D01*
X145485818Y-85240288D01*
X145366120Y-85276598D01*
X145255806Y-85335563D01*
X145159115Y-85414915D01*
X145079763Y-85511606D01*
X145020798Y-85621920D01*
X144984488Y-85741618D01*
X144972228Y-85866100D01*
X142919134Y-85866100D01*
X142934400Y-85789358D01*
X142934400Y-85457442D01*
X142869646Y-85131904D01*
X142742628Y-84825253D01*
X142558225Y-84549275D01*
X142362350Y-84353400D01*
X142558225Y-84157525D01*
X142742628Y-83881547D01*
X142869646Y-83574896D01*
X142934400Y-83249358D01*
X142934400Y-82917442D01*
X142869646Y-82591904D01*
X142742628Y-82285253D01*
X142558225Y-82009275D01*
X142362350Y-81813400D01*
X142558225Y-81617525D01*
X142742628Y-81341547D01*
X142869646Y-81034896D01*
X142934400Y-80709358D01*
X142934400Y-80377442D01*
X142869646Y-80051904D01*
X142818151Y-79927583D01*
X142887306Y-79984337D01*
X142997620Y-80043302D01*
X143117318Y-80079612D01*
X143241800Y-80091872D01*
X143656050Y-80088800D01*
X143814800Y-79930050D01*
X143814800Y-79093300D01*
X144068800Y-79093300D01*
X144068800Y-79930050D01*
X144227550Y-80088800D01*
X144641800Y-80091872D01*
X144766282Y-80079612D01*
X144885980Y-80043302D01*
X144996294Y-79984337D01*
X145092985Y-79904985D01*
X145172337Y-79808294D01*
X145231302Y-79697980D01*
X145267612Y-79578282D01*
X145279872Y-79453800D01*
X145276800Y-79252050D01*
X145118050Y-79093300D01*
X144068800Y-79093300D01*
X143814800Y-79093300D01*
X143794800Y-79093300D01*
X143794800Y-78839300D01*
X143814800Y-78839300D01*
X143814800Y-78819300D01*
X144068800Y-78819300D01*
X144068800Y-78839300D01*
X145118050Y-78839300D01*
X145276800Y-78680550D01*
X145278989Y-78536784D01*
X145329518Y-78552112D01*
X145454000Y-78564372D01*
X145704490Y-78564372D01*
X145700988Y-78575918D01*
X145688728Y-78700400D01*
X145691800Y-79114650D01*
X145850550Y-79273400D01*
X146687300Y-79273400D01*
X146687300Y-79253400D01*
X146916801Y-79253400D01*
X146916800Y-79547400D01*
X146687300Y-79547400D01*
X146687300Y-79527400D01*
X145850550Y-79527400D01*
X145691800Y-79686150D01*
X145688728Y-80100400D01*
X145700988Y-80224882D01*
X145718363Y-80282159D01*
X145606555Y-80293171D01*
X145458718Y-80338016D01*
X145322471Y-80410842D01*
X145203049Y-80508849D01*
X145105042Y-80628271D01*
X145032216Y-80764518D01*
X144987371Y-80912355D01*
X144972228Y-81066100D01*
X144972228Y-82716100D01*
X144987371Y-82869845D01*
X145032216Y-83017682D01*
X145105042Y-83153929D01*
X145203049Y-83273351D01*
X145322471Y-83371358D01*
X145458718Y-83444184D01*
X145606555Y-83489029D01*
X145760300Y-83504172D01*
X146060300Y-83504172D01*
X146214045Y-83489029D01*
X146361882Y-83444184D01*
X146496236Y-83372370D01*
X146525806Y-83396637D01*
X146636120Y-83455602D01*
X146755818Y-83491912D01*
X146880300Y-83504172D01*
X146894550Y-83501100D01*
X147053300Y-83342350D01*
X147053300Y-82018100D01*
X147033300Y-82018100D01*
X147033300Y-81764100D01*
X147053300Y-81764100D01*
X147053300Y-81744100D01*
X147307300Y-81744100D01*
X147307300Y-81764100D01*
X147327300Y-81764100D01*
X147327300Y-82018100D01*
X147307300Y-82018100D01*
X147307300Y-83342350D01*
X147466050Y-83501100D01*
X147480300Y-83504172D01*
X147604782Y-83491912D01*
X147724480Y-83455602D01*
X147834794Y-83396637D01*
X147864364Y-83372370D01*
X147998718Y-83444184D01*
X148146555Y-83489029D01*
X148300300Y-83504172D01*
X148600300Y-83504172D01*
X148754045Y-83489029D01*
X148901882Y-83444184D01*
X149038129Y-83371358D01*
X149085300Y-83332646D01*
X149132471Y-83371358D01*
X149268718Y-83444184D01*
X149416555Y-83489029D01*
X149570300Y-83504172D01*
X149870300Y-83504172D01*
X150024045Y-83489029D01*
X150171882Y-83444184D01*
X150308129Y-83371358D01*
X150355300Y-83332646D01*
X150402471Y-83371358D01*
X150538718Y-83444184D01*
X150686555Y-83489029D01*
X150840300Y-83504172D01*
X151140300Y-83504172D01*
X151294045Y-83489029D01*
X151441882Y-83444184D01*
X151578129Y-83371358D01*
X151625300Y-83332646D01*
X151672471Y-83371358D01*
X151808718Y-83444184D01*
X151956555Y-83489029D01*
X152110300Y-83504172D01*
X152410300Y-83504172D01*
X152564045Y-83489029D01*
X152711882Y-83444184D01*
X152846236Y-83372370D01*
X152875806Y-83396637D01*
X152986120Y-83455602D01*
X153105818Y-83491912D01*
X153230300Y-83504172D01*
X153244550Y-83501100D01*
X153403300Y-83342350D01*
X153403300Y-82018100D01*
X153383300Y-82018100D01*
X153383300Y-81764100D01*
X153403300Y-81764100D01*
X153403300Y-81744100D01*
X153657300Y-81744100D01*
X153657300Y-81764100D01*
X153677300Y-81764100D01*
X153677300Y-82018100D01*
X153657300Y-82018100D01*
X153657300Y-83342350D01*
X153816050Y-83501100D01*
X153830300Y-83504172D01*
X153954782Y-83491912D01*
X154074480Y-83455602D01*
X154184794Y-83396637D01*
X154214364Y-83372370D01*
X154348718Y-83444184D01*
X154496555Y-83489029D01*
X154650300Y-83504172D01*
X154950300Y-83504172D01*
X155104045Y-83489029D01*
X155251882Y-83444184D01*
X155388129Y-83371358D01*
X155507551Y-83273351D01*
X155605558Y-83153929D01*
X155612983Y-83140037D01*
X155625835Y-83152889D01*
X155657467Y-83191433D01*
X155811260Y-83317647D01*
X155986720Y-83411432D01*
X156177106Y-83469185D01*
X156325492Y-83483800D01*
X156325494Y-83483800D01*
X156375099Y-83488686D01*
X156424704Y-83483800D01*
X156676828Y-83483800D01*
X156676828Y-84198274D01*
X156673717Y-84194483D01*
X156538959Y-84083889D01*
X156385213Y-84001711D01*
X156218390Y-83951105D01*
X156088377Y-83938300D01*
X156088369Y-83938300D01*
X156044900Y-83934019D01*
X156001431Y-83938300D01*
X154246865Y-83938300D01*
X154203399Y-83934019D01*
X154159933Y-83938300D01*
X154159923Y-83938300D01*
X154029910Y-83951105D01*
X153863087Y-84001711D01*
X153709341Y-84083889D01*
X153709339Y-84083890D01*
X153709340Y-84083890D01*
X153608353Y-84166768D01*
X153608351Y-84166770D01*
X153574583Y-84194483D01*
X153546870Y-84228251D01*
X152935256Y-84839866D01*
X152901483Y-84867583D01*
X152790889Y-85002342D01*
X152708711Y-85156088D01*
X152672330Y-85276018D01*
X152564045Y-85243171D01*
X152410300Y-85228028D01*
X152110300Y-85228028D01*
X151956555Y-85243171D01*
X151808718Y-85288016D01*
X151672471Y-85360842D01*
X151625300Y-85399554D01*
X151578129Y-85360842D01*
X151441882Y-85288016D01*
X151294045Y-85243171D01*
X151140300Y-85228028D01*
X150840300Y-85228028D01*
X150686555Y-85243171D01*
X150538718Y-85288016D01*
X150402471Y-85360842D01*
X150355300Y-85399554D01*
X150308129Y-85360842D01*
X150171882Y-85288016D01*
X150024045Y-85243171D01*
X149870300Y-85228028D01*
X149570300Y-85228028D01*
X149416555Y-85243171D01*
X149268718Y-85288016D01*
X149132471Y-85360842D01*
X149085300Y-85399554D01*
X149038129Y-85360842D01*
X148901882Y-85288016D01*
X148754045Y-85243171D01*
X148600300Y-85228028D01*
X148300300Y-85228028D01*
X148146555Y-85243171D01*
X147998718Y-85288016D01*
X147862471Y-85360842D01*
X147815300Y-85399554D01*
X147768129Y-85360842D01*
X147631882Y-85288016D01*
X147484045Y-85243171D01*
X147330300Y-85228028D01*
X147030300Y-85228028D01*
X146876555Y-85243171D01*
X146728718Y-85288016D01*
X146594364Y-85359830D01*
X146564794Y-85335563D01*
X146454480Y-85276598D01*
X146334782Y-85240288D01*
X146210300Y-85228028D01*
X146196050Y-85231100D01*
X146037300Y-85389850D01*
X146037300Y-86714100D01*
X146057300Y-86714100D01*
X146057300Y-86968100D01*
X146037300Y-86968100D01*
X146037300Y-87916550D01*
X145912600Y-88041250D01*
X145912600Y-89090500D01*
X145932600Y-89090500D01*
X145932600Y-89344500D01*
X145912600Y-89344500D01*
X145912600Y-89364500D01*
X145658600Y-89364500D01*
X145658600Y-89344500D01*
X144821850Y-89344500D01*
X144663100Y-89503250D01*
X144660028Y-89917500D01*
X144665002Y-89968000D01*
X139419400Y-89968000D01*
X139419400Y-89334466D01*
X140257939Y-89334466D01*
X140359739Y-89603979D01*
X140657877Y-89749863D01*
X140978746Y-89834780D01*
X141310017Y-89855466D01*
X141638957Y-89811128D01*
X141952927Y-89703469D01*
X142139061Y-89603979D01*
X142240861Y-89334466D01*
X141249400Y-88343005D01*
X140257939Y-89334466D01*
X139419400Y-89334466D01*
X139419400Y-88224017D01*
X139557334Y-88224017D01*
X139601672Y-88552957D01*
X139709331Y-88866927D01*
X139808821Y-89053061D01*
X140078334Y-89154861D01*
X141069795Y-88163400D01*
X141429005Y-88163400D01*
X142420466Y-89154861D01*
X142689979Y-89053061D01*
X142835863Y-88754923D01*
X142898696Y-88517500D01*
X144660028Y-88517500D01*
X144663100Y-88931750D01*
X144821850Y-89090500D01*
X145658600Y-89090500D01*
X145658600Y-88417050D01*
X145783300Y-88292350D01*
X145783300Y-86968100D01*
X145134050Y-86968100D01*
X144975300Y-87126850D01*
X144972228Y-87816100D01*
X144984488Y-87940582D01*
X144990891Y-87961688D01*
X144943606Y-87986963D01*
X144846915Y-88066315D01*
X144767563Y-88163006D01*
X144708598Y-88273320D01*
X144672288Y-88393018D01*
X144660028Y-88517500D01*
X142898696Y-88517500D01*
X142920780Y-88434054D01*
X142941466Y-88102783D01*
X142897128Y-87773843D01*
X142789469Y-87459873D01*
X142689979Y-87273739D01*
X142420466Y-87171939D01*
X141429005Y-88163400D01*
X141069795Y-88163400D01*
X140078334Y-87171939D01*
X139808821Y-87273739D01*
X139662937Y-87571877D01*
X139578020Y-87892746D01*
X139557334Y-88224017D01*
X139419400Y-88224017D01*
X139419400Y-63448000D01*
X163526477Y-63448000D01*
X163529324Y-89968000D01*
G36*
X158629000Y-77984745D02*
G01*
X158465394Y-77935115D01*
X158267400Y-77915614D01*
X158069405Y-77935115D01*
X157879021Y-77992868D01*
X157703560Y-78086654D01*
X157588301Y-78181244D01*
X157270801Y-78498744D01*
X157232268Y-78530367D01*
X157200645Y-78568900D01*
X157200644Y-78568901D01*
X157106054Y-78684160D01*
X157012268Y-78859621D01*
X156954515Y-79050006D01*
X156935014Y-79248000D01*
X156939901Y-79297617D01*
X156939901Y-80205091D01*
X156863715Y-80267615D01*
X156784363Y-80364306D01*
X156725398Y-80474620D01*
X156689088Y-80594318D01*
X156676828Y-80718800D01*
X156676828Y-81347173D01*
X156541661Y-81212006D01*
X156510033Y-81173467D01*
X156418400Y-81098266D01*
X156418400Y-80652993D01*
X156472232Y-80552280D01*
X156508503Y-80432709D01*
X156520379Y-80393562D01*
X156593047Y-80257609D01*
X156643228Y-80092185D01*
X156660172Y-79920150D01*
X156660172Y-79007650D01*
X156643228Y-78835615D01*
X156593047Y-78670191D01*
X156537460Y-78566196D01*
X156822019Y-78524899D01*
X157097747Y-78427219D01*
X157235157Y-78353772D01*
X157312792Y-78104697D01*
X156464000Y-77255905D01*
X156449858Y-77270048D01*
X156270253Y-77090443D01*
X156284395Y-77076300D01*
X156270253Y-77062158D01*
X156449858Y-76882553D01*
X156464000Y-76896695D01*
X156478143Y-76882553D01*
X156657748Y-77062158D01*
X156643605Y-77076300D01*
X157492397Y-77925092D01*
X157741472Y-77847457D01*
X157867371Y-77583417D01*
X157939339Y-77299889D01*
X157954611Y-77007769D01*
X157912599Y-76718281D01*
X157879510Y-76624878D01*
X157912667Y-76618283D01*
X158119224Y-76532724D01*
X158305120Y-76408512D01*
X158463212Y-76250420D01*
X158587424Y-76064524D01*
X158629001Y-75964150D01*
X158629000Y-77984745D01*
G37*
X158629000Y-77984745D02*
X158465394Y-77935115D01*
X158267400Y-77915614D01*
X158069405Y-77935115D01*
X157879021Y-77992868D01*
X157703560Y-78086654D01*
X157588301Y-78181244D01*
X157270801Y-78498744D01*
X157232268Y-78530367D01*
X157200645Y-78568900D01*
X157200644Y-78568901D01*
X157106054Y-78684160D01*
X157012268Y-78859621D01*
X156954515Y-79050006D01*
X156935014Y-79248000D01*
X156939901Y-79297617D01*
X156939901Y-80205091D01*
X156863715Y-80267615D01*
X156784363Y-80364306D01*
X156725398Y-80474620D01*
X156689088Y-80594318D01*
X156676828Y-80718800D01*
X156676828Y-81347173D01*
X156541661Y-81212006D01*
X156510033Y-81173467D01*
X156418400Y-81098266D01*
X156418400Y-80652993D01*
X156472232Y-80552280D01*
X156508503Y-80432709D01*
X156520379Y-80393562D01*
X156593047Y-80257609D01*
X156643228Y-80092185D01*
X156660172Y-79920150D01*
X156660172Y-79007650D01*
X156643228Y-78835615D01*
X156593047Y-78670191D01*
X156537460Y-78566196D01*
X156822019Y-78524899D01*
X157097747Y-78427219D01*
X157235157Y-78353772D01*
X157312792Y-78104697D01*
X156464000Y-77255905D01*
X156449858Y-77270048D01*
X156270253Y-77090443D01*
X156284395Y-77076300D01*
X156270253Y-77062158D01*
X156449858Y-76882553D01*
X156464000Y-76896695D01*
X156478143Y-76882553D01*
X156657748Y-77062158D01*
X156643605Y-77076300D01*
X157492397Y-77925092D01*
X157741472Y-77847457D01*
X157867371Y-77583417D01*
X157939339Y-77299889D01*
X157954611Y-77007769D01*
X157912599Y-76718281D01*
X157879510Y-76624878D01*
X157912667Y-76618283D01*
X158119224Y-76532724D01*
X158305120Y-76408512D01*
X158463212Y-76250420D01*
X158587424Y-76064524D01*
X158629001Y-75964150D01*
X158629000Y-77984745D01*
G36*
X153786600Y-79336900D02*
G01*
X153806600Y-79336900D01*
X153806600Y-79590900D01*
X153786600Y-79590900D01*
X153786600Y-79610900D01*
X153532600Y-79610900D01*
X153532600Y-79590900D01*
X153512600Y-79590900D01*
X153512600Y-79336900D01*
X153532600Y-79336900D01*
X153532600Y-79316900D01*
X153786600Y-79316900D01*
X153786600Y-79336900D01*
G37*
X153786600Y-79336900D02*
X153806600Y-79336900D01*
X153806600Y-79590900D01*
X153786600Y-79590900D01*
X153786600Y-79610900D01*
X153532600Y-79610900D01*
X153532600Y-79590900D01*
X153512600Y-79590900D01*
X153512600Y-79336900D01*
X153532600Y-79336900D01*
X153532600Y-79316900D01*
X153786600Y-79316900D01*
X153786600Y-79336900D01*
G36*
X158629001Y-69023756D02*
G01*
X158629001Y-75089650D01*
X158587424Y-74989276D01*
X158463212Y-74803380D01*
X158305120Y-74645288D01*
X158119224Y-74521076D01*
X157912667Y-74435517D01*
X157707182Y-74394644D01*
X157735392Y-74371492D01*
X157845058Y-74237864D01*
X157926547Y-74085409D01*
X157976728Y-73919985D01*
X157993672Y-73747950D01*
X157993672Y-72835450D01*
X157976728Y-72663415D01*
X157926547Y-72497991D01*
X157845058Y-72345536D01*
X157735392Y-72211908D01*
X157703100Y-72185407D01*
X157703100Y-72111218D01*
X157707140Y-72070200D01*
X157698892Y-71986454D01*
X157691018Y-71906511D01*
X157643272Y-71749113D01*
X157616402Y-71698843D01*
X157616402Y-71625452D01*
X157775150Y-71784200D01*
X157939400Y-71787272D01*
X158063882Y-71775012D01*
X158183580Y-71738702D01*
X158293894Y-71679737D01*
X158390585Y-71600385D01*
X158469937Y-71503694D01*
X158528902Y-71393380D01*
X158565212Y-71273682D01*
X158577472Y-71149200D01*
X158574400Y-71034950D01*
X158415650Y-70876200D01*
X157616400Y-70876200D01*
X157616400Y-70896200D01*
X157362400Y-70896200D01*
X157362400Y-70876200D01*
X157342400Y-70876200D01*
X157342400Y-70622200D01*
X157362400Y-70622200D01*
X157362400Y-70602200D01*
X157616400Y-70602200D01*
X157616400Y-70622200D01*
X158415650Y-70622200D01*
X158574400Y-70463450D01*
X158577472Y-70349200D01*
X158565212Y-70224718D01*
X158528902Y-70105020D01*
X158469937Y-69994706D01*
X158390585Y-69898015D01*
X158293894Y-69818663D01*
X158257482Y-69799200D01*
X158293894Y-69779737D01*
X158390585Y-69700385D01*
X158469937Y-69603694D01*
X158528902Y-69493380D01*
X158565212Y-69373682D01*
X158577472Y-69249200D01*
X158577472Y-68972227D01*
X158629001Y-69023756D01*
G37*
X158629001Y-69023756D02*
X158629001Y-75089650D01*
X158587424Y-74989276D01*
X158463212Y-74803380D01*
X158305120Y-74645288D01*
X158119224Y-74521076D01*
X157912667Y-74435517D01*
X157707182Y-74394644D01*
X157735392Y-74371492D01*
X157845058Y-74237864D01*
X157926547Y-74085409D01*
X157976728Y-73919985D01*
X157993672Y-73747950D01*
X157993672Y-72835450D01*
X157976728Y-72663415D01*
X157926547Y-72497991D01*
X157845058Y-72345536D01*
X157735392Y-72211908D01*
X157703100Y-72185407D01*
X157703100Y-72111218D01*
X157707140Y-72070200D01*
X157698892Y-71986454D01*
X157691018Y-71906511D01*
X157643272Y-71749113D01*
X157616402Y-71698843D01*
X157616402Y-71625452D01*
X157775150Y-71784200D01*
X157939400Y-71787272D01*
X158063882Y-71775012D01*
X158183580Y-71738702D01*
X158293894Y-71679737D01*
X158390585Y-71600385D01*
X158469937Y-71503694D01*
X158528902Y-71393380D01*
X158565212Y-71273682D01*
X158577472Y-71149200D01*
X158574400Y-71034950D01*
X158415650Y-70876200D01*
X157616400Y-70876200D01*
X157616400Y-70896200D01*
X157362400Y-70896200D01*
X157362400Y-70876200D01*
X157342400Y-70876200D01*
X157342400Y-70622200D01*
X157362400Y-70622200D01*
X157362400Y-70602200D01*
X157616400Y-70602200D01*
X157616400Y-70622200D01*
X158415650Y-70622200D01*
X158574400Y-70463450D01*
X158577472Y-70349200D01*
X158565212Y-70224718D01*
X158528902Y-70105020D01*
X158469937Y-69994706D01*
X158390585Y-69898015D01*
X158293894Y-69818663D01*
X158257482Y-69799200D01*
X158293894Y-69779737D01*
X158390585Y-69700385D01*
X158469937Y-69603694D01*
X158528902Y-69493380D01*
X158565212Y-69373682D01*
X158577472Y-69249200D01*
X158577472Y-68972227D01*
X158629001Y-69023756D01*
G36*
X150850600Y-69404500D02*
G01*
X150870600Y-69404500D01*
X150870600Y-69658500D01*
X150850600Y-69658500D01*
X150850600Y-69678500D01*
X150596600Y-69678500D01*
X150596600Y-69658500D01*
X150576600Y-69658500D01*
X150576600Y-69404500D01*
X150596600Y-69404500D01*
X150596600Y-69384500D01*
X150850600Y-69384500D01*
X150850600Y-69404500D01*
G37*
X150850600Y-69404500D02*
X150870600Y-69404500D01*
X150870600Y-69658500D01*
X150850600Y-69658500D01*
X150850600Y-69678500D01*
X150596600Y-69678500D01*
X150596600Y-69658500D01*
X150576600Y-69658500D01*
X150576600Y-69404500D01*
X150596600Y-69404500D01*
X150596600Y-69384500D01*
X150850600Y-69384500D01*
X150850600Y-69404500D01*
G36*
X148884098Y-68312320D02*
G01*
X148847788Y-68432018D01*
X148835528Y-68556500D01*
X148838600Y-69245750D01*
X148997348Y-69404498D01*
X148838600Y-69404498D01*
X148838600Y-69419544D01*
X148164900Y-68745845D01*
X148164900Y-68274455D01*
X148170154Y-68269200D01*
X148907146Y-68269200D01*
X148884098Y-68312320D01*
G37*
X148884098Y-68312320D02*
X148847788Y-68432018D01*
X148835528Y-68556500D01*
X148838600Y-69245750D01*
X148997348Y-69404498D01*
X148838600Y-69404498D01*
X148838600Y-69419544D01*
X148164900Y-68745845D01*
X148164900Y-68274455D01*
X148170154Y-68269200D01*
X148907146Y-68269200D01*
X148884098Y-68312320D01*
M02*
