G04 #@! TF.GenerationSoftware,KiCad,Pcbnew,(5.1.5)-3*
G04 #@! TF.CreationDate,2020-12-08T16:15:33+01:00*
G04 #@! TF.ProjectId,Microduino_UART,4d696372-6f64-4756-996e-6f5f55415254,0.0*
G04 #@! TF.SameCoordinates,Original*
G04 #@! TF.FileFunction,Other,Fab,Top*
%FSLAX46Y46*%
G04 Gerber Fmt 4.6, Leading zero omitted, Abs format (unit mm)*
G04 Created by KiCad (PCBNEW (5.1.5)-3) date 2020-12-08 16:15:33*
%MOMM*%
%LPD*%
G04 APERTURE LIST*
%ADD10C,0.300000*%
%ADD11C,0.100000*%
%ADD12C,0.150000*%
%ADD13C,0.120000*%
G04 APERTURE END LIST*
D10*
X131433971Y-70493714D02*
X131505400Y-70565142D01*
X131576828Y-70708000D01*
X131576828Y-71065142D01*
X131505400Y-71208000D01*
X131433971Y-71279428D01*
X131291114Y-71350857D01*
X131148257Y-71350857D01*
X130933971Y-71279428D01*
X130076828Y-70422285D01*
X130076828Y-71350857D01*
X131576828Y-71850857D02*
X131576828Y-72850857D01*
X130076828Y-72208000D01*
X130148257Y-73493714D02*
X130076828Y-73493714D01*
X129933971Y-73422285D01*
X129862542Y-73350857D01*
X130076828Y-74208000D02*
X130076828Y-74493714D01*
X130148257Y-74636571D01*
X130219685Y-74708000D01*
X130433971Y-74850857D01*
X130719685Y-74922285D01*
X131291114Y-74922285D01*
X131433971Y-74850857D01*
X131505400Y-74779428D01*
X131576828Y-74636571D01*
X131576828Y-74350857D01*
X131505400Y-74208000D01*
X131433971Y-74136571D01*
X131291114Y-74065142D01*
X130933971Y-74065142D01*
X130791114Y-74136571D01*
X130719685Y-74208000D01*
X130648257Y-74350857D01*
X130648257Y-74636571D01*
X130719685Y-74779428D01*
X130791114Y-74850857D01*
X130933971Y-74922285D01*
X131076828Y-76208000D02*
X130076828Y-76208000D01*
X131648257Y-75850857D02*
X130576828Y-75493714D01*
X130576828Y-76422285D01*
X131576828Y-77279428D02*
X131576828Y-77422285D01*
X131505400Y-77565142D01*
X131433971Y-77636571D01*
X131291114Y-77708000D01*
X131005400Y-77779428D01*
X130648257Y-77779428D01*
X130362542Y-77708000D01*
X130219685Y-77636571D01*
X130148257Y-77565142D01*
X130076828Y-77422285D01*
X130076828Y-77279428D01*
X130148257Y-77136571D01*
X130219685Y-77065142D01*
X130362542Y-76993714D01*
X130648257Y-76922285D01*
X131005400Y-76922285D01*
X131291114Y-76993714D01*
X131433971Y-77065142D01*
X131505400Y-77136571D01*
X131576828Y-77279428D01*
X130076828Y-79565142D02*
X131076828Y-79565142D01*
X130933971Y-79565142D02*
X131005400Y-79636571D01*
X131076828Y-79779428D01*
X131076828Y-79993714D01*
X131005400Y-80136571D01*
X130862542Y-80208000D01*
X130076828Y-80208000D01*
X130862542Y-80208000D02*
X131005400Y-80279428D01*
X131076828Y-80422285D01*
X131076828Y-80636571D01*
X131005400Y-80779428D01*
X130862542Y-80850857D01*
X130076828Y-80850857D01*
X130076828Y-81565142D02*
X131076828Y-81565142D01*
X130933971Y-81565142D02*
X131005400Y-81636571D01*
X131076828Y-81779428D01*
X131076828Y-81993714D01*
X131005400Y-82136571D01*
X130862542Y-82208000D01*
X130076828Y-82208000D01*
X130862542Y-82208000D02*
X131005400Y-82279428D01*
X131076828Y-82422285D01*
X131076828Y-82636571D01*
X131005400Y-82779428D01*
X130862542Y-82850857D01*
X130076828Y-82850857D01*
X132105400Y-62738000D02*
X132105400Y-90678000D01*
X134137400Y-62738000D02*
X129405400Y-62738000D01*
X134137400Y-90678000D02*
X129405400Y-90678000D01*
X132105400Y-90678000D02*
X131518979Y-89551496D01*
X132105400Y-90678000D02*
X132691821Y-89551496D01*
X132105400Y-62738000D02*
X131518979Y-63864504D01*
X132105400Y-62738000D02*
X132691821Y-63864504D01*
X144814114Y-95587428D02*
X144885542Y-95516000D01*
X145028400Y-95444571D01*
X145385542Y-95444571D01*
X145528400Y-95516000D01*
X145599828Y-95587428D01*
X145671257Y-95730285D01*
X145671257Y-95873142D01*
X145599828Y-96087428D01*
X144742685Y-96944571D01*
X145671257Y-96944571D01*
X147028400Y-95444571D02*
X146314114Y-95444571D01*
X146242685Y-96158857D01*
X146314114Y-96087428D01*
X146456971Y-96016000D01*
X146814114Y-96016000D01*
X146956971Y-96087428D01*
X147028400Y-96158857D01*
X147099828Y-96301714D01*
X147099828Y-96658857D01*
X147028400Y-96801714D01*
X146956971Y-96873142D01*
X146814114Y-96944571D01*
X146456971Y-96944571D01*
X146314114Y-96873142D01*
X146242685Y-96801714D01*
X147814114Y-96873142D02*
X147814114Y-96944571D01*
X147742685Y-97087428D01*
X147671257Y-97158857D01*
X149171257Y-95444571D02*
X148456971Y-95444571D01*
X148385542Y-96158857D01*
X148456971Y-96087428D01*
X148599828Y-96016000D01*
X148956971Y-96016000D01*
X149099828Y-96087428D01*
X149171257Y-96158857D01*
X149242685Y-96301714D01*
X149242685Y-96658857D01*
X149171257Y-96801714D01*
X149099828Y-96873142D01*
X148956971Y-96944571D01*
X148599828Y-96944571D01*
X148456971Y-96873142D01*
X148385542Y-96801714D01*
X149814114Y-95587428D02*
X149885542Y-95516000D01*
X150028400Y-95444571D01*
X150385542Y-95444571D01*
X150528400Y-95516000D01*
X150599828Y-95587428D01*
X150671257Y-95730285D01*
X150671257Y-95873142D01*
X150599828Y-96087428D01*
X149742685Y-96944571D01*
X150671257Y-96944571D01*
X151171257Y-95444571D02*
X152171257Y-95444571D01*
X151528400Y-96944571D01*
X153885542Y-96944571D02*
X153885542Y-95944571D01*
X153885542Y-96087428D02*
X153956971Y-96016000D01*
X154099828Y-95944571D01*
X154314114Y-95944571D01*
X154456971Y-96016000D01*
X154528400Y-96158857D01*
X154528400Y-96944571D01*
X154528400Y-96158857D02*
X154599828Y-96016000D01*
X154742685Y-95944571D01*
X154956971Y-95944571D01*
X155099828Y-96016000D01*
X155171257Y-96158857D01*
X155171257Y-96944571D01*
X155885542Y-96944571D02*
X155885542Y-95944571D01*
X155885542Y-96087428D02*
X155956971Y-96016000D01*
X156099828Y-95944571D01*
X156314114Y-95944571D01*
X156456971Y-96016000D01*
X156528400Y-96158857D01*
X156528400Y-96944571D01*
X156528400Y-96158857D02*
X156599828Y-96016000D01*
X156742685Y-95944571D01*
X156956971Y-95944571D01*
X157099828Y-96016000D01*
X157171257Y-96158857D01*
X157171257Y-96944571D01*
X164363400Y-94868999D02*
X138836400Y-94868999D01*
X164363400Y-92456000D02*
X164363400Y-97568999D01*
X138836400Y-92456000D02*
X138836400Y-97568999D01*
X138836400Y-94868999D02*
X139962904Y-94282578D01*
X138836400Y-94868999D02*
X139962904Y-95455420D01*
X164363400Y-94868999D02*
X163236896Y-94282578D01*
X164363400Y-94868999D02*
X163236896Y-95455420D01*
D11*
X152302600Y-69074800D02*
X153302600Y-68074800D01*
X152302600Y-69074800D02*
X152302600Y-74774800D01*
X153302600Y-68074800D02*
X156002600Y-68074800D01*
X152302600Y-74774800D02*
X156002600Y-74774800D01*
X156002600Y-68074800D02*
X156002600Y-74774800D01*
D12*
X145402490Y-68413600D02*
X145307252Y-68365980D01*
X145164395Y-68365980D01*
X145021538Y-68413600D01*
X144926300Y-68508838D01*
X144878680Y-68604076D01*
X144831061Y-68794552D01*
X144831061Y-68937409D01*
X144878680Y-69127885D01*
X144926300Y-69223123D01*
X145021538Y-69318361D01*
X145164395Y-69365980D01*
X145259633Y-69365980D01*
X145402490Y-69318361D01*
X145450109Y-69270742D01*
X145450109Y-68937409D01*
X145259633Y-68937409D01*
X145831061Y-69318361D02*
X145973919Y-69365980D01*
X146212014Y-69365980D01*
X146307252Y-69318361D01*
X146354871Y-69270742D01*
X146402490Y-69175504D01*
X146402490Y-69080266D01*
X146354871Y-68985028D01*
X146307252Y-68937409D01*
X146212014Y-68889790D01*
X146021538Y-68842171D01*
X145926300Y-68794552D01*
X145878680Y-68746933D01*
X145831061Y-68651695D01*
X145831061Y-68556457D01*
X145878680Y-68461219D01*
X145926300Y-68413600D01*
X146021538Y-68365980D01*
X146259633Y-68365980D01*
X146402490Y-68413600D01*
X147259633Y-68699314D02*
X147259633Y-69365980D01*
X147021538Y-68318361D02*
X146783442Y-69032647D01*
X147402490Y-69032647D01*
X147545347Y-69461219D02*
X148307252Y-69461219D01*
X148545347Y-69365980D02*
X148545347Y-68365980D01*
X148545347Y-68746933D02*
X148640585Y-68699314D01*
X148831061Y-68699314D01*
X148926300Y-68746933D01*
X148973919Y-68794552D01*
X149021538Y-68889790D01*
X149021538Y-69175504D01*
X148973919Y-69270742D01*
X148926300Y-69318361D01*
X148831061Y-69365980D01*
X148640585Y-69365980D01*
X148545347Y-69318361D01*
X146652600Y-75853371D02*
X146795457Y-75900990D01*
X146843076Y-75948609D01*
X146890695Y-76043847D01*
X146890695Y-76186704D01*
X146843076Y-76281942D01*
X146795457Y-76329561D01*
X146700219Y-76377180D01*
X146319266Y-76377180D01*
X146319266Y-75377180D01*
X146652600Y-75377180D01*
X146747838Y-75424800D01*
X146795457Y-75472419D01*
X146843076Y-75567657D01*
X146843076Y-75662895D01*
X146795457Y-75758133D01*
X146747838Y-75805752D01*
X146652600Y-75853371D01*
X146319266Y-75853371D01*
X147271647Y-76329561D02*
X147414504Y-76377180D01*
X147652600Y-76377180D01*
X147747838Y-76329561D01*
X147795457Y-76281942D01*
X147843076Y-76186704D01*
X147843076Y-76091466D01*
X147795457Y-75996228D01*
X147747838Y-75948609D01*
X147652600Y-75900990D01*
X147462123Y-75853371D01*
X147366885Y-75805752D01*
X147319266Y-75758133D01*
X147271647Y-75662895D01*
X147271647Y-75567657D01*
X147319266Y-75472419D01*
X147366885Y-75424800D01*
X147462123Y-75377180D01*
X147700219Y-75377180D01*
X147843076Y-75424800D01*
X148271647Y-76377180D02*
X148271647Y-75377180D01*
X148652600Y-75377180D01*
X148747838Y-75424800D01*
X148795457Y-75472419D01*
X148843076Y-75567657D01*
X148843076Y-75710514D01*
X148795457Y-75805752D01*
X148747838Y-75853371D01*
X148652600Y-75900990D01*
X148271647Y-75900990D01*
X149176409Y-75377180D02*
X149795457Y-75377180D01*
X149462123Y-75758133D01*
X149604980Y-75758133D01*
X149700219Y-75805752D01*
X149747838Y-75853371D01*
X149795457Y-75948609D01*
X149795457Y-76186704D01*
X149747838Y-76281942D01*
X149700219Y-76329561D01*
X149604980Y-76377180D01*
X149319266Y-76377180D01*
X149224028Y-76329561D01*
X149176409Y-76281942D01*
X150747838Y-76377180D02*
X150176409Y-76377180D01*
X150462123Y-76377180D02*
X150462123Y-75377180D01*
X150366885Y-75520038D01*
X150271647Y-75615276D01*
X150176409Y-75662895D01*
X151652600Y-75377180D02*
X151176409Y-75377180D01*
X151128790Y-75853371D01*
X151176409Y-75805752D01*
X151271647Y-75758133D01*
X151509742Y-75758133D01*
X151604980Y-75805752D01*
X151652600Y-75853371D01*
X151700219Y-75948609D01*
X151700219Y-76186704D01*
X151652600Y-76281942D01*
X151604980Y-76329561D01*
X151509742Y-76377180D01*
X151271647Y-76377180D01*
X151176409Y-76329561D01*
X151128790Y-76281942D01*
X152128790Y-76377180D02*
X152128790Y-75377180D01*
X152509742Y-75377180D01*
X152604980Y-75424800D01*
X152652600Y-75472419D01*
X152700219Y-75567657D01*
X152700219Y-75710514D01*
X152652600Y-75805752D01*
X152604980Y-75853371D01*
X152509742Y-75900990D01*
X152128790Y-75900990D01*
X153128790Y-76377180D02*
X153128790Y-75377180D01*
X153128790Y-75853371D02*
X153700219Y-75853371D01*
X153700219Y-76377180D02*
X153700219Y-75377180D01*
X154604980Y-75377180D02*
X154414504Y-75377180D01*
X154319266Y-75424800D01*
X154271647Y-75472419D01*
X154176409Y-75615276D01*
X154128790Y-75805752D01*
X154128790Y-76186704D01*
X154176409Y-76281942D01*
X154224028Y-76329561D01*
X154319266Y-76377180D01*
X154509742Y-76377180D01*
X154604980Y-76329561D01*
X154652600Y-76281942D01*
X154700219Y-76186704D01*
X154700219Y-75948609D01*
X154652600Y-75853371D01*
X154604980Y-75805752D01*
X154509742Y-75758133D01*
X154319266Y-75758133D01*
X154224028Y-75805752D01*
X154176409Y-75853371D01*
X154128790Y-75948609D01*
X155033552Y-75377180D02*
X155652600Y-75377180D01*
X155319266Y-75758133D01*
X155462123Y-75758133D01*
X155557361Y-75805752D01*
X155604980Y-75853371D01*
X155652600Y-75948609D01*
X155652600Y-76186704D01*
X155604980Y-76281942D01*
X155557361Y-76329561D01*
X155462123Y-76377180D01*
X155176409Y-76377180D01*
X155081171Y-76329561D01*
X155033552Y-76281942D01*
X156033552Y-75472419D02*
X156081171Y-75424800D01*
X156176409Y-75377180D01*
X156414504Y-75377180D01*
X156509742Y-75424800D01*
X156557361Y-75472419D01*
X156604980Y-75567657D01*
X156604980Y-75662895D01*
X156557361Y-75805752D01*
X155985933Y-76377180D01*
X156604980Y-76377180D01*
X156938314Y-75377180D02*
X157604980Y-75377180D01*
X157176409Y-76377180D01*
X157890695Y-75377180D02*
X158557361Y-76377180D01*
X158557361Y-75377180D02*
X157890695Y-76377180D01*
X158795457Y-75377180D02*
X159366885Y-75377180D01*
X159081171Y-76377180D02*
X159081171Y-75377180D01*
X159652600Y-76329561D02*
X159795457Y-76377180D01*
X160033552Y-76377180D01*
X160128790Y-76329561D01*
X160176409Y-76281942D01*
X160224028Y-76186704D01*
X160224028Y-76091466D01*
X160176409Y-75996228D01*
X160128790Y-75948609D01*
X160033552Y-75900990D01*
X159843076Y-75853371D01*
X159747838Y-75805752D01*
X159700219Y-75758133D01*
X159652600Y-75662895D01*
X159652600Y-75567657D01*
X159700219Y-75472419D01*
X159747838Y-75424800D01*
X159843076Y-75377180D01*
X160081171Y-75377180D01*
X160224028Y-75424800D01*
X160604980Y-76091466D02*
X161081171Y-76091466D01*
X160509742Y-76377180D02*
X160843076Y-75377180D01*
X161176409Y-76377180D01*
X162033552Y-76377180D02*
X161462123Y-76377180D01*
X161747838Y-76377180D02*
X161747838Y-75377180D01*
X161652600Y-75520038D01*
X161557361Y-75615276D01*
X161462123Y-75662895D01*
D13*
X154590695Y-71500990D02*
X154552600Y-71577180D01*
X154476409Y-71653371D01*
X154362123Y-71767657D01*
X154324028Y-71843847D01*
X154324028Y-71920038D01*
X154514504Y-71881942D02*
X154476409Y-71958133D01*
X154400219Y-72034323D01*
X154247838Y-72072419D01*
X153981171Y-72072419D01*
X153828790Y-72034323D01*
X153752600Y-71958133D01*
X153714504Y-71881942D01*
X153714504Y-71729561D01*
X153752600Y-71653371D01*
X153828790Y-71577180D01*
X153981171Y-71539085D01*
X154247838Y-71539085D01*
X154400219Y-71577180D01*
X154476409Y-71653371D01*
X154514504Y-71729561D01*
X154514504Y-71881942D01*
X154514504Y-70777180D02*
X154514504Y-71234323D01*
X154514504Y-71005752D02*
X153714504Y-71005752D01*
X153828790Y-71081942D01*
X153904980Y-71158133D01*
X153943076Y-71234323D01*
M02*
