G04 #@! TF.GenerationSoftware,KiCad,Pcbnew,(5.1.5)-3*
G04 #@! TF.CreationDate,2020-12-08T16:15:33+01:00*
G04 #@! TF.ProjectId,Microduino_UART,4d696372-6f64-4756-996e-6f5f55415254,0.0*
G04 #@! TF.SameCoordinates,Original*
G04 #@! TF.FileFunction,Legend,Bot*
G04 #@! TF.FilePolarity,Positive*
%FSLAX46Y46*%
G04 Gerber Fmt 4.6, Leading zero omitted, Abs format (unit mm)*
G04 Created by KiCad (PCBNEW (5.1.5)-3) date 2020-12-08 16:15:33*
%MOMM*%
%LPD*%
G04 APERTURE LIST*
%ADD10C,0.099200*%
%ADD11C,0.302400*%
%ADD12C,0.150000*%
%ADD13C,0.120000*%
%ADD14C,0.100140*%
%ADD15C,0.124600*%
G04 APERTURE END LIST*
D10*
X158085342Y-84864114D02*
X158392200Y-84864114D01*
X158422885Y-85170971D01*
X158392200Y-85140285D01*
X158330828Y-85109600D01*
X158177400Y-85109600D01*
X158116028Y-85140285D01*
X158085342Y-85170971D01*
X158054657Y-85232342D01*
X158054657Y-85385771D01*
X158085342Y-85447142D01*
X158116028Y-85477828D01*
X158177400Y-85508514D01*
X158330828Y-85508514D01*
X158392200Y-85477828D01*
X158422885Y-85447142D01*
X157870542Y-84864114D02*
X157655742Y-85508514D01*
X157440942Y-84864114D01*
X158710657Y-79428514D02*
X158311742Y-79428514D01*
X158526542Y-79674000D01*
X158434485Y-79674000D01*
X158373114Y-79704685D01*
X158342428Y-79735371D01*
X158311742Y-79796742D01*
X158311742Y-79950171D01*
X158342428Y-80011542D01*
X158373114Y-80042228D01*
X158434485Y-80072914D01*
X158618600Y-80072914D01*
X158679971Y-80042228D01*
X158710657Y-80011542D01*
X158035571Y-80011542D02*
X158004885Y-80042228D01*
X158035571Y-80072914D01*
X158066257Y-80042228D01*
X158035571Y-80011542D01*
X158035571Y-80072914D01*
X157790085Y-79428514D02*
X157391171Y-79428514D01*
X157605971Y-79674000D01*
X157513914Y-79674000D01*
X157452542Y-79704685D01*
X157421857Y-79735371D01*
X157391171Y-79796742D01*
X157391171Y-79950171D01*
X157421857Y-80011542D01*
X157452542Y-80042228D01*
X157513914Y-80072914D01*
X157698028Y-80072914D01*
X157759400Y-80042228D01*
X157790085Y-80011542D01*
X157207057Y-79428514D02*
X156992257Y-80072914D01*
X156777457Y-79428514D01*
D11*
X156104486Y-87960200D02*
G75*
G03X156104486Y-87960200I-148486J0D01*
G01*
D12*
X148437600Y-88112600D02*
X148717000Y-88341200D01*
X145262600Y-88112600D02*
X148437600Y-88112600D01*
D13*
X154855678Y-78753900D02*
X154338522Y-78753900D01*
X154855678Y-80173900D02*
X154338522Y-80173900D01*
X150626578Y-88507500D02*
X150109422Y-88507500D01*
X150626578Y-89927500D02*
X150109422Y-89927500D01*
X154271478Y-89940200D02*
X153754322Y-89940200D01*
X154271478Y-88520200D02*
X153754322Y-88520200D01*
X156389000Y-88155278D02*
X156389000Y-87638122D01*
X157809000Y-88155278D02*
X157809000Y-87638122D01*
X146981678Y-88507500D02*
X146464522Y-88507500D01*
X146981678Y-89927500D02*
X146464522Y-89927500D01*
X145936700Y-71699200D02*
X145936700Y-75519200D01*
X145936700Y-75519200D02*
X144156700Y-75519200D01*
X144156700Y-75519200D02*
X144156700Y-71699200D01*
X145936700Y-71699200D02*
X144156700Y-71699200D01*
X145936700Y-67355800D02*
X144156700Y-67355800D01*
X144156700Y-71175800D02*
X144156700Y-67355800D01*
X145936700Y-71175800D02*
X144156700Y-71175800D01*
X145936700Y-67355800D02*
X145936700Y-71175800D01*
D12*
X145169400Y-69263400D02*
X144069400Y-68163400D01*
X145169400Y-69263400D02*
X145169400Y-71063400D01*
X158769400Y-67963400D02*
X157769400Y-68963400D01*
X157769400Y-68963400D02*
X157769400Y-71763400D01*
D13*
X139919400Y-89493400D02*
X139919400Y-63973400D01*
X139919400Y-63973400D02*
X162899400Y-63973400D01*
X162899400Y-89493400D02*
X162899400Y-63973400D01*
X160239400Y-89493400D02*
X160239400Y-66633400D01*
X160239400Y-66633400D02*
X142579400Y-66633400D01*
X142579400Y-89493400D02*
X142579400Y-66633400D01*
X142579400Y-89493400D02*
X142579400Y-82683400D01*
X162899400Y-89493400D02*
X160239400Y-89493400D01*
X139919400Y-89493400D02*
X142579400Y-89493400D01*
X162899400Y-67843400D02*
X162899400Y-66513400D01*
X155729400Y-71379200D02*
X155729400Y-70449200D01*
X155729400Y-68219200D02*
X155729400Y-69149200D01*
X155729400Y-68219200D02*
X157889400Y-68219200D01*
X155729400Y-71379200D02*
X157189400Y-71379200D01*
X152921900Y-70133978D02*
X152921900Y-69616822D01*
X154341900Y-70133978D02*
X154341900Y-69616822D01*
X156189178Y-72581700D02*
X155672022Y-72581700D01*
X156189178Y-74001700D02*
X155672022Y-74001700D01*
X145295300Y-84366100D02*
X145295300Y-82416100D01*
X145295300Y-84366100D02*
X145295300Y-86316100D01*
X155415300Y-84366100D02*
X155415300Y-82416100D01*
X155415300Y-84366100D02*
X155415300Y-87816100D01*
X143231800Y-77770222D02*
X143231800Y-78287378D01*
X144651800Y-77770222D02*
X144651800Y-78287378D01*
X148010378Y-80110400D02*
X147493222Y-80110400D01*
X148010378Y-78690400D02*
X147493222Y-78690400D01*
X157059900Y-84383800D02*
X157059900Y-80563800D01*
X157059900Y-80563800D02*
X158839900Y-80563800D01*
X158839900Y-80563800D02*
X158839900Y-84383800D01*
X157059900Y-84383800D02*
X158839900Y-84383800D01*
X152373600Y-73856500D02*
X152373600Y-69306500D01*
X149073600Y-73856500D02*
X149073600Y-69306500D01*
X152373600Y-73856500D02*
X149073600Y-73856500D01*
D14*
X152266100Y-78893942D02*
X152296785Y-78924628D01*
X152388842Y-78955314D01*
X152450214Y-78955314D01*
X152542271Y-78924628D01*
X152603642Y-78863257D01*
X152634328Y-78801885D01*
X152665014Y-78679142D01*
X152665014Y-78587085D01*
X152634328Y-78464342D01*
X152603642Y-78402971D01*
X152542271Y-78341600D01*
X152450214Y-78310914D01*
X152388842Y-78310914D01*
X152296785Y-78341600D01*
X152266100Y-78372285D01*
X151652385Y-78955314D02*
X152020614Y-78955314D01*
X151836500Y-78955314D02*
X151836500Y-78310914D01*
X151897871Y-78402971D01*
X151959242Y-78464342D01*
X152020614Y-78495028D01*
D12*
X144777333Y-87985328D02*
X144812857Y-88020852D01*
X144919428Y-88056376D01*
X144990476Y-88056376D01*
X145097047Y-88020852D01*
X145168095Y-87949804D01*
X145203619Y-87878757D01*
X145239142Y-87736661D01*
X145239142Y-87630090D01*
X145203619Y-87487995D01*
X145168095Y-87416947D01*
X145097047Y-87345900D01*
X144990476Y-87310376D01*
X144919428Y-87310376D01*
X144812857Y-87345900D01*
X144777333Y-87381423D01*
X144493142Y-87381423D02*
X144457619Y-87345900D01*
X144386571Y-87310376D01*
X144208952Y-87310376D01*
X144137904Y-87345900D01*
X144102380Y-87381423D01*
X144066857Y-87452471D01*
X144066857Y-87523519D01*
X144102380Y-87630090D01*
X144528666Y-88056376D01*
X144066857Y-88056376D01*
D10*
X156444400Y-90307614D02*
X156467828Y-90331042D01*
X156538114Y-90354471D01*
X156584971Y-90354471D01*
X156655257Y-90331042D01*
X156702114Y-90284185D01*
X156725542Y-90237328D01*
X156748971Y-90143614D01*
X156748971Y-90073328D01*
X156725542Y-89979614D01*
X156702114Y-89932757D01*
X156655257Y-89885900D01*
X156584971Y-89862471D01*
X156538114Y-89862471D01*
X156467828Y-89885900D01*
X156444400Y-89909328D01*
X156280400Y-89862471D02*
X155975828Y-89862471D01*
X156139828Y-90049900D01*
X156069542Y-90049900D01*
X156022685Y-90073328D01*
X155999257Y-90096757D01*
X155975828Y-90143614D01*
X155975828Y-90260757D01*
X155999257Y-90307614D01*
X156022685Y-90331042D01*
X156069542Y-90354471D01*
X156210114Y-90354471D01*
X156256971Y-90331042D01*
X156280400Y-90307614D01*
D15*
X156524833Y-85839028D02*
X156560357Y-85874552D01*
X156666928Y-85910076D01*
X156737976Y-85910076D01*
X156844547Y-85874552D01*
X156915595Y-85803504D01*
X156951119Y-85732457D01*
X156986642Y-85590361D01*
X156986642Y-85483790D01*
X156951119Y-85341695D01*
X156915595Y-85270647D01*
X156844547Y-85199600D01*
X156737976Y-85164076D01*
X156666928Y-85164076D01*
X156560357Y-85199600D01*
X156524833Y-85235123D01*
X155885404Y-85412742D02*
X155885404Y-85910076D01*
X156063023Y-85128552D02*
X156240642Y-85661409D01*
X155778833Y-85661409D01*
D12*
X144370933Y-90236857D02*
X144413714Y-90279638D01*
X144542057Y-90322419D01*
X144627619Y-90322419D01*
X144755961Y-90279638D01*
X144841523Y-90194076D01*
X144884304Y-90108514D01*
X144927085Y-89937390D01*
X144927085Y-89809047D01*
X144884304Y-89637923D01*
X144841523Y-89552361D01*
X144755961Y-89466800D01*
X144627619Y-89424019D01*
X144542057Y-89424019D01*
X144413714Y-89466800D01*
X144370933Y-89509580D01*
X143558095Y-89424019D02*
X143985904Y-89424019D01*
X144028685Y-89851828D01*
X143985904Y-89809047D01*
X143900342Y-89766266D01*
X143686438Y-89766266D01*
X143600876Y-89809047D01*
X143558095Y-89851828D01*
X143515314Y-89937390D01*
X143515314Y-90151295D01*
X143558095Y-90236857D01*
X143600876Y-90279638D01*
X143686438Y-90322419D01*
X143900342Y-90322419D01*
X143985904Y-90279638D01*
X144028685Y-90236857D01*
X146338176Y-72987533D02*
X146871033Y-72987533D01*
X146977604Y-72952009D01*
X147048652Y-72880961D01*
X147084176Y-72774390D01*
X147084176Y-72703342D01*
X147084176Y-73342771D02*
X146338176Y-73342771D01*
X146338176Y-73626961D01*
X146373700Y-73698009D01*
X146409223Y-73733533D01*
X146480271Y-73769057D01*
X146586842Y-73769057D01*
X146657890Y-73733533D01*
X146693414Y-73698009D01*
X146728938Y-73626961D01*
X146728938Y-73342771D01*
X147084176Y-74479533D02*
X147084176Y-74053247D01*
X147084176Y-74266390D02*
X146338176Y-74266390D01*
X146444747Y-74195342D01*
X146515795Y-74124295D01*
X146551319Y-74053247D01*
X146338176Y-68644133D02*
X146871033Y-68644133D01*
X146977604Y-68608609D01*
X147048652Y-68537561D01*
X147084176Y-68430990D01*
X147084176Y-68359942D01*
X147084176Y-68999371D02*
X146338176Y-68999371D01*
X146338176Y-69283561D01*
X146373700Y-69354609D01*
X146409223Y-69390133D01*
X146480271Y-69425657D01*
X146586842Y-69425657D01*
X146657890Y-69390133D01*
X146693414Y-69354609D01*
X146728938Y-69283561D01*
X146728938Y-68999371D01*
X146409223Y-69709847D02*
X146373700Y-69745371D01*
X146338176Y-69816419D01*
X146338176Y-69994038D01*
X146373700Y-70065085D01*
X146409223Y-70100609D01*
X146480271Y-70136133D01*
X146551319Y-70136133D01*
X146657890Y-70100609D01*
X147084176Y-69674323D01*
X147084176Y-70136133D01*
X159767495Y-90292180D02*
X159767495Y-89292180D01*
X159386542Y-89292180D01*
X159291304Y-89339800D01*
X159243685Y-89387419D01*
X159196066Y-89482657D01*
X159196066Y-89625514D01*
X159243685Y-89720752D01*
X159291304Y-89768371D01*
X159386542Y-89815990D01*
X159767495Y-89815990D01*
X158243685Y-90292180D02*
X158815114Y-90292180D01*
X158529400Y-90292180D02*
X158529400Y-89292180D01*
X158624638Y-89435038D01*
X158719876Y-89530276D01*
X158815114Y-89577895D01*
X142969400Y-87553876D02*
X142931304Y-87477685D01*
X142931304Y-87363400D01*
X142969400Y-87249114D01*
X143045590Y-87172923D01*
X143121780Y-87134828D01*
X143274161Y-87096733D01*
X143388447Y-87096733D01*
X143540828Y-87134828D01*
X143617019Y-87172923D01*
X143693209Y-87249114D01*
X143731304Y-87363400D01*
X143731304Y-87439590D01*
X143693209Y-87553876D01*
X143655114Y-87591971D01*
X143388447Y-87591971D01*
X143388447Y-87439590D01*
X143731304Y-87934828D02*
X142931304Y-87934828D01*
X143731304Y-88391971D01*
X142931304Y-88391971D01*
X143731304Y-88772923D02*
X142931304Y-88772923D01*
X142931304Y-88963400D01*
X142969400Y-89077685D01*
X143045590Y-89153876D01*
X143121780Y-89191971D01*
X143274161Y-89230066D01*
X143388447Y-89230066D01*
X143540828Y-89191971D01*
X143617019Y-89153876D01*
X143693209Y-89077685D01*
X143731304Y-88963400D01*
X143731304Y-88772923D01*
X143731304Y-85225304D02*
X143350352Y-84958638D01*
X143731304Y-84768161D02*
X142931304Y-84768161D01*
X142931304Y-85072923D01*
X142969400Y-85149114D01*
X143007495Y-85187209D01*
X143083685Y-85225304D01*
X143197971Y-85225304D01*
X143274161Y-85187209D01*
X143312257Y-85149114D01*
X143350352Y-85072923D01*
X143350352Y-84768161D01*
X143693209Y-85530066D02*
X143731304Y-85644352D01*
X143731304Y-85834828D01*
X143693209Y-85911019D01*
X143655114Y-85949114D01*
X143578923Y-85987209D01*
X143502733Y-85987209D01*
X143426542Y-85949114D01*
X143388447Y-85911019D01*
X143350352Y-85834828D01*
X143312257Y-85682447D01*
X143274161Y-85606257D01*
X143236066Y-85568161D01*
X143159876Y-85530066D01*
X143083685Y-85530066D01*
X143007495Y-85568161D01*
X142969400Y-85606257D01*
X142931304Y-85682447D01*
X142931304Y-85872923D01*
X142969400Y-85987209D01*
X142931304Y-86215780D02*
X142931304Y-86672923D01*
X143731304Y-86444352D02*
X142931304Y-86444352D01*
X143731304Y-82472923D02*
X142931304Y-82472923D01*
X142931304Y-82663400D01*
X142969400Y-82777685D01*
X143045590Y-82853876D01*
X143121780Y-82891971D01*
X143274161Y-82930066D01*
X143388447Y-82930066D01*
X143540828Y-82891971D01*
X143617019Y-82853876D01*
X143693209Y-82777685D01*
X143731304Y-82663400D01*
X143731304Y-82472923D01*
X142931304Y-83615780D02*
X142931304Y-83463400D01*
X142969400Y-83387209D01*
X143007495Y-83349114D01*
X143121780Y-83272923D01*
X143274161Y-83234828D01*
X143578923Y-83234828D01*
X143655114Y-83272923D01*
X143693209Y-83311019D01*
X143731304Y-83387209D01*
X143731304Y-83539590D01*
X143693209Y-83615780D01*
X143655114Y-83653876D01*
X143578923Y-83691971D01*
X143388447Y-83691971D01*
X143312257Y-83653876D01*
X143274161Y-83615780D01*
X143236066Y-83539590D01*
X143236066Y-83387209D01*
X143274161Y-83311019D01*
X143312257Y-83272923D01*
X143388447Y-83234828D01*
X143731304Y-79972923D02*
X142931304Y-79972923D01*
X142931304Y-80163400D01*
X142969400Y-80277685D01*
X143045590Y-80353876D01*
X143121780Y-80391971D01*
X143274161Y-80430066D01*
X143388447Y-80430066D01*
X143540828Y-80391971D01*
X143617019Y-80353876D01*
X143693209Y-80277685D01*
X143731304Y-80163400D01*
X143731304Y-79972923D01*
X142931304Y-81153876D02*
X142931304Y-80772923D01*
X143312257Y-80734828D01*
X143274161Y-80772923D01*
X143236066Y-80849114D01*
X143236066Y-81039590D01*
X143274161Y-81115780D01*
X143312257Y-81153876D01*
X143388447Y-81191971D01*
X143578923Y-81191971D01*
X143655114Y-81153876D01*
X143693209Y-81115780D01*
X143731304Y-81039590D01*
X143731304Y-80849114D01*
X143693209Y-80772923D01*
X143655114Y-80734828D01*
X143731304Y-77372923D02*
X142931304Y-77372923D01*
X142931304Y-77563400D01*
X142969400Y-77677685D01*
X143045590Y-77753876D01*
X143121780Y-77791971D01*
X143274161Y-77830066D01*
X143388447Y-77830066D01*
X143540828Y-77791971D01*
X143617019Y-77753876D01*
X143693209Y-77677685D01*
X143731304Y-77563400D01*
X143731304Y-77372923D01*
X143197971Y-78515780D02*
X143731304Y-78515780D01*
X142893209Y-78325304D02*
X143464638Y-78134828D01*
X143464638Y-78630066D01*
X143757604Y-74326823D02*
X142957604Y-74326823D01*
X142957604Y-74517300D01*
X142995700Y-74631585D01*
X143071890Y-74707776D01*
X143148080Y-74745871D01*
X143300461Y-74783966D01*
X143414747Y-74783966D01*
X143567128Y-74745871D01*
X143643319Y-74707776D01*
X143719509Y-74631585D01*
X143757604Y-74517300D01*
X143757604Y-74326823D01*
X142957604Y-75050633D02*
X142957604Y-75545871D01*
X143262366Y-75279204D01*
X143262366Y-75393490D01*
X143300461Y-75469680D01*
X143338557Y-75507776D01*
X143414747Y-75545871D01*
X143605223Y-75545871D01*
X143681414Y-75507776D01*
X143719509Y-75469680D01*
X143757604Y-75393490D01*
X143757604Y-75164919D01*
X143719509Y-75088728D01*
X143681414Y-75050633D01*
X143719504Y-71723323D02*
X142919504Y-71723323D01*
X142919504Y-71913800D01*
X142957600Y-72028085D01*
X143033790Y-72104276D01*
X143109980Y-72142371D01*
X143262361Y-72180466D01*
X143376647Y-72180466D01*
X143529028Y-72142371D01*
X143605219Y-72104276D01*
X143681409Y-72028085D01*
X143719504Y-71913800D01*
X143719504Y-71723323D01*
X143719504Y-72942371D02*
X143719504Y-72485228D01*
X143719504Y-72713800D02*
X142919504Y-72713800D01*
X143033790Y-72637609D01*
X143109980Y-72561419D01*
X143148076Y-72485228D01*
X143731304Y-69772923D02*
X142931304Y-69772923D01*
X142931304Y-69963400D01*
X142969400Y-70077685D01*
X143045590Y-70153876D01*
X143121780Y-70191971D01*
X143274161Y-70230066D01*
X143388447Y-70230066D01*
X143540828Y-70191971D01*
X143617019Y-70153876D01*
X143693209Y-70077685D01*
X143731304Y-69963400D01*
X143731304Y-69772923D01*
X143007495Y-70534828D02*
X142969400Y-70572923D01*
X142931304Y-70649114D01*
X142931304Y-70839590D01*
X142969400Y-70915780D01*
X143007495Y-70953876D01*
X143083685Y-70991971D01*
X143159876Y-70991971D01*
X143274161Y-70953876D01*
X143731304Y-70496733D01*
X143731304Y-70991971D01*
X143731304Y-67272923D02*
X142931304Y-67272923D01*
X142931304Y-67463400D01*
X142969400Y-67577685D01*
X143045590Y-67653876D01*
X143121780Y-67691971D01*
X143274161Y-67730066D01*
X143388447Y-67730066D01*
X143540828Y-67691971D01*
X143617019Y-67653876D01*
X143693209Y-67577685D01*
X143731304Y-67463400D01*
X143731304Y-67272923D01*
X142931304Y-68225304D02*
X142931304Y-68301495D01*
X142969400Y-68377685D01*
X143007495Y-68415780D01*
X143083685Y-68453876D01*
X143236066Y-68491971D01*
X143426542Y-68491971D01*
X143578923Y-68453876D01*
X143655114Y-68415780D01*
X143693209Y-68377685D01*
X143731304Y-68301495D01*
X143731304Y-68225304D01*
X143693209Y-68149114D01*
X143655114Y-68111019D01*
X143578923Y-68072923D01*
X143426542Y-68034828D01*
X143236066Y-68034828D01*
X143083685Y-68072923D01*
X143007495Y-68111019D01*
X142969400Y-68149114D01*
X142931304Y-68225304D01*
X148355009Y-67005319D02*
X148393104Y-67119604D01*
X148393104Y-67310080D01*
X148355009Y-67386271D01*
X148316914Y-67424366D01*
X148240723Y-67462461D01*
X148164533Y-67462461D01*
X148088342Y-67424366D01*
X148050247Y-67386271D01*
X148012152Y-67310080D01*
X147974057Y-67157700D01*
X147935961Y-67081509D01*
X147897866Y-67043414D01*
X147821676Y-67005319D01*
X147745485Y-67005319D01*
X147669295Y-67043414D01*
X147631200Y-67081509D01*
X147593104Y-67157700D01*
X147593104Y-67348176D01*
X147631200Y-67462461D01*
X148316914Y-68262461D02*
X148355009Y-68224366D01*
X148393104Y-68110080D01*
X148393104Y-68033890D01*
X148355009Y-67919604D01*
X148278819Y-67843414D01*
X148202628Y-67805319D01*
X148050247Y-67767223D01*
X147935961Y-67767223D01*
X147783580Y-67805319D01*
X147707390Y-67843414D01*
X147631200Y-67919604D01*
X147593104Y-68033890D01*
X147593104Y-68110080D01*
X147631200Y-68224366D01*
X147669295Y-68262461D01*
X148393104Y-68986271D02*
X148393104Y-68605319D01*
X147593104Y-68605319D01*
X149688509Y-66986271D02*
X149726604Y-67100557D01*
X149726604Y-67291033D01*
X149688509Y-67367223D01*
X149650414Y-67405319D01*
X149574223Y-67443414D01*
X149498033Y-67443414D01*
X149421842Y-67405319D01*
X149383747Y-67367223D01*
X149345652Y-67291033D01*
X149307557Y-67138652D01*
X149269461Y-67062461D01*
X149231366Y-67024366D01*
X149155176Y-66986271D01*
X149078985Y-66986271D01*
X149002795Y-67024366D01*
X148964700Y-67062461D01*
X148926604Y-67138652D01*
X148926604Y-67329128D01*
X148964700Y-67443414D01*
X149726604Y-67786271D02*
X148926604Y-67786271D01*
X148926604Y-67976747D01*
X148964700Y-68091033D01*
X149040890Y-68167223D01*
X149117080Y-68205319D01*
X149269461Y-68243414D01*
X149383747Y-68243414D01*
X149536128Y-68205319D01*
X149612319Y-68167223D01*
X149688509Y-68091033D01*
X149726604Y-67976747D01*
X149726604Y-67786271D01*
X149498033Y-68548176D02*
X149498033Y-68929128D01*
X149726604Y-68471985D02*
X148926604Y-68738652D01*
X149726604Y-69005319D01*
X151930028Y-67506833D02*
X151549076Y-67506833D01*
X152006219Y-67735404D02*
X151739552Y-66935404D01*
X151472885Y-67735404D01*
X151282409Y-66935404D02*
X150787171Y-66935404D01*
X151053838Y-67240166D01*
X150939552Y-67240166D01*
X150863361Y-67278261D01*
X150825266Y-67316357D01*
X150787171Y-67392547D01*
X150787171Y-67583023D01*
X150825266Y-67659214D01*
X150863361Y-67697309D01*
X150939552Y-67735404D01*
X151168123Y-67735404D01*
X151244314Y-67697309D01*
X151282409Y-67659214D01*
X154520828Y-67494133D02*
X154139876Y-67494133D01*
X154597019Y-67722704D02*
X154330352Y-66922704D01*
X154063685Y-67722704D01*
X153835114Y-66998895D02*
X153797019Y-66960800D01*
X153720828Y-66922704D01*
X153530352Y-66922704D01*
X153454161Y-66960800D01*
X153416066Y-66998895D01*
X153377971Y-67075085D01*
X153377971Y-67151276D01*
X153416066Y-67265561D01*
X153873209Y-67722704D01*
X153377971Y-67722704D01*
X157035428Y-67519533D02*
X156654476Y-67519533D01*
X157111619Y-67748104D02*
X156844952Y-66948104D01*
X156578285Y-67748104D01*
X155892571Y-67748104D02*
X156349714Y-67748104D01*
X156121142Y-67748104D02*
X156121142Y-66948104D01*
X156197333Y-67062390D01*
X156273523Y-67138580D01*
X156349714Y-67176676D01*
X158597528Y-67519533D02*
X158216576Y-67519533D01*
X158673719Y-67748104D02*
X158407052Y-66948104D01*
X158140385Y-67748104D01*
X157721338Y-66948104D02*
X157645147Y-66948104D01*
X157568957Y-66986200D01*
X157530861Y-67024295D01*
X157492766Y-67100485D01*
X157454671Y-67252866D01*
X157454671Y-67443342D01*
X157492766Y-67595723D01*
X157530861Y-67671914D01*
X157568957Y-67710009D01*
X157645147Y-67748104D01*
X157721338Y-67748104D01*
X157797528Y-67710009D01*
X157835623Y-67671914D01*
X157873719Y-67595723D01*
X157911814Y-67443342D01*
X157911814Y-67252866D01*
X157873719Y-67100485D01*
X157835623Y-67024295D01*
X157797528Y-66986200D01*
X157721338Y-66948104D01*
X159731304Y-66891971D02*
X158931304Y-66891971D01*
X158931304Y-67082447D01*
X158969400Y-67196733D01*
X159045590Y-67272923D01*
X159121780Y-67311019D01*
X159274161Y-67349114D01*
X159388447Y-67349114D01*
X159540828Y-67311019D01*
X159617019Y-67272923D01*
X159693209Y-67196733D01*
X159731304Y-67082447D01*
X159731304Y-66891971D01*
X159731304Y-68111019D02*
X159731304Y-67653876D01*
X159731304Y-67882447D02*
X158931304Y-67882447D01*
X159045590Y-67806257D01*
X159121780Y-67730066D01*
X159159876Y-67653876D01*
X158931304Y-68377685D02*
X158931304Y-68872923D01*
X159236066Y-68606257D01*
X159236066Y-68720542D01*
X159274161Y-68796733D01*
X159312257Y-68834828D01*
X159388447Y-68872923D01*
X159578923Y-68872923D01*
X159655114Y-68834828D01*
X159693209Y-68796733D01*
X159731304Y-68720542D01*
X159731304Y-68491971D01*
X159693209Y-68415780D01*
X159655114Y-68377685D01*
X159731304Y-69391971D02*
X158931304Y-69391971D01*
X158931304Y-69582447D01*
X158969400Y-69696733D01*
X159045590Y-69772923D01*
X159121780Y-69811019D01*
X159274161Y-69849114D01*
X159388447Y-69849114D01*
X159540828Y-69811019D01*
X159617019Y-69772923D01*
X159693209Y-69696733D01*
X159731304Y-69582447D01*
X159731304Y-69391971D01*
X159731304Y-70611019D02*
X159731304Y-70153876D01*
X159731304Y-70382447D02*
X158931304Y-70382447D01*
X159045590Y-70306257D01*
X159121780Y-70230066D01*
X159159876Y-70153876D01*
X159007495Y-70915780D02*
X158969400Y-70953876D01*
X158931304Y-71030066D01*
X158931304Y-71220542D01*
X158969400Y-71296733D01*
X159007495Y-71334828D01*
X159083685Y-71372923D01*
X159159876Y-71372923D01*
X159274161Y-71334828D01*
X159731304Y-70877685D01*
X159731304Y-71372923D01*
X159731304Y-71991971D02*
X158931304Y-71991971D01*
X158931304Y-72182447D01*
X158969400Y-72296733D01*
X159045590Y-72372923D01*
X159121780Y-72411019D01*
X159274161Y-72449114D01*
X159388447Y-72449114D01*
X159540828Y-72411019D01*
X159617019Y-72372923D01*
X159693209Y-72296733D01*
X159731304Y-72182447D01*
X159731304Y-71991971D01*
X159731304Y-73211019D02*
X159731304Y-72753876D01*
X159731304Y-72982447D02*
X158931304Y-72982447D01*
X159045590Y-72906257D01*
X159121780Y-72830066D01*
X159159876Y-72753876D01*
X159731304Y-73972923D02*
X159731304Y-73515780D01*
X159731304Y-73744352D02*
X158931304Y-73744352D01*
X159045590Y-73668161D01*
X159121780Y-73591971D01*
X159159876Y-73515780D01*
X159731304Y-74491971D02*
X158931304Y-74491971D01*
X158931304Y-74682447D01*
X158969400Y-74796733D01*
X159045590Y-74872923D01*
X159121780Y-74911019D01*
X159274161Y-74949114D01*
X159388447Y-74949114D01*
X159540828Y-74911019D01*
X159617019Y-74872923D01*
X159693209Y-74796733D01*
X159731304Y-74682447D01*
X159731304Y-74491971D01*
X159731304Y-75711019D02*
X159731304Y-75253876D01*
X159731304Y-75482447D02*
X158931304Y-75482447D01*
X159045590Y-75406257D01*
X159121780Y-75330066D01*
X159159876Y-75253876D01*
X158931304Y-76206257D02*
X158931304Y-76282447D01*
X158969400Y-76358638D01*
X159007495Y-76396733D01*
X159083685Y-76434828D01*
X159236066Y-76472923D01*
X159426542Y-76472923D01*
X159578923Y-76434828D01*
X159655114Y-76396733D01*
X159693209Y-76358638D01*
X159731304Y-76282447D01*
X159731304Y-76206257D01*
X159693209Y-76130066D01*
X159655114Y-76091971D01*
X159578923Y-76053876D01*
X159426542Y-76015780D01*
X159236066Y-76015780D01*
X159083685Y-76053876D01*
X159007495Y-76091971D01*
X158969400Y-76130066D01*
X158931304Y-76206257D01*
X159731304Y-77372923D02*
X158931304Y-77372923D01*
X158931304Y-77563400D01*
X158969400Y-77677685D01*
X159045590Y-77753876D01*
X159121780Y-77791971D01*
X159274161Y-77830066D01*
X159388447Y-77830066D01*
X159540828Y-77791971D01*
X159617019Y-77753876D01*
X159693209Y-77677685D01*
X159731304Y-77563400D01*
X159731304Y-77372923D01*
X159731304Y-78211019D02*
X159731304Y-78363400D01*
X159693209Y-78439590D01*
X159655114Y-78477685D01*
X159540828Y-78553876D01*
X159388447Y-78591971D01*
X159083685Y-78591971D01*
X159007495Y-78553876D01*
X158969400Y-78515780D01*
X158931304Y-78439590D01*
X158931304Y-78287209D01*
X158969400Y-78211019D01*
X159007495Y-78172923D01*
X159083685Y-78134828D01*
X159274161Y-78134828D01*
X159350352Y-78172923D01*
X159388447Y-78211019D01*
X159426542Y-78287209D01*
X159426542Y-78439590D01*
X159388447Y-78515780D01*
X159350352Y-78553876D01*
X159274161Y-78591971D01*
X159731304Y-79972923D02*
X158931304Y-79972923D01*
X158931304Y-80163400D01*
X158969400Y-80277685D01*
X159045590Y-80353876D01*
X159121780Y-80391971D01*
X159274161Y-80430066D01*
X159388447Y-80430066D01*
X159540828Y-80391971D01*
X159617019Y-80353876D01*
X159693209Y-80277685D01*
X159731304Y-80163400D01*
X159731304Y-79972923D01*
X159274161Y-80887209D02*
X159236066Y-80811019D01*
X159197971Y-80772923D01*
X159121780Y-80734828D01*
X159083685Y-80734828D01*
X159007495Y-80772923D01*
X158969400Y-80811019D01*
X158931304Y-80887209D01*
X158931304Y-81039590D01*
X158969400Y-81115780D01*
X159007495Y-81153876D01*
X159083685Y-81191971D01*
X159121780Y-81191971D01*
X159197971Y-81153876D01*
X159236066Y-81115780D01*
X159274161Y-81039590D01*
X159274161Y-80887209D01*
X159312257Y-80811019D01*
X159350352Y-80772923D01*
X159426542Y-80734828D01*
X159578923Y-80734828D01*
X159655114Y-80772923D01*
X159693209Y-80811019D01*
X159731304Y-80887209D01*
X159731304Y-81039590D01*
X159693209Y-81115780D01*
X159655114Y-81153876D01*
X159578923Y-81191971D01*
X159426542Y-81191971D01*
X159350352Y-81153876D01*
X159312257Y-81115780D01*
X159274161Y-81039590D01*
X159731304Y-82472923D02*
X158931304Y-82472923D01*
X158931304Y-82663400D01*
X158969400Y-82777685D01*
X159045590Y-82853876D01*
X159121780Y-82891971D01*
X159274161Y-82930066D01*
X159388447Y-82930066D01*
X159540828Y-82891971D01*
X159617019Y-82853876D01*
X159693209Y-82777685D01*
X159731304Y-82663400D01*
X159731304Y-82472923D01*
X158931304Y-83196733D02*
X158931304Y-83730066D01*
X159731304Y-83387209D01*
X158931304Y-84672923D02*
X158931304Y-85168161D01*
X159236066Y-84901495D01*
X159236066Y-85015780D01*
X159274161Y-85091971D01*
X159312257Y-85130066D01*
X159388447Y-85168161D01*
X159578923Y-85168161D01*
X159655114Y-85130066D01*
X159693209Y-85091971D01*
X159731304Y-85015780D01*
X159731304Y-84787209D01*
X159693209Y-84711019D01*
X159655114Y-84672923D01*
X158931304Y-85396733D02*
X159731304Y-85663400D01*
X158931304Y-85930066D01*
X158931304Y-86120542D02*
X158931304Y-86615780D01*
X159236066Y-86349114D01*
X159236066Y-86463400D01*
X159274161Y-86539590D01*
X159312257Y-86577685D01*
X159388447Y-86615780D01*
X159578923Y-86615780D01*
X159655114Y-86577685D01*
X159693209Y-86539590D01*
X159731304Y-86463400D01*
X159731304Y-86234828D01*
X159693209Y-86158638D01*
X159655114Y-86120542D01*
X158931304Y-88011019D02*
X158931304Y-87630066D01*
X159312257Y-87591971D01*
X159274161Y-87630066D01*
X159236066Y-87706257D01*
X159236066Y-87896733D01*
X159274161Y-87972923D01*
X159312257Y-88011019D01*
X159388447Y-88049114D01*
X159578923Y-88049114D01*
X159655114Y-88011019D01*
X159693209Y-87972923D01*
X159731304Y-87896733D01*
X159731304Y-87706257D01*
X159693209Y-87630066D01*
X159655114Y-87591971D01*
X158931304Y-88277685D02*
X159731304Y-88544352D01*
X158931304Y-88811019D01*
D15*
X158163671Y-72272985D02*
X158225042Y-72242300D01*
X158286414Y-72180928D01*
X158378471Y-72088871D01*
X158439842Y-72058185D01*
X158501214Y-72058185D01*
X158470528Y-72211614D02*
X158531900Y-72180928D01*
X158593271Y-72119557D01*
X158623957Y-71996814D01*
X158623957Y-71782014D01*
X158593271Y-71659271D01*
X158531900Y-71597900D01*
X158470528Y-71567214D01*
X158347785Y-71567214D01*
X158286414Y-71597900D01*
X158225042Y-71659271D01*
X158194357Y-71782014D01*
X158194357Y-71996814D01*
X158225042Y-72119557D01*
X158286414Y-72180928D01*
X158347785Y-72211614D01*
X158470528Y-72211614D01*
X157948871Y-71628585D02*
X157918185Y-71597900D01*
X157856814Y-71567214D01*
X157703385Y-71567214D01*
X157642014Y-71597900D01*
X157611328Y-71628585D01*
X157580642Y-71689957D01*
X157580642Y-71751328D01*
X157611328Y-71843385D01*
X157979557Y-72211614D01*
X157580642Y-72211614D01*
X153688500Y-72313214D02*
X153903300Y-72006357D01*
X154056728Y-72313214D02*
X154056728Y-71668814D01*
X153811242Y-71668814D01*
X153749871Y-71699500D01*
X153719185Y-71730185D01*
X153688500Y-71791557D01*
X153688500Y-71883614D01*
X153719185Y-71944985D01*
X153749871Y-71975671D01*
X153811242Y-72006357D01*
X154056728Y-72006357D01*
X153074785Y-72313214D02*
X153443014Y-72313214D01*
X153258900Y-72313214D02*
X153258900Y-71668814D01*
X153320271Y-71760871D01*
X153381642Y-71822242D01*
X153443014Y-71852928D01*
X156482500Y-75158014D02*
X156697300Y-74851157D01*
X156850728Y-75158014D02*
X156850728Y-74513614D01*
X156605242Y-74513614D01*
X156543871Y-74544300D01*
X156513185Y-74574985D01*
X156482500Y-74636357D01*
X156482500Y-74728414D01*
X156513185Y-74789785D01*
X156543871Y-74820471D01*
X156605242Y-74851157D01*
X156850728Y-74851157D01*
X156237014Y-74574985D02*
X156206328Y-74544300D01*
X156144957Y-74513614D01*
X155991528Y-74513614D01*
X155930157Y-74544300D01*
X155899471Y-74574985D01*
X155868785Y-74636357D01*
X155868785Y-74697728D01*
X155899471Y-74789785D01*
X156267700Y-75158014D01*
X155868785Y-75158014D01*
D10*
X152611571Y-79758714D02*
X152611571Y-80280371D01*
X152580885Y-80341742D01*
X152550200Y-80372428D01*
X152488828Y-80403114D01*
X152366085Y-80403114D01*
X152304714Y-80372428D01*
X152274028Y-80341742D01*
X152243342Y-80280371D01*
X152243342Y-79758714D01*
X151598942Y-80403114D02*
X151967171Y-80403114D01*
X151783057Y-80403114D02*
X151783057Y-79758714D01*
X151844428Y-79850771D01*
X151905800Y-79912142D01*
X151967171Y-79942828D01*
X145204900Y-80341742D02*
X145235585Y-80372428D01*
X145327642Y-80403114D01*
X145389014Y-80403114D01*
X145481071Y-80372428D01*
X145542442Y-80311057D01*
X145573128Y-80249685D01*
X145603814Y-80126942D01*
X145603814Y-80034885D01*
X145573128Y-79912142D01*
X145542442Y-79850771D01*
X145481071Y-79789400D01*
X145389014Y-79758714D01*
X145327642Y-79758714D01*
X145235585Y-79789400D01*
X145204900Y-79820085D01*
X144652557Y-79758714D02*
X144775300Y-79758714D01*
X144836671Y-79789400D01*
X144867357Y-79820085D01*
X144928728Y-79912142D01*
X144959414Y-80034885D01*
X144959414Y-80280371D01*
X144928728Y-80341742D01*
X144898042Y-80372428D01*
X144836671Y-80403114D01*
X144713928Y-80403114D01*
X144652557Y-80372428D01*
X144621871Y-80341742D01*
X144591185Y-80280371D01*
X144591185Y-80126942D01*
X144621871Y-80065571D01*
X144652557Y-80034885D01*
X144713928Y-80004200D01*
X144836671Y-80004200D01*
X144898042Y-80034885D01*
X144928728Y-80065571D01*
X144959414Y-80126942D01*
X150246800Y-78881242D02*
X150277485Y-78911928D01*
X150369542Y-78942614D01*
X150430914Y-78942614D01*
X150522971Y-78911928D01*
X150584342Y-78850557D01*
X150615028Y-78789185D01*
X150645714Y-78666442D01*
X150645714Y-78574385D01*
X150615028Y-78451642D01*
X150584342Y-78390271D01*
X150522971Y-78328900D01*
X150430914Y-78298214D01*
X150369542Y-78298214D01*
X150277485Y-78328900D01*
X150246800Y-78359585D01*
X150032000Y-78298214D02*
X149602400Y-78298214D01*
X149878571Y-78942614D01*
X155927700Y-82028857D02*
X155897014Y-81967485D01*
X155897014Y-81875428D01*
X155927700Y-81783371D01*
X155989071Y-81722000D01*
X156050442Y-81691314D01*
X156173185Y-81660628D01*
X156265242Y-81660628D01*
X156387985Y-81691314D01*
X156449357Y-81722000D01*
X156510728Y-81783371D01*
X156541414Y-81875428D01*
X156541414Y-81936800D01*
X156510728Y-82028857D01*
X156480042Y-82059542D01*
X156265242Y-82059542D01*
X156265242Y-81936800D01*
X156510728Y-82305028D02*
X156541414Y-82397085D01*
X156541414Y-82550514D01*
X156510728Y-82611885D01*
X156480042Y-82642571D01*
X156418671Y-82673257D01*
X156357300Y-82673257D01*
X156295928Y-82642571D01*
X156265242Y-82611885D01*
X156234557Y-82550514D01*
X156203871Y-82427771D01*
X156173185Y-82366400D01*
X156142500Y-82335714D01*
X156081128Y-82305028D01*
X156019757Y-82305028D01*
X155958385Y-82335714D01*
X155927700Y-82366400D01*
X155897014Y-82427771D01*
X155897014Y-82581200D01*
X155927700Y-82673257D01*
X155958385Y-82918742D02*
X155927700Y-82949428D01*
X155897014Y-83010800D01*
X155897014Y-83164228D01*
X155927700Y-83225600D01*
X155958385Y-83256285D01*
X156019757Y-83286971D01*
X156081128Y-83286971D01*
X156173185Y-83256285D01*
X156541414Y-82888057D01*
X156541414Y-83286971D01*
D12*
X150864866Y-75312542D02*
X150912485Y-75360161D01*
X151055342Y-75407780D01*
X151150580Y-75407780D01*
X151293438Y-75360161D01*
X151388676Y-75264923D01*
X151436295Y-75169685D01*
X151483914Y-74979209D01*
X151483914Y-74836352D01*
X151436295Y-74645876D01*
X151388676Y-74550638D01*
X151293438Y-74455400D01*
X151150580Y-74407780D01*
X151055342Y-74407780D01*
X150912485Y-74455400D01*
X150864866Y-74503019D01*
X150293438Y-74836352D02*
X150388676Y-74788733D01*
X150436295Y-74741114D01*
X150483914Y-74645876D01*
X150483914Y-74598257D01*
X150436295Y-74503019D01*
X150388676Y-74455400D01*
X150293438Y-74407780D01*
X150102961Y-74407780D01*
X150007723Y-74455400D01*
X149960104Y-74503019D01*
X149912485Y-74598257D01*
X149912485Y-74645876D01*
X149960104Y-74741114D01*
X150007723Y-74788733D01*
X150102961Y-74836352D01*
X150293438Y-74836352D01*
X150388676Y-74883971D01*
X150436295Y-74931590D01*
X150483914Y-75026828D01*
X150483914Y-75217304D01*
X150436295Y-75312542D01*
X150388676Y-75360161D01*
X150293438Y-75407780D01*
X150102961Y-75407780D01*
X150007723Y-75360161D01*
X149960104Y-75312542D01*
X149912485Y-75217304D01*
X149912485Y-75026828D01*
X149960104Y-74931590D01*
X150007723Y-74883971D01*
X150102961Y-74836352D01*
M02*
