M48
; DRILL file {KiCad (5.1.5)-3} date 08/12/2020 16:15:39
; FORMAT={-:-/ absolute / inch / decimal}
; #@! TF.CreationDate,2020-12-08T16:15:39+01:00
; #@! TF.GenerationSoftware,Kicad,Pcbnew,(5.1.5)-3
; #@! TF.FileFunction,Plated,1,2,PTH
FMAT,2
INCH
T1C0.0157
T2C0.0197
T3C0.0335
T4C0.0591
%
G90
G05
T1
X5.643Y-2.7295
X5.658Y-3.3835
X5.6615Y-3.5015
X5.6635Y-3.2085
X5.7415Y-3.317
X5.843Y-2.6885
X5.869Y-3.317
X5.9445Y-3.1415
X6.0Y-3.317
X6.016Y-2.8575
X6.0485Y-2.88
X6.108Y-2.6975
X6.11Y-2.937
X6.231Y-3.1075
X6.2775Y-3.517
T2
X5.8365Y-2.854
X5.856Y-2.932
X6.204Y-2.9735
T3
X5.76Y-3.0345
X5.86Y-3.0345
X5.96Y-3.0345
X6.06Y-3.0345
X6.16Y-3.0345
T4
X5.561Y-2.571
X5.561Y-2.671
X5.561Y-2.771
X5.561Y-2.871
X5.561Y-2.971
X5.561Y-3.071
X5.561Y-3.171
X5.561Y-3.271
X5.561Y-3.371
X5.561Y-3.471
X5.661Y-2.571
X5.761Y-2.571
X5.861Y-2.571
X5.961Y-2.571
X6.061Y-2.571
X6.161Y-2.571
X6.261Y-2.571
X6.361Y-2.571
X6.361Y-2.671
X6.361Y-2.771
X6.361Y-2.871
X6.361Y-2.971
X6.361Y-3.071
X6.361Y-3.171
X6.361Y-3.271
X6.361Y-3.371
X6.361Y-3.471
T0
M30
