G04 #@! TF.GenerationSoftware,KiCad,Pcbnew,(5.1.5)-3*
G04 #@! TF.CreationDate,2020-12-08T16:15:33+01:00*
G04 #@! TF.ProjectId,Microduino_UART,4d696372-6f64-4756-996e-6f5f55415254,0.0*
G04 #@! TF.SameCoordinates,Original*
G04 #@! TF.FileFunction,Soldermask,Bot*
G04 #@! TF.FilePolarity,Negative*
%FSLAX46Y46*%
G04 Gerber Fmt 4.6, Leading zero omitted, Abs format (unit mm)*
G04 Created by KiCad (PCBNEW (5.1.5)-3) date 2020-12-08 16:15:33*
%MOMM*%
%LPD*%
G04 APERTURE LIST*
%ADD10C,0.100000*%
%ADD11R,2.100000X2.100000*%
%ADD12C,2.100000*%
%ADD13R,1.670000X1.370000*%
%ADD14C,2.500000*%
%ADD15R,1.300000X1.200000*%
%ADD16R,2.900000X2.350000*%
G04 APERTURE END LIST*
D10*
G36*
X155912043Y-78565555D02*
G01*
X155945412Y-78570505D01*
X155978135Y-78578702D01*
X156009897Y-78590066D01*
X156040393Y-78604490D01*
X156069327Y-78621832D01*
X156096423Y-78641928D01*
X156121418Y-78664582D01*
X156144072Y-78689577D01*
X156164168Y-78716673D01*
X156181510Y-78745607D01*
X156195934Y-78776103D01*
X156207298Y-78807865D01*
X156215495Y-78840588D01*
X156220445Y-78873957D01*
X156222100Y-78907650D01*
X156222100Y-80020150D01*
X156220445Y-80053843D01*
X156215495Y-80087212D01*
X156207298Y-80119935D01*
X156195934Y-80151697D01*
X156181510Y-80182193D01*
X156164168Y-80211127D01*
X156144072Y-80238223D01*
X156121418Y-80263218D01*
X156096423Y-80285872D01*
X156069327Y-80305968D01*
X156040393Y-80323310D01*
X156009897Y-80337734D01*
X155978135Y-80349098D01*
X155945412Y-80357295D01*
X155912043Y-80362245D01*
X155878350Y-80363900D01*
X155190850Y-80363900D01*
X155157157Y-80362245D01*
X155123788Y-80357295D01*
X155091065Y-80349098D01*
X155059303Y-80337734D01*
X155028807Y-80323310D01*
X154999873Y-80305968D01*
X154972777Y-80285872D01*
X154947782Y-80263218D01*
X154925128Y-80238223D01*
X154905032Y-80211127D01*
X154887690Y-80182193D01*
X154873266Y-80151697D01*
X154861902Y-80119935D01*
X154853705Y-80087212D01*
X154848755Y-80053843D01*
X154847100Y-80020150D01*
X154847100Y-78907650D01*
X154848755Y-78873957D01*
X154853705Y-78840588D01*
X154861902Y-78807865D01*
X154873266Y-78776103D01*
X154887690Y-78745607D01*
X154905032Y-78716673D01*
X154925128Y-78689577D01*
X154947782Y-78664582D01*
X154972777Y-78641928D01*
X154999873Y-78621832D01*
X155028807Y-78604490D01*
X155059303Y-78590066D01*
X155091065Y-78578702D01*
X155123788Y-78570505D01*
X155157157Y-78565555D01*
X155190850Y-78563900D01*
X155878350Y-78563900D01*
X155912043Y-78565555D01*
G37*
G36*
X154037043Y-78565555D02*
G01*
X154070412Y-78570505D01*
X154103135Y-78578702D01*
X154134897Y-78590066D01*
X154165393Y-78604490D01*
X154194327Y-78621832D01*
X154221423Y-78641928D01*
X154246418Y-78664582D01*
X154269072Y-78689577D01*
X154289168Y-78716673D01*
X154306510Y-78745607D01*
X154320934Y-78776103D01*
X154332298Y-78807865D01*
X154340495Y-78840588D01*
X154345445Y-78873957D01*
X154347100Y-78907650D01*
X154347100Y-80020150D01*
X154345445Y-80053843D01*
X154340495Y-80087212D01*
X154332298Y-80119935D01*
X154320934Y-80151697D01*
X154306510Y-80182193D01*
X154289168Y-80211127D01*
X154269072Y-80238223D01*
X154246418Y-80263218D01*
X154221423Y-80285872D01*
X154194327Y-80305968D01*
X154165393Y-80323310D01*
X154134897Y-80337734D01*
X154103135Y-80349098D01*
X154070412Y-80357295D01*
X154037043Y-80362245D01*
X154003350Y-80363900D01*
X153315850Y-80363900D01*
X153282157Y-80362245D01*
X153248788Y-80357295D01*
X153216065Y-80349098D01*
X153184303Y-80337734D01*
X153153807Y-80323310D01*
X153124873Y-80305968D01*
X153097777Y-80285872D01*
X153072782Y-80263218D01*
X153050128Y-80238223D01*
X153030032Y-80211127D01*
X153012690Y-80182193D01*
X152998266Y-80151697D01*
X152986902Y-80119935D01*
X152978705Y-80087212D01*
X152973755Y-80053843D01*
X152972100Y-80020150D01*
X152972100Y-78907650D01*
X152973755Y-78873957D01*
X152978705Y-78840588D01*
X152986902Y-78807865D01*
X152998266Y-78776103D01*
X153012690Y-78745607D01*
X153030032Y-78716673D01*
X153050128Y-78689577D01*
X153072782Y-78664582D01*
X153097777Y-78641928D01*
X153124873Y-78621832D01*
X153153807Y-78604490D01*
X153184303Y-78590066D01*
X153216065Y-78578702D01*
X153248788Y-78570505D01*
X153282157Y-78565555D01*
X153315850Y-78563900D01*
X154003350Y-78563900D01*
X154037043Y-78565555D01*
G37*
G36*
X151682943Y-88319155D02*
G01*
X151716312Y-88324105D01*
X151749035Y-88332302D01*
X151780797Y-88343666D01*
X151811293Y-88358090D01*
X151840227Y-88375432D01*
X151867323Y-88395528D01*
X151892318Y-88418182D01*
X151914972Y-88443177D01*
X151935068Y-88470273D01*
X151952410Y-88499207D01*
X151966834Y-88529703D01*
X151978198Y-88561465D01*
X151986395Y-88594188D01*
X151991345Y-88627557D01*
X151993000Y-88661250D01*
X151993000Y-89773750D01*
X151991345Y-89807443D01*
X151986395Y-89840812D01*
X151978198Y-89873535D01*
X151966834Y-89905297D01*
X151952410Y-89935793D01*
X151935068Y-89964727D01*
X151914972Y-89991823D01*
X151892318Y-90016818D01*
X151867323Y-90039472D01*
X151840227Y-90059568D01*
X151811293Y-90076910D01*
X151780797Y-90091334D01*
X151749035Y-90102698D01*
X151716312Y-90110895D01*
X151682943Y-90115845D01*
X151649250Y-90117500D01*
X150961750Y-90117500D01*
X150928057Y-90115845D01*
X150894688Y-90110895D01*
X150861965Y-90102698D01*
X150830203Y-90091334D01*
X150799707Y-90076910D01*
X150770773Y-90059568D01*
X150743677Y-90039472D01*
X150718682Y-90016818D01*
X150696028Y-89991823D01*
X150675932Y-89964727D01*
X150658590Y-89935793D01*
X150644166Y-89905297D01*
X150632802Y-89873535D01*
X150624605Y-89840812D01*
X150619655Y-89807443D01*
X150618000Y-89773750D01*
X150618000Y-88661250D01*
X150619655Y-88627557D01*
X150624605Y-88594188D01*
X150632802Y-88561465D01*
X150644166Y-88529703D01*
X150658590Y-88499207D01*
X150675932Y-88470273D01*
X150696028Y-88443177D01*
X150718682Y-88418182D01*
X150743677Y-88395528D01*
X150770773Y-88375432D01*
X150799707Y-88358090D01*
X150830203Y-88343666D01*
X150861965Y-88332302D01*
X150894688Y-88324105D01*
X150928057Y-88319155D01*
X150961750Y-88317500D01*
X151649250Y-88317500D01*
X151682943Y-88319155D01*
G37*
G36*
X149807943Y-88319155D02*
G01*
X149841312Y-88324105D01*
X149874035Y-88332302D01*
X149905797Y-88343666D01*
X149936293Y-88358090D01*
X149965227Y-88375432D01*
X149992323Y-88395528D01*
X150017318Y-88418182D01*
X150039972Y-88443177D01*
X150060068Y-88470273D01*
X150077410Y-88499207D01*
X150091834Y-88529703D01*
X150103198Y-88561465D01*
X150111395Y-88594188D01*
X150116345Y-88627557D01*
X150118000Y-88661250D01*
X150118000Y-89773750D01*
X150116345Y-89807443D01*
X150111395Y-89840812D01*
X150103198Y-89873535D01*
X150091834Y-89905297D01*
X150077410Y-89935793D01*
X150060068Y-89964727D01*
X150039972Y-89991823D01*
X150017318Y-90016818D01*
X149992323Y-90039472D01*
X149965227Y-90059568D01*
X149936293Y-90076910D01*
X149905797Y-90091334D01*
X149874035Y-90102698D01*
X149841312Y-90110895D01*
X149807943Y-90115845D01*
X149774250Y-90117500D01*
X149086750Y-90117500D01*
X149053057Y-90115845D01*
X149019688Y-90110895D01*
X148986965Y-90102698D01*
X148955203Y-90091334D01*
X148924707Y-90076910D01*
X148895773Y-90059568D01*
X148868677Y-90039472D01*
X148843682Y-90016818D01*
X148821028Y-89991823D01*
X148800932Y-89964727D01*
X148783590Y-89935793D01*
X148769166Y-89905297D01*
X148757802Y-89873535D01*
X148749605Y-89840812D01*
X148744655Y-89807443D01*
X148743000Y-89773750D01*
X148743000Y-88661250D01*
X148744655Y-88627557D01*
X148749605Y-88594188D01*
X148757802Y-88561465D01*
X148769166Y-88529703D01*
X148783590Y-88499207D01*
X148800932Y-88470273D01*
X148821028Y-88443177D01*
X148843682Y-88418182D01*
X148868677Y-88395528D01*
X148895773Y-88375432D01*
X148924707Y-88358090D01*
X148955203Y-88343666D01*
X148986965Y-88332302D01*
X149019688Y-88324105D01*
X149053057Y-88319155D01*
X149086750Y-88317500D01*
X149774250Y-88317500D01*
X149807943Y-88319155D01*
G37*
G36*
X153452843Y-88331855D02*
G01*
X153486212Y-88336805D01*
X153518935Y-88345002D01*
X153550697Y-88356366D01*
X153581193Y-88370790D01*
X153610127Y-88388132D01*
X153637223Y-88408228D01*
X153662218Y-88430882D01*
X153684872Y-88455877D01*
X153704968Y-88482973D01*
X153722310Y-88511907D01*
X153736734Y-88542403D01*
X153748098Y-88574165D01*
X153756295Y-88606888D01*
X153761245Y-88640257D01*
X153762900Y-88673950D01*
X153762900Y-89786450D01*
X153761245Y-89820143D01*
X153756295Y-89853512D01*
X153748098Y-89886235D01*
X153736734Y-89917997D01*
X153722310Y-89948493D01*
X153704968Y-89977427D01*
X153684872Y-90004523D01*
X153662218Y-90029518D01*
X153637223Y-90052172D01*
X153610127Y-90072268D01*
X153581193Y-90089610D01*
X153550697Y-90104034D01*
X153518935Y-90115398D01*
X153486212Y-90123595D01*
X153452843Y-90128545D01*
X153419150Y-90130200D01*
X152731650Y-90130200D01*
X152697957Y-90128545D01*
X152664588Y-90123595D01*
X152631865Y-90115398D01*
X152600103Y-90104034D01*
X152569607Y-90089610D01*
X152540673Y-90072268D01*
X152513577Y-90052172D01*
X152488582Y-90029518D01*
X152465928Y-90004523D01*
X152445832Y-89977427D01*
X152428490Y-89948493D01*
X152414066Y-89917997D01*
X152402702Y-89886235D01*
X152394505Y-89853512D01*
X152389555Y-89820143D01*
X152387900Y-89786450D01*
X152387900Y-88673950D01*
X152389555Y-88640257D01*
X152394505Y-88606888D01*
X152402702Y-88574165D01*
X152414066Y-88542403D01*
X152428490Y-88511907D01*
X152445832Y-88482973D01*
X152465928Y-88455877D01*
X152488582Y-88430882D01*
X152513577Y-88408228D01*
X152540673Y-88388132D01*
X152569607Y-88370790D01*
X152600103Y-88356366D01*
X152631865Y-88345002D01*
X152664588Y-88336805D01*
X152697957Y-88331855D01*
X152731650Y-88330200D01*
X153419150Y-88330200D01*
X153452843Y-88331855D01*
G37*
G36*
X155327843Y-88331855D02*
G01*
X155361212Y-88336805D01*
X155393935Y-88345002D01*
X155425697Y-88356366D01*
X155456193Y-88370790D01*
X155485127Y-88388132D01*
X155512223Y-88408228D01*
X155537218Y-88430882D01*
X155559872Y-88455877D01*
X155579968Y-88482973D01*
X155597310Y-88511907D01*
X155611734Y-88542403D01*
X155623098Y-88574165D01*
X155631295Y-88606888D01*
X155636245Y-88640257D01*
X155637900Y-88673950D01*
X155637900Y-89786450D01*
X155636245Y-89820143D01*
X155631295Y-89853512D01*
X155623098Y-89886235D01*
X155611734Y-89917997D01*
X155597310Y-89948493D01*
X155579968Y-89977427D01*
X155559872Y-90004523D01*
X155537218Y-90029518D01*
X155512223Y-90052172D01*
X155485127Y-90072268D01*
X155456193Y-90089610D01*
X155425697Y-90104034D01*
X155393935Y-90115398D01*
X155361212Y-90123595D01*
X155327843Y-90128545D01*
X155294150Y-90130200D01*
X154606650Y-90130200D01*
X154572957Y-90128545D01*
X154539588Y-90123595D01*
X154506865Y-90115398D01*
X154475103Y-90104034D01*
X154444607Y-90089610D01*
X154415673Y-90072268D01*
X154388577Y-90052172D01*
X154363582Y-90029518D01*
X154340928Y-90004523D01*
X154320832Y-89977427D01*
X154303490Y-89948493D01*
X154289066Y-89917997D01*
X154277702Y-89886235D01*
X154269505Y-89853512D01*
X154264555Y-89820143D01*
X154262900Y-89786450D01*
X154262900Y-88673950D01*
X154264555Y-88640257D01*
X154269505Y-88606888D01*
X154277702Y-88574165D01*
X154289066Y-88542403D01*
X154303490Y-88511907D01*
X154320832Y-88482973D01*
X154340928Y-88455877D01*
X154363582Y-88430882D01*
X154388577Y-88408228D01*
X154415673Y-88388132D01*
X154444607Y-88370790D01*
X154475103Y-88356366D01*
X154506865Y-88345002D01*
X154539588Y-88336805D01*
X154572957Y-88331855D01*
X154606650Y-88330200D01*
X155294150Y-88330200D01*
X155327843Y-88331855D01*
G37*
G36*
X157688943Y-86273355D02*
G01*
X157722312Y-86278305D01*
X157755035Y-86286502D01*
X157786797Y-86297866D01*
X157817293Y-86312290D01*
X157846227Y-86329632D01*
X157873323Y-86349728D01*
X157898318Y-86372382D01*
X157920972Y-86397377D01*
X157941068Y-86424473D01*
X157958410Y-86453407D01*
X157972834Y-86483903D01*
X157984198Y-86515665D01*
X157992395Y-86548388D01*
X157997345Y-86581757D01*
X157999000Y-86615450D01*
X157999000Y-87302950D01*
X157997345Y-87336643D01*
X157992395Y-87370012D01*
X157984198Y-87402735D01*
X157972834Y-87434497D01*
X157958410Y-87464993D01*
X157941068Y-87493927D01*
X157920972Y-87521023D01*
X157898318Y-87546018D01*
X157873323Y-87568672D01*
X157846227Y-87588768D01*
X157817293Y-87606110D01*
X157786797Y-87620534D01*
X157755035Y-87631898D01*
X157722312Y-87640095D01*
X157688943Y-87645045D01*
X157655250Y-87646700D01*
X156542750Y-87646700D01*
X156509057Y-87645045D01*
X156475688Y-87640095D01*
X156442965Y-87631898D01*
X156411203Y-87620534D01*
X156380707Y-87606110D01*
X156351773Y-87588768D01*
X156324677Y-87568672D01*
X156299682Y-87546018D01*
X156277028Y-87521023D01*
X156256932Y-87493927D01*
X156239590Y-87464993D01*
X156225166Y-87434497D01*
X156213802Y-87402735D01*
X156205605Y-87370012D01*
X156200655Y-87336643D01*
X156199000Y-87302950D01*
X156199000Y-86615450D01*
X156200655Y-86581757D01*
X156205605Y-86548388D01*
X156213802Y-86515665D01*
X156225166Y-86483903D01*
X156239590Y-86453407D01*
X156256932Y-86424473D01*
X156277028Y-86397377D01*
X156299682Y-86372382D01*
X156324677Y-86349728D01*
X156351773Y-86329632D01*
X156380707Y-86312290D01*
X156411203Y-86297866D01*
X156442965Y-86286502D01*
X156475688Y-86278305D01*
X156509057Y-86273355D01*
X156542750Y-86271700D01*
X157655250Y-86271700D01*
X157688943Y-86273355D01*
G37*
G36*
X157688943Y-88148355D02*
G01*
X157722312Y-88153305D01*
X157755035Y-88161502D01*
X157786797Y-88172866D01*
X157817293Y-88187290D01*
X157846227Y-88204632D01*
X157873323Y-88224728D01*
X157898318Y-88247382D01*
X157920972Y-88272377D01*
X157941068Y-88299473D01*
X157958410Y-88328407D01*
X157972834Y-88358903D01*
X157984198Y-88390665D01*
X157992395Y-88423388D01*
X157997345Y-88456757D01*
X157999000Y-88490450D01*
X157999000Y-89177950D01*
X157997345Y-89211643D01*
X157992395Y-89245012D01*
X157984198Y-89277735D01*
X157972834Y-89309497D01*
X157958410Y-89339993D01*
X157941068Y-89368927D01*
X157920972Y-89396023D01*
X157898318Y-89421018D01*
X157873323Y-89443672D01*
X157846227Y-89463768D01*
X157817293Y-89481110D01*
X157786797Y-89495534D01*
X157755035Y-89506898D01*
X157722312Y-89515095D01*
X157688943Y-89520045D01*
X157655250Y-89521700D01*
X156542750Y-89521700D01*
X156509057Y-89520045D01*
X156475688Y-89515095D01*
X156442965Y-89506898D01*
X156411203Y-89495534D01*
X156380707Y-89481110D01*
X156351773Y-89463768D01*
X156324677Y-89443672D01*
X156299682Y-89421018D01*
X156277028Y-89396023D01*
X156256932Y-89368927D01*
X156239590Y-89339993D01*
X156225166Y-89309497D01*
X156213802Y-89277735D01*
X156205605Y-89245012D01*
X156200655Y-89211643D01*
X156199000Y-89177950D01*
X156199000Y-88490450D01*
X156200655Y-88456757D01*
X156205605Y-88423388D01*
X156213802Y-88390665D01*
X156225166Y-88358903D01*
X156239590Y-88328407D01*
X156256932Y-88299473D01*
X156277028Y-88272377D01*
X156299682Y-88247382D01*
X156324677Y-88224728D01*
X156351773Y-88204632D01*
X156380707Y-88187290D01*
X156411203Y-88172866D01*
X156442965Y-88161502D01*
X156475688Y-88153305D01*
X156509057Y-88148355D01*
X156542750Y-88146700D01*
X157655250Y-88146700D01*
X157688943Y-88148355D01*
G37*
G36*
X148038043Y-88319155D02*
G01*
X148071412Y-88324105D01*
X148104135Y-88332302D01*
X148135897Y-88343666D01*
X148166393Y-88358090D01*
X148195327Y-88375432D01*
X148222423Y-88395528D01*
X148247418Y-88418182D01*
X148270072Y-88443177D01*
X148290168Y-88470273D01*
X148307510Y-88499207D01*
X148321934Y-88529703D01*
X148333298Y-88561465D01*
X148341495Y-88594188D01*
X148346445Y-88627557D01*
X148348100Y-88661250D01*
X148348100Y-89773750D01*
X148346445Y-89807443D01*
X148341495Y-89840812D01*
X148333298Y-89873535D01*
X148321934Y-89905297D01*
X148307510Y-89935793D01*
X148290168Y-89964727D01*
X148270072Y-89991823D01*
X148247418Y-90016818D01*
X148222423Y-90039472D01*
X148195327Y-90059568D01*
X148166393Y-90076910D01*
X148135897Y-90091334D01*
X148104135Y-90102698D01*
X148071412Y-90110895D01*
X148038043Y-90115845D01*
X148004350Y-90117500D01*
X147316850Y-90117500D01*
X147283157Y-90115845D01*
X147249788Y-90110895D01*
X147217065Y-90102698D01*
X147185303Y-90091334D01*
X147154807Y-90076910D01*
X147125873Y-90059568D01*
X147098777Y-90039472D01*
X147073782Y-90016818D01*
X147051128Y-89991823D01*
X147031032Y-89964727D01*
X147013690Y-89935793D01*
X146999266Y-89905297D01*
X146987902Y-89873535D01*
X146979705Y-89840812D01*
X146974755Y-89807443D01*
X146973100Y-89773750D01*
X146973100Y-88661250D01*
X146974755Y-88627557D01*
X146979705Y-88594188D01*
X146987902Y-88561465D01*
X146999266Y-88529703D01*
X147013690Y-88499207D01*
X147031032Y-88470273D01*
X147051128Y-88443177D01*
X147073782Y-88418182D01*
X147098777Y-88395528D01*
X147125873Y-88375432D01*
X147154807Y-88358090D01*
X147185303Y-88343666D01*
X147217065Y-88332302D01*
X147249788Y-88324105D01*
X147283157Y-88319155D01*
X147316850Y-88317500D01*
X148004350Y-88317500D01*
X148038043Y-88319155D01*
G37*
G36*
X146163043Y-88319155D02*
G01*
X146196412Y-88324105D01*
X146229135Y-88332302D01*
X146260897Y-88343666D01*
X146291393Y-88358090D01*
X146320327Y-88375432D01*
X146347423Y-88395528D01*
X146372418Y-88418182D01*
X146395072Y-88443177D01*
X146415168Y-88470273D01*
X146432510Y-88499207D01*
X146446934Y-88529703D01*
X146458298Y-88561465D01*
X146466495Y-88594188D01*
X146471445Y-88627557D01*
X146473100Y-88661250D01*
X146473100Y-89773750D01*
X146471445Y-89807443D01*
X146466495Y-89840812D01*
X146458298Y-89873535D01*
X146446934Y-89905297D01*
X146432510Y-89935793D01*
X146415168Y-89964727D01*
X146395072Y-89991823D01*
X146372418Y-90016818D01*
X146347423Y-90039472D01*
X146320327Y-90059568D01*
X146291393Y-90076910D01*
X146260897Y-90091334D01*
X146229135Y-90102698D01*
X146196412Y-90110895D01*
X146163043Y-90115845D01*
X146129350Y-90117500D01*
X145441850Y-90117500D01*
X145408157Y-90115845D01*
X145374788Y-90110895D01*
X145342065Y-90102698D01*
X145310303Y-90091334D01*
X145279807Y-90076910D01*
X145250873Y-90059568D01*
X145223777Y-90039472D01*
X145198782Y-90016818D01*
X145176128Y-89991823D01*
X145156032Y-89964727D01*
X145138690Y-89935793D01*
X145124266Y-89905297D01*
X145112902Y-89873535D01*
X145104705Y-89840812D01*
X145099755Y-89807443D01*
X145098100Y-89773750D01*
X145098100Y-88661250D01*
X145099755Y-88627557D01*
X145104705Y-88594188D01*
X145112902Y-88561465D01*
X145124266Y-88529703D01*
X145138690Y-88499207D01*
X145156032Y-88470273D01*
X145176128Y-88443177D01*
X145198782Y-88418182D01*
X145223777Y-88395528D01*
X145250873Y-88375432D01*
X145279807Y-88358090D01*
X145310303Y-88343666D01*
X145342065Y-88332302D01*
X145374788Y-88324105D01*
X145408157Y-88319155D01*
X145441850Y-88317500D01*
X146129350Y-88317500D01*
X146163043Y-88319155D01*
G37*
D11*
X146304000Y-77076300D03*
D12*
X148844000Y-77076300D03*
X151384000Y-77076300D03*
X156464000Y-77076300D03*
X153924000Y-77076300D03*
D13*
X145046700Y-72339200D03*
X145046700Y-73609200D03*
X145046700Y-74879200D03*
X145046700Y-70535800D03*
X145046700Y-69265800D03*
X145046700Y-67995800D03*
D14*
X161569400Y-67843400D03*
X161569400Y-70383400D03*
X161569400Y-72923400D03*
X161569400Y-75463400D03*
X161569400Y-78003400D03*
X161569400Y-80543400D03*
X161569400Y-83083400D03*
X161569400Y-85623400D03*
X161569400Y-88163400D03*
X161569400Y-65303400D03*
X159029400Y-65303400D03*
X156489400Y-65303400D03*
X153949400Y-65303400D03*
X151409400Y-65303400D03*
X148869400Y-65303400D03*
X146329400Y-65303400D03*
X143789400Y-65303400D03*
X141249400Y-65303400D03*
X141249400Y-67843400D03*
X141249400Y-70383400D03*
X141249400Y-72923400D03*
X141249400Y-75463400D03*
X141249400Y-78003400D03*
X141249400Y-80543400D03*
X141249400Y-83083400D03*
X141249400Y-85623400D03*
X141249400Y-88163400D03*
D15*
X157489400Y-68849200D03*
X157489400Y-70749200D03*
X155489400Y-69799200D03*
D10*
G36*
X154221843Y-68252055D02*
G01*
X154255212Y-68257005D01*
X154287935Y-68265202D01*
X154319697Y-68276566D01*
X154350193Y-68290990D01*
X154379127Y-68308332D01*
X154406223Y-68328428D01*
X154431218Y-68351082D01*
X154453872Y-68376077D01*
X154473968Y-68403173D01*
X154491310Y-68432107D01*
X154505734Y-68462603D01*
X154517098Y-68494365D01*
X154525295Y-68527088D01*
X154530245Y-68560457D01*
X154531900Y-68594150D01*
X154531900Y-69281650D01*
X154530245Y-69315343D01*
X154525295Y-69348712D01*
X154517098Y-69381435D01*
X154505734Y-69413197D01*
X154491310Y-69443693D01*
X154473968Y-69472627D01*
X154453872Y-69499723D01*
X154431218Y-69524718D01*
X154406223Y-69547372D01*
X154379127Y-69567468D01*
X154350193Y-69584810D01*
X154319697Y-69599234D01*
X154287935Y-69610598D01*
X154255212Y-69618795D01*
X154221843Y-69623745D01*
X154188150Y-69625400D01*
X153075650Y-69625400D01*
X153041957Y-69623745D01*
X153008588Y-69618795D01*
X152975865Y-69610598D01*
X152944103Y-69599234D01*
X152913607Y-69584810D01*
X152884673Y-69567468D01*
X152857577Y-69547372D01*
X152832582Y-69524718D01*
X152809928Y-69499723D01*
X152789832Y-69472627D01*
X152772490Y-69443693D01*
X152758066Y-69413197D01*
X152746702Y-69381435D01*
X152738505Y-69348712D01*
X152733555Y-69315343D01*
X152731900Y-69281650D01*
X152731900Y-68594150D01*
X152733555Y-68560457D01*
X152738505Y-68527088D01*
X152746702Y-68494365D01*
X152758066Y-68462603D01*
X152772490Y-68432107D01*
X152789832Y-68403173D01*
X152809928Y-68376077D01*
X152832582Y-68351082D01*
X152857577Y-68328428D01*
X152884673Y-68308332D01*
X152913607Y-68290990D01*
X152944103Y-68276566D01*
X152975865Y-68265202D01*
X153008588Y-68257005D01*
X153041957Y-68252055D01*
X153075650Y-68250400D01*
X154188150Y-68250400D01*
X154221843Y-68252055D01*
G37*
G36*
X154221843Y-70127055D02*
G01*
X154255212Y-70132005D01*
X154287935Y-70140202D01*
X154319697Y-70151566D01*
X154350193Y-70165990D01*
X154379127Y-70183332D01*
X154406223Y-70203428D01*
X154431218Y-70226082D01*
X154453872Y-70251077D01*
X154473968Y-70278173D01*
X154491310Y-70307107D01*
X154505734Y-70337603D01*
X154517098Y-70369365D01*
X154525295Y-70402088D01*
X154530245Y-70435457D01*
X154531900Y-70469150D01*
X154531900Y-71156650D01*
X154530245Y-71190343D01*
X154525295Y-71223712D01*
X154517098Y-71256435D01*
X154505734Y-71288197D01*
X154491310Y-71318693D01*
X154473968Y-71347627D01*
X154453872Y-71374723D01*
X154431218Y-71399718D01*
X154406223Y-71422372D01*
X154379127Y-71442468D01*
X154350193Y-71459810D01*
X154319697Y-71474234D01*
X154287935Y-71485598D01*
X154255212Y-71493795D01*
X154221843Y-71498745D01*
X154188150Y-71500400D01*
X153075650Y-71500400D01*
X153041957Y-71498745D01*
X153008588Y-71493795D01*
X152975865Y-71485598D01*
X152944103Y-71474234D01*
X152913607Y-71459810D01*
X152884673Y-71442468D01*
X152857577Y-71422372D01*
X152832582Y-71399718D01*
X152809928Y-71374723D01*
X152789832Y-71347627D01*
X152772490Y-71318693D01*
X152758066Y-71288197D01*
X152746702Y-71256435D01*
X152738505Y-71223712D01*
X152733555Y-71190343D01*
X152731900Y-71156650D01*
X152731900Y-70469150D01*
X152733555Y-70435457D01*
X152738505Y-70402088D01*
X152746702Y-70369365D01*
X152758066Y-70337603D01*
X152772490Y-70307107D01*
X152789832Y-70278173D01*
X152809928Y-70251077D01*
X152832582Y-70226082D01*
X152857577Y-70203428D01*
X152884673Y-70183332D01*
X152913607Y-70165990D01*
X152944103Y-70151566D01*
X152975865Y-70140202D01*
X153008588Y-70132005D01*
X153041957Y-70127055D01*
X153075650Y-70125400D01*
X154188150Y-70125400D01*
X154221843Y-70127055D01*
G37*
G36*
X157245543Y-72393355D02*
G01*
X157278912Y-72398305D01*
X157311635Y-72406502D01*
X157343397Y-72417866D01*
X157373893Y-72432290D01*
X157402827Y-72449632D01*
X157429923Y-72469728D01*
X157454918Y-72492382D01*
X157477572Y-72517377D01*
X157497668Y-72544473D01*
X157515010Y-72573407D01*
X157529434Y-72603903D01*
X157540798Y-72635665D01*
X157548995Y-72668388D01*
X157553945Y-72701757D01*
X157555600Y-72735450D01*
X157555600Y-73847950D01*
X157553945Y-73881643D01*
X157548995Y-73915012D01*
X157540798Y-73947735D01*
X157529434Y-73979497D01*
X157515010Y-74009993D01*
X157497668Y-74038927D01*
X157477572Y-74066023D01*
X157454918Y-74091018D01*
X157429923Y-74113672D01*
X157402827Y-74133768D01*
X157373893Y-74151110D01*
X157343397Y-74165534D01*
X157311635Y-74176898D01*
X157278912Y-74185095D01*
X157245543Y-74190045D01*
X157211850Y-74191700D01*
X156524350Y-74191700D01*
X156490657Y-74190045D01*
X156457288Y-74185095D01*
X156424565Y-74176898D01*
X156392803Y-74165534D01*
X156362307Y-74151110D01*
X156333373Y-74133768D01*
X156306277Y-74113672D01*
X156281282Y-74091018D01*
X156258628Y-74066023D01*
X156238532Y-74038927D01*
X156221190Y-74009993D01*
X156206766Y-73979497D01*
X156195402Y-73947735D01*
X156187205Y-73915012D01*
X156182255Y-73881643D01*
X156180600Y-73847950D01*
X156180600Y-72735450D01*
X156182255Y-72701757D01*
X156187205Y-72668388D01*
X156195402Y-72635665D01*
X156206766Y-72603903D01*
X156221190Y-72573407D01*
X156238532Y-72544473D01*
X156258628Y-72517377D01*
X156281282Y-72492382D01*
X156306277Y-72469728D01*
X156333373Y-72449632D01*
X156362307Y-72432290D01*
X156392803Y-72417866D01*
X156424565Y-72406502D01*
X156457288Y-72398305D01*
X156490657Y-72393355D01*
X156524350Y-72391700D01*
X157211850Y-72391700D01*
X157245543Y-72393355D01*
G37*
G36*
X155370543Y-72393355D02*
G01*
X155403912Y-72398305D01*
X155436635Y-72406502D01*
X155468397Y-72417866D01*
X155498893Y-72432290D01*
X155527827Y-72449632D01*
X155554923Y-72469728D01*
X155579918Y-72492382D01*
X155602572Y-72517377D01*
X155622668Y-72544473D01*
X155640010Y-72573407D01*
X155654434Y-72603903D01*
X155665798Y-72635665D01*
X155673995Y-72668388D01*
X155678945Y-72701757D01*
X155680600Y-72735450D01*
X155680600Y-73847950D01*
X155678945Y-73881643D01*
X155673995Y-73915012D01*
X155665798Y-73947735D01*
X155654434Y-73979497D01*
X155640010Y-74009993D01*
X155622668Y-74038927D01*
X155602572Y-74066023D01*
X155579918Y-74091018D01*
X155554923Y-74113672D01*
X155527827Y-74133768D01*
X155498893Y-74151110D01*
X155468397Y-74165534D01*
X155436635Y-74176898D01*
X155403912Y-74185095D01*
X155370543Y-74190045D01*
X155336850Y-74191700D01*
X154649350Y-74191700D01*
X154615657Y-74190045D01*
X154582288Y-74185095D01*
X154549565Y-74176898D01*
X154517803Y-74165534D01*
X154487307Y-74151110D01*
X154458373Y-74133768D01*
X154431277Y-74113672D01*
X154406282Y-74091018D01*
X154383628Y-74066023D01*
X154363532Y-74038927D01*
X154346190Y-74009993D01*
X154331766Y-73979497D01*
X154320402Y-73947735D01*
X154312205Y-73915012D01*
X154307255Y-73881643D01*
X154305600Y-73847950D01*
X154305600Y-72735450D01*
X154307255Y-72701757D01*
X154312205Y-72668388D01*
X154320402Y-72635665D01*
X154331766Y-72603903D01*
X154346190Y-72573407D01*
X154363532Y-72544473D01*
X154383628Y-72517377D01*
X154406282Y-72492382D01*
X154431277Y-72469728D01*
X154458373Y-72449632D01*
X154487307Y-72432290D01*
X154517803Y-72417866D01*
X154549565Y-72406502D01*
X154582288Y-72398305D01*
X154615657Y-72393355D01*
X154649350Y-72391700D01*
X155336850Y-72391700D01*
X155370543Y-72393355D01*
G37*
G36*
X155074804Y-85667304D02*
G01*
X155099073Y-85670904D01*
X155122871Y-85676865D01*
X155145971Y-85685130D01*
X155168149Y-85695620D01*
X155189193Y-85708233D01*
X155208898Y-85722847D01*
X155227077Y-85739323D01*
X155243553Y-85757502D01*
X155258167Y-85777207D01*
X155270780Y-85798251D01*
X155281270Y-85820429D01*
X155289535Y-85843529D01*
X155295496Y-85867327D01*
X155299096Y-85891596D01*
X155300300Y-85916100D01*
X155300300Y-87766100D01*
X155299096Y-87790604D01*
X155295496Y-87814873D01*
X155289535Y-87838671D01*
X155281270Y-87861771D01*
X155270780Y-87883949D01*
X155258167Y-87904993D01*
X155243553Y-87924698D01*
X155227077Y-87942877D01*
X155208898Y-87959353D01*
X155189193Y-87973967D01*
X155168149Y-87986580D01*
X155145971Y-87997070D01*
X155122871Y-88005335D01*
X155099073Y-88011296D01*
X155074804Y-88014896D01*
X155050300Y-88016100D01*
X154550300Y-88016100D01*
X154525796Y-88014896D01*
X154501527Y-88011296D01*
X154477729Y-88005335D01*
X154454629Y-87997070D01*
X154432451Y-87986580D01*
X154411407Y-87973967D01*
X154391702Y-87959353D01*
X154373523Y-87942877D01*
X154357047Y-87924698D01*
X154342433Y-87904993D01*
X154329820Y-87883949D01*
X154319330Y-87861771D01*
X154311065Y-87838671D01*
X154305104Y-87814873D01*
X154301504Y-87790604D01*
X154300300Y-87766100D01*
X154300300Y-85916100D01*
X154301504Y-85891596D01*
X154305104Y-85867327D01*
X154311065Y-85843529D01*
X154319330Y-85820429D01*
X154329820Y-85798251D01*
X154342433Y-85777207D01*
X154357047Y-85757502D01*
X154373523Y-85739323D01*
X154391702Y-85722847D01*
X154411407Y-85708233D01*
X154432451Y-85695620D01*
X154454629Y-85685130D01*
X154477729Y-85676865D01*
X154501527Y-85670904D01*
X154525796Y-85667304D01*
X154550300Y-85666100D01*
X155050300Y-85666100D01*
X155074804Y-85667304D01*
G37*
G36*
X153804804Y-85667304D02*
G01*
X153829073Y-85670904D01*
X153852871Y-85676865D01*
X153875971Y-85685130D01*
X153898149Y-85695620D01*
X153919193Y-85708233D01*
X153938898Y-85722847D01*
X153957077Y-85739323D01*
X153973553Y-85757502D01*
X153988167Y-85777207D01*
X154000780Y-85798251D01*
X154011270Y-85820429D01*
X154019535Y-85843529D01*
X154025496Y-85867327D01*
X154029096Y-85891596D01*
X154030300Y-85916100D01*
X154030300Y-87766100D01*
X154029096Y-87790604D01*
X154025496Y-87814873D01*
X154019535Y-87838671D01*
X154011270Y-87861771D01*
X154000780Y-87883949D01*
X153988167Y-87904993D01*
X153973553Y-87924698D01*
X153957077Y-87942877D01*
X153938898Y-87959353D01*
X153919193Y-87973967D01*
X153898149Y-87986580D01*
X153875971Y-87997070D01*
X153852871Y-88005335D01*
X153829073Y-88011296D01*
X153804804Y-88014896D01*
X153780300Y-88016100D01*
X153280300Y-88016100D01*
X153255796Y-88014896D01*
X153231527Y-88011296D01*
X153207729Y-88005335D01*
X153184629Y-87997070D01*
X153162451Y-87986580D01*
X153141407Y-87973967D01*
X153121702Y-87959353D01*
X153103523Y-87942877D01*
X153087047Y-87924698D01*
X153072433Y-87904993D01*
X153059820Y-87883949D01*
X153049330Y-87861771D01*
X153041065Y-87838671D01*
X153035104Y-87814873D01*
X153031504Y-87790604D01*
X153030300Y-87766100D01*
X153030300Y-85916100D01*
X153031504Y-85891596D01*
X153035104Y-85867327D01*
X153041065Y-85843529D01*
X153049330Y-85820429D01*
X153059820Y-85798251D01*
X153072433Y-85777207D01*
X153087047Y-85757502D01*
X153103523Y-85739323D01*
X153121702Y-85722847D01*
X153141407Y-85708233D01*
X153162451Y-85695620D01*
X153184629Y-85685130D01*
X153207729Y-85676865D01*
X153231527Y-85670904D01*
X153255796Y-85667304D01*
X153280300Y-85666100D01*
X153780300Y-85666100D01*
X153804804Y-85667304D01*
G37*
G36*
X152534804Y-85667304D02*
G01*
X152559073Y-85670904D01*
X152582871Y-85676865D01*
X152605971Y-85685130D01*
X152628149Y-85695620D01*
X152649193Y-85708233D01*
X152668898Y-85722847D01*
X152687077Y-85739323D01*
X152703553Y-85757502D01*
X152718167Y-85777207D01*
X152730780Y-85798251D01*
X152741270Y-85820429D01*
X152749535Y-85843529D01*
X152755496Y-85867327D01*
X152759096Y-85891596D01*
X152760300Y-85916100D01*
X152760300Y-87766100D01*
X152759096Y-87790604D01*
X152755496Y-87814873D01*
X152749535Y-87838671D01*
X152741270Y-87861771D01*
X152730780Y-87883949D01*
X152718167Y-87904993D01*
X152703553Y-87924698D01*
X152687077Y-87942877D01*
X152668898Y-87959353D01*
X152649193Y-87973967D01*
X152628149Y-87986580D01*
X152605971Y-87997070D01*
X152582871Y-88005335D01*
X152559073Y-88011296D01*
X152534804Y-88014896D01*
X152510300Y-88016100D01*
X152010300Y-88016100D01*
X151985796Y-88014896D01*
X151961527Y-88011296D01*
X151937729Y-88005335D01*
X151914629Y-87997070D01*
X151892451Y-87986580D01*
X151871407Y-87973967D01*
X151851702Y-87959353D01*
X151833523Y-87942877D01*
X151817047Y-87924698D01*
X151802433Y-87904993D01*
X151789820Y-87883949D01*
X151779330Y-87861771D01*
X151771065Y-87838671D01*
X151765104Y-87814873D01*
X151761504Y-87790604D01*
X151760300Y-87766100D01*
X151760300Y-85916100D01*
X151761504Y-85891596D01*
X151765104Y-85867327D01*
X151771065Y-85843529D01*
X151779330Y-85820429D01*
X151789820Y-85798251D01*
X151802433Y-85777207D01*
X151817047Y-85757502D01*
X151833523Y-85739323D01*
X151851702Y-85722847D01*
X151871407Y-85708233D01*
X151892451Y-85695620D01*
X151914629Y-85685130D01*
X151937729Y-85676865D01*
X151961527Y-85670904D01*
X151985796Y-85667304D01*
X152010300Y-85666100D01*
X152510300Y-85666100D01*
X152534804Y-85667304D01*
G37*
G36*
X151264804Y-85667304D02*
G01*
X151289073Y-85670904D01*
X151312871Y-85676865D01*
X151335971Y-85685130D01*
X151358149Y-85695620D01*
X151379193Y-85708233D01*
X151398898Y-85722847D01*
X151417077Y-85739323D01*
X151433553Y-85757502D01*
X151448167Y-85777207D01*
X151460780Y-85798251D01*
X151471270Y-85820429D01*
X151479535Y-85843529D01*
X151485496Y-85867327D01*
X151489096Y-85891596D01*
X151490300Y-85916100D01*
X151490300Y-87766100D01*
X151489096Y-87790604D01*
X151485496Y-87814873D01*
X151479535Y-87838671D01*
X151471270Y-87861771D01*
X151460780Y-87883949D01*
X151448167Y-87904993D01*
X151433553Y-87924698D01*
X151417077Y-87942877D01*
X151398898Y-87959353D01*
X151379193Y-87973967D01*
X151358149Y-87986580D01*
X151335971Y-87997070D01*
X151312871Y-88005335D01*
X151289073Y-88011296D01*
X151264804Y-88014896D01*
X151240300Y-88016100D01*
X150740300Y-88016100D01*
X150715796Y-88014896D01*
X150691527Y-88011296D01*
X150667729Y-88005335D01*
X150644629Y-87997070D01*
X150622451Y-87986580D01*
X150601407Y-87973967D01*
X150581702Y-87959353D01*
X150563523Y-87942877D01*
X150547047Y-87924698D01*
X150532433Y-87904993D01*
X150519820Y-87883949D01*
X150509330Y-87861771D01*
X150501065Y-87838671D01*
X150495104Y-87814873D01*
X150491504Y-87790604D01*
X150490300Y-87766100D01*
X150490300Y-85916100D01*
X150491504Y-85891596D01*
X150495104Y-85867327D01*
X150501065Y-85843529D01*
X150509330Y-85820429D01*
X150519820Y-85798251D01*
X150532433Y-85777207D01*
X150547047Y-85757502D01*
X150563523Y-85739323D01*
X150581702Y-85722847D01*
X150601407Y-85708233D01*
X150622451Y-85695620D01*
X150644629Y-85685130D01*
X150667729Y-85676865D01*
X150691527Y-85670904D01*
X150715796Y-85667304D01*
X150740300Y-85666100D01*
X151240300Y-85666100D01*
X151264804Y-85667304D01*
G37*
G36*
X149994804Y-85667304D02*
G01*
X150019073Y-85670904D01*
X150042871Y-85676865D01*
X150065971Y-85685130D01*
X150088149Y-85695620D01*
X150109193Y-85708233D01*
X150128898Y-85722847D01*
X150147077Y-85739323D01*
X150163553Y-85757502D01*
X150178167Y-85777207D01*
X150190780Y-85798251D01*
X150201270Y-85820429D01*
X150209535Y-85843529D01*
X150215496Y-85867327D01*
X150219096Y-85891596D01*
X150220300Y-85916100D01*
X150220300Y-87766100D01*
X150219096Y-87790604D01*
X150215496Y-87814873D01*
X150209535Y-87838671D01*
X150201270Y-87861771D01*
X150190780Y-87883949D01*
X150178167Y-87904993D01*
X150163553Y-87924698D01*
X150147077Y-87942877D01*
X150128898Y-87959353D01*
X150109193Y-87973967D01*
X150088149Y-87986580D01*
X150065971Y-87997070D01*
X150042871Y-88005335D01*
X150019073Y-88011296D01*
X149994804Y-88014896D01*
X149970300Y-88016100D01*
X149470300Y-88016100D01*
X149445796Y-88014896D01*
X149421527Y-88011296D01*
X149397729Y-88005335D01*
X149374629Y-87997070D01*
X149352451Y-87986580D01*
X149331407Y-87973967D01*
X149311702Y-87959353D01*
X149293523Y-87942877D01*
X149277047Y-87924698D01*
X149262433Y-87904993D01*
X149249820Y-87883949D01*
X149239330Y-87861771D01*
X149231065Y-87838671D01*
X149225104Y-87814873D01*
X149221504Y-87790604D01*
X149220300Y-87766100D01*
X149220300Y-85916100D01*
X149221504Y-85891596D01*
X149225104Y-85867327D01*
X149231065Y-85843529D01*
X149239330Y-85820429D01*
X149249820Y-85798251D01*
X149262433Y-85777207D01*
X149277047Y-85757502D01*
X149293523Y-85739323D01*
X149311702Y-85722847D01*
X149331407Y-85708233D01*
X149352451Y-85695620D01*
X149374629Y-85685130D01*
X149397729Y-85676865D01*
X149421527Y-85670904D01*
X149445796Y-85667304D01*
X149470300Y-85666100D01*
X149970300Y-85666100D01*
X149994804Y-85667304D01*
G37*
G36*
X148724804Y-85667304D02*
G01*
X148749073Y-85670904D01*
X148772871Y-85676865D01*
X148795971Y-85685130D01*
X148818149Y-85695620D01*
X148839193Y-85708233D01*
X148858898Y-85722847D01*
X148877077Y-85739323D01*
X148893553Y-85757502D01*
X148908167Y-85777207D01*
X148920780Y-85798251D01*
X148931270Y-85820429D01*
X148939535Y-85843529D01*
X148945496Y-85867327D01*
X148949096Y-85891596D01*
X148950300Y-85916100D01*
X148950300Y-87766100D01*
X148949096Y-87790604D01*
X148945496Y-87814873D01*
X148939535Y-87838671D01*
X148931270Y-87861771D01*
X148920780Y-87883949D01*
X148908167Y-87904993D01*
X148893553Y-87924698D01*
X148877077Y-87942877D01*
X148858898Y-87959353D01*
X148839193Y-87973967D01*
X148818149Y-87986580D01*
X148795971Y-87997070D01*
X148772871Y-88005335D01*
X148749073Y-88011296D01*
X148724804Y-88014896D01*
X148700300Y-88016100D01*
X148200300Y-88016100D01*
X148175796Y-88014896D01*
X148151527Y-88011296D01*
X148127729Y-88005335D01*
X148104629Y-87997070D01*
X148082451Y-87986580D01*
X148061407Y-87973967D01*
X148041702Y-87959353D01*
X148023523Y-87942877D01*
X148007047Y-87924698D01*
X147992433Y-87904993D01*
X147979820Y-87883949D01*
X147969330Y-87861771D01*
X147961065Y-87838671D01*
X147955104Y-87814873D01*
X147951504Y-87790604D01*
X147950300Y-87766100D01*
X147950300Y-85916100D01*
X147951504Y-85891596D01*
X147955104Y-85867327D01*
X147961065Y-85843529D01*
X147969330Y-85820429D01*
X147979820Y-85798251D01*
X147992433Y-85777207D01*
X148007047Y-85757502D01*
X148023523Y-85739323D01*
X148041702Y-85722847D01*
X148061407Y-85708233D01*
X148082451Y-85695620D01*
X148104629Y-85685130D01*
X148127729Y-85676865D01*
X148151527Y-85670904D01*
X148175796Y-85667304D01*
X148200300Y-85666100D01*
X148700300Y-85666100D01*
X148724804Y-85667304D01*
G37*
G36*
X147454804Y-85667304D02*
G01*
X147479073Y-85670904D01*
X147502871Y-85676865D01*
X147525971Y-85685130D01*
X147548149Y-85695620D01*
X147569193Y-85708233D01*
X147588898Y-85722847D01*
X147607077Y-85739323D01*
X147623553Y-85757502D01*
X147638167Y-85777207D01*
X147650780Y-85798251D01*
X147661270Y-85820429D01*
X147669535Y-85843529D01*
X147675496Y-85867327D01*
X147679096Y-85891596D01*
X147680300Y-85916100D01*
X147680300Y-87766100D01*
X147679096Y-87790604D01*
X147675496Y-87814873D01*
X147669535Y-87838671D01*
X147661270Y-87861771D01*
X147650780Y-87883949D01*
X147638167Y-87904993D01*
X147623553Y-87924698D01*
X147607077Y-87942877D01*
X147588898Y-87959353D01*
X147569193Y-87973967D01*
X147548149Y-87986580D01*
X147525971Y-87997070D01*
X147502871Y-88005335D01*
X147479073Y-88011296D01*
X147454804Y-88014896D01*
X147430300Y-88016100D01*
X146930300Y-88016100D01*
X146905796Y-88014896D01*
X146881527Y-88011296D01*
X146857729Y-88005335D01*
X146834629Y-87997070D01*
X146812451Y-87986580D01*
X146791407Y-87973967D01*
X146771702Y-87959353D01*
X146753523Y-87942877D01*
X146737047Y-87924698D01*
X146722433Y-87904993D01*
X146709820Y-87883949D01*
X146699330Y-87861771D01*
X146691065Y-87838671D01*
X146685104Y-87814873D01*
X146681504Y-87790604D01*
X146680300Y-87766100D01*
X146680300Y-85916100D01*
X146681504Y-85891596D01*
X146685104Y-85867327D01*
X146691065Y-85843529D01*
X146699330Y-85820429D01*
X146709820Y-85798251D01*
X146722433Y-85777207D01*
X146737047Y-85757502D01*
X146753523Y-85739323D01*
X146771702Y-85722847D01*
X146791407Y-85708233D01*
X146812451Y-85695620D01*
X146834629Y-85685130D01*
X146857729Y-85676865D01*
X146881527Y-85670904D01*
X146905796Y-85667304D01*
X146930300Y-85666100D01*
X147430300Y-85666100D01*
X147454804Y-85667304D01*
G37*
G36*
X146184804Y-85667304D02*
G01*
X146209073Y-85670904D01*
X146232871Y-85676865D01*
X146255971Y-85685130D01*
X146278149Y-85695620D01*
X146299193Y-85708233D01*
X146318898Y-85722847D01*
X146337077Y-85739323D01*
X146353553Y-85757502D01*
X146368167Y-85777207D01*
X146380780Y-85798251D01*
X146391270Y-85820429D01*
X146399535Y-85843529D01*
X146405496Y-85867327D01*
X146409096Y-85891596D01*
X146410300Y-85916100D01*
X146410300Y-87766100D01*
X146409096Y-87790604D01*
X146405496Y-87814873D01*
X146399535Y-87838671D01*
X146391270Y-87861771D01*
X146380780Y-87883949D01*
X146368167Y-87904993D01*
X146353553Y-87924698D01*
X146337077Y-87942877D01*
X146318898Y-87959353D01*
X146299193Y-87973967D01*
X146278149Y-87986580D01*
X146255971Y-87997070D01*
X146232871Y-88005335D01*
X146209073Y-88011296D01*
X146184804Y-88014896D01*
X146160300Y-88016100D01*
X145660300Y-88016100D01*
X145635796Y-88014896D01*
X145611527Y-88011296D01*
X145587729Y-88005335D01*
X145564629Y-87997070D01*
X145542451Y-87986580D01*
X145521407Y-87973967D01*
X145501702Y-87959353D01*
X145483523Y-87942877D01*
X145467047Y-87924698D01*
X145452433Y-87904993D01*
X145439820Y-87883949D01*
X145429330Y-87861771D01*
X145421065Y-87838671D01*
X145415104Y-87814873D01*
X145411504Y-87790604D01*
X145410300Y-87766100D01*
X145410300Y-85916100D01*
X145411504Y-85891596D01*
X145415104Y-85867327D01*
X145421065Y-85843529D01*
X145429330Y-85820429D01*
X145439820Y-85798251D01*
X145452433Y-85777207D01*
X145467047Y-85757502D01*
X145483523Y-85739323D01*
X145501702Y-85722847D01*
X145521407Y-85708233D01*
X145542451Y-85695620D01*
X145564629Y-85685130D01*
X145587729Y-85676865D01*
X145611527Y-85670904D01*
X145635796Y-85667304D01*
X145660300Y-85666100D01*
X146160300Y-85666100D01*
X146184804Y-85667304D01*
G37*
G36*
X146184804Y-80717304D02*
G01*
X146209073Y-80720904D01*
X146232871Y-80726865D01*
X146255971Y-80735130D01*
X146278149Y-80745620D01*
X146299193Y-80758233D01*
X146318898Y-80772847D01*
X146337077Y-80789323D01*
X146353553Y-80807502D01*
X146368167Y-80827207D01*
X146380780Y-80848251D01*
X146391270Y-80870429D01*
X146399535Y-80893529D01*
X146405496Y-80917327D01*
X146409096Y-80941596D01*
X146410300Y-80966100D01*
X146410300Y-82816100D01*
X146409096Y-82840604D01*
X146405496Y-82864873D01*
X146399535Y-82888671D01*
X146391270Y-82911771D01*
X146380780Y-82933949D01*
X146368167Y-82954993D01*
X146353553Y-82974698D01*
X146337077Y-82992877D01*
X146318898Y-83009353D01*
X146299193Y-83023967D01*
X146278149Y-83036580D01*
X146255971Y-83047070D01*
X146232871Y-83055335D01*
X146209073Y-83061296D01*
X146184804Y-83064896D01*
X146160300Y-83066100D01*
X145660300Y-83066100D01*
X145635796Y-83064896D01*
X145611527Y-83061296D01*
X145587729Y-83055335D01*
X145564629Y-83047070D01*
X145542451Y-83036580D01*
X145521407Y-83023967D01*
X145501702Y-83009353D01*
X145483523Y-82992877D01*
X145467047Y-82974698D01*
X145452433Y-82954993D01*
X145439820Y-82933949D01*
X145429330Y-82911771D01*
X145421065Y-82888671D01*
X145415104Y-82864873D01*
X145411504Y-82840604D01*
X145410300Y-82816100D01*
X145410300Y-80966100D01*
X145411504Y-80941596D01*
X145415104Y-80917327D01*
X145421065Y-80893529D01*
X145429330Y-80870429D01*
X145439820Y-80848251D01*
X145452433Y-80827207D01*
X145467047Y-80807502D01*
X145483523Y-80789323D01*
X145501702Y-80772847D01*
X145521407Y-80758233D01*
X145542451Y-80745620D01*
X145564629Y-80735130D01*
X145587729Y-80726865D01*
X145611527Y-80720904D01*
X145635796Y-80717304D01*
X145660300Y-80716100D01*
X146160300Y-80716100D01*
X146184804Y-80717304D01*
G37*
G36*
X147454804Y-80717304D02*
G01*
X147479073Y-80720904D01*
X147502871Y-80726865D01*
X147525971Y-80735130D01*
X147548149Y-80745620D01*
X147569193Y-80758233D01*
X147588898Y-80772847D01*
X147607077Y-80789323D01*
X147623553Y-80807502D01*
X147638167Y-80827207D01*
X147650780Y-80848251D01*
X147661270Y-80870429D01*
X147669535Y-80893529D01*
X147675496Y-80917327D01*
X147679096Y-80941596D01*
X147680300Y-80966100D01*
X147680300Y-82816100D01*
X147679096Y-82840604D01*
X147675496Y-82864873D01*
X147669535Y-82888671D01*
X147661270Y-82911771D01*
X147650780Y-82933949D01*
X147638167Y-82954993D01*
X147623553Y-82974698D01*
X147607077Y-82992877D01*
X147588898Y-83009353D01*
X147569193Y-83023967D01*
X147548149Y-83036580D01*
X147525971Y-83047070D01*
X147502871Y-83055335D01*
X147479073Y-83061296D01*
X147454804Y-83064896D01*
X147430300Y-83066100D01*
X146930300Y-83066100D01*
X146905796Y-83064896D01*
X146881527Y-83061296D01*
X146857729Y-83055335D01*
X146834629Y-83047070D01*
X146812451Y-83036580D01*
X146791407Y-83023967D01*
X146771702Y-83009353D01*
X146753523Y-82992877D01*
X146737047Y-82974698D01*
X146722433Y-82954993D01*
X146709820Y-82933949D01*
X146699330Y-82911771D01*
X146691065Y-82888671D01*
X146685104Y-82864873D01*
X146681504Y-82840604D01*
X146680300Y-82816100D01*
X146680300Y-80966100D01*
X146681504Y-80941596D01*
X146685104Y-80917327D01*
X146691065Y-80893529D01*
X146699330Y-80870429D01*
X146709820Y-80848251D01*
X146722433Y-80827207D01*
X146737047Y-80807502D01*
X146753523Y-80789323D01*
X146771702Y-80772847D01*
X146791407Y-80758233D01*
X146812451Y-80745620D01*
X146834629Y-80735130D01*
X146857729Y-80726865D01*
X146881527Y-80720904D01*
X146905796Y-80717304D01*
X146930300Y-80716100D01*
X147430300Y-80716100D01*
X147454804Y-80717304D01*
G37*
G36*
X148724804Y-80717304D02*
G01*
X148749073Y-80720904D01*
X148772871Y-80726865D01*
X148795971Y-80735130D01*
X148818149Y-80745620D01*
X148839193Y-80758233D01*
X148858898Y-80772847D01*
X148877077Y-80789323D01*
X148893553Y-80807502D01*
X148908167Y-80827207D01*
X148920780Y-80848251D01*
X148931270Y-80870429D01*
X148939535Y-80893529D01*
X148945496Y-80917327D01*
X148949096Y-80941596D01*
X148950300Y-80966100D01*
X148950300Y-82816100D01*
X148949096Y-82840604D01*
X148945496Y-82864873D01*
X148939535Y-82888671D01*
X148931270Y-82911771D01*
X148920780Y-82933949D01*
X148908167Y-82954993D01*
X148893553Y-82974698D01*
X148877077Y-82992877D01*
X148858898Y-83009353D01*
X148839193Y-83023967D01*
X148818149Y-83036580D01*
X148795971Y-83047070D01*
X148772871Y-83055335D01*
X148749073Y-83061296D01*
X148724804Y-83064896D01*
X148700300Y-83066100D01*
X148200300Y-83066100D01*
X148175796Y-83064896D01*
X148151527Y-83061296D01*
X148127729Y-83055335D01*
X148104629Y-83047070D01*
X148082451Y-83036580D01*
X148061407Y-83023967D01*
X148041702Y-83009353D01*
X148023523Y-82992877D01*
X148007047Y-82974698D01*
X147992433Y-82954993D01*
X147979820Y-82933949D01*
X147969330Y-82911771D01*
X147961065Y-82888671D01*
X147955104Y-82864873D01*
X147951504Y-82840604D01*
X147950300Y-82816100D01*
X147950300Y-80966100D01*
X147951504Y-80941596D01*
X147955104Y-80917327D01*
X147961065Y-80893529D01*
X147969330Y-80870429D01*
X147979820Y-80848251D01*
X147992433Y-80827207D01*
X148007047Y-80807502D01*
X148023523Y-80789323D01*
X148041702Y-80772847D01*
X148061407Y-80758233D01*
X148082451Y-80745620D01*
X148104629Y-80735130D01*
X148127729Y-80726865D01*
X148151527Y-80720904D01*
X148175796Y-80717304D01*
X148200300Y-80716100D01*
X148700300Y-80716100D01*
X148724804Y-80717304D01*
G37*
G36*
X149994804Y-80717304D02*
G01*
X150019073Y-80720904D01*
X150042871Y-80726865D01*
X150065971Y-80735130D01*
X150088149Y-80745620D01*
X150109193Y-80758233D01*
X150128898Y-80772847D01*
X150147077Y-80789323D01*
X150163553Y-80807502D01*
X150178167Y-80827207D01*
X150190780Y-80848251D01*
X150201270Y-80870429D01*
X150209535Y-80893529D01*
X150215496Y-80917327D01*
X150219096Y-80941596D01*
X150220300Y-80966100D01*
X150220300Y-82816100D01*
X150219096Y-82840604D01*
X150215496Y-82864873D01*
X150209535Y-82888671D01*
X150201270Y-82911771D01*
X150190780Y-82933949D01*
X150178167Y-82954993D01*
X150163553Y-82974698D01*
X150147077Y-82992877D01*
X150128898Y-83009353D01*
X150109193Y-83023967D01*
X150088149Y-83036580D01*
X150065971Y-83047070D01*
X150042871Y-83055335D01*
X150019073Y-83061296D01*
X149994804Y-83064896D01*
X149970300Y-83066100D01*
X149470300Y-83066100D01*
X149445796Y-83064896D01*
X149421527Y-83061296D01*
X149397729Y-83055335D01*
X149374629Y-83047070D01*
X149352451Y-83036580D01*
X149331407Y-83023967D01*
X149311702Y-83009353D01*
X149293523Y-82992877D01*
X149277047Y-82974698D01*
X149262433Y-82954993D01*
X149249820Y-82933949D01*
X149239330Y-82911771D01*
X149231065Y-82888671D01*
X149225104Y-82864873D01*
X149221504Y-82840604D01*
X149220300Y-82816100D01*
X149220300Y-80966100D01*
X149221504Y-80941596D01*
X149225104Y-80917327D01*
X149231065Y-80893529D01*
X149239330Y-80870429D01*
X149249820Y-80848251D01*
X149262433Y-80827207D01*
X149277047Y-80807502D01*
X149293523Y-80789323D01*
X149311702Y-80772847D01*
X149331407Y-80758233D01*
X149352451Y-80745620D01*
X149374629Y-80735130D01*
X149397729Y-80726865D01*
X149421527Y-80720904D01*
X149445796Y-80717304D01*
X149470300Y-80716100D01*
X149970300Y-80716100D01*
X149994804Y-80717304D01*
G37*
G36*
X151264804Y-80717304D02*
G01*
X151289073Y-80720904D01*
X151312871Y-80726865D01*
X151335971Y-80735130D01*
X151358149Y-80745620D01*
X151379193Y-80758233D01*
X151398898Y-80772847D01*
X151417077Y-80789323D01*
X151433553Y-80807502D01*
X151448167Y-80827207D01*
X151460780Y-80848251D01*
X151471270Y-80870429D01*
X151479535Y-80893529D01*
X151485496Y-80917327D01*
X151489096Y-80941596D01*
X151490300Y-80966100D01*
X151490300Y-82816100D01*
X151489096Y-82840604D01*
X151485496Y-82864873D01*
X151479535Y-82888671D01*
X151471270Y-82911771D01*
X151460780Y-82933949D01*
X151448167Y-82954993D01*
X151433553Y-82974698D01*
X151417077Y-82992877D01*
X151398898Y-83009353D01*
X151379193Y-83023967D01*
X151358149Y-83036580D01*
X151335971Y-83047070D01*
X151312871Y-83055335D01*
X151289073Y-83061296D01*
X151264804Y-83064896D01*
X151240300Y-83066100D01*
X150740300Y-83066100D01*
X150715796Y-83064896D01*
X150691527Y-83061296D01*
X150667729Y-83055335D01*
X150644629Y-83047070D01*
X150622451Y-83036580D01*
X150601407Y-83023967D01*
X150581702Y-83009353D01*
X150563523Y-82992877D01*
X150547047Y-82974698D01*
X150532433Y-82954993D01*
X150519820Y-82933949D01*
X150509330Y-82911771D01*
X150501065Y-82888671D01*
X150495104Y-82864873D01*
X150491504Y-82840604D01*
X150490300Y-82816100D01*
X150490300Y-80966100D01*
X150491504Y-80941596D01*
X150495104Y-80917327D01*
X150501065Y-80893529D01*
X150509330Y-80870429D01*
X150519820Y-80848251D01*
X150532433Y-80827207D01*
X150547047Y-80807502D01*
X150563523Y-80789323D01*
X150581702Y-80772847D01*
X150601407Y-80758233D01*
X150622451Y-80745620D01*
X150644629Y-80735130D01*
X150667729Y-80726865D01*
X150691527Y-80720904D01*
X150715796Y-80717304D01*
X150740300Y-80716100D01*
X151240300Y-80716100D01*
X151264804Y-80717304D01*
G37*
G36*
X152534804Y-80717304D02*
G01*
X152559073Y-80720904D01*
X152582871Y-80726865D01*
X152605971Y-80735130D01*
X152628149Y-80745620D01*
X152649193Y-80758233D01*
X152668898Y-80772847D01*
X152687077Y-80789323D01*
X152703553Y-80807502D01*
X152718167Y-80827207D01*
X152730780Y-80848251D01*
X152741270Y-80870429D01*
X152749535Y-80893529D01*
X152755496Y-80917327D01*
X152759096Y-80941596D01*
X152760300Y-80966100D01*
X152760300Y-82816100D01*
X152759096Y-82840604D01*
X152755496Y-82864873D01*
X152749535Y-82888671D01*
X152741270Y-82911771D01*
X152730780Y-82933949D01*
X152718167Y-82954993D01*
X152703553Y-82974698D01*
X152687077Y-82992877D01*
X152668898Y-83009353D01*
X152649193Y-83023967D01*
X152628149Y-83036580D01*
X152605971Y-83047070D01*
X152582871Y-83055335D01*
X152559073Y-83061296D01*
X152534804Y-83064896D01*
X152510300Y-83066100D01*
X152010300Y-83066100D01*
X151985796Y-83064896D01*
X151961527Y-83061296D01*
X151937729Y-83055335D01*
X151914629Y-83047070D01*
X151892451Y-83036580D01*
X151871407Y-83023967D01*
X151851702Y-83009353D01*
X151833523Y-82992877D01*
X151817047Y-82974698D01*
X151802433Y-82954993D01*
X151789820Y-82933949D01*
X151779330Y-82911771D01*
X151771065Y-82888671D01*
X151765104Y-82864873D01*
X151761504Y-82840604D01*
X151760300Y-82816100D01*
X151760300Y-80966100D01*
X151761504Y-80941596D01*
X151765104Y-80917327D01*
X151771065Y-80893529D01*
X151779330Y-80870429D01*
X151789820Y-80848251D01*
X151802433Y-80827207D01*
X151817047Y-80807502D01*
X151833523Y-80789323D01*
X151851702Y-80772847D01*
X151871407Y-80758233D01*
X151892451Y-80745620D01*
X151914629Y-80735130D01*
X151937729Y-80726865D01*
X151961527Y-80720904D01*
X151985796Y-80717304D01*
X152010300Y-80716100D01*
X152510300Y-80716100D01*
X152534804Y-80717304D01*
G37*
G36*
X153804804Y-80717304D02*
G01*
X153829073Y-80720904D01*
X153852871Y-80726865D01*
X153875971Y-80735130D01*
X153898149Y-80745620D01*
X153919193Y-80758233D01*
X153938898Y-80772847D01*
X153957077Y-80789323D01*
X153973553Y-80807502D01*
X153988167Y-80827207D01*
X154000780Y-80848251D01*
X154011270Y-80870429D01*
X154019535Y-80893529D01*
X154025496Y-80917327D01*
X154029096Y-80941596D01*
X154030300Y-80966100D01*
X154030300Y-82816100D01*
X154029096Y-82840604D01*
X154025496Y-82864873D01*
X154019535Y-82888671D01*
X154011270Y-82911771D01*
X154000780Y-82933949D01*
X153988167Y-82954993D01*
X153973553Y-82974698D01*
X153957077Y-82992877D01*
X153938898Y-83009353D01*
X153919193Y-83023967D01*
X153898149Y-83036580D01*
X153875971Y-83047070D01*
X153852871Y-83055335D01*
X153829073Y-83061296D01*
X153804804Y-83064896D01*
X153780300Y-83066100D01*
X153280300Y-83066100D01*
X153255796Y-83064896D01*
X153231527Y-83061296D01*
X153207729Y-83055335D01*
X153184629Y-83047070D01*
X153162451Y-83036580D01*
X153141407Y-83023967D01*
X153121702Y-83009353D01*
X153103523Y-82992877D01*
X153087047Y-82974698D01*
X153072433Y-82954993D01*
X153059820Y-82933949D01*
X153049330Y-82911771D01*
X153041065Y-82888671D01*
X153035104Y-82864873D01*
X153031504Y-82840604D01*
X153030300Y-82816100D01*
X153030300Y-80966100D01*
X153031504Y-80941596D01*
X153035104Y-80917327D01*
X153041065Y-80893529D01*
X153049330Y-80870429D01*
X153059820Y-80848251D01*
X153072433Y-80827207D01*
X153087047Y-80807502D01*
X153103523Y-80789323D01*
X153121702Y-80772847D01*
X153141407Y-80758233D01*
X153162451Y-80745620D01*
X153184629Y-80735130D01*
X153207729Y-80726865D01*
X153231527Y-80720904D01*
X153255796Y-80717304D01*
X153280300Y-80716100D01*
X153780300Y-80716100D01*
X153804804Y-80717304D01*
G37*
G36*
X155074804Y-80717304D02*
G01*
X155099073Y-80720904D01*
X155122871Y-80726865D01*
X155145971Y-80735130D01*
X155168149Y-80745620D01*
X155189193Y-80758233D01*
X155208898Y-80772847D01*
X155227077Y-80789323D01*
X155243553Y-80807502D01*
X155258167Y-80827207D01*
X155270780Y-80848251D01*
X155281270Y-80870429D01*
X155289535Y-80893529D01*
X155295496Y-80917327D01*
X155299096Y-80941596D01*
X155300300Y-80966100D01*
X155300300Y-82816100D01*
X155299096Y-82840604D01*
X155295496Y-82864873D01*
X155289535Y-82888671D01*
X155281270Y-82911771D01*
X155270780Y-82933949D01*
X155258167Y-82954993D01*
X155243553Y-82974698D01*
X155227077Y-82992877D01*
X155208898Y-83009353D01*
X155189193Y-83023967D01*
X155168149Y-83036580D01*
X155145971Y-83047070D01*
X155122871Y-83055335D01*
X155099073Y-83061296D01*
X155074804Y-83064896D01*
X155050300Y-83066100D01*
X154550300Y-83066100D01*
X154525796Y-83064896D01*
X154501527Y-83061296D01*
X154477729Y-83055335D01*
X154454629Y-83047070D01*
X154432451Y-83036580D01*
X154411407Y-83023967D01*
X154391702Y-83009353D01*
X154373523Y-82992877D01*
X154357047Y-82974698D01*
X154342433Y-82954993D01*
X154329820Y-82933949D01*
X154319330Y-82911771D01*
X154311065Y-82888671D01*
X154305104Y-82864873D01*
X154301504Y-82840604D01*
X154300300Y-82816100D01*
X154300300Y-80966100D01*
X154301504Y-80941596D01*
X154305104Y-80917327D01*
X154311065Y-80893529D01*
X154319330Y-80870429D01*
X154329820Y-80848251D01*
X154342433Y-80827207D01*
X154357047Y-80807502D01*
X154373523Y-80789323D01*
X154391702Y-80772847D01*
X154411407Y-80758233D01*
X154432451Y-80745620D01*
X154454629Y-80735130D01*
X154477729Y-80726865D01*
X154501527Y-80720904D01*
X154525796Y-80717304D01*
X154550300Y-80716100D01*
X155050300Y-80716100D01*
X155074804Y-80717304D01*
G37*
G36*
X144531743Y-76405455D02*
G01*
X144565112Y-76410405D01*
X144597835Y-76418602D01*
X144629597Y-76429966D01*
X144660093Y-76444390D01*
X144689027Y-76461732D01*
X144716123Y-76481828D01*
X144741118Y-76504482D01*
X144763772Y-76529477D01*
X144783868Y-76556573D01*
X144801210Y-76585507D01*
X144815634Y-76616003D01*
X144826998Y-76647765D01*
X144835195Y-76680488D01*
X144840145Y-76713857D01*
X144841800Y-76747550D01*
X144841800Y-77435050D01*
X144840145Y-77468743D01*
X144835195Y-77502112D01*
X144826998Y-77534835D01*
X144815634Y-77566597D01*
X144801210Y-77597093D01*
X144783868Y-77626027D01*
X144763772Y-77653123D01*
X144741118Y-77678118D01*
X144716123Y-77700772D01*
X144689027Y-77720868D01*
X144660093Y-77738210D01*
X144629597Y-77752634D01*
X144597835Y-77763998D01*
X144565112Y-77772195D01*
X144531743Y-77777145D01*
X144498050Y-77778800D01*
X143385550Y-77778800D01*
X143351857Y-77777145D01*
X143318488Y-77772195D01*
X143285765Y-77763998D01*
X143254003Y-77752634D01*
X143223507Y-77738210D01*
X143194573Y-77720868D01*
X143167477Y-77700772D01*
X143142482Y-77678118D01*
X143119828Y-77653123D01*
X143099732Y-77626027D01*
X143082390Y-77597093D01*
X143067966Y-77566597D01*
X143056602Y-77534835D01*
X143048405Y-77502112D01*
X143043455Y-77468743D01*
X143041800Y-77435050D01*
X143041800Y-76747550D01*
X143043455Y-76713857D01*
X143048405Y-76680488D01*
X143056602Y-76647765D01*
X143067966Y-76616003D01*
X143082390Y-76585507D01*
X143099732Y-76556573D01*
X143119828Y-76529477D01*
X143142482Y-76504482D01*
X143167477Y-76481828D01*
X143194573Y-76461732D01*
X143223507Y-76444390D01*
X143254003Y-76429966D01*
X143285765Y-76418602D01*
X143318488Y-76410405D01*
X143351857Y-76405455D01*
X143385550Y-76403800D01*
X144498050Y-76403800D01*
X144531743Y-76405455D01*
G37*
G36*
X144531743Y-78280455D02*
G01*
X144565112Y-78285405D01*
X144597835Y-78293602D01*
X144629597Y-78304966D01*
X144660093Y-78319390D01*
X144689027Y-78336732D01*
X144716123Y-78356828D01*
X144741118Y-78379482D01*
X144763772Y-78404477D01*
X144783868Y-78431573D01*
X144801210Y-78460507D01*
X144815634Y-78491003D01*
X144826998Y-78522765D01*
X144835195Y-78555488D01*
X144840145Y-78588857D01*
X144841800Y-78622550D01*
X144841800Y-79310050D01*
X144840145Y-79343743D01*
X144835195Y-79377112D01*
X144826998Y-79409835D01*
X144815634Y-79441597D01*
X144801210Y-79472093D01*
X144783868Y-79501027D01*
X144763772Y-79528123D01*
X144741118Y-79553118D01*
X144716123Y-79575772D01*
X144689027Y-79595868D01*
X144660093Y-79613210D01*
X144629597Y-79627634D01*
X144597835Y-79638998D01*
X144565112Y-79647195D01*
X144531743Y-79652145D01*
X144498050Y-79653800D01*
X143385550Y-79653800D01*
X143351857Y-79652145D01*
X143318488Y-79647195D01*
X143285765Y-79638998D01*
X143254003Y-79627634D01*
X143223507Y-79613210D01*
X143194573Y-79595868D01*
X143167477Y-79575772D01*
X143142482Y-79553118D01*
X143119828Y-79528123D01*
X143099732Y-79501027D01*
X143082390Y-79472093D01*
X143067966Y-79441597D01*
X143056602Y-79409835D01*
X143048405Y-79377112D01*
X143043455Y-79343743D01*
X143041800Y-79310050D01*
X143041800Y-78622550D01*
X143043455Y-78588857D01*
X143048405Y-78555488D01*
X143056602Y-78522765D01*
X143067966Y-78491003D01*
X143082390Y-78460507D01*
X143099732Y-78431573D01*
X143119828Y-78404477D01*
X143142482Y-78379482D01*
X143167477Y-78356828D01*
X143194573Y-78336732D01*
X143223507Y-78319390D01*
X143254003Y-78304966D01*
X143285765Y-78293602D01*
X143318488Y-78285405D01*
X143351857Y-78280455D01*
X143385550Y-78278800D01*
X144498050Y-78278800D01*
X144531743Y-78280455D01*
G37*
G36*
X147191743Y-78502055D02*
G01*
X147225112Y-78507005D01*
X147257835Y-78515202D01*
X147289597Y-78526566D01*
X147320093Y-78540990D01*
X147349027Y-78558332D01*
X147376123Y-78578428D01*
X147401118Y-78601082D01*
X147423772Y-78626077D01*
X147443868Y-78653173D01*
X147461210Y-78682107D01*
X147475634Y-78712603D01*
X147486998Y-78744365D01*
X147495195Y-78777088D01*
X147500145Y-78810457D01*
X147501800Y-78844150D01*
X147501800Y-79956650D01*
X147500145Y-79990343D01*
X147495195Y-80023712D01*
X147486998Y-80056435D01*
X147475634Y-80088197D01*
X147461210Y-80118693D01*
X147443868Y-80147627D01*
X147423772Y-80174723D01*
X147401118Y-80199718D01*
X147376123Y-80222372D01*
X147349027Y-80242468D01*
X147320093Y-80259810D01*
X147289597Y-80274234D01*
X147257835Y-80285598D01*
X147225112Y-80293795D01*
X147191743Y-80298745D01*
X147158050Y-80300400D01*
X146470550Y-80300400D01*
X146436857Y-80298745D01*
X146403488Y-80293795D01*
X146370765Y-80285598D01*
X146339003Y-80274234D01*
X146308507Y-80259810D01*
X146279573Y-80242468D01*
X146252477Y-80222372D01*
X146227482Y-80199718D01*
X146204828Y-80174723D01*
X146184732Y-80147627D01*
X146167390Y-80118693D01*
X146152966Y-80088197D01*
X146141602Y-80056435D01*
X146133405Y-80023712D01*
X146128455Y-79990343D01*
X146126800Y-79956650D01*
X146126800Y-78844150D01*
X146128455Y-78810457D01*
X146133405Y-78777088D01*
X146141602Y-78744365D01*
X146152966Y-78712603D01*
X146167390Y-78682107D01*
X146184732Y-78653173D01*
X146204828Y-78626077D01*
X146227482Y-78601082D01*
X146252477Y-78578428D01*
X146279573Y-78558332D01*
X146308507Y-78540990D01*
X146339003Y-78526566D01*
X146370765Y-78515202D01*
X146403488Y-78507005D01*
X146436857Y-78502055D01*
X146470550Y-78500400D01*
X147158050Y-78500400D01*
X147191743Y-78502055D01*
G37*
G36*
X149066743Y-78502055D02*
G01*
X149100112Y-78507005D01*
X149132835Y-78515202D01*
X149164597Y-78526566D01*
X149195093Y-78540990D01*
X149224027Y-78558332D01*
X149251123Y-78578428D01*
X149276118Y-78601082D01*
X149298772Y-78626077D01*
X149318868Y-78653173D01*
X149336210Y-78682107D01*
X149350634Y-78712603D01*
X149361998Y-78744365D01*
X149370195Y-78777088D01*
X149375145Y-78810457D01*
X149376800Y-78844150D01*
X149376800Y-79956650D01*
X149375145Y-79990343D01*
X149370195Y-80023712D01*
X149361998Y-80056435D01*
X149350634Y-80088197D01*
X149336210Y-80118693D01*
X149318868Y-80147627D01*
X149298772Y-80174723D01*
X149276118Y-80199718D01*
X149251123Y-80222372D01*
X149224027Y-80242468D01*
X149195093Y-80259810D01*
X149164597Y-80274234D01*
X149132835Y-80285598D01*
X149100112Y-80293795D01*
X149066743Y-80298745D01*
X149033050Y-80300400D01*
X148345550Y-80300400D01*
X148311857Y-80298745D01*
X148278488Y-80293795D01*
X148245765Y-80285598D01*
X148214003Y-80274234D01*
X148183507Y-80259810D01*
X148154573Y-80242468D01*
X148127477Y-80222372D01*
X148102482Y-80199718D01*
X148079828Y-80174723D01*
X148059732Y-80147627D01*
X148042390Y-80118693D01*
X148027966Y-80088197D01*
X148016602Y-80056435D01*
X148008405Y-80023712D01*
X148003455Y-79990343D01*
X148001800Y-79956650D01*
X148001800Y-78844150D01*
X148003455Y-78810457D01*
X148008405Y-78777088D01*
X148016602Y-78744365D01*
X148027966Y-78712603D01*
X148042390Y-78682107D01*
X148059732Y-78653173D01*
X148079828Y-78626077D01*
X148102482Y-78601082D01*
X148127477Y-78578428D01*
X148154573Y-78558332D01*
X148183507Y-78540990D01*
X148214003Y-78526566D01*
X148245765Y-78515202D01*
X148278488Y-78507005D01*
X148311857Y-78502055D01*
X148345550Y-78500400D01*
X149033050Y-78500400D01*
X149066743Y-78502055D01*
G37*
D13*
X157949900Y-83743800D03*
X157949900Y-82473800D03*
X157949900Y-81203800D03*
D16*
X150723600Y-72581500D03*
X150723600Y-69531500D03*
M02*
