G04 #@! TF.GenerationSoftware,KiCad,Pcbnew,(5.1.5)-3*
G04 #@! TF.CreationDate,2020-12-08T16:15:33+01:00*
G04 #@! TF.ProjectId,Microduino_UART,4d696372-6f64-4756-996e-6f5f55415254,0.0*
G04 #@! TF.SameCoordinates,Original*
G04 #@! TF.FileFunction,Legend,Top*
G04 #@! TF.FilePolarity,Positive*
%FSLAX46Y46*%
G04 Gerber Fmt 4.6, Leading zero omitted, Abs format (unit mm)*
G04 Created by KiCad (PCBNEW (5.1.5)-3) date 2020-12-08 16:15:33*
%MOMM*%
%LPD*%
G04 APERTURE LIST*
%ADD10C,0.150000*%
%ADD11C,0.250000*%
%ADD12C,0.120000*%
G04 APERTURE END LIST*
D10*
X145727728Y-69511704D02*
X145727728Y-68749800D01*
X146108680Y-69130752D02*
X145346776Y-69130752D01*
X145108680Y-68416466D02*
X146108680Y-68083133D01*
X145108680Y-67749800D01*
X146108680Y-67273609D02*
X146061061Y-67368847D01*
X146013442Y-67416466D01*
X145918204Y-67464085D01*
X145632490Y-67464085D01*
X145537252Y-67416466D01*
X145489633Y-67368847D01*
X145442014Y-67273609D01*
X145442014Y-67130752D01*
X145489633Y-67035514D01*
X145537252Y-66987895D01*
X145632490Y-66940276D01*
X145918204Y-66940276D01*
X146013442Y-66987895D01*
X146061061Y-67035514D01*
X146108680Y-67130752D01*
X146108680Y-67273609D01*
X147712180Y-68808576D02*
X147712180Y-69284766D01*
X148188371Y-69332385D01*
X148140752Y-69284766D01*
X148093133Y-69189528D01*
X148093133Y-68951433D01*
X148140752Y-68856195D01*
X148188371Y-68808576D01*
X148283609Y-68760957D01*
X148521704Y-68760957D01*
X148616942Y-68808576D01*
X148664561Y-68856195D01*
X148712180Y-68951433D01*
X148712180Y-69189528D01*
X148664561Y-69284766D01*
X148616942Y-69332385D01*
X147712180Y-68475242D02*
X148712180Y-68141909D01*
X147712180Y-67808576D01*
X146391380Y-75634719D02*
X146391380Y-75015671D01*
X146772333Y-75349004D01*
X146772333Y-75206147D01*
X146819952Y-75110909D01*
X146867571Y-75063290D01*
X146962809Y-75015671D01*
X147200904Y-75015671D01*
X147296142Y-75063290D01*
X147343761Y-75110909D01*
X147391380Y-75206147D01*
X147391380Y-75491861D01*
X147343761Y-75587100D01*
X147296142Y-75634719D01*
X147296142Y-74587100D02*
X147343761Y-74539480D01*
X147391380Y-74587100D01*
X147343761Y-74634719D01*
X147296142Y-74587100D01*
X147391380Y-74587100D01*
X146391380Y-74206147D02*
X146391380Y-73587100D01*
X146772333Y-73920433D01*
X146772333Y-73777576D01*
X146819952Y-73682338D01*
X146867571Y-73634719D01*
X146962809Y-73587100D01*
X147200904Y-73587100D01*
X147296142Y-73634719D01*
X147343761Y-73682338D01*
X147391380Y-73777576D01*
X147391380Y-74063290D01*
X147343761Y-74158528D01*
X147296142Y-74206147D01*
D11*
X142829085Y-86462828D02*
X144286228Y-86462828D01*
X144457657Y-86377114D01*
X144543371Y-86291400D01*
X144629085Y-86119971D01*
X144629085Y-85777114D01*
X144543371Y-85605685D01*
X144457657Y-85519971D01*
X144286228Y-85434257D01*
X142829085Y-85434257D01*
X144114800Y-84662828D02*
X144114800Y-83805685D01*
X144629085Y-84834257D02*
X142829085Y-84234257D01*
X144629085Y-83634257D01*
X144629085Y-82005685D02*
X143771942Y-82605685D01*
X144629085Y-83034257D02*
X142829085Y-83034257D01*
X142829085Y-82348542D01*
X142914800Y-82177114D01*
X143000514Y-82091400D01*
X143171942Y-82005685D01*
X143429085Y-82005685D01*
X143600514Y-82091400D01*
X143686228Y-82177114D01*
X143771942Y-82348542D01*
X143771942Y-83034257D01*
X142829085Y-81491400D02*
X142829085Y-80462828D01*
X144629085Y-80977114D02*
X142829085Y-80977114D01*
D12*
X145016300Y-71603600D02*
X145016300Y-73133600D01*
X148836300Y-71603600D02*
X148836300Y-73133600D01*
X145016300Y-73133600D02*
X148836300Y-73133600D01*
X148836300Y-71603600D02*
X148836300Y-69823600D01*
X148836300Y-69823600D02*
X145016300Y-69823600D01*
X145016300Y-71603600D02*
X145016300Y-69823600D01*
X151704000Y-89576300D02*
X151704000Y-81976300D01*
X151064000Y-89576300D02*
X151704000Y-89576300D01*
X151064000Y-81976300D02*
X151064000Y-89576300D01*
X151064000Y-78776300D02*
X151064000Y-77876300D01*
X151704000Y-77876300D02*
X151704000Y-78776300D01*
X151704000Y-77876300D02*
X151704000Y-78776300D01*
X151064000Y-78776300D02*
X151064000Y-77876300D01*
X151064000Y-81976300D02*
X151064000Y-89576300D01*
X151064000Y-89576300D02*
X151704000Y-89576300D01*
X151704000Y-89576300D02*
X151704000Y-81976300D01*
X151704000Y-89576300D02*
X151704000Y-81976300D01*
X151064000Y-89576300D02*
X151704000Y-89576300D01*
X151064000Y-81976300D02*
X151064000Y-89576300D01*
X151064000Y-78776300D02*
X151064000Y-77876300D01*
X151704000Y-77876300D02*
X151704000Y-78776300D01*
X151704000Y-77876300D02*
X151704000Y-78776300D01*
X151064000Y-78776300D02*
X151064000Y-77876300D01*
X151064000Y-81976300D02*
X151064000Y-89576300D01*
X151064000Y-89576300D02*
X151704000Y-89576300D01*
X151704000Y-89576300D02*
X151704000Y-81976300D01*
X156784000Y-89576300D02*
X156784000Y-81976300D01*
X156144000Y-89576300D02*
X156784000Y-89576300D01*
X156144000Y-81976300D02*
X156144000Y-89576300D01*
X156144000Y-78776300D02*
X156144000Y-77876300D01*
X156784000Y-77876300D02*
X156784000Y-78776300D01*
X156784000Y-77876300D02*
X156784000Y-78776300D01*
X156144000Y-78776300D02*
X156144000Y-77876300D01*
X156144000Y-81976300D02*
X156144000Y-89576300D01*
X156144000Y-89576300D02*
X156784000Y-89576300D01*
X156784000Y-89576300D02*
X156784000Y-81976300D01*
X156784000Y-89576300D02*
X156784000Y-81976300D01*
X156144000Y-89576300D02*
X156784000Y-89576300D01*
X156144000Y-81976300D02*
X156144000Y-89576300D01*
X156144000Y-78776300D02*
X156144000Y-77876300D01*
X156784000Y-77876300D02*
X156784000Y-78776300D01*
X156784000Y-77876300D02*
X156784000Y-78776300D01*
X156144000Y-78776300D02*
X156144000Y-77876300D01*
X156144000Y-81976300D02*
X156144000Y-89576300D01*
X156144000Y-89576300D02*
X156784000Y-89576300D01*
X156784000Y-89576300D02*
X156784000Y-81976300D01*
X149164000Y-89576300D02*
X149164000Y-81976300D01*
X148524000Y-89576300D02*
X149164000Y-89576300D01*
X148524000Y-81976300D02*
X148524000Y-89576300D01*
X148524000Y-78776300D02*
X148524000Y-77876300D01*
X149164000Y-77876300D02*
X149164000Y-78776300D01*
X149164000Y-77876300D02*
X149164000Y-78776300D01*
X148524000Y-78776300D02*
X148524000Y-77876300D01*
X148524000Y-81976300D02*
X148524000Y-89576300D01*
X148524000Y-89576300D02*
X149164000Y-89576300D01*
X149164000Y-89576300D02*
X149164000Y-81976300D01*
X149164000Y-89576300D02*
X149164000Y-81976300D01*
X148524000Y-89576300D02*
X149164000Y-89576300D01*
X148524000Y-81976300D02*
X148524000Y-89576300D01*
X148524000Y-78776300D02*
X148524000Y-77876300D01*
X149164000Y-77876300D02*
X149164000Y-78776300D01*
X149164000Y-77876300D02*
X149164000Y-78776300D01*
X148524000Y-78776300D02*
X148524000Y-77876300D01*
X148524000Y-81976300D02*
X148524000Y-89576300D01*
X148524000Y-89576300D02*
X149164000Y-89576300D01*
X149164000Y-89576300D02*
X149164000Y-81976300D01*
X146624000Y-89576300D02*
X146624000Y-81976300D01*
X145984000Y-89576300D02*
X146624000Y-89576300D01*
X145984000Y-81976300D02*
X145984000Y-89576300D01*
X145984000Y-78776300D02*
X145984000Y-77876300D01*
X146624000Y-77876300D02*
X146624000Y-78776300D01*
X146624000Y-77876300D02*
X146624000Y-78776300D01*
X145984000Y-78776300D02*
X145984000Y-77876300D01*
X145984000Y-81976300D02*
X145984000Y-89576300D01*
X145984000Y-89576300D02*
X146624000Y-89576300D01*
X146624000Y-89576300D02*
X146624000Y-81976300D01*
X146624000Y-89576300D02*
X146624000Y-81976300D01*
X145984000Y-89576300D02*
X146624000Y-89576300D01*
X145984000Y-81976300D02*
X145984000Y-89576300D01*
X145984000Y-78776300D02*
X145984000Y-77876300D01*
X146624000Y-77876300D02*
X146624000Y-78776300D01*
X146624000Y-77876300D02*
X146624000Y-78776300D01*
X145984000Y-78776300D02*
X145984000Y-77876300D01*
X145984000Y-81976300D02*
X145984000Y-89576300D01*
X145984000Y-89576300D02*
X146624000Y-89576300D01*
X146624000Y-89576300D02*
X146624000Y-81976300D01*
X157607000Y-81976300D02*
X145014000Y-81976300D01*
X145014000Y-78776300D02*
X145014000Y-90086300D01*
X145014000Y-90086300D02*
X157654000Y-90086300D01*
X157654000Y-90086300D02*
X157654000Y-78776300D01*
X157654000Y-78776300D02*
X145014000Y-78776300D01*
X153604000Y-81976300D02*
X153604000Y-89576300D01*
X154244000Y-77876300D02*
X154244000Y-78776300D01*
X154244000Y-77876300D02*
X154244000Y-78776300D01*
X153604000Y-81976300D02*
X153604000Y-89576300D01*
X154244000Y-89576300D02*
X154244000Y-81976300D01*
X154244000Y-77876300D02*
X154244000Y-78776300D01*
X153604000Y-81976300D02*
X153604000Y-89576300D01*
X153604000Y-89576300D02*
X154244000Y-89576300D01*
X154244000Y-89576300D02*
X154244000Y-81976300D01*
X153604000Y-78776300D02*
X153604000Y-77876300D01*
X153604000Y-78776300D02*
X153604000Y-77876300D01*
X154244000Y-89576300D02*
X154244000Y-81976300D01*
X153604000Y-78776300D02*
X153604000Y-77876300D01*
X153604000Y-89576300D02*
X154244000Y-89576300D01*
X153604000Y-89576300D02*
X154244000Y-89576300D01*
X153604000Y-78776300D02*
X153604000Y-77876300D01*
X153604000Y-81976300D02*
X153604000Y-89576300D01*
X154244000Y-89576300D02*
X154244000Y-81976300D01*
X154244000Y-77876300D02*
X154244000Y-78776300D01*
X153604000Y-89576300D02*
X154244000Y-89576300D01*
X156062600Y-74834800D02*
X156062600Y-73574800D01*
X156062600Y-68014800D02*
X156062600Y-69274800D01*
X152302600Y-74834800D02*
X156062600Y-74834800D01*
X150052600Y-68014800D02*
X156062600Y-68014800D01*
D10*
X143302100Y-72178776D02*
X143254480Y-72274014D01*
X143254480Y-72416871D01*
X143302100Y-72559728D01*
X143397338Y-72654966D01*
X143492576Y-72702585D01*
X143683052Y-72750204D01*
X143825909Y-72750204D01*
X144016385Y-72702585D01*
X144111623Y-72654966D01*
X144206861Y-72559728D01*
X144254480Y-72416871D01*
X144254480Y-72321633D01*
X144206861Y-72178776D01*
X144159242Y-72131157D01*
X143825909Y-72131157D01*
X143825909Y-72321633D01*
X144206861Y-71750204D02*
X144254480Y-71607347D01*
X144254480Y-71369252D01*
X144206861Y-71274014D01*
X144159242Y-71226395D01*
X144064004Y-71178776D01*
X143968766Y-71178776D01*
X143873528Y-71226395D01*
X143825909Y-71274014D01*
X143778290Y-71369252D01*
X143730671Y-71559728D01*
X143683052Y-71654966D01*
X143635433Y-71702585D01*
X143540195Y-71750204D01*
X143444957Y-71750204D01*
X143349719Y-71702585D01*
X143302100Y-71654966D01*
X143254480Y-71559728D01*
X143254480Y-71321633D01*
X143302100Y-71178776D01*
X144254480Y-70226395D02*
X144254480Y-70797823D01*
X144254480Y-70512109D02*
X143254480Y-70512109D01*
X143397338Y-70607347D01*
X143492576Y-70702585D01*
X143540195Y-70797823D01*
X158492866Y-76515980D02*
X158492866Y-77230266D01*
X158445247Y-77373123D01*
X158350009Y-77468361D01*
X158207152Y-77515980D01*
X158111914Y-77515980D01*
X159492866Y-77515980D02*
X158921438Y-77515980D01*
X159207152Y-77515980D02*
X159207152Y-76515980D01*
X159111914Y-76658838D01*
X159016676Y-76754076D01*
X158921438Y-76801695D01*
X157994361Y-68733919D02*
X157899123Y-68686300D01*
X157803885Y-68591061D01*
X157661028Y-68448204D01*
X157565790Y-68400585D01*
X157470552Y-68400585D01*
X157518171Y-68638680D02*
X157422933Y-68591061D01*
X157327695Y-68495823D01*
X157280076Y-68305347D01*
X157280076Y-67972014D01*
X157327695Y-67781538D01*
X157422933Y-67686300D01*
X157518171Y-67638680D01*
X157708647Y-67638680D01*
X157803885Y-67686300D01*
X157899123Y-67781538D01*
X157946742Y-67972014D01*
X157946742Y-68305347D01*
X157899123Y-68495823D01*
X157803885Y-68591061D01*
X157708647Y-68638680D01*
X157518171Y-68638680D01*
X158899123Y-68638680D02*
X158327695Y-68638680D01*
X158613409Y-68638680D02*
X158613409Y-67638680D01*
X158518171Y-67781538D01*
X158422933Y-67876776D01*
X158327695Y-67924395D01*
M02*
