G04 #@! TF.FileFunction,Legend,Bot*
%FSLAX46Y46*%
G04 Gerber Fmt 4.6, Leading zero omitted, Abs format (unit mm)*
G04 Created by KiCad (PCBNEW 4.0.6) date 07/30/17 19:43:23*
%MOMM*%
%LPD*%
G01*
G04 APERTURE LIST*
%ADD10C,0.100000*%
%ADD11C,0.250000*%
%ADD12C,0.150000*%
%ADD13C,0.120000*%
G04 APERTURE END LIST*
D10*
D11*
X153685286Y-73406429D02*
X153428143Y-73492143D01*
X153342428Y-73577857D01*
X153256714Y-73749286D01*
X153256714Y-74006429D01*
X153342428Y-74177857D01*
X153428143Y-74263571D01*
X153599571Y-74349286D01*
X154285286Y-74349286D01*
X154285286Y-72549286D01*
X153685286Y-72549286D01*
X153513857Y-72635000D01*
X153428143Y-72720714D01*
X153342428Y-72892143D01*
X153342428Y-73063571D01*
X153428143Y-73235000D01*
X153513857Y-73320714D01*
X153685286Y-73406429D01*
X154285286Y-73406429D01*
X152571000Y-73835000D02*
X151713857Y-73835000D01*
X152742428Y-74349286D02*
X152142428Y-72549286D01*
X151542428Y-74349286D01*
X151028143Y-74263571D02*
X150771000Y-74349286D01*
X150342429Y-74349286D01*
X150171000Y-74263571D01*
X150085286Y-74177857D01*
X149999571Y-74006429D01*
X149999571Y-73835000D01*
X150085286Y-73663571D01*
X150171000Y-73577857D01*
X150342429Y-73492143D01*
X150685286Y-73406429D01*
X150856714Y-73320714D01*
X150942429Y-73235000D01*
X151028143Y-73063571D01*
X151028143Y-72892143D01*
X150942429Y-72720714D01*
X150856714Y-72635000D01*
X150685286Y-72549286D01*
X150256714Y-72549286D01*
X149999571Y-72635000D01*
X149228143Y-73406429D02*
X148628143Y-73406429D01*
X148371000Y-74349286D02*
X149228143Y-74349286D01*
X149228143Y-72549286D01*
X148371000Y-72549286D01*
D12*
X145181000Y-69265000D02*
X144081000Y-68165000D01*
X145181000Y-69265000D02*
X145181000Y-71065000D01*
X158781000Y-67965000D02*
X157781000Y-68965000D01*
X157781000Y-68965000D02*
X157781000Y-71765000D01*
D13*
X139931000Y-89495000D02*
X139931000Y-63975000D01*
X139931000Y-63975000D02*
X162911000Y-63975000D01*
X162911000Y-89495000D02*
X162911000Y-63975000D01*
X160251000Y-89495000D02*
X160251000Y-66635000D01*
X160251000Y-66635000D02*
X142591000Y-66635000D01*
X142591000Y-89495000D02*
X142591000Y-66635000D01*
X142591000Y-89495000D02*
X142591000Y-82685000D01*
X162911000Y-89495000D02*
X160251000Y-89495000D01*
X139931000Y-89495000D02*
X142591000Y-89495000D01*
X162911000Y-67845000D02*
X162911000Y-66515000D01*
D12*
X159839095Y-90287381D02*
X159839095Y-89287381D01*
X159458142Y-89287381D01*
X159362904Y-89335000D01*
X159315285Y-89382619D01*
X159267666Y-89477857D01*
X159267666Y-89620714D01*
X159315285Y-89715952D01*
X159362904Y-89763571D01*
X159458142Y-89811190D01*
X159839095Y-89811190D01*
X158934333Y-89287381D02*
X158315285Y-89287381D01*
X158648619Y-89668333D01*
X158505761Y-89668333D01*
X158410523Y-89715952D01*
X158362904Y-89763571D01*
X158315285Y-89858810D01*
X158315285Y-90096905D01*
X158362904Y-90192143D01*
X158410523Y-90239762D01*
X158505761Y-90287381D01*
X158791476Y-90287381D01*
X158886714Y-90239762D01*
X158934333Y-90192143D01*
X145914333Y-69793572D02*
X145914333Y-70174524D01*
X146142905Y-69717381D02*
X145342905Y-69984048D01*
X146142905Y-70250715D01*
X145342905Y-70441191D02*
X145342905Y-70974524D01*
X146142905Y-70631667D01*
X157214333Y-69069762D02*
X157214333Y-69450714D01*
X157442905Y-68993571D02*
X156642905Y-69260238D01*
X157442905Y-69526905D01*
X157442905Y-70250714D02*
X157061952Y-69984047D01*
X157442905Y-69793571D02*
X156642905Y-69793571D01*
X156642905Y-70098333D01*
X156681000Y-70174524D01*
X156719095Y-70212619D01*
X156795286Y-70250714D01*
X156909571Y-70250714D01*
X156985762Y-70212619D01*
X157023857Y-70174524D01*
X157061952Y-70098333D01*
X157061952Y-69793571D01*
X157023857Y-70593571D02*
X157023857Y-70860238D01*
X157442905Y-70974524D02*
X157442905Y-70593571D01*
X156642905Y-70593571D01*
X156642905Y-70974524D01*
X157023857Y-71584048D02*
X157023857Y-71317381D01*
X157442905Y-71317381D02*
X156642905Y-71317381D01*
X156642905Y-71698334D01*
X142981000Y-87555477D02*
X142942905Y-87479286D01*
X142942905Y-87365001D01*
X142981000Y-87250715D01*
X143057190Y-87174524D01*
X143133381Y-87136429D01*
X143285762Y-87098334D01*
X143400048Y-87098334D01*
X143552429Y-87136429D01*
X143628619Y-87174524D01*
X143704810Y-87250715D01*
X143742905Y-87365001D01*
X143742905Y-87441191D01*
X143704810Y-87555477D01*
X143666714Y-87593572D01*
X143400048Y-87593572D01*
X143400048Y-87441191D01*
X143742905Y-87936429D02*
X142942905Y-87936429D01*
X143742905Y-88393572D01*
X142942905Y-88393572D01*
X143742905Y-88774524D02*
X142942905Y-88774524D01*
X142942905Y-88965000D01*
X142981000Y-89079286D01*
X143057190Y-89155477D01*
X143133381Y-89193572D01*
X143285762Y-89231667D01*
X143400048Y-89231667D01*
X143552429Y-89193572D01*
X143628619Y-89155477D01*
X143704810Y-89079286D01*
X143742905Y-88965000D01*
X143742905Y-88774524D01*
X143742905Y-85226905D02*
X143361952Y-84960238D01*
X143742905Y-84769762D02*
X142942905Y-84769762D01*
X142942905Y-85074524D01*
X142981000Y-85150715D01*
X143019095Y-85188810D01*
X143095286Y-85226905D01*
X143209571Y-85226905D01*
X143285762Y-85188810D01*
X143323857Y-85150715D01*
X143361952Y-85074524D01*
X143361952Y-84769762D01*
X143704810Y-85531667D02*
X143742905Y-85645953D01*
X143742905Y-85836429D01*
X143704810Y-85912619D01*
X143666714Y-85950715D01*
X143590524Y-85988810D01*
X143514333Y-85988810D01*
X143438143Y-85950715D01*
X143400048Y-85912619D01*
X143361952Y-85836429D01*
X143323857Y-85684048D01*
X143285762Y-85607857D01*
X143247667Y-85569762D01*
X143171476Y-85531667D01*
X143095286Y-85531667D01*
X143019095Y-85569762D01*
X142981000Y-85607857D01*
X142942905Y-85684048D01*
X142942905Y-85874524D01*
X142981000Y-85988810D01*
X142942905Y-86217381D02*
X142942905Y-86674524D01*
X143742905Y-86445953D02*
X142942905Y-86445953D01*
X143742905Y-82474524D02*
X142942905Y-82474524D01*
X142942905Y-82665000D01*
X142981000Y-82779286D01*
X143057190Y-82855477D01*
X143133381Y-82893572D01*
X143285762Y-82931667D01*
X143400048Y-82931667D01*
X143552429Y-82893572D01*
X143628619Y-82855477D01*
X143704810Y-82779286D01*
X143742905Y-82665000D01*
X143742905Y-82474524D01*
X142942905Y-83617381D02*
X142942905Y-83465000D01*
X142981000Y-83388810D01*
X143019095Y-83350715D01*
X143133381Y-83274524D01*
X143285762Y-83236429D01*
X143590524Y-83236429D01*
X143666714Y-83274524D01*
X143704810Y-83312619D01*
X143742905Y-83388810D01*
X143742905Y-83541191D01*
X143704810Y-83617381D01*
X143666714Y-83655477D01*
X143590524Y-83693572D01*
X143400048Y-83693572D01*
X143323857Y-83655477D01*
X143285762Y-83617381D01*
X143247667Y-83541191D01*
X143247667Y-83388810D01*
X143285762Y-83312619D01*
X143323857Y-83274524D01*
X143400048Y-83236429D01*
X143742905Y-79974524D02*
X142942905Y-79974524D01*
X142942905Y-80165000D01*
X142981000Y-80279286D01*
X143057190Y-80355477D01*
X143133381Y-80393572D01*
X143285762Y-80431667D01*
X143400048Y-80431667D01*
X143552429Y-80393572D01*
X143628619Y-80355477D01*
X143704810Y-80279286D01*
X143742905Y-80165000D01*
X143742905Y-79974524D01*
X142942905Y-81155477D02*
X142942905Y-80774524D01*
X143323857Y-80736429D01*
X143285762Y-80774524D01*
X143247667Y-80850715D01*
X143247667Y-81041191D01*
X143285762Y-81117381D01*
X143323857Y-81155477D01*
X143400048Y-81193572D01*
X143590524Y-81193572D01*
X143666714Y-81155477D01*
X143704810Y-81117381D01*
X143742905Y-81041191D01*
X143742905Y-80850715D01*
X143704810Y-80774524D01*
X143666714Y-80736429D01*
X143742905Y-77374524D02*
X142942905Y-77374524D01*
X142942905Y-77565000D01*
X142981000Y-77679286D01*
X143057190Y-77755477D01*
X143133381Y-77793572D01*
X143285762Y-77831667D01*
X143400048Y-77831667D01*
X143552429Y-77793572D01*
X143628619Y-77755477D01*
X143704810Y-77679286D01*
X143742905Y-77565000D01*
X143742905Y-77374524D01*
X143209571Y-78517381D02*
X143742905Y-78517381D01*
X142904810Y-78326905D02*
X143476238Y-78136429D01*
X143476238Y-78631667D01*
X143742905Y-74874524D02*
X142942905Y-74874524D01*
X142942905Y-75065000D01*
X142981000Y-75179286D01*
X143057190Y-75255477D01*
X143133381Y-75293572D01*
X143285762Y-75331667D01*
X143400048Y-75331667D01*
X143552429Y-75293572D01*
X143628619Y-75255477D01*
X143704810Y-75179286D01*
X143742905Y-75065000D01*
X143742905Y-74874524D01*
X142942905Y-75598334D02*
X142942905Y-76093572D01*
X143247667Y-75826905D01*
X143247667Y-75941191D01*
X143285762Y-76017381D01*
X143323857Y-76055477D01*
X143400048Y-76093572D01*
X143590524Y-76093572D01*
X143666714Y-76055477D01*
X143704810Y-76017381D01*
X143742905Y-75941191D01*
X143742905Y-75712619D01*
X143704810Y-75636429D01*
X143666714Y-75598334D01*
X143742905Y-72374524D02*
X142942905Y-72374524D01*
X142942905Y-72565000D01*
X142981000Y-72679286D01*
X143057190Y-72755477D01*
X143133381Y-72793572D01*
X143285762Y-72831667D01*
X143400048Y-72831667D01*
X143552429Y-72793572D01*
X143628619Y-72755477D01*
X143704810Y-72679286D01*
X143742905Y-72565000D01*
X143742905Y-72374524D01*
X143019095Y-73136429D02*
X142981000Y-73174524D01*
X142942905Y-73250715D01*
X142942905Y-73441191D01*
X142981000Y-73517381D01*
X143019095Y-73555477D01*
X143095286Y-73593572D01*
X143171476Y-73593572D01*
X143285762Y-73555477D01*
X143742905Y-73098334D01*
X143742905Y-73593572D01*
X142942905Y-69374523D02*
X142942905Y-69831666D01*
X143742905Y-69603095D02*
X142942905Y-69603095D01*
X142942905Y-70022143D02*
X143742905Y-70555476D01*
X142942905Y-70555476D02*
X143742905Y-70022143D01*
X142942905Y-71012619D02*
X142942905Y-71088810D01*
X142981000Y-71165000D01*
X143019095Y-71203095D01*
X143095286Y-71241191D01*
X143247667Y-71279286D01*
X143438143Y-71279286D01*
X143590524Y-71241191D01*
X143666714Y-71203095D01*
X143704810Y-71165000D01*
X143742905Y-71088810D01*
X143742905Y-71012619D01*
X143704810Y-70936429D01*
X143666714Y-70898333D01*
X143590524Y-70860238D01*
X143438143Y-70822143D01*
X143247667Y-70822143D01*
X143095286Y-70860238D01*
X143019095Y-70898333D01*
X142981000Y-70936429D01*
X142942905Y-71012619D01*
X143742905Y-67350714D02*
X143361952Y-67084047D01*
X143742905Y-66893571D02*
X142942905Y-66893571D01*
X142942905Y-67198333D01*
X142981000Y-67274524D01*
X143019095Y-67312619D01*
X143095286Y-67350714D01*
X143209571Y-67350714D01*
X143285762Y-67312619D01*
X143323857Y-67274524D01*
X143361952Y-67198333D01*
X143361952Y-66893571D01*
X142942905Y-67617381D02*
X143742905Y-68150714D01*
X142942905Y-68150714D02*
X143742905Y-67617381D01*
X142942905Y-68607857D02*
X142942905Y-68684048D01*
X142981000Y-68760238D01*
X143019095Y-68798333D01*
X143095286Y-68836429D01*
X143247667Y-68874524D01*
X143438143Y-68874524D01*
X143590524Y-68836429D01*
X143666714Y-68798333D01*
X143704810Y-68760238D01*
X143742905Y-68684048D01*
X143742905Y-68607857D01*
X143704810Y-68531667D01*
X143666714Y-68493571D01*
X143590524Y-68455476D01*
X143438143Y-68417381D01*
X143247667Y-68417381D01*
X143095286Y-68455476D01*
X143019095Y-68493571D01*
X142981000Y-68531667D01*
X142942905Y-68607857D01*
X145214333Y-67093572D02*
X145214333Y-67474524D01*
X145442905Y-67017381D02*
X144642905Y-67284048D01*
X145442905Y-67550715D01*
X144642905Y-68160238D02*
X144642905Y-68007857D01*
X144681000Y-67931667D01*
X144719095Y-67893572D01*
X144833381Y-67817381D01*
X144985762Y-67779286D01*
X145290524Y-67779286D01*
X145366714Y-67817381D01*
X145404810Y-67855476D01*
X145442905Y-67931667D01*
X145442905Y-68084048D01*
X145404810Y-68160238D01*
X145366714Y-68198334D01*
X145290524Y-68236429D01*
X145100048Y-68236429D01*
X145023857Y-68198334D01*
X144985762Y-68160238D01*
X144947667Y-68084048D01*
X144947667Y-67931667D01*
X144985762Y-67855476D01*
X145023857Y-67817381D01*
X145100048Y-67779286D01*
X146704810Y-67112619D02*
X146742905Y-67226905D01*
X146742905Y-67417381D01*
X146704810Y-67493571D01*
X146666714Y-67531667D01*
X146590524Y-67569762D01*
X146514333Y-67569762D01*
X146438143Y-67531667D01*
X146400048Y-67493571D01*
X146361952Y-67417381D01*
X146323857Y-67265000D01*
X146285762Y-67188809D01*
X146247667Y-67150714D01*
X146171476Y-67112619D01*
X146095286Y-67112619D01*
X146019095Y-67150714D01*
X145981000Y-67188809D01*
X145942905Y-67265000D01*
X145942905Y-67455476D01*
X145981000Y-67569762D01*
X146666714Y-68369762D02*
X146704810Y-68331667D01*
X146742905Y-68217381D01*
X146742905Y-68141191D01*
X146704810Y-68026905D01*
X146628619Y-67950714D01*
X146552429Y-67912619D01*
X146400048Y-67874524D01*
X146285762Y-67874524D01*
X146133381Y-67912619D01*
X146057190Y-67950714D01*
X145981000Y-68026905D01*
X145942905Y-68141191D01*
X145942905Y-68217381D01*
X145981000Y-68331667D01*
X146019095Y-68369762D01*
X146742905Y-69093572D02*
X146742905Y-68712619D01*
X145942905Y-68712619D01*
X149204810Y-67093572D02*
X149242905Y-67207858D01*
X149242905Y-67398334D01*
X149204810Y-67474524D01*
X149166714Y-67512620D01*
X149090524Y-67550715D01*
X149014333Y-67550715D01*
X148938143Y-67512620D01*
X148900048Y-67474524D01*
X148861952Y-67398334D01*
X148823857Y-67245953D01*
X148785762Y-67169762D01*
X148747667Y-67131667D01*
X148671476Y-67093572D01*
X148595286Y-67093572D01*
X148519095Y-67131667D01*
X148481000Y-67169762D01*
X148442905Y-67245953D01*
X148442905Y-67436429D01*
X148481000Y-67550715D01*
X149242905Y-67893572D02*
X148442905Y-67893572D01*
X148442905Y-68084048D01*
X148481000Y-68198334D01*
X148557190Y-68274525D01*
X148633381Y-68312620D01*
X148785762Y-68350715D01*
X148900048Y-68350715D01*
X149052429Y-68312620D01*
X149128619Y-68274525D01*
X149204810Y-68198334D01*
X149242905Y-68084048D01*
X149242905Y-67893572D01*
X149014333Y-68655477D02*
X149014333Y-69036429D01*
X149242905Y-68579286D02*
X148442905Y-68845953D01*
X149242905Y-69112620D01*
X151514333Y-67093572D02*
X151514333Y-67474524D01*
X151742905Y-67017381D02*
X150942905Y-67284048D01*
X151742905Y-67550715D01*
X150942905Y-67741191D02*
X150942905Y-68236429D01*
X151247667Y-67969762D01*
X151247667Y-68084048D01*
X151285762Y-68160238D01*
X151323857Y-68198334D01*
X151400048Y-68236429D01*
X151590524Y-68236429D01*
X151666714Y-68198334D01*
X151704810Y-68160238D01*
X151742905Y-68084048D01*
X151742905Y-67855476D01*
X151704810Y-67779286D01*
X151666714Y-67741191D01*
X154114333Y-67093572D02*
X154114333Y-67474524D01*
X154342905Y-67017381D02*
X153542905Y-67284048D01*
X154342905Y-67550715D01*
X153619095Y-67779286D02*
X153581000Y-67817381D01*
X153542905Y-67893572D01*
X153542905Y-68084048D01*
X153581000Y-68160238D01*
X153619095Y-68198334D01*
X153695286Y-68236429D01*
X153771476Y-68236429D01*
X153885762Y-68198334D01*
X154342905Y-67741191D01*
X154342905Y-68236429D01*
X156614333Y-67093572D02*
X156614333Y-67474524D01*
X156842905Y-67017381D02*
X156042905Y-67284048D01*
X156842905Y-67550715D01*
X156842905Y-68236429D02*
X156842905Y-67779286D01*
X156842905Y-68007857D02*
X156042905Y-68007857D01*
X156157190Y-67931667D01*
X156233381Y-67855476D01*
X156271476Y-67779286D01*
X157914333Y-67093572D02*
X157914333Y-67474524D01*
X158142905Y-67017381D02*
X157342905Y-67284048D01*
X158142905Y-67550715D01*
X157342905Y-67969762D02*
X157342905Y-68045953D01*
X157381000Y-68122143D01*
X157419095Y-68160238D01*
X157495286Y-68198334D01*
X157647667Y-68236429D01*
X157838143Y-68236429D01*
X157990524Y-68198334D01*
X158066714Y-68160238D01*
X158104810Y-68122143D01*
X158142905Y-68045953D01*
X158142905Y-67969762D01*
X158104810Y-67893572D01*
X158066714Y-67855476D01*
X157990524Y-67817381D01*
X157838143Y-67779286D01*
X157647667Y-67779286D01*
X157495286Y-67817381D01*
X157419095Y-67855476D01*
X157381000Y-67893572D01*
X157342905Y-67969762D01*
X159742905Y-66893571D02*
X158942905Y-66893571D01*
X158942905Y-67084047D01*
X158981000Y-67198333D01*
X159057190Y-67274524D01*
X159133381Y-67312619D01*
X159285762Y-67350714D01*
X159400048Y-67350714D01*
X159552429Y-67312619D01*
X159628619Y-67274524D01*
X159704810Y-67198333D01*
X159742905Y-67084047D01*
X159742905Y-66893571D01*
X159742905Y-68112619D02*
X159742905Y-67655476D01*
X159742905Y-67884047D02*
X158942905Y-67884047D01*
X159057190Y-67807857D01*
X159133381Y-67731666D01*
X159171476Y-67655476D01*
X158942905Y-68379286D02*
X158942905Y-68874524D01*
X159247667Y-68607857D01*
X159247667Y-68722143D01*
X159285762Y-68798333D01*
X159323857Y-68836429D01*
X159400048Y-68874524D01*
X159590524Y-68874524D01*
X159666714Y-68836429D01*
X159704810Y-68798333D01*
X159742905Y-68722143D01*
X159742905Y-68493571D01*
X159704810Y-68417381D01*
X159666714Y-68379286D01*
X159742905Y-69393571D02*
X158942905Y-69393571D01*
X158942905Y-69584047D01*
X158981000Y-69698333D01*
X159057190Y-69774524D01*
X159133381Y-69812619D01*
X159285762Y-69850714D01*
X159400048Y-69850714D01*
X159552429Y-69812619D01*
X159628619Y-69774524D01*
X159704810Y-69698333D01*
X159742905Y-69584047D01*
X159742905Y-69393571D01*
X159742905Y-70612619D02*
X159742905Y-70155476D01*
X159742905Y-70384047D02*
X158942905Y-70384047D01*
X159057190Y-70307857D01*
X159133381Y-70231666D01*
X159171476Y-70155476D01*
X159019095Y-70917381D02*
X158981000Y-70955476D01*
X158942905Y-71031667D01*
X158942905Y-71222143D01*
X158981000Y-71298333D01*
X159019095Y-71336429D01*
X159095286Y-71374524D01*
X159171476Y-71374524D01*
X159285762Y-71336429D01*
X159742905Y-70879286D01*
X159742905Y-71374524D01*
X159742905Y-71993571D02*
X158942905Y-71993571D01*
X158942905Y-72184047D01*
X158981000Y-72298333D01*
X159057190Y-72374524D01*
X159133381Y-72412619D01*
X159285762Y-72450714D01*
X159400048Y-72450714D01*
X159552429Y-72412619D01*
X159628619Y-72374524D01*
X159704810Y-72298333D01*
X159742905Y-72184047D01*
X159742905Y-71993571D01*
X159742905Y-73212619D02*
X159742905Y-72755476D01*
X159742905Y-72984047D02*
X158942905Y-72984047D01*
X159057190Y-72907857D01*
X159133381Y-72831666D01*
X159171476Y-72755476D01*
X159742905Y-73974524D02*
X159742905Y-73517381D01*
X159742905Y-73745952D02*
X158942905Y-73745952D01*
X159057190Y-73669762D01*
X159133381Y-73593571D01*
X159171476Y-73517381D01*
X159742905Y-74493571D02*
X158942905Y-74493571D01*
X158942905Y-74684047D01*
X158981000Y-74798333D01*
X159057190Y-74874524D01*
X159133381Y-74912619D01*
X159285762Y-74950714D01*
X159400048Y-74950714D01*
X159552429Y-74912619D01*
X159628619Y-74874524D01*
X159704810Y-74798333D01*
X159742905Y-74684047D01*
X159742905Y-74493571D01*
X159742905Y-75712619D02*
X159742905Y-75255476D01*
X159742905Y-75484047D02*
X158942905Y-75484047D01*
X159057190Y-75407857D01*
X159133381Y-75331666D01*
X159171476Y-75255476D01*
X158942905Y-76207857D02*
X158942905Y-76284048D01*
X158981000Y-76360238D01*
X159019095Y-76398333D01*
X159095286Y-76436429D01*
X159247667Y-76474524D01*
X159438143Y-76474524D01*
X159590524Y-76436429D01*
X159666714Y-76398333D01*
X159704810Y-76360238D01*
X159742905Y-76284048D01*
X159742905Y-76207857D01*
X159704810Y-76131667D01*
X159666714Y-76093571D01*
X159590524Y-76055476D01*
X159438143Y-76017381D01*
X159247667Y-76017381D01*
X159095286Y-76055476D01*
X159019095Y-76093571D01*
X158981000Y-76131667D01*
X158942905Y-76207857D01*
X159742905Y-77374524D02*
X158942905Y-77374524D01*
X158942905Y-77565000D01*
X158981000Y-77679286D01*
X159057190Y-77755477D01*
X159133381Y-77793572D01*
X159285762Y-77831667D01*
X159400048Y-77831667D01*
X159552429Y-77793572D01*
X159628619Y-77755477D01*
X159704810Y-77679286D01*
X159742905Y-77565000D01*
X159742905Y-77374524D01*
X159742905Y-78212619D02*
X159742905Y-78365000D01*
X159704810Y-78441191D01*
X159666714Y-78479286D01*
X159552429Y-78555477D01*
X159400048Y-78593572D01*
X159095286Y-78593572D01*
X159019095Y-78555477D01*
X158981000Y-78517381D01*
X158942905Y-78441191D01*
X158942905Y-78288810D01*
X158981000Y-78212619D01*
X159019095Y-78174524D01*
X159095286Y-78136429D01*
X159285762Y-78136429D01*
X159361952Y-78174524D01*
X159400048Y-78212619D01*
X159438143Y-78288810D01*
X159438143Y-78441191D01*
X159400048Y-78517381D01*
X159361952Y-78555477D01*
X159285762Y-78593572D01*
X159742905Y-79974524D02*
X158942905Y-79974524D01*
X158942905Y-80165000D01*
X158981000Y-80279286D01*
X159057190Y-80355477D01*
X159133381Y-80393572D01*
X159285762Y-80431667D01*
X159400048Y-80431667D01*
X159552429Y-80393572D01*
X159628619Y-80355477D01*
X159704810Y-80279286D01*
X159742905Y-80165000D01*
X159742905Y-79974524D01*
X159285762Y-80888810D02*
X159247667Y-80812619D01*
X159209571Y-80774524D01*
X159133381Y-80736429D01*
X159095286Y-80736429D01*
X159019095Y-80774524D01*
X158981000Y-80812619D01*
X158942905Y-80888810D01*
X158942905Y-81041191D01*
X158981000Y-81117381D01*
X159019095Y-81155477D01*
X159095286Y-81193572D01*
X159133381Y-81193572D01*
X159209571Y-81155477D01*
X159247667Y-81117381D01*
X159285762Y-81041191D01*
X159285762Y-80888810D01*
X159323857Y-80812619D01*
X159361952Y-80774524D01*
X159438143Y-80736429D01*
X159590524Y-80736429D01*
X159666714Y-80774524D01*
X159704810Y-80812619D01*
X159742905Y-80888810D01*
X159742905Y-81041191D01*
X159704810Y-81117381D01*
X159666714Y-81155477D01*
X159590524Y-81193572D01*
X159438143Y-81193572D01*
X159361952Y-81155477D01*
X159323857Y-81117381D01*
X159285762Y-81041191D01*
X159742905Y-82474524D02*
X158942905Y-82474524D01*
X158942905Y-82665000D01*
X158981000Y-82779286D01*
X159057190Y-82855477D01*
X159133381Y-82893572D01*
X159285762Y-82931667D01*
X159400048Y-82931667D01*
X159552429Y-82893572D01*
X159628619Y-82855477D01*
X159704810Y-82779286D01*
X159742905Y-82665000D01*
X159742905Y-82474524D01*
X158942905Y-83198334D02*
X158942905Y-83731667D01*
X159742905Y-83388810D01*
X158942905Y-84674524D02*
X158942905Y-85169762D01*
X159247667Y-84903095D01*
X159247667Y-85017381D01*
X159285762Y-85093571D01*
X159323857Y-85131667D01*
X159400048Y-85169762D01*
X159590524Y-85169762D01*
X159666714Y-85131667D01*
X159704810Y-85093571D01*
X159742905Y-85017381D01*
X159742905Y-84788809D01*
X159704810Y-84712619D01*
X159666714Y-84674524D01*
X158942905Y-85398333D02*
X159742905Y-85665000D01*
X158942905Y-85931667D01*
X158942905Y-86122143D02*
X158942905Y-86617381D01*
X159247667Y-86350714D01*
X159247667Y-86465000D01*
X159285762Y-86541190D01*
X159323857Y-86579286D01*
X159400048Y-86617381D01*
X159590524Y-86617381D01*
X159666714Y-86579286D01*
X159704810Y-86541190D01*
X159742905Y-86465000D01*
X159742905Y-86236428D01*
X159704810Y-86160238D01*
X159666714Y-86122143D01*
X158942905Y-88012620D02*
X158942905Y-87631667D01*
X159323857Y-87593572D01*
X159285762Y-87631667D01*
X159247667Y-87707858D01*
X159247667Y-87898334D01*
X159285762Y-87974524D01*
X159323857Y-88012620D01*
X159400048Y-88050715D01*
X159590524Y-88050715D01*
X159666714Y-88012620D01*
X159704810Y-87974524D01*
X159742905Y-87898334D01*
X159742905Y-87707858D01*
X159704810Y-87631667D01*
X159666714Y-87593572D01*
X158942905Y-88279286D02*
X159742905Y-88545953D01*
X158942905Y-88812620D01*
M02*
