G04 #@! TF.GenerationSoftware,KiCad,Pcbnew,(5.1.5)-3*
G04 #@! TF.CreationDate,2020-11-20T22:13:13+01:00*
G04 #@! TF.ProjectId,Microduino_Base_DE,4d696372-6f64-4756-996e-6f5f42617365,0.0*
G04 #@! TF.SameCoordinates,Original*
G04 #@! TF.FileFunction,Copper,L1,Top*
G04 #@! TF.FilePolarity,Positive*
%FSLAX46Y46*%
G04 Gerber Fmt 4.6, Leading zero omitted, Abs format (unit mm)*
G04 Created by KiCad (PCBNEW (5.1.5)-3) date 2020-11-20 22:13:13*
%MOMM*%
%LPD*%
G04 APERTURE LIST*
%ADD10C,0.100000*%
%ADD11R,1.500000X1.500000*%
%ADD12O,1.500000X1.500000*%
%ADD13R,1.700000X1.700000*%
%ADD14C,1.700000*%
%ADD15C,2.100000*%
%ADD16R,2.000000X3.500000*%
%ADD17C,0.600000*%
%ADD18C,0.400000*%
%ADD19C,0.750000*%
%ADD20C,0.254000*%
G04 APERTURE END LIST*
G04 #@! TA.AperFunction,SMDPad,CuDef*
D10*
G36*
X151092104Y-67725304D02*
G01*
X151116373Y-67728904D01*
X151140171Y-67734865D01*
X151163271Y-67743130D01*
X151185449Y-67753620D01*
X151206493Y-67766233D01*
X151226198Y-67780847D01*
X151244377Y-67797323D01*
X151260853Y-67815502D01*
X151275467Y-67835207D01*
X151288080Y-67856251D01*
X151298570Y-67878429D01*
X151306835Y-67901529D01*
X151312796Y-67925327D01*
X151316396Y-67949596D01*
X151317600Y-67974100D01*
X151317600Y-70024100D01*
X151316396Y-70048604D01*
X151312796Y-70072873D01*
X151306835Y-70096671D01*
X151298570Y-70119771D01*
X151288080Y-70141949D01*
X151275467Y-70162993D01*
X151260853Y-70182698D01*
X151244377Y-70200877D01*
X151226198Y-70217353D01*
X151206493Y-70231967D01*
X151185449Y-70244580D01*
X151163271Y-70255070D01*
X151140171Y-70263335D01*
X151116373Y-70269296D01*
X151092104Y-70272896D01*
X151067600Y-70274100D01*
X149492600Y-70274100D01*
X149468096Y-70272896D01*
X149443827Y-70269296D01*
X149420029Y-70263335D01*
X149396929Y-70255070D01*
X149374751Y-70244580D01*
X149353707Y-70231967D01*
X149334002Y-70217353D01*
X149315823Y-70200877D01*
X149299347Y-70182698D01*
X149284733Y-70162993D01*
X149272120Y-70141949D01*
X149261630Y-70119771D01*
X149253365Y-70096671D01*
X149247404Y-70072873D01*
X149243804Y-70048604D01*
X149242600Y-70024100D01*
X149242600Y-67974100D01*
X149243804Y-67949596D01*
X149247404Y-67925327D01*
X149253365Y-67901529D01*
X149261630Y-67878429D01*
X149272120Y-67856251D01*
X149284733Y-67835207D01*
X149299347Y-67815502D01*
X149315823Y-67797323D01*
X149334002Y-67780847D01*
X149353707Y-67766233D01*
X149374751Y-67753620D01*
X149396929Y-67743130D01*
X149420029Y-67734865D01*
X149443827Y-67728904D01*
X149468096Y-67725304D01*
X149492600Y-67724100D01*
X151067600Y-67724100D01*
X151092104Y-67725304D01*
G37*
G04 #@! TD.AperFunction*
G04 #@! TA.AperFunction,SMDPad,CuDef*
G36*
X144867104Y-67725304D02*
G01*
X144891373Y-67728904D01*
X144915171Y-67734865D01*
X144938271Y-67743130D01*
X144960449Y-67753620D01*
X144981493Y-67766233D01*
X145001198Y-67780847D01*
X145019377Y-67797323D01*
X145035853Y-67815502D01*
X145050467Y-67835207D01*
X145063080Y-67856251D01*
X145073570Y-67878429D01*
X145081835Y-67901529D01*
X145087796Y-67925327D01*
X145091396Y-67949596D01*
X145092600Y-67974100D01*
X145092600Y-70024100D01*
X145091396Y-70048604D01*
X145087796Y-70072873D01*
X145081835Y-70096671D01*
X145073570Y-70119771D01*
X145063080Y-70141949D01*
X145050467Y-70162993D01*
X145035853Y-70182698D01*
X145019377Y-70200877D01*
X145001198Y-70217353D01*
X144981493Y-70231967D01*
X144960449Y-70244580D01*
X144938271Y-70255070D01*
X144915171Y-70263335D01*
X144891373Y-70269296D01*
X144867104Y-70272896D01*
X144842600Y-70274100D01*
X143267600Y-70274100D01*
X143243096Y-70272896D01*
X143218827Y-70269296D01*
X143195029Y-70263335D01*
X143171929Y-70255070D01*
X143149751Y-70244580D01*
X143128707Y-70231967D01*
X143109002Y-70217353D01*
X143090823Y-70200877D01*
X143074347Y-70182698D01*
X143059733Y-70162993D01*
X143047120Y-70141949D01*
X143036630Y-70119771D01*
X143028365Y-70096671D01*
X143022404Y-70072873D01*
X143018804Y-70048604D01*
X143017600Y-70024100D01*
X143017600Y-67974100D01*
X143018804Y-67949596D01*
X143022404Y-67925327D01*
X143028365Y-67901529D01*
X143036630Y-67878429D01*
X143047120Y-67856251D01*
X143059733Y-67835207D01*
X143074347Y-67815502D01*
X143090823Y-67797323D01*
X143109002Y-67780847D01*
X143128707Y-67766233D01*
X143149751Y-67753620D01*
X143171929Y-67743130D01*
X143195029Y-67734865D01*
X143218827Y-67728904D01*
X143243096Y-67725304D01*
X143267600Y-67724100D01*
X144842600Y-67724100D01*
X144867104Y-67725304D01*
G37*
G04 #@! TD.AperFunction*
D11*
X146861000Y-80355000D03*
D12*
X144321000Y-80355000D03*
D13*
X150037800Y-77038200D03*
D14*
X152577800Y-77038200D03*
X155117800Y-77038200D03*
X157657800Y-77038200D03*
D15*
X161581000Y-67845000D03*
X161581000Y-70385000D03*
X161581000Y-72925000D03*
X161581000Y-75465000D03*
X161581000Y-78005000D03*
X161581000Y-80545000D03*
X161581000Y-83085000D03*
X161581000Y-85625000D03*
X161581000Y-88165000D03*
X161581000Y-65305000D03*
X159041000Y-65305000D03*
X156501000Y-65305000D03*
X153961000Y-65305000D03*
X151421000Y-65305000D03*
X148881000Y-65305000D03*
X146341000Y-65305000D03*
X143801000Y-65305000D03*
X141261000Y-65305000D03*
X141261000Y-67845000D03*
X141261000Y-70385000D03*
X141261000Y-72925000D03*
X141261000Y-75465000D03*
X141261000Y-78005000D03*
X141261000Y-80545000D03*
X141261000Y-83085000D03*
X141261000Y-85625000D03*
X141261000Y-88165000D03*
G04 #@! TA.AperFunction,SMDPad,CuDef*
D10*
G36*
X144879804Y-72386204D02*
G01*
X144904073Y-72389804D01*
X144927871Y-72395765D01*
X144950971Y-72404030D01*
X144973149Y-72414520D01*
X144994193Y-72427133D01*
X145013898Y-72441747D01*
X145032077Y-72458223D01*
X145048553Y-72476402D01*
X145063167Y-72496107D01*
X145075780Y-72517151D01*
X145086270Y-72539329D01*
X145094535Y-72562429D01*
X145100496Y-72586227D01*
X145104096Y-72610496D01*
X145105300Y-72635000D01*
X145105300Y-74685000D01*
X145104096Y-74709504D01*
X145100496Y-74733773D01*
X145094535Y-74757571D01*
X145086270Y-74780671D01*
X145075780Y-74802849D01*
X145063167Y-74823893D01*
X145048553Y-74843598D01*
X145032077Y-74861777D01*
X145013898Y-74878253D01*
X144994193Y-74892867D01*
X144973149Y-74905480D01*
X144950971Y-74915970D01*
X144927871Y-74924235D01*
X144904073Y-74930196D01*
X144879804Y-74933796D01*
X144855300Y-74935000D01*
X143280300Y-74935000D01*
X143255796Y-74933796D01*
X143231527Y-74930196D01*
X143207729Y-74924235D01*
X143184629Y-74915970D01*
X143162451Y-74905480D01*
X143141407Y-74892867D01*
X143121702Y-74878253D01*
X143103523Y-74861777D01*
X143087047Y-74843598D01*
X143072433Y-74823893D01*
X143059820Y-74802849D01*
X143049330Y-74780671D01*
X143041065Y-74757571D01*
X143035104Y-74733773D01*
X143031504Y-74709504D01*
X143030300Y-74685000D01*
X143030300Y-72635000D01*
X143031504Y-72610496D01*
X143035104Y-72586227D01*
X143041065Y-72562429D01*
X143049330Y-72539329D01*
X143059820Y-72517151D01*
X143072433Y-72496107D01*
X143087047Y-72476402D01*
X143103523Y-72458223D01*
X143121702Y-72441747D01*
X143141407Y-72427133D01*
X143162451Y-72414520D01*
X143184629Y-72404030D01*
X143207729Y-72395765D01*
X143231527Y-72389804D01*
X143255796Y-72386204D01*
X143280300Y-72385000D01*
X144855300Y-72385000D01*
X144879804Y-72386204D01*
G37*
G04 #@! TD.AperFunction*
G04 #@! TA.AperFunction,SMDPad,CuDef*
G36*
X151104804Y-72386204D02*
G01*
X151129073Y-72389804D01*
X151152871Y-72395765D01*
X151175971Y-72404030D01*
X151198149Y-72414520D01*
X151219193Y-72427133D01*
X151238898Y-72441747D01*
X151257077Y-72458223D01*
X151273553Y-72476402D01*
X151288167Y-72496107D01*
X151300780Y-72517151D01*
X151311270Y-72539329D01*
X151319535Y-72562429D01*
X151325496Y-72586227D01*
X151329096Y-72610496D01*
X151330300Y-72635000D01*
X151330300Y-74685000D01*
X151329096Y-74709504D01*
X151325496Y-74733773D01*
X151319535Y-74757571D01*
X151311270Y-74780671D01*
X151300780Y-74802849D01*
X151288167Y-74823893D01*
X151273553Y-74843598D01*
X151257077Y-74861777D01*
X151238898Y-74878253D01*
X151219193Y-74892867D01*
X151198149Y-74905480D01*
X151175971Y-74915970D01*
X151152871Y-74924235D01*
X151129073Y-74930196D01*
X151104804Y-74933796D01*
X151080300Y-74935000D01*
X149505300Y-74935000D01*
X149480796Y-74933796D01*
X149456527Y-74930196D01*
X149432729Y-74924235D01*
X149409629Y-74915970D01*
X149387451Y-74905480D01*
X149366407Y-74892867D01*
X149346702Y-74878253D01*
X149328523Y-74861777D01*
X149312047Y-74843598D01*
X149297433Y-74823893D01*
X149284820Y-74802849D01*
X149274330Y-74780671D01*
X149266065Y-74757571D01*
X149260104Y-74733773D01*
X149256504Y-74709504D01*
X149255300Y-74685000D01*
X149255300Y-72635000D01*
X149256504Y-72610496D01*
X149260104Y-72586227D01*
X149266065Y-72562429D01*
X149274330Y-72539329D01*
X149284820Y-72517151D01*
X149297433Y-72496107D01*
X149312047Y-72476402D01*
X149328523Y-72458223D01*
X149346702Y-72441747D01*
X149366407Y-72427133D01*
X149387451Y-72414520D01*
X149409629Y-72404030D01*
X149432729Y-72395765D01*
X149456527Y-72389804D01*
X149480796Y-72386204D01*
X149505300Y-72385000D01*
X151080300Y-72385000D01*
X151104804Y-72386204D01*
G37*
G04 #@! TD.AperFunction*
D16*
X152956000Y-71628000D03*
X158956000Y-71628000D03*
D17*
X143967200Y-88760300D03*
X146646900Y-88760300D03*
X148894800Y-88760300D03*
X151091900Y-88785700D03*
X149745700Y-85775800D03*
X146710400Y-85763100D03*
X143865600Y-85839300D03*
X143827500Y-83146900D03*
X146685000Y-83096100D03*
X149771100Y-83159600D03*
X153835100Y-78638400D03*
X158889700Y-74980800D03*
X145567400Y-77736700D03*
X146215100Y-71361300D03*
X154012900Y-68757800D03*
X155981400Y-71412100D03*
X158432500Y-68795900D03*
X157861000Y-86995000D03*
X151714200Y-74980800D03*
X154444700Y-86664800D03*
X151638000Y-81686400D03*
X151638000Y-79095600D03*
D18*
X160807400Y-88163400D02*
X161569400Y-88163400D01*
D19*
X161391000Y-80355000D02*
X161581000Y-80545000D01*
X146861000Y-80355000D02*
X161391000Y-80355000D01*
X150037800Y-73927700D02*
X150280100Y-73685400D01*
X158956000Y-72378000D02*
X156353200Y-74980800D01*
X158956000Y-71628000D02*
X158956000Y-72378000D01*
X150037800Y-77038200D02*
X150037800Y-74980800D01*
X150037800Y-74980800D02*
X150037800Y-73927700D01*
X156353200Y-74980800D02*
X151714200Y-74980800D01*
X151714200Y-74980800D02*
X150037800Y-74980800D01*
X152956000Y-71628000D02*
X152956000Y-70177400D01*
X151879300Y-69100700D02*
X150292800Y-69100700D01*
X152956000Y-70177400D02*
X151879300Y-69100700D01*
X154444700Y-86664800D02*
X154444700Y-84493100D01*
X154444700Y-84493100D02*
X151638000Y-81686400D01*
X147828000Y-78130400D02*
X147828000Y-69735700D01*
X151638000Y-79095600D02*
X148793200Y-79095600D01*
X148463000Y-69100700D02*
X150292800Y-69100700D01*
X147828000Y-69735700D02*
X148463000Y-69100700D01*
X148793200Y-79095600D02*
X147828000Y-78130400D01*
D20*
G36*
X163530883Y-89967917D02*
G01*
X139411000Y-89965084D01*
X139411000Y-89336066D01*
X140269539Y-89336066D01*
X140371339Y-89605579D01*
X140669477Y-89751463D01*
X140990346Y-89836380D01*
X141321617Y-89857066D01*
X141650557Y-89812728D01*
X141964527Y-89705069D01*
X142150661Y-89605579D01*
X142252461Y-89336066D01*
X141261000Y-88344605D01*
X140269539Y-89336066D01*
X139411000Y-89336066D01*
X139411000Y-88225617D01*
X139568934Y-88225617D01*
X139613272Y-88554557D01*
X139720931Y-88868527D01*
X139820421Y-89054661D01*
X140089934Y-89156461D01*
X141081395Y-88165000D01*
X141440605Y-88165000D01*
X142432066Y-89156461D01*
X142701579Y-89054661D01*
X142847463Y-88756523D01*
X142932380Y-88435654D01*
X142953066Y-88104383D01*
X142908728Y-87775443D01*
X142801069Y-87461473D01*
X142701579Y-87275339D01*
X142432066Y-87173539D01*
X141440605Y-88165000D01*
X141081395Y-88165000D01*
X140089934Y-87173539D01*
X139820421Y-87275339D01*
X139674537Y-87573477D01*
X139589620Y-87894346D01*
X139568934Y-88225617D01*
X139411000Y-88225617D01*
X139411000Y-65139042D01*
X139576000Y-65139042D01*
X139576000Y-65470958D01*
X139640754Y-65796496D01*
X139767772Y-66103147D01*
X139952175Y-66379125D01*
X140148050Y-66575000D01*
X139952175Y-66770875D01*
X139767772Y-67046853D01*
X139640754Y-67353504D01*
X139576000Y-67679042D01*
X139576000Y-68010958D01*
X139640754Y-68336496D01*
X139767772Y-68643147D01*
X139952175Y-68919125D01*
X140148050Y-69115000D01*
X139952175Y-69310875D01*
X139767772Y-69586853D01*
X139640754Y-69893504D01*
X139576000Y-70219042D01*
X139576000Y-70550958D01*
X139640754Y-70876496D01*
X139767772Y-71183147D01*
X139952175Y-71459125D01*
X140148050Y-71655000D01*
X139952175Y-71850875D01*
X139767772Y-72126853D01*
X139640754Y-72433504D01*
X139576000Y-72759042D01*
X139576000Y-73090958D01*
X139640754Y-73416496D01*
X139767772Y-73723147D01*
X139952175Y-73999125D01*
X140148050Y-74195000D01*
X139952175Y-74390875D01*
X139767772Y-74666853D01*
X139640754Y-74973504D01*
X139576000Y-75299042D01*
X139576000Y-75630958D01*
X139640754Y-75956496D01*
X139767772Y-76263147D01*
X139952175Y-76539125D01*
X140148050Y-76735000D01*
X139952175Y-76930875D01*
X139767772Y-77206853D01*
X139640754Y-77513504D01*
X139576000Y-77839042D01*
X139576000Y-78170958D01*
X139640754Y-78496496D01*
X139767772Y-78803147D01*
X139952175Y-79079125D01*
X140148050Y-79275000D01*
X139952175Y-79470875D01*
X139767772Y-79746853D01*
X139640754Y-80053504D01*
X139576000Y-80379042D01*
X139576000Y-80710958D01*
X139640754Y-81036496D01*
X139767772Y-81343147D01*
X139952175Y-81619125D01*
X140148050Y-81815000D01*
X139952175Y-82010875D01*
X139767772Y-82286853D01*
X139640754Y-82593504D01*
X139576000Y-82919042D01*
X139576000Y-83250958D01*
X139640754Y-83576496D01*
X139767772Y-83883147D01*
X139952175Y-84159125D01*
X140148050Y-84355000D01*
X139952175Y-84550875D01*
X139767772Y-84826853D01*
X139640754Y-85133504D01*
X139576000Y-85459042D01*
X139576000Y-85790958D01*
X139640754Y-86116496D01*
X139767772Y-86423147D01*
X139952175Y-86699125D01*
X140186875Y-86933825D01*
X140271009Y-86990042D01*
X140269539Y-86993934D01*
X141261000Y-87985395D01*
X142252461Y-86993934D01*
X142250991Y-86990042D01*
X142335125Y-86933825D01*
X142569825Y-86699125D01*
X142754228Y-86423147D01*
X142881246Y-86116496D01*
X142946000Y-85790958D01*
X142946000Y-85459042D01*
X142881246Y-85133504D01*
X142754228Y-84826853D01*
X142569825Y-84550875D01*
X142373950Y-84355000D01*
X142569825Y-84159125D01*
X142754228Y-83883147D01*
X142881246Y-83576496D01*
X142946000Y-83250958D01*
X142946000Y-82919042D01*
X142881246Y-82593504D01*
X142754228Y-82286853D01*
X142569825Y-82010875D01*
X142373950Y-81815000D01*
X142569825Y-81619125D01*
X142754228Y-81343147D01*
X142881246Y-81036496D01*
X142946000Y-80710958D01*
X142946000Y-80482002D01*
X143100579Y-80482002D01*
X142978677Y-80696186D01*
X143071031Y-80951504D01*
X143211421Y-81183899D01*
X143394451Y-81384440D01*
X143613088Y-81545420D01*
X143858930Y-81660653D01*
X143979815Y-81697318D01*
X144194000Y-81574656D01*
X144194000Y-80482000D01*
X144174000Y-80482000D01*
X144174000Y-80228000D01*
X144194000Y-80228000D01*
X144194000Y-79135344D01*
X143979815Y-79012682D01*
X143858930Y-79049347D01*
X143613088Y-79164580D01*
X143394451Y-79325560D01*
X143211421Y-79526101D01*
X143071031Y-79758496D01*
X142978677Y-80013814D01*
X143100579Y-80227998D01*
X142936000Y-80227998D01*
X142936000Y-80328769D01*
X142881246Y-80053504D01*
X142754228Y-79746853D01*
X142569825Y-79470875D01*
X142373950Y-79275000D01*
X142569825Y-79079125D01*
X142754228Y-78803147D01*
X142881246Y-78496496D01*
X142946000Y-78170958D01*
X142946000Y-77839042D01*
X142881246Y-77513504D01*
X142754228Y-77206853D01*
X142569825Y-76930875D01*
X142373950Y-76735000D01*
X142569825Y-76539125D01*
X142754228Y-76263147D01*
X142881246Y-75956496D01*
X142946000Y-75630958D01*
X142946000Y-75564769D01*
X143030300Y-75573072D01*
X143782050Y-75570000D01*
X143940800Y-75411250D01*
X143940800Y-73787000D01*
X144194800Y-73787000D01*
X144194800Y-75411250D01*
X144353550Y-75570000D01*
X145105300Y-75573072D01*
X145229782Y-75560812D01*
X145349480Y-75524502D01*
X145459794Y-75465537D01*
X145556485Y-75386185D01*
X145635837Y-75289494D01*
X145694802Y-75179180D01*
X145731112Y-75059482D01*
X145743372Y-74935000D01*
X145740300Y-73945750D01*
X145581550Y-73787000D01*
X144194800Y-73787000D01*
X143940800Y-73787000D01*
X143920800Y-73787000D01*
X143920800Y-73533000D01*
X143940800Y-73533000D01*
X143940800Y-71908750D01*
X144194800Y-71908750D01*
X144194800Y-73533000D01*
X145581550Y-73533000D01*
X145740300Y-73374250D01*
X145743372Y-72385000D01*
X145731112Y-72260518D01*
X145694802Y-72140820D01*
X145635837Y-72030506D01*
X145556485Y-71933815D01*
X145459794Y-71854463D01*
X145349480Y-71795498D01*
X145229782Y-71759188D01*
X145105300Y-71746928D01*
X144353550Y-71750000D01*
X144194800Y-71908750D01*
X143940800Y-71908750D01*
X143782050Y-71750000D01*
X143030300Y-71746928D01*
X142905818Y-71759188D01*
X142786120Y-71795498D01*
X142675806Y-71854463D01*
X142608907Y-71909365D01*
X142569825Y-71850875D01*
X142373950Y-71655000D01*
X142569825Y-71459125D01*
X142754228Y-71183147D01*
X142873955Y-70894099D01*
X142893118Y-70899912D01*
X143017600Y-70912172D01*
X143769350Y-70909100D01*
X143928100Y-70750350D01*
X143928100Y-69126100D01*
X144182100Y-69126100D01*
X144182100Y-70750350D01*
X144340850Y-70909100D01*
X145092600Y-70912172D01*
X145217082Y-70899912D01*
X145336780Y-70863602D01*
X145447094Y-70804637D01*
X145543785Y-70725285D01*
X145623137Y-70628594D01*
X145682102Y-70518280D01*
X145718412Y-70398582D01*
X145730672Y-70274100D01*
X145727600Y-69284850D01*
X145568850Y-69126100D01*
X144182100Y-69126100D01*
X143928100Y-69126100D01*
X143908100Y-69126100D01*
X143908100Y-68872100D01*
X143928100Y-68872100D01*
X143928100Y-67247850D01*
X144182100Y-67247850D01*
X144182100Y-68872100D01*
X145568850Y-68872100D01*
X145727600Y-68713350D01*
X145730672Y-67724100D01*
X145718412Y-67599618D01*
X145682102Y-67479920D01*
X145623137Y-67369606D01*
X145543785Y-67272915D01*
X145447094Y-67193563D01*
X145336780Y-67134598D01*
X145217082Y-67098288D01*
X145092600Y-67086028D01*
X144340850Y-67089100D01*
X144182100Y-67247850D01*
X143928100Y-67247850D01*
X143769350Y-67089100D01*
X143017600Y-67086028D01*
X142893118Y-67098288D01*
X142788658Y-67129976D01*
X142754228Y-67046853D01*
X142569825Y-66770875D01*
X142373950Y-66575000D01*
X142531000Y-66417950D01*
X142726875Y-66613825D01*
X143002853Y-66798228D01*
X143309504Y-66925246D01*
X143635042Y-66990000D01*
X143966958Y-66990000D01*
X144292496Y-66925246D01*
X144599147Y-66798228D01*
X144875125Y-66613825D01*
X145071000Y-66417950D01*
X145266875Y-66613825D01*
X145542853Y-66798228D01*
X145849504Y-66925246D01*
X146175042Y-66990000D01*
X146506958Y-66990000D01*
X146832496Y-66925246D01*
X147139147Y-66798228D01*
X147415125Y-66613825D01*
X147611000Y-66417950D01*
X147806875Y-66613825D01*
X148082853Y-66798228D01*
X148389504Y-66925246D01*
X148715042Y-66990000D01*
X149046958Y-66990000D01*
X149372496Y-66925246D01*
X149679147Y-66798228D01*
X149955125Y-66613825D01*
X150151000Y-66417950D01*
X150346875Y-66613825D01*
X150622853Y-66798228D01*
X150929504Y-66925246D01*
X151255042Y-66990000D01*
X151586958Y-66990000D01*
X151912496Y-66925246D01*
X152219147Y-66798228D01*
X152495125Y-66613825D01*
X152691000Y-66417950D01*
X152886875Y-66613825D01*
X153162853Y-66798228D01*
X153469504Y-66925246D01*
X153795042Y-66990000D01*
X154126958Y-66990000D01*
X154452496Y-66925246D01*
X154759147Y-66798228D01*
X155035125Y-66613825D01*
X155231000Y-66417950D01*
X155426875Y-66613825D01*
X155702853Y-66798228D01*
X156009504Y-66925246D01*
X156335042Y-66990000D01*
X156666958Y-66990000D01*
X156992496Y-66925246D01*
X157299147Y-66798228D01*
X157575125Y-66613825D01*
X157771000Y-66417950D01*
X157966875Y-66613825D01*
X158242853Y-66798228D01*
X158549504Y-66925246D01*
X158875042Y-66990000D01*
X159206958Y-66990000D01*
X159532496Y-66925246D01*
X159839147Y-66798228D01*
X160115125Y-66613825D01*
X160311000Y-66417950D01*
X160468050Y-66575000D01*
X160272175Y-66770875D01*
X160087772Y-67046853D01*
X159960754Y-67353504D01*
X159896000Y-67679042D01*
X159896000Y-68010958D01*
X159960754Y-68336496D01*
X160087772Y-68643147D01*
X160272175Y-68919125D01*
X160468050Y-69115000D01*
X160272175Y-69310875D01*
X160264246Y-69322742D01*
X160200180Y-69288498D01*
X160080482Y-69252188D01*
X159956000Y-69239928D01*
X157956000Y-69239928D01*
X157831518Y-69252188D01*
X157711820Y-69288498D01*
X157601506Y-69347463D01*
X157504815Y-69426815D01*
X157425463Y-69523506D01*
X157366498Y-69633820D01*
X157330188Y-69753518D01*
X157317928Y-69878000D01*
X157317928Y-72587717D01*
X155934845Y-73970800D01*
X154189308Y-73970800D01*
X154200180Y-73967502D01*
X154310494Y-73908537D01*
X154407185Y-73829185D01*
X154486537Y-73732494D01*
X154545502Y-73622180D01*
X154581812Y-73502482D01*
X154594072Y-73378000D01*
X154594072Y-69878000D01*
X154581812Y-69753518D01*
X154545502Y-69633820D01*
X154486537Y-69523506D01*
X154407185Y-69426815D01*
X154310494Y-69347463D01*
X154200180Y-69288498D01*
X154080482Y-69252188D01*
X153956000Y-69239928D01*
X153446884Y-69239928D01*
X152628561Y-68421606D01*
X152596933Y-68383067D01*
X152443140Y-68256853D01*
X152267680Y-68163068D01*
X152077294Y-68105315D01*
X151955672Y-68093336D01*
X151955672Y-67974100D01*
X151938608Y-67800846D01*
X151888072Y-67634250D01*
X151806005Y-67480714D01*
X151695562Y-67346138D01*
X151560986Y-67235695D01*
X151407450Y-67153628D01*
X151240854Y-67103092D01*
X151067600Y-67086028D01*
X149492600Y-67086028D01*
X149319346Y-67103092D01*
X149152750Y-67153628D01*
X148999214Y-67235695D01*
X148864638Y-67346138D01*
X148754195Y-67480714D01*
X148672128Y-67634250D01*
X148621592Y-67800846D01*
X148604528Y-67974100D01*
X148604528Y-68090700D01*
X148512608Y-68090700D01*
X148463000Y-68085814D01*
X148265005Y-68105315D01*
X148074620Y-68163068D01*
X147899160Y-68256853D01*
X147745367Y-68383067D01*
X147713739Y-68421606D01*
X147148901Y-68986444D01*
X147110368Y-69018067D01*
X147078745Y-69056600D01*
X147078744Y-69056601D01*
X146984154Y-69171860D01*
X146890368Y-69347321D01*
X146832615Y-69537706D01*
X146813114Y-69735700D01*
X146818001Y-69785318D01*
X146818000Y-78080792D01*
X146813114Y-78130400D01*
X146832615Y-78328394D01*
X146884542Y-78499572D01*
X146890368Y-78518779D01*
X146984153Y-78694240D01*
X147110367Y-78848033D01*
X147148905Y-78879661D01*
X147236173Y-78966928D01*
X146111000Y-78966928D01*
X145986518Y-78979188D01*
X145866820Y-79015498D01*
X145756506Y-79074463D01*
X145659815Y-79153815D01*
X145580463Y-79250506D01*
X145521498Y-79360820D01*
X145485188Y-79480518D01*
X145473673Y-79597437D01*
X145430579Y-79526101D01*
X145247549Y-79325560D01*
X145028912Y-79164580D01*
X144783070Y-79049347D01*
X144662185Y-79012682D01*
X144448000Y-79135344D01*
X144448000Y-80228000D01*
X144468000Y-80228000D01*
X144468000Y-80482000D01*
X144448000Y-80482000D01*
X144448000Y-81574656D01*
X144662185Y-81697318D01*
X144783070Y-81660653D01*
X145028912Y-81545420D01*
X145247549Y-81384440D01*
X145430579Y-81183899D01*
X145473673Y-81112563D01*
X145485188Y-81229482D01*
X145521498Y-81349180D01*
X145580463Y-81459494D01*
X145659815Y-81556185D01*
X145756506Y-81635537D01*
X145866820Y-81694502D01*
X145986518Y-81730812D01*
X146111000Y-81743072D01*
X147611000Y-81743072D01*
X147735482Y-81730812D01*
X147855180Y-81694502D01*
X147965494Y-81635537D01*
X148062185Y-81556185D01*
X148141537Y-81459494D01*
X148192046Y-81365000D01*
X150680050Y-81365000D01*
X150642615Y-81488406D01*
X150623114Y-81686400D01*
X150642615Y-81884394D01*
X150700368Y-82074779D01*
X150794154Y-82250240D01*
X150888744Y-82365499D01*
X153434701Y-84911456D01*
X153434700Y-86714407D01*
X153449315Y-86862793D01*
X153507068Y-87053179D01*
X153600853Y-87228640D01*
X153727067Y-87382433D01*
X153880860Y-87508647D01*
X154056320Y-87602432D01*
X154246706Y-87660185D01*
X154444700Y-87679686D01*
X154642693Y-87660185D01*
X154833079Y-87602432D01*
X155008540Y-87508647D01*
X155162333Y-87382433D01*
X155288547Y-87228640D01*
X155382332Y-87053180D01*
X155440085Y-86862794D01*
X155454700Y-86714408D01*
X155454700Y-84542704D01*
X155459586Y-84493099D01*
X155449808Y-84393825D01*
X155440085Y-84295106D01*
X155382332Y-84104720D01*
X155288547Y-83929260D01*
X155162333Y-83775467D01*
X155123794Y-83743839D01*
X152744955Y-81365000D01*
X160102374Y-81365000D01*
X160272175Y-81619125D01*
X160468050Y-81815000D01*
X160272175Y-82010875D01*
X160087772Y-82286853D01*
X159960754Y-82593504D01*
X159896000Y-82919042D01*
X159896000Y-83250958D01*
X159960754Y-83576496D01*
X160087772Y-83883147D01*
X160272175Y-84159125D01*
X160468050Y-84355000D01*
X160272175Y-84550875D01*
X160087772Y-84826853D01*
X159960754Y-85133504D01*
X159896000Y-85459042D01*
X159896000Y-85790958D01*
X159960754Y-86116496D01*
X160087772Y-86423147D01*
X160272175Y-86699125D01*
X160468050Y-86895000D01*
X160272175Y-87090875D01*
X160087772Y-87366853D01*
X159960754Y-87673504D01*
X159896000Y-87999042D01*
X159896000Y-88330958D01*
X159960754Y-88656496D01*
X160087772Y-88963147D01*
X160272175Y-89239125D01*
X160506875Y-89473825D01*
X160782853Y-89658228D01*
X161089504Y-89785246D01*
X161415042Y-89850000D01*
X161746958Y-89850000D01*
X162072496Y-89785246D01*
X162379147Y-89658228D01*
X162655125Y-89473825D01*
X162889825Y-89239125D01*
X163074228Y-88963147D01*
X163201246Y-88656496D01*
X163266000Y-88330958D01*
X163266000Y-87999042D01*
X163201246Y-87673504D01*
X163074228Y-87366853D01*
X162889825Y-87090875D01*
X162693950Y-86895000D01*
X162889825Y-86699125D01*
X163074228Y-86423147D01*
X163201246Y-86116496D01*
X163266000Y-85790958D01*
X163266000Y-85459042D01*
X163201246Y-85133504D01*
X163074228Y-84826853D01*
X162889825Y-84550875D01*
X162693950Y-84355000D01*
X162889825Y-84159125D01*
X163074228Y-83883147D01*
X163201246Y-83576496D01*
X163266000Y-83250958D01*
X163266000Y-82919042D01*
X163201246Y-82593504D01*
X163074228Y-82286853D01*
X162889825Y-82010875D01*
X162693950Y-81815000D01*
X162889825Y-81619125D01*
X163074228Y-81343147D01*
X163201246Y-81036496D01*
X163266000Y-80710958D01*
X163266000Y-80379042D01*
X163201246Y-80053504D01*
X163074228Y-79746853D01*
X162889825Y-79470875D01*
X162693950Y-79275000D01*
X162889825Y-79079125D01*
X163074228Y-78803147D01*
X163201246Y-78496496D01*
X163266000Y-78170958D01*
X163266000Y-77839042D01*
X163201246Y-77513504D01*
X163074228Y-77206853D01*
X162889825Y-76930875D01*
X162693950Y-76735000D01*
X162889825Y-76539125D01*
X163074228Y-76263147D01*
X163201246Y-75956496D01*
X163266000Y-75630958D01*
X163266000Y-75299042D01*
X163201246Y-74973504D01*
X163074228Y-74666853D01*
X162889825Y-74390875D01*
X162693950Y-74195000D01*
X162889825Y-73999125D01*
X163074228Y-73723147D01*
X163201246Y-73416496D01*
X163266000Y-73090958D01*
X163266000Y-72759042D01*
X163201246Y-72433504D01*
X163074228Y-72126853D01*
X162889825Y-71850875D01*
X162693950Y-71655000D01*
X162889825Y-71459125D01*
X163074228Y-71183147D01*
X163201246Y-70876496D01*
X163266000Y-70550958D01*
X163266000Y-70219042D01*
X163201246Y-69893504D01*
X163074228Y-69586853D01*
X162889825Y-69310875D01*
X162693950Y-69115000D01*
X162889825Y-68919125D01*
X163074228Y-68643147D01*
X163201246Y-68336496D01*
X163266000Y-68010958D01*
X163266000Y-67679042D01*
X163201246Y-67353504D01*
X163074228Y-67046853D01*
X162889825Y-66770875D01*
X162693950Y-66575000D01*
X162889825Y-66379125D01*
X163074228Y-66103147D01*
X163201246Y-65796496D01*
X163266000Y-65470958D01*
X163266000Y-65139042D01*
X163201246Y-64813504D01*
X163074228Y-64506853D01*
X162889825Y-64230875D01*
X162655125Y-63996175D01*
X162379147Y-63811772D01*
X162072496Y-63684754D01*
X161746958Y-63620000D01*
X161415042Y-63620000D01*
X161089504Y-63684754D01*
X160782853Y-63811772D01*
X160506875Y-63996175D01*
X160311000Y-64192050D01*
X160115125Y-63996175D01*
X159839147Y-63811772D01*
X159532496Y-63684754D01*
X159206958Y-63620000D01*
X158875042Y-63620000D01*
X158549504Y-63684754D01*
X158242853Y-63811772D01*
X157966875Y-63996175D01*
X157771000Y-64192050D01*
X157575125Y-63996175D01*
X157299147Y-63811772D01*
X156992496Y-63684754D01*
X156666958Y-63620000D01*
X156335042Y-63620000D01*
X156009504Y-63684754D01*
X155702853Y-63811772D01*
X155426875Y-63996175D01*
X155231000Y-64192050D01*
X155035125Y-63996175D01*
X154759147Y-63811772D01*
X154452496Y-63684754D01*
X154126958Y-63620000D01*
X153795042Y-63620000D01*
X153469504Y-63684754D01*
X153162853Y-63811772D01*
X152886875Y-63996175D01*
X152691000Y-64192050D01*
X152495125Y-63996175D01*
X152219147Y-63811772D01*
X151912496Y-63684754D01*
X151586958Y-63620000D01*
X151255042Y-63620000D01*
X150929504Y-63684754D01*
X150622853Y-63811772D01*
X150346875Y-63996175D01*
X150151000Y-64192050D01*
X149955125Y-63996175D01*
X149679147Y-63811772D01*
X149372496Y-63684754D01*
X149046958Y-63620000D01*
X148715042Y-63620000D01*
X148389504Y-63684754D01*
X148082853Y-63811772D01*
X147806875Y-63996175D01*
X147611000Y-64192050D01*
X147415125Y-63996175D01*
X147139147Y-63811772D01*
X146832496Y-63684754D01*
X146506958Y-63620000D01*
X146175042Y-63620000D01*
X145849504Y-63684754D01*
X145542853Y-63811772D01*
X145266875Y-63996175D01*
X145071000Y-64192050D01*
X144875125Y-63996175D01*
X144599147Y-63811772D01*
X144292496Y-63684754D01*
X143966958Y-63620000D01*
X143635042Y-63620000D01*
X143309504Y-63684754D01*
X143002853Y-63811772D01*
X142726875Y-63996175D01*
X142531000Y-64192050D01*
X142335125Y-63996175D01*
X142059147Y-63811772D01*
X141752496Y-63684754D01*
X141426958Y-63620000D01*
X141095042Y-63620000D01*
X140769504Y-63684754D01*
X140462853Y-63811772D01*
X140186875Y-63996175D01*
X139952175Y-64230875D01*
X139767772Y-64506853D01*
X139640754Y-64813504D01*
X139576000Y-65139042D01*
X139411000Y-65139042D01*
X139411000Y-63448000D01*
X163526518Y-63448000D01*
X163530883Y-89967917D01*
G37*
X163530883Y-89967917D02*
X139411000Y-89965084D01*
X139411000Y-89336066D01*
X140269539Y-89336066D01*
X140371339Y-89605579D01*
X140669477Y-89751463D01*
X140990346Y-89836380D01*
X141321617Y-89857066D01*
X141650557Y-89812728D01*
X141964527Y-89705069D01*
X142150661Y-89605579D01*
X142252461Y-89336066D01*
X141261000Y-88344605D01*
X140269539Y-89336066D01*
X139411000Y-89336066D01*
X139411000Y-88225617D01*
X139568934Y-88225617D01*
X139613272Y-88554557D01*
X139720931Y-88868527D01*
X139820421Y-89054661D01*
X140089934Y-89156461D01*
X141081395Y-88165000D01*
X141440605Y-88165000D01*
X142432066Y-89156461D01*
X142701579Y-89054661D01*
X142847463Y-88756523D01*
X142932380Y-88435654D01*
X142953066Y-88104383D01*
X142908728Y-87775443D01*
X142801069Y-87461473D01*
X142701579Y-87275339D01*
X142432066Y-87173539D01*
X141440605Y-88165000D01*
X141081395Y-88165000D01*
X140089934Y-87173539D01*
X139820421Y-87275339D01*
X139674537Y-87573477D01*
X139589620Y-87894346D01*
X139568934Y-88225617D01*
X139411000Y-88225617D01*
X139411000Y-65139042D01*
X139576000Y-65139042D01*
X139576000Y-65470958D01*
X139640754Y-65796496D01*
X139767772Y-66103147D01*
X139952175Y-66379125D01*
X140148050Y-66575000D01*
X139952175Y-66770875D01*
X139767772Y-67046853D01*
X139640754Y-67353504D01*
X139576000Y-67679042D01*
X139576000Y-68010958D01*
X139640754Y-68336496D01*
X139767772Y-68643147D01*
X139952175Y-68919125D01*
X140148050Y-69115000D01*
X139952175Y-69310875D01*
X139767772Y-69586853D01*
X139640754Y-69893504D01*
X139576000Y-70219042D01*
X139576000Y-70550958D01*
X139640754Y-70876496D01*
X139767772Y-71183147D01*
X139952175Y-71459125D01*
X140148050Y-71655000D01*
X139952175Y-71850875D01*
X139767772Y-72126853D01*
X139640754Y-72433504D01*
X139576000Y-72759042D01*
X139576000Y-73090958D01*
X139640754Y-73416496D01*
X139767772Y-73723147D01*
X139952175Y-73999125D01*
X140148050Y-74195000D01*
X139952175Y-74390875D01*
X139767772Y-74666853D01*
X139640754Y-74973504D01*
X139576000Y-75299042D01*
X139576000Y-75630958D01*
X139640754Y-75956496D01*
X139767772Y-76263147D01*
X139952175Y-76539125D01*
X140148050Y-76735000D01*
X139952175Y-76930875D01*
X139767772Y-77206853D01*
X139640754Y-77513504D01*
X139576000Y-77839042D01*
X139576000Y-78170958D01*
X139640754Y-78496496D01*
X139767772Y-78803147D01*
X139952175Y-79079125D01*
X140148050Y-79275000D01*
X139952175Y-79470875D01*
X139767772Y-79746853D01*
X139640754Y-80053504D01*
X139576000Y-80379042D01*
X139576000Y-80710958D01*
X139640754Y-81036496D01*
X139767772Y-81343147D01*
X139952175Y-81619125D01*
X140148050Y-81815000D01*
X139952175Y-82010875D01*
X139767772Y-82286853D01*
X139640754Y-82593504D01*
X139576000Y-82919042D01*
X139576000Y-83250958D01*
X139640754Y-83576496D01*
X139767772Y-83883147D01*
X139952175Y-84159125D01*
X140148050Y-84355000D01*
X139952175Y-84550875D01*
X139767772Y-84826853D01*
X139640754Y-85133504D01*
X139576000Y-85459042D01*
X139576000Y-85790958D01*
X139640754Y-86116496D01*
X139767772Y-86423147D01*
X139952175Y-86699125D01*
X140186875Y-86933825D01*
X140271009Y-86990042D01*
X140269539Y-86993934D01*
X141261000Y-87985395D01*
X142252461Y-86993934D01*
X142250991Y-86990042D01*
X142335125Y-86933825D01*
X142569825Y-86699125D01*
X142754228Y-86423147D01*
X142881246Y-86116496D01*
X142946000Y-85790958D01*
X142946000Y-85459042D01*
X142881246Y-85133504D01*
X142754228Y-84826853D01*
X142569825Y-84550875D01*
X142373950Y-84355000D01*
X142569825Y-84159125D01*
X142754228Y-83883147D01*
X142881246Y-83576496D01*
X142946000Y-83250958D01*
X142946000Y-82919042D01*
X142881246Y-82593504D01*
X142754228Y-82286853D01*
X142569825Y-82010875D01*
X142373950Y-81815000D01*
X142569825Y-81619125D01*
X142754228Y-81343147D01*
X142881246Y-81036496D01*
X142946000Y-80710958D01*
X142946000Y-80482002D01*
X143100579Y-80482002D01*
X142978677Y-80696186D01*
X143071031Y-80951504D01*
X143211421Y-81183899D01*
X143394451Y-81384440D01*
X143613088Y-81545420D01*
X143858930Y-81660653D01*
X143979815Y-81697318D01*
X144194000Y-81574656D01*
X144194000Y-80482000D01*
X144174000Y-80482000D01*
X144174000Y-80228000D01*
X144194000Y-80228000D01*
X144194000Y-79135344D01*
X143979815Y-79012682D01*
X143858930Y-79049347D01*
X143613088Y-79164580D01*
X143394451Y-79325560D01*
X143211421Y-79526101D01*
X143071031Y-79758496D01*
X142978677Y-80013814D01*
X143100579Y-80227998D01*
X142936000Y-80227998D01*
X142936000Y-80328769D01*
X142881246Y-80053504D01*
X142754228Y-79746853D01*
X142569825Y-79470875D01*
X142373950Y-79275000D01*
X142569825Y-79079125D01*
X142754228Y-78803147D01*
X142881246Y-78496496D01*
X142946000Y-78170958D01*
X142946000Y-77839042D01*
X142881246Y-77513504D01*
X142754228Y-77206853D01*
X142569825Y-76930875D01*
X142373950Y-76735000D01*
X142569825Y-76539125D01*
X142754228Y-76263147D01*
X142881246Y-75956496D01*
X142946000Y-75630958D01*
X142946000Y-75564769D01*
X143030300Y-75573072D01*
X143782050Y-75570000D01*
X143940800Y-75411250D01*
X143940800Y-73787000D01*
X144194800Y-73787000D01*
X144194800Y-75411250D01*
X144353550Y-75570000D01*
X145105300Y-75573072D01*
X145229782Y-75560812D01*
X145349480Y-75524502D01*
X145459794Y-75465537D01*
X145556485Y-75386185D01*
X145635837Y-75289494D01*
X145694802Y-75179180D01*
X145731112Y-75059482D01*
X145743372Y-74935000D01*
X145740300Y-73945750D01*
X145581550Y-73787000D01*
X144194800Y-73787000D01*
X143940800Y-73787000D01*
X143920800Y-73787000D01*
X143920800Y-73533000D01*
X143940800Y-73533000D01*
X143940800Y-71908750D01*
X144194800Y-71908750D01*
X144194800Y-73533000D01*
X145581550Y-73533000D01*
X145740300Y-73374250D01*
X145743372Y-72385000D01*
X145731112Y-72260518D01*
X145694802Y-72140820D01*
X145635837Y-72030506D01*
X145556485Y-71933815D01*
X145459794Y-71854463D01*
X145349480Y-71795498D01*
X145229782Y-71759188D01*
X145105300Y-71746928D01*
X144353550Y-71750000D01*
X144194800Y-71908750D01*
X143940800Y-71908750D01*
X143782050Y-71750000D01*
X143030300Y-71746928D01*
X142905818Y-71759188D01*
X142786120Y-71795498D01*
X142675806Y-71854463D01*
X142608907Y-71909365D01*
X142569825Y-71850875D01*
X142373950Y-71655000D01*
X142569825Y-71459125D01*
X142754228Y-71183147D01*
X142873955Y-70894099D01*
X142893118Y-70899912D01*
X143017600Y-70912172D01*
X143769350Y-70909100D01*
X143928100Y-70750350D01*
X143928100Y-69126100D01*
X144182100Y-69126100D01*
X144182100Y-70750350D01*
X144340850Y-70909100D01*
X145092600Y-70912172D01*
X145217082Y-70899912D01*
X145336780Y-70863602D01*
X145447094Y-70804637D01*
X145543785Y-70725285D01*
X145623137Y-70628594D01*
X145682102Y-70518280D01*
X145718412Y-70398582D01*
X145730672Y-70274100D01*
X145727600Y-69284850D01*
X145568850Y-69126100D01*
X144182100Y-69126100D01*
X143928100Y-69126100D01*
X143908100Y-69126100D01*
X143908100Y-68872100D01*
X143928100Y-68872100D01*
X143928100Y-67247850D01*
X144182100Y-67247850D01*
X144182100Y-68872100D01*
X145568850Y-68872100D01*
X145727600Y-68713350D01*
X145730672Y-67724100D01*
X145718412Y-67599618D01*
X145682102Y-67479920D01*
X145623137Y-67369606D01*
X145543785Y-67272915D01*
X145447094Y-67193563D01*
X145336780Y-67134598D01*
X145217082Y-67098288D01*
X145092600Y-67086028D01*
X144340850Y-67089100D01*
X144182100Y-67247850D01*
X143928100Y-67247850D01*
X143769350Y-67089100D01*
X143017600Y-67086028D01*
X142893118Y-67098288D01*
X142788658Y-67129976D01*
X142754228Y-67046853D01*
X142569825Y-66770875D01*
X142373950Y-66575000D01*
X142531000Y-66417950D01*
X142726875Y-66613825D01*
X143002853Y-66798228D01*
X143309504Y-66925246D01*
X143635042Y-66990000D01*
X143966958Y-66990000D01*
X144292496Y-66925246D01*
X144599147Y-66798228D01*
X144875125Y-66613825D01*
X145071000Y-66417950D01*
X145266875Y-66613825D01*
X145542853Y-66798228D01*
X145849504Y-66925246D01*
X146175042Y-66990000D01*
X146506958Y-66990000D01*
X146832496Y-66925246D01*
X147139147Y-66798228D01*
X147415125Y-66613825D01*
X147611000Y-66417950D01*
X147806875Y-66613825D01*
X148082853Y-66798228D01*
X148389504Y-66925246D01*
X148715042Y-66990000D01*
X149046958Y-66990000D01*
X149372496Y-66925246D01*
X149679147Y-66798228D01*
X149955125Y-66613825D01*
X150151000Y-66417950D01*
X150346875Y-66613825D01*
X150622853Y-66798228D01*
X150929504Y-66925246D01*
X151255042Y-66990000D01*
X151586958Y-66990000D01*
X151912496Y-66925246D01*
X152219147Y-66798228D01*
X152495125Y-66613825D01*
X152691000Y-66417950D01*
X152886875Y-66613825D01*
X153162853Y-66798228D01*
X153469504Y-66925246D01*
X153795042Y-66990000D01*
X154126958Y-66990000D01*
X154452496Y-66925246D01*
X154759147Y-66798228D01*
X155035125Y-66613825D01*
X155231000Y-66417950D01*
X155426875Y-66613825D01*
X155702853Y-66798228D01*
X156009504Y-66925246D01*
X156335042Y-66990000D01*
X156666958Y-66990000D01*
X156992496Y-66925246D01*
X157299147Y-66798228D01*
X157575125Y-66613825D01*
X157771000Y-66417950D01*
X157966875Y-66613825D01*
X158242853Y-66798228D01*
X158549504Y-66925246D01*
X158875042Y-66990000D01*
X159206958Y-66990000D01*
X159532496Y-66925246D01*
X159839147Y-66798228D01*
X160115125Y-66613825D01*
X160311000Y-66417950D01*
X160468050Y-66575000D01*
X160272175Y-66770875D01*
X160087772Y-67046853D01*
X159960754Y-67353504D01*
X159896000Y-67679042D01*
X159896000Y-68010958D01*
X159960754Y-68336496D01*
X160087772Y-68643147D01*
X160272175Y-68919125D01*
X160468050Y-69115000D01*
X160272175Y-69310875D01*
X160264246Y-69322742D01*
X160200180Y-69288498D01*
X160080482Y-69252188D01*
X159956000Y-69239928D01*
X157956000Y-69239928D01*
X157831518Y-69252188D01*
X157711820Y-69288498D01*
X157601506Y-69347463D01*
X157504815Y-69426815D01*
X157425463Y-69523506D01*
X157366498Y-69633820D01*
X157330188Y-69753518D01*
X157317928Y-69878000D01*
X157317928Y-72587717D01*
X155934845Y-73970800D01*
X154189308Y-73970800D01*
X154200180Y-73967502D01*
X154310494Y-73908537D01*
X154407185Y-73829185D01*
X154486537Y-73732494D01*
X154545502Y-73622180D01*
X154581812Y-73502482D01*
X154594072Y-73378000D01*
X154594072Y-69878000D01*
X154581812Y-69753518D01*
X154545502Y-69633820D01*
X154486537Y-69523506D01*
X154407185Y-69426815D01*
X154310494Y-69347463D01*
X154200180Y-69288498D01*
X154080482Y-69252188D01*
X153956000Y-69239928D01*
X153446884Y-69239928D01*
X152628561Y-68421606D01*
X152596933Y-68383067D01*
X152443140Y-68256853D01*
X152267680Y-68163068D01*
X152077294Y-68105315D01*
X151955672Y-68093336D01*
X151955672Y-67974100D01*
X151938608Y-67800846D01*
X151888072Y-67634250D01*
X151806005Y-67480714D01*
X151695562Y-67346138D01*
X151560986Y-67235695D01*
X151407450Y-67153628D01*
X151240854Y-67103092D01*
X151067600Y-67086028D01*
X149492600Y-67086028D01*
X149319346Y-67103092D01*
X149152750Y-67153628D01*
X148999214Y-67235695D01*
X148864638Y-67346138D01*
X148754195Y-67480714D01*
X148672128Y-67634250D01*
X148621592Y-67800846D01*
X148604528Y-67974100D01*
X148604528Y-68090700D01*
X148512608Y-68090700D01*
X148463000Y-68085814D01*
X148265005Y-68105315D01*
X148074620Y-68163068D01*
X147899160Y-68256853D01*
X147745367Y-68383067D01*
X147713739Y-68421606D01*
X147148901Y-68986444D01*
X147110368Y-69018067D01*
X147078745Y-69056600D01*
X147078744Y-69056601D01*
X146984154Y-69171860D01*
X146890368Y-69347321D01*
X146832615Y-69537706D01*
X146813114Y-69735700D01*
X146818001Y-69785318D01*
X146818000Y-78080792D01*
X146813114Y-78130400D01*
X146832615Y-78328394D01*
X146884542Y-78499572D01*
X146890368Y-78518779D01*
X146984153Y-78694240D01*
X147110367Y-78848033D01*
X147148905Y-78879661D01*
X147236173Y-78966928D01*
X146111000Y-78966928D01*
X145986518Y-78979188D01*
X145866820Y-79015498D01*
X145756506Y-79074463D01*
X145659815Y-79153815D01*
X145580463Y-79250506D01*
X145521498Y-79360820D01*
X145485188Y-79480518D01*
X145473673Y-79597437D01*
X145430579Y-79526101D01*
X145247549Y-79325560D01*
X145028912Y-79164580D01*
X144783070Y-79049347D01*
X144662185Y-79012682D01*
X144448000Y-79135344D01*
X144448000Y-80228000D01*
X144468000Y-80228000D01*
X144468000Y-80482000D01*
X144448000Y-80482000D01*
X144448000Y-81574656D01*
X144662185Y-81697318D01*
X144783070Y-81660653D01*
X145028912Y-81545420D01*
X145247549Y-81384440D01*
X145430579Y-81183899D01*
X145473673Y-81112563D01*
X145485188Y-81229482D01*
X145521498Y-81349180D01*
X145580463Y-81459494D01*
X145659815Y-81556185D01*
X145756506Y-81635537D01*
X145866820Y-81694502D01*
X145986518Y-81730812D01*
X146111000Y-81743072D01*
X147611000Y-81743072D01*
X147735482Y-81730812D01*
X147855180Y-81694502D01*
X147965494Y-81635537D01*
X148062185Y-81556185D01*
X148141537Y-81459494D01*
X148192046Y-81365000D01*
X150680050Y-81365000D01*
X150642615Y-81488406D01*
X150623114Y-81686400D01*
X150642615Y-81884394D01*
X150700368Y-82074779D01*
X150794154Y-82250240D01*
X150888744Y-82365499D01*
X153434701Y-84911456D01*
X153434700Y-86714407D01*
X153449315Y-86862793D01*
X153507068Y-87053179D01*
X153600853Y-87228640D01*
X153727067Y-87382433D01*
X153880860Y-87508647D01*
X154056320Y-87602432D01*
X154246706Y-87660185D01*
X154444700Y-87679686D01*
X154642693Y-87660185D01*
X154833079Y-87602432D01*
X155008540Y-87508647D01*
X155162333Y-87382433D01*
X155288547Y-87228640D01*
X155382332Y-87053180D01*
X155440085Y-86862794D01*
X155454700Y-86714408D01*
X155454700Y-84542704D01*
X155459586Y-84493099D01*
X155449808Y-84393825D01*
X155440085Y-84295106D01*
X155382332Y-84104720D01*
X155288547Y-83929260D01*
X155162333Y-83775467D01*
X155123794Y-83743839D01*
X152744955Y-81365000D01*
X160102374Y-81365000D01*
X160272175Y-81619125D01*
X160468050Y-81815000D01*
X160272175Y-82010875D01*
X160087772Y-82286853D01*
X159960754Y-82593504D01*
X159896000Y-82919042D01*
X159896000Y-83250958D01*
X159960754Y-83576496D01*
X160087772Y-83883147D01*
X160272175Y-84159125D01*
X160468050Y-84355000D01*
X160272175Y-84550875D01*
X160087772Y-84826853D01*
X159960754Y-85133504D01*
X159896000Y-85459042D01*
X159896000Y-85790958D01*
X159960754Y-86116496D01*
X160087772Y-86423147D01*
X160272175Y-86699125D01*
X160468050Y-86895000D01*
X160272175Y-87090875D01*
X160087772Y-87366853D01*
X159960754Y-87673504D01*
X159896000Y-87999042D01*
X159896000Y-88330958D01*
X159960754Y-88656496D01*
X160087772Y-88963147D01*
X160272175Y-89239125D01*
X160506875Y-89473825D01*
X160782853Y-89658228D01*
X161089504Y-89785246D01*
X161415042Y-89850000D01*
X161746958Y-89850000D01*
X162072496Y-89785246D01*
X162379147Y-89658228D01*
X162655125Y-89473825D01*
X162889825Y-89239125D01*
X163074228Y-88963147D01*
X163201246Y-88656496D01*
X163266000Y-88330958D01*
X163266000Y-87999042D01*
X163201246Y-87673504D01*
X163074228Y-87366853D01*
X162889825Y-87090875D01*
X162693950Y-86895000D01*
X162889825Y-86699125D01*
X163074228Y-86423147D01*
X163201246Y-86116496D01*
X163266000Y-85790958D01*
X163266000Y-85459042D01*
X163201246Y-85133504D01*
X163074228Y-84826853D01*
X162889825Y-84550875D01*
X162693950Y-84355000D01*
X162889825Y-84159125D01*
X163074228Y-83883147D01*
X163201246Y-83576496D01*
X163266000Y-83250958D01*
X163266000Y-82919042D01*
X163201246Y-82593504D01*
X163074228Y-82286853D01*
X162889825Y-82010875D01*
X162693950Y-81815000D01*
X162889825Y-81619125D01*
X163074228Y-81343147D01*
X163201246Y-81036496D01*
X163266000Y-80710958D01*
X163266000Y-80379042D01*
X163201246Y-80053504D01*
X163074228Y-79746853D01*
X162889825Y-79470875D01*
X162693950Y-79275000D01*
X162889825Y-79079125D01*
X163074228Y-78803147D01*
X163201246Y-78496496D01*
X163266000Y-78170958D01*
X163266000Y-77839042D01*
X163201246Y-77513504D01*
X163074228Y-77206853D01*
X162889825Y-76930875D01*
X162693950Y-76735000D01*
X162889825Y-76539125D01*
X163074228Y-76263147D01*
X163201246Y-75956496D01*
X163266000Y-75630958D01*
X163266000Y-75299042D01*
X163201246Y-74973504D01*
X163074228Y-74666853D01*
X162889825Y-74390875D01*
X162693950Y-74195000D01*
X162889825Y-73999125D01*
X163074228Y-73723147D01*
X163201246Y-73416496D01*
X163266000Y-73090958D01*
X163266000Y-72759042D01*
X163201246Y-72433504D01*
X163074228Y-72126853D01*
X162889825Y-71850875D01*
X162693950Y-71655000D01*
X162889825Y-71459125D01*
X163074228Y-71183147D01*
X163201246Y-70876496D01*
X163266000Y-70550958D01*
X163266000Y-70219042D01*
X163201246Y-69893504D01*
X163074228Y-69586853D01*
X162889825Y-69310875D01*
X162693950Y-69115000D01*
X162889825Y-68919125D01*
X163074228Y-68643147D01*
X163201246Y-68336496D01*
X163266000Y-68010958D01*
X163266000Y-67679042D01*
X163201246Y-67353504D01*
X163074228Y-67046853D01*
X162889825Y-66770875D01*
X162693950Y-66575000D01*
X162889825Y-66379125D01*
X163074228Y-66103147D01*
X163201246Y-65796496D01*
X163266000Y-65470958D01*
X163266000Y-65139042D01*
X163201246Y-64813504D01*
X163074228Y-64506853D01*
X162889825Y-64230875D01*
X162655125Y-63996175D01*
X162379147Y-63811772D01*
X162072496Y-63684754D01*
X161746958Y-63620000D01*
X161415042Y-63620000D01*
X161089504Y-63684754D01*
X160782853Y-63811772D01*
X160506875Y-63996175D01*
X160311000Y-64192050D01*
X160115125Y-63996175D01*
X159839147Y-63811772D01*
X159532496Y-63684754D01*
X159206958Y-63620000D01*
X158875042Y-63620000D01*
X158549504Y-63684754D01*
X158242853Y-63811772D01*
X157966875Y-63996175D01*
X157771000Y-64192050D01*
X157575125Y-63996175D01*
X157299147Y-63811772D01*
X156992496Y-63684754D01*
X156666958Y-63620000D01*
X156335042Y-63620000D01*
X156009504Y-63684754D01*
X155702853Y-63811772D01*
X155426875Y-63996175D01*
X155231000Y-64192050D01*
X155035125Y-63996175D01*
X154759147Y-63811772D01*
X154452496Y-63684754D01*
X154126958Y-63620000D01*
X153795042Y-63620000D01*
X153469504Y-63684754D01*
X153162853Y-63811772D01*
X152886875Y-63996175D01*
X152691000Y-64192050D01*
X152495125Y-63996175D01*
X152219147Y-63811772D01*
X151912496Y-63684754D01*
X151586958Y-63620000D01*
X151255042Y-63620000D01*
X150929504Y-63684754D01*
X150622853Y-63811772D01*
X150346875Y-63996175D01*
X150151000Y-64192050D01*
X149955125Y-63996175D01*
X149679147Y-63811772D01*
X149372496Y-63684754D01*
X149046958Y-63620000D01*
X148715042Y-63620000D01*
X148389504Y-63684754D01*
X148082853Y-63811772D01*
X147806875Y-63996175D01*
X147611000Y-64192050D01*
X147415125Y-63996175D01*
X147139147Y-63811772D01*
X146832496Y-63684754D01*
X146506958Y-63620000D01*
X146175042Y-63620000D01*
X145849504Y-63684754D01*
X145542853Y-63811772D01*
X145266875Y-63996175D01*
X145071000Y-64192050D01*
X144875125Y-63996175D01*
X144599147Y-63811772D01*
X144292496Y-63684754D01*
X143966958Y-63620000D01*
X143635042Y-63620000D01*
X143309504Y-63684754D01*
X143002853Y-63811772D01*
X142726875Y-63996175D01*
X142531000Y-64192050D01*
X142335125Y-63996175D01*
X142059147Y-63811772D01*
X141752496Y-63684754D01*
X141426958Y-63620000D01*
X141095042Y-63620000D01*
X140769504Y-63684754D01*
X140462853Y-63811772D01*
X140186875Y-63996175D01*
X139952175Y-64230875D01*
X139767772Y-64506853D01*
X139640754Y-64813504D01*
X139576000Y-65139042D01*
X139411000Y-65139042D01*
X139411000Y-63448000D01*
X163526518Y-63448000D01*
X163530883Y-89967917D01*
G36*
X160272175Y-73999125D02*
G01*
X160468050Y-74195000D01*
X160272175Y-74390875D01*
X160087772Y-74666853D01*
X159960754Y-74973504D01*
X159896000Y-75299042D01*
X159896000Y-75630958D01*
X159960754Y-75956496D01*
X160087772Y-76263147D01*
X160272175Y-76539125D01*
X160468050Y-76735000D01*
X160272175Y-76930875D01*
X160087772Y-77206853D01*
X159960754Y-77513504D01*
X159896000Y-77839042D01*
X159896000Y-78170958D01*
X159960754Y-78496496D01*
X160087772Y-78803147D01*
X160272175Y-79079125D01*
X160468050Y-79275000D01*
X160398050Y-79345000D01*
X152617791Y-79345000D01*
X152633385Y-79293594D01*
X152652886Y-79095600D01*
X152633385Y-78897606D01*
X152575632Y-78707220D01*
X152481847Y-78531760D01*
X152474822Y-78523200D01*
X152724060Y-78523200D01*
X153010958Y-78466132D01*
X153281211Y-78354190D01*
X153524432Y-78191675D01*
X153731275Y-77984832D01*
X153847800Y-77810440D01*
X153964325Y-77984832D01*
X154171168Y-78191675D01*
X154414389Y-78354190D01*
X154684642Y-78466132D01*
X154971540Y-78523200D01*
X155264060Y-78523200D01*
X155550958Y-78466132D01*
X155821211Y-78354190D01*
X156064432Y-78191675D01*
X156189510Y-78066597D01*
X156809008Y-78066597D01*
X156886643Y-78315672D01*
X157150683Y-78441571D01*
X157434211Y-78513539D01*
X157726331Y-78528811D01*
X158015819Y-78486799D01*
X158291547Y-78389119D01*
X158428957Y-78315672D01*
X158506592Y-78066597D01*
X157657800Y-77217805D01*
X156809008Y-78066597D01*
X156189510Y-78066597D01*
X156271275Y-77984832D01*
X156387111Y-77811471D01*
X156629403Y-77886992D01*
X157478195Y-77038200D01*
X157837405Y-77038200D01*
X158686197Y-77886992D01*
X158935272Y-77809357D01*
X159061171Y-77545317D01*
X159133139Y-77261789D01*
X159148411Y-76969669D01*
X159106399Y-76680181D01*
X159008719Y-76404453D01*
X158935272Y-76267043D01*
X158686197Y-76189408D01*
X157837405Y-77038200D01*
X157478195Y-77038200D01*
X156629403Y-76189408D01*
X156387111Y-76264929D01*
X156271275Y-76091568D01*
X156170507Y-75990800D01*
X156303592Y-75990800D01*
X156353200Y-75995686D01*
X156551194Y-75976185D01*
X156616100Y-75956496D01*
X156741580Y-75918432D01*
X156856660Y-75856920D01*
X156809008Y-76009803D01*
X157657800Y-76858595D01*
X158506592Y-76009803D01*
X158428957Y-75760728D01*
X158164917Y-75634829D01*
X157881389Y-75562861D01*
X157589269Y-75547589D01*
X157299781Y-75589601D01*
X157103065Y-75659290D01*
X158746283Y-74016072D01*
X159956000Y-74016072D01*
X160080482Y-74003812D01*
X160200180Y-73967502D01*
X160237659Y-73947469D01*
X160272175Y-73999125D01*
G37*
X160272175Y-73999125D02*
X160468050Y-74195000D01*
X160272175Y-74390875D01*
X160087772Y-74666853D01*
X159960754Y-74973504D01*
X159896000Y-75299042D01*
X159896000Y-75630958D01*
X159960754Y-75956496D01*
X160087772Y-76263147D01*
X160272175Y-76539125D01*
X160468050Y-76735000D01*
X160272175Y-76930875D01*
X160087772Y-77206853D01*
X159960754Y-77513504D01*
X159896000Y-77839042D01*
X159896000Y-78170958D01*
X159960754Y-78496496D01*
X160087772Y-78803147D01*
X160272175Y-79079125D01*
X160468050Y-79275000D01*
X160398050Y-79345000D01*
X152617791Y-79345000D01*
X152633385Y-79293594D01*
X152652886Y-79095600D01*
X152633385Y-78897606D01*
X152575632Y-78707220D01*
X152481847Y-78531760D01*
X152474822Y-78523200D01*
X152724060Y-78523200D01*
X153010958Y-78466132D01*
X153281211Y-78354190D01*
X153524432Y-78191675D01*
X153731275Y-77984832D01*
X153847800Y-77810440D01*
X153964325Y-77984832D01*
X154171168Y-78191675D01*
X154414389Y-78354190D01*
X154684642Y-78466132D01*
X154971540Y-78523200D01*
X155264060Y-78523200D01*
X155550958Y-78466132D01*
X155821211Y-78354190D01*
X156064432Y-78191675D01*
X156189510Y-78066597D01*
X156809008Y-78066597D01*
X156886643Y-78315672D01*
X157150683Y-78441571D01*
X157434211Y-78513539D01*
X157726331Y-78528811D01*
X158015819Y-78486799D01*
X158291547Y-78389119D01*
X158428957Y-78315672D01*
X158506592Y-78066597D01*
X157657800Y-77217805D01*
X156809008Y-78066597D01*
X156189510Y-78066597D01*
X156271275Y-77984832D01*
X156387111Y-77811471D01*
X156629403Y-77886992D01*
X157478195Y-77038200D01*
X157837405Y-77038200D01*
X158686197Y-77886992D01*
X158935272Y-77809357D01*
X159061171Y-77545317D01*
X159133139Y-77261789D01*
X159148411Y-76969669D01*
X159106399Y-76680181D01*
X159008719Y-76404453D01*
X158935272Y-76267043D01*
X158686197Y-76189408D01*
X157837405Y-77038200D01*
X157478195Y-77038200D01*
X156629403Y-76189408D01*
X156387111Y-76264929D01*
X156271275Y-76091568D01*
X156170507Y-75990800D01*
X156303592Y-75990800D01*
X156353200Y-75995686D01*
X156551194Y-75976185D01*
X156616100Y-75956496D01*
X156741580Y-75918432D01*
X156856660Y-75856920D01*
X156809008Y-76009803D01*
X157657800Y-76858595D01*
X158506592Y-76009803D01*
X158428957Y-75760728D01*
X158164917Y-75634829D01*
X157881389Y-75562861D01*
X157589269Y-75547589D01*
X157299781Y-75589601D01*
X157103065Y-75659290D01*
X158746283Y-74016072D01*
X159956000Y-74016072D01*
X160080482Y-74003812D01*
X160200180Y-73967502D01*
X160237659Y-73947469D01*
X160272175Y-73999125D01*
M02*
