G04 #@! TF.FileFunction,Copper,L1,Top,Signal*
%FSLAX46Y46*%
G04 Gerber Fmt 4.6, Leading zero omitted, Abs format (unit mm)*
G04 Created by KiCad (PCBNEW 4.0.6) date 07/30/17 19:43:23*
%MOMM*%
%LPD*%
G01*
G04 APERTURE LIST*
%ADD10C,0.100000*%
%ADD11R,1.500000X1.500000*%
%ADD12O,1.500000X1.500000*%
%ADD13R,1.700000X1.700000*%
%ADD14C,1.700000*%
%ADD15R,0.970000X1.270000*%
%ADD16C,2.100000*%
%ADD17C,1.200000*%
%ADD18C,0.600000*%
%ADD19C,0.400000*%
%ADD20C,0.500000*%
%ADD21C,0.250000*%
G04 APERTURE END LIST*
D10*
D11*
X146861000Y-80355000D03*
D12*
X144321000Y-80355000D03*
D13*
X150037800Y-77038200D03*
D14*
X152577800Y-77038200D03*
X155117800Y-77038200D03*
X157657800Y-77038200D03*
D15*
X152628600Y-71094600D03*
X151358600Y-71094600D03*
X150088600Y-71094600D03*
X151358600Y-69544600D03*
D16*
X161581000Y-67845000D03*
X161581000Y-70385000D03*
X161581000Y-72925000D03*
X161581000Y-75465000D03*
X161581000Y-78005000D03*
X161581000Y-80545000D03*
X161581000Y-83085000D03*
X161581000Y-85625000D03*
X161581000Y-88165000D03*
X161581000Y-65305000D03*
X159041000Y-65305000D03*
X156501000Y-65305000D03*
X153961000Y-65305000D03*
X151421000Y-65305000D03*
X148881000Y-65305000D03*
X146341000Y-65305000D03*
X143801000Y-65305000D03*
X141261000Y-65305000D03*
X141261000Y-67845000D03*
X141261000Y-70385000D03*
X141261000Y-72925000D03*
X141261000Y-75465000D03*
X141261000Y-78005000D03*
X141261000Y-80545000D03*
X141261000Y-83085000D03*
X141261000Y-85625000D03*
X141261000Y-88165000D03*
D17*
X154101800Y-82778600D03*
X158927800Y-82778600D03*
D18*
X154881000Y-69545000D03*
D19*
X159131000Y-79222600D02*
X156692600Y-81661000D01*
X157048200Y-71094600D02*
X159131000Y-73177400D01*
X159131000Y-73177400D02*
X159131000Y-79222600D01*
X152628600Y-71094600D02*
X157048200Y-71094600D01*
X159842200Y-88163400D02*
X161569400Y-88163400D01*
X156692600Y-85013800D02*
X159842200Y-88163400D01*
X156692600Y-81661000D02*
X156692600Y-85013800D01*
X160807400Y-88163400D02*
X161569400Y-88163400D01*
X151181000Y-67935000D02*
X151020200Y-67935000D01*
X156338200Y-67946200D02*
X151181000Y-67935000D01*
X159893000Y-71501000D02*
X156338200Y-67946200D01*
X159893000Y-79883000D02*
X159893000Y-71501000D01*
X161569400Y-85623400D02*
X159080200Y-85623400D01*
X157607000Y-84150200D02*
X159080200Y-85623400D01*
X157607000Y-82169000D02*
X157607000Y-84150200D01*
X159893000Y-79883000D02*
X157607000Y-82169000D01*
X150088600Y-68547400D02*
X150088600Y-71094600D01*
X151020200Y-67935000D02*
X150088600Y-68547400D01*
D20*
X146556200Y-80355000D02*
X151663400Y-80340200D01*
X154101800Y-82778600D02*
X151663400Y-80340200D01*
X158927800Y-82778600D02*
X161163000Y-80543400D01*
X161569400Y-80543400D02*
X161163000Y-80543400D01*
D19*
X151358600Y-69544600D02*
X154880600Y-69544600D01*
X154880600Y-69544600D02*
X154881000Y-69545000D01*
D20*
X148920200Y-78511400D02*
X147497800Y-77089000D01*
X155117800Y-78105000D02*
X154711400Y-78511400D01*
X154711400Y-78511400D02*
X148920200Y-78511400D01*
X148869400Y-67386200D02*
X148869400Y-65303400D01*
X147497800Y-68757800D02*
X148869400Y-67386200D01*
X147497800Y-77089000D02*
X147497800Y-68757800D01*
X155128600Y-77038200D02*
X155117800Y-78105000D01*
X155524200Y-79375000D02*
X155575000Y-79375000D01*
X146329400Y-77444600D02*
X146329400Y-65303400D01*
X148259800Y-79375000D02*
X146329400Y-77444600D01*
X155524200Y-79375000D02*
X148259800Y-79375000D01*
X156387800Y-76022200D02*
X156387800Y-76327000D01*
D21*
X156387800Y-76327000D02*
X156387800Y-77749400D01*
D20*
X156387800Y-77749400D02*
X156387800Y-78562200D01*
X155778200Y-75412600D02*
X156387800Y-76022200D01*
X155575000Y-79375000D02*
X156387800Y-78562200D01*
X153289000Y-75412600D02*
X155778200Y-75412600D01*
X152577800Y-76123800D02*
X153289000Y-75412600D01*
X152577800Y-77038200D02*
X152577800Y-76123800D01*
X144321000Y-85217000D02*
X153847800Y-85217000D01*
X157708600Y-79070200D02*
X155321000Y-81457800D01*
X155321000Y-81457800D02*
X155321000Y-83743800D01*
X155321000Y-83743800D02*
X153847800Y-85217000D01*
X157708600Y-79070200D02*
X157679400Y-77038200D01*
X144321000Y-80355000D02*
X144321000Y-85217000D01*
X144321000Y-85217000D02*
X144321000Y-86715000D01*
X142872600Y-88163400D02*
X141249400Y-88163400D01*
X144321000Y-86715000D02*
X142872600Y-88163400D01*
X151358600Y-71196200D02*
X151358600Y-73329800D01*
X150037800Y-74650600D02*
X150037800Y-77038200D01*
X151358600Y-73329800D02*
X150037800Y-74650600D01*
M02*
