G04 #@! TF.GenerationSoftware,KiCad,Pcbnew,(5.1.5)-3*
G04 #@! TF.CreationDate,2020-11-20T22:13:13+01:00*
G04 #@! TF.ProjectId,Microduino_Base_DE,4d696372-6f64-4756-996e-6f5f42617365,0.0*
G04 #@! TF.SameCoordinates,Original*
G04 #@! TF.FileFunction,Legend,Top*
G04 #@! TF.FilePolarity,Positive*
%FSLAX46Y46*%
G04 Gerber Fmt 4.6, Leading zero omitted, Abs format (unit mm)*
G04 Created by KiCad (PCBNEW (5.1.5)-3) date 2020-11-20 22:13:13*
%MOMM*%
%LPD*%
G04 APERTURE LIST*
%ADD10C,0.120000*%
%ADD11C,0.200000*%
%ADD12C,0.150000*%
%ADD13C,0.149860*%
G04 APERTURE END LIST*
D10*
X143517600Y-71259100D02*
X151577600Y-71259100D01*
X151577600Y-71259100D02*
X151577600Y-66739100D01*
X151577600Y-66739100D02*
X143517600Y-66739100D01*
X148191000Y-81695000D02*
X145591000Y-81695000D01*
X145591000Y-81695000D02*
X145591000Y-84315000D01*
X145591000Y-84315000D02*
X148191000Y-84315000D01*
X148191000Y-84315000D02*
X148191000Y-81695000D01*
X147241000Y-84315000D02*
X146481000Y-84315000D01*
X146481000Y-84315000D02*
X146481000Y-90315000D01*
X146481000Y-90315000D02*
X147241000Y-90315000D01*
X147241000Y-90315000D02*
X147241000Y-84315000D01*
X147241000Y-81265000D02*
X147241000Y-81695000D01*
X146481000Y-81265000D02*
X146481000Y-81695000D01*
X147121000Y-84315000D02*
X147121000Y-90315000D01*
X147001000Y-84315000D02*
X147001000Y-90315000D01*
X146881000Y-84315000D02*
X146881000Y-90315000D01*
X146761000Y-84315000D02*
X146761000Y-90315000D01*
X146641000Y-84315000D02*
X146641000Y-90315000D01*
X146521000Y-84315000D02*
X146521000Y-90315000D01*
X145591000Y-81695000D02*
X142991000Y-81695000D01*
X142991000Y-81695000D02*
X142991000Y-84315000D01*
X142991000Y-84315000D02*
X145591000Y-84315000D01*
X145591000Y-84315000D02*
X145591000Y-81695000D01*
X144701000Y-84315000D02*
X143941000Y-84315000D01*
X143941000Y-84315000D02*
X143941000Y-90315000D01*
X143941000Y-90315000D02*
X144701000Y-90315000D01*
X144701000Y-90315000D02*
X144701000Y-84315000D01*
X144701000Y-81265000D02*
X144701000Y-81695000D01*
X143941000Y-81265000D02*
X143941000Y-81695000D01*
X146861000Y-79085000D02*
X148131000Y-79085000D01*
X148131000Y-79085000D02*
X148131000Y-80355000D01*
X155437800Y-89538200D02*
X155437800Y-81938200D01*
X154797800Y-89538200D02*
X155437800Y-89538200D01*
X154797800Y-81938200D02*
X154797800Y-89538200D01*
X154797800Y-78738200D02*
X154797800Y-77838200D01*
X155437800Y-77838200D02*
X155437800Y-78738200D01*
X155437800Y-77838200D02*
X155437800Y-78738200D01*
X154797800Y-78738200D02*
X154797800Y-77838200D01*
X154797800Y-81938200D02*
X154797800Y-89538200D01*
X154797800Y-89538200D02*
X155437800Y-89538200D01*
X155437800Y-89538200D02*
X155437800Y-81938200D01*
X155437800Y-89538200D02*
X155437800Y-81938200D01*
X154797800Y-89538200D02*
X155437800Y-89538200D01*
X154797800Y-81938200D02*
X154797800Y-89538200D01*
X154797800Y-78738200D02*
X154797800Y-77838200D01*
X155437800Y-77838200D02*
X155437800Y-78738200D01*
X155437800Y-77838200D02*
X155437800Y-78738200D01*
X154797800Y-78738200D02*
X154797800Y-77838200D01*
X154797800Y-81938200D02*
X154797800Y-89538200D01*
X154797800Y-89538200D02*
X155437800Y-89538200D01*
X155437800Y-89538200D02*
X155437800Y-81938200D01*
X157977800Y-89538200D02*
X157977800Y-81938200D01*
X157337800Y-89538200D02*
X157977800Y-89538200D01*
X157337800Y-81938200D02*
X157337800Y-89538200D01*
X157337800Y-78738200D02*
X157337800Y-77838200D01*
X157977800Y-77838200D02*
X157977800Y-78738200D01*
X157977800Y-77838200D02*
X157977800Y-78738200D01*
X157337800Y-78738200D02*
X157337800Y-77838200D01*
X157337800Y-81938200D02*
X157337800Y-89538200D01*
X157337800Y-89538200D02*
X157977800Y-89538200D01*
X157977800Y-89538200D02*
X157977800Y-81938200D01*
X157977800Y-89538200D02*
X157977800Y-81938200D01*
X157337800Y-89538200D02*
X157977800Y-89538200D01*
X157337800Y-81938200D02*
X157337800Y-89538200D01*
X157337800Y-78738200D02*
X157337800Y-77838200D01*
X157977800Y-77838200D02*
X157977800Y-78738200D01*
X157977800Y-77838200D02*
X157977800Y-78738200D01*
X157337800Y-78738200D02*
X157337800Y-77838200D01*
X157337800Y-81938200D02*
X157337800Y-89538200D01*
X157337800Y-89538200D02*
X157977800Y-89538200D01*
X157977800Y-89538200D02*
X157977800Y-81938200D01*
X152897800Y-89538200D02*
X152897800Y-81938200D01*
X152257800Y-89538200D02*
X152897800Y-89538200D01*
X152257800Y-81938200D02*
X152257800Y-89538200D01*
X152257800Y-78738200D02*
X152257800Y-77838200D01*
X152897800Y-77838200D02*
X152897800Y-78738200D01*
X152897800Y-77838200D02*
X152897800Y-78738200D01*
X152257800Y-78738200D02*
X152257800Y-77838200D01*
X152257800Y-81938200D02*
X152257800Y-89538200D01*
X152257800Y-89538200D02*
X152897800Y-89538200D01*
X152897800Y-89538200D02*
X152897800Y-81938200D01*
X152897800Y-89538200D02*
X152897800Y-81938200D01*
X152257800Y-89538200D02*
X152897800Y-89538200D01*
X152257800Y-81938200D02*
X152257800Y-89538200D01*
X152257800Y-78738200D02*
X152257800Y-77838200D01*
X152897800Y-77838200D02*
X152897800Y-78738200D01*
X152897800Y-77838200D02*
X152897800Y-78738200D01*
X152257800Y-78738200D02*
X152257800Y-77838200D01*
X152257800Y-81938200D02*
X152257800Y-89538200D01*
X152257800Y-89538200D02*
X152897800Y-89538200D01*
X152897800Y-89538200D02*
X152897800Y-81938200D01*
X150357800Y-89538200D02*
X150357800Y-81938200D01*
X149717800Y-89538200D02*
X150357800Y-89538200D01*
X149717800Y-81938200D02*
X149717800Y-89538200D01*
X149717800Y-78738200D02*
X149717800Y-77838200D01*
X150357800Y-77838200D02*
X150357800Y-78738200D01*
X150357800Y-77838200D02*
X150357800Y-78738200D01*
X149717800Y-78738200D02*
X149717800Y-77838200D01*
X149717800Y-81938200D02*
X149717800Y-89538200D01*
X149717800Y-89538200D02*
X150357800Y-89538200D01*
X150357800Y-89538200D02*
X150357800Y-81938200D01*
X150357800Y-89538200D02*
X150357800Y-81938200D01*
X149717800Y-89538200D02*
X150357800Y-89538200D01*
X149717800Y-81938200D02*
X149717800Y-89538200D01*
X149717800Y-78738200D02*
X149717800Y-77838200D01*
X150357800Y-77838200D02*
X150357800Y-78738200D01*
X150357800Y-77838200D02*
X150357800Y-78738200D01*
X149717800Y-78738200D02*
X149717800Y-77838200D01*
X149717800Y-81938200D02*
X149717800Y-89538200D01*
X149717800Y-89538200D02*
X150357800Y-89538200D01*
X150357800Y-89538200D02*
X150357800Y-81938200D01*
X158847800Y-81938200D02*
X148747800Y-81938200D01*
X148747800Y-78738200D02*
X148747800Y-90048200D01*
X148747800Y-90048200D02*
X158847800Y-90048200D01*
X158847800Y-90048200D02*
X158847800Y-78738200D01*
X158847800Y-78738200D02*
X148747800Y-78738200D01*
X151590300Y-71400000D02*
X143530300Y-71400000D01*
X151590300Y-75920000D02*
X151590300Y-71400000D01*
X143530300Y-75920000D02*
X151590300Y-75920000D01*
D11*
X159456000Y-68328000D02*
X152456000Y-68328000D01*
X152456000Y-74928000D02*
X159456000Y-74928000D01*
D12*
X152563533Y-67857642D02*
X152515914Y-67905261D01*
X152373057Y-67952880D01*
X152277819Y-67952880D01*
X152134961Y-67905261D01*
X152039723Y-67810023D01*
X151992104Y-67714785D01*
X151944485Y-67524309D01*
X151944485Y-67381452D01*
X151992104Y-67190976D01*
X152039723Y-67095738D01*
X152134961Y-67000500D01*
X152277819Y-66952880D01*
X152373057Y-66952880D01*
X152515914Y-67000500D01*
X152563533Y-67048119D01*
X152896866Y-66952880D02*
X153515914Y-66952880D01*
X153182580Y-67333833D01*
X153325438Y-67333833D01*
X153420676Y-67381452D01*
X153468295Y-67429071D01*
X153515914Y-67524309D01*
X153515914Y-67762404D01*
X153468295Y-67857642D01*
X153420676Y-67905261D01*
X153325438Y-67952880D01*
X153039723Y-67952880D01*
X152944485Y-67905261D01*
X152896866Y-67857642D01*
X143572004Y-78912980D02*
X143572004Y-77912980D01*
X143952957Y-77912980D01*
X144048195Y-77960600D01*
X144095814Y-78008219D01*
X144143433Y-78103457D01*
X144143433Y-78246314D01*
X144095814Y-78341552D01*
X144048195Y-78389171D01*
X143952957Y-78436790D01*
X143572004Y-78436790D01*
X145095814Y-78912980D02*
X144524385Y-78912980D01*
X144810100Y-78912980D02*
X144810100Y-77912980D01*
X144714861Y-78055838D01*
X144619623Y-78151076D01*
X144524385Y-78198695D01*
X147102604Y-77592180D02*
X147102604Y-76592180D01*
X147483557Y-76592180D01*
X147578795Y-76639800D01*
X147626414Y-76687419D01*
X147674033Y-76782657D01*
X147674033Y-76925514D01*
X147626414Y-77020752D01*
X147578795Y-77068371D01*
X147483557Y-77115990D01*
X147102604Y-77115990D01*
X148007366Y-76592180D02*
X148626414Y-76592180D01*
X148293080Y-76973133D01*
X148435938Y-76973133D01*
X148531176Y-77020752D01*
X148578795Y-77068371D01*
X148626414Y-77163609D01*
X148626414Y-77401704D01*
X148578795Y-77496942D01*
X148531176Y-77544561D01*
X148435938Y-77592180D01*
X148150223Y-77592180D01*
X148054985Y-77544561D01*
X148007366Y-77496942D01*
X144676833Y-77103242D02*
X144629214Y-77150861D01*
X144486357Y-77198480D01*
X144391119Y-77198480D01*
X144248261Y-77150861D01*
X144153023Y-77055623D01*
X144105404Y-76960385D01*
X144057785Y-76769909D01*
X144057785Y-76627052D01*
X144105404Y-76436576D01*
X144153023Y-76341338D01*
X144248261Y-76246100D01*
X144391119Y-76198480D01*
X144486357Y-76198480D01*
X144629214Y-76246100D01*
X144676833Y-76293719D01*
X145057785Y-76293719D02*
X145105404Y-76246100D01*
X145200642Y-76198480D01*
X145438738Y-76198480D01*
X145533976Y-76246100D01*
X145581595Y-76293719D01*
X145629214Y-76388957D01*
X145629214Y-76484195D01*
X145581595Y-76627052D01*
X145010166Y-77198480D01*
X145629214Y-77198480D01*
D13*
X158369000Y-67923228D02*
X157897285Y-67923228D01*
X157897285Y-66932628D01*
X159218085Y-67923228D02*
X158652028Y-67923228D01*
X158935057Y-67923228D02*
X158935057Y-66932628D01*
X158840714Y-67074142D01*
X158746371Y-67168485D01*
X158652028Y-67215657D01*
M02*
