G04 #@! TF.GenerationSoftware,KiCad,Pcbnew,(5.1.5)-3*
G04 #@! TF.CreationDate,2020-11-20T22:13:13+01:00*
G04 #@! TF.ProjectId,Microduino_Base_DE,4d696372-6f64-4756-996e-6f5f42617365,0.0*
G04 #@! TF.SameCoordinates,Original*
G04 #@! TF.FileFunction,Paste,Bot*
G04 #@! TF.FilePolarity,Positive*
%FSLAX46Y46*%
G04 Gerber Fmt 4.6, Leading zero omitted, Abs format (unit mm)*
G04 Created by KiCad (PCBNEW (5.1.5)-3) date 2020-11-20 22:13:13*
%MOMM*%
%LPD*%
G04 APERTURE LIST*
%ADD10R,0.970000X1.270000*%
%ADD11C,0.100000*%
G04 APERTURE END LIST*
D10*
X152654000Y-84772500D03*
X153924000Y-84772500D03*
X155194000Y-84772500D03*
X153924000Y-83222500D03*
D11*
G36*
X146055542Y-73659674D02*
G01*
X146079203Y-73663184D01*
X146102407Y-73668996D01*
X146124929Y-73677054D01*
X146146553Y-73687282D01*
X146167070Y-73699579D01*
X146186283Y-73713829D01*
X146204007Y-73729893D01*
X146220071Y-73747617D01*
X146234321Y-73766830D01*
X146246618Y-73787347D01*
X146256846Y-73808971D01*
X146264904Y-73831493D01*
X146270716Y-73854697D01*
X146274226Y-73878358D01*
X146275400Y-73902250D01*
X146275400Y-74814750D01*
X146274226Y-74838642D01*
X146270716Y-74862303D01*
X146264904Y-74885507D01*
X146256846Y-74908029D01*
X146246618Y-74929653D01*
X146234321Y-74950170D01*
X146220071Y-74969383D01*
X146204007Y-74987107D01*
X146186283Y-75003171D01*
X146167070Y-75017421D01*
X146146553Y-75029718D01*
X146124929Y-75039946D01*
X146102407Y-75048004D01*
X146079203Y-75053816D01*
X146055542Y-75057326D01*
X146031650Y-75058500D01*
X145544150Y-75058500D01*
X145520258Y-75057326D01*
X145496597Y-75053816D01*
X145473393Y-75048004D01*
X145450871Y-75039946D01*
X145429247Y-75029718D01*
X145408730Y-75017421D01*
X145389517Y-75003171D01*
X145371793Y-74987107D01*
X145355729Y-74969383D01*
X145341479Y-74950170D01*
X145329182Y-74929653D01*
X145318954Y-74908029D01*
X145310896Y-74885507D01*
X145305084Y-74862303D01*
X145301574Y-74838642D01*
X145300400Y-74814750D01*
X145300400Y-73902250D01*
X145301574Y-73878358D01*
X145305084Y-73854697D01*
X145310896Y-73831493D01*
X145318954Y-73808971D01*
X145329182Y-73787347D01*
X145341479Y-73766830D01*
X145355729Y-73747617D01*
X145371793Y-73729893D01*
X145389517Y-73713829D01*
X145408730Y-73699579D01*
X145429247Y-73687282D01*
X145450871Y-73677054D01*
X145473393Y-73668996D01*
X145496597Y-73663184D01*
X145520258Y-73659674D01*
X145544150Y-73658500D01*
X146031650Y-73658500D01*
X146055542Y-73659674D01*
G37*
G36*
X147930542Y-73659674D02*
G01*
X147954203Y-73663184D01*
X147977407Y-73668996D01*
X147999929Y-73677054D01*
X148021553Y-73687282D01*
X148042070Y-73699579D01*
X148061283Y-73713829D01*
X148079007Y-73729893D01*
X148095071Y-73747617D01*
X148109321Y-73766830D01*
X148121618Y-73787347D01*
X148131846Y-73808971D01*
X148139904Y-73831493D01*
X148145716Y-73854697D01*
X148149226Y-73878358D01*
X148150400Y-73902250D01*
X148150400Y-74814750D01*
X148149226Y-74838642D01*
X148145716Y-74862303D01*
X148139904Y-74885507D01*
X148131846Y-74908029D01*
X148121618Y-74929653D01*
X148109321Y-74950170D01*
X148095071Y-74969383D01*
X148079007Y-74987107D01*
X148061283Y-75003171D01*
X148042070Y-75017421D01*
X148021553Y-75029718D01*
X147999929Y-75039946D01*
X147977407Y-75048004D01*
X147954203Y-75053816D01*
X147930542Y-75057326D01*
X147906650Y-75058500D01*
X147419150Y-75058500D01*
X147395258Y-75057326D01*
X147371597Y-75053816D01*
X147348393Y-75048004D01*
X147325871Y-75039946D01*
X147304247Y-75029718D01*
X147283730Y-75017421D01*
X147264517Y-75003171D01*
X147246793Y-74987107D01*
X147230729Y-74969383D01*
X147216479Y-74950170D01*
X147204182Y-74929653D01*
X147193954Y-74908029D01*
X147185896Y-74885507D01*
X147180084Y-74862303D01*
X147176574Y-74838642D01*
X147175400Y-74814750D01*
X147175400Y-73902250D01*
X147176574Y-73878358D01*
X147180084Y-73854697D01*
X147185896Y-73831493D01*
X147193954Y-73808971D01*
X147204182Y-73787347D01*
X147216479Y-73766830D01*
X147230729Y-73747617D01*
X147246793Y-73729893D01*
X147264517Y-73713829D01*
X147283730Y-73699579D01*
X147304247Y-73687282D01*
X147325871Y-73677054D01*
X147348393Y-73668996D01*
X147371597Y-73663184D01*
X147395258Y-73659674D01*
X147419150Y-73658500D01*
X147906650Y-73658500D01*
X147930542Y-73659674D01*
G37*
M02*
