M48
;DRILL file {KiCad 4.0.6} date 07/30/17 19:43:25
;FORMAT={-:-/ absolute / inch / decimal}
FMAT,2
INCH,TZ
T1C0.016
T2C0.024
T3C0.033
T4C0.059
%
G90
G05
M72
T1
X6.0977Y-2.738
T2
X6.067Y-3.259
X6.257Y-3.259
T3
X5.6819Y-3.1636
X5.7819Y-3.1636
X5.907Y-3.033
X6.007Y-3.033
X6.107Y-3.033
X6.207Y-3.033
T4
X5.5615Y-2.5711
X5.5615Y-2.6711
X5.5615Y-2.7711
X5.5615Y-2.8711
X5.5615Y-2.9711
X5.5615Y-3.0711
X5.5615Y-3.1711
X5.5615Y-3.2711
X5.5615Y-3.3711
X5.5615Y-3.4711
X5.6615Y-2.5711
X5.7615Y-2.5711
X5.8615Y-2.5711
X5.9615Y-2.5711
X6.0615Y-2.5711
X6.1615Y-2.5711
X6.2615Y-2.5711
X6.3615Y-2.5711
X6.3615Y-2.6711
X6.3615Y-2.7711
X6.3615Y-2.8711
X6.3615Y-2.9711
X6.3615Y-3.0711
X6.3615Y-3.1711
X6.3615Y-3.2711
X6.3615Y-3.3711
X6.3615Y-3.4711
T0
M30
