G04 #@! TF.GenerationSoftware,KiCad,Pcbnew,(5.1.5)-3*
G04 #@! TF.CreationDate,2020-11-20T22:13:14+01:00*
G04 #@! TF.ProjectId,Microduino_Base_DE,4d696372-6f64-4756-996e-6f5f42617365,0.0*
G04 #@! TF.SameCoordinates,Original*
G04 #@! TF.FileFunction,Soldermask,Bot*
G04 #@! TF.FilePolarity,Negative*
%FSLAX46Y46*%
G04 Gerber Fmt 4.6, Leading zero omitted, Abs format (unit mm)*
G04 Created by KiCad (PCBNEW (5.1.5)-3) date 2020-11-20 22:13:14*
%MOMM*%
%LPD*%
G04 APERTURE LIST*
%ADD10R,1.900000X1.900000*%
%ADD11O,1.900000X1.900000*%
%ADD12R,2.100000X2.100000*%
%ADD13C,2.100000*%
%ADD14R,1.370000X1.670000*%
%ADD15C,2.500000*%
%ADD16C,0.100000*%
G04 APERTURE END LIST*
D10*
X146861000Y-80355000D03*
D11*
X144321000Y-80355000D03*
D12*
X150037800Y-77038200D03*
D13*
X152577800Y-77038200D03*
X155117800Y-77038200D03*
X157657800Y-77038200D03*
D14*
X152654000Y-84772500D03*
X153924000Y-84772500D03*
X155194000Y-84772500D03*
X153924000Y-83222500D03*
D15*
X161581000Y-67845000D03*
X161581000Y-70385000D03*
X161581000Y-72925000D03*
X161581000Y-75465000D03*
X161581000Y-78005000D03*
X161581000Y-80545000D03*
X161581000Y-83085000D03*
X161581000Y-85625000D03*
X161581000Y-88165000D03*
X161581000Y-65305000D03*
X159041000Y-65305000D03*
X156501000Y-65305000D03*
X153961000Y-65305000D03*
X151421000Y-65305000D03*
X148881000Y-65305000D03*
X146341000Y-65305000D03*
X143801000Y-65305000D03*
X141261000Y-65305000D03*
X141261000Y-67845000D03*
X141261000Y-70385000D03*
X141261000Y-72925000D03*
X141261000Y-75465000D03*
X141261000Y-78005000D03*
X141261000Y-80545000D03*
X141261000Y-83085000D03*
X141261000Y-85625000D03*
X141261000Y-88165000D03*
D16*
G36*
X146165343Y-73460155D02*
G01*
X146198712Y-73465105D01*
X146231435Y-73473302D01*
X146263197Y-73484666D01*
X146293693Y-73499090D01*
X146322627Y-73516432D01*
X146349723Y-73536528D01*
X146374718Y-73559182D01*
X146397372Y-73584177D01*
X146417468Y-73611273D01*
X146434810Y-73640207D01*
X146449234Y-73670703D01*
X146460598Y-73702465D01*
X146468795Y-73735188D01*
X146473745Y-73768557D01*
X146475400Y-73802250D01*
X146475400Y-74914750D01*
X146473745Y-74948443D01*
X146468795Y-74981812D01*
X146460598Y-75014535D01*
X146449234Y-75046297D01*
X146434810Y-75076793D01*
X146417468Y-75105727D01*
X146397372Y-75132823D01*
X146374718Y-75157818D01*
X146349723Y-75180472D01*
X146322627Y-75200568D01*
X146293693Y-75217910D01*
X146263197Y-75232334D01*
X146231435Y-75243698D01*
X146198712Y-75251895D01*
X146165343Y-75256845D01*
X146131650Y-75258500D01*
X145444150Y-75258500D01*
X145410457Y-75256845D01*
X145377088Y-75251895D01*
X145344365Y-75243698D01*
X145312603Y-75232334D01*
X145282107Y-75217910D01*
X145253173Y-75200568D01*
X145226077Y-75180472D01*
X145201082Y-75157818D01*
X145178428Y-75132823D01*
X145158332Y-75105727D01*
X145140990Y-75076793D01*
X145126566Y-75046297D01*
X145115202Y-75014535D01*
X145107005Y-74981812D01*
X145102055Y-74948443D01*
X145100400Y-74914750D01*
X145100400Y-73802250D01*
X145102055Y-73768557D01*
X145107005Y-73735188D01*
X145115202Y-73702465D01*
X145126566Y-73670703D01*
X145140990Y-73640207D01*
X145158332Y-73611273D01*
X145178428Y-73584177D01*
X145201082Y-73559182D01*
X145226077Y-73536528D01*
X145253173Y-73516432D01*
X145282107Y-73499090D01*
X145312603Y-73484666D01*
X145344365Y-73473302D01*
X145377088Y-73465105D01*
X145410457Y-73460155D01*
X145444150Y-73458500D01*
X146131650Y-73458500D01*
X146165343Y-73460155D01*
G37*
G36*
X148040343Y-73460155D02*
G01*
X148073712Y-73465105D01*
X148106435Y-73473302D01*
X148138197Y-73484666D01*
X148168693Y-73499090D01*
X148197627Y-73516432D01*
X148224723Y-73536528D01*
X148249718Y-73559182D01*
X148272372Y-73584177D01*
X148292468Y-73611273D01*
X148309810Y-73640207D01*
X148324234Y-73670703D01*
X148335598Y-73702465D01*
X148343795Y-73735188D01*
X148348745Y-73768557D01*
X148350400Y-73802250D01*
X148350400Y-74914750D01*
X148348745Y-74948443D01*
X148343795Y-74981812D01*
X148335598Y-75014535D01*
X148324234Y-75046297D01*
X148309810Y-75076793D01*
X148292468Y-75105727D01*
X148272372Y-75132823D01*
X148249718Y-75157818D01*
X148224723Y-75180472D01*
X148197627Y-75200568D01*
X148168693Y-75217910D01*
X148138197Y-75232334D01*
X148106435Y-75243698D01*
X148073712Y-75251895D01*
X148040343Y-75256845D01*
X148006650Y-75258500D01*
X147319150Y-75258500D01*
X147285457Y-75256845D01*
X147252088Y-75251895D01*
X147219365Y-75243698D01*
X147187603Y-75232334D01*
X147157107Y-75217910D01*
X147128173Y-75200568D01*
X147101077Y-75180472D01*
X147076082Y-75157818D01*
X147053428Y-75132823D01*
X147033332Y-75105727D01*
X147015990Y-75076793D01*
X147001566Y-75046297D01*
X146990202Y-75014535D01*
X146982005Y-74981812D01*
X146977055Y-74948443D01*
X146975400Y-74914750D01*
X146975400Y-73802250D01*
X146977055Y-73768557D01*
X146982005Y-73735188D01*
X146990202Y-73702465D01*
X147001566Y-73670703D01*
X147015990Y-73640207D01*
X147033332Y-73611273D01*
X147053428Y-73584177D01*
X147076082Y-73559182D01*
X147101077Y-73536528D01*
X147128173Y-73516432D01*
X147157107Y-73499090D01*
X147187603Y-73484666D01*
X147219365Y-73473302D01*
X147252088Y-73465105D01*
X147285457Y-73460155D01*
X147319150Y-73458500D01*
X148006650Y-73458500D01*
X148040343Y-73460155D01*
G37*
M02*
