G04 #@! TF.GenerationSoftware,KiCad,Pcbnew,(5.1.5)-3*
G04 #@! TF.CreationDate,2020-11-20T22:13:13+01:00*
G04 #@! TF.ProjectId,Microduino_Base_DE,4d696372-6f64-4756-996e-6f5f42617365,0.0*
G04 #@! TF.SameCoordinates,Original*
G04 #@! TF.FileFunction,Legend,Bot*
G04 #@! TF.FilePolarity,Positive*
%FSLAX46Y46*%
G04 Gerber Fmt 4.6, Leading zero omitted, Abs format (unit mm)*
G04 Created by KiCad (PCBNEW (5.1.5)-3) date 2020-11-20 22:13:13*
%MOMM*%
%LPD*%
G04 APERTURE LIST*
%ADD10C,0.250000*%
%ADD11C,0.300000*%
%ADD12C,0.120000*%
%ADD13C,0.150000*%
G04 APERTURE END LIST*
D10*
X153825285Y-71423228D02*
X153568142Y-71508942D01*
X153482428Y-71594657D01*
X153396714Y-71766085D01*
X153396714Y-72023228D01*
X153482428Y-72194657D01*
X153568142Y-72280371D01*
X153739571Y-72366085D01*
X154425285Y-72366085D01*
X154425285Y-70566085D01*
X153825285Y-70566085D01*
X153653857Y-70651800D01*
X153568142Y-70737514D01*
X153482428Y-70908942D01*
X153482428Y-71080371D01*
X153568142Y-71251800D01*
X153653857Y-71337514D01*
X153825285Y-71423228D01*
X154425285Y-71423228D01*
X152711000Y-71851800D02*
X151853857Y-71851800D01*
X152882428Y-72366085D02*
X152282428Y-70566085D01*
X151682428Y-72366085D01*
X151168142Y-72280371D02*
X150911000Y-72366085D01*
X150482428Y-72366085D01*
X150311000Y-72280371D01*
X150225285Y-72194657D01*
X150139571Y-72023228D01*
X150139571Y-71851800D01*
X150225285Y-71680371D01*
X150311000Y-71594657D01*
X150482428Y-71508942D01*
X150825285Y-71423228D01*
X150996714Y-71337514D01*
X151082428Y-71251800D01*
X151168142Y-71080371D01*
X151168142Y-70908942D01*
X151082428Y-70737514D01*
X150996714Y-70651800D01*
X150825285Y-70566085D01*
X150396714Y-70566085D01*
X150139571Y-70651800D01*
X149368142Y-71423228D02*
X148768142Y-71423228D01*
X148511000Y-72366085D02*
X149368142Y-72366085D01*
X149368142Y-70566085D01*
X148511000Y-70566085D01*
D11*
X155031142Y-81704571D02*
X155031142Y-80204571D01*
X154674000Y-80204571D01*
X154459714Y-80276000D01*
X154316857Y-80418857D01*
X154245428Y-80561714D01*
X154174000Y-80847428D01*
X154174000Y-81061714D01*
X154245428Y-81347428D01*
X154316857Y-81490285D01*
X154459714Y-81633142D01*
X154674000Y-81704571D01*
X155031142Y-81704571D01*
X153459714Y-81704571D02*
X153174000Y-81704571D01*
X153031142Y-81633142D01*
X152959714Y-81561714D01*
X152816857Y-81347428D01*
X152745428Y-81061714D01*
X152745428Y-80490285D01*
X152816857Y-80347428D01*
X152888285Y-80276000D01*
X153031142Y-80204571D01*
X153316857Y-80204571D01*
X153459714Y-80276000D01*
X153531142Y-80347428D01*
X153602571Y-80490285D01*
X153602571Y-80847428D01*
X153531142Y-80990285D01*
X153459714Y-81061714D01*
X153316857Y-81133142D01*
X153031142Y-81133142D01*
X152888285Y-81061714D01*
X152816857Y-80990285D01*
X152745428Y-80847428D01*
X156417271Y-82915357D02*
X156417271Y-83843928D01*
X156988700Y-83343928D01*
X156988700Y-83558214D01*
X157060128Y-83701071D01*
X157131557Y-83772500D01*
X157274414Y-83843928D01*
X157631557Y-83843928D01*
X157774414Y-83772500D01*
X157845842Y-83701071D01*
X157917271Y-83558214D01*
X157917271Y-83129642D01*
X157845842Y-82986785D01*
X157774414Y-82915357D01*
X156417271Y-84272500D02*
X157917271Y-84772500D01*
X156417271Y-85272500D01*
X156417271Y-85629642D02*
X156417271Y-86558214D01*
X156988700Y-86058214D01*
X156988700Y-86272500D01*
X157060128Y-86415357D01*
X157131557Y-86486785D01*
X157274414Y-86558214D01*
X157631557Y-86558214D01*
X157774414Y-86486785D01*
X157845842Y-86415357D01*
X157917271Y-86272500D01*
X157917271Y-85843928D01*
X157845842Y-85701071D01*
X157774414Y-85629642D01*
X149876771Y-84626485D02*
X149876771Y-83912200D01*
X150591057Y-83840771D01*
X150519628Y-83912200D01*
X150448200Y-84055057D01*
X150448200Y-84412200D01*
X150519628Y-84555057D01*
X150591057Y-84626485D01*
X150733914Y-84697914D01*
X151091057Y-84697914D01*
X151233914Y-84626485D01*
X151305342Y-84555057D01*
X151376771Y-84412200D01*
X151376771Y-84055057D01*
X151305342Y-83912200D01*
X151233914Y-83840771D01*
X149876771Y-85126485D02*
X151376771Y-85626485D01*
X149876771Y-86126485D01*
D12*
X152014000Y-83882500D02*
X152014000Y-82352500D01*
X155834000Y-83882500D02*
X155834000Y-82352500D01*
X152014000Y-82352500D02*
X155834000Y-82352500D01*
X155834000Y-83882500D02*
X155834000Y-85662500D01*
X155834000Y-85662500D02*
X152014000Y-85662500D01*
X152014000Y-83882500D02*
X152014000Y-85662500D01*
D13*
X145181000Y-69265000D02*
X144081000Y-68165000D01*
X145181000Y-69265000D02*
X145181000Y-71065000D01*
X158781000Y-67965000D02*
X157781000Y-68965000D01*
X157781000Y-68965000D02*
X157781000Y-71765000D01*
D12*
X139931000Y-89495000D02*
X139931000Y-63975000D01*
X139931000Y-63975000D02*
X162911000Y-63975000D01*
X162911000Y-89495000D02*
X162911000Y-63975000D01*
X160251000Y-89495000D02*
X160251000Y-66635000D01*
X160251000Y-66635000D02*
X142591000Y-66635000D01*
X142591000Y-89495000D02*
X142591000Y-66635000D01*
X142591000Y-89495000D02*
X142591000Y-82685000D01*
X162911000Y-89495000D02*
X160251000Y-89495000D01*
X139931000Y-89495000D02*
X142591000Y-89495000D01*
X162911000Y-67845000D02*
X162911000Y-66515000D01*
X146466822Y-75068500D02*
X146983978Y-75068500D01*
X146466822Y-73648500D02*
X146983978Y-73648500D01*
D13*
X154601776Y-87218900D02*
X154697014Y-87171280D01*
X154839871Y-87171280D01*
X154982728Y-87218900D01*
X155077966Y-87314138D01*
X155125585Y-87409376D01*
X155173204Y-87599852D01*
X155173204Y-87742709D01*
X155125585Y-87933185D01*
X155077966Y-88028423D01*
X154982728Y-88123661D01*
X154839871Y-88171280D01*
X154744633Y-88171280D01*
X154601776Y-88123661D01*
X154554157Y-88076042D01*
X154554157Y-87742709D01*
X154744633Y-87742709D01*
X154173204Y-88123661D02*
X154030347Y-88171280D01*
X153792252Y-88171280D01*
X153697014Y-88123661D01*
X153649395Y-88076042D01*
X153601776Y-87980804D01*
X153601776Y-87885566D01*
X153649395Y-87790328D01*
X153697014Y-87742709D01*
X153792252Y-87695090D01*
X153982728Y-87647471D01*
X154077966Y-87599852D01*
X154125585Y-87552233D01*
X154173204Y-87456995D01*
X154173204Y-87361757D01*
X154125585Y-87266519D01*
X154077966Y-87218900D01*
X153982728Y-87171280D01*
X153744633Y-87171280D01*
X153601776Y-87218900D01*
X152649395Y-88171280D02*
X153220823Y-88171280D01*
X152935109Y-88171280D02*
X152935109Y-87171280D01*
X153030347Y-87314138D01*
X153125585Y-87409376D01*
X153220823Y-87456995D01*
X159839095Y-90287380D02*
X159839095Y-89287380D01*
X159458142Y-89287380D01*
X159362904Y-89335000D01*
X159315285Y-89382619D01*
X159267666Y-89477857D01*
X159267666Y-89620714D01*
X159315285Y-89715952D01*
X159362904Y-89763571D01*
X159458142Y-89811190D01*
X159839095Y-89811190D01*
X158886714Y-89382619D02*
X158839095Y-89335000D01*
X158743857Y-89287380D01*
X158505761Y-89287380D01*
X158410523Y-89335000D01*
X158362904Y-89382619D01*
X158315285Y-89477857D01*
X158315285Y-89573095D01*
X158362904Y-89715952D01*
X158934333Y-90287380D01*
X158315285Y-90287380D01*
X145914333Y-69793571D02*
X145914333Y-70174523D01*
X146142904Y-69717380D02*
X145342904Y-69984047D01*
X146142904Y-70250714D01*
X145342904Y-70441190D02*
X145342904Y-70974523D01*
X146142904Y-70631666D01*
X157214333Y-69069761D02*
X157214333Y-69450714D01*
X157442904Y-68993571D02*
X156642904Y-69260238D01*
X157442904Y-69526904D01*
X157442904Y-70250714D02*
X157061952Y-69984047D01*
X157442904Y-69793571D02*
X156642904Y-69793571D01*
X156642904Y-70098333D01*
X156681000Y-70174523D01*
X156719095Y-70212619D01*
X156795285Y-70250714D01*
X156909571Y-70250714D01*
X156985761Y-70212619D01*
X157023857Y-70174523D01*
X157061952Y-70098333D01*
X157061952Y-69793571D01*
X157023857Y-70593571D02*
X157023857Y-70860238D01*
X157442904Y-70974523D02*
X157442904Y-70593571D01*
X156642904Y-70593571D01*
X156642904Y-70974523D01*
X157023857Y-71584047D02*
X157023857Y-71317380D01*
X157442904Y-71317380D02*
X156642904Y-71317380D01*
X156642904Y-71698333D01*
X142981000Y-87555476D02*
X142942904Y-87479285D01*
X142942904Y-87365000D01*
X142981000Y-87250714D01*
X143057190Y-87174523D01*
X143133380Y-87136428D01*
X143285761Y-87098333D01*
X143400047Y-87098333D01*
X143552428Y-87136428D01*
X143628619Y-87174523D01*
X143704809Y-87250714D01*
X143742904Y-87365000D01*
X143742904Y-87441190D01*
X143704809Y-87555476D01*
X143666714Y-87593571D01*
X143400047Y-87593571D01*
X143400047Y-87441190D01*
X143742904Y-87936428D02*
X142942904Y-87936428D01*
X143742904Y-88393571D01*
X142942904Y-88393571D01*
X143742904Y-88774523D02*
X142942904Y-88774523D01*
X142942904Y-88965000D01*
X142981000Y-89079285D01*
X143057190Y-89155476D01*
X143133380Y-89193571D01*
X143285761Y-89231666D01*
X143400047Y-89231666D01*
X143552428Y-89193571D01*
X143628619Y-89155476D01*
X143704809Y-89079285D01*
X143742904Y-88965000D01*
X143742904Y-88774523D01*
X143742904Y-85226904D02*
X143361952Y-84960238D01*
X143742904Y-84769761D02*
X142942904Y-84769761D01*
X142942904Y-85074523D01*
X142981000Y-85150714D01*
X143019095Y-85188809D01*
X143095285Y-85226904D01*
X143209571Y-85226904D01*
X143285761Y-85188809D01*
X143323857Y-85150714D01*
X143361952Y-85074523D01*
X143361952Y-84769761D01*
X143704809Y-85531666D02*
X143742904Y-85645952D01*
X143742904Y-85836428D01*
X143704809Y-85912619D01*
X143666714Y-85950714D01*
X143590523Y-85988809D01*
X143514333Y-85988809D01*
X143438142Y-85950714D01*
X143400047Y-85912619D01*
X143361952Y-85836428D01*
X143323857Y-85684047D01*
X143285761Y-85607857D01*
X143247666Y-85569761D01*
X143171476Y-85531666D01*
X143095285Y-85531666D01*
X143019095Y-85569761D01*
X142981000Y-85607857D01*
X142942904Y-85684047D01*
X142942904Y-85874523D01*
X142981000Y-85988809D01*
X142942904Y-86217380D02*
X142942904Y-86674523D01*
X143742904Y-86445952D02*
X142942904Y-86445952D01*
X143742904Y-82474523D02*
X142942904Y-82474523D01*
X142942904Y-82665000D01*
X142981000Y-82779285D01*
X143057190Y-82855476D01*
X143133380Y-82893571D01*
X143285761Y-82931666D01*
X143400047Y-82931666D01*
X143552428Y-82893571D01*
X143628619Y-82855476D01*
X143704809Y-82779285D01*
X143742904Y-82665000D01*
X143742904Y-82474523D01*
X142942904Y-83617380D02*
X142942904Y-83465000D01*
X142981000Y-83388809D01*
X143019095Y-83350714D01*
X143133380Y-83274523D01*
X143285761Y-83236428D01*
X143590523Y-83236428D01*
X143666714Y-83274523D01*
X143704809Y-83312619D01*
X143742904Y-83388809D01*
X143742904Y-83541190D01*
X143704809Y-83617380D01*
X143666714Y-83655476D01*
X143590523Y-83693571D01*
X143400047Y-83693571D01*
X143323857Y-83655476D01*
X143285761Y-83617380D01*
X143247666Y-83541190D01*
X143247666Y-83388809D01*
X143285761Y-83312619D01*
X143323857Y-83274523D01*
X143400047Y-83236428D01*
X143742904Y-79974523D02*
X142942904Y-79974523D01*
X142942904Y-80165000D01*
X142981000Y-80279285D01*
X143057190Y-80355476D01*
X143133380Y-80393571D01*
X143285761Y-80431666D01*
X143400047Y-80431666D01*
X143552428Y-80393571D01*
X143628619Y-80355476D01*
X143704809Y-80279285D01*
X143742904Y-80165000D01*
X143742904Y-79974523D01*
X142942904Y-81155476D02*
X142942904Y-80774523D01*
X143323857Y-80736428D01*
X143285761Y-80774523D01*
X143247666Y-80850714D01*
X143247666Y-81041190D01*
X143285761Y-81117380D01*
X143323857Y-81155476D01*
X143400047Y-81193571D01*
X143590523Y-81193571D01*
X143666714Y-81155476D01*
X143704809Y-81117380D01*
X143742904Y-81041190D01*
X143742904Y-80850714D01*
X143704809Y-80774523D01*
X143666714Y-80736428D01*
X143742904Y-77374523D02*
X142942904Y-77374523D01*
X142942904Y-77565000D01*
X142981000Y-77679285D01*
X143057190Y-77755476D01*
X143133380Y-77793571D01*
X143285761Y-77831666D01*
X143400047Y-77831666D01*
X143552428Y-77793571D01*
X143628619Y-77755476D01*
X143704809Y-77679285D01*
X143742904Y-77565000D01*
X143742904Y-77374523D01*
X143209571Y-78517380D02*
X143742904Y-78517380D01*
X142904809Y-78326904D02*
X143476238Y-78136428D01*
X143476238Y-78631666D01*
X143742904Y-74874523D02*
X142942904Y-74874523D01*
X142942904Y-75065000D01*
X142981000Y-75179285D01*
X143057190Y-75255476D01*
X143133380Y-75293571D01*
X143285761Y-75331666D01*
X143400047Y-75331666D01*
X143552428Y-75293571D01*
X143628619Y-75255476D01*
X143704809Y-75179285D01*
X143742904Y-75065000D01*
X143742904Y-74874523D01*
X142942904Y-75598333D02*
X142942904Y-76093571D01*
X143247666Y-75826904D01*
X143247666Y-75941190D01*
X143285761Y-76017380D01*
X143323857Y-76055476D01*
X143400047Y-76093571D01*
X143590523Y-76093571D01*
X143666714Y-76055476D01*
X143704809Y-76017380D01*
X143742904Y-75941190D01*
X143742904Y-75712619D01*
X143704809Y-75636428D01*
X143666714Y-75598333D01*
X143742904Y-72374523D02*
X142942904Y-72374523D01*
X142942904Y-72565000D01*
X142981000Y-72679285D01*
X143057190Y-72755476D01*
X143133380Y-72793571D01*
X143285761Y-72831666D01*
X143400047Y-72831666D01*
X143552428Y-72793571D01*
X143628619Y-72755476D01*
X143704809Y-72679285D01*
X143742904Y-72565000D01*
X143742904Y-72374523D01*
X143019095Y-73136428D02*
X142981000Y-73174523D01*
X142942904Y-73250714D01*
X142942904Y-73441190D01*
X142981000Y-73517380D01*
X143019095Y-73555476D01*
X143095285Y-73593571D01*
X143171476Y-73593571D01*
X143285761Y-73555476D01*
X143742904Y-73098333D01*
X143742904Y-73593571D01*
X142942904Y-69374523D02*
X142942904Y-69831666D01*
X143742904Y-69603095D02*
X142942904Y-69603095D01*
X142942904Y-70022142D02*
X143742904Y-70555476D01*
X142942904Y-70555476D02*
X143742904Y-70022142D01*
X142942904Y-71012619D02*
X142942904Y-71088809D01*
X142981000Y-71165000D01*
X143019095Y-71203095D01*
X143095285Y-71241190D01*
X143247666Y-71279285D01*
X143438142Y-71279285D01*
X143590523Y-71241190D01*
X143666714Y-71203095D01*
X143704809Y-71165000D01*
X143742904Y-71088809D01*
X143742904Y-71012619D01*
X143704809Y-70936428D01*
X143666714Y-70898333D01*
X143590523Y-70860238D01*
X143438142Y-70822142D01*
X143247666Y-70822142D01*
X143095285Y-70860238D01*
X143019095Y-70898333D01*
X142981000Y-70936428D01*
X142942904Y-71012619D01*
X143742904Y-67350714D02*
X143361952Y-67084047D01*
X143742904Y-66893571D02*
X142942904Y-66893571D01*
X142942904Y-67198333D01*
X142981000Y-67274523D01*
X143019095Y-67312619D01*
X143095285Y-67350714D01*
X143209571Y-67350714D01*
X143285761Y-67312619D01*
X143323857Y-67274523D01*
X143361952Y-67198333D01*
X143361952Y-66893571D01*
X142942904Y-67617380D02*
X143742904Y-68150714D01*
X142942904Y-68150714D02*
X143742904Y-67617380D01*
X142942904Y-68607857D02*
X142942904Y-68684047D01*
X142981000Y-68760238D01*
X143019095Y-68798333D01*
X143095285Y-68836428D01*
X143247666Y-68874523D01*
X143438142Y-68874523D01*
X143590523Y-68836428D01*
X143666714Y-68798333D01*
X143704809Y-68760238D01*
X143742904Y-68684047D01*
X143742904Y-68607857D01*
X143704809Y-68531666D01*
X143666714Y-68493571D01*
X143590523Y-68455476D01*
X143438142Y-68417380D01*
X143247666Y-68417380D01*
X143095285Y-68455476D01*
X143019095Y-68493571D01*
X142981000Y-68531666D01*
X142942904Y-68607857D01*
X145214333Y-67093571D02*
X145214333Y-67474523D01*
X145442904Y-67017380D02*
X144642904Y-67284047D01*
X145442904Y-67550714D01*
X144642904Y-68160238D02*
X144642904Y-68007857D01*
X144681000Y-67931666D01*
X144719095Y-67893571D01*
X144833380Y-67817380D01*
X144985761Y-67779285D01*
X145290523Y-67779285D01*
X145366714Y-67817380D01*
X145404809Y-67855476D01*
X145442904Y-67931666D01*
X145442904Y-68084047D01*
X145404809Y-68160238D01*
X145366714Y-68198333D01*
X145290523Y-68236428D01*
X145100047Y-68236428D01*
X145023857Y-68198333D01*
X144985761Y-68160238D01*
X144947666Y-68084047D01*
X144947666Y-67931666D01*
X144985761Y-67855476D01*
X145023857Y-67817380D01*
X145100047Y-67779285D01*
X146704809Y-67112619D02*
X146742904Y-67226904D01*
X146742904Y-67417380D01*
X146704809Y-67493571D01*
X146666714Y-67531666D01*
X146590523Y-67569761D01*
X146514333Y-67569761D01*
X146438142Y-67531666D01*
X146400047Y-67493571D01*
X146361952Y-67417380D01*
X146323857Y-67265000D01*
X146285761Y-67188809D01*
X146247666Y-67150714D01*
X146171476Y-67112619D01*
X146095285Y-67112619D01*
X146019095Y-67150714D01*
X145981000Y-67188809D01*
X145942904Y-67265000D01*
X145942904Y-67455476D01*
X145981000Y-67569761D01*
X146666714Y-68369761D02*
X146704809Y-68331666D01*
X146742904Y-68217380D01*
X146742904Y-68141190D01*
X146704809Y-68026904D01*
X146628619Y-67950714D01*
X146552428Y-67912619D01*
X146400047Y-67874523D01*
X146285761Y-67874523D01*
X146133380Y-67912619D01*
X146057190Y-67950714D01*
X145981000Y-68026904D01*
X145942904Y-68141190D01*
X145942904Y-68217380D01*
X145981000Y-68331666D01*
X146019095Y-68369761D01*
X146742904Y-69093571D02*
X146742904Y-68712619D01*
X145942904Y-68712619D01*
X149204809Y-67093571D02*
X149242904Y-67207857D01*
X149242904Y-67398333D01*
X149204809Y-67474523D01*
X149166714Y-67512619D01*
X149090523Y-67550714D01*
X149014333Y-67550714D01*
X148938142Y-67512619D01*
X148900047Y-67474523D01*
X148861952Y-67398333D01*
X148823857Y-67245952D01*
X148785761Y-67169761D01*
X148747666Y-67131666D01*
X148671476Y-67093571D01*
X148595285Y-67093571D01*
X148519095Y-67131666D01*
X148481000Y-67169761D01*
X148442904Y-67245952D01*
X148442904Y-67436428D01*
X148481000Y-67550714D01*
X149242904Y-67893571D02*
X148442904Y-67893571D01*
X148442904Y-68084047D01*
X148481000Y-68198333D01*
X148557190Y-68274523D01*
X148633380Y-68312619D01*
X148785761Y-68350714D01*
X148900047Y-68350714D01*
X149052428Y-68312619D01*
X149128619Y-68274523D01*
X149204809Y-68198333D01*
X149242904Y-68084047D01*
X149242904Y-67893571D01*
X149014333Y-68655476D02*
X149014333Y-69036428D01*
X149242904Y-68579285D02*
X148442904Y-68845952D01*
X149242904Y-69112619D01*
X151514333Y-67093571D02*
X151514333Y-67474523D01*
X151742904Y-67017380D02*
X150942904Y-67284047D01*
X151742904Y-67550714D01*
X150942904Y-67741190D02*
X150942904Y-68236428D01*
X151247666Y-67969761D01*
X151247666Y-68084047D01*
X151285761Y-68160238D01*
X151323857Y-68198333D01*
X151400047Y-68236428D01*
X151590523Y-68236428D01*
X151666714Y-68198333D01*
X151704809Y-68160238D01*
X151742904Y-68084047D01*
X151742904Y-67855476D01*
X151704809Y-67779285D01*
X151666714Y-67741190D01*
X154114333Y-67093571D02*
X154114333Y-67474523D01*
X154342904Y-67017380D02*
X153542904Y-67284047D01*
X154342904Y-67550714D01*
X153619095Y-67779285D02*
X153581000Y-67817380D01*
X153542904Y-67893571D01*
X153542904Y-68084047D01*
X153581000Y-68160238D01*
X153619095Y-68198333D01*
X153695285Y-68236428D01*
X153771476Y-68236428D01*
X153885761Y-68198333D01*
X154342904Y-67741190D01*
X154342904Y-68236428D01*
X156614333Y-67093571D02*
X156614333Y-67474523D01*
X156842904Y-67017380D02*
X156042904Y-67284047D01*
X156842904Y-67550714D01*
X156842904Y-68236428D02*
X156842904Y-67779285D01*
X156842904Y-68007857D02*
X156042904Y-68007857D01*
X156157190Y-67931666D01*
X156233380Y-67855476D01*
X156271476Y-67779285D01*
X157914333Y-67093571D02*
X157914333Y-67474523D01*
X158142904Y-67017380D02*
X157342904Y-67284047D01*
X158142904Y-67550714D01*
X157342904Y-67969761D02*
X157342904Y-68045952D01*
X157381000Y-68122142D01*
X157419095Y-68160238D01*
X157495285Y-68198333D01*
X157647666Y-68236428D01*
X157838142Y-68236428D01*
X157990523Y-68198333D01*
X158066714Y-68160238D01*
X158104809Y-68122142D01*
X158142904Y-68045952D01*
X158142904Y-67969761D01*
X158104809Y-67893571D01*
X158066714Y-67855476D01*
X157990523Y-67817380D01*
X157838142Y-67779285D01*
X157647666Y-67779285D01*
X157495285Y-67817380D01*
X157419095Y-67855476D01*
X157381000Y-67893571D01*
X157342904Y-67969761D01*
X159742904Y-66893571D02*
X158942904Y-66893571D01*
X158942904Y-67084047D01*
X158981000Y-67198333D01*
X159057190Y-67274523D01*
X159133380Y-67312619D01*
X159285761Y-67350714D01*
X159400047Y-67350714D01*
X159552428Y-67312619D01*
X159628619Y-67274523D01*
X159704809Y-67198333D01*
X159742904Y-67084047D01*
X159742904Y-66893571D01*
X159742904Y-68112619D02*
X159742904Y-67655476D01*
X159742904Y-67884047D02*
X158942904Y-67884047D01*
X159057190Y-67807857D01*
X159133380Y-67731666D01*
X159171476Y-67655476D01*
X158942904Y-68379285D02*
X158942904Y-68874523D01*
X159247666Y-68607857D01*
X159247666Y-68722142D01*
X159285761Y-68798333D01*
X159323857Y-68836428D01*
X159400047Y-68874523D01*
X159590523Y-68874523D01*
X159666714Y-68836428D01*
X159704809Y-68798333D01*
X159742904Y-68722142D01*
X159742904Y-68493571D01*
X159704809Y-68417380D01*
X159666714Y-68379285D01*
X159742904Y-69393571D02*
X158942904Y-69393571D01*
X158942904Y-69584047D01*
X158981000Y-69698333D01*
X159057190Y-69774523D01*
X159133380Y-69812619D01*
X159285761Y-69850714D01*
X159400047Y-69850714D01*
X159552428Y-69812619D01*
X159628619Y-69774523D01*
X159704809Y-69698333D01*
X159742904Y-69584047D01*
X159742904Y-69393571D01*
X159742904Y-70612619D02*
X159742904Y-70155476D01*
X159742904Y-70384047D02*
X158942904Y-70384047D01*
X159057190Y-70307857D01*
X159133380Y-70231666D01*
X159171476Y-70155476D01*
X159019095Y-70917380D02*
X158981000Y-70955476D01*
X158942904Y-71031666D01*
X158942904Y-71222142D01*
X158981000Y-71298333D01*
X159019095Y-71336428D01*
X159095285Y-71374523D01*
X159171476Y-71374523D01*
X159285761Y-71336428D01*
X159742904Y-70879285D01*
X159742904Y-71374523D01*
X159742904Y-71993571D02*
X158942904Y-71993571D01*
X158942904Y-72184047D01*
X158981000Y-72298333D01*
X159057190Y-72374523D01*
X159133380Y-72412619D01*
X159285761Y-72450714D01*
X159400047Y-72450714D01*
X159552428Y-72412619D01*
X159628619Y-72374523D01*
X159704809Y-72298333D01*
X159742904Y-72184047D01*
X159742904Y-71993571D01*
X159742904Y-73212619D02*
X159742904Y-72755476D01*
X159742904Y-72984047D02*
X158942904Y-72984047D01*
X159057190Y-72907857D01*
X159133380Y-72831666D01*
X159171476Y-72755476D01*
X159742904Y-73974523D02*
X159742904Y-73517380D01*
X159742904Y-73745952D02*
X158942904Y-73745952D01*
X159057190Y-73669761D01*
X159133380Y-73593571D01*
X159171476Y-73517380D01*
X159742904Y-74493571D02*
X158942904Y-74493571D01*
X158942904Y-74684047D01*
X158981000Y-74798333D01*
X159057190Y-74874523D01*
X159133380Y-74912619D01*
X159285761Y-74950714D01*
X159400047Y-74950714D01*
X159552428Y-74912619D01*
X159628619Y-74874523D01*
X159704809Y-74798333D01*
X159742904Y-74684047D01*
X159742904Y-74493571D01*
X159742904Y-75712619D02*
X159742904Y-75255476D01*
X159742904Y-75484047D02*
X158942904Y-75484047D01*
X159057190Y-75407857D01*
X159133380Y-75331666D01*
X159171476Y-75255476D01*
X158942904Y-76207857D02*
X158942904Y-76284047D01*
X158981000Y-76360238D01*
X159019095Y-76398333D01*
X159095285Y-76436428D01*
X159247666Y-76474523D01*
X159438142Y-76474523D01*
X159590523Y-76436428D01*
X159666714Y-76398333D01*
X159704809Y-76360238D01*
X159742904Y-76284047D01*
X159742904Y-76207857D01*
X159704809Y-76131666D01*
X159666714Y-76093571D01*
X159590523Y-76055476D01*
X159438142Y-76017380D01*
X159247666Y-76017380D01*
X159095285Y-76055476D01*
X159019095Y-76093571D01*
X158981000Y-76131666D01*
X158942904Y-76207857D01*
X159742904Y-77374523D02*
X158942904Y-77374523D01*
X158942904Y-77565000D01*
X158981000Y-77679285D01*
X159057190Y-77755476D01*
X159133380Y-77793571D01*
X159285761Y-77831666D01*
X159400047Y-77831666D01*
X159552428Y-77793571D01*
X159628619Y-77755476D01*
X159704809Y-77679285D01*
X159742904Y-77565000D01*
X159742904Y-77374523D01*
X159742904Y-78212619D02*
X159742904Y-78365000D01*
X159704809Y-78441190D01*
X159666714Y-78479285D01*
X159552428Y-78555476D01*
X159400047Y-78593571D01*
X159095285Y-78593571D01*
X159019095Y-78555476D01*
X158981000Y-78517380D01*
X158942904Y-78441190D01*
X158942904Y-78288809D01*
X158981000Y-78212619D01*
X159019095Y-78174523D01*
X159095285Y-78136428D01*
X159285761Y-78136428D01*
X159361952Y-78174523D01*
X159400047Y-78212619D01*
X159438142Y-78288809D01*
X159438142Y-78441190D01*
X159400047Y-78517380D01*
X159361952Y-78555476D01*
X159285761Y-78593571D01*
X159742904Y-79974523D02*
X158942904Y-79974523D01*
X158942904Y-80165000D01*
X158981000Y-80279285D01*
X159057190Y-80355476D01*
X159133380Y-80393571D01*
X159285761Y-80431666D01*
X159400047Y-80431666D01*
X159552428Y-80393571D01*
X159628619Y-80355476D01*
X159704809Y-80279285D01*
X159742904Y-80165000D01*
X159742904Y-79974523D01*
X159285761Y-80888809D02*
X159247666Y-80812619D01*
X159209571Y-80774523D01*
X159133380Y-80736428D01*
X159095285Y-80736428D01*
X159019095Y-80774523D01*
X158981000Y-80812619D01*
X158942904Y-80888809D01*
X158942904Y-81041190D01*
X158981000Y-81117380D01*
X159019095Y-81155476D01*
X159095285Y-81193571D01*
X159133380Y-81193571D01*
X159209571Y-81155476D01*
X159247666Y-81117380D01*
X159285761Y-81041190D01*
X159285761Y-80888809D01*
X159323857Y-80812619D01*
X159361952Y-80774523D01*
X159438142Y-80736428D01*
X159590523Y-80736428D01*
X159666714Y-80774523D01*
X159704809Y-80812619D01*
X159742904Y-80888809D01*
X159742904Y-81041190D01*
X159704809Y-81117380D01*
X159666714Y-81155476D01*
X159590523Y-81193571D01*
X159438142Y-81193571D01*
X159361952Y-81155476D01*
X159323857Y-81117380D01*
X159285761Y-81041190D01*
X159742904Y-82474523D02*
X158942904Y-82474523D01*
X158942904Y-82665000D01*
X158981000Y-82779285D01*
X159057190Y-82855476D01*
X159133380Y-82893571D01*
X159285761Y-82931666D01*
X159400047Y-82931666D01*
X159552428Y-82893571D01*
X159628619Y-82855476D01*
X159704809Y-82779285D01*
X159742904Y-82665000D01*
X159742904Y-82474523D01*
X158942904Y-83198333D02*
X158942904Y-83731666D01*
X159742904Y-83388809D01*
X158942904Y-84674523D02*
X158942904Y-85169761D01*
X159247666Y-84903095D01*
X159247666Y-85017380D01*
X159285761Y-85093571D01*
X159323857Y-85131666D01*
X159400047Y-85169761D01*
X159590523Y-85169761D01*
X159666714Y-85131666D01*
X159704809Y-85093571D01*
X159742904Y-85017380D01*
X159742904Y-84788809D01*
X159704809Y-84712619D01*
X159666714Y-84674523D01*
X158942904Y-85398333D02*
X159742904Y-85665000D01*
X158942904Y-85931666D01*
X158942904Y-86122142D02*
X158942904Y-86617380D01*
X159247666Y-86350714D01*
X159247666Y-86465000D01*
X159285761Y-86541190D01*
X159323857Y-86579285D01*
X159400047Y-86617380D01*
X159590523Y-86617380D01*
X159666714Y-86579285D01*
X159704809Y-86541190D01*
X159742904Y-86465000D01*
X159742904Y-86236428D01*
X159704809Y-86160238D01*
X159666714Y-86122142D01*
X158942904Y-88012619D02*
X158942904Y-87631666D01*
X159323857Y-87593571D01*
X159285761Y-87631666D01*
X159247666Y-87707857D01*
X159247666Y-87898333D01*
X159285761Y-87974523D01*
X159323857Y-88012619D01*
X159400047Y-88050714D01*
X159590523Y-88050714D01*
X159666714Y-88012619D01*
X159704809Y-87974523D01*
X159742904Y-87898333D01*
X159742904Y-87707857D01*
X159704809Y-87631666D01*
X159666714Y-87593571D01*
X158942904Y-88279285D02*
X159742904Y-88545952D01*
X158942904Y-88812619D01*
X146889766Y-76696842D02*
X146937385Y-76744461D01*
X147080242Y-76792080D01*
X147175480Y-76792080D01*
X147318338Y-76744461D01*
X147413576Y-76649223D01*
X147461195Y-76553985D01*
X147508814Y-76363509D01*
X147508814Y-76220652D01*
X147461195Y-76030176D01*
X147413576Y-75934938D01*
X147318338Y-75839700D01*
X147175480Y-75792080D01*
X147080242Y-75792080D01*
X146937385Y-75839700D01*
X146889766Y-75887319D01*
X145937385Y-76792080D02*
X146508814Y-76792080D01*
X146223100Y-76792080D02*
X146223100Y-75792080D01*
X146318338Y-75934938D01*
X146413576Y-76030176D01*
X146508814Y-76077795D01*
M02*
