M48
; DRILL file {KiCad (5.1.5)-3} date 20/11/2020 22:13:19
; FORMAT={-:-/ absolute / inch / decimal}
; #@! TF.CreationDate,2020-11-20T22:13:19+01:00
; #@! TF.GenerationSoftware,Kicad,Pcbnew,(5.1.5)-3
; #@! TF.FileFunction,Plated,1,2,PTH
FMAT,2
INCH
T1C0.0157
T2C0.0335
T3C0.0591
%
G90
G05
T1
X5.6625Y-3.2735
X5.664Y-3.3795
X5.668Y-3.4945
X5.731Y-3.0605
X5.7565Y-2.8095
X5.7735Y-3.4945
X5.775Y-3.2715
X5.776Y-3.3765
X5.862Y-3.4945
X5.8955Y-3.377
X5.8965Y-3.274
X5.9485Y-3.4955
X5.97Y-3.114
X5.97Y-3.216
X5.973Y-2.952
X6.0565Y-3.096
X6.0635Y-2.707
X6.0805Y-3.412
X6.141Y-2.8115
X6.215Y-3.425
X6.2375Y-2.7085
X6.2555Y-2.952
T2
X5.907Y-3.033
X6.007Y-3.033
X6.107Y-3.033
X6.207Y-3.033
X5.6819Y-3.1636
X5.7819Y-3.1636
T3
X5.5615Y-2.5711
X5.5615Y-2.6711
X5.5615Y-2.7711
X5.5615Y-2.8711
X5.5615Y-2.9711
X5.5615Y-3.0711
X5.5615Y-3.1711
X5.5615Y-3.2711
X5.5615Y-3.3711
X5.5615Y-3.4711
X5.6615Y-2.5711
X5.7615Y-2.5711
X5.8615Y-2.5711
X5.9615Y-2.5711
X6.0615Y-2.5711
X6.1615Y-2.5711
X6.2615Y-2.5711
X6.3615Y-2.5711
X6.3615Y-2.6711
X6.3615Y-2.7711
X6.3615Y-2.8711
X6.3615Y-2.9711
X6.3615Y-3.0711
X6.3615Y-3.1711
X6.3615Y-3.2711
X6.3615Y-3.3711
X6.3615Y-3.4711
T0
M30
