G04 #@! TF.FileFunction,Legend,Top*
%FSLAX46Y46*%
G04 Gerber Fmt 4.6, Leading zero omitted, Abs format (unit mm)*
G04 Created by KiCad (PCBNEW 4.0.6) date 07/30/17 19:43:23*
%MOMM*%
%LPD*%
G01*
G04 APERTURE LIST*
%ADD10C,0.100000*%
%ADD11C,0.150000*%
%ADD12C,0.300000*%
%ADD13C,0.120000*%
G04 APERTURE END LIST*
D10*
D11*
X164241000Y-62745000D02*
X138701000Y-62745000D01*
X164241000Y-90675000D02*
X164241000Y-62745000D01*
X138701000Y-90675000D02*
X164241000Y-90675000D01*
X138701000Y-62745000D02*
X138701000Y-90675000D01*
D12*
X150213858Y-68353571D02*
X150213858Y-66853571D01*
X150571001Y-66853571D01*
X150785286Y-66925000D01*
X150928144Y-67067857D01*
X150999572Y-67210714D01*
X151071001Y-67496429D01*
X151071001Y-67710714D01*
X150999572Y-67996429D01*
X150928144Y-68139286D01*
X150785286Y-68282143D01*
X150571001Y-68353571D01*
X150213858Y-68353571D01*
X151785286Y-68353571D02*
X152071001Y-68353571D01*
X152213858Y-68282143D01*
X152285286Y-68210714D01*
X152428144Y-67996429D01*
X152499572Y-67710714D01*
X152499572Y-67139286D01*
X152428144Y-66996429D01*
X152356715Y-66925000D01*
X152213858Y-66853571D01*
X151928144Y-66853571D01*
X151785286Y-66925000D01*
X151713858Y-66996429D01*
X151642429Y-67139286D01*
X151642429Y-67496429D01*
X151713858Y-67639286D01*
X151785286Y-67710714D01*
X151928144Y-67782143D01*
X152213858Y-67782143D01*
X152356715Y-67710714D01*
X152428144Y-67639286D01*
X152499572Y-67496429D01*
X144929458Y-70273171D02*
X145858029Y-70273171D01*
X145358029Y-70844600D01*
X145572315Y-70844600D01*
X145715172Y-70916029D01*
X145786601Y-70987457D01*
X145858029Y-71130314D01*
X145858029Y-71487457D01*
X145786601Y-71630314D01*
X145715172Y-71701743D01*
X145572315Y-71773171D01*
X145143743Y-71773171D01*
X145000886Y-71701743D01*
X144929458Y-71630314D01*
X146286600Y-70273171D02*
X146786600Y-71773171D01*
X147286600Y-70273171D01*
X147643743Y-70273171D02*
X148572314Y-70273171D01*
X148072314Y-70844600D01*
X148286600Y-70844600D01*
X148429457Y-70916029D01*
X148500886Y-70987457D01*
X148572314Y-71130314D01*
X148572314Y-71487457D01*
X148500886Y-71630314D01*
X148429457Y-71701743D01*
X148286600Y-71773171D01*
X147858028Y-71773171D01*
X147715171Y-71701743D01*
X147643743Y-71630314D01*
X154984487Y-70273171D02*
X154270201Y-70273171D01*
X154198772Y-70987457D01*
X154270201Y-70916029D01*
X154413058Y-70844600D01*
X154770201Y-70844600D01*
X154913058Y-70916029D01*
X154984487Y-70987457D01*
X155055915Y-71130314D01*
X155055915Y-71487457D01*
X154984487Y-71630314D01*
X154913058Y-71701743D01*
X154770201Y-71773171D01*
X154413058Y-71773171D01*
X154270201Y-71701743D01*
X154198772Y-71630314D01*
X155484486Y-70273171D02*
X155984486Y-71773171D01*
X156484486Y-70273171D01*
D13*
X148191000Y-81695000D02*
X145591000Y-81695000D01*
X145591000Y-81695000D02*
X145591000Y-84315000D01*
X145591000Y-84315000D02*
X148191000Y-84315000D01*
X148191000Y-84315000D02*
X148191000Y-81695000D01*
X147241000Y-84315000D02*
X146481000Y-84315000D01*
X146481000Y-84315000D02*
X146481000Y-90315000D01*
X146481000Y-90315000D02*
X147241000Y-90315000D01*
X147241000Y-90315000D02*
X147241000Y-84315000D01*
X147241000Y-81265000D02*
X147241000Y-81695000D01*
X146481000Y-81265000D02*
X146481000Y-81695000D01*
X147121000Y-84315000D02*
X147121000Y-90315000D01*
X147001000Y-84315000D02*
X147001000Y-90315000D01*
X146881000Y-84315000D02*
X146881000Y-90315000D01*
X146761000Y-84315000D02*
X146761000Y-90315000D01*
X146641000Y-84315000D02*
X146641000Y-90315000D01*
X146521000Y-84315000D02*
X146521000Y-90315000D01*
X145591000Y-81695000D02*
X142991000Y-81695000D01*
X142991000Y-81695000D02*
X142991000Y-84315000D01*
X142991000Y-84315000D02*
X145591000Y-84315000D01*
X145591000Y-84315000D02*
X145591000Y-81695000D01*
X144701000Y-84315000D02*
X143941000Y-84315000D01*
X143941000Y-84315000D02*
X143941000Y-90315000D01*
X143941000Y-90315000D02*
X144701000Y-90315000D01*
X144701000Y-90315000D02*
X144701000Y-84315000D01*
X144701000Y-81265000D02*
X144701000Y-81695000D01*
X143941000Y-81265000D02*
X143941000Y-81695000D01*
X146861000Y-79085000D02*
X148131000Y-79085000D01*
X148131000Y-79085000D02*
X148131000Y-80355000D01*
X155437800Y-89538200D02*
X155437800Y-81938200D01*
X154797800Y-89538200D02*
X155437800Y-89538200D01*
X154797800Y-81938200D02*
X154797800Y-89538200D01*
X154797800Y-78738200D02*
X154797800Y-77838200D01*
X155437800Y-77838200D02*
X155437800Y-78738200D01*
X155437800Y-77838200D02*
X155437800Y-78738200D01*
X154797800Y-78738200D02*
X154797800Y-77838200D01*
X154797800Y-81938200D02*
X154797800Y-89538200D01*
X154797800Y-89538200D02*
X155437800Y-89538200D01*
X155437800Y-89538200D02*
X155437800Y-81938200D01*
X155437800Y-89538200D02*
X155437800Y-81938200D01*
X154797800Y-89538200D02*
X155437800Y-89538200D01*
X154797800Y-81938200D02*
X154797800Y-89538200D01*
X154797800Y-78738200D02*
X154797800Y-77838200D01*
X155437800Y-77838200D02*
X155437800Y-78738200D01*
X155437800Y-77838200D02*
X155437800Y-78738200D01*
X154797800Y-78738200D02*
X154797800Y-77838200D01*
X154797800Y-81938200D02*
X154797800Y-89538200D01*
X154797800Y-89538200D02*
X155437800Y-89538200D01*
X155437800Y-89538200D02*
X155437800Y-81938200D01*
X157977800Y-89538200D02*
X157977800Y-81938200D01*
X157337800Y-89538200D02*
X157977800Y-89538200D01*
X157337800Y-81938200D02*
X157337800Y-89538200D01*
X157337800Y-78738200D02*
X157337800Y-77838200D01*
X157977800Y-77838200D02*
X157977800Y-78738200D01*
X157977800Y-77838200D02*
X157977800Y-78738200D01*
X157337800Y-78738200D02*
X157337800Y-77838200D01*
X157337800Y-81938200D02*
X157337800Y-89538200D01*
X157337800Y-89538200D02*
X157977800Y-89538200D01*
X157977800Y-89538200D02*
X157977800Y-81938200D01*
X157977800Y-89538200D02*
X157977800Y-81938200D01*
X157337800Y-89538200D02*
X157977800Y-89538200D01*
X157337800Y-81938200D02*
X157337800Y-89538200D01*
X157337800Y-78738200D02*
X157337800Y-77838200D01*
X157977800Y-77838200D02*
X157977800Y-78738200D01*
X157977800Y-77838200D02*
X157977800Y-78738200D01*
X157337800Y-78738200D02*
X157337800Y-77838200D01*
X157337800Y-81938200D02*
X157337800Y-89538200D01*
X157337800Y-89538200D02*
X157977800Y-89538200D01*
X157977800Y-89538200D02*
X157977800Y-81938200D01*
X152897800Y-89538200D02*
X152897800Y-81938200D01*
X152257800Y-89538200D02*
X152897800Y-89538200D01*
X152257800Y-81938200D02*
X152257800Y-89538200D01*
X152257800Y-78738200D02*
X152257800Y-77838200D01*
X152897800Y-77838200D02*
X152897800Y-78738200D01*
X152897800Y-77838200D02*
X152897800Y-78738200D01*
X152257800Y-78738200D02*
X152257800Y-77838200D01*
X152257800Y-81938200D02*
X152257800Y-89538200D01*
X152257800Y-89538200D02*
X152897800Y-89538200D01*
X152897800Y-89538200D02*
X152897800Y-81938200D01*
X152897800Y-89538200D02*
X152897800Y-81938200D01*
X152257800Y-89538200D02*
X152897800Y-89538200D01*
X152257800Y-81938200D02*
X152257800Y-89538200D01*
X152257800Y-78738200D02*
X152257800Y-77838200D01*
X152897800Y-77838200D02*
X152897800Y-78738200D01*
X152897800Y-77838200D02*
X152897800Y-78738200D01*
X152257800Y-78738200D02*
X152257800Y-77838200D01*
X152257800Y-81938200D02*
X152257800Y-89538200D01*
X152257800Y-89538200D02*
X152897800Y-89538200D01*
X152897800Y-89538200D02*
X152897800Y-81938200D01*
X150357800Y-89538200D02*
X150357800Y-81938200D01*
X149717800Y-89538200D02*
X150357800Y-89538200D01*
X149717800Y-81938200D02*
X149717800Y-89538200D01*
X149717800Y-78738200D02*
X149717800Y-77838200D01*
X150357800Y-77838200D02*
X150357800Y-78738200D01*
X150357800Y-77838200D02*
X150357800Y-78738200D01*
X149717800Y-78738200D02*
X149717800Y-77838200D01*
X149717800Y-81938200D02*
X149717800Y-89538200D01*
X149717800Y-89538200D02*
X150357800Y-89538200D01*
X150357800Y-89538200D02*
X150357800Y-81938200D01*
X150357800Y-89538200D02*
X150357800Y-81938200D01*
X149717800Y-89538200D02*
X150357800Y-89538200D01*
X149717800Y-81938200D02*
X149717800Y-89538200D01*
X149717800Y-78738200D02*
X149717800Y-77838200D01*
X150357800Y-77838200D02*
X150357800Y-78738200D01*
X150357800Y-77838200D02*
X150357800Y-78738200D01*
X149717800Y-78738200D02*
X149717800Y-77838200D01*
X149717800Y-81938200D02*
X149717800Y-89538200D01*
X149717800Y-89538200D02*
X150357800Y-89538200D01*
X150357800Y-89538200D02*
X150357800Y-81938200D01*
X158847800Y-81938200D02*
X148747800Y-81938200D01*
X148747800Y-78738200D02*
X148747800Y-90048200D01*
X148747800Y-90048200D02*
X158847800Y-90048200D01*
X158847800Y-90048200D02*
X158847800Y-78738200D01*
X158847800Y-78738200D02*
X148747800Y-78738200D01*
X153268600Y-70204600D02*
X153268600Y-68674600D01*
X149448600Y-70204600D02*
X149448600Y-68674600D01*
X153268600Y-68674600D02*
X149448600Y-68674600D01*
X149448600Y-70204600D02*
X149448600Y-71984600D01*
X149448600Y-71984600D02*
X153268600Y-71984600D01*
X153268600Y-70204600D02*
X153268600Y-71984600D01*
D11*
X144802105Y-78775381D02*
X144802105Y-77775381D01*
X145183058Y-77775381D01*
X145278296Y-77823000D01*
X145325915Y-77870619D01*
X145373534Y-77965857D01*
X145373534Y-78108714D01*
X145325915Y-78203952D01*
X145278296Y-78251571D01*
X145183058Y-78299190D01*
X144802105Y-78299190D01*
X146325915Y-78775381D02*
X145754486Y-78775381D01*
X146040200Y-78775381D02*
X146040200Y-77775381D01*
X145944962Y-77918238D01*
X145849724Y-78013476D01*
X145754486Y-78061095D01*
X155622905Y-75467381D02*
X155622905Y-74467381D01*
X156003858Y-74467381D01*
X156099096Y-74515000D01*
X156146715Y-74562619D01*
X156194334Y-74657857D01*
X156194334Y-74800714D01*
X156146715Y-74895952D01*
X156099096Y-74943571D01*
X156003858Y-74991190D01*
X155622905Y-74991190D01*
X156575286Y-74562619D02*
X156622905Y-74515000D01*
X156718143Y-74467381D01*
X156956239Y-74467381D01*
X157051477Y-74515000D01*
X157099096Y-74562619D01*
X157146715Y-74657857D01*
X157146715Y-74753095D01*
X157099096Y-74895952D01*
X156527667Y-75467381D01*
X157146715Y-75467381D01*
X150680524Y-72725000D02*
X150585286Y-72677381D01*
X150442429Y-72677381D01*
X150299571Y-72725000D01*
X150204333Y-72820238D01*
X150156714Y-72915476D01*
X150109095Y-73105952D01*
X150109095Y-73248810D01*
X150156714Y-73439286D01*
X150204333Y-73534524D01*
X150299571Y-73629762D01*
X150442429Y-73677381D01*
X150537667Y-73677381D01*
X150680524Y-73629762D01*
X150728143Y-73582143D01*
X150728143Y-73248810D01*
X150537667Y-73248810D01*
X151109095Y-73629762D02*
X151251952Y-73677381D01*
X151490048Y-73677381D01*
X151585286Y-73629762D01*
X151632905Y-73582143D01*
X151680524Y-73486905D01*
X151680524Y-73391667D01*
X151632905Y-73296429D01*
X151585286Y-73248810D01*
X151490048Y-73201190D01*
X151299571Y-73153571D01*
X151204333Y-73105952D01*
X151156714Y-73058333D01*
X151109095Y-72963095D01*
X151109095Y-72867857D01*
X151156714Y-72772619D01*
X151204333Y-72725000D01*
X151299571Y-72677381D01*
X151537667Y-72677381D01*
X151680524Y-72725000D01*
X152632905Y-73677381D02*
X152061476Y-73677381D01*
X152347190Y-73677381D02*
X152347190Y-72677381D01*
X152251952Y-72820238D01*
X152156714Y-72915476D01*
X152061476Y-72963095D01*
X158292905Y-68307381D02*
X158292905Y-67307381D01*
X158673858Y-67307381D01*
X158769096Y-67355000D01*
X158816715Y-67402619D01*
X158864334Y-67497857D01*
X158864334Y-67640714D01*
X158816715Y-67735952D01*
X158769096Y-67783571D01*
X158673858Y-67831190D01*
X158292905Y-67831190D01*
X159197667Y-67307381D02*
X159816715Y-67307381D01*
X159483381Y-67688333D01*
X159626239Y-67688333D01*
X159721477Y-67735952D01*
X159769096Y-67783571D01*
X159816715Y-67878810D01*
X159816715Y-68116905D01*
X159769096Y-68212143D01*
X159721477Y-68259762D01*
X159626239Y-68307381D01*
X159340524Y-68307381D01*
X159245286Y-68259762D01*
X159197667Y-68212143D01*
M02*
