G04 #@! TF.GenerationSoftware,KiCad,Pcbnew,(5.1.5)-3*
G04 #@! TF.CreationDate,2020-11-20T22:13:13+01:00*
G04 #@! TF.ProjectId,Microduino_Base_DE,4d696372-6f64-4756-996e-6f5f42617365,0.0*
G04 #@! TF.SameCoordinates,Original*
G04 #@! TF.FileFunction,Paste,Top*
G04 #@! TF.FilePolarity,Positive*
%FSLAX46Y46*%
G04 Gerber Fmt 4.6, Leading zero omitted, Abs format (unit mm)*
G04 Created by KiCad (PCBNEW (5.1.5)-3) date 2020-11-20 22:13:13*
%MOMM*%
%LPD*%
G04 APERTURE LIST*
%ADD10C,0.100000*%
%ADD11R,2.000000X3.500000*%
G04 APERTURE END LIST*
D10*
G36*
X151092104Y-67725304D02*
G01*
X151116373Y-67728904D01*
X151140171Y-67734865D01*
X151163271Y-67743130D01*
X151185449Y-67753620D01*
X151206493Y-67766233D01*
X151226198Y-67780847D01*
X151244377Y-67797323D01*
X151260853Y-67815502D01*
X151275467Y-67835207D01*
X151288080Y-67856251D01*
X151298570Y-67878429D01*
X151306835Y-67901529D01*
X151312796Y-67925327D01*
X151316396Y-67949596D01*
X151317600Y-67974100D01*
X151317600Y-70024100D01*
X151316396Y-70048604D01*
X151312796Y-70072873D01*
X151306835Y-70096671D01*
X151298570Y-70119771D01*
X151288080Y-70141949D01*
X151275467Y-70162993D01*
X151260853Y-70182698D01*
X151244377Y-70200877D01*
X151226198Y-70217353D01*
X151206493Y-70231967D01*
X151185449Y-70244580D01*
X151163271Y-70255070D01*
X151140171Y-70263335D01*
X151116373Y-70269296D01*
X151092104Y-70272896D01*
X151067600Y-70274100D01*
X149492600Y-70274100D01*
X149468096Y-70272896D01*
X149443827Y-70269296D01*
X149420029Y-70263335D01*
X149396929Y-70255070D01*
X149374751Y-70244580D01*
X149353707Y-70231967D01*
X149334002Y-70217353D01*
X149315823Y-70200877D01*
X149299347Y-70182698D01*
X149284733Y-70162993D01*
X149272120Y-70141949D01*
X149261630Y-70119771D01*
X149253365Y-70096671D01*
X149247404Y-70072873D01*
X149243804Y-70048604D01*
X149242600Y-70024100D01*
X149242600Y-67974100D01*
X149243804Y-67949596D01*
X149247404Y-67925327D01*
X149253365Y-67901529D01*
X149261630Y-67878429D01*
X149272120Y-67856251D01*
X149284733Y-67835207D01*
X149299347Y-67815502D01*
X149315823Y-67797323D01*
X149334002Y-67780847D01*
X149353707Y-67766233D01*
X149374751Y-67753620D01*
X149396929Y-67743130D01*
X149420029Y-67734865D01*
X149443827Y-67728904D01*
X149468096Y-67725304D01*
X149492600Y-67724100D01*
X151067600Y-67724100D01*
X151092104Y-67725304D01*
G37*
G36*
X144867104Y-67725304D02*
G01*
X144891373Y-67728904D01*
X144915171Y-67734865D01*
X144938271Y-67743130D01*
X144960449Y-67753620D01*
X144981493Y-67766233D01*
X145001198Y-67780847D01*
X145019377Y-67797323D01*
X145035853Y-67815502D01*
X145050467Y-67835207D01*
X145063080Y-67856251D01*
X145073570Y-67878429D01*
X145081835Y-67901529D01*
X145087796Y-67925327D01*
X145091396Y-67949596D01*
X145092600Y-67974100D01*
X145092600Y-70024100D01*
X145091396Y-70048604D01*
X145087796Y-70072873D01*
X145081835Y-70096671D01*
X145073570Y-70119771D01*
X145063080Y-70141949D01*
X145050467Y-70162993D01*
X145035853Y-70182698D01*
X145019377Y-70200877D01*
X145001198Y-70217353D01*
X144981493Y-70231967D01*
X144960449Y-70244580D01*
X144938271Y-70255070D01*
X144915171Y-70263335D01*
X144891373Y-70269296D01*
X144867104Y-70272896D01*
X144842600Y-70274100D01*
X143267600Y-70274100D01*
X143243096Y-70272896D01*
X143218827Y-70269296D01*
X143195029Y-70263335D01*
X143171929Y-70255070D01*
X143149751Y-70244580D01*
X143128707Y-70231967D01*
X143109002Y-70217353D01*
X143090823Y-70200877D01*
X143074347Y-70182698D01*
X143059733Y-70162993D01*
X143047120Y-70141949D01*
X143036630Y-70119771D01*
X143028365Y-70096671D01*
X143022404Y-70072873D01*
X143018804Y-70048604D01*
X143017600Y-70024100D01*
X143017600Y-67974100D01*
X143018804Y-67949596D01*
X143022404Y-67925327D01*
X143028365Y-67901529D01*
X143036630Y-67878429D01*
X143047120Y-67856251D01*
X143059733Y-67835207D01*
X143074347Y-67815502D01*
X143090823Y-67797323D01*
X143109002Y-67780847D01*
X143128707Y-67766233D01*
X143149751Y-67753620D01*
X143171929Y-67743130D01*
X143195029Y-67734865D01*
X143218827Y-67728904D01*
X143243096Y-67725304D01*
X143267600Y-67724100D01*
X144842600Y-67724100D01*
X144867104Y-67725304D01*
G37*
G36*
X144879804Y-72386204D02*
G01*
X144904073Y-72389804D01*
X144927871Y-72395765D01*
X144950971Y-72404030D01*
X144973149Y-72414520D01*
X144994193Y-72427133D01*
X145013898Y-72441747D01*
X145032077Y-72458223D01*
X145048553Y-72476402D01*
X145063167Y-72496107D01*
X145075780Y-72517151D01*
X145086270Y-72539329D01*
X145094535Y-72562429D01*
X145100496Y-72586227D01*
X145104096Y-72610496D01*
X145105300Y-72635000D01*
X145105300Y-74685000D01*
X145104096Y-74709504D01*
X145100496Y-74733773D01*
X145094535Y-74757571D01*
X145086270Y-74780671D01*
X145075780Y-74802849D01*
X145063167Y-74823893D01*
X145048553Y-74843598D01*
X145032077Y-74861777D01*
X145013898Y-74878253D01*
X144994193Y-74892867D01*
X144973149Y-74905480D01*
X144950971Y-74915970D01*
X144927871Y-74924235D01*
X144904073Y-74930196D01*
X144879804Y-74933796D01*
X144855300Y-74935000D01*
X143280300Y-74935000D01*
X143255796Y-74933796D01*
X143231527Y-74930196D01*
X143207729Y-74924235D01*
X143184629Y-74915970D01*
X143162451Y-74905480D01*
X143141407Y-74892867D01*
X143121702Y-74878253D01*
X143103523Y-74861777D01*
X143087047Y-74843598D01*
X143072433Y-74823893D01*
X143059820Y-74802849D01*
X143049330Y-74780671D01*
X143041065Y-74757571D01*
X143035104Y-74733773D01*
X143031504Y-74709504D01*
X143030300Y-74685000D01*
X143030300Y-72635000D01*
X143031504Y-72610496D01*
X143035104Y-72586227D01*
X143041065Y-72562429D01*
X143049330Y-72539329D01*
X143059820Y-72517151D01*
X143072433Y-72496107D01*
X143087047Y-72476402D01*
X143103523Y-72458223D01*
X143121702Y-72441747D01*
X143141407Y-72427133D01*
X143162451Y-72414520D01*
X143184629Y-72404030D01*
X143207729Y-72395765D01*
X143231527Y-72389804D01*
X143255796Y-72386204D01*
X143280300Y-72385000D01*
X144855300Y-72385000D01*
X144879804Y-72386204D01*
G37*
G36*
X151104804Y-72386204D02*
G01*
X151129073Y-72389804D01*
X151152871Y-72395765D01*
X151175971Y-72404030D01*
X151198149Y-72414520D01*
X151219193Y-72427133D01*
X151238898Y-72441747D01*
X151257077Y-72458223D01*
X151273553Y-72476402D01*
X151288167Y-72496107D01*
X151300780Y-72517151D01*
X151311270Y-72539329D01*
X151319535Y-72562429D01*
X151325496Y-72586227D01*
X151329096Y-72610496D01*
X151330300Y-72635000D01*
X151330300Y-74685000D01*
X151329096Y-74709504D01*
X151325496Y-74733773D01*
X151319535Y-74757571D01*
X151311270Y-74780671D01*
X151300780Y-74802849D01*
X151288167Y-74823893D01*
X151273553Y-74843598D01*
X151257077Y-74861777D01*
X151238898Y-74878253D01*
X151219193Y-74892867D01*
X151198149Y-74905480D01*
X151175971Y-74915970D01*
X151152871Y-74924235D01*
X151129073Y-74930196D01*
X151104804Y-74933796D01*
X151080300Y-74935000D01*
X149505300Y-74935000D01*
X149480796Y-74933796D01*
X149456527Y-74930196D01*
X149432729Y-74924235D01*
X149409629Y-74915970D01*
X149387451Y-74905480D01*
X149366407Y-74892867D01*
X149346702Y-74878253D01*
X149328523Y-74861777D01*
X149312047Y-74843598D01*
X149297433Y-74823893D01*
X149284820Y-74802849D01*
X149274330Y-74780671D01*
X149266065Y-74757571D01*
X149260104Y-74733773D01*
X149256504Y-74709504D01*
X149255300Y-74685000D01*
X149255300Y-72635000D01*
X149256504Y-72610496D01*
X149260104Y-72586227D01*
X149266065Y-72562429D01*
X149274330Y-72539329D01*
X149284820Y-72517151D01*
X149297433Y-72496107D01*
X149312047Y-72476402D01*
X149328523Y-72458223D01*
X149346702Y-72441747D01*
X149366407Y-72427133D01*
X149387451Y-72414520D01*
X149409629Y-72404030D01*
X149432729Y-72395765D01*
X149456527Y-72389804D01*
X149480796Y-72386204D01*
X149505300Y-72385000D01*
X151080300Y-72385000D01*
X151104804Y-72386204D01*
G37*
D11*
X152956000Y-71628000D03*
X158956000Y-71628000D03*
M02*
