G04 #@! TF.FileFunction,Legend,Top*
%FSLAX46Y46*%
G04 Gerber Fmt 4.6, Leading zero omitted, Abs format (unit mm)*
G04 Created by KiCad (PCBNEW 4.0.6) date 08/13/17 19:57:06*
%MOMM*%
%LPD*%
G01*
G04 APERTURE LIST*
%ADD10C,0.100000*%
%ADD11C,0.150000*%
%ADD12C,0.300000*%
%ADD13C,0.120000*%
G04 APERTURE END LIST*
D10*
D11*
X164241000Y-62745000D02*
X138711000Y-62745000D01*
X164241000Y-90675000D02*
X164241000Y-62745000D01*
X138711000Y-90675000D02*
X164241000Y-90675000D01*
X138711000Y-62745000D02*
X138711000Y-90675000D01*
D12*
X155869400Y-71831324D02*
X155931305Y-71707515D01*
X155931305Y-71521800D01*
X155869400Y-71336086D01*
X155745590Y-71212277D01*
X155621781Y-71150372D01*
X155374162Y-71088467D01*
X155188448Y-71088467D01*
X154940829Y-71150372D01*
X154817019Y-71212277D01*
X154693210Y-71336086D01*
X154631305Y-71521800D01*
X154631305Y-71645610D01*
X154693210Y-71831324D01*
X154755114Y-71893229D01*
X155188448Y-71893229D01*
X155188448Y-71645610D01*
X154631305Y-72450372D02*
X155931305Y-72450372D01*
X154631305Y-73193229D01*
X155931305Y-73193229D01*
X154631305Y-73812277D02*
X155931305Y-73812277D01*
X155931305Y-74121801D01*
X155869400Y-74307515D01*
X155745590Y-74431324D01*
X155621781Y-74493229D01*
X155374162Y-74555134D01*
X155188448Y-74555134D01*
X154940829Y-74493229D01*
X154817019Y-74431324D01*
X154693210Y-74307515D01*
X154631305Y-74121801D01*
X154631305Y-73812277D01*
X152091305Y-72573477D02*
X153391305Y-72573477D01*
X153391305Y-72883001D01*
X153329400Y-73068715D01*
X153205590Y-73192524D01*
X153081781Y-73254429D01*
X152834162Y-73316334D01*
X152648448Y-73316334D01*
X152400829Y-73254429D01*
X152277019Y-73192524D01*
X152153210Y-73068715D01*
X152091305Y-72883001D01*
X152091305Y-72573477D01*
X153391305Y-74430620D02*
X153391305Y-74183001D01*
X153329400Y-74059191D01*
X153267495Y-73997286D01*
X153081781Y-73873477D01*
X152834162Y-73811572D01*
X152338924Y-73811572D01*
X152215114Y-73873477D01*
X152153210Y-73935382D01*
X152091305Y-74059191D01*
X152091305Y-74306810D01*
X152153210Y-74430620D01*
X152215114Y-74492524D01*
X152338924Y-74554429D01*
X152648448Y-74554429D01*
X152772257Y-74492524D01*
X152834162Y-74430620D01*
X152896067Y-74306810D01*
X152896067Y-74059191D01*
X152834162Y-73935382D01*
X152772257Y-73873477D01*
X152648448Y-73811572D01*
X149551305Y-72573477D02*
X150851305Y-72573477D01*
X150851305Y-72883001D01*
X150789400Y-73068715D01*
X150665590Y-73192524D01*
X150541781Y-73254429D01*
X150294162Y-73316334D01*
X150108448Y-73316334D01*
X149860829Y-73254429D01*
X149737019Y-73192524D01*
X149613210Y-73068715D01*
X149551305Y-72883001D01*
X149551305Y-72573477D01*
X150851305Y-73749667D02*
X150851305Y-74554429D01*
X150356067Y-74121096D01*
X150356067Y-74306810D01*
X150294162Y-74430620D01*
X150232257Y-74492524D01*
X150108448Y-74554429D01*
X149798924Y-74554429D01*
X149675114Y-74492524D01*
X149613210Y-74430620D01*
X149551305Y-74306810D01*
X149551305Y-73935382D01*
X149613210Y-73811572D01*
X149675114Y-73749667D01*
X146909705Y-72573477D02*
X148209705Y-72573477D01*
X148209705Y-72883001D01*
X148147800Y-73068715D01*
X148023990Y-73192524D01*
X147900181Y-73254429D01*
X147652562Y-73316334D01*
X147466848Y-73316334D01*
X147219229Y-73254429D01*
X147095419Y-73192524D01*
X146971610Y-73068715D01*
X146909705Y-72883001D01*
X146909705Y-72573477D01*
X148085895Y-73811572D02*
X148147800Y-73873477D01*
X148209705Y-73997286D01*
X148209705Y-74306810D01*
X148147800Y-74430620D01*
X148085895Y-74492524D01*
X147962086Y-74554429D01*
X147838276Y-74554429D01*
X147652562Y-74492524D01*
X146909705Y-73749667D01*
X146909705Y-74554429D01*
D13*
X152999400Y-89589000D02*
X152999400Y-81989000D01*
X152359400Y-89589000D02*
X152999400Y-89589000D01*
X152359400Y-81989000D02*
X152359400Y-89589000D01*
X152359400Y-78789000D02*
X152359400Y-77889000D01*
X152999400Y-77889000D02*
X152999400Y-78789000D01*
X152999400Y-77889000D02*
X152999400Y-78789000D01*
X152359400Y-78789000D02*
X152359400Y-77889000D01*
X152359400Y-81989000D02*
X152359400Y-89589000D01*
X152359400Y-89589000D02*
X152999400Y-89589000D01*
X152999400Y-89589000D02*
X152999400Y-81989000D01*
X152999400Y-89589000D02*
X152999400Y-81989000D01*
X152359400Y-89589000D02*
X152999400Y-89589000D01*
X152359400Y-81989000D02*
X152359400Y-89589000D01*
X152359400Y-78789000D02*
X152359400Y-77889000D01*
X152999400Y-77889000D02*
X152999400Y-78789000D01*
X152999400Y-77889000D02*
X152999400Y-78789000D01*
X152359400Y-78789000D02*
X152359400Y-77889000D01*
X152359400Y-81989000D02*
X152359400Y-89589000D01*
X152359400Y-89589000D02*
X152999400Y-89589000D01*
X152999400Y-89589000D02*
X152999400Y-81989000D01*
X155539400Y-89589000D02*
X155539400Y-81989000D01*
X154899400Y-89589000D02*
X155539400Y-89589000D01*
X154899400Y-81989000D02*
X154899400Y-89589000D01*
X154899400Y-78789000D02*
X154899400Y-77889000D01*
X155539400Y-77889000D02*
X155539400Y-78789000D01*
X155539400Y-77889000D02*
X155539400Y-78789000D01*
X154899400Y-78789000D02*
X154899400Y-77889000D01*
X154899400Y-81989000D02*
X154899400Y-89589000D01*
X154899400Y-89589000D02*
X155539400Y-89589000D01*
X155539400Y-89589000D02*
X155539400Y-81989000D01*
X155539400Y-89589000D02*
X155539400Y-81989000D01*
X154899400Y-89589000D02*
X155539400Y-89589000D01*
X154899400Y-81989000D02*
X154899400Y-89589000D01*
X154899400Y-78789000D02*
X154899400Y-77889000D01*
X155539400Y-77889000D02*
X155539400Y-78789000D01*
X155539400Y-77889000D02*
X155539400Y-78789000D01*
X154899400Y-78789000D02*
X154899400Y-77889000D01*
X154899400Y-81989000D02*
X154899400Y-89589000D01*
X154899400Y-89589000D02*
X155539400Y-89589000D01*
X155539400Y-89589000D02*
X155539400Y-81989000D01*
X150459400Y-89589000D02*
X150459400Y-81989000D01*
X149819400Y-89589000D02*
X150459400Y-89589000D01*
X149819400Y-81989000D02*
X149819400Y-89589000D01*
X149819400Y-78789000D02*
X149819400Y-77889000D01*
X150459400Y-77889000D02*
X150459400Y-78789000D01*
X150459400Y-77889000D02*
X150459400Y-78789000D01*
X149819400Y-78789000D02*
X149819400Y-77889000D01*
X149819400Y-81989000D02*
X149819400Y-89589000D01*
X149819400Y-89589000D02*
X150459400Y-89589000D01*
X150459400Y-89589000D02*
X150459400Y-81989000D01*
X150459400Y-89589000D02*
X150459400Y-81989000D01*
X149819400Y-89589000D02*
X150459400Y-89589000D01*
X149819400Y-81989000D02*
X149819400Y-89589000D01*
X149819400Y-78789000D02*
X149819400Y-77889000D01*
X150459400Y-77889000D02*
X150459400Y-78789000D01*
X150459400Y-77889000D02*
X150459400Y-78789000D01*
X149819400Y-78789000D02*
X149819400Y-77889000D01*
X149819400Y-81989000D02*
X149819400Y-89589000D01*
X149819400Y-89589000D02*
X150459400Y-89589000D01*
X150459400Y-89589000D02*
X150459400Y-81989000D01*
X147919400Y-89589000D02*
X147919400Y-81989000D01*
X147279400Y-89589000D02*
X147919400Y-89589000D01*
X147279400Y-81989000D02*
X147279400Y-89589000D01*
X147279400Y-78789000D02*
X147279400Y-77889000D01*
X147919400Y-77889000D02*
X147919400Y-78789000D01*
X147919400Y-77889000D02*
X147919400Y-78789000D01*
X147279400Y-78789000D02*
X147279400Y-77889000D01*
X147279400Y-81989000D02*
X147279400Y-89589000D01*
X147279400Y-89589000D02*
X147919400Y-89589000D01*
X147919400Y-89589000D02*
X147919400Y-81989000D01*
X147919400Y-89589000D02*
X147919400Y-81989000D01*
X147279400Y-89589000D02*
X147919400Y-89589000D01*
X147279400Y-81989000D02*
X147279400Y-89589000D01*
X147279400Y-78789000D02*
X147279400Y-77889000D01*
X147919400Y-77889000D02*
X147919400Y-78789000D01*
X147919400Y-77889000D02*
X147919400Y-78789000D01*
X147279400Y-78789000D02*
X147279400Y-77889000D01*
X147279400Y-81989000D02*
X147279400Y-89589000D01*
X147279400Y-89589000D02*
X147919400Y-89589000D01*
X147919400Y-89589000D02*
X147919400Y-81989000D01*
X156409400Y-81989000D02*
X146309400Y-81989000D01*
X146309400Y-78789000D02*
X146309400Y-90099000D01*
X146309400Y-90099000D02*
X156409400Y-90099000D01*
X156409400Y-90099000D02*
X156409400Y-78789000D01*
X156409400Y-78789000D02*
X146309400Y-78789000D01*
D11*
X142552905Y-89987381D02*
X142552905Y-88987381D01*
X142933858Y-88987381D01*
X143029096Y-89035000D01*
X143076715Y-89082619D01*
X143124334Y-89177857D01*
X143124334Y-89320714D01*
X143076715Y-89415952D01*
X143029096Y-89463571D01*
X142933858Y-89511190D01*
X142552905Y-89511190D01*
X144076715Y-89987381D02*
X143505286Y-89987381D01*
X143791000Y-89987381D02*
X143791000Y-88987381D01*
X143695762Y-89130238D01*
X143600524Y-89225476D01*
X143505286Y-89273095D01*
X157522905Y-79047381D02*
X157522905Y-78047381D01*
X157903858Y-78047381D01*
X157999096Y-78095000D01*
X158046715Y-78142619D01*
X158094334Y-78237857D01*
X158094334Y-78380714D01*
X158046715Y-78475952D01*
X157999096Y-78523571D01*
X157903858Y-78571190D01*
X157522905Y-78571190D01*
X158475286Y-78142619D02*
X158522905Y-78095000D01*
X158618143Y-78047381D01*
X158856239Y-78047381D01*
X158951477Y-78095000D01*
X158999096Y-78142619D01*
X159046715Y-78237857D01*
X159046715Y-78333095D01*
X158999096Y-78475952D01*
X158427667Y-79047381D01*
X159046715Y-79047381D01*
M02*
