M48
;DRILL file {KiCad 4.0.6} date 08/13/17 19:57:09
;FORMAT={-:-/ absolute / inch / decimal}
FMAT,2
INCH,TZ
T1C0.033
T2C0.059
%
G90
G05
M72
T1
X5.811Y-3.035
X5.911Y-3.035
X6.011Y-3.035
X6.111Y-3.035
T2
X5.5611Y-2.5711
X5.5611Y-2.6711
X5.5611Y-2.7711
X5.5611Y-2.8711
X5.5611Y-2.9711
X5.5611Y-3.0711
X5.5611Y-3.1711
X5.5611Y-3.2711
X5.5611Y-3.3711
X5.5611Y-3.4711
X5.6611Y-2.5711
X5.7611Y-2.5711
X5.8611Y-2.5711
X5.9611Y-2.5711
X6.0611Y-2.5711
X6.1611Y-2.5711
X6.2611Y-2.5711
X6.3611Y-2.5711
X6.3611Y-2.6711
X6.3611Y-2.7711
X6.3611Y-2.8711
X6.3611Y-2.9711
X6.3611Y-3.0711
X6.3611Y-3.1711
X6.3611Y-3.2711
X6.3611Y-3.3711
X6.3611Y-3.4711
T0
M30
