G04 #@! TF.FileFunction,Copper,L1,Top,Signal*
%FSLAX46Y46*%
G04 Gerber Fmt 4.6, Leading zero omitted, Abs format (unit mm)*
G04 Created by KiCad (PCBNEW 4.0.6) date 08/13/17 19:57:05*
%MOMM*%
%LPD*%
G01*
G04 APERTURE LIST*
%ADD10C,0.100000*%
%ADD11C,2.100000*%
%ADD12R,1.700000X1.700000*%
%ADD13C,1.700000*%
%ADD14C,0.750000*%
G04 APERTURE END LIST*
D10*
D11*
X161571000Y-67845000D03*
X161571000Y-70385000D03*
X161571000Y-72925000D03*
X161571000Y-75465000D03*
X161571000Y-78005000D03*
X161571000Y-80545000D03*
X161571000Y-83085000D03*
X161571000Y-85625000D03*
X161571000Y-88165000D03*
X161571000Y-65305000D03*
X159031000Y-65305000D03*
X156491000Y-65305000D03*
X153951000Y-65305000D03*
X151411000Y-65305000D03*
X148871000Y-65305000D03*
X146331000Y-65305000D03*
X143791000Y-65305000D03*
X141251000Y-65305000D03*
X141251000Y-67845000D03*
X141251000Y-70385000D03*
X141251000Y-72925000D03*
X141251000Y-75465000D03*
X141251000Y-78005000D03*
X141251000Y-80545000D03*
X141251000Y-83085000D03*
X141251000Y-85625000D03*
X141251000Y-88165000D03*
D12*
X147599400Y-77089000D03*
D13*
X150139400Y-77089000D03*
X152679400Y-77089000D03*
X155219400Y-77089000D03*
D14*
X141249400Y-72923400D02*
X143433800Y-72923400D01*
X143433800Y-72923400D02*
X147599400Y-77089000D01*
X150139400Y-77089000D02*
X150139400Y-78867000D01*
X142875000Y-75463400D02*
X141249400Y-75463400D01*
X147193000Y-79781400D02*
X142875000Y-75463400D01*
X149225000Y-79781400D02*
X147193000Y-79781400D01*
X150139400Y-78867000D02*
X149225000Y-79781400D01*
X141249400Y-83083400D02*
X149326600Y-83083400D01*
X152679400Y-79730600D02*
X152679400Y-77089000D01*
X149326600Y-83083400D02*
X152679400Y-79730600D01*
X141249400Y-88163400D02*
X148463000Y-88163400D01*
X155219400Y-81407000D02*
X155219400Y-77089000D01*
X148463000Y-88163400D02*
X155219400Y-81407000D01*
M02*
