G04 #@! TF.FileFunction,Legend,Bot*
%FSLAX46Y46*%
G04 Gerber Fmt 4.6, Leading zero omitted, Abs format (unit mm)*
G04 Created by KiCad (PCBNEW 4.0.6) date 08/13/17 19:57:05*
%MOMM*%
%LPD*%
G01*
G04 APERTURE LIST*
%ADD10C,0.100000*%
%ADD11C,0.250000*%
%ADD12C,0.150000*%
%ADD13C,0.120000*%
G04 APERTURE END LIST*
D10*
D11*
X156659572Y-74909286D02*
X156659572Y-73109286D01*
X156231000Y-73109286D01*
X155973857Y-73195000D01*
X155802429Y-73366429D01*
X155716714Y-73537857D01*
X155631000Y-73880714D01*
X155631000Y-74137857D01*
X155716714Y-74480714D01*
X155802429Y-74652143D01*
X155973857Y-74823571D01*
X156231000Y-74909286D01*
X156659572Y-74909286D01*
X154859572Y-74909286D02*
X154859572Y-73109286D01*
X153059571Y-73195000D02*
X153231000Y-73109286D01*
X153488143Y-73109286D01*
X153745286Y-73195000D01*
X153916714Y-73366429D01*
X154002429Y-73537857D01*
X154088143Y-73880714D01*
X154088143Y-74137857D01*
X154002429Y-74480714D01*
X153916714Y-74652143D01*
X153745286Y-74823571D01*
X153488143Y-74909286D01*
X153316714Y-74909286D01*
X153059571Y-74823571D01*
X152973857Y-74737857D01*
X152973857Y-74137857D01*
X153316714Y-74137857D01*
X152202429Y-74909286D02*
X152202429Y-73109286D01*
X151602428Y-73109286D02*
X150573857Y-73109286D01*
X151088143Y-74909286D02*
X151088143Y-73109286D01*
X150059571Y-74395000D02*
X149202428Y-74395000D01*
X150230999Y-74909286D02*
X149630999Y-73109286D01*
X149030999Y-74909286D01*
X147573857Y-74909286D02*
X148431000Y-74909286D01*
X148431000Y-73109286D01*
X146973857Y-73966429D02*
X146373857Y-73966429D01*
X146116714Y-74909286D02*
X146973857Y-74909286D01*
X146973857Y-73109286D01*
X146116714Y-73109286D01*
D12*
X145171000Y-69265000D02*
X144071000Y-68165000D01*
X145171000Y-69265000D02*
X145171000Y-71065000D01*
X158771000Y-67965000D02*
X157771000Y-68965000D01*
X157771000Y-68965000D02*
X157771000Y-71765000D01*
D13*
X139921000Y-89495000D02*
X139921000Y-63975000D01*
X139921000Y-63975000D02*
X162901000Y-63975000D01*
X162901000Y-89495000D02*
X162901000Y-63975000D01*
X160241000Y-89495000D02*
X160241000Y-66635000D01*
X160241000Y-66635000D02*
X142581000Y-66635000D01*
X142581000Y-89495000D02*
X142581000Y-66635000D01*
X142581000Y-89495000D02*
X142581000Y-82685000D01*
X162901000Y-89495000D02*
X160241000Y-89495000D01*
X139921000Y-89495000D02*
X142581000Y-89495000D01*
X162901000Y-67845000D02*
X162901000Y-66515000D01*
D12*
X159109095Y-90337381D02*
X159109095Y-89337381D01*
X158728142Y-89337381D01*
X158632904Y-89385000D01*
X158585285Y-89432619D01*
X158537666Y-89527857D01*
X158537666Y-89670714D01*
X158585285Y-89765952D01*
X158632904Y-89813571D01*
X158728142Y-89861190D01*
X159109095Y-89861190D01*
X157585285Y-90337381D02*
X158156714Y-90337381D01*
X157871000Y-90337381D02*
X157871000Y-89337381D01*
X157966238Y-89480238D01*
X158061476Y-89575476D01*
X158156714Y-89623095D01*
X145904333Y-69793572D02*
X145904333Y-70174524D01*
X146132905Y-69717381D02*
X145332905Y-69984048D01*
X146132905Y-70250715D01*
X145332905Y-70441191D02*
X145332905Y-70974524D01*
X146132905Y-70631667D01*
X157204333Y-69069762D02*
X157204333Y-69450714D01*
X157432905Y-68993571D02*
X156632905Y-69260238D01*
X157432905Y-69526905D01*
X157432905Y-70250714D02*
X157051952Y-69984047D01*
X157432905Y-69793571D02*
X156632905Y-69793571D01*
X156632905Y-70098333D01*
X156671000Y-70174524D01*
X156709095Y-70212619D01*
X156785286Y-70250714D01*
X156899571Y-70250714D01*
X156975762Y-70212619D01*
X157013857Y-70174524D01*
X157051952Y-70098333D01*
X157051952Y-69793571D01*
X157013857Y-70593571D02*
X157013857Y-70860238D01*
X157432905Y-70974524D02*
X157432905Y-70593571D01*
X156632905Y-70593571D01*
X156632905Y-70974524D01*
X157013857Y-71584048D02*
X157013857Y-71317381D01*
X157432905Y-71317381D02*
X156632905Y-71317381D01*
X156632905Y-71698334D01*
X142971000Y-87555477D02*
X142932905Y-87479286D01*
X142932905Y-87365001D01*
X142971000Y-87250715D01*
X143047190Y-87174524D01*
X143123381Y-87136429D01*
X143275762Y-87098334D01*
X143390048Y-87098334D01*
X143542429Y-87136429D01*
X143618619Y-87174524D01*
X143694810Y-87250715D01*
X143732905Y-87365001D01*
X143732905Y-87441191D01*
X143694810Y-87555477D01*
X143656714Y-87593572D01*
X143390048Y-87593572D01*
X143390048Y-87441191D01*
X143732905Y-87936429D02*
X142932905Y-87936429D01*
X143732905Y-88393572D01*
X142932905Y-88393572D01*
X143732905Y-88774524D02*
X142932905Y-88774524D01*
X142932905Y-88965000D01*
X142971000Y-89079286D01*
X143047190Y-89155477D01*
X143123381Y-89193572D01*
X143275762Y-89231667D01*
X143390048Y-89231667D01*
X143542429Y-89193572D01*
X143618619Y-89155477D01*
X143694810Y-89079286D01*
X143732905Y-88965000D01*
X143732905Y-88774524D01*
X143732905Y-85226905D02*
X143351952Y-84960238D01*
X143732905Y-84769762D02*
X142932905Y-84769762D01*
X142932905Y-85074524D01*
X142971000Y-85150715D01*
X143009095Y-85188810D01*
X143085286Y-85226905D01*
X143199571Y-85226905D01*
X143275762Y-85188810D01*
X143313857Y-85150715D01*
X143351952Y-85074524D01*
X143351952Y-84769762D01*
X143694810Y-85531667D02*
X143732905Y-85645953D01*
X143732905Y-85836429D01*
X143694810Y-85912619D01*
X143656714Y-85950715D01*
X143580524Y-85988810D01*
X143504333Y-85988810D01*
X143428143Y-85950715D01*
X143390048Y-85912619D01*
X143351952Y-85836429D01*
X143313857Y-85684048D01*
X143275762Y-85607857D01*
X143237667Y-85569762D01*
X143161476Y-85531667D01*
X143085286Y-85531667D01*
X143009095Y-85569762D01*
X142971000Y-85607857D01*
X142932905Y-85684048D01*
X142932905Y-85874524D01*
X142971000Y-85988810D01*
X142932905Y-86217381D02*
X142932905Y-86674524D01*
X143732905Y-86445953D02*
X142932905Y-86445953D01*
X143732905Y-82474524D02*
X142932905Y-82474524D01*
X142932905Y-82665000D01*
X142971000Y-82779286D01*
X143047190Y-82855477D01*
X143123381Y-82893572D01*
X143275762Y-82931667D01*
X143390048Y-82931667D01*
X143542429Y-82893572D01*
X143618619Y-82855477D01*
X143694810Y-82779286D01*
X143732905Y-82665000D01*
X143732905Y-82474524D01*
X142932905Y-83617381D02*
X142932905Y-83465000D01*
X142971000Y-83388810D01*
X143009095Y-83350715D01*
X143123381Y-83274524D01*
X143275762Y-83236429D01*
X143580524Y-83236429D01*
X143656714Y-83274524D01*
X143694810Y-83312619D01*
X143732905Y-83388810D01*
X143732905Y-83541191D01*
X143694810Y-83617381D01*
X143656714Y-83655477D01*
X143580524Y-83693572D01*
X143390048Y-83693572D01*
X143313857Y-83655477D01*
X143275762Y-83617381D01*
X143237667Y-83541191D01*
X143237667Y-83388810D01*
X143275762Y-83312619D01*
X143313857Y-83274524D01*
X143390048Y-83236429D01*
X143732905Y-79974524D02*
X142932905Y-79974524D01*
X142932905Y-80165000D01*
X142971000Y-80279286D01*
X143047190Y-80355477D01*
X143123381Y-80393572D01*
X143275762Y-80431667D01*
X143390048Y-80431667D01*
X143542429Y-80393572D01*
X143618619Y-80355477D01*
X143694810Y-80279286D01*
X143732905Y-80165000D01*
X143732905Y-79974524D01*
X142932905Y-81155477D02*
X142932905Y-80774524D01*
X143313857Y-80736429D01*
X143275762Y-80774524D01*
X143237667Y-80850715D01*
X143237667Y-81041191D01*
X143275762Y-81117381D01*
X143313857Y-81155477D01*
X143390048Y-81193572D01*
X143580524Y-81193572D01*
X143656714Y-81155477D01*
X143694810Y-81117381D01*
X143732905Y-81041191D01*
X143732905Y-80850715D01*
X143694810Y-80774524D01*
X143656714Y-80736429D01*
X143732905Y-77374524D02*
X142932905Y-77374524D01*
X142932905Y-77565000D01*
X142971000Y-77679286D01*
X143047190Y-77755477D01*
X143123381Y-77793572D01*
X143275762Y-77831667D01*
X143390048Y-77831667D01*
X143542429Y-77793572D01*
X143618619Y-77755477D01*
X143694810Y-77679286D01*
X143732905Y-77565000D01*
X143732905Y-77374524D01*
X143199571Y-78517381D02*
X143732905Y-78517381D01*
X142894810Y-78326905D02*
X143466238Y-78136429D01*
X143466238Y-78631667D01*
X143732905Y-74874524D02*
X142932905Y-74874524D01*
X142932905Y-75065000D01*
X142971000Y-75179286D01*
X143047190Y-75255477D01*
X143123381Y-75293572D01*
X143275762Y-75331667D01*
X143390048Y-75331667D01*
X143542429Y-75293572D01*
X143618619Y-75255477D01*
X143694810Y-75179286D01*
X143732905Y-75065000D01*
X143732905Y-74874524D01*
X142932905Y-75598334D02*
X142932905Y-76093572D01*
X143237667Y-75826905D01*
X143237667Y-75941191D01*
X143275762Y-76017381D01*
X143313857Y-76055477D01*
X143390048Y-76093572D01*
X143580524Y-76093572D01*
X143656714Y-76055477D01*
X143694810Y-76017381D01*
X143732905Y-75941191D01*
X143732905Y-75712619D01*
X143694810Y-75636429D01*
X143656714Y-75598334D01*
X143732905Y-72374524D02*
X142932905Y-72374524D01*
X142932905Y-72565000D01*
X142971000Y-72679286D01*
X143047190Y-72755477D01*
X143123381Y-72793572D01*
X143275762Y-72831667D01*
X143390048Y-72831667D01*
X143542429Y-72793572D01*
X143618619Y-72755477D01*
X143694810Y-72679286D01*
X143732905Y-72565000D01*
X143732905Y-72374524D01*
X143009095Y-73136429D02*
X142971000Y-73174524D01*
X142932905Y-73250715D01*
X142932905Y-73441191D01*
X142971000Y-73517381D01*
X143009095Y-73555477D01*
X143085286Y-73593572D01*
X143161476Y-73593572D01*
X143275762Y-73555477D01*
X143732905Y-73098334D01*
X143732905Y-73593572D01*
X142932905Y-69374523D02*
X142932905Y-69831666D01*
X143732905Y-69603095D02*
X142932905Y-69603095D01*
X142932905Y-70022143D02*
X143732905Y-70555476D01*
X142932905Y-70555476D02*
X143732905Y-70022143D01*
X142932905Y-71012619D02*
X142932905Y-71088810D01*
X142971000Y-71165000D01*
X143009095Y-71203095D01*
X143085286Y-71241191D01*
X143237667Y-71279286D01*
X143428143Y-71279286D01*
X143580524Y-71241191D01*
X143656714Y-71203095D01*
X143694810Y-71165000D01*
X143732905Y-71088810D01*
X143732905Y-71012619D01*
X143694810Y-70936429D01*
X143656714Y-70898333D01*
X143580524Y-70860238D01*
X143428143Y-70822143D01*
X143237667Y-70822143D01*
X143085286Y-70860238D01*
X143009095Y-70898333D01*
X142971000Y-70936429D01*
X142932905Y-71012619D01*
X143732905Y-67350714D02*
X143351952Y-67084047D01*
X143732905Y-66893571D02*
X142932905Y-66893571D01*
X142932905Y-67198333D01*
X142971000Y-67274524D01*
X143009095Y-67312619D01*
X143085286Y-67350714D01*
X143199571Y-67350714D01*
X143275762Y-67312619D01*
X143313857Y-67274524D01*
X143351952Y-67198333D01*
X143351952Y-66893571D01*
X142932905Y-67617381D02*
X143732905Y-68150714D01*
X142932905Y-68150714D02*
X143732905Y-67617381D01*
X142932905Y-68607857D02*
X142932905Y-68684048D01*
X142971000Y-68760238D01*
X143009095Y-68798333D01*
X143085286Y-68836429D01*
X143237667Y-68874524D01*
X143428143Y-68874524D01*
X143580524Y-68836429D01*
X143656714Y-68798333D01*
X143694810Y-68760238D01*
X143732905Y-68684048D01*
X143732905Y-68607857D01*
X143694810Y-68531667D01*
X143656714Y-68493571D01*
X143580524Y-68455476D01*
X143428143Y-68417381D01*
X143237667Y-68417381D01*
X143085286Y-68455476D01*
X143009095Y-68493571D01*
X142971000Y-68531667D01*
X142932905Y-68607857D01*
X145204333Y-67093572D02*
X145204333Y-67474524D01*
X145432905Y-67017381D02*
X144632905Y-67284048D01*
X145432905Y-67550715D01*
X144632905Y-68160238D02*
X144632905Y-68007857D01*
X144671000Y-67931667D01*
X144709095Y-67893572D01*
X144823381Y-67817381D01*
X144975762Y-67779286D01*
X145280524Y-67779286D01*
X145356714Y-67817381D01*
X145394810Y-67855476D01*
X145432905Y-67931667D01*
X145432905Y-68084048D01*
X145394810Y-68160238D01*
X145356714Y-68198334D01*
X145280524Y-68236429D01*
X145090048Y-68236429D01*
X145013857Y-68198334D01*
X144975762Y-68160238D01*
X144937667Y-68084048D01*
X144937667Y-67931667D01*
X144975762Y-67855476D01*
X145013857Y-67817381D01*
X145090048Y-67779286D01*
X146694810Y-67112619D02*
X146732905Y-67226905D01*
X146732905Y-67417381D01*
X146694810Y-67493571D01*
X146656714Y-67531667D01*
X146580524Y-67569762D01*
X146504333Y-67569762D01*
X146428143Y-67531667D01*
X146390048Y-67493571D01*
X146351952Y-67417381D01*
X146313857Y-67265000D01*
X146275762Y-67188809D01*
X146237667Y-67150714D01*
X146161476Y-67112619D01*
X146085286Y-67112619D01*
X146009095Y-67150714D01*
X145971000Y-67188809D01*
X145932905Y-67265000D01*
X145932905Y-67455476D01*
X145971000Y-67569762D01*
X146656714Y-68369762D02*
X146694810Y-68331667D01*
X146732905Y-68217381D01*
X146732905Y-68141191D01*
X146694810Y-68026905D01*
X146618619Y-67950714D01*
X146542429Y-67912619D01*
X146390048Y-67874524D01*
X146275762Y-67874524D01*
X146123381Y-67912619D01*
X146047190Y-67950714D01*
X145971000Y-68026905D01*
X145932905Y-68141191D01*
X145932905Y-68217381D01*
X145971000Y-68331667D01*
X146009095Y-68369762D01*
X146732905Y-69093572D02*
X146732905Y-68712619D01*
X145932905Y-68712619D01*
X149194810Y-67093572D02*
X149232905Y-67207858D01*
X149232905Y-67398334D01*
X149194810Y-67474524D01*
X149156714Y-67512620D01*
X149080524Y-67550715D01*
X149004333Y-67550715D01*
X148928143Y-67512620D01*
X148890048Y-67474524D01*
X148851952Y-67398334D01*
X148813857Y-67245953D01*
X148775762Y-67169762D01*
X148737667Y-67131667D01*
X148661476Y-67093572D01*
X148585286Y-67093572D01*
X148509095Y-67131667D01*
X148471000Y-67169762D01*
X148432905Y-67245953D01*
X148432905Y-67436429D01*
X148471000Y-67550715D01*
X149232905Y-67893572D02*
X148432905Y-67893572D01*
X148432905Y-68084048D01*
X148471000Y-68198334D01*
X148547190Y-68274525D01*
X148623381Y-68312620D01*
X148775762Y-68350715D01*
X148890048Y-68350715D01*
X149042429Y-68312620D01*
X149118619Y-68274525D01*
X149194810Y-68198334D01*
X149232905Y-68084048D01*
X149232905Y-67893572D01*
X149004333Y-68655477D02*
X149004333Y-69036429D01*
X149232905Y-68579286D02*
X148432905Y-68845953D01*
X149232905Y-69112620D01*
X151504333Y-67093572D02*
X151504333Y-67474524D01*
X151732905Y-67017381D02*
X150932905Y-67284048D01*
X151732905Y-67550715D01*
X150932905Y-67741191D02*
X150932905Y-68236429D01*
X151237667Y-67969762D01*
X151237667Y-68084048D01*
X151275762Y-68160238D01*
X151313857Y-68198334D01*
X151390048Y-68236429D01*
X151580524Y-68236429D01*
X151656714Y-68198334D01*
X151694810Y-68160238D01*
X151732905Y-68084048D01*
X151732905Y-67855476D01*
X151694810Y-67779286D01*
X151656714Y-67741191D01*
X154104333Y-67093572D02*
X154104333Y-67474524D01*
X154332905Y-67017381D02*
X153532905Y-67284048D01*
X154332905Y-67550715D01*
X153609095Y-67779286D02*
X153571000Y-67817381D01*
X153532905Y-67893572D01*
X153532905Y-68084048D01*
X153571000Y-68160238D01*
X153609095Y-68198334D01*
X153685286Y-68236429D01*
X153761476Y-68236429D01*
X153875762Y-68198334D01*
X154332905Y-67741191D01*
X154332905Y-68236429D01*
X156604333Y-67093572D02*
X156604333Y-67474524D01*
X156832905Y-67017381D02*
X156032905Y-67284048D01*
X156832905Y-67550715D01*
X156832905Y-68236429D02*
X156832905Y-67779286D01*
X156832905Y-68007857D02*
X156032905Y-68007857D01*
X156147190Y-67931667D01*
X156223381Y-67855476D01*
X156261476Y-67779286D01*
X157904333Y-67093572D02*
X157904333Y-67474524D01*
X158132905Y-67017381D02*
X157332905Y-67284048D01*
X158132905Y-67550715D01*
X157332905Y-67969762D02*
X157332905Y-68045953D01*
X157371000Y-68122143D01*
X157409095Y-68160238D01*
X157485286Y-68198334D01*
X157637667Y-68236429D01*
X157828143Y-68236429D01*
X157980524Y-68198334D01*
X158056714Y-68160238D01*
X158094810Y-68122143D01*
X158132905Y-68045953D01*
X158132905Y-67969762D01*
X158094810Y-67893572D01*
X158056714Y-67855476D01*
X157980524Y-67817381D01*
X157828143Y-67779286D01*
X157637667Y-67779286D01*
X157485286Y-67817381D01*
X157409095Y-67855476D01*
X157371000Y-67893572D01*
X157332905Y-67969762D01*
X159732905Y-66893571D02*
X158932905Y-66893571D01*
X158932905Y-67084047D01*
X158971000Y-67198333D01*
X159047190Y-67274524D01*
X159123381Y-67312619D01*
X159275762Y-67350714D01*
X159390048Y-67350714D01*
X159542429Y-67312619D01*
X159618619Y-67274524D01*
X159694810Y-67198333D01*
X159732905Y-67084047D01*
X159732905Y-66893571D01*
X159732905Y-68112619D02*
X159732905Y-67655476D01*
X159732905Y-67884047D02*
X158932905Y-67884047D01*
X159047190Y-67807857D01*
X159123381Y-67731666D01*
X159161476Y-67655476D01*
X158932905Y-68379286D02*
X158932905Y-68874524D01*
X159237667Y-68607857D01*
X159237667Y-68722143D01*
X159275762Y-68798333D01*
X159313857Y-68836429D01*
X159390048Y-68874524D01*
X159580524Y-68874524D01*
X159656714Y-68836429D01*
X159694810Y-68798333D01*
X159732905Y-68722143D01*
X159732905Y-68493571D01*
X159694810Y-68417381D01*
X159656714Y-68379286D01*
X159732905Y-69393571D02*
X158932905Y-69393571D01*
X158932905Y-69584047D01*
X158971000Y-69698333D01*
X159047190Y-69774524D01*
X159123381Y-69812619D01*
X159275762Y-69850714D01*
X159390048Y-69850714D01*
X159542429Y-69812619D01*
X159618619Y-69774524D01*
X159694810Y-69698333D01*
X159732905Y-69584047D01*
X159732905Y-69393571D01*
X159732905Y-70612619D02*
X159732905Y-70155476D01*
X159732905Y-70384047D02*
X158932905Y-70384047D01*
X159047190Y-70307857D01*
X159123381Y-70231666D01*
X159161476Y-70155476D01*
X159009095Y-70917381D02*
X158971000Y-70955476D01*
X158932905Y-71031667D01*
X158932905Y-71222143D01*
X158971000Y-71298333D01*
X159009095Y-71336429D01*
X159085286Y-71374524D01*
X159161476Y-71374524D01*
X159275762Y-71336429D01*
X159732905Y-70879286D01*
X159732905Y-71374524D01*
X159732905Y-71993571D02*
X158932905Y-71993571D01*
X158932905Y-72184047D01*
X158971000Y-72298333D01*
X159047190Y-72374524D01*
X159123381Y-72412619D01*
X159275762Y-72450714D01*
X159390048Y-72450714D01*
X159542429Y-72412619D01*
X159618619Y-72374524D01*
X159694810Y-72298333D01*
X159732905Y-72184047D01*
X159732905Y-71993571D01*
X159732905Y-73212619D02*
X159732905Y-72755476D01*
X159732905Y-72984047D02*
X158932905Y-72984047D01*
X159047190Y-72907857D01*
X159123381Y-72831666D01*
X159161476Y-72755476D01*
X159732905Y-73974524D02*
X159732905Y-73517381D01*
X159732905Y-73745952D02*
X158932905Y-73745952D01*
X159047190Y-73669762D01*
X159123381Y-73593571D01*
X159161476Y-73517381D01*
X159732905Y-74493571D02*
X158932905Y-74493571D01*
X158932905Y-74684047D01*
X158971000Y-74798333D01*
X159047190Y-74874524D01*
X159123381Y-74912619D01*
X159275762Y-74950714D01*
X159390048Y-74950714D01*
X159542429Y-74912619D01*
X159618619Y-74874524D01*
X159694810Y-74798333D01*
X159732905Y-74684047D01*
X159732905Y-74493571D01*
X159732905Y-75712619D02*
X159732905Y-75255476D01*
X159732905Y-75484047D02*
X158932905Y-75484047D01*
X159047190Y-75407857D01*
X159123381Y-75331666D01*
X159161476Y-75255476D01*
X158932905Y-76207857D02*
X158932905Y-76284048D01*
X158971000Y-76360238D01*
X159009095Y-76398333D01*
X159085286Y-76436429D01*
X159237667Y-76474524D01*
X159428143Y-76474524D01*
X159580524Y-76436429D01*
X159656714Y-76398333D01*
X159694810Y-76360238D01*
X159732905Y-76284048D01*
X159732905Y-76207857D01*
X159694810Y-76131667D01*
X159656714Y-76093571D01*
X159580524Y-76055476D01*
X159428143Y-76017381D01*
X159237667Y-76017381D01*
X159085286Y-76055476D01*
X159009095Y-76093571D01*
X158971000Y-76131667D01*
X158932905Y-76207857D01*
X159732905Y-77374524D02*
X158932905Y-77374524D01*
X158932905Y-77565000D01*
X158971000Y-77679286D01*
X159047190Y-77755477D01*
X159123381Y-77793572D01*
X159275762Y-77831667D01*
X159390048Y-77831667D01*
X159542429Y-77793572D01*
X159618619Y-77755477D01*
X159694810Y-77679286D01*
X159732905Y-77565000D01*
X159732905Y-77374524D01*
X159732905Y-78212619D02*
X159732905Y-78365000D01*
X159694810Y-78441191D01*
X159656714Y-78479286D01*
X159542429Y-78555477D01*
X159390048Y-78593572D01*
X159085286Y-78593572D01*
X159009095Y-78555477D01*
X158971000Y-78517381D01*
X158932905Y-78441191D01*
X158932905Y-78288810D01*
X158971000Y-78212619D01*
X159009095Y-78174524D01*
X159085286Y-78136429D01*
X159275762Y-78136429D01*
X159351952Y-78174524D01*
X159390048Y-78212619D01*
X159428143Y-78288810D01*
X159428143Y-78441191D01*
X159390048Y-78517381D01*
X159351952Y-78555477D01*
X159275762Y-78593572D01*
X159732905Y-79974524D02*
X158932905Y-79974524D01*
X158932905Y-80165000D01*
X158971000Y-80279286D01*
X159047190Y-80355477D01*
X159123381Y-80393572D01*
X159275762Y-80431667D01*
X159390048Y-80431667D01*
X159542429Y-80393572D01*
X159618619Y-80355477D01*
X159694810Y-80279286D01*
X159732905Y-80165000D01*
X159732905Y-79974524D01*
X159275762Y-80888810D02*
X159237667Y-80812619D01*
X159199571Y-80774524D01*
X159123381Y-80736429D01*
X159085286Y-80736429D01*
X159009095Y-80774524D01*
X158971000Y-80812619D01*
X158932905Y-80888810D01*
X158932905Y-81041191D01*
X158971000Y-81117381D01*
X159009095Y-81155477D01*
X159085286Y-81193572D01*
X159123381Y-81193572D01*
X159199571Y-81155477D01*
X159237667Y-81117381D01*
X159275762Y-81041191D01*
X159275762Y-80888810D01*
X159313857Y-80812619D01*
X159351952Y-80774524D01*
X159428143Y-80736429D01*
X159580524Y-80736429D01*
X159656714Y-80774524D01*
X159694810Y-80812619D01*
X159732905Y-80888810D01*
X159732905Y-81041191D01*
X159694810Y-81117381D01*
X159656714Y-81155477D01*
X159580524Y-81193572D01*
X159428143Y-81193572D01*
X159351952Y-81155477D01*
X159313857Y-81117381D01*
X159275762Y-81041191D01*
X159732905Y-82474524D02*
X158932905Y-82474524D01*
X158932905Y-82665000D01*
X158971000Y-82779286D01*
X159047190Y-82855477D01*
X159123381Y-82893572D01*
X159275762Y-82931667D01*
X159390048Y-82931667D01*
X159542429Y-82893572D01*
X159618619Y-82855477D01*
X159694810Y-82779286D01*
X159732905Y-82665000D01*
X159732905Y-82474524D01*
X158932905Y-83198334D02*
X158932905Y-83731667D01*
X159732905Y-83388810D01*
X158932905Y-84674524D02*
X158932905Y-85169762D01*
X159237667Y-84903095D01*
X159237667Y-85017381D01*
X159275762Y-85093571D01*
X159313857Y-85131667D01*
X159390048Y-85169762D01*
X159580524Y-85169762D01*
X159656714Y-85131667D01*
X159694810Y-85093571D01*
X159732905Y-85017381D01*
X159732905Y-84788809D01*
X159694810Y-84712619D01*
X159656714Y-84674524D01*
X158932905Y-85398333D02*
X159732905Y-85665000D01*
X158932905Y-85931667D01*
X158932905Y-86122143D02*
X158932905Y-86617381D01*
X159237667Y-86350714D01*
X159237667Y-86465000D01*
X159275762Y-86541190D01*
X159313857Y-86579286D01*
X159390048Y-86617381D01*
X159580524Y-86617381D01*
X159656714Y-86579286D01*
X159694810Y-86541190D01*
X159732905Y-86465000D01*
X159732905Y-86236428D01*
X159694810Y-86160238D01*
X159656714Y-86122143D01*
X158932905Y-88012620D02*
X158932905Y-87631667D01*
X159313857Y-87593572D01*
X159275762Y-87631667D01*
X159237667Y-87707858D01*
X159237667Y-87898334D01*
X159275762Y-87974524D01*
X159313857Y-88012620D01*
X159390048Y-88050715D01*
X159580524Y-88050715D01*
X159656714Y-88012620D01*
X159694810Y-87974524D01*
X159732905Y-87898334D01*
X159732905Y-87707858D01*
X159694810Y-87631667D01*
X159656714Y-87593572D01*
X158932905Y-88279286D02*
X159732905Y-88545953D01*
X158932905Y-88812620D01*
M02*
