G04 #@! TF.GenerationSoftware,KiCad,Pcbnew,9.0.0*
G04 #@! TF.CreationDate,2025-04-22T13:13:10+02:00*
G04 #@! TF.ProjectId,stimawifi,7374696d-6177-4696-9669-2e6b69636164,rev?*
G04 #@! TF.SameCoordinates,Original*
G04 #@! TF.FileFunction,Copper,L1,Top*
G04 #@! TF.FilePolarity,Positive*
%FSLAX46Y46*%
G04 Gerber Fmt 4.6, Leading zero omitted, Abs format (unit mm)*
G04 Created by KiCad (PCBNEW 9.0.0) date 2025-04-22 13:13:10*
%MOMM*%
%LPD*%
G01*
G04 APERTURE LIST*
G04 #@! TA.AperFunction,ComponentPad*
%ADD10R,2.000000X2.000000*%
G04 #@! TD*
G04 #@! TA.AperFunction,ComponentPad*
%ADD11C,2.000000*%
G04 #@! TD*
G04 #@! TA.AperFunction,ComponentPad*
%ADD12O,2.000000X1.600000*%
G04 #@! TD*
G04 #@! TA.AperFunction,ComponentPad*
%ADD13R,1.700000X1.700000*%
G04 #@! TD*
G04 #@! TA.AperFunction,ComponentPad*
%ADD14O,1.700000X1.700000*%
G04 #@! TD*
G04 #@! TA.AperFunction,Conductor*
%ADD15C,0.406400*%
G04 #@! TD*
G04 APERTURE END LIST*
D10*
X182000000Y-74840000D03*
D11*
X182000000Y-77380000D03*
X182000000Y-79920000D03*
X182000000Y-82460000D03*
X182000000Y-85000000D03*
D10*
X152500000Y-61220000D03*
D12*
X152500000Y-63760000D03*
X152500000Y-66300000D03*
X152500000Y-68840000D03*
X152500000Y-71380000D03*
X152500000Y-73920000D03*
X152500000Y-76460000D03*
X152500000Y-79000000D03*
X175360000Y-79000000D03*
X175360000Y-76460000D03*
X175360000Y-73920000D03*
X175360000Y-71380000D03*
X175360000Y-68840000D03*
X175360000Y-66300000D03*
X175360000Y-63760000D03*
X175360000Y-61220000D03*
D10*
X199500000Y-60250000D03*
D11*
X196960000Y-60250000D03*
X194420000Y-60250000D03*
X191880000Y-60250000D03*
X189340000Y-60250000D03*
D13*
X180500000Y-58000000D03*
D14*
X183040000Y-58000000D03*
D10*
X199500000Y-68250000D03*
D11*
X196960000Y-68250000D03*
X194420000Y-68250000D03*
X191880000Y-68250000D03*
X189340000Y-68250000D03*
D10*
X199500000Y-83250000D03*
D11*
X196960000Y-83250000D03*
X194420000Y-83250000D03*
X191880000Y-83250000D03*
X189340000Y-83250000D03*
D10*
X199500000Y-75750000D03*
D11*
X196960000Y-75750000D03*
X194420000Y-75750000D03*
X191880000Y-75750000D03*
X189340000Y-75750000D03*
D15*
X185431010Y-60068989D02*
X185633864Y-59866136D01*
X185633864Y-59866136D02*
X188000000Y-57500000D01*
X185495000Y-61162074D02*
X185580758Y-61076315D01*
X185580758Y-60733283D02*
X185345251Y-60497776D01*
X184916462Y-60926568D02*
X185151968Y-61162074D01*
X183887368Y-61612635D02*
X183887366Y-61612634D01*
X184172472Y-60752792D02*
X184313896Y-60611369D01*
X183630088Y-62212939D02*
X183458573Y-62041424D01*
X191880000Y-75750000D02*
X191880000Y-83250000D01*
X176660000Y-68840000D02*
X182858270Y-62641730D01*
X184689592Y-62071828D02*
X184775350Y-61986069D01*
X183314891Y-61610373D02*
X183456315Y-61468950D01*
X183930820Y-62513671D02*
X183630088Y-62212939D01*
X184744949Y-60755054D02*
X184744947Y-60755053D01*
X184775350Y-61643037D02*
X184316155Y-61183842D01*
X183845063Y-62942461D02*
X183930820Y-62856703D01*
X185345251Y-60154745D02*
X185431010Y-60068989D01*
X175360000Y-68840000D02*
X176660000Y-68840000D01*
X184316155Y-61183842D02*
X184316156Y-61183844D01*
X184744947Y-60755053D02*
X184916462Y-60926568D01*
X183887366Y-61612634D02*
X184346560Y-62071828D01*
X183458573Y-62041424D02*
X183458575Y-62041425D01*
X191880000Y-68250000D02*
X191880000Y-75750000D01*
X184316156Y-61183844D02*
X184172472Y-61040160D01*
X184601264Y-60611369D02*
X184744949Y-60755054D01*
X188000000Y-57500000D02*
X189130000Y-57500000D01*
X189130000Y-57500000D02*
X191880000Y-60250000D01*
X183201301Y-62641730D02*
X183502032Y-62942461D01*
X183743683Y-61468950D02*
X183887368Y-61612635D01*
X191880000Y-60250000D02*
X191880000Y-68250000D01*
X183458575Y-62041425D02*
X183314891Y-61897741D01*
X184346560Y-62071828D02*
G75*
G03*
X184689592Y-62071828I171516J171517D01*
G01*
X183456315Y-61468950D02*
G75*
G02*
X183743683Y-61468950I143684J-143684D01*
G01*
X183502032Y-62942461D02*
G75*
G03*
X183845063Y-62942462I171516J171516D01*
G01*
X185580758Y-61076315D02*
G75*
G03*
X185580757Y-60733284I-171558J171515D01*
G01*
X185151968Y-61162074D02*
G75*
G03*
X185495000Y-61162074I171516J171517D01*
G01*
X183314891Y-61897741D02*
G75*
G02*
X183314934Y-61610416I143709J143641D01*
G01*
X182858270Y-62641730D02*
G75*
G02*
X183201301Y-62641729I171516J-171516D01*
G01*
X184172472Y-61040160D02*
G75*
G02*
X184172496Y-60752816I143728J143660D01*
G01*
X184313896Y-60611369D02*
G75*
G02*
X184601264Y-60611369I143684J-143684D01*
G01*
X185345251Y-60497776D02*
G75*
G02*
X185345290Y-60154784I171549J171476D01*
G01*
X184775350Y-61986069D02*
G75*
G03*
X184775303Y-61643084I-171550J171469D01*
G01*
X183930820Y-62856703D02*
G75*
G03*
X183930807Y-62513684I-171520J171503D01*
G01*
X188500000Y-55500000D02*
X192210000Y-55500000D01*
X196960000Y-68250000D02*
X196960000Y-60250000D01*
X177700000Y-66300000D02*
X188500000Y-55500000D01*
X196960000Y-75750000D02*
X196960000Y-68250000D01*
X192210000Y-55500000D02*
X196960000Y-60250000D01*
X175360000Y-66300000D02*
X177700000Y-66300000D01*
X196960000Y-83250000D02*
X196960000Y-75750000D01*
X176075800Y-62424200D02*
X180500000Y-58000000D01*
X153704200Y-62424200D02*
X176075800Y-62424200D01*
X152500000Y-61220000D02*
X153704200Y-62424200D01*
G04 #@! TA.AperFunction,Conductor*
G36*
X200504418Y-52000316D02*
G01*
X200775790Y-52019724D01*
X200793291Y-52022241D01*
X201054803Y-52079129D01*
X201071762Y-52084108D01*
X201322524Y-52177638D01*
X201338616Y-52184987D01*
X201573501Y-52313244D01*
X201588375Y-52322802D01*
X201802624Y-52483188D01*
X201815994Y-52494774D01*
X202005225Y-52684005D01*
X202016811Y-52697375D01*
X202177193Y-52911619D01*
X202186758Y-52926503D01*
X202315011Y-53161382D01*
X202322361Y-53177475D01*
X202415888Y-53428229D01*
X202420872Y-53445205D01*
X202477757Y-53706702D01*
X202480275Y-53724214D01*
X202499684Y-53995581D01*
X202500000Y-54004427D01*
X202500000Y-86941844D01*
X202499717Y-86950214D01*
X202482340Y-87207051D01*
X202480085Y-87223639D01*
X202429119Y-87471677D01*
X202424651Y-87487810D01*
X202340736Y-87726733D01*
X202334135Y-87742117D01*
X202216892Y-87971295D01*
X202212828Y-87978617D01*
X200684954Y-90525076D01*
X200679975Y-90532722D01*
X200518410Y-90761920D01*
X200506836Y-90776012D01*
X200316562Y-90975719D01*
X200303045Y-90987962D01*
X200085531Y-91157607D01*
X200070366Y-91167734D01*
X199830324Y-91303643D01*
X199813838Y-91311436D01*
X199556471Y-91410666D01*
X199539020Y-91415958D01*
X199269869Y-91476370D01*
X199251830Y-91479044D01*
X198972176Y-91499664D01*
X198963058Y-91500000D01*
X172005113Y-91500000D01*
X171996259Y-91499683D01*
X171724666Y-91480240D01*
X171707139Y-91477718D01*
X171445417Y-91420733D01*
X171428428Y-91415740D01*
X171177490Y-91322056D01*
X171161386Y-91314694D01*
X170926355Y-91186225D01*
X170911463Y-91176644D01*
X170697127Y-91016006D01*
X170683752Y-91004402D01*
X170494481Y-90814872D01*
X170482898Y-90801485D01*
X170322552Y-90586925D01*
X170312991Y-90572020D01*
X170289548Y-90528992D01*
X170184838Y-90336805D01*
X170177501Y-90320695D01*
X170084161Y-90069627D01*
X170079194Y-90052639D01*
X170022566Y-89790832D01*
X170020070Y-89773323D01*
X170000998Y-89501673D01*
X170000695Y-89492820D01*
X170007024Y-84876866D01*
X170008054Y-84125618D01*
X170020873Y-74775397D01*
X170021199Y-74766613D01*
X170040946Y-74495493D01*
X170043483Y-74478007D01*
X170057146Y-74415553D01*
X170100627Y-74216796D01*
X170105620Y-74199860D01*
X170199327Y-73949428D01*
X170206676Y-73933374D01*
X170335044Y-73698797D01*
X170344605Y-73683948D01*
X170505017Y-73470014D01*
X170516587Y-73456681D01*
X170705788Y-73267730D01*
X170719143Y-73256172D01*
X170933292Y-73096037D01*
X170948136Y-73086507D01*
X171182889Y-72958444D01*
X171198942Y-72951120D01*
X171449513Y-72857738D01*
X171466444Y-72852770D01*
X171727746Y-72795964D01*
X171745224Y-72793453D01*
X172016367Y-72774063D01*
X172025161Y-72773748D01*
X174167818Y-72773628D01*
X174234858Y-72793309D01*
X174280615Y-72846110D01*
X174290563Y-72915268D01*
X174261541Y-72978825D01*
X174255506Y-72985309D01*
X174168027Y-73072788D01*
X174047715Y-73238386D01*
X173954781Y-73420776D01*
X173891522Y-73615465D01*
X173859500Y-73817648D01*
X173859500Y-74022351D01*
X173891522Y-74224534D01*
X173954781Y-74419223D01*
X174002911Y-74513682D01*
X174029629Y-74566119D01*
X174047715Y-74601613D01*
X174168028Y-74767213D01*
X174312786Y-74911971D01*
X174467749Y-75024556D01*
X174478390Y-75032287D01*
X174550424Y-75068990D01*
X174571629Y-75079795D01*
X174622425Y-75127770D01*
X174639220Y-75195591D01*
X174616682Y-75261726D01*
X174571629Y-75300765D01*
X174478650Y-75348140D01*
X174313105Y-75468417D01*
X174313104Y-75468417D01*
X174168417Y-75613104D01*
X174168417Y-75613105D01*
X174048140Y-75778650D01*
X173955244Y-75960970D01*
X173892009Y-76155586D01*
X173883391Y-76210000D01*
X174984722Y-76210000D01*
X174940667Y-76286306D01*
X174910000Y-76400756D01*
X174910000Y-76519244D01*
X174940667Y-76633694D01*
X174984722Y-76710000D01*
X173883391Y-76710000D01*
X173892009Y-76764413D01*
X173955244Y-76959029D01*
X174048140Y-77141349D01*
X174168417Y-77306894D01*
X174168417Y-77306895D01*
X174313104Y-77451582D01*
X174478652Y-77571861D01*
X174571628Y-77619234D01*
X174622425Y-77667208D01*
X174639220Y-77735029D01*
X174616683Y-77801164D01*
X174571630Y-77840203D01*
X174478388Y-77887713D01*
X174312786Y-78008028D01*
X174168028Y-78152786D01*
X174047715Y-78318386D01*
X173954781Y-78500776D01*
X173891522Y-78695465D01*
X173859500Y-78897648D01*
X173859500Y-79102351D01*
X173891522Y-79304534D01*
X173954781Y-79499223D01*
X174047715Y-79681613D01*
X174168028Y-79847213D01*
X174312786Y-79991971D01*
X174467749Y-80104556D01*
X174478390Y-80112287D01*
X174594607Y-80171503D01*
X174660776Y-80205218D01*
X174660778Y-80205218D01*
X174660781Y-80205220D01*
X174765137Y-80239127D01*
X174855465Y-80268477D01*
X174956557Y-80284488D01*
X175057648Y-80300500D01*
X175057649Y-80300500D01*
X175662351Y-80300500D01*
X175662352Y-80300500D01*
X175864534Y-80268477D01*
X176059219Y-80205220D01*
X176241610Y-80112287D01*
X176343725Y-80038097D01*
X176407213Y-79991971D01*
X176407215Y-79991968D01*
X176407219Y-79991966D01*
X176551966Y-79847219D01*
X176551968Y-79847215D01*
X176551971Y-79847213D01*
X176604732Y-79774590D01*
X176672287Y-79681610D01*
X176765220Y-79499219D01*
X176828477Y-79304534D01*
X176860500Y-79102352D01*
X176860500Y-78897648D01*
X176828477Y-78695466D01*
X176765220Y-78500781D01*
X176765218Y-78500778D01*
X176765218Y-78500776D01*
X176731503Y-78434607D01*
X176672287Y-78318390D01*
X176664556Y-78307749D01*
X176551971Y-78152786D01*
X176407213Y-78008028D01*
X176241611Y-77887713D01*
X176148369Y-77840203D01*
X176097574Y-77792229D01*
X176080779Y-77724407D01*
X176103317Y-77658273D01*
X176148371Y-77619234D01*
X176241347Y-77571861D01*
X176406894Y-77451582D01*
X176406895Y-77451582D01*
X176551582Y-77306895D01*
X176551582Y-77306894D01*
X176671859Y-77141349D01*
X176764755Y-76959029D01*
X176827990Y-76764413D01*
X176836609Y-76710000D01*
X175735278Y-76710000D01*
X175779333Y-76633694D01*
X175810000Y-76519244D01*
X175810000Y-76400756D01*
X175779333Y-76286306D01*
X175735278Y-76210000D01*
X176836609Y-76210000D01*
X176827990Y-76155586D01*
X176764755Y-75960970D01*
X176671859Y-75778650D01*
X176551582Y-75613105D01*
X176551582Y-75613104D01*
X176406895Y-75468417D01*
X176241349Y-75348140D01*
X176148370Y-75300765D01*
X176097574Y-75252790D01*
X176080779Y-75184969D01*
X176103316Y-75118835D01*
X176148370Y-75079795D01*
X176241610Y-75032287D01*
X176336196Y-74963567D01*
X176407213Y-74911971D01*
X176407215Y-74911968D01*
X176407219Y-74911966D01*
X176551966Y-74767219D01*
X176551968Y-74767215D01*
X176551971Y-74767213D01*
X176629881Y-74659977D01*
X176672287Y-74601610D01*
X176765220Y-74419219D01*
X176828477Y-74224534D01*
X176860500Y-74022352D01*
X176860500Y-73817648D01*
X176856459Y-73792135D01*
X180499500Y-73792135D01*
X180499500Y-75887870D01*
X180499501Y-75887876D01*
X180505908Y-75947483D01*
X180556202Y-76082328D01*
X180556206Y-76082335D01*
X180642452Y-76197544D01*
X180642455Y-76197547D01*
X180757664Y-76283793D01*
X180765454Y-76288047D01*
X180763646Y-76291357D01*
X180805351Y-76322449D01*
X180829897Y-76387865D01*
X180815180Y-76456167D01*
X180806549Y-76469840D01*
X180716659Y-76593563D01*
X180609433Y-76804003D01*
X180536446Y-77028631D01*
X180499500Y-77261902D01*
X180499500Y-77498097D01*
X180536446Y-77731368D01*
X180609433Y-77955996D01*
X180716657Y-78166433D01*
X180855483Y-78357510D01*
X181022490Y-78524517D01*
X181057127Y-78549683D01*
X181099792Y-78605013D01*
X181105771Y-78674626D01*
X181073165Y-78736421D01*
X181057130Y-78750315D01*
X181039365Y-78763222D01*
X181022488Y-78775484D01*
X180855485Y-78942487D01*
X180855485Y-78942488D01*
X180855483Y-78942490D01*
X180795862Y-79024550D01*
X180716657Y-79133566D01*
X180609433Y-79344003D01*
X180536446Y-79568631D01*
X180499500Y-79801902D01*
X180499500Y-80038097D01*
X180536446Y-80271368D01*
X180609433Y-80495996D01*
X180716657Y-80706433D01*
X180855483Y-80897510D01*
X181022490Y-81064517D01*
X181081716Y-81107547D01*
X181124381Y-81162875D01*
X181132448Y-81217593D01*
X181130893Y-81237340D01*
X181788941Y-81895387D01*
X181768409Y-81900889D01*
X181631592Y-81979881D01*
X181519881Y-82091592D01*
X181440889Y-82228409D01*
X181435387Y-82248940D01*
X180777340Y-81590894D01*
X180717084Y-81673830D01*
X180609897Y-81884197D01*
X180536934Y-82108752D01*
X180500000Y-82341947D01*
X180500000Y-82578052D01*
X180536934Y-82811247D01*
X180609897Y-83035802D01*
X180717087Y-83246174D01*
X180777338Y-83329104D01*
X180777340Y-83329105D01*
X181435387Y-82671058D01*
X181440889Y-82691591D01*
X181519881Y-82828408D01*
X181631592Y-82940119D01*
X181768409Y-83019111D01*
X181788940Y-83024612D01*
X181130893Y-83682658D01*
X181132448Y-83702405D01*
X181118084Y-83770783D01*
X181081717Y-83812451D01*
X181022490Y-83855482D01*
X180855485Y-84022487D01*
X180855485Y-84022488D01*
X180855483Y-84022490D01*
X180845353Y-84036433D01*
X180716657Y-84213566D01*
X180609433Y-84424003D01*
X180536446Y-84648631D01*
X180499500Y-84881902D01*
X180499500Y-85118097D01*
X180536446Y-85351368D01*
X180609433Y-85575996D01*
X180716657Y-85786433D01*
X180855483Y-85977510D01*
X181022490Y-86144517D01*
X181213567Y-86283343D01*
X181312991Y-86334002D01*
X181424003Y-86390566D01*
X181424005Y-86390566D01*
X181424008Y-86390568D01*
X181544412Y-86429689D01*
X181648631Y-86463553D01*
X181881903Y-86500500D01*
X181881908Y-86500500D01*
X182118097Y-86500500D01*
X182351368Y-86463553D01*
X182575992Y-86390568D01*
X182786433Y-86283343D01*
X182977510Y-86144517D01*
X183144517Y-85977510D01*
X183283343Y-85786433D01*
X183390568Y-85575992D01*
X183463553Y-85351368D01*
X183500500Y-85118097D01*
X183500500Y-84881902D01*
X183463553Y-84648631D01*
X183412769Y-84492335D01*
X183390568Y-84424008D01*
X183390566Y-84424005D01*
X183390566Y-84424003D01*
X183290448Y-84227512D01*
X183283343Y-84213567D01*
X183144517Y-84022490D01*
X182977510Y-83855483D01*
X182918282Y-83812451D01*
X182875617Y-83757122D01*
X182867550Y-83702404D01*
X182869104Y-83682657D01*
X182211058Y-83024612D01*
X182231591Y-83019111D01*
X182368408Y-82940119D01*
X182480119Y-82828408D01*
X182559111Y-82691591D01*
X182564612Y-82671059D01*
X183222658Y-83329105D01*
X183222658Y-83329104D01*
X183282914Y-83246169D01*
X183282918Y-83246163D01*
X183390102Y-83035802D01*
X183463065Y-82811247D01*
X183500000Y-82578052D01*
X183500000Y-82341947D01*
X183463065Y-82108752D01*
X183390102Y-81884197D01*
X183282914Y-81673828D01*
X183222658Y-81590894D01*
X183222658Y-81590893D01*
X182564612Y-82248940D01*
X182559111Y-82228409D01*
X182480119Y-82091592D01*
X182368408Y-81979881D01*
X182231591Y-81900889D01*
X182211059Y-81895387D01*
X182869105Y-81237340D01*
X182867551Y-81217594D01*
X182881915Y-81149216D01*
X182918284Y-81107547D01*
X182977510Y-81064517D01*
X183144517Y-80897510D01*
X183283343Y-80706433D01*
X183390568Y-80495992D01*
X183463553Y-80271368D01*
X183488749Y-80112287D01*
X183500500Y-80038097D01*
X183500500Y-79801902D01*
X183463553Y-79568631D01*
X183390566Y-79344003D01*
X183283342Y-79133566D01*
X183144517Y-78942490D01*
X182977510Y-78775483D01*
X182942872Y-78750317D01*
X182900207Y-78694989D01*
X182894228Y-78625375D01*
X182926833Y-78563580D01*
X182942873Y-78549682D01*
X182977510Y-78524517D01*
X183144517Y-78357510D01*
X183283343Y-78166433D01*
X183390568Y-77955992D01*
X183463553Y-77731368D01*
X183475130Y-77658273D01*
X183500500Y-77498097D01*
X183500500Y-77261902D01*
X183463553Y-77028631D01*
X183390566Y-76804003D01*
X183321413Y-76668283D01*
X183283343Y-76593567D01*
X183193449Y-76469839D01*
X183169970Y-76404035D01*
X183185795Y-76335981D01*
X183234744Y-76288410D01*
X183234546Y-76288047D01*
X183235851Y-76287334D01*
X183235901Y-76287286D01*
X183236111Y-76287192D01*
X183242326Y-76283797D01*
X183242331Y-76283796D01*
X183357546Y-76197546D01*
X183443796Y-76082331D01*
X183494091Y-75947483D01*
X183500500Y-75887873D01*
X183500499Y-73792128D01*
X183494091Y-73732517D01*
X183481514Y-73698797D01*
X183443797Y-73597671D01*
X183443793Y-73597664D01*
X183357547Y-73482455D01*
X183357544Y-73482452D01*
X183242335Y-73396206D01*
X183242328Y-73396202D01*
X183107482Y-73345908D01*
X183107483Y-73345908D01*
X183047883Y-73339501D01*
X183047881Y-73339500D01*
X183047873Y-73339500D01*
X183047864Y-73339500D01*
X180952129Y-73339500D01*
X180952123Y-73339501D01*
X180892516Y-73345908D01*
X180757671Y-73396202D01*
X180757664Y-73396206D01*
X180642455Y-73482452D01*
X180642452Y-73482455D01*
X180556206Y-73597664D01*
X180556202Y-73597671D01*
X180505908Y-73732517D01*
X180499501Y-73792116D01*
X180499501Y-73792123D01*
X180499500Y-73792135D01*
X176856459Y-73792135D01*
X176828477Y-73615466D01*
X176822694Y-73597669D01*
X176781217Y-73470014D01*
X176765220Y-73420781D01*
X176765218Y-73420778D01*
X176765218Y-73420776D01*
X176681347Y-73256172D01*
X176672287Y-73238390D01*
X176664556Y-73227749D01*
X176551971Y-73072786D01*
X176464361Y-72985176D01*
X176430876Y-72923853D01*
X176435860Y-72854161D01*
X176477732Y-72798228D01*
X176543196Y-72773811D01*
X176552017Y-72773495D01*
X177500000Y-72773443D01*
X177500000Y-69046543D01*
X177519685Y-68979504D01*
X177536319Y-68958862D01*
X180092829Y-66402352D01*
X182950360Y-63544820D01*
X183011681Y-63511337D01*
X183081373Y-63516321D01*
X183109162Y-63530928D01*
X183198606Y-63593557D01*
X183198608Y-63593558D01*
X183198611Y-63593560D01*
X183348671Y-63663534D01*
X183508603Y-63706388D01*
X183640558Y-63717932D01*
X183673546Y-63720819D01*
X183673547Y-63720819D01*
X183673549Y-63720819D01*
X183694927Y-63718948D01*
X183838490Y-63706389D01*
X183998422Y-63663535D01*
X184148483Y-63593561D01*
X184284113Y-63498592D01*
X184287788Y-63494917D01*
X184293644Y-63489060D01*
X184293649Y-63489058D01*
X184342653Y-63440053D01*
X184365957Y-63416747D01*
X184365991Y-63416719D01*
X184372370Y-63410339D01*
X184372374Y-63410337D01*
X184392103Y-63390604D01*
X184392164Y-63390571D01*
X184428449Y-63354282D01*
X184486985Y-63295740D01*
X184581948Y-63160106D01*
X184651916Y-63010042D01*
X184681287Y-62900409D01*
X184717648Y-62840749D01*
X184768969Y-62812724D01*
X184814015Y-62800654D01*
X184842937Y-62792906D01*
X184842939Y-62792905D01*
X184842951Y-62792902D01*
X184993012Y-62722928D01*
X185128642Y-62627959D01*
X185132317Y-62624284D01*
X185138173Y-62618427D01*
X185138178Y-62618425D01*
X185187182Y-62569420D01*
X185211893Y-62544708D01*
X185212134Y-62544495D01*
X185217003Y-62539622D01*
X185217007Y-62539621D01*
X185236695Y-62519922D01*
X185236896Y-62519813D01*
X185273104Y-62483588D01*
X185273105Y-62483589D01*
X185331628Y-62425041D01*
X185426562Y-62289399D01*
X185496503Y-62139334D01*
X185539327Y-61979405D01*
X185539327Y-61979399D01*
X185540144Y-61976350D01*
X185576498Y-61916684D01*
X185627833Y-61888648D01*
X185648345Y-61883152D01*
X185648347Y-61883151D01*
X185648359Y-61883148D01*
X185798420Y-61813174D01*
X185934050Y-61718205D01*
X185938702Y-61713553D01*
X185943581Y-61708673D01*
X185943586Y-61708671D01*
X185992590Y-61659666D01*
X186016837Y-61635417D01*
X186016953Y-61635317D01*
X186022350Y-61629918D01*
X186022354Y-61629916D01*
X186076335Y-61575919D01*
X186127360Y-61524895D01*
X186127361Y-61524892D01*
X186132010Y-61520244D01*
X186132091Y-61520152D01*
X186136938Y-61515306D01*
X186231882Y-61379683D01*
X186301837Y-61229635D01*
X186344679Y-61069721D01*
X186344679Y-61069720D01*
X186344680Y-61069717D01*
X186359105Y-60904801D01*
X186359105Y-60904793D01*
X186344679Y-60739877D01*
X186339563Y-60720781D01*
X186301835Y-60579959D01*
X186231879Y-60429912D01*
X186222936Y-60417137D01*
X186200615Y-60350932D01*
X186217631Y-60283166D01*
X186236833Y-60258348D01*
X188255163Y-58240019D01*
X188316486Y-58206534D01*
X188342844Y-58203700D01*
X188787156Y-58203700D01*
X188854195Y-58223385D01*
X188874837Y-58240019D01*
X189190027Y-58555209D01*
X189223512Y-58616532D01*
X189218528Y-58686224D01*
X189176656Y-58742157D01*
X189121745Y-58765363D01*
X188988630Y-58786447D01*
X188764003Y-58859433D01*
X188553566Y-58966657D01*
X188486404Y-59015454D01*
X188362490Y-59105483D01*
X188362488Y-59105485D01*
X188362487Y-59105485D01*
X188195485Y-59272487D01*
X188195485Y-59272488D01*
X188195483Y-59272490D01*
X188143462Y-59344091D01*
X188056657Y-59463566D01*
X187949433Y-59674003D01*
X187876446Y-59898631D01*
X187839500Y-60131902D01*
X187839500Y-60368097D01*
X187876446Y-60601368D01*
X187949433Y-60825996D01*
X187989587Y-60904801D01*
X188056657Y-61036433D01*
X188195483Y-61227510D01*
X188362490Y-61394517D01*
X188553567Y-61533343D01*
X188636299Y-61575497D01*
X188764003Y-61640566D01*
X188764005Y-61640566D01*
X188764008Y-61640568D01*
X188884412Y-61679689D01*
X188988631Y-61713553D01*
X189221903Y-61750500D01*
X189221908Y-61750500D01*
X189458097Y-61750500D01*
X189691368Y-61713553D01*
X189706393Y-61708671D01*
X189915992Y-61640568D01*
X190126433Y-61533343D01*
X190317510Y-61394517D01*
X190484517Y-61227510D01*
X190509682Y-61192872D01*
X190565011Y-61150207D01*
X190634625Y-61144228D01*
X190696420Y-61176833D01*
X190710315Y-61192870D01*
X190735483Y-61227510D01*
X190902490Y-61394517D01*
X191093567Y-61533343D01*
X191108595Y-61541000D01*
X191159390Y-61588971D01*
X191176300Y-61651484D01*
X191176300Y-66848514D01*
X191156615Y-66915553D01*
X191108599Y-66958996D01*
X191093572Y-66966653D01*
X191092979Y-66967084D01*
X190902490Y-67105483D01*
X190902488Y-67105485D01*
X190902487Y-67105485D01*
X190735484Y-67272488D01*
X190710318Y-67307127D01*
X190654987Y-67349792D01*
X190585374Y-67355771D01*
X190523579Y-67323165D01*
X190509682Y-67307127D01*
X190498667Y-67291966D01*
X190484517Y-67272490D01*
X190317510Y-67105483D01*
X190126433Y-66966657D01*
X190126425Y-66966653D01*
X189915996Y-66859433D01*
X189691368Y-66786446D01*
X189458097Y-66749500D01*
X189458092Y-66749500D01*
X189221908Y-66749500D01*
X189221903Y-66749500D01*
X188988631Y-66786446D01*
X188764003Y-66859433D01*
X188553566Y-66966657D01*
X188486404Y-67015454D01*
X188362490Y-67105483D01*
X188362488Y-67105485D01*
X188362487Y-67105485D01*
X188195485Y-67272487D01*
X188195485Y-67272488D01*
X188195483Y-67272490D01*
X188152452Y-67331717D01*
X188056657Y-67463566D01*
X187949433Y-67674003D01*
X187876446Y-67898631D01*
X187839500Y-68131902D01*
X187839500Y-68368097D01*
X187876446Y-68601368D01*
X187949433Y-68825996D01*
X188027650Y-68979504D01*
X188056657Y-69036433D01*
X188195483Y-69227510D01*
X188362490Y-69394517D01*
X188553567Y-69533343D01*
X188573896Y-69543701D01*
X188764003Y-69640566D01*
X188764005Y-69640566D01*
X188764008Y-69640568D01*
X188884412Y-69679689D01*
X188988631Y-69713553D01*
X189221903Y-69750500D01*
X189221908Y-69750500D01*
X189458097Y-69750500D01*
X189691368Y-69713553D01*
X189692870Y-69713065D01*
X189915992Y-69640568D01*
X190126433Y-69533343D01*
X190317510Y-69394517D01*
X190484517Y-69227510D01*
X190509682Y-69192872D01*
X190565011Y-69150207D01*
X190634625Y-69144228D01*
X190696420Y-69176833D01*
X190710315Y-69192870D01*
X190735483Y-69227510D01*
X190902490Y-69394517D01*
X191093567Y-69533343D01*
X191108595Y-69541000D01*
X191159390Y-69588971D01*
X191176300Y-69651484D01*
X191176300Y-74348514D01*
X191156615Y-74415553D01*
X191108599Y-74458996D01*
X191093572Y-74466653D01*
X191092979Y-74467084D01*
X190902490Y-74605483D01*
X190902488Y-74605485D01*
X190902487Y-74605485D01*
X190735484Y-74772488D01*
X190710318Y-74807127D01*
X190654987Y-74849792D01*
X190585374Y-74855771D01*
X190523579Y-74823165D01*
X190509682Y-74807127D01*
X190486629Y-74775397D01*
X190484517Y-74772490D01*
X190317510Y-74605483D01*
X190126433Y-74466657D01*
X190126425Y-74466653D01*
X189915996Y-74359433D01*
X189691368Y-74286446D01*
X189458097Y-74249500D01*
X189458092Y-74249500D01*
X189221908Y-74249500D01*
X189221903Y-74249500D01*
X188988631Y-74286446D01*
X188764003Y-74359433D01*
X188553566Y-74466657D01*
X188486404Y-74515454D01*
X188362490Y-74605483D01*
X188362488Y-74605485D01*
X188362487Y-74605485D01*
X188195485Y-74772487D01*
X188195485Y-74772488D01*
X188195483Y-74772490D01*
X188152452Y-74831717D01*
X188056657Y-74963566D01*
X187949433Y-75174003D01*
X187876446Y-75398631D01*
X187839500Y-75631902D01*
X187839500Y-75868097D01*
X187876446Y-76101368D01*
X187949433Y-76325996D01*
X188047899Y-76519244D01*
X188056657Y-76536433D01*
X188195483Y-76727510D01*
X188362490Y-76894517D01*
X188553567Y-77033343D01*
X188636299Y-77075497D01*
X188764003Y-77140566D01*
X188764005Y-77140566D01*
X188764008Y-77140568D01*
X188884412Y-77179689D01*
X188988631Y-77213553D01*
X189221903Y-77250500D01*
X189221908Y-77250500D01*
X189458097Y-77250500D01*
X189691368Y-77213553D01*
X189692870Y-77213065D01*
X189915992Y-77140568D01*
X190126433Y-77033343D01*
X190317510Y-76894517D01*
X190484517Y-76727510D01*
X190509682Y-76692872D01*
X190565011Y-76650207D01*
X190634625Y-76644228D01*
X190696420Y-76676833D01*
X190710315Y-76692870D01*
X190735483Y-76727510D01*
X190902490Y-76894517D01*
X191093567Y-77033343D01*
X191108595Y-77041000D01*
X191159390Y-77088971D01*
X191176300Y-77151484D01*
X191176300Y-81848514D01*
X191156615Y-81915553D01*
X191108599Y-81958996D01*
X191093572Y-81966653D01*
X191037126Y-82007664D01*
X190902490Y-82105483D01*
X190902488Y-82105485D01*
X190902487Y-82105485D01*
X190735484Y-82272488D01*
X190710318Y-82307127D01*
X190654987Y-82349792D01*
X190585374Y-82355771D01*
X190523579Y-82323165D01*
X190509682Y-82307127D01*
X190484517Y-82272490D01*
X190317510Y-82105483D01*
X190126433Y-81966657D01*
X190126425Y-81966653D01*
X189915996Y-81859433D01*
X189691368Y-81786446D01*
X189458097Y-81749500D01*
X189458092Y-81749500D01*
X189221908Y-81749500D01*
X189221903Y-81749500D01*
X188988631Y-81786446D01*
X188764003Y-81859433D01*
X188553566Y-81966657D01*
X188486404Y-82015454D01*
X188362490Y-82105483D01*
X188362488Y-82105485D01*
X188362487Y-82105485D01*
X188195485Y-82272487D01*
X188195485Y-82272488D01*
X188195483Y-82272490D01*
X188152452Y-82331717D01*
X188056657Y-82463566D01*
X187949433Y-82674003D01*
X187876446Y-82898631D01*
X187839500Y-83131902D01*
X187839500Y-83368097D01*
X187876446Y-83601368D01*
X187949433Y-83825996D01*
X187964458Y-83855483D01*
X188056657Y-84036433D01*
X188195483Y-84227510D01*
X188362490Y-84394517D01*
X188553567Y-84533343D01*
X188652991Y-84584002D01*
X188764003Y-84640566D01*
X188764005Y-84640566D01*
X188764008Y-84640568D01*
X188884412Y-84679689D01*
X188988631Y-84713553D01*
X189221903Y-84750500D01*
X189221908Y-84750500D01*
X189458097Y-84750500D01*
X189691368Y-84713553D01*
X189692870Y-84713065D01*
X189915992Y-84640568D01*
X190126433Y-84533343D01*
X190317510Y-84394517D01*
X190484517Y-84227510D01*
X190509682Y-84192872D01*
X190565011Y-84150207D01*
X190634625Y-84144228D01*
X190696420Y-84176833D01*
X190710315Y-84192870D01*
X190735483Y-84227510D01*
X190902490Y-84394517D01*
X191093567Y-84533343D01*
X191192991Y-84584002D01*
X191304003Y-84640566D01*
X191304005Y-84640566D01*
X191304008Y-84640568D01*
X191424412Y-84679689D01*
X191528631Y-84713553D01*
X191761903Y-84750500D01*
X191761908Y-84750500D01*
X191998097Y-84750500D01*
X192231368Y-84713553D01*
X192232870Y-84713065D01*
X192455992Y-84640568D01*
X192666433Y-84533343D01*
X192857510Y-84394517D01*
X193024517Y-84227510D01*
X193071370Y-84163022D01*
X193075713Y-84158199D01*
X193100150Y-84143142D01*
X193122877Y-84125618D01*
X193130393Y-84124509D01*
X193135199Y-84121549D01*
X193148730Y-84121806D01*
X193177594Y-84117551D01*
X193197340Y-84119105D01*
X193855387Y-83461058D01*
X193860889Y-83481591D01*
X193939881Y-83618408D01*
X194051592Y-83730119D01*
X194188409Y-83809111D01*
X194208940Y-83814612D01*
X193550893Y-84472658D01*
X193633828Y-84532914D01*
X193844197Y-84640102D01*
X194068752Y-84713065D01*
X194068751Y-84713065D01*
X194301948Y-84750000D01*
X194538052Y-84750000D01*
X194771247Y-84713065D01*
X194995802Y-84640102D01*
X195206163Y-84532918D01*
X195206169Y-84532914D01*
X195289104Y-84472658D01*
X195289105Y-84472658D01*
X194631058Y-83814612D01*
X194651591Y-83809111D01*
X194788408Y-83730119D01*
X194900119Y-83618408D01*
X194979111Y-83481591D01*
X194984612Y-83461058D01*
X195642657Y-84119104D01*
X195662404Y-84117550D01*
X195730781Y-84131914D01*
X195772451Y-84168282D01*
X195815483Y-84227510D01*
X195982490Y-84394517D01*
X196173567Y-84533343D01*
X196272991Y-84584002D01*
X196384003Y-84640566D01*
X196384005Y-84640566D01*
X196384008Y-84640568D01*
X196504412Y-84679689D01*
X196608631Y-84713553D01*
X196841903Y-84750500D01*
X196841908Y-84750500D01*
X197078097Y-84750500D01*
X197311368Y-84713553D01*
X197312870Y-84713065D01*
X197535992Y-84640568D01*
X197746433Y-84533343D01*
X197870161Y-84443448D01*
X197935964Y-84419970D01*
X198004018Y-84435795D01*
X198051589Y-84484744D01*
X198051953Y-84484546D01*
X198052665Y-84485851D01*
X198052713Y-84485900D01*
X198052807Y-84486111D01*
X198056206Y-84492335D01*
X198142452Y-84607544D01*
X198142455Y-84607547D01*
X198257664Y-84693793D01*
X198257671Y-84693797D01*
X198392517Y-84744091D01*
X198392516Y-84744091D01*
X198399444Y-84744835D01*
X198452127Y-84750500D01*
X200547872Y-84750499D01*
X200607483Y-84744091D01*
X200742331Y-84693796D01*
X200857546Y-84607546D01*
X200943796Y-84492331D01*
X200994091Y-84357483D01*
X201000500Y-84297873D01*
X201000499Y-82202128D01*
X200994091Y-82142517D01*
X200981497Y-82108752D01*
X200943797Y-82007671D01*
X200943793Y-82007664D01*
X200857547Y-81892455D01*
X200857544Y-81892452D01*
X200742335Y-81806206D01*
X200742328Y-81806202D01*
X200607482Y-81755908D01*
X200607483Y-81755908D01*
X200547883Y-81749501D01*
X200547881Y-81749500D01*
X200547873Y-81749500D01*
X200547864Y-81749500D01*
X198452129Y-81749500D01*
X198452123Y-81749501D01*
X198392516Y-81755908D01*
X198257671Y-81806202D01*
X198257664Y-81806206D01*
X198142455Y-81892452D01*
X198142452Y-81892455D01*
X198056206Y-82007664D01*
X198051953Y-82015454D01*
X198048707Y-82013682D01*
X198044629Y-82019104D01*
X198033850Y-82040671D01*
X198024007Y-82046518D01*
X198017125Y-82055669D01*
X197994514Y-82064043D01*
X197973783Y-82076361D01*
X197962340Y-82075959D01*
X197951605Y-82079935D01*
X197928054Y-82074755D01*
X197903957Y-82073909D01*
X197888790Y-82066119D01*
X197883366Y-82064926D01*
X197872386Y-82058130D01*
X197871254Y-82057345D01*
X197746433Y-81966657D01*
X197723939Y-81955196D01*
X197717042Y-81950413D01*
X197700153Y-81929482D01*
X197680607Y-81911020D01*
X197678261Y-81902350D01*
X197673168Y-81896037D01*
X197670912Y-81875180D01*
X197663700Y-81848514D01*
X197663700Y-77151484D01*
X197683385Y-77084445D01*
X197731404Y-77041000D01*
X197746433Y-77033343D01*
X197870161Y-76943448D01*
X197935964Y-76919970D01*
X198004018Y-76935795D01*
X198051589Y-76984744D01*
X198051953Y-76984546D01*
X198052665Y-76985851D01*
X198052713Y-76985900D01*
X198052807Y-76986111D01*
X198056206Y-76992335D01*
X198142452Y-77107544D01*
X198142455Y-77107547D01*
X198257664Y-77193793D01*
X198257671Y-77193797D01*
X198392517Y-77244091D01*
X198392516Y-77244091D01*
X198399444Y-77244835D01*
X198452127Y-77250500D01*
X200547872Y-77250499D01*
X200607483Y-77244091D01*
X200742331Y-77193796D01*
X200857546Y-77107546D01*
X200943796Y-76992331D01*
X200994091Y-76857483D01*
X201000500Y-76797873D01*
X201000499Y-74702128D01*
X200994091Y-74642517D01*
X200980278Y-74605483D01*
X200943797Y-74507671D01*
X200943793Y-74507664D01*
X200857547Y-74392455D01*
X200857544Y-74392452D01*
X200742335Y-74306206D01*
X200742328Y-74306202D01*
X200607482Y-74255908D01*
X200607483Y-74255908D01*
X200547883Y-74249501D01*
X200547881Y-74249500D01*
X200547873Y-74249500D01*
X200547864Y-74249500D01*
X198452129Y-74249500D01*
X198452123Y-74249501D01*
X198392516Y-74255908D01*
X198257671Y-74306202D01*
X198257664Y-74306206D01*
X198142455Y-74392452D01*
X198142452Y-74392455D01*
X198056206Y-74507664D01*
X198051953Y-74515454D01*
X198048707Y-74513682D01*
X198044629Y-74519104D01*
X198033850Y-74540671D01*
X198024007Y-74546518D01*
X198017125Y-74555669D01*
X197994514Y-74564043D01*
X197973783Y-74576361D01*
X197962340Y-74575959D01*
X197951605Y-74579935D01*
X197928054Y-74574755D01*
X197903957Y-74573909D01*
X197888790Y-74566119D01*
X197883366Y-74564926D01*
X197872386Y-74558130D01*
X197871254Y-74557345D01*
X197746433Y-74466657D01*
X197723939Y-74455196D01*
X197717042Y-74450413D01*
X197700153Y-74429482D01*
X197680607Y-74411020D01*
X197678261Y-74402350D01*
X197673168Y-74396037D01*
X197670912Y-74375180D01*
X197663700Y-74348514D01*
X197663700Y-69651484D01*
X197683385Y-69584445D01*
X197731404Y-69541000D01*
X197746433Y-69533343D01*
X197870161Y-69443448D01*
X197935964Y-69419970D01*
X198004018Y-69435795D01*
X198051589Y-69484744D01*
X198051953Y-69484546D01*
X198052665Y-69485851D01*
X198052713Y-69485900D01*
X198052807Y-69486111D01*
X198056206Y-69492335D01*
X198142452Y-69607544D01*
X198142455Y-69607547D01*
X198257664Y-69693793D01*
X198257671Y-69693797D01*
X198392517Y-69744091D01*
X198392516Y-69744091D01*
X198399444Y-69744835D01*
X198452127Y-69750500D01*
X200547872Y-69750499D01*
X200607483Y-69744091D01*
X200742331Y-69693796D01*
X200857546Y-69607546D01*
X200943796Y-69492331D01*
X200994091Y-69357483D01*
X201000500Y-69297873D01*
X201000499Y-67202128D01*
X200995299Y-67153757D01*
X200994091Y-67142516D01*
X200943797Y-67007671D01*
X200943793Y-67007664D01*
X200857547Y-66892455D01*
X200857544Y-66892452D01*
X200742335Y-66806206D01*
X200742328Y-66806202D01*
X200607482Y-66755908D01*
X200607483Y-66755908D01*
X200547883Y-66749501D01*
X200547881Y-66749500D01*
X200547873Y-66749500D01*
X200547864Y-66749500D01*
X198452129Y-66749500D01*
X198452123Y-66749501D01*
X198392516Y-66755908D01*
X198257671Y-66806202D01*
X198257664Y-66806206D01*
X198142455Y-66892452D01*
X198142452Y-66892455D01*
X198056206Y-67007664D01*
X198051953Y-67015454D01*
X198048707Y-67013682D01*
X198044629Y-67019104D01*
X198033850Y-67040671D01*
X198024007Y-67046518D01*
X198017125Y-67055669D01*
X197994514Y-67064043D01*
X197973783Y-67076361D01*
X197962340Y-67075959D01*
X197951605Y-67079935D01*
X197928054Y-67074755D01*
X197903957Y-67073909D01*
X197888790Y-67066119D01*
X197883366Y-67064926D01*
X197872386Y-67058130D01*
X197871254Y-67057345D01*
X197746433Y-66966657D01*
X197723939Y-66955196D01*
X197717042Y-66950413D01*
X197700153Y-66929482D01*
X197680607Y-66911020D01*
X197678261Y-66902350D01*
X197673168Y-66896037D01*
X197670912Y-66875180D01*
X197663700Y-66848514D01*
X197663700Y-61651484D01*
X197683385Y-61584445D01*
X197731404Y-61541000D01*
X197746433Y-61533343D01*
X197870161Y-61443448D01*
X197935964Y-61419970D01*
X198004018Y-61435795D01*
X198051589Y-61484744D01*
X198051953Y-61484546D01*
X198052665Y-61485851D01*
X198052713Y-61485900D01*
X198052807Y-61486111D01*
X198056206Y-61492335D01*
X198142452Y-61607544D01*
X198142455Y-61607547D01*
X198257664Y-61693793D01*
X198257671Y-61693797D01*
X198392517Y-61744091D01*
X198392516Y-61744091D01*
X198399444Y-61744835D01*
X198452127Y-61750500D01*
X200547872Y-61750499D01*
X200607483Y-61744091D01*
X200742331Y-61693796D01*
X200857546Y-61607546D01*
X200943796Y-61492331D01*
X200994091Y-61357483D01*
X201000500Y-61297873D01*
X201000499Y-59202128D01*
X200994091Y-59142517D01*
X200980278Y-59105483D01*
X200943797Y-59007671D01*
X200943793Y-59007664D01*
X200857547Y-58892455D01*
X200857544Y-58892452D01*
X200742335Y-58806206D01*
X200742328Y-58806202D01*
X200607482Y-58755908D01*
X200607483Y-58755908D01*
X200547883Y-58749501D01*
X200547881Y-58749500D01*
X200547873Y-58749500D01*
X200547864Y-58749500D01*
X198452129Y-58749500D01*
X198452123Y-58749501D01*
X198392516Y-58755908D01*
X198257671Y-58806202D01*
X198257664Y-58806206D01*
X198142455Y-58892452D01*
X198142452Y-58892455D01*
X198056206Y-59007664D01*
X198051953Y-59015454D01*
X198048707Y-59013682D01*
X198017125Y-59055669D01*
X197951605Y-59079935D01*
X197883366Y-59064926D01*
X197870158Y-59056549D01*
X197833235Y-59029723D01*
X197746433Y-58966657D01*
X197728428Y-58957483D01*
X197535996Y-58859433D01*
X197311368Y-58786446D01*
X197078097Y-58749500D01*
X197078092Y-58749500D01*
X196841908Y-58749500D01*
X196841903Y-58749500D01*
X196608630Y-58786447D01*
X196592590Y-58791659D01*
X196522749Y-58793654D01*
X196466591Y-58761409D01*
X192760940Y-55055758D01*
X192760920Y-55055736D01*
X192658585Y-54953401D01*
X192543323Y-54876386D01*
X192415264Y-54823343D01*
X192415256Y-54823341D01*
X192279310Y-54796299D01*
X192279308Y-54796299D01*
X192140692Y-54796299D01*
X192134578Y-54796299D01*
X192134558Y-54796300D01*
X188430689Y-54796300D01*
X188294743Y-54823341D01*
X188294733Y-54823344D01*
X188166676Y-54876386D01*
X188051416Y-54953400D01*
X188002408Y-55002408D01*
X187953400Y-55051417D01*
X187953397Y-55051420D01*
X184562215Y-58442601D01*
X184500892Y-58476086D01*
X184431200Y-58471102D01*
X184375267Y-58429230D01*
X184350850Y-58363766D01*
X184356070Y-58320980D01*
X184355619Y-58320872D01*
X184356565Y-58316928D01*
X184356607Y-58316588D01*
X184356758Y-58316121D01*
X184367231Y-58250000D01*
X183473012Y-58250000D01*
X183505925Y-58192993D01*
X183540000Y-58065826D01*
X183540000Y-57934174D01*
X183505925Y-57807007D01*
X183473012Y-57750000D01*
X184367231Y-57750000D01*
X184356757Y-57683873D01*
X184356757Y-57683870D01*
X184291095Y-57481782D01*
X184194620Y-57292442D01*
X184069727Y-57120540D01*
X184069723Y-57120535D01*
X183919464Y-56970276D01*
X183919459Y-56970272D01*
X183747557Y-56845379D01*
X183558215Y-56748903D01*
X183356124Y-56683241D01*
X183290000Y-56672768D01*
X183290000Y-57566988D01*
X183232993Y-57534075D01*
X183105826Y-57500000D01*
X182974174Y-57500000D01*
X182847007Y-57534075D01*
X182790000Y-57566988D01*
X182790000Y-56672768D01*
X182789999Y-56672768D01*
X182723875Y-56683241D01*
X182521784Y-56748903D01*
X182332442Y-56845379D01*
X182160541Y-56970271D01*
X182046865Y-57083947D01*
X181985542Y-57117431D01*
X181915850Y-57112447D01*
X181859917Y-57070575D01*
X181843002Y-57039598D01*
X181793797Y-56907671D01*
X181793793Y-56907664D01*
X181707547Y-56792455D01*
X181707544Y-56792452D01*
X181592335Y-56706206D01*
X181592328Y-56706202D01*
X181457482Y-56655908D01*
X181457483Y-56655908D01*
X181397883Y-56649501D01*
X181397881Y-56649500D01*
X181397873Y-56649500D01*
X181397864Y-56649500D01*
X179602129Y-56649500D01*
X179602123Y-56649501D01*
X179542516Y-56655908D01*
X179407671Y-56706202D01*
X179407664Y-56706206D01*
X179292455Y-56792452D01*
X179292452Y-56792455D01*
X179206206Y-56907664D01*
X179206202Y-56907671D01*
X179155908Y-57042517D01*
X179149501Y-57102116D01*
X179149500Y-57102135D01*
X179149500Y-58303955D01*
X179129815Y-58370994D01*
X179113181Y-58391636D01*
X177711681Y-59793136D01*
X177650358Y-59826621D01*
X177580666Y-59821637D01*
X177524733Y-59779765D01*
X177500316Y-59714301D01*
X177500000Y-59705455D01*
X177500000Y-54004427D01*
X177500316Y-53995581D01*
X177519724Y-53724214D01*
X177522240Y-53706710D01*
X177579130Y-53445192D01*
X177584107Y-53428241D01*
X177677640Y-53177470D01*
X177684985Y-53161388D01*
X177813248Y-52926491D01*
X177822798Y-52911630D01*
X177983195Y-52697366D01*
X177994767Y-52684012D01*
X178184012Y-52494767D01*
X178197366Y-52483195D01*
X178411630Y-52322798D01*
X178426491Y-52313248D01*
X178661388Y-52184985D01*
X178677470Y-52177640D01*
X178928241Y-52084107D01*
X178945192Y-52079130D01*
X179206710Y-52022240D01*
X179224207Y-52019724D01*
X179495582Y-52000316D01*
X179504428Y-52000000D01*
X200495572Y-52000000D01*
X200504418Y-52000316D01*
G37*
G04 #@! TD.AperFunction*
G04 #@! TA.AperFunction,Conductor*
G36*
X195642657Y-76619104D02*
G01*
X195662404Y-76617550D01*
X195730781Y-76631914D01*
X195772451Y-76668282D01*
X195815483Y-76727510D01*
X195982490Y-76894517D01*
X196173567Y-77033343D01*
X196188595Y-77041000D01*
X196239390Y-77088971D01*
X196256300Y-77151484D01*
X196256300Y-81848514D01*
X196236615Y-81915553D01*
X196188599Y-81958996D01*
X196173572Y-81966653D01*
X196117126Y-82007664D01*
X195982490Y-82105483D01*
X195982488Y-82105485D01*
X195982487Y-82105485D01*
X195815482Y-82272490D01*
X195772451Y-82331717D01*
X195717120Y-82374382D01*
X195662405Y-82382448D01*
X195642658Y-82380893D01*
X194984612Y-83038940D01*
X194979111Y-83018409D01*
X194900119Y-82881592D01*
X194788408Y-82769881D01*
X194651591Y-82690889D01*
X194631059Y-82685387D01*
X195289105Y-82027340D01*
X195289104Y-82027338D01*
X195206174Y-81967087D01*
X194995802Y-81859897D01*
X194771247Y-81786934D01*
X194771248Y-81786934D01*
X194538052Y-81750000D01*
X194301948Y-81750000D01*
X194068752Y-81786934D01*
X193844197Y-81859897D01*
X193633830Y-81967084D01*
X193550894Y-82027340D01*
X194208941Y-82685387D01*
X194188409Y-82690889D01*
X194051592Y-82769881D01*
X193939881Y-82881592D01*
X193860889Y-83018409D01*
X193855387Y-83038940D01*
X193197340Y-82380893D01*
X193177593Y-82382448D01*
X193173860Y-82381663D01*
X193170222Y-82382808D01*
X193139936Y-82374537D01*
X193109215Y-82368084D01*
X193105429Y-82365114D01*
X193102821Y-82364402D01*
X193093431Y-82355701D01*
X193075712Y-82341800D01*
X193071370Y-82336978D01*
X193024517Y-82272490D01*
X192857510Y-82105483D01*
X192666433Y-81966657D01*
X192666431Y-81966656D01*
X192666427Y-81966653D01*
X192651401Y-81958996D01*
X192600607Y-81911020D01*
X192583700Y-81848514D01*
X192583700Y-77151484D01*
X192603385Y-77084445D01*
X192651404Y-77041000D01*
X192666433Y-77033343D01*
X192857510Y-76894517D01*
X193024517Y-76727510D01*
X193071370Y-76663022D01*
X193075713Y-76658199D01*
X193100150Y-76643142D01*
X193122877Y-76625618D01*
X193130393Y-76624509D01*
X193135199Y-76621549D01*
X193148730Y-76621806D01*
X193177594Y-76617551D01*
X193197340Y-76619105D01*
X193855387Y-75961058D01*
X193860889Y-75981591D01*
X193939881Y-76118408D01*
X194051592Y-76230119D01*
X194188409Y-76309111D01*
X194208940Y-76314612D01*
X193550893Y-76972658D01*
X193633828Y-77032914D01*
X193844197Y-77140102D01*
X194068752Y-77213065D01*
X194068751Y-77213065D01*
X194301948Y-77250000D01*
X194538052Y-77250000D01*
X194771247Y-77213065D01*
X194995802Y-77140102D01*
X195206163Y-77032918D01*
X195206169Y-77032914D01*
X195289104Y-76972658D01*
X195289105Y-76972658D01*
X194631058Y-76314612D01*
X194651591Y-76309111D01*
X194788408Y-76230119D01*
X194900119Y-76118408D01*
X194979111Y-75981591D01*
X194984612Y-75961058D01*
X195642657Y-76619104D01*
G37*
G04 #@! TD.AperFunction*
G04 #@! TA.AperFunction,Conductor*
G36*
X195642657Y-69119104D02*
G01*
X195662404Y-69117550D01*
X195730781Y-69131914D01*
X195772451Y-69168282D01*
X195815483Y-69227510D01*
X195982490Y-69394517D01*
X196173567Y-69533343D01*
X196188595Y-69541000D01*
X196239390Y-69588971D01*
X196256300Y-69651484D01*
X196256300Y-74348514D01*
X196236615Y-74415553D01*
X196188599Y-74458996D01*
X196173572Y-74466653D01*
X196172979Y-74467084D01*
X195982490Y-74605483D01*
X195982488Y-74605485D01*
X195982487Y-74605485D01*
X195815482Y-74772490D01*
X195772451Y-74831717D01*
X195717120Y-74874382D01*
X195662405Y-74882448D01*
X195642658Y-74880893D01*
X194984612Y-75538940D01*
X194979111Y-75518409D01*
X194900119Y-75381592D01*
X194788408Y-75269881D01*
X194651591Y-75190889D01*
X194631059Y-75185387D01*
X195289105Y-74527340D01*
X195289104Y-74527338D01*
X195206174Y-74467087D01*
X194995802Y-74359897D01*
X194771247Y-74286934D01*
X194771248Y-74286934D01*
X194538052Y-74250000D01*
X194301948Y-74250000D01*
X194068752Y-74286934D01*
X193844197Y-74359897D01*
X193633830Y-74467084D01*
X193550894Y-74527340D01*
X194208941Y-75185387D01*
X194188409Y-75190889D01*
X194051592Y-75269881D01*
X193939881Y-75381592D01*
X193860889Y-75518409D01*
X193855387Y-75538940D01*
X193197340Y-74880893D01*
X193177593Y-74882448D01*
X193173860Y-74881663D01*
X193170222Y-74882808D01*
X193139936Y-74874537D01*
X193109215Y-74868084D01*
X193105429Y-74865114D01*
X193102821Y-74864402D01*
X193093431Y-74855701D01*
X193075712Y-74841800D01*
X193071370Y-74836978D01*
X193024517Y-74772490D01*
X192857510Y-74605483D01*
X192666433Y-74466657D01*
X192666431Y-74466656D01*
X192666427Y-74466653D01*
X192651401Y-74458996D01*
X192600607Y-74411020D01*
X192583700Y-74348514D01*
X192583700Y-69651484D01*
X192603385Y-69584445D01*
X192651404Y-69541000D01*
X192666433Y-69533343D01*
X192857510Y-69394517D01*
X193024517Y-69227510D01*
X193071370Y-69163022D01*
X193075713Y-69158199D01*
X193100150Y-69143142D01*
X193122877Y-69125618D01*
X193130393Y-69124509D01*
X193135199Y-69121549D01*
X193148730Y-69121806D01*
X193177594Y-69117551D01*
X193197340Y-69119105D01*
X193855387Y-68461058D01*
X193860889Y-68481591D01*
X193939881Y-68618408D01*
X194051592Y-68730119D01*
X194188409Y-68809111D01*
X194208940Y-68814612D01*
X193550893Y-69472658D01*
X193633828Y-69532914D01*
X193844197Y-69640102D01*
X194068752Y-69713065D01*
X194068751Y-69713065D01*
X194301948Y-69750000D01*
X194538052Y-69750000D01*
X194771247Y-69713065D01*
X194995802Y-69640102D01*
X195206163Y-69532918D01*
X195206169Y-69532914D01*
X195289104Y-69472658D01*
X195289105Y-69472658D01*
X194631058Y-68814612D01*
X194651591Y-68809111D01*
X194788408Y-68730119D01*
X194900119Y-68618408D01*
X194979111Y-68481591D01*
X194984612Y-68461058D01*
X195642657Y-69119104D01*
G37*
G04 #@! TD.AperFunction*
G04 #@! TA.AperFunction,Conductor*
G36*
X195642657Y-61119104D02*
G01*
X195662404Y-61117550D01*
X195730781Y-61131914D01*
X195772451Y-61168282D01*
X195815483Y-61227510D01*
X195982490Y-61394517D01*
X196173567Y-61533343D01*
X196188595Y-61541000D01*
X196239390Y-61588971D01*
X196256300Y-61651484D01*
X196256300Y-66848514D01*
X196236615Y-66915553D01*
X196188599Y-66958996D01*
X196173572Y-66966653D01*
X196172979Y-66967084D01*
X195982490Y-67105483D01*
X195982488Y-67105485D01*
X195982487Y-67105485D01*
X195815482Y-67272490D01*
X195772451Y-67331717D01*
X195717120Y-67374382D01*
X195662405Y-67382448D01*
X195642658Y-67380893D01*
X194984612Y-68038940D01*
X194979111Y-68018409D01*
X194900119Y-67881592D01*
X194788408Y-67769881D01*
X194651591Y-67690889D01*
X194631059Y-67685387D01*
X195289105Y-67027340D01*
X195289104Y-67027338D01*
X195206174Y-66967087D01*
X194995802Y-66859897D01*
X194771247Y-66786934D01*
X194771248Y-66786934D01*
X194538052Y-66750000D01*
X194301948Y-66750000D01*
X194068752Y-66786934D01*
X193844197Y-66859897D01*
X193633830Y-66967084D01*
X193550894Y-67027340D01*
X194208941Y-67685387D01*
X194188409Y-67690889D01*
X194051592Y-67769881D01*
X193939881Y-67881592D01*
X193860889Y-68018409D01*
X193855387Y-68038940D01*
X193197340Y-67380893D01*
X193177593Y-67382448D01*
X193173860Y-67381663D01*
X193170222Y-67382808D01*
X193139936Y-67374537D01*
X193109215Y-67368084D01*
X193105429Y-67365114D01*
X193102821Y-67364402D01*
X193093431Y-67355701D01*
X193075712Y-67341800D01*
X193071370Y-67336978D01*
X193024517Y-67272490D01*
X192857510Y-67105483D01*
X192666433Y-66966657D01*
X192666431Y-66966656D01*
X192666427Y-66966653D01*
X192651401Y-66958996D01*
X192600607Y-66911020D01*
X192583700Y-66848514D01*
X192583700Y-61651484D01*
X192603385Y-61584445D01*
X192651404Y-61541000D01*
X192666433Y-61533343D01*
X192857510Y-61394517D01*
X193024517Y-61227510D01*
X193071370Y-61163022D01*
X193075713Y-61158199D01*
X193100150Y-61143142D01*
X193122877Y-61125618D01*
X193130393Y-61124509D01*
X193135199Y-61121549D01*
X193148730Y-61121806D01*
X193177594Y-61117551D01*
X193197340Y-61119105D01*
X193855387Y-60461058D01*
X193860889Y-60481591D01*
X193939881Y-60618408D01*
X194051592Y-60730119D01*
X194188409Y-60809111D01*
X194208940Y-60814612D01*
X193550893Y-61472658D01*
X193633828Y-61532914D01*
X193844197Y-61640102D01*
X194068752Y-61713065D01*
X194068751Y-61713065D01*
X194301948Y-61750000D01*
X194538052Y-61750000D01*
X194771247Y-61713065D01*
X194995802Y-61640102D01*
X195206163Y-61532918D01*
X195206169Y-61532914D01*
X195289104Y-61472658D01*
X195289105Y-61472658D01*
X194631058Y-60814612D01*
X194651591Y-60809111D01*
X194788408Y-60730119D01*
X194900119Y-60618408D01*
X194979111Y-60481591D01*
X194984612Y-60461058D01*
X195642657Y-61119104D01*
G37*
G04 #@! TD.AperFunction*
G04 #@! TA.AperFunction,Conductor*
G36*
X183290000Y-59327230D02*
G01*
X183356121Y-59316758D01*
X183356588Y-59316607D01*
X183356778Y-59316601D01*
X183360872Y-59315619D01*
X183361078Y-59316478D01*
X183426429Y-59314604D01*
X183486266Y-59350678D01*
X183517101Y-59413375D01*
X183509145Y-59482790D01*
X183482601Y-59522215D01*
X177711681Y-65293136D01*
X177650358Y-65326621D01*
X177580666Y-65321637D01*
X177524733Y-65279765D01*
X177500316Y-65214301D01*
X177500000Y-65205455D01*
X177500000Y-62046543D01*
X177519685Y-61979504D01*
X177536319Y-61958862D01*
X180108363Y-59386818D01*
X180169686Y-59353333D01*
X180196044Y-59350499D01*
X181397871Y-59350499D01*
X181397872Y-59350499D01*
X181457483Y-59344091D01*
X181592331Y-59293796D01*
X181707546Y-59207546D01*
X181793796Y-59092331D01*
X181843002Y-58960401D01*
X181884872Y-58904468D01*
X181950337Y-58880050D01*
X182018610Y-58894901D01*
X182046865Y-58916053D01*
X182160535Y-59029723D01*
X182160540Y-59029727D01*
X182332442Y-59154620D01*
X182521782Y-59251095D01*
X182723871Y-59316757D01*
X182790000Y-59327231D01*
X182790000Y-58433012D01*
X182847007Y-58465925D01*
X182974174Y-58500000D01*
X183105826Y-58500000D01*
X183232993Y-58465925D01*
X183290000Y-58433012D01*
X183290000Y-59327230D01*
G37*
G04 #@! TD.AperFunction*
G04 #@! TA.AperFunction,Conductor*
G36*
X191934195Y-56223385D02*
G01*
X191954837Y-56240019D01*
X194270465Y-58555647D01*
X194303950Y-58616970D01*
X194298966Y-58686662D01*
X194257094Y-58742595D01*
X194202182Y-58765801D01*
X194068752Y-58786934D01*
X193844197Y-58859897D01*
X193633830Y-58967084D01*
X193550894Y-59027340D01*
X194208941Y-59685387D01*
X194188409Y-59690889D01*
X194051592Y-59769881D01*
X193939881Y-59881592D01*
X193860889Y-60018409D01*
X193855387Y-60038940D01*
X193197340Y-59380893D01*
X193177593Y-59382448D01*
X193109215Y-59368084D01*
X193067547Y-59331716D01*
X193024517Y-59272490D01*
X192857510Y-59105483D01*
X192666433Y-58966657D01*
X192648428Y-58957483D01*
X192455996Y-58859433D01*
X192231368Y-58786446D01*
X191998097Y-58749500D01*
X191998092Y-58749500D01*
X191761908Y-58749500D01*
X191761903Y-58749500D01*
X191528630Y-58786447D01*
X191512590Y-58791659D01*
X191442749Y-58793654D01*
X191386591Y-58761409D01*
X189680940Y-57055758D01*
X189680920Y-57055736D01*
X189578585Y-56953401D01*
X189510134Y-56907664D01*
X189463327Y-56876389D01*
X189388462Y-56845379D01*
X189335265Y-56823344D01*
X189335256Y-56823341D01*
X189335194Y-56823329D01*
X189335194Y-56823328D01*
X189199310Y-56796299D01*
X189199308Y-56796299D01*
X189060692Y-56796299D01*
X189054578Y-56796299D01*
X189054558Y-56796300D01*
X188498244Y-56796300D01*
X188431205Y-56776615D01*
X188385450Y-56723811D01*
X188375506Y-56654653D01*
X188404531Y-56591097D01*
X188410563Y-56584619D01*
X188755163Y-56240019D01*
X188816486Y-56206534D01*
X188842844Y-56203700D01*
X191867156Y-56203700D01*
X191934195Y-56223385D01*
G37*
G04 #@! TD.AperFunction*
M02*
