%TF.GenerationSoftware,KiCad,Pcbnew,9.0.0*%
%TF.CreationDate,2025-04-22T12:49:47+02:00*%
%TF.ProjectId,stimawifi,7374696d-6177-4696-9669-2e6b69636164,rev?*%
%TF.SameCoordinates,Original*%
%TF.FileFunction,Copper,L2,Bot*%
%TF.FilePolarity,Positive*%
%FSLAX46Y46*%
G04 Gerber Fmt 4.6, Leading zero omitted, Abs format (unit mm)*
G04 Created by KiCad (PCBNEW 9.0.0) date 2025-04-22 12:49:47*
%MOMM*%
%LPD*%
G01*
G04 APERTURE LIST*
%TA.AperFunction,ComponentPad*%
%ADD10R,2.000000X2.000000*%
%TD*%
%TA.AperFunction,ComponentPad*%
%ADD11C,2.000000*%
%TD*%
%TA.AperFunction,ComponentPad*%
%ADD12O,2.000000X1.600000*%
%TD*%
%TA.AperFunction,ComponentPad*%
%ADD13R,1.700000X1.700000*%
%TD*%
%TA.AperFunction,ComponentPad*%
%ADD14O,1.700000X1.700000*%
%TD*%
%TA.AperFunction,Conductor*%
%ADD15C,0.508000*%
%TD*%
%TA.AperFunction,Conductor*%
%ADD16C,0.406400*%
%TD*%
G04 APERTURE END LIST*
D10*
%TO.P,J5,1,Pin_1*%
%TO.N,enc CLK*%
X182000000Y-74840000D03*
D11*
%TO.P,J5,2,Pin_2*%
%TO.N,enc A*%
X182000000Y-77380000D03*
%TO.P,J5,3,Pin_3*%
%TO.N,enc B*%
X182000000Y-79920000D03*
%TO.P,J5,4,Pin_4*%
%TO.N,GND*%
X182000000Y-82460000D03*
%TO.P,J5,5,Pin_5*%
%TO.N,5v*%
X182000000Y-85000000D03*
%TD*%
D10*
%TO.P,U1,1,~{RST}*%
%TO.N,Net-(J8-Pin_1)*%
X152500000Y-61220000D03*
D12*
%TO.P,U1,2,A0*%
%TO.N,enc CLK*%
X152500000Y-63760000D03*
%TO.P,U1,3,D0*%
%TO.N,unconnected-(U1-D0-Pad3)*%
X152500000Y-66300000D03*
%TO.P,U1,4,SCK/D5*%
%TO.N,unconnected-(U1-SCK{slash}D5-Pad4)*%
X152500000Y-68840000D03*
%TO.P,U1,5,MISO/D6*%
%TO.N,unconnected-(U1-MISO{slash}D6-Pad5)*%
X152500000Y-71380000D03*
%TO.P,U1,6,MOSI/D7*%
%TO.N,unconnected-(U1-MOSI{slash}D7-Pad6)*%
X152500000Y-73920000D03*
%TO.P,U1,7,CS/D8*%
%TO.N,unconnected-(U1-CS{slash}D8-Pad7)*%
X152500000Y-76460000D03*
%TO.P,U1,8,3V3*%
%TO.N,3v3*%
X152500000Y-79000000D03*
%TO.P,U1,9,5V*%
%TO.N,5v*%
X175360000Y-79000000D03*
%TO.P,U1,10,GND*%
%TO.N,GND*%
X175360000Y-76460000D03*
%TO.P,U1,11,D4*%
%TO.N,unconnected-(U1-D4-Pad11)*%
X175360000Y-73920000D03*
%TO.P,U1,12,D3*%
%TO.N,unconnected-(U1-D3-Pad12)*%
X175360000Y-71380000D03*
%TO.P,U1,13,SDA/D2*%
%TO.N,SDA*%
X175360000Y-68840000D03*
%TO.P,U1,14,SCL/D1*%
%TO.N,SCL*%
X175360000Y-66300000D03*
%TO.P,U1,15,RX*%
%TO.N,enc B*%
X175360000Y-63760000D03*
%TO.P,U1,16,TX*%
%TO.N,enc A*%
X175360000Y-61220000D03*
%TD*%
D10*
%TO.P,J4,1,Pin_1*%
%TO.N,3v3*%
X199500000Y-60250000D03*
D11*
%TO.P,J4,2,Pin_2*%
%TO.N,SCL*%
X196960000Y-60250000D03*
%TO.P,J4,3,Pin_3*%
%TO.N,GND*%
X194420000Y-60250000D03*
%TO.P,J4,4,Pin_4*%
%TO.N,SDA*%
X191880000Y-60250000D03*
%TO.P,J4,5,Pin_5*%
%TO.N,5v*%
X189340000Y-60250000D03*
%TD*%
D13*
%TO.P,J8,1,Pin_1*%
%TO.N,Net-(J8-Pin_1)*%
X180500000Y-58000000D03*
D14*
%TO.P,J8,2,Pin_2*%
%TO.N,GND*%
X183040000Y-58000000D03*
%TD*%
D10*
%TO.P,J3,1,Pin_1*%
%TO.N,3v3*%
X199500000Y-68250000D03*
D11*
%TO.P,J3,2,Pin_2*%
%TO.N,SCL*%
X196960000Y-68250000D03*
%TO.P,J3,3,Pin_3*%
%TO.N,GND*%
X194420000Y-68250000D03*
%TO.P,J3,4,Pin_4*%
%TO.N,SDA*%
X191880000Y-68250000D03*
%TO.P,J3,5,Pin_5*%
%TO.N,5v*%
X189340000Y-68250000D03*
%TD*%
D10*
%TO.P,J1,1,Pin_1*%
%TO.N,3v3*%
X199500000Y-83250000D03*
D11*
%TO.P,J1,2,Pin_2*%
%TO.N,SCL*%
X196960000Y-83250000D03*
%TO.P,J1,3,Pin_3*%
%TO.N,GND*%
X194420000Y-83250000D03*
%TO.P,J1,4,Pin_4*%
%TO.N,SDA*%
X191880000Y-83250000D03*
%TO.P,J1,5,Pin_5*%
%TO.N,5v*%
X189340000Y-83250000D03*
%TD*%
D10*
%TO.P,J2,1,Pin_1*%
%TO.N,3v3*%
X199500000Y-75750000D03*
D11*
%TO.P,J2,2,Pin_2*%
%TO.N,SCL*%
X196960000Y-75750000D03*
%TO.P,J2,3,Pin_3*%
%TO.N,GND*%
X194420000Y-75750000D03*
%TO.P,J2,4,Pin_4*%
%TO.N,SDA*%
X191880000Y-75750000D03*
%TO.P,J2,5,Pin_5*%
%TO.N,5v*%
X189340000Y-75750000D03*
%TD*%
D15*
%TO.N,3v3*%
X199500000Y-83250000D02*
X199500000Y-75750000D01*
X195250000Y-87500000D02*
X199500000Y-83250000D01*
X199500000Y-75750000D02*
X199500000Y-68250000D01*
X152500000Y-79000000D02*
X161000000Y-87500000D01*
X199500000Y-68250000D02*
X199500000Y-60250000D01*
X161000000Y-87500000D02*
X195250000Y-87500000D01*
%TO.N,5v*%
X175360000Y-79000000D02*
X176000000Y-79000000D01*
X182000000Y-85000000D02*
X183500000Y-86500000D01*
X189340000Y-75750000D02*
X189340000Y-68250000D01*
X189340000Y-68250000D02*
X189340000Y-60250000D01*
X189340000Y-83250000D02*
X189340000Y-75750000D01*
X186090000Y-86500000D02*
X189340000Y-83250000D01*
X176000000Y-79000000D02*
X182000000Y-85000000D01*
X183500000Y-86500000D02*
X186090000Y-86500000D01*
D16*
%TO.N,enc A*%
X183404200Y-76244200D02*
X182268400Y-77380000D01*
X175360000Y-61220000D02*
X176766400Y-61220000D01*
X183404200Y-67857800D02*
X183404200Y-76244200D01*
X176766400Y-61220000D02*
X183404200Y-67857800D01*
X182268400Y-77380000D02*
X182000000Y-77380000D01*
%TO.N,enc CLK*%
X152700000Y-63760000D02*
X153904200Y-62555800D01*
X182000000Y-68497004D02*
X182000000Y-74840000D01*
X176058796Y-62555800D02*
X182000000Y-68497004D01*
X152500000Y-63760000D02*
X152700000Y-63760000D01*
X153904200Y-62555800D02*
X176058796Y-62555800D01*
%TO.N,enc B*%
X175360000Y-63760000D02*
X180595800Y-68995800D01*
X180595800Y-68995800D02*
X180595800Y-78515800D01*
X180595800Y-78515800D02*
X182000000Y-79920000D01*
%TD*%
M02*
