M48
; DRILL file {KiCad 9.0.0} date 2025-04-22T13:13:53+0200
; FORMAT={-:-/ absolute / metric / decimal}
; #@! TF.CreationDate,2025-04-22T13:13:53+02:00
; #@! TF.GenerationSoftware,Kicad,Pcbnew,9.0.0
; #@! TF.FileFunction,Plated,1,2,PTH
FMAT,2
METRIC
; #@! TA.AperFunction,Plated,PTH,ComponentDrill
T1C0.900
; #@! TA.AperFunction,Plated,PTH,ComponentDrill
T2C1.000
; #@! TA.AperFunction,Plated,PTH,ComponentDrill
T3C1.200
%
G90
G05
T1
X152.5Y-61.22
X152.5Y-63.76
X152.5Y-66.3
X152.5Y-68.84
X152.5Y-71.38
X152.5Y-73.92
X152.5Y-76.46
X152.5Y-79.0
X175.36Y-61.22
X175.36Y-63.76
X175.36Y-66.3
X175.36Y-68.84
X175.36Y-71.38
X175.36Y-73.92
X175.36Y-76.46
X175.36Y-79.0
T2
X180.5Y-58.0
X183.04Y-58.0
T3
X182.0Y-74.84
X182.0Y-77.38
X182.0Y-79.92
X182.0Y-82.46
X182.0Y-85.0
X189.34Y-60.25
X189.34Y-68.25
X189.34Y-75.75
X189.34Y-83.25
X191.88Y-60.25
X191.88Y-68.25
X191.88Y-75.75
X191.88Y-83.25
X194.42Y-60.25
X194.42Y-68.25
X194.42Y-75.75
X194.42Y-83.25
X196.96Y-60.25
X196.96Y-68.25
X196.96Y-75.75
X196.96Y-83.25
X199.5Y-60.25
X199.5Y-68.25
X199.5Y-75.75
X199.5Y-83.25
M30
