G04 #@! TF.GenerationSoftware,KiCad,Pcbnew,9.0.0*
G04 #@! TF.CreationDate,2025-04-22T13:13:10+02:00*
G04 #@! TF.ProjectId,stimawifi,7374696d-6177-4696-9669-2e6b69636164,rev?*
G04 #@! TF.SameCoordinates,Original*
G04 #@! TF.FileFunction,Legend,Top*
G04 #@! TF.FilePolarity,Positive*
%FSLAX46Y46*%
G04 Gerber Fmt 4.6, Leading zero omitted, Abs format (unit mm)*
G04 Created by KiCad (PCBNEW 9.0.0) date 2025-04-22 13:13:10*
%MOMM*%
%LPD*%
G01*
G04 APERTURE LIST*
%ADD10C,0.200000*%
%ADD11C,0.100000*%
%ADD12C,0.300000*%
%ADD13C,0.125000*%
%ADD14C,0.150000*%
%ADD15C,0.120000*%
%ADD16C,3.200000*%
%ADD17R,2.000000X2.000000*%
%ADD18C,2.000000*%
%ADD19O,2.000000X1.600000*%
%ADD20R,1.700000X1.700000*%
%ADD21O,1.700000X1.700000*%
G04 APERTURE END LIST*
D10*
X172226816Y-71867219D02*
X172226816Y-70867219D01*
X172226816Y-70867219D02*
X172464911Y-70867219D01*
X172464911Y-70867219D02*
X172607768Y-70914838D01*
X172607768Y-70914838D02*
X172703006Y-71010076D01*
X172703006Y-71010076D02*
X172750625Y-71105314D01*
X172750625Y-71105314D02*
X172798244Y-71295790D01*
X172798244Y-71295790D02*
X172798244Y-71438647D01*
X172798244Y-71438647D02*
X172750625Y-71629123D01*
X172750625Y-71629123D02*
X172703006Y-71724361D01*
X172703006Y-71724361D02*
X172607768Y-71819600D01*
X172607768Y-71819600D02*
X172464911Y-71867219D01*
X172464911Y-71867219D02*
X172226816Y-71867219D01*
X173131578Y-70867219D02*
X173750625Y-70867219D01*
X173750625Y-70867219D02*
X173417292Y-71248171D01*
X173417292Y-71248171D02*
X173560149Y-71248171D01*
X173560149Y-71248171D02*
X173655387Y-71295790D01*
X173655387Y-71295790D02*
X173703006Y-71343409D01*
X173703006Y-71343409D02*
X173750625Y-71438647D01*
X173750625Y-71438647D02*
X173750625Y-71676742D01*
X173750625Y-71676742D02*
X173703006Y-71771980D01*
X173703006Y-71771980D02*
X173655387Y-71819600D01*
X173655387Y-71819600D02*
X173560149Y-71867219D01*
X173560149Y-71867219D02*
X173274435Y-71867219D01*
X173274435Y-71867219D02*
X173179197Y-71819600D01*
X173179197Y-71819600D02*
X173131578Y-71771980D01*
X193914838Y-90392231D02*
X193867219Y-90487469D01*
X193867219Y-90487469D02*
X193867219Y-90630326D01*
X193867219Y-90630326D02*
X193914838Y-90773183D01*
X193914838Y-90773183D02*
X194010076Y-90868421D01*
X194010076Y-90868421D02*
X194105314Y-90916040D01*
X194105314Y-90916040D02*
X194295790Y-90963659D01*
X194295790Y-90963659D02*
X194438647Y-90963659D01*
X194438647Y-90963659D02*
X194629123Y-90916040D01*
X194629123Y-90916040D02*
X194724361Y-90868421D01*
X194724361Y-90868421D02*
X194819600Y-90773183D01*
X194819600Y-90773183D02*
X194867219Y-90630326D01*
X194867219Y-90630326D02*
X194867219Y-90535088D01*
X194867219Y-90535088D02*
X194819600Y-90392231D01*
X194819600Y-90392231D02*
X194771980Y-90344612D01*
X194771980Y-90344612D02*
X194438647Y-90344612D01*
X194438647Y-90344612D02*
X194438647Y-90535088D01*
X194867219Y-89916040D02*
X193867219Y-89916040D01*
X193867219Y-89916040D02*
X194867219Y-89344612D01*
X194867219Y-89344612D02*
X193867219Y-89344612D01*
X194867219Y-88868421D02*
X193867219Y-88868421D01*
X193867219Y-88868421D02*
X193867219Y-88630326D01*
X193867219Y-88630326D02*
X193914838Y-88487469D01*
X193914838Y-88487469D02*
X194010076Y-88392231D01*
X194010076Y-88392231D02*
X194105314Y-88344612D01*
X194105314Y-88344612D02*
X194295790Y-88296993D01*
X194295790Y-88296993D02*
X194438647Y-88296993D01*
X194438647Y-88296993D02*
X194629123Y-88344612D01*
X194629123Y-88344612D02*
X194724361Y-88392231D01*
X194724361Y-88392231D02*
X194819600Y-88487469D01*
X194819600Y-88487469D02*
X194867219Y-88630326D01*
X194867219Y-88630326D02*
X194867219Y-88868421D01*
X193914838Y-54606517D02*
X193867219Y-54701755D01*
X193867219Y-54701755D02*
X193867219Y-54844612D01*
X193867219Y-54844612D02*
X193914838Y-54987469D01*
X193914838Y-54987469D02*
X194010076Y-55082707D01*
X194010076Y-55082707D02*
X194105314Y-55130326D01*
X194105314Y-55130326D02*
X194295790Y-55177945D01*
X194295790Y-55177945D02*
X194438647Y-55177945D01*
X194438647Y-55177945D02*
X194629123Y-55130326D01*
X194629123Y-55130326D02*
X194724361Y-55082707D01*
X194724361Y-55082707D02*
X194819600Y-54987469D01*
X194819600Y-54987469D02*
X194867219Y-54844612D01*
X194867219Y-54844612D02*
X194867219Y-54749374D01*
X194867219Y-54749374D02*
X194819600Y-54606517D01*
X194819600Y-54606517D02*
X194771980Y-54558898D01*
X194771980Y-54558898D02*
X194438647Y-54558898D01*
X194438647Y-54558898D02*
X194438647Y-54749374D01*
X194867219Y-54130326D02*
X193867219Y-54130326D01*
X193867219Y-54130326D02*
X194867219Y-53558898D01*
X194867219Y-53558898D02*
X193867219Y-53558898D01*
X194867219Y-53082707D02*
X193867219Y-53082707D01*
X193867219Y-53082707D02*
X193867219Y-52844612D01*
X193867219Y-52844612D02*
X193914838Y-52701755D01*
X193914838Y-52701755D02*
X194010076Y-52606517D01*
X194010076Y-52606517D02*
X194105314Y-52558898D01*
X194105314Y-52558898D02*
X194295790Y-52511279D01*
X194295790Y-52511279D02*
X194438647Y-52511279D01*
X194438647Y-52511279D02*
X194629123Y-52558898D01*
X194629123Y-52558898D02*
X194724361Y-52606517D01*
X194724361Y-52606517D02*
X194819600Y-52701755D01*
X194819600Y-52701755D02*
X194867219Y-52844612D01*
X194867219Y-52844612D02*
X194867219Y-53082707D01*
X154369673Y-69367219D02*
X154369673Y-68367219D01*
X154369673Y-68367219D02*
X154607768Y-68367219D01*
X154607768Y-68367219D02*
X154750625Y-68414838D01*
X154750625Y-68414838D02*
X154845863Y-68510076D01*
X154845863Y-68510076D02*
X154893482Y-68605314D01*
X154893482Y-68605314D02*
X154941101Y-68795790D01*
X154941101Y-68795790D02*
X154941101Y-68938647D01*
X154941101Y-68938647D02*
X154893482Y-69129123D01*
X154893482Y-69129123D02*
X154845863Y-69224361D01*
X154845863Y-69224361D02*
X154750625Y-69319600D01*
X154750625Y-69319600D02*
X154607768Y-69367219D01*
X154607768Y-69367219D02*
X154369673Y-69367219D01*
X155845863Y-68367219D02*
X155369673Y-68367219D01*
X155369673Y-68367219D02*
X155322054Y-68843409D01*
X155322054Y-68843409D02*
X155369673Y-68795790D01*
X155369673Y-68795790D02*
X155464911Y-68748171D01*
X155464911Y-68748171D02*
X155703006Y-68748171D01*
X155703006Y-68748171D02*
X155798244Y-68795790D01*
X155798244Y-68795790D02*
X155845863Y-68843409D01*
X155845863Y-68843409D02*
X155893482Y-68938647D01*
X155893482Y-68938647D02*
X155893482Y-69176742D01*
X155893482Y-69176742D02*
X155845863Y-69271980D01*
X155845863Y-69271980D02*
X155798244Y-69319600D01*
X155798244Y-69319600D02*
X155703006Y-69367219D01*
X155703006Y-69367219D02*
X155464911Y-69367219D01*
X155464911Y-69367219D02*
X155369673Y-69319600D01*
X155369673Y-69319600D02*
X155322054Y-69271980D01*
X154369673Y-66867219D02*
X154369673Y-65867219D01*
X154369673Y-65867219D02*
X154607768Y-65867219D01*
X154607768Y-65867219D02*
X154750625Y-65914838D01*
X154750625Y-65914838D02*
X154845863Y-66010076D01*
X154845863Y-66010076D02*
X154893482Y-66105314D01*
X154893482Y-66105314D02*
X154941101Y-66295790D01*
X154941101Y-66295790D02*
X154941101Y-66438647D01*
X154941101Y-66438647D02*
X154893482Y-66629123D01*
X154893482Y-66629123D02*
X154845863Y-66724361D01*
X154845863Y-66724361D02*
X154750625Y-66819600D01*
X154750625Y-66819600D02*
X154607768Y-66867219D01*
X154607768Y-66867219D02*
X154369673Y-66867219D01*
X155560149Y-65867219D02*
X155655387Y-65867219D01*
X155655387Y-65867219D02*
X155750625Y-65914838D01*
X155750625Y-65914838D02*
X155798244Y-65962457D01*
X155798244Y-65962457D02*
X155845863Y-66057695D01*
X155845863Y-66057695D02*
X155893482Y-66248171D01*
X155893482Y-66248171D02*
X155893482Y-66486266D01*
X155893482Y-66486266D02*
X155845863Y-66676742D01*
X155845863Y-66676742D02*
X155798244Y-66771980D01*
X155798244Y-66771980D02*
X155750625Y-66819600D01*
X155750625Y-66819600D02*
X155655387Y-66867219D01*
X155655387Y-66867219D02*
X155560149Y-66867219D01*
X155560149Y-66867219D02*
X155464911Y-66819600D01*
X155464911Y-66819600D02*
X155417292Y-66771980D01*
X155417292Y-66771980D02*
X155369673Y-66676742D01*
X155369673Y-66676742D02*
X155322054Y-66486266D01*
X155322054Y-66486266D02*
X155322054Y-66248171D01*
X155322054Y-66248171D02*
X155369673Y-66057695D01*
X155369673Y-66057695D02*
X155417292Y-65962457D01*
X155417292Y-65962457D02*
X155464911Y-65914838D01*
X155464911Y-65914838D02*
X155560149Y-65867219D01*
D11*
X186080218Y-77841680D02*
X186556408Y-77841680D01*
X185984980Y-78127395D02*
X186318313Y-77127395D01*
X186318313Y-77127395D02*
X186651646Y-78127395D01*
X179303884Y-87848609D02*
X179637217Y-87848609D01*
X179780074Y-88372419D02*
X179303884Y-88372419D01*
X179303884Y-88372419D02*
X179303884Y-87372419D01*
X179303884Y-87372419D02*
X179780074Y-87372419D01*
X180208646Y-87705752D02*
X180208646Y-88372419D01*
X180208646Y-87800990D02*
X180256265Y-87753371D01*
X180256265Y-87753371D02*
X180351503Y-87705752D01*
X180351503Y-87705752D02*
X180494360Y-87705752D01*
X180494360Y-87705752D02*
X180589598Y-87753371D01*
X180589598Y-87753371D02*
X180637217Y-87848609D01*
X180637217Y-87848609D02*
X180637217Y-88372419D01*
X181541979Y-88324800D02*
X181446741Y-88372419D01*
X181446741Y-88372419D02*
X181256265Y-88372419D01*
X181256265Y-88372419D02*
X181161027Y-88324800D01*
X181161027Y-88324800D02*
X181113408Y-88277180D01*
X181113408Y-88277180D02*
X181065789Y-88181942D01*
X181065789Y-88181942D02*
X181065789Y-87896228D01*
X181065789Y-87896228D02*
X181113408Y-87800990D01*
X181113408Y-87800990D02*
X181161027Y-87753371D01*
X181161027Y-87753371D02*
X181256265Y-87705752D01*
X181256265Y-87705752D02*
X181446741Y-87705752D01*
X181446741Y-87705752D02*
X181541979Y-87753371D01*
X182113408Y-88372419D02*
X182018170Y-88324800D01*
X182018170Y-88324800D02*
X181970551Y-88277180D01*
X181970551Y-88277180D02*
X181922932Y-88181942D01*
X181922932Y-88181942D02*
X181922932Y-87896228D01*
X181922932Y-87896228D02*
X181970551Y-87800990D01*
X181970551Y-87800990D02*
X182018170Y-87753371D01*
X182018170Y-87753371D02*
X182113408Y-87705752D01*
X182113408Y-87705752D02*
X182256265Y-87705752D01*
X182256265Y-87705752D02*
X182351503Y-87753371D01*
X182351503Y-87753371D02*
X182399122Y-87800990D01*
X182399122Y-87800990D02*
X182446741Y-87896228D01*
X182446741Y-87896228D02*
X182446741Y-88181942D01*
X182446741Y-88181942D02*
X182399122Y-88277180D01*
X182399122Y-88277180D02*
X182351503Y-88324800D01*
X182351503Y-88324800D02*
X182256265Y-88372419D01*
X182256265Y-88372419D02*
X182113408Y-88372419D01*
X183303884Y-88372419D02*
X183303884Y-87372419D01*
X183303884Y-88324800D02*
X183208646Y-88372419D01*
X183208646Y-88372419D02*
X183018170Y-88372419D01*
X183018170Y-88372419D02*
X182922932Y-88324800D01*
X182922932Y-88324800D02*
X182875313Y-88277180D01*
X182875313Y-88277180D02*
X182827694Y-88181942D01*
X182827694Y-88181942D02*
X182827694Y-87896228D01*
X182827694Y-87896228D02*
X182875313Y-87800990D01*
X182875313Y-87800990D02*
X182922932Y-87753371D01*
X182922932Y-87753371D02*
X183018170Y-87705752D01*
X183018170Y-87705752D02*
X183208646Y-87705752D01*
X183208646Y-87705752D02*
X183303884Y-87753371D01*
X184161027Y-88324800D02*
X184065789Y-88372419D01*
X184065789Y-88372419D02*
X183875313Y-88372419D01*
X183875313Y-88372419D02*
X183780075Y-88324800D01*
X183780075Y-88324800D02*
X183732456Y-88229561D01*
X183732456Y-88229561D02*
X183732456Y-87848609D01*
X183732456Y-87848609D02*
X183780075Y-87753371D01*
X183780075Y-87753371D02*
X183875313Y-87705752D01*
X183875313Y-87705752D02*
X184065789Y-87705752D01*
X184065789Y-87705752D02*
X184161027Y-87753371D01*
X184161027Y-87753371D02*
X184208646Y-87848609D01*
X184208646Y-87848609D02*
X184208646Y-87943847D01*
X184208646Y-87943847D02*
X183732456Y-88039085D01*
X184637218Y-88372419D02*
X184637218Y-87705752D01*
X184637218Y-87896228D02*
X184684837Y-87800990D01*
X184684837Y-87800990D02*
X184732456Y-87753371D01*
X184732456Y-87753371D02*
X184827694Y-87705752D01*
X184827694Y-87705752D02*
X184922932Y-87705752D01*
D10*
X198867219Y-90630326D02*
X198867219Y-90011279D01*
X198867219Y-90011279D02*
X199248171Y-90344612D01*
X199248171Y-90344612D02*
X199248171Y-90201755D01*
X199248171Y-90201755D02*
X199295790Y-90106517D01*
X199295790Y-90106517D02*
X199343409Y-90058898D01*
X199343409Y-90058898D02*
X199438647Y-90011279D01*
X199438647Y-90011279D02*
X199676742Y-90011279D01*
X199676742Y-90011279D02*
X199771980Y-90058898D01*
X199771980Y-90058898D02*
X199819600Y-90106517D01*
X199819600Y-90106517D02*
X199867219Y-90201755D01*
X199867219Y-90201755D02*
X199867219Y-90487469D01*
X199867219Y-90487469D02*
X199819600Y-90582707D01*
X199819600Y-90582707D02*
X199771980Y-90630326D01*
X199200552Y-89677945D02*
X199867219Y-89439850D01*
X199867219Y-89439850D02*
X199200552Y-89201755D01*
X198867219Y-88916040D02*
X198867219Y-88296993D01*
X198867219Y-88296993D02*
X199248171Y-88630326D01*
X199248171Y-88630326D02*
X199248171Y-88487469D01*
X199248171Y-88487469D02*
X199295790Y-88392231D01*
X199295790Y-88392231D02*
X199343409Y-88344612D01*
X199343409Y-88344612D02*
X199438647Y-88296993D01*
X199438647Y-88296993D02*
X199676742Y-88296993D01*
X199676742Y-88296993D02*
X199771980Y-88344612D01*
X199771980Y-88344612D02*
X199819600Y-88392231D01*
X199819600Y-88392231D02*
X199867219Y-88487469D01*
X199867219Y-88487469D02*
X199867219Y-88773183D01*
X199867219Y-88773183D02*
X199819600Y-88868421D01*
X199819600Y-88868421D02*
X199771980Y-88916040D01*
D12*
X160554510Y-79300828D02*
X160554510Y-77800828D01*
X160554510Y-77800828D02*
X160911653Y-77800828D01*
X160911653Y-77800828D02*
X161125939Y-77872257D01*
X161125939Y-77872257D02*
X161268796Y-78015114D01*
X161268796Y-78015114D02*
X161340225Y-78157971D01*
X161340225Y-78157971D02*
X161411653Y-78443685D01*
X161411653Y-78443685D02*
X161411653Y-78657971D01*
X161411653Y-78657971D02*
X161340225Y-78943685D01*
X161340225Y-78943685D02*
X161268796Y-79086542D01*
X161268796Y-79086542D02*
X161125939Y-79229400D01*
X161125939Y-79229400D02*
X160911653Y-79300828D01*
X160911653Y-79300828D02*
X160554510Y-79300828D01*
X162840225Y-79300828D02*
X161983082Y-79300828D01*
X162411653Y-79300828D02*
X162411653Y-77800828D01*
X162411653Y-77800828D02*
X162268796Y-78015114D01*
X162268796Y-78015114D02*
X162125939Y-78157971D01*
X162125939Y-78157971D02*
X161983082Y-78229400D01*
X163483081Y-79300828D02*
X163483081Y-78300828D01*
X163483081Y-78443685D02*
X163554510Y-78372257D01*
X163554510Y-78372257D02*
X163697367Y-78300828D01*
X163697367Y-78300828D02*
X163911653Y-78300828D01*
X163911653Y-78300828D02*
X164054510Y-78372257D01*
X164054510Y-78372257D02*
X164125939Y-78515114D01*
X164125939Y-78515114D02*
X164125939Y-79300828D01*
X164125939Y-78515114D02*
X164197367Y-78372257D01*
X164197367Y-78372257D02*
X164340224Y-78300828D01*
X164340224Y-78300828D02*
X164554510Y-78300828D01*
X164554510Y-78300828D02*
X164697367Y-78372257D01*
X164697367Y-78372257D02*
X164768796Y-78515114D01*
X164768796Y-78515114D02*
X164768796Y-79300828D01*
X165483081Y-79300828D02*
X165483081Y-78300828D01*
X165483081Y-77800828D02*
X165411653Y-77872257D01*
X165411653Y-77872257D02*
X165483081Y-77943685D01*
X165483081Y-77943685D02*
X165554510Y-77872257D01*
X165554510Y-77872257D02*
X165483081Y-77800828D01*
X165483081Y-77800828D02*
X165483081Y-77943685D01*
X166197367Y-78300828D02*
X166197367Y-79300828D01*
X166197367Y-78443685D02*
X166268796Y-78372257D01*
X166268796Y-78372257D02*
X166411653Y-78300828D01*
X166411653Y-78300828D02*
X166625939Y-78300828D01*
X166625939Y-78300828D02*
X166768796Y-78372257D01*
X166768796Y-78372257D02*
X166840225Y-78515114D01*
X166840225Y-78515114D02*
X166840225Y-79300828D01*
X167554510Y-79300828D02*
X167554510Y-78300828D01*
X167554510Y-77800828D02*
X167483082Y-77872257D01*
X167483082Y-77872257D02*
X167554510Y-77943685D01*
X167554510Y-77943685D02*
X167625939Y-77872257D01*
X167625939Y-77872257D02*
X167554510Y-77800828D01*
X167554510Y-77800828D02*
X167554510Y-77943685D01*
D10*
X192319600Y-90725564D02*
X192367219Y-90582707D01*
X192367219Y-90582707D02*
X192367219Y-90344612D01*
X192367219Y-90344612D02*
X192319600Y-90249374D01*
X192319600Y-90249374D02*
X192271980Y-90201755D01*
X192271980Y-90201755D02*
X192176742Y-90154136D01*
X192176742Y-90154136D02*
X192081504Y-90154136D01*
X192081504Y-90154136D02*
X191986266Y-90201755D01*
X191986266Y-90201755D02*
X191938647Y-90249374D01*
X191938647Y-90249374D02*
X191891028Y-90344612D01*
X191891028Y-90344612D02*
X191843409Y-90535088D01*
X191843409Y-90535088D02*
X191795790Y-90630326D01*
X191795790Y-90630326D02*
X191748171Y-90677945D01*
X191748171Y-90677945D02*
X191652933Y-90725564D01*
X191652933Y-90725564D02*
X191557695Y-90725564D01*
X191557695Y-90725564D02*
X191462457Y-90677945D01*
X191462457Y-90677945D02*
X191414838Y-90630326D01*
X191414838Y-90630326D02*
X191367219Y-90535088D01*
X191367219Y-90535088D02*
X191367219Y-90296993D01*
X191367219Y-90296993D02*
X191414838Y-90154136D01*
X192367219Y-89725564D02*
X191367219Y-89725564D01*
X191367219Y-89725564D02*
X191367219Y-89487469D01*
X191367219Y-89487469D02*
X191414838Y-89344612D01*
X191414838Y-89344612D02*
X191510076Y-89249374D01*
X191510076Y-89249374D02*
X191605314Y-89201755D01*
X191605314Y-89201755D02*
X191795790Y-89154136D01*
X191795790Y-89154136D02*
X191938647Y-89154136D01*
X191938647Y-89154136D02*
X192129123Y-89201755D01*
X192129123Y-89201755D02*
X192224361Y-89249374D01*
X192224361Y-89249374D02*
X192319600Y-89344612D01*
X192319600Y-89344612D02*
X192367219Y-89487469D01*
X192367219Y-89487469D02*
X192367219Y-89725564D01*
X192081504Y-88773183D02*
X192081504Y-88296993D01*
X192367219Y-88868421D02*
X191367219Y-88535088D01*
X191367219Y-88535088D02*
X192367219Y-88201755D01*
X154369673Y-76867219D02*
X154369673Y-75867219D01*
X154369673Y-75867219D02*
X154607768Y-75867219D01*
X154607768Y-75867219D02*
X154750625Y-75914838D01*
X154750625Y-75914838D02*
X154845863Y-76010076D01*
X154845863Y-76010076D02*
X154893482Y-76105314D01*
X154893482Y-76105314D02*
X154941101Y-76295790D01*
X154941101Y-76295790D02*
X154941101Y-76438647D01*
X154941101Y-76438647D02*
X154893482Y-76629123D01*
X154893482Y-76629123D02*
X154845863Y-76724361D01*
X154845863Y-76724361D02*
X154750625Y-76819600D01*
X154750625Y-76819600D02*
X154607768Y-76867219D01*
X154607768Y-76867219D02*
X154369673Y-76867219D01*
X155512530Y-76295790D02*
X155417292Y-76248171D01*
X155417292Y-76248171D02*
X155369673Y-76200552D01*
X155369673Y-76200552D02*
X155322054Y-76105314D01*
X155322054Y-76105314D02*
X155322054Y-76057695D01*
X155322054Y-76057695D02*
X155369673Y-75962457D01*
X155369673Y-75962457D02*
X155417292Y-75914838D01*
X155417292Y-75914838D02*
X155512530Y-75867219D01*
X155512530Y-75867219D02*
X155703006Y-75867219D01*
X155703006Y-75867219D02*
X155798244Y-75914838D01*
X155798244Y-75914838D02*
X155845863Y-75962457D01*
X155845863Y-75962457D02*
X155893482Y-76057695D01*
X155893482Y-76057695D02*
X155893482Y-76105314D01*
X155893482Y-76105314D02*
X155845863Y-76200552D01*
X155845863Y-76200552D02*
X155798244Y-76248171D01*
X155798244Y-76248171D02*
X155703006Y-76295790D01*
X155703006Y-76295790D02*
X155512530Y-76295790D01*
X155512530Y-76295790D02*
X155417292Y-76343409D01*
X155417292Y-76343409D02*
X155369673Y-76391028D01*
X155369673Y-76391028D02*
X155322054Y-76486266D01*
X155322054Y-76486266D02*
X155322054Y-76676742D01*
X155322054Y-76676742D02*
X155369673Y-76771980D01*
X155369673Y-76771980D02*
X155417292Y-76819600D01*
X155417292Y-76819600D02*
X155512530Y-76867219D01*
X155512530Y-76867219D02*
X155703006Y-76867219D01*
X155703006Y-76867219D02*
X155798244Y-76819600D01*
X155798244Y-76819600D02*
X155845863Y-76771980D01*
X155845863Y-76771980D02*
X155893482Y-76676742D01*
X155893482Y-76676742D02*
X155893482Y-76486266D01*
X155893482Y-76486266D02*
X155845863Y-76391028D01*
X155845863Y-76391028D02*
X155798244Y-76343409D01*
X155798244Y-76343409D02*
X155703006Y-76295790D01*
X172322054Y-60867219D02*
X172893482Y-60867219D01*
X172607768Y-61867219D02*
X172607768Y-60867219D01*
X173131578Y-60867219D02*
X173798244Y-61867219D01*
X173798244Y-60867219D02*
X173131578Y-61867219D01*
X154322054Y-64081504D02*
X154798244Y-64081504D01*
X154226816Y-64367219D02*
X154560149Y-63367219D01*
X154560149Y-63367219D02*
X154893482Y-64367219D01*
X155417292Y-63367219D02*
X155512530Y-63367219D01*
X155512530Y-63367219D02*
X155607768Y-63414838D01*
X155607768Y-63414838D02*
X155655387Y-63462457D01*
X155655387Y-63462457D02*
X155703006Y-63557695D01*
X155703006Y-63557695D02*
X155750625Y-63748171D01*
X155750625Y-63748171D02*
X155750625Y-63986266D01*
X155750625Y-63986266D02*
X155703006Y-64176742D01*
X155703006Y-64176742D02*
X155655387Y-64271980D01*
X155655387Y-64271980D02*
X155607768Y-64319600D01*
X155607768Y-64319600D02*
X155512530Y-64367219D01*
X155512530Y-64367219D02*
X155417292Y-64367219D01*
X155417292Y-64367219D02*
X155322054Y-64319600D01*
X155322054Y-64319600D02*
X155274435Y-64271980D01*
X155274435Y-64271980D02*
X155226816Y-64176742D01*
X155226816Y-64176742D02*
X155179197Y-63986266D01*
X155179197Y-63986266D02*
X155179197Y-63748171D01*
X155179197Y-63748171D02*
X155226816Y-63557695D01*
X155226816Y-63557695D02*
X155274435Y-63462457D01*
X155274435Y-63462457D02*
X155322054Y-63414838D01*
X155322054Y-63414838D02*
X155417292Y-63367219D01*
D11*
X186461170Y-80103585D02*
X186604027Y-80151204D01*
X186604027Y-80151204D02*
X186651646Y-80198823D01*
X186651646Y-80198823D02*
X186699265Y-80294061D01*
X186699265Y-80294061D02*
X186699265Y-80436918D01*
X186699265Y-80436918D02*
X186651646Y-80532156D01*
X186651646Y-80532156D02*
X186604027Y-80579776D01*
X186604027Y-80579776D02*
X186508789Y-80627395D01*
X186508789Y-80627395D02*
X186127837Y-80627395D01*
X186127837Y-80627395D02*
X186127837Y-79627395D01*
X186127837Y-79627395D02*
X186461170Y-79627395D01*
X186461170Y-79627395D02*
X186556408Y-79675014D01*
X186556408Y-79675014D02*
X186604027Y-79722633D01*
X186604027Y-79722633D02*
X186651646Y-79817871D01*
X186651646Y-79817871D02*
X186651646Y-79913109D01*
X186651646Y-79913109D02*
X186604027Y-80008347D01*
X186604027Y-80008347D02*
X186556408Y-80055966D01*
X186556408Y-80055966D02*
X186461170Y-80103585D01*
X186461170Y-80103585D02*
X186127837Y-80103585D01*
X186699265Y-75450649D02*
X186651646Y-75498269D01*
X186651646Y-75498269D02*
X186508789Y-75545888D01*
X186508789Y-75545888D02*
X186413551Y-75545888D01*
X186413551Y-75545888D02*
X186270694Y-75498269D01*
X186270694Y-75498269D02*
X186175456Y-75403030D01*
X186175456Y-75403030D02*
X186127837Y-75307792D01*
X186127837Y-75307792D02*
X186080218Y-75117316D01*
X186080218Y-75117316D02*
X186080218Y-74974459D01*
X186080218Y-74974459D02*
X186127837Y-74783983D01*
X186127837Y-74783983D02*
X186175456Y-74688745D01*
X186175456Y-74688745D02*
X186270694Y-74593507D01*
X186270694Y-74593507D02*
X186413551Y-74545888D01*
X186413551Y-74545888D02*
X186508789Y-74545888D01*
X186508789Y-74545888D02*
X186651646Y-74593507D01*
X186651646Y-74593507D02*
X186699265Y-74641126D01*
D10*
X172798244Y-64367219D02*
X172464911Y-63891028D01*
X172226816Y-64367219D02*
X172226816Y-63367219D01*
X172226816Y-63367219D02*
X172607768Y-63367219D01*
X172607768Y-63367219D02*
X172703006Y-63414838D01*
X172703006Y-63414838D02*
X172750625Y-63462457D01*
X172750625Y-63462457D02*
X172798244Y-63557695D01*
X172798244Y-63557695D02*
X172798244Y-63700552D01*
X172798244Y-63700552D02*
X172750625Y-63795790D01*
X172750625Y-63795790D02*
X172703006Y-63843409D01*
X172703006Y-63843409D02*
X172607768Y-63891028D01*
X172607768Y-63891028D02*
X172226816Y-63891028D01*
X173131578Y-63367219D02*
X173798244Y-64367219D01*
X173798244Y-63367219D02*
X173131578Y-64367219D01*
X172845863Y-78367219D02*
X172369673Y-78367219D01*
X172369673Y-78367219D02*
X172322054Y-78843409D01*
X172322054Y-78843409D02*
X172369673Y-78795790D01*
X172369673Y-78795790D02*
X172464911Y-78748171D01*
X172464911Y-78748171D02*
X172703006Y-78748171D01*
X172703006Y-78748171D02*
X172798244Y-78795790D01*
X172798244Y-78795790D02*
X172845863Y-78843409D01*
X172845863Y-78843409D02*
X172893482Y-78938647D01*
X172893482Y-78938647D02*
X172893482Y-79176742D01*
X172893482Y-79176742D02*
X172845863Y-79271980D01*
X172845863Y-79271980D02*
X172798244Y-79319600D01*
X172798244Y-79319600D02*
X172703006Y-79367219D01*
X172703006Y-79367219D02*
X172464911Y-79367219D01*
X172464911Y-79367219D02*
X172369673Y-79319600D01*
X172369673Y-79319600D02*
X172322054Y-79271980D01*
X173179197Y-78367219D02*
X173512530Y-79367219D01*
X173512530Y-79367219D02*
X173845863Y-78367219D01*
X168369673Y-66819600D02*
X168512530Y-66867219D01*
X168512530Y-66867219D02*
X168750625Y-66867219D01*
X168750625Y-66867219D02*
X168845863Y-66819600D01*
X168845863Y-66819600D02*
X168893482Y-66771980D01*
X168893482Y-66771980D02*
X168941101Y-66676742D01*
X168941101Y-66676742D02*
X168941101Y-66581504D01*
X168941101Y-66581504D02*
X168893482Y-66486266D01*
X168893482Y-66486266D02*
X168845863Y-66438647D01*
X168845863Y-66438647D02*
X168750625Y-66391028D01*
X168750625Y-66391028D02*
X168560149Y-66343409D01*
X168560149Y-66343409D02*
X168464911Y-66295790D01*
X168464911Y-66295790D02*
X168417292Y-66248171D01*
X168417292Y-66248171D02*
X168369673Y-66152933D01*
X168369673Y-66152933D02*
X168369673Y-66057695D01*
X168369673Y-66057695D02*
X168417292Y-65962457D01*
X168417292Y-65962457D02*
X168464911Y-65914838D01*
X168464911Y-65914838D02*
X168560149Y-65867219D01*
X168560149Y-65867219D02*
X168798244Y-65867219D01*
X168798244Y-65867219D02*
X168941101Y-65914838D01*
X169941101Y-66771980D02*
X169893482Y-66819600D01*
X169893482Y-66819600D02*
X169750625Y-66867219D01*
X169750625Y-66867219D02*
X169655387Y-66867219D01*
X169655387Y-66867219D02*
X169512530Y-66819600D01*
X169512530Y-66819600D02*
X169417292Y-66724361D01*
X169417292Y-66724361D02*
X169369673Y-66629123D01*
X169369673Y-66629123D02*
X169322054Y-66438647D01*
X169322054Y-66438647D02*
X169322054Y-66295790D01*
X169322054Y-66295790D02*
X169369673Y-66105314D01*
X169369673Y-66105314D02*
X169417292Y-66010076D01*
X169417292Y-66010076D02*
X169512530Y-65914838D01*
X169512530Y-65914838D02*
X169655387Y-65867219D01*
X169655387Y-65867219D02*
X169750625Y-65867219D01*
X169750625Y-65867219D02*
X169893482Y-65914838D01*
X169893482Y-65914838D02*
X169941101Y-65962457D01*
X170845863Y-66867219D02*
X170369673Y-66867219D01*
X170369673Y-66867219D02*
X170369673Y-65867219D01*
X171893482Y-65819600D02*
X171036340Y-67105314D01*
X172226816Y-66867219D02*
X172226816Y-65867219D01*
X172226816Y-65867219D02*
X172464911Y-65867219D01*
X172464911Y-65867219D02*
X172607768Y-65914838D01*
X172607768Y-65914838D02*
X172703006Y-66010076D01*
X172703006Y-66010076D02*
X172750625Y-66105314D01*
X172750625Y-66105314D02*
X172798244Y-66295790D01*
X172798244Y-66295790D02*
X172798244Y-66438647D01*
X172798244Y-66438647D02*
X172750625Y-66629123D01*
X172750625Y-66629123D02*
X172703006Y-66724361D01*
X172703006Y-66724361D02*
X172607768Y-66819600D01*
X172607768Y-66819600D02*
X172464911Y-66867219D01*
X172464911Y-66867219D02*
X172226816Y-66867219D01*
X173750625Y-66867219D02*
X173179197Y-66867219D01*
X173464911Y-66867219D02*
X173464911Y-65867219D01*
X173464911Y-65867219D02*
X173369673Y-66010076D01*
X173369673Y-66010076D02*
X173274435Y-66105314D01*
X173274435Y-66105314D02*
X173179197Y-66152933D01*
X154369673Y-71867219D02*
X154369673Y-70867219D01*
X154369673Y-70867219D02*
X154607768Y-70867219D01*
X154607768Y-70867219D02*
X154750625Y-70914838D01*
X154750625Y-70914838D02*
X154845863Y-71010076D01*
X154845863Y-71010076D02*
X154893482Y-71105314D01*
X154893482Y-71105314D02*
X154941101Y-71295790D01*
X154941101Y-71295790D02*
X154941101Y-71438647D01*
X154941101Y-71438647D02*
X154893482Y-71629123D01*
X154893482Y-71629123D02*
X154845863Y-71724361D01*
X154845863Y-71724361D02*
X154750625Y-71819600D01*
X154750625Y-71819600D02*
X154607768Y-71867219D01*
X154607768Y-71867219D02*
X154369673Y-71867219D01*
X155798244Y-70867219D02*
X155607768Y-70867219D01*
X155607768Y-70867219D02*
X155512530Y-70914838D01*
X155512530Y-70914838D02*
X155464911Y-70962457D01*
X155464911Y-70962457D02*
X155369673Y-71105314D01*
X155369673Y-71105314D02*
X155322054Y-71295790D01*
X155322054Y-71295790D02*
X155322054Y-71676742D01*
X155322054Y-71676742D02*
X155369673Y-71771980D01*
X155369673Y-71771980D02*
X155417292Y-71819600D01*
X155417292Y-71819600D02*
X155512530Y-71867219D01*
X155512530Y-71867219D02*
X155703006Y-71867219D01*
X155703006Y-71867219D02*
X155798244Y-71819600D01*
X155798244Y-71819600D02*
X155845863Y-71771980D01*
X155845863Y-71771980D02*
X155893482Y-71676742D01*
X155893482Y-71676742D02*
X155893482Y-71438647D01*
X155893482Y-71438647D02*
X155845863Y-71343409D01*
X155845863Y-71343409D02*
X155798244Y-71295790D01*
X155798244Y-71295790D02*
X155703006Y-71248171D01*
X155703006Y-71248171D02*
X155512530Y-71248171D01*
X155512530Y-71248171D02*
X155417292Y-71295790D01*
X155417292Y-71295790D02*
X155369673Y-71343409D01*
X155369673Y-71343409D02*
X155322054Y-71438647D01*
X182441101Y-55867219D02*
X182107768Y-55391028D01*
X181869673Y-55867219D02*
X181869673Y-54867219D01*
X181869673Y-54867219D02*
X182250625Y-54867219D01*
X182250625Y-54867219D02*
X182345863Y-54914838D01*
X182345863Y-54914838D02*
X182393482Y-54962457D01*
X182393482Y-54962457D02*
X182441101Y-55057695D01*
X182441101Y-55057695D02*
X182441101Y-55200552D01*
X182441101Y-55200552D02*
X182393482Y-55295790D01*
X182393482Y-55295790D02*
X182345863Y-55343409D01*
X182345863Y-55343409D02*
X182250625Y-55391028D01*
X182250625Y-55391028D02*
X181869673Y-55391028D01*
X182822054Y-55819600D02*
X182964911Y-55867219D01*
X182964911Y-55867219D02*
X183203006Y-55867219D01*
X183203006Y-55867219D02*
X183298244Y-55819600D01*
X183298244Y-55819600D02*
X183345863Y-55771980D01*
X183345863Y-55771980D02*
X183393482Y-55676742D01*
X183393482Y-55676742D02*
X183393482Y-55581504D01*
X183393482Y-55581504D02*
X183345863Y-55486266D01*
X183345863Y-55486266D02*
X183298244Y-55438647D01*
X183298244Y-55438647D02*
X183203006Y-55391028D01*
X183203006Y-55391028D02*
X183012530Y-55343409D01*
X183012530Y-55343409D02*
X182917292Y-55295790D01*
X182917292Y-55295790D02*
X182869673Y-55248171D01*
X182869673Y-55248171D02*
X182822054Y-55152933D01*
X182822054Y-55152933D02*
X182822054Y-55057695D01*
X182822054Y-55057695D02*
X182869673Y-54962457D01*
X182869673Y-54962457D02*
X182917292Y-54914838D01*
X182917292Y-54914838D02*
X183012530Y-54867219D01*
X183012530Y-54867219D02*
X183250625Y-54867219D01*
X183250625Y-54867219D02*
X183393482Y-54914838D01*
X183679197Y-54867219D02*
X184250625Y-54867219D01*
X183964911Y-55867219D02*
X183964911Y-54867219D01*
X171655387Y-75914838D02*
X171560149Y-75867219D01*
X171560149Y-75867219D02*
X171417292Y-75867219D01*
X171417292Y-75867219D02*
X171274435Y-75914838D01*
X171274435Y-75914838D02*
X171179197Y-76010076D01*
X171179197Y-76010076D02*
X171131578Y-76105314D01*
X171131578Y-76105314D02*
X171083959Y-76295790D01*
X171083959Y-76295790D02*
X171083959Y-76438647D01*
X171083959Y-76438647D02*
X171131578Y-76629123D01*
X171131578Y-76629123D02*
X171179197Y-76724361D01*
X171179197Y-76724361D02*
X171274435Y-76819600D01*
X171274435Y-76819600D02*
X171417292Y-76867219D01*
X171417292Y-76867219D02*
X171512530Y-76867219D01*
X171512530Y-76867219D02*
X171655387Y-76819600D01*
X171655387Y-76819600D02*
X171703006Y-76771980D01*
X171703006Y-76771980D02*
X171703006Y-76438647D01*
X171703006Y-76438647D02*
X171512530Y-76438647D01*
X172131578Y-76867219D02*
X172131578Y-75867219D01*
X172131578Y-75867219D02*
X172703006Y-76867219D01*
X172703006Y-76867219D02*
X172703006Y-75867219D01*
X173179197Y-76867219D02*
X173179197Y-75867219D01*
X173179197Y-75867219D02*
X173417292Y-75867219D01*
X173417292Y-75867219D02*
X173560149Y-75914838D01*
X173560149Y-75914838D02*
X173655387Y-76010076D01*
X173655387Y-76010076D02*
X173703006Y-76105314D01*
X173703006Y-76105314D02*
X173750625Y-76295790D01*
X173750625Y-76295790D02*
X173750625Y-76438647D01*
X173750625Y-76438647D02*
X173703006Y-76629123D01*
X173703006Y-76629123D02*
X173655387Y-76724361D01*
X173655387Y-76724361D02*
X173560149Y-76819600D01*
X173560149Y-76819600D02*
X173417292Y-76867219D01*
X173417292Y-76867219D02*
X173179197Y-76867219D01*
X154369673Y-74367219D02*
X154369673Y-73367219D01*
X154369673Y-73367219D02*
X154607768Y-73367219D01*
X154607768Y-73367219D02*
X154750625Y-73414838D01*
X154750625Y-73414838D02*
X154845863Y-73510076D01*
X154845863Y-73510076D02*
X154893482Y-73605314D01*
X154893482Y-73605314D02*
X154941101Y-73795790D01*
X154941101Y-73795790D02*
X154941101Y-73938647D01*
X154941101Y-73938647D02*
X154893482Y-74129123D01*
X154893482Y-74129123D02*
X154845863Y-74224361D01*
X154845863Y-74224361D02*
X154750625Y-74319600D01*
X154750625Y-74319600D02*
X154607768Y-74367219D01*
X154607768Y-74367219D02*
X154369673Y-74367219D01*
X155274435Y-73367219D02*
X155941101Y-73367219D01*
X155941101Y-73367219D02*
X155512530Y-74367219D01*
X154274435Y-78367219D02*
X154893482Y-78367219D01*
X154893482Y-78367219D02*
X154560149Y-78748171D01*
X154560149Y-78748171D02*
X154703006Y-78748171D01*
X154703006Y-78748171D02*
X154798244Y-78795790D01*
X154798244Y-78795790D02*
X154845863Y-78843409D01*
X154845863Y-78843409D02*
X154893482Y-78938647D01*
X154893482Y-78938647D02*
X154893482Y-79176742D01*
X154893482Y-79176742D02*
X154845863Y-79271980D01*
X154845863Y-79271980D02*
X154798244Y-79319600D01*
X154798244Y-79319600D02*
X154703006Y-79367219D01*
X154703006Y-79367219D02*
X154417292Y-79367219D01*
X154417292Y-79367219D02*
X154322054Y-79319600D01*
X154322054Y-79319600D02*
X154274435Y-79271980D01*
X155226816Y-78700552D02*
X155464911Y-79367219D01*
X155464911Y-79367219D02*
X155703006Y-78700552D01*
X155988721Y-78367219D02*
X156607768Y-78367219D01*
X156607768Y-78367219D02*
X156274435Y-78748171D01*
X156274435Y-78748171D02*
X156417292Y-78748171D01*
X156417292Y-78748171D02*
X156512530Y-78795790D01*
X156512530Y-78795790D02*
X156560149Y-78843409D01*
X156560149Y-78843409D02*
X156607768Y-78938647D01*
X156607768Y-78938647D02*
X156607768Y-79176742D01*
X156607768Y-79176742D02*
X156560149Y-79271980D01*
X156560149Y-79271980D02*
X156512530Y-79319600D01*
X156512530Y-79319600D02*
X156417292Y-79367219D01*
X156417292Y-79367219D02*
X156131578Y-79367219D01*
X156131578Y-79367219D02*
X156036340Y-79319600D01*
X156036340Y-79319600D02*
X155988721Y-79271980D01*
X154941101Y-61867219D02*
X154607768Y-61391028D01*
X154369673Y-61867219D02*
X154369673Y-60867219D01*
X154369673Y-60867219D02*
X154750625Y-60867219D01*
X154750625Y-60867219D02*
X154845863Y-60914838D01*
X154845863Y-60914838D02*
X154893482Y-60962457D01*
X154893482Y-60962457D02*
X154941101Y-61057695D01*
X154941101Y-61057695D02*
X154941101Y-61200552D01*
X154941101Y-61200552D02*
X154893482Y-61295790D01*
X154893482Y-61295790D02*
X154845863Y-61343409D01*
X154845863Y-61343409D02*
X154750625Y-61391028D01*
X154750625Y-61391028D02*
X154369673Y-61391028D01*
X155322054Y-61819600D02*
X155464911Y-61867219D01*
X155464911Y-61867219D02*
X155703006Y-61867219D01*
X155703006Y-61867219D02*
X155798244Y-61819600D01*
X155798244Y-61819600D02*
X155845863Y-61771980D01*
X155845863Y-61771980D02*
X155893482Y-61676742D01*
X155893482Y-61676742D02*
X155893482Y-61581504D01*
X155893482Y-61581504D02*
X155845863Y-61486266D01*
X155845863Y-61486266D02*
X155798244Y-61438647D01*
X155798244Y-61438647D02*
X155703006Y-61391028D01*
X155703006Y-61391028D02*
X155512530Y-61343409D01*
X155512530Y-61343409D02*
X155417292Y-61295790D01*
X155417292Y-61295790D02*
X155369673Y-61248171D01*
X155369673Y-61248171D02*
X155322054Y-61152933D01*
X155322054Y-61152933D02*
X155322054Y-61057695D01*
X155322054Y-61057695D02*
X155369673Y-60962457D01*
X155369673Y-60962457D02*
X155417292Y-60914838D01*
X155417292Y-60914838D02*
X155512530Y-60867219D01*
X155512530Y-60867219D02*
X155750625Y-60867219D01*
X155750625Y-60867219D02*
X155893482Y-60914838D01*
X156179197Y-60867219D02*
X156750625Y-60867219D01*
X156464911Y-61867219D02*
X156464911Y-60867219D01*
X172226816Y-74367219D02*
X172226816Y-73367219D01*
X172226816Y-73367219D02*
X172464911Y-73367219D01*
X172464911Y-73367219D02*
X172607768Y-73414838D01*
X172607768Y-73414838D02*
X172703006Y-73510076D01*
X172703006Y-73510076D02*
X172750625Y-73605314D01*
X172750625Y-73605314D02*
X172798244Y-73795790D01*
X172798244Y-73795790D02*
X172798244Y-73938647D01*
X172798244Y-73938647D02*
X172750625Y-74129123D01*
X172750625Y-74129123D02*
X172703006Y-74224361D01*
X172703006Y-74224361D02*
X172607768Y-74319600D01*
X172607768Y-74319600D02*
X172464911Y-74367219D01*
X172464911Y-74367219D02*
X172226816Y-74367219D01*
X173655387Y-73700552D02*
X173655387Y-74367219D01*
X173417292Y-73319600D02*
X173179197Y-74033885D01*
X173179197Y-74033885D02*
X173798244Y-74033885D01*
X168322054Y-69319600D02*
X168464911Y-69367219D01*
X168464911Y-69367219D02*
X168703006Y-69367219D01*
X168703006Y-69367219D02*
X168798244Y-69319600D01*
X168798244Y-69319600D02*
X168845863Y-69271980D01*
X168845863Y-69271980D02*
X168893482Y-69176742D01*
X168893482Y-69176742D02*
X168893482Y-69081504D01*
X168893482Y-69081504D02*
X168845863Y-68986266D01*
X168845863Y-68986266D02*
X168798244Y-68938647D01*
X168798244Y-68938647D02*
X168703006Y-68891028D01*
X168703006Y-68891028D02*
X168512530Y-68843409D01*
X168512530Y-68843409D02*
X168417292Y-68795790D01*
X168417292Y-68795790D02*
X168369673Y-68748171D01*
X168369673Y-68748171D02*
X168322054Y-68652933D01*
X168322054Y-68652933D02*
X168322054Y-68557695D01*
X168322054Y-68557695D02*
X168369673Y-68462457D01*
X168369673Y-68462457D02*
X168417292Y-68414838D01*
X168417292Y-68414838D02*
X168512530Y-68367219D01*
X168512530Y-68367219D02*
X168750625Y-68367219D01*
X168750625Y-68367219D02*
X168893482Y-68414838D01*
X169322054Y-69367219D02*
X169322054Y-68367219D01*
X169322054Y-68367219D02*
X169560149Y-68367219D01*
X169560149Y-68367219D02*
X169703006Y-68414838D01*
X169703006Y-68414838D02*
X169798244Y-68510076D01*
X169798244Y-68510076D02*
X169845863Y-68605314D01*
X169845863Y-68605314D02*
X169893482Y-68795790D01*
X169893482Y-68795790D02*
X169893482Y-68938647D01*
X169893482Y-68938647D02*
X169845863Y-69129123D01*
X169845863Y-69129123D02*
X169798244Y-69224361D01*
X169798244Y-69224361D02*
X169703006Y-69319600D01*
X169703006Y-69319600D02*
X169560149Y-69367219D01*
X169560149Y-69367219D02*
X169322054Y-69367219D01*
X170274435Y-69081504D02*
X170750625Y-69081504D01*
X170179197Y-69367219D02*
X170512530Y-68367219D01*
X170512530Y-68367219D02*
X170845863Y-69367219D01*
X171893482Y-68319600D02*
X171036340Y-69605314D01*
X172226816Y-69367219D02*
X172226816Y-68367219D01*
X172226816Y-68367219D02*
X172464911Y-68367219D01*
X172464911Y-68367219D02*
X172607768Y-68414838D01*
X172607768Y-68414838D02*
X172703006Y-68510076D01*
X172703006Y-68510076D02*
X172750625Y-68605314D01*
X172750625Y-68605314D02*
X172798244Y-68795790D01*
X172798244Y-68795790D02*
X172798244Y-68938647D01*
X172798244Y-68938647D02*
X172750625Y-69129123D01*
X172750625Y-69129123D02*
X172703006Y-69224361D01*
X172703006Y-69224361D02*
X172607768Y-69319600D01*
X172607768Y-69319600D02*
X172464911Y-69367219D01*
X172464911Y-69367219D02*
X172226816Y-69367219D01*
X173179197Y-68462457D02*
X173226816Y-68414838D01*
X173226816Y-68414838D02*
X173322054Y-68367219D01*
X173322054Y-68367219D02*
X173560149Y-68367219D01*
X173560149Y-68367219D02*
X173655387Y-68414838D01*
X173655387Y-68414838D02*
X173703006Y-68462457D01*
X173703006Y-68462457D02*
X173750625Y-68557695D01*
X173750625Y-68557695D02*
X173750625Y-68652933D01*
X173750625Y-68652933D02*
X173703006Y-68795790D01*
X173703006Y-68795790D02*
X173131578Y-69367219D01*
X173131578Y-69367219D02*
X173750625Y-69367219D01*
X197319600Y-90677945D02*
X197367219Y-90535088D01*
X197367219Y-90535088D02*
X197367219Y-90296993D01*
X197367219Y-90296993D02*
X197319600Y-90201755D01*
X197319600Y-90201755D02*
X197271980Y-90154136D01*
X197271980Y-90154136D02*
X197176742Y-90106517D01*
X197176742Y-90106517D02*
X197081504Y-90106517D01*
X197081504Y-90106517D02*
X196986266Y-90154136D01*
X196986266Y-90154136D02*
X196938647Y-90201755D01*
X196938647Y-90201755D02*
X196891028Y-90296993D01*
X196891028Y-90296993D02*
X196843409Y-90487469D01*
X196843409Y-90487469D02*
X196795790Y-90582707D01*
X196795790Y-90582707D02*
X196748171Y-90630326D01*
X196748171Y-90630326D02*
X196652933Y-90677945D01*
X196652933Y-90677945D02*
X196557695Y-90677945D01*
X196557695Y-90677945D02*
X196462457Y-90630326D01*
X196462457Y-90630326D02*
X196414838Y-90582707D01*
X196414838Y-90582707D02*
X196367219Y-90487469D01*
X196367219Y-90487469D02*
X196367219Y-90249374D01*
X196367219Y-90249374D02*
X196414838Y-90106517D01*
X197271980Y-89106517D02*
X197319600Y-89154136D01*
X197319600Y-89154136D02*
X197367219Y-89296993D01*
X197367219Y-89296993D02*
X197367219Y-89392231D01*
X197367219Y-89392231D02*
X197319600Y-89535088D01*
X197319600Y-89535088D02*
X197224361Y-89630326D01*
X197224361Y-89630326D02*
X197129123Y-89677945D01*
X197129123Y-89677945D02*
X196938647Y-89725564D01*
X196938647Y-89725564D02*
X196795790Y-89725564D01*
X196795790Y-89725564D02*
X196605314Y-89677945D01*
X196605314Y-89677945D02*
X196510076Y-89630326D01*
X196510076Y-89630326D02*
X196414838Y-89535088D01*
X196414838Y-89535088D02*
X196367219Y-89392231D01*
X196367219Y-89392231D02*
X196367219Y-89296993D01*
X196367219Y-89296993D02*
X196414838Y-89154136D01*
X196414838Y-89154136D02*
X196462457Y-89106517D01*
X197367219Y-88201755D02*
X197367219Y-88677945D01*
X197367219Y-88677945D02*
X196367219Y-88677945D01*
D11*
X186604027Y-84627395D02*
X186127837Y-84627395D01*
X186127837Y-84627395D02*
X186080218Y-85103585D01*
X186080218Y-85103585D02*
X186127837Y-85055966D01*
X186127837Y-85055966D02*
X186223075Y-85008347D01*
X186223075Y-85008347D02*
X186461170Y-85008347D01*
X186461170Y-85008347D02*
X186556408Y-85055966D01*
X186556408Y-85055966D02*
X186604027Y-85103585D01*
X186604027Y-85103585D02*
X186651646Y-85198823D01*
X186651646Y-85198823D02*
X186651646Y-85436918D01*
X186651646Y-85436918D02*
X186604027Y-85532156D01*
X186604027Y-85532156D02*
X186556408Y-85579776D01*
X186556408Y-85579776D02*
X186461170Y-85627395D01*
X186461170Y-85627395D02*
X186223075Y-85627395D01*
X186223075Y-85627395D02*
X186127837Y-85579776D01*
X186127837Y-85579776D02*
X186080218Y-85532156D01*
X186984980Y-84960728D02*
X187223075Y-85627395D01*
X187223075Y-85627395D02*
X187461170Y-84960728D01*
D10*
X188867219Y-54654136D02*
X188867219Y-55130326D01*
X188867219Y-55130326D02*
X189343409Y-55177945D01*
X189343409Y-55177945D02*
X189295790Y-55130326D01*
X189295790Y-55130326D02*
X189248171Y-55035088D01*
X189248171Y-55035088D02*
X189248171Y-54796993D01*
X189248171Y-54796993D02*
X189295790Y-54701755D01*
X189295790Y-54701755D02*
X189343409Y-54654136D01*
X189343409Y-54654136D02*
X189438647Y-54606517D01*
X189438647Y-54606517D02*
X189676742Y-54606517D01*
X189676742Y-54606517D02*
X189771980Y-54654136D01*
X189771980Y-54654136D02*
X189819600Y-54701755D01*
X189819600Y-54701755D02*
X189867219Y-54796993D01*
X189867219Y-54796993D02*
X189867219Y-55035088D01*
X189867219Y-55035088D02*
X189819600Y-55130326D01*
X189819600Y-55130326D02*
X189771980Y-55177945D01*
X188867219Y-54320802D02*
X189867219Y-53987469D01*
X189867219Y-53987469D02*
X188867219Y-53654136D01*
X192319600Y-55177945D02*
X192367219Y-55035088D01*
X192367219Y-55035088D02*
X192367219Y-54796993D01*
X192367219Y-54796993D02*
X192319600Y-54701755D01*
X192319600Y-54701755D02*
X192271980Y-54654136D01*
X192271980Y-54654136D02*
X192176742Y-54606517D01*
X192176742Y-54606517D02*
X192081504Y-54606517D01*
X192081504Y-54606517D02*
X191986266Y-54654136D01*
X191986266Y-54654136D02*
X191938647Y-54701755D01*
X191938647Y-54701755D02*
X191891028Y-54796993D01*
X191891028Y-54796993D02*
X191843409Y-54987469D01*
X191843409Y-54987469D02*
X191795790Y-55082707D01*
X191795790Y-55082707D02*
X191748171Y-55130326D01*
X191748171Y-55130326D02*
X191652933Y-55177945D01*
X191652933Y-55177945D02*
X191557695Y-55177945D01*
X191557695Y-55177945D02*
X191462457Y-55130326D01*
X191462457Y-55130326D02*
X191414838Y-55082707D01*
X191414838Y-55082707D02*
X191367219Y-54987469D01*
X191367219Y-54987469D02*
X191367219Y-54749374D01*
X191367219Y-54749374D02*
X191414838Y-54606517D01*
X192367219Y-54177945D02*
X191367219Y-54177945D01*
X191367219Y-54177945D02*
X191367219Y-53939850D01*
X191367219Y-53939850D02*
X191414838Y-53796993D01*
X191414838Y-53796993D02*
X191510076Y-53701755D01*
X191510076Y-53701755D02*
X191605314Y-53654136D01*
X191605314Y-53654136D02*
X191795790Y-53606517D01*
X191795790Y-53606517D02*
X191938647Y-53606517D01*
X191938647Y-53606517D02*
X192129123Y-53654136D01*
X192129123Y-53654136D02*
X192224361Y-53701755D01*
X192224361Y-53701755D02*
X192319600Y-53796993D01*
X192319600Y-53796993D02*
X192367219Y-53939850D01*
X192367219Y-53939850D02*
X192367219Y-54177945D01*
X192081504Y-53225564D02*
X192081504Y-52749374D01*
X192367219Y-53320802D02*
X191367219Y-52987469D01*
X191367219Y-52987469D02*
X192367219Y-52654136D01*
X197319600Y-55177945D02*
X197367219Y-55035088D01*
X197367219Y-55035088D02*
X197367219Y-54796993D01*
X197367219Y-54796993D02*
X197319600Y-54701755D01*
X197319600Y-54701755D02*
X197271980Y-54654136D01*
X197271980Y-54654136D02*
X197176742Y-54606517D01*
X197176742Y-54606517D02*
X197081504Y-54606517D01*
X197081504Y-54606517D02*
X196986266Y-54654136D01*
X196986266Y-54654136D02*
X196938647Y-54701755D01*
X196938647Y-54701755D02*
X196891028Y-54796993D01*
X196891028Y-54796993D02*
X196843409Y-54987469D01*
X196843409Y-54987469D02*
X196795790Y-55082707D01*
X196795790Y-55082707D02*
X196748171Y-55130326D01*
X196748171Y-55130326D02*
X196652933Y-55177945D01*
X196652933Y-55177945D02*
X196557695Y-55177945D01*
X196557695Y-55177945D02*
X196462457Y-55130326D01*
X196462457Y-55130326D02*
X196414838Y-55082707D01*
X196414838Y-55082707D02*
X196367219Y-54987469D01*
X196367219Y-54987469D02*
X196367219Y-54749374D01*
X196367219Y-54749374D02*
X196414838Y-54606517D01*
X197271980Y-53606517D02*
X197319600Y-53654136D01*
X197319600Y-53654136D02*
X197367219Y-53796993D01*
X197367219Y-53796993D02*
X197367219Y-53892231D01*
X197367219Y-53892231D02*
X197319600Y-54035088D01*
X197319600Y-54035088D02*
X197224361Y-54130326D01*
X197224361Y-54130326D02*
X197129123Y-54177945D01*
X197129123Y-54177945D02*
X196938647Y-54225564D01*
X196938647Y-54225564D02*
X196795790Y-54225564D01*
X196795790Y-54225564D02*
X196605314Y-54177945D01*
X196605314Y-54177945D02*
X196510076Y-54130326D01*
X196510076Y-54130326D02*
X196414838Y-54035088D01*
X196414838Y-54035088D02*
X196367219Y-53892231D01*
X196367219Y-53892231D02*
X196367219Y-53796993D01*
X196367219Y-53796993D02*
X196414838Y-53654136D01*
X196414838Y-53654136D02*
X196462457Y-53606517D01*
X197367219Y-52701755D02*
X197367219Y-53177945D01*
X197367219Y-53177945D02*
X196367219Y-53177945D01*
X198867219Y-55225564D02*
X198867219Y-54606517D01*
X198867219Y-54606517D02*
X199248171Y-54939850D01*
X199248171Y-54939850D02*
X199248171Y-54796993D01*
X199248171Y-54796993D02*
X199295790Y-54701755D01*
X199295790Y-54701755D02*
X199343409Y-54654136D01*
X199343409Y-54654136D02*
X199438647Y-54606517D01*
X199438647Y-54606517D02*
X199676742Y-54606517D01*
X199676742Y-54606517D02*
X199771980Y-54654136D01*
X199771980Y-54654136D02*
X199819600Y-54701755D01*
X199819600Y-54701755D02*
X199867219Y-54796993D01*
X199867219Y-54796993D02*
X199867219Y-55082707D01*
X199867219Y-55082707D02*
X199819600Y-55177945D01*
X199819600Y-55177945D02*
X199771980Y-55225564D01*
X199200552Y-54273183D02*
X199867219Y-54035088D01*
X199867219Y-54035088D02*
X199200552Y-53796993D01*
X198867219Y-53511278D02*
X198867219Y-52892231D01*
X198867219Y-52892231D02*
X199248171Y-53225564D01*
X199248171Y-53225564D02*
X199248171Y-53082707D01*
X199248171Y-53082707D02*
X199295790Y-52987469D01*
X199295790Y-52987469D02*
X199343409Y-52939850D01*
X199343409Y-52939850D02*
X199438647Y-52892231D01*
X199438647Y-52892231D02*
X199676742Y-52892231D01*
X199676742Y-52892231D02*
X199771980Y-52939850D01*
X199771980Y-52939850D02*
X199819600Y-52987469D01*
X199819600Y-52987469D02*
X199867219Y-53082707D01*
X199867219Y-53082707D02*
X199867219Y-53368421D01*
X199867219Y-53368421D02*
X199819600Y-53463659D01*
X199819600Y-53463659D02*
X199771980Y-53511278D01*
X188867219Y-89201755D02*
X188867219Y-89677945D01*
X188867219Y-89677945D02*
X189343409Y-89725564D01*
X189343409Y-89725564D02*
X189295790Y-89677945D01*
X189295790Y-89677945D02*
X189248171Y-89582707D01*
X189248171Y-89582707D02*
X189248171Y-89344612D01*
X189248171Y-89344612D02*
X189295790Y-89249374D01*
X189295790Y-89249374D02*
X189343409Y-89201755D01*
X189343409Y-89201755D02*
X189438647Y-89154136D01*
X189438647Y-89154136D02*
X189676742Y-89154136D01*
X189676742Y-89154136D02*
X189771980Y-89201755D01*
X189771980Y-89201755D02*
X189819600Y-89249374D01*
X189819600Y-89249374D02*
X189867219Y-89344612D01*
X189867219Y-89344612D02*
X189867219Y-89582707D01*
X189867219Y-89582707D02*
X189819600Y-89677945D01*
X189819600Y-89677945D02*
X189771980Y-89725564D01*
X188867219Y-88868421D02*
X189867219Y-88535088D01*
X189867219Y-88535088D02*
X188867219Y-88201755D01*
D13*
X186668093Y-82173714D02*
X186572855Y-82126095D01*
X186572855Y-82126095D02*
X186429998Y-82126095D01*
X186429998Y-82126095D02*
X186287141Y-82173714D01*
X186287141Y-82173714D02*
X186191903Y-82268952D01*
X186191903Y-82268952D02*
X186144284Y-82364190D01*
X186144284Y-82364190D02*
X186096665Y-82554666D01*
X186096665Y-82554666D02*
X186096665Y-82697523D01*
X186096665Y-82697523D02*
X186144284Y-82887999D01*
X186144284Y-82887999D02*
X186191903Y-82983237D01*
X186191903Y-82983237D02*
X186287141Y-83078476D01*
X186287141Y-83078476D02*
X186429998Y-83126095D01*
X186429998Y-83126095D02*
X186525236Y-83126095D01*
X186525236Y-83126095D02*
X186668093Y-83078476D01*
X186668093Y-83078476D02*
X186715712Y-83030856D01*
X186715712Y-83030856D02*
X186715712Y-82697523D01*
X186715712Y-82697523D02*
X186525236Y-82697523D01*
D14*
X178146666Y-71454819D02*
X178146666Y-72169104D01*
X178146666Y-72169104D02*
X178099047Y-72311961D01*
X178099047Y-72311961D02*
X178003809Y-72407200D01*
X178003809Y-72407200D02*
X177860952Y-72454819D01*
X177860952Y-72454819D02*
X177765714Y-72454819D01*
X179099047Y-71454819D02*
X178622857Y-71454819D01*
X178622857Y-71454819D02*
X178575238Y-71931009D01*
X178575238Y-71931009D02*
X178622857Y-71883390D01*
X178622857Y-71883390D02*
X178718095Y-71835771D01*
X178718095Y-71835771D02*
X178956190Y-71835771D01*
X178956190Y-71835771D02*
X179051428Y-71883390D01*
X179051428Y-71883390D02*
X179099047Y-71931009D01*
X179099047Y-71931009D02*
X179146666Y-72026247D01*
X179146666Y-72026247D02*
X179146666Y-72264342D01*
X179146666Y-72264342D02*
X179099047Y-72359580D01*
X179099047Y-72359580D02*
X179051428Y-72407200D01*
X179051428Y-72407200D02*
X178956190Y-72454819D01*
X178956190Y-72454819D02*
X178718095Y-72454819D01*
X178718095Y-72454819D02*
X178622857Y-72407200D01*
X178622857Y-72407200D02*
X178575238Y-72359580D01*
X153738095Y-87954819D02*
X153738095Y-88764342D01*
X153738095Y-88764342D02*
X153785714Y-88859580D01*
X153785714Y-88859580D02*
X153833333Y-88907200D01*
X153833333Y-88907200D02*
X153928571Y-88954819D01*
X153928571Y-88954819D02*
X154119047Y-88954819D01*
X154119047Y-88954819D02*
X154214285Y-88907200D01*
X154214285Y-88907200D02*
X154261904Y-88859580D01*
X154261904Y-88859580D02*
X154309523Y-88764342D01*
X154309523Y-88764342D02*
X154309523Y-87954819D01*
X155309523Y-88954819D02*
X154738095Y-88954819D01*
X155023809Y-88954819D02*
X155023809Y-87954819D01*
X155023809Y-87954819D02*
X154928571Y-88097676D01*
X154928571Y-88097676D02*
X154833333Y-88192914D01*
X154833333Y-88192914D02*
X154738095Y-88240533D01*
X202166666Y-56454819D02*
X202166666Y-57169104D01*
X202166666Y-57169104D02*
X202119047Y-57311961D01*
X202119047Y-57311961D02*
X202023809Y-57407200D01*
X202023809Y-57407200D02*
X201880952Y-57454819D01*
X201880952Y-57454819D02*
X201785714Y-57454819D01*
X203071428Y-56788152D02*
X203071428Y-57454819D01*
X202833333Y-56407200D02*
X202595238Y-57121485D01*
X202595238Y-57121485D02*
X203214285Y-57121485D01*
X179166666Y-54954819D02*
X179166666Y-55669104D01*
X179166666Y-55669104D02*
X179119047Y-55811961D01*
X179119047Y-55811961D02*
X179023809Y-55907200D01*
X179023809Y-55907200D02*
X178880952Y-55954819D01*
X178880952Y-55954819D02*
X178785714Y-55954819D01*
X179785714Y-55383390D02*
X179690476Y-55335771D01*
X179690476Y-55335771D02*
X179642857Y-55288152D01*
X179642857Y-55288152D02*
X179595238Y-55192914D01*
X179595238Y-55192914D02*
X179595238Y-55145295D01*
X179595238Y-55145295D02*
X179642857Y-55050057D01*
X179642857Y-55050057D02*
X179690476Y-55002438D01*
X179690476Y-55002438D02*
X179785714Y-54954819D01*
X179785714Y-54954819D02*
X179976190Y-54954819D01*
X179976190Y-54954819D02*
X180071428Y-55002438D01*
X180071428Y-55002438D02*
X180119047Y-55050057D01*
X180119047Y-55050057D02*
X180166666Y-55145295D01*
X180166666Y-55145295D02*
X180166666Y-55192914D01*
X180166666Y-55192914D02*
X180119047Y-55288152D01*
X180119047Y-55288152D02*
X180071428Y-55335771D01*
X180071428Y-55335771D02*
X179976190Y-55383390D01*
X179976190Y-55383390D02*
X179785714Y-55383390D01*
X179785714Y-55383390D02*
X179690476Y-55431009D01*
X179690476Y-55431009D02*
X179642857Y-55478628D01*
X179642857Y-55478628D02*
X179595238Y-55573866D01*
X179595238Y-55573866D02*
X179595238Y-55764342D01*
X179595238Y-55764342D02*
X179642857Y-55859580D01*
X179642857Y-55859580D02*
X179690476Y-55907200D01*
X179690476Y-55907200D02*
X179785714Y-55954819D01*
X179785714Y-55954819D02*
X179976190Y-55954819D01*
X179976190Y-55954819D02*
X180071428Y-55907200D01*
X180071428Y-55907200D02*
X180119047Y-55859580D01*
X180119047Y-55859580D02*
X180166666Y-55764342D01*
X180166666Y-55764342D02*
X180166666Y-55573866D01*
X180166666Y-55573866D02*
X180119047Y-55478628D01*
X180119047Y-55478628D02*
X180071428Y-55431009D01*
X180071428Y-55431009D02*
X179976190Y-55383390D01*
X202166666Y-64454819D02*
X202166666Y-65169104D01*
X202166666Y-65169104D02*
X202119047Y-65311961D01*
X202119047Y-65311961D02*
X202023809Y-65407200D01*
X202023809Y-65407200D02*
X201880952Y-65454819D01*
X201880952Y-65454819D02*
X201785714Y-65454819D01*
X202547619Y-64454819D02*
X203166666Y-64454819D01*
X203166666Y-64454819D02*
X202833333Y-64835771D01*
X202833333Y-64835771D02*
X202976190Y-64835771D01*
X202976190Y-64835771D02*
X203071428Y-64883390D01*
X203071428Y-64883390D02*
X203119047Y-64931009D01*
X203119047Y-64931009D02*
X203166666Y-65026247D01*
X203166666Y-65026247D02*
X203166666Y-65264342D01*
X203166666Y-65264342D02*
X203119047Y-65359580D01*
X203119047Y-65359580D02*
X203071428Y-65407200D01*
X203071428Y-65407200D02*
X202976190Y-65454819D01*
X202976190Y-65454819D02*
X202690476Y-65454819D01*
X202690476Y-65454819D02*
X202595238Y-65407200D01*
X202595238Y-65407200D02*
X202547619Y-65359580D01*
D15*
X178240000Y-72960000D02*
X178240000Y-73760000D01*
X178480000Y-73200000D02*
X178480000Y-86640000D01*
X179280000Y-72960000D02*
X178240000Y-72960000D01*
X179400000Y-73200000D02*
X179400000Y-86640000D01*
X180400000Y-73200000D02*
X180400000Y-86640000D01*
X183501000Y-73200000D02*
X183501000Y-86640000D01*
X185220000Y-73200000D02*
X178480000Y-73200000D01*
X185220000Y-73200000D02*
X185220000Y-86640000D01*
X185220000Y-86640000D02*
X178480000Y-86640000D01*
X151000000Y-80440000D02*
X151000000Y-55010000D01*
X151000000Y-80440000D02*
X153540000Y-80440000D01*
X153540000Y-80440000D02*
X153540000Y-87340000D01*
X153540000Y-87340000D02*
X176860000Y-87340000D01*
X174740000Y-52880000D02*
X153130000Y-52880000D01*
X176860000Y-87340000D02*
X176860000Y-55010000D01*
X151000000Y-55010000D02*
G75*
G02*
X153130000Y-52880000I2130002J-2D01*
G01*
X174730000Y-52880000D02*
G75*
G02*
X176860000Y-55010000I0J-2130000D01*
G01*
D14*
X150595000Y-61220000D02*
X149960000Y-61855000D01*
X149960000Y-60585000D01*
X150595000Y-61220000D01*
G36*
X150595000Y-61220000D02*
G01*
X149960000Y-61855000D01*
X149960000Y-60585000D01*
X150595000Y-61220000D01*
G37*
D15*
X187700000Y-63470000D02*
X187700000Y-56730000D01*
X201140000Y-56730000D02*
X187700000Y-56730000D01*
X201140000Y-57650000D02*
X187700000Y-57650000D01*
X201140000Y-58650000D02*
X187700000Y-58650000D01*
X201140000Y-61751000D02*
X187700000Y-61751000D01*
X201140000Y-63470000D02*
X187700000Y-63470000D01*
X201140000Y-63470000D02*
X201140000Y-56730000D01*
X201380000Y-56490000D02*
X200580000Y-56490000D01*
X201380000Y-57530000D02*
X201380000Y-56490000D01*
X179170000Y-59330000D02*
X179170000Y-58000000D01*
X180500000Y-59330000D02*
X179170000Y-59330000D01*
X181770000Y-56670000D02*
X184370000Y-56670000D01*
X181770000Y-59330000D02*
X181770000Y-56670000D01*
X181770000Y-59330000D02*
X184370000Y-59330000D01*
X184370000Y-59330000D02*
X184370000Y-56670000D01*
X187700000Y-71470000D02*
X187700000Y-64730000D01*
X201140000Y-64730000D02*
X187700000Y-64730000D01*
X201140000Y-65650000D02*
X187700000Y-65650000D01*
X201140000Y-66650000D02*
X187700000Y-66650000D01*
X201140000Y-69751000D02*
X187700000Y-69751000D01*
X201140000Y-71470000D02*
X187700000Y-71470000D01*
X201140000Y-71470000D02*
X201140000Y-64730000D01*
X201380000Y-64490000D02*
X200580000Y-64490000D01*
X201380000Y-65530000D02*
X201380000Y-64490000D01*
%LPC*%
D16*
X204750000Y-49250000D03*
D17*
X182000000Y-74840000D03*
D18*
X182000000Y-77380000D03*
X182000000Y-79920000D03*
X182000000Y-82460000D03*
X182000000Y-85000000D03*
D16*
X149250000Y-49250000D03*
D17*
X152500000Y-61220000D03*
D19*
X152500000Y-63760000D03*
X152500000Y-66300000D03*
X152500000Y-68840000D03*
X152500000Y-71380000D03*
X152500000Y-73920000D03*
X152500000Y-76460000D03*
X152500000Y-79000000D03*
X175360000Y-79000000D03*
X175360000Y-76460000D03*
X175360000Y-73920000D03*
X175360000Y-71380000D03*
X175360000Y-68840000D03*
X175360000Y-66300000D03*
X175360000Y-63760000D03*
X175360000Y-61220000D03*
D17*
X199500000Y-60250000D03*
D18*
X196960000Y-60250000D03*
X194420000Y-60250000D03*
X191880000Y-60250000D03*
X189340000Y-60250000D03*
D20*
X180500000Y-58000000D03*
D21*
X183040000Y-58000000D03*
D16*
X204750000Y-90500000D03*
X149250000Y-90500000D03*
D17*
X199500000Y-68250000D03*
D18*
X196960000Y-68250000D03*
X194420000Y-68250000D03*
X191880000Y-68250000D03*
X189340000Y-68250000D03*
D17*
X199500000Y-83250000D03*
D18*
X196960000Y-83250000D03*
X194420000Y-83250000D03*
X191880000Y-83250000D03*
X189340000Y-83250000D03*
D17*
X199500000Y-75750000D03*
D18*
X196960000Y-75750000D03*
X194420000Y-75750000D03*
X191880000Y-75750000D03*
X189340000Y-75750000D03*
%LPD*%
M02*
