G04 #@! TF.FileFunction,Legend,Top*
%FSLAX46Y46*%
G04 Gerber Fmt 4.6, Leading zero omitted, Abs format (unit mm)*
G04 Created by KiCad (PCBNEW 4.0.6) date 10/12/17 07:53:40*
%MOMM*%
%LPD*%
G01*
G04 APERTURE LIST*
%ADD10C,0.100000*%
%ADD11C,0.500000*%
%ADD12C,0.250000*%
%ADD13C,0.200000*%
%ADD14C,0.150000*%
G04 APERTURE END LIST*
D10*
D11*
X135993335Y-57376667D02*
X135993335Y-54576667D01*
X136660001Y-54576667D01*
X137060001Y-54710000D01*
X137326668Y-54976667D01*
X137460001Y-55243333D01*
X137593335Y-55776667D01*
X137593335Y-56176667D01*
X137460001Y-56710000D01*
X137326668Y-56976667D01*
X137060001Y-57243333D01*
X136660001Y-57376667D01*
X135993335Y-57376667D01*
X138793335Y-57376667D02*
X138793335Y-55510000D01*
X138793335Y-54576667D02*
X138660001Y-54710000D01*
X138793335Y-54843333D01*
X138926668Y-54710000D01*
X138793335Y-54576667D01*
X138793335Y-54843333D01*
X141326668Y-55510000D02*
X141326668Y-57776667D01*
X141193334Y-58043333D01*
X141060001Y-58176667D01*
X140793334Y-58310000D01*
X140393334Y-58310000D01*
X140126668Y-58176667D01*
X141326668Y-57243333D02*
X141060001Y-57376667D01*
X140526668Y-57376667D01*
X140260001Y-57243333D01*
X140126668Y-57110000D01*
X139993334Y-56843333D01*
X139993334Y-56043333D01*
X140126668Y-55776667D01*
X140260001Y-55643333D01*
X140526668Y-55510000D01*
X141060001Y-55510000D01*
X141326668Y-55643333D01*
X142660001Y-57376667D02*
X142660001Y-55510000D01*
X142660001Y-54576667D02*
X142526667Y-54710000D01*
X142660001Y-54843333D01*
X142793334Y-54710000D01*
X142660001Y-54576667D01*
X142660001Y-54843333D01*
X143593334Y-55510000D02*
X144660000Y-55510000D01*
X143993334Y-54576667D02*
X143993334Y-56976667D01*
X144126667Y-57243333D01*
X144393334Y-57376667D01*
X144660000Y-57376667D01*
X145593334Y-55910000D02*
X146526667Y-55910000D01*
X146926667Y-57376667D02*
X145593334Y-57376667D01*
X145593334Y-54576667D01*
X146926667Y-54576667D01*
X149326667Y-57243333D02*
X149060000Y-57376667D01*
X148526667Y-57376667D01*
X148260000Y-57243333D01*
X148126667Y-57110000D01*
X147993333Y-56843333D01*
X147993333Y-56043333D01*
X148126667Y-55776667D01*
X148260000Y-55643333D01*
X148526667Y-55510000D01*
X149060000Y-55510000D01*
X149326667Y-55643333D01*
X150926667Y-57376667D02*
X150660000Y-57243333D01*
X150526667Y-57110000D01*
X150393333Y-56843333D01*
X150393333Y-56043333D01*
X150526667Y-55776667D01*
X150660000Y-55643333D01*
X150926667Y-55510000D01*
X151326667Y-55510000D01*
X151593333Y-55643333D01*
X151726667Y-55776667D01*
X151860000Y-56043333D01*
X151860000Y-56843333D01*
X151726667Y-57110000D01*
X151593333Y-57243333D01*
X151326667Y-57376667D01*
X150926667Y-57376667D01*
X155059999Y-57243333D02*
X155326666Y-57376667D01*
X155859999Y-57376667D01*
X156126666Y-57243333D01*
X156259999Y-56976667D01*
X156259999Y-56843333D01*
X156126666Y-56576667D01*
X155859999Y-56443333D01*
X155459999Y-56443333D01*
X155193333Y-56310000D01*
X155059999Y-56043333D01*
X155059999Y-55910000D01*
X155193333Y-55643333D01*
X155459999Y-55510000D01*
X155859999Y-55510000D01*
X156126666Y-55643333D01*
X157460000Y-57110000D02*
X157593333Y-57243333D01*
X157460000Y-57376667D01*
X157326666Y-57243333D01*
X157460000Y-57110000D01*
X157460000Y-57376667D01*
X158793333Y-57376667D02*
X158793333Y-55510000D01*
X158793333Y-56043333D02*
X158926666Y-55776667D01*
X159059999Y-55643333D01*
X159326666Y-55510000D01*
X159593333Y-55510000D01*
X160526666Y-57110000D02*
X160659999Y-57243333D01*
X160526666Y-57376667D01*
X160393332Y-57243333D01*
X160526666Y-57110000D01*
X160526666Y-57376667D01*
X162259999Y-57376667D02*
X161993332Y-57243333D01*
X161859999Y-56976667D01*
X161859999Y-54576667D01*
X163326666Y-57110000D02*
X163459999Y-57243333D01*
X163326666Y-57376667D01*
X163193332Y-57243333D01*
X163326666Y-57110000D01*
X163326666Y-57376667D01*
D12*
X129778572Y-76688095D02*
X129345239Y-76069048D01*
X129035715Y-76688095D02*
X129035715Y-75388095D01*
X129530953Y-75388095D01*
X129654762Y-75450000D01*
X129716667Y-75511905D01*
X129778572Y-75635714D01*
X129778572Y-75821429D01*
X129716667Y-75945238D01*
X129654762Y-76007143D01*
X129530953Y-76069048D01*
X129035715Y-76069048D01*
X130211905Y-75388095D02*
X131078572Y-76688095D01*
X131078572Y-75388095D02*
X130211905Y-76688095D01*
X131821429Y-75388095D02*
X131945238Y-75388095D01*
X132069048Y-75450000D01*
X132130953Y-75511905D01*
X132192857Y-75635714D01*
X132254762Y-75883333D01*
X132254762Y-76192857D01*
X132192857Y-76440476D01*
X132130953Y-76564286D01*
X132069048Y-76626190D01*
X131945238Y-76688095D01*
X131821429Y-76688095D01*
X131697619Y-76626190D01*
X131635715Y-76564286D01*
X131573810Y-76440476D01*
X131511905Y-76192857D01*
X131511905Y-75883333D01*
X131573810Y-75635714D01*
X131635715Y-75511905D01*
X131697619Y-75450000D01*
X131821429Y-75388095D01*
X132811905Y-76192857D02*
X133802381Y-76192857D01*
X134421429Y-76688095D02*
X134421429Y-75388095D01*
X134730953Y-75388095D01*
X134916667Y-75450000D01*
X135040476Y-75573810D01*
X135102381Y-75697619D01*
X135164286Y-75945238D01*
X135164286Y-76130952D01*
X135102381Y-76378571D01*
X135040476Y-76502381D01*
X134916667Y-76626190D01*
X134730953Y-76688095D01*
X134421429Y-76688095D01*
X135969048Y-75388095D02*
X136092857Y-75388095D01*
X136216667Y-75450000D01*
X136278572Y-75511905D01*
X136340476Y-75635714D01*
X136402381Y-75883333D01*
X136402381Y-76192857D01*
X136340476Y-76440476D01*
X136278572Y-76564286D01*
X136216667Y-76626190D01*
X136092857Y-76688095D01*
X135969048Y-76688095D01*
X135845238Y-76626190D01*
X135783334Y-76564286D01*
X135721429Y-76440476D01*
X135659524Y-76192857D01*
X135659524Y-75883333D01*
X135721429Y-75635714D01*
X135783334Y-75511905D01*
X135845238Y-75450000D01*
X135969048Y-75388095D01*
X129159525Y-77928095D02*
X129902382Y-77928095D01*
X129530953Y-79228095D02*
X129530953Y-77928095D01*
X130211905Y-77928095D02*
X131078572Y-79228095D01*
X131078572Y-77928095D02*
X130211905Y-79228095D01*
X131821429Y-77928095D02*
X131945238Y-77928095D01*
X132069048Y-77990000D01*
X132130953Y-78051905D01*
X132192857Y-78175714D01*
X132254762Y-78423333D01*
X132254762Y-78732857D01*
X132192857Y-78980476D01*
X132130953Y-79104286D01*
X132069048Y-79166190D01*
X131945238Y-79228095D01*
X131821429Y-79228095D01*
X131697619Y-79166190D01*
X131635715Y-79104286D01*
X131573810Y-78980476D01*
X131511905Y-78732857D01*
X131511905Y-78423333D01*
X131573810Y-78175714D01*
X131635715Y-78051905D01*
X131697619Y-77990000D01*
X131821429Y-77928095D01*
X132811905Y-78732857D02*
X133802381Y-78732857D01*
X134421429Y-79228095D02*
X134421429Y-77928095D01*
X134730953Y-77928095D01*
X134916667Y-77990000D01*
X135040476Y-78113810D01*
X135102381Y-78237619D01*
X135164286Y-78485238D01*
X135164286Y-78670952D01*
X135102381Y-78918571D01*
X135040476Y-79042381D01*
X134916667Y-79166190D01*
X134730953Y-79228095D01*
X134421429Y-79228095D01*
X136402381Y-79228095D02*
X135659524Y-79228095D01*
X136030953Y-79228095D02*
X136030953Y-77928095D01*
X135907143Y-78113810D01*
X135783334Y-78237619D01*
X135659524Y-78299524D01*
X134421429Y-81768095D02*
X134421429Y-80468095D01*
X134730953Y-80468095D01*
X134916667Y-80530000D01*
X135040476Y-80653810D01*
X135102381Y-80777619D01*
X135164286Y-81025238D01*
X135164286Y-81210952D01*
X135102381Y-81458571D01*
X135040476Y-81582381D01*
X134916667Y-81706190D01*
X134730953Y-81768095D01*
X134421429Y-81768095D01*
X135659524Y-80591905D02*
X135721429Y-80530000D01*
X135845238Y-80468095D01*
X136154762Y-80468095D01*
X136278572Y-80530000D01*
X136340476Y-80591905D01*
X136402381Y-80715714D01*
X136402381Y-80839524D01*
X136340476Y-81025238D01*
X135597619Y-81768095D01*
X136402381Y-81768095D01*
X134421429Y-84308095D02*
X134421429Y-83008095D01*
X134730953Y-83008095D01*
X134916667Y-83070000D01*
X135040476Y-83193810D01*
X135102381Y-83317619D01*
X135164286Y-83565238D01*
X135164286Y-83750952D01*
X135102381Y-83998571D01*
X135040476Y-84122381D01*
X134916667Y-84246190D01*
X134730953Y-84308095D01*
X134421429Y-84308095D01*
X135597619Y-83008095D02*
X136402381Y-83008095D01*
X135969048Y-83503333D01*
X136154762Y-83503333D01*
X136278572Y-83565238D01*
X136340476Y-83627143D01*
X136402381Y-83750952D01*
X136402381Y-84060476D01*
X136340476Y-84184286D01*
X136278572Y-84246190D01*
X136154762Y-84308095D01*
X135783334Y-84308095D01*
X135659524Y-84246190D01*
X135597619Y-84184286D01*
X134361429Y-86848095D02*
X134361429Y-85548095D01*
X134670953Y-85548095D01*
X134856667Y-85610000D01*
X134980476Y-85733810D01*
X135042381Y-85857619D01*
X135104286Y-86105238D01*
X135104286Y-86290952D01*
X135042381Y-86538571D01*
X134980476Y-86662381D01*
X134856667Y-86786190D01*
X134670953Y-86848095D01*
X134361429Y-86848095D01*
X136218572Y-85981429D02*
X136218572Y-86848095D01*
X135909048Y-85486190D02*
X135599524Y-86414762D01*
X136404286Y-86414762D01*
X134421429Y-89388095D02*
X134421429Y-88088095D01*
X134730953Y-88088095D01*
X134916667Y-88150000D01*
X135040476Y-88273810D01*
X135102381Y-88397619D01*
X135164286Y-88645238D01*
X135164286Y-88830952D01*
X135102381Y-89078571D01*
X135040476Y-89202381D01*
X134916667Y-89326190D01*
X134730953Y-89388095D01*
X134421429Y-89388095D01*
X136340476Y-88088095D02*
X135721429Y-88088095D01*
X135659524Y-88707143D01*
X135721429Y-88645238D01*
X135845238Y-88583333D01*
X136154762Y-88583333D01*
X136278572Y-88645238D01*
X136340476Y-88707143D01*
X136402381Y-88830952D01*
X136402381Y-89140476D01*
X136340476Y-89264286D01*
X136278572Y-89326190D01*
X136154762Y-89388095D01*
X135845238Y-89388095D01*
X135721429Y-89326190D01*
X135659524Y-89264286D01*
X134421429Y-91928095D02*
X134421429Y-90628095D01*
X134730953Y-90628095D01*
X134916667Y-90690000D01*
X135040476Y-90813810D01*
X135102381Y-90937619D01*
X135164286Y-91185238D01*
X135164286Y-91370952D01*
X135102381Y-91618571D01*
X135040476Y-91742381D01*
X134916667Y-91866190D01*
X134730953Y-91928095D01*
X134421429Y-91928095D01*
X136278572Y-90628095D02*
X136030953Y-90628095D01*
X135907143Y-90690000D01*
X135845238Y-90751905D01*
X135721429Y-90937619D01*
X135659524Y-91185238D01*
X135659524Y-91680476D01*
X135721429Y-91804286D01*
X135783334Y-91866190D01*
X135907143Y-91928095D01*
X136154762Y-91928095D01*
X136278572Y-91866190D01*
X136340476Y-91804286D01*
X136402381Y-91680476D01*
X136402381Y-91370952D01*
X136340476Y-91247143D01*
X136278572Y-91185238D01*
X136154762Y-91123333D01*
X135907143Y-91123333D01*
X135783334Y-91185238D01*
X135721429Y-91247143D01*
X135659524Y-91370952D01*
X131701430Y-94458095D02*
X131268097Y-93839048D01*
X130958573Y-94458095D02*
X130958573Y-93158095D01*
X131453811Y-93158095D01*
X131577620Y-93220000D01*
X131639525Y-93281905D01*
X131701430Y-93405714D01*
X131701430Y-93591429D01*
X131639525Y-93715238D01*
X131577620Y-93777143D01*
X131453811Y-93839048D01*
X130958573Y-93839048D01*
X132258573Y-93777143D02*
X132691906Y-93777143D01*
X132877620Y-94458095D02*
X132258573Y-94458095D01*
X132258573Y-93158095D01*
X132877620Y-93158095D01*
X133372858Y-94396190D02*
X133558572Y-94458095D01*
X133868096Y-94458095D01*
X133991906Y-94396190D01*
X134053810Y-94334286D01*
X134115715Y-94210476D01*
X134115715Y-94086667D01*
X134053810Y-93962857D01*
X133991906Y-93900952D01*
X133868096Y-93839048D01*
X133620477Y-93777143D01*
X133496668Y-93715238D01*
X133434763Y-93653333D01*
X133372858Y-93529524D01*
X133372858Y-93405714D01*
X133434763Y-93281905D01*
X133496668Y-93220000D01*
X133620477Y-93158095D01*
X133930001Y-93158095D01*
X134115715Y-93220000D01*
X134672858Y-93777143D02*
X135106191Y-93777143D01*
X135291905Y-94458095D02*
X134672858Y-94458095D01*
X134672858Y-93158095D01*
X135291905Y-93158095D01*
X135663334Y-93158095D02*
X136406191Y-93158095D01*
X136034762Y-94458095D02*
X136034762Y-93158095D01*
X133678571Y-95770000D02*
X133554762Y-95708095D01*
X133369047Y-95708095D01*
X133183333Y-95770000D01*
X133059524Y-95893810D01*
X132997619Y-96017619D01*
X132935714Y-96265238D01*
X132935714Y-96450952D01*
X132997619Y-96698571D01*
X133059524Y-96822381D01*
X133183333Y-96946190D01*
X133369047Y-97008095D01*
X133492857Y-97008095D01*
X133678571Y-96946190D01*
X133740476Y-96884286D01*
X133740476Y-96450952D01*
X133492857Y-96450952D01*
X134297619Y-97008095D02*
X134297619Y-95708095D01*
X135040476Y-97008095D01*
X135040476Y-95708095D01*
X135659524Y-97008095D02*
X135659524Y-95708095D01*
X135969048Y-95708095D01*
X136154762Y-95770000D01*
X136278571Y-95893810D01*
X136340476Y-96017619D01*
X136402381Y-96265238D01*
X136402381Y-96450952D01*
X136340476Y-96698571D01*
X136278571Y-96822381D01*
X136154762Y-96946190D01*
X135969048Y-97008095D01*
X135659524Y-97008095D01*
X139666667Y-70382381D02*
X139666667Y-69763333D01*
X140038095Y-70506190D02*
X138738095Y-70072857D01*
X140038095Y-69639524D01*
X138738095Y-69330000D02*
X138738095Y-68463333D01*
X140038095Y-69020476D01*
X142206667Y-70382381D02*
X142206667Y-69763333D01*
X142578095Y-70506190D02*
X141278095Y-70072857D01*
X142578095Y-69639524D01*
X141278095Y-68649047D02*
X141278095Y-68896666D01*
X141340000Y-69020476D01*
X141401905Y-69082381D01*
X141587619Y-69206190D01*
X141835238Y-69268095D01*
X142330476Y-69268095D01*
X142454286Y-69206190D01*
X142516190Y-69144285D01*
X142578095Y-69020476D01*
X142578095Y-68772857D01*
X142516190Y-68649047D01*
X142454286Y-68587143D01*
X142330476Y-68525238D01*
X142020952Y-68525238D01*
X141897143Y-68587143D01*
X141835238Y-68649047D01*
X141773333Y-68772857D01*
X141773333Y-69020476D01*
X141835238Y-69144285D01*
X141897143Y-69206190D01*
X142020952Y-69268095D01*
X144756667Y-70382381D02*
X144756667Y-69763333D01*
X145128095Y-70506190D02*
X143828095Y-70072857D01*
X145128095Y-69639524D01*
X143828095Y-68587143D02*
X143828095Y-69206190D01*
X144447143Y-69268095D01*
X144385238Y-69206190D01*
X144323333Y-69082381D01*
X144323333Y-68772857D01*
X144385238Y-68649047D01*
X144447143Y-68587143D01*
X144570952Y-68525238D01*
X144880476Y-68525238D01*
X145004286Y-68587143D01*
X145066190Y-68649047D01*
X145128095Y-68772857D01*
X145128095Y-69082381D01*
X145066190Y-69206190D01*
X145004286Y-69268095D01*
X144632857Y-67968095D02*
X144632857Y-66977619D01*
X145066190Y-66420476D02*
X145128095Y-66234762D01*
X145128095Y-65925238D01*
X145066190Y-65801428D01*
X145004286Y-65739524D01*
X144880476Y-65677619D01*
X144756667Y-65677619D01*
X144632857Y-65739524D01*
X144570952Y-65801428D01*
X144509048Y-65925238D01*
X144447143Y-66172857D01*
X144385238Y-66296666D01*
X144323333Y-66358571D01*
X144199524Y-66420476D01*
X144075714Y-66420476D01*
X143951905Y-66358571D01*
X143890000Y-66296666D01*
X143828095Y-66172857D01*
X143828095Y-65863333D01*
X143890000Y-65677619D01*
X145004286Y-64377619D02*
X145066190Y-64439524D01*
X145128095Y-64625238D01*
X145128095Y-64749048D01*
X145066190Y-64934762D01*
X144942381Y-65058571D01*
X144818571Y-65120476D01*
X144570952Y-65182381D01*
X144385238Y-65182381D01*
X144137619Y-65120476D01*
X144013810Y-65058571D01*
X143890000Y-64934762D01*
X143828095Y-64749048D01*
X143828095Y-64625238D01*
X143890000Y-64439524D01*
X143951905Y-64377619D01*
X145128095Y-63201429D02*
X145128095Y-63820476D01*
X143828095Y-63820476D01*
X147286667Y-70382381D02*
X147286667Y-69763333D01*
X147658095Y-70506190D02*
X146358095Y-70072857D01*
X147658095Y-69639524D01*
X146791429Y-68649047D02*
X147658095Y-68649047D01*
X146296190Y-68958571D02*
X147224762Y-69268095D01*
X147224762Y-68463333D01*
X147162857Y-67968095D02*
X147162857Y-66977619D01*
X147596190Y-66420476D02*
X147658095Y-66234762D01*
X147658095Y-65925238D01*
X147596190Y-65801428D01*
X147534286Y-65739524D01*
X147410476Y-65677619D01*
X147286667Y-65677619D01*
X147162857Y-65739524D01*
X147100952Y-65801428D01*
X147039048Y-65925238D01*
X146977143Y-66172857D01*
X146915238Y-66296666D01*
X146853333Y-66358571D01*
X146729524Y-66420476D01*
X146605714Y-66420476D01*
X146481905Y-66358571D01*
X146420000Y-66296666D01*
X146358095Y-66172857D01*
X146358095Y-65863333D01*
X146420000Y-65677619D01*
X147658095Y-65120476D02*
X146358095Y-65120476D01*
X146358095Y-64810952D01*
X146420000Y-64625238D01*
X146543810Y-64501429D01*
X146667619Y-64439524D01*
X146915238Y-64377619D01*
X147100952Y-64377619D01*
X147348571Y-64439524D01*
X147472381Y-64501429D01*
X147596190Y-64625238D01*
X147658095Y-64810952D01*
X147658095Y-65120476D01*
X147286667Y-63882381D02*
X147286667Y-63263333D01*
X147658095Y-64006190D02*
X146358095Y-63572857D01*
X147658095Y-63139524D01*
X149826667Y-70382381D02*
X149826667Y-69763333D01*
X150198095Y-70506190D02*
X148898095Y-70072857D01*
X150198095Y-69639524D01*
X148898095Y-69330000D02*
X148898095Y-68525238D01*
X149393333Y-68958571D01*
X149393333Y-68772857D01*
X149455238Y-68649047D01*
X149517143Y-68587143D01*
X149640952Y-68525238D01*
X149950476Y-68525238D01*
X150074286Y-68587143D01*
X150136190Y-68649047D01*
X150198095Y-68772857D01*
X150198095Y-69144285D01*
X150136190Y-69268095D01*
X150074286Y-69330000D01*
X152366667Y-70382381D02*
X152366667Y-69763333D01*
X152738095Y-70506190D02*
X151438095Y-70072857D01*
X152738095Y-69639524D01*
X151561905Y-69268095D02*
X151500000Y-69206190D01*
X151438095Y-69082381D01*
X151438095Y-68772857D01*
X151500000Y-68649047D01*
X151561905Y-68587143D01*
X151685714Y-68525238D01*
X151809524Y-68525238D01*
X151995238Y-68587143D01*
X152738095Y-69330000D01*
X152738095Y-68525238D01*
X154906667Y-70382381D02*
X154906667Y-69763333D01*
X155278095Y-70506190D02*
X153978095Y-70072857D01*
X155278095Y-69639524D01*
X155278095Y-68525238D02*
X155278095Y-69268095D01*
X155278095Y-68896666D02*
X153978095Y-68896666D01*
X154163810Y-69020476D01*
X154287619Y-69144285D01*
X154349524Y-69268095D01*
X157446667Y-70382381D02*
X157446667Y-69763333D01*
X157818095Y-70506190D02*
X156518095Y-70072857D01*
X157818095Y-69639524D01*
X156518095Y-68958571D02*
X156518095Y-68834762D01*
X156580000Y-68710952D01*
X156641905Y-68649047D01*
X156765714Y-68587143D01*
X157013333Y-68525238D01*
X157322857Y-68525238D01*
X157570476Y-68587143D01*
X157694286Y-68649047D01*
X157756190Y-68710952D01*
X157818095Y-68834762D01*
X157818095Y-68958571D01*
X157756190Y-69082381D01*
X157694286Y-69144285D01*
X157570476Y-69206190D01*
X157322857Y-69268095D01*
X157013333Y-69268095D01*
X156765714Y-69206190D01*
X156641905Y-69144285D01*
X156580000Y-69082381D01*
X156518095Y-68958571D01*
X159986667Y-70382381D02*
X159986667Y-69763333D01*
X160358095Y-70506190D02*
X159058095Y-70072857D01*
X160358095Y-69639524D01*
X160358095Y-68463333D02*
X159739048Y-68896666D01*
X160358095Y-69206190D02*
X159058095Y-69206190D01*
X159058095Y-68710952D01*
X159120000Y-68587143D01*
X159181905Y-68525238D01*
X159305714Y-68463333D01*
X159491429Y-68463333D01*
X159615238Y-68525238D01*
X159677143Y-68587143D01*
X159739048Y-68710952D01*
X159739048Y-69206190D01*
X159677143Y-67906190D02*
X159677143Y-67472857D01*
X160358095Y-67287143D02*
X160358095Y-67906190D01*
X159058095Y-67906190D01*
X159058095Y-67287143D01*
X159677143Y-66296667D02*
X159677143Y-66730000D01*
X160358095Y-66730000D02*
X159058095Y-66730000D01*
X159058095Y-66110953D01*
X162921905Y-76587619D02*
X162921905Y-75487619D01*
X163183810Y-75487619D01*
X163340952Y-75540000D01*
X163445714Y-75644762D01*
X163498095Y-75749524D01*
X163550476Y-75959048D01*
X163550476Y-76116190D01*
X163498095Y-76325714D01*
X163445714Y-76430476D01*
X163340952Y-76535238D01*
X163183810Y-76587619D01*
X162921905Y-76587619D01*
X164598095Y-76587619D02*
X163969524Y-76587619D01*
X164283810Y-76587619D02*
X164283810Y-75487619D01*
X164179048Y-75644762D01*
X164074286Y-75749524D01*
X163969524Y-75801905D01*
X164964762Y-75487619D02*
X165645714Y-75487619D01*
X165279048Y-75906667D01*
X165436190Y-75906667D01*
X165540952Y-75959048D01*
X165593333Y-76011429D01*
X165645714Y-76116190D01*
X165645714Y-76378095D01*
X165593333Y-76482857D01*
X165540952Y-76535238D01*
X165436190Y-76587619D01*
X165121905Y-76587619D01*
X165017143Y-76535238D01*
X164964762Y-76482857D01*
X166117143Y-76168571D02*
X166955238Y-76168571D01*
X167426667Y-76535238D02*
X167583810Y-76587619D01*
X167845714Y-76587619D01*
X167950476Y-76535238D01*
X168002857Y-76482857D01*
X168055238Y-76378095D01*
X168055238Y-76273333D01*
X168002857Y-76168571D01*
X167950476Y-76116190D01*
X167845714Y-76063810D01*
X167636191Y-76011429D01*
X167531429Y-75959048D01*
X167479048Y-75906667D01*
X167426667Y-75801905D01*
X167426667Y-75697143D01*
X167479048Y-75592381D01*
X167531429Y-75540000D01*
X167636191Y-75487619D01*
X167898095Y-75487619D01*
X168055238Y-75540000D01*
X169155238Y-76482857D02*
X169102857Y-76535238D01*
X168945714Y-76587619D01*
X168840952Y-76587619D01*
X168683810Y-76535238D01*
X168579048Y-76430476D01*
X168526667Y-76325714D01*
X168474286Y-76116190D01*
X168474286Y-75959048D01*
X168526667Y-75749524D01*
X168579048Y-75644762D01*
X168683810Y-75540000D01*
X168840952Y-75487619D01*
X168945714Y-75487619D01*
X169102857Y-75540000D01*
X169155238Y-75592381D01*
X169626667Y-76587619D02*
X169626667Y-75487619D01*
X170255238Y-76587619D02*
X169783810Y-75959048D01*
X170255238Y-75487619D02*
X169626667Y-76116190D01*
X162911905Y-79137619D02*
X162911905Y-78037619D01*
X163173810Y-78037619D01*
X163330952Y-78090000D01*
X163435714Y-78194762D01*
X163488095Y-78299524D01*
X163540476Y-78509048D01*
X163540476Y-78666190D01*
X163488095Y-78875714D01*
X163435714Y-78980476D01*
X163330952Y-79085238D01*
X163173810Y-79137619D01*
X162911905Y-79137619D01*
X164588095Y-79137619D02*
X163959524Y-79137619D01*
X164273810Y-79137619D02*
X164273810Y-78037619D01*
X164169048Y-78194762D01*
X164064286Y-78299524D01*
X163959524Y-78351905D01*
X165007143Y-78142381D02*
X165059524Y-78090000D01*
X165164286Y-78037619D01*
X165426190Y-78037619D01*
X165530952Y-78090000D01*
X165583333Y-78142381D01*
X165635714Y-78247143D01*
X165635714Y-78351905D01*
X165583333Y-78509048D01*
X164954762Y-79137619D01*
X165635714Y-79137619D01*
X166107143Y-78718571D02*
X166945238Y-78718571D01*
X167469048Y-79137619D02*
X167469048Y-78037619D01*
X167835714Y-78823333D01*
X168202381Y-78037619D01*
X168202381Y-79137619D01*
X168726191Y-79137619D02*
X168726191Y-78037619D01*
X169197620Y-79085238D02*
X169354763Y-79137619D01*
X169616667Y-79137619D01*
X169721429Y-79085238D01*
X169773810Y-79032857D01*
X169826191Y-78928095D01*
X169826191Y-78823333D01*
X169773810Y-78718571D01*
X169721429Y-78666190D01*
X169616667Y-78613810D01*
X169407144Y-78561429D01*
X169302382Y-78509048D01*
X169250001Y-78456667D01*
X169197620Y-78351905D01*
X169197620Y-78247143D01*
X169250001Y-78142381D01*
X169302382Y-78090000D01*
X169407144Y-78037619D01*
X169669048Y-78037619D01*
X169826191Y-78090000D01*
X170507144Y-78037619D02*
X170716667Y-78037619D01*
X170821429Y-78090000D01*
X170926191Y-78194762D01*
X170978572Y-78404286D01*
X170978572Y-78770952D01*
X170926191Y-78980476D01*
X170821429Y-79085238D01*
X170716667Y-79137619D01*
X170507144Y-79137619D01*
X170402382Y-79085238D01*
X170297620Y-78980476D01*
X170245239Y-78770952D01*
X170245239Y-78404286D01*
X170297620Y-78194762D01*
X170402382Y-78090000D01*
X170507144Y-78037619D01*
X162911905Y-81677619D02*
X162911905Y-80577619D01*
X163173810Y-80577619D01*
X163330952Y-80630000D01*
X163435714Y-80734762D01*
X163488095Y-80839524D01*
X163540476Y-81049048D01*
X163540476Y-81206190D01*
X163488095Y-81415714D01*
X163435714Y-81520476D01*
X163330952Y-81625238D01*
X163173810Y-81677619D01*
X162911905Y-81677619D01*
X164588095Y-81677619D02*
X163959524Y-81677619D01*
X164273810Y-81677619D02*
X164273810Y-80577619D01*
X164169048Y-80734762D01*
X164064286Y-80839524D01*
X163959524Y-80891905D01*
X165635714Y-81677619D02*
X165007143Y-81677619D01*
X165321429Y-81677619D02*
X165321429Y-80577619D01*
X165216667Y-80734762D01*
X165111905Y-80839524D01*
X165007143Y-80891905D01*
X166107143Y-81258571D02*
X166945238Y-81258571D01*
X167469048Y-81677619D02*
X167469048Y-80577619D01*
X167835714Y-81363333D01*
X168202381Y-80577619D01*
X168202381Y-81677619D01*
X168935715Y-80577619D02*
X169145238Y-80577619D01*
X169250000Y-80630000D01*
X169354762Y-80734762D01*
X169407143Y-80944286D01*
X169407143Y-81310952D01*
X169354762Y-81520476D01*
X169250000Y-81625238D01*
X169145238Y-81677619D01*
X168935715Y-81677619D01*
X168830953Y-81625238D01*
X168726191Y-81520476D01*
X168673810Y-81310952D01*
X168673810Y-80944286D01*
X168726191Y-80734762D01*
X168830953Y-80630000D01*
X168935715Y-80577619D01*
X169826191Y-81625238D02*
X169983334Y-81677619D01*
X170245238Y-81677619D01*
X170350000Y-81625238D01*
X170402381Y-81572857D01*
X170454762Y-81468095D01*
X170454762Y-81363333D01*
X170402381Y-81258571D01*
X170350000Y-81206190D01*
X170245238Y-81153810D01*
X170035715Y-81101429D01*
X169930953Y-81049048D01*
X169878572Y-80996667D01*
X169826191Y-80891905D01*
X169826191Y-80787143D01*
X169878572Y-80682381D01*
X169930953Y-80630000D01*
X170035715Y-80577619D01*
X170297619Y-80577619D01*
X170454762Y-80630000D01*
X170926191Y-81677619D02*
X170926191Y-80577619D01*
X162959524Y-84308095D02*
X162959524Y-83008095D01*
X163269048Y-83008095D01*
X163454762Y-83070000D01*
X163578571Y-83193810D01*
X163640476Y-83317619D01*
X163702381Y-83565238D01*
X163702381Y-83750952D01*
X163640476Y-83998571D01*
X163578571Y-84122381D01*
X163454762Y-84246190D01*
X163269048Y-84308095D01*
X162959524Y-84308095D01*
X164940476Y-84308095D02*
X164197619Y-84308095D01*
X164569048Y-84308095D02*
X164569048Y-83008095D01*
X164445238Y-83193810D01*
X164321429Y-83317619D01*
X164197619Y-83379524D01*
X165745238Y-83008095D02*
X165869047Y-83008095D01*
X165992857Y-83070000D01*
X166054762Y-83131905D01*
X166116666Y-83255714D01*
X166178571Y-83503333D01*
X166178571Y-83812857D01*
X166116666Y-84060476D01*
X166054762Y-84184286D01*
X165992857Y-84246190D01*
X165869047Y-84308095D01*
X165745238Y-84308095D01*
X165621428Y-84246190D01*
X165559524Y-84184286D01*
X165497619Y-84060476D01*
X165435714Y-83812857D01*
X165435714Y-83503333D01*
X165497619Y-83255714D01*
X165559524Y-83131905D01*
X165621428Y-83070000D01*
X165745238Y-83008095D01*
X166735714Y-83812857D02*
X167726190Y-83812857D01*
X168283333Y-84246190D02*
X168469047Y-84308095D01*
X168778571Y-84308095D01*
X168902381Y-84246190D01*
X168964285Y-84184286D01*
X169026190Y-84060476D01*
X169026190Y-83936667D01*
X168964285Y-83812857D01*
X168902381Y-83750952D01*
X168778571Y-83689048D01*
X168530952Y-83627143D01*
X168407143Y-83565238D01*
X168345238Y-83503333D01*
X168283333Y-83379524D01*
X168283333Y-83255714D01*
X168345238Y-83131905D01*
X168407143Y-83070000D01*
X168530952Y-83008095D01*
X168840476Y-83008095D01*
X169026190Y-83070000D01*
X169521428Y-84246190D02*
X169707142Y-84308095D01*
X170016666Y-84308095D01*
X170140476Y-84246190D01*
X170202380Y-84184286D01*
X170264285Y-84060476D01*
X170264285Y-83936667D01*
X170202380Y-83812857D01*
X170140476Y-83750952D01*
X170016666Y-83689048D01*
X169769047Y-83627143D01*
X169645238Y-83565238D01*
X169583333Y-83503333D01*
X169521428Y-83379524D01*
X169521428Y-83255714D01*
X169583333Y-83131905D01*
X169645238Y-83070000D01*
X169769047Y-83008095D01*
X170078571Y-83008095D01*
X170264285Y-83070000D01*
X162959524Y-86848095D02*
X162959524Y-85548095D01*
X163269048Y-85548095D01*
X163454762Y-85610000D01*
X163578571Y-85733810D01*
X163640476Y-85857619D01*
X163702381Y-86105238D01*
X163702381Y-86290952D01*
X163640476Y-86538571D01*
X163578571Y-86662381D01*
X163454762Y-86786190D01*
X163269048Y-86848095D01*
X162959524Y-86848095D01*
X164321429Y-86848095D02*
X164569048Y-86848095D01*
X164692857Y-86786190D01*
X164754762Y-86724286D01*
X164878571Y-86538571D01*
X164940476Y-86290952D01*
X164940476Y-85795714D01*
X164878571Y-85671905D01*
X164816667Y-85610000D01*
X164692857Y-85548095D01*
X164445238Y-85548095D01*
X164321429Y-85610000D01*
X164259524Y-85671905D01*
X164197619Y-85795714D01*
X164197619Y-86105238D01*
X164259524Y-86229048D01*
X164321429Y-86290952D01*
X164445238Y-86352857D01*
X164692857Y-86352857D01*
X164816667Y-86290952D01*
X164878571Y-86229048D01*
X164940476Y-86105238D01*
X162959524Y-89388095D02*
X162959524Y-88088095D01*
X163269048Y-88088095D01*
X163454762Y-88150000D01*
X163578571Y-88273810D01*
X163640476Y-88397619D01*
X163702381Y-88645238D01*
X163702381Y-88830952D01*
X163640476Y-89078571D01*
X163578571Y-89202381D01*
X163454762Y-89326190D01*
X163269048Y-89388095D01*
X162959524Y-89388095D01*
X164445238Y-88645238D02*
X164321429Y-88583333D01*
X164259524Y-88521429D01*
X164197619Y-88397619D01*
X164197619Y-88335714D01*
X164259524Y-88211905D01*
X164321429Y-88150000D01*
X164445238Y-88088095D01*
X164692857Y-88088095D01*
X164816667Y-88150000D01*
X164878571Y-88211905D01*
X164940476Y-88335714D01*
X164940476Y-88397619D01*
X164878571Y-88521429D01*
X164816667Y-88583333D01*
X164692857Y-88645238D01*
X164445238Y-88645238D01*
X164321429Y-88707143D01*
X164259524Y-88769048D01*
X164197619Y-88892857D01*
X164197619Y-89140476D01*
X164259524Y-89264286D01*
X164321429Y-89326190D01*
X164445238Y-89388095D01*
X164692857Y-89388095D01*
X164816667Y-89326190D01*
X164878571Y-89264286D01*
X164940476Y-89140476D01*
X164940476Y-88892857D01*
X164878571Y-88769048D01*
X164816667Y-88707143D01*
X164692857Y-88645238D01*
X162959524Y-91928095D02*
X162959524Y-90628095D01*
X163269048Y-90628095D01*
X163454762Y-90690000D01*
X163578571Y-90813810D01*
X163640476Y-90937619D01*
X163702381Y-91185238D01*
X163702381Y-91370952D01*
X163640476Y-91618571D01*
X163578571Y-91742381D01*
X163454762Y-91866190D01*
X163269048Y-91928095D01*
X162959524Y-91928095D01*
X164135714Y-90628095D02*
X165002381Y-90628095D01*
X164445238Y-91928095D01*
X162835714Y-93168095D02*
X163640476Y-93168095D01*
X163207143Y-93663333D01*
X163392857Y-93663333D01*
X163516667Y-93725238D01*
X163578571Y-93787143D01*
X163640476Y-93910952D01*
X163640476Y-94220476D01*
X163578571Y-94344286D01*
X163516667Y-94406190D01*
X163392857Y-94468095D01*
X163021429Y-94468095D01*
X162897619Y-94406190D01*
X162835714Y-94344286D01*
X164011905Y-93168095D02*
X164445238Y-94468095D01*
X164878571Y-93168095D01*
X165188095Y-93168095D02*
X165992857Y-93168095D01*
X165559524Y-93663333D01*
X165745238Y-93663333D01*
X165869048Y-93725238D01*
X165930952Y-93787143D01*
X165992857Y-93910952D01*
X165992857Y-94220476D01*
X165930952Y-94344286D01*
X165869048Y-94406190D01*
X165745238Y-94468095D01*
X165373810Y-94468095D01*
X165250000Y-94406190D01*
X165188095Y-94344286D01*
X163568571Y-95708095D02*
X162949524Y-95708095D01*
X162887619Y-96327143D01*
X162949524Y-96265238D01*
X163073333Y-96203333D01*
X163382857Y-96203333D01*
X163506667Y-96265238D01*
X163568571Y-96327143D01*
X163630476Y-96450952D01*
X163630476Y-96760476D01*
X163568571Y-96884286D01*
X163506667Y-96946190D01*
X163382857Y-97008095D01*
X163073333Y-97008095D01*
X162949524Y-96946190D01*
X162887619Y-96884286D01*
X164001905Y-95708095D02*
X164435238Y-97008095D01*
X164868571Y-95708095D01*
D10*
X171600000Y-48920000D02*
X127560000Y-48920000D01*
X171600000Y-120960000D02*
X171600000Y-48920000D01*
X127560000Y-120960000D02*
X171600000Y-120960000D01*
X127560000Y-48920000D02*
X127560000Y-120960000D01*
D13*
X161570000Y-71750000D02*
X137650000Y-71750000D01*
X161570000Y-98200000D02*
X161570000Y-71750000D01*
X157970000Y-98200000D02*
X161570000Y-98200000D01*
X157970000Y-75370000D02*
X157970000Y-98200000D01*
X141250000Y-75370000D02*
X157970000Y-75370000D01*
X141250000Y-98220000D02*
X141250000Y-75370000D01*
X137650000Y-98220000D02*
X141250000Y-98220000D01*
X137650000Y-71750000D02*
X137650000Y-98220000D01*
D14*
X158931905Y-99372381D02*
X158931905Y-98372381D01*
X159312858Y-98372381D01*
X159408096Y-98420000D01*
X159455715Y-98467619D01*
X159503334Y-98562857D01*
X159503334Y-98705714D01*
X159455715Y-98800952D01*
X159408096Y-98848571D01*
X159312858Y-98896190D01*
X158931905Y-98896190D01*
X160455715Y-99372381D02*
X159884286Y-99372381D01*
X160170000Y-99372381D02*
X160170000Y-98372381D01*
X160074762Y-98515238D01*
X159979524Y-98610476D01*
X159884286Y-98658095D01*
M02*
