M48
;DRILL file {KiCad 4.0.6} date 10/12/17 07:53:37
;FORMAT={-:-/ absolute / inch / decimal}
FMAT,2
INCH,TZ
T1C0.059
%
G90
G05
M72
T1
X5.4902Y-2.8961
X5.4902Y-2.9961
X5.4902Y-3.0961
X5.4902Y-3.1961
X5.4902Y-3.2961
X5.4902Y-3.3961
X5.4902Y-3.4961
X5.4902Y-3.5961
X5.4902Y-3.6961
X5.4902Y-3.7961
X5.5902Y-2.8961
X5.6902Y-2.8961
X5.7902Y-2.8961
X5.8902Y-2.8961
X5.9902Y-2.8961
X6.0902Y-2.8961
X6.1902Y-2.8961
X6.2902Y-2.8961
X6.2902Y-2.9961
X6.2902Y-3.0961
X6.2902Y-3.1961
X6.2902Y-3.2961
X6.2902Y-3.3961
X6.2902Y-3.4961
X6.2902Y-3.5961
X6.2902Y-3.6961
X6.2902Y-3.7961
T0
M30
