G04 #@! TF.FileFunction,Other,Fab,Top*
%FSLAX46Y46*%
G04 Gerber Fmt 4.6, Leading zero omitted, Abs format (unit mm)*
G04 Created by KiCad (PCBNEW 4.0.6) date 10/12/17 07:53:40*
%MOMM*%
%LPD*%
G01*
G04 APERTURE LIST*
%ADD10C,0.100000*%
%ADD11C,0.300000*%
G04 APERTURE END LIST*
D10*
D11*
X144080601Y-129146171D02*
X144080601Y-130146171D01*
X143723458Y-128574743D02*
X143366315Y-129646171D01*
X144294887Y-129646171D01*
X145509172Y-129146171D02*
X145509172Y-130146171D01*
X145152029Y-128574743D02*
X144794886Y-129646171D01*
X145723458Y-129646171D01*
X146366314Y-130074743D02*
X146366314Y-130146171D01*
X146294886Y-130289029D01*
X146223457Y-130360457D01*
X147294886Y-128646171D02*
X147437743Y-128646171D01*
X147580600Y-128717600D01*
X147652029Y-128789029D01*
X147723458Y-128931886D01*
X147794886Y-129217600D01*
X147794886Y-129574743D01*
X147723458Y-129860457D01*
X147652029Y-130003314D01*
X147580600Y-130074743D01*
X147437743Y-130146171D01*
X147294886Y-130146171D01*
X147152029Y-130074743D01*
X147080600Y-130003314D01*
X147009172Y-129860457D01*
X146937743Y-129574743D01*
X146937743Y-129217600D01*
X147009172Y-128931886D01*
X147080600Y-128789029D01*
X147152029Y-128717600D01*
X147294886Y-128646171D01*
X149080600Y-129146171D02*
X149080600Y-130146171D01*
X148723457Y-128574743D02*
X148366314Y-129646171D01*
X149294886Y-129646171D01*
X150509171Y-129146171D02*
X150509171Y-130146171D01*
X150152028Y-128574743D02*
X149794885Y-129646171D01*
X150723457Y-129646171D01*
X152437742Y-130146171D02*
X152437742Y-129146171D01*
X152437742Y-129289029D02*
X152509170Y-129217600D01*
X152652028Y-129146171D01*
X152866313Y-129146171D01*
X153009170Y-129217600D01*
X153080599Y-129360457D01*
X153080599Y-130146171D01*
X153080599Y-129360457D02*
X153152028Y-129217600D01*
X153294885Y-129146171D01*
X153509170Y-129146171D01*
X153652028Y-129217600D01*
X153723456Y-129360457D01*
X153723456Y-130146171D01*
X154437742Y-130146171D02*
X154437742Y-129146171D01*
X154437742Y-129289029D02*
X154509170Y-129217600D01*
X154652028Y-129146171D01*
X154866313Y-129146171D01*
X155009170Y-129217600D01*
X155080599Y-129360457D01*
X155080599Y-130146171D01*
X155080599Y-129360457D02*
X155152028Y-129217600D01*
X155294885Y-129146171D01*
X155509170Y-129146171D01*
X155652028Y-129217600D01*
X155723456Y-129360457D01*
X155723456Y-130146171D01*
X127558800Y-128117600D02*
X171602400Y-128117600D01*
X127558800Y-125577600D02*
X127558800Y-130817600D01*
X171602400Y-125577600D02*
X171602400Y-130817600D01*
X171602400Y-128117600D02*
X170475896Y-128704021D01*
X171602400Y-128117600D02*
X170475896Y-127531179D01*
X127558800Y-128117600D02*
X128685304Y-128704021D01*
X127558800Y-128117600D02*
X128685304Y-127531179D01*
X118067829Y-78651887D02*
X118067829Y-79651887D01*
X116567829Y-79009030D01*
X117924971Y-80151886D02*
X117996400Y-80223315D01*
X118067829Y-80366172D01*
X118067829Y-80723315D01*
X117996400Y-80866172D01*
X117924971Y-80937601D01*
X117782114Y-81009029D01*
X117639257Y-81009029D01*
X117424971Y-80937601D01*
X116567829Y-80080458D01*
X116567829Y-81009029D01*
X116639257Y-81723314D02*
X116567829Y-81723314D01*
X116424971Y-81651886D01*
X116353543Y-81580457D01*
X118067829Y-82651886D02*
X118067829Y-82794743D01*
X117996400Y-82937600D01*
X117924971Y-83009029D01*
X117782114Y-83080458D01*
X117496400Y-83151886D01*
X117139257Y-83151886D01*
X116853543Y-83080458D01*
X116710686Y-83009029D01*
X116639257Y-82937600D01*
X116567829Y-82794743D01*
X116567829Y-82651886D01*
X116639257Y-82509029D01*
X116710686Y-82437600D01*
X116853543Y-82366172D01*
X117139257Y-82294743D01*
X117496400Y-82294743D01*
X117782114Y-82366172D01*
X117924971Y-82437600D01*
X117996400Y-82509029D01*
X118067829Y-82651886D01*
X118067829Y-83651886D02*
X118067829Y-84580457D01*
X117496400Y-84080457D01*
X117496400Y-84294743D01*
X117424971Y-84437600D01*
X117353543Y-84509029D01*
X117210686Y-84580457D01*
X116853543Y-84580457D01*
X116710686Y-84509029D01*
X116639257Y-84437600D01*
X116567829Y-84294743D01*
X116567829Y-83866171D01*
X116639257Y-83723314D01*
X116710686Y-83651886D01*
X117567829Y-85866171D02*
X116567829Y-85866171D01*
X118139257Y-85509028D02*
X117067829Y-85151885D01*
X117067829Y-86080457D01*
X116567829Y-87794742D02*
X117567829Y-87794742D01*
X117424971Y-87794742D02*
X117496400Y-87866170D01*
X117567829Y-88009028D01*
X117567829Y-88223313D01*
X117496400Y-88366170D01*
X117353543Y-88437599D01*
X116567829Y-88437599D01*
X117353543Y-88437599D02*
X117496400Y-88509028D01*
X117567829Y-88651885D01*
X117567829Y-88866170D01*
X117496400Y-89009028D01*
X117353543Y-89080456D01*
X116567829Y-89080456D01*
X116567829Y-89794742D02*
X117567829Y-89794742D01*
X117424971Y-89794742D02*
X117496400Y-89866170D01*
X117567829Y-90009028D01*
X117567829Y-90223313D01*
X117496400Y-90366170D01*
X117353543Y-90437599D01*
X116567829Y-90437599D01*
X117353543Y-90437599D02*
X117496400Y-90509028D01*
X117567829Y-90651885D01*
X117567829Y-90866170D01*
X117496400Y-91009028D01*
X117353543Y-91080456D01*
X116567829Y-91080456D01*
X119278400Y-48920400D02*
X119278400Y-120954800D01*
X116890800Y-48920400D02*
X121978400Y-48920400D01*
X116890800Y-120954800D02*
X121978400Y-120954800D01*
X119278400Y-120954800D02*
X118691979Y-119828296D01*
X119278400Y-120954800D02*
X119864821Y-119828296D01*
X119278400Y-48920400D02*
X118691979Y-50046904D01*
X119278400Y-48920400D02*
X119864821Y-50046904D01*
M02*
