G04 #@! TF.FileFunction,Other,Fab,Top*
%FSLAX46Y46*%
G04 Gerber Fmt 4.6, Leading zero omitted, Abs format (unit mm)*
G04 Created by KiCad (PCBNEW 4.0.6) date 12/07/19 10:22:01*
%MOMM*%
%LPD*%
G01*
G04 APERTURE LIST*
%ADD10C,0.100000*%
%ADD11C,0.300000*%
%ADD12C,0.150000*%
%ADD13C,0.075000*%
G04 APERTURE END LIST*
D10*
D11*
X131433971Y-70493715D02*
X131505400Y-70565144D01*
X131576829Y-70708001D01*
X131576829Y-71065144D01*
X131505400Y-71208001D01*
X131433971Y-71279430D01*
X131291114Y-71350858D01*
X131148257Y-71350858D01*
X130933971Y-71279430D01*
X130076829Y-70422287D01*
X130076829Y-71350858D01*
X131576829Y-71850858D02*
X131576829Y-72850858D01*
X130076829Y-72208001D01*
X130148257Y-73493714D02*
X130076829Y-73493714D01*
X129933971Y-73422286D01*
X129862543Y-73350857D01*
X130076829Y-74208000D02*
X130076829Y-74493715D01*
X130148257Y-74636572D01*
X130219686Y-74708000D01*
X130433971Y-74850858D01*
X130719686Y-74922286D01*
X131291114Y-74922286D01*
X131433971Y-74850858D01*
X131505400Y-74779429D01*
X131576829Y-74636572D01*
X131576829Y-74350858D01*
X131505400Y-74208000D01*
X131433971Y-74136572D01*
X131291114Y-74065143D01*
X130933971Y-74065143D01*
X130791114Y-74136572D01*
X130719686Y-74208000D01*
X130648257Y-74350858D01*
X130648257Y-74636572D01*
X130719686Y-74779429D01*
X130791114Y-74850858D01*
X130933971Y-74922286D01*
X131076829Y-76208000D02*
X130076829Y-76208000D01*
X131648257Y-75850857D02*
X130576829Y-75493714D01*
X130576829Y-76422286D01*
X131576829Y-77279428D02*
X131576829Y-77422285D01*
X131505400Y-77565142D01*
X131433971Y-77636571D01*
X131291114Y-77708000D01*
X131005400Y-77779428D01*
X130648257Y-77779428D01*
X130362543Y-77708000D01*
X130219686Y-77636571D01*
X130148257Y-77565142D01*
X130076829Y-77422285D01*
X130076829Y-77279428D01*
X130148257Y-77136571D01*
X130219686Y-77065142D01*
X130362543Y-76993714D01*
X130648257Y-76922285D01*
X131005400Y-76922285D01*
X131291114Y-76993714D01*
X131433971Y-77065142D01*
X131505400Y-77136571D01*
X131576829Y-77279428D01*
X130076829Y-79565142D02*
X131076829Y-79565142D01*
X130933971Y-79565142D02*
X131005400Y-79636570D01*
X131076829Y-79779428D01*
X131076829Y-79993713D01*
X131005400Y-80136570D01*
X130862543Y-80207999D01*
X130076829Y-80207999D01*
X130862543Y-80207999D02*
X131005400Y-80279428D01*
X131076829Y-80422285D01*
X131076829Y-80636570D01*
X131005400Y-80779428D01*
X130862543Y-80850856D01*
X130076829Y-80850856D01*
X130076829Y-81565142D02*
X131076829Y-81565142D01*
X130933971Y-81565142D02*
X131005400Y-81636570D01*
X131076829Y-81779428D01*
X131076829Y-81993713D01*
X131005400Y-82136570D01*
X130862543Y-82207999D01*
X130076829Y-82207999D01*
X130862543Y-82207999D02*
X131005400Y-82279428D01*
X131076829Y-82422285D01*
X131076829Y-82636570D01*
X131005400Y-82779428D01*
X130862543Y-82850856D01*
X130076829Y-82850856D01*
X132105400Y-62738000D02*
X132105400Y-90678000D01*
X134137400Y-62738000D02*
X129405400Y-62738000D01*
X134137400Y-90678000D02*
X129405400Y-90678000D01*
X132105400Y-90678000D02*
X131518979Y-89551496D01*
X132105400Y-90678000D02*
X132691821Y-89551496D01*
X132105400Y-62738000D02*
X131518979Y-63864504D01*
X132105400Y-62738000D02*
X132691821Y-63864504D01*
X144814115Y-95587429D02*
X144885544Y-95516000D01*
X145028401Y-95444571D01*
X145385544Y-95444571D01*
X145528401Y-95516000D01*
X145599830Y-95587429D01*
X145671258Y-95730286D01*
X145671258Y-95873143D01*
X145599830Y-96087429D01*
X144742687Y-96944571D01*
X145671258Y-96944571D01*
X147028401Y-95444571D02*
X146314115Y-95444571D01*
X146242686Y-96158857D01*
X146314115Y-96087429D01*
X146456972Y-96016000D01*
X146814115Y-96016000D01*
X146956972Y-96087429D01*
X147028401Y-96158857D01*
X147099829Y-96301714D01*
X147099829Y-96658857D01*
X147028401Y-96801714D01*
X146956972Y-96873143D01*
X146814115Y-96944571D01*
X146456972Y-96944571D01*
X146314115Y-96873143D01*
X146242686Y-96801714D01*
X147814114Y-96873143D02*
X147814114Y-96944571D01*
X147742686Y-97087429D01*
X147671257Y-97158857D01*
X149171258Y-95444571D02*
X148456972Y-95444571D01*
X148385543Y-96158857D01*
X148456972Y-96087429D01*
X148599829Y-96016000D01*
X148956972Y-96016000D01*
X149099829Y-96087429D01*
X149171258Y-96158857D01*
X149242686Y-96301714D01*
X149242686Y-96658857D01*
X149171258Y-96801714D01*
X149099829Y-96873143D01*
X148956972Y-96944571D01*
X148599829Y-96944571D01*
X148456972Y-96873143D01*
X148385543Y-96801714D01*
X149814114Y-95587429D02*
X149885543Y-95516000D01*
X150028400Y-95444571D01*
X150385543Y-95444571D01*
X150528400Y-95516000D01*
X150599829Y-95587429D01*
X150671257Y-95730286D01*
X150671257Y-95873143D01*
X150599829Y-96087429D01*
X149742686Y-96944571D01*
X150671257Y-96944571D01*
X151171257Y-95444571D02*
X152171257Y-95444571D01*
X151528400Y-96944571D01*
X153885542Y-96944571D02*
X153885542Y-95944571D01*
X153885542Y-96087429D02*
X153956970Y-96016000D01*
X154099828Y-95944571D01*
X154314113Y-95944571D01*
X154456970Y-96016000D01*
X154528399Y-96158857D01*
X154528399Y-96944571D01*
X154528399Y-96158857D02*
X154599828Y-96016000D01*
X154742685Y-95944571D01*
X154956970Y-95944571D01*
X155099828Y-96016000D01*
X155171256Y-96158857D01*
X155171256Y-96944571D01*
X155885542Y-96944571D02*
X155885542Y-95944571D01*
X155885542Y-96087429D02*
X155956970Y-96016000D01*
X156099828Y-95944571D01*
X156314113Y-95944571D01*
X156456970Y-96016000D01*
X156528399Y-96158857D01*
X156528399Y-96944571D01*
X156528399Y-96158857D02*
X156599828Y-96016000D01*
X156742685Y-95944571D01*
X156956970Y-95944571D01*
X157099828Y-96016000D01*
X157171256Y-96158857D01*
X157171256Y-96944571D01*
X164363400Y-94868999D02*
X138836400Y-94868999D01*
X164363400Y-92456000D02*
X164363400Y-97568999D01*
X138836400Y-92456000D02*
X138836400Y-97568999D01*
X138836400Y-94868999D02*
X139962904Y-94282578D01*
X138836400Y-94868999D02*
X139962904Y-95455420D01*
X164363400Y-94868999D02*
X163236896Y-94282578D01*
X164363400Y-94868999D02*
X163236896Y-95455420D01*
D10*
X155256000Y-72150000D02*
X154016000Y-72150000D01*
X155256000Y-70150000D02*
X155256000Y-72150000D01*
X154016000Y-70150000D02*
X155256000Y-70150000D01*
X154016000Y-72150000D02*
X154016000Y-70150000D01*
X156186000Y-70745000D02*
X156186000Y-69505000D01*
X158186000Y-70745000D02*
X156186000Y-70745000D01*
X158186000Y-69505000D02*
X158186000Y-70745000D01*
X156186000Y-69505000D02*
X158186000Y-69505000D01*
X153281000Y-73550000D02*
X152041000Y-73550000D01*
X153281000Y-71550000D02*
X153281000Y-73550000D01*
X152041000Y-71550000D02*
X153281000Y-71550000D01*
X152041000Y-73550000D02*
X152041000Y-71550000D01*
X149511000Y-71550000D02*
X151111000Y-71550000D01*
X151111000Y-71550000D02*
X151111000Y-74850000D01*
X151111000Y-74850000D02*
X149511000Y-74850000D01*
X149511000Y-74850000D02*
X149511000Y-71550000D01*
X150311000Y-72950000D02*
X150311000Y-72450000D01*
X150711000Y-72950000D02*
X150311000Y-73550000D01*
X149911000Y-72950000D02*
X150711000Y-72950000D01*
X150311000Y-73550000D02*
X149911000Y-72950000D01*
X150311000Y-73550000D02*
X150861000Y-73550000D01*
X150311000Y-73550000D02*
X149761000Y-73550000D01*
X150311000Y-73950000D02*
X150311000Y-73550000D01*
X156186000Y-72720000D02*
X156186000Y-71480000D01*
X158186000Y-72720000D02*
X156186000Y-72720000D01*
X158186000Y-71480000D02*
X158186000Y-72720000D01*
X156186000Y-71480000D02*
X158186000Y-71480000D01*
D12*
X147497191Y-92282143D02*
X147449572Y-92329762D01*
X147306715Y-92377381D01*
X147211477Y-92377381D01*
X147068619Y-92329762D01*
X146973381Y-92234524D01*
X146925762Y-92139286D01*
X146878143Y-91948810D01*
X146878143Y-91805952D01*
X146925762Y-91615476D01*
X146973381Y-91520238D01*
X147068619Y-91425000D01*
X147211477Y-91377381D01*
X147306715Y-91377381D01*
X147449572Y-91425000D01*
X147497191Y-91472619D01*
X148116238Y-91377381D02*
X148306715Y-91377381D01*
X148401953Y-91425000D01*
X148497191Y-91520238D01*
X148544810Y-91710714D01*
X148544810Y-92044048D01*
X148497191Y-92234524D01*
X148401953Y-92329762D01*
X148306715Y-92377381D01*
X148116238Y-92377381D01*
X148021000Y-92329762D01*
X147925762Y-92234524D01*
X147878143Y-92044048D01*
X147878143Y-91710714D01*
X147925762Y-91520238D01*
X148021000Y-91425000D01*
X148116238Y-91377381D01*
X148973381Y-92377381D02*
X148973381Y-91377381D01*
X149544810Y-92377381D01*
X149544810Y-91377381D01*
X150021000Y-92377381D02*
X150021000Y-91377381D01*
X150592429Y-92377381D01*
X150592429Y-91377381D01*
X150830524Y-92472619D02*
X151592429Y-92472619D01*
X152021000Y-91377381D02*
X152116239Y-91377381D01*
X152211477Y-91425000D01*
X152259096Y-91472619D01*
X152306715Y-91567857D01*
X152354334Y-91758333D01*
X152354334Y-91996429D01*
X152306715Y-92186905D01*
X152259096Y-92282143D01*
X152211477Y-92329762D01*
X152116239Y-92377381D01*
X152021000Y-92377381D01*
X151925762Y-92329762D01*
X151878143Y-92282143D01*
X151830524Y-92186905D01*
X151782905Y-91996429D01*
X151782905Y-91758333D01*
X151830524Y-91567857D01*
X151878143Y-91472619D01*
X151925762Y-91425000D01*
X152021000Y-91377381D01*
X153306715Y-92377381D02*
X152735286Y-92377381D01*
X153021000Y-92377381D02*
X153021000Y-91377381D01*
X152925762Y-91520238D01*
X152830524Y-91615476D01*
X152735286Y-91663095D01*
X153640048Y-91377381D02*
X154306715Y-92377381D01*
X154306715Y-91377381D02*
X153640048Y-92377381D01*
X154878143Y-91377381D02*
X154973382Y-91377381D01*
X155068620Y-91425000D01*
X155116239Y-91472619D01*
X155163858Y-91567857D01*
X155211477Y-91758333D01*
X155211477Y-91996429D01*
X155163858Y-92186905D01*
X155116239Y-92282143D01*
X155068620Y-92329762D01*
X154973382Y-92377381D01*
X154878143Y-92377381D01*
X154782905Y-92329762D01*
X154735286Y-92282143D01*
X154687667Y-92186905D01*
X154640048Y-91996429D01*
X154640048Y-91758333D01*
X154687667Y-91567857D01*
X154735286Y-91472619D01*
X154782905Y-91425000D01*
X154878143Y-91377381D01*
X156068620Y-91710714D02*
X156068620Y-92377381D01*
X155830524Y-91329762D02*
X155592429Y-92044048D01*
X156211477Y-92044048D01*
X156838381Y-72221428D02*
X156838381Y-72792857D01*
X156838381Y-72507143D02*
X155838381Y-72507143D01*
X155981238Y-72602381D01*
X156076476Y-72697619D01*
X156124095Y-72792857D01*
X156838381Y-71269047D02*
X156838381Y-71840476D01*
X156838381Y-71554762D02*
X155838381Y-71554762D01*
X155981238Y-71650000D01*
X156076476Y-71745238D01*
X156124095Y-71840476D01*
X155838381Y-70650000D02*
X155838381Y-70554761D01*
X155886000Y-70459523D01*
X155933619Y-70411904D01*
X156028857Y-70364285D01*
X156219333Y-70316666D01*
X156457429Y-70316666D01*
X156647905Y-70364285D01*
X156743143Y-70411904D01*
X156790762Y-70459523D01*
X156838381Y-70554761D01*
X156838381Y-70650000D01*
X156790762Y-70745238D01*
X156743143Y-70792857D01*
X156647905Y-70840476D01*
X156457429Y-70888095D01*
X156219333Y-70888095D01*
X156028857Y-70840476D01*
X155933619Y-70792857D01*
X155886000Y-70745238D01*
X155838381Y-70650000D01*
X156838381Y-69888095D02*
X155838381Y-69888095D01*
X156457429Y-69792857D02*
X156838381Y-69507142D01*
X156171714Y-69507142D02*
X156552667Y-69888095D01*
D13*
X154862190Y-71233333D02*
X154624095Y-71400000D01*
X154862190Y-71519047D02*
X154362190Y-71519047D01*
X154362190Y-71328571D01*
X154386000Y-71280952D01*
X154409810Y-71257143D01*
X154457429Y-71233333D01*
X154528857Y-71233333D01*
X154576476Y-71257143D01*
X154600286Y-71280952D01*
X154624095Y-71328571D01*
X154624095Y-71519047D01*
X154862190Y-70757143D02*
X154862190Y-71042857D01*
X154862190Y-70900000D02*
X154362190Y-70900000D01*
X154433619Y-70947619D01*
X154481238Y-70995238D01*
X154505048Y-71042857D01*
D12*
X156614571Y-71755952D02*
X156519333Y-71708333D01*
X156471714Y-71660714D01*
X156424095Y-71565476D01*
X156424095Y-71517857D01*
X156471714Y-71422619D01*
X156519333Y-71375000D01*
X156614571Y-71327381D01*
X156805048Y-71327381D01*
X156900286Y-71375000D01*
X156947905Y-71422619D01*
X156995524Y-71517857D01*
X156995524Y-71565476D01*
X156947905Y-71660714D01*
X156900286Y-71708333D01*
X156805048Y-71755952D01*
X156614571Y-71755952D01*
X156519333Y-71803571D01*
X156471714Y-71851190D01*
X156424095Y-71946429D01*
X156424095Y-72136905D01*
X156471714Y-72232143D01*
X156519333Y-72279762D01*
X156614571Y-72327381D01*
X156805048Y-72327381D01*
X156900286Y-72279762D01*
X156947905Y-72232143D01*
X156995524Y-72136905D01*
X156995524Y-71946429D01*
X156947905Y-71851190D01*
X156900286Y-71803571D01*
X156805048Y-71755952D01*
X157376476Y-71422619D02*
X157424095Y-71375000D01*
X157519333Y-71327381D01*
X157757429Y-71327381D01*
X157852667Y-71375000D01*
X157900286Y-71422619D01*
X157947905Y-71517857D01*
X157947905Y-71613095D01*
X157900286Y-71755952D01*
X157328857Y-72327381D01*
X157947905Y-72327381D01*
D13*
X157102667Y-70351190D02*
X156936000Y-70113095D01*
X156816953Y-70351190D02*
X156816953Y-69851190D01*
X157007429Y-69851190D01*
X157055048Y-69875000D01*
X157078857Y-69898810D01*
X157102667Y-69946429D01*
X157102667Y-70017857D01*
X157078857Y-70065476D01*
X157055048Y-70089286D01*
X157007429Y-70113095D01*
X156816953Y-70113095D01*
X157293143Y-69898810D02*
X157316953Y-69875000D01*
X157364572Y-69851190D01*
X157483619Y-69851190D01*
X157531238Y-69875000D01*
X157555048Y-69898810D01*
X157578857Y-69946429D01*
X157578857Y-69994048D01*
X157555048Y-70065476D01*
X157269334Y-70351190D01*
X157578857Y-70351190D01*
D12*
X154863381Y-74097619D02*
X154863381Y-74669048D01*
X154863381Y-74383334D02*
X153863381Y-74383334D01*
X154006238Y-74478572D01*
X154101476Y-74573810D01*
X154149095Y-74669048D01*
X153863381Y-73478572D02*
X153863381Y-73383333D01*
X153911000Y-73288095D01*
X153958619Y-73240476D01*
X154053857Y-73192857D01*
X154244333Y-73145238D01*
X154482429Y-73145238D01*
X154672905Y-73192857D01*
X154768143Y-73240476D01*
X154815762Y-73288095D01*
X154863381Y-73383333D01*
X154863381Y-73478572D01*
X154815762Y-73573810D01*
X154768143Y-73621429D01*
X154672905Y-73669048D01*
X154482429Y-73716667D01*
X154244333Y-73716667D01*
X154053857Y-73669048D01*
X153958619Y-73621429D01*
X153911000Y-73573810D01*
X153863381Y-73478572D01*
X153863381Y-72526191D02*
X153863381Y-72430952D01*
X153911000Y-72335714D01*
X153958619Y-72288095D01*
X154053857Y-72240476D01*
X154244333Y-72192857D01*
X154482429Y-72192857D01*
X154672905Y-72240476D01*
X154768143Y-72288095D01*
X154815762Y-72335714D01*
X154863381Y-72430952D01*
X154863381Y-72526191D01*
X154815762Y-72621429D01*
X154768143Y-72669048D01*
X154672905Y-72716667D01*
X154482429Y-72764286D01*
X154244333Y-72764286D01*
X154053857Y-72716667D01*
X153958619Y-72669048D01*
X153911000Y-72621429D01*
X153863381Y-72526191D01*
X154196714Y-71764286D02*
X154863381Y-71764286D01*
X154291952Y-71764286D02*
X154244333Y-71716667D01*
X154196714Y-71621429D01*
X154196714Y-71478571D01*
X154244333Y-71383333D01*
X154339571Y-71335714D01*
X154863381Y-71335714D01*
X154339571Y-70526190D02*
X154339571Y-70859524D01*
X154863381Y-70859524D02*
X153863381Y-70859524D01*
X153863381Y-70383333D01*
X151518143Y-72716666D02*
X151565762Y-72764285D01*
X151613381Y-72907142D01*
X151613381Y-73002380D01*
X151565762Y-73145238D01*
X151470524Y-73240476D01*
X151375286Y-73288095D01*
X151184810Y-73335714D01*
X151041952Y-73335714D01*
X150851476Y-73288095D01*
X150756238Y-73240476D01*
X150661000Y-73145238D01*
X150613381Y-73002380D01*
X150613381Y-72907142D01*
X150661000Y-72764285D01*
X150708619Y-72716666D01*
X151613381Y-71764285D02*
X151613381Y-72335714D01*
X151613381Y-72050000D02*
X150613381Y-72050000D01*
X150756238Y-72145238D01*
X150851476Y-72240476D01*
X150899095Y-72335714D01*
X151989571Y-79152380D02*
X152037190Y-79009523D01*
X152084810Y-78961904D01*
X152180048Y-78914285D01*
X152322905Y-78914285D01*
X152418143Y-78961904D01*
X152465762Y-79009523D01*
X152513381Y-79104761D01*
X152513381Y-79485714D01*
X151513381Y-79485714D01*
X151513381Y-79152380D01*
X151561000Y-79057142D01*
X151608619Y-79009523D01*
X151703857Y-78961904D01*
X151799095Y-78961904D01*
X151894333Y-79009523D01*
X151941952Y-79057142D01*
X151989571Y-79152380D01*
X151989571Y-79485714D01*
X151513381Y-78580952D02*
X151513381Y-77914285D01*
X152513381Y-78580952D01*
X152513381Y-77914285D01*
X151513381Y-77676190D02*
X152513381Y-77342857D01*
X151513381Y-77009523D01*
X151513381Y-76199999D02*
X151513381Y-76676190D01*
X151989571Y-76723809D01*
X151941952Y-76676190D01*
X151894333Y-76580952D01*
X151894333Y-76342856D01*
X151941952Y-76247618D01*
X151989571Y-76199999D01*
X152084810Y-76152380D01*
X152322905Y-76152380D01*
X152418143Y-76199999D01*
X152465762Y-76247618D01*
X152513381Y-76342856D01*
X152513381Y-76580952D01*
X152465762Y-76676190D01*
X152418143Y-76723809D01*
X151513381Y-75247618D02*
X151513381Y-75723809D01*
X151989571Y-75771428D01*
X151941952Y-75723809D01*
X151894333Y-75628571D01*
X151894333Y-75390475D01*
X151941952Y-75295237D01*
X151989571Y-75247618D01*
X152084810Y-75199999D01*
X152322905Y-75199999D01*
X152418143Y-75247618D01*
X152465762Y-75295237D01*
X152513381Y-75390475D01*
X152513381Y-75628571D01*
X152465762Y-75723809D01*
X152418143Y-75771428D01*
X152132429Y-74771428D02*
X152132429Y-74009523D01*
X151989571Y-73199999D02*
X152037190Y-73057142D01*
X152084810Y-73009523D01*
X152180048Y-72961904D01*
X152322905Y-72961904D01*
X152418143Y-73009523D01*
X152465762Y-73057142D01*
X152513381Y-73152380D01*
X152513381Y-73533333D01*
X151513381Y-73533333D01*
X151513381Y-73199999D01*
X151561000Y-73104761D01*
X151608619Y-73057142D01*
X151703857Y-73009523D01*
X151799095Y-73009523D01*
X151894333Y-73057142D01*
X151941952Y-73104761D01*
X151989571Y-73199999D01*
X151989571Y-73533333D01*
X151846714Y-72104761D02*
X152513381Y-72104761D01*
X151465762Y-72342857D02*
X152180048Y-72580952D01*
X152180048Y-71961904D01*
X151513381Y-71723809D02*
X152513381Y-71390476D01*
X151513381Y-71057142D01*
X151513381Y-70819047D02*
X151513381Y-70152380D01*
X152513381Y-70580952D01*
X152465762Y-69723809D02*
X152513381Y-69723809D01*
X152608619Y-69771428D01*
X152656238Y-69819047D01*
X152513381Y-68771428D02*
X152513381Y-69342857D01*
X152513381Y-69057143D02*
X151513381Y-69057143D01*
X151656238Y-69152381D01*
X151751476Y-69247619D01*
X151799095Y-69342857D01*
X152513381Y-67819047D02*
X152513381Y-68390476D01*
X152513381Y-68104762D02*
X151513381Y-68104762D01*
X151656238Y-68200000D01*
X151751476Y-68295238D01*
X151799095Y-68390476D01*
X151513381Y-66914285D02*
X151513381Y-67390476D01*
X151989571Y-67438095D01*
X151941952Y-67390476D01*
X151894333Y-67295238D01*
X151894333Y-67057142D01*
X151941952Y-66961904D01*
X151989571Y-66914285D01*
X152084810Y-66866666D01*
X152322905Y-66866666D01*
X152418143Y-66914285D01*
X152465762Y-66961904D01*
X152513381Y-67057142D01*
X152513381Y-67295238D01*
X152465762Y-67390476D01*
X152418143Y-67438095D01*
X148763381Y-73938095D02*
X147763381Y-73938095D01*
X147763381Y-73700000D01*
X147811000Y-73557142D01*
X147906238Y-73461904D01*
X148001476Y-73414285D01*
X148191952Y-73366666D01*
X148334810Y-73366666D01*
X148525286Y-73414285D01*
X148620524Y-73461904D01*
X148715762Y-73557142D01*
X148763381Y-73700000D01*
X148763381Y-73938095D01*
X148763381Y-72414285D02*
X148763381Y-72985714D01*
X148763381Y-72700000D02*
X147763381Y-72700000D01*
X147906238Y-72795238D01*
X148001476Y-72890476D01*
X148049095Y-72985714D01*
X156019333Y-73397619D02*
X156066952Y-73350000D01*
X156162190Y-73302381D01*
X156400286Y-73302381D01*
X156495524Y-73350000D01*
X156543143Y-73397619D01*
X156590762Y-73492857D01*
X156590762Y-73588095D01*
X156543143Y-73730952D01*
X155971714Y-74302381D01*
X156590762Y-74302381D01*
X157209809Y-73302381D02*
X157305048Y-73302381D01*
X157400286Y-73350000D01*
X157447905Y-73397619D01*
X157495524Y-73492857D01*
X157543143Y-73683333D01*
X157543143Y-73921429D01*
X157495524Y-74111905D01*
X157447905Y-74207143D01*
X157400286Y-74254762D01*
X157305048Y-74302381D01*
X157209809Y-74302381D01*
X157114571Y-74254762D01*
X157066952Y-74207143D01*
X157019333Y-74111905D01*
X156971714Y-73921429D01*
X156971714Y-73683333D01*
X157019333Y-73492857D01*
X157066952Y-73397619D01*
X157114571Y-73350000D01*
X157209809Y-73302381D01*
X157971714Y-74302381D02*
X157971714Y-73302381D01*
X158066952Y-73921429D02*
X158352667Y-74302381D01*
X158352667Y-73635714D02*
X157971714Y-74016667D01*
D13*
X157102667Y-72326190D02*
X156936000Y-72088095D01*
X156816953Y-72326190D02*
X156816953Y-71826190D01*
X157007429Y-71826190D01*
X157055048Y-71850000D01*
X157078857Y-71873810D01*
X157102667Y-71921429D01*
X157102667Y-71992857D01*
X157078857Y-72040476D01*
X157055048Y-72064286D01*
X157007429Y-72088095D01*
X156816953Y-72088095D01*
X157269334Y-71826190D02*
X157578857Y-71826190D01*
X157412191Y-72016667D01*
X157483619Y-72016667D01*
X157531238Y-72040476D01*
X157555048Y-72064286D01*
X157578857Y-72111905D01*
X157578857Y-72230952D01*
X157555048Y-72278571D01*
X157531238Y-72302381D01*
X157483619Y-72326190D01*
X157340762Y-72326190D01*
X157293143Y-72302381D01*
X157269334Y-72278571D01*
D12*
X155220524Y-65850000D02*
X155125286Y-65802381D01*
X154982429Y-65802381D01*
X154839571Y-65850000D01*
X154744333Y-65945238D01*
X154696714Y-66040476D01*
X154649095Y-66230952D01*
X154649095Y-66373810D01*
X154696714Y-66564286D01*
X154744333Y-66659524D01*
X154839571Y-66754762D01*
X154982429Y-66802381D01*
X155077667Y-66802381D01*
X155220524Y-66754762D01*
X155268143Y-66707143D01*
X155268143Y-66373810D01*
X155077667Y-66373810D01*
X155649095Y-66754762D02*
X155791952Y-66802381D01*
X156030048Y-66802381D01*
X156125286Y-66754762D01*
X156172905Y-66707143D01*
X156220524Y-66611905D01*
X156220524Y-66516667D01*
X156172905Y-66421429D01*
X156125286Y-66373810D01*
X156030048Y-66326190D01*
X155839571Y-66278571D01*
X155744333Y-66230952D01*
X155696714Y-66183333D01*
X155649095Y-66088095D01*
X155649095Y-65992857D01*
X155696714Y-65897619D01*
X155744333Y-65850000D01*
X155839571Y-65802381D01*
X156077667Y-65802381D01*
X156220524Y-65850000D01*
X156553857Y-65802381D02*
X157172905Y-65802381D01*
X156839571Y-66183333D01*
X156982429Y-66183333D01*
X157077667Y-66230952D01*
X157125286Y-66278571D01*
X157172905Y-66373810D01*
X157172905Y-66611905D01*
X157125286Y-66707143D01*
X157077667Y-66754762D01*
X156982429Y-66802381D01*
X156696714Y-66802381D01*
X156601476Y-66754762D01*
X156553857Y-66707143D01*
X155220524Y-71775000D02*
X155125286Y-71727381D01*
X154982429Y-71727381D01*
X154839571Y-71775000D01*
X154744333Y-71870238D01*
X154696714Y-71965476D01*
X154649095Y-72155952D01*
X154649095Y-72298810D01*
X154696714Y-72489286D01*
X154744333Y-72584524D01*
X154839571Y-72679762D01*
X154982429Y-72727381D01*
X155077667Y-72727381D01*
X155220524Y-72679762D01*
X155268143Y-72632143D01*
X155268143Y-72298810D01*
X155077667Y-72298810D01*
X155649095Y-72679762D02*
X155791952Y-72727381D01*
X156030048Y-72727381D01*
X156125286Y-72679762D01*
X156172905Y-72632143D01*
X156220524Y-72536905D01*
X156220524Y-72441667D01*
X156172905Y-72346429D01*
X156125286Y-72298810D01*
X156030048Y-72251190D01*
X155839571Y-72203571D01*
X155744333Y-72155952D01*
X155696714Y-72108333D01*
X155649095Y-72013095D01*
X155649095Y-71917857D01*
X155696714Y-71822619D01*
X155744333Y-71775000D01*
X155839571Y-71727381D01*
X156077667Y-71727381D01*
X156220524Y-71775000D01*
X156553857Y-71727381D02*
X157172905Y-71727381D01*
X156839571Y-72108333D01*
X156982429Y-72108333D01*
X157077667Y-72155952D01*
X157125286Y-72203571D01*
X157172905Y-72298810D01*
X157172905Y-72536905D01*
X157125286Y-72632143D01*
X157077667Y-72679762D01*
X156982429Y-72727381D01*
X156696714Y-72727381D01*
X156601476Y-72679762D01*
X156553857Y-72632143D01*
X144487191Y-73300000D02*
X144391953Y-73252381D01*
X144249096Y-73252381D01*
X144106238Y-73300000D01*
X144011000Y-73395238D01*
X143963381Y-73490476D01*
X143915762Y-73680952D01*
X143915762Y-73823810D01*
X143963381Y-74014286D01*
X144011000Y-74109524D01*
X144106238Y-74204762D01*
X144249096Y-74252381D01*
X144344334Y-74252381D01*
X144487191Y-74204762D01*
X144534810Y-74157143D01*
X144534810Y-73823810D01*
X144344334Y-73823810D01*
X144915762Y-74204762D02*
X145058619Y-74252381D01*
X145296715Y-74252381D01*
X145391953Y-74204762D01*
X145439572Y-74157143D01*
X145487191Y-74061905D01*
X145487191Y-73966667D01*
X145439572Y-73871429D01*
X145391953Y-73823810D01*
X145296715Y-73776190D01*
X145106238Y-73728571D01*
X145011000Y-73680952D01*
X144963381Y-73633333D01*
X144915762Y-73538095D01*
X144915762Y-73442857D01*
X144963381Y-73347619D01*
X145011000Y-73300000D01*
X145106238Y-73252381D01*
X145344334Y-73252381D01*
X145487191Y-73300000D01*
X146344334Y-73585714D02*
X146344334Y-74252381D01*
X146106238Y-73204762D02*
X145868143Y-73919048D01*
X146487191Y-73919048D01*
X146630048Y-74347619D02*
X147391953Y-74347619D01*
X147630048Y-74252381D02*
X147630048Y-73252381D01*
X147630048Y-73633333D02*
X147725286Y-73585714D01*
X147915763Y-73585714D01*
X148011001Y-73633333D01*
X148058620Y-73680952D01*
X148106239Y-73776190D01*
X148106239Y-74061905D01*
X148058620Y-74157143D01*
X148011001Y-74204762D01*
X147915763Y-74252381D01*
X147725286Y-74252381D01*
X147630048Y-74204762D01*
M02*
