G04 #@! TF.FileFunction,Legend,Bot*
%FSLAX46Y46*%
G04 Gerber Fmt 4.6, Leading zero omitted, Abs format (unit mm)*
G04 Created by KiCad (PCBNEW 4.0.6) date 12/07/19 10:22:01*
%MOMM*%
%LPD*%
G01*
G04 APERTURE LIST*
%ADD10C,0.100000*%
%ADD11C,0.150000*%
%ADD12C,0.300000*%
%ADD13C,0.120000*%
G04 APERTURE END LIST*
D10*
D11*
X153046714Y-68486905D02*
X153046714Y-67953571D01*
X153046714Y-68029762D02*
X153008619Y-67991667D01*
X152932428Y-67953571D01*
X152818142Y-67953571D01*
X152741952Y-67991667D01*
X152703857Y-68067857D01*
X152703857Y-68486905D01*
X152703857Y-68067857D02*
X152665761Y-67991667D01*
X152589571Y-67953571D01*
X152475285Y-67953571D01*
X152399095Y-67991667D01*
X152361000Y-68067857D01*
X152361000Y-68486905D01*
X152018142Y-68258333D02*
X151637190Y-68258333D01*
X152094333Y-68486905D02*
X151827666Y-67686905D01*
X151560999Y-68486905D01*
X158427667Y-68186905D02*
X158161000Y-68986905D01*
X157894333Y-68186905D01*
X153121714Y-75036905D02*
X153121714Y-74503571D01*
X153121714Y-74579762D02*
X153083619Y-74541667D01*
X153007428Y-74503571D01*
X152893142Y-74503571D01*
X152816952Y-74541667D01*
X152778857Y-74617857D01*
X152778857Y-75036905D01*
X152778857Y-74617857D02*
X152740761Y-74541667D01*
X152664571Y-74503571D01*
X152550285Y-74503571D01*
X152474095Y-74541667D01*
X152436000Y-74617857D01*
X152436000Y-75036905D01*
X152093142Y-74808333D02*
X151712190Y-74808333D01*
X152169333Y-75036905D02*
X151902666Y-74236905D01*
X151635999Y-75036905D01*
X158452667Y-74186905D02*
X158186000Y-74986905D01*
X157919333Y-74186905D01*
D12*
X150028705Y-80225000D02*
G75*
G03X150028705Y-80225000I-167705J0D01*
G01*
D11*
X145181000Y-69265000D02*
X144081000Y-68165000D01*
X145181000Y-69265000D02*
X145181000Y-71065000D01*
X158781000Y-67965000D02*
X157781000Y-68965000D01*
X157781000Y-68965000D02*
X157781000Y-71765000D01*
D13*
X139931000Y-89495000D02*
X139931000Y-63975000D01*
X139931000Y-63975000D02*
X162911000Y-63975000D01*
X162911000Y-89495000D02*
X162911000Y-63975000D01*
X160251000Y-89495000D02*
X160251000Y-66635000D01*
X160251000Y-66635000D02*
X142591000Y-66635000D01*
X142591000Y-89495000D02*
X142591000Y-66635000D01*
X142591000Y-89495000D02*
X142591000Y-82685000D01*
X162911000Y-89495000D02*
X160251000Y-89495000D01*
X139931000Y-89495000D02*
X142591000Y-89495000D01*
X162911000Y-67845000D02*
X162911000Y-66515000D01*
X158501000Y-84990000D02*
X158501000Y-88810000D01*
X158501000Y-88810000D02*
X156721000Y-88810000D01*
X156721000Y-88810000D02*
X156721000Y-84990000D01*
X158501000Y-84990000D02*
X156721000Y-84990000D01*
X151471000Y-66545000D02*
X151471000Y-69205000D01*
X146331000Y-66545000D02*
X151471000Y-66545000D01*
X146331000Y-69205000D02*
X151471000Y-69205000D01*
X146331000Y-66545000D02*
X146331000Y-69205000D01*
X145061000Y-66545000D02*
X143731000Y-66545000D01*
X143731000Y-66545000D02*
X143731000Y-67875000D01*
X147961000Y-86225000D02*
X146961000Y-86225000D01*
X146961000Y-84525000D02*
X147961000Y-84525000D01*
X155186000Y-81300000D02*
X156186000Y-81300000D01*
X156186000Y-83000000D02*
X155186000Y-83000000D01*
X153886000Y-78800000D02*
X158186000Y-78800000D01*
X158186000Y-78800000D02*
X158186000Y-80800000D01*
X158186000Y-80800000D02*
X153886000Y-80800000D01*
X149546000Y-74310000D02*
X149546000Y-70490000D01*
X149546000Y-70490000D02*
X151326000Y-70490000D01*
X151326000Y-70490000D02*
X151326000Y-74310000D01*
X149546000Y-74310000D02*
X151326000Y-74310000D01*
X146046000Y-74335000D02*
X144516000Y-74335000D01*
X146046000Y-70515000D02*
X144516000Y-70515000D01*
X144516000Y-74335000D02*
X144516000Y-70515000D01*
X146046000Y-70515000D02*
X147826000Y-70515000D01*
X147826000Y-70515000D02*
X147826000Y-74335000D01*
X146046000Y-74335000D02*
X147826000Y-74335000D01*
X157396000Y-75290000D02*
X153576000Y-75290000D01*
X153576000Y-75290000D02*
X153576000Y-73510000D01*
X153576000Y-73510000D02*
X157396000Y-73510000D01*
X157396000Y-75290000D02*
X157396000Y-73510000D01*
X157396000Y-69465000D02*
X153576000Y-69465000D01*
X153576000Y-69465000D02*
X153576000Y-67685000D01*
X153576000Y-67685000D02*
X157396000Y-67685000D01*
X157396000Y-69465000D02*
X157396000Y-67685000D01*
X157641000Y-72075000D02*
X157641000Y-70875000D01*
X155881000Y-70875000D02*
X155881000Y-72075000D01*
X153686000Y-73330000D02*
X154886000Y-73330000D01*
X154886000Y-71570000D02*
X153686000Y-71570000D01*
X153686000Y-71405000D02*
X154886000Y-71405000D01*
X154886000Y-69645000D02*
X153686000Y-69645000D01*
D11*
X149236000Y-80775000D02*
X149236000Y-81000000D01*
X145886000Y-80775000D02*
X145886000Y-81075000D01*
X145886000Y-84125000D02*
X145886000Y-83825000D01*
X149236000Y-84125000D02*
X149236000Y-83825000D01*
X149236000Y-80775000D02*
X145886000Y-80775000D01*
X149236000Y-84125000D02*
X145886000Y-84125000D01*
X149236000Y-81000000D02*
X150461000Y-81000000D01*
X159839095Y-90287381D02*
X159839095Y-89287381D01*
X159458142Y-89287381D01*
X159362904Y-89335000D01*
X159315285Y-89382619D01*
X159267666Y-89477857D01*
X159267666Y-89620714D01*
X159315285Y-89715952D01*
X159362904Y-89763571D01*
X159458142Y-89811190D01*
X159839095Y-89811190D01*
X158315285Y-90287381D02*
X158886714Y-90287381D01*
X158601000Y-90287381D02*
X158601000Y-89287381D01*
X158696238Y-89430238D01*
X158791476Y-89525476D01*
X158886714Y-89573095D01*
X142981000Y-87555477D02*
X142942905Y-87479286D01*
X142942905Y-87365001D01*
X142981000Y-87250715D01*
X143057190Y-87174524D01*
X143133381Y-87136429D01*
X143285762Y-87098334D01*
X143400048Y-87098334D01*
X143552429Y-87136429D01*
X143628619Y-87174524D01*
X143704810Y-87250715D01*
X143742905Y-87365001D01*
X143742905Y-87441191D01*
X143704810Y-87555477D01*
X143666714Y-87593572D01*
X143400048Y-87593572D01*
X143400048Y-87441191D01*
X143742905Y-87936429D02*
X142942905Y-87936429D01*
X143742905Y-88393572D01*
X142942905Y-88393572D01*
X143742905Y-88774524D02*
X142942905Y-88774524D01*
X142942905Y-88965000D01*
X142981000Y-89079286D01*
X143057190Y-89155477D01*
X143133381Y-89193572D01*
X143285762Y-89231667D01*
X143400048Y-89231667D01*
X143552429Y-89193572D01*
X143628619Y-89155477D01*
X143704810Y-89079286D01*
X143742905Y-88965000D01*
X143742905Y-88774524D01*
X143742905Y-85226905D02*
X143361952Y-84960238D01*
X143742905Y-84769762D02*
X142942905Y-84769762D01*
X142942905Y-85074524D01*
X142981000Y-85150715D01*
X143019095Y-85188810D01*
X143095286Y-85226905D01*
X143209571Y-85226905D01*
X143285762Y-85188810D01*
X143323857Y-85150715D01*
X143361952Y-85074524D01*
X143361952Y-84769762D01*
X143704810Y-85531667D02*
X143742905Y-85645953D01*
X143742905Y-85836429D01*
X143704810Y-85912619D01*
X143666714Y-85950715D01*
X143590524Y-85988810D01*
X143514333Y-85988810D01*
X143438143Y-85950715D01*
X143400048Y-85912619D01*
X143361952Y-85836429D01*
X143323857Y-85684048D01*
X143285762Y-85607857D01*
X143247667Y-85569762D01*
X143171476Y-85531667D01*
X143095286Y-85531667D01*
X143019095Y-85569762D01*
X142981000Y-85607857D01*
X142942905Y-85684048D01*
X142942905Y-85874524D01*
X142981000Y-85988810D01*
X142942905Y-86217381D02*
X142942905Y-86674524D01*
X143742905Y-86445953D02*
X142942905Y-86445953D01*
X143742905Y-82474524D02*
X142942905Y-82474524D01*
X142942905Y-82665000D01*
X142981000Y-82779286D01*
X143057190Y-82855477D01*
X143133381Y-82893572D01*
X143285762Y-82931667D01*
X143400048Y-82931667D01*
X143552429Y-82893572D01*
X143628619Y-82855477D01*
X143704810Y-82779286D01*
X143742905Y-82665000D01*
X143742905Y-82474524D01*
X142942905Y-83617381D02*
X142942905Y-83465000D01*
X142981000Y-83388810D01*
X143019095Y-83350715D01*
X143133381Y-83274524D01*
X143285762Y-83236429D01*
X143590524Y-83236429D01*
X143666714Y-83274524D01*
X143704810Y-83312619D01*
X143742905Y-83388810D01*
X143742905Y-83541191D01*
X143704810Y-83617381D01*
X143666714Y-83655477D01*
X143590524Y-83693572D01*
X143400048Y-83693572D01*
X143323857Y-83655477D01*
X143285762Y-83617381D01*
X143247667Y-83541191D01*
X143247667Y-83388810D01*
X143285762Y-83312619D01*
X143323857Y-83274524D01*
X143400048Y-83236429D01*
X143742905Y-79974524D02*
X142942905Y-79974524D01*
X142942905Y-80165000D01*
X142981000Y-80279286D01*
X143057190Y-80355477D01*
X143133381Y-80393572D01*
X143285762Y-80431667D01*
X143400048Y-80431667D01*
X143552429Y-80393572D01*
X143628619Y-80355477D01*
X143704810Y-80279286D01*
X143742905Y-80165000D01*
X143742905Y-79974524D01*
X142942905Y-81155477D02*
X142942905Y-80774524D01*
X143323857Y-80736429D01*
X143285762Y-80774524D01*
X143247667Y-80850715D01*
X143247667Y-81041191D01*
X143285762Y-81117381D01*
X143323857Y-81155477D01*
X143400048Y-81193572D01*
X143590524Y-81193572D01*
X143666714Y-81155477D01*
X143704810Y-81117381D01*
X143742905Y-81041191D01*
X143742905Y-80850715D01*
X143704810Y-80774524D01*
X143666714Y-80736429D01*
X143742905Y-77374524D02*
X142942905Y-77374524D01*
X142942905Y-77565000D01*
X142981000Y-77679286D01*
X143057190Y-77755477D01*
X143133381Y-77793572D01*
X143285762Y-77831667D01*
X143400048Y-77831667D01*
X143552429Y-77793572D01*
X143628619Y-77755477D01*
X143704810Y-77679286D01*
X143742905Y-77565000D01*
X143742905Y-77374524D01*
X143209571Y-78517381D02*
X143742905Y-78517381D01*
X142904810Y-78326905D02*
X143476238Y-78136429D01*
X143476238Y-78631667D01*
X143742905Y-74874524D02*
X142942905Y-74874524D01*
X142942905Y-75065000D01*
X142981000Y-75179286D01*
X143057190Y-75255477D01*
X143133381Y-75293572D01*
X143285762Y-75331667D01*
X143400048Y-75331667D01*
X143552429Y-75293572D01*
X143628619Y-75255477D01*
X143704810Y-75179286D01*
X143742905Y-75065000D01*
X143742905Y-74874524D01*
X142942905Y-75598334D02*
X142942905Y-76093572D01*
X143247667Y-75826905D01*
X143247667Y-75941191D01*
X143285762Y-76017381D01*
X143323857Y-76055477D01*
X143400048Y-76093572D01*
X143590524Y-76093572D01*
X143666714Y-76055477D01*
X143704810Y-76017381D01*
X143742905Y-75941191D01*
X143742905Y-75712619D01*
X143704810Y-75636429D01*
X143666714Y-75598334D01*
X143742905Y-72374524D02*
X142942905Y-72374524D01*
X142942905Y-72565000D01*
X142981000Y-72679286D01*
X143057190Y-72755477D01*
X143133381Y-72793572D01*
X143285762Y-72831667D01*
X143400048Y-72831667D01*
X143552429Y-72793572D01*
X143628619Y-72755477D01*
X143704810Y-72679286D01*
X143742905Y-72565000D01*
X143742905Y-72374524D01*
X143019095Y-73136429D02*
X142981000Y-73174524D01*
X142942905Y-73250715D01*
X142942905Y-73441191D01*
X142981000Y-73517381D01*
X143019095Y-73555477D01*
X143095286Y-73593572D01*
X143171476Y-73593572D01*
X143285762Y-73555477D01*
X143742905Y-73098334D01*
X143742905Y-73593572D01*
X142942905Y-69374523D02*
X142942905Y-69831666D01*
X143742905Y-69603095D02*
X142942905Y-69603095D01*
X142942905Y-70022143D02*
X143742905Y-70555476D01*
X142942905Y-70555476D02*
X143742905Y-70022143D01*
X142942905Y-71012619D02*
X142942905Y-71088810D01*
X142981000Y-71165000D01*
X143019095Y-71203095D01*
X143095286Y-71241191D01*
X143247667Y-71279286D01*
X143438143Y-71279286D01*
X143590524Y-71241191D01*
X143666714Y-71203095D01*
X143704810Y-71165000D01*
X143742905Y-71088810D01*
X143742905Y-71012619D01*
X143704810Y-70936429D01*
X143666714Y-70898333D01*
X143590524Y-70860238D01*
X143438143Y-70822143D01*
X143247667Y-70822143D01*
X143095286Y-70860238D01*
X143019095Y-70898333D01*
X142981000Y-70936429D01*
X142942905Y-71012619D01*
X143742905Y-67350714D02*
X143361952Y-67084047D01*
X143742905Y-66893571D02*
X142942905Y-66893571D01*
X142942905Y-67198333D01*
X142981000Y-67274524D01*
X143019095Y-67312619D01*
X143095286Y-67350714D01*
X143209571Y-67350714D01*
X143285762Y-67312619D01*
X143323857Y-67274524D01*
X143361952Y-67198333D01*
X143361952Y-66893571D01*
X142942905Y-67617381D02*
X143742905Y-68150714D01*
X142942905Y-68150714D02*
X143742905Y-67617381D01*
X142942905Y-68607857D02*
X142942905Y-68684048D01*
X142981000Y-68760238D01*
X143019095Y-68798333D01*
X143095286Y-68836429D01*
X143247667Y-68874524D01*
X143438143Y-68874524D01*
X143590524Y-68836429D01*
X143666714Y-68798333D01*
X143704810Y-68760238D01*
X143742905Y-68684048D01*
X143742905Y-68607857D01*
X143704810Y-68531667D01*
X143666714Y-68493571D01*
X143590524Y-68455476D01*
X143438143Y-68417381D01*
X143247667Y-68417381D01*
X143095286Y-68455476D01*
X143019095Y-68493571D01*
X142981000Y-68531667D01*
X142942905Y-68607857D01*
X145214333Y-67093572D02*
X145214333Y-67474524D01*
X145442905Y-67017381D02*
X144642905Y-67284048D01*
X145442905Y-67550715D01*
X144642905Y-68160238D02*
X144642905Y-68007857D01*
X144681000Y-67931667D01*
X144719095Y-67893572D01*
X144833381Y-67817381D01*
X144985762Y-67779286D01*
X145290524Y-67779286D01*
X145366714Y-67817381D01*
X145404810Y-67855476D01*
X145442905Y-67931667D01*
X145442905Y-68084048D01*
X145404810Y-68160238D01*
X145366714Y-68198334D01*
X145290524Y-68236429D01*
X145100048Y-68236429D01*
X145023857Y-68198334D01*
X144985762Y-68160238D01*
X144947667Y-68084048D01*
X144947667Y-67931667D01*
X144985762Y-67855476D01*
X145023857Y-67817381D01*
X145100048Y-67779286D01*
X152907428Y-67208333D02*
X152526476Y-67208333D01*
X152983619Y-67436905D02*
X152716952Y-66636905D01*
X152450285Y-67436905D01*
X152259809Y-66636905D02*
X151764571Y-66636905D01*
X152031238Y-66941667D01*
X151916952Y-66941667D01*
X151840762Y-66979762D01*
X151802666Y-67017857D01*
X151764571Y-67094048D01*
X151764571Y-67284524D01*
X151802666Y-67360714D01*
X151840762Y-67398810D01*
X151916952Y-67436905D01*
X152145524Y-67436905D01*
X152221714Y-67398810D01*
X152259809Y-67360714D01*
X155132428Y-67408333D02*
X154751476Y-67408333D01*
X155208619Y-67636905D02*
X154941952Y-66836905D01*
X154675285Y-67636905D01*
X154446714Y-66913095D02*
X154408619Y-66875000D01*
X154332428Y-66836905D01*
X154141952Y-66836905D01*
X154065762Y-66875000D01*
X154027666Y-66913095D01*
X153989571Y-66989286D01*
X153989571Y-67065476D01*
X154027666Y-67179762D01*
X154484809Y-67636905D01*
X153989571Y-67636905D01*
X156882428Y-67408333D02*
X156501476Y-67408333D01*
X156958619Y-67636905D02*
X156691952Y-66836905D01*
X156425285Y-67636905D01*
X155739571Y-67636905D02*
X156196714Y-67636905D01*
X155968143Y-67636905D02*
X155968143Y-66836905D01*
X156044333Y-66951190D01*
X156120524Y-67027381D01*
X156196714Y-67065476D01*
X158482428Y-67408333D02*
X158101476Y-67408333D01*
X158558619Y-67636905D02*
X158291952Y-66836905D01*
X158025285Y-67636905D01*
X157606238Y-66836905D02*
X157530047Y-66836905D01*
X157453857Y-66875000D01*
X157415762Y-66913095D01*
X157377666Y-66989286D01*
X157339571Y-67141667D01*
X157339571Y-67332143D01*
X157377666Y-67484524D01*
X157415762Y-67560714D01*
X157453857Y-67598810D01*
X157530047Y-67636905D01*
X157606238Y-67636905D01*
X157682428Y-67598810D01*
X157720524Y-67560714D01*
X157758619Y-67484524D01*
X157796714Y-67332143D01*
X157796714Y-67141667D01*
X157758619Y-66989286D01*
X157720524Y-66913095D01*
X157682428Y-66875000D01*
X157606238Y-66836905D01*
X159742905Y-66893571D02*
X158942905Y-66893571D01*
X158942905Y-67084047D01*
X158981000Y-67198333D01*
X159057190Y-67274524D01*
X159133381Y-67312619D01*
X159285762Y-67350714D01*
X159400048Y-67350714D01*
X159552429Y-67312619D01*
X159628619Y-67274524D01*
X159704810Y-67198333D01*
X159742905Y-67084047D01*
X159742905Y-66893571D01*
X159742905Y-68112619D02*
X159742905Y-67655476D01*
X159742905Y-67884047D02*
X158942905Y-67884047D01*
X159057190Y-67807857D01*
X159133381Y-67731666D01*
X159171476Y-67655476D01*
X158942905Y-68379286D02*
X158942905Y-68874524D01*
X159247667Y-68607857D01*
X159247667Y-68722143D01*
X159285762Y-68798333D01*
X159323857Y-68836429D01*
X159400048Y-68874524D01*
X159590524Y-68874524D01*
X159666714Y-68836429D01*
X159704810Y-68798333D01*
X159742905Y-68722143D01*
X159742905Y-68493571D01*
X159704810Y-68417381D01*
X159666714Y-68379286D01*
X159742905Y-69393571D02*
X158942905Y-69393571D01*
X158942905Y-69584047D01*
X158981000Y-69698333D01*
X159057190Y-69774524D01*
X159133381Y-69812619D01*
X159285762Y-69850714D01*
X159400048Y-69850714D01*
X159552429Y-69812619D01*
X159628619Y-69774524D01*
X159704810Y-69698333D01*
X159742905Y-69584047D01*
X159742905Y-69393571D01*
X159742905Y-70612619D02*
X159742905Y-70155476D01*
X159742905Y-70384047D02*
X158942905Y-70384047D01*
X159057190Y-70307857D01*
X159133381Y-70231666D01*
X159171476Y-70155476D01*
X159019095Y-70917381D02*
X158981000Y-70955476D01*
X158942905Y-71031667D01*
X158942905Y-71222143D01*
X158981000Y-71298333D01*
X159019095Y-71336429D01*
X159095286Y-71374524D01*
X159171476Y-71374524D01*
X159285762Y-71336429D01*
X159742905Y-70879286D01*
X159742905Y-71374524D01*
X159742905Y-71993571D02*
X158942905Y-71993571D01*
X158942905Y-72184047D01*
X158981000Y-72298333D01*
X159057190Y-72374524D01*
X159133381Y-72412619D01*
X159285762Y-72450714D01*
X159400048Y-72450714D01*
X159552429Y-72412619D01*
X159628619Y-72374524D01*
X159704810Y-72298333D01*
X159742905Y-72184047D01*
X159742905Y-71993571D01*
X159742905Y-73212619D02*
X159742905Y-72755476D01*
X159742905Y-72984047D02*
X158942905Y-72984047D01*
X159057190Y-72907857D01*
X159133381Y-72831666D01*
X159171476Y-72755476D01*
X159742905Y-73974524D02*
X159742905Y-73517381D01*
X159742905Y-73745952D02*
X158942905Y-73745952D01*
X159057190Y-73669762D01*
X159133381Y-73593571D01*
X159171476Y-73517381D01*
X159742905Y-74493571D02*
X158942905Y-74493571D01*
X158942905Y-74684047D01*
X158981000Y-74798333D01*
X159057190Y-74874524D01*
X159133381Y-74912619D01*
X159285762Y-74950714D01*
X159400048Y-74950714D01*
X159552429Y-74912619D01*
X159628619Y-74874524D01*
X159704810Y-74798333D01*
X159742905Y-74684047D01*
X159742905Y-74493571D01*
X159742905Y-75712619D02*
X159742905Y-75255476D01*
X159742905Y-75484047D02*
X158942905Y-75484047D01*
X159057190Y-75407857D01*
X159133381Y-75331666D01*
X159171476Y-75255476D01*
X158942905Y-76207857D02*
X158942905Y-76284048D01*
X158981000Y-76360238D01*
X159019095Y-76398333D01*
X159095286Y-76436429D01*
X159247667Y-76474524D01*
X159438143Y-76474524D01*
X159590524Y-76436429D01*
X159666714Y-76398333D01*
X159704810Y-76360238D01*
X159742905Y-76284048D01*
X159742905Y-76207857D01*
X159704810Y-76131667D01*
X159666714Y-76093571D01*
X159590524Y-76055476D01*
X159438143Y-76017381D01*
X159247667Y-76017381D01*
X159095286Y-76055476D01*
X159019095Y-76093571D01*
X158981000Y-76131667D01*
X158942905Y-76207857D01*
X159742905Y-77374524D02*
X158942905Y-77374524D01*
X158942905Y-77565000D01*
X158981000Y-77679286D01*
X159057190Y-77755477D01*
X159133381Y-77793572D01*
X159285762Y-77831667D01*
X159400048Y-77831667D01*
X159552429Y-77793572D01*
X159628619Y-77755477D01*
X159704810Y-77679286D01*
X159742905Y-77565000D01*
X159742905Y-77374524D01*
X159742905Y-78212619D02*
X159742905Y-78365000D01*
X159704810Y-78441191D01*
X159666714Y-78479286D01*
X159552429Y-78555477D01*
X159400048Y-78593572D01*
X159095286Y-78593572D01*
X159019095Y-78555477D01*
X158981000Y-78517381D01*
X158942905Y-78441191D01*
X158942905Y-78288810D01*
X158981000Y-78212619D01*
X159019095Y-78174524D01*
X159095286Y-78136429D01*
X159285762Y-78136429D01*
X159361952Y-78174524D01*
X159400048Y-78212619D01*
X159438143Y-78288810D01*
X159438143Y-78441191D01*
X159400048Y-78517381D01*
X159361952Y-78555477D01*
X159285762Y-78593572D01*
X159742905Y-79974524D02*
X158942905Y-79974524D01*
X158942905Y-80165000D01*
X158981000Y-80279286D01*
X159057190Y-80355477D01*
X159133381Y-80393572D01*
X159285762Y-80431667D01*
X159400048Y-80431667D01*
X159552429Y-80393572D01*
X159628619Y-80355477D01*
X159704810Y-80279286D01*
X159742905Y-80165000D01*
X159742905Y-79974524D01*
X159285762Y-80888810D02*
X159247667Y-80812619D01*
X159209571Y-80774524D01*
X159133381Y-80736429D01*
X159095286Y-80736429D01*
X159019095Y-80774524D01*
X158981000Y-80812619D01*
X158942905Y-80888810D01*
X158942905Y-81041191D01*
X158981000Y-81117381D01*
X159019095Y-81155477D01*
X159095286Y-81193572D01*
X159133381Y-81193572D01*
X159209571Y-81155477D01*
X159247667Y-81117381D01*
X159285762Y-81041191D01*
X159285762Y-80888810D01*
X159323857Y-80812619D01*
X159361952Y-80774524D01*
X159438143Y-80736429D01*
X159590524Y-80736429D01*
X159666714Y-80774524D01*
X159704810Y-80812619D01*
X159742905Y-80888810D01*
X159742905Y-81041191D01*
X159704810Y-81117381D01*
X159666714Y-81155477D01*
X159590524Y-81193572D01*
X159438143Y-81193572D01*
X159361952Y-81155477D01*
X159323857Y-81117381D01*
X159285762Y-81041191D01*
X159742905Y-82474524D02*
X158942905Y-82474524D01*
X158942905Y-82665000D01*
X158981000Y-82779286D01*
X159057190Y-82855477D01*
X159133381Y-82893572D01*
X159285762Y-82931667D01*
X159400048Y-82931667D01*
X159552429Y-82893572D01*
X159628619Y-82855477D01*
X159704810Y-82779286D01*
X159742905Y-82665000D01*
X159742905Y-82474524D01*
X158942905Y-83198334D02*
X158942905Y-83731667D01*
X159742905Y-83388810D01*
X158942905Y-84674524D02*
X158942905Y-85169762D01*
X159247667Y-84903095D01*
X159247667Y-85017381D01*
X159285762Y-85093571D01*
X159323857Y-85131667D01*
X159400048Y-85169762D01*
X159590524Y-85169762D01*
X159666714Y-85131667D01*
X159704810Y-85093571D01*
X159742905Y-85017381D01*
X159742905Y-84788809D01*
X159704810Y-84712619D01*
X159666714Y-84674524D01*
X158942905Y-85398333D02*
X159742905Y-85665000D01*
X158942905Y-85931667D01*
X158942905Y-86122143D02*
X158942905Y-86617381D01*
X159247667Y-86350714D01*
X159247667Y-86465000D01*
X159285762Y-86541190D01*
X159323857Y-86579286D01*
X159400048Y-86617381D01*
X159590524Y-86617381D01*
X159666714Y-86579286D01*
X159704810Y-86541190D01*
X159742905Y-86465000D01*
X159742905Y-86236428D01*
X159704810Y-86160238D01*
X159666714Y-86122143D01*
X158942905Y-88012620D02*
X158942905Y-87631667D01*
X159323857Y-87593572D01*
X159285762Y-87631667D01*
X159247667Y-87707858D01*
X159247667Y-87898334D01*
X159285762Y-87974524D01*
X159323857Y-88012620D01*
X159400048Y-88050715D01*
X159590524Y-88050715D01*
X159666714Y-88012620D01*
X159704810Y-87974524D01*
X159742905Y-87898334D01*
X159742905Y-87707858D01*
X159704810Y-87631667D01*
X159666714Y-87593572D01*
X158942905Y-88279286D02*
X159742905Y-88545953D01*
X158942905Y-88812620D01*
X155927666Y-86461905D02*
X155927666Y-87033333D01*
X155965762Y-87147619D01*
X156041952Y-87223810D01*
X156156238Y-87261905D01*
X156232428Y-87261905D01*
X155203857Y-86728571D02*
X155203857Y-87261905D01*
X155394333Y-86423810D02*
X155584809Y-86995238D01*
X155089571Y-86995238D01*
X152851476Y-69861905D02*
X152851476Y-69061905D01*
X152546714Y-69061905D01*
X152470523Y-69100000D01*
X152432428Y-69138095D01*
X152394333Y-69214286D01*
X152394333Y-69328571D01*
X152432428Y-69404762D01*
X152470523Y-69442857D01*
X152546714Y-69480952D01*
X152851476Y-69480952D01*
X152089571Y-69138095D02*
X152051476Y-69100000D01*
X151975285Y-69061905D01*
X151784809Y-69061905D01*
X151708619Y-69100000D01*
X151670523Y-69138095D01*
X151632428Y-69214286D01*
X151632428Y-69290476D01*
X151670523Y-69404762D01*
X152127666Y-69861905D01*
X151632428Y-69861905D01*
X147594333Y-87160714D02*
X147632428Y-87198810D01*
X147746714Y-87236905D01*
X147822904Y-87236905D01*
X147937190Y-87198810D01*
X148013381Y-87122619D01*
X148051476Y-87046429D01*
X148089571Y-86894048D01*
X148089571Y-86779762D01*
X148051476Y-86627381D01*
X148013381Y-86551190D01*
X147937190Y-86475000D01*
X147822904Y-86436905D01*
X147746714Y-86436905D01*
X147632428Y-86475000D01*
X147594333Y-86513095D01*
X147289571Y-86513095D02*
X147251476Y-86475000D01*
X147175285Y-86436905D01*
X146984809Y-86436905D01*
X146908619Y-86475000D01*
X146870523Y-86513095D01*
X146832428Y-86589286D01*
X146832428Y-86665476D01*
X146870523Y-86779762D01*
X147327666Y-87236905D01*
X146832428Y-87236905D01*
X155819333Y-84010714D02*
X155857428Y-84048810D01*
X155971714Y-84086905D01*
X156047904Y-84086905D01*
X156162190Y-84048810D01*
X156238381Y-83972619D01*
X156276476Y-83896429D01*
X156314571Y-83744048D01*
X156314571Y-83629762D01*
X156276476Y-83477381D01*
X156238381Y-83401190D01*
X156162190Y-83325000D01*
X156047904Y-83286905D01*
X155971714Y-83286905D01*
X155857428Y-83325000D01*
X155819333Y-83363095D01*
X155552666Y-83286905D02*
X155057428Y-83286905D01*
X155324095Y-83591667D01*
X155209809Y-83591667D01*
X155133619Y-83629762D01*
X155095523Y-83667857D01*
X155057428Y-83744048D01*
X155057428Y-83934524D01*
X155095523Y-84010714D01*
X155133619Y-84048810D01*
X155209809Y-84086905D01*
X155438381Y-84086905D01*
X155514571Y-84048810D01*
X155552666Y-84010714D01*
X157951476Y-78336905D02*
X157951476Y-77536905D01*
X157761000Y-77536905D01*
X157646714Y-77575000D01*
X157570523Y-77651190D01*
X157532428Y-77727381D01*
X157494333Y-77879762D01*
X157494333Y-77994048D01*
X157532428Y-78146429D01*
X157570523Y-78222619D01*
X157646714Y-78298810D01*
X157761000Y-78336905D01*
X157951476Y-78336905D01*
X157189571Y-77613095D02*
X157151476Y-77575000D01*
X157075285Y-77536905D01*
X156884809Y-77536905D01*
X156808619Y-77575000D01*
X156770523Y-77613095D01*
X156732428Y-77689286D01*
X156732428Y-77765476D01*
X156770523Y-77879762D01*
X157227666Y-78336905D01*
X156732428Y-78336905D01*
X150677666Y-74861905D02*
X150677666Y-75433333D01*
X150715762Y-75547619D01*
X150791952Y-75623810D01*
X150906238Y-75661905D01*
X150982428Y-75661905D01*
X149915761Y-74861905D02*
X150296714Y-74861905D01*
X150334809Y-75242857D01*
X150296714Y-75204762D01*
X150220523Y-75166667D01*
X150030047Y-75166667D01*
X149953857Y-75204762D01*
X149915761Y-75242857D01*
X149877666Y-75319048D01*
X149877666Y-75509524D01*
X149915761Y-75585714D01*
X149953857Y-75623810D01*
X150030047Y-75661905D01*
X150220523Y-75661905D01*
X150296714Y-75623810D01*
X150334809Y-75585714D01*
X146477666Y-74861905D02*
X146477666Y-75433333D01*
X146515762Y-75547619D01*
X146591952Y-75623810D01*
X146706238Y-75661905D01*
X146782428Y-75661905D01*
X145753857Y-74861905D02*
X145906238Y-74861905D01*
X145982428Y-74900000D01*
X146020523Y-74938095D01*
X146096714Y-75052381D01*
X146134809Y-75204762D01*
X146134809Y-75509524D01*
X146096714Y-75585714D01*
X146058619Y-75623810D01*
X145982428Y-75661905D01*
X145830047Y-75661905D01*
X145753857Y-75623810D01*
X145715761Y-75585714D01*
X145677666Y-75509524D01*
X145677666Y-75319048D01*
X145715761Y-75242857D01*
X145753857Y-75204762D01*
X145830047Y-75166667D01*
X145982428Y-75166667D01*
X146058619Y-75204762D01*
X146096714Y-75242857D01*
X146134809Y-75319048D01*
X157077666Y-75736905D02*
X157077666Y-76308333D01*
X157115762Y-76422619D01*
X157191952Y-76498810D01*
X157306238Y-76536905D01*
X157382428Y-76536905D01*
X156772904Y-75736905D02*
X156239571Y-75736905D01*
X156582428Y-76536905D01*
X157922905Y-69583334D02*
X158494333Y-69583334D01*
X158608619Y-69545238D01*
X158684810Y-69469048D01*
X158722905Y-69354762D01*
X158722905Y-69278572D01*
X158265762Y-70078572D02*
X158227667Y-70002381D01*
X158189571Y-69964286D01*
X158113381Y-69926191D01*
X158075286Y-69926191D01*
X157999095Y-69964286D01*
X157961000Y-70002381D01*
X157922905Y-70078572D01*
X157922905Y-70230953D01*
X157961000Y-70307143D01*
X157999095Y-70345239D01*
X158075286Y-70383334D01*
X158113381Y-70383334D01*
X158189571Y-70345239D01*
X158227667Y-70307143D01*
X158265762Y-70230953D01*
X158265762Y-70078572D01*
X158303857Y-70002381D01*
X158341952Y-69964286D01*
X158418143Y-69926191D01*
X158570524Y-69926191D01*
X158646714Y-69964286D01*
X158684810Y-70002381D01*
X158722905Y-70078572D01*
X158722905Y-70230953D01*
X158684810Y-70307143D01*
X158646714Y-70345239D01*
X158570524Y-70383334D01*
X158418143Y-70383334D01*
X158341952Y-70345239D01*
X158303857Y-70307143D01*
X158265762Y-70230953D01*
X158672905Y-72441667D02*
X158291952Y-72175000D01*
X158672905Y-71984524D02*
X157872905Y-71984524D01*
X157872905Y-72289286D01*
X157911000Y-72365477D01*
X157949095Y-72403572D01*
X158025286Y-72441667D01*
X158139571Y-72441667D01*
X158215762Y-72403572D01*
X158253857Y-72365477D01*
X158291952Y-72289286D01*
X158291952Y-71984524D01*
X158139571Y-73127381D02*
X158672905Y-73127381D01*
X157834810Y-72936905D02*
X158406238Y-72746429D01*
X158406238Y-73241667D01*
X152294333Y-72786905D02*
X152561000Y-72405952D01*
X152751476Y-72786905D02*
X152751476Y-71986905D01*
X152446714Y-71986905D01*
X152370523Y-72025000D01*
X152332428Y-72063095D01*
X152294333Y-72139286D01*
X152294333Y-72253571D01*
X152332428Y-72329762D01*
X152370523Y-72367857D01*
X152446714Y-72405952D01*
X152751476Y-72405952D01*
X151570523Y-71986905D02*
X151951476Y-71986905D01*
X151989571Y-72367857D01*
X151951476Y-72329762D01*
X151875285Y-72291667D01*
X151684809Y-72291667D01*
X151608619Y-72329762D01*
X151570523Y-72367857D01*
X151532428Y-72444048D01*
X151532428Y-72634524D01*
X151570523Y-72710714D01*
X151608619Y-72748810D01*
X151684809Y-72786905D01*
X151875285Y-72786905D01*
X151951476Y-72748810D01*
X151989571Y-72710714D01*
X152294333Y-70886905D02*
X152561000Y-70505952D01*
X152751476Y-70886905D02*
X152751476Y-70086905D01*
X152446714Y-70086905D01*
X152370523Y-70125000D01*
X152332428Y-70163095D01*
X152294333Y-70239286D01*
X152294333Y-70353571D01*
X152332428Y-70429762D01*
X152370523Y-70467857D01*
X152446714Y-70505952D01*
X152751476Y-70505952D01*
X152027666Y-70086905D02*
X151494333Y-70086905D01*
X151837190Y-70886905D01*
X148170524Y-79411905D02*
X148170524Y-80059524D01*
X148132429Y-80135714D01*
X148094333Y-80173810D01*
X148018143Y-80211905D01*
X147865762Y-80211905D01*
X147789571Y-80173810D01*
X147751476Y-80135714D01*
X147713381Y-80059524D01*
X147713381Y-79411905D01*
X146913381Y-80211905D02*
X147370524Y-80211905D01*
X147141953Y-80211905D02*
X147141953Y-79411905D01*
X147218143Y-79526190D01*
X147294334Y-79602381D01*
X147370524Y-79640476D01*
M02*
