M48
;DRILL file {KiCad 4.0.6} date 09/06/17 16:41:31
;FORMAT={-:-/ absolute / inch / decimal}
FMAT,2
INCH,TZ
T1C0.024
T2C0.031
T3C0.032
T4C0.033
T5C0.039
T6C0.091
%
G90
G05
M72
T1
X5.2555Y-3.7398
X5.3252Y-3.8303
X5.3252Y-3.8811
X5.326Y-2.188
X5.326Y-2.188
X5.326Y-2.188
X5.326Y-2.188
X5.326Y-2.188
X5.326Y-2.188
X5.326Y-2.188
X5.326Y-2.188
X5.364Y-2.138
X5.364Y-2.138
X5.364Y-2.138
X5.364Y-2.138
X5.364Y-2.138
X5.364Y-2.138
X5.364Y-2.138
X5.364Y-2.138
X5.572Y-3.7402
X5.624Y-4.5307
X5.7839Y-3.7402
X5.8528Y-3.8307
X5.8528Y-3.8807
X5.854Y-2.188
X5.89Y-2.136
X5.9394Y-4.137
X6.039Y-4.1382
X6.1004Y-3.7402
X6.2083Y-3.7402
X6.3728Y-3.8807
X6.38Y-2.188
X6.3815Y-3.8307
X6.416Y-2.136
X6.59Y-4.006
X6.628Y-3.7402
X6.7232Y-2.9272
T2
X5.9394Y-4.3646
X6.0378Y-4.3646
T3
X5.311Y-4.1126
X5.311Y-4.1913
X5.411Y-4.1126
X5.411Y-4.1913
T4
X5.362Y-2.544
X5.362Y-2.644
X5.362Y-2.744
X5.362Y-2.844
X5.362Y-3.112
X5.362Y-3.212
X5.362Y-3.312
X5.362Y-3.412
X5.89Y-2.544
X5.89Y-2.644
X5.89Y-2.744
X5.89Y-2.844
X5.89Y-3.112
X5.89Y-3.212
X5.89Y-3.312
X5.89Y-3.412
X6.418Y-2.544
X6.418Y-2.644
X6.418Y-2.744
X6.418Y-2.844
X6.418Y-3.112
X6.418Y-3.212
X6.418Y-3.312
X6.418Y-3.412
X6.418Y-4.21
X6.418Y-4.31
X6.418Y-4.41
X6.418Y-4.51
T5
X5.262Y-2.332
X5.262Y-3.614
X5.362Y-2.332
X5.362Y-3.614
X5.462Y-2.332
X5.462Y-3.614
X5.79Y-2.332
X5.79Y-3.614
X5.89Y-2.332
X5.89Y-3.614
X5.99Y-2.332
X5.99Y-3.614
X6.318Y-2.332
X6.318Y-3.614
X6.418Y-2.332
X6.418Y-3.614
X6.518Y-2.332
X6.518Y-3.614
T6
X5.1248Y-4.2976
X5.5972Y-4.2976
T0
M30
