G04 #@! TF.FileFunction,Soldermask,Top*
%FSLAX45Y45*%
G04 Gerber Fmt 4.5, Leading zero omitted, Abs format (unit mm)*
G04 Created by KiCad (PCBNEW 4.0.6) date 09/06/17 16:41:30*
%MOMM*%
%LPD*%
G01*
G04 APERTURE LIST*
%ADD10C,0.100000*%
%ADD11C,1.520000*%
%ADD12C,2.700000*%
%ADD13R,1.700000X1.700000*%
%ADD14O,1.700000X1.700000*%
%ADD15R,1.600000X1.600000*%
%ADD16C,1.600000*%
%ADD17C,1.700000*%
G04 APERTURE END LIST*
D10*
D11*
X13490000Y-10446000D03*
X13744000Y-10446000D03*
X13744000Y-10646000D03*
X13490000Y-10646000D03*
D12*
X13017000Y-10916000D03*
X14217000Y-10916000D03*
D13*
X13365480Y-5923280D03*
D14*
X13619480Y-5923280D03*
X13873480Y-5923280D03*
D13*
X14706600Y-5923280D03*
D14*
X14960600Y-5923280D03*
X15214600Y-5923280D03*
D13*
X16047720Y-5923280D03*
D14*
X16301720Y-5923280D03*
X16555720Y-5923280D03*
D13*
X13365480Y-9179560D03*
D14*
X13619480Y-9179560D03*
X13873480Y-9179560D03*
D13*
X14706600Y-9179560D03*
D14*
X14960600Y-9179560D03*
X15214600Y-9179560D03*
D13*
X16047720Y-9179560D03*
D14*
X16301720Y-9179560D03*
X16555720Y-9179560D03*
D15*
X15086000Y-11086000D03*
D16*
X15336000Y-11086000D03*
D13*
X16301720Y-10693400D03*
D17*
X16301720Y-10947400D03*
X16301720Y-11201400D03*
X16301720Y-11455400D03*
D13*
X13619480Y-6461760D03*
D17*
X13619480Y-6715760D03*
X13619480Y-6969760D03*
X13619480Y-7223760D03*
D13*
X14960600Y-6461760D03*
D17*
X14960600Y-6715760D03*
X14960600Y-6969760D03*
X14960600Y-7223760D03*
D13*
X16301720Y-6461760D03*
D17*
X16301720Y-6715760D03*
X16301720Y-6969760D03*
X16301720Y-7223760D03*
D13*
X13619480Y-7904480D03*
D17*
X13619480Y-8158480D03*
X13619480Y-8412480D03*
X13619480Y-8666480D03*
D13*
X14960600Y-7904480D03*
D17*
X14960600Y-8158480D03*
X14960600Y-8412480D03*
X14960600Y-8666480D03*
D13*
X16301720Y-7904480D03*
D17*
X16301720Y-8158480D03*
X16301720Y-8412480D03*
X16301720Y-8666480D03*
M02*
