G04 #@! TF.FileFunction,Paste,Bot*
%FSLAX45Y45*%
G04 Gerber Fmt 4.5, Leading zero omitted, Abs format (unit mm)*
G04 Created by KiCad (PCBNEW 4.0.6) date 09/06/17 16:41:29*
%MOMM*%
%LPD*%
G01*
G04 APERTURE LIST*
%ADD10C,0.100000*%
%ADD11R,1.700000X0.900000*%
%ADD12R,1.600000X1.000000*%
%ADD13R,1.000000X1.600000*%
%ADD14R,0.900000X1.700000*%
%ADD15R,1.550000X0.600000*%
%ADD16R,2.500000X1.800000*%
%ADD17R,1.500000X1.950000*%
%ADD18R,1.200000X2.200000*%
%ADD19R,1.060000X0.650000*%
G04 APERTURE END LIST*
D10*
D11*
X15925800Y-6464080D03*
X15925800Y-6754080D03*
D12*
X13086080Y-5641480D03*
X13086080Y-5341480D03*
X14152880Y-5641480D03*
X14152880Y-5341480D03*
X14427200Y-5641480D03*
X14427200Y-5341480D03*
X15494000Y-5641480D03*
X15494000Y-5341480D03*
X15768320Y-5641480D03*
X15768320Y-5341480D03*
X16835120Y-5641480D03*
X16835120Y-5341480D03*
X13086080Y-9944240D03*
X13086080Y-9644240D03*
X14152880Y-9944240D03*
X14152880Y-9644240D03*
X14427200Y-9944240D03*
X14427200Y-9644240D03*
X15494000Y-9944240D03*
X15494000Y-9644240D03*
X15768320Y-9944240D03*
X15768320Y-9644240D03*
X16835120Y-9944240D03*
X16835120Y-9644240D03*
D13*
X15052000Y-11717000D03*
X15352000Y-11717000D03*
D14*
X15775720Y-10947400D03*
X16065720Y-10947400D03*
X15775720Y-11201400D03*
X16065720Y-11201400D03*
D11*
X13243560Y-6464080D03*
X13243560Y-6754080D03*
X14056360Y-6464080D03*
X14056360Y-6754080D03*
X14584680Y-6464080D03*
X14584680Y-6754080D03*
X15397480Y-6464080D03*
X15397480Y-6754080D03*
X16738600Y-6464080D03*
X16738600Y-6754080D03*
X13243560Y-7906800D03*
X13243560Y-8196800D03*
X14056360Y-7906800D03*
X14056360Y-8196800D03*
X14584680Y-7906800D03*
X14584680Y-8196800D03*
X15397480Y-7906800D03*
X15397480Y-8196800D03*
X15925800Y-7906800D03*
X15925800Y-8196800D03*
X16738600Y-7906800D03*
X16738600Y-8196800D03*
D15*
X13349480Y-5681980D03*
X13349480Y-5554980D03*
X13349480Y-5427980D03*
X13349480Y-5300980D03*
X13889480Y-5300980D03*
X13889480Y-5427980D03*
X13889480Y-5554980D03*
X13889480Y-5681980D03*
X14690600Y-5681980D03*
X14690600Y-5554980D03*
X14690600Y-5427980D03*
X14690600Y-5300980D03*
X15230600Y-5300980D03*
X15230600Y-5427980D03*
X15230600Y-5554980D03*
X15230600Y-5681980D03*
X16031720Y-5681980D03*
X16031720Y-5554980D03*
X16031720Y-5427980D03*
X16031720Y-5300980D03*
X16571720Y-5300980D03*
X16571720Y-5427980D03*
X16571720Y-5554980D03*
X16571720Y-5681980D03*
X13349480Y-9984740D03*
X13349480Y-9857740D03*
X13349480Y-9730740D03*
X13349480Y-9603740D03*
X13889480Y-9603740D03*
X13889480Y-9730740D03*
X13889480Y-9857740D03*
X13889480Y-9984740D03*
X14690600Y-9984740D03*
X14690600Y-9857740D03*
X14690600Y-9730740D03*
X14690600Y-9603740D03*
X15230600Y-9603740D03*
X15230600Y-9730740D03*
X15230600Y-9857740D03*
X15230600Y-9984740D03*
X16031720Y-9984740D03*
X16031720Y-9857740D03*
X16031720Y-9730740D03*
X16031720Y-9603740D03*
X16571720Y-9603740D03*
X16571720Y-9730740D03*
X16571720Y-9857740D03*
X16571720Y-9984740D03*
D16*
X14476000Y-10446000D03*
X14076000Y-10446000D03*
D17*
X13394000Y-11373500D03*
X13394000Y-11648500D03*
D18*
X14468000Y-11509000D03*
X14748000Y-11509000D03*
D14*
X14129000Y-11204000D03*
X13839000Y-11204000D03*
D11*
X13645000Y-11324000D03*
X13645000Y-11614000D03*
D19*
X14080000Y-11412000D03*
X14080000Y-11507000D03*
X14080000Y-11602000D03*
X13860000Y-11602000D03*
X13860000Y-11412000D03*
M02*
