G04 #@! TF.FileFunction,Copper,L1,Top,Signal*
%FSLAX45Y45*%
G04 Gerber Fmt 4.5, Leading zero omitted, Abs format (unit mm)*
G04 Created by KiCad (PCBNEW 4.0.6) date 09/06/17 16:41:29*
%MOMM*%
%LPD*%
G01*
G04 APERTURE LIST*
%ADD10C,0.100000*%
%ADD11C,1.520000*%
%ADD12C,2.700000*%
%ADD13R,1.700000X1.700000*%
%ADD14O,1.700000X1.700000*%
%ADD15R,1.600000X1.600000*%
%ADD16C,1.600000*%
%ADD17C,1.700000*%
%ADD18C,1.000000*%
%ADD19C,0.750000*%
%ADD20C,0.400000*%
%ADD21C,0.500000*%
%ADD22C,0.254000*%
G04 APERTURE END LIST*
D10*
D11*
X13490000Y-10446000D03*
X13744000Y-10446000D03*
X13744000Y-10646000D03*
X13490000Y-10646000D03*
D12*
X13017000Y-10916000D03*
X14217000Y-10916000D03*
D13*
X13365480Y-5923280D03*
D14*
X13619480Y-5923280D03*
X13873480Y-5923280D03*
D13*
X14706600Y-5923280D03*
D14*
X14960600Y-5923280D03*
X15214600Y-5923280D03*
D13*
X16047720Y-5923280D03*
D14*
X16301720Y-5923280D03*
X16555720Y-5923280D03*
D13*
X13365480Y-9179560D03*
D14*
X13619480Y-9179560D03*
X13873480Y-9179560D03*
D13*
X14706600Y-9179560D03*
D14*
X14960600Y-9179560D03*
X15214600Y-9179560D03*
D13*
X16047720Y-9179560D03*
D14*
X16301720Y-9179560D03*
X16555720Y-9179560D03*
D15*
X15086000Y-11086000D03*
D16*
X15336000Y-11086000D03*
D13*
X16301720Y-10693400D03*
D17*
X16301720Y-10947400D03*
X16301720Y-11201400D03*
X16301720Y-11455400D03*
D13*
X13619480Y-6461760D03*
D17*
X13619480Y-6715760D03*
X13619480Y-6969760D03*
X13619480Y-7223760D03*
D13*
X14960600Y-6461760D03*
D17*
X14960600Y-6715760D03*
X14960600Y-6969760D03*
X14960600Y-7223760D03*
D13*
X16301720Y-6461760D03*
D17*
X16301720Y-6715760D03*
X16301720Y-6969760D03*
X16301720Y-7223760D03*
D13*
X13619480Y-7904480D03*
D17*
X13619480Y-8158480D03*
X13619480Y-8412480D03*
X13619480Y-8666480D03*
D13*
X14960600Y-7904480D03*
D17*
X14960600Y-8158480D03*
X14960600Y-8412480D03*
X14960600Y-8666480D03*
D13*
X16301720Y-7904480D03*
D17*
X16301720Y-8158480D03*
X16301720Y-8412480D03*
X16301720Y-8666480D03*
D18*
X15086000Y-10508000D03*
X13624560Y-5430520D03*
X13624560Y-5430520D03*
X13624560Y-5430520D03*
X13624560Y-5430520D03*
X13624560Y-5430520D03*
X13624560Y-5430520D03*
X13624560Y-5430520D03*
X17077000Y-7435000D03*
X16209000Y-9730000D03*
X14866000Y-9730000D03*
X13526000Y-9729000D03*
X16296640Y-5425440D03*
X14960600Y-5425440D03*
X13624560Y-5430520D03*
X13528040Y-5557520D03*
X13528040Y-5557520D03*
X13528040Y-5557520D03*
X13528040Y-5557520D03*
X13528040Y-5557520D03*
X13528040Y-5557520D03*
X13528040Y-5557520D03*
X16738600Y-10175240D03*
X13526000Y-9858000D03*
X14866000Y-9857000D03*
X16187000Y-9857000D03*
X16205200Y-5557520D03*
X14869160Y-5557520D03*
X13528040Y-5557520D03*
X14285000Y-11508000D03*
X15339000Y-10511000D03*
X16835000Y-9500000D03*
X15769000Y-9500000D03*
X15495000Y-9500000D03*
X14691000Y-9500000D03*
X14153000Y-9500000D03*
X13349000Y-9499000D03*
D19*
X13873480Y-5833520D02*
X13950000Y-5757000D01*
X13950000Y-5757000D02*
X15214600Y-5757000D01*
X13873480Y-5923280D02*
X13873480Y-5833520D01*
X13873480Y-5923280D02*
X13873480Y-5833520D01*
X13950000Y-5757000D02*
X15214600Y-5757000D01*
X13873480Y-5833520D02*
X13950000Y-5757000D01*
X13873480Y-5833520D02*
X13950000Y-5757000D01*
X13950000Y-5757000D02*
X15214600Y-5757000D01*
X13873480Y-5923280D02*
X13873480Y-5833520D01*
X13873480Y-5923280D02*
X13873480Y-5833520D01*
X13950000Y-5757000D02*
X15214600Y-5757000D01*
X13873480Y-5833520D02*
X13950000Y-5757000D01*
X13873480Y-5833520D02*
X13950000Y-5757000D01*
X13950000Y-5757000D02*
X15214600Y-5757000D01*
X13873480Y-5923280D02*
X13873480Y-5833520D01*
X13873480Y-5923280D02*
X13873480Y-5833520D01*
X13950000Y-5757000D02*
X15214600Y-5757000D01*
X13873480Y-5833520D02*
X13950000Y-5757000D01*
X13873480Y-5833520D02*
X13950000Y-5757000D01*
X13950000Y-5757000D02*
X15214600Y-5757000D01*
X13873480Y-5923280D02*
X13873480Y-5833520D01*
X13873480Y-9179560D02*
X13873480Y-9360000D01*
X13268000Y-9360000D02*
X13873480Y-9360000D01*
X13873480Y-9360000D02*
X13939000Y-9360000D01*
X13160000Y-9468000D02*
X13268000Y-9360000D01*
X13160000Y-10047000D02*
X13160000Y-9468000D01*
X13358000Y-10245000D02*
X13160000Y-10047000D01*
X14918000Y-10245000D02*
X13358000Y-10245000D01*
X15086000Y-10413000D02*
X14918000Y-10245000D01*
X15086000Y-10508000D02*
X15086000Y-10413000D01*
X16555720Y-5923280D02*
X16555720Y-9179560D01*
X15214600Y-5923280D02*
X15214600Y-5757000D01*
X13873480Y-5923280D02*
X13873480Y-5833520D01*
X16555720Y-5816720D02*
X16555720Y-5923280D01*
X16496000Y-5757000D02*
X16555720Y-5816720D01*
X13950000Y-5757000D02*
X15214600Y-5757000D01*
X15214600Y-5757000D02*
X16496000Y-5757000D01*
X13873480Y-5833520D02*
X13950000Y-5757000D01*
X15214600Y-9179560D02*
X15214600Y-9360000D01*
X13977000Y-9360000D02*
X13939000Y-9360000D01*
X15214600Y-9360000D02*
X13977000Y-9360000D01*
X16453000Y-9360000D02*
X15214600Y-9360000D01*
X16555720Y-9257280D02*
X16453000Y-9360000D01*
X16555720Y-9179560D02*
X16555720Y-9257280D01*
X13440000Y-6103000D02*
X14706600Y-6103000D01*
X13365480Y-6028480D02*
X13440000Y-6103000D01*
X13365480Y-5923280D02*
X13365480Y-6028480D01*
X13365480Y-5923280D02*
X13365480Y-6028480D01*
X13365480Y-6028480D02*
X13440000Y-6103000D01*
X13440000Y-6103000D02*
X14706600Y-6103000D01*
X13440000Y-6103000D02*
X14706600Y-6103000D01*
X13365480Y-6028480D02*
X13440000Y-6103000D01*
X13365480Y-5923280D02*
X13365480Y-6028480D01*
X13365480Y-5923280D02*
X13365480Y-6028480D01*
X13365480Y-6028480D02*
X13440000Y-6103000D01*
X13440000Y-6103000D02*
X14706600Y-6103000D01*
X13440000Y-6103000D02*
X14706600Y-6103000D01*
X13365480Y-6028480D02*
X13440000Y-6103000D01*
X13365480Y-5923280D02*
X13365480Y-6028480D01*
X13365480Y-5923280D02*
X13365480Y-6028480D01*
X13365480Y-6028480D02*
X13440000Y-6103000D01*
X13440000Y-6103000D02*
X14706600Y-6103000D01*
X13440000Y-6103000D02*
X14706600Y-6103000D01*
X13365480Y-6028480D02*
X13440000Y-6103000D01*
X13365480Y-5923280D02*
X13365480Y-6028480D01*
X14706600Y-5923280D02*
X14706600Y-6103000D01*
X13365480Y-5923280D02*
X13365480Y-6028480D01*
X13365480Y-6028480D02*
X13440000Y-6103000D01*
X13440000Y-6103000D02*
X14706600Y-6103000D01*
X16047720Y-6031280D02*
X16047720Y-5923280D01*
X15976000Y-6103000D02*
X16047720Y-6031280D01*
X14706600Y-6103000D02*
X15976000Y-6103000D01*
X14706600Y-9179560D02*
X14706600Y-8947000D01*
X13365480Y-9179560D02*
X13365480Y-9048520D01*
X16047720Y-9038720D02*
X16047720Y-9179560D01*
X15956000Y-8947000D02*
X16047720Y-9038720D01*
X13467000Y-8947000D02*
X14706600Y-8947000D01*
X14706600Y-8947000D02*
X15956000Y-8947000D01*
X13365480Y-9048520D02*
X13467000Y-8947000D01*
D20*
X13624560Y-5430520D02*
X13629640Y-5425440D01*
X13629640Y-5425440D02*
X14960600Y-5425440D01*
X13629640Y-5425440D02*
X14960600Y-5425440D01*
X13624560Y-5430520D02*
X13629640Y-5425440D01*
X13624560Y-5430520D02*
X13629640Y-5425440D01*
X13629640Y-5425440D02*
X14960600Y-5425440D01*
X13629640Y-5425440D02*
X14960600Y-5425440D01*
X13624560Y-5430520D02*
X13629640Y-5425440D01*
X13624560Y-5430520D02*
X13629640Y-5425440D01*
X13629640Y-5425440D02*
X14960600Y-5425440D01*
X13629640Y-5425440D02*
X14960600Y-5425440D01*
X13624560Y-5430520D02*
X13629640Y-5425440D01*
X13624560Y-5430520D02*
X13629640Y-5425440D01*
X13629640Y-5425440D02*
X14960600Y-5425440D01*
D21*
X16296640Y-5425440D02*
X16841440Y-5425440D01*
X16841440Y-5425440D02*
X17077000Y-5661000D01*
X17077000Y-5661000D02*
X17077000Y-7435000D01*
X14866000Y-9730000D02*
X16209000Y-9730000D01*
X13527000Y-9730000D02*
X14866000Y-9730000D01*
X13526000Y-9729000D02*
X13527000Y-9730000D01*
D20*
X14960600Y-5425440D02*
X16296640Y-5425440D01*
X13629640Y-5425440D02*
X14960600Y-5425440D01*
X13624560Y-5430520D02*
X13629640Y-5425440D01*
X13528040Y-5557520D02*
X14869160Y-5557520D01*
X13528040Y-5557520D02*
X14869160Y-5557520D01*
X13528040Y-5557520D02*
X14869160Y-5557520D01*
X13528040Y-5557520D02*
X14869160Y-5557520D01*
X13528040Y-5557520D02*
X14869160Y-5557520D01*
X13528040Y-5557520D02*
X14869160Y-5557520D01*
X13528040Y-5557520D02*
X14869160Y-5557520D01*
D21*
X16963000Y-5779000D02*
X16963000Y-5728000D01*
X16963000Y-9858000D02*
X16963000Y-5779000D01*
X16792520Y-5557520D02*
X16205200Y-5557520D01*
X16963000Y-5728000D02*
X16792520Y-5557520D01*
X16740000Y-10173000D02*
X16963000Y-9858000D01*
X14866000Y-9857000D02*
X13527000Y-9857000D01*
X16187000Y-9857000D02*
X14867000Y-9858000D01*
X16187000Y-9857000D02*
X16963000Y-9858000D01*
D20*
X14869160Y-5557520D02*
X16205200Y-5557520D01*
X13528040Y-5557520D02*
X14869160Y-5557520D01*
D19*
X13619480Y-7223760D02*
X13513240Y-7223760D01*
X13489480Y-8666480D02*
X13619480Y-8666480D01*
X13353000Y-8530000D02*
X13489480Y-8666480D01*
X13353000Y-7384000D02*
X13353000Y-8530000D01*
X13513240Y-7223760D02*
X13353000Y-7384000D01*
X13349000Y-9499000D02*
X13349000Y-9905000D01*
X15339000Y-10394000D02*
X15339000Y-10511000D01*
X15049000Y-10104000D02*
X15339000Y-10394000D01*
X13548000Y-10104000D02*
X15049000Y-10104000D01*
X13349000Y-9905000D02*
X13548000Y-10104000D01*
X15769000Y-9500000D02*
X16835000Y-9500000D01*
X15495000Y-9500000D02*
X15769000Y-9500000D01*
X14691000Y-9500000D02*
X15495000Y-9500000D01*
X14153000Y-9500000D02*
X14691000Y-9500000D01*
X13350000Y-9500000D02*
X14153000Y-9500000D01*
D21*
X13349000Y-9499000D02*
X13350000Y-9500000D01*
D22*
G36*
X17091740Y-5550582D02*
X16904019Y-5362861D01*
X16901329Y-5361064D01*
X16875308Y-5343677D01*
X16866577Y-5341940D01*
X16841440Y-5336940D01*
X16841440Y-5336940D01*
X16368668Y-5336940D01*
X16361016Y-5329276D01*
X16319316Y-5311960D01*
X16274162Y-5311920D01*
X16232431Y-5329163D01*
X16219632Y-5341940D01*
X15037619Y-5341940D01*
X15024976Y-5329276D01*
X14983276Y-5311960D01*
X14938122Y-5311920D01*
X14896391Y-5329163D01*
X14883592Y-5341940D01*
X13696508Y-5341940D01*
X13688936Y-5334356D01*
X13647236Y-5317040D01*
X13602082Y-5317000D01*
X13560351Y-5334243D01*
X13528395Y-5366144D01*
X13511080Y-5407844D01*
X13511048Y-5444005D01*
X13505562Y-5444000D01*
X13463831Y-5461243D01*
X13431875Y-5493144D01*
X13414560Y-5534844D01*
X13414520Y-5579998D01*
X13431763Y-5621729D01*
X13463663Y-5653684D01*
X13505364Y-5671000D01*
X13550517Y-5671040D01*
X13592249Y-5653797D01*
X13605048Y-5641020D01*
X14792141Y-5641020D01*
X14804783Y-5653684D01*
X14810360Y-5656000D01*
X13950000Y-5656000D01*
X13911349Y-5663688D01*
X13878582Y-5685582D01*
X13802062Y-5762102D01*
X13780168Y-5794869D01*
X13777259Y-5809496D01*
X13768475Y-5815365D01*
X13746480Y-5848283D01*
X13724485Y-5815365D01*
X13676308Y-5783175D01*
X13619480Y-5771871D01*
X13562651Y-5783175D01*
X13514475Y-5815365D01*
X13511695Y-5819525D01*
X13510796Y-5814748D01*
X13496889Y-5793136D01*
X13475669Y-5778637D01*
X13450480Y-5773536D01*
X13280480Y-5773536D01*
X13256948Y-5777964D01*
X13235336Y-5791871D01*
X13220837Y-5813091D01*
X13215736Y-5838280D01*
X13215736Y-6008280D01*
X13220164Y-6031812D01*
X13234071Y-6053424D01*
X13255291Y-6067923D01*
X13275421Y-6072000D01*
X13294062Y-6099898D01*
X13368582Y-6174418D01*
X13401349Y-6196312D01*
X13440000Y-6204000D01*
X15976000Y-6204000D01*
X16014651Y-6196312D01*
X16047418Y-6174418D01*
X16119138Y-6102698D01*
X16139863Y-6071680D01*
X16156252Y-6068596D01*
X16177864Y-6054689D01*
X16192363Y-6033469D01*
X16193729Y-6026726D01*
X16196715Y-6031195D01*
X16244891Y-6063385D01*
X16301720Y-6074689D01*
X16358548Y-6063385D01*
X16406725Y-6031195D01*
X16428720Y-5998277D01*
X16450715Y-6031195D01*
X16454720Y-6033871D01*
X16454720Y-9068969D01*
X16450715Y-9071645D01*
X16428720Y-9104563D01*
X16406725Y-9071645D01*
X16358548Y-9039455D01*
X16301720Y-9028151D01*
X16244891Y-9039455D01*
X16196715Y-9071645D01*
X16193935Y-9075805D01*
X16193036Y-9071028D01*
X16179129Y-9049416D01*
X16157909Y-9034917D01*
X16147546Y-9032818D01*
X16141032Y-9000069D01*
X16119138Y-8967302D01*
X16027418Y-8875582D01*
X15994651Y-8853688D01*
X15956000Y-8846000D01*
X13467000Y-8846000D01*
X13428349Y-8853688D01*
X13395582Y-8875582D01*
X13294062Y-8977102D01*
X13272168Y-9009869D01*
X13267723Y-9032216D01*
X13256948Y-9034244D01*
X13235336Y-9048151D01*
X13220837Y-9069371D01*
X13215736Y-9094560D01*
X13215736Y-9264560D01*
X13217612Y-9274531D01*
X13196582Y-9288582D01*
X13088582Y-9396582D01*
X13066688Y-9429349D01*
X13059000Y-9468000D01*
X13059000Y-10047000D01*
X13066688Y-10085651D01*
X13088582Y-10118418D01*
X13286582Y-10316418D01*
X13319349Y-10338312D01*
X13358000Y-10346000D01*
X13392719Y-10346000D01*
X13371807Y-10366876D01*
X13350524Y-10418130D01*
X13350476Y-10473627D01*
X13371669Y-10524917D01*
X13392717Y-10546002D01*
X13371807Y-10566876D01*
X13350524Y-10618130D01*
X13350476Y-10673627D01*
X13371669Y-10724917D01*
X13410876Y-10764193D01*
X13462130Y-10785476D01*
X13517626Y-10785524D01*
X13568917Y-10764331D01*
X13589408Y-10743876D01*
X13664084Y-10743876D01*
X13671006Y-10768074D01*
X13723278Y-10786716D01*
X13778705Y-10783934D01*
X13816994Y-10768074D01*
X13823916Y-10743876D01*
X13744000Y-10663961D01*
X13664084Y-10743876D01*
X13589408Y-10743876D01*
X13608193Y-10725124D01*
X13616339Y-10705507D01*
X13621926Y-10718994D01*
X13646124Y-10725916D01*
X13726039Y-10646000D01*
X13761960Y-10646000D01*
X13841876Y-10725916D01*
X13866074Y-10718994D01*
X13884715Y-10666722D01*
X13881934Y-10611295D01*
X13866074Y-10573006D01*
X13841876Y-10566084D01*
X13761960Y-10646000D01*
X13726039Y-10646000D01*
X13646124Y-10566084D01*
X13621926Y-10573006D01*
X13616762Y-10587486D01*
X13608331Y-10567083D01*
X13587283Y-10545998D01*
X13608193Y-10525124D01*
X13616995Y-10503926D01*
X13625669Y-10524917D01*
X13664876Y-10564193D01*
X13691002Y-10575042D01*
X13744000Y-10628040D01*
X13796999Y-10575041D01*
X13822917Y-10564331D01*
X13862193Y-10525124D01*
X13883476Y-10473870D01*
X13883524Y-10418374D01*
X13862331Y-10367083D01*
X13841285Y-10346000D01*
X14876164Y-10346000D01*
X14985000Y-10454836D01*
X14985000Y-10455269D01*
X14972520Y-10485324D01*
X14972480Y-10530478D01*
X14989723Y-10572209D01*
X15021623Y-10604165D01*
X15063324Y-10621480D01*
X15108477Y-10621520D01*
X15140229Y-10608400D01*
X16151976Y-10608400D01*
X16151976Y-10778400D01*
X16156404Y-10801932D01*
X16170311Y-10823544D01*
X16191531Y-10838043D01*
X16199464Y-10839650D01*
X16175901Y-10863172D01*
X16153246Y-10917732D01*
X16153194Y-10976809D01*
X16175754Y-11031409D01*
X16217492Y-11073219D01*
X16220276Y-11074375D01*
X16217711Y-11075434D01*
X16175901Y-11117172D01*
X16153246Y-11171732D01*
X16153194Y-11230809D01*
X16175754Y-11285409D01*
X16217492Y-11327219D01*
X16222251Y-11329195D01*
X16215285Y-11351004D01*
X16301720Y-11437439D01*
X16388155Y-11351004D01*
X16381202Y-11329236D01*
X16385729Y-11327366D01*
X16427539Y-11285628D01*
X16450194Y-11231068D01*
X16450246Y-11171991D01*
X16427686Y-11117391D01*
X16385948Y-11075581D01*
X16383164Y-11074425D01*
X16385729Y-11073366D01*
X16427539Y-11031628D01*
X16450194Y-10977068D01*
X16450246Y-10917991D01*
X16427686Y-10863391D01*
X16404192Y-10839857D01*
X16410252Y-10838716D01*
X16431864Y-10824809D01*
X16446363Y-10803589D01*
X16451464Y-10778400D01*
X16451464Y-10608400D01*
X16447036Y-10584868D01*
X16433129Y-10563256D01*
X16411909Y-10548757D01*
X16386720Y-10543656D01*
X16216720Y-10543656D01*
X16193188Y-10548084D01*
X16171576Y-10561991D01*
X16157077Y-10583211D01*
X16151976Y-10608400D01*
X15140229Y-10608400D01*
X15150209Y-10604277D01*
X15182164Y-10572377D01*
X15199480Y-10530676D01*
X15199520Y-10485523D01*
X15187000Y-10455223D01*
X15187000Y-10413000D01*
X15179312Y-10374349D01*
X15157418Y-10341582D01*
X14989418Y-10173582D01*
X14956651Y-10151688D01*
X14918000Y-10144000D01*
X13399836Y-10144000D01*
X13261000Y-10005164D01*
X13261000Y-9509836D01*
X13309836Y-9461000D01*
X16453000Y-9461000D01*
X16491651Y-9453312D01*
X16524418Y-9431418D01*
X16627138Y-9328698D01*
X16649032Y-9295931D01*
X16649179Y-9295190D01*
X16660725Y-9287475D01*
X16692916Y-9239298D01*
X16704220Y-9182469D01*
X16704220Y-9176651D01*
X16692916Y-9119822D01*
X16660725Y-9071645D01*
X16656720Y-9068969D01*
X16656720Y-6033871D01*
X16660725Y-6031195D01*
X16692916Y-5983018D01*
X16704220Y-5926189D01*
X16704220Y-5920371D01*
X16692916Y-5863542D01*
X16660725Y-5815365D01*
X16655795Y-5812071D01*
X16649032Y-5778069D01*
X16627138Y-5745302D01*
X16567418Y-5685582D01*
X16534651Y-5663688D01*
X16496000Y-5656000D01*
X16264076Y-5656000D01*
X16269409Y-5653797D01*
X16277199Y-5646020D01*
X16755862Y-5646020D01*
X16874500Y-5764658D01*
X16874500Y-9769386D01*
X16315840Y-9768666D01*
X16322480Y-9752676D01*
X16322520Y-9707523D01*
X16305277Y-9665791D01*
X16273376Y-9633836D01*
X16231676Y-9616520D01*
X16186522Y-9616480D01*
X16144791Y-9633723D01*
X16137001Y-9641500D01*
X14938028Y-9641500D01*
X14930376Y-9633836D01*
X14888676Y-9616520D01*
X14843522Y-9616480D01*
X14801791Y-9633723D01*
X14794001Y-9641500D01*
X13599026Y-9641500D01*
X13590376Y-9632836D01*
X13548676Y-9615520D01*
X13503522Y-9615480D01*
X13461791Y-9632723D01*
X13429835Y-9664624D01*
X13412520Y-9706324D01*
X13412480Y-9751478D01*
X13429723Y-9793209D01*
X13429987Y-9793473D01*
X13429835Y-9793624D01*
X13412520Y-9835324D01*
X13412480Y-9880478D01*
X13429723Y-9922209D01*
X13461623Y-9954165D01*
X13503324Y-9971480D01*
X13548477Y-9971520D01*
X13590209Y-9954277D01*
X13599001Y-9945500D01*
X14793972Y-9945500D01*
X14801623Y-9953165D01*
X14843324Y-9970480D01*
X14888477Y-9970520D01*
X14930209Y-9953277D01*
X14937050Y-9946447D01*
X16115027Y-9945555D01*
X16122623Y-9953165D01*
X16164324Y-9970480D01*
X16209477Y-9970520D01*
X16251209Y-9953277D01*
X16258906Y-9945593D01*
X16792071Y-9946280D01*
X16707959Y-10065094D01*
X16674391Y-10078963D01*
X16642435Y-10110864D01*
X16625120Y-10152564D01*
X16625080Y-10197718D01*
X16642323Y-10239449D01*
X16674223Y-10271405D01*
X16715924Y-10288720D01*
X16761077Y-10288760D01*
X16802809Y-10271517D01*
X16834765Y-10239617D01*
X16852080Y-10197916D01*
X16852107Y-10167810D01*
X17035232Y-9909135D01*
X17039242Y-9900148D01*
X17044720Y-9891973D01*
X17044731Y-9891916D01*
X17044763Y-9891868D01*
X17046233Y-9884480D01*
X17049302Y-9877601D01*
X17049568Y-9867763D01*
X17051500Y-9858114D01*
X17051489Y-9858057D01*
X17051500Y-9858000D01*
X17051500Y-7547307D01*
X17054324Y-7548480D01*
X17091740Y-7548513D01*
X17091740Y-12026980D01*
X12824380Y-12026980D01*
X12824380Y-11559796D01*
X16215285Y-11559796D01*
X16223312Y-11584926D01*
X16278848Y-11605072D01*
X16337866Y-11602431D01*
X16380128Y-11584926D01*
X16388155Y-11559796D01*
X16301720Y-11473360D01*
X16215285Y-11559796D01*
X12824380Y-11559796D01*
X12824380Y-11432528D01*
X16152048Y-11432528D01*
X16154688Y-11491546D01*
X16172194Y-11533808D01*
X16197324Y-11541835D01*
X16283759Y-11455400D01*
X16319680Y-11455400D01*
X16406116Y-11541835D01*
X16431246Y-11533808D01*
X16451392Y-11478272D01*
X16448751Y-11419254D01*
X16431246Y-11376992D01*
X16406116Y-11368965D01*
X16319680Y-11455400D01*
X16283759Y-11455400D01*
X16197324Y-11368965D01*
X16172194Y-11376992D01*
X16152048Y-11432528D01*
X12824380Y-11432528D01*
X12824380Y-10969625D01*
X12848622Y-11028294D01*
X12904412Y-11084182D01*
X12977343Y-11114465D01*
X13056311Y-11114534D01*
X13129294Y-11084378D01*
X13185182Y-11028588D01*
X13215465Y-10955657D01*
X13215466Y-10955311D01*
X14018466Y-10955311D01*
X14048622Y-11028294D01*
X14104412Y-11084182D01*
X14177343Y-11114465D01*
X14256311Y-11114534D01*
X14329294Y-11084378D01*
X14385182Y-11028588D01*
X14394561Y-11006000D01*
X14941256Y-11006000D01*
X14941256Y-11166000D01*
X14945684Y-11189532D01*
X14959591Y-11211144D01*
X14980811Y-11225643D01*
X15006000Y-11230744D01*
X15166000Y-11230744D01*
X15189532Y-11226316D01*
X15211144Y-11212409D01*
X15225643Y-11191189D01*
X15226537Y-11186775D01*
X15253186Y-11186775D01*
X15260599Y-11211386D01*
X15314322Y-11230696D01*
X15371345Y-11227978D01*
X15411400Y-11211386D01*
X15418814Y-11186775D01*
X15336000Y-11103961D01*
X15253186Y-11186775D01*
X15226537Y-11186775D01*
X15230465Y-11167380D01*
X15235225Y-11168814D01*
X15318039Y-11086000D01*
X15353960Y-11086000D01*
X15436774Y-11168814D01*
X15461386Y-11161401D01*
X15480696Y-11107678D01*
X15477978Y-11050655D01*
X15461386Y-11010600D01*
X15436774Y-11003186D01*
X15353960Y-11086000D01*
X15318039Y-11086000D01*
X15235225Y-11003186D01*
X15230483Y-11004615D01*
X15226835Y-10985226D01*
X15253186Y-10985226D01*
X15336000Y-11068040D01*
X15418814Y-10985226D01*
X15411400Y-10960614D01*
X15357678Y-10941304D01*
X15300655Y-10944022D01*
X15260599Y-10960614D01*
X15253186Y-10985226D01*
X15226835Y-10985226D01*
X15226316Y-10982468D01*
X15212409Y-10960856D01*
X15191189Y-10946357D01*
X15166000Y-10941256D01*
X15006000Y-10941256D01*
X14982468Y-10945684D01*
X14960856Y-10959591D01*
X14946357Y-10980811D01*
X14941256Y-11006000D01*
X14394561Y-11006000D01*
X14415465Y-10955657D01*
X14415534Y-10876689D01*
X14385378Y-10803706D01*
X14329588Y-10747818D01*
X14256657Y-10717535D01*
X14177689Y-10717466D01*
X14104706Y-10747622D01*
X14048818Y-10803412D01*
X14018535Y-10876343D01*
X14018466Y-10955311D01*
X13215466Y-10955311D01*
X13215534Y-10876689D01*
X13185378Y-10803706D01*
X13129588Y-10747818D01*
X13056657Y-10717535D01*
X12977689Y-10717466D01*
X12904706Y-10747622D01*
X12848818Y-10803412D01*
X12824380Y-10862265D01*
X12824380Y-8770876D01*
X13533045Y-8770876D01*
X13541072Y-8796006D01*
X13596608Y-8816152D01*
X13655626Y-8813512D01*
X13697888Y-8796006D01*
X13705915Y-8770876D01*
X14874165Y-8770876D01*
X14882192Y-8796006D01*
X14937728Y-8816152D01*
X14996746Y-8813512D01*
X15039008Y-8796006D01*
X15047035Y-8770876D01*
X16215285Y-8770876D01*
X16223312Y-8796006D01*
X16278848Y-8816152D01*
X16337866Y-8813512D01*
X16380128Y-8796006D01*
X16388155Y-8770876D01*
X16301720Y-8684441D01*
X16215285Y-8770876D01*
X15047035Y-8770876D01*
X14960600Y-8684441D01*
X14874165Y-8770876D01*
X13705915Y-8770876D01*
X13619480Y-8684441D01*
X13533045Y-8770876D01*
X12824380Y-8770876D01*
X12824380Y-8643608D01*
X13469808Y-8643608D01*
X13472448Y-8702626D01*
X13489954Y-8744888D01*
X13515084Y-8752915D01*
X13601519Y-8666480D01*
X13637440Y-8666480D01*
X13723876Y-8752915D01*
X13749006Y-8744888D01*
X13769152Y-8689352D01*
X13767105Y-8643608D01*
X14810928Y-8643608D01*
X14813568Y-8702626D01*
X14831074Y-8744888D01*
X14856204Y-8752915D01*
X14942639Y-8666480D01*
X14978560Y-8666480D01*
X15064996Y-8752915D01*
X15090126Y-8744888D01*
X15110272Y-8689352D01*
X15108225Y-8643608D01*
X16152048Y-8643608D01*
X16154688Y-8702626D01*
X16172194Y-8744888D01*
X16197324Y-8752915D01*
X16283759Y-8666480D01*
X16319680Y-8666480D01*
X16406116Y-8752915D01*
X16431246Y-8744888D01*
X16451392Y-8689352D01*
X16448751Y-8630334D01*
X16431246Y-8588072D01*
X16406116Y-8580045D01*
X16319680Y-8666480D01*
X16283759Y-8666480D01*
X16197324Y-8580045D01*
X16172194Y-8588072D01*
X16152048Y-8643608D01*
X15108225Y-8643608D01*
X15107631Y-8630334D01*
X15090126Y-8588072D01*
X15064996Y-8580045D01*
X14978560Y-8666480D01*
X14942639Y-8666480D01*
X14856204Y-8580045D01*
X14831074Y-8588072D01*
X14810928Y-8643608D01*
X13767105Y-8643608D01*
X13766511Y-8630334D01*
X13749006Y-8588072D01*
X13723876Y-8580045D01*
X13637440Y-8666480D01*
X13601519Y-8666480D01*
X13515084Y-8580045D01*
X13489954Y-8588072D01*
X13469808Y-8643608D01*
X12824380Y-8643608D01*
X12824380Y-7819480D01*
X13469736Y-7819480D01*
X13469736Y-7989480D01*
X13474164Y-8013012D01*
X13488071Y-8034624D01*
X13509291Y-8049123D01*
X13517224Y-8050730D01*
X13493661Y-8074252D01*
X13471006Y-8128812D01*
X13470954Y-8187889D01*
X13493514Y-8242489D01*
X13535252Y-8284299D01*
X13538036Y-8285455D01*
X13535471Y-8286514D01*
X13493661Y-8328252D01*
X13471006Y-8382812D01*
X13470954Y-8441889D01*
X13493514Y-8496489D01*
X13535252Y-8538299D01*
X13540011Y-8540275D01*
X13533045Y-8562084D01*
X13619480Y-8648520D01*
X13705915Y-8562084D01*
X13698962Y-8540316D01*
X13703489Y-8538446D01*
X13745299Y-8496708D01*
X13767954Y-8442148D01*
X13768006Y-8383071D01*
X13745446Y-8328471D01*
X13703708Y-8286661D01*
X13700924Y-8285505D01*
X13703489Y-8284446D01*
X13745299Y-8242708D01*
X13767954Y-8188148D01*
X13768006Y-8129071D01*
X13745446Y-8074471D01*
X13721952Y-8050936D01*
X13728012Y-8049796D01*
X13749624Y-8035889D01*
X13764123Y-8014669D01*
X13769224Y-7989480D01*
X13769224Y-7819480D01*
X14810856Y-7819480D01*
X14810856Y-7989480D01*
X14815284Y-8013012D01*
X14829191Y-8034624D01*
X14850411Y-8049123D01*
X14858344Y-8050730D01*
X14834781Y-8074252D01*
X14812126Y-8128812D01*
X14812074Y-8187889D01*
X14834634Y-8242489D01*
X14876372Y-8284299D01*
X14879156Y-8285455D01*
X14876591Y-8286514D01*
X14834781Y-8328252D01*
X14812126Y-8382812D01*
X14812074Y-8441889D01*
X14834634Y-8496489D01*
X14876372Y-8538299D01*
X14881131Y-8540275D01*
X14874165Y-8562084D01*
X14960600Y-8648520D01*
X15047035Y-8562084D01*
X15040082Y-8540316D01*
X15044609Y-8538446D01*
X15086419Y-8496708D01*
X15109074Y-8442148D01*
X15109126Y-8383071D01*
X15086566Y-8328471D01*
X15044828Y-8286661D01*
X15042044Y-8285505D01*
X15044609Y-8284446D01*
X15086419Y-8242708D01*
X15109074Y-8188148D01*
X15109126Y-8129071D01*
X15086566Y-8074471D01*
X15063072Y-8050936D01*
X15069132Y-8049796D01*
X15090744Y-8035889D01*
X15105243Y-8014669D01*
X15110344Y-7989480D01*
X15110344Y-7819480D01*
X16151976Y-7819480D01*
X16151976Y-7989480D01*
X16156404Y-8013012D01*
X16170311Y-8034624D01*
X16191531Y-8049123D01*
X16199464Y-8050730D01*
X16175901Y-8074252D01*
X16153246Y-8128812D01*
X16153194Y-8187889D01*
X16175754Y-8242489D01*
X16217492Y-8284299D01*
X16220276Y-8285455D01*
X16217711Y-8286514D01*
X16175901Y-8328252D01*
X16153246Y-8382812D01*
X16153194Y-8441889D01*
X16175754Y-8496489D01*
X16217492Y-8538299D01*
X16222251Y-8540275D01*
X16215285Y-8562084D01*
X16301720Y-8648520D01*
X16388155Y-8562084D01*
X16381202Y-8540316D01*
X16385729Y-8538446D01*
X16427539Y-8496708D01*
X16450194Y-8442148D01*
X16450246Y-8383071D01*
X16427686Y-8328471D01*
X16385948Y-8286661D01*
X16383164Y-8285505D01*
X16385729Y-8284446D01*
X16427539Y-8242708D01*
X16450194Y-8188148D01*
X16450246Y-8129071D01*
X16427686Y-8074471D01*
X16404192Y-8050936D01*
X16410252Y-8049796D01*
X16431864Y-8035889D01*
X16446363Y-8014669D01*
X16451464Y-7989480D01*
X16451464Y-7819480D01*
X16447036Y-7795948D01*
X16433129Y-7774336D01*
X16411909Y-7759837D01*
X16386720Y-7754736D01*
X16216720Y-7754736D01*
X16193188Y-7759164D01*
X16171576Y-7773071D01*
X16157077Y-7794291D01*
X16151976Y-7819480D01*
X15110344Y-7819480D01*
X15105916Y-7795948D01*
X15092009Y-7774336D01*
X15070789Y-7759837D01*
X15045600Y-7754736D01*
X14875600Y-7754736D01*
X14852068Y-7759164D01*
X14830456Y-7773071D01*
X14815957Y-7794291D01*
X14810856Y-7819480D01*
X13769224Y-7819480D01*
X13764796Y-7795948D01*
X13750889Y-7774336D01*
X13729669Y-7759837D01*
X13704480Y-7754736D01*
X13534480Y-7754736D01*
X13510948Y-7759164D01*
X13489336Y-7773071D01*
X13474837Y-7794291D01*
X13469736Y-7819480D01*
X12824380Y-7819480D01*
X12824380Y-7328156D01*
X13533045Y-7328156D01*
X13541072Y-7353286D01*
X13596608Y-7373432D01*
X13655626Y-7370791D01*
X13697888Y-7353286D01*
X13705915Y-7328156D01*
X14874165Y-7328156D01*
X14882192Y-7353286D01*
X14937728Y-7373432D01*
X14996746Y-7370791D01*
X15039008Y-7353286D01*
X15047035Y-7328156D01*
X16215285Y-7328156D01*
X16223312Y-7353286D01*
X16278848Y-7373432D01*
X16337866Y-7370791D01*
X16380128Y-7353286D01*
X16388155Y-7328156D01*
X16301720Y-7241720D01*
X16215285Y-7328156D01*
X15047035Y-7328156D01*
X14960600Y-7241720D01*
X14874165Y-7328156D01*
X13705915Y-7328156D01*
X13619480Y-7241720D01*
X13533045Y-7328156D01*
X12824380Y-7328156D01*
X12824380Y-7200888D01*
X13469808Y-7200888D01*
X13472448Y-7259906D01*
X13489954Y-7302168D01*
X13515084Y-7310195D01*
X13601519Y-7223760D01*
X13637440Y-7223760D01*
X13723876Y-7310195D01*
X13749006Y-7302168D01*
X13769152Y-7246632D01*
X13767105Y-7200888D01*
X14810928Y-7200888D01*
X14813568Y-7259906D01*
X14831074Y-7302168D01*
X14856204Y-7310195D01*
X14942639Y-7223760D01*
X14978560Y-7223760D01*
X15064996Y-7310195D01*
X15090126Y-7302168D01*
X15110272Y-7246632D01*
X15108225Y-7200888D01*
X16152048Y-7200888D01*
X16154688Y-7259906D01*
X16172194Y-7302168D01*
X16197324Y-7310195D01*
X16283759Y-7223760D01*
X16319680Y-7223760D01*
X16406116Y-7310195D01*
X16431246Y-7302168D01*
X16451392Y-7246632D01*
X16448751Y-7187614D01*
X16431246Y-7145352D01*
X16406116Y-7137325D01*
X16319680Y-7223760D01*
X16283759Y-7223760D01*
X16197324Y-7137325D01*
X16172194Y-7145352D01*
X16152048Y-7200888D01*
X15108225Y-7200888D01*
X15107631Y-7187614D01*
X15090126Y-7145352D01*
X15064996Y-7137325D01*
X14978560Y-7223760D01*
X14942639Y-7223760D01*
X14856204Y-7137325D01*
X14831074Y-7145352D01*
X14810928Y-7200888D01*
X13767105Y-7200888D01*
X13766511Y-7187614D01*
X13749006Y-7145352D01*
X13723876Y-7137325D01*
X13637440Y-7223760D01*
X13601519Y-7223760D01*
X13515084Y-7137325D01*
X13489954Y-7145352D01*
X13469808Y-7200888D01*
X12824380Y-7200888D01*
X12824380Y-6376760D01*
X13469736Y-6376760D01*
X13469736Y-6546760D01*
X13474164Y-6570292D01*
X13488071Y-6591904D01*
X13509291Y-6606403D01*
X13517224Y-6608010D01*
X13493661Y-6631532D01*
X13471006Y-6686092D01*
X13470954Y-6745169D01*
X13493514Y-6799769D01*
X13535252Y-6841579D01*
X13538036Y-6842735D01*
X13535471Y-6843794D01*
X13493661Y-6885532D01*
X13471006Y-6940092D01*
X13470954Y-6999169D01*
X13493514Y-7053769D01*
X13535252Y-7095579D01*
X13540011Y-7097555D01*
X13533045Y-7119364D01*
X13619480Y-7205799D01*
X13705915Y-7119364D01*
X13698962Y-7097596D01*
X13703489Y-7095726D01*
X13745299Y-7053988D01*
X13767954Y-6999428D01*
X13768006Y-6940351D01*
X13745446Y-6885751D01*
X13703708Y-6843941D01*
X13700924Y-6842785D01*
X13703489Y-6841726D01*
X13745299Y-6799988D01*
X13767954Y-6745428D01*
X13768006Y-6686351D01*
X13745446Y-6631751D01*
X13721952Y-6608216D01*
X13728012Y-6607076D01*
X13749624Y-6593169D01*
X13764123Y-6571949D01*
X13769224Y-6546760D01*
X13769224Y-6376760D01*
X14810856Y-6376760D01*
X14810856Y-6546760D01*
X14815284Y-6570292D01*
X14829191Y-6591904D01*
X14850411Y-6606403D01*
X14858344Y-6608010D01*
X14834781Y-6631532D01*
X14812126Y-6686092D01*
X14812074Y-6745169D01*
X14834634Y-6799769D01*
X14876372Y-6841579D01*
X14879156Y-6842735D01*
X14876591Y-6843794D01*
X14834781Y-6885532D01*
X14812126Y-6940092D01*
X14812074Y-6999169D01*
X14834634Y-7053769D01*
X14876372Y-7095579D01*
X14881131Y-7097555D01*
X14874165Y-7119364D01*
X14960600Y-7205799D01*
X15047035Y-7119364D01*
X15040082Y-7097596D01*
X15044609Y-7095726D01*
X15086419Y-7053988D01*
X15109074Y-6999428D01*
X15109126Y-6940351D01*
X15086566Y-6885751D01*
X15044828Y-6843941D01*
X15042044Y-6842785D01*
X15044609Y-6841726D01*
X15086419Y-6799988D01*
X15109074Y-6745428D01*
X15109126Y-6686351D01*
X15086566Y-6631751D01*
X15063072Y-6608216D01*
X15069132Y-6607076D01*
X15090744Y-6593169D01*
X15105243Y-6571949D01*
X15110344Y-6546760D01*
X15110344Y-6376760D01*
X16151976Y-6376760D01*
X16151976Y-6546760D01*
X16156404Y-6570292D01*
X16170311Y-6591904D01*
X16191531Y-6606403D01*
X16199464Y-6608010D01*
X16175901Y-6631532D01*
X16153246Y-6686092D01*
X16153194Y-6745169D01*
X16175754Y-6799769D01*
X16217492Y-6841579D01*
X16220276Y-6842735D01*
X16217711Y-6843794D01*
X16175901Y-6885532D01*
X16153246Y-6940092D01*
X16153194Y-6999169D01*
X16175754Y-7053769D01*
X16217492Y-7095579D01*
X16222251Y-7097555D01*
X16215285Y-7119364D01*
X16301720Y-7205799D01*
X16388155Y-7119364D01*
X16381202Y-7097596D01*
X16385729Y-7095726D01*
X16427539Y-7053988D01*
X16450194Y-6999428D01*
X16450246Y-6940351D01*
X16427686Y-6885751D01*
X16385948Y-6843941D01*
X16383164Y-6842785D01*
X16385729Y-6841726D01*
X16427539Y-6799988D01*
X16450194Y-6745428D01*
X16450246Y-6686351D01*
X16427686Y-6631751D01*
X16404192Y-6608216D01*
X16410252Y-6607076D01*
X16431864Y-6593169D01*
X16446363Y-6571949D01*
X16451464Y-6546760D01*
X16451464Y-6376760D01*
X16447036Y-6353228D01*
X16433129Y-6331616D01*
X16411909Y-6317117D01*
X16386720Y-6312016D01*
X16216720Y-6312016D01*
X16193188Y-6316444D01*
X16171576Y-6330351D01*
X16157077Y-6351571D01*
X16151976Y-6376760D01*
X15110344Y-6376760D01*
X15105916Y-6353228D01*
X15092009Y-6331616D01*
X15070789Y-6317117D01*
X15045600Y-6312016D01*
X14875600Y-6312016D01*
X14852068Y-6316444D01*
X14830456Y-6330351D01*
X14815957Y-6351571D01*
X14810856Y-6376760D01*
X13769224Y-6376760D01*
X13764796Y-6353228D01*
X13750889Y-6331616D01*
X13729669Y-6317117D01*
X13704480Y-6312016D01*
X13534480Y-6312016D01*
X13510948Y-6316444D01*
X13489336Y-6330351D01*
X13474837Y-6351571D01*
X13469736Y-6376760D01*
X12824380Y-6376760D01*
X12824380Y-4960540D01*
X17091740Y-4960540D01*
X17091740Y-5550582D01*
X17091740Y-5550582D01*
G37*
X17091740Y-5550582D02*
X16904019Y-5362861D01*
X16901329Y-5361064D01*
X16875308Y-5343677D01*
X16866577Y-5341940D01*
X16841440Y-5336940D01*
X16841440Y-5336940D01*
X16368668Y-5336940D01*
X16361016Y-5329276D01*
X16319316Y-5311960D01*
X16274162Y-5311920D01*
X16232431Y-5329163D01*
X16219632Y-5341940D01*
X15037619Y-5341940D01*
X15024976Y-5329276D01*
X14983276Y-5311960D01*
X14938122Y-5311920D01*
X14896391Y-5329163D01*
X14883592Y-5341940D01*
X13696508Y-5341940D01*
X13688936Y-5334356D01*
X13647236Y-5317040D01*
X13602082Y-5317000D01*
X13560351Y-5334243D01*
X13528395Y-5366144D01*
X13511080Y-5407844D01*
X13511048Y-5444005D01*
X13505562Y-5444000D01*
X13463831Y-5461243D01*
X13431875Y-5493144D01*
X13414560Y-5534844D01*
X13414520Y-5579998D01*
X13431763Y-5621729D01*
X13463663Y-5653684D01*
X13505364Y-5671000D01*
X13550517Y-5671040D01*
X13592249Y-5653797D01*
X13605048Y-5641020D01*
X14792141Y-5641020D01*
X14804783Y-5653684D01*
X14810360Y-5656000D01*
X13950000Y-5656000D01*
X13911349Y-5663688D01*
X13878582Y-5685582D01*
X13802062Y-5762102D01*
X13780168Y-5794869D01*
X13777259Y-5809496D01*
X13768475Y-5815365D01*
X13746480Y-5848283D01*
X13724485Y-5815365D01*
X13676308Y-5783175D01*
X13619480Y-5771871D01*
X13562651Y-5783175D01*
X13514475Y-5815365D01*
X13511695Y-5819525D01*
X13510796Y-5814748D01*
X13496889Y-5793136D01*
X13475669Y-5778637D01*
X13450480Y-5773536D01*
X13280480Y-5773536D01*
X13256948Y-5777964D01*
X13235336Y-5791871D01*
X13220837Y-5813091D01*
X13215736Y-5838280D01*
X13215736Y-6008280D01*
X13220164Y-6031812D01*
X13234071Y-6053424D01*
X13255291Y-6067923D01*
X13275421Y-6072000D01*
X13294062Y-6099898D01*
X13368582Y-6174418D01*
X13401349Y-6196312D01*
X13440000Y-6204000D01*
X15976000Y-6204000D01*
X16014651Y-6196312D01*
X16047418Y-6174418D01*
X16119138Y-6102698D01*
X16139863Y-6071680D01*
X16156252Y-6068596D01*
X16177864Y-6054689D01*
X16192363Y-6033469D01*
X16193729Y-6026726D01*
X16196715Y-6031195D01*
X16244891Y-6063385D01*
X16301720Y-6074689D01*
X16358548Y-6063385D01*
X16406725Y-6031195D01*
X16428720Y-5998277D01*
X16450715Y-6031195D01*
X16454720Y-6033871D01*
X16454720Y-9068969D01*
X16450715Y-9071645D01*
X16428720Y-9104563D01*
X16406725Y-9071645D01*
X16358548Y-9039455D01*
X16301720Y-9028151D01*
X16244891Y-9039455D01*
X16196715Y-9071645D01*
X16193935Y-9075805D01*
X16193036Y-9071028D01*
X16179129Y-9049416D01*
X16157909Y-9034917D01*
X16147546Y-9032818D01*
X16141032Y-9000069D01*
X16119138Y-8967302D01*
X16027418Y-8875582D01*
X15994651Y-8853688D01*
X15956000Y-8846000D01*
X13467000Y-8846000D01*
X13428349Y-8853688D01*
X13395582Y-8875582D01*
X13294062Y-8977102D01*
X13272168Y-9009869D01*
X13267723Y-9032216D01*
X13256948Y-9034244D01*
X13235336Y-9048151D01*
X13220837Y-9069371D01*
X13215736Y-9094560D01*
X13215736Y-9264560D01*
X13217612Y-9274531D01*
X13196582Y-9288582D01*
X13088582Y-9396582D01*
X13066688Y-9429349D01*
X13059000Y-9468000D01*
X13059000Y-10047000D01*
X13066688Y-10085651D01*
X13088582Y-10118418D01*
X13286582Y-10316418D01*
X13319349Y-10338312D01*
X13358000Y-10346000D01*
X13392719Y-10346000D01*
X13371807Y-10366876D01*
X13350524Y-10418130D01*
X13350476Y-10473627D01*
X13371669Y-10524917D01*
X13392717Y-10546002D01*
X13371807Y-10566876D01*
X13350524Y-10618130D01*
X13350476Y-10673627D01*
X13371669Y-10724917D01*
X13410876Y-10764193D01*
X13462130Y-10785476D01*
X13517626Y-10785524D01*
X13568917Y-10764331D01*
X13589408Y-10743876D01*
X13664084Y-10743876D01*
X13671006Y-10768074D01*
X13723278Y-10786716D01*
X13778705Y-10783934D01*
X13816994Y-10768074D01*
X13823916Y-10743876D01*
X13744000Y-10663961D01*
X13664084Y-10743876D01*
X13589408Y-10743876D01*
X13608193Y-10725124D01*
X13616339Y-10705507D01*
X13621926Y-10718994D01*
X13646124Y-10725916D01*
X13726039Y-10646000D01*
X13761960Y-10646000D01*
X13841876Y-10725916D01*
X13866074Y-10718994D01*
X13884715Y-10666722D01*
X13881934Y-10611295D01*
X13866074Y-10573006D01*
X13841876Y-10566084D01*
X13761960Y-10646000D01*
X13726039Y-10646000D01*
X13646124Y-10566084D01*
X13621926Y-10573006D01*
X13616762Y-10587486D01*
X13608331Y-10567083D01*
X13587283Y-10545998D01*
X13608193Y-10525124D01*
X13616995Y-10503926D01*
X13625669Y-10524917D01*
X13664876Y-10564193D01*
X13691002Y-10575042D01*
X13744000Y-10628040D01*
X13796999Y-10575041D01*
X13822917Y-10564331D01*
X13862193Y-10525124D01*
X13883476Y-10473870D01*
X13883524Y-10418374D01*
X13862331Y-10367083D01*
X13841285Y-10346000D01*
X14876164Y-10346000D01*
X14985000Y-10454836D01*
X14985000Y-10455269D01*
X14972520Y-10485324D01*
X14972480Y-10530478D01*
X14989723Y-10572209D01*
X15021623Y-10604165D01*
X15063324Y-10621480D01*
X15108477Y-10621520D01*
X15140229Y-10608400D01*
X16151976Y-10608400D01*
X16151976Y-10778400D01*
X16156404Y-10801932D01*
X16170311Y-10823544D01*
X16191531Y-10838043D01*
X16199464Y-10839650D01*
X16175901Y-10863172D01*
X16153246Y-10917732D01*
X16153194Y-10976809D01*
X16175754Y-11031409D01*
X16217492Y-11073219D01*
X16220276Y-11074375D01*
X16217711Y-11075434D01*
X16175901Y-11117172D01*
X16153246Y-11171732D01*
X16153194Y-11230809D01*
X16175754Y-11285409D01*
X16217492Y-11327219D01*
X16222251Y-11329195D01*
X16215285Y-11351004D01*
X16301720Y-11437439D01*
X16388155Y-11351004D01*
X16381202Y-11329236D01*
X16385729Y-11327366D01*
X16427539Y-11285628D01*
X16450194Y-11231068D01*
X16450246Y-11171991D01*
X16427686Y-11117391D01*
X16385948Y-11075581D01*
X16383164Y-11074425D01*
X16385729Y-11073366D01*
X16427539Y-11031628D01*
X16450194Y-10977068D01*
X16450246Y-10917991D01*
X16427686Y-10863391D01*
X16404192Y-10839857D01*
X16410252Y-10838716D01*
X16431864Y-10824809D01*
X16446363Y-10803589D01*
X16451464Y-10778400D01*
X16451464Y-10608400D01*
X16447036Y-10584868D01*
X16433129Y-10563256D01*
X16411909Y-10548757D01*
X16386720Y-10543656D01*
X16216720Y-10543656D01*
X16193188Y-10548084D01*
X16171576Y-10561991D01*
X16157077Y-10583211D01*
X16151976Y-10608400D01*
X15140229Y-10608400D01*
X15150209Y-10604277D01*
X15182164Y-10572377D01*
X15199480Y-10530676D01*
X15199520Y-10485523D01*
X15187000Y-10455223D01*
X15187000Y-10413000D01*
X15179312Y-10374349D01*
X15157418Y-10341582D01*
X14989418Y-10173582D01*
X14956651Y-10151688D01*
X14918000Y-10144000D01*
X13399836Y-10144000D01*
X13261000Y-10005164D01*
X13261000Y-9509836D01*
X13309836Y-9461000D01*
X16453000Y-9461000D01*
X16491651Y-9453312D01*
X16524418Y-9431418D01*
X16627138Y-9328698D01*
X16649032Y-9295931D01*
X16649179Y-9295190D01*
X16660725Y-9287475D01*
X16692916Y-9239298D01*
X16704220Y-9182469D01*
X16704220Y-9176651D01*
X16692916Y-9119822D01*
X16660725Y-9071645D01*
X16656720Y-9068969D01*
X16656720Y-6033871D01*
X16660725Y-6031195D01*
X16692916Y-5983018D01*
X16704220Y-5926189D01*
X16704220Y-5920371D01*
X16692916Y-5863542D01*
X16660725Y-5815365D01*
X16655795Y-5812071D01*
X16649032Y-5778069D01*
X16627138Y-5745302D01*
X16567418Y-5685582D01*
X16534651Y-5663688D01*
X16496000Y-5656000D01*
X16264076Y-5656000D01*
X16269409Y-5653797D01*
X16277199Y-5646020D01*
X16755862Y-5646020D01*
X16874500Y-5764658D01*
X16874500Y-9769386D01*
X16315840Y-9768666D01*
X16322480Y-9752676D01*
X16322520Y-9707523D01*
X16305277Y-9665791D01*
X16273376Y-9633836D01*
X16231676Y-9616520D01*
X16186522Y-9616480D01*
X16144791Y-9633723D01*
X16137001Y-9641500D01*
X14938028Y-9641500D01*
X14930376Y-9633836D01*
X14888676Y-9616520D01*
X14843522Y-9616480D01*
X14801791Y-9633723D01*
X14794001Y-9641500D01*
X13599026Y-9641500D01*
X13590376Y-9632836D01*
X13548676Y-9615520D01*
X13503522Y-9615480D01*
X13461791Y-9632723D01*
X13429835Y-9664624D01*
X13412520Y-9706324D01*
X13412480Y-9751478D01*
X13429723Y-9793209D01*
X13429987Y-9793473D01*
X13429835Y-9793624D01*
X13412520Y-9835324D01*
X13412480Y-9880478D01*
X13429723Y-9922209D01*
X13461623Y-9954165D01*
X13503324Y-9971480D01*
X13548477Y-9971520D01*
X13590209Y-9954277D01*
X13599001Y-9945500D01*
X14793972Y-9945500D01*
X14801623Y-9953165D01*
X14843324Y-9970480D01*
X14888477Y-9970520D01*
X14930209Y-9953277D01*
X14937050Y-9946447D01*
X16115027Y-9945555D01*
X16122623Y-9953165D01*
X16164324Y-9970480D01*
X16209477Y-9970520D01*
X16251209Y-9953277D01*
X16258906Y-9945593D01*
X16792071Y-9946280D01*
X16707959Y-10065094D01*
X16674391Y-10078963D01*
X16642435Y-10110864D01*
X16625120Y-10152564D01*
X16625080Y-10197718D01*
X16642323Y-10239449D01*
X16674223Y-10271405D01*
X16715924Y-10288720D01*
X16761077Y-10288760D01*
X16802809Y-10271517D01*
X16834765Y-10239617D01*
X16852080Y-10197916D01*
X16852107Y-10167810D01*
X17035232Y-9909135D01*
X17039242Y-9900148D01*
X17044720Y-9891973D01*
X17044731Y-9891916D01*
X17044763Y-9891868D01*
X17046233Y-9884480D01*
X17049302Y-9877601D01*
X17049568Y-9867763D01*
X17051500Y-9858114D01*
X17051489Y-9858057D01*
X17051500Y-9858000D01*
X17051500Y-7547307D01*
X17054324Y-7548480D01*
X17091740Y-7548513D01*
X17091740Y-12026980D01*
X12824380Y-12026980D01*
X12824380Y-11559796D01*
X16215285Y-11559796D01*
X16223312Y-11584926D01*
X16278848Y-11605072D01*
X16337866Y-11602431D01*
X16380128Y-11584926D01*
X16388155Y-11559796D01*
X16301720Y-11473360D01*
X16215285Y-11559796D01*
X12824380Y-11559796D01*
X12824380Y-11432528D01*
X16152048Y-11432528D01*
X16154688Y-11491546D01*
X16172194Y-11533808D01*
X16197324Y-11541835D01*
X16283759Y-11455400D01*
X16319680Y-11455400D01*
X16406116Y-11541835D01*
X16431246Y-11533808D01*
X16451392Y-11478272D01*
X16448751Y-11419254D01*
X16431246Y-11376992D01*
X16406116Y-11368965D01*
X16319680Y-11455400D01*
X16283759Y-11455400D01*
X16197324Y-11368965D01*
X16172194Y-11376992D01*
X16152048Y-11432528D01*
X12824380Y-11432528D01*
X12824380Y-10969625D01*
X12848622Y-11028294D01*
X12904412Y-11084182D01*
X12977343Y-11114465D01*
X13056311Y-11114534D01*
X13129294Y-11084378D01*
X13185182Y-11028588D01*
X13215465Y-10955657D01*
X13215466Y-10955311D01*
X14018466Y-10955311D01*
X14048622Y-11028294D01*
X14104412Y-11084182D01*
X14177343Y-11114465D01*
X14256311Y-11114534D01*
X14329294Y-11084378D01*
X14385182Y-11028588D01*
X14394561Y-11006000D01*
X14941256Y-11006000D01*
X14941256Y-11166000D01*
X14945684Y-11189532D01*
X14959591Y-11211144D01*
X14980811Y-11225643D01*
X15006000Y-11230744D01*
X15166000Y-11230744D01*
X15189532Y-11226316D01*
X15211144Y-11212409D01*
X15225643Y-11191189D01*
X15226537Y-11186775D01*
X15253186Y-11186775D01*
X15260599Y-11211386D01*
X15314322Y-11230696D01*
X15371345Y-11227978D01*
X15411400Y-11211386D01*
X15418814Y-11186775D01*
X15336000Y-11103961D01*
X15253186Y-11186775D01*
X15226537Y-11186775D01*
X15230465Y-11167380D01*
X15235225Y-11168814D01*
X15318039Y-11086000D01*
X15353960Y-11086000D01*
X15436774Y-11168814D01*
X15461386Y-11161401D01*
X15480696Y-11107678D01*
X15477978Y-11050655D01*
X15461386Y-11010600D01*
X15436774Y-11003186D01*
X15353960Y-11086000D01*
X15318039Y-11086000D01*
X15235225Y-11003186D01*
X15230483Y-11004615D01*
X15226835Y-10985226D01*
X15253186Y-10985226D01*
X15336000Y-11068040D01*
X15418814Y-10985226D01*
X15411400Y-10960614D01*
X15357678Y-10941304D01*
X15300655Y-10944022D01*
X15260599Y-10960614D01*
X15253186Y-10985226D01*
X15226835Y-10985226D01*
X15226316Y-10982468D01*
X15212409Y-10960856D01*
X15191189Y-10946357D01*
X15166000Y-10941256D01*
X15006000Y-10941256D01*
X14982468Y-10945684D01*
X14960856Y-10959591D01*
X14946357Y-10980811D01*
X14941256Y-11006000D01*
X14394561Y-11006000D01*
X14415465Y-10955657D01*
X14415534Y-10876689D01*
X14385378Y-10803706D01*
X14329588Y-10747818D01*
X14256657Y-10717535D01*
X14177689Y-10717466D01*
X14104706Y-10747622D01*
X14048818Y-10803412D01*
X14018535Y-10876343D01*
X14018466Y-10955311D01*
X13215466Y-10955311D01*
X13215534Y-10876689D01*
X13185378Y-10803706D01*
X13129588Y-10747818D01*
X13056657Y-10717535D01*
X12977689Y-10717466D01*
X12904706Y-10747622D01*
X12848818Y-10803412D01*
X12824380Y-10862265D01*
X12824380Y-8770876D01*
X13533045Y-8770876D01*
X13541072Y-8796006D01*
X13596608Y-8816152D01*
X13655626Y-8813512D01*
X13697888Y-8796006D01*
X13705915Y-8770876D01*
X14874165Y-8770876D01*
X14882192Y-8796006D01*
X14937728Y-8816152D01*
X14996746Y-8813512D01*
X15039008Y-8796006D01*
X15047035Y-8770876D01*
X16215285Y-8770876D01*
X16223312Y-8796006D01*
X16278848Y-8816152D01*
X16337866Y-8813512D01*
X16380128Y-8796006D01*
X16388155Y-8770876D01*
X16301720Y-8684441D01*
X16215285Y-8770876D01*
X15047035Y-8770876D01*
X14960600Y-8684441D01*
X14874165Y-8770876D01*
X13705915Y-8770876D01*
X13619480Y-8684441D01*
X13533045Y-8770876D01*
X12824380Y-8770876D01*
X12824380Y-8643608D01*
X13469808Y-8643608D01*
X13472448Y-8702626D01*
X13489954Y-8744888D01*
X13515084Y-8752915D01*
X13601519Y-8666480D01*
X13637440Y-8666480D01*
X13723876Y-8752915D01*
X13749006Y-8744888D01*
X13769152Y-8689352D01*
X13767105Y-8643608D01*
X14810928Y-8643608D01*
X14813568Y-8702626D01*
X14831074Y-8744888D01*
X14856204Y-8752915D01*
X14942639Y-8666480D01*
X14978560Y-8666480D01*
X15064996Y-8752915D01*
X15090126Y-8744888D01*
X15110272Y-8689352D01*
X15108225Y-8643608D01*
X16152048Y-8643608D01*
X16154688Y-8702626D01*
X16172194Y-8744888D01*
X16197324Y-8752915D01*
X16283759Y-8666480D01*
X16319680Y-8666480D01*
X16406116Y-8752915D01*
X16431246Y-8744888D01*
X16451392Y-8689352D01*
X16448751Y-8630334D01*
X16431246Y-8588072D01*
X16406116Y-8580045D01*
X16319680Y-8666480D01*
X16283759Y-8666480D01*
X16197324Y-8580045D01*
X16172194Y-8588072D01*
X16152048Y-8643608D01*
X15108225Y-8643608D01*
X15107631Y-8630334D01*
X15090126Y-8588072D01*
X15064996Y-8580045D01*
X14978560Y-8666480D01*
X14942639Y-8666480D01*
X14856204Y-8580045D01*
X14831074Y-8588072D01*
X14810928Y-8643608D01*
X13767105Y-8643608D01*
X13766511Y-8630334D01*
X13749006Y-8588072D01*
X13723876Y-8580045D01*
X13637440Y-8666480D01*
X13601519Y-8666480D01*
X13515084Y-8580045D01*
X13489954Y-8588072D01*
X13469808Y-8643608D01*
X12824380Y-8643608D01*
X12824380Y-7819480D01*
X13469736Y-7819480D01*
X13469736Y-7989480D01*
X13474164Y-8013012D01*
X13488071Y-8034624D01*
X13509291Y-8049123D01*
X13517224Y-8050730D01*
X13493661Y-8074252D01*
X13471006Y-8128812D01*
X13470954Y-8187889D01*
X13493514Y-8242489D01*
X13535252Y-8284299D01*
X13538036Y-8285455D01*
X13535471Y-8286514D01*
X13493661Y-8328252D01*
X13471006Y-8382812D01*
X13470954Y-8441889D01*
X13493514Y-8496489D01*
X13535252Y-8538299D01*
X13540011Y-8540275D01*
X13533045Y-8562084D01*
X13619480Y-8648520D01*
X13705915Y-8562084D01*
X13698962Y-8540316D01*
X13703489Y-8538446D01*
X13745299Y-8496708D01*
X13767954Y-8442148D01*
X13768006Y-8383071D01*
X13745446Y-8328471D01*
X13703708Y-8286661D01*
X13700924Y-8285505D01*
X13703489Y-8284446D01*
X13745299Y-8242708D01*
X13767954Y-8188148D01*
X13768006Y-8129071D01*
X13745446Y-8074471D01*
X13721952Y-8050936D01*
X13728012Y-8049796D01*
X13749624Y-8035889D01*
X13764123Y-8014669D01*
X13769224Y-7989480D01*
X13769224Y-7819480D01*
X14810856Y-7819480D01*
X14810856Y-7989480D01*
X14815284Y-8013012D01*
X14829191Y-8034624D01*
X14850411Y-8049123D01*
X14858344Y-8050730D01*
X14834781Y-8074252D01*
X14812126Y-8128812D01*
X14812074Y-8187889D01*
X14834634Y-8242489D01*
X14876372Y-8284299D01*
X14879156Y-8285455D01*
X14876591Y-8286514D01*
X14834781Y-8328252D01*
X14812126Y-8382812D01*
X14812074Y-8441889D01*
X14834634Y-8496489D01*
X14876372Y-8538299D01*
X14881131Y-8540275D01*
X14874165Y-8562084D01*
X14960600Y-8648520D01*
X15047035Y-8562084D01*
X15040082Y-8540316D01*
X15044609Y-8538446D01*
X15086419Y-8496708D01*
X15109074Y-8442148D01*
X15109126Y-8383071D01*
X15086566Y-8328471D01*
X15044828Y-8286661D01*
X15042044Y-8285505D01*
X15044609Y-8284446D01*
X15086419Y-8242708D01*
X15109074Y-8188148D01*
X15109126Y-8129071D01*
X15086566Y-8074471D01*
X15063072Y-8050936D01*
X15069132Y-8049796D01*
X15090744Y-8035889D01*
X15105243Y-8014669D01*
X15110344Y-7989480D01*
X15110344Y-7819480D01*
X16151976Y-7819480D01*
X16151976Y-7989480D01*
X16156404Y-8013012D01*
X16170311Y-8034624D01*
X16191531Y-8049123D01*
X16199464Y-8050730D01*
X16175901Y-8074252D01*
X16153246Y-8128812D01*
X16153194Y-8187889D01*
X16175754Y-8242489D01*
X16217492Y-8284299D01*
X16220276Y-8285455D01*
X16217711Y-8286514D01*
X16175901Y-8328252D01*
X16153246Y-8382812D01*
X16153194Y-8441889D01*
X16175754Y-8496489D01*
X16217492Y-8538299D01*
X16222251Y-8540275D01*
X16215285Y-8562084D01*
X16301720Y-8648520D01*
X16388155Y-8562084D01*
X16381202Y-8540316D01*
X16385729Y-8538446D01*
X16427539Y-8496708D01*
X16450194Y-8442148D01*
X16450246Y-8383071D01*
X16427686Y-8328471D01*
X16385948Y-8286661D01*
X16383164Y-8285505D01*
X16385729Y-8284446D01*
X16427539Y-8242708D01*
X16450194Y-8188148D01*
X16450246Y-8129071D01*
X16427686Y-8074471D01*
X16404192Y-8050936D01*
X16410252Y-8049796D01*
X16431864Y-8035889D01*
X16446363Y-8014669D01*
X16451464Y-7989480D01*
X16451464Y-7819480D01*
X16447036Y-7795948D01*
X16433129Y-7774336D01*
X16411909Y-7759837D01*
X16386720Y-7754736D01*
X16216720Y-7754736D01*
X16193188Y-7759164D01*
X16171576Y-7773071D01*
X16157077Y-7794291D01*
X16151976Y-7819480D01*
X15110344Y-7819480D01*
X15105916Y-7795948D01*
X15092009Y-7774336D01*
X15070789Y-7759837D01*
X15045600Y-7754736D01*
X14875600Y-7754736D01*
X14852068Y-7759164D01*
X14830456Y-7773071D01*
X14815957Y-7794291D01*
X14810856Y-7819480D01*
X13769224Y-7819480D01*
X13764796Y-7795948D01*
X13750889Y-7774336D01*
X13729669Y-7759837D01*
X13704480Y-7754736D01*
X13534480Y-7754736D01*
X13510948Y-7759164D01*
X13489336Y-7773071D01*
X13474837Y-7794291D01*
X13469736Y-7819480D01*
X12824380Y-7819480D01*
X12824380Y-7328156D01*
X13533045Y-7328156D01*
X13541072Y-7353286D01*
X13596608Y-7373432D01*
X13655626Y-7370791D01*
X13697888Y-7353286D01*
X13705915Y-7328156D01*
X14874165Y-7328156D01*
X14882192Y-7353286D01*
X14937728Y-7373432D01*
X14996746Y-7370791D01*
X15039008Y-7353286D01*
X15047035Y-7328156D01*
X16215285Y-7328156D01*
X16223312Y-7353286D01*
X16278848Y-7373432D01*
X16337866Y-7370791D01*
X16380128Y-7353286D01*
X16388155Y-7328156D01*
X16301720Y-7241720D01*
X16215285Y-7328156D01*
X15047035Y-7328156D01*
X14960600Y-7241720D01*
X14874165Y-7328156D01*
X13705915Y-7328156D01*
X13619480Y-7241720D01*
X13533045Y-7328156D01*
X12824380Y-7328156D01*
X12824380Y-7200888D01*
X13469808Y-7200888D01*
X13472448Y-7259906D01*
X13489954Y-7302168D01*
X13515084Y-7310195D01*
X13601519Y-7223760D01*
X13637440Y-7223760D01*
X13723876Y-7310195D01*
X13749006Y-7302168D01*
X13769152Y-7246632D01*
X13767105Y-7200888D01*
X14810928Y-7200888D01*
X14813568Y-7259906D01*
X14831074Y-7302168D01*
X14856204Y-7310195D01*
X14942639Y-7223760D01*
X14978560Y-7223760D01*
X15064996Y-7310195D01*
X15090126Y-7302168D01*
X15110272Y-7246632D01*
X15108225Y-7200888D01*
X16152048Y-7200888D01*
X16154688Y-7259906D01*
X16172194Y-7302168D01*
X16197324Y-7310195D01*
X16283759Y-7223760D01*
X16319680Y-7223760D01*
X16406116Y-7310195D01*
X16431246Y-7302168D01*
X16451392Y-7246632D01*
X16448751Y-7187614D01*
X16431246Y-7145352D01*
X16406116Y-7137325D01*
X16319680Y-7223760D01*
X16283759Y-7223760D01*
X16197324Y-7137325D01*
X16172194Y-7145352D01*
X16152048Y-7200888D01*
X15108225Y-7200888D01*
X15107631Y-7187614D01*
X15090126Y-7145352D01*
X15064996Y-7137325D01*
X14978560Y-7223760D01*
X14942639Y-7223760D01*
X14856204Y-7137325D01*
X14831074Y-7145352D01*
X14810928Y-7200888D01*
X13767105Y-7200888D01*
X13766511Y-7187614D01*
X13749006Y-7145352D01*
X13723876Y-7137325D01*
X13637440Y-7223760D01*
X13601519Y-7223760D01*
X13515084Y-7137325D01*
X13489954Y-7145352D01*
X13469808Y-7200888D01*
X12824380Y-7200888D01*
X12824380Y-6376760D01*
X13469736Y-6376760D01*
X13469736Y-6546760D01*
X13474164Y-6570292D01*
X13488071Y-6591904D01*
X13509291Y-6606403D01*
X13517224Y-6608010D01*
X13493661Y-6631532D01*
X13471006Y-6686092D01*
X13470954Y-6745169D01*
X13493514Y-6799769D01*
X13535252Y-6841579D01*
X13538036Y-6842735D01*
X13535471Y-6843794D01*
X13493661Y-6885532D01*
X13471006Y-6940092D01*
X13470954Y-6999169D01*
X13493514Y-7053769D01*
X13535252Y-7095579D01*
X13540011Y-7097555D01*
X13533045Y-7119364D01*
X13619480Y-7205799D01*
X13705915Y-7119364D01*
X13698962Y-7097596D01*
X13703489Y-7095726D01*
X13745299Y-7053988D01*
X13767954Y-6999428D01*
X13768006Y-6940351D01*
X13745446Y-6885751D01*
X13703708Y-6843941D01*
X13700924Y-6842785D01*
X13703489Y-6841726D01*
X13745299Y-6799988D01*
X13767954Y-6745428D01*
X13768006Y-6686351D01*
X13745446Y-6631751D01*
X13721952Y-6608216D01*
X13728012Y-6607076D01*
X13749624Y-6593169D01*
X13764123Y-6571949D01*
X13769224Y-6546760D01*
X13769224Y-6376760D01*
X14810856Y-6376760D01*
X14810856Y-6546760D01*
X14815284Y-6570292D01*
X14829191Y-6591904D01*
X14850411Y-6606403D01*
X14858344Y-6608010D01*
X14834781Y-6631532D01*
X14812126Y-6686092D01*
X14812074Y-6745169D01*
X14834634Y-6799769D01*
X14876372Y-6841579D01*
X14879156Y-6842735D01*
X14876591Y-6843794D01*
X14834781Y-6885532D01*
X14812126Y-6940092D01*
X14812074Y-6999169D01*
X14834634Y-7053769D01*
X14876372Y-7095579D01*
X14881131Y-7097555D01*
X14874165Y-7119364D01*
X14960600Y-7205799D01*
X15047035Y-7119364D01*
X15040082Y-7097596D01*
X15044609Y-7095726D01*
X15086419Y-7053988D01*
X15109074Y-6999428D01*
X15109126Y-6940351D01*
X15086566Y-6885751D01*
X15044828Y-6843941D01*
X15042044Y-6842785D01*
X15044609Y-6841726D01*
X15086419Y-6799988D01*
X15109074Y-6745428D01*
X15109126Y-6686351D01*
X15086566Y-6631751D01*
X15063072Y-6608216D01*
X15069132Y-6607076D01*
X15090744Y-6593169D01*
X15105243Y-6571949D01*
X15110344Y-6546760D01*
X15110344Y-6376760D01*
X16151976Y-6376760D01*
X16151976Y-6546760D01*
X16156404Y-6570292D01*
X16170311Y-6591904D01*
X16191531Y-6606403D01*
X16199464Y-6608010D01*
X16175901Y-6631532D01*
X16153246Y-6686092D01*
X16153194Y-6745169D01*
X16175754Y-6799769D01*
X16217492Y-6841579D01*
X16220276Y-6842735D01*
X16217711Y-6843794D01*
X16175901Y-6885532D01*
X16153246Y-6940092D01*
X16153194Y-6999169D01*
X16175754Y-7053769D01*
X16217492Y-7095579D01*
X16222251Y-7097555D01*
X16215285Y-7119364D01*
X16301720Y-7205799D01*
X16388155Y-7119364D01*
X16381202Y-7097596D01*
X16385729Y-7095726D01*
X16427539Y-7053988D01*
X16450194Y-6999428D01*
X16450246Y-6940351D01*
X16427686Y-6885751D01*
X16385948Y-6843941D01*
X16383164Y-6842785D01*
X16385729Y-6841726D01*
X16427539Y-6799988D01*
X16450194Y-6745428D01*
X16450246Y-6686351D01*
X16427686Y-6631751D01*
X16404192Y-6608216D01*
X16410252Y-6607076D01*
X16431864Y-6593169D01*
X16446363Y-6571949D01*
X16451464Y-6546760D01*
X16451464Y-6376760D01*
X16447036Y-6353228D01*
X16433129Y-6331616D01*
X16411909Y-6317117D01*
X16386720Y-6312016D01*
X16216720Y-6312016D01*
X16193188Y-6316444D01*
X16171576Y-6330351D01*
X16157077Y-6351571D01*
X16151976Y-6376760D01*
X15110344Y-6376760D01*
X15105916Y-6353228D01*
X15092009Y-6331616D01*
X15070789Y-6317117D01*
X15045600Y-6312016D01*
X14875600Y-6312016D01*
X14852068Y-6316444D01*
X14830456Y-6330351D01*
X14815957Y-6351571D01*
X14810856Y-6376760D01*
X13769224Y-6376760D01*
X13764796Y-6353228D01*
X13750889Y-6331616D01*
X13729669Y-6317117D01*
X13704480Y-6312016D01*
X13534480Y-6312016D01*
X13510948Y-6316444D01*
X13489336Y-6330351D01*
X13474837Y-6351571D01*
X13469736Y-6376760D01*
X12824380Y-6376760D01*
X12824380Y-4960540D01*
X17091740Y-4960540D01*
X17091740Y-5550582D01*
M02*
