G04 #@! TF.FileFunction,Other,Fab,Top*
%FSLAX45Y45*%
G04 Gerber Fmt 4.5, Leading zero omitted, Abs format (unit mm)*
G04 Created by KiCad (PCBNEW 4.0.6) date 09/06/17 16:41:30*
%MOMM*%
%LPD*%
G01*
G04 APERTURE LIST*
%ADD10C,0.100000*%
%ADD11C,0.300000*%
%ADD12C,0.150000*%
G04 APERTURE END LIST*
D10*
D11*
X17911714Y-7992143D02*
X17911714Y-8072143D01*
X17791714Y-8020714D01*
X17900286Y-8112143D02*
X17906000Y-8117857D01*
X17911714Y-8129286D01*
X17911714Y-8157857D01*
X17906000Y-8169286D01*
X17900286Y-8175000D01*
X17888857Y-8180714D01*
X17877429Y-8180714D01*
X17860286Y-8175000D01*
X17791714Y-8106429D01*
X17791714Y-8180714D01*
X17797429Y-8237857D02*
X17791714Y-8237857D01*
X17780286Y-8232143D01*
X17774571Y-8226428D01*
X17911714Y-8312143D02*
X17911714Y-8323571D01*
X17906000Y-8335000D01*
X17900286Y-8340714D01*
X17888857Y-8346429D01*
X17866000Y-8352143D01*
X17837429Y-8352143D01*
X17814571Y-8346429D01*
X17803143Y-8340714D01*
X17797429Y-8335000D01*
X17791714Y-8323571D01*
X17791714Y-8312143D01*
X17797429Y-8300714D01*
X17803143Y-8295000D01*
X17814571Y-8289286D01*
X17837429Y-8283571D01*
X17866000Y-8283571D01*
X17888857Y-8289286D01*
X17900286Y-8295000D01*
X17906000Y-8300714D01*
X17911714Y-8312143D01*
X17900286Y-8397857D02*
X17906000Y-8403571D01*
X17911714Y-8415000D01*
X17911714Y-8443571D01*
X17906000Y-8455000D01*
X17900286Y-8460714D01*
X17888857Y-8466429D01*
X17877429Y-8466429D01*
X17860286Y-8460714D01*
X17791714Y-8392143D01*
X17791714Y-8466429D01*
X17911714Y-8540714D02*
X17911714Y-8552143D01*
X17906000Y-8563571D01*
X17900286Y-8569286D01*
X17888857Y-8575000D01*
X17866000Y-8580714D01*
X17837429Y-8580714D01*
X17814571Y-8575000D01*
X17803143Y-8569286D01*
X17797429Y-8563571D01*
X17791714Y-8552143D01*
X17791714Y-8540714D01*
X17797429Y-8529286D01*
X17803143Y-8523571D01*
X17814571Y-8517857D01*
X17837429Y-8512143D01*
X17866000Y-8512143D01*
X17888857Y-8517857D01*
X17900286Y-8523571D01*
X17906000Y-8529286D01*
X17911714Y-8540714D01*
X17791714Y-8723571D02*
X17871714Y-8723571D01*
X17860286Y-8723571D02*
X17866000Y-8729286D01*
X17871714Y-8740714D01*
X17871714Y-8757857D01*
X17866000Y-8769286D01*
X17854571Y-8775000D01*
X17791714Y-8775000D01*
X17854571Y-8775000D02*
X17866000Y-8780714D01*
X17871714Y-8792143D01*
X17871714Y-8809286D01*
X17866000Y-8820714D01*
X17854571Y-8826429D01*
X17791714Y-8826429D01*
X17791714Y-8883571D02*
X17871714Y-8883571D01*
X17860286Y-8883571D02*
X17866000Y-8889286D01*
X17871714Y-8900714D01*
X17871714Y-8917857D01*
X17866000Y-8929286D01*
X17854571Y-8935000D01*
X17791714Y-8935000D01*
X17854571Y-8935000D02*
X17866000Y-8940714D01*
X17871714Y-8952143D01*
X17871714Y-8969286D01*
X17866000Y-8980714D01*
X17854571Y-8986429D01*
X17791714Y-8986429D01*
X17726000Y-4894000D02*
X17726000Y-12096000D01*
X17470000Y-4894000D02*
X17966000Y-4894000D01*
X17470000Y-12096000D02*
X17966000Y-12096000D01*
X17726000Y-12096000D02*
X17667358Y-11983350D01*
X17726000Y-12096000D02*
X17784642Y-11983350D01*
X17726000Y-4894000D02*
X17667358Y-5006650D01*
X17726000Y-4894000D02*
X17784642Y-5006650D01*
X14408060Y-12914617D02*
X14408060Y-13014617D01*
X14372346Y-12857474D02*
X14336631Y-12964617D01*
X14429489Y-12964617D01*
X14550917Y-12914617D02*
X14550917Y-13014617D01*
X14515203Y-12857474D02*
X14479489Y-12964617D01*
X14572346Y-12964617D01*
X14636631Y-13007474D02*
X14636631Y-13014617D01*
X14629489Y-13028903D01*
X14622346Y-13036046D01*
X14729489Y-12864617D02*
X14743774Y-12864617D01*
X14758060Y-12871760D01*
X14765203Y-12878903D01*
X14772346Y-12893189D01*
X14779489Y-12921760D01*
X14779489Y-12957474D01*
X14772346Y-12986046D01*
X14765203Y-13000331D01*
X14758060Y-13007474D01*
X14743774Y-13014617D01*
X14729489Y-13014617D01*
X14715203Y-13007474D01*
X14708060Y-13000331D01*
X14700917Y-12986046D01*
X14693774Y-12957474D01*
X14693774Y-12921760D01*
X14700917Y-12893189D01*
X14708060Y-12878903D01*
X14715203Y-12871760D01*
X14729489Y-12864617D01*
X14908060Y-12914617D02*
X14908060Y-13014617D01*
X14872346Y-12857474D02*
X14836631Y-12964617D01*
X14929489Y-12964617D01*
X15050917Y-12914617D02*
X15050917Y-13014617D01*
X15015203Y-12857474D02*
X14979488Y-12964617D01*
X15072346Y-12964617D01*
X15243774Y-13014617D02*
X15243774Y-12914617D01*
X15243774Y-12928903D02*
X15250917Y-12921760D01*
X15265203Y-12914617D01*
X15286631Y-12914617D01*
X15300917Y-12921760D01*
X15308060Y-12936046D01*
X15308060Y-13014617D01*
X15308060Y-12936046D02*
X15315203Y-12921760D01*
X15329488Y-12914617D01*
X15350917Y-12914617D01*
X15365203Y-12921760D01*
X15372346Y-12936046D01*
X15372346Y-13014617D01*
X15443774Y-13014617D02*
X15443774Y-12914617D01*
X15443774Y-12928903D02*
X15450917Y-12921760D01*
X15465203Y-12914617D01*
X15486631Y-12914617D01*
X15500917Y-12921760D01*
X15508060Y-12936046D01*
X15508060Y-13014617D01*
X15508060Y-12936046D02*
X15515203Y-12921760D01*
X15529488Y-12914617D01*
X15550917Y-12914617D01*
X15565203Y-12921760D01*
X15572346Y-12936046D01*
X15572346Y-13014617D01*
X12755880Y-12811760D02*
X17160240Y-12811760D01*
X12755880Y-12557760D02*
X12755880Y-13081760D01*
X17160240Y-12557760D02*
X17160240Y-13081760D01*
X17160240Y-12811760D02*
X17047590Y-12870402D01*
X17160240Y-12811760D02*
X17047590Y-12753118D01*
X12755880Y-12811760D02*
X12868530Y-12870402D01*
X12755880Y-12811760D02*
X12868530Y-12753118D01*
D10*
X13238480Y-6050280D02*
X14000480Y-6050280D01*
X14000480Y-6050280D02*
X14000480Y-5796280D01*
X14000480Y-5796280D02*
X13238480Y-5796280D01*
X13238480Y-5796280D02*
X13238480Y-6050280D01*
X14579600Y-6050280D02*
X15341600Y-6050280D01*
X15341600Y-6050280D02*
X15341600Y-5796280D01*
X15341600Y-5796280D02*
X14579600Y-5796280D01*
X14579600Y-5796280D02*
X14579600Y-6050280D01*
X15920720Y-6050280D02*
X16682720Y-6050280D01*
X16682720Y-6050280D02*
X16682720Y-5796280D01*
X16682720Y-5796280D02*
X15920720Y-5796280D01*
X15920720Y-5796280D02*
X15920720Y-6050280D01*
X13238480Y-9306560D02*
X14000480Y-9306560D01*
X14000480Y-9306560D02*
X14000480Y-9052560D01*
X14000480Y-9052560D02*
X13238480Y-9052560D01*
X13238480Y-9052560D02*
X13238480Y-9306560D01*
X14579600Y-9306560D02*
X15341600Y-9306560D01*
X15341600Y-9306560D02*
X15341600Y-9052560D01*
X15341600Y-9052560D02*
X14579600Y-9052560D01*
X14579600Y-9052560D02*
X14579600Y-9306560D01*
X15920720Y-9306560D02*
X16682720Y-9306560D01*
X16682720Y-9306560D02*
X16682720Y-9052560D01*
X16682720Y-9052560D02*
X15920720Y-9052560D01*
X15920720Y-9052560D02*
X15920720Y-9306560D01*
X15526000Y-11086000D02*
G75*
G03X15526000Y-11086000I-315000J0D01*
G01*
X14866000Y-11086000D02*
X14986000Y-11086000D01*
X14926000Y-11021000D02*
X14926000Y-11151000D01*
D12*
X13402714Y-10861238D02*
X13402714Y-10942191D01*
X13407476Y-10951714D01*
X13412238Y-10956476D01*
X13421762Y-10961238D01*
X13440810Y-10961238D01*
X13450333Y-10956476D01*
X13455095Y-10951714D01*
X13459857Y-10942191D01*
X13459857Y-10861238D01*
X13502714Y-10956476D02*
X13517000Y-10961238D01*
X13540810Y-10961238D01*
X13550333Y-10956476D01*
X13555095Y-10951714D01*
X13559857Y-10942191D01*
X13559857Y-10932667D01*
X13555095Y-10923143D01*
X13550333Y-10918381D01*
X13540810Y-10913619D01*
X13521762Y-10908857D01*
X13512238Y-10904095D01*
X13507476Y-10899333D01*
X13502714Y-10889810D01*
X13502714Y-10880286D01*
X13507476Y-10870762D01*
X13512238Y-10866000D01*
X13521762Y-10861238D01*
X13545571Y-10861238D01*
X13559857Y-10866000D01*
X13636048Y-10908857D02*
X13650333Y-10913619D01*
X13655095Y-10918381D01*
X13659857Y-10927905D01*
X13659857Y-10942191D01*
X13655095Y-10951714D01*
X13650333Y-10956476D01*
X13640810Y-10961238D01*
X13602714Y-10961238D01*
X13602714Y-10861238D01*
X13636048Y-10861238D01*
X13645571Y-10866000D01*
X13650333Y-10870762D01*
X13655095Y-10880286D01*
X13655095Y-10889810D01*
X13650333Y-10899333D01*
X13645571Y-10904095D01*
X13636048Y-10908857D01*
X13602714Y-10908857D01*
X13678905Y-10970762D02*
X13755095Y-10970762D01*
X13812238Y-10908857D02*
X13826524Y-10913619D01*
X13831286Y-10918381D01*
X13836048Y-10927905D01*
X13836048Y-10942191D01*
X13831286Y-10951714D01*
X13826524Y-10956476D01*
X13817000Y-10961238D01*
X13778905Y-10961238D01*
X13778905Y-10861238D01*
X13812238Y-10861238D01*
X13821762Y-10866000D01*
X13826524Y-10870762D01*
X13831286Y-10880286D01*
X13831286Y-10889810D01*
X13826524Y-10899333D01*
X13821762Y-10904095D01*
X13812238Y-10908857D01*
X13778905Y-10908857D01*
X14056480Y-5992328D02*
X14051718Y-6001851D01*
X14051718Y-6016137D01*
X14056480Y-6030423D01*
X14066004Y-6039947D01*
X14075528Y-6044709D01*
X14094575Y-6049470D01*
X14108861Y-6049470D01*
X14127909Y-6044709D01*
X14137432Y-6039947D01*
X14146956Y-6030423D01*
X14151718Y-6016137D01*
X14151718Y-6006613D01*
X14146956Y-5992328D01*
X14142194Y-5987566D01*
X14108861Y-5987566D01*
X14108861Y-6006613D01*
X14146956Y-5949470D02*
X14151718Y-5935185D01*
X14151718Y-5911375D01*
X14146956Y-5901851D01*
X14142194Y-5897089D01*
X14132670Y-5892328D01*
X14123147Y-5892328D01*
X14113623Y-5897089D01*
X14108861Y-5901851D01*
X14104099Y-5911375D01*
X14099337Y-5930423D01*
X14094575Y-5939947D01*
X14089813Y-5944709D01*
X14080289Y-5949470D01*
X14070766Y-5949470D01*
X14061242Y-5944709D01*
X14056480Y-5939947D01*
X14051718Y-5930423D01*
X14051718Y-5906613D01*
X14056480Y-5892328D01*
X14051718Y-5858994D02*
X14051718Y-5797089D01*
X14089813Y-5830423D01*
X14089813Y-5816137D01*
X14094575Y-5806613D01*
X14099337Y-5801851D01*
X14108861Y-5797089D01*
X14132670Y-5797089D01*
X14142194Y-5801851D01*
X14146956Y-5806613D01*
X14151718Y-5816137D01*
X14151718Y-5844709D01*
X14146956Y-5854232D01*
X14142194Y-5858994D01*
X13082480Y-5992328D02*
X13077718Y-6001851D01*
X13077718Y-6016137D01*
X13082480Y-6030423D01*
X13092004Y-6039947D01*
X13101528Y-6044709D01*
X13120575Y-6049470D01*
X13134861Y-6049470D01*
X13153909Y-6044709D01*
X13163432Y-6039947D01*
X13172956Y-6030423D01*
X13177718Y-6016137D01*
X13177718Y-6006613D01*
X13172956Y-5992328D01*
X13168194Y-5987566D01*
X13134861Y-5987566D01*
X13134861Y-6006613D01*
X13172956Y-5949470D02*
X13177718Y-5935185D01*
X13177718Y-5911375D01*
X13172956Y-5901851D01*
X13168194Y-5897089D01*
X13158670Y-5892328D01*
X13149147Y-5892328D01*
X13139623Y-5897089D01*
X13134861Y-5901851D01*
X13130099Y-5911375D01*
X13125337Y-5930423D01*
X13120575Y-5939947D01*
X13115813Y-5944709D01*
X13106289Y-5949470D01*
X13096766Y-5949470D01*
X13087242Y-5944709D01*
X13082480Y-5939947D01*
X13077718Y-5930423D01*
X13077718Y-5906613D01*
X13082480Y-5892328D01*
X13177718Y-5797089D02*
X13177718Y-5854232D01*
X13177718Y-5825661D02*
X13077718Y-5825661D01*
X13092004Y-5835185D01*
X13101528Y-5844709D01*
X13106289Y-5854232D01*
X15397600Y-5992328D02*
X15392838Y-6001851D01*
X15392838Y-6016137D01*
X15397600Y-6030423D01*
X15407124Y-6039947D01*
X15416648Y-6044709D01*
X15435695Y-6049470D01*
X15449981Y-6049470D01*
X15469029Y-6044709D01*
X15478552Y-6039947D01*
X15488076Y-6030423D01*
X15492838Y-6016137D01*
X15492838Y-6006613D01*
X15488076Y-5992328D01*
X15483314Y-5987566D01*
X15449981Y-5987566D01*
X15449981Y-6006613D01*
X15488076Y-5949470D02*
X15492838Y-5935185D01*
X15492838Y-5911375D01*
X15488076Y-5901851D01*
X15483314Y-5897089D01*
X15473790Y-5892328D01*
X15464267Y-5892328D01*
X15454743Y-5897089D01*
X15449981Y-5901851D01*
X15445219Y-5911375D01*
X15440457Y-5930423D01*
X15435695Y-5939947D01*
X15430933Y-5944709D01*
X15421409Y-5949470D01*
X15411886Y-5949470D01*
X15402362Y-5944709D01*
X15397600Y-5939947D01*
X15392838Y-5930423D01*
X15392838Y-5906613D01*
X15397600Y-5892328D01*
X15392838Y-5858994D02*
X15392838Y-5797089D01*
X15430933Y-5830423D01*
X15430933Y-5816137D01*
X15435695Y-5806613D01*
X15440457Y-5801851D01*
X15449981Y-5797089D01*
X15473790Y-5797089D01*
X15483314Y-5801851D01*
X15488076Y-5806613D01*
X15492838Y-5816137D01*
X15492838Y-5844709D01*
X15488076Y-5854232D01*
X15483314Y-5858994D01*
X14423600Y-5992328D02*
X14418838Y-6001851D01*
X14418838Y-6016137D01*
X14423600Y-6030423D01*
X14433124Y-6039947D01*
X14442648Y-6044709D01*
X14461695Y-6049470D01*
X14475981Y-6049470D01*
X14495029Y-6044709D01*
X14504552Y-6039947D01*
X14514076Y-6030423D01*
X14518838Y-6016137D01*
X14518838Y-6006613D01*
X14514076Y-5992328D01*
X14509314Y-5987566D01*
X14475981Y-5987566D01*
X14475981Y-6006613D01*
X14514076Y-5949470D02*
X14518838Y-5935185D01*
X14518838Y-5911375D01*
X14514076Y-5901851D01*
X14509314Y-5897089D01*
X14499790Y-5892328D01*
X14490267Y-5892328D01*
X14480743Y-5897089D01*
X14475981Y-5901851D01*
X14471219Y-5911375D01*
X14466457Y-5930423D01*
X14461695Y-5939947D01*
X14456933Y-5944709D01*
X14447409Y-5949470D01*
X14437886Y-5949470D01*
X14428362Y-5944709D01*
X14423600Y-5939947D01*
X14418838Y-5930423D01*
X14418838Y-5906613D01*
X14423600Y-5892328D01*
X14428362Y-5854232D02*
X14423600Y-5849470D01*
X14418838Y-5839947D01*
X14418838Y-5816137D01*
X14423600Y-5806613D01*
X14428362Y-5801851D01*
X14437886Y-5797089D01*
X14447409Y-5797089D01*
X14461695Y-5801851D01*
X14518838Y-5858994D01*
X14518838Y-5797089D01*
X16738720Y-5992328D02*
X16733958Y-6001851D01*
X16733958Y-6016137D01*
X16738720Y-6030423D01*
X16748244Y-6039947D01*
X16757768Y-6044709D01*
X16776815Y-6049470D01*
X16791101Y-6049470D01*
X16810149Y-6044709D01*
X16819672Y-6039947D01*
X16829196Y-6030423D01*
X16833958Y-6016137D01*
X16833958Y-6006613D01*
X16829196Y-5992328D01*
X16824434Y-5987566D01*
X16791101Y-5987566D01*
X16791101Y-6006613D01*
X16829196Y-5949470D02*
X16833958Y-5935185D01*
X16833958Y-5911375D01*
X16829196Y-5901851D01*
X16824434Y-5897089D01*
X16814911Y-5892328D01*
X16805387Y-5892328D01*
X16795863Y-5897089D01*
X16791101Y-5901851D01*
X16786339Y-5911375D01*
X16781577Y-5930423D01*
X16776815Y-5939947D01*
X16772053Y-5944709D01*
X16762529Y-5949470D01*
X16753006Y-5949470D01*
X16743482Y-5944709D01*
X16738720Y-5939947D01*
X16733958Y-5930423D01*
X16733958Y-5906613D01*
X16738720Y-5892328D01*
X16733958Y-5858994D02*
X16733958Y-5797089D01*
X16772053Y-5830423D01*
X16772053Y-5816137D01*
X16776815Y-5806613D01*
X16781577Y-5801851D01*
X16791101Y-5797089D01*
X16814911Y-5797089D01*
X16824434Y-5801851D01*
X16829196Y-5806613D01*
X16833958Y-5816137D01*
X16833958Y-5844709D01*
X16829196Y-5854232D01*
X16824434Y-5858994D01*
X15764720Y-5992328D02*
X15759958Y-6001851D01*
X15759958Y-6016137D01*
X15764720Y-6030423D01*
X15774244Y-6039947D01*
X15783768Y-6044709D01*
X15802815Y-6049470D01*
X15817101Y-6049470D01*
X15836149Y-6044709D01*
X15845672Y-6039947D01*
X15855196Y-6030423D01*
X15859958Y-6016137D01*
X15859958Y-6006613D01*
X15855196Y-5992328D01*
X15850434Y-5987566D01*
X15817101Y-5987566D01*
X15817101Y-6006613D01*
X15855196Y-5949470D02*
X15859958Y-5935185D01*
X15859958Y-5911375D01*
X15855196Y-5901851D01*
X15850434Y-5897089D01*
X15840910Y-5892328D01*
X15831387Y-5892328D01*
X15821863Y-5897089D01*
X15817101Y-5901851D01*
X15812339Y-5911375D01*
X15807577Y-5930423D01*
X15802815Y-5939947D01*
X15798053Y-5944709D01*
X15788529Y-5949470D01*
X15779006Y-5949470D01*
X15769482Y-5944709D01*
X15764720Y-5939947D01*
X15759958Y-5930423D01*
X15759958Y-5906613D01*
X15764720Y-5892328D01*
X15759958Y-5858994D02*
X15759958Y-5797089D01*
X15798053Y-5830423D01*
X15798053Y-5816137D01*
X15802815Y-5806613D01*
X15807577Y-5801851D01*
X15817101Y-5797089D01*
X15840910Y-5797089D01*
X15850434Y-5801851D01*
X15855196Y-5806613D01*
X15859958Y-5816137D01*
X15859958Y-5844709D01*
X15855196Y-5854232D01*
X15850434Y-5858994D01*
X14056480Y-9248608D02*
X14051718Y-9258131D01*
X14051718Y-9272417D01*
X14056480Y-9286703D01*
X14066004Y-9296227D01*
X14075528Y-9300989D01*
X14094575Y-9305751D01*
X14108861Y-9305751D01*
X14127909Y-9300989D01*
X14137432Y-9296227D01*
X14146956Y-9286703D01*
X14151718Y-9272417D01*
X14151718Y-9262893D01*
X14146956Y-9248608D01*
X14142194Y-9243846D01*
X14108861Y-9243846D01*
X14108861Y-9262893D01*
X14146956Y-9205751D02*
X14151718Y-9191465D01*
X14151718Y-9167655D01*
X14146956Y-9158131D01*
X14142194Y-9153370D01*
X14132670Y-9148608D01*
X14123147Y-9148608D01*
X14113623Y-9153370D01*
X14108861Y-9158131D01*
X14104099Y-9167655D01*
X14099337Y-9186703D01*
X14094575Y-9196227D01*
X14089813Y-9200989D01*
X14080289Y-9205751D01*
X14070766Y-9205751D01*
X14061242Y-9200989D01*
X14056480Y-9196227D01*
X14051718Y-9186703D01*
X14051718Y-9162893D01*
X14056480Y-9148608D01*
X14051718Y-9115274D02*
X14051718Y-9053370D01*
X14089813Y-9086703D01*
X14089813Y-9072417D01*
X14094575Y-9062893D01*
X14099337Y-9058131D01*
X14108861Y-9053370D01*
X14132670Y-9053370D01*
X14142194Y-9058131D01*
X14146956Y-9062893D01*
X14151718Y-9072417D01*
X14151718Y-9100989D01*
X14146956Y-9110512D01*
X14142194Y-9115274D01*
X13082480Y-9248608D02*
X13077718Y-9258131D01*
X13077718Y-9272417D01*
X13082480Y-9286703D01*
X13092004Y-9296227D01*
X13101528Y-9300989D01*
X13120575Y-9305751D01*
X13134861Y-9305751D01*
X13153909Y-9300989D01*
X13163432Y-9296227D01*
X13172956Y-9286703D01*
X13177718Y-9272417D01*
X13177718Y-9262893D01*
X13172956Y-9248608D01*
X13168194Y-9243846D01*
X13134861Y-9243846D01*
X13134861Y-9262893D01*
X13172956Y-9205751D02*
X13177718Y-9191465D01*
X13177718Y-9167655D01*
X13172956Y-9158131D01*
X13168194Y-9153370D01*
X13158670Y-9148608D01*
X13149147Y-9148608D01*
X13139623Y-9153370D01*
X13134861Y-9158131D01*
X13130099Y-9167655D01*
X13125337Y-9186703D01*
X13120575Y-9196227D01*
X13115813Y-9200989D01*
X13106289Y-9205751D01*
X13096766Y-9205751D01*
X13087242Y-9200989D01*
X13082480Y-9196227D01*
X13077718Y-9186703D01*
X13077718Y-9162893D01*
X13082480Y-9148608D01*
X13111051Y-9062893D02*
X13177718Y-9062893D01*
X13072956Y-9086703D02*
X13144385Y-9110512D01*
X13144385Y-9048608D01*
X15397600Y-9248608D02*
X15392838Y-9258131D01*
X15392838Y-9272417D01*
X15397600Y-9286703D01*
X15407124Y-9296227D01*
X15416648Y-9300989D01*
X15435695Y-9305751D01*
X15449981Y-9305751D01*
X15469029Y-9300989D01*
X15478552Y-9296227D01*
X15488076Y-9286703D01*
X15492838Y-9272417D01*
X15492838Y-9262893D01*
X15488076Y-9248608D01*
X15483314Y-9243846D01*
X15449981Y-9243846D01*
X15449981Y-9262893D01*
X15488076Y-9205751D02*
X15492838Y-9191465D01*
X15492838Y-9167655D01*
X15488076Y-9158131D01*
X15483314Y-9153370D01*
X15473790Y-9148608D01*
X15464267Y-9148608D01*
X15454743Y-9153370D01*
X15449981Y-9158131D01*
X15445219Y-9167655D01*
X15440457Y-9186703D01*
X15435695Y-9196227D01*
X15430933Y-9200989D01*
X15421409Y-9205751D01*
X15411886Y-9205751D01*
X15402362Y-9200989D01*
X15397600Y-9196227D01*
X15392838Y-9186703D01*
X15392838Y-9162893D01*
X15397600Y-9148608D01*
X15392838Y-9115274D02*
X15392838Y-9053370D01*
X15430933Y-9086703D01*
X15430933Y-9072417D01*
X15435695Y-9062893D01*
X15440457Y-9058131D01*
X15449981Y-9053370D01*
X15473790Y-9053370D01*
X15483314Y-9058131D01*
X15488076Y-9062893D01*
X15492838Y-9072417D01*
X15492838Y-9100989D01*
X15488076Y-9110512D01*
X15483314Y-9115274D01*
X14423600Y-9248608D02*
X14418838Y-9258131D01*
X14418838Y-9272417D01*
X14423600Y-9286703D01*
X14433124Y-9296227D01*
X14442648Y-9300989D01*
X14461695Y-9305751D01*
X14475981Y-9305751D01*
X14495029Y-9300989D01*
X14504552Y-9296227D01*
X14514076Y-9286703D01*
X14518838Y-9272417D01*
X14518838Y-9262893D01*
X14514076Y-9248608D01*
X14509314Y-9243846D01*
X14475981Y-9243846D01*
X14475981Y-9262893D01*
X14514076Y-9205751D02*
X14518838Y-9191465D01*
X14518838Y-9167655D01*
X14514076Y-9158131D01*
X14509314Y-9153370D01*
X14499790Y-9148608D01*
X14490267Y-9148608D01*
X14480743Y-9153370D01*
X14475981Y-9158131D01*
X14471219Y-9167655D01*
X14466457Y-9186703D01*
X14461695Y-9196227D01*
X14456933Y-9200989D01*
X14447409Y-9205751D01*
X14437886Y-9205751D01*
X14428362Y-9200989D01*
X14423600Y-9196227D01*
X14418838Y-9186703D01*
X14418838Y-9162893D01*
X14423600Y-9148608D01*
X14418838Y-9058131D02*
X14418838Y-9105751D01*
X14466457Y-9110512D01*
X14461695Y-9105751D01*
X14456933Y-9096227D01*
X14456933Y-9072417D01*
X14461695Y-9062893D01*
X14466457Y-9058131D01*
X14475981Y-9053370D01*
X14499790Y-9053370D01*
X14509314Y-9058131D01*
X14514076Y-9062893D01*
X14518838Y-9072417D01*
X14518838Y-9096227D01*
X14514076Y-9105751D01*
X14509314Y-9110512D01*
X16738720Y-9248608D02*
X16733958Y-9258131D01*
X16733958Y-9272417D01*
X16738720Y-9286703D01*
X16748244Y-9296227D01*
X16757768Y-9300989D01*
X16776815Y-9305751D01*
X16791101Y-9305751D01*
X16810149Y-9300989D01*
X16819672Y-9296227D01*
X16829196Y-9286703D01*
X16833958Y-9272417D01*
X16833958Y-9262893D01*
X16829196Y-9248608D01*
X16824434Y-9243846D01*
X16791101Y-9243846D01*
X16791101Y-9262893D01*
X16829196Y-9205751D02*
X16833958Y-9191465D01*
X16833958Y-9167655D01*
X16829196Y-9158131D01*
X16824434Y-9153370D01*
X16814911Y-9148608D01*
X16805387Y-9148608D01*
X16795863Y-9153370D01*
X16791101Y-9158131D01*
X16786339Y-9167655D01*
X16781577Y-9186703D01*
X16776815Y-9196227D01*
X16772053Y-9200989D01*
X16762529Y-9205751D01*
X16753006Y-9205751D01*
X16743482Y-9200989D01*
X16738720Y-9196227D01*
X16733958Y-9186703D01*
X16733958Y-9162893D01*
X16738720Y-9148608D01*
X16733958Y-9115274D02*
X16733958Y-9053370D01*
X16772053Y-9086703D01*
X16772053Y-9072417D01*
X16776815Y-9062893D01*
X16781577Y-9058131D01*
X16791101Y-9053370D01*
X16814911Y-9053370D01*
X16824434Y-9058131D01*
X16829196Y-9062893D01*
X16833958Y-9072417D01*
X16833958Y-9100989D01*
X16829196Y-9110512D01*
X16824434Y-9115274D01*
X15764720Y-9248608D02*
X15759958Y-9258131D01*
X15759958Y-9272417D01*
X15764720Y-9286703D01*
X15774244Y-9296227D01*
X15783768Y-9300989D01*
X15802815Y-9305751D01*
X15817101Y-9305751D01*
X15836149Y-9300989D01*
X15845672Y-9296227D01*
X15855196Y-9286703D01*
X15859958Y-9272417D01*
X15859958Y-9262893D01*
X15855196Y-9248608D01*
X15850434Y-9243846D01*
X15817101Y-9243846D01*
X15817101Y-9262893D01*
X15855196Y-9205751D02*
X15859958Y-9191465D01*
X15859958Y-9167655D01*
X15855196Y-9158131D01*
X15850434Y-9153370D01*
X15840910Y-9148608D01*
X15831387Y-9148608D01*
X15821863Y-9153370D01*
X15817101Y-9158131D01*
X15812339Y-9167655D01*
X15807577Y-9186703D01*
X15802815Y-9196227D01*
X15798053Y-9200989D01*
X15788529Y-9205751D01*
X15779006Y-9205751D01*
X15769482Y-9200989D01*
X15764720Y-9196227D01*
X15759958Y-9186703D01*
X15759958Y-9162893D01*
X15764720Y-9148608D01*
X15759958Y-9062893D02*
X15759958Y-9081941D01*
X15764720Y-9091465D01*
X15769482Y-9096227D01*
X15783768Y-9105751D01*
X15802815Y-9110512D01*
X15840910Y-9110512D01*
X15850434Y-9105751D01*
X15855196Y-9100989D01*
X15859958Y-9091465D01*
X15859958Y-9072417D01*
X15855196Y-9062893D01*
X15850434Y-9058131D01*
X15840910Y-9053370D01*
X15817101Y-9053370D01*
X15807577Y-9058131D01*
X15802815Y-9062893D01*
X15798053Y-9072417D01*
X15798053Y-9091465D01*
X15802815Y-9100989D01*
X15807577Y-9105751D01*
X15817101Y-9110512D01*
X15056238Y-11552238D02*
X14999095Y-11552238D01*
X15027667Y-11552238D02*
X15027667Y-11452238D01*
X15018143Y-11466524D01*
X15008619Y-11476048D01*
X14999095Y-11480809D01*
X15118143Y-11452238D02*
X15127667Y-11452238D01*
X15137190Y-11457000D01*
X15141952Y-11461762D01*
X15146714Y-11471286D01*
X15151476Y-11490333D01*
X15151476Y-11514143D01*
X15146714Y-11533190D01*
X15141952Y-11542714D01*
X15137190Y-11547476D01*
X15127667Y-11552238D01*
X15118143Y-11552238D01*
X15108619Y-11547476D01*
X15103857Y-11542714D01*
X15099095Y-11533190D01*
X15094333Y-11514143D01*
X15094333Y-11490333D01*
X15099095Y-11471286D01*
X15103857Y-11461762D01*
X15108619Y-11457000D01*
X15118143Y-11452238D01*
X15213381Y-11452238D02*
X15222905Y-11452238D01*
X15232429Y-11457000D01*
X15237190Y-11461762D01*
X15241952Y-11471286D01*
X15246714Y-11490333D01*
X15246714Y-11514143D01*
X15241952Y-11533190D01*
X15237190Y-11542714D01*
X15232429Y-11547476D01*
X15222905Y-11552238D01*
X15213381Y-11552238D01*
X15203857Y-11547476D01*
X15199095Y-11542714D01*
X15194333Y-11533190D01*
X15189571Y-11514143D01*
X15189571Y-11490333D01*
X15194333Y-11471286D01*
X15199095Y-11461762D01*
X15203857Y-11457000D01*
X15213381Y-11452238D01*
X15332429Y-11485571D02*
X15332429Y-11552238D01*
X15289571Y-11485571D02*
X15289571Y-11537952D01*
X15294333Y-11547476D01*
X15303857Y-11552238D01*
X15318143Y-11552238D01*
X15327667Y-11547476D01*
X15332429Y-11542714D01*
X15413381Y-11499857D02*
X15380048Y-11499857D01*
X15380048Y-11552238D02*
X15380048Y-11452238D01*
X15427667Y-11452238D01*
X16868714Y-11476381D02*
X16873476Y-11481143D01*
X16878238Y-11495428D01*
X16878238Y-11504952D01*
X16873476Y-11519238D01*
X16863952Y-11528762D01*
X16854429Y-11533524D01*
X16835381Y-11538286D01*
X16821095Y-11538286D01*
X16802048Y-11533524D01*
X16792524Y-11528762D01*
X16783000Y-11519238D01*
X16778238Y-11504952D01*
X16778238Y-11495428D01*
X16783000Y-11481143D01*
X16787762Y-11476381D01*
X16778238Y-11414476D02*
X16778238Y-11395428D01*
X16783000Y-11385905D01*
X16792524Y-11376381D01*
X16811571Y-11371619D01*
X16844905Y-11371619D01*
X16863952Y-11376381D01*
X16873476Y-11385905D01*
X16878238Y-11395428D01*
X16878238Y-11414476D01*
X16873476Y-11424000D01*
X16863952Y-11433524D01*
X16844905Y-11438286D01*
X16811571Y-11438286D01*
X16792524Y-11433524D01*
X16783000Y-11424000D01*
X16778238Y-11414476D01*
X16878238Y-11328762D02*
X16778238Y-11328762D01*
X16878238Y-11271619D01*
X16778238Y-11271619D01*
X16878238Y-11224000D02*
X16778238Y-11224000D01*
X16878238Y-11166857D01*
X16778238Y-11166857D01*
X16887762Y-11143048D02*
X16887762Y-11066857D01*
X16778238Y-11024000D02*
X16778238Y-11014476D01*
X16783000Y-11004952D01*
X16787762Y-11000190D01*
X16797286Y-10995429D01*
X16816333Y-10990667D01*
X16840143Y-10990667D01*
X16859191Y-10995429D01*
X16868714Y-11000190D01*
X16873476Y-11004952D01*
X16878238Y-11014476D01*
X16878238Y-11024000D01*
X16873476Y-11033524D01*
X16868714Y-11038286D01*
X16859191Y-11043048D01*
X16840143Y-11047810D01*
X16816333Y-11047810D01*
X16797286Y-11043048D01*
X16787762Y-11038286D01*
X16783000Y-11033524D01*
X16778238Y-11024000D01*
X16878238Y-10895429D02*
X16878238Y-10952571D01*
X16878238Y-10924000D02*
X16778238Y-10924000D01*
X16792524Y-10933524D01*
X16802048Y-10943048D01*
X16806810Y-10952571D01*
X16778238Y-10862095D02*
X16878238Y-10795429D01*
X16778238Y-10795429D02*
X16878238Y-10862095D01*
X16778238Y-10738286D02*
X16778238Y-10728762D01*
X16783000Y-10719238D01*
X16787762Y-10714476D01*
X16797286Y-10709714D01*
X16816333Y-10704952D01*
X16840143Y-10704952D01*
X16859191Y-10709714D01*
X16868714Y-10714476D01*
X16873476Y-10719238D01*
X16878238Y-10728762D01*
X16878238Y-10738286D01*
X16873476Y-10747810D01*
X16868714Y-10752571D01*
X16859191Y-10757333D01*
X16840143Y-10762095D01*
X16816333Y-10762095D01*
X16797286Y-10757333D01*
X16787762Y-10752571D01*
X16783000Y-10747810D01*
X16778238Y-10738286D01*
X16811571Y-10619238D02*
X16878238Y-10619238D01*
X16773476Y-10643048D02*
X16844905Y-10666857D01*
X16844905Y-10604952D01*
X14195714Y-7247381D02*
X14200476Y-7252143D01*
X14205238Y-7266428D01*
X14205238Y-7275952D01*
X14200476Y-7290238D01*
X14190952Y-7299762D01*
X14181429Y-7304524D01*
X14162381Y-7309286D01*
X14148095Y-7309286D01*
X14129048Y-7304524D01*
X14119524Y-7299762D01*
X14110000Y-7290238D01*
X14105238Y-7275952D01*
X14105238Y-7266428D01*
X14110000Y-7252143D01*
X14114762Y-7247381D01*
X14105238Y-7185476D02*
X14105238Y-7166428D01*
X14110000Y-7156905D01*
X14119524Y-7147381D01*
X14138571Y-7142619D01*
X14171905Y-7142619D01*
X14190952Y-7147381D01*
X14200476Y-7156905D01*
X14205238Y-7166428D01*
X14205238Y-7185476D01*
X14200476Y-7195000D01*
X14190952Y-7204524D01*
X14171905Y-7209286D01*
X14138571Y-7209286D01*
X14119524Y-7204524D01*
X14110000Y-7195000D01*
X14105238Y-7185476D01*
X14205238Y-7099762D02*
X14105238Y-7099762D01*
X14205238Y-7042619D01*
X14105238Y-7042619D01*
X14205238Y-6995000D02*
X14105238Y-6995000D01*
X14205238Y-6937857D01*
X14105238Y-6937857D01*
X14214762Y-6914048D02*
X14214762Y-6837857D01*
X14105238Y-6795000D02*
X14105238Y-6785476D01*
X14110000Y-6775952D01*
X14114762Y-6771190D01*
X14124286Y-6766428D01*
X14143333Y-6761667D01*
X14167143Y-6761667D01*
X14186190Y-6766428D01*
X14195714Y-6771190D01*
X14200476Y-6775952D01*
X14205238Y-6785476D01*
X14205238Y-6795000D01*
X14200476Y-6804524D01*
X14195714Y-6809286D01*
X14186190Y-6814048D01*
X14167143Y-6818809D01*
X14143333Y-6818809D01*
X14124286Y-6814048D01*
X14114762Y-6809286D01*
X14110000Y-6804524D01*
X14105238Y-6795000D01*
X14205238Y-6666428D02*
X14205238Y-6723571D01*
X14205238Y-6695000D02*
X14105238Y-6695000D01*
X14119524Y-6704524D01*
X14129048Y-6714048D01*
X14133809Y-6723571D01*
X14105238Y-6633095D02*
X14205238Y-6566428D01*
X14105238Y-6566428D02*
X14205238Y-6633095D01*
X14105238Y-6509286D02*
X14105238Y-6499762D01*
X14110000Y-6490238D01*
X14114762Y-6485476D01*
X14124286Y-6480714D01*
X14143333Y-6475952D01*
X14167143Y-6475952D01*
X14186190Y-6480714D01*
X14195714Y-6485476D01*
X14200476Y-6490238D01*
X14205238Y-6499762D01*
X14205238Y-6509286D01*
X14200476Y-6518809D01*
X14195714Y-6523571D01*
X14186190Y-6528333D01*
X14167143Y-6533095D01*
X14143333Y-6533095D01*
X14124286Y-6528333D01*
X14114762Y-6523571D01*
X14110000Y-6518809D01*
X14105238Y-6509286D01*
X14138571Y-6390238D02*
X14205238Y-6390238D01*
X14100476Y-6414048D02*
X14171905Y-6437857D01*
X14171905Y-6375952D01*
X15530714Y-7247381D02*
X15535476Y-7252143D01*
X15540238Y-7266428D01*
X15540238Y-7275952D01*
X15535476Y-7290238D01*
X15525952Y-7299762D01*
X15516429Y-7304524D01*
X15497381Y-7309286D01*
X15483095Y-7309286D01*
X15464048Y-7304524D01*
X15454524Y-7299762D01*
X15445000Y-7290238D01*
X15440238Y-7275952D01*
X15440238Y-7266428D01*
X15445000Y-7252143D01*
X15449762Y-7247381D01*
X15440238Y-7185476D02*
X15440238Y-7166428D01*
X15445000Y-7156905D01*
X15454524Y-7147381D01*
X15473571Y-7142619D01*
X15506905Y-7142619D01*
X15525952Y-7147381D01*
X15535476Y-7156905D01*
X15540238Y-7166428D01*
X15540238Y-7185476D01*
X15535476Y-7195000D01*
X15525952Y-7204524D01*
X15506905Y-7209286D01*
X15473571Y-7209286D01*
X15454524Y-7204524D01*
X15445000Y-7195000D01*
X15440238Y-7185476D01*
X15540238Y-7099762D02*
X15440238Y-7099762D01*
X15540238Y-7042619D01*
X15440238Y-7042619D01*
X15540238Y-6995000D02*
X15440238Y-6995000D01*
X15540238Y-6937857D01*
X15440238Y-6937857D01*
X15549762Y-6914048D02*
X15549762Y-6837857D01*
X15440238Y-6795000D02*
X15440238Y-6785476D01*
X15445000Y-6775952D01*
X15449762Y-6771190D01*
X15459286Y-6766428D01*
X15478333Y-6761667D01*
X15502143Y-6761667D01*
X15521190Y-6766428D01*
X15530714Y-6771190D01*
X15535476Y-6775952D01*
X15540238Y-6785476D01*
X15540238Y-6795000D01*
X15535476Y-6804524D01*
X15530714Y-6809286D01*
X15521190Y-6814048D01*
X15502143Y-6818809D01*
X15478333Y-6818809D01*
X15459286Y-6814048D01*
X15449762Y-6809286D01*
X15445000Y-6804524D01*
X15440238Y-6795000D01*
X15540238Y-6666428D02*
X15540238Y-6723571D01*
X15540238Y-6695000D02*
X15440238Y-6695000D01*
X15454524Y-6704524D01*
X15464048Y-6714048D01*
X15468809Y-6723571D01*
X15440238Y-6633095D02*
X15540238Y-6566428D01*
X15440238Y-6566428D02*
X15540238Y-6633095D01*
X15440238Y-6509286D02*
X15440238Y-6499762D01*
X15445000Y-6490238D01*
X15449762Y-6485476D01*
X15459286Y-6480714D01*
X15478333Y-6475952D01*
X15502143Y-6475952D01*
X15521190Y-6480714D01*
X15530714Y-6485476D01*
X15535476Y-6490238D01*
X15540238Y-6499762D01*
X15540238Y-6509286D01*
X15535476Y-6518809D01*
X15530714Y-6523571D01*
X15521190Y-6528333D01*
X15502143Y-6533095D01*
X15478333Y-6533095D01*
X15459286Y-6528333D01*
X15449762Y-6523571D01*
X15445000Y-6518809D01*
X15440238Y-6509286D01*
X15473571Y-6390238D02*
X15540238Y-6390238D01*
X15435476Y-6414048D02*
X15506905Y-6437857D01*
X15506905Y-6375952D01*
X16872714Y-7247381D02*
X16877476Y-7252143D01*
X16882238Y-7266428D01*
X16882238Y-7275952D01*
X16877476Y-7290238D01*
X16867952Y-7299762D01*
X16858429Y-7304524D01*
X16839381Y-7309286D01*
X16825095Y-7309286D01*
X16806048Y-7304524D01*
X16796524Y-7299762D01*
X16787000Y-7290238D01*
X16782238Y-7275952D01*
X16782238Y-7266428D01*
X16787000Y-7252143D01*
X16791762Y-7247381D01*
X16782238Y-7185476D02*
X16782238Y-7166428D01*
X16787000Y-7156905D01*
X16796524Y-7147381D01*
X16815571Y-7142619D01*
X16848905Y-7142619D01*
X16867952Y-7147381D01*
X16877476Y-7156905D01*
X16882238Y-7166428D01*
X16882238Y-7185476D01*
X16877476Y-7195000D01*
X16867952Y-7204524D01*
X16848905Y-7209286D01*
X16815571Y-7209286D01*
X16796524Y-7204524D01*
X16787000Y-7195000D01*
X16782238Y-7185476D01*
X16882238Y-7099762D02*
X16782238Y-7099762D01*
X16882238Y-7042619D01*
X16782238Y-7042619D01*
X16882238Y-6995000D02*
X16782238Y-6995000D01*
X16882238Y-6937857D01*
X16782238Y-6937857D01*
X16891762Y-6914048D02*
X16891762Y-6837857D01*
X16782238Y-6795000D02*
X16782238Y-6785476D01*
X16787000Y-6775952D01*
X16791762Y-6771190D01*
X16801286Y-6766428D01*
X16820333Y-6761667D01*
X16844143Y-6761667D01*
X16863191Y-6766428D01*
X16872714Y-6771190D01*
X16877476Y-6775952D01*
X16882238Y-6785476D01*
X16882238Y-6795000D01*
X16877476Y-6804524D01*
X16872714Y-6809286D01*
X16863191Y-6814048D01*
X16844143Y-6818809D01*
X16820333Y-6818809D01*
X16801286Y-6814048D01*
X16791762Y-6809286D01*
X16787000Y-6804524D01*
X16782238Y-6795000D01*
X16882238Y-6666428D02*
X16882238Y-6723571D01*
X16882238Y-6695000D02*
X16782238Y-6695000D01*
X16796524Y-6704524D01*
X16806048Y-6714048D01*
X16810810Y-6723571D01*
X16782238Y-6633095D02*
X16882238Y-6566428D01*
X16782238Y-6566428D02*
X16882238Y-6633095D01*
X16782238Y-6509286D02*
X16782238Y-6499762D01*
X16787000Y-6490238D01*
X16791762Y-6485476D01*
X16801286Y-6480714D01*
X16820333Y-6475952D01*
X16844143Y-6475952D01*
X16863191Y-6480714D01*
X16872714Y-6485476D01*
X16877476Y-6490238D01*
X16882238Y-6499762D01*
X16882238Y-6509286D01*
X16877476Y-6518809D01*
X16872714Y-6523571D01*
X16863191Y-6528333D01*
X16844143Y-6533095D01*
X16820333Y-6533095D01*
X16801286Y-6528333D01*
X16791762Y-6523571D01*
X16787000Y-6518809D01*
X16782238Y-6509286D01*
X16815571Y-6390238D02*
X16882238Y-6390238D01*
X16777476Y-6414048D02*
X16848905Y-6437857D01*
X16848905Y-6375952D01*
X14215714Y-8686381D02*
X14220476Y-8691143D01*
X14225238Y-8705429D01*
X14225238Y-8714952D01*
X14220476Y-8729238D01*
X14210952Y-8738762D01*
X14201429Y-8743524D01*
X14182381Y-8748286D01*
X14168095Y-8748286D01*
X14149048Y-8743524D01*
X14139524Y-8738762D01*
X14130000Y-8729238D01*
X14125238Y-8714952D01*
X14125238Y-8705429D01*
X14130000Y-8691143D01*
X14134762Y-8686381D01*
X14125238Y-8624476D02*
X14125238Y-8605429D01*
X14130000Y-8595905D01*
X14139524Y-8586381D01*
X14158571Y-8581619D01*
X14191905Y-8581619D01*
X14210952Y-8586381D01*
X14220476Y-8595905D01*
X14225238Y-8605429D01*
X14225238Y-8624476D01*
X14220476Y-8634000D01*
X14210952Y-8643524D01*
X14191905Y-8648286D01*
X14158571Y-8648286D01*
X14139524Y-8643524D01*
X14130000Y-8634000D01*
X14125238Y-8624476D01*
X14225238Y-8538762D02*
X14125238Y-8538762D01*
X14225238Y-8481619D01*
X14125238Y-8481619D01*
X14225238Y-8434000D02*
X14125238Y-8434000D01*
X14225238Y-8376857D01*
X14125238Y-8376857D01*
X14234762Y-8353048D02*
X14234762Y-8276857D01*
X14125238Y-8234000D02*
X14125238Y-8224476D01*
X14130000Y-8214952D01*
X14134762Y-8210190D01*
X14144286Y-8205428D01*
X14163333Y-8200667D01*
X14187143Y-8200667D01*
X14206190Y-8205428D01*
X14215714Y-8210190D01*
X14220476Y-8214952D01*
X14225238Y-8224476D01*
X14225238Y-8234000D01*
X14220476Y-8243524D01*
X14215714Y-8248286D01*
X14206190Y-8253048D01*
X14187143Y-8257809D01*
X14163333Y-8257809D01*
X14144286Y-8253048D01*
X14134762Y-8248286D01*
X14130000Y-8243524D01*
X14125238Y-8234000D01*
X14225238Y-8105428D02*
X14225238Y-8162571D01*
X14225238Y-8134000D02*
X14125238Y-8134000D01*
X14139524Y-8143524D01*
X14149048Y-8153048D01*
X14153809Y-8162571D01*
X14125238Y-8072095D02*
X14225238Y-8005428D01*
X14125238Y-8005428D02*
X14225238Y-8072095D01*
X14125238Y-7948286D02*
X14125238Y-7938762D01*
X14130000Y-7929238D01*
X14134762Y-7924476D01*
X14144286Y-7919714D01*
X14163333Y-7914952D01*
X14187143Y-7914952D01*
X14206190Y-7919714D01*
X14215714Y-7924476D01*
X14220476Y-7929238D01*
X14225238Y-7938762D01*
X14225238Y-7948286D01*
X14220476Y-7957809D01*
X14215714Y-7962571D01*
X14206190Y-7967333D01*
X14187143Y-7972095D01*
X14163333Y-7972095D01*
X14144286Y-7967333D01*
X14134762Y-7962571D01*
X14130000Y-7957809D01*
X14125238Y-7948286D01*
X14158571Y-7829238D02*
X14225238Y-7829238D01*
X14120476Y-7853048D02*
X14191905Y-7876857D01*
X14191905Y-7814952D01*
X15530714Y-8686381D02*
X15535476Y-8691143D01*
X15540238Y-8705429D01*
X15540238Y-8714952D01*
X15535476Y-8729238D01*
X15525952Y-8738762D01*
X15516429Y-8743524D01*
X15497381Y-8748286D01*
X15483095Y-8748286D01*
X15464048Y-8743524D01*
X15454524Y-8738762D01*
X15445000Y-8729238D01*
X15440238Y-8714952D01*
X15440238Y-8705429D01*
X15445000Y-8691143D01*
X15449762Y-8686381D01*
X15440238Y-8624476D02*
X15440238Y-8605429D01*
X15445000Y-8595905D01*
X15454524Y-8586381D01*
X15473571Y-8581619D01*
X15506905Y-8581619D01*
X15525952Y-8586381D01*
X15535476Y-8595905D01*
X15540238Y-8605429D01*
X15540238Y-8624476D01*
X15535476Y-8634000D01*
X15525952Y-8643524D01*
X15506905Y-8648286D01*
X15473571Y-8648286D01*
X15454524Y-8643524D01*
X15445000Y-8634000D01*
X15440238Y-8624476D01*
X15540238Y-8538762D02*
X15440238Y-8538762D01*
X15540238Y-8481619D01*
X15440238Y-8481619D01*
X15540238Y-8434000D02*
X15440238Y-8434000D01*
X15540238Y-8376857D01*
X15440238Y-8376857D01*
X15549762Y-8353048D02*
X15549762Y-8276857D01*
X15440238Y-8234000D02*
X15440238Y-8224476D01*
X15445000Y-8214952D01*
X15449762Y-8210190D01*
X15459286Y-8205428D01*
X15478333Y-8200667D01*
X15502143Y-8200667D01*
X15521190Y-8205428D01*
X15530714Y-8210190D01*
X15535476Y-8214952D01*
X15540238Y-8224476D01*
X15540238Y-8234000D01*
X15535476Y-8243524D01*
X15530714Y-8248286D01*
X15521190Y-8253048D01*
X15502143Y-8257809D01*
X15478333Y-8257809D01*
X15459286Y-8253048D01*
X15449762Y-8248286D01*
X15445000Y-8243524D01*
X15440238Y-8234000D01*
X15540238Y-8105428D02*
X15540238Y-8162571D01*
X15540238Y-8134000D02*
X15440238Y-8134000D01*
X15454524Y-8143524D01*
X15464048Y-8153048D01*
X15468809Y-8162571D01*
X15440238Y-8072095D02*
X15540238Y-8005428D01*
X15440238Y-8005428D02*
X15540238Y-8072095D01*
X15440238Y-7948286D02*
X15440238Y-7938762D01*
X15445000Y-7929238D01*
X15449762Y-7924476D01*
X15459286Y-7919714D01*
X15478333Y-7914952D01*
X15502143Y-7914952D01*
X15521190Y-7919714D01*
X15530714Y-7924476D01*
X15535476Y-7929238D01*
X15540238Y-7938762D01*
X15540238Y-7948286D01*
X15535476Y-7957809D01*
X15530714Y-7962571D01*
X15521190Y-7967333D01*
X15502143Y-7972095D01*
X15478333Y-7972095D01*
X15459286Y-7967333D01*
X15449762Y-7962571D01*
X15445000Y-7957809D01*
X15440238Y-7948286D01*
X15473571Y-7829238D02*
X15540238Y-7829238D01*
X15435476Y-7853048D02*
X15506905Y-7876857D01*
X15506905Y-7814952D01*
X16873714Y-8687381D02*
X16878476Y-8692143D01*
X16883238Y-8706429D01*
X16883238Y-8715952D01*
X16878476Y-8730238D01*
X16868952Y-8739762D01*
X16859429Y-8744524D01*
X16840381Y-8749286D01*
X16826095Y-8749286D01*
X16807048Y-8744524D01*
X16797524Y-8739762D01*
X16788000Y-8730238D01*
X16783238Y-8715952D01*
X16783238Y-8706429D01*
X16788000Y-8692143D01*
X16792762Y-8687381D01*
X16783238Y-8625476D02*
X16783238Y-8606429D01*
X16788000Y-8596905D01*
X16797524Y-8587381D01*
X16816571Y-8582619D01*
X16849905Y-8582619D01*
X16868952Y-8587381D01*
X16878476Y-8596905D01*
X16883238Y-8606429D01*
X16883238Y-8625476D01*
X16878476Y-8635000D01*
X16868952Y-8644524D01*
X16849905Y-8649286D01*
X16816571Y-8649286D01*
X16797524Y-8644524D01*
X16788000Y-8635000D01*
X16783238Y-8625476D01*
X16883238Y-8539762D02*
X16783238Y-8539762D01*
X16883238Y-8482619D01*
X16783238Y-8482619D01*
X16883238Y-8435000D02*
X16783238Y-8435000D01*
X16883238Y-8377857D01*
X16783238Y-8377857D01*
X16892762Y-8354048D02*
X16892762Y-8277857D01*
X16783238Y-8235000D02*
X16783238Y-8225476D01*
X16788000Y-8215952D01*
X16792762Y-8211190D01*
X16802286Y-8206428D01*
X16821333Y-8201667D01*
X16845143Y-8201667D01*
X16864191Y-8206428D01*
X16873714Y-8211190D01*
X16878476Y-8215952D01*
X16883238Y-8225476D01*
X16883238Y-8235000D01*
X16878476Y-8244524D01*
X16873714Y-8249286D01*
X16864191Y-8254048D01*
X16845143Y-8258809D01*
X16821333Y-8258809D01*
X16802286Y-8254048D01*
X16792762Y-8249286D01*
X16788000Y-8244524D01*
X16783238Y-8235000D01*
X16883238Y-8106428D02*
X16883238Y-8163571D01*
X16883238Y-8135000D02*
X16783238Y-8135000D01*
X16797524Y-8144524D01*
X16807048Y-8154048D01*
X16811810Y-8163571D01*
X16783238Y-8073095D02*
X16883238Y-8006428D01*
X16783238Y-8006428D02*
X16883238Y-8073095D01*
X16783238Y-7949286D02*
X16783238Y-7939762D01*
X16788000Y-7930238D01*
X16792762Y-7925476D01*
X16802286Y-7920714D01*
X16821333Y-7915952D01*
X16845143Y-7915952D01*
X16864191Y-7920714D01*
X16873714Y-7925476D01*
X16878476Y-7930238D01*
X16883238Y-7939762D01*
X16883238Y-7949286D01*
X16878476Y-7958809D01*
X16873714Y-7963571D01*
X16864191Y-7968333D01*
X16845143Y-7973095D01*
X16821333Y-7973095D01*
X16802286Y-7968333D01*
X16792762Y-7963571D01*
X16788000Y-7958809D01*
X16783238Y-7949286D01*
X16816571Y-7830238D02*
X16883238Y-7830238D01*
X16778476Y-7854048D02*
X16849905Y-7877857D01*
X16849905Y-7815952D01*
M02*
