G04 #@! TF.FileFunction,Legend,Bot*
%FSLAX45Y45*%
G04 Gerber Fmt 4.5, Leading zero omitted, Abs format (unit mm)*
G04 Created by KiCad (PCBNEW 4.0.6) date 09/06/17 16:41:29*
%MOMM*%
%LPD*%
G01*
G04 APERTURE LIST*
%ADD10C,0.100000*%
%ADD11C,0.300000*%
%ADD12C,0.400000*%
%ADD13C,0.120000*%
%ADD14C,0.150000*%
G04 APERTURE END LIST*
D10*
D11*
X13441714Y-11143571D02*
X13350286Y-11143571D01*
X13396000Y-11189286D02*
X13396000Y-11097857D01*
X14751429Y-10509286D02*
X14751429Y-10389286D01*
X14682857Y-10509286D02*
X14734286Y-10440714D01*
X14682857Y-10389286D02*
X14751429Y-10457857D01*
D12*
X13585180Y-11201000D02*
G75*
G03X13585180Y-11201000I-11180J0D01*
G01*
X13279180Y-10118000D02*
G75*
G03X13279180Y-10118000I-11180J0D01*
G01*
X14622180Y-5796000D02*
G75*
G03X14622180Y-5796000I-11180J0D01*
G01*
X13279180Y-5793000D02*
G75*
G03X13279180Y-5793000I-11180J0D01*
G01*
X15960180Y-5790000D02*
G75*
G03X15960180Y-5790000I-11180J0D01*
G01*
X15955180Y-10114000D02*
G75*
G03X15955180Y-10114000I-11180J0D01*
G01*
X14620180Y-10121000D02*
G75*
G03X14620180Y-10121000I-11180J0D01*
G01*
D13*
X16032800Y-6709080D02*
X16032800Y-6509080D01*
X15818800Y-6509080D02*
X15818800Y-6709080D01*
X13188080Y-5391480D02*
X13188080Y-5591480D01*
X12984080Y-5591480D02*
X12984080Y-5391480D01*
X14254880Y-5391480D02*
X14254880Y-5591480D01*
X14050880Y-5591480D02*
X14050880Y-5391480D01*
X14529200Y-5391480D02*
X14529200Y-5591480D01*
X14325200Y-5591480D02*
X14325200Y-5391480D01*
X15596000Y-5391480D02*
X15596000Y-5591480D01*
X15392000Y-5591480D02*
X15392000Y-5391480D01*
X15870320Y-5391480D02*
X15870320Y-5591480D01*
X15666320Y-5591480D02*
X15666320Y-5391480D01*
X16937120Y-5391480D02*
X16937120Y-5591480D01*
X16733120Y-5591480D02*
X16733120Y-5391480D01*
X13188080Y-9694240D02*
X13188080Y-9894240D01*
X12984080Y-9894240D02*
X12984080Y-9694240D01*
X14254880Y-9694240D02*
X14254880Y-9894240D01*
X14050880Y-9894240D02*
X14050880Y-9694240D01*
X14529200Y-9694240D02*
X14529200Y-9894240D01*
X14325200Y-9894240D02*
X14325200Y-9694240D01*
X15596000Y-9694240D02*
X15596000Y-9894240D01*
X15392000Y-9894240D02*
X15392000Y-9694240D01*
X15870320Y-9694240D02*
X15870320Y-9894240D01*
X15666320Y-9894240D02*
X15666320Y-9694240D01*
X16937120Y-9694240D02*
X16937120Y-9894240D01*
X16733120Y-9894240D02*
X16733120Y-9694240D01*
X15302000Y-11819000D02*
X15102000Y-11819000D01*
X15102000Y-11615000D02*
X15302000Y-11615000D01*
X16020720Y-10840400D02*
X15820720Y-10840400D01*
X15820720Y-11054400D02*
X16020720Y-11054400D01*
X16020720Y-11094400D02*
X15820720Y-11094400D01*
X15820720Y-11308400D02*
X16020720Y-11308400D01*
X13350560Y-6709080D02*
X13350560Y-6509080D01*
X13136560Y-6509080D02*
X13136560Y-6709080D01*
X14163360Y-6709080D02*
X14163360Y-6509080D01*
X13949360Y-6509080D02*
X13949360Y-6709080D01*
X14691680Y-6709080D02*
X14691680Y-6509080D01*
X14477680Y-6509080D02*
X14477680Y-6709080D01*
X15504480Y-6709080D02*
X15504480Y-6509080D01*
X15290480Y-6509080D02*
X15290480Y-6709080D01*
X16845600Y-6709080D02*
X16845600Y-6509080D01*
X16631600Y-6509080D02*
X16631600Y-6709080D01*
X13350560Y-8151800D02*
X13350560Y-7951800D01*
X13136560Y-7951800D02*
X13136560Y-8151800D01*
X14163360Y-8151800D02*
X14163360Y-7951800D01*
X13949360Y-7951800D02*
X13949360Y-8151800D01*
X14691680Y-8151800D02*
X14691680Y-7951800D01*
X14477680Y-7951800D02*
X14477680Y-8151800D01*
X15504480Y-8151800D02*
X15504480Y-7951800D01*
X15290480Y-7951800D02*
X15290480Y-8151800D01*
X16032800Y-8151800D02*
X16032800Y-7951800D01*
X15818800Y-7951800D02*
X15818800Y-8151800D01*
X16845600Y-8151800D02*
X16845600Y-7951800D01*
X16631600Y-7951800D02*
X16631600Y-8151800D01*
D14*
X13411980Y-5748980D02*
X13411980Y-5743980D01*
X13826980Y-5748980D02*
X13826980Y-5734480D01*
X13826980Y-5233980D02*
X13826980Y-5248480D01*
X13411980Y-5233980D02*
X13411980Y-5248480D01*
X13411980Y-5748980D02*
X13826980Y-5748980D01*
X13411980Y-5233980D02*
X13826980Y-5233980D01*
X13411980Y-5743980D02*
X13271980Y-5743980D01*
X14753100Y-5748980D02*
X14753100Y-5743980D01*
X15168100Y-5748980D02*
X15168100Y-5734480D01*
X15168100Y-5233980D02*
X15168100Y-5248480D01*
X14753100Y-5233980D02*
X14753100Y-5248480D01*
X14753100Y-5748980D02*
X15168100Y-5748980D01*
X14753100Y-5233980D02*
X15168100Y-5233980D01*
X14753100Y-5743980D02*
X14613100Y-5743980D01*
X16094220Y-5748980D02*
X16094220Y-5743980D01*
X16509220Y-5748980D02*
X16509220Y-5734480D01*
X16509220Y-5233980D02*
X16509220Y-5248480D01*
X16094220Y-5233980D02*
X16094220Y-5248480D01*
X16094220Y-5748980D02*
X16509220Y-5748980D01*
X16094220Y-5233980D02*
X16509220Y-5233980D01*
X16094220Y-5743980D02*
X15954220Y-5743980D01*
X13411980Y-10051740D02*
X13411980Y-10046740D01*
X13826980Y-10051740D02*
X13826980Y-10037240D01*
X13826980Y-9536740D02*
X13826980Y-9551240D01*
X13411980Y-9536740D02*
X13411980Y-9551240D01*
X13411980Y-10051740D02*
X13826980Y-10051740D01*
X13411980Y-9536740D02*
X13826980Y-9536740D01*
X13411980Y-10046740D02*
X13271980Y-10046740D01*
X14753100Y-10051740D02*
X14753100Y-10046740D01*
X15168100Y-10051740D02*
X15168100Y-10037240D01*
X15168100Y-9536740D02*
X15168100Y-9551240D01*
X14753100Y-9536740D02*
X14753100Y-9551240D01*
X14753100Y-10051740D02*
X15168100Y-10051740D01*
X14753100Y-9536740D02*
X15168100Y-9536740D01*
X14753100Y-10046740D02*
X14613100Y-10046740D01*
X16094220Y-10051740D02*
X16094220Y-10046740D01*
X16509220Y-10051740D02*
X16509220Y-10037240D01*
X16509220Y-9536740D02*
X16509220Y-9551240D01*
X16094220Y-9536740D02*
X16094220Y-9551240D01*
X16094220Y-10051740D02*
X16509220Y-10051740D01*
X16094220Y-9536740D02*
X16509220Y-9536740D01*
X16094220Y-10046740D02*
X15954220Y-10046740D01*
D13*
X14616000Y-10281000D02*
X14616000Y-10611000D01*
X14616000Y-10611000D02*
X14076000Y-10611000D01*
X14616000Y-10281000D02*
X14076000Y-10281000D01*
X13289000Y-11246000D02*
X13289000Y-11671000D01*
X13499000Y-11246000D02*
X13499000Y-11671000D01*
X13289000Y-11246000D02*
X13499000Y-11246000D01*
X14573000Y-11619000D02*
X14643000Y-11619000D01*
X14573000Y-11399000D02*
X14643000Y-11399000D01*
X13884000Y-11311000D02*
X14084000Y-11311000D01*
X14084000Y-11097000D02*
X13884000Y-11097000D01*
X13752000Y-11569000D02*
X13752000Y-11369000D01*
X13538000Y-11369000D02*
X13538000Y-11569000D01*
X14060000Y-11668000D02*
X13880000Y-11668000D01*
X13880000Y-11346000D02*
X14125000Y-11346000D01*
D14*
X15942667Y-6975238D02*
X15976000Y-6927619D01*
X15999809Y-6975238D02*
X15999809Y-6875238D01*
X15961714Y-6875238D01*
X15952190Y-6880000D01*
X15947428Y-6884762D01*
X15942667Y-6894286D01*
X15942667Y-6908571D01*
X15947428Y-6918095D01*
X15952190Y-6922857D01*
X15961714Y-6927619D01*
X15999809Y-6927619D01*
X15909333Y-6875238D02*
X15842667Y-6875238D01*
X15885524Y-6975238D01*
X13101667Y-5225714D02*
X13106428Y-5230476D01*
X13120714Y-5235238D01*
X13130238Y-5235238D01*
X13144524Y-5230476D01*
X13154048Y-5220952D01*
X13158809Y-5211429D01*
X13163571Y-5192381D01*
X13163571Y-5178095D01*
X13158809Y-5159048D01*
X13154048Y-5149524D01*
X13144524Y-5140000D01*
X13130238Y-5135238D01*
X13120714Y-5135238D01*
X13106428Y-5140000D01*
X13101667Y-5144762D01*
X13006428Y-5235238D02*
X13063571Y-5235238D01*
X13035000Y-5235238D02*
X13035000Y-5135238D01*
X13044524Y-5149524D01*
X13054048Y-5159048D01*
X13063571Y-5163810D01*
X14169667Y-5226714D02*
X14174428Y-5231476D01*
X14188714Y-5236238D01*
X14198238Y-5236238D01*
X14212524Y-5231476D01*
X14222048Y-5221952D01*
X14226809Y-5212429D01*
X14231571Y-5193381D01*
X14231571Y-5179095D01*
X14226809Y-5160048D01*
X14222048Y-5150524D01*
X14212524Y-5141000D01*
X14198238Y-5136238D01*
X14188714Y-5136238D01*
X14174428Y-5141000D01*
X14169667Y-5145762D01*
X14131571Y-5145762D02*
X14126809Y-5141000D01*
X14117286Y-5136238D01*
X14093476Y-5136238D01*
X14083952Y-5141000D01*
X14079190Y-5145762D01*
X14074428Y-5155286D01*
X14074428Y-5164810D01*
X14079190Y-5179095D01*
X14136333Y-5236238D01*
X14074428Y-5236238D01*
X14445667Y-5225714D02*
X14450428Y-5230476D01*
X14464714Y-5235238D01*
X14474238Y-5235238D01*
X14488524Y-5230476D01*
X14498048Y-5220952D01*
X14502809Y-5211429D01*
X14507571Y-5192381D01*
X14507571Y-5178095D01*
X14502809Y-5159048D01*
X14498048Y-5149524D01*
X14488524Y-5140000D01*
X14474238Y-5135238D01*
X14464714Y-5135238D01*
X14450428Y-5140000D01*
X14445667Y-5144762D01*
X14412333Y-5135238D02*
X14350428Y-5135238D01*
X14383762Y-5173333D01*
X14369476Y-5173333D01*
X14359952Y-5178095D01*
X14355190Y-5182857D01*
X14350428Y-5192381D01*
X14350428Y-5216191D01*
X14355190Y-5225714D01*
X14359952Y-5230476D01*
X14369476Y-5235238D01*
X14398048Y-5235238D01*
X14407571Y-5230476D01*
X14412333Y-5225714D01*
X15512667Y-5225714D02*
X15517428Y-5230476D01*
X15531714Y-5235238D01*
X15541238Y-5235238D01*
X15555524Y-5230476D01*
X15565048Y-5220952D01*
X15569809Y-5211429D01*
X15574571Y-5192381D01*
X15574571Y-5178095D01*
X15569809Y-5159048D01*
X15565048Y-5149524D01*
X15555524Y-5140000D01*
X15541238Y-5135238D01*
X15531714Y-5135238D01*
X15517428Y-5140000D01*
X15512667Y-5144762D01*
X15426952Y-5168571D02*
X15426952Y-5235238D01*
X15450762Y-5130476D02*
X15474571Y-5201905D01*
X15412667Y-5201905D01*
X15785667Y-5225714D02*
X15790428Y-5230476D01*
X15804714Y-5235238D01*
X15814238Y-5235238D01*
X15828524Y-5230476D01*
X15838048Y-5220952D01*
X15842809Y-5211429D01*
X15847571Y-5192381D01*
X15847571Y-5178095D01*
X15842809Y-5159048D01*
X15838048Y-5149524D01*
X15828524Y-5140000D01*
X15814238Y-5135238D01*
X15804714Y-5135238D01*
X15790428Y-5140000D01*
X15785667Y-5144762D01*
X15695190Y-5135238D02*
X15742809Y-5135238D01*
X15747571Y-5182857D01*
X15742809Y-5178095D01*
X15733286Y-5173333D01*
X15709476Y-5173333D01*
X15699952Y-5178095D01*
X15695190Y-5182857D01*
X15690428Y-5192381D01*
X15690428Y-5216191D01*
X15695190Y-5225714D01*
X15699952Y-5230476D01*
X15709476Y-5235238D01*
X15733286Y-5235238D01*
X15742809Y-5230476D01*
X15747571Y-5225714D01*
X16850667Y-5225714D02*
X16855429Y-5230476D01*
X16869714Y-5235238D01*
X16879238Y-5235238D01*
X16893524Y-5230476D01*
X16903048Y-5220952D01*
X16907810Y-5211429D01*
X16912571Y-5192381D01*
X16912571Y-5178095D01*
X16907810Y-5159048D01*
X16903048Y-5149524D01*
X16893524Y-5140000D01*
X16879238Y-5135238D01*
X16869714Y-5135238D01*
X16855429Y-5140000D01*
X16850667Y-5144762D01*
X16764952Y-5135238D02*
X16784000Y-5135238D01*
X16793524Y-5140000D01*
X16798286Y-5144762D01*
X16807810Y-5159048D01*
X16812571Y-5178095D01*
X16812571Y-5216191D01*
X16807810Y-5225714D01*
X16803048Y-5230476D01*
X16793524Y-5235238D01*
X16774476Y-5235238D01*
X16764952Y-5230476D01*
X16760190Y-5225714D01*
X16755428Y-5216191D01*
X16755428Y-5192381D01*
X16760190Y-5182857D01*
X16764952Y-5178095D01*
X16774476Y-5173333D01*
X16793524Y-5173333D01*
X16803048Y-5178095D01*
X16807810Y-5182857D01*
X16812571Y-5192381D01*
X13104667Y-10165714D02*
X13109428Y-10170476D01*
X13123714Y-10175238D01*
X13133238Y-10175238D01*
X13147524Y-10170476D01*
X13157048Y-10160952D01*
X13161809Y-10151429D01*
X13166571Y-10132381D01*
X13166571Y-10118095D01*
X13161809Y-10099048D01*
X13157048Y-10089524D01*
X13147524Y-10080000D01*
X13133238Y-10075238D01*
X13123714Y-10075238D01*
X13109428Y-10080000D01*
X13104667Y-10084762D01*
X13071333Y-10075238D02*
X13004667Y-10075238D01*
X13047524Y-10175238D01*
X14171667Y-10165714D02*
X14176428Y-10170476D01*
X14190714Y-10175238D01*
X14200238Y-10175238D01*
X14214524Y-10170476D01*
X14224048Y-10160952D01*
X14228809Y-10151429D01*
X14233571Y-10132381D01*
X14233571Y-10118095D01*
X14228809Y-10099048D01*
X14224048Y-10089524D01*
X14214524Y-10080000D01*
X14200238Y-10075238D01*
X14190714Y-10075238D01*
X14176428Y-10080000D01*
X14171667Y-10084762D01*
X14114524Y-10118095D02*
X14124048Y-10113333D01*
X14128809Y-10108571D01*
X14133571Y-10099048D01*
X14133571Y-10094286D01*
X14128809Y-10084762D01*
X14124048Y-10080000D01*
X14114524Y-10075238D01*
X14095476Y-10075238D01*
X14085952Y-10080000D01*
X14081190Y-10084762D01*
X14076428Y-10094286D01*
X14076428Y-10099048D01*
X14081190Y-10108571D01*
X14085952Y-10113333D01*
X14095476Y-10118095D01*
X14114524Y-10118095D01*
X14124048Y-10122857D01*
X14128809Y-10127619D01*
X14133571Y-10137143D01*
X14133571Y-10156191D01*
X14128809Y-10165714D01*
X14124048Y-10170476D01*
X14114524Y-10175238D01*
X14095476Y-10175238D01*
X14085952Y-10170476D01*
X14081190Y-10165714D01*
X14076428Y-10156191D01*
X14076428Y-10137143D01*
X14081190Y-10127619D01*
X14085952Y-10122857D01*
X14095476Y-10118095D01*
X14445667Y-10165714D02*
X14450428Y-10170476D01*
X14464714Y-10175238D01*
X14474238Y-10175238D01*
X14488524Y-10170476D01*
X14498048Y-10160952D01*
X14502809Y-10151429D01*
X14507571Y-10132381D01*
X14507571Y-10118095D01*
X14502809Y-10099048D01*
X14498048Y-10089524D01*
X14488524Y-10080000D01*
X14474238Y-10075238D01*
X14464714Y-10075238D01*
X14450428Y-10080000D01*
X14445667Y-10084762D01*
X14398048Y-10175238D02*
X14379000Y-10175238D01*
X14369476Y-10170476D01*
X14364714Y-10165714D01*
X14355190Y-10151429D01*
X14350428Y-10132381D01*
X14350428Y-10094286D01*
X14355190Y-10084762D01*
X14359952Y-10080000D01*
X14369476Y-10075238D01*
X14388524Y-10075238D01*
X14398048Y-10080000D01*
X14402809Y-10084762D01*
X14407571Y-10094286D01*
X14407571Y-10118095D01*
X14402809Y-10127619D01*
X14398048Y-10132381D01*
X14388524Y-10137143D01*
X14369476Y-10137143D01*
X14359952Y-10132381D01*
X14355190Y-10127619D01*
X14350428Y-10118095D01*
X15501286Y-10166714D02*
X15506048Y-10171476D01*
X15520333Y-10176238D01*
X15529857Y-10176238D01*
X15544143Y-10171476D01*
X15553667Y-10161952D01*
X15558429Y-10152429D01*
X15563190Y-10133381D01*
X15563190Y-10119095D01*
X15558429Y-10100048D01*
X15553667Y-10090524D01*
X15544143Y-10081000D01*
X15529857Y-10076238D01*
X15520333Y-10076238D01*
X15506048Y-10081000D01*
X15501286Y-10085762D01*
X15406048Y-10176238D02*
X15463190Y-10176238D01*
X15434619Y-10176238D02*
X15434619Y-10076238D01*
X15444143Y-10090524D01*
X15453667Y-10100048D01*
X15463190Y-10104810D01*
X15344143Y-10076238D02*
X15334619Y-10076238D01*
X15325095Y-10081000D01*
X15320333Y-10085762D01*
X15315571Y-10095286D01*
X15310809Y-10114333D01*
X15310809Y-10138143D01*
X15315571Y-10157191D01*
X15320333Y-10166714D01*
X15325095Y-10171476D01*
X15334619Y-10176238D01*
X15344143Y-10176238D01*
X15353667Y-10171476D01*
X15358429Y-10166714D01*
X15363190Y-10157191D01*
X15367952Y-10138143D01*
X15367952Y-10114333D01*
X15363190Y-10095286D01*
X15358429Y-10085762D01*
X15353667Y-10081000D01*
X15344143Y-10076238D01*
X15834286Y-10165714D02*
X15839048Y-10170476D01*
X15853333Y-10175238D01*
X15862857Y-10175238D01*
X15877143Y-10170476D01*
X15886667Y-10160952D01*
X15891429Y-10151429D01*
X15896190Y-10132381D01*
X15896190Y-10118095D01*
X15891429Y-10099048D01*
X15886667Y-10089524D01*
X15877143Y-10080000D01*
X15862857Y-10075238D01*
X15853333Y-10075238D01*
X15839048Y-10080000D01*
X15834286Y-10084762D01*
X15739048Y-10175238D02*
X15796190Y-10175238D01*
X15767619Y-10175238D02*
X15767619Y-10075238D01*
X15777143Y-10089524D01*
X15786667Y-10099048D01*
X15796190Y-10103810D01*
X15643809Y-10175238D02*
X15700952Y-10175238D01*
X15672381Y-10175238D02*
X15672381Y-10075238D01*
X15681905Y-10089524D01*
X15691429Y-10099048D01*
X15700952Y-10103810D01*
X17006286Y-10165714D02*
X17011048Y-10170476D01*
X17025333Y-10175238D01*
X17034857Y-10175238D01*
X17049143Y-10170476D01*
X17058667Y-10160952D01*
X17063429Y-10151429D01*
X17068191Y-10132381D01*
X17068191Y-10118095D01*
X17063429Y-10099048D01*
X17058667Y-10089524D01*
X17049143Y-10080000D01*
X17034857Y-10075238D01*
X17025333Y-10075238D01*
X17011048Y-10080000D01*
X17006286Y-10084762D01*
X16911048Y-10175238D02*
X16968191Y-10175238D01*
X16939619Y-10175238D02*
X16939619Y-10075238D01*
X16949143Y-10089524D01*
X16958667Y-10099048D01*
X16968191Y-10103810D01*
X16872952Y-10084762D02*
X16868191Y-10080000D01*
X16858667Y-10075238D01*
X16834857Y-10075238D01*
X16825333Y-10080000D01*
X16820571Y-10084762D01*
X16815810Y-10094286D01*
X16815810Y-10103810D01*
X16820571Y-10118095D01*
X16877714Y-10175238D01*
X16815810Y-10175238D01*
X15266286Y-11927714D02*
X15271048Y-11932476D01*
X15285333Y-11937238D01*
X15294857Y-11937238D01*
X15309143Y-11932476D01*
X15318667Y-11922952D01*
X15323429Y-11913429D01*
X15328190Y-11894381D01*
X15328190Y-11880095D01*
X15323429Y-11861048D01*
X15318667Y-11851524D01*
X15309143Y-11842000D01*
X15294857Y-11837238D01*
X15285333Y-11837238D01*
X15271048Y-11842000D01*
X15266286Y-11846762D01*
X15171048Y-11937238D02*
X15228190Y-11937238D01*
X15199619Y-11937238D02*
X15199619Y-11837238D01*
X15209143Y-11851524D01*
X15218667Y-11861048D01*
X15228190Y-11865809D01*
X15080571Y-11837238D02*
X15128190Y-11837238D01*
X15132952Y-11884857D01*
X15128190Y-11880095D01*
X15118667Y-11875333D01*
X15094857Y-11875333D01*
X15085333Y-11880095D01*
X15080571Y-11884857D01*
X15075809Y-11894381D01*
X15075809Y-11918190D01*
X15080571Y-11927714D01*
X15085333Y-11932476D01*
X15094857Y-11937238D01*
X15118667Y-11937238D01*
X15128190Y-11932476D01*
X15132952Y-11927714D01*
X15937667Y-10790238D02*
X15971000Y-10742619D01*
X15994809Y-10790238D02*
X15994809Y-10690238D01*
X15956714Y-10690238D01*
X15947190Y-10695000D01*
X15942428Y-10699762D01*
X15937667Y-10709286D01*
X15937667Y-10723571D01*
X15942428Y-10733095D01*
X15947190Y-10737857D01*
X15956714Y-10742619D01*
X15994809Y-10742619D01*
X15842428Y-10790238D02*
X15899571Y-10790238D01*
X15871000Y-10790238D02*
X15871000Y-10690238D01*
X15880524Y-10704524D01*
X15890048Y-10714048D01*
X15899571Y-10718810D01*
X15937667Y-11451238D02*
X15971000Y-11403619D01*
X15994809Y-11451238D02*
X15994809Y-11351238D01*
X15956714Y-11351238D01*
X15947190Y-11356000D01*
X15942428Y-11360762D01*
X15937667Y-11370286D01*
X15937667Y-11384571D01*
X15942428Y-11394095D01*
X15947190Y-11398857D01*
X15956714Y-11403619D01*
X15994809Y-11403619D01*
X15899571Y-11360762D02*
X15894809Y-11356000D01*
X15885286Y-11351238D01*
X15861476Y-11351238D01*
X15851952Y-11356000D01*
X15847190Y-11360762D01*
X15842428Y-11370286D01*
X15842428Y-11379809D01*
X15847190Y-11394095D01*
X15904333Y-11451238D01*
X15842428Y-11451238D01*
X13260667Y-6975238D02*
X13294000Y-6927619D01*
X13317809Y-6975238D02*
X13317809Y-6875238D01*
X13279714Y-6875238D01*
X13270190Y-6880000D01*
X13265428Y-6884762D01*
X13260667Y-6894286D01*
X13260667Y-6908571D01*
X13265428Y-6918095D01*
X13270190Y-6922857D01*
X13279714Y-6927619D01*
X13317809Y-6927619D01*
X13227333Y-6875238D02*
X13165428Y-6875238D01*
X13198762Y-6913333D01*
X13184476Y-6913333D01*
X13174952Y-6918095D01*
X13170190Y-6922857D01*
X13165428Y-6932381D01*
X13165428Y-6956190D01*
X13170190Y-6965714D01*
X13174952Y-6970476D01*
X13184476Y-6975238D01*
X13213048Y-6975238D01*
X13222571Y-6970476D01*
X13227333Y-6965714D01*
X14072667Y-6975238D02*
X14106000Y-6927619D01*
X14129809Y-6975238D02*
X14129809Y-6875238D01*
X14091714Y-6875238D01*
X14082190Y-6880000D01*
X14077428Y-6884762D01*
X14072667Y-6894286D01*
X14072667Y-6908571D01*
X14077428Y-6918095D01*
X14082190Y-6922857D01*
X14091714Y-6927619D01*
X14129809Y-6927619D01*
X13986952Y-6908571D02*
X13986952Y-6975238D01*
X14010762Y-6870476D02*
X14034571Y-6941905D01*
X13972667Y-6941905D01*
X14600667Y-6975238D02*
X14634000Y-6927619D01*
X14657809Y-6975238D02*
X14657809Y-6875238D01*
X14619714Y-6875238D01*
X14610190Y-6880000D01*
X14605428Y-6884762D01*
X14600667Y-6894286D01*
X14600667Y-6908571D01*
X14605428Y-6918095D01*
X14610190Y-6922857D01*
X14619714Y-6927619D01*
X14657809Y-6927619D01*
X14510190Y-6875238D02*
X14557809Y-6875238D01*
X14562571Y-6922857D01*
X14557809Y-6918095D01*
X14548286Y-6913333D01*
X14524476Y-6913333D01*
X14514952Y-6918095D01*
X14510190Y-6922857D01*
X14505428Y-6932381D01*
X14505428Y-6956190D01*
X14510190Y-6965714D01*
X14514952Y-6970476D01*
X14524476Y-6975238D01*
X14548286Y-6975238D01*
X14557809Y-6970476D01*
X14562571Y-6965714D01*
X15413667Y-6975238D02*
X15447000Y-6927619D01*
X15470809Y-6975238D02*
X15470809Y-6875238D01*
X15432714Y-6875238D01*
X15423190Y-6880000D01*
X15418428Y-6884762D01*
X15413667Y-6894286D01*
X15413667Y-6908571D01*
X15418428Y-6918095D01*
X15423190Y-6922857D01*
X15432714Y-6927619D01*
X15470809Y-6927619D01*
X15327952Y-6875238D02*
X15347000Y-6875238D01*
X15356524Y-6880000D01*
X15361286Y-6884762D01*
X15370809Y-6899048D01*
X15375571Y-6918095D01*
X15375571Y-6956190D01*
X15370809Y-6965714D01*
X15366048Y-6970476D01*
X15356524Y-6975238D01*
X15337476Y-6975238D01*
X15327952Y-6970476D01*
X15323190Y-6965714D01*
X15318428Y-6956190D01*
X15318428Y-6932381D01*
X15323190Y-6922857D01*
X15327952Y-6918095D01*
X15337476Y-6913333D01*
X15356524Y-6913333D01*
X15366048Y-6918095D01*
X15370809Y-6922857D01*
X15375571Y-6932381D01*
X16755667Y-6975238D02*
X16789000Y-6927619D01*
X16812810Y-6975238D02*
X16812810Y-6875238D01*
X16774714Y-6875238D01*
X16765190Y-6880000D01*
X16760428Y-6884762D01*
X16755667Y-6894286D01*
X16755667Y-6908571D01*
X16760428Y-6918095D01*
X16765190Y-6922857D01*
X16774714Y-6927619D01*
X16812810Y-6927619D01*
X16698524Y-6918095D02*
X16708048Y-6913333D01*
X16712809Y-6908571D01*
X16717571Y-6899048D01*
X16717571Y-6894286D01*
X16712809Y-6884762D01*
X16708048Y-6880000D01*
X16698524Y-6875238D01*
X16679476Y-6875238D01*
X16669952Y-6880000D01*
X16665190Y-6884762D01*
X16660428Y-6894286D01*
X16660428Y-6899048D01*
X16665190Y-6908571D01*
X16669952Y-6913333D01*
X16679476Y-6918095D01*
X16698524Y-6918095D01*
X16708048Y-6922857D01*
X16712809Y-6927619D01*
X16717571Y-6937143D01*
X16717571Y-6956190D01*
X16712809Y-6965714D01*
X16708048Y-6970476D01*
X16698524Y-6975238D01*
X16679476Y-6975238D01*
X16669952Y-6970476D01*
X16665190Y-6965714D01*
X16660428Y-6956190D01*
X16660428Y-6937143D01*
X16665190Y-6927619D01*
X16669952Y-6922857D01*
X16679476Y-6918095D01*
X13261667Y-8425238D02*
X13295000Y-8377619D01*
X13318809Y-8425238D02*
X13318809Y-8325238D01*
X13280714Y-8325238D01*
X13271190Y-8330000D01*
X13266428Y-8334762D01*
X13261667Y-8344286D01*
X13261667Y-8358571D01*
X13266428Y-8368095D01*
X13271190Y-8372857D01*
X13280714Y-8377619D01*
X13318809Y-8377619D01*
X13214048Y-8425238D02*
X13195000Y-8425238D01*
X13185476Y-8420476D01*
X13180714Y-8415714D01*
X13171190Y-8401429D01*
X13166428Y-8382381D01*
X13166428Y-8344286D01*
X13171190Y-8334762D01*
X13175952Y-8330000D01*
X13185476Y-8325238D01*
X13204524Y-8325238D01*
X13214048Y-8330000D01*
X13218809Y-8334762D01*
X13223571Y-8344286D01*
X13223571Y-8368095D01*
X13218809Y-8377619D01*
X13214048Y-8382381D01*
X13204524Y-8387143D01*
X13185476Y-8387143D01*
X13175952Y-8382381D01*
X13171190Y-8377619D01*
X13166428Y-8368095D01*
X14119286Y-8425238D02*
X14152619Y-8377619D01*
X14176429Y-8425238D02*
X14176429Y-8325238D01*
X14138333Y-8325238D01*
X14128809Y-8330000D01*
X14124048Y-8334762D01*
X14119286Y-8344286D01*
X14119286Y-8358571D01*
X14124048Y-8368095D01*
X14128809Y-8372857D01*
X14138333Y-8377619D01*
X14176429Y-8377619D01*
X14024048Y-8425238D02*
X14081190Y-8425238D01*
X14052619Y-8425238D02*
X14052619Y-8325238D01*
X14062143Y-8339524D01*
X14071667Y-8349048D01*
X14081190Y-8353809D01*
X13962143Y-8325238D02*
X13952619Y-8325238D01*
X13943095Y-8330000D01*
X13938333Y-8334762D01*
X13933571Y-8344286D01*
X13928809Y-8363333D01*
X13928809Y-8387143D01*
X13933571Y-8406191D01*
X13938333Y-8415714D01*
X13943095Y-8420476D01*
X13952619Y-8425238D01*
X13962143Y-8425238D01*
X13971667Y-8420476D01*
X13976429Y-8415714D01*
X13981190Y-8406191D01*
X13985952Y-8387143D01*
X13985952Y-8363333D01*
X13981190Y-8344286D01*
X13976429Y-8334762D01*
X13971667Y-8330000D01*
X13962143Y-8325238D01*
X14647286Y-8425238D02*
X14680619Y-8377619D01*
X14704429Y-8425238D02*
X14704429Y-8325238D01*
X14666333Y-8325238D01*
X14656809Y-8330000D01*
X14652048Y-8334762D01*
X14647286Y-8344286D01*
X14647286Y-8358571D01*
X14652048Y-8368095D01*
X14656809Y-8372857D01*
X14666333Y-8377619D01*
X14704429Y-8377619D01*
X14552048Y-8425238D02*
X14609190Y-8425238D01*
X14580619Y-8425238D02*
X14580619Y-8325238D01*
X14590143Y-8339524D01*
X14599667Y-8349048D01*
X14609190Y-8353809D01*
X14456809Y-8425238D02*
X14513952Y-8425238D01*
X14485381Y-8425238D02*
X14485381Y-8325238D01*
X14494905Y-8339524D01*
X14504429Y-8349048D01*
X14513952Y-8353809D01*
X15462286Y-8425238D02*
X15495619Y-8377619D01*
X15519429Y-8425238D02*
X15519429Y-8325238D01*
X15481333Y-8325238D01*
X15471809Y-8330000D01*
X15467048Y-8334762D01*
X15462286Y-8344286D01*
X15462286Y-8358571D01*
X15467048Y-8368095D01*
X15471809Y-8372857D01*
X15481333Y-8377619D01*
X15519429Y-8377619D01*
X15367048Y-8425238D02*
X15424190Y-8425238D01*
X15395619Y-8425238D02*
X15395619Y-8325238D01*
X15405143Y-8339524D01*
X15414667Y-8349048D01*
X15424190Y-8353809D01*
X15328952Y-8334762D02*
X15324190Y-8330000D01*
X15314667Y-8325238D01*
X15290857Y-8325238D01*
X15281333Y-8330000D01*
X15276571Y-8334762D01*
X15271809Y-8344286D01*
X15271809Y-8353809D01*
X15276571Y-8368095D01*
X15333714Y-8425238D01*
X15271809Y-8425238D01*
X15989286Y-8425238D02*
X16022619Y-8377619D01*
X16046429Y-8425238D02*
X16046429Y-8325238D01*
X16008333Y-8325238D01*
X15998809Y-8330000D01*
X15994048Y-8334762D01*
X15989286Y-8344286D01*
X15989286Y-8358571D01*
X15994048Y-8368095D01*
X15998809Y-8372857D01*
X16008333Y-8377619D01*
X16046429Y-8377619D01*
X15894048Y-8425238D02*
X15951190Y-8425238D01*
X15922619Y-8425238D02*
X15922619Y-8325238D01*
X15932143Y-8339524D01*
X15941667Y-8349048D01*
X15951190Y-8353809D01*
X15860714Y-8325238D02*
X15798809Y-8325238D01*
X15832143Y-8363333D01*
X15817857Y-8363333D01*
X15808333Y-8368095D01*
X15803571Y-8372857D01*
X15798809Y-8382381D01*
X15798809Y-8406191D01*
X15803571Y-8415714D01*
X15808333Y-8420476D01*
X15817857Y-8425238D01*
X15846429Y-8425238D01*
X15855952Y-8420476D01*
X15860714Y-8415714D01*
X16802286Y-8425238D02*
X16835619Y-8377619D01*
X16859429Y-8425238D02*
X16859429Y-8325238D01*
X16821333Y-8325238D01*
X16811810Y-8330000D01*
X16807048Y-8334762D01*
X16802286Y-8344286D01*
X16802286Y-8358571D01*
X16807048Y-8368095D01*
X16811810Y-8372857D01*
X16821333Y-8377619D01*
X16859429Y-8377619D01*
X16707048Y-8425238D02*
X16764190Y-8425238D01*
X16735619Y-8425238D02*
X16735619Y-8325238D01*
X16745143Y-8339524D01*
X16754667Y-8349048D01*
X16764190Y-8353809D01*
X16621333Y-8358571D02*
X16621333Y-8425238D01*
X16645143Y-8320476D02*
X16668952Y-8391905D01*
X16607048Y-8391905D01*
X13696190Y-5075238D02*
X13696190Y-5156191D01*
X13691429Y-5165714D01*
X13686667Y-5170476D01*
X13677143Y-5175238D01*
X13658095Y-5175238D01*
X13648571Y-5170476D01*
X13643809Y-5165714D01*
X13639048Y-5156191D01*
X13639048Y-5075238D01*
X13539048Y-5175238D02*
X13596190Y-5175238D01*
X13567619Y-5175238D02*
X13567619Y-5075238D01*
X13577143Y-5089524D01*
X13586667Y-5099048D01*
X13596190Y-5103810D01*
X15036190Y-5075238D02*
X15036190Y-5156191D01*
X15031429Y-5165714D01*
X15026667Y-5170476D01*
X15017143Y-5175238D01*
X14998095Y-5175238D01*
X14988571Y-5170476D01*
X14983809Y-5165714D01*
X14979048Y-5156191D01*
X14979048Y-5075238D01*
X14936190Y-5084762D02*
X14931429Y-5080000D01*
X14921905Y-5075238D01*
X14898095Y-5075238D01*
X14888571Y-5080000D01*
X14883809Y-5084762D01*
X14879048Y-5094286D01*
X14879048Y-5103810D01*
X14883809Y-5118095D01*
X14940952Y-5175238D01*
X14879048Y-5175238D01*
X16379190Y-5075238D02*
X16379190Y-5156191D01*
X16374429Y-5165714D01*
X16369667Y-5170476D01*
X16360143Y-5175238D01*
X16341095Y-5175238D01*
X16331571Y-5170476D01*
X16326809Y-5165714D01*
X16322048Y-5156191D01*
X16322048Y-5075238D01*
X16283952Y-5075238D02*
X16222048Y-5075238D01*
X16255381Y-5113333D01*
X16241095Y-5113333D01*
X16231571Y-5118095D01*
X16226809Y-5122857D01*
X16222048Y-5132381D01*
X16222048Y-5156191D01*
X16226809Y-5165714D01*
X16231571Y-5170476D01*
X16241095Y-5175238D01*
X16269667Y-5175238D01*
X16279190Y-5170476D01*
X16283952Y-5165714D01*
X13695670Y-10089478D02*
X13695670Y-10170431D01*
X13690909Y-10179954D01*
X13686147Y-10184716D01*
X13676623Y-10189478D01*
X13657575Y-10189478D01*
X13648051Y-10184716D01*
X13643289Y-10179954D01*
X13638528Y-10170431D01*
X13638528Y-10089478D01*
X13548051Y-10122811D02*
X13548051Y-10189478D01*
X13571861Y-10084716D02*
X13595670Y-10156145D01*
X13533766Y-10156145D01*
X15036790Y-10089478D02*
X15036790Y-10170431D01*
X15032029Y-10179954D01*
X15027267Y-10184716D01*
X15017743Y-10189478D01*
X14998695Y-10189478D01*
X14989171Y-10184716D01*
X14984409Y-10179954D01*
X14979648Y-10170431D01*
X14979648Y-10089478D01*
X14889171Y-10089478D02*
X14908219Y-10089478D01*
X14917743Y-10094240D01*
X14922505Y-10099002D01*
X14932029Y-10113288D01*
X14936790Y-10132335D01*
X14936790Y-10170431D01*
X14932029Y-10179954D01*
X14927267Y-10184716D01*
X14917743Y-10189478D01*
X14898695Y-10189478D01*
X14889171Y-10184716D01*
X14884409Y-10179954D01*
X14879648Y-10170431D01*
X14879648Y-10146621D01*
X14884409Y-10137097D01*
X14889171Y-10132335D01*
X14898695Y-10127573D01*
X14917743Y-10127573D01*
X14927267Y-10132335D01*
X14932029Y-10137097D01*
X14936790Y-10146621D01*
X16377910Y-10089478D02*
X16377910Y-10170431D01*
X16373149Y-10179954D01*
X16368387Y-10184716D01*
X16358863Y-10189478D01*
X16339815Y-10189478D01*
X16330291Y-10184716D01*
X16325529Y-10179954D01*
X16320768Y-10170431D01*
X16320768Y-10089478D01*
X16282672Y-10089478D02*
X16216006Y-10089478D01*
X16258863Y-10189478D01*
X14565809Y-10772238D02*
X14565809Y-10672238D01*
X14542000Y-10672238D01*
X14527714Y-10677000D01*
X14518190Y-10686524D01*
X14513428Y-10696048D01*
X14508667Y-10715095D01*
X14508667Y-10729381D01*
X14513428Y-10748429D01*
X14518190Y-10757952D01*
X14527714Y-10767476D01*
X14542000Y-10772238D01*
X14565809Y-10772238D01*
X14413428Y-10772238D02*
X14470571Y-10772238D01*
X14442000Y-10772238D02*
X14442000Y-10672238D01*
X14451524Y-10686524D01*
X14461048Y-10696048D01*
X14470571Y-10700810D01*
X13174714Y-11446714D02*
X13179476Y-11441952D01*
X13184238Y-11427667D01*
X13184238Y-11418143D01*
X13179476Y-11403857D01*
X13169952Y-11394333D01*
X13160429Y-11389571D01*
X13141381Y-11384809D01*
X13127095Y-11384809D01*
X13108048Y-11389571D01*
X13098524Y-11394333D01*
X13089000Y-11403857D01*
X13084238Y-11418143D01*
X13084238Y-11427667D01*
X13089000Y-11441952D01*
X13093762Y-11446714D01*
X13184238Y-11541952D02*
X13184238Y-11484809D01*
X13184238Y-11513381D02*
X13084238Y-11513381D01*
X13098524Y-11503857D01*
X13108048Y-11494333D01*
X13112809Y-11484809D01*
X13084238Y-11575286D02*
X13084238Y-11637190D01*
X13122333Y-11603857D01*
X13122333Y-11618143D01*
X13127095Y-11627667D01*
X13131857Y-11632429D01*
X13141381Y-11637190D01*
X13165190Y-11637190D01*
X13174714Y-11632429D01*
X13179476Y-11627667D01*
X13184238Y-11618143D01*
X13184238Y-11589571D01*
X13179476Y-11580048D01*
X13174714Y-11575286D01*
X14624667Y-11769238D02*
X14672286Y-11769238D01*
X14672286Y-11669238D01*
X14538952Y-11769238D02*
X14596095Y-11769238D01*
X14567524Y-11769238D02*
X14567524Y-11669238D01*
X14577048Y-11683524D01*
X14586571Y-11693048D01*
X14596095Y-11697809D01*
X13959286Y-11065238D02*
X13992619Y-11017619D01*
X14016429Y-11065238D02*
X14016429Y-10965238D01*
X13978333Y-10965238D01*
X13968809Y-10970000D01*
X13964048Y-10974762D01*
X13959286Y-10984286D01*
X13959286Y-10998571D01*
X13964048Y-11008095D01*
X13968809Y-11012857D01*
X13978333Y-11017619D01*
X14016429Y-11017619D01*
X13864048Y-11065238D02*
X13921190Y-11065238D01*
X13892619Y-11065238D02*
X13892619Y-10965238D01*
X13902143Y-10979524D01*
X13911667Y-10989048D01*
X13921190Y-10993810D01*
X13773571Y-10965238D02*
X13821190Y-10965238D01*
X13825952Y-11012857D01*
X13821190Y-11008095D01*
X13811667Y-11003333D01*
X13787857Y-11003333D01*
X13778333Y-11008095D01*
X13773571Y-11012857D01*
X13768809Y-11022381D01*
X13768809Y-11046191D01*
X13773571Y-11055714D01*
X13778333Y-11060476D01*
X13787857Y-11065238D01*
X13811667Y-11065238D01*
X13821190Y-11060476D01*
X13825952Y-11055714D01*
X13709286Y-11843238D02*
X13742619Y-11795619D01*
X13766429Y-11843238D02*
X13766429Y-11743238D01*
X13728333Y-11743238D01*
X13718809Y-11748000D01*
X13714048Y-11752762D01*
X13709286Y-11762286D01*
X13709286Y-11776571D01*
X13714048Y-11786095D01*
X13718809Y-11790857D01*
X13728333Y-11795619D01*
X13766429Y-11795619D01*
X13614048Y-11843238D02*
X13671190Y-11843238D01*
X13642619Y-11843238D02*
X13642619Y-11743238D01*
X13652143Y-11757524D01*
X13661667Y-11767048D01*
X13671190Y-11771809D01*
X13528333Y-11743238D02*
X13547381Y-11743238D01*
X13556905Y-11748000D01*
X13561667Y-11752762D01*
X13571190Y-11767048D01*
X13575952Y-11786095D01*
X13575952Y-11824190D01*
X13571190Y-11833714D01*
X13566429Y-11838476D01*
X13556905Y-11843238D01*
X13537857Y-11843238D01*
X13528333Y-11838476D01*
X13523571Y-11833714D01*
X13518809Y-11824190D01*
X13518809Y-11800381D01*
X13523571Y-11790857D01*
X13528333Y-11786095D01*
X13537857Y-11781333D01*
X13556905Y-11781333D01*
X13566429Y-11786095D01*
X13571190Y-11790857D01*
X13575952Y-11800381D01*
X14046190Y-11744238D02*
X14046190Y-11825190D01*
X14041429Y-11834714D01*
X14036667Y-11839476D01*
X14027143Y-11844238D01*
X14008095Y-11844238D01*
X13998571Y-11839476D01*
X13993809Y-11834714D01*
X13989048Y-11825190D01*
X13989048Y-11744238D01*
X13893809Y-11744238D02*
X13941429Y-11744238D01*
X13946190Y-11791857D01*
X13941429Y-11787095D01*
X13931905Y-11782333D01*
X13908095Y-11782333D01*
X13898571Y-11787095D01*
X13893809Y-11791857D01*
X13889048Y-11801381D01*
X13889048Y-11825190D01*
X13893809Y-11834714D01*
X13898571Y-11839476D01*
X13908095Y-11844238D01*
X13931905Y-11844238D01*
X13941429Y-11839476D01*
X13946190Y-11834714D01*
M02*
