G04 #@! TF.FileFunction,Copper,L2,Bot,Signal*
%FSLAX45Y45*%
G04 Gerber Fmt 4.5, Leading zero omitted, Abs format (unit mm)*
G04 Created by KiCad (PCBNEW 4.0.6) date 09/06/17 16:41:29*
%MOMM*%
%LPD*%
G01*
G04 APERTURE LIST*
%ADD10C,0.100000*%
%ADD11C,1.520000*%
%ADD12C,2.700000*%
%ADD13R,1.700000X0.900000*%
%ADD14R,1.600000X1.000000*%
%ADD15R,1.000000X1.600000*%
%ADD16R,0.900000X1.700000*%
%ADD17R,1.550000X0.600000*%
%ADD18R,1.700000X1.700000*%
%ADD19O,1.700000X1.700000*%
%ADD20R,2.500000X1.800000*%
%ADD21R,1.600000X1.600000*%
%ADD22C,1.600000*%
%ADD23C,1.700000*%
%ADD24R,1.500000X1.950000*%
%ADD25R,1.200000X2.200000*%
%ADD26R,1.060000X0.650000*%
%ADD27C,1.000000*%
%ADD28C,0.750000*%
%ADD29C,0.500000*%
%ADD30C,0.400000*%
G04 APERTURE END LIST*
D10*
D11*
X13490000Y-10446000D03*
X13744000Y-10446000D03*
X13744000Y-10646000D03*
X13490000Y-10646000D03*
D12*
X13017000Y-10916000D03*
X14217000Y-10916000D03*
D13*
X15925800Y-6464080D03*
X15925800Y-6754080D03*
D14*
X13086080Y-5641480D03*
X13086080Y-5341480D03*
X14152880Y-5641480D03*
X14152880Y-5341480D03*
X14427200Y-5641480D03*
X14427200Y-5341480D03*
X15494000Y-5641480D03*
X15494000Y-5341480D03*
X15768320Y-5641480D03*
X15768320Y-5341480D03*
X16835120Y-5641480D03*
X16835120Y-5341480D03*
X13086080Y-9944240D03*
X13086080Y-9644240D03*
X14152880Y-9944240D03*
X14152880Y-9644240D03*
X14427200Y-9944240D03*
X14427200Y-9644240D03*
X15494000Y-9944240D03*
X15494000Y-9644240D03*
X15768320Y-9944240D03*
X15768320Y-9644240D03*
X16835120Y-9944240D03*
X16835120Y-9644240D03*
D15*
X15052000Y-11717000D03*
X15352000Y-11717000D03*
D16*
X15775720Y-10947400D03*
X16065720Y-10947400D03*
X15775720Y-11201400D03*
X16065720Y-11201400D03*
D13*
X13243560Y-6464080D03*
X13243560Y-6754080D03*
X14056360Y-6464080D03*
X14056360Y-6754080D03*
X14584680Y-6464080D03*
X14584680Y-6754080D03*
X15397480Y-6464080D03*
X15397480Y-6754080D03*
X16738600Y-6464080D03*
X16738600Y-6754080D03*
X13243560Y-7906800D03*
X13243560Y-8196800D03*
X14056360Y-7906800D03*
X14056360Y-8196800D03*
X14584680Y-7906800D03*
X14584680Y-8196800D03*
X15397480Y-7906800D03*
X15397480Y-8196800D03*
X15925800Y-7906800D03*
X15925800Y-8196800D03*
X16738600Y-7906800D03*
X16738600Y-8196800D03*
D17*
X13349480Y-5681980D03*
X13349480Y-5554980D03*
X13349480Y-5427980D03*
X13349480Y-5300980D03*
X13889480Y-5300980D03*
X13889480Y-5427980D03*
X13889480Y-5554980D03*
X13889480Y-5681980D03*
X14690600Y-5681980D03*
X14690600Y-5554980D03*
X14690600Y-5427980D03*
X14690600Y-5300980D03*
X15230600Y-5300980D03*
X15230600Y-5427980D03*
X15230600Y-5554980D03*
X15230600Y-5681980D03*
X16031720Y-5681980D03*
X16031720Y-5554980D03*
X16031720Y-5427980D03*
X16031720Y-5300980D03*
X16571720Y-5300980D03*
X16571720Y-5427980D03*
X16571720Y-5554980D03*
X16571720Y-5681980D03*
X13349480Y-9984740D03*
X13349480Y-9857740D03*
X13349480Y-9730740D03*
X13349480Y-9603740D03*
X13889480Y-9603740D03*
X13889480Y-9730740D03*
X13889480Y-9857740D03*
X13889480Y-9984740D03*
X14690600Y-9984740D03*
X14690600Y-9857740D03*
X14690600Y-9730740D03*
X14690600Y-9603740D03*
X15230600Y-9603740D03*
X15230600Y-9730740D03*
X15230600Y-9857740D03*
X15230600Y-9984740D03*
X16031720Y-9984740D03*
X16031720Y-9857740D03*
X16031720Y-9730740D03*
X16031720Y-9603740D03*
X16571720Y-9603740D03*
X16571720Y-9730740D03*
X16571720Y-9857740D03*
X16571720Y-9984740D03*
D18*
X13365480Y-5923280D03*
D19*
X13619480Y-5923280D03*
X13873480Y-5923280D03*
D18*
X14706600Y-5923280D03*
D19*
X14960600Y-5923280D03*
X15214600Y-5923280D03*
D18*
X16047720Y-5923280D03*
D19*
X16301720Y-5923280D03*
X16555720Y-5923280D03*
D18*
X13365480Y-9179560D03*
D19*
X13619480Y-9179560D03*
X13873480Y-9179560D03*
D18*
X14706600Y-9179560D03*
D19*
X14960600Y-9179560D03*
X15214600Y-9179560D03*
D18*
X16047720Y-9179560D03*
D19*
X16301720Y-9179560D03*
X16555720Y-9179560D03*
D20*
X14476000Y-10446000D03*
X14076000Y-10446000D03*
D21*
X15086000Y-11086000D03*
D22*
X15336000Y-11086000D03*
D18*
X16301720Y-10693400D03*
D23*
X16301720Y-10947400D03*
X16301720Y-11201400D03*
X16301720Y-11455400D03*
D18*
X13619480Y-6461760D03*
D23*
X13619480Y-6715760D03*
X13619480Y-6969760D03*
X13619480Y-7223760D03*
D18*
X14960600Y-6461760D03*
D23*
X14960600Y-6715760D03*
X14960600Y-6969760D03*
X14960600Y-7223760D03*
D18*
X16301720Y-6461760D03*
D23*
X16301720Y-6715760D03*
X16301720Y-6969760D03*
X16301720Y-7223760D03*
D18*
X13619480Y-7904480D03*
D23*
X13619480Y-8158480D03*
X13619480Y-8412480D03*
X13619480Y-8666480D03*
D18*
X14960600Y-7904480D03*
D23*
X14960600Y-8158480D03*
X14960600Y-8412480D03*
X14960600Y-8666480D03*
D18*
X16301720Y-7904480D03*
D23*
X16301720Y-8158480D03*
X16301720Y-8412480D03*
X16301720Y-8666480D03*
D24*
X13394000Y-11373500D03*
X13394000Y-11648500D03*
D25*
X14468000Y-11509000D03*
X14748000Y-11509000D03*
D16*
X14129000Y-11204000D03*
X13839000Y-11204000D03*
D13*
X13645000Y-11324000D03*
X13645000Y-11614000D03*
D26*
X14080000Y-11412000D03*
X14080000Y-11507000D03*
X14080000Y-11602000D03*
X13860000Y-11602000D03*
X13860000Y-11412000D03*
D27*
X15086000Y-10508000D03*
X13624560Y-5430520D03*
X13624560Y-5430520D03*
X13624560Y-5430520D03*
X13624560Y-5430520D03*
X13624560Y-5430520D03*
X13624560Y-5430520D03*
X13624560Y-5430520D03*
X17077000Y-7435000D03*
X16209000Y-9730000D03*
X14866000Y-9730000D03*
X13526000Y-9729000D03*
X16296640Y-5425440D03*
X14960600Y-5425440D03*
X13624560Y-5430520D03*
X13528040Y-5557520D03*
X13528040Y-5557520D03*
X13528040Y-5557520D03*
X13528040Y-5557520D03*
X13528040Y-5557520D03*
X13528040Y-5557520D03*
X13528040Y-5557520D03*
X16738600Y-10175240D03*
X13526000Y-9858000D03*
X14866000Y-9857000D03*
X16187000Y-9857000D03*
X16205200Y-5557520D03*
X14869160Y-5557520D03*
X13528040Y-5557520D03*
X14285000Y-11508000D03*
X15339000Y-10511000D03*
X16835000Y-9500000D03*
X15769000Y-9500000D03*
X15495000Y-9500000D03*
X14691000Y-9500000D03*
X14153000Y-9500000D03*
X13349000Y-9499000D03*
D28*
X14129000Y-11204000D02*
X14646000Y-11204000D01*
X14748000Y-11306000D02*
X14748000Y-11509000D01*
X14646000Y-11204000D02*
X14748000Y-11306000D01*
X14748000Y-11509000D02*
X15040000Y-11509000D01*
X15052000Y-11521000D02*
X15040000Y-11509000D01*
X15052000Y-11521000D02*
X15052000Y-11717000D01*
X15086000Y-11086000D02*
X15086000Y-10508000D01*
X15052000Y-11717000D02*
X15052000Y-11120000D01*
X15052000Y-11120000D02*
X15086000Y-11086000D01*
X13931000Y-10768000D02*
X13931000Y-11019000D01*
X14476000Y-10575000D02*
X14389000Y-10662000D01*
X14389000Y-10662000D02*
X14037000Y-10662000D01*
X14037000Y-10662000D02*
X13931000Y-10768000D01*
X14476000Y-10446000D02*
X14476000Y-10575000D01*
X13931000Y-11019000D02*
X13928000Y-11022000D01*
X14080000Y-11412000D02*
X14080000Y-11392000D01*
X14080000Y-11392000D02*
X13984000Y-11296000D01*
X13984000Y-11078000D02*
X13928000Y-11022000D01*
X13984000Y-11296000D02*
X13984000Y-11078000D01*
X13928000Y-11022000D02*
X13775000Y-11022000D01*
X13394000Y-11208000D02*
X13394000Y-11373500D01*
X13451000Y-11151000D02*
X13394000Y-11208000D01*
X13646000Y-11151000D02*
X13451000Y-11151000D01*
X13775000Y-11022000D02*
X13646000Y-11151000D01*
X13394000Y-11373500D02*
X13423500Y-11373500D01*
X13423500Y-11373500D02*
X13519000Y-11469000D01*
X13519000Y-11469000D02*
X13727000Y-11469000D01*
X13727000Y-11469000D02*
X13860000Y-11602000D01*
X14476000Y-10446000D02*
X14476000Y-10119360D01*
D29*
X15775720Y-10947400D02*
X15775720Y-10797760D01*
X15775720Y-10797760D02*
X15880080Y-10693400D01*
X15775720Y-11201400D02*
X15775720Y-10947400D01*
D28*
X16031720Y-9984740D02*
X16146780Y-9984740D01*
X16301720Y-10139680D02*
X16301720Y-10693400D01*
X16146780Y-9984740D02*
X16301720Y-10139680D01*
D29*
X15880080Y-10693400D02*
X16301720Y-10693400D01*
D28*
X13365480Y-9179560D02*
X13141440Y-9179560D01*
X13141440Y-9179560D02*
X12905000Y-9416000D01*
X13365480Y-5923280D02*
X13290720Y-5923280D01*
X13290720Y-5923280D02*
X12931000Y-6283000D01*
X13365480Y-8981480D02*
X13365480Y-9179560D01*
X12931000Y-8547000D02*
X13365480Y-8981480D01*
X12931000Y-6283000D02*
X12931000Y-8547000D01*
X16031720Y-9984740D02*
X15808820Y-9984740D01*
D30*
X15808820Y-9984740D02*
X15768320Y-9944240D01*
X14690600Y-9984740D02*
X14690600Y-10119360D01*
D28*
X14427200Y-9944240D02*
X14427200Y-10119360D01*
D30*
X13349480Y-9984740D02*
X13349480Y-10119360D01*
D28*
X15768320Y-9944240D02*
X15768320Y-10017760D01*
X13349480Y-10119360D02*
X13182600Y-10119360D01*
X15666720Y-10119360D02*
X14690600Y-10119360D01*
X14690600Y-10119360D02*
X14476000Y-10119360D01*
X14476000Y-10119360D02*
X14427200Y-10119360D01*
X14427200Y-10119360D02*
X13349480Y-10119360D01*
X15768320Y-10017760D02*
X15666720Y-10119360D01*
D30*
X13365480Y-5923280D02*
X13365480Y-5697980D01*
X13365480Y-5697980D02*
X13349480Y-5681980D01*
X14706600Y-5923280D02*
X14706600Y-5697980D01*
X14706600Y-5697980D02*
X14690600Y-5681980D01*
X16047720Y-5923280D02*
X16047720Y-5697980D01*
X16047720Y-5697980D02*
X16031720Y-5681980D01*
X15768320Y-5641480D02*
X15768320Y-5648960D01*
X15768320Y-5648960D02*
X15801340Y-5681980D01*
X15801340Y-5681980D02*
X16031720Y-5681980D01*
X14427200Y-5641480D02*
X14427200Y-5654040D01*
X14427200Y-5654040D02*
X14455140Y-5681980D01*
X14455140Y-5681980D02*
X14690600Y-5681980D01*
X13349480Y-5681980D02*
X13126580Y-5681980D01*
X13126580Y-5681980D02*
X13086080Y-5641480D01*
D28*
X12905000Y-9416000D02*
X12905000Y-9887000D01*
X12962240Y-9944240D02*
X13086080Y-9944240D01*
X12905000Y-9887000D02*
X12962240Y-9944240D01*
X13086080Y-10022840D02*
X13086080Y-9944240D01*
X13182600Y-10119360D02*
X13086080Y-10022840D01*
D29*
X16209000Y-9730000D02*
X16236000Y-9730000D01*
X16413000Y-10073000D02*
X17077000Y-10073000D01*
X16284000Y-9944000D02*
X16413000Y-10073000D01*
X16284000Y-9778000D02*
X16284000Y-9944000D01*
X16236000Y-9730000D02*
X16284000Y-9778000D01*
X17077000Y-7435000D02*
X17077000Y-10073000D01*
X16836600Y-11201400D02*
X16301720Y-11201400D01*
X17077000Y-10073000D02*
X17077000Y-10961000D01*
X17077000Y-10961000D02*
X16836600Y-11201400D01*
X16208260Y-9730740D02*
X16031720Y-9730740D01*
X16209000Y-9730000D02*
X16208260Y-9730740D01*
X13349480Y-9730740D02*
X13524260Y-9730740D01*
X14865260Y-9730740D02*
X14690600Y-9730740D01*
X14866000Y-9730000D02*
X14865260Y-9730740D01*
X13524260Y-9730740D02*
X13526000Y-9729000D01*
X16065720Y-11201400D02*
X16301720Y-11201400D01*
D30*
X16294100Y-5427980D02*
X16031720Y-5427980D01*
X16296640Y-5425440D02*
X16294100Y-5427980D01*
X13349480Y-5427980D02*
X13622020Y-5427980D01*
X14958060Y-5427980D02*
X14690600Y-5427980D01*
X14960600Y-5425440D02*
X14958060Y-5427980D01*
X13622020Y-5427980D02*
X13624560Y-5430520D01*
D29*
X16301720Y-10947400D02*
X16565880Y-10947400D01*
X16738600Y-10774680D02*
X16738600Y-10175240D01*
X16565880Y-10947400D02*
X16738600Y-10774680D01*
X16301720Y-10947400D02*
X16065720Y-10947400D01*
X13525740Y-9857740D02*
X13349480Y-9857740D01*
X13526000Y-9858000D02*
X13525740Y-9857740D01*
X14865260Y-9857740D02*
X14690600Y-9857740D01*
X16031720Y-9857740D02*
X16186740Y-9856740D01*
D30*
X16202660Y-5554980D02*
X16031720Y-5554980D01*
X16205200Y-5557520D02*
X16202660Y-5554980D01*
X13349480Y-5554980D02*
X13525500Y-5554980D01*
X14866620Y-5554980D02*
X14690600Y-5554980D01*
X14869160Y-5557520D02*
X14866620Y-5554980D01*
X13525500Y-5554980D02*
X13528040Y-5557520D01*
D28*
X13645000Y-11614000D02*
X13644000Y-11739000D01*
X14152001Y-11507911D02*
X14284911Y-11507911D01*
D29*
X14080000Y-11507000D02*
X14152001Y-11507911D01*
D28*
X14284911Y-11507911D02*
X14285000Y-11508000D01*
X13619480Y-8666480D02*
X13942000Y-8666480D01*
X13942480Y-8666480D02*
X14153000Y-8877000D01*
X14153000Y-8877000D02*
X14153000Y-9500000D01*
X14025760Y-7223760D02*
X13942000Y-7223760D01*
X13942000Y-7223760D02*
X13619480Y-7223760D01*
X15336000Y-10514000D02*
X15336000Y-11086000D01*
X15339000Y-10511000D02*
X15336000Y-10514000D01*
X15352000Y-11717000D02*
X15352000Y-11851000D01*
X13757000Y-11907000D02*
X13757000Y-11739000D01*
X13853000Y-12003000D02*
X13757000Y-11907000D01*
X15200000Y-12003000D02*
X13853000Y-12003000D01*
X15352000Y-11851000D02*
X15200000Y-12003000D01*
X15352000Y-11717000D02*
X15352000Y-11102000D01*
X15352000Y-11102000D02*
X15336000Y-11086000D01*
X15352000Y-11717000D02*
X16204000Y-11717000D01*
X16301720Y-11619280D02*
X16301720Y-11455400D01*
X16204000Y-11717000D02*
X16301720Y-11619280D01*
X13744000Y-10646000D02*
X13744000Y-10793000D01*
X13238000Y-11710000D02*
X13393000Y-11710000D01*
X13168000Y-11640000D02*
X13238000Y-11710000D01*
X13168000Y-11140000D02*
X13168000Y-11640000D01*
X13392000Y-10916000D02*
X13168000Y-11140000D01*
X13621000Y-10916000D02*
X13392000Y-10916000D01*
X13744000Y-10793000D02*
X13621000Y-10916000D01*
X13757000Y-11739000D02*
X13644000Y-11739000D01*
X13644000Y-11739000D02*
X13422000Y-11739000D01*
X13422000Y-11739000D02*
X13393000Y-11710000D01*
X14025760Y-7223760D02*
X14025760Y-7223760D01*
D29*
X16835120Y-9499880D02*
X16835120Y-9499000D01*
X16835000Y-9500000D02*
X16835120Y-9499880D01*
X15768320Y-9500680D02*
X15768320Y-9644240D01*
X15769000Y-9500000D02*
X15768320Y-9500680D01*
X15495000Y-9500000D02*
X15494000Y-9500000D01*
X14690600Y-9500400D02*
X14690600Y-9603740D01*
X14691000Y-9500000D02*
X14690600Y-9500400D01*
X13349480Y-9603740D02*
X13349480Y-9500480D01*
X14153000Y-9500000D02*
X14152880Y-9500000D01*
X13349000Y-9500000D02*
X13349000Y-9499000D01*
X13349480Y-9500480D02*
X13349000Y-9500000D01*
D28*
X16301720Y-8666480D02*
X16652240Y-8666480D01*
X16835120Y-8849360D02*
X16835120Y-9499000D01*
X16652240Y-8666480D02*
X16835120Y-8849360D01*
D30*
X16835120Y-9499000D02*
X16835120Y-9644240D01*
X14152880Y-9500000D02*
X14152880Y-9644240D01*
D28*
X14960600Y-8666480D02*
X15316200Y-8666480D01*
X15494000Y-8844280D02*
X15494000Y-9500000D01*
X15316200Y-8666480D02*
X15494000Y-8844280D01*
D30*
X15494000Y-9500000D02*
X15494000Y-9644240D01*
X16031720Y-9603740D02*
X15808820Y-9603740D01*
X15808820Y-9603740D02*
X15768320Y-9644240D01*
X14690600Y-9603740D02*
X14467700Y-9603740D01*
X14467700Y-9603740D02*
X14427200Y-9644240D01*
X13349480Y-9603740D02*
X13126580Y-9603740D01*
X13126580Y-9603740D02*
X13086080Y-9644240D01*
D28*
X14960600Y-7223760D02*
X14025760Y-7223760D01*
X16301720Y-7223760D02*
X14960600Y-7223760D01*
X16835120Y-5341480D02*
X16934320Y-5341480D01*
X16934320Y-5341480D02*
X17063720Y-5470880D01*
X17063720Y-5470880D02*
X17063720Y-6817360D01*
X17063720Y-6817360D02*
X16657320Y-7223760D01*
X16657320Y-7223760D02*
X16301720Y-7223760D01*
D30*
X14690600Y-5300980D02*
X14690600Y-5171440D01*
X16031720Y-5300980D02*
X16031720Y-5171440D01*
X13349480Y-5300980D02*
X13349480Y-5223000D01*
X13401040Y-5171440D02*
X14690600Y-5171440D01*
X13349480Y-5223000D02*
X13401040Y-5171440D01*
X14690600Y-5171440D02*
X16031720Y-5171440D01*
X16835120Y-5247640D02*
X16835120Y-5341480D01*
X16031720Y-5171440D02*
X16758920Y-5171440D01*
X16758920Y-5171440D02*
X16835120Y-5247640D01*
D29*
X15494000Y-5341480D02*
X15768320Y-5341480D01*
X15768320Y-5341480D02*
X15808820Y-5300980D01*
X15808820Y-5300980D02*
X16031720Y-5300980D01*
X14152880Y-5341480D02*
X14427200Y-5341480D01*
X14427200Y-5341480D02*
X14467700Y-5300980D01*
X14467700Y-5300980D02*
X14690600Y-5300980D01*
X13086080Y-5341480D02*
X13086080Y-5318760D01*
X13086080Y-5318760D02*
X13103860Y-5300980D01*
X13103860Y-5300980D02*
X13349480Y-5300980D01*
D30*
X13619480Y-6461760D02*
X14054040Y-6461760D01*
X14054040Y-6461760D02*
X14056360Y-6464080D01*
X13243560Y-6464080D02*
X13617160Y-6464080D01*
X13617160Y-6464080D02*
X13619480Y-6461760D01*
D28*
X13619480Y-5923280D02*
X13619480Y-6461760D01*
D29*
X13889480Y-5681980D02*
X14135100Y-5681980D01*
X14135100Y-5681980D02*
X14152880Y-5641480D01*
X13889480Y-5681980D02*
X13708380Y-5681980D01*
X13708380Y-5681980D02*
X13619480Y-5770880D01*
X13619480Y-5770880D02*
X13619480Y-5923280D01*
X14152880Y-5641480D02*
X14152880Y-5664200D01*
X14152880Y-5664200D02*
X14135100Y-5681980D01*
D28*
X14960600Y-5923280D02*
X14960600Y-6461760D01*
D30*
X14960600Y-6461760D02*
X15395160Y-6461760D01*
X15395160Y-6461760D02*
X15397480Y-6464080D01*
X14584680Y-6464080D02*
X14958280Y-6464080D01*
X14958280Y-6464080D02*
X14960600Y-6461760D01*
D29*
X15230600Y-5681980D02*
X15455900Y-5681980D01*
X15455900Y-5681980D02*
X15494000Y-5641480D01*
X15230600Y-5681980D02*
X15064740Y-5681980D01*
X14960600Y-5786120D02*
X14960600Y-5923280D01*
X15064740Y-5681980D02*
X14960600Y-5786120D01*
X15494000Y-5641480D02*
X15494000Y-5643880D01*
X15494000Y-5643880D02*
X15455900Y-5681980D01*
D28*
X16301720Y-5923280D02*
X16301720Y-6461760D01*
D30*
X16301720Y-6461760D02*
X16736280Y-6461760D01*
X16736280Y-6461760D02*
X16738600Y-6464080D01*
X15925800Y-6464080D02*
X16299400Y-6464080D01*
X16299400Y-6464080D02*
X16301720Y-6461760D01*
D29*
X16571720Y-5681980D02*
X16786860Y-5681980D01*
X16786860Y-5681980D02*
X16835120Y-5641480D01*
X16571720Y-5681980D02*
X16390620Y-5681980D01*
X16301720Y-5770880D02*
X16301720Y-5923280D01*
X16390620Y-5681980D02*
X16301720Y-5770880D01*
X16835120Y-5641480D02*
X16827360Y-5641480D01*
X16827360Y-5641480D02*
X16786860Y-5681980D01*
D28*
X13243560Y-7906800D02*
X13063440Y-7906800D01*
X13063440Y-7906800D02*
X13051640Y-7918600D01*
X13051640Y-7918600D02*
X13051640Y-8489800D01*
X13051640Y-8489800D02*
X13619480Y-9057640D01*
X13619480Y-9057640D02*
X13619480Y-9179560D01*
X13243560Y-7906800D02*
X13617160Y-7906800D01*
D30*
X13617160Y-7906800D02*
X13619480Y-7904480D01*
X14056360Y-7906800D02*
X13621800Y-7906800D01*
X13621800Y-7906800D02*
X13619480Y-7904480D01*
X13619480Y-9179560D02*
X13619480Y-9814560D01*
X13619480Y-9814560D02*
X13789660Y-9984740D01*
X13789660Y-9984740D02*
X13889480Y-9984740D01*
X13889480Y-9984740D02*
X14112380Y-9984740D01*
X14112380Y-9984740D02*
X14152880Y-9944240D01*
D28*
X14584680Y-7906800D02*
X14404560Y-7906800D01*
X14404560Y-7906800D02*
X14335760Y-7975600D01*
X14335760Y-7975600D02*
X14335760Y-8432800D01*
X14335760Y-8432800D02*
X14960600Y-9057640D01*
X14960600Y-9057640D02*
X14960600Y-9179560D01*
X14960600Y-7904480D02*
X14587000Y-7904480D01*
D30*
X14587000Y-7904480D02*
X14584680Y-7906800D01*
X15397480Y-7906800D02*
X14962920Y-7906800D01*
X14962920Y-7906800D02*
X14960600Y-7904480D01*
X14960600Y-9179560D02*
X14960600Y-9814560D01*
X14960600Y-9814560D02*
X15130780Y-9984740D01*
X15130780Y-9984740D02*
X15230600Y-9984740D01*
X15230600Y-9984740D02*
X15453500Y-9984740D01*
X15453500Y-9984740D02*
X15494000Y-9944240D01*
X16571720Y-9984740D02*
X16494740Y-9984740D01*
X16494740Y-9984740D02*
X16356000Y-9846000D01*
X16301720Y-9383720D02*
X16301720Y-9179560D01*
X16356000Y-9438000D02*
X16301720Y-9383720D01*
X16356000Y-9846000D02*
X16356000Y-9438000D01*
D28*
X15925800Y-7906800D02*
X15750760Y-7906800D01*
X15750760Y-7906800D02*
X15676880Y-7980680D01*
X15676880Y-7980680D02*
X15676880Y-8432800D01*
X15676880Y-8432800D02*
X16301720Y-9057640D01*
X16301720Y-9057640D02*
X16301720Y-9179560D01*
X16301720Y-7904480D02*
X15928120Y-7904480D01*
D30*
X15928120Y-7904480D02*
X15925800Y-7906800D01*
X16738600Y-7906800D02*
X16304040Y-7906800D01*
X16304040Y-7906800D02*
X16301720Y-7904480D01*
X16571720Y-9984740D02*
X16794620Y-9984740D01*
X16794620Y-9984740D02*
X16835120Y-9944240D01*
X13889480Y-5554980D02*
X13698220Y-5554980D01*
X13698220Y-5554980D02*
X13492480Y-5760720D01*
X13619480Y-6715760D02*
X13281880Y-6715760D01*
X13281880Y-6715760D02*
X13243560Y-6754080D01*
X13124400Y-6754080D02*
X13243560Y-6754080D01*
X13045440Y-6675120D02*
X13124400Y-6754080D01*
X13045440Y-6390640D02*
X13045440Y-6675120D01*
X13182600Y-6253480D02*
X13045440Y-6390640D01*
X13340080Y-6253480D02*
X13182600Y-6253480D01*
X13492480Y-6101080D02*
X13340080Y-6253480D01*
X13492480Y-5760720D02*
X13492480Y-6101080D01*
X13889480Y-5427980D02*
X13982700Y-5427980D01*
X14168120Y-6746240D02*
X14064200Y-6746240D01*
X14290040Y-6624320D02*
X14168120Y-6746240D01*
X14290040Y-5572760D02*
X14290040Y-6624320D01*
X14208760Y-5491480D02*
X14290040Y-5572760D01*
X14046200Y-5491480D02*
X14208760Y-5491480D01*
X13982700Y-5427980D02*
X14046200Y-5491480D01*
X14064200Y-6746240D02*
X14056360Y-6754080D01*
X14056360Y-6754080D02*
X14056360Y-6812280D01*
X13898880Y-6969760D02*
X13619480Y-6969760D01*
X14056360Y-6812280D02*
X13898880Y-6969760D01*
X15230600Y-5554980D02*
X15039340Y-5554980D01*
X14470600Y-6754080D02*
X14584680Y-6754080D01*
X14391640Y-6675120D02*
X14470600Y-6754080D01*
X14391640Y-6395720D02*
X14391640Y-6675120D01*
X14528800Y-6258560D02*
X14391640Y-6395720D01*
X14681200Y-6258560D02*
X14528800Y-6258560D01*
X14833600Y-6106160D02*
X14681200Y-6258560D01*
X14833600Y-5760720D02*
X14833600Y-6106160D01*
X15039340Y-5554980D02*
X14833600Y-5760720D01*
X14960600Y-6715760D02*
X14623000Y-6715760D01*
X14623000Y-6715760D02*
X14584680Y-6754080D01*
X14962920Y-6713440D02*
X14960600Y-6715760D01*
X15397480Y-6754080D02*
X15397480Y-6812280D01*
X15240000Y-6969760D02*
X14960600Y-6969760D01*
X15397480Y-6812280D02*
X15240000Y-6969760D01*
X15230600Y-5427980D02*
X15333980Y-5427980D01*
X15506480Y-6754080D02*
X15397480Y-6754080D01*
X15631160Y-6629400D02*
X15506480Y-6754080D01*
X15631160Y-5567680D02*
X15631160Y-6629400D01*
X15554960Y-5491480D02*
X15631160Y-5567680D01*
X15397480Y-5491480D02*
X15554960Y-5491480D01*
X15333980Y-5427980D02*
X15397480Y-5491480D01*
X16301720Y-6715760D02*
X15964120Y-6715760D01*
X15964120Y-6715760D02*
X15925800Y-6754080D01*
X16571720Y-5554980D02*
X16380460Y-5554980D01*
X15811720Y-6754080D02*
X15925800Y-6754080D01*
X15732760Y-6675120D02*
X15811720Y-6754080D01*
X15732760Y-6395720D02*
X15732760Y-6675120D01*
X15880080Y-6248400D02*
X15732760Y-6395720D01*
X16032480Y-6248400D02*
X15880080Y-6248400D01*
X16174720Y-6106160D02*
X16032480Y-6248400D01*
X16174720Y-5760720D02*
X16174720Y-6106160D01*
X16380460Y-5554980D02*
X16174720Y-5760720D01*
X16571720Y-5427980D02*
X16664940Y-5427980D01*
X16847600Y-6754080D02*
X16738600Y-6754080D01*
X16972280Y-6629400D02*
X16847600Y-6754080D01*
X16972280Y-5567680D02*
X16972280Y-6629400D01*
X16896080Y-5491480D02*
X16972280Y-5567680D01*
X16728440Y-5491480D02*
X16896080Y-5491480D01*
X16664940Y-5427980D02*
X16728440Y-5491480D01*
X16738600Y-6754080D02*
X16738600Y-6812280D01*
X16581120Y-6969760D02*
X16301720Y-6969760D01*
X16738600Y-6812280D02*
X16581120Y-6969760D01*
X13243560Y-8196800D02*
X13243560Y-8544560D01*
X13789660Y-9857740D02*
X13889480Y-9857740D01*
X13746480Y-9814560D02*
X13789660Y-9857740D01*
X13746480Y-9047480D02*
X13746480Y-9814560D01*
X13243560Y-8544560D02*
X13746480Y-9047480D01*
X13619480Y-8158480D02*
X13281880Y-8158480D01*
X13281880Y-8158480D02*
X13243560Y-8196800D01*
X14056360Y-8196800D02*
X14056360Y-8407400D01*
X14056360Y-8407400D02*
X14061440Y-8412480D01*
X13889480Y-9730740D02*
X13982700Y-9730740D01*
X14061440Y-8412480D02*
X13619480Y-8412480D01*
X14290040Y-8641080D02*
X14061440Y-8412480D01*
X14290040Y-9733280D02*
X14290040Y-8641080D01*
X14229080Y-9794240D02*
X14290040Y-9733280D01*
X14046200Y-9794240D02*
X14229080Y-9794240D01*
X13982700Y-9730740D02*
X14046200Y-9794240D01*
X14584680Y-8196800D02*
X14584680Y-8544560D01*
X15130780Y-9857740D02*
X15230600Y-9857740D01*
X15087600Y-9814560D02*
X15130780Y-9857740D01*
X15087600Y-9047480D02*
X15087600Y-9814560D01*
X14584680Y-8544560D02*
X15087600Y-9047480D01*
X14960600Y-8158480D02*
X14623000Y-8158480D01*
X14623000Y-8158480D02*
X14584680Y-8196800D01*
X15397480Y-8196800D02*
X15397480Y-8407400D01*
X15397480Y-8407400D02*
X15392400Y-8412480D01*
X15230600Y-9730740D02*
X15323820Y-9730740D01*
X15392400Y-8412480D02*
X14960600Y-8412480D01*
X15631160Y-8651240D02*
X15392400Y-8412480D01*
X15631160Y-9728200D02*
X15631160Y-8651240D01*
X15565120Y-9794240D02*
X15631160Y-9728200D01*
X15387320Y-9794240D02*
X15565120Y-9794240D01*
X15323820Y-9730740D02*
X15387320Y-9794240D01*
X15925800Y-8196800D02*
X15925800Y-8544560D01*
X16471900Y-9857740D02*
X16571720Y-9857740D01*
X16428720Y-9814560D02*
X16471900Y-9857740D01*
X16428720Y-9047480D02*
X16428720Y-9814560D01*
X15925800Y-8544560D02*
X16428720Y-9047480D01*
X16301720Y-8158480D02*
X15964120Y-8158480D01*
X15964120Y-8158480D02*
X15925800Y-8196800D01*
X16738600Y-8196800D02*
X16738600Y-8412480D01*
X16571720Y-9730740D02*
X16670020Y-9730740D01*
X16738600Y-8412480D02*
X16301720Y-8412480D01*
X16972280Y-8646160D02*
X16738600Y-8412480D01*
X16972280Y-9718040D02*
X16972280Y-8646160D01*
X16896080Y-9794240D02*
X16972280Y-9718040D01*
X16733520Y-9794240D02*
X16896080Y-9794240D01*
X16670020Y-9730740D02*
X16733520Y-9794240D01*
D28*
X13744000Y-10446000D02*
X14076000Y-10446000D01*
X14080000Y-11602000D02*
X14080000Y-11656000D01*
X14080000Y-11656000D02*
X14143000Y-11719000D01*
X14143000Y-11719000D02*
X14411000Y-11719000D01*
X14411000Y-11719000D02*
X14468000Y-11662000D01*
X14468000Y-11662000D02*
X14468000Y-11509000D01*
D29*
X13645000Y-11324000D02*
X13839000Y-11324000D01*
X13860000Y-11412000D02*
X13860000Y-11381000D01*
X13860000Y-11381000D02*
X13839000Y-11360000D01*
X13839000Y-11360000D02*
X13839000Y-11324000D01*
X13839000Y-11324000D02*
X13839000Y-11204000D01*
M02*
