G04 #@! TF.FileFunction,Copper,L2,Bot,Signal*
%FSLAX46Y46*%
G04 Gerber Fmt 4.6, Leading zero omitted, Abs format (unit mm)*
G04 Created by KiCad (PCBNEW 4.0.6) date 10/12/17 07:50:00*
%MOMM*%
%LPD*%
G01*
G04 APERTURE LIST*
%ADD10C,0.100000*%
%ADD11C,2.100000*%
%ADD12C,1.200000*%
%ADD13C,1.000000*%
%ADD14C,0.500000*%
G04 APERTURE END LIST*
D10*
D11*
X133481000Y-94665000D03*
X133481000Y-97205000D03*
X133481000Y-99745000D03*
X133481000Y-102285000D03*
X133481000Y-104825000D03*
X133481000Y-107365000D03*
X133481000Y-109905000D03*
X133481000Y-112445000D03*
X133481000Y-114985000D03*
X133481000Y-92125000D03*
X130941000Y-92125000D03*
X128401000Y-92125000D03*
X125861000Y-92125000D03*
X123321000Y-92125000D03*
X120781000Y-92125000D03*
X118241000Y-92125000D03*
X115701000Y-92125000D03*
X113161000Y-92125000D03*
X113161000Y-94665000D03*
X113161000Y-97205000D03*
X113161000Y-99745000D03*
X113161000Y-102285000D03*
X113161000Y-104825000D03*
X113161000Y-107365000D03*
X113161000Y-109905000D03*
X113161000Y-112445000D03*
X113161000Y-114985000D03*
D12*
X116763800Y-95275400D03*
D13*
X116763800Y-107823000D03*
D12*
X128041400Y-107823000D03*
X128041400Y-107823000D03*
D13*
X116763800Y-107823000D03*
X115261000Y-103555000D03*
X118401000Y-105775000D03*
D14*
X116763800Y-95275400D02*
X116763800Y-101787800D01*
X119971000Y-104995000D02*
X119971000Y-107823000D01*
X116763800Y-101787800D02*
X119971000Y-104995000D01*
X116763800Y-107823000D02*
X119971000Y-107823000D01*
X119971000Y-107823000D02*
X128041400Y-107823000D01*
X116763800Y-107823000D02*
X128041400Y-107823000D01*
X115261000Y-103555000D02*
X116181000Y-103555000D01*
X116181000Y-103555000D02*
X118401000Y-105775000D01*
M02*
