G04 #@! TF.FileFunction,Other,Fab,Top*
%FSLAX46Y46*%
G04 Gerber Fmt 4.6, Leading zero omitted, Abs format (unit mm)*
G04 Created by KiCad (PCBNEW 4.0.6) date 04/09/19 20:00:22*
%MOMM*%
%LPD*%
G01*
G04 APERTURE LIST*
%ADD10C,0.100000*%
%ADD11C,0.300000*%
%ADD12C,0.150000*%
%ADD13C,0.105000*%
%ADD14C,0.075000*%
G04 APERTURE END LIST*
D10*
D11*
X132731571Y-70536915D02*
X132803000Y-70608344D01*
X132874429Y-70751201D01*
X132874429Y-71108344D01*
X132803000Y-71251201D01*
X132731571Y-71322630D01*
X132588714Y-71394058D01*
X132445857Y-71394058D01*
X132231571Y-71322630D01*
X131374429Y-70465487D01*
X131374429Y-71394058D01*
X132874429Y-71894058D02*
X132874429Y-72894058D01*
X131374429Y-72251201D01*
X131445857Y-73536914D02*
X131374429Y-73536914D01*
X131231571Y-73465486D01*
X131160143Y-73394057D01*
X131374429Y-74251200D02*
X131374429Y-74536915D01*
X131445857Y-74679772D01*
X131517286Y-74751200D01*
X131731571Y-74894058D01*
X132017286Y-74965486D01*
X132588714Y-74965486D01*
X132731571Y-74894058D01*
X132803000Y-74822629D01*
X132874429Y-74679772D01*
X132874429Y-74394058D01*
X132803000Y-74251200D01*
X132731571Y-74179772D01*
X132588714Y-74108343D01*
X132231571Y-74108343D01*
X132088714Y-74179772D01*
X132017286Y-74251200D01*
X131945857Y-74394058D01*
X131945857Y-74679772D01*
X132017286Y-74822629D01*
X132088714Y-74894058D01*
X132231571Y-74965486D01*
X132374429Y-76251200D02*
X131374429Y-76251200D01*
X132945857Y-75894057D02*
X131874429Y-75536914D01*
X131874429Y-76465486D01*
X132874429Y-77322628D02*
X132874429Y-77465485D01*
X132803000Y-77608342D01*
X132731571Y-77679771D01*
X132588714Y-77751200D01*
X132303000Y-77822628D01*
X131945857Y-77822628D01*
X131660143Y-77751200D01*
X131517286Y-77679771D01*
X131445857Y-77608342D01*
X131374429Y-77465485D01*
X131374429Y-77322628D01*
X131445857Y-77179771D01*
X131517286Y-77108342D01*
X131660143Y-77036914D01*
X131945857Y-76965485D01*
X132303000Y-76965485D01*
X132588714Y-77036914D01*
X132731571Y-77108342D01*
X132803000Y-77179771D01*
X132874429Y-77322628D01*
X131374429Y-79608342D02*
X132374429Y-79608342D01*
X132231571Y-79608342D02*
X132303000Y-79679770D01*
X132374429Y-79822628D01*
X132374429Y-80036913D01*
X132303000Y-80179770D01*
X132160143Y-80251199D01*
X131374429Y-80251199D01*
X132160143Y-80251199D02*
X132303000Y-80322628D01*
X132374429Y-80465485D01*
X132374429Y-80679770D01*
X132303000Y-80822628D01*
X132160143Y-80894056D01*
X131374429Y-80894056D01*
X131374429Y-81608342D02*
X132374429Y-81608342D01*
X132231571Y-81608342D02*
X132303000Y-81679770D01*
X132374429Y-81822628D01*
X132374429Y-82036913D01*
X132303000Y-82179770D01*
X132160143Y-82251199D01*
X131374429Y-82251199D01*
X132160143Y-82251199D02*
X132303000Y-82322628D01*
X132374429Y-82465485D01*
X132374429Y-82679770D01*
X132303000Y-82822628D01*
X132160143Y-82894056D01*
X131374429Y-82894056D01*
X133403000Y-62781200D02*
X133403000Y-90721200D01*
X135435000Y-62781200D02*
X130703000Y-62781200D01*
X135435000Y-90721200D02*
X130703000Y-90721200D01*
X133403000Y-90721200D02*
X132816579Y-89594696D01*
X133403000Y-90721200D02*
X133989421Y-89594696D01*
X133403000Y-62781200D02*
X132816579Y-63907704D01*
X133403000Y-62781200D02*
X133989421Y-63907704D01*
X144689315Y-95847429D02*
X144760744Y-95776000D01*
X144903601Y-95704571D01*
X145260744Y-95704571D01*
X145403601Y-95776000D01*
X145475030Y-95847429D01*
X145546458Y-95990286D01*
X145546458Y-96133143D01*
X145475030Y-96347429D01*
X144617887Y-97204571D01*
X145546458Y-97204571D01*
X146903601Y-95704571D02*
X146189315Y-95704571D01*
X146117886Y-96418857D01*
X146189315Y-96347429D01*
X146332172Y-96276000D01*
X146689315Y-96276000D01*
X146832172Y-96347429D01*
X146903601Y-96418857D01*
X146975029Y-96561714D01*
X146975029Y-96918857D01*
X146903601Y-97061714D01*
X146832172Y-97133143D01*
X146689315Y-97204571D01*
X146332172Y-97204571D01*
X146189315Y-97133143D01*
X146117886Y-97061714D01*
X147689314Y-97133143D02*
X147689314Y-97204571D01*
X147617886Y-97347429D01*
X147546457Y-97418857D01*
X149046458Y-95704571D02*
X148332172Y-95704571D01*
X148260743Y-96418857D01*
X148332172Y-96347429D01*
X148475029Y-96276000D01*
X148832172Y-96276000D01*
X148975029Y-96347429D01*
X149046458Y-96418857D01*
X149117886Y-96561714D01*
X149117886Y-96918857D01*
X149046458Y-97061714D01*
X148975029Y-97133143D01*
X148832172Y-97204571D01*
X148475029Y-97204571D01*
X148332172Y-97133143D01*
X148260743Y-97061714D01*
X149689314Y-95847429D02*
X149760743Y-95776000D01*
X149903600Y-95704571D01*
X150260743Y-95704571D01*
X150403600Y-95776000D01*
X150475029Y-95847429D01*
X150546457Y-95990286D01*
X150546457Y-96133143D01*
X150475029Y-96347429D01*
X149617886Y-97204571D01*
X150546457Y-97204571D01*
X151046457Y-95704571D02*
X152046457Y-95704571D01*
X151403600Y-97204571D01*
X153760742Y-97204571D02*
X153760742Y-96204571D01*
X153760742Y-96347429D02*
X153832170Y-96276000D01*
X153975028Y-96204571D01*
X154189313Y-96204571D01*
X154332170Y-96276000D01*
X154403599Y-96418857D01*
X154403599Y-97204571D01*
X154403599Y-96418857D02*
X154475028Y-96276000D01*
X154617885Y-96204571D01*
X154832170Y-96204571D01*
X154975028Y-96276000D01*
X155046456Y-96418857D01*
X155046456Y-97204571D01*
X155760742Y-97204571D02*
X155760742Y-96204571D01*
X155760742Y-96347429D02*
X155832170Y-96276000D01*
X155975028Y-96204571D01*
X156189313Y-96204571D01*
X156332170Y-96276000D01*
X156403599Y-96418857D01*
X156403599Y-97204571D01*
X156403599Y-96418857D02*
X156475028Y-96276000D01*
X156617885Y-96204571D01*
X156832170Y-96204571D01*
X156975028Y-96276000D01*
X157046456Y-96418857D01*
X157046456Y-97204571D01*
X164238600Y-95128999D02*
X138711600Y-95128999D01*
X164238600Y-92716000D02*
X164238600Y-97828999D01*
X138711600Y-92716000D02*
X138711600Y-97828999D01*
X138711600Y-95128999D02*
X139838104Y-94542578D01*
X138711600Y-95128999D02*
X139838104Y-95715420D01*
X164238600Y-95128999D02*
X163112096Y-94542578D01*
X164238600Y-95128999D02*
X163112096Y-95715420D01*
D10*
X149861000Y-77269400D02*
X148361000Y-77269400D01*
X148361000Y-77269400D02*
X148361000Y-80469400D01*
X148361000Y-80469400D02*
X149861000Y-80469400D01*
X149861000Y-80469400D02*
X149861000Y-77269400D01*
X148861000Y-77269400D02*
X148361000Y-77769400D01*
X158699400Y-82399000D02*
X157099400Y-82399000D01*
X157099400Y-82399000D02*
X157099400Y-79099000D01*
X157099400Y-79099000D02*
X158699400Y-79099000D01*
X158699400Y-79099000D02*
X158699400Y-82399000D01*
X157899400Y-80999000D02*
X157899400Y-81499000D01*
X157499400Y-80999000D02*
X157899400Y-80399000D01*
X158299400Y-80999000D02*
X157499400Y-80999000D01*
X157899400Y-80399000D02*
X158299400Y-80999000D01*
X157899400Y-80399000D02*
X157349400Y-80399000D01*
X157899400Y-80399000D02*
X158449400Y-80399000D01*
X157899400Y-79999000D02*
X157899400Y-80399000D01*
X146965800Y-72504200D02*
X146965800Y-69604200D01*
X146965800Y-69604200D02*
X151865800Y-69604200D01*
X151865800Y-69604200D02*
X151865800Y-73504200D01*
X151865800Y-73504200D02*
X147965800Y-73504200D01*
X147965800Y-73504200D02*
X146965800Y-72504200D01*
X157482600Y-68319000D02*
X158722600Y-68319000D01*
X157482600Y-70319000D02*
X157482600Y-68319000D01*
X158722600Y-70319000D02*
X157482600Y-70319000D01*
X158722600Y-68319000D02*
X158722600Y-70319000D01*
X144047000Y-83147000D02*
X144047000Y-81907000D01*
X146047000Y-83147000D02*
X144047000Y-83147000D01*
X146047000Y-81907000D02*
X146047000Y-83147000D01*
X144047000Y-81907000D02*
X146047000Y-81907000D01*
X155749800Y-69765800D02*
X155749800Y-71005800D01*
X153749800Y-69765800D02*
X155749800Y-69765800D01*
X153749800Y-71005800D02*
X153749800Y-69765800D01*
X155749800Y-71005800D02*
X153749800Y-71005800D01*
X155749800Y-67683000D02*
X155749800Y-68923000D01*
X153749800Y-67683000D02*
X155749800Y-67683000D01*
X153749800Y-68923000D02*
X153749800Y-67683000D01*
X155749800Y-68923000D02*
X153749800Y-68923000D01*
X144043800Y-69649400D02*
X145643800Y-69649400D01*
X144043800Y-72849400D02*
X144043800Y-69649400D01*
X145643800Y-72849400D02*
X144043800Y-72849400D01*
X145643800Y-69649400D02*
X145643800Y-72849400D01*
X154245000Y-82476200D02*
X153995000Y-82476200D01*
X154245000Y-82126200D02*
X154745000Y-82476200D01*
X154245000Y-82826200D02*
X154245000Y-82126200D01*
X154745000Y-82476200D02*
X154245000Y-82826200D01*
X154745000Y-82476200D02*
X154945000Y-82476200D01*
X154745000Y-82826200D02*
X154745000Y-82126200D01*
X155345000Y-81776200D02*
X155345000Y-83176200D01*
X153545000Y-81776200D02*
X155345000Y-81776200D01*
X153545000Y-83176200D02*
X153545000Y-81776200D01*
X155345000Y-83176200D02*
X153545000Y-83176200D01*
X158519400Y-77278600D02*
X157279400Y-77278600D01*
X158519400Y-75278600D02*
X158519400Y-77278600D01*
X157279400Y-75278600D02*
X158519400Y-75278600D01*
X157279400Y-77278600D02*
X157279400Y-75278600D01*
D12*
X156049800Y-74530676D02*
X156002181Y-74625914D01*
X156002181Y-74768771D01*
X156049800Y-74911629D01*
X156145038Y-75006867D01*
X156240276Y-75054486D01*
X156430752Y-75102105D01*
X156573610Y-75102105D01*
X156764086Y-75054486D01*
X156859324Y-75006867D01*
X156954562Y-74911629D01*
X157002181Y-74768771D01*
X157002181Y-74673533D01*
X156954562Y-74530676D01*
X156906943Y-74483057D01*
X156573610Y-74483057D01*
X156573610Y-74673533D01*
X156954562Y-74102105D02*
X157002181Y-73959248D01*
X157002181Y-73721152D01*
X156954562Y-73625914D01*
X156906943Y-73578295D01*
X156811705Y-73530676D01*
X156716467Y-73530676D01*
X156621229Y-73578295D01*
X156573610Y-73625914D01*
X156525990Y-73721152D01*
X156478371Y-73911629D01*
X156430752Y-74006867D01*
X156383133Y-74054486D01*
X156287895Y-74102105D01*
X156192657Y-74102105D01*
X156097419Y-74054486D01*
X156049800Y-74006867D01*
X156002181Y-73911629D01*
X156002181Y-73673533D01*
X156049800Y-73530676D01*
X156002181Y-73197343D02*
X156002181Y-72578295D01*
X156383133Y-72911629D01*
X156383133Y-72768771D01*
X156430752Y-72673533D01*
X156478371Y-72625914D01*
X156573610Y-72578295D01*
X156811705Y-72578295D01*
X156906943Y-72625914D01*
X156954562Y-72673533D01*
X157002181Y-72768771D01*
X157002181Y-73054486D01*
X156954562Y-73149724D01*
X156906943Y-73197343D01*
X146613381Y-83059876D02*
X146613381Y-82440828D01*
X146994333Y-82774162D01*
X146994333Y-82631304D01*
X147041952Y-82536066D01*
X147089571Y-82488447D01*
X147184810Y-82440828D01*
X147422905Y-82440828D01*
X147518143Y-82488447D01*
X147565762Y-82536066D01*
X147613381Y-82631304D01*
X147613381Y-82917019D01*
X147565762Y-83012257D01*
X147518143Y-83059876D01*
X146708619Y-82059876D02*
X146661000Y-82012257D01*
X146613381Y-81917019D01*
X146613381Y-81678923D01*
X146661000Y-81583685D01*
X146708619Y-81536066D01*
X146803857Y-81488447D01*
X146899095Y-81488447D01*
X147041952Y-81536066D01*
X147613381Y-82107495D01*
X147613381Y-81488447D01*
X147565762Y-81012257D02*
X147613381Y-81012257D01*
X147708619Y-81059876D01*
X147756238Y-81107495D01*
X146613381Y-80678924D02*
X146613381Y-80012257D01*
X147613381Y-80440829D01*
X146613381Y-79202733D02*
X146613381Y-79393210D01*
X146661000Y-79488448D01*
X146708619Y-79536067D01*
X146851476Y-79631305D01*
X147041952Y-79678924D01*
X147422905Y-79678924D01*
X147518143Y-79631305D01*
X147565762Y-79583686D01*
X147613381Y-79488448D01*
X147613381Y-79297971D01*
X147565762Y-79202733D01*
X147518143Y-79155114D01*
X147422905Y-79107495D01*
X147184810Y-79107495D01*
X147089571Y-79155114D01*
X147041952Y-79202733D01*
X146994333Y-79297971D01*
X146994333Y-79488448D01*
X147041952Y-79583686D01*
X147089571Y-79631305D01*
X147184810Y-79678924D01*
X146708619Y-78726543D02*
X146661000Y-78678924D01*
X146613381Y-78583686D01*
X146613381Y-78345590D01*
X146661000Y-78250352D01*
X146708619Y-78202733D01*
X146803857Y-78155114D01*
X146899095Y-78155114D01*
X147041952Y-78202733D01*
X147613381Y-78774162D01*
X147613381Y-78155114D01*
X147613381Y-76964638D02*
X146613381Y-76964638D01*
X147232429Y-76869400D02*
X147613381Y-76583685D01*
X146946714Y-76583685D02*
X147327667Y-76964638D01*
X147613381Y-76155114D02*
X146613381Y-76155114D01*
X147089571Y-76155114D02*
X147089571Y-75583685D01*
X147613381Y-75583685D02*
X146613381Y-75583685D01*
X146946714Y-75202733D02*
X146946714Y-74678923D01*
X147613381Y-75202733D01*
X147613381Y-74678923D01*
D13*
X149094333Y-79202733D02*
X149427667Y-79202733D01*
X148727667Y-79436066D02*
X149094333Y-79202733D01*
X148727667Y-78969400D01*
X149427667Y-78369400D02*
X149427667Y-78769400D01*
X149427667Y-78569400D02*
X148727667Y-78569400D01*
X148827667Y-78636066D01*
X148894333Y-78702733D01*
X148927667Y-78769400D01*
D12*
X153541781Y-84439476D02*
X153541781Y-83868047D01*
X154541781Y-84153762D02*
X153541781Y-84153762D01*
X154541781Y-83534714D02*
X153541781Y-83534714D01*
X154256067Y-83201380D01*
X153541781Y-82868047D01*
X154541781Y-82868047D01*
X154541781Y-82391857D02*
X153541781Y-82391857D01*
X154256067Y-82058523D01*
X153541781Y-81725190D01*
X154541781Y-81725190D01*
X154017971Y-80915666D02*
X154065590Y-80772809D01*
X154113210Y-80725190D01*
X154208448Y-80677571D01*
X154351305Y-80677571D01*
X154446543Y-80725190D01*
X154494162Y-80772809D01*
X154541781Y-80868047D01*
X154541781Y-81249000D01*
X153541781Y-81249000D01*
X153541781Y-80915666D01*
X153589400Y-80820428D01*
X153637019Y-80772809D01*
X153732257Y-80725190D01*
X153827495Y-80725190D01*
X153922733Y-80772809D01*
X153970352Y-80820428D01*
X154017971Y-80915666D01*
X154017971Y-81249000D01*
X154256067Y-80296619D02*
X154256067Y-79820428D01*
X154541781Y-80391857D02*
X153541781Y-80058524D01*
X154541781Y-79725190D01*
X153541781Y-79534714D02*
X153541781Y-78963285D01*
X154541781Y-79249000D02*
X153541781Y-79249000D01*
X153875114Y-78201380D02*
X154541781Y-78201380D01*
X153494162Y-78439476D02*
X154208448Y-78677571D01*
X154208448Y-78058523D01*
X153541781Y-77772809D02*
X153541781Y-77153761D01*
X153922733Y-77487095D01*
X153922733Y-77344237D01*
X153970352Y-77248999D01*
X154017971Y-77201380D01*
X154113210Y-77153761D01*
X154351305Y-77153761D01*
X154446543Y-77201380D01*
X154494162Y-77248999D01*
X154541781Y-77344237D01*
X154541781Y-77629952D01*
X154494162Y-77725190D01*
X154446543Y-77772809D01*
X153368181Y-74649438D02*
X152368181Y-74649438D01*
X152368181Y-74268485D01*
X152415800Y-74173247D01*
X152463419Y-74125628D01*
X152558657Y-74078009D01*
X152701514Y-74078009D01*
X152796752Y-74125628D01*
X152844371Y-74173247D01*
X152891990Y-74268485D01*
X152891990Y-74649438D01*
X153272943Y-73078009D02*
X153320562Y-73125628D01*
X153368181Y-73268485D01*
X153368181Y-73363723D01*
X153320562Y-73506581D01*
X153225324Y-73601819D01*
X153130086Y-73649438D01*
X152939610Y-73697057D01*
X152796752Y-73697057D01*
X152606276Y-73649438D01*
X152511038Y-73601819D01*
X152415800Y-73506581D01*
X152368181Y-73363723D01*
X152368181Y-73268485D01*
X152415800Y-73125628D01*
X152463419Y-73078009D01*
X152844371Y-72316104D02*
X152844371Y-72649438D01*
X153368181Y-72649438D02*
X152368181Y-72649438D01*
X152368181Y-72173247D01*
X152796752Y-71649438D02*
X152749133Y-71744676D01*
X152701514Y-71792295D01*
X152606276Y-71839914D01*
X152558657Y-71839914D01*
X152463419Y-71792295D01*
X152415800Y-71744676D01*
X152368181Y-71649438D01*
X152368181Y-71458961D01*
X152415800Y-71363723D01*
X152463419Y-71316104D01*
X152558657Y-71268485D01*
X152606276Y-71268485D01*
X152701514Y-71316104D01*
X152749133Y-71363723D01*
X152796752Y-71458961D01*
X152796752Y-71649438D01*
X152844371Y-71744676D01*
X152891990Y-71792295D01*
X152987229Y-71839914D01*
X153177705Y-71839914D01*
X153272943Y-71792295D01*
X153320562Y-71744676D01*
X153368181Y-71649438D01*
X153368181Y-71458961D01*
X153320562Y-71363723D01*
X153272943Y-71316104D01*
X153177705Y-71268485D01*
X152987229Y-71268485D01*
X152891990Y-71316104D01*
X152844371Y-71363723D01*
X152796752Y-71458961D01*
X152368181Y-70363723D02*
X152368181Y-70839914D01*
X152844371Y-70887533D01*
X152796752Y-70839914D01*
X152749133Y-70744676D01*
X152749133Y-70506580D01*
X152796752Y-70411342D01*
X152844371Y-70363723D01*
X152939610Y-70316104D01*
X153177705Y-70316104D01*
X153272943Y-70363723D01*
X153320562Y-70411342D01*
X153368181Y-70506580D01*
X153368181Y-70744676D01*
X153320562Y-70839914D01*
X153272943Y-70887533D01*
X152368181Y-69458961D02*
X152368181Y-69649438D01*
X152415800Y-69744676D01*
X152463419Y-69792295D01*
X152606276Y-69887533D01*
X152796752Y-69935152D01*
X153177705Y-69935152D01*
X153272943Y-69887533D01*
X153320562Y-69839914D01*
X153368181Y-69744676D01*
X153368181Y-69554199D01*
X153320562Y-69458961D01*
X153272943Y-69411342D01*
X153177705Y-69363723D01*
X152939610Y-69363723D01*
X152844371Y-69411342D01*
X152796752Y-69458961D01*
X152749133Y-69554199D01*
X152749133Y-69744676D01*
X152796752Y-69839914D01*
X152844371Y-69887533D01*
X152939610Y-69935152D01*
X152368181Y-69030390D02*
X152368181Y-68411342D01*
X152749133Y-68744676D01*
X152749133Y-68601818D01*
X152796752Y-68506580D01*
X152844371Y-68458961D01*
X152939610Y-68411342D01*
X153177705Y-68411342D01*
X153272943Y-68458961D01*
X153320562Y-68506580D01*
X153368181Y-68601818D01*
X153368181Y-68887533D01*
X153320562Y-68982771D01*
X153272943Y-69030390D01*
X148653895Y-71006581D02*
X148653895Y-71816105D01*
X148701514Y-71911343D01*
X148749133Y-71958962D01*
X148844371Y-72006581D01*
X149034848Y-72006581D01*
X149130086Y-71958962D01*
X149177705Y-71911343D01*
X149225324Y-71816105D01*
X149225324Y-71006581D01*
X150225324Y-72006581D02*
X149653895Y-72006581D01*
X149939609Y-72006581D02*
X149939609Y-71006581D01*
X149844371Y-71149438D01*
X149749133Y-71244676D01*
X149653895Y-71292295D01*
X156138314Y-70009476D02*
X156804981Y-70009476D01*
X155757362Y-70247572D02*
X156471648Y-70485667D01*
X156471648Y-69866619D01*
X156804981Y-69485667D02*
X155804981Y-69485667D01*
X156424029Y-69390429D02*
X156804981Y-69104714D01*
X156138314Y-69104714D02*
X156519267Y-69485667D01*
X155804981Y-68771381D02*
X155804981Y-68104714D01*
X156804981Y-68533286D01*
X157935934Y-67586981D02*
X157602600Y-67110790D01*
X157364505Y-67586981D02*
X157364505Y-66586981D01*
X157745458Y-66586981D01*
X157840696Y-66634600D01*
X157888315Y-66682219D01*
X157935934Y-66777457D01*
X157935934Y-66920314D01*
X157888315Y-67015552D01*
X157840696Y-67063171D01*
X157745458Y-67110790D01*
X157364505Y-67110790D01*
X158269267Y-66586981D02*
X158888315Y-66586981D01*
X158554981Y-66967933D01*
X158697839Y-66967933D01*
X158793077Y-67015552D01*
X158840696Y-67063171D01*
X158888315Y-67158410D01*
X158888315Y-67396505D01*
X158840696Y-67491743D01*
X158793077Y-67539362D01*
X158697839Y-67586981D01*
X158412124Y-67586981D01*
X158316886Y-67539362D01*
X158269267Y-67491743D01*
X143023190Y-83729381D02*
X143118429Y-83729381D01*
X143213667Y-83777000D01*
X143261286Y-83824619D01*
X143308905Y-83919857D01*
X143356524Y-84110333D01*
X143356524Y-84348429D01*
X143308905Y-84538905D01*
X143261286Y-84634143D01*
X143213667Y-84681762D01*
X143118429Y-84729381D01*
X143023190Y-84729381D01*
X142927952Y-84681762D01*
X142880333Y-84634143D01*
X142832714Y-84538905D01*
X142785095Y-84348429D01*
X142785095Y-84110333D01*
X142832714Y-83919857D01*
X142880333Y-83824619D01*
X142927952Y-83777000D01*
X143023190Y-83729381D01*
X143832714Y-84681762D02*
X143832714Y-84729381D01*
X143785095Y-84824619D01*
X143737476Y-84872238D01*
X144785095Y-84729381D02*
X144213666Y-84729381D01*
X144499380Y-84729381D02*
X144499380Y-83729381D01*
X144404142Y-83872238D01*
X144308904Y-83967476D01*
X144213666Y-84015095D01*
X146404143Y-84062714D02*
X146404143Y-84729381D01*
X145975571Y-84062714D02*
X145975571Y-84586524D01*
X146023190Y-84681762D01*
X146118428Y-84729381D01*
X146261286Y-84729381D01*
X146356524Y-84681762D01*
X146404143Y-84634143D01*
X147213667Y-84205571D02*
X146880333Y-84205571D01*
X146880333Y-84729381D02*
X146880333Y-83729381D01*
X147356524Y-83729381D01*
X147704334Y-82672143D02*
X147656715Y-82719762D01*
X147513858Y-82767381D01*
X147418620Y-82767381D01*
X147275762Y-82719762D01*
X147180524Y-82624524D01*
X147132905Y-82529286D01*
X147085286Y-82338810D01*
X147085286Y-82195952D01*
X147132905Y-82005476D01*
X147180524Y-81910238D01*
X147275762Y-81815000D01*
X147418620Y-81767381D01*
X147513858Y-81767381D01*
X147656715Y-81815000D01*
X147704334Y-81862619D01*
X148656715Y-82767381D02*
X148085286Y-82767381D01*
X148371000Y-82767381D02*
X148371000Y-81767381D01*
X148275762Y-81910238D01*
X148180524Y-82005476D01*
X148085286Y-82053095D01*
X156310600Y-87586276D02*
X156262981Y-87681514D01*
X156262981Y-87824371D01*
X156310600Y-87967229D01*
X156405838Y-88062467D01*
X156501076Y-88110086D01*
X156691552Y-88157705D01*
X156834410Y-88157705D01*
X157024886Y-88110086D01*
X157120124Y-88062467D01*
X157215362Y-87967229D01*
X157262981Y-87824371D01*
X157262981Y-87729133D01*
X157215362Y-87586276D01*
X157167743Y-87538657D01*
X156834410Y-87538657D01*
X156834410Y-87729133D01*
X157215362Y-87157705D02*
X157262981Y-87014848D01*
X157262981Y-86776752D01*
X157215362Y-86681514D01*
X157167743Y-86633895D01*
X157072505Y-86586276D01*
X156977267Y-86586276D01*
X156882029Y-86633895D01*
X156834410Y-86681514D01*
X156786790Y-86776752D01*
X156739171Y-86967229D01*
X156691552Y-87062467D01*
X156643933Y-87110086D01*
X156548695Y-87157705D01*
X156453457Y-87157705D01*
X156358219Y-87110086D01*
X156310600Y-87062467D01*
X156262981Y-86967229D01*
X156262981Y-86729133D01*
X156310600Y-86586276D01*
X156262981Y-86252943D02*
X156262981Y-85633895D01*
X156643933Y-85967229D01*
X156643933Y-85824371D01*
X156691552Y-85729133D01*
X156739171Y-85681514D01*
X156834410Y-85633895D01*
X157072505Y-85633895D01*
X157167743Y-85681514D01*
X157215362Y-85729133D01*
X157262981Y-85824371D01*
X157262981Y-86110086D01*
X157215362Y-86205324D01*
X157167743Y-86252943D01*
X156049800Y-74530676D02*
X156002181Y-74625914D01*
X156002181Y-74768771D01*
X156049800Y-74911629D01*
X156145038Y-75006867D01*
X156240276Y-75054486D01*
X156430752Y-75102105D01*
X156573610Y-75102105D01*
X156764086Y-75054486D01*
X156859324Y-75006867D01*
X156954562Y-74911629D01*
X157002181Y-74768771D01*
X157002181Y-74673533D01*
X156954562Y-74530676D01*
X156906943Y-74483057D01*
X156573610Y-74483057D01*
X156573610Y-74673533D01*
X156954562Y-74102105D02*
X157002181Y-73959248D01*
X157002181Y-73721152D01*
X156954562Y-73625914D01*
X156906943Y-73578295D01*
X156811705Y-73530676D01*
X156716467Y-73530676D01*
X156621229Y-73578295D01*
X156573610Y-73625914D01*
X156525990Y-73721152D01*
X156478371Y-73911629D01*
X156430752Y-74006867D01*
X156383133Y-74054486D01*
X156287895Y-74102105D01*
X156192657Y-74102105D01*
X156097419Y-74054486D01*
X156049800Y-74006867D01*
X156002181Y-73911629D01*
X156002181Y-73673533D01*
X156049800Y-73530676D01*
X156002181Y-73197343D02*
X156002181Y-72578295D01*
X156383133Y-72911629D01*
X156383133Y-72768771D01*
X156430752Y-72673533D01*
X156478371Y-72625914D01*
X156573610Y-72578295D01*
X156811705Y-72578295D01*
X156906943Y-72625914D01*
X156954562Y-72673533D01*
X157002181Y-72768771D01*
X157002181Y-73054486D01*
X156954562Y-73149724D01*
X156906943Y-73197343D01*
X154059324Y-68421514D02*
X154059324Y-69088181D01*
X153821228Y-68040562D02*
X153583133Y-68754848D01*
X154202181Y-68754848D01*
X154583133Y-69088181D02*
X154583133Y-68088181D01*
X154678371Y-68707229D02*
X154964086Y-69088181D01*
X154964086Y-68421514D02*
X154583133Y-68802467D01*
X155297419Y-68088181D02*
X155964086Y-68088181D01*
X155535514Y-69088181D01*
X157021534Y-71955781D02*
X156688200Y-71479590D01*
X156450105Y-71955781D02*
X156450105Y-70955781D01*
X156831058Y-70955781D01*
X156926296Y-71003400D01*
X156973915Y-71051019D01*
X157021534Y-71146257D01*
X157021534Y-71289114D01*
X156973915Y-71384352D01*
X156926296Y-71431971D01*
X156831058Y-71479590D01*
X156450105Y-71479590D01*
X157973915Y-71955781D02*
X157402486Y-71955781D01*
X157688200Y-71955781D02*
X157688200Y-70955781D01*
X157592962Y-71098638D01*
X157497724Y-71193876D01*
X157402486Y-71241495D01*
X154059324Y-66338714D02*
X154059324Y-67005381D01*
X153821228Y-65957762D02*
X153583133Y-66672048D01*
X154202181Y-66672048D01*
X154583133Y-67005381D02*
X154583133Y-66005381D01*
X154678371Y-66624429D02*
X154964086Y-67005381D01*
X154964086Y-66338714D02*
X154583133Y-66719667D01*
X155297419Y-66005381D02*
X155964086Y-66005381D01*
X155535514Y-67005381D01*
X152966981Y-68418866D02*
X152490790Y-68752200D01*
X152966981Y-68990295D02*
X151966981Y-68990295D01*
X151966981Y-68609342D01*
X152014600Y-68514104D01*
X152062219Y-68466485D01*
X152157457Y-68418866D01*
X152300314Y-68418866D01*
X152395552Y-68466485D01*
X152443171Y-68514104D01*
X152490790Y-68609342D01*
X152490790Y-68990295D01*
X152062219Y-68037914D02*
X152014600Y-67990295D01*
X151966981Y-67895057D01*
X151966981Y-67656961D01*
X152014600Y-67561723D01*
X152062219Y-67514104D01*
X152157457Y-67466485D01*
X152252695Y-67466485D01*
X152395552Y-67514104D01*
X152966981Y-68085533D01*
X152966981Y-67466485D01*
X142296181Y-73844638D02*
X142296181Y-74320829D01*
X142772371Y-74368448D01*
X142724752Y-74320829D01*
X142677133Y-74225591D01*
X142677133Y-73987495D01*
X142724752Y-73892257D01*
X142772371Y-73844638D01*
X142867610Y-73797019D01*
X143105705Y-73797019D01*
X143200943Y-73844638D01*
X143248562Y-73892257D01*
X143296181Y-73987495D01*
X143296181Y-74225591D01*
X143248562Y-74320829D01*
X143200943Y-74368448D01*
X142915229Y-73368448D02*
X142915229Y-72606543D01*
X142391419Y-72177972D02*
X142343800Y-72130353D01*
X142296181Y-72035115D01*
X142296181Y-71797019D01*
X142343800Y-71701781D01*
X142391419Y-71654162D01*
X142486657Y-71606543D01*
X142581895Y-71606543D01*
X142724752Y-71654162D01*
X143296181Y-72225591D01*
X143296181Y-71606543D01*
X142296181Y-70701781D02*
X142296181Y-71177972D01*
X142772371Y-71225591D01*
X142724752Y-71177972D01*
X142677133Y-71082734D01*
X142677133Y-70844638D01*
X142724752Y-70749400D01*
X142772371Y-70701781D01*
X142867610Y-70654162D01*
X143105705Y-70654162D01*
X143200943Y-70701781D01*
X143248562Y-70749400D01*
X143296181Y-70844638D01*
X143296181Y-71082734D01*
X143248562Y-71177972D01*
X143200943Y-71225591D01*
X142629514Y-69463686D02*
X143629514Y-69463686D01*
X142677133Y-69463686D02*
X142629514Y-69368448D01*
X142629514Y-69177971D01*
X142677133Y-69082733D01*
X142724752Y-69035114D01*
X142819990Y-68987495D01*
X143105705Y-68987495D01*
X143200943Y-69035114D01*
X143248562Y-69082733D01*
X143296181Y-69177971D01*
X143296181Y-69368448D01*
X143248562Y-69463686D01*
X142772371Y-68225590D02*
X142772371Y-68558924D01*
X143296181Y-68558924D02*
X142296181Y-68558924D01*
X142296181Y-68082733D01*
X144367610Y-74684714D02*
X144329515Y-74722810D01*
X144215229Y-74760905D01*
X144139039Y-74760905D01*
X144024753Y-74722810D01*
X143948562Y-74646619D01*
X143910467Y-74570429D01*
X143872372Y-74418048D01*
X143872372Y-74303762D01*
X143910467Y-74151381D01*
X143948562Y-74075190D01*
X144024753Y-73999000D01*
X144139039Y-73960905D01*
X144215229Y-73960905D01*
X144329515Y-73999000D01*
X144367610Y-74037095D01*
X144596181Y-73960905D02*
X144862848Y-74760905D01*
X145129515Y-73960905D01*
X145815229Y-74760905D02*
X145358086Y-74760905D01*
X145586657Y-74760905D02*
X145586657Y-73960905D01*
X145510467Y-74075190D01*
X145434276Y-74151381D01*
X145358086Y-74189476D01*
X148377724Y-81370981D02*
X148472963Y-81370981D01*
X148568201Y-81418600D01*
X148615820Y-81466219D01*
X148663439Y-81561457D01*
X148711058Y-81751933D01*
X148711058Y-81990029D01*
X148663439Y-82180505D01*
X148615820Y-82275743D01*
X148568201Y-82323362D01*
X148472963Y-82370981D01*
X148377724Y-82370981D01*
X148282486Y-82323362D01*
X148234867Y-82275743D01*
X148187248Y-82180505D01*
X148139629Y-81990029D01*
X148139629Y-81751933D01*
X148187248Y-81561457D01*
X148234867Y-81466219D01*
X148282486Y-81418600D01*
X148377724Y-81370981D01*
X149187248Y-82323362D02*
X149187248Y-82370981D01*
X149139629Y-82466219D01*
X149092010Y-82513838D01*
X149568200Y-81466219D02*
X149615819Y-81418600D01*
X149711057Y-81370981D01*
X149949153Y-81370981D01*
X150044391Y-81418600D01*
X150092010Y-81466219D01*
X150139629Y-81561457D01*
X150139629Y-81656695D01*
X150092010Y-81799552D01*
X149520581Y-82370981D01*
X150139629Y-82370981D01*
X150901534Y-81847171D02*
X150568200Y-81847171D01*
X150568200Y-82370981D02*
X150568200Y-81370981D01*
X151044391Y-81370981D01*
X145439134Y-89792943D02*
X145391515Y-89840562D01*
X145248658Y-89888181D01*
X145153420Y-89888181D01*
X145010562Y-89840562D01*
X144915324Y-89745324D01*
X144867705Y-89650086D01*
X144820086Y-89459610D01*
X144820086Y-89316752D01*
X144867705Y-89126276D01*
X144915324Y-89031038D01*
X145010562Y-88935800D01*
X145153420Y-88888181D01*
X145248658Y-88888181D01*
X145391515Y-88935800D01*
X145439134Y-88983419D01*
X145820086Y-88983419D02*
X145867705Y-88935800D01*
X145962943Y-88888181D01*
X146201039Y-88888181D01*
X146296277Y-88935800D01*
X146343896Y-88983419D01*
X146391515Y-89078657D01*
X146391515Y-89173895D01*
X146343896Y-89316752D01*
X145772467Y-89888181D01*
X146391515Y-89888181D01*
X149273571Y-81028581D02*
X149273571Y-80028581D01*
X149606905Y-80742867D01*
X149940238Y-80028581D01*
X149940238Y-81028581D01*
X150416428Y-81028581D02*
X150416428Y-80028581D01*
X150749762Y-80742867D01*
X151083095Y-80028581D01*
X151083095Y-81028581D01*
X151464047Y-80028581D02*
X152083095Y-80028581D01*
X151749761Y-80409533D01*
X151892619Y-80409533D01*
X151987857Y-80457152D01*
X152035476Y-80504771D01*
X152083095Y-80600010D01*
X152083095Y-80838105D01*
X152035476Y-80933343D01*
X151987857Y-80980962D01*
X151892619Y-81028581D01*
X151606904Y-81028581D01*
X151511666Y-80980962D01*
X151464047Y-80933343D01*
X152416428Y-80028581D02*
X153083095Y-80028581D01*
X152416428Y-81028581D01*
X153083095Y-81028581D01*
X153368809Y-80028581D02*
X153987857Y-80028581D01*
X153654523Y-80409533D01*
X153797381Y-80409533D01*
X153892619Y-80457152D01*
X153940238Y-80504771D01*
X153987857Y-80600010D01*
X153987857Y-80838105D01*
X153940238Y-80933343D01*
X153892619Y-80980962D01*
X153797381Y-81028581D01*
X153511666Y-81028581D01*
X153416428Y-80980962D01*
X153368809Y-80933343D01*
X154273571Y-80028581D02*
X154606904Y-81028581D01*
X154940238Y-80028581D01*
X155178333Y-80028581D02*
X155797381Y-80028581D01*
X155464047Y-80409533D01*
X155606905Y-80409533D01*
X155702143Y-80457152D01*
X155749762Y-80504771D01*
X155797381Y-80600010D01*
X155797381Y-80838105D01*
X155749762Y-80933343D01*
X155702143Y-80980962D01*
X155606905Y-81028581D01*
X155321190Y-81028581D01*
X155225952Y-80980962D01*
X155178333Y-80933343D01*
X156178333Y-80980962D02*
X156321190Y-81028581D01*
X156559286Y-81028581D01*
X156654524Y-80980962D01*
X156702143Y-80933343D01*
X156749762Y-80838105D01*
X156749762Y-80742867D01*
X156702143Y-80647629D01*
X156654524Y-80600010D01*
X156559286Y-80552390D01*
X156368809Y-80504771D01*
X156273571Y-80457152D01*
X156225952Y-80409533D01*
X156178333Y-80314295D01*
X156178333Y-80219057D01*
X156225952Y-80123819D01*
X156273571Y-80076200D01*
X156368809Y-80028581D01*
X156606905Y-80028581D01*
X156749762Y-80076200D01*
X157035476Y-80028581D02*
X157606905Y-80028581D01*
X157321190Y-81028581D02*
X157321190Y-80028581D01*
X158464048Y-81028581D02*
X157892619Y-81028581D01*
X158178333Y-81028581D02*
X158178333Y-80028581D01*
X158083095Y-80171438D01*
X157987857Y-80266676D01*
X157892619Y-80314295D01*
X159416429Y-80076200D02*
X159321191Y-80028581D01*
X159178334Y-80028581D01*
X159035476Y-80076200D01*
X158940238Y-80171438D01*
X158892619Y-80266676D01*
X158845000Y-80457152D01*
X158845000Y-80600010D01*
X158892619Y-80790486D01*
X158940238Y-80885724D01*
X159035476Y-80980962D01*
X159178334Y-81028581D01*
X159273572Y-81028581D01*
X159416429Y-80980962D01*
X159464048Y-80933343D01*
X159464048Y-80600010D01*
X159273572Y-80600010D01*
X159101781Y-77088124D02*
X159101781Y-76469076D01*
X159482733Y-76802410D01*
X159482733Y-76659552D01*
X159530352Y-76564314D01*
X159577971Y-76516695D01*
X159673210Y-76469076D01*
X159911305Y-76469076D01*
X160006543Y-76516695D01*
X160054162Y-76564314D01*
X160101781Y-76659552D01*
X160101781Y-76945267D01*
X160054162Y-77040505D01*
X160006543Y-77088124D01*
X159101781Y-76135743D02*
X159101781Y-75516695D01*
X159482733Y-75850029D01*
X159482733Y-75707171D01*
X159530352Y-75611933D01*
X159577971Y-75564314D01*
X159673210Y-75516695D01*
X159911305Y-75516695D01*
X160006543Y-75564314D01*
X160054162Y-75611933D01*
X160101781Y-75707171D01*
X160101781Y-75992886D01*
X160054162Y-76088124D01*
X160006543Y-76135743D01*
D14*
X158125590Y-76361933D02*
X157887495Y-76528600D01*
X158125590Y-76647647D02*
X157625590Y-76647647D01*
X157625590Y-76457171D01*
X157649400Y-76409552D01*
X157673210Y-76385743D01*
X157720829Y-76361933D01*
X157792257Y-76361933D01*
X157839876Y-76385743D01*
X157863686Y-76409552D01*
X157887495Y-76457171D01*
X157887495Y-76647647D01*
X157792257Y-75933362D02*
X158125590Y-75933362D01*
X157601781Y-76052409D02*
X157958924Y-76171457D01*
X157958924Y-75861933D01*
D12*
X146194600Y-78950276D02*
X146146981Y-79045514D01*
X146146981Y-79188371D01*
X146194600Y-79331229D01*
X146289838Y-79426467D01*
X146385076Y-79474086D01*
X146575552Y-79521705D01*
X146718410Y-79521705D01*
X146908886Y-79474086D01*
X147004124Y-79426467D01*
X147099362Y-79331229D01*
X147146981Y-79188371D01*
X147146981Y-79093133D01*
X147099362Y-78950276D01*
X147051743Y-78902657D01*
X146718410Y-78902657D01*
X146718410Y-79093133D01*
X147099362Y-78521705D02*
X147146981Y-78378848D01*
X147146981Y-78140752D01*
X147099362Y-78045514D01*
X147051743Y-77997895D01*
X146956505Y-77950276D01*
X146861267Y-77950276D01*
X146766029Y-77997895D01*
X146718410Y-78045514D01*
X146670790Y-78140752D01*
X146623171Y-78331229D01*
X146575552Y-78426467D01*
X146527933Y-78474086D01*
X146432695Y-78521705D01*
X146337457Y-78521705D01*
X146242219Y-78474086D01*
X146194600Y-78426467D01*
X146146981Y-78331229D01*
X146146981Y-78093133D01*
X146194600Y-77950276D01*
X146480314Y-77093133D02*
X147146981Y-77093133D01*
X146099362Y-77331229D02*
X146813648Y-77569324D01*
X146813648Y-76950276D01*
M02*
