G04 #@! TF.FileFunction,Paste,Top*
%FSLAX46Y46*%
G04 Gerber Fmt 4.6, Leading zero omitted, Abs format (unit mm)*
G04 Created by KiCad (PCBNEW 4.0.6) date 04/09/19 20:00:22*
%MOMM*%
%LPD*%
G01*
G04 APERTURE LIST*
%ADD10C,0.100000*%
%ADD11R,1.270000X0.970000*%
%ADD12R,1.800000X1.750000*%
%ADD13R,1.700000X1.300000*%
%ADD14R,0.600000X1.550000*%
%ADD15R,1.300000X0.700000*%
%ADD16R,1.000000X1.250000*%
%ADD17R,0.700000X1.300000*%
%ADD18R,1.600000X1.000000*%
%ADD19R,2.000000X5.000000*%
%ADD20R,1.700000X4.000000*%
G04 APERTURE END LIST*
D10*
D11*
X154749800Y-72570200D03*
X154749800Y-73840200D03*
X154749800Y-75110200D03*
D12*
X149111000Y-77244400D03*
X149111000Y-80494400D03*
D13*
X157899400Y-78999000D03*
X157899400Y-82499000D03*
D14*
X147510800Y-74254200D03*
X148780800Y-74254200D03*
X150050800Y-74254200D03*
X151320800Y-74254200D03*
X151320800Y-68854200D03*
X150050800Y-68854200D03*
X148780800Y-68854200D03*
X147510800Y-68854200D03*
D15*
X158102600Y-68369000D03*
X158102600Y-70269000D03*
D16*
X144047000Y-82527000D03*
X146047000Y-82527000D03*
D11*
X158610600Y-88165800D03*
X158610600Y-86895800D03*
X158610600Y-85625800D03*
X154749800Y-72570200D03*
X154749800Y-73840200D03*
X154749800Y-75110200D03*
D17*
X155699800Y-70385800D03*
X153799800Y-70385800D03*
X155699800Y-68303000D03*
X153799800Y-68303000D03*
D18*
X144843800Y-69749400D03*
X144843800Y-72749400D03*
D19*
X154688200Y-86478600D03*
D20*
X144538200Y-86438600D03*
D16*
X155495000Y-82476200D03*
X153395000Y-82476200D03*
D15*
X157899400Y-77228600D03*
X157899400Y-75328600D03*
D11*
X144894600Y-76989800D03*
X144894600Y-78259800D03*
X144894600Y-79529800D03*
X143344600Y-78259800D03*
M02*
