G04 #@! TF.FileFunction,Legend,Bot*
%FSLAX46Y46*%
G04 Gerber Fmt 4.6, Leading zero omitted, Abs format (unit mm)*
G04 Created by KiCad (PCBNEW 4.0.6) date 10/12/17 07:50:00*
%MOMM*%
%LPD*%
G01*
G04 APERTURE LIST*
%ADD10C,0.100000*%
%ADD11C,0.250000*%
%ADD12C,0.150000*%
%ADD13C,0.120000*%
G04 APERTURE END LIST*
D10*
D11*
X124299571Y-100059286D02*
X124899571Y-99202143D01*
X125328143Y-100059286D02*
X125328143Y-98259286D01*
X124642428Y-98259286D01*
X124471000Y-98345000D01*
X124385285Y-98430714D01*
X124299571Y-98602143D01*
X124299571Y-98859286D01*
X124385285Y-99030714D01*
X124471000Y-99116429D01*
X124642428Y-99202143D01*
X125328143Y-99202143D01*
X123785285Y-98259286D02*
X122756714Y-98259286D01*
X123271000Y-100059286D02*
X123271000Y-98259286D01*
X121128142Y-99887857D02*
X121213856Y-99973571D01*
X121470999Y-100059286D01*
X121642428Y-100059286D01*
X121899571Y-99973571D01*
X122070999Y-99802143D01*
X122156714Y-99630714D01*
X122242428Y-99287857D01*
X122242428Y-99030714D01*
X122156714Y-98687857D01*
X122070999Y-98516429D01*
X121899571Y-98345000D01*
X121642428Y-98259286D01*
X121470999Y-98259286D01*
X121213856Y-98345000D01*
X121128142Y-98430714D01*
D12*
X117081000Y-96085000D02*
X115981000Y-94985000D01*
X117081000Y-96085000D02*
X117081000Y-97885000D01*
X130681000Y-94785000D02*
X129681000Y-95785000D01*
X129681000Y-95785000D02*
X129681000Y-98585000D01*
D13*
X111831000Y-116315000D02*
X111831000Y-90795000D01*
X111831000Y-90795000D02*
X134811000Y-90795000D01*
X134811000Y-116315000D02*
X134811000Y-90795000D01*
X132151000Y-116315000D02*
X132151000Y-93455000D01*
X132151000Y-93455000D02*
X114491000Y-93455000D01*
X114491000Y-116315000D02*
X114491000Y-93455000D01*
X114491000Y-116315000D02*
X114491000Y-109505000D01*
X134811000Y-116315000D02*
X132151000Y-116315000D01*
X111831000Y-116315000D02*
X114491000Y-116315000D01*
X134811000Y-94665000D02*
X134811000Y-93335000D01*
D12*
X131029095Y-117107381D02*
X131029095Y-116107381D01*
X130648142Y-116107381D01*
X130552904Y-116155000D01*
X130505285Y-116202619D01*
X130457666Y-116297857D01*
X130457666Y-116440714D01*
X130505285Y-116535952D01*
X130552904Y-116583571D01*
X130648142Y-116631190D01*
X131029095Y-116631190D01*
X129505285Y-117107381D02*
X130076714Y-117107381D01*
X129791000Y-117107381D02*
X129791000Y-116107381D01*
X129886238Y-116250238D01*
X129981476Y-116345476D01*
X130076714Y-116393095D01*
X117814333Y-96613572D02*
X117814333Y-96994524D01*
X118042905Y-96537381D02*
X117242905Y-96804048D01*
X118042905Y-97070715D01*
X117242905Y-97261191D02*
X117242905Y-97794524D01*
X118042905Y-97451667D01*
X129114333Y-95889762D02*
X129114333Y-96270714D01*
X129342905Y-95813571D02*
X128542905Y-96080238D01*
X129342905Y-96346905D01*
X129342905Y-97070714D02*
X128961952Y-96804047D01*
X129342905Y-96613571D02*
X128542905Y-96613571D01*
X128542905Y-96918333D01*
X128581000Y-96994524D01*
X128619095Y-97032619D01*
X128695286Y-97070714D01*
X128809571Y-97070714D01*
X128885762Y-97032619D01*
X128923857Y-96994524D01*
X128961952Y-96918333D01*
X128961952Y-96613571D01*
X128923857Y-97413571D02*
X128923857Y-97680238D01*
X129342905Y-97794524D02*
X129342905Y-97413571D01*
X128542905Y-97413571D01*
X128542905Y-97794524D01*
X128923857Y-98404048D02*
X128923857Y-98137381D01*
X129342905Y-98137381D02*
X128542905Y-98137381D01*
X128542905Y-98518334D01*
X114881000Y-114375477D02*
X114842905Y-114299286D01*
X114842905Y-114185001D01*
X114881000Y-114070715D01*
X114957190Y-113994524D01*
X115033381Y-113956429D01*
X115185762Y-113918334D01*
X115300048Y-113918334D01*
X115452429Y-113956429D01*
X115528619Y-113994524D01*
X115604810Y-114070715D01*
X115642905Y-114185001D01*
X115642905Y-114261191D01*
X115604810Y-114375477D01*
X115566714Y-114413572D01*
X115300048Y-114413572D01*
X115300048Y-114261191D01*
X115642905Y-114756429D02*
X114842905Y-114756429D01*
X115642905Y-115213572D01*
X114842905Y-115213572D01*
X115642905Y-115594524D02*
X114842905Y-115594524D01*
X114842905Y-115785000D01*
X114881000Y-115899286D01*
X114957190Y-115975477D01*
X115033381Y-116013572D01*
X115185762Y-116051667D01*
X115300048Y-116051667D01*
X115452429Y-116013572D01*
X115528619Y-115975477D01*
X115604810Y-115899286D01*
X115642905Y-115785000D01*
X115642905Y-115594524D01*
X115642905Y-112046905D02*
X115261952Y-111780238D01*
X115642905Y-111589762D02*
X114842905Y-111589762D01*
X114842905Y-111894524D01*
X114881000Y-111970715D01*
X114919095Y-112008810D01*
X114995286Y-112046905D01*
X115109571Y-112046905D01*
X115185762Y-112008810D01*
X115223857Y-111970715D01*
X115261952Y-111894524D01*
X115261952Y-111589762D01*
X115604810Y-112351667D02*
X115642905Y-112465953D01*
X115642905Y-112656429D01*
X115604810Y-112732619D01*
X115566714Y-112770715D01*
X115490524Y-112808810D01*
X115414333Y-112808810D01*
X115338143Y-112770715D01*
X115300048Y-112732619D01*
X115261952Y-112656429D01*
X115223857Y-112504048D01*
X115185762Y-112427857D01*
X115147667Y-112389762D01*
X115071476Y-112351667D01*
X114995286Y-112351667D01*
X114919095Y-112389762D01*
X114881000Y-112427857D01*
X114842905Y-112504048D01*
X114842905Y-112694524D01*
X114881000Y-112808810D01*
X114842905Y-113037381D02*
X114842905Y-113494524D01*
X115642905Y-113265953D02*
X114842905Y-113265953D01*
X115642905Y-109294524D02*
X114842905Y-109294524D01*
X114842905Y-109485000D01*
X114881000Y-109599286D01*
X114957190Y-109675477D01*
X115033381Y-109713572D01*
X115185762Y-109751667D01*
X115300048Y-109751667D01*
X115452429Y-109713572D01*
X115528619Y-109675477D01*
X115604810Y-109599286D01*
X115642905Y-109485000D01*
X115642905Y-109294524D01*
X114842905Y-110437381D02*
X114842905Y-110285000D01*
X114881000Y-110208810D01*
X114919095Y-110170715D01*
X115033381Y-110094524D01*
X115185762Y-110056429D01*
X115490524Y-110056429D01*
X115566714Y-110094524D01*
X115604810Y-110132619D01*
X115642905Y-110208810D01*
X115642905Y-110361191D01*
X115604810Y-110437381D01*
X115566714Y-110475477D01*
X115490524Y-110513572D01*
X115300048Y-110513572D01*
X115223857Y-110475477D01*
X115185762Y-110437381D01*
X115147667Y-110361191D01*
X115147667Y-110208810D01*
X115185762Y-110132619D01*
X115223857Y-110094524D01*
X115300048Y-110056429D01*
X115642905Y-106794524D02*
X114842905Y-106794524D01*
X114842905Y-106985000D01*
X114881000Y-107099286D01*
X114957190Y-107175477D01*
X115033381Y-107213572D01*
X115185762Y-107251667D01*
X115300048Y-107251667D01*
X115452429Y-107213572D01*
X115528619Y-107175477D01*
X115604810Y-107099286D01*
X115642905Y-106985000D01*
X115642905Y-106794524D01*
X114842905Y-107975477D02*
X114842905Y-107594524D01*
X115223857Y-107556429D01*
X115185762Y-107594524D01*
X115147667Y-107670715D01*
X115147667Y-107861191D01*
X115185762Y-107937381D01*
X115223857Y-107975477D01*
X115300048Y-108013572D01*
X115490524Y-108013572D01*
X115566714Y-107975477D01*
X115604810Y-107937381D01*
X115642905Y-107861191D01*
X115642905Y-107670715D01*
X115604810Y-107594524D01*
X115566714Y-107556429D01*
X115642905Y-104194524D02*
X114842905Y-104194524D01*
X114842905Y-104385000D01*
X114881000Y-104499286D01*
X114957190Y-104575477D01*
X115033381Y-104613572D01*
X115185762Y-104651667D01*
X115300048Y-104651667D01*
X115452429Y-104613572D01*
X115528619Y-104575477D01*
X115604810Y-104499286D01*
X115642905Y-104385000D01*
X115642905Y-104194524D01*
X115109571Y-105337381D02*
X115642905Y-105337381D01*
X114804810Y-105146905D02*
X115376238Y-104956429D01*
X115376238Y-105451667D01*
X115642905Y-101694524D02*
X114842905Y-101694524D01*
X114842905Y-101885000D01*
X114881000Y-101999286D01*
X114957190Y-102075477D01*
X115033381Y-102113572D01*
X115185762Y-102151667D01*
X115300048Y-102151667D01*
X115452429Y-102113572D01*
X115528619Y-102075477D01*
X115604810Y-101999286D01*
X115642905Y-101885000D01*
X115642905Y-101694524D01*
X114842905Y-102418334D02*
X114842905Y-102913572D01*
X115147667Y-102646905D01*
X115147667Y-102761191D01*
X115185762Y-102837381D01*
X115223857Y-102875477D01*
X115300048Y-102913572D01*
X115490524Y-102913572D01*
X115566714Y-102875477D01*
X115604810Y-102837381D01*
X115642905Y-102761191D01*
X115642905Y-102532619D01*
X115604810Y-102456429D01*
X115566714Y-102418334D01*
X115642905Y-99194524D02*
X114842905Y-99194524D01*
X114842905Y-99385000D01*
X114881000Y-99499286D01*
X114957190Y-99575477D01*
X115033381Y-99613572D01*
X115185762Y-99651667D01*
X115300048Y-99651667D01*
X115452429Y-99613572D01*
X115528619Y-99575477D01*
X115604810Y-99499286D01*
X115642905Y-99385000D01*
X115642905Y-99194524D01*
X114919095Y-99956429D02*
X114881000Y-99994524D01*
X114842905Y-100070715D01*
X114842905Y-100261191D01*
X114881000Y-100337381D01*
X114919095Y-100375477D01*
X114995286Y-100413572D01*
X115071476Y-100413572D01*
X115185762Y-100375477D01*
X115642905Y-99918334D01*
X115642905Y-100413572D01*
X114842905Y-96194523D02*
X114842905Y-96651666D01*
X115642905Y-96423095D02*
X114842905Y-96423095D01*
X114842905Y-96842143D02*
X115642905Y-97375476D01*
X114842905Y-97375476D02*
X115642905Y-96842143D01*
X114842905Y-97832619D02*
X114842905Y-97908810D01*
X114881000Y-97985000D01*
X114919095Y-98023095D01*
X114995286Y-98061191D01*
X115147667Y-98099286D01*
X115338143Y-98099286D01*
X115490524Y-98061191D01*
X115566714Y-98023095D01*
X115604810Y-97985000D01*
X115642905Y-97908810D01*
X115642905Y-97832619D01*
X115604810Y-97756429D01*
X115566714Y-97718333D01*
X115490524Y-97680238D01*
X115338143Y-97642143D01*
X115147667Y-97642143D01*
X114995286Y-97680238D01*
X114919095Y-97718333D01*
X114881000Y-97756429D01*
X114842905Y-97832619D01*
X115642905Y-94170714D02*
X115261952Y-93904047D01*
X115642905Y-93713571D02*
X114842905Y-93713571D01*
X114842905Y-94018333D01*
X114881000Y-94094524D01*
X114919095Y-94132619D01*
X114995286Y-94170714D01*
X115109571Y-94170714D01*
X115185762Y-94132619D01*
X115223857Y-94094524D01*
X115261952Y-94018333D01*
X115261952Y-93713571D01*
X114842905Y-94437381D02*
X115642905Y-94970714D01*
X114842905Y-94970714D02*
X115642905Y-94437381D01*
X114842905Y-95427857D02*
X114842905Y-95504048D01*
X114881000Y-95580238D01*
X114919095Y-95618333D01*
X114995286Y-95656429D01*
X115147667Y-95694524D01*
X115338143Y-95694524D01*
X115490524Y-95656429D01*
X115566714Y-95618333D01*
X115604810Y-95580238D01*
X115642905Y-95504048D01*
X115642905Y-95427857D01*
X115604810Y-95351667D01*
X115566714Y-95313571D01*
X115490524Y-95275476D01*
X115338143Y-95237381D01*
X115147667Y-95237381D01*
X114995286Y-95275476D01*
X114919095Y-95313571D01*
X114881000Y-95351667D01*
X114842905Y-95427857D01*
X117114333Y-93913572D02*
X117114333Y-94294524D01*
X117342905Y-93837381D02*
X116542905Y-94104048D01*
X117342905Y-94370715D01*
X116542905Y-94980238D02*
X116542905Y-94827857D01*
X116581000Y-94751667D01*
X116619095Y-94713572D01*
X116733381Y-94637381D01*
X116885762Y-94599286D01*
X117190524Y-94599286D01*
X117266714Y-94637381D01*
X117304810Y-94675476D01*
X117342905Y-94751667D01*
X117342905Y-94904048D01*
X117304810Y-94980238D01*
X117266714Y-95018334D01*
X117190524Y-95056429D01*
X117000048Y-95056429D01*
X116923857Y-95018334D01*
X116885762Y-94980238D01*
X116847667Y-94904048D01*
X116847667Y-94751667D01*
X116885762Y-94675476D01*
X116923857Y-94637381D01*
X117000048Y-94599286D01*
X118604810Y-93932619D02*
X118642905Y-94046905D01*
X118642905Y-94237381D01*
X118604810Y-94313571D01*
X118566714Y-94351667D01*
X118490524Y-94389762D01*
X118414333Y-94389762D01*
X118338143Y-94351667D01*
X118300048Y-94313571D01*
X118261952Y-94237381D01*
X118223857Y-94085000D01*
X118185762Y-94008809D01*
X118147667Y-93970714D01*
X118071476Y-93932619D01*
X117995286Y-93932619D01*
X117919095Y-93970714D01*
X117881000Y-94008809D01*
X117842905Y-94085000D01*
X117842905Y-94275476D01*
X117881000Y-94389762D01*
X118566714Y-95189762D02*
X118604810Y-95151667D01*
X118642905Y-95037381D01*
X118642905Y-94961191D01*
X118604810Y-94846905D01*
X118528619Y-94770714D01*
X118452429Y-94732619D01*
X118300048Y-94694524D01*
X118185762Y-94694524D01*
X118033381Y-94732619D01*
X117957190Y-94770714D01*
X117881000Y-94846905D01*
X117842905Y-94961191D01*
X117842905Y-95037381D01*
X117881000Y-95151667D01*
X117919095Y-95189762D01*
X118642905Y-95913572D02*
X118642905Y-95532619D01*
X117842905Y-95532619D01*
X121104810Y-93913572D02*
X121142905Y-94027858D01*
X121142905Y-94218334D01*
X121104810Y-94294524D01*
X121066714Y-94332620D01*
X120990524Y-94370715D01*
X120914333Y-94370715D01*
X120838143Y-94332620D01*
X120800048Y-94294524D01*
X120761952Y-94218334D01*
X120723857Y-94065953D01*
X120685762Y-93989762D01*
X120647667Y-93951667D01*
X120571476Y-93913572D01*
X120495286Y-93913572D01*
X120419095Y-93951667D01*
X120381000Y-93989762D01*
X120342905Y-94065953D01*
X120342905Y-94256429D01*
X120381000Y-94370715D01*
X121142905Y-94713572D02*
X120342905Y-94713572D01*
X120342905Y-94904048D01*
X120381000Y-95018334D01*
X120457190Y-95094525D01*
X120533381Y-95132620D01*
X120685762Y-95170715D01*
X120800048Y-95170715D01*
X120952429Y-95132620D01*
X121028619Y-95094525D01*
X121104810Y-95018334D01*
X121142905Y-94904048D01*
X121142905Y-94713572D01*
X120914333Y-95475477D02*
X120914333Y-95856429D01*
X121142905Y-95399286D02*
X120342905Y-95665953D01*
X121142905Y-95932620D01*
X123414333Y-93913572D02*
X123414333Y-94294524D01*
X123642905Y-93837381D02*
X122842905Y-94104048D01*
X123642905Y-94370715D01*
X122842905Y-94561191D02*
X122842905Y-95056429D01*
X123147667Y-94789762D01*
X123147667Y-94904048D01*
X123185762Y-94980238D01*
X123223857Y-95018334D01*
X123300048Y-95056429D01*
X123490524Y-95056429D01*
X123566714Y-95018334D01*
X123604810Y-94980238D01*
X123642905Y-94904048D01*
X123642905Y-94675476D01*
X123604810Y-94599286D01*
X123566714Y-94561191D01*
X126014333Y-93913572D02*
X126014333Y-94294524D01*
X126242905Y-93837381D02*
X125442905Y-94104048D01*
X126242905Y-94370715D01*
X125519095Y-94599286D02*
X125481000Y-94637381D01*
X125442905Y-94713572D01*
X125442905Y-94904048D01*
X125481000Y-94980238D01*
X125519095Y-95018334D01*
X125595286Y-95056429D01*
X125671476Y-95056429D01*
X125785762Y-95018334D01*
X126242905Y-94561191D01*
X126242905Y-95056429D01*
X128514333Y-93913572D02*
X128514333Y-94294524D01*
X128742905Y-93837381D02*
X127942905Y-94104048D01*
X128742905Y-94370715D01*
X128742905Y-95056429D02*
X128742905Y-94599286D01*
X128742905Y-94827857D02*
X127942905Y-94827857D01*
X128057190Y-94751667D01*
X128133381Y-94675476D01*
X128171476Y-94599286D01*
X129814333Y-93913572D02*
X129814333Y-94294524D01*
X130042905Y-93837381D02*
X129242905Y-94104048D01*
X130042905Y-94370715D01*
X129242905Y-94789762D02*
X129242905Y-94865953D01*
X129281000Y-94942143D01*
X129319095Y-94980238D01*
X129395286Y-95018334D01*
X129547667Y-95056429D01*
X129738143Y-95056429D01*
X129890524Y-95018334D01*
X129966714Y-94980238D01*
X130004810Y-94942143D01*
X130042905Y-94865953D01*
X130042905Y-94789762D01*
X130004810Y-94713572D01*
X129966714Y-94675476D01*
X129890524Y-94637381D01*
X129738143Y-94599286D01*
X129547667Y-94599286D01*
X129395286Y-94637381D01*
X129319095Y-94675476D01*
X129281000Y-94713572D01*
X129242905Y-94789762D01*
X131642905Y-93713571D02*
X130842905Y-93713571D01*
X130842905Y-93904047D01*
X130881000Y-94018333D01*
X130957190Y-94094524D01*
X131033381Y-94132619D01*
X131185762Y-94170714D01*
X131300048Y-94170714D01*
X131452429Y-94132619D01*
X131528619Y-94094524D01*
X131604810Y-94018333D01*
X131642905Y-93904047D01*
X131642905Y-93713571D01*
X131642905Y-94932619D02*
X131642905Y-94475476D01*
X131642905Y-94704047D02*
X130842905Y-94704047D01*
X130957190Y-94627857D01*
X131033381Y-94551666D01*
X131071476Y-94475476D01*
X130842905Y-95199286D02*
X130842905Y-95694524D01*
X131147667Y-95427857D01*
X131147667Y-95542143D01*
X131185762Y-95618333D01*
X131223857Y-95656429D01*
X131300048Y-95694524D01*
X131490524Y-95694524D01*
X131566714Y-95656429D01*
X131604810Y-95618333D01*
X131642905Y-95542143D01*
X131642905Y-95313571D01*
X131604810Y-95237381D01*
X131566714Y-95199286D01*
X131642905Y-96213571D02*
X130842905Y-96213571D01*
X130842905Y-96404047D01*
X130881000Y-96518333D01*
X130957190Y-96594524D01*
X131033381Y-96632619D01*
X131185762Y-96670714D01*
X131300048Y-96670714D01*
X131452429Y-96632619D01*
X131528619Y-96594524D01*
X131604810Y-96518333D01*
X131642905Y-96404047D01*
X131642905Y-96213571D01*
X131642905Y-97432619D02*
X131642905Y-96975476D01*
X131642905Y-97204047D02*
X130842905Y-97204047D01*
X130957190Y-97127857D01*
X131033381Y-97051666D01*
X131071476Y-96975476D01*
X130919095Y-97737381D02*
X130881000Y-97775476D01*
X130842905Y-97851667D01*
X130842905Y-98042143D01*
X130881000Y-98118333D01*
X130919095Y-98156429D01*
X130995286Y-98194524D01*
X131071476Y-98194524D01*
X131185762Y-98156429D01*
X131642905Y-97699286D01*
X131642905Y-98194524D01*
X131642905Y-98813571D02*
X130842905Y-98813571D01*
X130842905Y-99004047D01*
X130881000Y-99118333D01*
X130957190Y-99194524D01*
X131033381Y-99232619D01*
X131185762Y-99270714D01*
X131300048Y-99270714D01*
X131452429Y-99232619D01*
X131528619Y-99194524D01*
X131604810Y-99118333D01*
X131642905Y-99004047D01*
X131642905Y-98813571D01*
X131642905Y-100032619D02*
X131642905Y-99575476D01*
X131642905Y-99804047D02*
X130842905Y-99804047D01*
X130957190Y-99727857D01*
X131033381Y-99651666D01*
X131071476Y-99575476D01*
X131642905Y-100794524D02*
X131642905Y-100337381D01*
X131642905Y-100565952D02*
X130842905Y-100565952D01*
X130957190Y-100489762D01*
X131033381Y-100413571D01*
X131071476Y-100337381D01*
X131642905Y-101313571D02*
X130842905Y-101313571D01*
X130842905Y-101504047D01*
X130881000Y-101618333D01*
X130957190Y-101694524D01*
X131033381Y-101732619D01*
X131185762Y-101770714D01*
X131300048Y-101770714D01*
X131452429Y-101732619D01*
X131528619Y-101694524D01*
X131604810Y-101618333D01*
X131642905Y-101504047D01*
X131642905Y-101313571D01*
X131642905Y-102532619D02*
X131642905Y-102075476D01*
X131642905Y-102304047D02*
X130842905Y-102304047D01*
X130957190Y-102227857D01*
X131033381Y-102151666D01*
X131071476Y-102075476D01*
X130842905Y-103027857D02*
X130842905Y-103104048D01*
X130881000Y-103180238D01*
X130919095Y-103218333D01*
X130995286Y-103256429D01*
X131147667Y-103294524D01*
X131338143Y-103294524D01*
X131490524Y-103256429D01*
X131566714Y-103218333D01*
X131604810Y-103180238D01*
X131642905Y-103104048D01*
X131642905Y-103027857D01*
X131604810Y-102951667D01*
X131566714Y-102913571D01*
X131490524Y-102875476D01*
X131338143Y-102837381D01*
X131147667Y-102837381D01*
X130995286Y-102875476D01*
X130919095Y-102913571D01*
X130881000Y-102951667D01*
X130842905Y-103027857D01*
X131642905Y-104194524D02*
X130842905Y-104194524D01*
X130842905Y-104385000D01*
X130881000Y-104499286D01*
X130957190Y-104575477D01*
X131033381Y-104613572D01*
X131185762Y-104651667D01*
X131300048Y-104651667D01*
X131452429Y-104613572D01*
X131528619Y-104575477D01*
X131604810Y-104499286D01*
X131642905Y-104385000D01*
X131642905Y-104194524D01*
X131642905Y-105032619D02*
X131642905Y-105185000D01*
X131604810Y-105261191D01*
X131566714Y-105299286D01*
X131452429Y-105375477D01*
X131300048Y-105413572D01*
X130995286Y-105413572D01*
X130919095Y-105375477D01*
X130881000Y-105337381D01*
X130842905Y-105261191D01*
X130842905Y-105108810D01*
X130881000Y-105032619D01*
X130919095Y-104994524D01*
X130995286Y-104956429D01*
X131185762Y-104956429D01*
X131261952Y-104994524D01*
X131300048Y-105032619D01*
X131338143Y-105108810D01*
X131338143Y-105261191D01*
X131300048Y-105337381D01*
X131261952Y-105375477D01*
X131185762Y-105413572D01*
X131642905Y-106794524D02*
X130842905Y-106794524D01*
X130842905Y-106985000D01*
X130881000Y-107099286D01*
X130957190Y-107175477D01*
X131033381Y-107213572D01*
X131185762Y-107251667D01*
X131300048Y-107251667D01*
X131452429Y-107213572D01*
X131528619Y-107175477D01*
X131604810Y-107099286D01*
X131642905Y-106985000D01*
X131642905Y-106794524D01*
X131185762Y-107708810D02*
X131147667Y-107632619D01*
X131109571Y-107594524D01*
X131033381Y-107556429D01*
X130995286Y-107556429D01*
X130919095Y-107594524D01*
X130881000Y-107632619D01*
X130842905Y-107708810D01*
X130842905Y-107861191D01*
X130881000Y-107937381D01*
X130919095Y-107975477D01*
X130995286Y-108013572D01*
X131033381Y-108013572D01*
X131109571Y-107975477D01*
X131147667Y-107937381D01*
X131185762Y-107861191D01*
X131185762Y-107708810D01*
X131223857Y-107632619D01*
X131261952Y-107594524D01*
X131338143Y-107556429D01*
X131490524Y-107556429D01*
X131566714Y-107594524D01*
X131604810Y-107632619D01*
X131642905Y-107708810D01*
X131642905Y-107861191D01*
X131604810Y-107937381D01*
X131566714Y-107975477D01*
X131490524Y-108013572D01*
X131338143Y-108013572D01*
X131261952Y-107975477D01*
X131223857Y-107937381D01*
X131185762Y-107861191D01*
X131642905Y-109294524D02*
X130842905Y-109294524D01*
X130842905Y-109485000D01*
X130881000Y-109599286D01*
X130957190Y-109675477D01*
X131033381Y-109713572D01*
X131185762Y-109751667D01*
X131300048Y-109751667D01*
X131452429Y-109713572D01*
X131528619Y-109675477D01*
X131604810Y-109599286D01*
X131642905Y-109485000D01*
X131642905Y-109294524D01*
X130842905Y-110018334D02*
X130842905Y-110551667D01*
X131642905Y-110208810D01*
X130842905Y-111494524D02*
X130842905Y-111989762D01*
X131147667Y-111723095D01*
X131147667Y-111837381D01*
X131185762Y-111913571D01*
X131223857Y-111951667D01*
X131300048Y-111989762D01*
X131490524Y-111989762D01*
X131566714Y-111951667D01*
X131604810Y-111913571D01*
X131642905Y-111837381D01*
X131642905Y-111608809D01*
X131604810Y-111532619D01*
X131566714Y-111494524D01*
X130842905Y-112218333D02*
X131642905Y-112485000D01*
X130842905Y-112751667D01*
X130842905Y-112942143D02*
X130842905Y-113437381D01*
X131147667Y-113170714D01*
X131147667Y-113285000D01*
X131185762Y-113361190D01*
X131223857Y-113399286D01*
X131300048Y-113437381D01*
X131490524Y-113437381D01*
X131566714Y-113399286D01*
X131604810Y-113361190D01*
X131642905Y-113285000D01*
X131642905Y-113056428D01*
X131604810Y-112980238D01*
X131566714Y-112942143D01*
X130842905Y-114832620D02*
X130842905Y-114451667D01*
X131223857Y-114413572D01*
X131185762Y-114451667D01*
X131147667Y-114527858D01*
X131147667Y-114718334D01*
X131185762Y-114794524D01*
X131223857Y-114832620D01*
X131300048Y-114870715D01*
X131490524Y-114870715D01*
X131566714Y-114832620D01*
X131604810Y-114794524D01*
X131642905Y-114718334D01*
X131642905Y-114527858D01*
X131604810Y-114451667D01*
X131566714Y-114413572D01*
X130842905Y-115099286D02*
X131642905Y-115365953D01*
X130842905Y-115632620D01*
M02*
