G04 #@! TF.FileFunction,Paste,Top*
%FSLAX46Y46*%
G04 Gerber Fmt 4.6, Leading zero omitted, Abs format (unit mm)*
G04 Created by KiCad (PCBNEW 4.0.6) date 10/12/17 07:50:00*
%MOMM*%
%LPD*%
G01*
G04 APERTURE LIST*
%ADD10C,0.100000*%
%ADD11R,1.270000X0.970000*%
%ADD12R,1.800000X1.750000*%
%ADD13R,1.700000X1.300000*%
%ADD14R,0.600000X1.550000*%
%ADD15R,1.300000X0.700000*%
%ADD16R,1.000000X1.250000*%
%ADD17R,0.700000X1.300000*%
%ADD18R,1.600000X1.000000*%
%ADD19R,2.000000X5.000000*%
G04 APERTURE END LIST*
D10*
D11*
X126669800Y-99390200D03*
X126669800Y-100660200D03*
X126669800Y-101930200D03*
D12*
X121031000Y-104064400D03*
X121031000Y-107314400D03*
D13*
X129819400Y-105819000D03*
X129819400Y-109319000D03*
D14*
X119430800Y-101074200D03*
X120700800Y-101074200D03*
X121970800Y-101074200D03*
X123240800Y-101074200D03*
X123240800Y-95674200D03*
X121970800Y-95674200D03*
X120700800Y-95674200D03*
X119430800Y-95674200D03*
D15*
X130022600Y-95189000D03*
X130022600Y-97089000D03*
D16*
X115967000Y-109347000D03*
X117967000Y-109347000D03*
D11*
X130530600Y-114985800D03*
X130530600Y-113715800D03*
X130530600Y-112445800D03*
X126669800Y-99390200D03*
X126669800Y-100660200D03*
X126669800Y-101930200D03*
D17*
X127619800Y-97205800D03*
X125719800Y-97205800D03*
X127619800Y-95123000D03*
X125719800Y-95123000D03*
D18*
X116763800Y-96569400D03*
X116763800Y-99569400D03*
D19*
X126608200Y-113298600D03*
D16*
X127415000Y-109296200D03*
X125315000Y-109296200D03*
D15*
X129819400Y-104048600D03*
X129819400Y-102148600D03*
D11*
X116814600Y-103809800D03*
X116814600Y-105079800D03*
X116814600Y-106349800D03*
X115264600Y-105079800D03*
M02*
