G04 #@! TF.FileFunction,Copper,L2,Bot,Signal*
%FSLAX46Y46*%
G04 Gerber Fmt 4.6, Leading zero omitted, Abs format (unit mm)*
G04 Created by KiCad (PCBNEW 4.0.6) date 04/09/19 20:00:22*
%MOMM*%
%LPD*%
G01*
G04 APERTURE LIST*
%ADD10C,0.100000*%
%ADD11C,2.100000*%
%ADD12C,1.200000*%
%ADD13C,1.000000*%
%ADD14C,0.500000*%
G04 APERTURE END LIST*
D10*
D11*
X161561000Y-67845000D03*
X161561000Y-70385000D03*
X161561000Y-72925000D03*
X161561000Y-75465000D03*
X161561000Y-78005000D03*
X161561000Y-80545000D03*
X161561000Y-83085000D03*
X161561000Y-85625000D03*
X161561000Y-88165000D03*
X161561000Y-65305000D03*
X159021000Y-65305000D03*
X156481000Y-65305000D03*
X153941000Y-65305000D03*
X151401000Y-65305000D03*
X148861000Y-65305000D03*
X146321000Y-65305000D03*
X143781000Y-65305000D03*
X141241000Y-65305000D03*
X141241000Y-67845000D03*
X141241000Y-70385000D03*
X141241000Y-72925000D03*
X141241000Y-75465000D03*
X141241000Y-78005000D03*
X141241000Y-80545000D03*
X141241000Y-83085000D03*
X141241000Y-85625000D03*
X141241000Y-88165000D03*
D12*
X144843800Y-68455400D03*
D13*
X144843800Y-81003000D03*
D12*
X156121400Y-81003000D03*
X156121400Y-81003000D03*
D13*
X144843800Y-81003000D03*
X143341000Y-76735000D03*
X146481000Y-78955000D03*
D14*
X144843800Y-68455400D02*
X144843800Y-74967800D01*
X148051000Y-78175000D02*
X148051000Y-81003000D01*
X144843800Y-74967800D02*
X148051000Y-78175000D01*
X144843800Y-81003000D02*
X148051000Y-81003000D01*
X148051000Y-81003000D02*
X156121400Y-81003000D01*
X144843800Y-81003000D02*
X156121400Y-81003000D01*
X143341000Y-76735000D02*
X144261000Y-76735000D01*
X144261000Y-76735000D02*
X146481000Y-78955000D01*
M02*
