M48
;DRILL file {KiCad 4.0.6} date 04/09/19 20:00:18
;FORMAT={-:-/ absolute / inch / decimal}
FMAT,2
INCH,TZ
T1C0.020
T2C0.024
T3C0.059
%
G90
G05
M72
T1
X5.6433Y-3.0211
X5.7025Y-3.1891
X5.7025Y-3.1891
X5.767Y-3.1085
T2
X5.7025Y-2.6951
X6.1465Y-3.1891
X6.1465Y-3.1891
T3
X5.5607Y-2.5711
X5.5607Y-2.6711
X5.5607Y-2.7711
X5.5607Y-2.8711
X5.5607Y-2.9711
X5.5607Y-3.0711
X5.5607Y-3.1711
X5.5607Y-3.2711
X5.5607Y-3.3711
X5.5607Y-3.4711
X5.6607Y-2.5711
X5.7607Y-2.5711
X5.8607Y-2.5711
X5.9607Y-2.5711
X6.0607Y-2.5711
X6.1607Y-2.5711
X6.2607Y-2.5711
X6.3607Y-2.5711
X6.3607Y-2.6711
X6.3607Y-2.7711
X6.3607Y-2.8711
X6.3607Y-2.9711
X6.3607Y-3.0711
X6.3607Y-3.1711
X6.3607Y-3.2711
X6.3607Y-3.3711
X6.3607Y-3.4711
T0
M30
