G04 #@! TF.FileFunction,Legend,Top*
%FSLAX46Y46*%
G04 Gerber Fmt 4.6, Leading zero omitted, Abs format (unit mm)*
G04 Created by KiCad (PCBNEW 4.0.6) date 10/12/17 07:50:00*
%MOMM*%
%LPD*%
G01*
G04 APERTURE LIST*
%ADD10C,0.100000*%
%ADD11C,0.150000*%
%ADD12C,0.400000*%
%ADD13C,0.120000*%
G04 APERTURE END LIST*
D10*
D11*
X114580524Y-106716905D02*
X114580524Y-105916905D01*
X114771000Y-105916905D01*
X114885286Y-105955000D01*
X114961477Y-106031190D01*
X114999572Y-106107381D01*
X115037667Y-106259762D01*
X115037667Y-106374048D01*
X114999572Y-106526429D01*
X114961477Y-106602619D01*
X114885286Y-106678810D01*
X114771000Y-106716905D01*
X114580524Y-106716905D01*
X115723381Y-105916905D02*
X115571000Y-105916905D01*
X115494810Y-105955000D01*
X115456715Y-105993095D01*
X115380524Y-106107381D01*
X115342429Y-106259762D01*
X115342429Y-106564524D01*
X115380524Y-106640714D01*
X115418619Y-106678810D01*
X115494810Y-106716905D01*
X115647191Y-106716905D01*
X115723381Y-106678810D01*
X115761477Y-106640714D01*
X115799572Y-106564524D01*
X115799572Y-106374048D01*
X115761477Y-106297857D01*
X115723381Y-106259762D01*
X115647191Y-106221667D01*
X115494810Y-106221667D01*
X115418619Y-106259762D01*
X115380524Y-106297857D01*
X115342429Y-106374048D01*
D12*
X118455009Y-102245000D02*
G75*
G03X118455009Y-102245000I-214009J0D01*
G01*
D11*
X136141000Y-89565000D02*
X110621000Y-89565000D01*
X136141000Y-117505000D02*
X136141000Y-89565000D01*
X110621000Y-117505000D02*
X136141000Y-117505000D01*
X110621000Y-89565000D02*
X110621000Y-117505000D01*
X128595572Y-100001343D02*
X128547953Y-100048962D01*
X128405096Y-100096581D01*
X128309858Y-100096581D01*
X128167000Y-100048962D01*
X128071762Y-99953724D01*
X128024143Y-99858486D01*
X127976524Y-99668010D01*
X127976524Y-99525152D01*
X128024143Y-99334676D01*
X128071762Y-99239438D01*
X128167000Y-99144200D01*
X128309858Y-99096581D01*
X128405096Y-99096581D01*
X128547953Y-99144200D01*
X128595572Y-99191819D01*
X129500334Y-100096581D02*
X129024143Y-100096581D01*
X129024143Y-99096581D01*
X129833667Y-100096581D02*
X129833667Y-99096581D01*
X130405096Y-100096581D02*
X129976524Y-99525152D01*
X130405096Y-99096581D02*
X129833667Y-99668010D01*
X131024143Y-99096581D02*
X131119382Y-99096581D01*
X131214620Y-99144200D01*
X131262239Y-99191819D01*
X131309858Y-99287057D01*
X131357477Y-99477533D01*
X131357477Y-99715629D01*
X131309858Y-99906105D01*
X131262239Y-100001343D01*
X131214620Y-100048962D01*
X131119382Y-100096581D01*
X131024143Y-100096581D01*
X130928905Y-100048962D01*
X130881286Y-100001343D01*
X130833667Y-99906105D01*
X130786048Y-99715629D01*
X130786048Y-99477533D01*
X130833667Y-99287057D01*
X130881286Y-99191819D01*
X130928905Y-99144200D01*
X131024143Y-99096581D01*
X125765038Y-104058981D02*
X125765038Y-103058981D01*
X126241228Y-104058981D02*
X126241228Y-103058981D01*
X126812657Y-104058981D01*
X126812657Y-103058981D01*
X127145990Y-103058981D02*
X127717419Y-103058981D01*
X127431704Y-104058981D02*
X127431704Y-103058981D01*
X118112905Y-107467381D02*
X118112905Y-106467381D01*
X118351000Y-106467381D01*
X118493858Y-106515000D01*
X118589096Y-106610238D01*
X118636715Y-106705476D01*
X118684334Y-106895952D01*
X118684334Y-107038810D01*
X118636715Y-107229286D01*
X118589096Y-107324524D01*
X118493858Y-107419762D01*
X118351000Y-107467381D01*
X118112905Y-107467381D01*
X119017667Y-106467381D02*
X119636715Y-106467381D01*
X119303381Y-106848333D01*
X119446239Y-106848333D01*
X119541477Y-106895952D01*
X119589096Y-106943571D01*
X119636715Y-107038810D01*
X119636715Y-107276905D01*
X119589096Y-107372143D01*
X119541477Y-107419762D01*
X119446239Y-107467381D01*
X119160524Y-107467381D01*
X119065286Y-107419762D01*
X119017667Y-107372143D01*
X118108505Y-104312981D02*
X118108505Y-103312981D01*
X118346600Y-103312981D01*
X118489458Y-103360600D01*
X118584696Y-103455838D01*
X118632315Y-103551076D01*
X118679934Y-103741552D01*
X118679934Y-103884410D01*
X118632315Y-104074886D01*
X118584696Y-104170124D01*
X118489458Y-104265362D01*
X118346600Y-104312981D01*
X118108505Y-104312981D01*
X119060886Y-103408219D02*
X119108505Y-103360600D01*
X119203743Y-103312981D01*
X119441839Y-103312981D01*
X119537077Y-103360600D01*
X119584696Y-103408219D01*
X119632315Y-103503457D01*
X119632315Y-103598695D01*
X119584696Y-103741552D01*
X119013267Y-104312981D01*
X119632315Y-104312981D01*
X129292505Y-110424981D02*
X129911553Y-110424981D01*
X129578219Y-110805933D01*
X129721077Y-110805933D01*
X129816315Y-110853552D01*
X129863934Y-110901171D01*
X129911553Y-110996410D01*
X129911553Y-111234505D01*
X129863934Y-111329743D01*
X129816315Y-111377362D01*
X129721077Y-111424981D01*
X129435362Y-111424981D01*
X129340124Y-111377362D01*
X129292505Y-111329743D01*
X130197267Y-110424981D02*
X130530600Y-111424981D01*
X130863934Y-110424981D01*
X131102029Y-110424981D02*
X131721077Y-110424981D01*
X131387743Y-110805933D01*
X131530601Y-110805933D01*
X131625839Y-110853552D01*
X131673458Y-110901171D01*
X131721077Y-110996410D01*
X131721077Y-111234505D01*
X131673458Y-111329743D01*
X131625839Y-111377362D01*
X131530601Y-111424981D01*
X131244886Y-111424981D01*
X131149648Y-111377362D01*
X131102029Y-111329743D01*
X130289324Y-116012981D02*
X129813133Y-116012981D01*
X129765514Y-116489171D01*
X129813133Y-116441552D01*
X129908371Y-116393933D01*
X130146467Y-116393933D01*
X130241705Y-116441552D01*
X130289324Y-116489171D01*
X130336943Y-116584410D01*
X130336943Y-116822505D01*
X130289324Y-116917743D01*
X130241705Y-116965362D01*
X130146467Y-117012981D01*
X129908371Y-117012981D01*
X129813133Y-116965362D01*
X129765514Y-116917743D01*
X130622657Y-116012981D02*
X130955990Y-117012981D01*
X131289324Y-116012981D01*
D13*
X125779800Y-98750200D02*
X125779800Y-102570200D01*
X125779800Y-102570200D02*
X127559800Y-102570200D01*
X127559800Y-102570200D02*
X127559800Y-98750200D01*
X125779800Y-98750200D02*
X127559800Y-98750200D01*
X121981000Y-105139400D02*
X121981000Y-106239400D01*
X120081000Y-105139400D02*
X120081000Y-106239400D01*
X121931000Y-102989400D02*
X120131000Y-102989400D01*
X130819400Y-109319000D02*
X130819400Y-105019000D01*
X130819400Y-105019000D02*
X128819400Y-105019000D01*
X128819400Y-105019000D02*
X128819400Y-109319000D01*
D11*
X118760800Y-100449200D02*
X118810800Y-100449200D01*
X118760800Y-96299200D02*
X118905800Y-96299200D01*
X123910800Y-96299200D02*
X123765800Y-96299200D01*
X123910800Y-100449200D02*
X123765800Y-100449200D01*
X118760800Y-100449200D02*
X118760800Y-96299200D01*
X123910800Y-100449200D02*
X123910800Y-96299200D01*
X118810800Y-100449200D02*
X118810800Y-101849200D01*
D13*
X129142600Y-96739000D02*
X129142600Y-95539000D01*
X130902600Y-95539000D02*
X130902600Y-96739000D01*
X117467000Y-108497000D02*
X116467000Y-108497000D01*
X116467000Y-110197000D02*
X117467000Y-110197000D01*
X131420600Y-115625800D02*
X131420600Y-111805800D01*
X131420600Y-111805800D02*
X129640600Y-111805800D01*
X129640600Y-111805800D02*
X129640600Y-115625800D01*
X131420600Y-115625800D02*
X129640600Y-115625800D01*
X125779800Y-98750200D02*
X125779800Y-102570200D01*
X125779800Y-102570200D02*
X127559800Y-102570200D01*
X127559800Y-102570200D02*
X127559800Y-98750200D01*
X125779800Y-98750200D02*
X127559800Y-98750200D01*
X126069800Y-96325800D02*
X127269800Y-96325800D01*
X127269800Y-98085800D02*
X126069800Y-98085800D01*
X126069800Y-94243000D02*
X127269800Y-94243000D01*
X127269800Y-96003000D02*
X126069800Y-96003000D01*
X117783800Y-99069400D02*
X117783800Y-97069400D01*
X115743800Y-97069400D02*
X115743800Y-99069400D01*
D11*
X124268200Y-115388600D02*
X127038200Y-115408600D01*
X127038200Y-115408600D02*
X127058200Y-111188600D01*
X127118200Y-111178600D02*
X124338200Y-111188600D01*
X118398200Y-114918600D02*
X116428200Y-114918600D01*
X116428200Y-114848600D02*
X116448200Y-111608600D01*
X116428200Y-111598600D02*
X118358200Y-111598600D01*
X124988329Y-113258600D02*
G75*
G03X124988329Y-113258600I-3500129J0D01*
G01*
D13*
X127865000Y-110146200D02*
X127865000Y-108446200D01*
X127865000Y-108446200D02*
X125315000Y-108446200D01*
X127865000Y-110146200D02*
X125315000Y-110146200D01*
X130699400Y-102498600D02*
X130699400Y-103698600D01*
X128939400Y-103698600D02*
X128939400Y-102498600D01*
X115924600Y-103169800D02*
X114394600Y-103169800D01*
X115924600Y-106989800D02*
X114394600Y-106989800D01*
X114394600Y-103169800D02*
X114394600Y-106989800D01*
X115924600Y-106989800D02*
X117704600Y-106989800D01*
X117704600Y-106989800D02*
X117704600Y-103169800D01*
X115924600Y-103169800D02*
X117704600Y-103169800D01*
D11*
X114592905Y-116987381D02*
X114592905Y-115987381D01*
X114973858Y-115987381D01*
X115069096Y-116035000D01*
X115116715Y-116082619D01*
X115164334Y-116177857D01*
X115164334Y-116320714D01*
X115116715Y-116415952D01*
X115069096Y-116463571D01*
X114973858Y-116511190D01*
X114592905Y-116511190D01*
X116116715Y-116987381D02*
X115545286Y-116987381D01*
X115831000Y-116987381D02*
X115831000Y-115987381D01*
X115735762Y-116130238D01*
X115640524Y-116225476D01*
X115545286Y-116273095D01*
X124469800Y-101350676D02*
X124422181Y-101445914D01*
X124422181Y-101588771D01*
X124469800Y-101731629D01*
X124565038Y-101826867D01*
X124660276Y-101874486D01*
X124850752Y-101922105D01*
X124993610Y-101922105D01*
X125184086Y-101874486D01*
X125279324Y-101826867D01*
X125374562Y-101731629D01*
X125422181Y-101588771D01*
X125422181Y-101493533D01*
X125374562Y-101350676D01*
X125326943Y-101303057D01*
X124993610Y-101303057D01*
X124993610Y-101493533D01*
X125374562Y-100922105D02*
X125422181Y-100779248D01*
X125422181Y-100541152D01*
X125374562Y-100445914D01*
X125326943Y-100398295D01*
X125231705Y-100350676D01*
X125136467Y-100350676D01*
X125041229Y-100398295D01*
X124993610Y-100445914D01*
X124945990Y-100541152D01*
X124898371Y-100731629D01*
X124850752Y-100826867D01*
X124803133Y-100874486D01*
X124707895Y-100922105D01*
X124612657Y-100922105D01*
X124517419Y-100874486D01*
X124469800Y-100826867D01*
X124422181Y-100731629D01*
X124422181Y-100493533D01*
X124469800Y-100350676D01*
X124517419Y-99969724D02*
X124469800Y-99922105D01*
X124422181Y-99826867D01*
X124422181Y-99588771D01*
X124469800Y-99493533D01*
X124517419Y-99445914D01*
X124612657Y-99398295D01*
X124707895Y-99398295D01*
X124850752Y-99445914D01*
X125422181Y-100017343D01*
X125422181Y-99398295D01*
X123044009Y-105716390D02*
X123044009Y-106192581D01*
X122710676Y-105192581D02*
X123044009Y-105716390D01*
X123377343Y-105192581D01*
X124234486Y-106192581D02*
X123663057Y-106192581D01*
X123948771Y-106192581D02*
X123948771Y-105192581D01*
X123853533Y-105335438D01*
X123758295Y-105430676D01*
X123663057Y-105478295D01*
X127049305Y-106497381D02*
X127049305Y-105497381D01*
X127287400Y-105497381D01*
X127430258Y-105545000D01*
X127525496Y-105640238D01*
X127573115Y-105735476D01*
X127620734Y-105925952D01*
X127620734Y-106068810D01*
X127573115Y-106259286D01*
X127525496Y-106354524D01*
X127430258Y-106449762D01*
X127287400Y-106497381D01*
X127049305Y-106497381D01*
X128573115Y-106497381D02*
X128001686Y-106497381D01*
X128287400Y-106497381D02*
X128287400Y-105497381D01*
X128192162Y-105640238D01*
X128096924Y-105735476D01*
X128001686Y-105783095D01*
X122656695Y-102347781D02*
X122656695Y-103157305D01*
X122704314Y-103252543D01*
X122751933Y-103300162D01*
X122847171Y-103347781D01*
X123037648Y-103347781D01*
X123132886Y-103300162D01*
X123180505Y-103252543D01*
X123228124Y-103157305D01*
X123228124Y-102347781D01*
X124228124Y-103347781D02*
X123656695Y-103347781D01*
X123942409Y-103347781D02*
X123942409Y-102347781D01*
X123847171Y-102490638D01*
X123751933Y-102585876D01*
X123656695Y-102633495D01*
X129855934Y-94406981D02*
X129522600Y-93930790D01*
X129284505Y-94406981D02*
X129284505Y-93406981D01*
X129665458Y-93406981D01*
X129760696Y-93454600D01*
X129808315Y-93502219D01*
X129855934Y-93597457D01*
X129855934Y-93740314D01*
X129808315Y-93835552D01*
X129760696Y-93883171D01*
X129665458Y-93930790D01*
X129284505Y-93930790D01*
X130189267Y-93406981D02*
X130808315Y-93406981D01*
X130474981Y-93787933D01*
X130617839Y-93787933D01*
X130713077Y-93835552D01*
X130760696Y-93883171D01*
X130808315Y-93978410D01*
X130808315Y-94216505D01*
X130760696Y-94311743D01*
X130713077Y-94359362D01*
X130617839Y-94406981D01*
X130332124Y-94406981D01*
X130236886Y-94359362D01*
X130189267Y-94311743D01*
X119614334Y-109492143D02*
X119566715Y-109539762D01*
X119423858Y-109587381D01*
X119328620Y-109587381D01*
X119185762Y-109539762D01*
X119090524Y-109444524D01*
X119042905Y-109349286D01*
X118995286Y-109158810D01*
X118995286Y-109015952D01*
X119042905Y-108825476D01*
X119090524Y-108730238D01*
X119185762Y-108635000D01*
X119328620Y-108587381D01*
X119423858Y-108587381D01*
X119566715Y-108635000D01*
X119614334Y-108682619D01*
X120566715Y-109587381D02*
X119995286Y-109587381D01*
X120281000Y-109587381D02*
X120281000Y-108587381D01*
X120185762Y-108730238D01*
X120090524Y-108825476D01*
X119995286Y-108873095D01*
X128201800Y-114406276D02*
X128154181Y-114501514D01*
X128154181Y-114644371D01*
X128201800Y-114787229D01*
X128297038Y-114882467D01*
X128392276Y-114930086D01*
X128582752Y-114977705D01*
X128725610Y-114977705D01*
X128916086Y-114930086D01*
X129011324Y-114882467D01*
X129106562Y-114787229D01*
X129154181Y-114644371D01*
X129154181Y-114549133D01*
X129106562Y-114406276D01*
X129058943Y-114358657D01*
X128725610Y-114358657D01*
X128725610Y-114549133D01*
X129106562Y-113977705D02*
X129154181Y-113834848D01*
X129154181Y-113596752D01*
X129106562Y-113501514D01*
X129058943Y-113453895D01*
X128963705Y-113406276D01*
X128868467Y-113406276D01*
X128773229Y-113453895D01*
X128725610Y-113501514D01*
X128677990Y-113596752D01*
X128630371Y-113787229D01*
X128582752Y-113882467D01*
X128535133Y-113930086D01*
X128439895Y-113977705D01*
X128344657Y-113977705D01*
X128249419Y-113930086D01*
X128201800Y-113882467D01*
X128154181Y-113787229D01*
X128154181Y-113549133D01*
X128201800Y-113406276D01*
X129154181Y-112453895D02*
X129154181Y-113025324D01*
X129154181Y-112739610D02*
X128154181Y-112739610D01*
X128297038Y-112834848D01*
X128392276Y-112930086D01*
X128439895Y-113025324D01*
X124469800Y-101350676D02*
X124422181Y-101445914D01*
X124422181Y-101588771D01*
X124469800Y-101731629D01*
X124565038Y-101826867D01*
X124660276Y-101874486D01*
X124850752Y-101922105D01*
X124993610Y-101922105D01*
X125184086Y-101874486D01*
X125279324Y-101826867D01*
X125374562Y-101731629D01*
X125422181Y-101588771D01*
X125422181Y-101493533D01*
X125374562Y-101350676D01*
X125326943Y-101303057D01*
X124993610Y-101303057D01*
X124993610Y-101493533D01*
X125374562Y-100922105D02*
X125422181Y-100779248D01*
X125422181Y-100541152D01*
X125374562Y-100445914D01*
X125326943Y-100398295D01*
X125231705Y-100350676D01*
X125136467Y-100350676D01*
X125041229Y-100398295D01*
X124993610Y-100445914D01*
X124945990Y-100541152D01*
X124898371Y-100731629D01*
X124850752Y-100826867D01*
X124803133Y-100874486D01*
X124707895Y-100922105D01*
X124612657Y-100922105D01*
X124517419Y-100874486D01*
X124469800Y-100826867D01*
X124422181Y-100731629D01*
X124422181Y-100493533D01*
X124469800Y-100350676D01*
X124517419Y-99969724D02*
X124469800Y-99922105D01*
X124422181Y-99826867D01*
X124422181Y-99588771D01*
X124469800Y-99493533D01*
X124517419Y-99445914D01*
X124612657Y-99398295D01*
X124707895Y-99398295D01*
X124850752Y-99445914D01*
X125422181Y-100017343D01*
X125422181Y-99398295D01*
X128941534Y-98775781D02*
X128608200Y-98299590D01*
X128370105Y-98775781D02*
X128370105Y-97775781D01*
X128751058Y-97775781D01*
X128846296Y-97823400D01*
X128893915Y-97871019D01*
X128941534Y-97966257D01*
X128941534Y-98109114D01*
X128893915Y-98204352D01*
X128846296Y-98251971D01*
X128751058Y-98299590D01*
X128370105Y-98299590D01*
X129893915Y-98775781D02*
X129322486Y-98775781D01*
X129608200Y-98775781D02*
X129608200Y-97775781D01*
X129512962Y-97918638D01*
X129417724Y-98013876D01*
X129322486Y-98061495D01*
X124886981Y-95238866D02*
X124410790Y-95572200D01*
X124886981Y-95810295D02*
X123886981Y-95810295D01*
X123886981Y-95429342D01*
X123934600Y-95334104D01*
X123982219Y-95286485D01*
X124077457Y-95238866D01*
X124220314Y-95238866D01*
X124315552Y-95286485D01*
X124363171Y-95334104D01*
X124410790Y-95429342D01*
X124410790Y-95810295D01*
X123982219Y-94857914D02*
X123934600Y-94810295D01*
X123886981Y-94715057D01*
X123886981Y-94476961D01*
X123934600Y-94381723D01*
X123982219Y-94334104D01*
X124077457Y-94286485D01*
X124172695Y-94286485D01*
X124315552Y-94334104D01*
X124886981Y-94905533D01*
X124886981Y-94286485D01*
X116287610Y-101504714D02*
X116249515Y-101542810D01*
X116135229Y-101580905D01*
X116059039Y-101580905D01*
X115944753Y-101542810D01*
X115868562Y-101466619D01*
X115830467Y-101390429D01*
X115792372Y-101238048D01*
X115792372Y-101123762D01*
X115830467Y-100971381D01*
X115868562Y-100895190D01*
X115944753Y-100819000D01*
X116059039Y-100780905D01*
X116135229Y-100780905D01*
X116249515Y-100819000D01*
X116287610Y-100857095D01*
X116516181Y-100780905D02*
X116782848Y-101580905D01*
X117049515Y-100780905D01*
X117735229Y-101580905D02*
X117278086Y-101580905D01*
X117506657Y-101580905D02*
X117506657Y-100780905D01*
X117430467Y-100895190D01*
X117354276Y-100971381D01*
X117278086Y-101009476D01*
X122904334Y-109372143D02*
X122856715Y-109419762D01*
X122713858Y-109467381D01*
X122618620Y-109467381D01*
X122475762Y-109419762D01*
X122380524Y-109324524D01*
X122332905Y-109229286D01*
X122285286Y-109038810D01*
X122285286Y-108895952D01*
X122332905Y-108705476D01*
X122380524Y-108610238D01*
X122475762Y-108515000D01*
X122618620Y-108467381D01*
X122713858Y-108467381D01*
X122856715Y-108515000D01*
X122904334Y-108562619D01*
X123285286Y-108562619D02*
X123332905Y-108515000D01*
X123428143Y-108467381D01*
X123666239Y-108467381D01*
X123761477Y-108515000D01*
X123809096Y-108562619D01*
X123856715Y-108657857D01*
X123856715Y-108753095D01*
X123809096Y-108895952D01*
X123237667Y-109467381D01*
X123856715Y-109467381D01*
X125220505Y-107919781D02*
X125220505Y-106919781D01*
X125458600Y-106919781D01*
X125601458Y-106967400D01*
X125696696Y-107062638D01*
X125744315Y-107157876D01*
X125791934Y-107348352D01*
X125791934Y-107491210D01*
X125744315Y-107681686D01*
X125696696Y-107776924D01*
X125601458Y-107872162D01*
X125458600Y-107919781D01*
X125220505Y-107919781D01*
X126172886Y-107015019D02*
X126220505Y-106967400D01*
X126315743Y-106919781D01*
X126553839Y-106919781D01*
X126649077Y-106967400D01*
X126696696Y-107015019D01*
X126744315Y-107110257D01*
X126744315Y-107205495D01*
X126696696Y-107348352D01*
X126125267Y-107919781D01*
X126744315Y-107919781D01*
X132013381Y-103261666D02*
X131537190Y-103595000D01*
X132013381Y-103833095D02*
X131013381Y-103833095D01*
X131013381Y-103452142D01*
X131061000Y-103356904D01*
X131108619Y-103309285D01*
X131203857Y-103261666D01*
X131346714Y-103261666D01*
X131441952Y-103309285D01*
X131489571Y-103356904D01*
X131537190Y-103452142D01*
X131537190Y-103833095D01*
X131346714Y-102404523D02*
X132013381Y-102404523D01*
X130965762Y-102642619D02*
X131680048Y-102880714D01*
X131680048Y-102261666D01*
X115458619Y-102025000D02*
X115382428Y-101986905D01*
X115268143Y-101986905D01*
X115153857Y-102025000D01*
X115077666Y-102101190D01*
X115039571Y-102177381D01*
X115001476Y-102329762D01*
X115001476Y-102444048D01*
X115039571Y-102596429D01*
X115077666Y-102672619D01*
X115153857Y-102748810D01*
X115268143Y-102786905D01*
X115344333Y-102786905D01*
X115458619Y-102748810D01*
X115496714Y-102710714D01*
X115496714Y-102444048D01*
X115344333Y-102444048D01*
X115801476Y-102748810D02*
X115915762Y-102786905D01*
X116106238Y-102786905D01*
X116182428Y-102748810D01*
X116220524Y-102710714D01*
X116258619Y-102634524D01*
X116258619Y-102558333D01*
X116220524Y-102482143D01*
X116182428Y-102444048D01*
X116106238Y-102405952D01*
X115953857Y-102367857D01*
X115877666Y-102329762D01*
X115839571Y-102291667D01*
X115801476Y-102215476D01*
X115801476Y-102139286D01*
X115839571Y-102063095D01*
X115877666Y-102025000D01*
X115953857Y-101986905D01*
X116144333Y-101986905D01*
X116258619Y-102025000D01*
X116525286Y-101986905D02*
X117020524Y-101986905D01*
X116753857Y-102291667D01*
X116868143Y-102291667D01*
X116944333Y-102329762D01*
X116982429Y-102367857D01*
X117020524Y-102444048D01*
X117020524Y-102634524D01*
X116982429Y-102710714D01*
X116944333Y-102748810D01*
X116868143Y-102786905D01*
X116639571Y-102786905D01*
X116563381Y-102748810D01*
X116525286Y-102710714D01*
M02*
