G04 #@! TF.FileFunction,Copper,L1,Top,Signal*
%FSLAX46Y46*%
G04 Gerber Fmt 4.6, Leading zero omitted, Abs format (unit mm)*
G04 Created by KiCad (PCBNEW 4.0.6) date 10/12/17 07:50:00*
%MOMM*%
%LPD*%
G01*
G04 APERTURE LIST*
%ADD10C,0.100000*%
%ADD11C,0.300000*%
%ADD12C,2.100000*%
%ADD13R,1.270000X0.970000*%
%ADD14R,1.800000X1.750000*%
%ADD15R,1.700000X1.300000*%
%ADD16R,0.600000X1.550000*%
%ADD17R,1.300000X0.700000*%
%ADD18R,1.000000X1.250000*%
%ADD19R,0.700000X1.300000*%
%ADD20R,1.600000X1.000000*%
%ADD21R,2.000000X5.000000*%
%ADD22R,1.700000X4.000000*%
%ADD23C,1.200000*%
%ADD24C,1.000000*%
%ADD25C,0.500000*%
%ADD26C,0.400000*%
G04 APERTURE END LIST*
D10*
D11*
X125006028Y-113264143D02*
X123863171Y-113264143D01*
X124434600Y-113835571D02*
X124434600Y-112692714D01*
X125006028Y-113264143D02*
X123863171Y-113264143D01*
X124434600Y-113835571D02*
X124434600Y-112692714D01*
D12*
X133481000Y-94665000D03*
X133481000Y-97205000D03*
X133481000Y-99745000D03*
X133481000Y-102285000D03*
X133481000Y-104825000D03*
X133481000Y-107365000D03*
X133481000Y-109905000D03*
X133481000Y-112445000D03*
X133481000Y-114985000D03*
X133481000Y-92125000D03*
X130941000Y-92125000D03*
X128401000Y-92125000D03*
X125861000Y-92125000D03*
X123321000Y-92125000D03*
X120781000Y-92125000D03*
X118241000Y-92125000D03*
X115701000Y-92125000D03*
X113161000Y-92125000D03*
X113161000Y-94665000D03*
X113161000Y-97205000D03*
X113161000Y-99745000D03*
X113161000Y-102285000D03*
X113161000Y-104825000D03*
X113161000Y-107365000D03*
X113161000Y-109905000D03*
X113161000Y-112445000D03*
X113161000Y-114985000D03*
D13*
X126669800Y-99390200D03*
X126669800Y-100660200D03*
X126669800Y-101930200D03*
D14*
X121031000Y-104064400D03*
X121031000Y-107314400D03*
D15*
X129819400Y-105819000D03*
X129819400Y-109319000D03*
D16*
X119430800Y-101074200D03*
X120700800Y-101074200D03*
X121970800Y-101074200D03*
X123240800Y-101074200D03*
X123240800Y-95674200D03*
X121970800Y-95674200D03*
X120700800Y-95674200D03*
X119430800Y-95674200D03*
D17*
X130022600Y-95189000D03*
X130022600Y-97089000D03*
D18*
X115967000Y-109347000D03*
X117967000Y-109347000D03*
D13*
X130530600Y-114985800D03*
X130530600Y-113715800D03*
X130530600Y-112445800D03*
X126669800Y-99390200D03*
X126669800Y-100660200D03*
X126669800Y-101930200D03*
D19*
X127619800Y-97205800D03*
X125719800Y-97205800D03*
X127619800Y-95123000D03*
X125719800Y-95123000D03*
D20*
X116763800Y-96569400D03*
X116763800Y-99569400D03*
D21*
X126608200Y-113298600D03*
D22*
X116458200Y-113258600D03*
D18*
X127415000Y-109296200D03*
X125315000Y-109296200D03*
D17*
X129819400Y-104048600D03*
X129819400Y-102148600D03*
D13*
X116814600Y-103809800D03*
X116814600Y-105079800D03*
X116814600Y-106349800D03*
X115264600Y-105079800D03*
D23*
X116763800Y-95275400D03*
D24*
X116763800Y-107823000D03*
D23*
X128041400Y-107823000D03*
X128041400Y-107823000D03*
D24*
X116763800Y-107823000D03*
X115261000Y-103555000D03*
X118401000Y-105775000D03*
D25*
X126608200Y-113298600D02*
X126608200Y-112304200D01*
X127415000Y-110887800D02*
X127415000Y-109296200D01*
X126608200Y-111694600D02*
X127415000Y-110887800D01*
X126608200Y-113298600D02*
X126608200Y-111694600D01*
X127415000Y-108500200D02*
X127415000Y-109296200D01*
X128041400Y-107873800D02*
X127415000Y-108500200D01*
X128041400Y-103403400D02*
X128041400Y-107873800D01*
X129296200Y-102148600D02*
X128041400Y-103403400D01*
X129819400Y-102148600D02*
X129296200Y-102148600D01*
X116763800Y-107823000D02*
X115967000Y-108619800D01*
X115967000Y-108619800D02*
X115967000Y-109347000D01*
X116763800Y-96569400D02*
X116763800Y-95275400D01*
X118585000Y-95674200D02*
X118186200Y-95275400D01*
X118186200Y-95275400D02*
X116763800Y-95275400D01*
X119430800Y-95674200D02*
X118585000Y-95674200D01*
X119430800Y-95674200D02*
X118585000Y-95674200D01*
X118186200Y-95275400D02*
X116763800Y-95275400D01*
X118585000Y-95674200D02*
X118186200Y-95275400D01*
X116763800Y-96569400D02*
X116763800Y-95275400D01*
X115967000Y-108619800D02*
X115967000Y-109347000D01*
X116763800Y-107823000D02*
X115967000Y-108619800D01*
X129819400Y-102148600D02*
X129296200Y-102148600D01*
X129296200Y-102148600D02*
X128041400Y-103403400D01*
X128041400Y-103403400D02*
X128041400Y-107873800D01*
X128041400Y-107873800D02*
X127415000Y-108500200D01*
X127415000Y-108500200D02*
X127415000Y-109296200D01*
X126608200Y-113298600D02*
X126608200Y-111694600D01*
X126608200Y-111694600D02*
X127415000Y-110887800D01*
X127415000Y-110887800D02*
X127415000Y-109296200D01*
X126608200Y-113298600D02*
X126608200Y-112304200D01*
X116458200Y-113258600D02*
X116103400Y-113258600D01*
X116103400Y-113258600D02*
X114376200Y-114985800D01*
X114376200Y-114985800D02*
X113157000Y-114985800D01*
X117627400Y-113258600D02*
X116458200Y-113258600D01*
X117983000Y-112903000D02*
X117627400Y-113258600D01*
X117983000Y-109331000D02*
X117983000Y-112903000D01*
X118017800Y-109296200D02*
X117983000Y-109331000D01*
X118017800Y-109296200D02*
X117983000Y-109331000D01*
X117983000Y-109331000D02*
X117983000Y-112903000D01*
X117983000Y-112903000D02*
X117627400Y-113258600D01*
X117627400Y-113258600D02*
X116458200Y-113258600D01*
X114376200Y-114985800D02*
X113157000Y-114985800D01*
X116103400Y-113258600D02*
X114376200Y-114985800D01*
X116458200Y-113258600D02*
X116103400Y-113258600D01*
X123240800Y-109296200D02*
X118017800Y-109296200D01*
X123240800Y-101074200D02*
X123240800Y-109296200D01*
X123240800Y-101074200D02*
X123240800Y-109296200D01*
X123240800Y-109296200D02*
X118017800Y-109296200D01*
X125315000Y-109296200D02*
X123240800Y-109296200D01*
X125315000Y-109296200D02*
X123240800Y-109296200D01*
X116763800Y-100253800D02*
X117584200Y-101074200D01*
X117584200Y-101074200D02*
X119430800Y-101074200D01*
X116763800Y-99569400D02*
X116763800Y-100253800D01*
X120014400Y-107314400D02*
X119430800Y-106730800D01*
X119430800Y-106730800D02*
X119430800Y-101074200D01*
X121031000Y-107314400D02*
X120014400Y-107314400D01*
X121031000Y-107314400D02*
X120014400Y-107314400D01*
X119430800Y-106730800D02*
X119430800Y-101074200D01*
X120014400Y-107314400D02*
X119430800Y-106730800D01*
X116763800Y-99569400D02*
X116763800Y-100253800D01*
X117584200Y-101074200D02*
X119430800Y-101074200D01*
X116763800Y-100253800D02*
X117584200Y-101074200D01*
X127619800Y-95123000D02*
X127685800Y-95189000D01*
X127619800Y-97205800D02*
X127619800Y-95123000D01*
X129819400Y-110210600D02*
X129819400Y-109319000D01*
X128701800Y-111328200D02*
X129819400Y-110210600D01*
X128701800Y-113004600D02*
X128701800Y-111328200D01*
X129413000Y-113715800D02*
X128701800Y-113004600D01*
X130530600Y-113715800D02*
X129413000Y-113715800D01*
X130807400Y-109319000D02*
X131648200Y-108478200D01*
X131648200Y-108478200D02*
X131648200Y-95885000D01*
X129819400Y-109319000D02*
X130807400Y-109319000D01*
X131648200Y-95885000D02*
X130952200Y-95189000D01*
X130952200Y-95189000D02*
X130022600Y-95189000D01*
X127685800Y-95189000D02*
X130022600Y-95189000D01*
X127685800Y-95189000D02*
X130022600Y-95189000D01*
X130952200Y-95189000D02*
X130022600Y-95189000D01*
X131648200Y-95885000D02*
X130952200Y-95189000D01*
X129819400Y-109319000D02*
X130807400Y-109319000D01*
X131648200Y-108478200D02*
X131648200Y-95885000D01*
X130807400Y-109319000D02*
X131648200Y-108478200D01*
X130530600Y-113715800D02*
X129413000Y-113715800D01*
X129413000Y-113715800D02*
X128701800Y-113004600D01*
X128701800Y-113004600D02*
X128701800Y-111328200D01*
X128701800Y-111328200D02*
X129819400Y-110210600D01*
X129819400Y-110210600D02*
X129819400Y-109319000D01*
X127619800Y-97205800D02*
X127619800Y-95123000D01*
X127619800Y-95123000D02*
X127685800Y-95189000D01*
X121970800Y-94843600D02*
X121970800Y-95674200D01*
X121234200Y-94107000D02*
X121970800Y-94843600D01*
X119354600Y-94107000D02*
X121234200Y-94107000D01*
X118237000Y-92989400D02*
X119354600Y-94107000D01*
X118237000Y-92024200D02*
X118237000Y-92989400D01*
X121970800Y-96570800D02*
X122605800Y-97205800D01*
X122605800Y-97205800D02*
X125719800Y-97205800D01*
X121970800Y-95674200D02*
X121970800Y-96570800D01*
X121970800Y-95674200D02*
X121970800Y-96570800D01*
X122605800Y-97205800D02*
X125719800Y-97205800D01*
X121970800Y-96570800D02*
X122605800Y-97205800D01*
X118237000Y-92024200D02*
X118237000Y-92989400D01*
X118237000Y-92989400D02*
X119354600Y-94107000D01*
X119354600Y-94107000D02*
X121234200Y-94107000D01*
X121234200Y-94107000D02*
X121970800Y-94843600D01*
X121970800Y-94843600D02*
X121970800Y-95674200D01*
X123240800Y-94691200D02*
X123240800Y-95674200D01*
X120777000Y-92227400D02*
X123240800Y-94691200D01*
X120777000Y-92024200D02*
X120777000Y-92227400D01*
X123672600Y-95123000D02*
X123240800Y-94691200D01*
X125719800Y-95123000D02*
X123672600Y-95123000D01*
X125719800Y-95123000D02*
X123672600Y-95123000D01*
X123672600Y-95123000D02*
X123240800Y-94691200D01*
X120777000Y-92024200D02*
X120777000Y-92227400D01*
X120777000Y-92227400D02*
X123240800Y-94691200D01*
X123240800Y-94691200D02*
X123240800Y-95674200D01*
X121158000Y-103937400D02*
X121031000Y-104064400D01*
X120700800Y-102362000D02*
X121031000Y-102692200D01*
X121031000Y-102692200D02*
X121031000Y-104064400D01*
X120700800Y-101074200D02*
X120700800Y-102362000D01*
X120700800Y-101074200D02*
X120700800Y-102362000D01*
X121031000Y-102692200D02*
X121031000Y-104064400D01*
X120700800Y-102362000D02*
X121031000Y-102692200D01*
X121158000Y-103937400D02*
X121031000Y-104064400D01*
D26*
X121970800Y-99872800D02*
X121970800Y-101074200D01*
X122250200Y-99593400D02*
X121970800Y-99872800D01*
X123723400Y-99593400D02*
X122250200Y-99593400D01*
X124739400Y-100609400D02*
X123723400Y-99593400D01*
X124739400Y-101066600D02*
X124739400Y-100609400D01*
X125603000Y-101930200D02*
X124739400Y-101066600D01*
X126669800Y-101930200D02*
X125603000Y-101930200D01*
X126669800Y-101930200D02*
X125603000Y-101930200D01*
X125603000Y-101930200D02*
X124739400Y-101066600D01*
X124739400Y-101066600D02*
X124739400Y-100609400D01*
X124739400Y-100609400D02*
X123723400Y-99593400D01*
X123723400Y-99593400D02*
X122250200Y-99593400D01*
X122250200Y-99593400D02*
X121970800Y-99872800D01*
X121970800Y-99872800D02*
X121970800Y-101074200D01*
X120700800Y-96824800D02*
X120700800Y-95674200D01*
X121996200Y-98120200D02*
X120700800Y-96824800D01*
X124485400Y-98120200D02*
X121996200Y-98120200D01*
X125755400Y-99390200D02*
X124485400Y-98120200D01*
X126669800Y-99390200D02*
X125755400Y-99390200D01*
X126669800Y-99390200D02*
X125755400Y-99390200D01*
X125755400Y-99390200D02*
X124485400Y-98120200D01*
X124485400Y-98120200D02*
X121996200Y-98120200D01*
X121996200Y-98120200D02*
X120700800Y-96824800D01*
X120700800Y-96824800D02*
X120700800Y-95674200D01*
D25*
X130530600Y-114985800D02*
X133477000Y-114985800D01*
X130530600Y-114985800D02*
X133477000Y-114985800D01*
X130530600Y-112445800D02*
X133477000Y-112445800D01*
X130530600Y-112445800D02*
X133477000Y-112445800D01*
X116814600Y-103200200D02*
X113360200Y-99745800D01*
X113360200Y-99745800D02*
X113157000Y-99745800D01*
X116814600Y-103809800D02*
X116814600Y-103200200D01*
X116814600Y-103809800D02*
X116814600Y-103200200D01*
X113360200Y-99745800D02*
X113157000Y-99745800D01*
X116814600Y-103200200D02*
X113360200Y-99745800D01*
X113991000Y-102285000D02*
X115261000Y-103555000D01*
X117846200Y-106349800D02*
X118401000Y-105775000D01*
X117846200Y-106349800D02*
X116814600Y-106349800D01*
X113991000Y-102285000D02*
X113161000Y-102285000D01*
X115264600Y-105079800D02*
X115264600Y-107951400D01*
X114791000Y-109315000D02*
X114201000Y-109905000D01*
X114791000Y-108425000D02*
X114791000Y-109315000D01*
X115264600Y-107951400D02*
X114791000Y-108425000D01*
X114201000Y-109905000D02*
X113161000Y-109905000D01*
D26*
X118338600Y-103403400D02*
X118338600Y-104470200D01*
X118338600Y-104470200D02*
X117729000Y-105079800D01*
X117729000Y-105079800D02*
X116814600Y-105079800D01*
X117729000Y-105079800D02*
X116814600Y-105079800D01*
X118338600Y-104470200D02*
X117729000Y-105079800D01*
X118338600Y-103403400D02*
X118338600Y-104470200D01*
X125968198Y-100660200D02*
X124190198Y-98882200D01*
X124190198Y-98882200D02*
X120319800Y-98882200D01*
X120319800Y-98882200D02*
X119456200Y-98018600D01*
X119456200Y-98018600D02*
X115697000Y-98018600D01*
X115697000Y-98018600D02*
X115138200Y-98577400D01*
X115138200Y-98577400D02*
X115138200Y-100203000D01*
X115138200Y-100203000D02*
X118338600Y-103403400D01*
X126669800Y-100660200D02*
X125968198Y-100660200D01*
D25*
X126669800Y-100660200D02*
X128905000Y-100660200D01*
X128905000Y-100660200D02*
X128955800Y-100660200D01*
X128955800Y-100660200D02*
X130022600Y-99593400D01*
X130022600Y-99593400D02*
X130022600Y-97089000D01*
X130022600Y-99593400D02*
X130022600Y-97089000D01*
X128955800Y-100660200D02*
X130022600Y-99593400D01*
X128905000Y-100660200D02*
X128955800Y-100660200D01*
X126669800Y-100660200D02*
X128905000Y-100660200D01*
D26*
X126669800Y-100660200D02*
X125968198Y-100660200D01*
X115138200Y-100203000D02*
X118338600Y-103403400D01*
X115138200Y-98577400D02*
X115138200Y-100203000D01*
X115697000Y-98018600D02*
X115138200Y-98577400D01*
X119456200Y-98018600D02*
X115697000Y-98018600D01*
X120319800Y-98882200D02*
X119456200Y-98018600D01*
X124190198Y-98882200D02*
X120319800Y-98882200D01*
X125968198Y-100660200D02*
X124190198Y-98882200D01*
D25*
X129531800Y-105819000D02*
X129819400Y-105819000D01*
X129819400Y-104048600D02*
X129819400Y-105819000D01*
X129819400Y-104048600D02*
X129819400Y-105819000D01*
X129531800Y-105819000D02*
X129819400Y-105819000D01*
M02*
