M48
;DRILL file {KiCad 4.0.6} date 10/12/17 07:49:57
;FORMAT={-:-/ absolute / inch / decimal}
FMAT,2
INCH,TZ
T1C0.020
T2C0.024
T3C0.059
%
G90
G05
M72
T1
X4.5378Y-4.077
X4.597Y-4.245
X4.597Y-4.245
X4.6615Y-4.1644
T2
X4.597Y-3.751
X5.041Y-4.245
X5.041Y-4.245
T3
X4.4552Y-3.627
X4.4552Y-3.727
X4.4552Y-3.827
X4.4552Y-3.927
X4.4552Y-4.027
X4.4552Y-4.127
X4.4552Y-4.227
X4.4552Y-4.327
X4.4552Y-4.427
X4.4552Y-4.527
X4.5552Y-3.627
X4.6552Y-3.627
X4.7552Y-3.627
X4.8552Y-3.627
X4.9552Y-3.627
X5.0552Y-3.627
X5.1552Y-3.627
X5.2552Y-3.627
X5.2552Y-3.727
X5.2552Y-3.827
X5.2552Y-3.927
X5.2552Y-4.027
X5.2552Y-4.127
X5.2552Y-4.227
X5.2552Y-4.327
X5.2552Y-4.427
X5.2552Y-4.527
T0
M30
