G04 #@! TF.FileFunction,Legend,Top*
%FSLAX46Y46*%
G04 Gerber Fmt 4.6, Leading zero omitted, Abs format (unit mm)*
G04 Created by KiCad (PCBNEW 4.0.6) date 04/09/19 20:00:22*
%MOMM*%
%LPD*%
G01*
G04 APERTURE LIST*
%ADD10C,0.100000*%
%ADD11C,0.150000*%
%ADD12C,0.400000*%
%ADD13C,0.120000*%
G04 APERTURE END LIST*
D10*
D11*
X142660524Y-79896905D02*
X142660524Y-79096905D01*
X142851000Y-79096905D01*
X142965286Y-79135000D01*
X143041477Y-79211190D01*
X143079572Y-79287381D01*
X143117667Y-79439762D01*
X143117667Y-79554048D01*
X143079572Y-79706429D01*
X143041477Y-79782619D01*
X142965286Y-79858810D01*
X142851000Y-79896905D01*
X142660524Y-79896905D01*
X143803381Y-79096905D02*
X143651000Y-79096905D01*
X143574810Y-79135000D01*
X143536715Y-79173095D01*
X143460524Y-79287381D01*
X143422429Y-79439762D01*
X143422429Y-79744524D01*
X143460524Y-79820714D01*
X143498619Y-79858810D01*
X143574810Y-79896905D01*
X143727191Y-79896905D01*
X143803381Y-79858810D01*
X143841477Y-79820714D01*
X143879572Y-79744524D01*
X143879572Y-79554048D01*
X143841477Y-79477857D01*
X143803381Y-79439762D01*
X143727191Y-79401667D01*
X143574810Y-79401667D01*
X143498619Y-79439762D01*
X143460524Y-79477857D01*
X143422429Y-79554048D01*
D12*
X146535009Y-75425000D02*
G75*
G03X146535009Y-75425000I-214009J0D01*
G01*
D11*
X164221000Y-62745000D02*
X138701000Y-62745000D01*
X164221000Y-90685000D02*
X164221000Y-62745000D01*
X138701000Y-90685000D02*
X164221000Y-90685000D01*
X138701000Y-62745000D02*
X138701000Y-90685000D01*
X156675572Y-73181343D02*
X156627953Y-73228962D01*
X156485096Y-73276581D01*
X156389858Y-73276581D01*
X156247000Y-73228962D01*
X156151762Y-73133724D01*
X156104143Y-73038486D01*
X156056524Y-72848010D01*
X156056524Y-72705152D01*
X156104143Y-72514676D01*
X156151762Y-72419438D01*
X156247000Y-72324200D01*
X156389858Y-72276581D01*
X156485096Y-72276581D01*
X156627953Y-72324200D01*
X156675572Y-72371819D01*
X157580334Y-73276581D02*
X157104143Y-73276581D01*
X157104143Y-72276581D01*
X157913667Y-73276581D02*
X157913667Y-72276581D01*
X158485096Y-73276581D02*
X158056524Y-72705152D01*
X158485096Y-72276581D02*
X157913667Y-72848010D01*
X159104143Y-72276581D02*
X159199382Y-72276581D01*
X159294620Y-72324200D01*
X159342239Y-72371819D01*
X159389858Y-72467057D01*
X159437477Y-72657533D01*
X159437477Y-72895629D01*
X159389858Y-73086105D01*
X159342239Y-73181343D01*
X159294620Y-73228962D01*
X159199382Y-73276581D01*
X159104143Y-73276581D01*
X159008905Y-73228962D01*
X158961286Y-73181343D01*
X158913667Y-73086105D01*
X158866048Y-72895629D01*
X158866048Y-72657533D01*
X158913667Y-72467057D01*
X158961286Y-72371819D01*
X159008905Y-72324200D01*
X159104143Y-72276581D01*
X153845038Y-77238981D02*
X153845038Y-76238981D01*
X154321228Y-77238981D02*
X154321228Y-76238981D01*
X154892657Y-77238981D01*
X154892657Y-76238981D01*
X155225990Y-76238981D02*
X155797419Y-76238981D01*
X155511704Y-77238981D02*
X155511704Y-76238981D01*
X146192905Y-80647381D02*
X146192905Y-79647381D01*
X146431000Y-79647381D01*
X146573858Y-79695000D01*
X146669096Y-79790238D01*
X146716715Y-79885476D01*
X146764334Y-80075952D01*
X146764334Y-80218810D01*
X146716715Y-80409286D01*
X146669096Y-80504524D01*
X146573858Y-80599762D01*
X146431000Y-80647381D01*
X146192905Y-80647381D01*
X147097667Y-79647381D02*
X147716715Y-79647381D01*
X147383381Y-80028333D01*
X147526239Y-80028333D01*
X147621477Y-80075952D01*
X147669096Y-80123571D01*
X147716715Y-80218810D01*
X147716715Y-80456905D01*
X147669096Y-80552143D01*
X147621477Y-80599762D01*
X147526239Y-80647381D01*
X147240524Y-80647381D01*
X147145286Y-80599762D01*
X147097667Y-80552143D01*
X146188505Y-77492981D02*
X146188505Y-76492981D01*
X146426600Y-76492981D01*
X146569458Y-76540600D01*
X146664696Y-76635838D01*
X146712315Y-76731076D01*
X146759934Y-76921552D01*
X146759934Y-77064410D01*
X146712315Y-77254886D01*
X146664696Y-77350124D01*
X146569458Y-77445362D01*
X146426600Y-77492981D01*
X146188505Y-77492981D01*
X147140886Y-76588219D02*
X147188505Y-76540600D01*
X147283743Y-76492981D01*
X147521839Y-76492981D01*
X147617077Y-76540600D01*
X147664696Y-76588219D01*
X147712315Y-76683457D01*
X147712315Y-76778695D01*
X147664696Y-76921552D01*
X147093267Y-77492981D01*
X147712315Y-77492981D01*
X157372505Y-83604981D02*
X157991553Y-83604981D01*
X157658219Y-83985933D01*
X157801077Y-83985933D01*
X157896315Y-84033552D01*
X157943934Y-84081171D01*
X157991553Y-84176410D01*
X157991553Y-84414505D01*
X157943934Y-84509743D01*
X157896315Y-84557362D01*
X157801077Y-84604981D01*
X157515362Y-84604981D01*
X157420124Y-84557362D01*
X157372505Y-84509743D01*
X158277267Y-83604981D02*
X158610600Y-84604981D01*
X158943934Y-83604981D01*
X159182029Y-83604981D02*
X159801077Y-83604981D01*
X159467743Y-83985933D01*
X159610601Y-83985933D01*
X159705839Y-84033552D01*
X159753458Y-84081171D01*
X159801077Y-84176410D01*
X159801077Y-84414505D01*
X159753458Y-84509743D01*
X159705839Y-84557362D01*
X159610601Y-84604981D01*
X159324886Y-84604981D01*
X159229648Y-84557362D01*
X159182029Y-84509743D01*
X158369324Y-89192981D02*
X157893133Y-89192981D01*
X157845514Y-89669171D01*
X157893133Y-89621552D01*
X157988371Y-89573933D01*
X158226467Y-89573933D01*
X158321705Y-89621552D01*
X158369324Y-89669171D01*
X158416943Y-89764410D01*
X158416943Y-90002505D01*
X158369324Y-90097743D01*
X158321705Y-90145362D01*
X158226467Y-90192981D01*
X157988371Y-90192981D01*
X157893133Y-90145362D01*
X157845514Y-90097743D01*
X158702657Y-89192981D02*
X159035990Y-90192981D01*
X159369324Y-89192981D01*
D13*
X153859800Y-71930200D02*
X153859800Y-75750200D01*
X153859800Y-75750200D02*
X155639800Y-75750200D01*
X155639800Y-75750200D02*
X155639800Y-71930200D01*
X153859800Y-71930200D02*
X155639800Y-71930200D01*
X150061000Y-78319400D02*
X150061000Y-79419400D01*
X148161000Y-78319400D02*
X148161000Y-79419400D01*
X150011000Y-76169400D02*
X148211000Y-76169400D01*
X158899400Y-82499000D02*
X158899400Y-78199000D01*
X158899400Y-78199000D02*
X156899400Y-78199000D01*
X156899400Y-78199000D02*
X156899400Y-82499000D01*
D11*
X146840800Y-73629200D02*
X146890800Y-73629200D01*
X146840800Y-69479200D02*
X146985800Y-69479200D01*
X151990800Y-69479200D02*
X151845800Y-69479200D01*
X151990800Y-73629200D02*
X151845800Y-73629200D01*
X146840800Y-73629200D02*
X146840800Y-69479200D01*
X151990800Y-73629200D02*
X151990800Y-69479200D01*
X146890800Y-73629200D02*
X146890800Y-75029200D01*
D13*
X157222600Y-69919000D02*
X157222600Y-68719000D01*
X158982600Y-68719000D02*
X158982600Y-69919000D01*
X145547000Y-81677000D02*
X144547000Y-81677000D01*
X144547000Y-83377000D02*
X145547000Y-83377000D01*
X159500600Y-88805800D02*
X159500600Y-84985800D01*
X159500600Y-84985800D02*
X157720600Y-84985800D01*
X157720600Y-84985800D02*
X157720600Y-88805800D01*
X159500600Y-88805800D02*
X157720600Y-88805800D01*
X153859800Y-71930200D02*
X153859800Y-75750200D01*
X153859800Y-75750200D02*
X155639800Y-75750200D01*
X155639800Y-75750200D02*
X155639800Y-71930200D01*
X153859800Y-71930200D02*
X155639800Y-71930200D01*
X154149800Y-69505800D02*
X155349800Y-69505800D01*
X155349800Y-71265800D02*
X154149800Y-71265800D01*
X154149800Y-67423000D02*
X155349800Y-67423000D01*
X155349800Y-69183000D02*
X154149800Y-69183000D01*
X145863800Y-72249400D02*
X145863800Y-70249400D01*
X143823800Y-70249400D02*
X143823800Y-72249400D01*
D11*
X152348200Y-88568600D02*
X155118200Y-88588600D01*
X155118200Y-88588600D02*
X155138200Y-84368600D01*
X155198200Y-84358600D02*
X152418200Y-84368600D01*
X146478200Y-88098600D02*
X144508200Y-88098600D01*
X144508200Y-88028600D02*
X144528200Y-84788600D01*
X144508200Y-84778600D02*
X146438200Y-84778600D01*
X153068329Y-86438600D02*
G75*
G03X153068329Y-86438600I-3500129J0D01*
G01*
D13*
X155945000Y-83326200D02*
X155945000Y-81626200D01*
X155945000Y-81626200D02*
X153395000Y-81626200D01*
X155945000Y-83326200D02*
X153395000Y-83326200D01*
X158779400Y-75678600D02*
X158779400Y-76878600D01*
X157019400Y-76878600D02*
X157019400Y-75678600D01*
X144004600Y-76349800D02*
X142474600Y-76349800D01*
X144004600Y-80169800D02*
X142474600Y-80169800D01*
X142474600Y-76349800D02*
X142474600Y-80169800D01*
X144004600Y-80169800D02*
X145784600Y-80169800D01*
X145784600Y-80169800D02*
X145784600Y-76349800D01*
X144004600Y-76349800D02*
X145784600Y-76349800D01*
D11*
X142672905Y-90167381D02*
X142672905Y-89167381D01*
X143053858Y-89167381D01*
X143149096Y-89215000D01*
X143196715Y-89262619D01*
X143244334Y-89357857D01*
X143244334Y-89500714D01*
X143196715Y-89595952D01*
X143149096Y-89643571D01*
X143053858Y-89691190D01*
X142672905Y-89691190D01*
X144196715Y-90167381D02*
X143625286Y-90167381D01*
X143911000Y-90167381D02*
X143911000Y-89167381D01*
X143815762Y-89310238D01*
X143720524Y-89405476D01*
X143625286Y-89453095D01*
X152549800Y-74530676D02*
X152502181Y-74625914D01*
X152502181Y-74768771D01*
X152549800Y-74911629D01*
X152645038Y-75006867D01*
X152740276Y-75054486D01*
X152930752Y-75102105D01*
X153073610Y-75102105D01*
X153264086Y-75054486D01*
X153359324Y-75006867D01*
X153454562Y-74911629D01*
X153502181Y-74768771D01*
X153502181Y-74673533D01*
X153454562Y-74530676D01*
X153406943Y-74483057D01*
X153073610Y-74483057D01*
X153073610Y-74673533D01*
X153454562Y-74102105D02*
X153502181Y-73959248D01*
X153502181Y-73721152D01*
X153454562Y-73625914D01*
X153406943Y-73578295D01*
X153311705Y-73530676D01*
X153216467Y-73530676D01*
X153121229Y-73578295D01*
X153073610Y-73625914D01*
X153025990Y-73721152D01*
X152978371Y-73911629D01*
X152930752Y-74006867D01*
X152883133Y-74054486D01*
X152787895Y-74102105D01*
X152692657Y-74102105D01*
X152597419Y-74054486D01*
X152549800Y-74006867D01*
X152502181Y-73911629D01*
X152502181Y-73673533D01*
X152549800Y-73530676D01*
X152597419Y-73149724D02*
X152549800Y-73102105D01*
X152502181Y-73006867D01*
X152502181Y-72768771D01*
X152549800Y-72673533D01*
X152597419Y-72625914D01*
X152692657Y-72578295D01*
X152787895Y-72578295D01*
X152930752Y-72625914D01*
X153502181Y-73197343D01*
X153502181Y-72578295D01*
X151124009Y-78896390D02*
X151124009Y-79372581D01*
X150790676Y-78372581D02*
X151124009Y-78896390D01*
X151457343Y-78372581D01*
X152314486Y-79372581D02*
X151743057Y-79372581D01*
X152028771Y-79372581D02*
X152028771Y-78372581D01*
X151933533Y-78515438D01*
X151838295Y-78610676D01*
X151743057Y-78658295D01*
X155129305Y-79677381D02*
X155129305Y-78677381D01*
X155367400Y-78677381D01*
X155510258Y-78725000D01*
X155605496Y-78820238D01*
X155653115Y-78915476D01*
X155700734Y-79105952D01*
X155700734Y-79248810D01*
X155653115Y-79439286D01*
X155605496Y-79534524D01*
X155510258Y-79629762D01*
X155367400Y-79677381D01*
X155129305Y-79677381D01*
X156653115Y-79677381D02*
X156081686Y-79677381D01*
X156367400Y-79677381D02*
X156367400Y-78677381D01*
X156272162Y-78820238D01*
X156176924Y-78915476D01*
X156081686Y-78963095D01*
X150736695Y-75527781D02*
X150736695Y-76337305D01*
X150784314Y-76432543D01*
X150831933Y-76480162D01*
X150927171Y-76527781D01*
X151117648Y-76527781D01*
X151212886Y-76480162D01*
X151260505Y-76432543D01*
X151308124Y-76337305D01*
X151308124Y-75527781D01*
X152308124Y-76527781D02*
X151736695Y-76527781D01*
X152022409Y-76527781D02*
X152022409Y-75527781D01*
X151927171Y-75670638D01*
X151831933Y-75765876D01*
X151736695Y-75813495D01*
X157935934Y-67586981D02*
X157602600Y-67110790D01*
X157364505Y-67586981D02*
X157364505Y-66586981D01*
X157745458Y-66586981D01*
X157840696Y-66634600D01*
X157888315Y-66682219D01*
X157935934Y-66777457D01*
X157935934Y-66920314D01*
X157888315Y-67015552D01*
X157840696Y-67063171D01*
X157745458Y-67110790D01*
X157364505Y-67110790D01*
X158269267Y-66586981D02*
X158888315Y-66586981D01*
X158554981Y-66967933D01*
X158697839Y-66967933D01*
X158793077Y-67015552D01*
X158840696Y-67063171D01*
X158888315Y-67158410D01*
X158888315Y-67396505D01*
X158840696Y-67491743D01*
X158793077Y-67539362D01*
X158697839Y-67586981D01*
X158412124Y-67586981D01*
X158316886Y-67539362D01*
X158269267Y-67491743D01*
X147694334Y-82672143D02*
X147646715Y-82719762D01*
X147503858Y-82767381D01*
X147408620Y-82767381D01*
X147265762Y-82719762D01*
X147170524Y-82624524D01*
X147122905Y-82529286D01*
X147075286Y-82338810D01*
X147075286Y-82195952D01*
X147122905Y-82005476D01*
X147170524Y-81910238D01*
X147265762Y-81815000D01*
X147408620Y-81767381D01*
X147503858Y-81767381D01*
X147646715Y-81815000D01*
X147694334Y-81862619D01*
X148646715Y-82767381D02*
X148075286Y-82767381D01*
X148361000Y-82767381D02*
X148361000Y-81767381D01*
X148265762Y-81910238D01*
X148170524Y-82005476D01*
X148075286Y-82053095D01*
X156281800Y-87586276D02*
X156234181Y-87681514D01*
X156234181Y-87824371D01*
X156281800Y-87967229D01*
X156377038Y-88062467D01*
X156472276Y-88110086D01*
X156662752Y-88157705D01*
X156805610Y-88157705D01*
X156996086Y-88110086D01*
X157091324Y-88062467D01*
X157186562Y-87967229D01*
X157234181Y-87824371D01*
X157234181Y-87729133D01*
X157186562Y-87586276D01*
X157138943Y-87538657D01*
X156805610Y-87538657D01*
X156805610Y-87729133D01*
X157186562Y-87157705D02*
X157234181Y-87014848D01*
X157234181Y-86776752D01*
X157186562Y-86681514D01*
X157138943Y-86633895D01*
X157043705Y-86586276D01*
X156948467Y-86586276D01*
X156853229Y-86633895D01*
X156805610Y-86681514D01*
X156757990Y-86776752D01*
X156710371Y-86967229D01*
X156662752Y-87062467D01*
X156615133Y-87110086D01*
X156519895Y-87157705D01*
X156424657Y-87157705D01*
X156329419Y-87110086D01*
X156281800Y-87062467D01*
X156234181Y-86967229D01*
X156234181Y-86729133D01*
X156281800Y-86586276D01*
X157234181Y-85633895D02*
X157234181Y-86205324D01*
X157234181Y-85919610D02*
X156234181Y-85919610D01*
X156377038Y-86014848D01*
X156472276Y-86110086D01*
X156519895Y-86205324D01*
X152549800Y-74530676D02*
X152502181Y-74625914D01*
X152502181Y-74768771D01*
X152549800Y-74911629D01*
X152645038Y-75006867D01*
X152740276Y-75054486D01*
X152930752Y-75102105D01*
X153073610Y-75102105D01*
X153264086Y-75054486D01*
X153359324Y-75006867D01*
X153454562Y-74911629D01*
X153502181Y-74768771D01*
X153502181Y-74673533D01*
X153454562Y-74530676D01*
X153406943Y-74483057D01*
X153073610Y-74483057D01*
X153073610Y-74673533D01*
X153454562Y-74102105D02*
X153502181Y-73959248D01*
X153502181Y-73721152D01*
X153454562Y-73625914D01*
X153406943Y-73578295D01*
X153311705Y-73530676D01*
X153216467Y-73530676D01*
X153121229Y-73578295D01*
X153073610Y-73625914D01*
X153025990Y-73721152D01*
X152978371Y-73911629D01*
X152930752Y-74006867D01*
X152883133Y-74054486D01*
X152787895Y-74102105D01*
X152692657Y-74102105D01*
X152597419Y-74054486D01*
X152549800Y-74006867D01*
X152502181Y-73911629D01*
X152502181Y-73673533D01*
X152549800Y-73530676D01*
X152597419Y-73149724D02*
X152549800Y-73102105D01*
X152502181Y-73006867D01*
X152502181Y-72768771D01*
X152549800Y-72673533D01*
X152597419Y-72625914D01*
X152692657Y-72578295D01*
X152787895Y-72578295D01*
X152930752Y-72625914D01*
X153502181Y-73197343D01*
X153502181Y-72578295D01*
X157021534Y-71955781D02*
X156688200Y-71479590D01*
X156450105Y-71955781D02*
X156450105Y-70955781D01*
X156831058Y-70955781D01*
X156926296Y-71003400D01*
X156973915Y-71051019D01*
X157021534Y-71146257D01*
X157021534Y-71289114D01*
X156973915Y-71384352D01*
X156926296Y-71431971D01*
X156831058Y-71479590D01*
X156450105Y-71479590D01*
X157973915Y-71955781D02*
X157402486Y-71955781D01*
X157688200Y-71955781D02*
X157688200Y-70955781D01*
X157592962Y-71098638D01*
X157497724Y-71193876D01*
X157402486Y-71241495D01*
X152966981Y-68418866D02*
X152490790Y-68752200D01*
X152966981Y-68990295D02*
X151966981Y-68990295D01*
X151966981Y-68609342D01*
X152014600Y-68514104D01*
X152062219Y-68466485D01*
X152157457Y-68418866D01*
X152300314Y-68418866D01*
X152395552Y-68466485D01*
X152443171Y-68514104D01*
X152490790Y-68609342D01*
X152490790Y-68990295D01*
X152062219Y-68037914D02*
X152014600Y-67990295D01*
X151966981Y-67895057D01*
X151966981Y-67656961D01*
X152014600Y-67561723D01*
X152062219Y-67514104D01*
X152157457Y-67466485D01*
X152252695Y-67466485D01*
X152395552Y-67514104D01*
X152966981Y-68085533D01*
X152966981Y-67466485D01*
X144367610Y-74684714D02*
X144329515Y-74722810D01*
X144215229Y-74760905D01*
X144139039Y-74760905D01*
X144024753Y-74722810D01*
X143948562Y-74646619D01*
X143910467Y-74570429D01*
X143872372Y-74418048D01*
X143872372Y-74303762D01*
X143910467Y-74151381D01*
X143948562Y-74075190D01*
X144024753Y-73999000D01*
X144139039Y-73960905D01*
X144215229Y-73960905D01*
X144329515Y-73999000D01*
X144367610Y-74037095D01*
X144596181Y-73960905D02*
X144862848Y-74760905D01*
X145129515Y-73960905D01*
X145815229Y-74760905D02*
X145358086Y-74760905D01*
X145586657Y-74760905D02*
X145586657Y-73960905D01*
X145510467Y-74075190D01*
X145434276Y-74151381D01*
X145358086Y-74189476D01*
X150984334Y-82552143D02*
X150936715Y-82599762D01*
X150793858Y-82647381D01*
X150698620Y-82647381D01*
X150555762Y-82599762D01*
X150460524Y-82504524D01*
X150412905Y-82409286D01*
X150365286Y-82218810D01*
X150365286Y-82075952D01*
X150412905Y-81885476D01*
X150460524Y-81790238D01*
X150555762Y-81695000D01*
X150698620Y-81647381D01*
X150793858Y-81647381D01*
X150936715Y-81695000D01*
X150984334Y-81742619D01*
X151365286Y-81742619D02*
X151412905Y-81695000D01*
X151508143Y-81647381D01*
X151746239Y-81647381D01*
X151841477Y-81695000D01*
X151889096Y-81742619D01*
X151936715Y-81837857D01*
X151936715Y-81933095D01*
X151889096Y-82075952D01*
X151317667Y-82647381D01*
X151936715Y-82647381D01*
X153300505Y-81099781D02*
X153300505Y-80099781D01*
X153538600Y-80099781D01*
X153681458Y-80147400D01*
X153776696Y-80242638D01*
X153824315Y-80337876D01*
X153871934Y-80528352D01*
X153871934Y-80671210D01*
X153824315Y-80861686D01*
X153776696Y-80956924D01*
X153681458Y-81052162D01*
X153538600Y-81099781D01*
X153300505Y-81099781D01*
X154252886Y-80195019D02*
X154300505Y-80147400D01*
X154395743Y-80099781D01*
X154633839Y-80099781D01*
X154729077Y-80147400D01*
X154776696Y-80195019D01*
X154824315Y-80290257D01*
X154824315Y-80385495D01*
X154776696Y-80528352D01*
X154205267Y-81099781D01*
X154824315Y-81099781D01*
X160093381Y-76441666D02*
X159617190Y-76775000D01*
X160093381Y-77013095D02*
X159093381Y-77013095D01*
X159093381Y-76632142D01*
X159141000Y-76536904D01*
X159188619Y-76489285D01*
X159283857Y-76441666D01*
X159426714Y-76441666D01*
X159521952Y-76489285D01*
X159569571Y-76536904D01*
X159617190Y-76632142D01*
X159617190Y-77013095D01*
X159426714Y-75584523D02*
X160093381Y-75584523D01*
X159045762Y-75822619D02*
X159760048Y-76060714D01*
X159760048Y-75441666D01*
X143538619Y-75205000D02*
X143462428Y-75166905D01*
X143348143Y-75166905D01*
X143233857Y-75205000D01*
X143157666Y-75281190D01*
X143119571Y-75357381D01*
X143081476Y-75509762D01*
X143081476Y-75624048D01*
X143119571Y-75776429D01*
X143157666Y-75852619D01*
X143233857Y-75928810D01*
X143348143Y-75966905D01*
X143424333Y-75966905D01*
X143538619Y-75928810D01*
X143576714Y-75890714D01*
X143576714Y-75624048D01*
X143424333Y-75624048D01*
X143881476Y-75928810D02*
X143995762Y-75966905D01*
X144186238Y-75966905D01*
X144262428Y-75928810D01*
X144300524Y-75890714D01*
X144338619Y-75814524D01*
X144338619Y-75738333D01*
X144300524Y-75662143D01*
X144262428Y-75624048D01*
X144186238Y-75585952D01*
X144033857Y-75547857D01*
X143957666Y-75509762D01*
X143919571Y-75471667D01*
X143881476Y-75395476D01*
X143881476Y-75319286D01*
X143919571Y-75243095D01*
X143957666Y-75205000D01*
X144033857Y-75166905D01*
X144224333Y-75166905D01*
X144338619Y-75205000D01*
X144605286Y-75166905D02*
X145100524Y-75166905D01*
X144833857Y-75471667D01*
X144948143Y-75471667D01*
X145024333Y-75509762D01*
X145062429Y-75547857D01*
X145100524Y-75624048D01*
X145100524Y-75814524D01*
X145062429Y-75890714D01*
X145024333Y-75928810D01*
X144948143Y-75966905D01*
X144719571Y-75966905D01*
X144643381Y-75928810D01*
X144605286Y-75890714D01*
M02*
