<svg id="Livello_1" data-name="Livello 1" xmlns="http://www.w3.org/2000/svg" viewBox="0 0 1278.77 975"><defs><style>.cls-1{fill:#575756;stroke:#575756;stroke-miterlimit:10;stroke-width:10px;}.cls-2{fill:#fbdb00;}.cls-3{fill:#33a234;}.cls-4{fill:#d51d21;}.cls-5{fill:#894996;}.cls-6{fill:#2353a1;}.cls-7{fill:#ee7322;}.cls-8{fill:#5fc6f0;}</style></defs><title>logo</title><g id="_Group_" data-name="&lt;Group&gt;"><path id="_Compound_Path_" data-name="&lt;Compound Path&gt;" class="cls-1" d="M91.63,879.52H28.55V970H23V748.95H97.52A65.66,65.66,0,0,1,163,814.38c0,35.66-28.88,64.55-64.55,65.14L150.58,970H143.8Zm5.9-125h-69V873.92h69a59.69,59.69,0,0,0,0-119.37Z"/><path id="_Compound_Path_2" data-name="&lt;Compound Path&gt;" class="cls-1" d="M199.79,970,302.95,748.95h6.19L413.18,970H406.7l-33.6-71H239.29l-33,71Zm42.44-76.93H370.15l-64-137.35Z"/><path id="_Compound_Path_3" data-name="&lt;Compound Path&gt;" class="cls-1" d="M469.18,970V748.95h5.6V970Z"/><path id="_Compound_Path_4" data-name="&lt;Compound Path&gt;" class="cls-1" d="M565.85,765.72V970H560V748.95h9.73l164.4,207.27a3.51,3.51,0,0,0,6.25-2.18V748.95h5.9V970h-9.14L572.62,763.35A3.8,3.8,0,0,0,565.85,765.72Z"/><path id="_Compound_Path_5" data-name="&lt;Compound Path&gt;" class="cls-1" d="M976.12,802.59a54.3,54.3,0,0,1-33.31,49.81A59.71,59.71,0,0,1,928.08,970H813.43V748.95H922.48A53.84,53.84,0,0,1,976.12,802.59Zm-53.64,47.75a47.75,47.75,0,1,0,0-95.5H819.32v95.5Zm-103.16,5.89V964.11H928.08a53.94,53.94,0,0,0,0-107.87Z"/><path id="_Compound_Path_6" data-name="&lt;Compound Path&gt;" class="cls-1" d="M1142.94,748.95a110.53,110.53,0,1,1-110.53,110.53A110.44,110.44,0,0,1,1142.94,748.95Zm0,215.45A104.93,104.93,0,1,0,1038,859.48,104.66,104.66,0,0,0,1142.94,964.4Z"/></g><path id="_Path_" data-name="&lt;Path&gt;" class="cls-2" d="M619.09,259l-64.32-48.62,8,236.21-14.62-237-95.24,42.49L437.33,259l13.31,253.37,2.21.33c56.76,9,116.07,26.84,179.84,47.21Z"/><path id="_Path_2" data-name="&lt;Path&gt;" class="cls-3" d="M752.18,0,737.93,271.59,745.94,0,659.51,54l-23,507.14c66.43,21.19,122.83,36.24,179.89,42.21l1.75.17,16-379.77L841.27,54"/><path id="_Path_3" data-name="&lt;Path&gt;" class="cls-4" d="M270.89,284.61V100.7H89.13V529.54a862.71,862.71,0,0,1,181.75-27.46Z"/><path id="_Path_4" data-name="&lt;Path&gt;" class="cls-5" d="M1177.34,551V150.52H1000.63v82.29h0V598.44A764,764,0,0,0,1177.34,551Z"/><path id="_Path_5" data-name="&lt;Path&gt;" class="cls-6" d="M995.85,599.69V237.35h-158L822.42,603.26A713.71,713.71,0,0,0,995.85,599.69Z"/><path id="_Path_6" data-name="&lt;Path&gt;" class="cls-7" d="M275.54,501.54h0A860,860,0,0,1,446.31,511L433.65,255.86l14.76-6.58V208.1H275.48Z"/><path id="_Path_7" data-name="&lt;Path&gt;" class="cls-8" d="M1179.86,557h0a785.81,785.81,0,0,1-181.75,48.84,740.74,740.74,0,0,1-180,3.71l-1.75-.17c-57.06-6-113.46-21-179.89-42.21l-1.87-.6-1.91-.61c-63.77-20.37-123.08-38.25-179.84-47.21l-2.21-.33A904.2,904.2,0,0,0,271.1,508.5h0A862.71,862.71,0,0,0,89.34,536C32.42,551.06,0,566.57,0,566.57V625s32.42-15.5,89.34-30.61A862.68,862.68,0,0,1,271.1,567a904.18,904.18,0,0,1,181.75,10.25C510.18,586.28,570.14,604.3,634.6,625s124.16,36.78,181.75,42.81a740.51,740.51,0,0,0,181.75-3.54,785.82,785.82,0,0,0,181.75-48.84c62.68-25.24,98.91-47.14,98.91-47.14V507.57S1242.54,531.75,1179.86,557Z"/></svg>