<?xml version="1.0" encoding="UTF-8" standalone="no"?>
<!-- Created with Inkscape (http://www.inkscape.org/) -->

<svg
   xmlns:dc="http://purl.org/dc/elements/1.1/"
   xmlns:cc="http://creativecommons.org/ns#"
   xmlns:rdf="http://www.w3.org/1999/02/22-rdf-syntax-ns#"
   xmlns:svg="http://www.w3.org/2000/svg"
   xmlns="http://www.w3.org/2000/svg"
   xmlns:sodipodi="http://sodipodi.sourceforge.net/DTD/sodipodi-0.dtd"
   xmlns:inkscape="http://www.inkscape.org/namespaces/inkscape"
   width="202mm"
   height="183mm"
   viewBox="0 0 715.74801 648.425"
   id="svg4994"
   version="1.1"
   inkscape:version="0.92.4 (unknown)"
   sodipodi:docname="logo_stima.svg"
   inkscape:export-filename="/home/pat1/git/rmap/arduino/doc/logo_stima.png"
   inkscape:export-xdpi="96"
   inkscape:export-ydpi="96">
  <title
     id="title4148">Logo R.M.A.P.</title>
  <defs
     id="defs4996" />
  <sodipodi:namedview
     id="base"
     pagecolor="#ffffff"
     bordercolor="#666666"
     borderopacity="1.0"
     inkscape:pageopacity="0.0"
     inkscape:pageshadow="2"
     inkscape:zoom="0.70802555"
     inkscape:cx="121.66619"
     inkscape:cy="415.87343"
     inkscape:document-units="px"
     inkscape:current-layer="g4955"
     showgrid="false"
     height="148mm"
     inkscape:window-width="1920"
     inkscape:window-height="1018"
     inkscape:window-x="1920"
     inkscape:window-y="25"
     inkscape:window-maximized="1"
     units="mm"
     showborder="true"
     width="209mm" />
  <metadata
     id="metadata4999">
    <rdf:RDF>
      <cc:Work
         rdf:about="">
        <dc:format>image/svg+xml</dc:format>
        <dc:type
           rdf:resource="http://purl.org/dc/dcmitype/StillImage" />
        <dc:title>Logo R.M.A.P.</dc:title>
        <cc:license
           rdf:resource="http://creativecommons.org/licenses/by-nd/4.0/" />
        <dc:creator>
          <cc:Agent>
            <dc:title>Giacomo Magisano</dc:title>
          </cc:Agent>
        </dc:creator>
        <dc:description>Logo per l'applicazione di Monitoraggio Ambientale Partecipativo</dc:description>
      </cc:Work>
      <cc:License
         rdf:about="http://creativecommons.org/licenses/by-nd/4.0/">
        <cc:permits
           rdf:resource="http://creativecommons.org/ns#Reproduction" />
        <cc:permits
           rdf:resource="http://creativecommons.org/ns#Distribution" />
        <cc:requires
           rdf:resource="http://creativecommons.org/ns#Notice" />
        <cc:requires
           rdf:resource="http://creativecommons.org/ns#Attribution" />
      </cc:License>
    </rdf:RDF>
  </metadata>
  <g
     inkscape:label="Livello 1"
     inkscape:groupmode="layer"
     id="layer1"
     transform="translate(0,-403.93726)">
    <g
       id="g4955"
       transform="rotate(-133.65571,1341.1453,351.90851)">
      <circle
         transform="rotate(88.392868)"
         id="path2985-6"
         style="fill:#ffffff;fill-opacity:1;stroke:#046592;stroke-width:20;stroke-linecap:round;stroke-linejoin:round;stroke-miterlimit:4;stroke-dasharray:none;stroke-opacity:1"
         cx="-599.15552"
         cy="-1729.1445"
         r="197.75049" />
      <path
         id="path2987-05"
         d="m 1907.9458,-623.29397 c -57.9028,-78.62177 -152.063,-128.5358 -257.0609,-125.58986 -44.1994,1.24011 -85.9695,11.71616 -123.5014,29.53784 -9.3628,23.95477 -14.1618,50.14088 -13.3951,77.46866 3.063,109.17161 94.0467,195.18913 203.2183,192.12609 m 0,0 c 99.1092,-2.78071 179.1205,-78.01505 190.7391,-173.54273"
         style="fill:#ffffff;fill-opacity:1;stroke:#046592;stroke-width:20;stroke-linecap:round;stroke-linejoin:round;stroke-miterlimit:4;stroke-dasharray:none;stroke-opacity:1"
         inkscape:connector-curvature="0"
         sodipodi:nodetypes="cscsccc" />
      <path
         id="path2987-7-5"
         d="m 1812.7961,-477.61299 c 25.7169,-94.19529 6.4222,-199.00588 -61.0479,-279.5108 -28.4018,-33.88891 -62.5383,-60.14121 -99.8048,-78.51169 -24.5942,7.52418 -48.106,20.01177 -69.059,37.57219 -83.705,70.15199 -94.6917,194.87702 -24.5397,278.58197 63.686,75.98982 172.334,92.04067 254.4514,41.86833 z"
         style="fill:none;stroke:#046592;stroke-width:20;stroke-linecap:round;stroke-linejoin:round;stroke-miterlimit:4;stroke-dasharray:none;stroke-opacity:1"
         inkscape:connector-curvature="0" />
      <path
         sodipodi:nodetypes="cc"
         id="path2987-7-4-3"
         d="m 1636.7157,-828.25258 c -62.451,106.43795 -71.2447,222.36468 -0.4946,363.59309"
         style="fill:none;stroke:#046592;stroke-width:20;stroke-linecap:round;stroke-linejoin:round;stroke-miterlimit:4;stroke-dasharray:none;stroke-opacity:1"
         inkscape:connector-curvature="0"
         inkscape:transform-center-x="-126.32752"
         inkscape:transform-center-y="-111.62149" />
      <path
         inkscape:transform-center-y="-199.2145"
         inkscape:transform-center-x="-15.861967"
         sodipodi:nodetypes="cc"
         id="path2987-7-4-0-2"
         d="m 1524.0487,-699.13811 c 33.5152,102.11869 130.9498,205.75646 249.59,239.45306"
         style="fill:none;stroke:#046592;stroke-width:20;stroke-linecap:round;stroke-linejoin:round;stroke-miterlimit:4;stroke-dasharray:none;stroke-opacity:1"
         inkscape:connector-curvature="0" />
      <circle
         r="48.500004"
         cy="-783.57404"
         cx="-1748.2987"
         id="path3093-1"
         style="fill:#ffffff;stroke:#046592;stroke-width:15.00000095;stroke-linecap:round;stroke-linejoin:round;stroke-miterlimit:4;stroke-dasharray:none;stroke-opacity:1"
         transform="rotate(133.65571)" />
      <path
         inkscape:connector-curvature="0"
         d="m 1775.7265,-756.59869 -22.0402,41.75288 m -4.6844,-10.35861 c -3.8464,-0.86251 -7.6782,1.56032 -8.5584,5.41155 -0.8803,3.85122 1.5241,7.67252 5.3705,8.53502 0.9616,0.21573 1.9224,0.22519 2.836,0.0597 0.9138,-0.1659 1.7808,-0.50929 2.5554,-0.99802 0.7743,-0.48966 1.456,-1.12659 1.9992,-1.88186 m 34.5643,-36.20199 -26.9385,51.03261 m 11.2163,-2.01521 c 2.891,2.67264 3.0574,7.1933 0.3717,10.09732 -2.6854,2.90408 -7.2061,3.09163 -10.0969,0.41905 -0.7226,-0.66819 -1.2752,-1.45181 -1.6552,-2.29684 -0.3803,-0.84502 -0.5882,-1.7514 -0.6217,-2.66503 -0.034,-0.91365 0.1065,-1.83451 0.4238,-2.70847 m 39.9776,-45.21163 -15.4067,29.18664 m 11.2162,-2.0152 c 2.8909,2.67256 3.0572,7.19329 0.3718,10.09732 -2.6855,2.90405 -7.206,3.09163 -10.0968,0.41905 -0.7228,-0.66814 -1.2752,-1.45181 -1.6555,-2.29683 -0.3801,-0.84502 -0.5879,-1.75142 -0.6215,-2.66505 -0.034,-0.91362 0.1064,-1.83451 0.4237,-2.70846"
         style="fill:none;stroke:#000000;stroke-width:3.99999976;stroke-linecap:round;stroke-linejoin:miter;stroke-miterlimit:4;stroke-dasharray:none;stroke-opacity:1"
         id="path5430-57-2" />
      <circle
         r="46.692631"
         cy="355.52512"
         cx="-1672.0684"
         transform="rotate(172.49244)"
         id="path3093-7-5-0"
         style="fill:#ffffff;stroke:#046592;stroke-width:15.00000095;stroke-linecap:round;stroke-linejoin:round;stroke-miterlimit:4;stroke-dasharray:none;stroke-opacity:1" />
      <path
         sodipodi:nodetypes="sssssssssssssssssssssscsccsccccssssssscccscsc"
         style="clip-rule:evenodd;fill:#1d1d1b;fill-rule:evenodd;stroke:#ffffff;stroke-width:0.04821476"
         inkscape:connector-curvature="0"
         d="m 1629.2312,-555.06021 c 6.1651,-1.93357 9.6087,-8.52405 7.6751,-14.68923 -1.9336,-6.16518 -8.5241,-9.60871 -14.6892,-7.67513 -6.1652,1.93357 -9.6087,8.52405 -7.6752,14.68922 1.9336,6.16518 8.5241,9.60872 14.6893,7.67514 z m -6.0121,-19.16945 c 4.4118,-1.38366 9.1086,1.07045 10.4923,5.48224 1.3836,4.41177 -1.0705,9.10865 -5.4823,10.4923 -4.4117,1.38366 -9.1086,-1.07047 -10.4923,-5.48224 -1.3836,-4.41177 1.0705,-9.10865 5.4823,-10.4923 z m 7.0141,22.36436 c -0.8819,0.27659 -1.3731,1.21657 -1.0965,2.09846 l 1.002,3.19491 c 0.2766,0.8819 1.2166,1.37303 2.0985,1.09645 0.8819,-0.27658 1.373,-1.21657 1.0964,-2.09846 l -1.002,-3.19491 c -0.2766,-0.88189 -1.2165,-1.37303 -2.0984,-1.09645 z m -13.7444,-0.31347 -1.5504,2.96735 c -0.4283,0.81972 -0.1113,1.8306 0.7084,2.25889 0.8197,0.4283 1.8306,0.11127 2.2589,-0.70844 l 1.5505,-2.96736 c 0.4283,-0.81971 0.1112,-1.8306 -0.7085,-2.2589 -0.8196,-0.42833 -1.8306,-0.11125 -2.2589,0.70846 z m 18.4706,-28.12734 1.5504,-2.96735 c 0.4284,-0.81962 0.1113,-1.83051 -0.7084,-2.25881 -0.8197,-0.4283 -1.8306,-0.11126 -2.2589,0.70846 l -1.5505,2.96725 c -0.4276,0.82181 -0.1112,1.83071 0.7085,2.25891 0.8196,0.42843 1.8313,0.11345 2.2589,-0.70846 z m 5.1418,9.55466 c 0.2766,0.88189 1.2166,1.37303 2.0985,1.09645 l 3.1949,-1.00202 c 0.8819,-0.27658 1.373,-1.21656 1.0964,-2.09846 -0.2766,-0.88189 -1.2165,-1.37303 -2.0984,-1.09645 l -3.1949,1.00202 c -0.8819,0.27658 -1.3731,1.21656 -1.0965,2.09846 z m 1.2377,10.77899 c -0.8198,-0.42827 -1.8307,-0.11123 -2.2589,0.70845 -0.4284,0.81974 -0.1114,1.83063 0.7085,2.2589 l 2.9673,1.55045 c 0.8197,0.4283 1.8305,0.11129 2.2589,-0.70846 0.4283,-0.81971 0.1113,-1.8306 -0.7084,-2.2589 z"
         id="path4001-0" />
      <path
         id="path3921-1-2-8"
         style="fill:#ffffff;fill-rule:evenodd;stroke:#ffffff;stroke-width:0.63999993;stroke-linecap:round;stroke-linejoin:round;stroke-miterlimit:4;stroke-dasharray:none"
         d="m 1596.1469,-592.69254 c -1.0492,-1.2544 -2.9131,-1.42052 -4.1676,-0.37123 -1.2544,1.0492 -1.4205,2.91309 -0.3712,4.16756 1.0492,1.2544 6.0657,2.64064 6.0657,2.64064 0,0 -0.4777,-5.18256 -1.5269,-6.43697 z m -7.1086,9.80275 c -1.0492,-1.25441 -2.9131,-1.42051 -4.1675,-0.37124 -1.2544,1.04922 -1.4205,2.91312 -0.3713,4.16758 1.0493,1.25442 6.0658,2.64064 6.0658,2.64064 0,0 -0.4777,-5.18256 -1.527,-6.43698 z m 21.9516,-10.64653 c -1.0492,-1.25441 -2.9131,-1.42052 -4.1676,-0.37124 -1.2544,1.04922 -1.4205,2.91312 -0.3712,4.16758 1.0492,1.25442 6.0657,2.64063 6.0657,2.64063 0,0 -0.4777,-5.18255 -1.5269,-6.43697 z m -14.1134,38.03311 c 0.4686,-0.14696 0.9214,-0.32531 1.362,-0.53618 3.7618,2.76467 8.5965,3.61428 13.1123,2.19802 4.5157,-1.41628 7.9974,-4.87414 9.5084,-9.2925 0.4822,-0.0785 0.9557,-0.19072 1.4243,-0.33769 5.4475,-1.70848 8.4902,-7.5318 6.7817,-12.9793 -1.7085,-5.44753 -7.5318,-8.4902 -12.9793,-6.78171 -1.2075,0.37872 -2.3201,0.9699 -3.3002,1.74556 -3.2532,-1.42634 -6.8923,-1.6496 -10.2887,-0.58439 -3.4001,1.06639 -6.2561,3.32671 -8.1121,6.35544 -1.2475,-0.0771 -2.4985,0.073 -3.706,0.45174 -5.4475,1.7085 -8.4902,7.53181 -6.7817,12.97932 1.7085,5.4475 7.5318,8.49019 12.9793,6.78169 z m -5.3122,-16.938 c 1.5107,-0.47382 3.0559,-0.42551 4.4584,0.0229 1.2884,-3.14547 3.8641,-5.73376 7.3597,-6.83008 3.4957,-1.09633 7.0881,-0.44256 9.9421,1.40376 0.8933,-1.16837 2.136,-2.09112 3.6468,-2.56495 3.8982,-1.22256 8.0483,0.94589 9.2709,4.8441 1.2226,3.89822 -0.9458,8.04835 -4.844,9.27093 -0.9539,0.29914 -1.9192,0.38796 -2.8536,0.30552 -0.7269,4.24103 -3.694,7.94932 -8.0792,9.32466 -4.3853,1.37535 -8.9388,0.0257 -11.9555,-3.04121 -0.7218,0.60186 -1.5668,1.08082 -2.5188,1.37938 -3.8982,1.2226 -8.0483,-0.94585 -9.2709,-4.84406 -1.2226,-3.89821 0.9458,-8.04834 4.8441,-9.27094 z"
         inkscape:connector-curvature="0" />
      <path
         style="fill:#ffffff;fill-opacity:1;fill-rule:evenodd;stroke:#ffffff;stroke-width:2.16000009;stroke-linecap:round;stroke-linejoin:round;stroke-miterlimit:4;stroke-dasharray:17.28000049, 4.32000013, 2.16000007, 4.32000013;stroke-dashoffset:0;stroke-opacity:0.99607843"
         d="m 1610.1874,-556.66883 c 4.3568,-1.3664 7.5495,-4.63255 8.8257,-8.47928 0.1066,-0.0302 0.2122,-0.0577 0.3189,-0.0911 5.1611,-1.61868 8.2516,-6.41751 6.9027,-10.71848 -1.3489,-4.30097 -6.6264,-6.47539 -11.7875,-4.8567 -0.8245,0.25856 -1.592,0.60983 -2.301,1.01568 -2.809,-1.15839 -6.1054,-1.37298 -9.3267,-0.36268 -3.1792,0.99708 -5.7358,3.01457 -7.3828,5.52304 -1.0674,0.0177 -2.17,0.18162 -3.2656,0.52522 -5.1612,1.6187 -8.2516,6.41753 -6.9027,10.7185 1.3489,4.30096 6.6264,6.47538 11.7875,4.8567 0.2624,-0.0823 0.5198,-0.17035 0.7711,-0.26856 3.263,2.59086 7.8785,3.54334 12.3604,2.13769 z"
         id="path4202-5"
         inkscape:connector-curvature="0" />
      <path
         id="path3921-1-1"
         style="fill:#000000;fill-rule:evenodd;stroke:#ffffff;stroke-width:0.08;stroke-linecap:round;stroke-linejoin:round;stroke-miterlimit:4;stroke-dasharray:none"
         d="m 1595.5864,-593.14341 c -1.0492,-1.2544 -2.9132,-1.42045 -4.1676,-0.37124 -1.2544,1.04921 -1.4204,2.91316 -0.3712,4.16757 1.0492,1.25441 6.0657,2.64064 6.0657,2.64064 0,0 -0.4777,-5.18256 -1.5269,-6.43697 z m -7.1085,9.80275 c -1.0493,-1.25441 -2.9132,-1.42045 -4.1676,-0.37124 -1.2544,1.04922 -1.4205,2.91316 -0.3712,4.16757 1.0492,1.25442 6.0657,2.64064 6.0657,2.64064 0,0 -0.4777,-5.18256 -1.5269,-6.43697 z m 21.9515,-10.64653 c -1.0492,-1.25441 -2.9131,-1.42045 -4.1676,-0.37123 -1.2544,1.0492 -1.4204,2.91315 -0.3712,4.16757 1.0492,1.25441 6.0657,2.64063 6.0657,2.64063 0,0 -0.4777,-5.18256 -1.5269,-6.43697 z m -14.1134,38.03311 c 0.4686,-0.14696 0.9214,-0.3253 1.362,-0.53616 3.7618,2.76466 8.5965,3.61426 13.1123,2.198 4.5157,-1.41626 7.9974,-4.87413 9.5085,-9.2925 0.4821,-0.0785 0.9556,-0.19071 1.4242,-0.33768 5.4475,-1.7085 8.4902,-7.5318 6.7817,-12.97931 -1.7085,-5.44752 -7.5318,-8.4902 -12.9793,-6.78171 -1.2075,0.37871 -2.3201,0.96991 -3.3002,1.74558 -3.2531,-1.42635 -6.8922,-1.64962 -10.2887,-0.5844 -3.4001,1.06637 -6.2561,3.32669 -8.1121,6.35542 -1.2475,-0.077 -2.4985,0.073 -3.706,0.45176 -5.4475,1.70849 -8.4902,7.5318 -6.7817,12.97931 1.7085,5.44751 7.5318,8.49019 12.9793,6.78169 z m -5.3122,-16.938 c 1.5107,-0.47381 3.056,-0.42551 4.4584,0.0229 1.2884,-3.14548 3.8641,-5.73377 7.3597,-6.83008 3.4957,-1.09634 7.0881,-0.44256 9.9421,1.40374 0.8932,-1.16839 2.136,-2.0911 3.6468,-2.56492 3.8982,-1.22258 8.0483,0.94586 9.2709,4.84408 1.2226,3.89821 -0.9458,8.04835 -4.844,9.27094 -0.9539,0.29914 -1.9192,0.38795 -2.8536,0.30552 -0.7269,4.24103 -3.6939,7.94931 -8.0792,9.32466 -4.3853,1.37534 -8.9388,0.0257 -11.9555,-3.0412 -0.7218,0.60184 -1.5668,1.08081 -2.5188,1.37937 -3.8982,1.22259 -8.0483,-0.94586 -9.2709,-4.84407 -1.2226,-3.89822 0.9459,-8.04835 4.8441,-9.27094 z"
         inkscape:connector-curvature="0" />
      <circle
         r="46.837421"
         cy="658.82434"
         cx="-1649.9355"
         transform="rotate(177.12341)"
         id="path3093-7-0-5"
         style="fill:#ffffff;stroke:#046592;stroke-width:15.00000095;stroke-linecap:round;stroke-linejoin:round;stroke-miterlimit:4;stroke-dasharray:none;stroke-opacity:1" />
      <path
         style="clip-rule:evenodd;fill:#000000;fill-rule:evenodd;stroke:#000000;stroke-width:0.99999994"
         inkscape:connector-curvature="0"
         d="m 1606.7255,-753.61469 9.9051,39.6736 c 0.65,2.60367 3.111,4.22951 5.4952,3.63423 2.3844,-0.59528 3.7924,-3.18704 3.1424,-5.79073 l -9.9051,-39.67359 c 2.1966,-2.13747 3.2574,-5.3297 2.4615,-8.51812 -1.1906,-4.76863 -6.0253,-7.67171 -10.7941,-6.48114 -4.7688,1.19054 -7.6718,6.0255 -6.4812,10.79413 0.7959,3.18836 3.2301,5.50813 6.1762,6.36162 z"
         id="path3433-1-8-2" />
      <path
         d="m 1517.0221,-356.99074 71.2552,-51.42851 c 1.7359,-1.24914 4.7534,-1.5518 6.7096,-0.66611 l 62.94,23.44967 c 2.0614,0.60084 4.0957,2.80376 4.5379,4.91103 l 18.2812,87.01886 c 0.4472,2.08862 2.5499,3.76966 4.6962,3.71828 l 88.8477,-2.12834 c 2.1461,-0.0515 4.1754,-1.8203 4.5165,-3.93527 l 14.5069,-89.34625 c 0.3433,-2.11494 2.2754,-4.45372 4.2833,-5.18918 l 59.0675,-26.42435 c 1.8901,-1.00766 4.9026,-0.87171 6.7019,0.29258 l 76.0733,49.5936 c 1.7915,1.17201 4.4711,0.85887 5.9511,-0.69258 l 61.3877,-64.33775 c 1.4765,-1.54757 1.6633,-4.23843 0.4056,-5.9732 l -53.1108,-73.65934 c -1.2475,-1.74246 -1.5287,-4.7416 -0.6069,-6.68095 l 23.6282,-60.24525 c 0.644,-2.04416 2.8893,-4.08573 4.9823,-4.52232 l 88.5635,-18.67807 c 2.1003,-0.44425 3.7762,-2.55754 3.723,-4.70013 l -2.0377,-88.85336 c -0.056,-2.14268 -1.8202,-4.1773 -3.9348,-4.51674 l -87.7837,-14.17504 c -2.1189,-0.35029 -4.4149,-2.2796 -5.1154,-4.30643 l -26.3725,-61.77471 c -0.9801,-1.90866 -0.823,-4.93313 0.3515,-6.73361 l 48.0259,-73.58527 c 1.1698,-1.80404 0.8597,-4.47557 -0.69,-5.95439 l -64.2748,-61.32005 c -1.5506,-1.4788 -4.248,-1.6706 -5.9808,-0.4101 l -69.512,50.15683 c -1.732,1.26023 -4.7356,1.51054 -6.6562,0.56454 l -65.6654,-26.29001 c -2.0438,-0.64954 -4.0721,-2.88975 -4.5066,-4.98975 l -17.3763,-82.74175 c -0.4417,-2.0925 -2.5571,-3.7694 -4.6998,-3.7217 l -88.8547,2.1358 c -2.1354,0.056 -4.1682,1.8276 -4.5206,3.939 l -13.3081,82.01286 c -0.3431,2.11127 -2.3199,4.31731 -4.372,4.90894 l -32.5235,10.73674 c -2.027,0.70995 -2.9729,2.8951 -2.1065,4.85474 l 12.0815,42.81559 c 0.8626,1.96342 5.3309,2.55861 5.3309,2.55861 l 8.5675,-2.27849 c 1.5804,-0.42439 3.95,-0.78573 5.9497,-0.93398 31.4602,-7.69056 125.8153,-37.05121 217.1497,53.96899 89.2484,88.94145 60.2222,224.2952 -2.0672,288.73786 -62.4228,64.58075 -194.3764,93.88407 -286.4259,10.93024 -87.8876,-79.20318 -74.5601,-180.69824 -61.6637,-215.8931 l 1.9725,-6.01006 1.8739,-8.66498 c 0.4437,-2.08773 -0.8077,-4.43192 -2.8056,-5.20516 l -39.5404,-13.74822 c -1.9977,-0.77329 -4.1286,0.27367 -4.7502,2.332 l -9.1994,32.99158 c -0.4993,2.08147 -2.6017,4.15686 -4.6986,4.5972 l -81.3019,17.14422 c -2.089,0.44758 -3.7678,2.56481 -3.7189,4.6964 l 2.0344,88.85713 c 0.056,2.14646 1.8242,4.18086 3.9384,4.52038 l 83.4689,13.47203 c 2.1111,0.34305 4.448,2.26028 5.1919,4.27118 l 29.3416,64.36021 c 1.0312,1.87769 0.9335,4.87852 -0.2496,6.67172 l -46.8407,71.78818 c -1.1743,1.78563 -0.8596,4.47563 0.6901,5.95442 l 64.2643,61.33146 c 1.5506,1.48594 4.2367,1.66716 5.9766,0.42183"
         id="path2"
         inkscape:connector-curvature="0"
         style="fill:#ff9955;stroke-width:5.25308657"
         sodipodi:nodetypes="ccccccssccccccsscccccccccccccccccccccccccccccccccssscccccccccccccccccccc" />
    </g>
  </g>
</svg>
