<?xml version="1.0" encoding="UTF-8" standalone="no"?>
<!-- Created with Inkscape (http://www.inkscape.org/) -->

<svg
   xmlns:dc="http://purl.org/dc/elements/1.1/"
   xmlns:cc="http://creativecommons.org/ns#"
   xmlns:rdf="http://www.w3.org/1999/02/22-rdf-syntax-ns#"
   xmlns:svg="http://www.w3.org/2000/svg"
   xmlns="http://www.w3.org/2000/svg"
   xmlns:sodipodi="http://sodipodi.sourceforge.net/DTD/sodipodi-0.dtd"
   xmlns:inkscape="http://www.inkscape.org/namespaces/inkscape"
   width="148mm"
   height="148mm"
   viewBox="0 0 524.40945 524.40944"
   id="svg4994"
   version="1.1"
   inkscape:version="0.91 r13725"
   sodipodi:docname="logo_rmap.svg">
  <title
     id="title4148">Logo R.M.A.P.</title>
  <defs
     id="defs4996" />
  <sodipodi:namedview
     id="base"
     pagecolor="#ffffff"
     bordercolor="#666666"
     borderopacity="1.0"
     inkscape:pageopacity="0.0"
     inkscape:pageshadow="2"
     inkscape:zoom="1.4160511"
     inkscape:cx="428.1523"
     inkscape:cy="245.09028"
     inkscape:document-units="px"
     inkscape:current-layer="g4955"
     showgrid="false"
     height="148mm"
     inkscape:window-width="1920"
     inkscape:window-height="1012"
     inkscape:window-x="0"
     inkscape:window-y="39"
     inkscape:window-maximized="1" />
  <metadata
     id="metadata4999">
    <rdf:RDF>
      <cc:Work
         rdf:about="">
        <dc:format>image/svg+xml</dc:format>
        <dc:type
           rdf:resource="http://purl.org/dc/dcmitype/StillImage" />
        <dc:title>Logo R.M.A.P.</dc:title>
        <cc:license
           rdf:resource="http://creativecommons.org/licenses/by-nd/3.0/" />
        <dc:creator>
          <cc:Agent>
            <dc:title>Giacomo Magisano</dc:title>
          </cc:Agent>
        </dc:creator>
        <dc:description>Logo per l'applicazione di Monitoraggio Ambientale Partecipativo</dc:description>
      </cc:Work>
      <cc:License
         rdf:about="http://creativecommons.org/licenses/by-nd/3.0/">
        <cc:permits
           rdf:resource="http://creativecommons.org/ns#Reproduction" />
        <cc:permits
           rdf:resource="http://creativecommons.org/ns#Distribution" />
        <cc:requires
           rdf:resource="http://creativecommons.org/ns#Notice" />
        <cc:requires
           rdf:resource="http://creativecommons.org/ns#Attribution" />
      </cc:License>
    </rdf:RDF>
  </metadata>
  <g
     inkscape:label="Livello 1"
     inkscape:groupmode="layer"
     id="layer1"
     transform="translate(0,-527.95276)">
    <g
       id="g4955"
       transform="matrix(-0.69032337,-0.72350096,0.72350096,-0.69032337,2012.3631,1565.1591)">
      <circle
         transform="matrix(0.02804606,0.99960663,-0.99960663,0.02804606,0,0)"
         id="path2985-6"
         style="fill:#ffffff;fill-opacity:1;stroke:#046592;stroke-width:20;stroke-linecap:round;stroke-linejoin:round;stroke-miterlimit:4;stroke-dasharray:none;stroke-opacity:1"
         cx="-682.88245"
         cy="-1796.213"
         r="197.75049" />
      <path
         id="path2987-05"
         d="m 1972.6396,-708.86895 c -57.9028,-78.62177 -152.063,-128.5358 -257.0609,-125.58986 -44.1994,1.24011 -85.9695,11.71617 -123.5014,29.53784 -9.3628,23.95477 -14.1618,50.14088 -13.3951,77.46866 3.063,109.17161 94.0467,195.18913 203.2183,192.12609 m 0,0 c 99.1092,-2.78071 179.1205,-78.01505 190.7391,-173.54273"
         style="fill:#ffffff;fill-opacity:1;stroke:#046592;stroke-width:20;stroke-linecap:round;stroke-linejoin:round;stroke-miterlimit:4;stroke-dasharray:none;stroke-opacity:1"
         inkscape:connector-curvature="0"
         sodipodi:nodetypes="cscsccc" />
      <path
         id="path2987-7-5"
         d="m 1877.4899,-563.18797 c 25.7169,-94.19529 6.4222,-199.00588 -61.0479,-279.5108 -28.4018,-33.88891 -62.5383,-60.14121 -99.8048,-78.51169 -24.5942,7.52419 -48.106,20.01177 -69.059,37.57219 -83.705,70.152 -94.6917,194.87702 -24.5397,278.58198 63.686,75.98981 172.334,92.04066 254.4514,41.86832 z"
         style="fill:none;stroke:#046592;stroke-width:20;stroke-linecap:round;stroke-linejoin:round;stroke-miterlimit:4;stroke-dasharray:none;stroke-opacity:1"
         inkscape:connector-curvature="0" />
      <path
         sodipodi:nodetypes="cc"
         id="path2987-7-4-3"
         d="m 1701.4095,-913.82756 c -62.451,106.43795 -71.2447,222.36468 -0.4946,363.59309"
         style="fill:none;stroke:#046592;stroke-width:20;stroke-linecap:round;stroke-linejoin:round;stroke-miterlimit:4;stroke-dasharray:none;stroke-opacity:1"
         inkscape:connector-curvature="0"
         inkscape:transform-center-x="-126.32752"
         inkscape:transform-center-y="-111.62149" />
      <path
         inkscape:transform-center-y="-199.2145"
         inkscape:transform-center-x="-15.861967"
         sodipodi:nodetypes="cc"
         id="path2987-7-4-0-2"
         d="m 1588.7425,-784.71309 c 33.5152,102.11869 130.9498,205.75646 249.59,239.45306"
         style="fill:none;stroke:#046592;stroke-width:20;stroke-linecap:round;stroke-linejoin:round;stroke-miterlimit:4;stroke-dasharray:none;stroke-opacity:1"
         inkscape:connector-curvature="0" />
      <circle
         r="48.500004"
         cy="-771.30554"
         cx="-1854.8719"
         transform="matrix(-0.69032336,0.72350097,-0.72350097,-0.69032336,0,0)"
         id="path3093-1"
         style="fill:#ffffff;stroke:#046592;stroke-width:15.00000095;stroke-linecap:round;stroke-linejoin:round;stroke-miterlimit:4;stroke-dasharray:none;stroke-opacity:1" />
      <path
         inkscape:connector-curvature="0"
         d="m 1840.4203,-842.17367 -22.0402,41.75288 m -4.6844,-10.35861 c -3.8464,-0.86251 -7.6782,1.56032 -8.5584,5.41155 -0.8803,3.85122 1.5241,7.67252 5.3705,8.53502 0.9616,0.21573 1.9224,0.22519 2.836,0.0597 0.9138,-0.1659 1.7808,-0.50929 2.5554,-0.99802 0.7743,-0.48966 1.456,-1.12659 1.9992,-1.88186 m 34.5643,-36.20195 -26.9385,51.03259 m 11.2163,-2.01519 c 2.891,2.67261 3.0574,7.1933 0.3717,10.09731 -2.6854,2.90404 -7.2061,3.09164 -10.0969,0.41906 -0.7226,-0.66814 -1.2752,-1.45181 -1.6552,-2.29684 -0.3803,-0.84502 -0.5882,-1.75141 -0.6217,-2.66504 -0.034,-0.91364 0.1065,-1.8345 0.4238,-2.70846 m 39.9776,-45.21163 -15.4067,29.18664 m 11.2162,-2.01521 c 2.8909,2.67259 3.0572,7.1933 0.3718,10.09732 -2.6855,2.90401 -7.206,3.09163 -10.0968,0.41906 -0.7228,-0.66815 -1.2752,-1.45182 -1.6555,-2.29684 -0.3801,-0.84501 -0.5879,-1.75141 -0.6215,-2.66505 -0.034,-0.91362 0.1064,-1.8345 0.4237,-2.70845"
         style="fill:none;stroke:#000000;stroke-width:4;stroke-linecap:round;stroke-linejoin:miter;stroke-miterlimit:4;stroke-dasharray:none;stroke-opacity:1"
         id="path5430-57-2" />
      <circle
         r="46.692631"
         cy="431.91382"
         cx="-1747.3884"
         transform="matrix(-0.99142762,0.13065709,-0.13065709,-0.99142762,0,0)"
         id="path3093-7-5-0"
         style="fill:#ffffff;stroke:#046592;stroke-width:15;stroke-linecap:round;stroke-linejoin:round;stroke-miterlimit:4;stroke-dasharray:none;stroke-opacity:1" />
      <path
         sodipodi:nodetypes="sssssssssssssssssssssscsccsccccssssssscccscsc"
         style="clip-rule:evenodd;fill:#1d1d1b;fill-rule:evenodd;stroke:#ffffff;stroke-width:0.04821476"
         inkscape:connector-curvature="0"
         d="m 1693.925,-640.63519 c 6.1651,-1.93357 9.6087,-8.52405 7.6751,-14.68923 -1.9336,-6.16518 -8.5241,-9.60871 -14.6892,-7.67513 -6.1652,1.93357 -9.6087,8.52405 -7.6752,14.68923 1.9336,6.16517 8.5241,9.60871 14.6893,7.67513 z m -6.0121,-19.16945 c 4.4118,-1.38366 9.1086,1.07046 10.4923,5.48224 1.3836,4.41177 -1.0705,9.10865 -5.4823,10.4923 -4.4117,1.38366 -9.1086,-1.07047 -10.4923,-5.48224 -1.3836,-4.41177 1.0705,-9.10865 5.4823,-10.4923 z m 7.0141,22.36436 c -0.8819,0.27659 -1.3731,1.21657 -1.0965,2.09846 l 1.002,3.19491 c 0.2766,0.8819 1.2166,1.37304 2.0985,1.09645 0.8819,-0.27658 1.373,-1.21656 1.0964,-2.09846 l -1.002,-3.19491 c -0.2766,-0.88189 -1.2165,-1.37303 -2.0984,-1.09645 z m -13.7444,-0.31347 -1.5504,2.96735 c -0.4283,0.81972 -0.1113,1.8306 0.7084,2.2589 0.8197,0.4283 1.8306,0.11126 2.2589,-0.70845 l 1.5505,-2.96736 c 0.4283,-0.81971 0.1112,-1.8306 -0.7085,-2.2589 -0.8196,-0.42833 -1.8306,-0.11125 -2.2589,0.70846 z m 18.4706,-28.12734 1.5504,-2.96735 c 0.4284,-0.81962 0.1113,-1.83051 -0.7084,-2.25881 -0.8197,-0.4283 -1.8306,-0.11125 -2.2589,0.70846 l -1.5505,2.96725 c -0.4276,0.82181 -0.1112,1.83071 0.7085,2.25891 0.8196,0.42843 1.8313,0.11345 2.2589,-0.70846 z m 5.1418,9.55466 c 0.2766,0.88189 1.2166,1.37303 2.0985,1.09645 l 3.1949,-1.00202 c 0.8819,-0.27658 1.373,-1.21656 1.0964,-2.09846 -0.2766,-0.88189 -1.2165,-1.37303 -2.0984,-1.09645 l -3.1949,1.00202 c -0.8819,0.27658 -1.3731,1.21656 -1.0965,2.09846 z m 1.2377,10.77899 c -0.8198,-0.42827 -1.8307,-0.11123 -2.2589,0.70845 -0.4284,0.81974 -0.1114,1.83063 0.7085,2.2589 l 2.9673,1.55045 c 0.8197,0.4283 1.8305,0.11129 2.2589,-0.70846 0.4283,-0.81971 0.1113,-1.8306 -0.7084,-2.2589 z"
         id="path4001-0" />
      <path
         id="path3921-1-2-8"
         style="fill:#ffffff;fill-rule:evenodd;stroke:#ffffff;stroke-width:0.63999993;stroke-linecap:round;stroke-linejoin:round;stroke-miterlimit:4;stroke-dasharray:none"
         d="m 1660.8407,-678.26752 c -1.0492,-1.2544 -2.9131,-1.42052 -4.1676,-0.37123 -1.2544,1.0492 -1.4205,2.9131 -0.3712,4.16756 1.0492,1.25441 6.0657,2.64064 6.0657,2.64064 0,0 -0.4777,-5.18256 -1.5269,-6.43697 z m -7.1086,9.80275 c -1.0492,-1.25441 -2.9131,-1.42051 -4.1675,-0.37124 -1.2544,1.04922 -1.4205,2.91312 -0.3713,4.16758 1.0493,1.25442 6.0658,2.64064 6.0658,2.64064 0,0 -0.4777,-5.18256 -1.527,-6.43698 z m 21.9516,-10.64653 c -1.0492,-1.25441 -2.9131,-1.42052 -4.1676,-0.37124 -1.2544,1.04922 -1.4205,2.91313 -0.3712,4.16758 1.0492,1.25442 6.0657,2.64064 6.0657,2.64064 0,0 -0.4777,-5.18256 -1.5269,-6.43698 z m -14.1134,38.03312 c 0.4686,-0.14697 0.9214,-0.32532 1.362,-0.53618 3.7618,2.76466 8.5965,3.61427 13.1123,2.19801 4.5157,-1.41628 7.9974,-4.87414 9.5084,-9.2925 0.4822,-0.0785 0.9557,-0.19072 1.4243,-0.33769 5.4475,-1.70848 8.4902,-7.5318 6.7817,-12.9793 -1.7085,-5.44753 -7.5318,-8.4902 -12.9793,-6.78171 -1.2075,0.37873 -2.3201,0.9699 -3.3002,1.74556 -3.2532,-1.42634 -6.8923,-1.6496 -10.2887,-0.58439 -3.4001,1.06639 -6.2561,3.32671 -8.1121,6.35544 -1.2475,-0.0771 -2.4985,0.073 -3.706,0.45174 -5.4475,1.7085 -8.4902,7.53181 -6.7817,12.97932 1.7085,5.4475 7.5318,8.49019 12.9793,6.7817 z m -5.3122,-16.93801 c 1.5107,-0.47382 3.0559,-0.42551 4.4584,0.0229 1.2884,-3.14547 3.8641,-5.73376 7.3597,-6.83008 3.4957,-1.09633 7.0881,-0.44256 9.9421,1.40376 0.8933,-1.16837 2.136,-2.09112 3.6468,-2.56494 3.8982,-1.22257 8.0483,0.94588 9.2709,4.84409 1.2226,3.89822 -0.9458,8.04835 -4.844,9.27093 -0.9539,0.29914 -1.9192,0.38796 -2.8536,0.30552 -0.7269,4.24103 -3.694,7.94932 -8.0792,9.32466 -4.3853,1.37535 -8.9388,0.0257 -11.9555,-3.04121 -0.7218,0.60186 -1.5668,1.08082 -2.5188,1.37938 -3.8982,1.2226 -8.0483,-0.94585 -9.2709,-4.84406 -1.2226,-3.89821 0.9458,-8.04834 4.8441,-9.27094 z"
         inkscape:connector-curvature="0" />
      <path
         style="fill:#ffffff;fill-opacity:1;fill-rule:evenodd;stroke:#ffffff;stroke-width:2.16000009;stroke-linecap:round;stroke-linejoin:round;stroke-miterlimit:4;stroke-dasharray:17.28000057, 4.32000015, 2.16000007, 4.32000015;stroke-dashoffset:0;stroke-opacity:0.99607843"
         d="m 1674.8812,-642.24381 c 4.3568,-1.3664 7.5495,-4.63255 8.8257,-8.47928 0.1066,-0.0302 0.2122,-0.0577 0.3189,-0.0911 5.1611,-1.61868 8.2516,-6.41751 6.9027,-10.71848 -1.3489,-4.30097 -6.6264,-6.47539 -11.7875,-4.8567 -0.8245,0.25856 -1.592,0.60984 -2.301,1.01568 -2.809,-1.15839 -6.1054,-1.37298 -9.3267,-0.36268 -3.1792,0.99708 -5.7358,3.01457 -7.3828,5.52304 -1.0674,0.0177 -2.17,0.18162 -3.2656,0.52523 -5.1612,1.61869 -8.2516,6.41752 -6.9027,10.71849 1.3489,4.30096 6.6264,6.47538 11.7875,4.8567 0.2624,-0.0823 0.5198,-0.17035 0.7711,-0.26856 3.263,2.59086 7.8785,3.54334 12.3604,2.13769 z"
         id="path4202-5"
         inkscape:connector-curvature="0" />
      <path
         id="path3921-1-1"
         style="fill:#000000;fill-rule:evenodd;stroke:#ffffff;stroke-width:0.08;stroke-linecap:round;stroke-linejoin:round;stroke-miterlimit:4;stroke-dasharray:none"
         d="m 1660.2802,-678.71839 c -1.0492,-1.25441 -2.9132,-1.42045 -4.1676,-0.37124 -1.2544,1.04921 -1.4204,2.91316 -0.3712,4.16757 1.0492,1.25441 6.0657,2.64064 6.0657,2.64064 0,0 -0.4777,-5.18256 -1.5269,-6.43697 z m -7.1085,9.80275 c -1.0493,-1.25441 -2.9132,-1.42045 -4.1676,-0.37124 -1.2544,1.04922 -1.4205,2.91316 -0.3712,4.16757 1.0492,1.25442 6.0657,2.64064 6.0657,2.64064 0,0 -0.4777,-5.18256 -1.5269,-6.43697 z m 21.9515,-10.64653 c -1.0492,-1.25441 -2.9131,-1.42045 -4.1676,-0.37123 -1.2544,1.04921 -1.4204,2.91315 -0.3712,4.16757 1.0492,1.25441 6.0657,2.64063 6.0657,2.64063 0,0 -0.4777,-5.18256 -1.5269,-6.43697 z m -14.1134,38.03312 c 0.4686,-0.14697 0.9214,-0.32531 1.362,-0.53617 3.7618,2.76466 8.5965,3.61426 13.1123,2.198 4.5157,-1.41626 7.9974,-4.87413 9.5085,-9.2925 0.4821,-0.0785 0.9556,-0.19071 1.4242,-0.33768 5.4475,-1.70849 8.4902,-7.5318 6.7817,-12.97931 -1.7085,-5.44752 -7.5318,-8.4902 -12.9793,-6.78171 -1.2075,0.37872 -2.3201,0.96991 -3.3002,1.74558 -3.2531,-1.42635 -6.8922,-1.64962 -10.2887,-0.5844 -3.4001,1.06637 -6.2561,3.32669 -8.1121,6.35542 -1.2475,-0.077 -2.4985,0.073 -3.706,0.45176 -5.4475,1.70849 -8.4902,7.5318 -6.7817,12.97931 1.7085,5.44751 7.5318,8.4902 12.9793,6.7817 z m -5.3122,-16.93801 c 1.5107,-0.47381 3.056,-0.42551 4.4584,0.0229 1.2884,-3.14548 3.8641,-5.73377 7.3597,-6.83008 3.4957,-1.09634 7.0881,-0.44256 9.9421,1.40374 0.8932,-1.16839 2.136,-2.0911 3.6468,-2.56492 3.8982,-1.22258 8.0483,0.94586 9.2709,4.84408 1.2226,3.89821 -0.9458,8.04835 -4.844,9.27094 -0.9539,0.29914 -1.9192,0.38795 -2.8536,0.30552 -0.7269,4.24103 -3.6939,7.94931 -8.0792,9.32466 -4.3853,1.37534 -8.9388,0.0257 -11.9555,-3.0412 -0.7218,0.60184 -1.5668,1.08081 -2.5188,1.37937 -3.8982,1.22259 -8.0483,-0.94586 -9.2709,-4.84407 -1.2226,-3.89822 0.9459,-8.04835 4.8441,-9.27094 z"
         inkscape:connector-curvature="0" />
      <circle
         r="46.837421"
         cy="741.04486"
         cx="-1718.8424"
         transform="matrix(-0.99873995,0.05018487,-0.05018487,-0.99873995,0,0)"
         id="path3093-7-0-5"
         style="fill:#ffffff;stroke:#046592;stroke-width:15;stroke-linecap:round;stroke-linejoin:round;stroke-miterlimit:4;stroke-dasharray:none;stroke-opacity:1" />
      <path
         style="clip-rule:evenodd;fill:#000000;fill-rule:evenodd;stroke:#000000;stroke-width:1"
         inkscape:connector-curvature="0"
         d="m 1671.4193,-839.18967 9.9051,39.6736 c 0.65,2.60368 3.111,4.22951 5.4952,3.63423 2.3844,-0.59527 3.7924,-3.18704 3.1424,-5.79073 l -9.9051,-39.67359 c 2.1966,-2.13747 3.2574,-5.32969 2.4615,-8.51812 -1.1906,-4.76863 -6.0253,-7.67171 -10.7941,-6.48114 -4.7688,1.19054 -7.6718,6.0255 -6.4812,10.79413 0.7959,3.18837 3.2301,5.50813 6.1762,6.36162 z"
         id="path3433-1-8-2" />
    </g>
  </g>
</svg>
