%TF.GenerationSoftware,KiCad,Pcbnew,7.0.8*%
%TF.CreationDate,2024-06-17T23:50:33+02:00*%
%TF.ProjectId,Stima V4 Master,5374696d-6120-4563-9420-4d6173746572,rev?*%
%TF.SameCoordinates,Original*%
%TF.FileFunction,Paste,Top*%
%TF.FilePolarity,Positive*%
%FSLAX46Y46*%
G04 Gerber Fmt 4.6, Leading zero omitted, Abs format (unit mm)*
G04 Created by KiCad (PCBNEW 7.0.8) date 2024-06-17 23:50:33*
%MOMM*%
%LPD*%
G01*
G04 APERTURE LIST*
%ADD10R,3.000000X2.100000*%
%ADD11R,1.600000X0.800000*%
%ADD12R,0.400000X0.650000*%
%ADD13R,0.300000X0.800000*%
%ADD14R,0.300000X0.650000*%
%ADD15R,1.000000X0.600000*%
%ADD16R,0.600000X1.000000*%
%ADD17R,1.900000X1.100000*%
%ADD18R,0.400000X0.800000*%
%ADD19R,6.500000X1.650000*%
%ADD20R,0.450000X0.250000*%
%ADD21R,0.400000X0.300000*%
%ADD22R,1.800000X1.600000*%
%ADD23R,0.700000X0.250000*%
%ADD24R,0.400000X1.200000*%
%ADD25R,0.300000X1.200000*%
%ADD26R,0.300000X0.750000*%
%ADD27R,0.300000X0.700000*%
%ADD28R,0.900000X0.800000*%
%ADD29R,1.000000X2.000000*%
%ADD30R,0.520000X1.000000*%
%ADD31R,0.500000X1.000000*%
%ADD32R,0.291400X1.750000*%
%ADD33R,0.300000X1.750000*%
%ADD34R,1.200000X1.800000*%
%ADD35R,1.300000X0.850000*%
%ADD36R,1.600000X2.200000*%
%ADD37R,1.200000X0.600000*%
%ADD38R,3.400000X1.100000*%
%ADD39R,3.400000X0.980000*%
%ADD40R,0.800000X0.300000*%
%ADD41R,1.100000X2.000000*%
%ADD42R,0.800000X0.800000*%
%ADD43R,2.300000X0.700000*%
%ADD44R,1.300000X1.700000*%
%ADD45R,1.270000X0.900000*%
%ADD46R,3.000000X1.500000*%
%ADD47R,0.600000X1.200000*%
%ADD48R,2.000000X2.500000*%
%ADD49R,0.250000X0.450000*%
%ADD50R,0.800000X0.400000*%
%ADD51R,0.300000X0.400000*%
%ADD52R,1.800000X1.200000*%
%ADD53R,1.500000X0.280000*%
%ADD54R,0.280000X1.500000*%
%ADD55R,0.600000X0.600000*%
%ADD56R,1.600000X1.000000*%
%ADD57R,3.400000X1.400000*%
%ADD58R,1.400000X0.600000*%
%ADD59R,1.400000X0.500000*%
%ADD60R,1.600000X0.600000*%
%ADD61R,0.400000X0.900000*%
%ADD62R,0.450000X0.200000*%
%ADD63R,0.300000X1.000000*%
%ADD64R,0.300000X2.800000*%
%ADD65R,0.700000X1.400000*%
%ADD66R,1.200000X0.800000*%
%ADD67R,1.200000X1.200000*%
%ADD68R,1.200000X2.800000*%
%ADD69R,1.000000X1.400000*%
%ADD70R,1.600000X1.900000*%
%ADD71R,0.850000X1.300000*%
%ADD72R,2.000000X8.000000*%
G04 APERTURE END LIST*
D10*
%TO.C,J2*%
X104280790Y-116142940D03*
X104280790Y-129972940D03*
D11*
X107201790Y-118682940D03*
X107201790Y-119932940D03*
X107201790Y-121182940D03*
X107201790Y-122432940D03*
X107201790Y-123682940D03*
X107201790Y-124932940D03*
X107201790Y-126182940D03*
X107201790Y-127432940D03*
%TD*%
D12*
%TO.C,DS1*%
X186399380Y-88403100D03*
X186780380Y-88403100D03*
X197166180Y-88406300D03*
X197420180Y-88406300D03*
D13*
X196466180Y-88606300D03*
X196466180Y-88987300D03*
D14*
X196166180Y-85472300D03*
X196166180Y-85726300D03*
D13*
X195866180Y-88606300D03*
X195866180Y-88987300D03*
D14*
X195566180Y-85472300D03*
X195566180Y-85726300D03*
D13*
X195266180Y-88606300D03*
X195266180Y-88987300D03*
D14*
X194966180Y-85472300D03*
X194966180Y-85726300D03*
D13*
X194666180Y-88606300D03*
X194666180Y-88987300D03*
D14*
X194366180Y-85472300D03*
X194366180Y-85726300D03*
D13*
X194066180Y-88606300D03*
X194066180Y-88987300D03*
D14*
X193766170Y-85472300D03*
X193766180Y-85726300D03*
D13*
X193466180Y-88606300D03*
X193466180Y-88987300D03*
D14*
X193166180Y-85472300D03*
X193166180Y-85726300D03*
D13*
X192866180Y-88606300D03*
X192866180Y-88987300D03*
D14*
X192566180Y-85472300D03*
X192566180Y-85726300D03*
D13*
X192266180Y-88606300D03*
X192266190Y-88987300D03*
D14*
X191966170Y-85472300D03*
X191966180Y-85726300D03*
D13*
X191666180Y-88606300D03*
X191666180Y-88987300D03*
D14*
X191366180Y-85472300D03*
X191366180Y-85726300D03*
D13*
X191066180Y-88606300D03*
X191066180Y-88987300D03*
D14*
X190766180Y-85472300D03*
X190766180Y-85726300D03*
D13*
X190466180Y-88606300D03*
X190466190Y-88987300D03*
D14*
X190166180Y-85472300D03*
X190166180Y-85726300D03*
D13*
X189866180Y-88606300D03*
X189866180Y-88987300D03*
D14*
X189566180Y-85472300D03*
X189566180Y-85726300D03*
D13*
X189266180Y-88606300D03*
X189266180Y-88987300D03*
D14*
X188966180Y-85472300D03*
X188966180Y-85726300D03*
D13*
X188666180Y-88606300D03*
X188666190Y-88987300D03*
D14*
X188366180Y-85472300D03*
X188366180Y-85726300D03*
D13*
X188066180Y-88606300D03*
X188066180Y-88987300D03*
D14*
X187766180Y-85472300D03*
X187766180Y-85726300D03*
D13*
X187466190Y-88606300D03*
X187466190Y-88987300D03*
%TD*%
D15*
%TO.C,C2*%
X140729790Y-112446940D03*
X140729790Y-114097940D03*
%TD*%
D16*
%TO.C,C45*%
X149873790Y-105080940D03*
X151524790Y-105080940D03*
%TD*%
%TO.C,C66*%
X95251480Y-132766940D03*
X93600480Y-132766940D03*
%TD*%
D15*
%TO.C,C58*%
X125184020Y-84493100D03*
X125184020Y-86144100D03*
%TD*%
D17*
%TO.C,X1*%
X140423780Y-118859300D03*
X140423780Y-122059700D03*
%TD*%
D15*
%TO.C,FIL1*%
X145555790Y-112446940D03*
X145555790Y-114097940D03*
%TD*%
%TO.C,R3*%
X156223790Y-95047930D03*
X156223790Y-96698930D03*
%TD*%
D18*
%TO.C,U7*%
X102603180Y-73570860D03*
X102603180Y-73977260D03*
X103253180Y-73570860D03*
X103253180Y-73977260D03*
X103903180Y-73570860D03*
X103903180Y-73977260D03*
X104553180Y-73570860D03*
X104553180Y-73977260D03*
X105203180Y-73570860D03*
X105203180Y-73977260D03*
X105853180Y-73570860D03*
X105853180Y-73977260D03*
X106503180Y-73570860D03*
X106503180Y-73977260D03*
X106503180Y-70164460D03*
X106503180Y-70570860D03*
X105853180Y-70164460D03*
X105853180Y-70570860D03*
X105203180Y-70164460D03*
X105203180Y-70570860D03*
X104553180Y-70164460D03*
X104553180Y-70570860D03*
X103903180Y-70164460D03*
X103903180Y-70570860D03*
X103253180Y-70164460D03*
X103253180Y-70570860D03*
X102603180Y-70164460D03*
X102603180Y-70570860D03*
D19*
X104553180Y-72070860D03*
%TD*%
D16*
%TO.C,C7*%
X133185020Y-129959100D03*
X134836020Y-129959100D03*
%TD*%
%TO.C,C44*%
X94856180Y-61506100D03*
X96507180Y-61506100D03*
%TD*%
D15*
%TO.C,C40*%
X111874180Y-63538100D03*
X111874180Y-61887100D03*
%TD*%
D16*
%TO.C,FIL4*%
X143497910Y-133413980D03*
X145148910Y-133413980D03*
%TD*%
%TO.C,C46*%
X149873790Y-106858930D03*
X151524790Y-106858930D03*
%TD*%
D15*
%TO.C,R29*%
X103264790Y-106858930D03*
X103264790Y-105207930D03*
%TD*%
D16*
%TO.C,C32*%
X198590020Y-93129100D03*
X200241020Y-93129100D03*
%TD*%
D15*
%TO.C,C1*%
X139154020Y-114084100D03*
X139154020Y-112433100D03*
%TD*%
%TO.C,R5*%
X172555020Y-112560100D03*
X172555020Y-110909100D03*
%TD*%
%TO.C,C50*%
X101689020Y-110274100D03*
X101689020Y-108623100D03*
%TD*%
D20*
%TO.C,DZ3*%
X96608780Y-59601100D03*
X96380180Y-59601100D03*
X96608780Y-58940700D03*
X96380180Y-58940700D03*
D18*
X95694380Y-59270900D03*
D21*
X95338780Y-59270900D03*
X95135580Y-59270900D03*
%TD*%
D15*
%TO.C,R30*%
X104991020Y-106845100D03*
X104991020Y-105194100D03*
%TD*%
%TO.C,C31*%
X182969020Y-75349100D03*
X182969020Y-73698100D03*
%TD*%
%TO.C,C57*%
X131280020Y-86271100D03*
X131280020Y-84620100D03*
%TD*%
D16*
%TO.C,C3*%
X140729790Y-115875940D03*
X139078790Y-115875940D03*
%TD*%
%TO.C,R18*%
X200241020Y-94907100D03*
X198590020Y-94907100D03*
%TD*%
D22*
%TO.C,R28*%
X105651180Y-60744100D03*
X109207180Y-60744100D03*
%TD*%
D23*
%TO.C,U2*%
X129756020Y-135309090D03*
X129476620Y-135309090D03*
X129756020Y-135809090D03*
X129476620Y-135809090D03*
X129756020Y-136309090D03*
X129476620Y-136309090D03*
X131035420Y-136309090D03*
X130756020Y-136309090D03*
X131035420Y-135809090D03*
X130756020Y-135809090D03*
X131035420Y-135309090D03*
X130756020Y-135309090D03*
%TD*%
D24*
%TO.C,FIL7*%
X142683220Y-142355700D03*
X142683220Y-142787500D03*
D25*
X143234020Y-142355700D03*
X143234020Y-142787500D03*
D26*
X143734020Y-142581100D03*
X143734020Y-143012900D03*
X144234020Y-142581100D03*
X144234020Y-143012900D03*
X144234020Y-140195300D03*
X144234020Y-140627100D03*
X143734020Y-140195300D03*
D27*
X143734020Y-140627100D03*
D25*
X143234020Y-140420700D03*
X143234020Y-140852500D03*
X142734020Y-140420700D03*
X142734020Y-140852500D03*
D28*
X144322220Y-141578700D03*
X144754020Y-141578700D03*
%TD*%
D15*
%TO.C,R1*%
X113678790Y-125273940D03*
X113678790Y-123622940D03*
%TD*%
D16*
%TO.C,C42*%
X103125020Y-76084490D03*
X101474020Y-76084490D03*
%TD*%
D29*
%TO.C,J6*%
X142022780Y-152920700D03*
X144816780Y-152920700D03*
D30*
X140319780Y-148704300D03*
D31*
X141069780Y-148704300D03*
D32*
X141669080Y-148329300D03*
D33*
X143169780Y-148329300D03*
X144169780Y-148329300D03*
X145169780Y-148329300D03*
D31*
X145769780Y-148704300D03*
D30*
X146519780Y-148704300D03*
X146519780Y-147942300D03*
D31*
X145769780Y-147942300D03*
D33*
X144669780Y-148329300D03*
X143669780Y-148329300D03*
X142669770Y-148329300D03*
X142169780Y-148329300D03*
D31*
X141069780Y-147942300D03*
D30*
X140319780Y-147942300D03*
%TD*%
D34*
%TO.C,F1*%
X116954900Y-68770980D03*
X113954900Y-68770980D03*
%TD*%
D35*
%TO.C,Q2*%
X178752620Y-112636300D03*
X178752620Y-110736300D03*
X176238020Y-111671100D03*
%TD*%
D15*
%TO.C,C43*%
X107048180Y-66586100D03*
X107048180Y-68237100D03*
%TD*%
D36*
%TO.C,D1*%
X139433180Y-64173100D03*
X144132180Y-64173100D03*
%TD*%
D16*
%TO.C,C24*%
X193256020Y-82207100D03*
X194907020Y-82207100D03*
%TD*%
%TO.C,C5*%
X121882020Y-108115100D03*
X120231020Y-108115100D03*
%TD*%
D15*
%TO.C,R9*%
X110884790Y-118161940D03*
X110884790Y-119812940D03*
%TD*%
%TO.C,C39*%
X105284020Y-68210490D03*
X105284020Y-66559490D03*
%TD*%
D16*
%TO.C,C41*%
X105538020Y-76084490D03*
X107189020Y-76084490D03*
%TD*%
D15*
%TO.C,C63*%
X145452980Y-71564500D03*
X145452980Y-73215500D03*
%TD*%
D37*
%TO.C,U11*%
X135471020Y-140500100D03*
X135471020Y-139550100D03*
X135471020Y-138600100D03*
X132423020Y-138595100D03*
X132423020Y-140500100D03*
%TD*%
D16*
%TO.C,R2*%
X128232010Y-131610100D03*
X126581010Y-131610100D03*
%TD*%
%TO.C,C61*%
X136435980Y-78549500D03*
X134784980Y-78549500D03*
%TD*%
%TO.C,C47*%
X151473020Y-109385100D03*
X149822020Y-109385100D03*
%TD*%
D38*
%TO.C,L4*%
X131482980Y-72326500D03*
D39*
X131482980Y-73342500D03*
X131482980Y-75882500D03*
D38*
X131482980Y-76898500D03*
%TD*%
D40*
%TO.C,U12*%
X138594980Y-71056500D03*
X138848980Y-71056500D03*
X138594980Y-71556500D03*
X138848980Y-71556500D03*
X138594980Y-72056500D03*
X138848980Y-72056500D03*
X138594980Y-72556500D03*
X138848980Y-72556500D03*
X138594980Y-73056500D03*
X138848980Y-73056500D03*
X138594980Y-73556500D03*
X138848980Y-73556500D03*
X141848980Y-73556500D03*
X142102980Y-73556500D03*
X142102980Y-73556500D03*
X141848980Y-73056500D03*
X142102980Y-73056500D03*
X141848980Y-72556500D03*
X142102980Y-72556500D03*
X141848980Y-72056500D03*
X142102980Y-72056500D03*
X141848980Y-71556500D03*
X142102980Y-71556500D03*
X141848980Y-71056500D03*
X142102980Y-71056500D03*
%TD*%
D41*
%TO.C,D2*%
X127470020Y-85636100D03*
D42*
X127470020Y-83736100D03*
%TD*%
D43*
%TO.C,L3*%
X114033900Y-71183980D03*
X115176900Y-71183980D03*
D44*
X115684900Y-71691980D03*
X117970900Y-71691980D03*
D43*
X118478900Y-71183980D03*
X119621900Y-71183980D03*
D44*
X117970900Y-74739980D03*
D43*
X118478900Y-75247980D03*
X119621900Y-75247980D03*
X114033900Y-75247980D03*
X115176900Y-75247980D03*
D44*
X115684900Y-74739980D03*
%TD*%
D45*
%TO.C,DL1*%
X160236020Y-68237100D03*
X160236020Y-70396100D03*
%TD*%
D16*
%TO.C,C19*%
X122568780Y-98857940D03*
X120917780Y-98857940D03*
%TD*%
%TO.C,C21*%
X185001020Y-63030100D03*
X186652020Y-63030100D03*
%TD*%
D46*
%TO.C,J1*%
X172961180Y-126149100D03*
X171437180Y-126149100D03*
X178930180Y-124879100D03*
X177533180Y-124879100D03*
X172961180Y-123609100D03*
X171437180Y-123609100D03*
X178930180Y-122339100D03*
X177533180Y-122339100D03*
X172961180Y-121069100D03*
X171437180Y-121069100D03*
X178930180Y-119799100D03*
X177533180Y-119799100D03*
%TD*%
D47*
%TO.C,U14*%
X93374380Y-130846500D03*
X94324380Y-130846500D03*
X95274380Y-130846500D03*
X95279380Y-127798500D03*
X93374380Y-127798500D03*
%TD*%
D15*
%TO.C,C54*%
X131482980Y-68897500D03*
X131482980Y-70548500D03*
%TD*%
D16*
%TO.C,FIL3*%
X143472020Y-125641100D03*
X145123020Y-125641100D03*
%TD*%
D15*
%TO.C,R19*%
X186271020Y-75349100D03*
X186271020Y-73698100D03*
%TD*%
D48*
%TO.C,DZ4*%
X123354980Y-71056500D03*
X123354980Y-75628500D03*
%TD*%
D16*
%TO.C,R26*%
X141364790Y-92126940D03*
X139713790Y-92126940D03*
%TD*%
D15*
%TO.C,R23*%
X142253790Y-86284940D03*
X142253790Y-84633940D03*
%TD*%
D16*
%TO.C,C27*%
X200241020Y-87033100D03*
X198590020Y-87033100D03*
%TD*%
%TO.C,C34*%
X198590020Y-91351100D03*
X200241020Y-91351100D03*
%TD*%
D15*
%TO.C,C12*%
X113678790Y-128194930D03*
X113678790Y-126543930D03*
%TD*%
%TO.C,R7*%
X182461020Y-112560100D03*
X182461020Y-110909100D03*
%TD*%
D49*
%TO.C,DZ2*%
X103785420Y-66076890D03*
X103785420Y-66305490D03*
X103125020Y-66076890D03*
X103125020Y-66305490D03*
D50*
X103455220Y-66991290D03*
D51*
X103455220Y-67346890D03*
X103455220Y-67550090D03*
%TD*%
D52*
%TO.C,C56*%
X135038980Y-71564500D03*
X135038980Y-74564500D03*
%TD*%
D15*
%TO.C,C571*%
X129629020Y-86282200D03*
X129629020Y-84631200D03*
%TD*%
D53*
%TO.C,U1*%
X135732010Y-124657100D03*
X135732010Y-124157100D03*
X135732010Y-123657100D03*
X135732010Y-123157100D03*
X135732010Y-122657100D03*
X135732010Y-122157100D03*
X135732010Y-121657110D03*
X135732010Y-121157110D03*
X135732010Y-120657110D03*
X135732010Y-120157110D03*
X135732010Y-119657110D03*
X135732010Y-119157110D03*
X135732010Y-118657110D03*
X135732010Y-118157110D03*
X135732010Y-117657110D03*
X135732010Y-117157110D03*
X135732010Y-116657110D03*
X135732010Y-116157120D03*
X135732010Y-115657120D03*
X135732010Y-115157120D03*
X135732010Y-114657120D03*
X135732010Y-114157120D03*
X135732010Y-113657120D03*
X135732010Y-113157120D03*
X135732010Y-112657120D03*
D54*
X133732010Y-110657120D03*
X133232010Y-110657120D03*
X132732010Y-110657120D03*
X132232010Y-110657120D03*
X131732010Y-110657120D03*
X131232010Y-110657120D03*
X130732010Y-110657120D03*
X130232010Y-110657120D03*
X129732020Y-110657120D03*
X129232020Y-110657120D03*
X128732020Y-110657120D03*
X128232020Y-110657120D03*
X127732020Y-110657120D03*
X127232020Y-110657120D03*
X126732020Y-110657120D03*
X126232020Y-110657120D03*
X125732020Y-110657120D03*
X125232030Y-110657120D03*
X124732030Y-110657120D03*
X124232030Y-110657120D03*
X123732030Y-110657120D03*
X123232030Y-110657120D03*
X122732030Y-110657120D03*
X122232030Y-110657120D03*
X121732030Y-110657120D03*
D53*
X119732030Y-112657120D03*
X119732030Y-113157120D03*
X119732030Y-113657120D03*
X119732030Y-114157120D03*
X119732030Y-114657120D03*
X119732030Y-115157120D03*
X119732030Y-115657120D03*
X119732030Y-116157120D03*
X119732030Y-116657120D03*
X119732030Y-117157110D03*
X119732030Y-117657110D03*
X119732030Y-118157110D03*
X119732030Y-118657110D03*
X119732030Y-119157110D03*
X119732030Y-119657110D03*
X119732030Y-120157110D03*
X119732030Y-120657110D03*
X119732030Y-121157110D03*
X119732030Y-121657110D03*
X119732030Y-122157100D03*
X119732030Y-122657100D03*
X119732030Y-123157100D03*
X119732030Y-123657100D03*
X119732030Y-124157100D03*
X119732030Y-124657100D03*
D54*
X121732030Y-126657100D03*
X122232030Y-126657100D03*
X122732030Y-126657100D03*
X123232030Y-126657100D03*
X123732030Y-126657100D03*
X124232030Y-126657100D03*
X124732030Y-126657100D03*
X125232030Y-126657100D03*
X125732020Y-126657100D03*
X126232020Y-126657100D03*
X126732020Y-126657100D03*
X127232020Y-126657100D03*
X127732020Y-126657100D03*
X128232020Y-126657100D03*
X128732020Y-126657100D03*
X129232020Y-126657100D03*
X129732020Y-126657100D03*
X130232020Y-126657100D03*
X130732010Y-126657100D03*
X131232010Y-126657100D03*
X131732010Y-126657100D03*
X132232010Y-126657100D03*
X132732010Y-126657100D03*
X133232010Y-126657100D03*
X133732010Y-126657100D03*
%TD*%
D15*
%TO.C,R6*%
X174333020Y-112560100D03*
X174333020Y-110909100D03*
%TD*%
%TO.C,C11*%
X115456790Y-126543940D03*
X115456790Y-128194940D03*
%TD*%
%TO.C,C64*%
X97168790Y-128512440D03*
X97168790Y-126861440D03*
%TD*%
%TO.C,R8*%
X180810020Y-112560100D03*
X180810020Y-110909100D03*
%TD*%
D16*
%TO.C,R17*%
X191859020Y-82207100D03*
X190208020Y-82207100D03*
%TD*%
%TO.C,C4*%
X136411790Y-108001940D03*
X134760790Y-108001940D03*
%TD*%
%TO.C,R21*%
X187414020Y-71539100D03*
X189065020Y-71539100D03*
%TD*%
D15*
%TO.C,C14*%
X142328780Y-118097300D03*
X142328780Y-119748300D03*
%TD*%
D16*
%TO.C,C48*%
X149822020Y-111036100D03*
X151473020Y-111036100D03*
%TD*%
%TO.C,C18*%
X131204790Y-131623940D03*
X129553790Y-131623940D03*
%TD*%
D22*
%TO.C,R27*%
X109207180Y-58204100D03*
X105651180Y-58204100D03*
%TD*%
D15*
%TO.C,C52*%
X139586790Y-138976100D03*
X139586790Y-140627100D03*
%TD*%
D55*
%TO.C,DZ5*%
X129590990Y-87708310D03*
X129590990Y-89359310D03*
%TD*%
D15*
%TO.C,C10*%
X143980020Y-112433100D03*
X143980020Y-114084100D03*
%TD*%
D56*
%TO.C,L2*%
X97269180Y-66840100D03*
X97269180Y-64300100D03*
X92443180Y-64300100D03*
X92443180Y-66840100D03*
%TD*%
D16*
%TO.C,FIL5*%
X143497900Y-128206980D03*
X145148900Y-128206980D03*
%TD*%
%TO.C,C28*%
X182461020Y-90462100D03*
X184112020Y-90462100D03*
%TD*%
%TO.C,R11*%
X126581020Y-105829100D03*
X128232020Y-105829100D03*
%TD*%
%TO.C,C16*%
X140602790Y-125527940D03*
X138951790Y-125527940D03*
%TD*%
D15*
%TO.C,C6*%
X117234790Y-126543940D03*
X117234790Y-128194940D03*
%TD*%
%TO.C,C55*%
X126327020Y-73063100D03*
X126327020Y-74714100D03*
%TD*%
D47*
%TO.C,U5*%
X186652020Y-66586100D03*
X185702020Y-66586100D03*
X184752020Y-66586100D03*
X184747020Y-69634100D03*
X186652020Y-69634100D03*
%TD*%
D57*
%TO.C,L1*%
X196050020Y-76492100D03*
X196050020Y-73444100D03*
%TD*%
D15*
%TO.C,C51*%
X137884020Y-138976100D03*
X137884020Y-140627100D03*
%TD*%
D16*
%TO.C,C22*%
X185001020Y-64808100D03*
X186652020Y-64808100D03*
%TD*%
D58*
%TO.C,U4*%
X131026020Y-101511100D03*
X131026020Y-102781100D03*
D59*
X131026020Y-104051100D03*
X131026020Y-105321100D03*
D58*
X139026020Y-105321100D03*
X139026020Y-104051100D03*
X139026020Y-102781100D03*
X139026020Y-101511100D03*
%TD*%
D16*
%TO.C,C26*%
X200241020Y-85509100D03*
X198590020Y-85509100D03*
%TD*%
%TO.C,C53*%
X135725020Y-135801100D03*
X134074020Y-135801100D03*
%TD*%
%TO.C,FIL2*%
X143472020Y-130721100D03*
X145123020Y-130721100D03*
%TD*%
D15*
%TO.C,R24*%
X140475790Y-84633940D03*
X140475790Y-86284940D03*
%TD*%
D16*
%TO.C,C17*%
X131204790Y-133401940D03*
X129553790Y-133401940D03*
%TD*%
%TO.C,R20*%
X184620020Y-71539100D03*
X186271020Y-71539100D03*
%TD*%
D60*
%TO.C,U9*%
X153632020Y-104686100D03*
X153632020Y-105956100D03*
X153632020Y-107226100D03*
X153632020Y-108496100D03*
X153632020Y-109766100D03*
X153632020Y-111036100D03*
X153632020Y-112306100D03*
X153632020Y-113576100D03*
X159728020Y-113576100D03*
X159728020Y-112306100D03*
X159728020Y-111036100D03*
X159728020Y-109766100D03*
X159728020Y-108496100D03*
X159728020Y-107226100D03*
X159728020Y-105956100D03*
X159728020Y-104686100D03*
%TD*%
D15*
%TO.C,C37*%
X101093020Y-68210490D03*
X101093020Y-66559490D03*
%TD*%
D16*
%TO.C,C35*%
X95264180Y-134290940D03*
X93613180Y-134290940D03*
%TD*%
D15*
%TO.C,C23*%
X182588020Y-67094100D03*
X182588020Y-68745100D03*
%TD*%
D16*
%TO.C,R4*%
X128029790Y-138354940D03*
X129680790Y-138354940D03*
%TD*%
D15*
%TO.C,C29*%
X192875020Y-76619100D03*
X192875020Y-74968100D03*
%TD*%
D16*
%TO.C,R31*%
X139052180Y-144437100D03*
X140703180Y-144437100D03*
%TD*%
%TO.C,C38*%
X94856180Y-57696100D03*
X96507180Y-57696100D03*
%TD*%
D61*
%TO.C,U10*%
X103691020Y-110623100D03*
X104341020Y-110623100D03*
X104991020Y-110623100D03*
X104991020Y-108623100D03*
X104341020Y-108623100D03*
X103691020Y-108623100D03*
%TD*%
D16*
%TO.C,R14*%
X112916790Y-122098940D03*
X114567790Y-122098940D03*
%TD*%
D15*
%TO.C,C59*%
X131241990Y-87708310D03*
X131241990Y-89359310D03*
%TD*%
D16*
%TO.C,R12*%
X129680790Y-99238940D03*
X131331790Y-99238940D03*
%TD*%
%TO.C,R10*%
X126581020Y-104051100D03*
X128232020Y-104051100D03*
%TD*%
D62*
%TO.C,FIL6*%
X108217790Y-136595940D03*
X108471790Y-136595940D03*
X108217790Y-136195940D03*
X108471790Y-136195940D03*
X108217790Y-135795940D03*
X108471790Y-135795940D03*
X108217790Y-135395940D03*
X108471790Y-135395940D03*
X108217790Y-134995940D03*
X108471790Y-134995940D03*
X108217790Y-134595940D03*
X108471790Y-134595940D03*
X108217790Y-134195940D03*
X108471790Y-134195940D03*
X108217790Y-133795940D03*
X108471790Y-133795940D03*
X106813790Y-133795940D03*
X107067790Y-133795940D03*
X106813790Y-134195940D03*
X107067790Y-134195940D03*
X106813790Y-134595940D03*
X107067790Y-134595940D03*
X106813790Y-134995940D03*
X107067790Y-134995940D03*
X106813790Y-135395940D03*
X107067790Y-135395940D03*
X106813790Y-135795940D03*
X107067790Y-135795940D03*
X106813790Y-136195940D03*
X107067790Y-136195940D03*
X106813790Y-136595940D03*
X107067790Y-136595940D03*
D63*
X107642790Y-136973940D03*
D64*
X107642790Y-135195940D03*
D63*
X107642790Y-133417940D03*
%TD*%
D16*
%TO.C,C33*%
X198590020Y-83858100D03*
X200241020Y-83858100D03*
%TD*%
%TO.C,C20*%
X138951790Y-98857940D03*
X137300790Y-98857940D03*
%TD*%
%TO.C,C62*%
X136435980Y-76898500D03*
X134784980Y-76898500D03*
%TD*%
D65*
%TO.C,J3*%
X103170020Y-138214100D03*
X103170020Y-138849100D03*
X102070020Y-138214100D03*
X102070020Y-138849100D03*
X100970020Y-138214100D03*
X100970020Y-138849100D03*
X99870020Y-138214100D03*
X99870020Y-138849100D03*
X98770020Y-138214100D03*
X98770020Y-138849100D03*
X97670020Y-138214100D03*
X97670020Y-138849100D03*
X96570020Y-138214100D03*
X96570020Y-138849100D03*
X95470020Y-138214100D03*
X95470020Y-138849100D03*
D66*
X92935020Y-149349100D03*
X93570020Y-149349100D03*
D65*
X94520020Y-138214100D03*
X94520020Y-138849100D03*
D67*
X92935020Y-143149100D03*
D68*
X92935020Y-153499100D03*
D67*
X93570020Y-143149100D03*
D68*
X93570020Y-153499100D03*
D69*
X104720020Y-138214100D03*
X104720020Y-138849100D03*
D70*
X107070020Y-153949100D03*
X107959020Y-153949100D03*
%TD*%
D15*
%TO.C,R34*%
X160236020Y-72301100D03*
X160236020Y-73952100D03*
%TD*%
D16*
%TO.C,R15*%
X128232020Y-102146100D03*
X126581020Y-102146100D03*
%TD*%
D15*
%TO.C,C65*%
X98819790Y-128512440D03*
X98819790Y-126861440D03*
%TD*%
D47*
%TO.C,U6*%
X188943020Y-76619100D03*
X189893020Y-76619100D03*
X190843020Y-76619100D03*
X190848020Y-73571100D03*
X189893020Y-73571100D03*
X188943020Y-73571100D03*
%TD*%
D71*
%TO.C,Q3*%
X139510590Y-90323540D03*
X141410590Y-90323540D03*
X140475790Y-87808940D03*
%TD*%
D16*
%TO.C,C25*%
X197955020Y-82207100D03*
X196304020Y-82207100D03*
%TD*%
D55*
%TO.C,DZ1*%
X180937020Y-67094100D03*
X180937020Y-68745100D03*
%TD*%
D15*
%TO.C,C13*%
X142328780Y-122796300D03*
X142328780Y-121145300D03*
%TD*%
D60*
%TO.C,U3*%
X118326020Y-101511100D03*
X118326020Y-102781100D03*
X118326020Y-104051100D03*
X118326020Y-105321100D03*
X124422020Y-105321100D03*
X124422020Y-104051100D03*
X124422020Y-102781100D03*
X124422020Y-101511100D03*
%TD*%
D15*
%TO.C,C30*%
X184620020Y-75349100D03*
X184620020Y-73698100D03*
%TD*%
D35*
%TO.C,Q1*%
X170624620Y-112636300D03*
X170624620Y-110736300D03*
X168110020Y-111671100D03*
%TD*%
D15*
%TO.C,R13*%
X115456790Y-125273940D03*
X115456790Y-123622940D03*
%TD*%
D16*
%TO.C,C8*%
X133185020Y-131610100D03*
X134836020Y-131610100D03*
%TD*%
D15*
%TO.C,C49*%
X161887020Y-104686100D03*
X161887020Y-106337100D03*
%TD*%
%TO.C,C9*%
X142329020Y-114084090D03*
X142329020Y-112433090D03*
%TD*%
D16*
%TO.C,R16*%
X185890020Y-82207100D03*
X187541020Y-82207100D03*
%TD*%
%TO.C,R32*%
X146037180Y-144437100D03*
X147688180Y-144437100D03*
%TD*%
%TO.C,C60*%
X136435980Y-80200500D03*
X134784980Y-80200500D03*
%TD*%
D72*
%TO.C,J4*%
X132804020Y-59982100D03*
X128994020Y-59982100D03*
X125184020Y-59982100D03*
X121374020Y-59982100D03*
X117564020Y-59982100D03*
%TD*%
D16*
%TO.C,C36*%
X99708780Y-135560940D03*
X98057780Y-135560940D03*
%TD*%
D37*
%TO.C,U13*%
X134035990Y-85361300D03*
X134035990Y-86311300D03*
X134035990Y-87261300D03*
X137083990Y-87266300D03*
X137083990Y-85361300D03*
%TD*%
D16*
%TO.C,R33*%
X145021180Y-67094100D03*
X143370180Y-67094100D03*
%TD*%
M02*
