M48
; DRILL file {KiCad 7.0.8} date Mon Jun 17 23:50:43 2024
; FORMAT={-:-/ absolute / inch / decimal}
; #@! TF.CreationDate,2024-06-17T23:50:43+02:00
; #@! TF.GenerationSoftware,Kicad,Pcbnew,7.0.8
; #@! TF.FileFunction,Plated,1,6,PTH
FMAT,2
INCH
; #@! TA.AperFunction,Plated,PTH,ViaDrill
T1C0.0118
; #@! TA.AperFunction,Plated,PTH,ComponentDrill
T2C0.0118
; #@! TA.AperFunction,Plated,PTH,ComponentDrill
T3C0.0197
; #@! TA.AperFunction,Plated,PTH,ComponentDrill
T4C0.0236
; #@! TA.AperFunction,Plated,PTH,ViaDrill
T5C0.0276
; #@! TA.AperFunction,Plated,PTH,ViaDrill
T6C0.0315
; #@! TA.AperFunction,Plated,PTH,ComponentDrill
T7C0.0315
; #@! TA.AperFunction,Plated,PTH,ComponentDrill
T8C0.0394
; #@! TA.AperFunction,Plated,PTH,ComponentDrill
T9C0.0472
; #@! TA.AperFunction,Plated,PTH,ComponentDrill
T10C0.0512
; #@! TA.AperFunction,Plated,PTH,ComponentDrill
T11C0.0551
; #@! TA.AperFunction,Plated,PTH,ComponentDrill
T12C0.1378
; #@! TA.AperFunction,Plated,PTH,ComponentDrill
T13C0.1772
%
G90
G05
T1
X4.9736Y-3.3544
X5.0696Y-3.2964
X5.4266Y-4.9654
T2
X5.5056Y-2.8117
X5.5056Y-2.8467
X5.5056Y-2.8817
X5.5256Y-2.8117
X5.5256Y-2.8467
X5.5256Y-2.8817
X5.5456Y-2.8117
X5.5456Y-2.8467
X5.5456Y-2.8817
T3
X5.5914Y-5.9695
X5.7014Y-5.9695
T5
X3.5845Y-6.0365
X3.5905Y-5.177
X3.5995Y-5.8315
X3.6005Y-5.262
X3.7205Y-5.367
X3.7345Y-2.3715
X3.7405Y-4.467
X3.7955Y-4.517
X3.8455Y-5.387
X3.9195Y-2.6915
X3.9305Y-5.387
X3.9455Y-4.367
X3.9745Y-2.9415
X3.9795Y-2.7415
X3.995Y-3.0505
X4.06Y-3.0505
X4.075Y-2.7005
X4.105Y-2.9955
X4.1105Y-4.407
X4.155Y-3.0505
X4.1855Y-5.4095
X4.22Y-3.0505
X4.2205Y-5.077
X4.2255Y-5.162
X4.2605Y-5.462
X4.2645Y-2.6215
X4.2645Y-2.7265
X4.2755Y-4.537
X4.2795Y-2.9515
X4.2955Y-4.627
X4.2955Y-4.817
X4.3055Y-4.872
X4.3105Y-4.412
X4.3105Y-5.097
X4.3405Y-5.2445
X4.3455Y-4.562
X4.3495Y-2.6065
X4.3505Y-5.397
X4.3555Y-6.0555
X4.3695Y-2.6265
X4.3855Y-4.782
X4.3855Y-4.837
X4.3855Y-5.2595
X4.4155Y-4.572
X4.4155Y-5.022
X4.4455Y-4.707
X4.4905Y-5.252
X4.4905Y-5.382
X4.5105Y-5.102
X4.5355Y-5.352
X4.5455Y-5.267
X4.5555Y-4.822
X4.5955Y-4.407
X4.6055Y-3.757
X4.6055Y-4.777
X4.6055Y-4.832
X4.6155Y-5.102
X4.6305Y-4.462
X4.6355Y-4.322
X4.6705Y-4.362
X4.6835Y-3.3165
X4.6955Y-4.297
X4.7005Y-3.892
X4.7335Y-3.3515
X4.7715Y-3.0025
X4.7755Y-3.947
X4.7755Y-4.207
X4.7835Y-3.3865
X4.7955Y-4.602
X4.7955Y-4.712
X4.8055Y-4.762
X4.8155Y-4.457
X4.8185Y-3.4215
X4.8205Y-4.817
X4.8455Y-4.502
X4.8535Y-4.2815
X4.8685Y-3.4915
X4.8705Y-4.817
X4.9135Y-4.2015
X4.9255Y-4.772
X4.9305Y-4.862
X4.9505Y-3.697
X4.9505Y-5.082
X4.9605Y-4.637
X4.9855Y-4.922
X5.0005Y-3.722
X5.0005Y-4.467
X5.0055Y-4.732
X5.0055Y-5.072
X5.0255Y-5.252
X5.0305Y-3.762
X5.0555Y-4.872
X5.0655Y-5.397
X5.0705Y-5.052
X5.0755Y-4.822
X5.1005Y-3.817
X5.1005Y-4.502
X5.1005Y-4.652
X5.1055Y-4.267
X5.1255Y-3.667
X5.1305Y-4.707
X5.1505Y-3.722
X5.1655Y-5.112
X5.1805Y-4.732
X5.1905Y-4.912
X5.2055Y-4.867
X5.2105Y-4.812
X5.2105Y-5.402
X5.2205Y-4.762
X5.2555Y-4.647
X5.2605Y-4.547
X5.2605Y-4.807
X5.2655Y-3.692
X5.2755Y-5.237
X5.2855Y-3.862
X5.3035Y-3.7365
X5.3205Y-3.817
X5.3245Y-4.1365
X5.3305Y-4.197
X5.337Y-3.3981
X5.3405Y-3.937
X5.3495Y-4.0865
X5.3655Y-5.087
X5.3755Y-5.152
X5.3805Y-3.817
X5.3805Y-5.002
X5.3845Y-4.1965
X5.3955Y-5.047
X5.4105Y-5.352
X5.4195Y-4.4015
X5.4265Y-2.9575
X5.4265Y-3.1275
X5.4305Y-4.562
X5.4555Y-4.877
X5.4595Y-2.6965
X5.4605Y-5.592
X5.4705Y-5.0045
X5.4755Y-3.942
X5.4885Y-4.7395
X5.5295Y-2.7564
X5.5295Y-5.7515
X5.5345Y-2.6965
X5.5355Y-4.317
X5.5365Y-2.9575
X5.5365Y-3.1275
X5.5805Y-4.942
X5.5805Y-5.482
X5.5845Y-5.6965
X5.6045Y-2.7465
X5.6055Y-4.557
X5.6055Y-5.197
X5.6095Y-2.6965
X5.6095Y-4.0965
X5.6205Y-5.437
X5.6255Y-3.627
X5.6415Y-2.9575
X5.6415Y-3.1275
X5.6615Y-2.8925
X5.6845Y-5.1975
X5.6855Y-5.437
X5.6945Y-5.7165
X5.6955Y-4.542
X5.7115Y-2.7575
X5.7305Y-4.377
X5.7455Y-3.217
X5.7595Y-5.7615
X5.7695Y-4.2775
X5.7755Y-4.557
X5.7755Y-5.577
X5.8145Y-5.7715
X5.8195Y-5.0575
X5.8205Y-4.577
X5.9485Y-4.4665
X5.9845Y-4.4225
X6.0435Y-4.7365
X6.1935Y-4.2915
X6.1955Y-4.222
X6.3755Y-4.072
X6.3755Y-4.237
X6.6385Y-4.8665
X6.6385Y-4.9665
X6.7085Y-4.5965
X7.0385Y-4.2915
X7.0435Y-5.0215
X7.0785Y-4.4865
X7.1835Y-3.4965
X7.1835Y-4.2065
X7.2055Y-2.857
X7.2155Y-2.537
X7.2705Y-3.147
X7.2935Y-3.5615
X7.3385Y-3.6865
X7.3855Y-3.022
X7.4285Y-2.5665
X7.4285Y-3.2015
X7.4535Y-3.2865
X7.4755Y-2.762
X7.4885Y-3.4415
X7.5455Y-2.952
X7.57Y-3.2905
X7.6655Y-3.087
X7.8185Y-3.4815
X7.8285Y-3.1515
X7.8435Y-3.2215
X7.8435Y-3.5365
T6
X3.4105Y-3.172
X3.9505Y-5.087
X4.5445Y-3.0665
T7
X6.3095Y-2.5965
T8
X3.5045Y-2.4115
X3.5895Y-2.3115
X3.6035Y-3.4565
X3.6035Y-3.5565
X3.6035Y-3.6565
X3.6035Y-3.7565
X3.6035Y-3.8565
X3.6035Y-3.9565
X3.6035Y-4.0565
X3.6035Y-4.1565
X3.6035Y-4.2565
X3.6035Y-4.3565
X3.7035Y-3.4565
X3.8035Y-3.4565
X3.8255Y-5.202
X3.9035Y-3.4565
X3.9345Y-2.2915
X3.9345Y-2.3914
X4.0035Y-3.4565
X4.0345Y-2.2915
X4.0345Y-2.3914
X4.1035Y-3.4565
X4.2035Y-3.4565
X4.3005Y-5.537
X4.3005Y-5.707
X4.3035Y-3.4565
X4.4035Y-3.4565
X4.4035Y-3.5565
X4.4035Y-3.6565
X4.4035Y-3.7565
X4.4035Y-3.8565
X4.4035Y-3.9565
X4.4035Y-4.0565
X4.4035Y-4.1565
X4.4035Y-4.2565
X4.4035Y-4.3565
X4.4655Y-4.637
X4.5295Y-5.4465
X4.5295Y-5.5465
X4.6285Y-2.5165
X4.6295Y-5.4465
X4.6295Y-5.5465
X4.7295Y-5.4465
X4.7295Y-5.5465
X4.7785Y-2.5165
X4.8255Y-5.277
X4.8295Y-5.4465
X4.8295Y-5.5465
X4.9255Y-5.277
X4.9285Y-2.5165
X4.9295Y-5.4465
X4.9295Y-5.5465
X4.9605Y-4.247
X5.0185Y-3.4665
X5.0335Y-2.8015
X5.0785Y-2.5165
X5.2035Y-3.1415
X5.2285Y-2.5165
X5.26Y-3.5491
X5.4055Y-3.627
X5.8055Y-3.357
X5.8555Y-3.357
X6.0555Y-3.357
X6.1055Y-3.357
X6.3185Y-3.0415
X6.3185Y-3.1415
X6.3205Y-3.282
X6.3235Y-3.7745
X6.3235Y-3.8745
X6.3235Y-3.9745
X6.3245Y-3.4215
X6.3245Y-3.5215
X6.3245Y-3.6315
X6.3755Y-4.372
X6.7935Y-4.2315
X6.8035Y-2.6415
X6.8035Y-2.8365
X7.3435Y-2.2215
X7.3435Y-2.3215
X7.4435Y-2.2215
X7.4435Y-2.3215
X7.5435Y-2.2215
X7.5435Y-2.3215
X7.6435Y-2.2215
X7.6435Y-2.3215
X7.7435Y-2.2215
X7.7435Y-2.3215
T9
X5.9036Y-4.7013
X5.9036Y-4.8391
X5.9036Y-4.9768
X5.9036Y-5.1146
X5.9036Y-5.2524
T10
X5.6955Y-3.847
X5.8955Y-3.847
T11
X5.5395Y-2.3375
X5.7595Y-2.3375
T13
X3.7395Y-2.9015
X5.2245Y-5.8965
X6.0285Y-2.9015
T4
G00X5.4764Y-5.8508
M15
G01X5.4764Y-5.8902
M16
G05
G00X5.4764Y-5.9929
M15
G01X5.4764Y-6.0481
M16
G05
G00X5.8164Y-5.9929
M15
G01X5.8164Y-6.0481
M16
G05
G00X5.8174Y-5.8508
M15
G01X5.8174Y-5.8902
M16
G05
T12
G00X8.0395Y-2.3039
M15
G01X8.0395Y-2.4811
M16
G05
T0
M30
