%TF.GenerationSoftware,KiCad,Pcbnew,7.0.8*%
%TF.CreationDate,2024-06-17T23:50:34+02:00*%
%TF.ProjectId,Stima V4 Master,5374696d-6120-4563-9420-4d6173746572,rev?*%
%TF.SameCoordinates,Original*%
%TF.FileFunction,Profile,NP*%
%FSLAX46Y46*%
G04 Gerber Fmt 4.6, Leading zero omitted, Abs format (unit mm)*
G04 Created by KiCad (PCBNEW 7.0.8) date 2024-06-17 23:50:34*
%MOMM*%
%LPD*%
G01*
G04 APERTURE LIST*
%TA.AperFunction,Profile*%
%ADD10C,0.050000*%
%TD*%
G04 APERTURE END LIST*
D10*
X138490130Y-55186720D02*
X136462130Y-57214720D01*
X166573441Y-129296689D02*
X166573440Y-129296690D01*
X165314560Y-65924480D02*
X166460480Y-65924480D01*
X113990090Y-57214720D02*
X111962090Y-55186720D01*
X88900800Y-119901240D02*
X88913800Y-121831400D01*
X182815400Y-114819480D02*
X211798020Y-114819480D01*
X208723480Y-55156100D02*
G75*
G03*
X208623020Y-55055720I-100480J-100D01*
G01*
X165314560Y-117513100D02*
X165314560Y-65924480D01*
X166586020Y-129297480D02*
X182715020Y-129297480D01*
X164010770Y-55202020D02*
X163927250Y-55157320D01*
X211798020Y-114819500D02*
G75*
G03*
X211898400Y-114719100I-20J100400D01*
G01*
X208723400Y-63325720D02*
X208723400Y-55156100D01*
X111891110Y-55157320D02*
X86491110Y-55157320D01*
X88900800Y-119900330D02*
X88900800Y-119901240D01*
X155054180Y-121677480D02*
X161023180Y-121677480D01*
X85204180Y-117627320D02*
X86627790Y-117627320D01*
X85120660Y-57132420D02*
X85103800Y-57188100D01*
X152614560Y-154851100D02*
X152614560Y-124117100D01*
X182487640Y-63310720D02*
X166586020Y-63310720D01*
X138561110Y-55157320D02*
X138490130Y-55186720D01*
X161123560Y-121577100D02*
X161098400Y-121510630D01*
X155054180Y-121677460D02*
G75*
G03*
X152614560Y-124117100I20J-2439640D01*
G01*
X165297700Y-57132420D02*
X164010770Y-55202020D01*
X161023180Y-121677460D02*
G75*
G03*
X161123560Y-121577100I20J100360D01*
G01*
X211898480Y-63426100D02*
G75*
G03*
X211798020Y-63325720I-100480J-100D01*
G01*
X163538020Y-117613500D02*
G75*
G03*
X161098400Y-120053100I-20J-2439600D01*
G01*
X163538020Y-117613480D02*
X165189020Y-117613480D01*
X86407590Y-55202020D02*
X85120660Y-57132420D01*
X211898390Y-63427110D02*
X211898400Y-63426100D01*
X166460525Y-129197100D02*
G75*
G03*
X166573441Y-129296688I100375J0D01*
G01*
X88913800Y-121831400D02*
X88913800Y-154851100D01*
X88900880Y-119900330D02*
G75*
G03*
X86627790Y-117627320I-2273080J-70D01*
G01*
X166460480Y-65924480D02*
X166460480Y-129197100D01*
X182715020Y-129297500D02*
G75*
G03*
X182815400Y-129197100I-20J100400D01*
G01*
X166586020Y-63310740D02*
G75*
G03*
X166485640Y-63411100I-20J-100360D01*
G01*
X161098400Y-121510630D02*
X161098400Y-120053100D01*
X165201604Y-117612666D02*
G75*
G03*
X165314560Y-117513100I12596J99566D01*
G01*
X88913820Y-154851100D02*
G75*
G03*
X89014180Y-154951480I100380J0D01*
G01*
X211898400Y-114719100D02*
X211898390Y-63427110D01*
X208623020Y-55055720D02*
X182588020Y-55055720D01*
X86491110Y-55157320D02*
X86407590Y-55202020D01*
X182487640Y-55156100D02*
X182487640Y-63310720D01*
X89014180Y-154951480D02*
X152514180Y-154951480D01*
X182815400Y-129197100D02*
X182815400Y-114819480D01*
X211798020Y-63325720D02*
X208723400Y-63325720D01*
X85103880Y-117526940D02*
G75*
G03*
X85204180Y-117627320I100320J-60D01*
G01*
X166485640Y-63411100D02*
X166485640Y-65215720D01*
X136462130Y-57214720D02*
X113990090Y-57214720D01*
X85103800Y-57188100D02*
X85103800Y-117526940D01*
X165314560Y-65215720D02*
X165314560Y-57188100D01*
X163927250Y-55157320D02*
X138561110Y-55157320D01*
X165314560Y-57188100D02*
X165297700Y-57132420D01*
X111962090Y-55186720D02*
X111891110Y-55157320D01*
X165189020Y-117613480D02*
X165201601Y-117612689D01*
X166573440Y-129296690D02*
X166586020Y-129297480D01*
X182588020Y-55055740D02*
G75*
G03*
X182487640Y-55156100I-20J-100360D01*
G01*
X166485640Y-65215720D02*
X165314560Y-65215720D01*
X152514180Y-154951460D02*
G75*
G03*
X152614560Y-154851100I20J100360D01*
G01*
M02*
