%TF.GenerationSoftware,KiCad,Pcbnew,7.0.8*%
%TF.CreationDate,2024-06-17T23:50:34+02:00*%
%TF.ProjectId,Stima V4 Master,5374696d-6120-4563-9420-4d6173746572,rev?*%
%TF.SameCoordinates,Original*%
%TF.FileFunction,Soldermask,Bot*%
%TF.FilePolarity,Negative*%
%FSLAX46Y46*%
G04 Gerber Fmt 4.6, Leading zero omitted, Abs format (unit mm)*
G04 Created by KiCad (PCBNEW 7.0.8) date 2024-06-17 23:50:34*
%MOMM*%
%LPD*%
G01*
G04 APERTURE LIST*
G04 Aperture macros list*
%AMRoundRect*
0 Rectangle with rounded corners*
0 $1 Rounding radius*
0 $2 $3 $4 $5 $6 $7 $8 $9 X,Y pos of 4 corners*
0 Add a 4 corners polygon primitive as box body*
4,1,4,$2,$3,$4,$5,$6,$7,$8,$9,$2,$3,0*
0 Add four circle primitives for the rounded corners*
1,1,$1+$1,$2,$3*
1,1,$1+$1,$4,$5*
1,1,$1+$1,$6,$7*
1,1,$1+$1,$8,$9*
0 Add four rect primitives between the rounded corners*
20,1,$1+$1,$2,$3,$4,$5,0*
20,1,$1+$1,$4,$5,$6,$7,0*
20,1,$1+$1,$6,$7,$8,$9,0*
20,1,$1+$1,$8,$9,$2,$3,0*%
G04 Aperture macros list end*
%ADD10O,4.900000X10.400000*%
%ADD11C,5.900000*%
%ADD12C,2.200000*%
%ADD13RoundRect,0.200000X1.200000X1.200000X-1.200000X1.200000X-1.200000X-1.200000X1.200000X-1.200000X0*%
%ADD14C,2.800000*%
%ADD15C,2.000000*%
%ADD16RoundRect,0.450000X-0.250000X0.750000X-0.250000X-0.750000X0.250000X-0.750000X0.250000X0.750000X0*%
%ADD17RoundRect,0.450000X-0.250000X1.000000X-0.250000X-1.000000X0.250000X-1.000000X0.250000X1.000000X0*%
%ADD18C,1.000000*%
%ADD19C,1.400000*%
%ADD20O,1.250000X1.000000*%
%ADD21RoundRect,0.200000X0.900000X1.300000X-0.900000X1.300000X-0.900000X-1.300000X0.900000X-1.300000X0*%
%ADD22C,1.600000*%
%ADD23C,2.600000*%
%ADD24C,2.900000*%
%ADD25RoundRect,0.200000X1.000000X4.000000X-1.000000X4.000000X-1.000000X-4.000000X1.000000X-4.000000X0*%
G04 APERTURE END LIST*
D10*
%TO.C,A3*%
X204203900Y-60769980D03*
%TD*%
D11*
%TO.C,A4*%
X94983180Y-73698100D03*
%TD*%
%TO.C,A1*%
X153124020Y-73698100D03*
%TD*%
%TO.C,A2*%
X132702180Y-149771100D03*
%TD*%
D12*
%TO.C,GND1*%
X160541790Y-83363940D03*
%TD*%
%TO.C,TP9*%
X109233790Y-144958940D03*
%TD*%
D13*
%TO.C,J5*%
X149950380Y-133411900D03*
D14*
X149950380Y-129911900D03*
X149950380Y-126411900D03*
X149950380Y-122911900D03*
X149950380Y-119411900D03*
%TD*%
D15*
%TO.C,JP3*%
X160617260Y-95872300D03*
X160617260Y-98412300D03*
X160617260Y-100952300D03*
%TD*%
D12*
%TO.C,TP7*%
X125997790Y-107874940D03*
%TD*%
D15*
%TO.C,J7*%
X115049180Y-140881100D03*
X115049180Y-138341100D03*
X117589180Y-140881100D03*
X117589180Y-138341100D03*
X120129180Y-140881100D03*
X120129180Y-138341100D03*
X122669180Y-140881100D03*
X122669180Y-138341100D03*
X125209180Y-140881100D03*
X125209180Y-138341100D03*
%TD*%
D12*
%TO.C,MCO1*%
X113424790Y-117780940D03*
%TD*%
D16*
%TO.C,J6*%
X139101780Y-149110700D03*
D17*
X139101780Y-152920700D03*
D18*
X140397180Y-149821900D03*
D19*
X142021580Y-151625300D03*
X144816780Y-151625300D03*
D20*
X146442380Y-149821900D03*
D17*
X147737780Y-152920700D03*
D16*
X147763180Y-149110700D03*
%TD*%
D18*
%TO.C,U12*%
X139840980Y-71417500D03*
X139840980Y-72306500D03*
X139840980Y-73195500D03*
X140348980Y-71417500D03*
D21*
X140348980Y-72306500D03*
D18*
X140348980Y-73195500D03*
X140856980Y-71417500D03*
X140856980Y-72306500D03*
X140856980Y-73195500D03*
%TD*%
D12*
%TO.C,TP2*%
X137300790Y-92126940D03*
%TD*%
D15*
%TO.C,JP2*%
X102476180Y-60742500D03*
X99936180Y-60742500D03*
%TD*%
D12*
%TO.C,+3V3D1*%
X172809020Y-67094100D03*
%TD*%
%TO.C,TP8*%
X109233790Y-140640940D03*
%TD*%
%TO.C,+3V3SDC1*%
X97168790Y-132131940D03*
%TD*%
%TO.C,TP6*%
X160642180Y-92240100D03*
%TD*%
D22*
%TO.C,J8*%
X160261180Y-65951100D03*
%TD*%
D12*
%TO.C,TP4*%
X91173180Y-58712100D03*
%TD*%
%TO.C,+5V1*%
X132169020Y-79794100D03*
%TD*%
D15*
%TO.C,BATT1*%
X160642180Y-89446100D03*
X160642180Y-86906100D03*
%TD*%
%TO.C,BZ1*%
X155080780Y-85268940D03*
X153810780Y-85268940D03*
X148730780Y-85268940D03*
X147460780Y-85268940D03*
%TD*%
D12*
%TO.C,+12VD1*%
X172809020Y-72047100D03*
%TD*%
%TO.C,TP3*%
X89014180Y-61252100D03*
%TD*%
D15*
%TO.C,JP4*%
X160490020Y-79794100D03*
X160490020Y-77254100D03*
%TD*%
%TO.C,JP1*%
X99936180Y-58204100D03*
X102476180Y-58204100D03*
%TD*%
D23*
%TO.C,C15*%
X149746790Y-97714940D03*
X144666710Y-97715020D03*
%TD*%
D24*
%TO.C,J9*%
X146291900Y-59372980D03*
X140703900Y-59372980D03*
%TD*%
D15*
%TO.C,U8*%
X91529020Y-110655100D03*
X91529020Y-108115100D03*
X91529020Y-105575100D03*
X91529020Y-103035100D03*
X91529020Y-100495100D03*
X91529020Y-97955100D03*
X91529020Y-95415100D03*
X91529020Y-92875100D03*
X91529020Y-90335100D03*
X91529020Y-87795100D03*
X94069020Y-87795100D03*
X96609020Y-87795100D03*
X99149020Y-87795100D03*
X101689020Y-87795100D03*
X104229020Y-87795100D03*
X106769020Y-87795100D03*
X109309020Y-87795100D03*
X111849020Y-87795100D03*
X111849020Y-90335100D03*
X111849020Y-92875100D03*
X111849020Y-95415100D03*
X111849020Y-97955100D03*
X111849020Y-100495100D03*
X111849020Y-103035100D03*
X111849020Y-105575100D03*
X111849020Y-108115100D03*
X111849020Y-110655100D03*
%TD*%
D12*
%TO.C,+3V3*%
X133603950Y-90146710D03*
%TD*%
D15*
%TO.C,BOOT1*%
X125108790Y-134036940D03*
X122568790Y-134036940D03*
%TD*%
D12*
%TO.C,+5VM1*%
X127470020Y-88049100D03*
%TD*%
D15*
%TO.C,J7'1*%
X186525020Y-56426100D03*
X186525020Y-58966100D03*
X189065020Y-56426100D03*
X189065020Y-58966100D03*
X191605020Y-56426100D03*
X191605020Y-58966100D03*
X194145020Y-56426100D03*
X194145020Y-58966100D03*
X196685020Y-56426100D03*
X196685020Y-58966100D03*
%TD*%
D12*
%TO.C,TP5*%
X161938790Y-111049940D03*
%TD*%
%TO.C,TP1*%
X172555020Y-107480100D03*
%TD*%
D15*
%TO.C,J4*%
X132804020Y-63919100D03*
D25*
X132804020Y-59982100D03*
D15*
X128994020Y-63919100D03*
D25*
X128994020Y-59982100D03*
D15*
X125184020Y-63919100D03*
D25*
X125184020Y-59982100D03*
D15*
X121374020Y-63919100D03*
D25*
X121374020Y-59982100D03*
D15*
X117564020Y-63919100D03*
D25*
X117564020Y-59982100D03*
%TD*%
D12*
%TO.C,+12V1*%
X127851020Y-71158100D03*
%TD*%
M02*
