%TF.GenerationSoftware,KiCad,Pcbnew,7.0.8*%
%TF.CreationDate,2024-06-23T22:41:19+02:00*%
%TF.ProjectId,Stima V4 Power,5374696d-6120-4563-9420-506f7765722e,rev?*%
%TF.SameCoordinates,Original*%
%TF.FileFunction,Soldermask,Top*%
%TF.FilePolarity,Negative*%
%FSLAX46Y46*%
G04 Gerber Fmt 4.6, Leading zero omitted, Abs format (unit mm)*
G04 Created by KiCad (PCBNEW 7.0.8) date 2024-06-23 22:41:19*
%MOMM*%
%LPD*%
G01*
G04 APERTURE LIST*
G04 Aperture macros list*
%AMRoundRect*
0 Rectangle with rounded corners*
0 $1 Rounding radius*
0 $2 $3 $4 $5 $6 $7 $8 $9 X,Y pos of 4 corners*
0 Add a 4 corners polygon primitive as box body*
4,1,4,$2,$3,$4,$5,$6,$7,$8,$9,$2,$3,0*
0 Add four circle primitives for the rounded corners*
1,1,$1+$1,$2,$3*
1,1,$1+$1,$4,$5*
1,1,$1+$1,$6,$7*
1,1,$1+$1,$8,$9*
0 Add four rect primitives between the rounded corners*
20,1,$1+$1,$2,$3,$4,$5,0*
20,1,$1+$1,$4,$5,$6,$7,0*
20,1,$1+$1,$6,$7,$8,$9,0*
20,1,$1+$1,$8,$9,$2,$3,0*%
G04 Aperture macros list end*
%ADD10RoundRect,0.200000X-0.300000X-0.500000X0.300000X-0.500000X0.300000X0.500000X-0.300000X0.500000X0*%
%ADD11RoundRect,0.200000X0.300000X0.500000X-0.300000X0.500000X-0.300000X-0.500000X0.300000X-0.500000X0*%
%ADD12C,3.400000*%
%ADD13RoundRect,0.200000X0.800000X1.500000X-0.800000X1.500000X-0.800000X-1.500000X0.800000X-1.500000X0*%
%ADD14RoundRect,0.200000X3.350000X3.350000X-3.350000X3.350000X-3.350000X-3.350000X3.350000X-3.350000X0*%
%ADD15RoundRect,0.200000X0.500000X-0.300000X0.500000X0.300000X-0.500000X0.300000X-0.500000X-0.300000X0*%
%ADD16C,2.000000*%
%ADD17RoundRect,0.200000X-1.050000X-1.500000X1.050000X-1.500000X1.050000X1.500000X-1.050000X1.500000X0*%
%ADD18RoundRect,0.200000X-0.400000X-0.800000X0.400000X-0.800000X0.400000X0.800000X-0.400000X0.800000X0*%
%ADD19RoundRect,0.200000X-0.550000X-0.950000X0.550000X-0.950000X0.550000X0.950000X-0.550000X0.950000X0*%
%ADD20C,1.700000*%
%ADD21RoundRect,0.200000X-0.450000X-0.635000X0.450000X-0.635000X0.450000X0.635000X-0.450000X0.635000X0*%
%ADD22C,1.600000*%
%ADD23RoundRect,0.200000X-0.900000X0.600000X-0.900000X-0.600000X0.900000X-0.600000X0.900000X0.600000X0*%
%ADD24RoundRect,0.200000X-0.500000X0.300000X-0.500000X-0.300000X0.500000X-0.300000X0.500000X0.300000X0*%
%ADD25RoundRect,0.200000X0.450000X0.635000X-0.450000X0.635000X-0.450000X-0.635000X0.450000X-0.635000X0*%
%ADD26RoundRect,0.200000X-1.300000X-1.100000X1.300000X-1.100000X1.300000X1.100000X-1.300000X1.100000X0*%
%ADD27RoundRect,0.200000X-0.800000X-0.500000X0.800000X-0.500000X0.800000X0.500000X-0.800000X0.500000X0*%
%ADD28RoundRect,0.200000X1.100000X-0.800000X1.100000X0.800000X-1.100000X0.800000X-1.100000X-0.800000X0*%
%ADD29RoundRect,0.200000X0.300000X-0.900000X0.300000X0.900000X-0.300000X0.900000X-0.300000X-0.900000X0*%
%ADD30RoundRect,0.200000X-0.825000X-1.900000X0.825000X-1.900000X0.825000X1.900000X-0.825000X1.900000X0*%
%ADD31C,2.600000*%
%ADD32RoundRect,0.200000X-1.500000X0.800000X-1.500000X-0.800000X1.500000X-0.800000X1.500000X0.800000X0*%
%ADD33RoundRect,0.200000X-3.350000X3.350000X-3.350000X-3.350000X3.350000X-3.350000X3.350000X3.350000X0*%
%ADD34RoundRect,0.200000X-1.000000X0.550000X-1.000000X-0.550000X1.000000X-0.550000X1.000000X0.550000X0*%
%ADD35RoundRect,0.200000X1.250000X1.000000X-1.250000X1.000000X-1.250000X-1.000000X1.250000X-1.000000X0*%
%ADD36RoundRect,0.200000X0.400000X0.150000X-0.400000X0.150000X-0.400000X-0.150000X0.400000X-0.150000X0*%
%ADD37C,1.000000*%
%ADD38RoundRect,0.200000X0.900000X1.300000X-0.900000X1.300000X-0.900000X-1.300000X0.900000X-1.300000X0*%
%ADD39RoundRect,0.200000X0.200000X0.400000X-0.200000X0.400000X-0.200000X-0.400000X0.200000X-0.400000X0*%
%ADD40RoundRect,0.200000X3.250000X0.825000X-3.250000X0.825000X-3.250000X-0.825000X3.250000X-0.825000X0*%
%ADD41RoundRect,0.200000X-0.800000X-1.500000X0.800000X-1.500000X0.800000X1.500000X-0.800000X1.500000X0*%
%ADD42RoundRect,0.200000X-3.350000X-3.350000X3.350000X-3.350000X3.350000X3.350000X-3.350000X3.350000X0*%
%ADD43RoundRect,0.200000X-0.800000X0.900000X-0.800000X-0.900000X0.800000X-0.900000X0.800000X0.900000X0*%
%ADD44RoundRect,0.200000X-1.500000X2.000000X-1.500000X-2.000000X1.500000X-2.000000X1.500000X2.000000X0*%
%ADD45RoundRect,0.200000X-1.250000X-1.000000X1.250000X-1.000000X1.250000X1.000000X-1.250000X1.000000X0*%
%ADD46RoundRect,0.200000X0.850000X0.380000X-0.850000X0.380000X-0.850000X-0.380000X0.850000X-0.380000X0*%
%ADD47RoundRect,0.200000X1.145000X1.015000X-1.145000X1.015000X-1.145000X-1.015000X1.145000X-1.015000X0*%
%ADD48RoundRect,0.200000X0.380000X-0.850000X0.380000X0.850000X-0.380000X0.850000X-0.380000X-0.850000X0*%
%ADD49RoundRect,0.200000X1.015000X-1.145000X1.015000X1.145000X-1.015000X1.145000X-1.015000X-1.145000X0*%
%ADD50RoundRect,0.200000X-0.225000X-0.125000X0.225000X-0.125000X0.225000X0.125000X-0.225000X0.125000X0*%
%ADD51RoundRect,0.200000X0.200000X0.150000X-0.200000X0.150000X-0.200000X-0.150000X0.200000X-0.150000X0*%
%ADD52RoundRect,0.200000X-1.000000X-1.250000X1.000000X-1.250000X1.000000X1.250000X-1.000000X1.250000X0*%
%ADD53RoundRect,0.200000X-0.140000X-0.750000X0.140000X-0.750000X0.140000X0.750000X-0.140000X0.750000X0*%
%ADD54RoundRect,0.200000X-0.750000X0.140000X-0.750000X-0.140000X0.750000X-0.140000X0.750000X0.140000X0*%
%ADD55RoundRect,0.200000X0.350000X1.150000X-0.350000X1.150000X-0.350000X-1.150000X0.350000X-1.150000X0*%
%ADD56RoundRect,0.200000X0.850000X0.650000X-0.850000X0.650000X-0.850000X-0.650000X0.850000X-0.650000X0*%
%ADD57RoundRect,0.200000X0.600000X2.000000X-0.600000X2.000000X-0.600000X-2.000000X0.600000X-2.000000X0*%
%ADD58RoundRect,0.200000X0.635000X-0.450000X0.635000X0.450000X-0.635000X0.450000X-0.635000X-0.450000X0*%
%ADD59RoundRect,0.200000X-0.600000X-0.900000X0.600000X-0.900000X0.600000X0.900000X-0.600000X0.900000X0*%
%ADD60RoundRect,0.200000X0.800000X-0.700000X0.800000X0.700000X-0.800000X0.700000X-0.800000X-0.700000X0*%
%ADD61RoundRect,0.200000X0.300000X-0.300000X0.300000X0.300000X-0.300000X0.300000X-0.300000X-0.300000X0*%
%ADD62RoundRect,0.200000X-0.300000X0.800000X-0.300000X-0.800000X0.300000X-0.800000X0.300000X0.800000X0*%
%ADD63RoundRect,0.200000X-0.300000X-0.600000X0.300000X-0.600000X0.300000X0.600000X-0.300000X0.600000X0*%
%ADD64RoundRect,0.200000X-1.700000X-0.550000X1.700000X-0.550000X1.700000X0.550000X-1.700000X0.550000X0*%
%ADD65RoundRect,0.200000X-1.700000X-0.490000X1.700000X-0.490000X1.700000X0.490000X-1.700000X0.490000X0*%
%ADD66RoundRect,0.200000X0.610000X-0.455000X0.610000X0.455000X-0.610000X0.455000X-0.610000X-0.455000X0*%
%ADD67RoundRect,0.200000X0.225000X0.125000X-0.225000X0.125000X-0.225000X-0.125000X0.225000X-0.125000X0*%
%ADD68RoundRect,0.200000X-0.200000X-0.400000X0.200000X-0.400000X0.200000X0.400000X-0.200000X0.400000X0*%
%ADD69RoundRect,0.200000X-0.200000X-0.150000X0.200000X-0.150000X0.200000X0.150000X-0.200000X0.150000X0*%
%ADD70RoundRect,0.200000X0.600000X-0.125000X0.600000X0.125000X-0.600000X0.125000X-0.600000X-0.125000X0*%
%ADD71RoundRect,0.200000X-0.125000X-0.600000X0.125000X-0.600000X0.125000X0.600000X-0.125000X0.600000X0*%
%ADD72RoundRect,0.200000X-1.575000X2.575000X-1.575000X-2.575000X1.575000X-2.575000X1.575000X2.575000X0*%
%ADD73RoundRect,0.200000X1.500000X-2.000000X1.500000X2.000000X-1.500000X2.000000X-1.500000X-2.000000X0*%
%ADD74RoundRect,0.200000X-0.800000X-0.300000X0.800000X-0.300000X0.800000X0.300000X-0.800000X0.300000X0*%
%ADD75RoundRect,0.200000X4.000000X-1.000000X4.000000X1.000000X-4.000000X1.000000X-4.000000X-1.000000X0*%
%ADD76RoundRect,0.200000X-2.500000X1.550000X-2.500000X-1.550000X2.500000X-1.550000X2.500000X1.550000X0*%
%ADD77RoundRect,0.200000X1.300000X-0.600000X1.300000X0.600000X-1.300000X0.600000X-1.300000X-0.600000X0*%
G04 APERTURE END LIST*
D10*
%TO.C,C38*%
X135661415Y-107543600D03*
X137312415Y-107543600D03*
%TD*%
%TO.C,R20*%
X124739415Y-110337600D03*
X126390415Y-110337600D03*
%TD*%
D11*
%TO.C,C12*%
X177952415Y-72237600D03*
X176301415Y-72237600D03*
%TD*%
D12*
%TO.C,J3*%
X115722415Y-89382600D03*
X110642415Y-89382600D03*
X105562415Y-89382600D03*
X100482415Y-89382600D03*
%TD*%
D11*
%TO.C,C41*%
X130962415Y-114909600D03*
X129311415Y-114909600D03*
%TD*%
D13*
%TO.C,Q2*%
X168732215Y-100050600D03*
D14*
X166420815Y-107899200D03*
D13*
X164109415Y-100050600D03*
%TD*%
D15*
%TO.C,C30*%
X148361415Y-91414600D03*
X148361415Y-89763600D03*
%TD*%
%TO.C,R6*%
X196113415Y-87223590D03*
X196113415Y-85572590D03*
%TD*%
D11*
%TO.C,C35*%
X121183415Y-106146600D03*
X119532415Y-106146600D03*
%TD*%
D16*
%TO.C,BATT1*%
X165887415Y-72618600D03*
X163347415Y-72618600D03*
%TD*%
D17*
%TO.C,J1*%
X171956415Y-101701600D03*
X185786415Y-101701600D03*
D18*
X174496415Y-98780600D03*
X175746415Y-98780600D03*
X176996415Y-98780600D03*
X178246415Y-98780600D03*
X179496415Y-98780600D03*
X180746415Y-98780600D03*
X181996415Y-98780600D03*
X183246415Y-98780600D03*
%TD*%
D11*
%TO.C,R27*%
X126390415Y-113893600D03*
X124739415Y-113893600D03*
%TD*%
%TO.C,C3*%
X194589415Y-74242980D03*
X192938415Y-74242980D03*
%TD*%
D19*
%TO.C,X1*%
X181737015Y-71983600D03*
X184937415Y-71983600D03*
%TD*%
D20*
%TO.C,TP8*%
X190779415Y-85572600D03*
%TD*%
D10*
%TO.C,R28*%
X172364415Y-129006600D03*
X174015415Y-129006600D03*
%TD*%
D21*
%TO.C,C39*%
X129057415Y-111480600D03*
X131089415Y-111480600D03*
%TD*%
D22*
%TO.C,J7*%
X172618415Y-125042980D03*
%TD*%
D23*
%TO.C,C48*%
X165506415Y-131419600D03*
X165506415Y-134419600D03*
%TD*%
D11*
%TO.C,C20*%
X190398415Y-119100590D03*
X188747415Y-119100590D03*
%TD*%
D24*
%TO.C,C29*%
X136677415Y-99415600D03*
X136677415Y-101066600D03*
%TD*%
D15*
%TO.C,C55*%
X184048415Y-137007600D03*
X184048415Y-135356600D03*
%TD*%
D12*
%TO.C,J5*%
X100482415Y-120624600D03*
X105562415Y-120624600D03*
X110642415Y-120624600D03*
X115722415Y-120624600D03*
%TD*%
D10*
%TO.C,FIL1*%
X172364415Y-74142600D03*
X174015415Y-74142600D03*
%TD*%
D25*
%TO.C,DL1*%
X174650415Y-127101600D03*
X172491415Y-127101600D03*
%TD*%
D15*
%TO.C,C2*%
X174015415Y-72491600D03*
X174015415Y-70840600D03*
%TD*%
%TO.C,R24*%
X104292415Y-109448590D03*
X104292415Y-107797590D03*
%TD*%
D10*
%TO.C,C25*%
X178333415Y-119073980D03*
X179984415Y-119073980D03*
%TD*%
D26*
%TO.C,C44*%
X145440415Y-114655600D03*
X150433415Y-114655600D03*
%TD*%
D24*
%TO.C,C40*%
X133756415Y-109448600D03*
X133756415Y-111099600D03*
%TD*%
D20*
%TO.C,TP3*%
X189255415Y-83540600D03*
%TD*%
D27*
%TO.C,L1*%
X186461415Y-122402590D03*
X186461415Y-119862590D03*
X181635415Y-119862590D03*
X181635415Y-122402590D03*
%TD*%
D28*
%TO.C,D3*%
X150774415Y-137261600D03*
X150774415Y-132562600D03*
%TD*%
D29*
%TO.C,Q3*%
X143916415Y-99034600D03*
D30*
X144678415Y-101574600D03*
D29*
X145186415Y-99034600D03*
X146456415Y-99034600D03*
D30*
X146964415Y-101574600D03*
D29*
X147726415Y-99034600D03*
X145186415Y-105257600D03*
X147726415Y-105257600D03*
X143916415Y-105257600D03*
X146456415Y-105257600D03*
%TD*%
D31*
%TO.C,C16*%
X152171415Y-72491600D03*
X152171495Y-77571680D03*
%TD*%
D32*
%TO.C,Q1*%
X134137415Y-86765180D03*
D33*
X141986015Y-89076580D03*
D32*
X134137415Y-91387980D03*
%TD*%
D20*
%TO.C,TP4*%
X179222415Y-73761600D03*
%TD*%
D15*
%TO.C,C1*%
X172364415Y-72491600D03*
X172364415Y-70840600D03*
%TD*%
D34*
%TO.C,SW1*%
X104800415Y-95986600D03*
X104800415Y-113766600D03*
X114579415Y-95986600D03*
X114579415Y-98526600D03*
X114579415Y-101066600D03*
X114579415Y-103606600D03*
X114579415Y-106146600D03*
X114579415Y-108686600D03*
X114579415Y-111226600D03*
X114579415Y-113766600D03*
%TD*%
D20*
%TO.C,TP18*%
X141884415Y-135356600D03*
%TD*%
D11*
%TO.C,C23*%
X185572415Y-130911590D03*
X183921415Y-130911590D03*
%TD*%
D35*
%TO.C,DZ3*%
X129311415Y-94589600D03*
X124739415Y-94589600D03*
%TD*%
D20*
%TO.C,TP7*%
X190906415Y-88366600D03*
%TD*%
D16*
%TO.C,JP7*%
X166776415Y-125069600D03*
X169316415Y-125069600D03*
%TD*%
D20*
%TO.C,TP13*%
X158267415Y-116433600D03*
%TD*%
D16*
%TO.C,BOOT1*%
X191922415Y-69316600D03*
X189382415Y-69316600D03*
%TD*%
D20*
%TO.C,TP9*%
X181508415Y-127455980D03*
%TD*%
D36*
%TO.C,U6*%
X168935415Y-131165600D03*
X169189415Y-131165600D03*
X168935415Y-131665600D03*
X169189415Y-131665600D03*
X168935415Y-132165600D03*
X169189415Y-132165600D03*
X168935415Y-132665600D03*
X169189415Y-132665600D03*
X168935415Y-133165600D03*
X169189415Y-133165600D03*
X168935415Y-133665600D03*
X169189415Y-133665600D03*
X172189415Y-133665600D03*
X172443415Y-133665600D03*
X172443415Y-133665600D03*
X172189415Y-133165600D03*
X172443415Y-133165600D03*
X172189415Y-132665600D03*
X172443415Y-132665600D03*
X172189415Y-132165600D03*
X172443415Y-132165600D03*
X172189415Y-131665600D03*
X172443415Y-131665600D03*
X172189415Y-131165600D03*
X172443415Y-131165600D03*
D37*
X170181415Y-131526600D03*
X170181415Y-133304600D03*
D38*
X170689415Y-132415600D03*
D37*
X171197415Y-131526600D03*
X171197415Y-133304600D03*
%TD*%
D10*
%TO.C,C19*%
X178333425Y-122756980D03*
X179984425Y-122756980D03*
%TD*%
D11*
%TO.C,C51*%
X167411415Y-140055600D03*
X165760415Y-140055600D03*
%TD*%
D16*
%TO.C,JP4*%
X184810415Y-113739980D03*
X184810415Y-116279980D03*
%TD*%
D15*
%TO.C,R22*%
X123723415Y-108940600D03*
X123723415Y-107289600D03*
%TD*%
%TO.C,C4*%
X171094415Y-79576980D03*
X171094415Y-77925980D03*
%TD*%
D10*
%TO.C,R21*%
X129311415Y-113258600D03*
X130962415Y-113258600D03*
%TD*%
D11*
%TO.C,R17*%
X121183415Y-102590600D03*
X119532415Y-102590600D03*
%TD*%
D39*
%TO.C,U4*%
X185318415Y-128473190D03*
X185318415Y-128879590D03*
X185968415Y-128473190D03*
X185968415Y-128879590D03*
X186618415Y-128473190D03*
X186618415Y-128879590D03*
X187268415Y-128473190D03*
X187268415Y-128879590D03*
X187918415Y-128473190D03*
X187918415Y-128879590D03*
X188568415Y-128473190D03*
X188568415Y-128879590D03*
X189218415Y-128473190D03*
X189218415Y-128879590D03*
X189218415Y-125066790D03*
X189218415Y-125473190D03*
X188568415Y-125066790D03*
X188568415Y-125473190D03*
X187918415Y-125066790D03*
X187918415Y-125473190D03*
X187268415Y-125066790D03*
X187268415Y-125473190D03*
X186618415Y-125066790D03*
X186618415Y-125473190D03*
X185968415Y-125066790D03*
X185968415Y-125473190D03*
X185318415Y-125066790D03*
X185318415Y-125473190D03*
D40*
X187268415Y-126973190D03*
%TD*%
D10*
%TO.C,R14*%
X123469415Y-98526600D03*
X125120415Y-98526600D03*
%TD*%
D11*
%TO.C,C42*%
X121183415Y-109448600D03*
X119532415Y-109448600D03*
%TD*%
D24*
%TO.C,C37*%
X138582415Y-105130600D03*
X138582415Y-106781600D03*
%TD*%
D41*
%TO.C,Q4*%
X139293615Y-79476600D03*
D42*
X141605015Y-71628000D03*
D41*
X143916415Y-79476600D03*
%TD*%
D20*
%TO.C,+5V1*%
X161696415Y-140182600D03*
%TD*%
D43*
%TO.C,R11*%
X178714415Y-113104980D03*
X178714415Y-116660980D03*
%TD*%
D44*
%TO.C,L2*%
X129692415Y-82830710D03*
X129692415Y-88926710D03*
X123596415Y-82830710D03*
X123596415Y-88926710D03*
%TD*%
D20*
%TO.C,MCO1*%
X173888415Y-89890600D03*
%TD*%
%TO.C,TP1*%
X173761415Y-75793600D03*
%TD*%
%TO.C,GND2*%
X173305815Y-138784000D03*
%TD*%
D45*
%TO.C,DZ4*%
X154457415Y-130149600D03*
X159029415Y-130149600D03*
%TD*%
D46*
%TO.C,R13*%
X137947415Y-96748600D03*
X144551415Y-94208600D03*
D47*
X138252215Y-94843600D03*
X144246615Y-96113600D03*
%TD*%
D10*
%TO.C,R19*%
X119532415Y-107797600D03*
X121183415Y-107797600D03*
%TD*%
D24*
%TO.C,R1*%
X175793415Y-93827600D03*
X175793415Y-95478600D03*
%TD*%
D16*
%TO.C,JP3*%
X182270415Y-113739980D03*
X182270415Y-116279980D03*
%TD*%
D15*
%TO.C,R26*%
X123342415Y-113004600D03*
X123342415Y-111353600D03*
%TD*%
D48*
%TO.C,R18*%
X138963415Y-108686600D03*
X141503415Y-115290600D03*
D49*
X140868415Y-108991400D03*
X139598415Y-114985800D03*
%TD*%
D50*
%TO.C,DZ2*%
X178968415Y-121232980D03*
X178739815Y-121232980D03*
X178968415Y-120572580D03*
X178739815Y-120572580D03*
D39*
X178054015Y-120902780D03*
D51*
X177698415Y-120902780D03*
X177495215Y-120902780D03*
%TD*%
D52*
%TO.C,JP5*%
X129605415Y-118719600D03*
X132105415Y-118719600D03*
X134605415Y-118719600D03*
%TD*%
D12*
%TO.C,J4*%
X119024415Y-129768600D03*
X124104415Y-129768600D03*
X129184415Y-129768600D03*
X134264415Y-129768600D03*
%TD*%
D20*
%TO.C,TP6*%
X132994415Y-93573600D03*
%TD*%
D53*
%TO.C,U1*%
X183765405Y-76083600D03*
X183265415Y-76083600D03*
X182765415Y-76083600D03*
X182265415Y-76083600D03*
X181765415Y-76083600D03*
X181265415Y-76083600D03*
X180765415Y-76083600D03*
X180265415Y-76083600D03*
X179765415Y-76083600D03*
X179265415Y-76083600D03*
X178765415Y-76083600D03*
X178265425Y-76083600D03*
X177765415Y-76083600D03*
X177265415Y-76083600D03*
X176765425Y-76083600D03*
X176265425Y-76083600D03*
D54*
X174015425Y-78333600D03*
X174015425Y-78833600D03*
X174015425Y-79333600D03*
X174015425Y-79833600D03*
X174015425Y-80333600D03*
X174015425Y-80833600D03*
X174015425Y-81333600D03*
X174015425Y-81833600D03*
X174015425Y-82333600D03*
X174015425Y-82833590D03*
X174015425Y-83333590D03*
X174015425Y-83833590D03*
X174015425Y-84333590D03*
X174015425Y-84833590D03*
X174015425Y-85333590D03*
X174015425Y-85833590D03*
D53*
X176265425Y-88083590D03*
X176765425Y-88083590D03*
X177265415Y-88083590D03*
X177765415Y-88083590D03*
X178265425Y-88083590D03*
X178765415Y-88083590D03*
X179265415Y-88083590D03*
X179765415Y-88083590D03*
X180265415Y-88083590D03*
X180765415Y-88083590D03*
X181265415Y-88083590D03*
X181765415Y-88083590D03*
X182265415Y-88083590D03*
X182765415Y-88083590D03*
X183265415Y-88083590D03*
X183765405Y-88083590D03*
D54*
X186015415Y-85833590D03*
X186015415Y-85333590D03*
X186015415Y-84833590D03*
X186015415Y-84333590D03*
X186015415Y-83833590D03*
X186015415Y-83333590D03*
X186015415Y-82833590D03*
X186015415Y-82333600D03*
X186015415Y-81833600D03*
X186015415Y-81333600D03*
X186015415Y-80833600D03*
X186015415Y-80333600D03*
X186015415Y-79833600D03*
X186015415Y-79333600D03*
X186015415Y-78833600D03*
X186015415Y-78333600D03*
%TD*%
D11*
%TO.C,R7*%
X193446415Y-72618600D03*
X191795415Y-72618600D03*
%TD*%
D24*
%TO.C,R16*%
X121691415Y-94208600D03*
X121691415Y-95859600D03*
%TD*%
D10*
%TO.C,R31*%
X119532415Y-113258600D03*
X121183415Y-113258600D03*
%TD*%
D55*
%TO.C,L5*%
X154457415Y-138785600D03*
X154457415Y-137642600D03*
D56*
X154965415Y-137134600D03*
X154965415Y-134848600D03*
D55*
X154457415Y-134340600D03*
X154457415Y-133197600D03*
D56*
X158013415Y-134848600D03*
D55*
X158521415Y-134340600D03*
X158521415Y-133197600D03*
X158521415Y-138785600D03*
X158521415Y-137642600D03*
D56*
X158013415Y-137134600D03*
%TD*%
D57*
%TO.C,C28*%
X157759415Y-93192600D03*
X157759415Y-86842600D03*
%TD*%
D58*
%TO.C,C52*%
X175412415Y-134213600D03*
X175412415Y-132181600D03*
%TD*%
D11*
%TO.C,C50*%
X167411415Y-138277600D03*
X165760415Y-138277600D03*
%TD*%
D10*
%TO.C,R9*%
X159283415Y-76936600D03*
X160934415Y-76936600D03*
%TD*%
D23*
%TO.C,R30*%
X133629415Y-77873600D03*
X133629415Y-80873600D03*
%TD*%
D11*
%TO.C,C6*%
X186080415Y-91033600D03*
X184429415Y-91033600D03*
%TD*%
D15*
%TO.C,C43*%
X143027415Y-114655600D03*
X143027415Y-113004600D03*
%TD*%
D20*
%TO.C,GND1*%
X169189415Y-121105980D03*
%TD*%
D24*
%TO.C,R4*%
X194462415Y-85572600D03*
X194462415Y-87223600D03*
%TD*%
D11*
%TO.C,C54*%
X181635415Y-139039590D03*
X179984415Y-139039590D03*
%TD*%
D59*
%TO.C,F2*%
X148917415Y-139801600D03*
X151917415Y-139801600D03*
%TD*%
D60*
%TO.C,D2*%
X140106415Y-103987600D03*
X140106415Y-100431600D03*
%TD*%
D15*
%TO.C,C31*%
X150139415Y-91414600D03*
X150139415Y-89763600D03*
%TD*%
D20*
%TO.C,TP14*%
X135407415Y-114147600D03*
%TD*%
D10*
%TO.C,R23*%
X124739415Y-115544600D03*
X126390415Y-115544600D03*
%TD*%
D15*
%TO.C,C11*%
X190144415Y-78587590D03*
X190144415Y-76936590D03*
%TD*%
D24*
%TO.C,R5*%
X192811415Y-85572600D03*
X192811415Y-87223600D03*
%TD*%
D61*
%TO.C,DZ5*%
X185699415Y-137007600D03*
X185699415Y-135356600D03*
%TD*%
D20*
%TO.C,TP5*%
X190398415Y-91768980D03*
%TD*%
D11*
%TO.C,R2*%
X183286415Y-95986600D03*
X181635415Y-95986600D03*
%TD*%
D62*
%TO.C,U2*%
X195605415Y-76555600D03*
X194335415Y-76555600D03*
X193065415Y-76555600D03*
X191795415Y-76555600D03*
X191795415Y-82651600D03*
X193065415Y-82651600D03*
X194335415Y-82651600D03*
X195605415Y-82651600D03*
%TD*%
D24*
%TO.C,C46*%
X162966415Y-130403600D03*
X162966415Y-132054600D03*
%TD*%
D11*
%TO.C,C27*%
X125120415Y-97002600D03*
X123469415Y-97002600D03*
%TD*%
D10*
%TO.C,R15*%
X119532415Y-104495600D03*
X121183415Y-104495600D03*
%TD*%
%TO.C,C22*%
X187985415Y-130911600D03*
X189636415Y-130911600D03*
%TD*%
D11*
%TO.C,R8*%
X177952415Y-70586600D03*
X176301415Y-70586600D03*
%TD*%
D63*
%TO.C,U7*%
X179984415Y-137007590D03*
X180934415Y-137007590D03*
X181884415Y-137007590D03*
X181889415Y-133959590D03*
X179984415Y-133959590D03*
%TD*%
D64*
%TO.C,L6*%
X161442415Y-133578600D03*
D65*
X161442415Y-134594600D03*
X161442415Y-137134600D03*
D64*
X161442415Y-138150600D03*
%TD*%
D66*
%TO.C,DZ6*%
X136169415Y-80984600D03*
X136169415Y-77714600D03*
%TD*%
D11*
%TO.C,C45*%
X121183415Y-111099600D03*
X119532415Y-111099600D03*
%TD*%
D20*
%TO.C,TP17*%
X164490415Y-115417600D03*
%TD*%
D24*
%TO.C,C34*%
X135153415Y-99415600D03*
X135153415Y-101066600D03*
%TD*%
D10*
%TO.C,C15*%
X188620415Y-72618600D03*
X190271415Y-72618600D03*
%TD*%
D11*
%TO.C,C18*%
X190398415Y-122529590D03*
X188747415Y-122529590D03*
%TD*%
D67*
%TO.C,DZ1*%
X188747415Y-120497590D03*
X188976015Y-120497590D03*
X188747415Y-121157990D03*
X188976015Y-121157990D03*
D68*
X189661815Y-120827790D03*
D69*
X190017415Y-120827790D03*
X190220615Y-120827790D03*
%TD*%
D11*
%TO.C,C49*%
X167411415Y-136499600D03*
X165760415Y-136499600D03*
%TD*%
%TO.C,R10*%
X163347415Y-69062600D03*
X161696415Y-69062600D03*
%TD*%
D20*
%TO.C,TP10*%
X181508415Y-131011980D03*
%TD*%
D24*
%TO.C,C8*%
X169443415Y-77925980D03*
X169443415Y-79576980D03*
%TD*%
%TO.C,C9*%
X169062415Y-85826600D03*
X169062415Y-87477600D03*
%TD*%
D70*
%TO.C,U5*%
X127406415Y-102463600D03*
X127406415Y-102963600D03*
X127406415Y-103463600D03*
X127406415Y-103963600D03*
X127406415Y-104463600D03*
X127406415Y-104963600D03*
X127406415Y-105463600D03*
X127406415Y-105963600D03*
X127406415Y-106463600D03*
X127406415Y-106963600D03*
X127406415Y-107463600D03*
X127406415Y-107963600D03*
D71*
X128560415Y-108867590D03*
X129060415Y-108867590D03*
X129560415Y-108867590D03*
X130060415Y-108867590D03*
X130560415Y-108867590D03*
X131060415Y-108867590D03*
X131560415Y-108867590D03*
D70*
X132714415Y-107963590D03*
X132714415Y-107463590D03*
X132714415Y-106963590D03*
X132714415Y-106463590D03*
X132714415Y-105963580D03*
X132714405Y-105463590D03*
X132714405Y-104963590D03*
X132714415Y-104463590D03*
X132714415Y-103963590D03*
X132714415Y-103463590D03*
X132714415Y-102963590D03*
X132714415Y-102463590D03*
D71*
X131560415Y-101559600D03*
X131060415Y-101559600D03*
X130560405Y-101559600D03*
X130060415Y-101559600D03*
X129560415Y-101559600D03*
X129060415Y-101559600D03*
X128560415Y-101559600D03*
D72*
X130060415Y-105264390D03*
%TD*%
D15*
%TO.C,C13*%
X184937415Y-69824600D03*
X184937415Y-68173600D03*
%TD*%
D11*
%TO.C,R3*%
X183286415Y-94335600D03*
X181635415Y-94335600D03*
%TD*%
D73*
%TO.C,L4*%
X140106415Y-129641600D03*
X140106415Y-127863600D03*
X140106415Y-121767600D03*
X140106415Y-119989600D03*
X146202415Y-129641600D03*
X146202415Y-127863600D03*
X146202415Y-121767600D03*
X146202415Y-119989600D03*
%TD*%
D74*
%TO.C,U3*%
X159791415Y-79603600D03*
X159791415Y-80873600D03*
X159791415Y-82143600D03*
X159791415Y-83413600D03*
X165887415Y-83413600D03*
X165887415Y-82143600D03*
X165887415Y-80873600D03*
X165887415Y-79603600D03*
%TD*%
D11*
%TO.C,C53*%
X181635415Y-140690590D03*
X179984415Y-140690590D03*
%TD*%
D20*
%TO.C,+3V3*%
X187985415Y-137388600D03*
%TD*%
D15*
%TO.C,C36*%
X135280415Y-104241600D03*
X135280415Y-102590600D03*
%TD*%
D16*
%TO.C,J2*%
X189382415Y-112623600D03*
D75*
X193319415Y-112623600D03*
D16*
X189382415Y-108813600D03*
D75*
X193319415Y-108813600D03*
D16*
X189382415Y-105003600D03*
D75*
X193319415Y-105003600D03*
X193319415Y-101193600D03*
D16*
X189382415Y-101193590D03*
X189382415Y-97383600D03*
D75*
X193319415Y-97383600D03*
%TD*%
D11*
%TO.C,C26*%
X129311415Y-97129600D03*
X127660415Y-97129600D03*
%TD*%
%TO.C,C17*%
X165887415Y-76936600D03*
X164236415Y-76936600D03*
%TD*%
D25*
%TO.C,R29*%
X170078415Y-127609600D03*
X168046415Y-127609600D03*
%TD*%
D10*
%TO.C,C10*%
X184429415Y-92684600D03*
X186080415Y-92684600D03*
%TD*%
D76*
%TO.C,L3*%
X155600415Y-98018600D03*
X155600415Y-99288600D03*
X155600415Y-110464600D03*
X155600415Y-111734600D03*
%TD*%
D15*
%TO.C,C21*%
X174142415Y-117295980D03*
X174142415Y-115644980D03*
%TD*%
D77*
%TO.C,F1*%
X135534415Y-73253600D03*
X135534415Y-70053600D03*
%TD*%
D24*
%TO.C,R25*%
X104292415Y-110591600D03*
X104292415Y-112242600D03*
%TD*%
%TO.C,C7*%
X188493415Y-76936600D03*
X188493415Y-78587600D03*
%TD*%
D10*
%TO.C,C33*%
X132105415Y-99542600D03*
X133756415Y-99542600D03*
%TD*%
D11*
%TO.C,C47*%
X161950415Y-127863600D03*
X160299415Y-127863600D03*
%TD*%
D15*
%TO.C,C24*%
X191795415Y-128625590D03*
X191795415Y-126974590D03*
%TD*%
D20*
%TO.C,TP2*%
X171856415Y-90398600D03*
%TD*%
D15*
%TO.C,C5*%
X170713415Y-87477600D03*
X170713415Y-85826600D03*
%TD*%
%TO.C,C32*%
X151917415Y-91414600D03*
X151917415Y-89763600D03*
%TD*%
D20*
%TO.C,+12V1*%
X161315415Y-125196600D03*
%TD*%
D43*
%TO.C,R12*%
X176428415Y-113104980D03*
X176428415Y-116660980D03*
%TD*%
D20*
%TO.C,TP11*%
X119659415Y-79222600D03*
%TD*%
D15*
%TO.C,C14*%
X181762415Y-69824600D03*
X181762415Y-68173600D03*
%TD*%
M02*
