M48
; DRILL file {KiCad 7.0.8} date Sun Jun 23 22:41:23 2024
; FORMAT={-:-/ absolute / inch / decimal}
; #@! TF.CreationDate,2024-06-23T22:41:23+02:00
; #@! TF.GenerationSoftware,Kicad,Pcbnew,7.0.8
; #@! TF.FileFunction,Plated,1,4,PTH
FMAT,2
INCH
; #@! TA.AperFunction,Plated,PTH,ComponentDrill
T1C0.0118
; #@! TA.AperFunction,Plated,PTH,ViaDrill
T2C0.0197
; #@! TA.AperFunction,Plated,PTH,ViaDrill
T3C0.0276
; #@! TA.AperFunction,Plated,PTH,ComponentDrill
T4C0.0315
; #@! TA.AperFunction,Plated,PTH,ComponentDrill
T5C0.0354
; #@! TA.AperFunction,Plated,PTH,ViaDrill
T6C0.0394
; #@! TA.AperFunction,Plated,PTH,ComponentDrill
T7C0.0394
; #@! TA.AperFunction,Plated,PTH,ComponentDrill
T8C0.0512
; #@! TA.AperFunction,Plated,PTH,ComponentDrill
T9C0.0591
%
G90
G05
T1
X6.7001Y-5.1782
X6.7001Y-5.2482
X6.7201Y-5.2132
X6.7401Y-5.1782
X6.7401Y-5.2482
T2
X5.086Y-4.069
X5.086Y-4.219
X5.121Y-4.144
X5.156Y-4.069
X5.156Y-4.219
X6.686Y-3.234
T3
X4.036Y-4.359
X4.141Y-4.174
X4.586Y-4.279
X4.636Y-4.214
X4.651Y-4.059
X4.746Y-3.873
X4.821Y-4.029
X4.831Y-4.124
X4.831Y-4.329
X4.856Y-4.078
X4.911Y-4.069
X4.951Y-4.284
X5.021Y-4.449
X5.081Y-3.624
X5.111Y-3.879
X5.216Y-4.434
X5.266Y-3.989
X5.296Y-4.254
X5.336Y-4.334
X5.376Y-4.284
X5.381Y-4.024
X5.446Y-3.964
X5.451Y-4.089
X5.471Y-4.024
X5.596Y-3.879
X5.666Y-4.409
X5.801Y-3.734
X5.826Y-2.674
X5.871Y-4.154
X5.911Y-3.694
X6.116Y-4.689
X6.261Y-3.929
X6.311Y-3.339
X6.321Y-4.479
X6.361Y-3.819
X6.411Y-2.999
X6.436Y-3.154
X6.436Y-3.304
X6.461Y-3.819
X6.476Y-5.374
X6.571Y-3.079
X6.596Y-3.379
X6.626Y-2.963
X6.631Y-3.029
X6.641Y-3.844
X6.701Y-3.014
X6.721Y-5.119
X6.721Y-5.323
X6.821Y-2.739
X6.846Y-5.304
X6.866Y-3.644
X6.906Y-2.939
X6.921Y-3.604
X6.936Y-5.158
X6.956Y-5.374
X6.981Y-3.599
X7.016Y-3.699
X7.041Y-3.599
X7.091Y-2.789
X7.091Y-4.773
X7.096Y-3.259
X7.106Y-3.664
X7.116Y-4.913
X7.1167Y-2.9237
X7.211Y-5.213
X7.216Y-2.684
X7.271Y-3.704
X7.296Y-2.919
X7.331Y-3.429
X7.331Y-5.274
X7.351Y-5.214
X7.366Y-4.874
X7.386Y-4.643
X7.431Y-5.519
X7.436Y-3.474
X7.441Y-3.224
X7.456Y-2.984
X7.466Y-3.164
X7.481Y-5.229
X7.516Y-4.894
X7.521Y-2.914
X7.551Y-5.199
X7.566Y-3.144
X7.621Y-5.119
X7.651Y-3.569
X7.661Y-4.693
X7.701Y-3.094
T4
X6.796Y-4.923
T5
X4.711Y-3.119
X5.236Y-3.684
X5.331Y-4.494
X5.586Y-5.329
X6.231Y-4.584
X6.351Y-4.929
X6.366Y-5.519
X6.476Y-4.544
X6.661Y-4.768
X6.766Y-3.559
X6.8231Y-5.4639
X6.841Y-2.984
X6.846Y-3.539
X7.056Y-2.904
X7.146Y-5.018
X7.146Y-5.158
X7.401Y-5.409
X7.451Y-3.289
X7.496Y-3.613
X7.511Y-3.369
X7.516Y-3.479
T6
X4.631Y-3.803
X4.686Y-3.803
X4.946Y-4.634
X4.946Y-4.689
X5.171Y-4.789
X5.236Y-4.789
X5.291Y-2.959
X5.361Y-2.959
X5.5352Y-5.2992
X5.536Y-5.359
X5.601Y-4.174
X5.766Y-4.234
X5.861Y-4.624
X5.871Y-3.849
X5.916Y-4.624
X5.936Y-5.149
X5.971Y-4.624
X6.026Y-3.339
X6.026Y-3.399
X6.071Y-3.369
X6.246Y-5.029
X6.411Y-3.724
X6.5385Y-3.4415
X6.781Y-4.194
X6.781Y-4.254
X6.866Y-3.979
X7.131Y-3.978
X7.291Y-3.813
T7
X6.431Y-2.859
X6.531Y-2.859
X6.566Y-4.924
X6.666Y-4.924
X7.176Y-4.478
X7.176Y-4.578
X7.276Y-4.478
X7.276Y-4.578
X7.456Y-2.729
X7.456Y-3.834
X7.456Y-3.984
X7.456Y-4.134
X7.456Y-4.284
X7.456Y-4.434
X7.556Y-2.729
T8
X5.991Y-2.854
X5.991Y-3.054
T9
X3.956Y-3.519
X3.956Y-4.749
X4.156Y-3.519
X4.156Y-4.749
X4.356Y-3.519
X4.356Y-4.749
X4.556Y-3.519
X4.556Y-4.749
X4.686Y-5.109
X4.886Y-5.109
X5.086Y-5.109
X5.286Y-5.109
T0
M30
