%TF.GenerationSoftware,KiCad,Pcbnew,7.0.8*%
%TF.CreationDate,2024-06-23T22:41:19+02:00*%
%TF.ProjectId,Stima V4 Power,5374696d-6120-4563-9420-506f7765722e,rev?*%
%TF.SameCoordinates,Original*%
%TF.FileFunction,Profile,NP*%
%FSLAX46Y46*%
G04 Gerber Fmt 4.6, Leading zero omitted, Abs format (unit mm)*
G04 Created by KiCad (PCBNEW 7.0.8) date 2024-06-23 22:41:19*
%MOMM*%
%LPD*%
G01*
G04 APERTURE LIST*
%TA.AperFunction,Profile*%
%ADD10C,0.050000*%
%TD*%
G04 APERTURE END LIST*
D10*
X198398195Y-66285540D02*
X198398195Y-91389200D01*
X113209035Y-84429600D02*
X113209035Y-77315730D01*
X198368795Y-91460180D02*
X196366195Y-93462780D01*
X131901235Y-74775740D02*
X131901235Y-68806740D01*
X135942825Y-144996020D02*
X135942035Y-144983440D01*
X132000939Y-68706362D02*
X132000945Y-68706360D01*
X129461615Y-77215335D02*
G75*
G03*
X131901235Y-74775737I-15J2439635D01*
G01*
X132000945Y-68706360D02*
X133654275Y-68695220D01*
X196367415Y-145108980D02*
X136042415Y-145108980D01*
X135942080Y-143332439D02*
G75*
G03*
X133502414Y-140892820I-2439680J-61D01*
G01*
X133502414Y-140892820D02*
X133502415Y-140892820D01*
X198368795Y-118293020D02*
X198398195Y-118364000D01*
X133655185Y-68695295D02*
G75*
G03*
X135928195Y-66422210I-85J2273095D01*
G01*
X131901235Y-74775737D02*
X131901235Y-74775740D01*
X110769415Y-123137980D02*
X98704385Y-123137980D01*
X113309415Y-77215350D02*
X129461615Y-77215350D01*
X98717495Y-86869220D02*
X110769415Y-86869220D01*
X131878035Y-140817600D02*
X131878035Y-134848598D01*
X131878010Y-140817601D02*
G75*
G03*
X132044884Y-140892820I100390J1D01*
G01*
X131878035Y-140817601D02*
X131878035Y-140817600D01*
X198398195Y-91389200D02*
X198368795Y-91460180D01*
X196367415Y-64898220D02*
X196423095Y-64915080D01*
X98603920Y-123037600D02*
G75*
G03*
X98704385Y-123137980I100480J100D01*
G01*
X135942826Y-144996021D02*
X135942825Y-144996020D01*
X113309415Y-77215335D02*
G75*
G03*
X113209035Y-77315730I-15J-100365D01*
G01*
X196423095Y-64915080D02*
X198353495Y-66202010D01*
X196423465Y-145091880D02*
X196367415Y-145108980D01*
X113209020Y-132308600D02*
G75*
G03*
X113309415Y-132408980I100380J0D01*
G01*
X135928195Y-66422210D02*
X135928195Y-64998600D01*
X98604005Y-123037600D02*
X98604035Y-86982680D01*
X198398195Y-143721670D02*
X198353495Y-143805190D01*
X132000939Y-68706437D02*
G75*
G03*
X131901235Y-68806740I561J-100263D01*
G01*
X198398195Y-118364000D02*
X198398195Y-143721670D01*
X133654275Y-68695220D02*
X133655185Y-68695220D01*
X198353495Y-66202010D02*
X198398195Y-66285540D01*
X196366195Y-93462780D02*
X196366195Y-116290420D01*
X196366195Y-116290420D02*
X198368795Y-118293020D01*
X113209035Y-132308600D02*
X113209035Y-125577600D01*
X98604035Y-86982680D02*
X98717495Y-86869220D01*
X136028575Y-64898220D02*
X196367415Y-64898220D01*
X133502415Y-140892820D02*
X132044884Y-140892820D01*
X110769415Y-86869235D02*
G75*
G03*
X113209035Y-84429600I-15J2439635D01*
G01*
X129441945Y-132408980D02*
X113309415Y-132408980D01*
X136028575Y-64898295D02*
G75*
G03*
X135928195Y-64998600I-75J-100305D01*
G01*
X198353495Y-143805190D02*
X196423465Y-145091880D01*
X135942035Y-144983440D02*
X135942035Y-143332439D01*
X113209020Y-125577600D02*
G75*
G03*
X110769415Y-123137980I-2439620J0D01*
G01*
X135942812Y-144996019D02*
G75*
G03*
X136042415Y-145108980I99588J-12581D01*
G01*
X131878019Y-134848598D02*
G75*
G03*
X129441949Y-132408984I-2439619J-2D01*
G01*
M02*
