G04 #@! TF.FileFunction,Soldermask,Bot*
%FSLAX46Y46*%
G04 Gerber Fmt 4.6, Leading zero omitted, Abs format (unit mm)*
G04 Created by KiCad (PCBNEW 4.0.6) date 12/07/19 10:47:10*
%MOMM*%
%LPD*%
G01*
G04 APERTURE LIST*
%ADD10C,0.100000*%
%ADD11R,1.370000X1.670000*%
%ADD12C,2.500000*%
%ADD13R,2.100000X2.100000*%
%ADD14C,2.100000*%
%ADD15R,1.670000X1.370000*%
%ADD16R,2.400000X4.200000*%
%ADD17R,2.400000X1.900000*%
%ADD18R,1.200000X1.300000*%
%ADD19R,1.700000X1.100000*%
G04 APERTURE END LIST*
D10*
D11*
X146341000Y-72025000D03*
X147611000Y-72025000D03*
X148881000Y-72025000D03*
X147611000Y-70475000D03*
D12*
X161581000Y-67845000D03*
X161581000Y-70385000D03*
X161581000Y-72925000D03*
X161581000Y-75465000D03*
X161581000Y-78005000D03*
X161581000Y-80545000D03*
X161581000Y-83085000D03*
X161581000Y-85625000D03*
X161581000Y-88165000D03*
X161581000Y-65305000D03*
X159041000Y-65305000D03*
X156501000Y-65305000D03*
X153961000Y-65305000D03*
X151421000Y-65305000D03*
X148881000Y-65305000D03*
X146341000Y-65305000D03*
X143801000Y-65305000D03*
X141261000Y-65305000D03*
X141261000Y-67845000D03*
X141261000Y-70385000D03*
X141261000Y-72925000D03*
X141261000Y-75465000D03*
X141261000Y-78005000D03*
X141261000Y-80545000D03*
X141261000Y-83085000D03*
X141261000Y-85625000D03*
X141261000Y-88165000D03*
D13*
X147711000Y-77025000D03*
D14*
X150251000Y-77025000D03*
X152791000Y-77025000D03*
X155331000Y-77025000D03*
D11*
X155356000Y-73775000D03*
X154086000Y-73775000D03*
X152816000Y-73775000D03*
X155241000Y-70375000D03*
X156511000Y-70375000D03*
X157781000Y-70375000D03*
X156511000Y-68825000D03*
D15*
X144761000Y-77245000D03*
X144761000Y-75975000D03*
X144761000Y-74705000D03*
D16*
X157111000Y-83425000D03*
D17*
X150811000Y-83425000D03*
X150811000Y-81125000D03*
X150811000Y-85725000D03*
D18*
X145486000Y-84675000D03*
X147386000Y-84675000D03*
X146436000Y-86675000D03*
D19*
X147736000Y-80400000D03*
X147736000Y-82300000D03*
X145086000Y-82300000D03*
X145086000Y-80400000D03*
D12*
X145061000Y-67875000D03*
X147601000Y-67875000D03*
X150141000Y-67875000D03*
M02*
