G04 #@! TF.FileFunction,Copper,L1,Top,Signal*
%FSLAX46Y46*%
G04 Gerber Fmt 4.6, Leading zero omitted, Abs format (unit mm)*
G04 Created by KiCad (PCBNEW 4.0.6) date 12/07/19 10:46:41*
%MOMM*%
%LPD*%
G01*
G04 APERTURE LIST*
%ADD10C,0.100000*%
%ADD11C,2.100000*%
%ADD12R,1.700000X1.700000*%
%ADD13C,1.700000*%
%ADD14R,1.270000X0.970000*%
%ADD15C,1.200000*%
%ADD16C,1.000000*%
%ADD17C,0.500000*%
%ADD18C,0.254000*%
G04 APERTURE END LIST*
D10*
D11*
X161581000Y-67845000D03*
X161581000Y-70385000D03*
X161581000Y-72925000D03*
X161581000Y-75465000D03*
X161581000Y-78005000D03*
X161581000Y-80545000D03*
X161581000Y-83085000D03*
X161581000Y-85625000D03*
X161581000Y-88165000D03*
X161581000Y-65305000D03*
X159041000Y-65305000D03*
X156501000Y-65305000D03*
X153961000Y-65305000D03*
X151421000Y-65305000D03*
X148881000Y-65305000D03*
X146341000Y-65305000D03*
X143801000Y-65305000D03*
X141261000Y-65305000D03*
X141261000Y-67845000D03*
X141261000Y-70385000D03*
X141261000Y-72925000D03*
X141261000Y-75465000D03*
X141261000Y-78005000D03*
X141261000Y-80545000D03*
X141261000Y-83085000D03*
X141261000Y-85625000D03*
X141261000Y-88165000D03*
D12*
X147711000Y-77025000D03*
D13*
X150251000Y-77025000D03*
X152791000Y-77025000D03*
X155331000Y-77025000D03*
D11*
X145061000Y-67875000D03*
X147601000Y-67875000D03*
X150141000Y-67875000D03*
D14*
X154886000Y-72070000D03*
X154886000Y-70800000D03*
X154886000Y-69530000D03*
X156436000Y-70800000D03*
D15*
X156986000Y-75075000D03*
X151511000Y-75075000D03*
D16*
X147186000Y-79175000D03*
D17*
X154386000Y-80750000D02*
X153261000Y-80750000D01*
X153261000Y-80750000D02*
X153211000Y-80800000D01*
X161581000Y-88165000D02*
X159751000Y-88165000D01*
X156436000Y-71825000D02*
X156436000Y-70800000D01*
X158236000Y-73625000D02*
X156436000Y-71825000D01*
X158236000Y-86650000D02*
X158236000Y-73625000D01*
X159751000Y-88165000D02*
X158236000Y-86650000D01*
X154886000Y-69530000D02*
X157756000Y-69530000D01*
X160411000Y-85625000D02*
X161581000Y-85625000D01*
X159361000Y-84575000D02*
X160411000Y-85625000D01*
X159361000Y-71135000D02*
X159361000Y-84575000D01*
X157756000Y-69530000D02*
X159361000Y-71135000D01*
X161569400Y-80543400D02*
X161163000Y-80543400D01*
X151511000Y-75075000D02*
X156986000Y-75075000D01*
X154886000Y-70800000D02*
X148161000Y-70800000D01*
X145961000Y-77950000D02*
X147186000Y-79175000D01*
X145961000Y-73000000D02*
X145961000Y-77950000D01*
X148161000Y-70800000D02*
X145961000Y-73000000D01*
X154886000Y-72070000D02*
X152041000Y-72070000D01*
X150251000Y-73860000D02*
X150251000Y-77025000D01*
X152041000Y-72070000D02*
X150251000Y-73860000D01*
D18*
G36*
X162783384Y-63551815D02*
X163166557Y-63807844D01*
X163422585Y-64191015D01*
X163526400Y-64712931D01*
X163526400Y-88703069D01*
X163422585Y-89224985D01*
X163166557Y-89608156D01*
X162783384Y-89864185D01*
X162261469Y-89968000D01*
X140684331Y-89968000D01*
X140162415Y-89864185D01*
X139779244Y-89608157D01*
X139609223Y-89353703D01*
X140251902Y-89353703D01*
X140356687Y-89625745D01*
X140984526Y-89860619D01*
X141654456Y-89837349D01*
X142165313Y-89625745D01*
X142270098Y-89353703D01*
X141261000Y-88344605D01*
X140251902Y-89353703D01*
X139609223Y-89353703D01*
X139523215Y-89224984D01*
X139419400Y-88703069D01*
X139419400Y-87888526D01*
X139565381Y-87888526D01*
X139588651Y-88558456D01*
X139800255Y-89069313D01*
X140072297Y-89174098D01*
X141081395Y-88165000D01*
X141440605Y-88165000D01*
X142449703Y-89174098D01*
X142721745Y-89069313D01*
X142956619Y-88441474D01*
X142933349Y-87771544D01*
X142721745Y-87260687D01*
X142449703Y-87155902D01*
X141440605Y-88165000D01*
X141081395Y-88165000D01*
X140072297Y-87155902D01*
X139800255Y-87260687D01*
X139565381Y-87888526D01*
X139419400Y-87888526D01*
X139419400Y-65638697D01*
X139575708Y-65638697D01*
X139831694Y-66258229D01*
X140148050Y-66575137D01*
X139833360Y-66889278D01*
X139576293Y-67508362D01*
X139575708Y-68178697D01*
X139831694Y-68798229D01*
X140148050Y-69115137D01*
X139833360Y-69429278D01*
X139576293Y-70048362D01*
X139575708Y-70718697D01*
X139831694Y-71338229D01*
X140148050Y-71655137D01*
X139833360Y-71969278D01*
X139576293Y-72588362D01*
X139575708Y-73258697D01*
X139831694Y-73878229D01*
X140148050Y-74195137D01*
X139833360Y-74509278D01*
X139576293Y-75128362D01*
X139575708Y-75798697D01*
X139831694Y-76418229D01*
X140148050Y-76735137D01*
X139833360Y-77049278D01*
X139576293Y-77668362D01*
X139575708Y-78338697D01*
X139831694Y-78958229D01*
X140148050Y-79275137D01*
X139833360Y-79589278D01*
X139576293Y-80208362D01*
X139575708Y-80878697D01*
X139831694Y-81498229D01*
X140148050Y-81815137D01*
X139833360Y-82129278D01*
X139576293Y-82748362D01*
X139575708Y-83418697D01*
X139831694Y-84038229D01*
X140148050Y-84355137D01*
X139833360Y-84669278D01*
X139576293Y-85288362D01*
X139575708Y-85958697D01*
X139831694Y-86578229D01*
X140305278Y-87052640D01*
X140344554Y-87068949D01*
X141261000Y-87985395D01*
X142176499Y-87069896D01*
X142214229Y-87054306D01*
X142688640Y-86580722D01*
X142945707Y-85961638D01*
X142946292Y-85291303D01*
X142690306Y-84671771D01*
X142373950Y-84354863D01*
X142688640Y-84040722D01*
X142945707Y-83421638D01*
X142946292Y-82751303D01*
X142690306Y-82131771D01*
X142373950Y-81814863D01*
X142688640Y-81500722D01*
X142945707Y-80881638D01*
X142946292Y-80211303D01*
X142690306Y-79591771D01*
X142373950Y-79274863D01*
X142688640Y-78960722D01*
X142945707Y-78341638D01*
X142946292Y-77671303D01*
X142690306Y-77051771D01*
X142373950Y-76734863D01*
X142688640Y-76420722D01*
X142945707Y-75801638D01*
X142946292Y-75131303D01*
X142690306Y-74511771D01*
X142373950Y-74194863D01*
X142688640Y-73880722D01*
X142945707Y-73261638D01*
X142946292Y-72591303D01*
X142690306Y-71971771D01*
X142373950Y-71654863D01*
X142688640Y-71340722D01*
X142945707Y-70721638D01*
X142946292Y-70051303D01*
X142690306Y-69431771D01*
X142373950Y-69114863D01*
X142688640Y-68800722D01*
X142945707Y-68181638D01*
X142946292Y-67511303D01*
X142690306Y-66891771D01*
X142373950Y-66574863D01*
X142531137Y-66417950D01*
X142845278Y-66732640D01*
X143464362Y-66989707D01*
X143604065Y-66989829D01*
X143376293Y-67538362D01*
X143375708Y-68208697D01*
X143631694Y-68828229D01*
X144105278Y-69302640D01*
X144724362Y-69559707D01*
X145394697Y-69560292D01*
X146014229Y-69304306D01*
X146331137Y-68987950D01*
X146645278Y-69302640D01*
X147264362Y-69559707D01*
X147934697Y-69560292D01*
X148554229Y-69304306D01*
X148871137Y-68987950D01*
X149185278Y-69302640D01*
X149804362Y-69559707D01*
X150474697Y-69560292D01*
X151094229Y-69304306D01*
X151568640Y-68830722D01*
X151825707Y-68211638D01*
X151826292Y-67541303D01*
X151598562Y-66990156D01*
X151754697Y-66990292D01*
X152374229Y-66734306D01*
X152691137Y-66417950D01*
X153005278Y-66732640D01*
X153624362Y-66989707D01*
X154294697Y-66990292D01*
X154914229Y-66734306D01*
X155231137Y-66417950D01*
X155545278Y-66732640D01*
X156164362Y-66989707D01*
X156834697Y-66990292D01*
X157454229Y-66734306D01*
X157771137Y-66417950D01*
X158085278Y-66732640D01*
X158704362Y-66989707D01*
X159374697Y-66990292D01*
X159994229Y-66734306D01*
X160311137Y-66417950D01*
X160468050Y-66575137D01*
X160153360Y-66889278D01*
X159896293Y-67508362D01*
X159895708Y-68178697D01*
X160151694Y-68798229D01*
X160468050Y-69115137D01*
X160153360Y-69429278D01*
X159896293Y-70048362D01*
X159895970Y-70418391D01*
X158381790Y-68904210D01*
X158094675Y-68712367D01*
X158031034Y-68699708D01*
X157756000Y-68644999D01*
X157755995Y-68645000D01*
X156018191Y-68645000D01*
X155985090Y-68593559D01*
X155772890Y-68448569D01*
X155521000Y-68397560D01*
X154251000Y-68397560D01*
X154015683Y-68441838D01*
X153799559Y-68580910D01*
X153654569Y-68793110D01*
X153603560Y-69045000D01*
X153603560Y-69915000D01*
X148161005Y-69915000D01*
X148161000Y-69914999D01*
X147878516Y-69971190D01*
X147822325Y-69982367D01*
X147535210Y-70174210D01*
X147535208Y-70174213D01*
X145335210Y-72374210D01*
X145143367Y-72661325D01*
X145133685Y-72710000D01*
X145075999Y-73000000D01*
X145076000Y-73000005D01*
X145076000Y-77949995D01*
X145075999Y-77950000D01*
X145128162Y-78212233D01*
X145143367Y-78288675D01*
X145306561Y-78532914D01*
X145335210Y-78575790D01*
X146050897Y-79291477D01*
X146050803Y-79399775D01*
X146223233Y-79817086D01*
X146542235Y-80136645D01*
X146959244Y-80309803D01*
X147410775Y-80310197D01*
X147828086Y-80137767D01*
X148147645Y-79818765D01*
X148320803Y-79401756D01*
X148321197Y-78950225D01*
X148148767Y-78532914D01*
X148138311Y-78522440D01*
X148561000Y-78522440D01*
X148796317Y-78478162D01*
X149012441Y-78339090D01*
X149157431Y-78126890D01*
X149173496Y-78047557D01*
X149408717Y-78283188D01*
X149954319Y-78509742D01*
X150545089Y-78510257D01*
X151091086Y-78284656D01*
X151509188Y-77867283D01*
X151520748Y-77839443D01*
X151531344Y-77865086D01*
X151948717Y-78283188D01*
X152494319Y-78509742D01*
X153085089Y-78510257D01*
X153631086Y-78284656D01*
X153847160Y-78068958D01*
X154466647Y-78068958D01*
X154546920Y-78320259D01*
X155102279Y-78521718D01*
X155692458Y-78495315D01*
X156115080Y-78320259D01*
X156195353Y-78068958D01*
X155331000Y-77204605D01*
X154466647Y-78068958D01*
X153847160Y-78068958D01*
X154049188Y-77867283D01*
X154068951Y-77819688D01*
X154287042Y-77889353D01*
X155151395Y-77025000D01*
X155137253Y-77010858D01*
X155316858Y-76831253D01*
X155331000Y-76845395D01*
X155345143Y-76831253D01*
X155524748Y-77010858D01*
X155510605Y-77025000D01*
X156374958Y-77889353D01*
X156626259Y-77809080D01*
X156827718Y-77253721D01*
X156801315Y-76663542D01*
X156637235Y-76267418D01*
X156739266Y-76309785D01*
X157230579Y-76310214D01*
X157351000Y-76260457D01*
X157351000Y-86649995D01*
X157350999Y-86650000D01*
X157407190Y-86932484D01*
X157418367Y-86988675D01*
X157567434Y-87211771D01*
X157610210Y-87275790D01*
X159125208Y-88790787D01*
X159125210Y-88790790D01*
X159305887Y-88911514D01*
X159412326Y-88982634D01*
X159751000Y-89050001D01*
X159751005Y-89050000D01*
X160123502Y-89050000D01*
X160151694Y-89118229D01*
X160625278Y-89592640D01*
X161244362Y-89849707D01*
X161914697Y-89850292D01*
X162534229Y-89594306D01*
X163008640Y-89120722D01*
X163265707Y-88501638D01*
X163266292Y-87831303D01*
X163010306Y-87211771D01*
X162693950Y-86894863D01*
X163008640Y-86580722D01*
X163265707Y-85961638D01*
X163266292Y-85291303D01*
X163010306Y-84671771D01*
X162693950Y-84354863D01*
X163008640Y-84040722D01*
X163265707Y-83421638D01*
X163266292Y-82751303D01*
X163010306Y-82131771D01*
X162693950Y-81814863D01*
X163008640Y-81500722D01*
X163265707Y-80881638D01*
X163266292Y-80211303D01*
X163010306Y-79591771D01*
X162693950Y-79274863D01*
X163008640Y-78960722D01*
X163265707Y-78341638D01*
X163266292Y-77671303D01*
X163010306Y-77051771D01*
X162693950Y-76734863D01*
X163008640Y-76420722D01*
X163265707Y-75801638D01*
X163266292Y-75131303D01*
X163010306Y-74511771D01*
X162693950Y-74194863D01*
X163008640Y-73880722D01*
X163265707Y-73261638D01*
X163266292Y-72591303D01*
X163010306Y-71971771D01*
X162693950Y-71654863D01*
X163008640Y-71340722D01*
X163265707Y-70721638D01*
X163266292Y-70051303D01*
X163010306Y-69431771D01*
X162693950Y-69114863D01*
X163008640Y-68800722D01*
X163265707Y-68181638D01*
X163266292Y-67511303D01*
X163010306Y-66891771D01*
X162693950Y-66574863D01*
X163008640Y-66260722D01*
X163265707Y-65641638D01*
X163266292Y-64971303D01*
X163010306Y-64351771D01*
X162536722Y-63877360D01*
X161917638Y-63620293D01*
X161247303Y-63619708D01*
X160627771Y-63875694D01*
X160310863Y-64192050D01*
X159996722Y-63877360D01*
X159377638Y-63620293D01*
X158707303Y-63619708D01*
X158087771Y-63875694D01*
X157770863Y-64192050D01*
X157456722Y-63877360D01*
X156837638Y-63620293D01*
X156167303Y-63619708D01*
X155547771Y-63875694D01*
X155230863Y-64192050D01*
X154916722Y-63877360D01*
X154297638Y-63620293D01*
X153627303Y-63619708D01*
X153007771Y-63875694D01*
X152690863Y-64192050D01*
X152376722Y-63877360D01*
X151757638Y-63620293D01*
X151087303Y-63619708D01*
X150467771Y-63875694D01*
X150150863Y-64192050D01*
X149836722Y-63877360D01*
X149217638Y-63620293D01*
X148547303Y-63619708D01*
X147927771Y-63875694D01*
X147610863Y-64192050D01*
X147296722Y-63877360D01*
X146677638Y-63620293D01*
X146007303Y-63619708D01*
X145387771Y-63875694D01*
X145070863Y-64192050D01*
X144756722Y-63877360D01*
X144137638Y-63620293D01*
X143467303Y-63619708D01*
X142847771Y-63875694D01*
X142530863Y-64192050D01*
X142216722Y-63877360D01*
X141597638Y-63620293D01*
X140927303Y-63619708D01*
X140307771Y-63875694D01*
X139833360Y-64349278D01*
X139576293Y-64968362D01*
X139575708Y-65638697D01*
X139419400Y-65638697D01*
X139419400Y-64712931D01*
X139523215Y-64191016D01*
X139779244Y-63807843D01*
X140162415Y-63551815D01*
X140684331Y-63448000D01*
X162261469Y-63448000D01*
X162783384Y-63551815D01*
X162783384Y-63551815D01*
G37*
X162783384Y-63551815D02*
X163166557Y-63807844D01*
X163422585Y-64191015D01*
X163526400Y-64712931D01*
X163526400Y-88703069D01*
X163422585Y-89224985D01*
X163166557Y-89608156D01*
X162783384Y-89864185D01*
X162261469Y-89968000D01*
X140684331Y-89968000D01*
X140162415Y-89864185D01*
X139779244Y-89608157D01*
X139609223Y-89353703D01*
X140251902Y-89353703D01*
X140356687Y-89625745D01*
X140984526Y-89860619D01*
X141654456Y-89837349D01*
X142165313Y-89625745D01*
X142270098Y-89353703D01*
X141261000Y-88344605D01*
X140251902Y-89353703D01*
X139609223Y-89353703D01*
X139523215Y-89224984D01*
X139419400Y-88703069D01*
X139419400Y-87888526D01*
X139565381Y-87888526D01*
X139588651Y-88558456D01*
X139800255Y-89069313D01*
X140072297Y-89174098D01*
X141081395Y-88165000D01*
X141440605Y-88165000D01*
X142449703Y-89174098D01*
X142721745Y-89069313D01*
X142956619Y-88441474D01*
X142933349Y-87771544D01*
X142721745Y-87260687D01*
X142449703Y-87155902D01*
X141440605Y-88165000D01*
X141081395Y-88165000D01*
X140072297Y-87155902D01*
X139800255Y-87260687D01*
X139565381Y-87888526D01*
X139419400Y-87888526D01*
X139419400Y-65638697D01*
X139575708Y-65638697D01*
X139831694Y-66258229D01*
X140148050Y-66575137D01*
X139833360Y-66889278D01*
X139576293Y-67508362D01*
X139575708Y-68178697D01*
X139831694Y-68798229D01*
X140148050Y-69115137D01*
X139833360Y-69429278D01*
X139576293Y-70048362D01*
X139575708Y-70718697D01*
X139831694Y-71338229D01*
X140148050Y-71655137D01*
X139833360Y-71969278D01*
X139576293Y-72588362D01*
X139575708Y-73258697D01*
X139831694Y-73878229D01*
X140148050Y-74195137D01*
X139833360Y-74509278D01*
X139576293Y-75128362D01*
X139575708Y-75798697D01*
X139831694Y-76418229D01*
X140148050Y-76735137D01*
X139833360Y-77049278D01*
X139576293Y-77668362D01*
X139575708Y-78338697D01*
X139831694Y-78958229D01*
X140148050Y-79275137D01*
X139833360Y-79589278D01*
X139576293Y-80208362D01*
X139575708Y-80878697D01*
X139831694Y-81498229D01*
X140148050Y-81815137D01*
X139833360Y-82129278D01*
X139576293Y-82748362D01*
X139575708Y-83418697D01*
X139831694Y-84038229D01*
X140148050Y-84355137D01*
X139833360Y-84669278D01*
X139576293Y-85288362D01*
X139575708Y-85958697D01*
X139831694Y-86578229D01*
X140305278Y-87052640D01*
X140344554Y-87068949D01*
X141261000Y-87985395D01*
X142176499Y-87069896D01*
X142214229Y-87054306D01*
X142688640Y-86580722D01*
X142945707Y-85961638D01*
X142946292Y-85291303D01*
X142690306Y-84671771D01*
X142373950Y-84354863D01*
X142688640Y-84040722D01*
X142945707Y-83421638D01*
X142946292Y-82751303D01*
X142690306Y-82131771D01*
X142373950Y-81814863D01*
X142688640Y-81500722D01*
X142945707Y-80881638D01*
X142946292Y-80211303D01*
X142690306Y-79591771D01*
X142373950Y-79274863D01*
X142688640Y-78960722D01*
X142945707Y-78341638D01*
X142946292Y-77671303D01*
X142690306Y-77051771D01*
X142373950Y-76734863D01*
X142688640Y-76420722D01*
X142945707Y-75801638D01*
X142946292Y-75131303D01*
X142690306Y-74511771D01*
X142373950Y-74194863D01*
X142688640Y-73880722D01*
X142945707Y-73261638D01*
X142946292Y-72591303D01*
X142690306Y-71971771D01*
X142373950Y-71654863D01*
X142688640Y-71340722D01*
X142945707Y-70721638D01*
X142946292Y-70051303D01*
X142690306Y-69431771D01*
X142373950Y-69114863D01*
X142688640Y-68800722D01*
X142945707Y-68181638D01*
X142946292Y-67511303D01*
X142690306Y-66891771D01*
X142373950Y-66574863D01*
X142531137Y-66417950D01*
X142845278Y-66732640D01*
X143464362Y-66989707D01*
X143604065Y-66989829D01*
X143376293Y-67538362D01*
X143375708Y-68208697D01*
X143631694Y-68828229D01*
X144105278Y-69302640D01*
X144724362Y-69559707D01*
X145394697Y-69560292D01*
X146014229Y-69304306D01*
X146331137Y-68987950D01*
X146645278Y-69302640D01*
X147264362Y-69559707D01*
X147934697Y-69560292D01*
X148554229Y-69304306D01*
X148871137Y-68987950D01*
X149185278Y-69302640D01*
X149804362Y-69559707D01*
X150474697Y-69560292D01*
X151094229Y-69304306D01*
X151568640Y-68830722D01*
X151825707Y-68211638D01*
X151826292Y-67541303D01*
X151598562Y-66990156D01*
X151754697Y-66990292D01*
X152374229Y-66734306D01*
X152691137Y-66417950D01*
X153005278Y-66732640D01*
X153624362Y-66989707D01*
X154294697Y-66990292D01*
X154914229Y-66734306D01*
X155231137Y-66417950D01*
X155545278Y-66732640D01*
X156164362Y-66989707D01*
X156834697Y-66990292D01*
X157454229Y-66734306D01*
X157771137Y-66417950D01*
X158085278Y-66732640D01*
X158704362Y-66989707D01*
X159374697Y-66990292D01*
X159994229Y-66734306D01*
X160311137Y-66417950D01*
X160468050Y-66575137D01*
X160153360Y-66889278D01*
X159896293Y-67508362D01*
X159895708Y-68178697D01*
X160151694Y-68798229D01*
X160468050Y-69115137D01*
X160153360Y-69429278D01*
X159896293Y-70048362D01*
X159895970Y-70418391D01*
X158381790Y-68904210D01*
X158094675Y-68712367D01*
X158031034Y-68699708D01*
X157756000Y-68644999D01*
X157755995Y-68645000D01*
X156018191Y-68645000D01*
X155985090Y-68593559D01*
X155772890Y-68448569D01*
X155521000Y-68397560D01*
X154251000Y-68397560D01*
X154015683Y-68441838D01*
X153799559Y-68580910D01*
X153654569Y-68793110D01*
X153603560Y-69045000D01*
X153603560Y-69915000D01*
X148161005Y-69915000D01*
X148161000Y-69914999D01*
X147878516Y-69971190D01*
X147822325Y-69982367D01*
X147535210Y-70174210D01*
X147535208Y-70174213D01*
X145335210Y-72374210D01*
X145143367Y-72661325D01*
X145133685Y-72710000D01*
X145075999Y-73000000D01*
X145076000Y-73000005D01*
X145076000Y-77949995D01*
X145075999Y-77950000D01*
X145128162Y-78212233D01*
X145143367Y-78288675D01*
X145306561Y-78532914D01*
X145335210Y-78575790D01*
X146050897Y-79291477D01*
X146050803Y-79399775D01*
X146223233Y-79817086D01*
X146542235Y-80136645D01*
X146959244Y-80309803D01*
X147410775Y-80310197D01*
X147828086Y-80137767D01*
X148147645Y-79818765D01*
X148320803Y-79401756D01*
X148321197Y-78950225D01*
X148148767Y-78532914D01*
X148138311Y-78522440D01*
X148561000Y-78522440D01*
X148796317Y-78478162D01*
X149012441Y-78339090D01*
X149157431Y-78126890D01*
X149173496Y-78047557D01*
X149408717Y-78283188D01*
X149954319Y-78509742D01*
X150545089Y-78510257D01*
X151091086Y-78284656D01*
X151509188Y-77867283D01*
X151520748Y-77839443D01*
X151531344Y-77865086D01*
X151948717Y-78283188D01*
X152494319Y-78509742D01*
X153085089Y-78510257D01*
X153631086Y-78284656D01*
X153847160Y-78068958D01*
X154466647Y-78068958D01*
X154546920Y-78320259D01*
X155102279Y-78521718D01*
X155692458Y-78495315D01*
X156115080Y-78320259D01*
X156195353Y-78068958D01*
X155331000Y-77204605D01*
X154466647Y-78068958D01*
X153847160Y-78068958D01*
X154049188Y-77867283D01*
X154068951Y-77819688D01*
X154287042Y-77889353D01*
X155151395Y-77025000D01*
X155137253Y-77010858D01*
X155316858Y-76831253D01*
X155331000Y-76845395D01*
X155345143Y-76831253D01*
X155524748Y-77010858D01*
X155510605Y-77025000D01*
X156374958Y-77889353D01*
X156626259Y-77809080D01*
X156827718Y-77253721D01*
X156801315Y-76663542D01*
X156637235Y-76267418D01*
X156739266Y-76309785D01*
X157230579Y-76310214D01*
X157351000Y-76260457D01*
X157351000Y-86649995D01*
X157350999Y-86650000D01*
X157407190Y-86932484D01*
X157418367Y-86988675D01*
X157567434Y-87211771D01*
X157610210Y-87275790D01*
X159125208Y-88790787D01*
X159125210Y-88790790D01*
X159305887Y-88911514D01*
X159412326Y-88982634D01*
X159751000Y-89050001D01*
X159751005Y-89050000D01*
X160123502Y-89050000D01*
X160151694Y-89118229D01*
X160625278Y-89592640D01*
X161244362Y-89849707D01*
X161914697Y-89850292D01*
X162534229Y-89594306D01*
X163008640Y-89120722D01*
X163265707Y-88501638D01*
X163266292Y-87831303D01*
X163010306Y-87211771D01*
X162693950Y-86894863D01*
X163008640Y-86580722D01*
X163265707Y-85961638D01*
X163266292Y-85291303D01*
X163010306Y-84671771D01*
X162693950Y-84354863D01*
X163008640Y-84040722D01*
X163265707Y-83421638D01*
X163266292Y-82751303D01*
X163010306Y-82131771D01*
X162693950Y-81814863D01*
X163008640Y-81500722D01*
X163265707Y-80881638D01*
X163266292Y-80211303D01*
X163010306Y-79591771D01*
X162693950Y-79274863D01*
X163008640Y-78960722D01*
X163265707Y-78341638D01*
X163266292Y-77671303D01*
X163010306Y-77051771D01*
X162693950Y-76734863D01*
X163008640Y-76420722D01*
X163265707Y-75801638D01*
X163266292Y-75131303D01*
X163010306Y-74511771D01*
X162693950Y-74194863D01*
X163008640Y-73880722D01*
X163265707Y-73261638D01*
X163266292Y-72591303D01*
X163010306Y-71971771D01*
X162693950Y-71654863D01*
X163008640Y-71340722D01*
X163265707Y-70721638D01*
X163266292Y-70051303D01*
X163010306Y-69431771D01*
X162693950Y-69114863D01*
X163008640Y-68800722D01*
X163265707Y-68181638D01*
X163266292Y-67511303D01*
X163010306Y-66891771D01*
X162693950Y-66574863D01*
X163008640Y-66260722D01*
X163265707Y-65641638D01*
X163266292Y-64971303D01*
X163010306Y-64351771D01*
X162536722Y-63877360D01*
X161917638Y-63620293D01*
X161247303Y-63619708D01*
X160627771Y-63875694D01*
X160310863Y-64192050D01*
X159996722Y-63877360D01*
X159377638Y-63620293D01*
X158707303Y-63619708D01*
X158087771Y-63875694D01*
X157770863Y-64192050D01*
X157456722Y-63877360D01*
X156837638Y-63620293D01*
X156167303Y-63619708D01*
X155547771Y-63875694D01*
X155230863Y-64192050D01*
X154916722Y-63877360D01*
X154297638Y-63620293D01*
X153627303Y-63619708D01*
X153007771Y-63875694D01*
X152690863Y-64192050D01*
X152376722Y-63877360D01*
X151757638Y-63620293D01*
X151087303Y-63619708D01*
X150467771Y-63875694D01*
X150150863Y-64192050D01*
X149836722Y-63877360D01*
X149217638Y-63620293D01*
X148547303Y-63619708D01*
X147927771Y-63875694D01*
X147610863Y-64192050D01*
X147296722Y-63877360D01*
X146677638Y-63620293D01*
X146007303Y-63619708D01*
X145387771Y-63875694D01*
X145070863Y-64192050D01*
X144756722Y-63877360D01*
X144137638Y-63620293D01*
X143467303Y-63619708D01*
X142847771Y-63875694D01*
X142530863Y-64192050D01*
X142216722Y-63877360D01*
X141597638Y-63620293D01*
X140927303Y-63619708D01*
X140307771Y-63875694D01*
X139833360Y-64349278D01*
X139576293Y-64968362D01*
X139575708Y-65638697D01*
X139419400Y-65638697D01*
X139419400Y-64712931D01*
X139523215Y-64191016D01*
X139779244Y-63807843D01*
X140162415Y-63551815D01*
X140684331Y-63448000D01*
X162261469Y-63448000D01*
X162783384Y-63551815D01*
M02*
