M48
;DRILL file {KiCad 4.0.6} date 12/07/19 10:47:34
;FORMAT={-:-/ absolute / inch / decimal}
FMAT,2
INCH,TZ
T1C0.020
T2C0.024
T3C0.033
T4C0.059
%
G90
G05
M72
T1
X5.7947Y-3.1171
T2
X5.965Y-2.9557
X6.1806Y-2.9557
T3
X5.8154Y-3.0325
X5.9154Y-3.0325
X6.0154Y-3.0325
X6.1154Y-3.0325
T4
X5.5615Y-2.5711
X5.5615Y-2.6711
X5.5615Y-2.7711
X5.5615Y-2.8711
X5.5615Y-2.9711
X5.5615Y-3.0711
X5.5615Y-3.1711
X5.5615Y-3.2711
X5.5615Y-3.3711
X5.5615Y-3.4711
X5.6615Y-2.5711
X5.7111Y-2.6722
X5.7615Y-2.5711
X5.8111Y-2.6722
X5.8615Y-2.5711
X5.9111Y-2.6722
X5.9615Y-2.5711
X6.0615Y-2.5711
X6.1615Y-2.5711
X6.2615Y-2.5711
X6.3615Y-2.5711
X6.3615Y-2.6711
X6.3615Y-2.7711
X6.3615Y-2.8711
X6.3615Y-2.9711
X6.3615Y-3.0711
X6.3615Y-3.1711
X6.3615Y-3.2711
X6.3615Y-3.3711
X6.3615Y-3.4711
T0
M30
