G04 #@! TF.FileFunction,Copper,L2,Bot,Signal*
%FSLAX46Y46*%
G04 Gerber Fmt 4.6, Leading zero omitted, Abs format (unit mm)*
G04 Created by KiCad (PCBNEW 4.0.6) date 12/07/19 10:46:47*
%MOMM*%
%LPD*%
G01*
G04 APERTURE LIST*
%ADD10C,0.100000*%
%ADD11R,0.970000X1.270000*%
%ADD12C,2.100000*%
%ADD13R,1.700000X1.700000*%
%ADD14C,1.700000*%
%ADD15R,1.270000X0.970000*%
%ADD16R,2.000000X3.800000*%
%ADD17R,2.000000X1.500000*%
%ADD18R,0.800000X0.900000*%
%ADD19R,1.300000X0.700000*%
%ADD20C,1.200000*%
%ADD21C,1.000000*%
%ADD22C,0.500000*%
%ADD23C,0.254000*%
G04 APERTURE END LIST*
D10*
D11*
X146341000Y-72025000D03*
X147611000Y-72025000D03*
X148881000Y-72025000D03*
X147611000Y-70475000D03*
D12*
X161581000Y-67845000D03*
X161581000Y-70385000D03*
X161581000Y-72925000D03*
X161581000Y-75465000D03*
X161581000Y-78005000D03*
X161581000Y-80545000D03*
X161581000Y-83085000D03*
X161581000Y-85625000D03*
X161581000Y-88165000D03*
X161581000Y-65305000D03*
X159041000Y-65305000D03*
X156501000Y-65305000D03*
X153961000Y-65305000D03*
X151421000Y-65305000D03*
X148881000Y-65305000D03*
X146341000Y-65305000D03*
X143801000Y-65305000D03*
X141261000Y-65305000D03*
X141261000Y-67845000D03*
X141261000Y-70385000D03*
X141261000Y-72925000D03*
X141261000Y-75465000D03*
X141261000Y-78005000D03*
X141261000Y-80545000D03*
X141261000Y-83085000D03*
X141261000Y-85625000D03*
X141261000Y-88165000D03*
D13*
X147711000Y-77025000D03*
D14*
X150251000Y-77025000D03*
X152791000Y-77025000D03*
X155331000Y-77025000D03*
D11*
X155356000Y-73775000D03*
X154086000Y-73775000D03*
X152816000Y-73775000D03*
X155241000Y-70375000D03*
X156511000Y-70375000D03*
X157781000Y-70375000D03*
X156511000Y-68825000D03*
D15*
X144761000Y-77245000D03*
X144761000Y-75975000D03*
X144761000Y-74705000D03*
D16*
X157111000Y-83425000D03*
D17*
X150811000Y-83425000D03*
X150811000Y-81125000D03*
X150811000Y-85725000D03*
D18*
X145486000Y-84675000D03*
X147386000Y-84675000D03*
X146436000Y-86675000D03*
D19*
X147736000Y-80400000D03*
X147736000Y-82300000D03*
X145086000Y-82300000D03*
X145086000Y-80400000D03*
D12*
X145061000Y-67875000D03*
X147601000Y-67875000D03*
X150141000Y-67875000D03*
D20*
X156986000Y-75075000D03*
X151511000Y-75075000D03*
D21*
X147186000Y-79175000D03*
D22*
X159041000Y-65305000D02*
X159041000Y-69115000D01*
X159041000Y-69115000D02*
X157781000Y-70375000D01*
X156501000Y-65305000D02*
X156501000Y-68815000D01*
X156501000Y-68815000D02*
X156511000Y-68825000D01*
X153961000Y-65305000D02*
X153961000Y-69095000D01*
X153961000Y-69095000D02*
X155241000Y-70375000D01*
X142391000Y-80545000D02*
X141261000Y-80545000D01*
X144761000Y-78175000D02*
X142391000Y-80545000D01*
X144761000Y-77245000D02*
X144761000Y-78175000D01*
X147386000Y-84675000D02*
X147361000Y-84675000D01*
X147361000Y-84675000D02*
X146361000Y-85675000D01*
X146361000Y-85675000D02*
X145611000Y-85675000D01*
X145611000Y-85675000D02*
X145061000Y-86225000D01*
X145061000Y-86225000D02*
X145061000Y-88165000D01*
X141261000Y-88165000D02*
X145061000Y-88165000D01*
X145061000Y-88165000D02*
X157771000Y-88165000D01*
X157211000Y-77025000D02*
X155331000Y-77025000D01*
X159211000Y-79025000D02*
X157211000Y-77025000D01*
X159211000Y-86725000D02*
X159211000Y-79025000D01*
X157771000Y-88165000D02*
X159211000Y-86725000D01*
X155356000Y-73775000D02*
X156161000Y-73775000D01*
X156511000Y-73425000D02*
X156511000Y-70375000D01*
X156161000Y-73775000D02*
X156511000Y-73425000D01*
X154086000Y-73775000D02*
X154086000Y-74800000D01*
X152791000Y-76095000D02*
X152791000Y-77025000D01*
X154086000Y-74800000D02*
X152791000Y-76095000D01*
X147611000Y-72025000D02*
X147611000Y-73225000D01*
X148161000Y-73775000D02*
X152816000Y-73775000D01*
X147611000Y-73225000D02*
X148161000Y-73775000D01*
X145061000Y-67875000D02*
X145061000Y-70745000D01*
X145061000Y-70745000D02*
X146341000Y-72025000D01*
X150141000Y-67875000D02*
X150141000Y-70765000D01*
X150141000Y-70765000D02*
X148881000Y-72025000D01*
X147611000Y-70475000D02*
X147611000Y-67885000D01*
X147611000Y-67885000D02*
X147601000Y-67875000D01*
X145086000Y-80400000D02*
X145086000Y-79550000D01*
X145711000Y-75975000D02*
X144761000Y-75975000D01*
X146161000Y-76425000D02*
X145711000Y-75975000D01*
X146161000Y-78475000D02*
X146161000Y-76425000D01*
X145086000Y-79550000D02*
X146161000Y-78475000D01*
X144761000Y-74705000D02*
X146791000Y-74705000D01*
X156986000Y-75075000D02*
X159916000Y-78005000D01*
X147161000Y-75075000D02*
X151511000Y-75075000D01*
X146791000Y-74705000D02*
X147161000Y-75075000D01*
X159916000Y-78005000D02*
X161581000Y-78005000D01*
X147711000Y-77025000D02*
X147711000Y-77550000D01*
X147711000Y-77550000D02*
X149211000Y-79050000D01*
X149211000Y-79050000D02*
X156061000Y-79050000D01*
X156061000Y-79050000D02*
X157111000Y-80100000D01*
X157111000Y-80100000D02*
X157111000Y-83425000D01*
X157111000Y-83425000D02*
X154061000Y-83425000D01*
X154061000Y-83425000D02*
X150811000Y-83425000D01*
X147736000Y-82300000D02*
X147736000Y-83300000D01*
X149011000Y-84575000D02*
X149011000Y-85725000D01*
X147736000Y-83300000D02*
X149011000Y-84575000D01*
X150811000Y-85725000D02*
X149011000Y-85725000D01*
X149011000Y-85725000D02*
X148961000Y-85725000D01*
X148011000Y-86675000D02*
X146436000Y-86675000D01*
X148961000Y-85725000D02*
X148011000Y-86675000D01*
X145086000Y-82300000D02*
X145086000Y-84275000D01*
X145086000Y-84275000D02*
X145486000Y-84675000D01*
X147736000Y-79725000D02*
X147736000Y-80400000D01*
X147186000Y-79175000D02*
X147736000Y-79725000D01*
X147736000Y-80400000D02*
X150086000Y-80400000D01*
X150086000Y-80400000D02*
X150811000Y-81125000D01*
X150251000Y-80565000D02*
X150811000Y-81125000D01*
D23*
G36*
X162783384Y-63551815D02*
X163166557Y-63807844D01*
X163422585Y-64191015D01*
X163526400Y-64712931D01*
X163526400Y-88703069D01*
X163422585Y-89224985D01*
X163166557Y-89608156D01*
X162783384Y-89864185D01*
X162261469Y-89968000D01*
X140684331Y-89968000D01*
X140162415Y-89864185D01*
X139779244Y-89608157D01*
X139609223Y-89353703D01*
X140251902Y-89353703D01*
X140356687Y-89625745D01*
X140984526Y-89860619D01*
X141654456Y-89837349D01*
X142165313Y-89625745D01*
X142270098Y-89353703D01*
X141261000Y-88344605D01*
X140251902Y-89353703D01*
X139609223Y-89353703D01*
X139523215Y-89224984D01*
X139419400Y-88703069D01*
X139419400Y-87888526D01*
X139565381Y-87888526D01*
X139588651Y-88558456D01*
X139800255Y-89069313D01*
X140072297Y-89174098D01*
X141081395Y-88165000D01*
X141440605Y-88165000D01*
X142449703Y-89174098D01*
X142721745Y-89069313D01*
X142956619Y-88441474D01*
X142933349Y-87771544D01*
X142721745Y-87260687D01*
X142449703Y-87155902D01*
X141440605Y-88165000D01*
X141081395Y-88165000D01*
X140072297Y-87155902D01*
X139800255Y-87260687D01*
X139565381Y-87888526D01*
X139419400Y-87888526D01*
X139419400Y-65638697D01*
X139575708Y-65638697D01*
X139831694Y-66258229D01*
X140148050Y-66575137D01*
X139833360Y-66889278D01*
X139576293Y-67508362D01*
X139575708Y-68178697D01*
X139831694Y-68798229D01*
X140148050Y-69115137D01*
X139833360Y-69429278D01*
X139576293Y-70048362D01*
X139575708Y-70718697D01*
X139831694Y-71338229D01*
X140148050Y-71655137D01*
X139833360Y-71969278D01*
X139576293Y-72588362D01*
X139575708Y-73258697D01*
X139831694Y-73878229D01*
X140148050Y-74195137D01*
X139833360Y-74509278D01*
X139576293Y-75128362D01*
X139575708Y-75798697D01*
X139831694Y-76418229D01*
X140148050Y-76735137D01*
X139833360Y-77049278D01*
X139576293Y-77668362D01*
X139575708Y-78338697D01*
X139831694Y-78958229D01*
X140148050Y-79275137D01*
X139833360Y-79589278D01*
X139576293Y-80208362D01*
X139575708Y-80878697D01*
X139831694Y-81498229D01*
X140148050Y-81815137D01*
X139833360Y-82129278D01*
X139576293Y-82748362D01*
X139575708Y-83418697D01*
X139831694Y-84038229D01*
X140148050Y-84355137D01*
X139833360Y-84669278D01*
X139576293Y-85288362D01*
X139575708Y-85958697D01*
X139831694Y-86578229D01*
X140305278Y-87052640D01*
X140344554Y-87068949D01*
X141261000Y-87985395D01*
X142176499Y-87069896D01*
X142214229Y-87054306D01*
X142688640Y-86580722D01*
X142945707Y-85961638D01*
X142946292Y-85291303D01*
X142690306Y-84671771D01*
X142373950Y-84354863D01*
X142688640Y-84040722D01*
X142945707Y-83421638D01*
X142946292Y-82751303D01*
X142690306Y-82131771D01*
X142373950Y-81814863D01*
X142688640Y-81500722D01*
X142752241Y-81347555D01*
X143016790Y-81170790D01*
X143788560Y-80399020D01*
X143788560Y-80750000D01*
X143832838Y-80985317D01*
X143971910Y-81201441D01*
X144184110Y-81346431D01*
X144197197Y-81349081D01*
X143984559Y-81485910D01*
X143839569Y-81698110D01*
X143788560Y-81950000D01*
X143788560Y-82650000D01*
X143832838Y-82885317D01*
X143971910Y-83101441D01*
X144184110Y-83246431D01*
X144201000Y-83249851D01*
X144201000Y-84274995D01*
X144200999Y-84275000D01*
X144248270Y-84512640D01*
X144268367Y-84613675D01*
X144372624Y-84769707D01*
X144438560Y-84868388D01*
X144438560Y-85125000D01*
X144482838Y-85360317D01*
X144621910Y-85576441D01*
X144834110Y-85721431D01*
X145086000Y-85772440D01*
X145576681Y-85772440D01*
X145439569Y-85973110D01*
X145388560Y-86225000D01*
X145388560Y-87125000D01*
X145432838Y-87360317D01*
X145571910Y-87576441D01*
X145784110Y-87721431D01*
X146036000Y-87772440D01*
X146836000Y-87772440D01*
X147071317Y-87728162D01*
X147287441Y-87589090D01*
X147307317Y-87560000D01*
X148010995Y-87560000D01*
X148011000Y-87560001D01*
X148293484Y-87503810D01*
X148349675Y-87492633D01*
X148636790Y-87300790D01*
X149215443Y-86722136D01*
X149346910Y-86926441D01*
X149559110Y-87071431D01*
X149811000Y-87122440D01*
X151811000Y-87122440D01*
X152046317Y-87078162D01*
X152262441Y-86939090D01*
X152407431Y-86726890D01*
X152458440Y-86475000D01*
X152458440Y-84975000D01*
X152414162Y-84739683D01*
X152307241Y-84573523D01*
X152407431Y-84426890D01*
X152431102Y-84310000D01*
X155463560Y-84310000D01*
X155463560Y-85325000D01*
X155507838Y-85560317D01*
X155646910Y-85776441D01*
X155859110Y-85921431D01*
X156111000Y-85972440D01*
X158111000Y-85972440D01*
X158346317Y-85928162D01*
X158562441Y-85789090D01*
X158707431Y-85576890D01*
X158758440Y-85325000D01*
X158758440Y-81525000D01*
X158714162Y-81289683D01*
X158575090Y-81073559D01*
X158362890Y-80928569D01*
X158111000Y-80877560D01*
X157996000Y-80877560D01*
X157996000Y-80100005D01*
X157996001Y-80100000D01*
X157928633Y-79761325D01*
X157905943Y-79727367D01*
X157736790Y-79474210D01*
X157736787Y-79474208D01*
X156686790Y-78424210D01*
X156602116Y-78367633D01*
X156399675Y-78232367D01*
X156304096Y-78213355D01*
X156158481Y-78184390D01*
X156195353Y-78068958D01*
X155331000Y-77204605D01*
X154466647Y-78068958D01*
X154497326Y-78165000D01*
X153750951Y-78165000D01*
X154049188Y-77867283D01*
X154068951Y-77819688D01*
X154287042Y-77889353D01*
X155151395Y-77025000D01*
X154287042Y-76160647D01*
X154069360Y-76230181D01*
X154050656Y-76184914D01*
X154001704Y-76135876D01*
X154711787Y-75425792D01*
X154711790Y-75425790D01*
X154839975Y-75233946D01*
X154903634Y-75138674D01*
X154919793Y-75057440D01*
X155751015Y-75057440D01*
X155750786Y-75319579D01*
X155885913Y-75646610D01*
X155559721Y-75528282D01*
X154969542Y-75554685D01*
X154546920Y-75729741D01*
X154466647Y-75981042D01*
X155331000Y-76845395D01*
X155345143Y-76831253D01*
X155524748Y-77010858D01*
X155510605Y-77025000D01*
X156374958Y-77889353D01*
X156626259Y-77809080D01*
X156827718Y-77253721D01*
X156801315Y-76663542D01*
X156637235Y-76267418D01*
X156739266Y-76309785D01*
X156969406Y-76309986D01*
X159290208Y-78630787D01*
X159290210Y-78630790D01*
X159577325Y-78822633D01*
X159633516Y-78833810D01*
X159916000Y-78890001D01*
X159916005Y-78890000D01*
X160123502Y-78890000D01*
X160151694Y-78958229D01*
X160468050Y-79275137D01*
X160153360Y-79589278D01*
X159896293Y-80208362D01*
X159895708Y-80878697D01*
X160151694Y-81498229D01*
X160468050Y-81815137D01*
X160153360Y-82129278D01*
X159896293Y-82748362D01*
X159895708Y-83418697D01*
X160151694Y-84038229D01*
X160468050Y-84355137D01*
X160153360Y-84669278D01*
X159896293Y-85288362D01*
X159895708Y-85958697D01*
X160151694Y-86578229D01*
X160468050Y-86895137D01*
X160153360Y-87209278D01*
X159896293Y-87828362D01*
X159895708Y-88498697D01*
X160151694Y-89118229D01*
X160625278Y-89592640D01*
X161244362Y-89849707D01*
X161914697Y-89850292D01*
X162534229Y-89594306D01*
X163008640Y-89120722D01*
X163265707Y-88501638D01*
X163266292Y-87831303D01*
X163010306Y-87211771D01*
X162693950Y-86894863D01*
X163008640Y-86580722D01*
X163265707Y-85961638D01*
X163266292Y-85291303D01*
X163010306Y-84671771D01*
X162693950Y-84354863D01*
X163008640Y-84040722D01*
X163265707Y-83421638D01*
X163266292Y-82751303D01*
X163010306Y-82131771D01*
X162693950Y-81814863D01*
X163008640Y-81500722D01*
X163265707Y-80881638D01*
X163266292Y-80211303D01*
X163010306Y-79591771D01*
X162693950Y-79274863D01*
X163008640Y-78960722D01*
X163265707Y-78341638D01*
X163266292Y-77671303D01*
X163010306Y-77051771D01*
X162693950Y-76734863D01*
X163008640Y-76420722D01*
X163265707Y-75801638D01*
X163266292Y-75131303D01*
X163010306Y-74511771D01*
X162693950Y-74194863D01*
X163008640Y-73880722D01*
X163265707Y-73261638D01*
X163266292Y-72591303D01*
X163010306Y-71971771D01*
X162693950Y-71654863D01*
X163008640Y-71340722D01*
X163265707Y-70721638D01*
X163266292Y-70051303D01*
X163010306Y-69431771D01*
X162693950Y-69114863D01*
X163008640Y-68800722D01*
X163265707Y-68181638D01*
X163266292Y-67511303D01*
X163010306Y-66891771D01*
X162693950Y-66574863D01*
X163008640Y-66260722D01*
X163265707Y-65641638D01*
X163266292Y-64971303D01*
X163010306Y-64351771D01*
X162536722Y-63877360D01*
X161917638Y-63620293D01*
X161247303Y-63619708D01*
X160627771Y-63875694D01*
X160310863Y-64192050D01*
X159996722Y-63877360D01*
X159377638Y-63620293D01*
X158707303Y-63619708D01*
X158087771Y-63875694D01*
X157770863Y-64192050D01*
X157456722Y-63877360D01*
X156837638Y-63620293D01*
X156167303Y-63619708D01*
X155547771Y-63875694D01*
X155230863Y-64192050D01*
X154916722Y-63877360D01*
X154297638Y-63620293D01*
X153627303Y-63619708D01*
X153007771Y-63875694D01*
X152690863Y-64192050D01*
X152376722Y-63877360D01*
X151757638Y-63620293D01*
X151087303Y-63619708D01*
X150467771Y-63875694D01*
X150150863Y-64192050D01*
X149836722Y-63877360D01*
X149217638Y-63620293D01*
X148547303Y-63619708D01*
X147927771Y-63875694D01*
X147610863Y-64192050D01*
X147296722Y-63877360D01*
X146677638Y-63620293D01*
X146007303Y-63619708D01*
X145387771Y-63875694D01*
X145070863Y-64192050D01*
X144756722Y-63877360D01*
X144137638Y-63620293D01*
X143467303Y-63619708D01*
X142847771Y-63875694D01*
X142530863Y-64192050D01*
X142216722Y-63877360D01*
X141597638Y-63620293D01*
X140927303Y-63619708D01*
X140307771Y-63875694D01*
X139833360Y-64349278D01*
X139576293Y-64968362D01*
X139575708Y-65638697D01*
X139419400Y-65638697D01*
X139419400Y-64712931D01*
X139523215Y-64191016D01*
X139779244Y-63807843D01*
X140162415Y-63551815D01*
X140684331Y-63448000D01*
X162261469Y-63448000D01*
X162783384Y-63551815D01*
X162783384Y-63551815D01*
G37*
X162783384Y-63551815D02*
X163166557Y-63807844D01*
X163422585Y-64191015D01*
X163526400Y-64712931D01*
X163526400Y-88703069D01*
X163422585Y-89224985D01*
X163166557Y-89608156D01*
X162783384Y-89864185D01*
X162261469Y-89968000D01*
X140684331Y-89968000D01*
X140162415Y-89864185D01*
X139779244Y-89608157D01*
X139609223Y-89353703D01*
X140251902Y-89353703D01*
X140356687Y-89625745D01*
X140984526Y-89860619D01*
X141654456Y-89837349D01*
X142165313Y-89625745D01*
X142270098Y-89353703D01*
X141261000Y-88344605D01*
X140251902Y-89353703D01*
X139609223Y-89353703D01*
X139523215Y-89224984D01*
X139419400Y-88703069D01*
X139419400Y-87888526D01*
X139565381Y-87888526D01*
X139588651Y-88558456D01*
X139800255Y-89069313D01*
X140072297Y-89174098D01*
X141081395Y-88165000D01*
X141440605Y-88165000D01*
X142449703Y-89174098D01*
X142721745Y-89069313D01*
X142956619Y-88441474D01*
X142933349Y-87771544D01*
X142721745Y-87260687D01*
X142449703Y-87155902D01*
X141440605Y-88165000D01*
X141081395Y-88165000D01*
X140072297Y-87155902D01*
X139800255Y-87260687D01*
X139565381Y-87888526D01*
X139419400Y-87888526D01*
X139419400Y-65638697D01*
X139575708Y-65638697D01*
X139831694Y-66258229D01*
X140148050Y-66575137D01*
X139833360Y-66889278D01*
X139576293Y-67508362D01*
X139575708Y-68178697D01*
X139831694Y-68798229D01*
X140148050Y-69115137D01*
X139833360Y-69429278D01*
X139576293Y-70048362D01*
X139575708Y-70718697D01*
X139831694Y-71338229D01*
X140148050Y-71655137D01*
X139833360Y-71969278D01*
X139576293Y-72588362D01*
X139575708Y-73258697D01*
X139831694Y-73878229D01*
X140148050Y-74195137D01*
X139833360Y-74509278D01*
X139576293Y-75128362D01*
X139575708Y-75798697D01*
X139831694Y-76418229D01*
X140148050Y-76735137D01*
X139833360Y-77049278D01*
X139576293Y-77668362D01*
X139575708Y-78338697D01*
X139831694Y-78958229D01*
X140148050Y-79275137D01*
X139833360Y-79589278D01*
X139576293Y-80208362D01*
X139575708Y-80878697D01*
X139831694Y-81498229D01*
X140148050Y-81815137D01*
X139833360Y-82129278D01*
X139576293Y-82748362D01*
X139575708Y-83418697D01*
X139831694Y-84038229D01*
X140148050Y-84355137D01*
X139833360Y-84669278D01*
X139576293Y-85288362D01*
X139575708Y-85958697D01*
X139831694Y-86578229D01*
X140305278Y-87052640D01*
X140344554Y-87068949D01*
X141261000Y-87985395D01*
X142176499Y-87069896D01*
X142214229Y-87054306D01*
X142688640Y-86580722D01*
X142945707Y-85961638D01*
X142946292Y-85291303D01*
X142690306Y-84671771D01*
X142373950Y-84354863D01*
X142688640Y-84040722D01*
X142945707Y-83421638D01*
X142946292Y-82751303D01*
X142690306Y-82131771D01*
X142373950Y-81814863D01*
X142688640Y-81500722D01*
X142752241Y-81347555D01*
X143016790Y-81170790D01*
X143788560Y-80399020D01*
X143788560Y-80750000D01*
X143832838Y-80985317D01*
X143971910Y-81201441D01*
X144184110Y-81346431D01*
X144197197Y-81349081D01*
X143984559Y-81485910D01*
X143839569Y-81698110D01*
X143788560Y-81950000D01*
X143788560Y-82650000D01*
X143832838Y-82885317D01*
X143971910Y-83101441D01*
X144184110Y-83246431D01*
X144201000Y-83249851D01*
X144201000Y-84274995D01*
X144200999Y-84275000D01*
X144248270Y-84512640D01*
X144268367Y-84613675D01*
X144372624Y-84769707D01*
X144438560Y-84868388D01*
X144438560Y-85125000D01*
X144482838Y-85360317D01*
X144621910Y-85576441D01*
X144834110Y-85721431D01*
X145086000Y-85772440D01*
X145576681Y-85772440D01*
X145439569Y-85973110D01*
X145388560Y-86225000D01*
X145388560Y-87125000D01*
X145432838Y-87360317D01*
X145571910Y-87576441D01*
X145784110Y-87721431D01*
X146036000Y-87772440D01*
X146836000Y-87772440D01*
X147071317Y-87728162D01*
X147287441Y-87589090D01*
X147307317Y-87560000D01*
X148010995Y-87560000D01*
X148011000Y-87560001D01*
X148293484Y-87503810D01*
X148349675Y-87492633D01*
X148636790Y-87300790D01*
X149215443Y-86722136D01*
X149346910Y-86926441D01*
X149559110Y-87071431D01*
X149811000Y-87122440D01*
X151811000Y-87122440D01*
X152046317Y-87078162D01*
X152262441Y-86939090D01*
X152407431Y-86726890D01*
X152458440Y-86475000D01*
X152458440Y-84975000D01*
X152414162Y-84739683D01*
X152307241Y-84573523D01*
X152407431Y-84426890D01*
X152431102Y-84310000D01*
X155463560Y-84310000D01*
X155463560Y-85325000D01*
X155507838Y-85560317D01*
X155646910Y-85776441D01*
X155859110Y-85921431D01*
X156111000Y-85972440D01*
X158111000Y-85972440D01*
X158346317Y-85928162D01*
X158562441Y-85789090D01*
X158707431Y-85576890D01*
X158758440Y-85325000D01*
X158758440Y-81525000D01*
X158714162Y-81289683D01*
X158575090Y-81073559D01*
X158362890Y-80928569D01*
X158111000Y-80877560D01*
X157996000Y-80877560D01*
X157996000Y-80100005D01*
X157996001Y-80100000D01*
X157928633Y-79761325D01*
X157905943Y-79727367D01*
X157736790Y-79474210D01*
X157736787Y-79474208D01*
X156686790Y-78424210D01*
X156602116Y-78367633D01*
X156399675Y-78232367D01*
X156304096Y-78213355D01*
X156158481Y-78184390D01*
X156195353Y-78068958D01*
X155331000Y-77204605D01*
X154466647Y-78068958D01*
X154497326Y-78165000D01*
X153750951Y-78165000D01*
X154049188Y-77867283D01*
X154068951Y-77819688D01*
X154287042Y-77889353D01*
X155151395Y-77025000D01*
X154287042Y-76160647D01*
X154069360Y-76230181D01*
X154050656Y-76184914D01*
X154001704Y-76135876D01*
X154711787Y-75425792D01*
X154711790Y-75425790D01*
X154839975Y-75233946D01*
X154903634Y-75138674D01*
X154919793Y-75057440D01*
X155751015Y-75057440D01*
X155750786Y-75319579D01*
X155885913Y-75646610D01*
X155559721Y-75528282D01*
X154969542Y-75554685D01*
X154546920Y-75729741D01*
X154466647Y-75981042D01*
X155331000Y-76845395D01*
X155345143Y-76831253D01*
X155524748Y-77010858D01*
X155510605Y-77025000D01*
X156374958Y-77889353D01*
X156626259Y-77809080D01*
X156827718Y-77253721D01*
X156801315Y-76663542D01*
X156637235Y-76267418D01*
X156739266Y-76309785D01*
X156969406Y-76309986D01*
X159290208Y-78630787D01*
X159290210Y-78630790D01*
X159577325Y-78822633D01*
X159633516Y-78833810D01*
X159916000Y-78890001D01*
X159916005Y-78890000D01*
X160123502Y-78890000D01*
X160151694Y-78958229D01*
X160468050Y-79275137D01*
X160153360Y-79589278D01*
X159896293Y-80208362D01*
X159895708Y-80878697D01*
X160151694Y-81498229D01*
X160468050Y-81815137D01*
X160153360Y-82129278D01*
X159896293Y-82748362D01*
X159895708Y-83418697D01*
X160151694Y-84038229D01*
X160468050Y-84355137D01*
X160153360Y-84669278D01*
X159896293Y-85288362D01*
X159895708Y-85958697D01*
X160151694Y-86578229D01*
X160468050Y-86895137D01*
X160153360Y-87209278D01*
X159896293Y-87828362D01*
X159895708Y-88498697D01*
X160151694Y-89118229D01*
X160625278Y-89592640D01*
X161244362Y-89849707D01*
X161914697Y-89850292D01*
X162534229Y-89594306D01*
X163008640Y-89120722D01*
X163265707Y-88501638D01*
X163266292Y-87831303D01*
X163010306Y-87211771D01*
X162693950Y-86894863D01*
X163008640Y-86580722D01*
X163265707Y-85961638D01*
X163266292Y-85291303D01*
X163010306Y-84671771D01*
X162693950Y-84354863D01*
X163008640Y-84040722D01*
X163265707Y-83421638D01*
X163266292Y-82751303D01*
X163010306Y-82131771D01*
X162693950Y-81814863D01*
X163008640Y-81500722D01*
X163265707Y-80881638D01*
X163266292Y-80211303D01*
X163010306Y-79591771D01*
X162693950Y-79274863D01*
X163008640Y-78960722D01*
X163265707Y-78341638D01*
X163266292Y-77671303D01*
X163010306Y-77051771D01*
X162693950Y-76734863D01*
X163008640Y-76420722D01*
X163265707Y-75801638D01*
X163266292Y-75131303D01*
X163010306Y-74511771D01*
X162693950Y-74194863D01*
X163008640Y-73880722D01*
X163265707Y-73261638D01*
X163266292Y-72591303D01*
X163010306Y-71971771D01*
X162693950Y-71654863D01*
X163008640Y-71340722D01*
X163265707Y-70721638D01*
X163266292Y-70051303D01*
X163010306Y-69431771D01*
X162693950Y-69114863D01*
X163008640Y-68800722D01*
X163265707Y-68181638D01*
X163266292Y-67511303D01*
X163010306Y-66891771D01*
X162693950Y-66574863D01*
X163008640Y-66260722D01*
X163265707Y-65641638D01*
X163266292Y-64971303D01*
X163010306Y-64351771D01*
X162536722Y-63877360D01*
X161917638Y-63620293D01*
X161247303Y-63619708D01*
X160627771Y-63875694D01*
X160310863Y-64192050D01*
X159996722Y-63877360D01*
X159377638Y-63620293D01*
X158707303Y-63619708D01*
X158087771Y-63875694D01*
X157770863Y-64192050D01*
X157456722Y-63877360D01*
X156837638Y-63620293D01*
X156167303Y-63619708D01*
X155547771Y-63875694D01*
X155230863Y-64192050D01*
X154916722Y-63877360D01*
X154297638Y-63620293D01*
X153627303Y-63619708D01*
X153007771Y-63875694D01*
X152690863Y-64192050D01*
X152376722Y-63877360D01*
X151757638Y-63620293D01*
X151087303Y-63619708D01*
X150467771Y-63875694D01*
X150150863Y-64192050D01*
X149836722Y-63877360D01*
X149217638Y-63620293D01*
X148547303Y-63619708D01*
X147927771Y-63875694D01*
X147610863Y-64192050D01*
X147296722Y-63877360D01*
X146677638Y-63620293D01*
X146007303Y-63619708D01*
X145387771Y-63875694D01*
X145070863Y-64192050D01*
X144756722Y-63877360D01*
X144137638Y-63620293D01*
X143467303Y-63619708D01*
X142847771Y-63875694D01*
X142530863Y-64192050D01*
X142216722Y-63877360D01*
X141597638Y-63620293D01*
X140927303Y-63619708D01*
X140307771Y-63875694D01*
X139833360Y-64349278D01*
X139576293Y-64968362D01*
X139575708Y-65638697D01*
X139419400Y-65638697D01*
X139419400Y-64712931D01*
X139523215Y-64191016D01*
X139779244Y-63807843D01*
X140162415Y-63551815D01*
X140684331Y-63448000D01*
X162261469Y-63448000D01*
X162783384Y-63551815D01*
G36*
X147513000Y-84548000D02*
X147533000Y-84548000D01*
X147533000Y-84802000D01*
X147513000Y-84802000D01*
X147513000Y-85601250D01*
X147671750Y-85760000D01*
X147674420Y-85760000D01*
X147644420Y-85790000D01*
X147310669Y-85790000D01*
X147300090Y-85773559D01*
X147173314Y-85686936D01*
X147259000Y-85601250D01*
X147259000Y-84802000D01*
X147239000Y-84802000D01*
X147239000Y-84548000D01*
X147259000Y-84548000D01*
X147259000Y-84528000D01*
X147513000Y-84528000D01*
X147513000Y-84548000D01*
X147513000Y-84548000D01*
G37*
X147513000Y-84548000D02*
X147533000Y-84548000D01*
X147533000Y-84802000D01*
X147513000Y-84802000D01*
X147513000Y-85601250D01*
X147671750Y-85760000D01*
X147674420Y-85760000D01*
X147644420Y-85790000D01*
X147310669Y-85790000D01*
X147300090Y-85773559D01*
X147173314Y-85686936D01*
X147259000Y-85601250D01*
X147259000Y-84802000D01*
X147239000Y-84802000D01*
X147239000Y-84548000D01*
X147259000Y-84548000D01*
X147259000Y-84528000D01*
X147513000Y-84528000D01*
X147513000Y-84548000D01*
M02*
